<?xml version="1.0" encoding="UTF-8" standalone="no"?>
<!DOCTYPE svg PUBLIC "-//W3C//DTD SVG 1.1//EN"
 "http://www.w3.org/Graphics/SVG/1.1/DTD/svg11.dtd">
<!-- Generated by graphviz version 2.28.0 (20120217.0315)
 -->
<!-- Title: G Pages: 1 -->
<svg width="4162pt" height="364pt"
 viewBox="0.00 0.00 4161.50 364.00" xmlns="http://www.w3.org/2000/svg" xmlns:xlink="http://www.w3.org/1999/xlink">
<g id="graph1" class="graph" transform="scale(1 1) rotate(0) translate(4 360)">
<title>G</title>
<polygon fill="white" stroke="white" points="-4,5 -4,-360 4158.5,-360 4158.5,5 -4,5"/>
<!-- Node1 -->
<g id="node1" class="node"><title>Node1</title>
<polygon fill="#bfbfbf" stroke="black" points="88.5,-336.5 88.5,-355.5 229.5,-355.5 229.5,-336.5 88.5,-336.5"/>
<text text-anchor="middle" x="159" y="-343.5" font-family="Helvetica,sans-Serif" font-size="10.00">src/MPD/AbstractItemlist.hh</text>
</g>
<!-- Node2 -->
<g id="node3" class="node"><title>Node2</title>
<a xlink:href="AbstractItemGenerator_8hh.html" target="_top" xlink:title="src/MPD/AbstractItemGenerator.hh">
<polygon fill="white" stroke="black" points="979.5,-280.5 979.5,-299.5 1150.5,-299.5 1150.5,-280.5 979.5,-280.5"/>
<text text-anchor="middle" x="1065" y="-287.5" font-family="Helvetica,sans-Serif" font-size="10.00">src/MPD/AbstractItemGenerator.hh</text>
</a>
</g>
<!-- Node1&#45;&gt;Node2 -->
<g id="edge2" class="edge"><title>Node1&#45;&gt;Node2</title>
<path fill="none" stroke="midnightblue" d="M239.87,-340.18C410.211,-330.027 804.583,-306.522 979.175,-296.115"/>
<polygon fill="midnightblue" stroke="midnightblue" points="239.489,-336.696 229.715,-340.785 239.905,-343.684 239.489,-336.696"/>
</g>
<!-- Node7 -->
<g id="node13" class="node"><title>Node7</title>
<a xlink:href="Database_8hh.html" target="_top" xlink:title="src/Browser/Database/Database.hh">
<polygon fill="white" stroke="black" points="1158.5,-0.5 1158.5,-19.5 1331.5,-19.5 1331.5,-0.5 1158.5,-0.5"/>
<text text-anchor="middle" x="1245" y="-7.5" font-family="Helvetica,sans-Serif" font-size="10.00">src/Browser/Database/Database.hh</text>
</a>
</g>
<!-- Node1&#45;&gt;Node7 -->
<g id="edge150" class="edge"><title>Node1&#45;&gt;Node7</title>
<path fill="none" stroke="midnightblue" d="M148.857,-327.429C137.6,-306.236 121,-269.187 121,-235 121,-235 121,-235 121,-177 121,-138.577 144.416,-130.667 178,-112 345.618,-18.8354 935.057,-10.2195 1158.37,-10.3985"/>
<polygon fill="midnightblue" stroke="midnightblue" points="145.819,-329.168 153.716,-336.231 151.947,-325.785 145.819,-329.168"/>
</g>
<!-- Node10 -->
<g id="node19" class="node"><title>Node10</title>
<a xlink:href="PlaylistManager_8hh.html" target="_top" xlink:title="src/Browser/PlaylistManager/PlaylistManager.hh">
<polygon fill="white" stroke="black" points="0,-0.5 0,-19.5 228,-19.5 228,-0.5 0,-0.5"/>
<text text-anchor="middle" x="114" y="-7.5" font-family="Helvetica,sans-Serif" font-size="10.00">src/Browser/PlaylistManager/PlaylistManager.hh</text>
</a>
</g>
<!-- Node1&#45;&gt;Node10 -->
<g id="edge154" class="edge"><title>Node1&#45;&gt;Node10</title>
<path fill="none" stroke="midnightblue" d="M93.439,-333.766C71.2731,-327.135 47.8886,-316.627 31,-300 9.05491,-278.395 7,-265.795 7,-235 7,-235 7,-235 7,-121 7,-90.2048 10.837,-79.2766 31,-56 46.1323,-38.531 69.7743,-26.654 87.9615,-19.5084"/>
<polygon fill="midnightblue" stroke="midnightblue" points="92.6029,-337.166 103.174,-336.462 94.4714,-330.42 92.6029,-337.166"/>
</g>
<!-- Node11 -->
<g id="node21" class="node"><title>Node11</title>
<a xlink:href="Queue_8hh.html" target="_top" xlink:title="src/Browser/Queue/Queue.hh">
<polygon fill="white" stroke="black" points="284,-0.5 284,-19.5 430,-19.5 430,-0.5 284,-0.5"/>
<text text-anchor="middle" x="357" y="-7.5" font-family="Helvetica,sans-Serif" font-size="10.00">src/Browser/Queue/Queue.hh</text>
</a>
</g>
<!-- Node1&#45;&gt;Node11 -->
<g id="edge156" class="edge"><title>Node1&#45;&gt;Node11</title>
<path fill="none" stroke="midnightblue" d="M129.329,-332.07C95.5515,-315.106 45,-281.885 45,-235 45,-235 45,-235 45,-121 45,-68.0166 207.057,-34.2684 297.581,-19.5499"/>
<polygon fill="midnightblue" stroke="midnightblue" points="127.828,-335.231 138.355,-336.421 130.868,-328.926 127.828,-335.231"/>
</g>
<!-- Node14 -->
<g id="node28" class="node"><title>Node14</title>
<a xlink:href="DatabaseCache_8hh.html" target="_top" xlink:title="src/Browser/Database/DatabaseCache.hh">
<polygon fill="white" stroke="black" points="2593.5,-112.5 2593.5,-131.5 2794.5,-131.5 2794.5,-112.5 2593.5,-112.5"/>
<text text-anchor="middle" x="2694" y="-119.5" font-family="Helvetica,sans-Serif" font-size="10.00">src/Browser/Database/DatabaseCache.hh</text>
</a>
</g>
<!-- Node1&#45;&gt;Node14 -->
<g id="edge152" class="edge"><title>Node1&#45;&gt;Node14</title>
<path fill="none" stroke="midnightblue" d="M239.699,-343.878C707.488,-336.993 3053.86,-297.082 3157,-188 3163.11,-181.541 3162.97,-174.582 3157,-168 3153.93,-164.622 2924.39,-143.581 2789.7,-131.503"/>
<polygon fill="midnightblue" stroke="midnightblue" points="239.6,-340.379 229.653,-344.025 239.703,-347.379 239.6,-340.379"/>
</g>
<!-- Node17 -->
<g id="node38" class="node"><title>Node17</title>
<a xlink:href="QueueMerger_8hh.html" target="_top" xlink:title="src/Browser/Queue/QueueMerger.hh">
<polygon fill="white" stroke="black" points="187,-112.5 187,-131.5 363,-131.5 363,-112.5 187,-112.5"/>
<text text-anchor="middle" x="275" y="-119.5" font-family="Helvetica,sans-Serif" font-size="10.00">src/Browser/Queue/QueueMerger.hh</text>
</a>
</g>
<!-- Node1&#45;&gt;Node17 -->
<g id="edge158" class="edge"><title>Node1&#45;&gt;Node17</title>
<path fill="none" stroke="midnightblue" d="M168.323,-327.157C191.857,-282.119 253.021,-165.063 270.358,-131.884"/>
<polygon fill="midnightblue" stroke="midnightblue" points="165.076,-325.813 163.547,-336.297 171.281,-329.055 165.076,-325.813"/>
</g>
<!-- Node21 -->
<g id="node50" class="node"><title>Node21</title>
<a xlink:href="SettingsOutputs_8hh.html" target="_top" xlink:title="src/Browser/Settings/SettingsOutputs.hh">
<polygon fill="white" stroke="black" points="2812.5,-112.5 2812.5,-131.5 3007.5,-131.5 3007.5,-112.5 2812.5,-112.5"/>
<text text-anchor="middle" x="2910" y="-119.5" font-family="Helvetica,sans-Serif" font-size="10.00">src/Browser/Settings/SettingsOutputs.hh</text>
</a>
</g>
<!-- Node1&#45;&gt;Node21 -->
<g id="edge160" class="edge"><title>Node1&#45;&gt;Node21</title>
<path fill="none" stroke="midnightblue" d="M239.926,-344.593C513.026,-342.92 1425.68,-334.903 2179,-300 2401.27,-289.702 3039.54,-365.283 3174,-188 3179.37,-180.918 3179.73,-174.793 3174,-168 3152.71,-142.773 3073.81,-131.686 3007.76,-126.815"/>
<polygon fill="midnightblue" stroke="midnightblue" points="239.688,-341.094 229.71,-344.654 239.73,-348.094 239.688,-341.094"/>
</g>
<!-- Node3 -->
<g id="node5" class="node"><title>Node3</title>
<a xlink:href="Client_8hh.html" target="_top" xlink:title="src/MPD/Client.hh">
<polygon fill="white" stroke="black" points="1808,-224.5 1808,-243.5 1906,-243.5 1906,-224.5 1808,-224.5"/>
<text text-anchor="middle" x="1857" y="-231.5" font-family="Helvetica,sans-Serif" font-size="10.00">src/MPD/Client.hh</text>
</a>
</g>
<!-- Node2&#45;&gt;Node3 -->
<g id="edge4" class="edge"><title>Node2&#45;&gt;Node3</title>
<path fill="none" stroke="midnightblue" d="M1160.7,-282.475C1330.64,-270.888 1679.32,-247.115 1807.94,-238.345"/>
<polygon fill="midnightblue" stroke="midnightblue" points="1160.25,-278.998 1150.51,-283.17 1160.73,-285.981 1160.25,-278.998"/>
</g>
<!-- Node4 -->
<g id="node7" class="node"><title>Node4</title>
<a xlink:href="AbstractClientUser_8hh.html" target="_top" xlink:title="src/MPD/AbstractClientUser.hh">
<polygon fill="white" stroke="black" points="1581.5,-168.5 1581.5,-187.5 1736.5,-187.5 1736.5,-168.5 1581.5,-168.5"/>
<text text-anchor="middle" x="1659" y="-175.5" font-family="Helvetica,sans-Serif" font-size="10.00">src/MPD/AbstractClientUser.hh</text>
</a>
</g>
<!-- Node3&#45;&gt;Node4 -->
<g id="edge6" class="edge"><title>Node3&#45;&gt;Node4</title>
<path fill="none" stroke="midnightblue" d="M1815.56,-221.699C1778.19,-211.507 1724.06,-196.743 1690.23,-187.516"/>
<polygon fill="midnightblue" stroke="midnightblue" points="1815.06,-225.189 1825.63,-224.444 1816.9,-218.436 1815.06,-225.189"/>
</g>
<!-- Node3&#45;&gt;Node7 -->
<g id="edge84" class="edge"><title>Node3&#45;&gt;Node7</title>
<path fill="none" stroke="midnightblue" d="M1797.85,-232.375C1638.88,-230.278 1189.29,-221.592 817,-188 635.146,-171.591 529.991,-269.631 410,-132 404.159,-125.3 404.104,-118.652 410,-112 459.124,-56.5762 954.789,-25.5664 1158.39,-15.0829"/>
<polygon fill="midnightblue" stroke="midnightblue" points="1797.85,-235.875 1807.89,-232.504 1797.94,-228.876 1797.85,-235.875"/>
</g>
<!-- Node9 -->
<g id="node17" class="node"><title>Node9</title>
<a xlink:href="NowPlaying_8hh.html" target="_top" xlink:title="src/Browser/NowPlaying/NowPlaying.hh">
<polygon fill="white" stroke="black" points="3318,-0.5 3318,-19.5 3512,-19.5 3512,-0.5 3318,-0.5"/>
<text text-anchor="middle" x="3415" y="-7.5" font-family="Helvetica,sans-Serif" font-size="10.00">src/Browser/NowPlaying/NowPlaying.hh</text>
</a>
</g>
<!-- Node3&#45;&gt;Node9 -->
<g id="edge116" class="edge"><title>Node3&#45;&gt;Node9</title>
<path fill="none" stroke="midnightblue" d="M1916.45,-233.088C2113.66,-232.967 2764.17,-229.242 3300,-188 3503.15,-172.364 3553.02,-158.781 3755,-132 3930.34,-108.752 4033.07,-209.577 4149,-76 4154.83,-69.2869 4155.09,-62.4748 4149,-56 4127.52,-33.1575 3706.56,-18.8689 3512.04,-13.4609"/>
<polygon fill="midnightblue" stroke="midnightblue" points="1916.3,-229.588 1906.3,-233.092 1916.3,-236.588 1916.3,-229.588"/>
</g>
<!-- Node3&#45;&gt;Node10 -->
<g id="edge118" class="edge"><title>Node3&#45;&gt;Node10</title>
<path fill="none" stroke="midnightblue" d="M1797.49,-232.688C1511.37,-231.019 288.057,-221.919 215,-188 145.365,-155.669 121.212,-50.971 115.47,-19.8211"/>
<polygon fill="midnightblue" stroke="midnightblue" points="1797.64,-236.189 1807.66,-232.746 1797.68,-229.189 1797.64,-236.189"/>
</g>
<!-- Node3&#45;&gt;Node11 -->
<g id="edge122" class="edge"><title>Node3&#45;&gt;Node11</title>
<path fill="none" stroke="midnightblue" d="M1797.39,-232.482C1564.25,-230.242 713.836,-220.007 446,-188 325.176,-173.561 254.741,-226.434 178,-132 132.698,-76.2537 255.336,-36.2006 320.01,-19.5564"/>
<polygon fill="midnightblue" stroke="midnightblue" points="1797.67,-235.985 1807.7,-232.58 1797.73,-228.985 1797.67,-235.985"/>
</g>
<!-- Node13 -->
<g id="node25" class="node"><title>Node13</title>
<a xlink:href="StatBrowser_8hh.html" target="_top" xlink:title="src/Browser/Statistics/StatBrowser.hh">
<polygon fill="white" stroke="black" points="2266,-0.5 2266,-19.5 2450,-19.5 2450,-0.5 2266,-0.5"/>
<text text-anchor="middle" x="2358" y="-7.5" font-family="Helvetica,sans-Serif" font-size="10.00">src/Browser/Statistics/StatBrowser.hh</text>
</a>
</g>
<!-- Node3&#45;&gt;Node13 -->
<g id="edge130" class="edge"><title>Node3&#45;&gt;Node13</title>
<path fill="none" stroke="midnightblue" d="M1916.09,-232.486C2142.05,-229.911 2942.4,-214.954 3016,-132 3103.55,-33.3203 2545.69,-129.255 2425,-76 2397.12,-63.7005 2374.06,-34.4109 2363.77,-19.7187"/>
<polygon fill="midnightblue" stroke="midnightblue" points="1916.05,-228.987 1906.09,-232.597 1916.12,-235.986 1916.05,-228.987"/>
</g>
<!-- Node16 -->
<g id="node34" class="node"><title>Node16</title>
<a xlink:href="PlaylistAddDialog_8hh.html" target="_top" xlink:title="src/Browser/Queue/PlaylistAddDialog.hh">
<polygon fill="white" stroke="black" points="419,-112.5 419,-131.5 613,-131.5 613,-112.5 419,-112.5"/>
<text text-anchor="middle" x="516" y="-119.5" font-family="Helvetica,sans-Serif" font-size="10.00">src/Browser/Queue/PlaylistAddDialog.hh</text>
</a>
</g>
<!-- Node3&#45;&gt;Node16 -->
<g id="edge120" class="edge"><title>Node3&#45;&gt;Node16</title>
<path fill="none" stroke="midnightblue" d="M1797.38,-231.639C1656.61,-228.049 1292.67,-216.556 990,-188 835.775,-173.449 654.692,-145.602 567.737,-131.554"/>
<polygon fill="midnightblue" stroke="midnightblue" points="1797.44,-235.142 1807.53,-231.894 1797.62,-228.144 1797.44,-235.142"/>
</g>
<!-- Node18 -->
<g id="node41" class="node"><title>Node18</title>
<a xlink:href="SettingsPlayback_8hh.html" target="_top" xlink:title="src/Browser/Settings/SettingsPlayback.hh">
<polygon fill="white" stroke="black" points="2020.5,-112.5 2020.5,-131.5 2221.5,-131.5 2221.5,-112.5 2020.5,-112.5"/>
<text text-anchor="middle" x="2121" y="-119.5" font-family="Helvetica,sans-Serif" font-size="10.00">src/Browser/Settings/SettingsPlayback.hh</text>
</a>
</g>
<!-- Node3&#45;&gt;Node18 -->
<g id="edge124" class="edge"><title>Node3&#45;&gt;Node18</title>
<path fill="none" stroke="midnightblue" d="M1887.13,-220.446C1941.35,-197.855 2054.01,-150.911 2100.38,-131.591"/>
<polygon fill="midnightblue" stroke="midnightblue" points="1885.6,-217.291 1877.72,-224.368 1888.29,-223.753 1885.6,-217.291"/>
</g>
<!-- Node19 -->
<g id="node44" class="node"><title>Node19</title>
<a xlink:href="Trayicon_8hh.html" target="_top" xlink:title="src/GManager/Trayicon.hh">
<polygon fill="white" stroke="black" points="2443,-112.5 2443,-131.5 2575,-131.5 2575,-112.5 2443,-112.5"/>
<text text-anchor="middle" x="2509" y="-119.5" font-family="Helvetica,sans-Serif" font-size="10.00">src/GManager/Trayicon.hh</text>
</a>
</g>
<!-- Node3&#45;&gt;Node19 -->
<g id="edge126" class="edge"><title>Node3&#45;&gt;Node19</title>
<path fill="none" stroke="midnightblue" d="M1916.4,-232.768C2043.37,-231.557 2337.13,-224.74 2429,-188 2460.24,-175.508 2488.74,-146.309 2501.68,-131.678"/>
<polygon fill="midnightblue" stroke="midnightblue" points="1916.06,-229.271 1906.09,-232.857 1916.12,-236.27 1916.06,-229.271"/>
</g>
<!-- Node3&#45;&gt;Node21 -->
<g id="edge128" class="edge"><title>Node3&#45;&gt;Node21</title>
<path fill="none" stroke="midnightblue" d="M1916.42,-229.928C2024.71,-224.027 2261.35,-209.733 2460,-188 2605.36,-172.097 2775.99,-145.173 2859.19,-131.506"/>
<polygon fill="midnightblue" stroke="midnightblue" points="1916.14,-226.438 1906.35,-230.473 1916.52,-233.428 1916.14,-226.438"/>
</g>
<!-- Node22 -->
<g id="node53" class="node"><title>Node22</title>
<a xlink:href="Heartbeat_8hh.html" target="_top" xlink:title="src/GManager/Heartbeat.hh">
<polygon fill="white" stroke="black" points="1788.5,-112.5 1788.5,-131.5 1925.5,-131.5 1925.5,-112.5 1788.5,-112.5"/>
<text text-anchor="middle" x="1857" y="-119.5" font-family="Helvetica,sans-Serif" font-size="10.00">src/GManager/Heartbeat.hh</text>
</a>
</g>
<!-- Node3&#45;&gt;Node22 -->
<g id="edge134" class="edge"><title>Node3&#45;&gt;Node22</title>
<path fill="none" stroke="midnightblue" d="M1857,-214.348C1857,-190.254 1857,-149.308 1857,-131.591"/>
<polygon fill="midnightblue" stroke="midnightblue" points="1853.5,-214.368 1857,-224.368 1860.5,-214.369 1853.5,-214.368"/>
</g>
<!-- Node23 -->
<g id="node55" class="node"><title>Node23</title>
<a xlink:href="Statusbar_8hh.html" target="_top" xlink:title="src/GManager/Statusbar.hh">
<polygon fill="white" stroke="black" points="1914.5,-56.5 1914.5,-75.5 2051.5,-75.5 2051.5,-56.5 1914.5,-56.5"/>
<text text-anchor="middle" x="1983" y="-63.5" font-family="Helvetica,sans-Serif" font-size="10.00">src/GManager/Statusbar.hh</text>
</a>
</g>
<!-- Node3&#45;&gt;Node23 -->
<g id="edge140" class="edge"><title>Node3&#45;&gt;Node23</title>
<path fill="none" stroke="midnightblue" d="M1916.34,-231.03C2043.31,-225.436 2334.7,-204.78 2395,-132 2400.67,-125.155 2400.93,-118.618 2395,-112 2383.7,-99.3944 2166.23,-80.9945 2051.92,-72.1384"/>
<polygon fill="midnightblue" stroke="midnightblue" points="1915.87,-227.546 1906.03,-231.467 1916.17,-234.54 1915.87,-227.546"/>
</g>
<!-- Node25 -->
<g id="node59" class="node"><title>Node25</title>
<a xlink:href="MenuList_8hh.html" target="_top" xlink:title="src/GManager/MenuList.hh">
<polygon fill="white" stroke="black" points="957,-112.5 957,-131.5 1091,-131.5 1091,-112.5 957,-112.5"/>
<text text-anchor="middle" x="1024" y="-119.5" font-family="Helvetica,sans-Serif" font-size="10.00">src/GManager/MenuList.hh</text>
</a>
</g>
<!-- Node3&#45;&gt;Node25 -->
<g id="edge136" class="edge"><title>Node3&#45;&gt;Node25</title>
<path fill="none" stroke="midnightblue" d="M1797.72,-227.108C1719.06,-219.124 1575.91,-204.015 1454,-188 1317.2,-170.029 1156.58,-144.592 1075.87,-131.506"/>
<polygon fill="midnightblue" stroke="midnightblue" points="1797.62,-230.615 1807.92,-228.14 1798.32,-223.651 1797.62,-230.615"/>
</g>
<!-- Node27 -->
<g id="node63" class="node"><title>Node27</title>
<a xlink:href="PlaybackButtons_8hh.html" target="_top" xlink:title="src/GManager/PlaybackButtons.hh">
<polygon fill="white" stroke="black" points="1109.5,-112.5 1109.5,-131.5 1278.5,-131.5 1278.5,-112.5 1109.5,-112.5"/>
<text text-anchor="middle" x="1194" y="-119.5" font-family="Helvetica,sans-Serif" font-size="10.00">src/GManager/PlaybackButtons.hh</text>
</a>
</g>
<!-- Node3&#45;&gt;Node27 -->
<g id="edge138" class="edge"><title>Node3&#45;&gt;Node27</title>
<path fill="none" stroke="midnightblue" d="M1797.77,-223.889C1740.1,-214.962 1649.98,-200.86 1572,-188 1453.41,-168.442 1314.13,-144.15 1242.3,-131.523"/>
<polygon fill="midnightblue" stroke="midnightblue" points="1797.38,-227.371 1807.79,-225.44 1798.45,-220.453 1797.38,-227.371"/>
</g>
<!-- Node28 -->
<g id="node66" class="node"><title>Node28</title>
<a xlink:href="StatusIcons_8hh.html" target="_top" xlink:title="src/GManager/StatusIcons.hh">
<polygon fill="white" stroke="black" points="2239.5,-112.5 2239.5,-131.5 2386.5,-131.5 2386.5,-112.5 2239.5,-112.5"/>
<text text-anchor="middle" x="2313" y="-119.5" font-family="Helvetica,sans-Serif" font-size="10.00">src/GManager/StatusIcons.hh</text>
</a>
</g>
<!-- Node3&#45;&gt;Node28 -->
<g id="edge142" class="edge"><title>Node3&#45;&gt;Node28</title>
<path fill="none" stroke="midnightblue" d="M1902.4,-222.049C1993.25,-200.132 2195.74,-151.287 2277.62,-131.535"/>
<polygon fill="midnightblue" stroke="midnightblue" points="1901.3,-218.713 1892.4,-224.46 1902.94,-225.517 1901.3,-218.713"/>
</g>
<!-- Node29 -->
<g id="node69" class="node"><title>Node29</title>
<a xlink:href="TitleLabel_8hh.html" target="_top" xlink:title="src/GManager/TitleLabel.hh">
<polygon fill="white" stroke="black" points="631.5,-112.5 631.5,-131.5 768.5,-131.5 768.5,-112.5 631.5,-112.5"/>
<text text-anchor="middle" x="700" y="-119.5" font-family="Helvetica,sans-Serif" font-size="10.00">src/GManager/TitleLabel.hh</text>
</a>
</g>
<!-- Node3&#45;&gt;Node29 -->
<g id="edge144" class="edge"><title>Node3&#45;&gt;Node29</title>
<path fill="none" stroke="midnightblue" d="M1797.52,-230.725C1676.61,-225.758 1393.59,-212.393 1157,-188 1008.93,-172.733 835.134,-145.4 750.902,-131.549"/>
<polygon fill="midnightblue" stroke="midnightblue" points="1797.53,-234.228 1807.67,-231.137 1797.82,-227.234 1797.53,-234.228"/>
</g>
<!-- Node30 -->
<g id="node71" class="node"><title>Node30</title>
<a xlink:href="VolumeSlider_8hh.html" target="_top" xlink:title="src/GManager/VolumeSlider.hh">
<polygon fill="white" stroke="black" points="787,-112.5 787,-131.5 939,-131.5 939,-112.5 787,-112.5"/>
<text text-anchor="middle" x="863" y="-119.5" font-family="Helvetica,sans-Serif" font-size="10.00">src/GManager/VolumeSlider.hh</text>
</a>
</g>
<!-- Node3&#45;&gt;Node30 -->
<g id="edge146" class="edge"><title>Node3&#45;&gt;Node30</title>
<path fill="none" stroke="midnightblue" d="M1797.7,-229.373C1696.89,-222.933 1485.75,-208.247 1308,-188 1164.68,-171.676 996.457,-145.06 913.919,-131.509"/>
<polygon fill="midnightblue" stroke="midnightblue" points="1797.48,-232.867 1807.69,-230.008 1797.93,-225.881 1797.48,-232.867"/>
</g>
<!-- Node31 -->
<g id="node74" class="node"><title>Node31</title>
<a xlink:href="UpdateInterface_8hh.html" target="_top" xlink:title="src/Glyr/UpdateInterface.hh">
<polygon fill="white" stroke="black" points="3166.5,-112.5 3166.5,-131.5 3303.5,-131.5 3303.5,-112.5 3166.5,-112.5"/>
<text text-anchor="middle" x="3235" y="-119.5" font-family="Helvetica,sans-Serif" font-size="10.00">src/Glyr/UpdateInterface.hh</text>
</a>
</g>
<!-- Node3&#45;&gt;Node31 -->
<g id="edge86" class="edge"><title>Node3&#45;&gt;Node31</title>
<path fill="none" stroke="midnightblue" d="M1916.43,-233.201C2155.59,-233.705 3040.39,-232.516 3157,-188 3187.96,-176.181 3215.51,-146.666 3227.97,-131.82"/>
<polygon fill="midnightblue" stroke="midnightblue" points="1916.21,-229.701 1906.2,-233.178 1916.19,-236.701 1916.21,-229.701"/>
</g>
<!-- Node38 -->
<g id="node95" class="node"><title>Node38</title>
<a xlink:href="Request_8hh.html" target="_top" xlink:title="src/Glyr/Request.hh">
<polygon fill="white" stroke="black" points="4036,-56.5 4036,-75.5 4140,-75.5 4140,-56.5 4036,-56.5"/>
<text text-anchor="middle" x="4088" y="-63.5" font-family="Helvetica,sans-Serif" font-size="10.00">src/Glyr/Request.hh</text>
</a>
</g>
<!-- Node3&#45;&gt;Node38 -->
<g id="edge132" class="edge"><title>Node3&#45;&gt;Node38</title>
<path fill="none" stroke="midnightblue" d="M1916.22,-233.086C2103.23,-232.913 2697.86,-228.938 3188,-188 3513.61,-160.804 3901.87,-98.3383 4037.94,-75.5338"/>
<polygon fill="midnightblue" stroke="midnightblue" points="1916.05,-229.586 1906.05,-233.093 1916.05,-236.586 1916.05,-229.586"/>
</g>
<!-- Node39 -->
<g id="node113" class="node"><title>Node39</title>
<a xlink:href="check__mpd_8hh.html" target="_top" xlink:title="src/MPD/check_mpd.hh">
<polygon fill="white" stroke="black" points="3026,-168.5 3026,-187.5 3148,-187.5 3148,-168.5 3026,-168.5"/>
<text text-anchor="middle" x="3087" y="-175.5" font-family="Helvetica,sans-Serif" font-size="10.00">src/MPD/check_mpd.hh</text>
</a>
</g>
<!-- Node3&#45;&gt;Node39 -->
<g id="edge148" class="edge"><title>Node3&#45;&gt;Node39</title>
<path fill="none" stroke="midnightblue" d="M1916.07,-232.376C2086.38,-230.216 2592.97,-221.251 3012,-188 3016.44,-187.647 3021.03,-187.23 3025.65,-186.77"/>
<polygon fill="midnightblue" stroke="midnightblue" points="1916.01,-228.876 1906.05,-232.5 1916.1,-235.876 1916.01,-228.876"/>
</g>
<!-- Node5 -->
<g id="node9" class="node"><title>Node5</title>
<a xlink:href="BrowserList_8hh.html" target="_top" xlink:title="src/GManager/BrowserList.hh">
<polygon fill="white" stroke="black" points="1586,-112.5 1586,-131.5 1732,-131.5 1732,-112.5 1586,-112.5"/>
<text text-anchor="middle" x="1659" y="-119.5" font-family="Helvetica,sans-Serif" font-size="10.00">src/GManager/BrowserList.hh</text>
</a>
</g>
<!-- Node4&#45;&gt;Node5 -->
<g id="edge8" class="edge"><title>Node4&#45;&gt;Node5</title>
<path fill="none" stroke="midnightblue" d="M1659,-157.805C1659,-148.91 1659,-138.78 1659,-131.751"/>
<polygon fill="midnightblue" stroke="midnightblue" points="1655.5,-158.083 1659,-168.083 1662.5,-158.083 1655.5,-158.083"/>
</g>
<!-- Node4&#45;&gt;Node7 -->
<g id="edge26" class="edge"><title>Node4&#45;&gt;Node7</title>
<path fill="none" stroke="midnightblue" d="M1635.33,-163.387C1610.55,-149.452 1570.27,-127.674 1534,-112 1441.06,-71.8392 1326.41,-35.5207 1273.82,-19.5649"/>
<polygon fill="midnightblue" stroke="midnightblue" points="1633.9,-166.603 1644.33,-168.489 1637.35,-160.514 1633.9,-166.603"/>
</g>
<!-- Node4&#45;&gt;Node10 -->
<g id="edge34" class="edge"><title>Node4&#45;&gt;Node10</title>
<path fill="none" stroke="midnightblue" d="M1571.37,-168.693C1488.19,-160.176 1369.45,-146.2 1325,-132 1306.82,-126.192 1305.31,-117.369 1287,-112 1187.09,-82.7085 503.174,-36.0643 228.16,-18.2441"/>
<polygon fill="midnightblue" stroke="midnightblue" points="1571.03,-172.177 1581.34,-169.705 1571.74,-165.212 1571.03,-172.177"/>
</g>
<!-- Node4&#45;&gt;Node11 -->
<g id="edge40" class="edge"><title>Node4&#45;&gt;Node11</title>
<path fill="none" stroke="midnightblue" d="M1621.05,-165.38C1595.88,-157.182 1562.39,-145.318 1534,-132 1518.13,-124.554 1516.7,-117.347 1500,-112 1299.25,-47.7109 649.317,-20.6922 430.029,-13.257"/>
<polygon fill="midnightblue" stroke="midnightblue" points="1620,-168.722 1630.6,-168.446 1622.14,-162.057 1620,-168.722"/>
</g>
<!-- Node4&#45;&gt;Node14 -->
<g id="edge28" class="edge"><title>Node4&#45;&gt;Node14</title>
<path fill="none" stroke="midnightblue" d="M1746.77,-173.697C1911.14,-167.296 2276.58,-152.049 2584,-132 2587.06,-131.8 2590.17,-131.591 2593.3,-131.373"/>
<polygon fill="midnightblue" stroke="midnightblue" points="1746.56,-170.202 1736.71,-174.087 1746.84,-177.197 1746.56,-170.202"/>
</g>
<!-- Node15 -->
<g id="node30" class="node"><title>Node15</title>
<a xlink:href="CoverArtMgr_8hh.html" target="_top" xlink:title="src/Browser/NowPlaying/CoverArtMgr.hh">
<polygon fill="white" stroke="black" points="2434.5,-56.5 2434.5,-75.5 2631.5,-75.5 2631.5,-56.5 2434.5,-56.5"/>
<text text-anchor="middle" x="2533" y="-63.5" font-family="Helvetica,sans-Serif" font-size="10.00">src/Browser/NowPlaying/CoverArtMgr.hh</text>
</a>
</g>
<!-- Node4&#45;&gt;Node15 -->
<g id="edge30" class="edge"><title>Node4&#45;&gt;Node15</title>
<path fill="none" stroke="midnightblue" d="M1746.96,-168.92C1807.3,-162.136 1888.84,-150.516 1959,-132 1982.94,-125.681 1986.87,-117.563 2011,-112 2088.89,-94.0432 2305.86,-79.5328 2434.23,-72.2"/>
<polygon fill="midnightblue" stroke="midnightblue" points="1746.26,-165.475 1736.7,-170.049 1747.03,-172.433 1746.26,-165.475"/>
</g>
<!-- Node4&#45;&gt;Node16 -->
<g id="edge36" class="edge"><title>Node4&#45;&gt;Node16</title>
<path fill="none" stroke="midnightblue" d="M1571.07,-174.411C1392.23,-168.875 973.277,-154.525 622,-132 619.051,-131.811 616.057,-131.61 613.034,-131.4"/>
<polygon fill="midnightblue" stroke="midnightblue" points="1571.11,-177.914 1581.21,-174.724 1571.33,-170.917 1571.11,-177.914"/>
</g>
<!-- Node4&#45;&gt;Node17 -->
<g id="edge42" class="edge"><title>Node4&#45;&gt;Node17</title>
<path fill="none" stroke="midnightblue" d="M1571.45,-174.766C1367.67,-169.365 845.786,-154.371 410,-132 394.869,-131.223 378.793,-130.267 363.208,-129.27"/>
<polygon fill="midnightblue" stroke="midnightblue" points="1571.41,-178.266 1581.5,-175.031 1571.59,-171.268 1571.41,-178.266"/>
</g>
<!-- Node4&#45;&gt;Node18 -->
<g id="edge46" class="edge"><title>Node4&#45;&gt;Node18</title>
<path fill="none" stroke="midnightblue" d="M1742.07,-167.291C1829.23,-157.103 1964.89,-141.246 2048.05,-131.526"/>
<polygon fill="midnightblue" stroke="midnightblue" points="1741.48,-163.836 1731.95,-168.473 1742.29,-170.789 1741.48,-163.836"/>
</g>
<!-- Node4&#45;&gt;Node19 -->
<g id="edge50" class="edge"><title>Node4&#45;&gt;Node19</title>
<path fill="none" stroke="midnightblue" d="M1746.75,-172.139C1884.75,-164.38 2160.93,-148.394 2395,-132 2410.45,-130.918 2427.07,-129.66 2442.71,-128.433"/>
<polygon fill="midnightblue" stroke="midnightblue" points="1746.44,-168.651 1736.65,-172.706 1746.83,-175.64 1746.44,-168.651"/>
</g>
<!-- Node4&#45;&gt;Node21 -->
<g id="edge58" class="edge"><title>Node4&#45;&gt;Node21</title>
<path fill="none" stroke="midnightblue" d="M1746.76,-174.882C1938.53,-169.962 2409.3,-156.288 2803,-132 2806.07,-131.811 2809.19,-131.608 2812.34,-131.395"/>
<polygon fill="midnightblue" stroke="midnightblue" points="1746.65,-171.384 1736.74,-175.138 1746.82,-178.382 1746.65,-171.384"/>
</g>
<!-- Node4&#45;&gt;Node22 -->
<g id="edge62" class="edge"><title>Node4&#45;&gt;Node22</title>
<path fill="none" stroke="midnightblue" d="M1700.44,-165.699C1737.81,-155.507 1791.94,-140.743 1825.77,-131.516"/>
<polygon fill="midnightblue" stroke="midnightblue" points="1699.1,-162.436 1690.37,-168.444 1700.94,-169.189 1699.1,-162.436"/>
</g>
<!-- Node4&#45;&gt;Node23 -->
<g id="edge74" class="edge"><title>Node4&#45;&gt;Node23</title>
<path fill="none" stroke="midnightblue" d="M1746.99,-169.736C1815.22,-162.802 1903.18,-150.621 1934,-132 1956.5,-118.406 1972.17,-90.253 1979.06,-75.8729"/>
<polygon fill="midnightblue" stroke="midnightblue" points="1746.26,-166.292 1736.65,-170.763 1746.95,-173.258 1746.26,-166.292"/>
</g>
<!-- Node24 -->
<g id="node57" class="node"><title>Node24</title>
<a xlink:href="Timeslide_8hh.html" target="_top" xlink:title="src/GManager/Timeslide.hh">
<polygon fill="white" stroke="black" points="1759.5,-56.5 1759.5,-75.5 1896.5,-75.5 1896.5,-56.5 1759.5,-56.5"/>
<text text-anchor="middle" x="1828" y="-63.5" font-family="Helvetica,sans-Serif" font-size="10.00">src/GManager/Timeslide.hh</text>
</a>
</g>
<!-- Node4&#45;&gt;Node24 -->
<g id="edge78" class="edge"><title>Node4&#45;&gt;Node24</title>
<path fill="none" stroke="midnightblue" d="M1685.36,-163.734C1701.71,-155.215 1722.96,-143.606 1741,-132 1769.7,-113.533 1801.31,-88.6866 1817.36,-75.713"/>
<polygon fill="midnightblue" stroke="midnightblue" points="1683.65,-160.678 1676.36,-168.369 1686.86,-166.901 1683.65,-160.678"/>
</g>
<!-- Node4&#45;&gt;Node25 -->
<g id="edge68" class="edge"><title>Node4&#45;&gt;Node25</title>
<path fill="none" stroke="midnightblue" d="M1571.08,-170.947C1460.89,-163.126 1266.29,-148.534 1100,-132 1097.09,-131.711 1094.12,-131.405 1091.12,-131.087"/>
<polygon fill="midnightblue" stroke="midnightblue" points="1570.92,-174.445 1581.15,-171.66 1571.42,-167.463 1570.92,-174.445"/>
</g>
<!-- Node26 -->
<g id="node61" class="node"><title>Node26</title>
<a xlink:href="NotifyManager_8hh.html" target="_top" xlink:title="src/GManager/NotifyManager.hh">
<polygon fill="white" stroke="black" points="1334,-112.5 1334,-131.5 1492,-131.5 1492,-112.5 1334,-112.5"/>
<text text-anchor="middle" x="1413" y="-119.5" font-family="Helvetica,sans-Serif" font-size="10.00">src/GManager/NotifyManager.hh</text>
</a>
</g>
<!-- Node4&#45;&gt;Node26 -->
<g id="edge70" class="edge"><title>Node4&#45;&gt;Node26</title>
<path fill="none" stroke="midnightblue" d="M1610.17,-166.281C1563.68,-156.077 1494.64,-140.92 1451.8,-131.516"/>
<polygon fill="midnightblue" stroke="midnightblue" points="1609.5,-169.718 1620.02,-168.444 1611,-162.881 1609.5,-169.718"/>
</g>
<!-- Node4&#45;&gt;Node27 -->
<g id="edge72" class="edge"><title>Node4&#45;&gt;Node27</title>
<path fill="none" stroke="midnightblue" d="M1575.39,-167.291C1487.67,-157.103 1351.12,-141.246 1267.42,-131.526"/>
<polygon fill="midnightblue" stroke="midnightblue" points="1575.24,-170.796 1585.58,-168.473 1576.05,-163.843 1575.24,-170.796"/>
</g>
<!-- Node4&#45;&gt;Node28 -->
<g id="edge76" class="edge"><title>Node4&#45;&gt;Node28</title>
<path fill="none" stroke="midnightblue" d="M1746.89,-170.878C1859.07,-162.879 2059.1,-147.996 2230,-132 2233.03,-131.716 2236.12,-131.419 2239.25,-131.111"/>
<polygon fill="midnightblue" stroke="midnightblue" points="1746.37,-167.406 1736.64,-171.607 1746.87,-174.389 1746.37,-167.406"/>
</g>
<!-- Node4&#45;&gt;Node29 -->
<g id="edge80" class="edge"><title>Node4&#45;&gt;Node29</title>
<path fill="none" stroke="midnightblue" d="M1571.23,-174.373C1412.65,-169.214 1067.92,-156.105 778,-132 775.011,-131.752 771.96,-131.479 768.88,-131.189"/>
<polygon fill="midnightblue" stroke="midnightblue" points="1571.3,-177.877 1581.4,-174.702 1571.52,-170.881 1571.3,-177.877"/>
</g>
<!-- Node4&#45;&gt;Node30 -->
<g id="edge82" class="edge"><title>Node4&#45;&gt;Node30</title>
<path fill="none" stroke="midnightblue" d="M1571.09,-172.634C1436.71,-165.69 1172.17,-150.953 948,-132 945.191,-131.762 942.33,-131.511 939.441,-131.248"/>
<polygon fill="midnightblue" stroke="midnightblue" points="1571.16,-176.143 1581.33,-173.161 1571.52,-169.152 1571.16,-176.143"/>
</g>
<!-- Node6 -->
<g id="node11" class="node"><title>Node6</title>
<a xlink:href="AbstractBrowser_8hh.html" target="_top" xlink:title="src/Browser/AbstractBrowser.hh">
<polygon fill="white" stroke="black" points="1583,-56.5 1583,-75.5 1741,-75.5 1741,-56.5 1583,-56.5"/>
<text text-anchor="middle" x="1662" y="-63.5" font-family="Helvetica,sans-Serif" font-size="10.00">src/Browser/AbstractBrowser.hh</text>
</a>
</g>
<!-- Node5&#45;&gt;Node6 -->
<g id="edge10" class="edge"><title>Node5&#45;&gt;Node6</title>
<path fill="none" stroke="midnightblue" d="M1660.07,-101.805C1660.56,-92.9102 1661.12,-82.7798 1661.51,-75.7511"/>
<polygon fill="midnightblue" stroke="midnightblue" points="1656.56,-101.904 1659.5,-112.083 1663.54,-102.293 1656.56,-101.904"/>
</g>
<!-- Node6&#45;&gt;Node7 -->
<g id="edge12" class="edge"><title>Node6&#45;&gt;Node7</title>
<path fill="none" stroke="midnightblue" d="M1585.59,-55.1046C1506.84,-44.9074 1385.36,-29.1766 1310.77,-19.5164"/>
<polygon fill="midnightblue" stroke="midnightblue" points="1585.56,-58.6302 1595.93,-56.4435 1586.46,-51.6882 1585.56,-58.6302"/>
</g>
<!-- Node8 -->
<g id="node15" class="node"><title>Node8</title>
<a xlink:href="Fortuna_8hh.html" target="_top" xlink:title="src/Browser/Fortuna/Fortuna.hh">
<polygon fill="white" stroke="black" points="1584.5,-0.5 1584.5,-19.5 1739.5,-19.5 1739.5,-0.5 1584.5,-0.5"/>
<text text-anchor="middle" x="1662" y="-7.5" font-family="Helvetica,sans-Serif" font-size="10.00">src/Browser/Fortuna/Fortuna.hh</text>
</a>
</g>
<!-- Node6&#45;&gt;Node8 -->
<g id="edge14" class="edge"><title>Node6&#45;&gt;Node8</title>
<path fill="none" stroke="midnightblue" d="M1662,-45.8045C1662,-36.9102 1662,-26.7798 1662,-19.7511"/>
<polygon fill="midnightblue" stroke="midnightblue" points="1658.5,-46.083 1662,-56.083 1665.5,-46.083 1658.5,-46.083"/>
</g>
<!-- Node6&#45;&gt;Node9 -->
<g id="edge16" class="edge"><title>Node6&#45;&gt;Node9</title>
<path fill="none" stroke="midnightblue" d="M1751.31,-55.9705C2352.84,-17.5355 3062.64,-11.8592 3317.76,-11.086"/>
<polygon fill="midnightblue" stroke="midnightblue" points="1750.89,-52.4905 1741.13,-56.6247 1751.33,-59.4761 1750.89,-52.4905"/>
</g>
<!-- Node6&#45;&gt;Node10 -->
<g id="edge18" class="edge"><title>Node6&#45;&gt;Node10</title>
<path fill="none" stroke="midnightblue" d="M1572.39,-62.8196C1351.75,-57.2925 764.556,-41.6219 275,-20 259.897,-19.333 244.003,-18.5469 228.322,-17.7217"/>
<polygon fill="midnightblue" stroke="midnightblue" points="1572.53,-66.3241 1582.62,-63.0751 1572.71,-59.3263 1572.53,-66.3241"/>
</g>
<!-- Node6&#45;&gt;Node11 -->
<g id="edge20" class="edge"><title>Node6&#45;&gt;Node11</title>
<path fill="none" stroke="midnightblue" d="M1572.57,-61.2993C1328.37,-51.1946 653.598,-23.273 430.022,-14.0216"/>
<polygon fill="midnightblue" stroke="midnightblue" points="1572.68,-64.807 1582.82,-61.7235 1572.97,-57.813 1572.68,-64.807"/>
</g>
<!-- Node12 -->
<g id="node23" class="node"><title>Node12</title>
<a xlink:href="Settings_8hh.html" target="_top" xlink:title="src/Browser/Settings/Settings.hh">
<polygon fill="white" stroke="black" points="2037.5,-0.5 2037.5,-19.5 2198.5,-19.5 2198.5,-0.5 2037.5,-0.5"/>
<text text-anchor="middle" x="2118" y="-7.5" font-family="Helvetica,sans-Serif" font-size="10.00">src/Browser/Settings/Settings.hh</text>
</a>
</g>
<!-- Node6&#45;&gt;Node12 -->
<g id="edge22" class="edge"><title>Node6&#45;&gt;Node12</title>
<path fill="none" stroke="midnightblue" d="M1743.99,-55.2906C1830.02,-45.1031 1963.92,-29.2464 2046,-19.5264"/>
<polygon fill="midnightblue" stroke="midnightblue" points="1743.52,-51.8215 1734,-56.4733 1744.35,-58.773 1743.52,-51.8215"/>
</g>
<!-- Node6&#45;&gt;Node13 -->
<g id="edge24" class="edge"><title>Node6&#45;&gt;Node13</title>
<path fill="none" stroke="midnightblue" d="M1751.26,-55.9108C1940.16,-39.38 2148.65,-24.8431 2265.75,-17.02"/>
<polygon fill="midnightblue" stroke="midnightblue" points="1750.8,-52.438 1741.14,-56.8 1751.41,-59.4111 1750.8,-52.438"/>
</g>
<!-- Node15&#45;&gt;Node9 -->
<g id="edge32" class="edge"><title>Node15&#45;&gt;Node9</title>
<path fill="none" stroke="midnightblue" d="M2641.52,-55.9077C2891.39,-38.2655 3173.12,-23.2089 3317.99,-15.8242"/>
<polygon fill="midnightblue" stroke="midnightblue" points="2641.25,-52.4179 2631.53,-56.6162 2641.75,-59.4004 2641.25,-52.4179"/>
</g>
<!-- Node16&#45;&gt;Node11 -->
<g id="edge38" class="edge"><title>Node16&#45;&gt;Node11</title>
<path fill="none" stroke="midnightblue" d="M494.921,-106.417C461.291,-83.1513 396.533,-38.3501 369.419,-19.5914"/>
<polygon fill="midnightblue" stroke="midnightblue" points="493.308,-109.557 503.524,-112.368 497.291,-103.801 493.308,-109.557"/>
</g>
<!-- Node17&#45;&gt;Node11 -->
<g id="edge44" class="edge"><title>Node17&#45;&gt;Node11</title>
<path fill="none" stroke="midnightblue" d="M287.47,-104.272C305.195,-80.4942 337.03,-37.7889 350.595,-19.5914"/>
<polygon fill="midnightblue" stroke="midnightblue" points="284.605,-102.259 281.434,-112.368 290.217,-106.443 284.605,-102.259"/>
</g>
<!-- Node18&#45;&gt;Node12 -->
<g id="edge48" class="edge"><title>Node18&#45;&gt;Node12</title>
<path fill="none" stroke="midnightblue" d="M2112.55,-103.145C2109.17,-95.0521 2105.69,-85.2425 2104,-76 2100.31,-55.7867 2108.52,-32.2577 2113.87,-19.7961"/>
<polygon fill="midnightblue" stroke="midnightblue" points="2109.37,-104.595 2116.63,-112.307 2115.76,-101.748 2109.37,-104.595"/>
</g>
<!-- Node19&#45;&gt;Node12 -->
<g id="edge56" class="edge"><title>Node19&#45;&gt;Node12</title>
<path fill="none" stroke="midnightblue" d="M2432.49,-112.271C2324.43,-99.8693 2139.8,-78.3789 2137,-76 2120.32,-61.8556 2117.85,-33.9517 2117.74,-19.7493"/>
<polygon fill="midnightblue" stroke="midnightblue" points="2432.37,-115.78 2442.7,-113.442 2433.16,-108.825 2432.37,-115.78"/>
</g>
<!-- Node20 -->
<g id="node46" class="node"><title>Node20</title>
<a xlink:href="SettingsGeneral_8hh.html" target="_top" xlink:title="src/Browser/Settings/SettingsGeneral.hh">
<polygon fill="white" stroke="black" points="2146,-56.5 2146,-75.5 2340,-75.5 2340,-56.5 2146,-56.5"/>
<text text-anchor="middle" x="2243" y="-63.5" font-family="Helvetica,sans-Serif" font-size="10.00">src/Browser/Settings/SettingsGeneral.hh</text>
</a>
</g>
<!-- Node19&#45;&gt;Node20 -->
<g id="edge52" class="edge"><title>Node19&#45;&gt;Node20</title>
<path fill="none" stroke="midnightblue" d="M2456.83,-110.41C2406.56,-100.204 2331.47,-84.9597 2284.95,-75.5164"/>
<polygon fill="midnightblue" stroke="midnightblue" points="2456.36,-113.884 2466.85,-112.444 2457.75,-107.024 2456.36,-113.884"/>
</g>
<!-- Node20&#45;&gt;Node12 -->
<g id="edge54" class="edge"><title>Node20&#45;&gt;Node12</title>
<path fill="none" stroke="midnightblue" d="M2213.76,-52.3678C2190.35,-42.2553 2158.16,-28.3486 2137.71,-19.5164"/>
<polygon fill="midnightblue" stroke="midnightblue" points="2212.63,-55.6907 2223.19,-56.4435 2215.4,-49.2647 2212.63,-55.6907"/>
</g>
<!-- Node21&#45;&gt;Node12 -->
<g id="edge60" class="edge"><title>Node21&#45;&gt;Node12</title>
<path fill="none" stroke="midnightblue" d="M2802.03,-111.847C2651.67,-99.069 2396.92,-77.2905 2392,-76 2371.22,-70.5474 2368.46,-62.5513 2348,-56 2293.56,-38.5654 2229.6,-26.7134 2182.96,-19.5678"/>
<polygon fill="midnightblue" stroke="midnightblue" points="2801.96,-115.354 2812.22,-112.713 2802.56,-108.379 2801.96,-115.354"/>
</g>
<!-- Node22&#45;&gt;Node23 -->
<g id="edge64" class="edge"><title>Node22&#45;&gt;Node23</title>
<path fill="none" stroke="midnightblue" d="M1886.16,-108.503C1909.78,-98.3795 1942.43,-84.388 1963.13,-75.5164"/>
<polygon fill="midnightblue" stroke="midnightblue" points="1884.78,-105.287 1876.97,-112.444 1887.54,-111.721 1884.78,-105.287"/>
</g>
<!-- Node22&#45;&gt;Node24 -->
<g id="edge66" class="edge"><title>Node22&#45;&gt;Node24</title>
<path fill="none" stroke="midnightblue" d="M1847.32,-102.983C1842.4,-93.8168 1836.64,-83.0922 1832.7,-75.7511"/>
<polygon fill="midnightblue" stroke="midnightblue" points="1844.4,-104.929 1852.21,-112.083 1850.56,-101.617 1844.4,-104.929"/>
</g>
<!-- Node31&#45;&gt;Node9 -->
<g id="edge110" class="edge"><title>Node31&#45;&gt;Node9</title>
<path fill="none" stroke="midnightblue" d="M3313.67,-119.965C3452.37,-117.317 3728.6,-108.037 3758,-76 3764.01,-69.4507 3763.86,-62.6817 3758,-56 3741.91,-37.6595 3608.04,-24.4711 3512.4,-17.284"/>
<polygon fill="midnightblue" stroke="midnightblue" points="3313.45,-116.468 3303.52,-120.151 3313.58,-123.467 3313.45,-116.468"/>
</g>
<!-- Node31&#45;&gt;Node15 -->
<g id="edge92" class="edge"><title>Node31&#45;&gt;Node15</title>
<path fill="none" stroke="midnightblue" d="M3156.24,-115.256C3042.32,-106.899 2824.94,-90.7713 2640,-76 2637.21,-75.7774 2634.38,-75.5499 2631.53,-75.319"/>
<polygon fill="midnightblue" stroke="midnightblue" points="3156.04,-118.75 3166.27,-115.991 3156.55,-111.769 3156.04,-118.75"/>
</g>
<!-- Node32 -->
<g id="node76" class="node"><title>Node32</title>
<a xlink:href="ArtistPhotosMgr_8hh.html" target="_top" xlink:title="src/Browser/NowPlaying/ArtistPhotosMgr.hh">
<polygon fill="white" stroke="black" points="3806,-56.5 3806,-75.5 4018,-75.5 4018,-56.5 3806,-56.5"/>
<text text-anchor="middle" x="3912" y="-63.5" font-family="Helvetica,sans-Serif" font-size="10.00">src/Browser/NowPlaying/ArtistPhotosMgr.hh</text>
</a>
</g>
<!-- Node31&#45;&gt;Node32 -->
<g id="edge88" class="edge"><title>Node31&#45;&gt;Node32</title>
<path fill="none" stroke="midnightblue" d="M3313.63,-114.728C3435.29,-105.024 3669.32,-86.3567 3805.87,-75.4656"/>
<polygon fill="midnightblue" stroke="midnightblue" points="3313.33,-111.241 3303.64,-115.525 3313.89,-118.219 3313.33,-111.241"/>
</g>
<!-- Node33 -->
<g id="node80" class="node"><title>Node33</title>
<a xlink:href="OtherAlbumsMgr_8hh.html" target="_top" xlink:title="src/Browser/NowPlaying/OtherAlbumsMgr.hh">
<polygon fill="white" stroke="black" points="2649.5,-56.5 2649.5,-75.5 2864.5,-75.5 2864.5,-56.5 2649.5,-56.5"/>
<text text-anchor="middle" x="2757" y="-63.5" font-family="Helvetica,sans-Serif" font-size="10.00">src/Browser/NowPlaying/OtherAlbumsMgr.hh</text>
</a>
</g>
<!-- Node31&#45;&gt;Node33 -->
<g id="edge94" class="edge"><title>Node31&#45;&gt;Node33</title>
<path fill="none" stroke="midnightblue" d="M3156.13,-112.09C3066.34,-101.946 2920.68,-85.4916 2832.37,-75.5145"/>
<polygon fill="midnightblue" stroke="midnightblue" points="3155.93,-115.59 3166.26,-113.234 3156.72,-108.634 3155.93,-115.59"/>
</g>
<!-- Node34 -->
<g id="node83" class="node"><title>Node34</title>
<a xlink:href="TracklistMgr_8hh.html" target="_top" xlink:title="src/Browser/NowPlaying/TracklistMgr.hh">
<polygon fill="white" stroke="black" points="2882.5,-56.5 2882.5,-75.5 3077.5,-75.5 3077.5,-56.5 2882.5,-56.5"/>
<text text-anchor="middle" x="2980" y="-63.5" font-family="Helvetica,sans-Serif" font-size="10.00">src/Browser/NowPlaying/TracklistMgr.hh</text>
</a>
</g>
<!-- Node31&#45;&gt;Node34 -->
<g id="edge98" class="edge"><title>Node31&#45;&gt;Node34</title>
<path fill="none" stroke="midnightblue" d="M3184.69,-110.346C3136.5,-100.141 3064.72,-84.94 3020.22,-75.5164"/>
<polygon fill="midnightblue" stroke="midnightblue" points="3184.09,-113.796 3194.59,-112.444 3185.54,-106.948 3184.09,-113.796"/>
</g>
<!-- Node35 -->
<g id="node86" class="node"><title>Node35</title>
<a xlink:href="TextItemsMgr_8hh.html" target="_top" xlink:title="src/Browser/NowPlaying/TextItemsMgr.hh">
<polygon fill="white" stroke="black" points="3314,-56.5 3314,-75.5 3516,-75.5 3516,-56.5 3314,-56.5"/>
<text text-anchor="middle" x="3415" y="-63.5" font-family="Helvetica,sans-Serif" font-size="10.00">src/Browser/NowPlaying/TextItemsMgr.hh</text>
</a>
</g>
<!-- Node31&#45;&gt;Node35 -->
<g id="edge102" class="edge"><title>Node31&#45;&gt;Node35</title>
<path fill="none" stroke="midnightblue" d="M3273.11,-109.568C3307.06,-99.381 3355.99,-84.7034 3386.61,-75.5164"/>
<polygon fill="midnightblue" stroke="midnightblue" points="3272.09,-106.218 3263.52,-112.444 3274.11,-112.922 3272.09,-106.218"/>
</g>
<!-- Node36 -->
<g id="node89" class="node"><title>Node36</title>
<a xlink:href="RelatedLinksMgr_8hh.html" target="_top" xlink:title="src/Browser/NowPlaying/RelatedLinksMgr.hh">
<polygon fill="white" stroke="black" points="3534.5,-56.5 3534.5,-75.5 3749.5,-75.5 3749.5,-56.5 3534.5,-56.5"/>
<text text-anchor="middle" x="3642" y="-63.5" font-family="Helvetica,sans-Serif" font-size="10.00">src/Browser/NowPlaying/RelatedLinksMgr.hh</text>
</a>
</g>
<!-- Node31&#45;&gt;Node36 -->
<g id="edge106" class="edge"><title>Node31&#45;&gt;Node36</title>
<path fill="none" stroke="midnightblue" d="M3309.58,-111.105C3386.44,-100.907 3505,-85.1766 3577.81,-75.5164"/>
<polygon fill="midnightblue" stroke="midnightblue" points="3308.94,-107.659 3299.49,-112.444 3309.86,-114.598 3308.94,-107.659"/>
</g>
<!-- Node37 -->
<g id="node93" class="node"><title>Node37</title>
<a xlink:href="TextPageMgr_8hh.html" target="_top" xlink:title="src/Browser/NowPlaying/TextPageMgr.hh">
<polygon fill="white" stroke="black" points="3096,-56.5 3096,-75.5 3296,-75.5 3296,-56.5 3096,-56.5"/>
<text text-anchor="middle" x="3196" y="-63.5" font-family="Helvetica,sans-Serif" font-size="10.00">src/Browser/NowPlaying/TextPageMgr.hh</text>
</a>
</g>
<!-- Node31&#45;&gt;Node37 -->
<g id="edge112" class="edge"><title>Node31&#45;&gt;Node37</title>
<path fill="none" stroke="midnightblue" d="M3222.62,-103.855C3215.86,-94.5048 3207.79,-83.3265 3202.32,-75.7511"/>
<polygon fill="midnightblue" stroke="midnightblue" points="3219.87,-106.025 3228.56,-112.083 3225.54,-101.927 3219.87,-106.025"/>
</g>
<!-- Node31&#45;&gt;Node38 -->
<g id="edge114" class="edge"><title>Node31&#45;&gt;Node38</title>
<path fill="none" stroke="midnightblue" d="M3314.05,-118.788C3456.62,-114.291 3766.15,-102.201 4026,-76 4029.25,-75.6726 4032.58,-75.2984 4035.95,-74.8928"/>
<polygon fill="midnightblue" stroke="midnightblue" points="3313.55,-115.302 3303.67,-119.112 3313.77,-122.299 3313.55,-115.302"/>
</g>
<!-- Node32&#45;&gt;Node9 -->
<g id="edge90" class="edge"><title>Node32&#45;&gt;Node9</title>
<path fill="none" stroke="midnightblue" d="M3823.49,-55.3836C3729.76,-45.1998 3583.21,-29.276 3493.47,-19.5264"/>
<polygon fill="midnightblue" stroke="midnightblue" points="3823.2,-58.8726 3833.52,-56.4733 3823.96,-51.9136 3823.2,-58.8726"/>
</g>
<!-- Node33&#45;&gt;Node9 -->
<g id="edge96" class="edge"><title>Node33&#45;&gt;Node9</title>
<path fill="none" stroke="midnightblue" d="M2870.99,-55.6452C2997.27,-45.2822 3198.72,-28.749 3317.81,-18.976"/>
<polygon fill="midnightblue" stroke="midnightblue" points="2870.58,-52.1671 2860.9,-56.4733 2871.15,-59.1436 2870.58,-52.1671"/>
</g>
<!-- Node34&#45;&gt;Node9 -->
<g id="edge100" class="edge"><title>Node34&#45;&gt;Node9</title>
<path fill="none" stroke="midnightblue" d="M3058.96,-55.198C3141.08,-45.0037 3268.34,-29.2062 3346.4,-19.5164"/>
<polygon fill="midnightblue" stroke="midnightblue" points="3058.42,-51.7382 3048.93,-56.4435 3059.28,-58.6849 3058.42,-51.7382"/>
</g>
<!-- Node35&#45;&gt;Node9 -->
<g id="edge104" class="edge"><title>Node35&#45;&gt;Node9</title>
<path fill="none" stroke="midnightblue" d="M3415,-45.8045C3415,-36.9102 3415,-26.7798 3415,-19.7511"/>
<polygon fill="midnightblue" stroke="midnightblue" points="3411.5,-46.083 3415,-56.083 3418.5,-46.083 3411.5,-46.083"/>
</g>
<!-- Node36&#45;&gt;Node9 -->
<g id="edge108" class="edge"><title>Node36&#45;&gt;Node9</title>
<path fill="none" stroke="midnightblue" d="M3596.13,-54.0884C3553.25,-43.8865 3490.08,-28.8612 3450.8,-19.5164"/>
<polygon fill="midnightblue" stroke="midnightblue" points="3595.49,-57.5342 3606.03,-56.4435 3597.11,-50.7242 3595.49,-57.5342"/>
</g>
</g>
</svg>
