<?xml version="1.0" encoding="UTF-8" standalone="no"?>
<!DOCTYPE svg PUBLIC "-//W3C//DTD SVG 1.1//EN"
 "http://www.w3.org/Graphics/SVG/1.1/DTD/svg11.dtd">
<!-- Generated by graphviz version 2.28.0 (20120217.0315)
 -->
<!-- Title: G Pages: 1 -->
<svg width="2850pt" height="196pt"
 viewBox="0.00 0.00 2850.00 196.00" xmlns="http://www.w3.org/2000/svg" xmlns:xlink="http://www.w3.org/1999/xlink">
<g id="graph1" class="graph" transform="scale(1 1) rotate(0) translate(4 192)">
<title>G</title>
<polygon fill="white" stroke="white" points="-4,5 -4,-192 2847,-192 2847,5 -4,5"/>
<!-- Node1 -->
<g id="node1" class="node"><title>Node1</title>
<polygon fill="#bfbfbf" stroke="black" points="1361.5,-168.5 1361.5,-187.5 1516.5,-187.5 1516.5,-168.5 1361.5,-168.5"/>
<text text-anchor="middle" x="1439" y="-175.5" font-family="Helvetica,sans-Serif" font-size="10.00">src/MPD/AbstractClientUser.hh</text>
</g>
<!-- Node2 -->
<g id="node3" class="node"><title>Node2</title>
<a xlink:href="BrowserList_8hh.html" target="_top" xlink:title="src/GManager/BrowserList.hh">
<polygon fill="white" stroke="black" points="584,-112.5 584,-131.5 730,-131.5 730,-112.5 584,-112.5"/>
<text text-anchor="middle" x="657" y="-119.5" font-family="Helvetica,sans-Serif" font-size="10.00">src/GManager/BrowserList.hh</text>
</a>
</g>
<!-- Node1&#45;&gt;Node2 -->
<g id="edge2" class="edge"><title>Node1&#45;&gt;Node2</title>
<path fill="none" stroke="midnightblue" d="M1351.35,-172.278C1219.93,-164.977 964.067,-149.906 747,-132 741.523,-131.548 735.861,-131.052 730.167,-130.531"/>
<polygon fill="midnightblue" stroke="midnightblue" points="1351.18,-175.774 1361.36,-172.833 1351.57,-168.785 1351.18,-175.774"/>
</g>
<!-- Node4 -->
<g id="node7" class="node"><title>Node4</title>
<a xlink:href="Database_8hh.html" target="_top" xlink:title="src/Browser/Database/Database.hh">
<polygon fill="white" stroke="black" points="-0.5,-0.5 -0.5,-19.5 172.5,-19.5 172.5,-0.5 -0.5,-0.5"/>
<text text-anchor="middle" x="86" y="-7.5" font-family="Helvetica,sans-Serif" font-size="10.00">src/Browser/Database/Database.hh</text>
</a>
</g>
<!-- Node1&#45;&gt;Node4 -->
<g id="edge20" class="edge"><title>Node1&#45;&gt;Node4</title>
<path fill="none" stroke="midnightblue" d="M1351.5,-174.96C1149.07,-169.899 653.154,-155.458 488,-132 382.126,-116.962 356.096,-107.81 254,-76 199.211,-58.9296 136.649,-32.9343 105.608,-19.5796"/>
<polygon fill="midnightblue" stroke="midnightblue" points="1351.41,-178.459 1361.5,-175.208 1351.59,-171.461 1351.41,-178.459"/>
</g>
<!-- Node7 -->
<g id="node13" class="node"><title>Node7</title>
<a xlink:href="PlaylistManager_8hh.html" target="_top" xlink:title="src/Browser/PlaylistManager/PlaylistManager.hh">
<polygon fill="white" stroke="black" points="779,-0.5 779,-19.5 1007,-19.5 1007,-0.5 779,-0.5"/>
<text text-anchor="middle" x="893" y="-7.5" font-family="Helvetica,sans-Serif" font-size="10.00">src/Browser/PlaylistManager/PlaylistManager.hh</text>
</a>
</g>
<!-- Node1&#45;&gt;Node7 -->
<g id="edge28" class="edge"><title>Node1&#45;&gt;Node7</title>
<path fill="none" stroke="midnightblue" d="M1351.21,-177.255C1213.04,-176.465 951.918,-169.803 868,-132 829.259,-114.548 788.264,-92.5099 810,-56 820.984,-37.5496 842.461,-26.1985 860.815,-19.5124"/>
<polygon fill="midnightblue" stroke="midnightblue" points="1351.34,-180.756 1361.35,-177.304 1351.37,-173.756 1351.34,-180.756"/>
</g>
<!-- Node8 -->
<g id="node15" class="node"><title>Node8</title>
<a xlink:href="Queue_8hh.html" target="_top" xlink:title="src/Browser/Queue/Queue.hh">
<polygon fill="white" stroke="black" points="1025,-0.5 1025,-19.5 1171,-19.5 1171,-0.5 1025,-0.5"/>
<text text-anchor="middle" x="1098" y="-7.5" font-family="Helvetica,sans-Serif" font-size="10.00">src/Browser/Queue/Queue.hh</text>
</a>
</g>
<!-- Node1&#45;&gt;Node8 -->
<g id="edge34" class="edge"><title>Node1&#45;&gt;Node8</title>
<path fill="none" stroke="midnightblue" d="M1350.91,-176.503C1195.55,-173.506 883.073,-157.262 818,-76 812.444,-69.0616 812.235,-62.7657 818,-56 824.915,-47.8844 950.711,-30.1433 1031.31,-19.522"/>
<polygon fill="midnightblue" stroke="midnightblue" points="1351.3,-180.01 1361.36,-176.689 1351.43,-173.011 1351.3,-180.01"/>
</g>
<!-- Node11 -->
<g id="node22" class="node"><title>Node11</title>
<a xlink:href="DatabaseCache_8hh.html" target="_top" xlink:title="src/Browser/Database/DatabaseCache.hh">
<polygon fill="white" stroke="black" points="1403.5,-112.5 1403.5,-131.5 1604.5,-131.5 1604.5,-112.5 1403.5,-112.5"/>
<text text-anchor="middle" x="1504" y="-119.5" font-family="Helvetica,sans-Serif" font-size="10.00">src/Browser/Database/DatabaseCache.hh</text>
</a>
</g>
<!-- Node1&#45;&gt;Node11 -->
<g id="edge22" class="edge"><title>Node1&#45;&gt;Node11</title>
<path fill="none" stroke="midnightblue" d="M1457.27,-161.82C1468.92,-152.145 1483.6,-139.948 1493.37,-131.834"/>
<polygon fill="midnightblue" stroke="midnightblue" points="1454.9,-159.242 1449.44,-168.324 1459.37,-164.626 1454.9,-159.242"/>
</g>
<!-- Node12 -->
<g id="node24" class="node"><title>Node12</title>
<a xlink:href="CoverArtMgr_8hh.html" target="_top" xlink:title="src/Browser/NowPlaying/CoverArtMgr.hh">
<polygon fill="white" stroke="black" points="263.5,-56.5 263.5,-75.5 460.5,-75.5 460.5,-56.5 263.5,-56.5"/>
<text text-anchor="middle" x="362" y="-63.5" font-family="Helvetica,sans-Serif" font-size="10.00">src/Browser/NowPlaying/CoverArtMgr.hh</text>
</a>
</g>
<!-- Node1&#45;&gt;Node12 -->
<g id="edge24" class="edge"><title>Node1&#45;&gt;Node12</title>
<path fill="none" stroke="midnightblue" d="M1351.01,-175.141C1161.93,-170.701 722.075,-157.87 575,-132 503.223,-119.375 421.665,-90.1006 383.646,-75.5407"/>
<polygon fill="midnightblue" stroke="midnightblue" points="1351.11,-178.644 1361.19,-175.377 1351.28,-171.646 1351.11,-178.644"/>
</g>
<!-- Node13 -->
<g id="node28" class="node"><title>Node13</title>
<a xlink:href="PlaylistAddDialog_8hh.html" target="_top" xlink:title="src/Browser/Queue/PlaylistAddDialog.hh">
<polygon fill="white" stroke="black" points="827,-56.5 827,-75.5 1021,-75.5 1021,-56.5 827,-56.5"/>
<text text-anchor="middle" x="924" y="-63.5" font-family="Helvetica,sans-Serif" font-size="10.00">src/Browser/Queue/PlaylistAddDialog.hh</text>
</a>
</g>
<!-- Node1&#45;&gt;Node13 -->
<g id="edge30" class="edge"><title>Node1&#45;&gt;Node13</title>
<path fill="none" stroke="midnightblue" d="M1355.06,-167.196C1295.94,-159.552 1215.16,-147.613 1145,-132 1072.78,-115.928 989.527,-89.1402 948.903,-75.5173"/>
<polygon fill="midnightblue" stroke="midnightblue" points="1354.73,-170.682 1365.09,-168.479 1355.62,-163.739 1354.73,-170.682"/>
</g>
<!-- Node14 -->
<g id="node32" class="node"><title>Node14</title>
<a xlink:href="QueueMerger_8hh.html" target="_top" xlink:title="src/Browser/Queue/QueueMerger.hh">
<polygon fill="white" stroke="black" points="1039,-56.5 1039,-75.5 1215,-75.5 1215,-56.5 1039,-56.5"/>
<text text-anchor="middle" x="1127" y="-63.5" font-family="Helvetica,sans-Serif" font-size="10.00">src/Browser/Queue/QueueMerger.hh</text>
</a>
</g>
<!-- Node1&#45;&gt;Node14 -->
<g id="edge36" class="edge"><title>Node1&#45;&gt;Node14</title>
<path fill="none" stroke="midnightblue" d="M1351.22,-170.208C1283.83,-163.578 1197.47,-151.577 1168,-132 1147.33,-118.269 1135.05,-90.1781 1129.88,-75.8422"/>
<polygon fill="midnightblue" stroke="midnightblue" points="1351.15,-173.717 1361.44,-171.187 1351.82,-166.749 1351.15,-173.717"/>
</g>
<!-- Node15 -->
<g id="node35" class="node"><title>Node15</title>
<a xlink:href="SettingsPlayback_8hh.html" target="_top" xlink:title="src/Browser/Settings/SettingsPlayback.hh">
<polygon fill="white" stroke="black" points="1483.5,-56.5 1483.5,-75.5 1684.5,-75.5 1684.5,-56.5 1483.5,-56.5"/>
<text text-anchor="middle" x="1584" y="-63.5" font-family="Helvetica,sans-Serif" font-size="10.00">src/Browser/Settings/SettingsPlayback.hh</text>
</a>
</g>
<!-- Node1&#45;&gt;Node15 -->
<g id="edge40" class="edge"><title>Node1&#45;&gt;Node15</title>
<path fill="none" stroke="midnightblue" d="M1404.55,-164.708C1376.31,-152.732 1343.6,-133.264 1361,-112 1376.88,-92.5911 1431.89,-81.3645 1483.29,-74.9786"/>
<polygon fill="midnightblue" stroke="midnightblue" points="1403.3,-167.976 1413.88,-168.473 1405.92,-161.485 1403.3,-167.976"/>
</g>
<!-- Node16 -->
<g id="node38" class="node"><title>Node16</title>
<a xlink:href="Trayicon_8hh.html" target="_top" xlink:title="src/GManager/Trayicon.hh">
<polygon fill="white" stroke="black" points="1177,-112.5 1177,-131.5 1309,-131.5 1309,-112.5 1177,-112.5"/>
<text text-anchor="middle" x="1243" y="-119.5" font-family="Helvetica,sans-Serif" font-size="10.00">src/GManager/Trayicon.hh</text>
</a>
</g>
<!-- Node1&#45;&gt;Node16 -->
<g id="edge44" class="edge"><title>Node1&#45;&gt;Node16</title>
<path fill="none" stroke="midnightblue" d="M1397.98,-165.699C1360.99,-155.507 1307.4,-140.743 1273.91,-131.516"/>
<polygon fill="midnightblue" stroke="midnightblue" points="1397.37,-169.162 1407.94,-168.444 1399.23,-162.413 1397.37,-169.162"/>
</g>
<!-- Node18 -->
<g id="node44" class="node"><title>Node18</title>
<a xlink:href="SettingsOutputs_8hh.html" target="_top" xlink:title="src/Browser/Settings/SettingsOutputs.hh">
<polygon fill="white" stroke="black" points="1702.5,-56.5 1702.5,-75.5 1897.5,-75.5 1897.5,-56.5 1702.5,-56.5"/>
<text text-anchor="middle" x="1800" y="-63.5" font-family="Helvetica,sans-Serif" font-size="10.00">src/Browser/Settings/SettingsOutputs.hh</text>
</a>
</g>
<!-- Node1&#45;&gt;Node18 -->
<g id="edge52" class="edge"><title>Node1&#45;&gt;Node18</title>
<path fill="none" stroke="midnightblue" d="M1417.07,-162.177C1399.44,-148.48 1379.76,-127.906 1394,-112 1399.23,-106.155 1591.32,-86.8806 1709.37,-75.5413"/>
<polygon fill="midnightblue" stroke="midnightblue" points="1415.28,-165.2 1425.41,-168.298 1419.42,-159.558 1415.28,-165.2"/>
</g>
<!-- Node19 -->
<g id="node47" class="node"><title>Node19</title>
<a xlink:href="Heartbeat_8hh.html" target="_top" xlink:title="src/GManager/Heartbeat.hh">
<polygon fill="white" stroke="black" points="1661.5,-112.5 1661.5,-131.5 1798.5,-131.5 1798.5,-112.5 1661.5,-112.5"/>
<text text-anchor="middle" x="1730" y="-119.5" font-family="Helvetica,sans-Serif" font-size="10.00">src/GManager/Heartbeat.hh</text>
</a>
</g>
<!-- Node1&#45;&gt;Node19 -->
<g id="edge56" class="edge"><title>Node1&#45;&gt;Node19</title>
<path fill="none" stroke="midnightblue" d="M1495.04,-166.601C1550.04,-156.395 1632.9,-141.019 1684.11,-131.516"/>
<polygon fill="midnightblue" stroke="midnightblue" points="1494.3,-163.178 1485.11,-168.444 1495.58,-170.06 1494.3,-163.178"/>
</g>
<!-- Node20 -->
<g id="node49" class="node"><title>Node20</title>
<a xlink:href="Statusbar_8hh.html" target="_top" xlink:title="src/GManager/Statusbar.hh">
<polygon fill="white" stroke="black" points="1915.5,-56.5 1915.5,-75.5 2052.5,-75.5 2052.5,-56.5 1915.5,-56.5"/>
<text text-anchor="middle" x="1984" y="-63.5" font-family="Helvetica,sans-Serif" font-size="10.00">src/GManager/Statusbar.hh</text>
</a>
</g>
<!-- Node1&#45;&gt;Node20 -->
<g id="edge68" class="edge"><title>Node1&#45;&gt;Node20</title>
<path fill="none" stroke="midnightblue" d="M1492.71,-166.33C1527.6,-158.619 1573.72,-146.942 1613,-132 1631.21,-125.075 1633.42,-117.836 1652,-112 1676.52,-104.299 1825.44,-85.781 1915.3,-75.0536"/>
<polygon fill="midnightblue" stroke="midnightblue" points="1491.76,-162.955 1482.73,-168.496 1493.24,-169.796 1491.76,-162.955"/>
</g>
<!-- Node21 -->
<g id="node51" class="node"><title>Node21</title>
<a xlink:href="Timeslide_8hh.html" target="_top" xlink:title="src/GManager/Timeslide.hh">
<polygon fill="white" stroke="black" points="2070.5,-56.5 2070.5,-75.5 2207.5,-75.5 2207.5,-56.5 2070.5,-56.5"/>
<text text-anchor="middle" x="2139" y="-63.5" font-family="Helvetica,sans-Serif" font-size="10.00">src/GManager/Timeslide.hh</text>
</a>
</g>
<!-- Node1&#45;&gt;Node21 -->
<g id="edge72" class="edge"><title>Node1&#45;&gt;Node21</title>
<path fill="none" stroke="midnightblue" d="M1527.19,-174.882C1602.89,-171.033 1714.15,-160.496 1807,-132 1825.62,-126.285 1827.47,-118 1846,-112 1886.52,-98.8819 1997.1,-83.9177 2070.23,-74.977"/>
<polygon fill="midnightblue" stroke="midnightblue" points="1526.58,-171.408 1516.76,-175.382 1526.91,-178.4 1526.58,-171.408"/>
</g>
<!-- Node22 -->
<g id="node53" class="node"><title>Node22</title>
<a xlink:href="MenuList_8hh.html" target="_top" xlink:title="src/GManager/MenuList.hh">
<polygon fill="white" stroke="black" points="1855,-112.5 1855,-131.5 1989,-131.5 1989,-112.5 1855,-112.5"/>
<text text-anchor="middle" x="1922" y="-119.5" font-family="Helvetica,sans-Serif" font-size="10.00">src/GManager/MenuList.hh</text>
</a>
</g>
<!-- Node1&#45;&gt;Node22 -->
<g id="edge62" class="edge"><title>Node1&#45;&gt;Node22</title>
<path fill="none" stroke="midnightblue" d="M1525.35,-167.346C1619.65,-156.803 1768.68,-140.141 1854.7,-130.524"/>
<polygon fill="midnightblue" stroke="midnightblue" points="1524.82,-163.884 1515.27,-168.473 1525.59,-170.84 1524.82,-163.884"/>
</g>
<!-- Node23 -->
<g id="node55" class="node"><title>Node23</title>
<a xlink:href="NotifyManager_8hh.html" target="_top" xlink:title="src/GManager/NotifyManager.hh">
<polygon fill="white" stroke="black" points="2007,-112.5 2007,-131.5 2165,-131.5 2165,-112.5 2007,-112.5"/>
<text text-anchor="middle" x="2086" y="-119.5" font-family="Helvetica,sans-Serif" font-size="10.00">src/GManager/NotifyManager.hh</text>
</a>
</g>
<!-- Node1&#45;&gt;Node23 -->
<g id="edge64" class="edge"><title>Node1&#45;&gt;Node23</title>
<path fill="none" stroke="midnightblue" d="M1526.88,-170.515C1637.03,-162.251 1831.58,-147.207 1998,-132 2000.91,-131.734 2003.87,-131.459 2006.85,-131.176"/>
<polygon fill="midnightblue" stroke="midnightblue" points="1526.53,-167.032 1516.82,-171.269 1527.05,-174.012 1526.53,-167.032"/>
</g>
<!-- Node24 -->
<g id="node57" class="node"><title>Node24</title>
<a xlink:href="PlaybackButtons_8hh.html" target="_top" xlink:title="src/GManager/PlaybackButtons.hh">
<polygon fill="white" stroke="black" points="2182.5,-112.5 2182.5,-131.5 2351.5,-131.5 2351.5,-112.5 2182.5,-112.5"/>
<text text-anchor="middle" x="2267" y="-119.5" font-family="Helvetica,sans-Serif" font-size="10.00">src/GManager/PlaybackButtons.hh</text>
</a>
</g>
<!-- Node1&#45;&gt;Node24 -->
<g id="edge66" class="edge"><title>Node1&#45;&gt;Node24</title>
<path fill="none" stroke="midnightblue" d="M1526.82,-172.589C1664.59,-165.451 1939.87,-150.302 2173,-132 2176.11,-131.756 2179.27,-131.499 2182.46,-131.232"/>
<polygon fill="midnightblue" stroke="midnightblue" points="1526.54,-169.099 1516.74,-173.11 1526.91,-176.09 1526.54,-169.099"/>
</g>
<!-- Node25 -->
<g id="node60" class="node"><title>Node25</title>
<a xlink:href="StatusIcons_8hh.html" target="_top" xlink:title="src/GManager/StatusIcons.hh">
<polygon fill="white" stroke="black" points="2369.5,-112.5 2369.5,-131.5 2516.5,-131.5 2516.5,-112.5 2369.5,-112.5"/>
<text text-anchor="middle" x="2443" y="-119.5" font-family="Helvetica,sans-Serif" font-size="10.00">src/GManager/StatusIcons.hh</text>
</a>
</g>
<!-- Node1&#45;&gt;Node25 -->
<g id="edge70" class="edge"><title>Node1&#45;&gt;Node25</title>
<path fill="none" stroke="midnightblue" d="M1526.76,-174.442C1690.66,-169.281 2054.39,-156.014 2360,-132 2363.03,-131.762 2366.13,-131.502 2369.25,-131.225"/>
<polygon fill="midnightblue" stroke="midnightblue" points="1526.61,-170.945 1516.73,-174.756 1526.83,-177.942 1526.61,-170.945"/>
</g>
<!-- Node26 -->
<g id="node63" class="node"><title>Node26</title>
<a xlink:href="TitleLabel_8hh.html" target="_top" xlink:title="src/GManager/TitleLabel.hh">
<polygon fill="white" stroke="black" points="2534.5,-112.5 2534.5,-131.5 2671.5,-131.5 2671.5,-112.5 2534.5,-112.5"/>
<text text-anchor="middle" x="2603" y="-119.5" font-family="Helvetica,sans-Serif" font-size="10.00">src/GManager/TitleLabel.hh</text>
</a>
</g>
<!-- Node1&#45;&gt;Node26 -->
<g id="edge74" class="edge"><title>Node1&#45;&gt;Node26</title>
<path fill="none" stroke="midnightblue" d="M1527.03,-175.544C1712.06,-172 2154.8,-160.988 2525,-132 2527.99,-131.766 2531.04,-131.506 2534.12,-131.225"/>
<polygon fill="midnightblue" stroke="midnightblue" points="1526.74,-172.048 1516.81,-175.737 1526.88,-179.047 1526.74,-172.048"/>
</g>
<!-- Node27 -->
<g id="node65" class="node"><title>Node27</title>
<a xlink:href="VolumeSlider_8hh.html" target="_top" xlink:title="src/GManager/VolumeSlider.hh">
<polygon fill="white" stroke="black" points="2690,-112.5 2690,-131.5 2842,-131.5 2842,-112.5 2690,-112.5"/>
<text text-anchor="middle" x="2766" y="-119.5" font-family="Helvetica,sans-Serif" font-size="10.00">src/GManager/VolumeSlider.hh</text>
</a>
</g>
<!-- Node1&#45;&gt;Node27 -->
<g id="edge76" class="edge"><title>Node1&#45;&gt;Node27</title>
<path fill="none" stroke="midnightblue" d="M1526.8,-175.867C1729.94,-172.798 2248.03,-162.4 2680,-132 2683.14,-131.779 2686.35,-131.533 2689.59,-131.269"/>
<polygon fill="midnightblue" stroke="midnightblue" points="1526.73,-172.368 1516.78,-176.016 1526.83,-179.367 1526.73,-172.368"/>
</g>
<!-- Node3 -->
<g id="node5" class="node"><title>Node3</title>
<a xlink:href="AbstractBrowser_8hh.html" target="_top" xlink:title="src/Browser/AbstractBrowser.hh">
<polygon fill="white" stroke="black" points="575,-56.5 575,-75.5 733,-75.5 733,-56.5 575,-56.5"/>
<text text-anchor="middle" x="654" y="-63.5" font-family="Helvetica,sans-Serif" font-size="10.00">src/Browser/AbstractBrowser.hh</text>
</a>
</g>
<!-- Node2&#45;&gt;Node3 -->
<g id="edge4" class="edge"><title>Node2&#45;&gt;Node3</title>
<path fill="none" stroke="midnightblue" d="M655.934,-101.805C655.439,-92.9102 654.877,-82.7798 654.486,-75.7511"/>
<polygon fill="midnightblue" stroke="midnightblue" points="652.455,-102.293 656.505,-112.083 659.444,-101.904 652.455,-102.293"/>
</g>
<!-- Node3&#45;&gt;Node4 -->
<g id="edge6" class="edge"><title>Node3&#45;&gt;Node4</title>
<path fill="none" stroke="midnightblue" d="M564.566,-56.4975C457.261,-46.2959 278.591,-29.3097 172.573,-19.2305"/>
<polygon fill="midnightblue" stroke="midnightblue" points="564.437,-60.0009 574.723,-57.4631 565.099,-53.0323 564.437,-60.0009"/>
</g>
<!-- Node5 -->
<g id="node9" class="node"><title>Node5</title>
<a xlink:href="Fortuna_8hh.html" target="_top" xlink:title="src/Browser/Fortuna/Fortuna.hh">
<polygon fill="white" stroke="black" points="605.5,-0.5 605.5,-19.5 760.5,-19.5 760.5,-0.5 605.5,-0.5"/>
<text text-anchor="middle" x="683" y="-7.5" font-family="Helvetica,sans-Serif" font-size="10.00">src/Browser/Fortuna/Fortuna.hh</text>
</a>
</g>
<!-- Node3&#45;&gt;Node5 -->
<g id="edge8" class="edge"><title>Node3&#45;&gt;Node5</title>
<path fill="none" stroke="midnightblue" d="M663.676,-46.9827C668.598,-37.8168 674.358,-27.0922 678.3,-19.7511"/>
<polygon fill="midnightblue" stroke="midnightblue" points="660.437,-45.6171 658.789,-56.083 666.604,-48.929 660.437,-45.6171"/>
</g>
<!-- Node6 -->
<g id="node11" class="node"><title>Node6</title>
<a xlink:href="NowPlaying_8hh.html" target="_top" xlink:title="src/Browser/NowPlaying/NowPlaying.hh">
<polygon fill="white" stroke="black" points="191,-0.5 191,-19.5 385,-19.5 385,-0.5 191,-0.5"/>
<text text-anchor="middle" x="288" y="-7.5" font-family="Helvetica,sans-Serif" font-size="10.00">src/Browser/NowPlaying/NowPlaying.hh</text>
</a>
</g>
<!-- Node3&#45;&gt;Node6 -->
<g id="edge10" class="edge"><title>Node3&#45;&gt;Node6</title>
<path fill="none" stroke="midnightblue" d="M586.083,-54.9794C516.947,-44.7791 410.93,-29.1372 345.722,-19.5164"/>
<polygon fill="midnightblue" stroke="midnightblue" points="585.602,-58.4464 596.006,-56.4435 586.624,-51.5213 585.602,-58.4464"/>
</g>
<!-- Node3&#45;&gt;Node7 -->
<g id="edge12" class="edge"><title>Node3&#45;&gt;Node7</title>
<path fill="none" stroke="midnightblue" d="M701.724,-54.2172C746.885,-44.0134 813.773,-28.9006 855.307,-19.5164"/>
<polygon fill="midnightblue" stroke="midnightblue" points="700.853,-50.8257 691.87,-56.4435 702.396,-57.6535 700.853,-50.8257"/>
</g>
<!-- Node3&#45;&gt;Node8 -->
<g id="edge14" class="edge"><title>Node3&#45;&gt;Node8</title>
<path fill="none" stroke="midnightblue" d="M734.338,-55.2291C818.149,-45.0359 948.224,-29.216 1027.98,-19.5164"/>
<polygon fill="midnightblue" stroke="midnightblue" points="733.857,-51.7617 724.353,-56.4435 734.703,-58.7105 733.857,-51.7617"/>
</g>
<!-- Node9 -->
<g id="node17" class="node"><title>Node9</title>
<a xlink:href="Settings_8hh.html" target="_top" xlink:title="src/Browser/Settings/Settings.hh">
<polygon fill="white" stroke="black" points="1287.5,-0.5 1287.5,-19.5 1448.5,-19.5 1448.5,-0.5 1287.5,-0.5"/>
<text text-anchor="middle" x="1368" y="-7.5" font-family="Helvetica,sans-Serif" font-size="10.00">src/Browser/Settings/Settings.hh</text>
</a>
</g>
<!-- Node3&#45;&gt;Node9 -->
<g id="edge16" class="edge"><title>Node3&#45;&gt;Node9</title>
<path fill="none" stroke="midnightblue" d="M743.415,-58.2375C883.584,-47.6365 1152.9,-27.2683 1287.41,-17.0948"/>
<polygon fill="midnightblue" stroke="midnightblue" points="742.846,-54.7705 733.139,-59.0147 743.374,-61.7505 742.846,-54.7705"/>
</g>
<!-- Node10 -->
<g id="node19" class="node"><title>Node10</title>
<a xlink:href="StatBrowser_8hh.html" target="_top" xlink:title="src/Browser/Statistics/StatBrowser.hh">
<polygon fill="white" stroke="black" points="403,-0.5 403,-19.5 587,-19.5 587,-0.5 403,-0.5"/>
<text text-anchor="middle" x="495" y="-7.5" font-family="Helvetica,sans-Serif" font-size="10.00">src/Browser/Statistics/StatBrowser.hh</text>
</a>
</g>
<!-- Node3&#45;&gt;Node10 -->
<g id="edge18" class="edge"><title>Node3&#45;&gt;Node10</title>
<path fill="none" stroke="midnightblue" d="M619.173,-53.172C589.234,-43.0039 546.779,-28.5852 520.076,-19.5164"/>
<polygon fill="midnightblue" stroke="midnightblue" points="618.212,-56.5417 628.806,-56.4435 620.463,-49.9136 618.212,-56.5417"/>
</g>
<!-- Node12&#45;&gt;Node6 -->
<g id="edge26" class="edge"><title>Node12&#45;&gt;Node6</title>
<path fill="none" stroke="midnightblue" d="M341.966,-50.3804C328.591,-40.6204 311.441,-28.1057 300.106,-19.8339"/>
<polygon fill="midnightblue" stroke="midnightblue" points="339.97,-53.2565 350.111,-56.324 344.096,-47.602 339.97,-53.2565"/>
</g>
<!-- Node13&#45;&gt;Node8 -->
<g id="edge32" class="edge"><title>Node13&#45;&gt;Node8</title>
<path fill="none" stroke="midnightblue" d="M961.261,-53.4363C994.067,-43.2551 1041.08,-28.664 1070.56,-19.5164"/>
<polygon fill="midnightblue" stroke="midnightblue" points="960.084,-50.1368 951.571,-56.4435 962.159,-56.8222 960.084,-50.1368"/>
</g>
<!-- Node14&#45;&gt;Node8 -->
<g id="edge38" class="edge"><title>Node14&#45;&gt;Node8</title>
<path fill="none" stroke="midnightblue" d="M1117.32,-46.9827C1112.4,-37.8168 1106.64,-27.0922 1102.7,-19.7511"/>
<polygon fill="midnightblue" stroke="midnightblue" points="1114.4,-48.929 1122.21,-56.083 1120.56,-45.6171 1114.4,-48.929"/>
</g>
<!-- Node15&#45;&gt;Node9 -->
<g id="edge42" class="edge"><title>Node15&#45;&gt;Node9</title>
<path fill="none" stroke="midnightblue" d="M1539.84,-53.959C1499.04,-43.7598 1439.29,-28.8217 1402.07,-19.5164"/>
<polygon fill="midnightblue" stroke="midnightblue" points="1539.22,-57.4136 1549.77,-56.4435 1540.92,-50.6226 1539.22,-57.4136"/>
</g>
<!-- Node16&#45;&gt;Node9 -->
<g id="edge50" class="edge"><title>Node16&#45;&gt;Node9</title>
<path fill="none" stroke="midnightblue" d="M1244.22,-102.177C1246.07,-87.9498 1250.66,-68.7556 1262,-56 1278.67,-37.2507 1304.47,-26.0696 1326.45,-19.5424"/>
<polygon fill="midnightblue" stroke="midnightblue" points="1240.72,-102.015 1243.25,-112.303 1247.69,-102.683 1240.72,-102.015"/>
</g>
<!-- Node17 -->
<g id="node40" class="node"><title>Node17</title>
<a xlink:href="SettingsGeneral_8hh.html" target="_top" xlink:title="src/Browser/Settings/SettingsGeneral.hh">
<polygon fill="white" stroke="black" points="1271,-56.5 1271,-75.5 1465,-75.5 1465,-56.5 1271,-56.5"/>
<text text-anchor="middle" x="1368" y="-63.5" font-family="Helvetica,sans-Serif" font-size="10.00">src/Browser/Settings/SettingsGeneral.hh</text>
</a>
</g>
<!-- Node16&#45;&gt;Node17 -->
<g id="edge46" class="edge"><title>Node16&#45;&gt;Node17</title>
<path fill="none" stroke="midnightblue" d="M1272.24,-108.368C1295.65,-98.2553 1327.84,-84.3486 1348.29,-75.5164"/>
<polygon fill="midnightblue" stroke="midnightblue" points="1270.6,-105.265 1262.81,-112.444 1273.37,-111.691 1270.6,-105.265"/>
</g>
<!-- Node17&#45;&gt;Node9 -->
<g id="edge48" class="edge"><title>Node17&#45;&gt;Node9</title>
<path fill="none" stroke="midnightblue" d="M1368,-45.8045C1368,-36.9102 1368,-26.7798 1368,-19.7511"/>
<polygon fill="midnightblue" stroke="midnightblue" points="1364.5,-46.083 1368,-56.083 1371.5,-46.083 1364.5,-46.083"/>
</g>
<!-- Node18&#45;&gt;Node9 -->
<g id="edge54" class="edge"><title>Node18&#45;&gt;Node9</title>
<path fill="none" stroke="midnightblue" d="M1721.34,-55.1669C1639.77,-44.9716 1513.57,-29.1963 1436.13,-19.5164"/>
<polygon fill="midnightblue" stroke="midnightblue" points="1721.19,-58.6761 1731.55,-56.4435 1722.06,-51.7301 1721.19,-58.6761"/>
</g>
<!-- Node19&#45;&gt;Node20 -->
<g id="edge58" class="edge"><title>Node19&#45;&gt;Node20</title>
<path fill="none" stroke="midnightblue" d="M1780.12,-110.346C1828.12,-100.141 1899.62,-84.94 1943.94,-75.5164"/>
<polygon fill="midnightblue" stroke="midnightblue" points="1779.3,-106.94 1770.25,-112.444 1780.76,-113.787 1779.3,-106.94"/>
</g>
<!-- Node19&#45;&gt;Node21 -->
<g id="edge60" class="edge"><title>Node19&#45;&gt;Node21</title>
<path fill="none" stroke="midnightblue" d="M1804.95,-111.105C1882.18,-100.907 2001.33,-85.1766 2074.5,-75.5164"/>
<polygon fill="midnightblue" stroke="midnightblue" points="1804.26,-107.665 1794.81,-112.444 1805.18,-114.604 1804.26,-107.665"/>
</g>
</g>
</svg>
