<?xml version="1.0" encoding="UTF-8" standalone="no"?>
<!DOCTYPE svg PUBLIC "-//W3C//DTD SVG 1.1//EN"
 "http://www.w3.org/Graphics/SVG/1.1/DTD/svg11.dtd">
<!-- Generated by graphviz version 2.28.0 (20111204.1018)
 -->
<!-- Title: G Pages: 1 -->
<svg width="3327pt" height="532pt"
 viewBox="0.00 0.00 3327.08 532.00" xmlns="http://www.w3.org/2000/svg" xmlns:xlink="http://www.w3.org/1999/xlink">
<g id="graph1" class="graph" transform="scale(1 1) rotate(0) translate(4 528)">
<title>G</title>
<polygon fill="white" stroke="white" points="-4,5 -4,-528 3324.08,-528 3324.08,5 -4,5"/>
<!-- Node1 -->
<g id="node1" class="node"><title>Node1</title>
<polygon fill="#bfbfbf" stroke="black" points="2729.08,-504.5 2729.08,-523.5 2885.08,-523.5 2885.08,-504.5 2729.08,-504.5"/>
<text text-anchor="middle" x="2807.08" y="-511.5" font-family="Helvetica,sans-Serif" font-size="10.00">src/MPD/AbstractComposite.hh</text>
</g>
<!-- Node2 -->
<g id="node3" class="node"><title>Node2</title>
<a xlink:href="AbstractItemlist_8hh.html" target="_top" xlink:title="src/MPD/AbstractItemlist.hh">
<polygon fill="white" stroke="black" points="1134.58,-336.5 1134.58,-355.5 1275.58,-355.5 1275.58,-336.5 1134.58,-336.5"/>
<text text-anchor="middle" x="1205.08" y="-343.5" font-family="Helvetica,sans-Serif" font-size="10.00">src/MPD/AbstractItemlist.hh</text>
</a>
</g>
<!-- Node1&#45;&gt;Node2 -->
<g id="edge2" class="edge"><title>Node1&#45;&gt;Node2</title>
<path fill="none" stroke="midnightblue" d="M2718.67,-503.839C2432.55,-474.191 1535.31,-381.219 1275.95,-354.344"/>
<polygon fill="midnightblue" stroke="midnightblue" points="2718.69,-507.36 2729,-504.909 2719.41,-500.397 2718.69,-507.36"/>
</g>
<!-- Node29 -->
<g id="node84" class="node"><title>Node29</title>
<a xlink:href="Song_8hh.html" target="_top" xlink:title="src/MPD/Song.hh">
<polygon fill="white" stroke="black" points="2862.58,-448.5 2862.58,-467.5 2957.58,-467.5 2957.58,-448.5 2862.58,-448.5"/>
<text text-anchor="middle" x="2910.08" y="-455.5" font-family="Helvetica,sans-Serif" font-size="10.00">src/MPD/Song.hh</text>
</a>
</g>
<!-- Node1&#45;&gt;Node29 -->
<g id="edge110" class="edge"><title>Node1&#45;&gt;Node29</title>
<path fill="none" stroke="midnightblue" d="M2832.66,-499.59C2851.7,-489.605 2877.15,-476.267 2893.57,-467.655"/>
<polygon fill="midnightblue" stroke="midnightblue" points="2830.86,-496.581 2823.63,-504.324 2834.11,-502.78 2830.86,-496.581"/>
</g>
<!-- Node34 -->
<g id="node95" class="node"><title>Node34</title>
<a xlink:href="Playlist_8hh.html" target="_top" xlink:title="src/MPD/Playlist.hh">
<polygon fill="white" stroke="black" points="3069.08,-168.5 3069.08,-187.5 3173.08,-187.5 3173.08,-168.5 3069.08,-168.5"/>
<text text-anchor="middle" x="3121.08" y="-175.5" font-family="Helvetica,sans-Serif" font-size="10.00">src/MPD/Playlist.hh</text>
</a>
</g>
<!-- Node1&#45;&gt;Node34 -->
<g id="edge138" class="edge"><title>Node1&#45;&gt;Node34</title>
<path fill="none" stroke="midnightblue" d="M2876.8,-502.821C2969.04,-487.357 3120.08,-454.215 3120.08,-403 3120.08,-403 3120.08,-403 3120.08,-289 3120.08,-251.186 3120.68,-206.063 3120.95,-187.558"/>
<polygon fill="midnightblue" stroke="midnightblue" points="2875.99,-499.408 2866.69,-504.485 2877.13,-506.315 2875.99,-499.408"/>
</g>
<!-- Node35 -->
<g id="node98" class="node"><title>Node35</title>
<a xlink:href="AudioOutput_8hh.html" target="_top" xlink:title="src/MPD/AudioOutput.hh">
<polygon fill="white" stroke="black" points="2887.08,-168.5 2887.08,-187.5 3013.08,-187.5 3013.08,-168.5 2887.08,-168.5"/>
<text text-anchor="middle" x="2950.08" y="-175.5" font-family="Helvetica,sans-Serif" font-size="10.00">src/MPD/AudioOutput.hh</text>
</a>
</g>
<!-- Node1&#45;&gt;Node35 -->
<g id="edge140" class="edge"><title>Node1&#45;&gt;Node35</title>
<path fill="none" stroke="midnightblue" d="M2807.08,-494.251C2807.08,-472.357 2807.08,-435.052 2807.08,-403 2807.08,-403 2807.08,-403 2807.08,-289 2807.08,-258.902 2805.49,-245.95 2826.08,-224 2844.02,-204.877 2870.72,-193.858 2894.75,-187.519"/>
<polygon fill="midnightblue" stroke="midnightblue" points="2803.58,-494.442 2807.08,-504.442 2810.58,-494.442 2803.58,-494.442"/>
</g>
<!-- Node37 -->
<g id="node104" class="node"><title>Node37</title>
<a xlink:href="Directory_8hh.html" target="_top" xlink:title="src/MPD/Directory.hh">
<polygon fill="white" stroke="black" points="471.081,-392.5 471.081,-411.5 583.081,-411.5 583.081,-392.5 471.081,-392.5"/>
<text text-anchor="middle" x="527.081" y="-399.5" font-family="Helvetica,sans-Serif" font-size="10.00">src/MPD/Directory.hh</text>
</a>
</g>
<!-- Node1&#45;&gt;Node37 -->
<g id="edge134" class="edge"><title>Node1&#45;&gt;Node37</title>
<path fill="none" stroke="midnightblue" d="M2718.67,-508.735C2343.43,-490.631 887.855,-420.406 583.192,-405.707"/>
<polygon fill="midnightblue" stroke="midnightblue" points="2718.77,-512.243 2728.93,-509.229 2719.11,-505.252 2718.77,-512.243"/>
</g>
<!-- Node3 -->
<g id="node5" class="node"><title>Node3</title>
<a xlink:href="Database_8hh.html" target="_top" xlink:title="src/Browser/Database/Database.hh">
<polygon fill="white" stroke="black" points="29.5807,-112.5 29.5807,-131.5 202.581,-131.5 202.581,-112.5 29.5807,-112.5"/>
<text text-anchor="middle" x="116.081" y="-119.5" font-family="Helvetica,sans-Serif" font-size="10.00">src/Browser/Database/Database.hh</text>
</a>
</g>
<!-- Node2&#45;&gt;Node3 -->
<g id="edge4" class="edge"><title>Node2&#45;&gt;Node3</title>
<path fill="none" stroke="midnightblue" d="M1142.06,-334.857C1089.12,-326.164 1011.52,-313.016 944.081,-300 637.732,-240.871 270.197,-158.119 153.522,-131.561"/>
<polygon fill="midnightblue" stroke="midnightblue" points="1141.55,-338.32 1151.98,-336.482 1142.68,-331.412 1141.55,-338.32"/>
</g>
<!-- Node4 -->
<g id="node7" class="node"><title>Node4</title>
<a xlink:href="AbstractItemGenerator_8hh.html" target="_top" xlink:title="src/MPD/AbstractItemGenerator.hh">
<polygon fill="white" stroke="black" points="1560.58,-280.5 1560.58,-299.5 1731.58,-299.5 1731.58,-280.5 1560.58,-280.5"/>
<text text-anchor="middle" x="1646.08" y="-287.5" font-family="Helvetica,sans-Serif" font-size="10.00">src/MPD/AbstractItemGenerator.hh</text>
</a>
</g>
<!-- Node2&#45;&gt;Node4 -->
<g id="edge6" class="edge"><title>Node2&#45;&gt;Node4</title>
<path fill="none" stroke="midnightblue" d="M1285.13,-335.198C1368.38,-325.004 1497.4,-309.206 1576.53,-299.516"/>
<polygon fill="midnightblue" stroke="midnightblue" points="1284.46,-331.754 1274.96,-336.444 1285.31,-338.702 1284.46,-331.754"/>
</g>
<!-- Node7 -->
<g id="node14" class="node"><title>Node7</title>
<a xlink:href="DatabaseCache_8hh.html" target="_top" xlink:title="src/Browser/Database/DatabaseCache.hh">
<polygon fill="white" stroke="black" points="259.581,-112.5 259.581,-131.5 460.581,-131.5 460.581,-112.5 259.581,-112.5"/>
<text text-anchor="middle" x="360.081" y="-119.5" font-family="Helvetica,sans-Serif" font-size="10.00">src/Browser/Database/DatabaseCache.hh</text>
</a>
</g>
<!-- Node2&#45;&gt;Node7 -->
<g id="edge100" class="edge"><title>Node2&#45;&gt;Node7</title>
<path fill="none" stroke="midnightblue" d="M1158.12,-334.147C1120.03,-325.252 1065,-312.188 1017.08,-300 774.659,-238.345 483.772,-157.587 390.455,-131.511"/>
<polygon fill="midnightblue" stroke="midnightblue" points="1157.37,-337.567 1167.91,-336.428 1158.96,-330.75 1157.37,-337.567"/>
</g>
<!-- Node8 -->
<g id="node16" class="node"><title>Node8</title>
<a xlink:href="PlaylistManager_8hh.html" target="_top" xlink:title="src/Browser/PlaylistManager/PlaylistManager.hh">
<polygon fill="white" stroke="black" points="2811.08,-112.5 2811.08,-131.5 3039.08,-131.5 3039.08,-112.5 2811.08,-112.5"/>
<text text-anchor="middle" x="2925.08" y="-119.5" font-family="Helvetica,sans-Serif" font-size="10.00">src/Browser/PlaylistManager/PlaylistManager.hh</text>
</a>
</g>
<!-- Node2&#45;&gt;Node8 -->
<g id="edge102" class="edge"><title>Node2&#45;&gt;Node8</title>
<path fill="none" stroke="midnightblue" d="M1285.95,-344.881C1622.96,-344.14 2901.88,-338.772 2978.08,-300 3033.2,-271.957 3055.36,-220.123 3022.08,-168 3009.99,-149.067 2987.66,-137.978 2967.47,-131.549"/>
<polygon fill="midnightblue" stroke="midnightblue" points="1285.77,-341.382 1275.78,-344.903 1285.78,-348.382 1285.77,-341.382"/>
</g>
<!-- Node10 -->
<g id="node20" class="node"><title>Node10</title>
<a xlink:href="Queue_8hh.html" target="_top" xlink:title="src/Browser/Queue/Queue.hh">
<polygon fill="white" stroke="black" points="494.081,-56.5 494.081,-75.5 640.081,-75.5 640.081,-56.5 494.081,-56.5"/>
<text text-anchor="middle" x="567.081" y="-63.5" font-family="Helvetica,sans-Serif" font-size="10.00">src/Browser/Queue/Queue.hh</text>
</a>
</g>
<!-- Node2&#45;&gt;Node10 -->
<g id="edge104" class="edge"><title>Node2&#45;&gt;Node10</title>
<path fill="none" stroke="midnightblue" d="M1124.14,-341.854C854.097,-330.831 1.08066,-291.536 1.08066,-235 1.08066,-235 1.08066,-235 1.08066,-177 1.08066,-146.902 -3.24197,-131.024 20.0807,-112 56.0069,-82.6947 353.465,-71.9389 494.029,-68.4661"/>
<polygon fill="midnightblue" stroke="midnightblue" points="1124.13,-345.356 1134.26,-342.265 1124.41,-338.362 1124.13,-345.356"/>
</g>
<!-- Node11 -->
<g id="node23" class="node"><title>Node11</title>
<a xlink:href="QueueMerger_8hh.html" target="_top" xlink:title="src/Browser/Queue/QueueMerger.hh">
<polygon fill="white" stroke="black" points="479.081,-112.5 479.081,-131.5 655.081,-131.5 655.081,-112.5 479.081,-112.5"/>
<text text-anchor="middle" x="567.081" y="-119.5" font-family="Helvetica,sans-Serif" font-size="10.00">src/Browser/Queue/QueueMerger.hh</text>
</a>
</g>
<!-- Node2&#45;&gt;Node11 -->
<g id="edge106" class="edge"><title>Node2&#45;&gt;Node11</title>
<path fill="none" stroke="midnightblue" d="M1170.82,-333.078C1056.53,-293.311 690.081,-165.8 591.627,-131.541"/>
<polygon fill="midnightblue" stroke="midnightblue" points="1169.87,-336.453 1180.46,-336.433 1172.17,-329.841 1169.87,-336.453"/>
</g>
<!-- Node16 -->
<g id="node36" class="node"><title>Node16</title>
<a xlink:href="SettingsOutputs_8hh.html" target="_top" xlink:title="src/Browser/Settings/SettingsOutputs.hh">
<polygon fill="white" stroke="black" points="2685.58,-56.5 2685.58,-75.5 2880.58,-75.5 2880.58,-56.5 2685.58,-56.5"/>
<text text-anchor="middle" x="2783.08" y="-63.5" font-family="Helvetica,sans-Serif" font-size="10.00">src/Browser/Settings/SettingsOutputs.hh</text>
</a>
</g>
<!-- Node2&#45;&gt;Node16 -->
<g id="edge108" class="edge"><title>Node2&#45;&gt;Node16</title>
<path fill="none" stroke="midnightblue" d="M1285.84,-338.668C1390.62,-330.346 1579.09,-315.018 1740.08,-300 2226.29,-254.645 2361.19,-313.618 2833.08,-188 2854.23,-182.37 2857.26,-174.749 2878.08,-168 2951.55,-144.186 2999.45,-192.001 3048.08,-132 3053.68,-125.094 3053.82,-118.791 3048.08,-112 3026.67,-86.6419 2947.23,-75.5707 2880.86,-70.7385"/>
<polygon fill="midnightblue" stroke="midnightblue" points="1285.34,-335.196 1275.65,-339.476 1285.9,-342.174 1285.34,-335.196"/>
</g>
<!-- Node5 -->
<g id="node9" class="node"><title>Node5</title>
<a xlink:href="Client_8hh.html" target="_top" xlink:title="src/MPD/Client.hh">
<polygon fill="white" stroke="black" points="2001.08,-224.5 2001.08,-243.5 2099.08,-243.5 2099.08,-224.5 2001.08,-224.5"/>
<text text-anchor="middle" x="2050.08" y="-231.5" font-family="Helvetica,sans-Serif" font-size="10.00">src/MPD/Client.hh</text>
</a>
</g>
<!-- Node4&#45;&gt;Node5 -->
<g id="edge8" class="edge"><title>Node4&#45;&gt;Node5</title>
<path fill="none" stroke="midnightblue" d="M1720.31,-279.078C1802,-268.159 1930.99,-250.918 2000.98,-241.563"/>
<polygon fill="midnightblue" stroke="midnightblue" points="1719.54,-275.649 1710.1,-280.444 1720.47,-282.588 1719.54,-275.649"/>
</g>
<!-- Node5&#45;&gt;Node3 -->
<g id="edge68" class="edge"><title>Node5&#45;&gt;Node3</title>
<path fill="none" stroke="midnightblue" d="M1990.56,-232.579C1739.42,-230.605 765.261,-220.941 460.081,-188 346.174,-175.705 213.503,-146.275 151.459,-131.61"/>
<polygon fill="midnightblue" stroke="midnightblue" points="1990.91,-236.081 2000.93,-232.659 1990.96,-229.081 1990.91,-236.081"/>
</g>
<!-- Node6 -->
<g id="node11" class="node"><title>Node6</title>
<a xlink:href="AbstractClientUser_8hh.html" target="_top" xlink:title="src/MPD/AbstractClientUser.hh">
<polygon fill="white" stroke="black" points="1452.58,-168.5 1452.58,-187.5 1607.58,-187.5 1607.58,-168.5 1452.58,-168.5"/>
<text text-anchor="middle" x="1530.08" y="-175.5" font-family="Helvetica,sans-Serif" font-size="10.00">src/MPD/AbstractClientUser.hh</text>
</a>
</g>
<!-- Node5&#45;&gt;Node6 -->
<g id="edge10" class="edge"><title>Node5&#45;&gt;Node6</title>
<path fill="none" stroke="midnightblue" d="M1990.47,-226.81C1896.19,-217.019 1712.63,-197.957 1608.02,-187.094"/>
<polygon fill="midnightblue" stroke="midnightblue" points="1990.38,-230.319 2000.69,-227.871 1991.11,-223.357 1990.38,-230.319"/>
</g>
<!-- Node5&#45;&gt;Node8 -->
<g id="edge70" class="edge"><title>Node5&#45;&gt;Node8</title>
<path fill="none" stroke="midnightblue" d="M2109.35,-232.535C2262.39,-230.841 2667.85,-223.075 2797.08,-188 2820.29,-181.7 2881.26,-147.955 2909.86,-131.728"/>
<polygon fill="midnightblue" stroke="midnightblue" points="2109.17,-229.037 2099.21,-232.643 2109.24,-236.037 2109.17,-229.037"/>
</g>
<!-- Node9 -->
<g id="node18" class="node"><title>Node9</title>
<a xlink:href="PlaylistAddDialog_8hh.html" target="_top" xlink:title="src/Browser/Queue/PlaylistAddDialog.hh">
<polygon fill="white" stroke="black" points="673.081,-112.5 673.081,-131.5 867.081,-131.5 867.081,-112.5 673.081,-112.5"/>
<text text-anchor="middle" x="770.081" y="-119.5" font-family="Helvetica,sans-Serif" font-size="10.00">src/Browser/Queue/PlaylistAddDialog.hh</text>
</a>
</g>
<!-- Node5&#45;&gt;Node9 -->
<g id="edge72" class="edge"><title>Node5&#45;&gt;Node9</title>
<path fill="none" stroke="midnightblue" d="M1990.68,-231.671C1853.56,-228.194 1504.45,-217.008 1214.08,-188 1069.31,-173.538 899.481,-145.585 818.192,-131.521"/>
<polygon fill="midnightblue" stroke="midnightblue" points="1990.88,-235.177 2000.96,-231.927 1991.05,-228.179 1990.88,-235.177"/>
</g>
<!-- Node5&#45;&gt;Node10 -->
<g id="edge74" class="edge"><title>Node5&#45;&gt;Node10</title>
<path fill="none" stroke="midnightblue" d="M1990.59,-231.948C1685.75,-226.271 310.798,-197.11 250.081,-132 244.018,-125.499 244.254,-118.713 250.081,-112 281.008,-76.3721 410.3,-68.2072 493.91,-66.7496"/>
<polygon fill="midnightblue" stroke="midnightblue" points="1990.91,-235.454 2000.97,-232.14 1991.04,-228.455 1990.91,-235.454"/>
</g>
<!-- Node12 -->
<g id="node26" class="node"><title>Node12</title>
<a xlink:href="SettingsPlayback_8hh.html" target="_top" xlink:title="src/Browser/Settings/SettingsPlayback.hh">
<polygon fill="white" stroke="black" points="2553.58,-112.5 2553.58,-131.5 2754.58,-131.5 2754.58,-112.5 2553.58,-112.5"/>
<text text-anchor="middle" x="2654.08" y="-119.5" font-family="Helvetica,sans-Serif" font-size="10.00">src/Browser/Settings/SettingsPlayback.hh</text>
</a>
</g>
<!-- Node5&#45;&gt;Node12 -->
<g id="edge76" class="edge"><title>Node5&#45;&gt;Node12</title>
<path fill="none" stroke="midnightblue" d="M2109.21,-232.872C2196.67,-231.401 2365.07,-223.645 2503.08,-188 2554.76,-174.653 2611.51,-146.122 2638.35,-131.712"/>
<polygon fill="midnightblue" stroke="midnightblue" points="2109.15,-229.372 2099.21,-233.018 2109.26,-236.371 2109.15,-229.372"/>
</g>
<!-- Node14 -->
<g id="node30" class="node"><title>Node14</title>
<a xlink:href="Trayicon_8hh.html" target="_top" xlink:title="src/GManager/Trayicon.hh">
<polygon fill="white" stroke="black" points="2403.08,-112.5 2403.08,-131.5 2535.08,-131.5 2535.08,-112.5 2403.08,-112.5"/>
<text text-anchor="middle" x="2469.08" y="-119.5" font-family="Helvetica,sans-Serif" font-size="10.00">src/GManager/Trayicon.hh</text>
</a>
</g>
<!-- Node5&#45;&gt;Node14 -->
<g id="edge78" class="edge"><title>Node5&#45;&gt;Node14</title>
<path fill="none" stroke="midnightblue" d="M2109.45,-231.219C2223.06,-227.197 2462.25,-215.524 2487.08,-188 2501.51,-172.004 2485.9,-145.423 2475.98,-131.737"/>
<polygon fill="midnightblue" stroke="midnightblue" points="2109.06,-227.731 2099.18,-231.574 2109.3,-234.727 2109.06,-227.731"/>
</g>
<!-- Node5&#45;&gt;Node16 -->
<g id="edge80" class="edge"><title>Node5&#45;&gt;Node16</title>
<path fill="none" stroke="midnightblue" d="M2109.22,-230.663C2202.31,-226.301 2388.45,-214.81 2544.08,-188 2643.09,-170.944 2690.35,-201.309 2763.08,-132 2778.98,-116.85 2782.33,-89.4017 2782.98,-75.5237"/>
<polygon fill="midnightblue" stroke="midnightblue" points="2108.98,-227.17 2099.15,-231.124 2109.3,-234.163 2108.98,-227.17"/>
</g>
<!-- Node18 -->
<g id="node41" class="node"><title>Node18</title>
<a xlink:href="Heartbeat_8hh.html" target="_top" xlink:title="src/GManager/Heartbeat.hh">
<polygon fill="white" stroke="black" points="1147.58,-112.5 1147.58,-131.5 1284.58,-131.5 1284.58,-112.5 1147.58,-112.5"/>
<text text-anchor="middle" x="1216.08" y="-119.5" font-family="Helvetica,sans-Serif" font-size="10.00">src/GManager/Heartbeat.hh</text>
</a>
</g>
<!-- Node5&#45;&gt;Node18 -->
<g id="edge84" class="edge"><title>Node5&#45;&gt;Node18</title>
<path fill="none" stroke="midnightblue" d="M1990.72,-232.618C1881.48,-231.027 1641.62,-223.398 1443.08,-188 1367.41,-174.509 1280.81,-145.911 1239.89,-131.573"/>
<polygon fill="midnightblue" stroke="midnightblue" points="1990.83,-236.12 2000.87,-232.754 1990.92,-229.12 1990.83,-236.12"/>
</g>
<!-- Node19 -->
<g id="node43" class="node"><title>Node19</title>
<a xlink:href="Statusbar_8hh.html" target="_top" xlink:title="src/GManager/Statusbar.hh">
<polygon fill="white" stroke="black" points="1408.58,-56.5 1408.58,-75.5 1545.58,-75.5 1545.58,-56.5 1408.58,-56.5"/>
<text text-anchor="middle" x="1477.08" y="-63.5" font-family="Helvetica,sans-Serif" font-size="10.00">src/GManager/Statusbar.hh</text>
</a>
</g>
<!-- Node5&#45;&gt;Node19 -->
<g id="edge90" class="edge"><title>Node5&#45;&gt;Node19</title>
<path fill="none" stroke="midnightblue" d="M2070.41,-218.405C2095.83,-200.261 2137,-171.269 2145.08,-168 2235.02,-131.605 2422.91,-182.339 2356.08,-112 2328.29,-82.7481 1747.81,-71.1306 1545.72,-67.9629"/>
<polygon fill="midnightblue" stroke="midnightblue" points="2068.25,-215.644 2062.15,-224.31 2072.32,-221.337 2068.25,-215.644"/>
</g>
<!-- Node21 -->
<g id="node47" class="node"><title>Node21</title>
<a xlink:href="MenuList_8hh.html" target="_top" xlink:title="src/GManager/MenuList.hh">
<polygon fill="white" stroke="black" points="2213.08,-112.5 2213.08,-131.5 2347.08,-131.5 2347.08,-112.5 2213.08,-112.5"/>
<text text-anchor="middle" x="2280.08" y="-119.5" font-family="Helvetica,sans-Serif" font-size="10.00">src/GManager/MenuList.hh</text>
</a>
</g>
<!-- Node5&#45;&gt;Node21 -->
<g id="edge86" class="edge"><title>Node5&#45;&gt;Node21</title>
<path fill="none" stroke="midnightblue" d="M2061.92,-216.11C2073.18,-201.294 2091.42,-180.255 2112.08,-168 2143.89,-149.13 2183.73,-138.015 2216.62,-131.554"/>
<polygon fill="midnightblue" stroke="midnightblue" points="2058.94,-214.26 2055.86,-224.397 2064.59,-218.394 2058.94,-214.26"/>
</g>
<!-- Node23 -->
<g id="node51" class="node"><title>Node23</title>
<a xlink:href="PlaybackButtons_8hh.html" target="_top" xlink:title="src/GManager/PlaybackButtons.hh">
<polygon fill="white" stroke="black" points="884.581,-112.5 884.581,-131.5 1053.58,-131.5 1053.58,-112.5 884.581,-112.5"/>
<text text-anchor="middle" x="969.081" y="-119.5" font-family="Helvetica,sans-Serif" font-size="10.00">src/GManager/PlaybackButtons.hh</text>
</a>
</g>
<!-- Node5&#45;&gt;Node23 -->
<g id="edge88" class="edge"><title>Node5&#45;&gt;Node23</title>
<path fill="none" stroke="midnightblue" d="M1990.69,-231.168C1870.65,-227.02 1590.7,-215.083 1357.08,-188 1230.55,-173.331 1082.45,-145.538 1011.37,-131.528"/>
<polygon fill="midnightblue" stroke="midnightblue" points="1990.66,-234.669 2000.77,-231.511 1990.9,-227.673 1990.66,-234.669"/>
</g>
<!-- Node24 -->
<g id="node54" class="node"><title>Node24</title>
<a xlink:href="StatusIcons_8hh.html" target="_top" xlink:title="src/GManager/StatusIcons.hh">
<polygon fill="white" stroke="black" points="1719.58,-112.5 1719.58,-131.5 1866.58,-131.5 1866.58,-112.5 1719.58,-112.5"/>
<text text-anchor="middle" x="1793.08" y="-119.5" font-family="Helvetica,sans-Serif" font-size="10.00">src/GManager/StatusIcons.hh</text>
</a>
</g>
<!-- Node5&#45;&gt;Node24 -->
<g id="edge92" class="edge"><title>Node5&#45;&gt;Node24</title>
<path fill="none" stroke="midnightblue" d="M2020.42,-220.305C1967.51,-197.66 1858.2,-150.871 1813.15,-131.591"/>
<polygon fill="midnightblue" stroke="midnightblue" points="2019.34,-223.651 2029.91,-224.368 2022.1,-217.216 2019.34,-223.651"/>
</g>
<!-- Node25 -->
<g id="node57" class="node"><title>Node25</title>
<a xlink:href="TitleLabel_8hh.html" target="_top" xlink:title="src/GManager/TitleLabel.hh">
<polygon fill="white" stroke="black" points="1884.58,-112.5 1884.58,-131.5 2021.58,-131.5 2021.58,-112.5 1884.58,-112.5"/>
<text text-anchor="middle" x="1953.08" y="-119.5" font-family="Helvetica,sans-Serif" font-size="10.00">src/GManager/TitleLabel.hh</text>
</a>
</g>
<!-- Node5&#45;&gt;Node25 -->
<g id="edge94" class="edge"><title>Node5&#45;&gt;Node25</title>
<path fill="none" stroke="midnightblue" d="M2035.61,-216.586C2014.69,-192.871 1976.77,-149.869 1960.66,-131.591"/>
<polygon fill="midnightblue" stroke="midnightblue" points="2033.23,-219.183 2042.47,-224.368 2038.48,-214.553 2033.23,-219.183"/>
</g>
<!-- Node26 -->
<g id="node59" class="node"><title>Node26</title>
<a xlink:href="Volumebutton_8hh.html" target="_top" xlink:title="src/GManager/Volumebutton.hh">
<polygon fill="white" stroke="black" points="2039.58,-112.5 2039.58,-131.5 2194.58,-131.5 2194.58,-112.5 2039.58,-112.5"/>
<text text-anchor="middle" x="2117.08" y="-119.5" font-family="Helvetica,sans-Serif" font-size="10.00">src/GManager/Volumebutton.hh</text>
</a>
</g>
<!-- Node5&#45;&gt;Node26 -->
<g id="edge96" class="edge"><title>Node5&#45;&gt;Node26</title>
<path fill="none" stroke="midnightblue" d="M2054.85,-214.036C2058.76,-200.547 2065.12,-182.349 2074.08,-168 2083.01,-153.702 2097.02,-140.119 2106.61,-131.69"/>
<polygon fill="midnightblue" stroke="midnightblue" points="2051.37,-213.504 2052.14,-224.071 2058.13,-215.331 2051.37,-213.504"/>
</g>
<!-- Node27 -->
<g id="node68" class="node"><title>Node27</title>
<a xlink:href="StatBrowser_8hh.html" target="_top" xlink:title="src/Browser/Statistics/StatBrowser.hh">
<polygon fill="white" stroke="black" points="2154.08,-168.5 2154.08,-187.5 2338.08,-187.5 2338.08,-168.5 2154.08,-168.5"/>
<text text-anchor="middle" x="2246.08" y="-175.5" font-family="Helvetica,sans-Serif" font-size="10.00">src/Browser/Statistics/StatBrowser.hh</text>
</a>
</g>
<!-- Node5&#45;&gt;Node27 -->
<g id="edge82" class="edge"><title>Node5&#45;&gt;Node27</title>
<path fill="none" stroke="midnightblue" d="M2091.1,-221.699C2128.09,-211.507 2181.68,-196.743 2215.17,-187.516"/>
<polygon fill="midnightblue" stroke="midnightblue" points="2089.85,-218.413 2081.14,-224.444 2091.71,-225.162 2089.85,-218.413"/>
</g>
<!-- Node28 -->
<g id="node77" class="node"><title>Node28</title>
<a xlink:href="check__mpd_8hh.html" target="_top" xlink:title="src/MPD/check_mpd.hh">
<polygon fill="white" stroke="black" points="2356.08,-168.5 2356.08,-187.5 2478.08,-187.5 2478.08,-168.5 2356.08,-168.5"/>
<text text-anchor="middle" x="2417.08" y="-175.5" font-family="Helvetica,sans-Serif" font-size="10.00">src/MPD/check_mpd.hh</text>
</a>
</g>
<!-- Node5&#45;&gt;Node28 -->
<g id="edge98" class="edge"><title>Node5&#45;&gt;Node28</title>
<path fill="none" stroke="midnightblue" d="M2109.44,-224.266C2178.27,-214.138 2290.99,-197.553 2359.19,-187.518"/>
<polygon fill="midnightblue" stroke="midnightblue" points="2108.58,-220.855 2099.2,-225.773 2109.6,-227.78 2108.58,-220.855"/>
</g>
<!-- Node6&#45;&gt;Node3 -->
<g id="edge12" class="edge"><title>Node6&#45;&gt;Node3</title>
<path fill="none" stroke="midnightblue" d="M1442.26,-174.879C1234.79,-169.656 698.038,-154.912 250.081,-132 234.828,-131.22 218.609,-130.25 202.915,-129.238"/>
<polygon fill="midnightblue" stroke="midnightblue" points="1442.4,-178.383 1452.49,-175.135 1442.58,-171.386 1442.4,-178.383"/>
</g>
<!-- Node6&#45;&gt;Node7 -->
<g id="edge14" class="edge"><title>Node6&#45;&gt;Node7</title>
<path fill="none" stroke="midnightblue" d="M1442.53,-174.445C1261.07,-168.894 830.711,-154.399 470.081,-132 467.021,-131.81 463.914,-131.608 460.777,-131.398"/>
<polygon fill="midnightblue" stroke="midnightblue" points="1442.46,-177.944 1452.56,-174.751 1442.67,-170.948 1442.46,-177.944"/>
</g>
<!-- Node6&#45;&gt;Node8 -->
<g id="edge16" class="edge"><title>Node6&#45;&gt;Node8</title>
<path fill="none" stroke="midnightblue" d="M1617.9,-174.369C1820.03,-168.187 2333.76,-151.758 2763.08,-132 2778.56,-131.288 2794.86,-130.466 2810.92,-129.615"/>
<polygon fill="midnightblue" stroke="midnightblue" points="1617.53,-170.878 1607.64,-174.682 1617.75,-177.875 1617.53,-170.878"/>
</g>
<!-- Node6&#45;&gt;Node9 -->
<g id="edge18" class="edge"><title>Node6&#45;&gt;Node9</title>
<path fill="none" stroke="midnightblue" d="M1442.08,-171.428C1316.3,-163.357 1077.92,-147.66 875.081,-132 872.527,-131.803 869.938,-131.6 867.326,-131.394"/>
<polygon fill="midnightblue" stroke="midnightblue" points="1442.21,-174.944 1452.41,-172.091 1442.66,-167.958 1442.21,-174.944"/>
</g>
<!-- Node6&#45;&gt;Node10 -->
<g id="edge22" class="edge"><title>Node6&#45;&gt;Node10</title>
<path fill="none" stroke="midnightblue" d="M1442.33,-171.674C1360.61,-165.651 1235.73,-153.72 1129.08,-132 1098.63,-125.798 1092.6,-117.88 1062.08,-112 914.01,-83.4657 737.437,-72.9189 640.27,-69.0985"/>
<polygon fill="midnightblue" stroke="midnightblue" points="1442.34,-175.185 1452.57,-172.415 1442.85,-168.203 1442.34,-175.185"/>
</g>
<!-- Node6&#45;&gt;Node11 -->
<g id="edge24" class="edge"><title>Node6&#45;&gt;Node11</title>
<path fill="none" stroke="midnightblue" d="M1442.34,-173.62C1285.87,-167.328 948.393,-152.568 664.081,-132 661.129,-131.786 658.127,-131.56 655.096,-131.324"/>
<polygon fill="midnightblue" stroke="midnightblue" points="1442.25,-177.119 1452.39,-174.022 1442.54,-170.124 1442.25,-177.119"/>
</g>
<!-- Node6&#45;&gt;Node12 -->
<g id="edge28" class="edge"><title>Node6&#45;&gt;Node12</title>
<path fill="none" stroke="midnightblue" d="M1617.97,-174.203C1793.89,-168.361 2201.81,-153.589 2544.08,-132 2547.14,-131.807 2550.25,-131.603 2553.38,-131.39"/>
<polygon fill="midnightblue" stroke="midnightblue" points="1617.61,-170.713 1607.73,-174.542 1617.84,-177.709 1617.61,-170.713"/>
</g>
<!-- Node6&#45;&gt;Node14 -->
<g id="edge32" class="edge"><title>Node6&#45;&gt;Node14</title>
<path fill="none" stroke="midnightblue" d="M1617.98,-172.936C1768.97,-165.792 2087.31,-150.022 2356.08,-132 2371.3,-130.98 2387.66,-129.752 2403.07,-128.537"/>
<polygon fill="midnightblue" stroke="midnightblue" points="1617.67,-169.446 1607.84,-173.414 1618,-176.439 1617.67,-169.446"/>
</g>
<!-- Node6&#45;&gt;Node16 -->
<g id="edge40" class="edge"><title>Node6&#45;&gt;Node16</title>
<path fill="none" stroke="midnightblue" d="M1571.59,-165.71C1600.02,-157.505 1638.36,-145.503 1671.08,-132 1689.09,-124.569 1691.24,-116.939 1710.08,-112 1909.28,-59.7845 2430.4,-86.2929 2636.08,-76 2652.04,-75.2013 2668.97,-74.2561 2685.44,-73.2836"/>
<polygon fill="midnightblue" stroke="midnightblue" points="1570.63,-162.344 1561.97,-168.45 1572.55,-169.076 1570.63,-162.344"/>
</g>
<!-- Node17 -->
<g id="node39" class="node"><title>Node17</title>
<a xlink:href="BrowserList_8hh.html" target="_top" xlink:title="src/GManager/BrowserList.hh">
<polygon fill="white" stroke="black" points="1303.08,-112.5 1303.08,-131.5 1449.08,-131.5 1449.08,-112.5 1303.08,-112.5"/>
<text text-anchor="middle" x="1376.08" y="-119.5" font-family="Helvetica,sans-Serif" font-size="10.00">src/GManager/BrowserList.hh</text>
</a>
</g>
<!-- Node6&#45;&gt;Node17 -->
<g id="edge44" class="edge"><title>Node6&#45;&gt;Node17</title>
<path fill="none" stroke="midnightblue" d="M1495.97,-165.039C1466.99,-154.879 1426.12,-140.546 1400.37,-131.516"/>
<polygon fill="midnightblue" stroke="midnightblue" points="1495.08,-168.437 1505.68,-168.444 1497.4,-161.832 1495.08,-168.437"/>
</g>
<!-- Node6&#45;&gt;Node18 -->
<g id="edge46" class="edge"><title>Node6&#45;&gt;Node18</title>
<path fill="none" stroke="midnightblue" d="M1470.35,-166.727C1411.01,-156.523 1321.09,-141.058 1265.6,-131.516"/>
<polygon fill="midnightblue" stroke="midnightblue" points="1469.88,-170.198 1480.33,-168.444 1471.06,-163.299 1469.88,-170.198"/>
</g>
<!-- Node6&#45;&gt;Node19 -->
<g id="edge58" class="edge"><title>Node6&#45;&gt;Node19</title>
<path fill="none" stroke="midnightblue" d="M1515.49,-160.716C1508.8,-152.562 1501.24,-142.259 1496.08,-132 1486.58,-113.091 1481.04,-88.6379 1478.6,-75.7853"/>
<polygon fill="midnightblue" stroke="midnightblue" points="1512.85,-163.01 1522,-168.343 1518.17,-158.465 1512.85,-163.01"/>
</g>
<!-- Node20 -->
<g id="node45" class="node"><title>Node20</title>
<a xlink:href="Timeslide_8hh.html" target="_top" xlink:title="src/GManager/Timeslide.hh">
<polygon fill="white" stroke="black" points="1098.58,-56.5 1098.58,-75.5 1235.58,-75.5 1235.58,-56.5 1098.58,-56.5"/>
<text text-anchor="middle" x="1167.08" y="-63.5" font-family="Helvetica,sans-Serif" font-size="10.00">src/GManager/Timeslide.hh</text>
</a>
</g>
<!-- Node6&#45;&gt;Node20 -->
<g id="edge62" class="edge"><title>Node6&#45;&gt;Node20</title>
<path fill="none" stroke="midnightblue" d="M1442.33,-173.008C1332.98,-167.117 1157.98,-154.31 1138.08,-132 1122.95,-115.031 1144.55,-88.8757 1157.9,-75.5058"/>
<polygon fill="midnightblue" stroke="midnightblue" points="1442.2,-176.506 1452.37,-173.54 1442.57,-169.516 1442.2,-176.506"/>
</g>
<!-- Node6&#45;&gt;Node21 -->
<g id="edge52" class="edge"><title>Node6&#45;&gt;Node21</title>
<path fill="none" stroke="midnightblue" d="M1617.83,-172.525C1746.4,-165.651 1993.46,-151.246 2203.08,-132 2206.3,-131.705 2209.59,-131.386 2212.91,-131.05"/>
<polygon fill="midnightblue" stroke="midnightblue" points="1617.45,-169.04 1607.65,-173.066 1617.82,-176.03 1617.45,-169.04"/>
</g>
<!-- Node22 -->
<g id="node49" class="node"><title>Node22</title>
<a xlink:href="NotifyManager_8hh.html" target="_top" xlink:title="src/GManager/NotifyManager.hh">
<polygon fill="white" stroke="black" points="1505.08,-112.5 1505.08,-131.5 1663.08,-131.5 1663.08,-112.5 1505.08,-112.5"/>
<text text-anchor="middle" x="1584.08" y="-119.5" font-family="Helvetica,sans-Serif" font-size="10.00">src/GManager/NotifyManager.hh</text>
</a>
</g>
<!-- Node6&#45;&gt;Node22 -->
<g id="edge54" class="edge"><title>Node6&#45;&gt;Node22</title>
<path fill="none" stroke="midnightblue" d="M1546.08,-161.002C1555.65,-151.433 1567.44,-139.639 1575.33,-131.751"/>
<polygon fill="midnightblue" stroke="midnightblue" points="1543.59,-158.537 1539,-168.083 1548.54,-163.487 1543.59,-158.537"/>
</g>
<!-- Node6&#45;&gt;Node23 -->
<g id="edge56" class="edge"><title>Node6&#45;&gt;Node23</title>
<path fill="none" stroke="midnightblue" d="M1442.32,-168.553C1336.16,-158.333 1158.66,-141.248 1053.85,-131.16"/>
<polygon fill="midnightblue" stroke="midnightblue" points="1442.08,-172.046 1452.37,-169.52 1442.75,-165.078 1442.08,-172.046"/>
</g>
<!-- Node6&#45;&gt;Node24 -->
<g id="edge60" class="edge"><title>Node6&#45;&gt;Node24</title>
<path fill="none" stroke="midnightblue" d="M1581.66,-166.41C1631.36,-156.204 1705.61,-140.96 1751.6,-131.516"/>
<polygon fill="midnightblue" stroke="midnightblue" points="1580.85,-163.004 1571.75,-168.444 1582.25,-169.861 1580.85,-163.004"/>
</g>
<!-- Node6&#45;&gt;Node25 -->
<g id="edge64" class="edge"><title>Node6&#45;&gt;Node25</title>
<path fill="none" stroke="midnightblue" d="M1607.11,-167.167C1686.97,-156.972 1810.54,-141.196 1886.37,-131.516"/>
<polygon fill="midnightblue" stroke="midnightblue" points="1606.58,-163.705 1597.11,-168.444 1607.47,-170.649 1606.58,-163.705"/>
</g>
<!-- Node6&#45;&gt;Node26 -->
<g id="edge66" class="edge"><title>Node6&#45;&gt;Node26</title>
<path fill="none" stroke="midnightblue" d="M1617.67,-169.473C1717.52,-160.809 1885.61,-145.973 2030.08,-132 2033.1,-131.708 2036.19,-131.406 2039.3,-131.098"/>
<polygon fill="midnightblue" stroke="midnightblue" points="1617.29,-165.993 1607.63,-170.343 1617.89,-172.966 1617.29,-165.993"/>
</g>
<!-- Node9&#45;&gt;Node10 -->
<g id="edge20" class="edge"><title>Node9&#45;&gt;Node10</title>
<path fill="none" stroke="midnightblue" d="M728.086,-109.829C689.758,-99.6333 633.929,-84.7823 599.096,-75.5164"/>
<polygon fill="midnightblue" stroke="midnightblue" points="727.351,-113.255 737.915,-112.444 729.151,-106.49 727.351,-113.255"/>
</g>
<!-- Node11&#45;&gt;Node10 -->
<g id="edge26" class="edge"><title>Node11&#45;&gt;Node10</title>
<path fill="none" stroke="midnightblue" d="M567.081,-101.805C567.081,-92.9102 567.081,-82.7798 567.081,-75.7511"/>
<polygon fill="midnightblue" stroke="midnightblue" points="563.581,-102.083 567.081,-112.083 570.581,-102.083 563.581,-102.083"/>
</g>
<!-- Node13 -->
<g id="node28" class="node"><title>Node13</title>
<a xlink:href="Settings_8hh.html" target="_top" xlink:title="src/Browser/Settings/Settings.hh">
<polygon fill="white" stroke="black" points="2512.58,-0.5 2512.58,-19.5 2673.58,-19.5 2673.58,-0.5 2512.58,-0.5"/>
<text text-anchor="middle" x="2593.08" y="-7.5" font-family="Helvetica,sans-Serif" font-size="10.00">src/Browser/Settings/Settings.hh</text>
</a>
</g>
<!-- Node12&#45;&gt;Node13 -->
<g id="edge30" class="edge"><title>Node12&#45;&gt;Node13</title>
<path fill="none" stroke="midnightblue" d="M2651.45,-102.466C2648.94,-88.9254 2644.3,-70.4782 2636.08,-56 2627.76,-41.3412 2613.61,-27.8376 2603.83,-19.5247"/>
<polygon fill="midnightblue" stroke="midnightblue" points="2648.02,-103.183 2653.08,-112.492 2654.93,-102.06 2648.02,-103.183"/>
</g>
<!-- Node14&#45;&gt;Node13 -->
<g id="edge38" class="edge"><title>Node14&#45;&gt;Node13</title>
<path fill="none" stroke="midnightblue" d="M2447.37,-106.007C2430.65,-92.6009 2412.36,-72.5708 2425.08,-56 2438.22,-38.8726 2489.1,-26.8385 2531.46,-19.5517"/>
<polygon fill="midnightblue" stroke="midnightblue" points="2445.71,-109.136 2455.8,-112.36 2449.92,-103.546 2445.71,-109.136"/>
</g>
<!-- Node15 -->
<g id="node32" class="node"><title>Node15</title>
<a xlink:href="SettingsGeneral_8hh.html" target="_top" xlink:title="src/Browser/Settings/SettingsGeneral.hh">
<polygon fill="white" stroke="black" points="2434.08,-56.5 2434.08,-75.5 2628.08,-75.5 2628.08,-56.5 2434.08,-56.5"/>
<text text-anchor="middle" x="2531.08" y="-63.5" font-family="Helvetica,sans-Serif" font-size="10.00">src/Browser/Settings/SettingsGeneral.hh</text>
</a>
</g>
<!-- Node14&#45;&gt;Node15 -->
<g id="edge34" class="edge"><title>Node14&#45;&gt;Node15</title>
<path fill="none" stroke="midnightblue" d="M2486.83,-105.537C2497.89,-95.9087 2511.71,-83.8694 2520.94,-75.8339"/>
<polygon fill="midnightblue" stroke="midnightblue" points="2484.28,-103.117 2479.04,-112.324 2488.88,-108.395 2484.28,-103.117"/>
</g>
<!-- Node15&#45;&gt;Node13 -->
<g id="edge36" class="edge"><title>Node15&#45;&gt;Node13</title>
<path fill="none" stroke="midnightblue" d="M2548.83,-49.5372C2559.89,-39.9087 2573.71,-27.8694 2582.94,-19.8339"/>
<polygon fill="midnightblue" stroke="midnightblue" points="2546.28,-47.1168 2541.04,-56.324 2550.88,-52.3954 2546.28,-47.1168"/>
</g>
<!-- Node16&#45;&gt;Node13 -->
<g id="edge42" class="edge"><title>Node16&#45;&gt;Node13</title>
<path fill="none" stroke="midnightblue" d="M2743.32,-53.6986C2707.46,-43.507 2655.51,-28.7429 2623.05,-19.5164"/>
<polygon fill="midnightblue" stroke="midnightblue" points="2742.4,-57.0763 2752.97,-56.4435 2744.31,-50.343 2742.4,-57.0763"/>
</g>
<!-- Node18&#45;&gt;Node19 -->
<g id="edge48" class="edge"><title>Node18&#45;&gt;Node19</title>
<path fill="none" stroke="midnightblue" d="M1267.27,-110.41C1316.59,-100.204 1390.28,-84.9597 1435.92,-75.5164"/>
<polygon fill="midnightblue" stroke="midnightblue" points="1266.52,-106.99 1257.44,-112.444 1267.94,-113.845 1266.52,-106.99"/>
</g>
<!-- Node18&#45;&gt;Node20 -->
<g id="edge50" class="edge"><title>Node18&#45;&gt;Node20</title>
<path fill="none" stroke="midnightblue" d="M1201.05,-104.431C1192.46,-94.9673 1182.04,-83.4827 1175.02,-75.7511"/>
<polygon fill="midnightblue" stroke="midnightblue" points="1198.68,-107.029 1207.99,-112.083 1203.86,-102.325 1198.68,-107.029"/>
</g>
<!-- Node30 -->
<g id="node86" class="node"><title>Node30</title>
<a xlink:href="NotifyData_8hh.html" target="_top" xlink:title="src/MPD/NotifyData.hh">
<polygon fill="white" stroke="black" points="2850.58,-392.5 2850.58,-411.5 2969.58,-411.5 2969.58,-392.5 2850.58,-392.5"/>
<text text-anchor="middle" x="2910.08" y="-399.5" font-family="Helvetica,sans-Serif" font-size="10.00">src/MPD/NotifyData.hh</text>
</a>
</g>
<!-- Node29&#45;&gt;Node30 -->
<g id="edge112" class="edge"><title>Node29&#45;&gt;Node30</title>
<path fill="none" stroke="midnightblue" d="M2910.08,-437.805C2910.08,-428.91 2910.08,-418.78 2910.08,-411.751"/>
<polygon fill="midnightblue" stroke="midnightblue" points="2906.58,-438.083 2910.08,-448.083 2913.58,-438.083 2906.58,-438.083"/>
</g>
<!-- Node29&#45;&gt;Node34 -->
<g id="edge132" class="edge"><title>Node29&#45;&gt;Node34</title>
<path fill="none" stroke="midnightblue" d="M2964.02,-445.884C3013.8,-432.097 3080.08,-403.191 3080.08,-347 3080.08,-347 3080.08,-347 3080.08,-289 3080.08,-249.054 3104.11,-205.795 3115.38,-187.712"/>
<polygon fill="midnightblue" stroke="midnightblue" points="2963.08,-442.51 2954.3,-448.443 2964.86,-449.279 2963.08,-442.51"/>
</g>
<!-- Node31 -->
<g id="node88" class="node"><title>Node31</title>
<a xlink:href="Listener_8hh.html" target="_top" xlink:title="src/MPD/Listener.hh">
<polygon fill="white" stroke="black" points="2856.58,-336.5 2856.58,-355.5 2963.58,-355.5 2963.58,-336.5 2856.58,-336.5"/>
<text text-anchor="middle" x="2910.08" y="-343.5" font-family="Helvetica,sans-Serif" font-size="10.00">src/MPD/Listener.hh</text>
</a>
</g>
<!-- Node30&#45;&gt;Node31 -->
<g id="edge114" class="edge"><title>Node30&#45;&gt;Node31</title>
<path fill="none" stroke="midnightblue" d="M2910.08,-381.805C2910.08,-372.91 2910.08,-362.78 2910.08,-355.751"/>
<polygon fill="midnightblue" stroke="midnightblue" points="2906.58,-382.083 2910.08,-392.083 2913.58,-382.083 2906.58,-382.083"/>
</g>
<!-- Node32 -->
<g id="node90" class="node"><title>Node32</title>
<a xlink:href="BaseClient_8hh.html" target="_top" xlink:title="src/MPD/BaseClient.hh">
<polygon fill="white" stroke="black" points="2850.08,-280.5 2850.08,-299.5 2970.08,-299.5 2970.08,-280.5 2850.08,-280.5"/>
<text text-anchor="middle" x="2910.08" y="-287.5" font-family="Helvetica,sans-Serif" font-size="10.00">src/MPD/BaseClient.hh</text>
</a>
</g>
<!-- Node31&#45;&gt;Node32 -->
<g id="edge116" class="edge"><title>Node31&#45;&gt;Node32</title>
<path fill="none" stroke="midnightblue" d="M2910.08,-325.805C2910.08,-316.91 2910.08,-306.78 2910.08,-299.751"/>
<polygon fill="midnightblue" stroke="midnightblue" points="2906.58,-326.083 2910.08,-336.083 2913.58,-326.083 2906.58,-326.083"/>
</g>
<!-- Node32&#45;&gt;Node5 -->
<g id="edge118" class="edge"><title>Node32&#45;&gt;Node5</title>
<path fill="none" stroke="midnightblue" d="M2839.92,-284.594C2670.88,-273.981 2244.38,-247.2 2099.29,-238.09"/>
<polygon fill="midnightblue" stroke="midnightblue" points="2839.75,-288.091 2849.95,-285.224 2840.19,-281.104 2839.75,-288.091"/>
</g>
<!-- Node33 -->
<g id="node93" class="node"><title>Node33</title>
<a xlink:href="AbstractClientExtension_8hh.html" target="_top" xlink:title="src/MPD/AbstractClientExtension.hh">
<polygon fill="white" stroke="black" points="2835.08,-224.5 2835.08,-243.5 3013.08,-243.5 3013.08,-224.5 2835.08,-224.5"/>
<text text-anchor="middle" x="2924.08" y="-231.5" font-family="Helvetica,sans-Serif" font-size="10.00">src/MPD/AbstractClientExtension.hh</text>
</a>
</g>
<!-- Node32&#45;&gt;Node33 -->
<g id="edge120" class="edge"><title>Node32&#45;&gt;Node33</title>
<path fill="none" stroke="midnightblue" d="M2914.9,-270.396C2917.25,-261.362 2919.95,-250.936 2921.81,-243.751"/>
<polygon fill="midnightblue" stroke="midnightblue" points="2911.51,-269.525 2912.39,-280.083 2918.29,-271.281 2911.51,-269.525"/>
</g>
<!-- Node33&#45;&gt;Node34 -->
<g id="edge122" class="edge"><title>Node33&#45;&gt;Node34</title>
<path fill="none" stroke="midnightblue" d="M2965.31,-221.699C3002.49,-211.507 3056.35,-196.743 3090.01,-187.516"/>
<polygon fill="midnightblue" stroke="midnightblue" points="2964.01,-218.424 2955.3,-224.444 2965.87,-225.175 2964.01,-218.424"/>
</g>
<!-- Node33&#45;&gt;Node35 -->
<g id="edge126" class="edge"><title>Node33&#45;&gt;Node35</title>
<path fill="none" stroke="midnightblue" d="M2932.76,-214.983C2937.17,-205.817 2942.33,-195.092 2945.87,-187.751"/>
<polygon fill="midnightblue" stroke="midnightblue" points="2929.56,-213.555 2928.37,-224.083 2935.87,-216.591 2929.56,-213.555"/>
</g>
<!-- Node34&#45;&gt;Node8 -->
<g id="edge124" class="edge"><title>Node34&#45;&gt;Node8</title>
<path fill="none" stroke="midnightblue" d="M3080.06,-165.699C3043.07,-155.507 2989.48,-140.743 2955.99,-131.516"/>
<polygon fill="midnightblue" stroke="midnightblue" points="3079.45,-169.162 3090.02,-168.444 3081.31,-162.413 3079.45,-169.162"/>
</g>
<!-- Node36 -->
<g id="node100" class="node"><title>Node36</title>
<a xlink:href="OutputsModelColumns_8hh.html" target="_top" xlink:title="src/Browser/Settings/OutputsModelColumns.hh">
<polygon fill="white" stroke="black" points="3095.08,-112.5 3095.08,-131.5 3319.08,-131.5 3319.08,-112.5 3095.08,-112.5"/>
<text text-anchor="middle" x="3207.08" y="-119.5" font-family="Helvetica,sans-Serif" font-size="10.00">src/Browser/Settings/OutputsModelColumns.hh</text>
</a>
</g>
<!-- Node35&#45;&gt;Node36 -->
<g id="edge128" class="edge"><title>Node35&#45;&gt;Node36</title>
<path fill="none" stroke="midnightblue" d="M3000.79,-166.346C3049.36,-156.141 3121.7,-140.94 3166.55,-131.516"/>
<polygon fill="midnightblue" stroke="midnightblue" points="2999.87,-162.962 2990.8,-168.444 3001.31,-169.812 2999.87,-162.962"/>
</g>
<!-- Node36&#45;&gt;Node16 -->
<g id="edge130" class="edge"><title>Node36&#45;&gt;Node16</title>
<path fill="none" stroke="midnightblue" d="M3129.87,-111.167C3049.82,-100.972 2925.96,-85.1963 2849.95,-75.5164"/>
<polygon fill="midnightblue" stroke="midnightblue" points="3129.53,-114.652 3139.9,-112.444 3130.42,-107.708 3129.53,-114.652"/>
</g>
<!-- Node37&#45;&gt;Node3 -->
<g id="edge136" class="edge"><title>Node37&#45;&gt;Node3</title>
<path fill="none" stroke="midnightblue" d="M460.707,-392.373C365.126,-378.063 200.081,-345.468 200.081,-291 200.081,-291 200.081,-291 200.081,-233 200.081,-186.865 152.831,-148.057 129.206,-131.537"/>
<polygon fill="midnightblue" stroke="midnightblue" points="460.465,-395.875 470.867,-393.865 461.482,-388.949 460.465,-395.875"/>
</g>
</g>
</svg>
