<?xml version="1.0" encoding="UTF-8" standalone="no"?>
<!DOCTYPE svg PUBLIC "-//W3C//DTD SVG 1.1//EN"
 "http://www.w3.org/Graphics/SVG/1.1/DTD/svg11.dtd">
<!-- Generated by graphviz version 2.28.0 (20111204.1018)
 -->
<!-- Title: G Pages: 1 -->
<svg width="2719pt" height="196pt"
 viewBox="0.00 0.00 2719.00 196.00" xmlns="http://www.w3.org/2000/svg" xmlns:xlink="http://www.w3.org/1999/xlink">
<g id="graph1" class="graph" transform="scale(1 1) rotate(0) translate(4 192)">
<title>G</title>
<polygon fill="white" stroke="white" points="-4,5 -4,-192 2716,-192 2716,5 -4,5"/>
<!-- Node1 -->
<g id="node1" class="node"><title>Node1</title>
<polygon fill="#bfbfbf" stroke="black" points="1321.5,-168.5 1321.5,-187.5 1476.5,-187.5 1476.5,-168.5 1321.5,-168.5"/>
<text text-anchor="middle" x="1399" y="-175.5" font-family="Helvetica,sans-Serif" font-size="10.00">src/MPD/AbstractClientUser.hh</text>
</g>
<!-- Node2 -->
<g id="node3" class="node"><title>Node2</title>
<a xlink:href="Database_8hh.html" target="_top" xlink:title="src/Browser/Database/Database.hh">
<polygon fill="white" stroke="black" points="-0.5,-112.5 -0.5,-131.5 172.5,-131.5 172.5,-112.5 -0.5,-112.5"/>
<text text-anchor="middle" x="86" y="-119.5" font-family="Helvetica,sans-Serif" font-size="10.00">src/Browser/Database/Database.hh</text>
</a>
</g>
<!-- Node1&#45;&gt;Node2 -->
<g id="edge2" class="edge"><title>Node1&#45;&gt;Node2</title>
<path fill="none" stroke="midnightblue" d="M1311.08,-175.486C1110.52,-171.652 603.858,-159.818 181,-132 178.272,-131.821 175.502,-131.627 172.705,-131.421"/>
<polygon fill="midnightblue" stroke="midnightblue" points="1311.2,-178.988 1321.26,-175.678 1311.33,-171.99 1311.2,-178.988"/>
</g>
<!-- Node3 -->
<g id="node5" class="node"><title>Node3</title>
<a xlink:href="DatabaseCache_8hh.html" target="_top" xlink:title="src/Browser/Database/DatabaseCache.hh">
<polygon fill="white" stroke="black" points="190.5,-112.5 190.5,-131.5 391.5,-131.5 391.5,-112.5 190.5,-112.5"/>
<text text-anchor="middle" x="291" y="-119.5" font-family="Helvetica,sans-Serif" font-size="10.00">src/Browser/Database/DatabaseCache.hh</text>
</a>
</g>
<!-- Node1&#45;&gt;Node3 -->
<g id="edge4" class="edge"><title>Node1&#45;&gt;Node3</title>
<path fill="none" stroke="midnightblue" d="M1311.19,-174.12C1137.33,-168.18 737.028,-153.315 401,-132 397.94,-131.806 394.834,-131.601 391.697,-131.387"/>
<polygon fill="midnightblue" stroke="midnightblue" points="1311.19,-177.623 1321.31,-174.465 1311.43,-170.627 1311.19,-177.623"/>
</g>
<!-- Node4 -->
<g id="node7" class="node"><title>Node4</title>
<a xlink:href="PlaylistManager_8hh.html" target="_top" xlink:title="src/Browser/PlaylistManager/PlaylistManager.hh">
<polygon fill="white" stroke="black" points="410,-112.5 410,-131.5 638,-131.5 638,-112.5 410,-112.5"/>
<text text-anchor="middle" x="524" y="-119.5" font-family="Helvetica,sans-Serif" font-size="10.00">src/Browser/PlaylistManager/PlaylistManager.hh</text>
</a>
</g>
<!-- Node1&#45;&gt;Node4 -->
<g id="edge6" class="edge"><title>Node1&#45;&gt;Node4</title>
<path fill="none" stroke="midnightblue" d="M1311.03,-172.116C1170.61,-164.233 887.148,-147.97 647,-132 644.116,-131.808 641.194,-131.612 638.246,-131.411"/>
<polygon fill="midnightblue" stroke="midnightblue" points="1311.12,-175.626 1321.3,-172.691 1311.52,-168.637 1311.12,-175.626"/>
</g>
<!-- Node5 -->
<g id="node9" class="node"><title>Node5</title>
<a xlink:href="PlaylistAddDialog_8hh.html" target="_top" xlink:title="src/Browser/Queue/PlaylistAddDialog.hh">
<polygon fill="white" stroke="black" points="656,-112.5 656,-131.5 850,-131.5 850,-112.5 656,-112.5"/>
<text text-anchor="middle" x="753" y="-119.5" font-family="Helvetica,sans-Serif" font-size="10.00">src/Browser/Queue/PlaylistAddDialog.hh</text>
</a>
</g>
<!-- Node1&#45;&gt;Node5 -->
<g id="edge8" class="edge"><title>Node1&#45;&gt;Node5</title>
<path fill="none" stroke="midnightblue" d="M1311.12,-169.654C1190.76,-159.593 975.343,-141.586 850.259,-131.13"/>
<polygon fill="midnightblue" stroke="midnightblue" points="1311.14,-173.168 1321.4,-170.513 1311.72,-166.192 1311.14,-173.168"/>
</g>
<!-- Node6 -->
<g id="node11" class="node"><title>Node6</title>
<a xlink:href="Queue_8hh.html" target="_top" xlink:title="src/Browser/Queue/Queue.hh">
<polygon fill="white" stroke="black" points="682,-56.5 682,-75.5 828,-75.5 828,-56.5 682,-56.5"/>
<text text-anchor="middle" x="755" y="-63.5" font-family="Helvetica,sans-Serif" font-size="10.00">src/Browser/Queue/Queue.hh</text>
</a>
</g>
<!-- Node1&#45;&gt;Node6 -->
<g id="edge12" class="edge"><title>Node1&#45;&gt;Node6</title>
<path fill="none" stroke="midnightblue" d="M1310.93,-173.164C1188.2,-167.125 972.318,-153.791 897,-132 878.288,-126.586 875.6,-120.348 858,-112 829.79,-98.6199 796.608,-84.3868 775.689,-75.5936"/>
<polygon fill="midnightblue" stroke="midnightblue" points="1310.89,-176.667 1321.05,-173.656 1311.23,-169.675 1310.89,-176.667"/>
</g>
<!-- Node7 -->
<g id="node14" class="node"><title>Node7</title>
<a xlink:href="QueueMerger_8hh.html" target="_top" xlink:title="src/Browser/Queue/QueueMerger.hh">
<polygon fill="white" stroke="black" points="906,-112.5 906,-131.5 1082,-131.5 1082,-112.5 906,-112.5"/>
<text text-anchor="middle" x="994" y="-119.5" font-family="Helvetica,sans-Serif" font-size="10.00">src/Browser/Queue/QueueMerger.hh</text>
</a>
</g>
<!-- Node1&#45;&gt;Node7 -->
<g id="edge14" class="edge"><title>Node1&#45;&gt;Node7</title>
<path fill="none" stroke="midnightblue" d="M1324.78,-167.105C1248.31,-156.907 1130.32,-141.177 1057.87,-131.516"/>
<polygon fill="midnightblue" stroke="midnightblue" points="1324.45,-170.591 1334.83,-168.444 1325.38,-163.653 1324.45,-170.591"/>
</g>
<!-- Node8 -->
<g id="node17" class="node"><title>Node8</title>
<a xlink:href="SettingsPlayback_8hh.html" target="_top" xlink:title="src/Browser/Settings/SettingsPlayback.hh">
<polygon fill="white" stroke="black" points="846.5,-56.5 846.5,-75.5 1047.5,-75.5 1047.5,-56.5 846.5,-56.5"/>
<text text-anchor="middle" x="947" y="-63.5" font-family="Helvetica,sans-Serif" font-size="10.00">src/Browser/Settings/SettingsPlayback.hh</text>
</a>
</g>
<!-- Node1&#45;&gt;Node8 -->
<g id="edge18" class="edge"><title>Node1&#45;&gt;Node8</title>
<path fill="none" stroke="midnightblue" d="M1311.08,-169.284C1257.48,-162.888 1188.13,-151.561 1129,-132 1110.51,-125.882 1108.02,-119.394 1090,-112 1053.04,-96.8347 1008.99,-83.677 979.641,-75.5717"/>
<polygon fill="midnightblue" stroke="midnightblue" points="1310.91,-172.787 1321.25,-170.461 1311.72,-165.834 1310.91,-172.787"/>
</g>
<!-- Node10 -->
<g id="node21" class="node"><title>Node10</title>
<a xlink:href="Trayicon_8hh.html" target="_top" xlink:title="src/GManager/Trayicon.hh">
<polygon fill="white" stroke="black" points="1138,-112.5 1138,-131.5 1270,-131.5 1270,-112.5 1138,-112.5"/>
<text text-anchor="middle" x="1204" y="-119.5" font-family="Helvetica,sans-Serif" font-size="10.00">src/GManager/Trayicon.hh</text>
</a>
</g>
<!-- Node1&#45;&gt;Node10 -->
<g id="edge22" class="edge"><title>Node1&#45;&gt;Node10</title>
<path fill="none" stroke="midnightblue" d="M1358.19,-165.699C1321.39,-155.507 1268.07,-140.743 1234.75,-131.516"/>
<polygon fill="midnightblue" stroke="midnightblue" points="1357.53,-169.148 1368.1,-168.444 1359.4,-162.402 1357.53,-169.148"/>
</g>
<!-- Node12 -->
<g id="node27" class="node"><title>Node12</title>
<a xlink:href="SettingsOutputs_8hh.html" target="_top" xlink:title="src/Browser/Settings/SettingsOutputs.hh">
<polygon fill="white" stroke="black" points="1315.5,-56.5 1315.5,-75.5 1510.5,-75.5 1510.5,-56.5 1315.5,-56.5"/>
<text text-anchor="middle" x="1413" y="-63.5" font-family="Helvetica,sans-Serif" font-size="10.00">src/Browser/Settings/SettingsOutputs.hh</text>
</a>
</g>
<!-- Node1&#45;&gt;Node12 -->
<g id="edge30" class="edge"><title>Node1&#45;&gt;Node12</title>
<path fill="none" stroke="midnightblue" d="M1361.35,-164.788C1333.35,-153.538 1302.31,-135.108 1317,-112 1329.05,-93.0484 1351.41,-81.94 1371.53,-75.5034"/>
<polygon fill="midnightblue" stroke="midnightblue" points="1360.46,-168.193 1371.05,-168.464 1362.94,-161.648 1360.46,-168.193"/>
</g>
<!-- Node13 -->
<g id="node30" class="node"><title>Node13</title>
<a xlink:href="BrowserList_8hh.html" target="_top" xlink:title="src/GManager/BrowserList.hh">
<polygon fill="white" stroke="black" points="1326,-112.5 1326,-131.5 1472,-131.5 1472,-112.5 1326,-112.5"/>
<text text-anchor="middle" x="1399" y="-119.5" font-family="Helvetica,sans-Serif" font-size="10.00">src/GManager/BrowserList.hh</text>
</a>
</g>
<!-- Node1&#45;&gt;Node13 -->
<g id="edge34" class="edge"><title>Node1&#45;&gt;Node13</title>
<path fill="none" stroke="midnightblue" d="M1399,-157.805C1399,-148.91 1399,-138.78 1399,-131.751"/>
<polygon fill="midnightblue" stroke="midnightblue" points="1395.5,-158.083 1399,-168.083 1402.5,-158.083 1395.5,-158.083"/>
</g>
<!-- Node14 -->
<g id="node32" class="node"><title>Node14</title>
<a xlink:href="Heartbeat_8hh.html" target="_top" xlink:title="src/GManager/Heartbeat.hh">
<polygon fill="white" stroke="black" points="1528.5,-112.5 1528.5,-131.5 1665.5,-131.5 1665.5,-112.5 1528.5,-112.5"/>
<text text-anchor="middle" x="1597" y="-119.5" font-family="Helvetica,sans-Serif" font-size="10.00">src/GManager/Heartbeat.hh</text>
</a>
</g>
<!-- Node1&#45;&gt;Node14 -->
<g id="edge36" class="edge"><title>Node1&#45;&gt;Node14</title>
<path fill="none" stroke="midnightblue" d="M1440.44,-165.699C1477.81,-155.507 1531.94,-140.743 1565.77,-131.516"/>
<polygon fill="midnightblue" stroke="midnightblue" points="1439.1,-162.436 1430.37,-168.444 1440.94,-169.189 1439.1,-162.436"/>
</g>
<!-- Node15 -->
<g id="node34" class="node"><title>Node15</title>
<a xlink:href="Statusbar_8hh.html" target="_top" xlink:title="src/GManager/Statusbar.hh">
<polygon fill="white" stroke="black" points="1528.5,-56.5 1528.5,-75.5 1665.5,-75.5 1665.5,-56.5 1528.5,-56.5"/>
<text text-anchor="middle" x="1597" y="-63.5" font-family="Helvetica,sans-Serif" font-size="10.00">src/GManager/Statusbar.hh</text>
</a>
</g>
<!-- Node1&#45;&gt;Node15 -->
<g id="edge48" class="edge"><title>Node1&#45;&gt;Node15</title>
<path fill="none" stroke="midnightblue" d="M1423.64,-163.553C1439.94,-154.639 1461.77,-142.665 1481,-132 1517.14,-111.96 1559.45,-88.1657 1581.64,-75.665"/>
<polygon fill="midnightblue" stroke="midnightblue" points="1421.84,-160.547 1414.74,-168.414 1425.2,-166.69 1421.84,-160.547"/>
</g>
<!-- Node16 -->
<g id="node36" class="node"><title>Node16</title>
<a xlink:href="Timeslide_8hh.html" target="_top" xlink:title="src/GManager/Timeslide.hh">
<polygon fill="white" stroke="black" points="1683.5,-56.5 1683.5,-75.5 1820.5,-75.5 1820.5,-56.5 1683.5,-56.5"/>
<text text-anchor="middle" x="1752" y="-63.5" font-family="Helvetica,sans-Serif" font-size="10.00">src/GManager/Timeslide.hh</text>
</a>
</g>
<!-- Node1&#45;&gt;Node16 -->
<g id="edge52" class="edge"><title>Node1&#45;&gt;Node16</title>
<path fill="none" stroke="midnightblue" d="M1486.77,-174.424C1542.54,-169.987 1615.07,-158.917 1674,-132 1703.82,-118.378 1731.49,-90.2373 1744.38,-75.8665"/>
<polygon fill="midnightblue" stroke="midnightblue" points="1486.27,-170.951 1476.56,-175.177 1486.79,-177.932 1486.27,-170.951"/>
</g>
<!-- Node17 -->
<g id="node38" class="node"><title>Node17</title>
<a xlink:href="MenuList_8hh.html" target="_top" xlink:title="src/GManager/MenuList.hh">
<polygon fill="white" stroke="black" points="1722,-112.5 1722,-131.5 1856,-131.5 1856,-112.5 1722,-112.5"/>
<text text-anchor="middle" x="1789" y="-119.5" font-family="Helvetica,sans-Serif" font-size="10.00">src/GManager/MenuList.hh</text>
</a>
</g>
<!-- Node1&#45;&gt;Node17 -->
<g id="edge42" class="edge"><title>Node1&#45;&gt;Node17</title>
<path fill="none" stroke="midnightblue" d="M1470.92,-167.042C1544.58,-156.843 1657.87,-141.157 1727.49,-131.516"/>
<polygon fill="midnightblue" stroke="midnightblue" points="1470.22,-163.605 1460.8,-168.444 1471.18,-170.539 1470.22,-163.605"/>
</g>
<!-- Node18 -->
<g id="node40" class="node"><title>Node18</title>
<a xlink:href="NotifyManager_8hh.html" target="_top" xlink:title="src/GManager/NotifyManager.hh">
<polygon fill="white" stroke="black" points="1874,-112.5 1874,-131.5 2032,-131.5 2032,-112.5 1874,-112.5"/>
<text text-anchor="middle" x="1953" y="-119.5" font-family="Helvetica,sans-Serif" font-size="10.00">src/GManager/NotifyManager.hh</text>
</a>
</g>
<!-- Node1&#45;&gt;Node18 -->
<g id="edge44" class="edge"><title>Node1&#45;&gt;Node18</title>
<path fill="none" stroke="midnightblue" d="M1486.52,-168.697C1580.18,-159.777 1733.12,-145.112 1865,-132 1867.9,-131.711 1870.86,-131.416 1873.85,-131.116"/>
<polygon fill="midnightblue" stroke="midnightblue" points="1486.14,-165.217 1476.52,-169.649 1486.81,-172.186 1486.14,-165.217"/>
</g>
<!-- Node19 -->
<g id="node42" class="node"><title>Node19</title>
<a xlink:href="PlaybackButtons_8hh.html" target="_top" xlink:title="src/GManager/PlaybackButtons.hh">
<polygon fill="white" stroke="black" points="2049.5,-112.5 2049.5,-131.5 2218.5,-131.5 2218.5,-112.5 2049.5,-112.5"/>
<text text-anchor="middle" x="2134" y="-119.5" font-family="Helvetica,sans-Serif" font-size="10.00">src/GManager/PlaybackButtons.hh</text>
</a>
</g>
<!-- Node1&#45;&gt;Node19 -->
<g id="edge46" class="edge"><title>Node1&#45;&gt;Node19</title>
<path fill="none" stroke="midnightblue" d="M1486.66,-171.553C1610.16,-163.717 1842.38,-148.395 2040,-132 2043.1,-131.742 2046.27,-131.474 2049.46,-131.196"/>
<polygon fill="midnightblue" stroke="midnightblue" points="1486.26,-168.071 1476.5,-172.196 1486.71,-175.057 1486.26,-168.071"/>
</g>
<!-- Node20 -->
<g id="node45" class="node"><title>Node20</title>
<a xlink:href="StatusIcons_8hh.html" target="_top" xlink:title="src/GManager/StatusIcons.hh">
<polygon fill="white" stroke="black" points="2236.5,-112.5 2236.5,-131.5 2383.5,-131.5 2383.5,-112.5 2236.5,-112.5"/>
<text text-anchor="middle" x="2310" y="-119.5" font-family="Helvetica,sans-Serif" font-size="10.00">src/GManager/StatusIcons.hh</text>
</a>
</g>
<!-- Node1&#45;&gt;Node20 -->
<g id="edge50" class="edge"><title>Node1&#45;&gt;Node20</title>
<path fill="none" stroke="midnightblue" d="M1486.88,-173.776C1638.21,-167.878 1957.69,-153.903 2227,-132 2230.03,-131.753 2233.13,-131.486 2236.25,-131.204"/>
<polygon fill="midnightblue" stroke="midnightblue" points="1486.58,-170.285 1476.72,-174.17 1486.85,-177.28 1486.58,-170.285"/>
</g>
<!-- Node21 -->
<g id="node48" class="node"><title>Node21</title>
<a xlink:href="TitleLabel_8hh.html" target="_top" xlink:title="src/GManager/TitleLabel.hh">
<polygon fill="white" stroke="black" points="2401.5,-112.5 2401.5,-131.5 2538.5,-131.5 2538.5,-112.5 2401.5,-112.5"/>
<text text-anchor="middle" x="2470" y="-119.5" font-family="Helvetica,sans-Serif" font-size="10.00">src/GManager/TitleLabel.hh</text>
</a>
</g>
<!-- Node1&#45;&gt;Node21 -->
<g id="edge54" class="edge"><title>Node1&#45;&gt;Node21</title>
<path fill="none" stroke="midnightblue" d="M1486.77,-175.073C1660.05,-170.816 2058.26,-158.783 2392,-132 2394.99,-131.76 2398.04,-131.495 2401.12,-131.211"/>
<polygon fill="midnightblue" stroke="midnightblue" points="1486.6,-171.577 1476.69,-175.319 1486.77,-178.574 1486.6,-171.577"/>
</g>
<!-- Node22 -->
<g id="node50" class="node"><title>Node22</title>
<a xlink:href="Volumebutton_8hh.html" target="_top" xlink:title="src/GManager/Volumebutton.hh">
<polygon fill="white" stroke="black" points="2556.5,-112.5 2556.5,-131.5 2711.5,-131.5 2711.5,-112.5 2556.5,-112.5"/>
<text text-anchor="middle" x="2634" y="-119.5" font-family="Helvetica,sans-Serif" font-size="10.00">src/GManager/Volumebutton.hh</text>
</a>
</g>
<!-- Node1&#45;&gt;Node22 -->
<g id="edge56" class="edge"><title>Node1&#45;&gt;Node22</title>
<path fill="none" stroke="midnightblue" d="M1486.75,-175.472C1679.04,-171.704 2151.93,-160.149 2547,-132 2550.03,-131.784 2553.12,-131.547 2556.23,-131.293"/>
<polygon fill="midnightblue" stroke="midnightblue" points="1486.63,-171.974 1476.7,-175.667 1486.77,-178.972 1486.63,-171.974"/>
</g>
<!-- Node5&#45;&gt;Node6 -->
<g id="edge10" class="edge"><title>Node5&#45;&gt;Node6</title>
<path fill="none" stroke="midnightblue" d="M753.711,-101.805C754.04,-92.9102 754.416,-82.7798 754.676,-75.7511"/>
<polygon fill="midnightblue" stroke="midnightblue" points="750.203,-101.96 753.33,-112.083 757.198,-102.219 750.203,-101.96"/>
</g>
<!-- Node7&#45;&gt;Node6 -->
<g id="edge16" class="edge"><title>Node7&#45;&gt;Node6</title>
<path fill="none" stroke="midnightblue" d="M946.276,-110.217C901.115,-100.013 834.227,-84.9006 792.693,-75.5164"/>
<polygon fill="midnightblue" stroke="midnightblue" points="945.604,-113.654 956.13,-112.444 947.147,-106.826 945.604,-113.654"/>
</g>
<!-- Node9 -->
<g id="node19" class="node"><title>Node9</title>
<a xlink:href="Settings_8hh.html" target="_top" xlink:title="src/Browser/Settings/Settings.hh">
<polygon fill="white" stroke="black" points="1057.5,-0.5 1057.5,-19.5 1218.5,-19.5 1218.5,-0.5 1057.5,-0.5"/>
<text text-anchor="middle" x="1138" y="-7.5" font-family="Helvetica,sans-Serif" font-size="10.00">src/Browser/Settings/Settings.hh</text>
</a>
</g>
<!-- Node8&#45;&gt;Node9 -->
<g id="edge20" class="edge"><title>Node8&#45;&gt;Node9</title>
<path fill="none" stroke="midnightblue" d="M986.973,-53.6986C1023.02,-43.507 1075.24,-28.7429 1107.88,-19.5164"/>
<polygon fill="midnightblue" stroke="midnightblue" points="985.935,-50.3549 977.265,-56.4435 987.84,-57.0909 985.935,-50.3549"/>
</g>
<!-- Node10&#45;&gt;Node9 -->
<g id="edge28" class="edge"><title>Node10&#45;&gt;Node9</title>
<path fill="none" stroke="midnightblue" d="M1142.18,-109.34C1123.91,-102.704 1105.91,-92.3014 1095,-76 1081.53,-55.87 1107.92,-32.1116 1125.01,-19.6406"/>
<polygon fill="midnightblue" stroke="midnightblue" points="1141.13,-112.678 1151.72,-112.478 1143.32,-106.028 1141.13,-112.678"/>
</g>
<!-- Node11 -->
<g id="node23" class="node"><title>Node11</title>
<a xlink:href="SettingsGeneral_8hh.html" target="_top" xlink:title="src/Browser/Settings/SettingsGeneral.hh">
<polygon fill="white" stroke="black" points="1104,-56.5 1104,-75.5 1298,-75.5 1298,-56.5 1104,-56.5"/>
<text text-anchor="middle" x="1201" y="-63.5" font-family="Helvetica,sans-Serif" font-size="10.00">src/Browser/Settings/SettingsGeneral.hh</text>
</a>
</g>
<!-- Node10&#45;&gt;Node11 -->
<g id="edge24" class="edge"><title>Node10&#45;&gt;Node11</title>
<path fill="none" stroke="midnightblue" d="M1202.93,-101.805C1202.44,-92.9102 1201.88,-82.7798 1201.49,-75.7511"/>
<polygon fill="midnightblue" stroke="midnightblue" points="1199.46,-102.293 1203.5,-112.083 1206.44,-101.904 1199.46,-102.293"/>
</g>
<!-- Node11&#45;&gt;Node9 -->
<g id="edge26" class="edge"><title>Node11&#45;&gt;Node9</title>
<path fill="none" stroke="midnightblue" d="M1182.96,-49.5372C1171.73,-39.9087 1157.68,-27.8694 1148.31,-19.8339"/>
<polygon fill="midnightblue" stroke="midnightblue" points="1181.01,-52.4734 1190.88,-56.324 1185.56,-47.1586 1181.01,-52.4734"/>
</g>
<!-- Node12&#45;&gt;Node9 -->
<g id="edge32" class="edge"><title>Node12&#45;&gt;Node9</title>
<path fill="none" stroke="midnightblue" d="M1359.39,-54.4734C1307.42,-44.2678 1229.56,-28.9794 1181.37,-19.5164"/>
<polygon fill="midnightblue" stroke="midnightblue" points="1358.94,-57.951 1369.43,-56.4435 1360.29,-51.0822 1358.94,-57.951"/>
</g>
<!-- Node14&#45;&gt;Node15 -->
<g id="edge38" class="edge"><title>Node14&#45;&gt;Node15</title>
<path fill="none" stroke="midnightblue" d="M1597,-101.805C1597,-92.9102 1597,-82.7798 1597,-75.7511"/>
<polygon fill="midnightblue" stroke="midnightblue" points="1593.5,-102.083 1597,-112.083 1600.5,-102.083 1593.5,-102.083"/>
</g>
<!-- Node14&#45;&gt;Node16 -->
<g id="edge40" class="edge"><title>Node14&#45;&gt;Node16</title>
<path fill="none" stroke="midnightblue" d="M1631.33,-109.039C1660.5,-98.8786 1701.64,-84.5457 1727.55,-75.5164"/>
<polygon fill="midnightblue" stroke="midnightblue" points="1629.85,-105.848 1621.56,-112.444 1632.16,-112.459 1629.85,-105.848"/>
</g>
</g>
</svg>
