<?xml version="1.0" encoding="UTF-8" standalone="no"?>
<!DOCTYPE svg PUBLIC "-//W3C//DTD SVG 1.1//EN"
 "http://www.w3.org/Graphics/SVG/1.1/DTD/svg11.dtd">
<!-- Generated by graphviz version 2.28.0 (20111204.1018)
 -->
<!-- Title: G Pages: 1 -->
<svg width="3182pt" height="364pt"
 viewBox="0.00 0.00 3182.14 364.00" xmlns="http://www.w3.org/2000/svg" xmlns:xlink="http://www.w3.org/1999/xlink">
<g id="graph1" class="graph" transform="scale(1 1) rotate(0) translate(4 360)">
<title>G</title>
<polygon fill="white" stroke="white" points="-4,5 -4,-360 3179.14,-360 3179.14,5 -4,5"/>
<!-- Node1 -->
<g id="node1" class="node"><title>Node1</title>
<polygon fill="#bfbfbf" stroke="black" points="2520.5,-336.5 2520.5,-355.5 2661.5,-355.5 2661.5,-336.5 2520.5,-336.5"/>
<text text-anchor="middle" x="2591" y="-343.5" font-family="Helvetica,sans-Serif" font-size="10.00">src/MPD/AbstractItemlist.hh</text>
</g>
<!-- Node2 -->
<g id="node3" class="node"><title>Node2</title>
<a xlink:href="Database_8hh.html" target="_top" xlink:title="src/Browser/Database/Database.hh">
<polygon fill="white" stroke="black" points="-0.5,-112.5 -0.5,-131.5 172.5,-131.5 172.5,-112.5 -0.5,-112.5"/>
<text text-anchor="middle" x="86" y="-119.5" font-family="Helvetica,sans-Serif" font-size="10.00">src/Browser/Database/Database.hh</text>
</a>
</g>
<!-- Node1&#45;&gt;Node2 -->
<g id="edge2" class="edge"><title>Node1&#45;&gt;Node2</title>
<path fill="none" stroke="midnightblue" d="M2510.26,-344.503C2291.83,-342.72 1671.01,-334.734 1156,-300 915.26,-283.764 855.052,-276.766 616,-244 469.483,-223.917 431.641,-223.183 288,-188 221.981,-171.829 146.201,-145.205 109.02,-131.595"/>
<polygon fill="midnightblue" stroke="midnightblue" points="2510.33,-348.004 2520.36,-344.584 2510.39,-341.004 2510.33,-348.004"/>
</g>
<!-- Node3 -->
<g id="node5" class="node"><title>Node3</title>
<a xlink:href="AbstractItemGenerator_8hh.html" target="_top" xlink:title="src/MPD/AbstractItemGenerator.hh">
<polygon fill="white" stroke="black" points="1981.5,-280.5 1981.5,-299.5 2152.5,-299.5 2152.5,-280.5 1981.5,-280.5"/>
<text text-anchor="middle" x="2067" y="-287.5" font-family="Helvetica,sans-Serif" font-size="10.00">src/MPD/AbstractItemGenerator.hh</text>
</a>
</g>
<!-- Node1&#45;&gt;Node3 -->
<g id="edge4" class="edge"><title>Node1&#45;&gt;Node3</title>
<path fill="none" stroke="midnightblue" d="M2510.2,-336.674C2412.42,-326.597 2248.63,-309.718 2149.91,-299.544"/>
<polygon fill="midnightblue" stroke="midnightblue" points="2510.02,-340.174 2520.33,-337.717 2510.74,-333.211 2510.02,-340.174"/>
</g>
<!-- Node6 -->
<g id="node12" class="node"><title>Node6</title>
<a xlink:href="DatabaseCache_8hh.html" target="_top" xlink:title="src/Browser/Database/DatabaseCache.hh">
<polygon fill="white" stroke="black" points="2697.5,-112.5 2697.5,-131.5 2898.5,-131.5 2898.5,-112.5 2697.5,-112.5"/>
<text text-anchor="middle" x="2798" y="-119.5" font-family="Helvetica,sans-Serif" font-size="10.00">src/Browser/Database/DatabaseCache.hh</text>
</a>
</g>
<!-- Node1&#45;&gt;Node6 -->
<g id="edge98" class="edge"><title>Node1&#45;&gt;Node6</title>
<path fill="none" stroke="midnightblue" d="M2606.08,-328.829C2646.86,-285.09 2758.39,-165.482 2789.72,-131.884"/>
<polygon fill="midnightblue" stroke="midnightblue" points="2603.37,-326.597 2599.11,-336.297 2608.49,-331.37 2603.37,-326.597"/>
</g>
<!-- Node7 -->
<g id="node14" class="node"><title>Node7</title>
<a xlink:href="PlaylistManager_8hh.html" target="_top" xlink:title="src/Browser/PlaylistManager/PlaylistManager.hh">
<polygon fill="white" stroke="black" points="2917,-112.5 2917,-131.5 3145,-131.5 3145,-112.5 2917,-112.5"/>
<text text-anchor="middle" x="3031" y="-119.5" font-family="Helvetica,sans-Serif" font-size="10.00">src/Browser/PlaylistManager/PlaylistManager.hh</text>
</a>
</g>
<!-- Node1&#45;&gt;Node7 -->
<g id="edge100" class="edge"><title>Node1&#45;&gt;Node7</title>
<path fill="none" stroke="midnightblue" d="M2617.05,-331.857C2698.39,-290.815 2946.27,-165.75 3013.83,-131.661"/>
<polygon fill="midnightblue" stroke="midnightblue" points="2615.33,-328.804 2607.98,-336.433 2618.48,-335.054 2615.33,-328.804"/>
</g>
<!-- Node9 -->
<g id="node18" class="node"><title>Node9</title>
<a xlink:href="Queue_8hh.html" target="_top" xlink:title="src/Browser/Queue/Queue.hh">
<polygon fill="white" stroke="black" points="2315,-56.5 2315,-75.5 2461,-75.5 2461,-56.5 2315,-56.5"/>
<text text-anchor="middle" x="2388" y="-63.5" font-family="Helvetica,sans-Serif" font-size="10.00">src/Browser/Queue/Queue.hh</text>
</a>
</g>
<!-- Node1&#45;&gt;Node9 -->
<g id="edge102" class="edge"><title>Node1&#45;&gt;Node9</title>
<path fill="none" stroke="midnightblue" d="M2672.05,-337.997C2832.02,-323.079 3173,-285.374 3173,-235 3173,-235 3173,-235 3173,-177 3173,-146.902 3177.54,-130.75 3154,-112 3100.63,-69.4933 2642.08,-66.2011 2461.06,-66.5815"/>
<polygon fill="midnightblue" stroke="midnightblue" points="2671.42,-334.54 2661.78,-338.946 2672.06,-341.51 2671.42,-334.54"/>
</g>
<!-- Node10 -->
<g id="node21" class="node"><title>Node10</title>
<a xlink:href="QueueMerger_8hh.html" target="_top" xlink:title="src/Browser/Queue/QueueMerger.hh">
<polygon fill="white" stroke="black" points="2503,-112.5 2503,-131.5 2679,-131.5 2679,-112.5 2503,-112.5"/>
<text text-anchor="middle" x="2591" y="-119.5" font-family="Helvetica,sans-Serif" font-size="10.00">src/Browser/Queue/QueueMerger.hh</text>
</a>
</g>
<!-- Node1&#45;&gt;Node10 -->
<g id="edge104" class="edge"><title>Node1&#45;&gt;Node10</title>
<path fill="none" stroke="midnightblue" d="M2591,-326.295C2591,-280.644 2591,-164.854 2591,-131.884"/>
<polygon fill="midnightblue" stroke="midnightblue" points="2587.5,-326.297 2591,-336.297 2594.5,-326.297 2587.5,-326.297"/>
</g>
<!-- Node15 -->
<g id="node34" class="node"><title>Node15</title>
<a xlink:href="SettingsOutputs_8hh.html" target="_top" xlink:title="src/Browser/Settings/SettingsOutputs.hh">
<polygon fill="white" stroke="black" points="190.5,-112.5 190.5,-131.5 385.5,-131.5 385.5,-112.5 190.5,-112.5"/>
<text text-anchor="middle" x="288" y="-119.5" font-family="Helvetica,sans-Serif" font-size="10.00">src/Browser/Settings/SettingsOutputs.hh</text>
</a>
</g>
<!-- Node1&#45;&gt;Node15 -->
<g id="edge106" class="edge"><title>Node1&#45;&gt;Node15</title>
<path fill="none" stroke="midnightblue" d="M2510.14,-343.226C2166.66,-335.066 827.694,-296.77 422,-188 375.048,-175.412 324.79,-146.258 301.403,-131.658"/>
<polygon fill="midnightblue" stroke="midnightblue" points="2510.17,-346.728 2520.25,-343.464 2510.33,-339.73 2510.17,-346.728"/>
</g>
<!-- Node4 -->
<g id="node7" class="node"><title>Node4</title>
<a xlink:href="Client_8hh.html" target="_top" xlink:title="src/MPD/Client.hh">
<polygon fill="white" stroke="black" points="1678,-224.5 1678,-243.5 1776,-243.5 1776,-224.5 1678,-224.5"/>
<text text-anchor="middle" x="1727" y="-231.5" font-family="Helvetica,sans-Serif" font-size="10.00">src/MPD/Client.hh</text>
</a>
</g>
<!-- Node3&#45;&gt;Node4 -->
<g id="edge6" class="edge"><title>Node3&#45;&gt;Node4</title>
<path fill="none" stroke="midnightblue" d="M2002.87,-278.815C1937.04,-268.359 1836,-252.312 1776.21,-242.815"/>
<polygon fill="midnightblue" stroke="midnightblue" points="2002.7,-282.332 2013.13,-280.444 2003.8,-275.418 2002.7,-282.332"/>
</g>
<!-- Node4&#45;&gt;Node2 -->
<g id="edge66" class="edge"><title>Node4&#45;&gt;Node2</title>
<path fill="none" stroke="midnightblue" d="M1667.88,-232.193C1446.75,-228.981 668.406,-215.908 422,-188 310.715,-175.396 181.142,-146.112 120.55,-131.545"/>
<polygon fill="midnightblue" stroke="midnightblue" points="1667.94,-235.694 1677.99,-232.338 1668.04,-228.694 1667.94,-235.694"/>
</g>
<!-- Node5 -->
<g id="node9" class="node"><title>Node5</title>
<a xlink:href="AbstractClientUser_8hh.html" target="_top" xlink:title="src/MPD/AbstractClientUser.hh">
<polygon fill="white" stroke="black" points="1448.5,-168.5 1448.5,-187.5 1603.5,-187.5 1603.5,-168.5 1448.5,-168.5"/>
<text text-anchor="middle" x="1526" y="-175.5" font-family="Helvetica,sans-Serif" font-size="10.00">src/MPD/AbstractClientUser.hh</text>
</a>
</g>
<!-- Node4&#45;&gt;Node5 -->
<g id="edge8" class="edge"><title>Node4&#45;&gt;Node5</title>
<path fill="none" stroke="midnightblue" d="M1685.42,-221.829C1647.47,-211.633 1592.19,-196.782 1557.7,-187.516"/>
<polygon fill="midnightblue" stroke="midnightblue" points="1684.59,-225.229 1695.15,-224.444 1686.4,-218.469 1684.59,-225.229"/>
</g>
<!-- Node4&#45;&gt;Node7 -->
<g id="edge68" class="edge"><title>Node4&#45;&gt;Node7</title>
<path fill="none" stroke="midnightblue" d="M1786.2,-229.645C1902.17,-222.926 2167.38,-206.837 2390,-188 2594.52,-170.694 2835.19,-144.801 2955.1,-131.523"/>
<polygon fill="midnightblue" stroke="midnightblue" points="1785.9,-226.157 1776.12,-230.227 1786.3,-233.145 1785.9,-226.157"/>
</g>
<!-- Node8 -->
<g id="node16" class="node"><title>Node8</title>
<a xlink:href="PlaylistAddDialog_8hh.html" target="_top" xlink:title="src/Browser/Queue/PlaylistAddDialog.hh">
<polygon fill="white" stroke="black" points="2291,-112.5 2291,-131.5 2485,-131.5 2485,-112.5 2291,-112.5"/>
<text text-anchor="middle" x="2388" y="-119.5" font-family="Helvetica,sans-Serif" font-size="10.00">src/Browser/Queue/PlaylistAddDialog.hh</text>
</a>
</g>
<!-- Node4&#45;&gt;Node8 -->
<g id="edge70" class="edge"><title>Node4&#45;&gt;Node8</title>
<path fill="none" stroke="midnightblue" d="M1786.46,-232.646C1936.96,-231.219 2324.26,-224.047 2369,-188 2386.03,-174.28 2388.34,-146.184 2388.33,-131.845"/>
<polygon fill="midnightblue" stroke="midnightblue" points="1786.01,-229.15 1776.04,-232.739 1786.07,-236.149 1786.01,-229.15"/>
</g>
<!-- Node4&#45;&gt;Node9 -->
<g id="edge72" class="edge"><title>Node4&#45;&gt;Node9</title>
<path fill="none" stroke="midnightblue" d="M1786.27,-222.707C1832.67,-214.323 1898.72,-201.671 1956,-188 1987.89,-180.389 1995.01,-175.15 2027,-168 2121.98,-146.774 2150.6,-162.569 2243,-132 2261.49,-125.882 2264.36,-120.256 2282,-112 2310.97,-98.4428 2345.14,-84.254 2366.68,-75.5188"/>
<polygon fill="midnightblue" stroke="midnightblue" points="1785.61,-219.27 1776.39,-224.483 1786.85,-226.16 1785.61,-219.27"/>
</g>
<!-- Node11 -->
<g id="node24" class="node"><title>Node11</title>
<a xlink:href="SettingsPlayback_8hh.html" target="_top" xlink:title="src/Browser/Settings/SettingsPlayback.hh">
<polygon fill="white" stroke="black" points="937.5,-112.5 937.5,-131.5 1138.5,-131.5 1138.5,-112.5 937.5,-112.5"/>
<text text-anchor="middle" x="1038" y="-119.5" font-family="Helvetica,sans-Serif" font-size="10.00">src/Browser/Settings/SettingsPlayback.hh</text>
</a>
</g>
<!-- Node4&#45;&gt;Node11 -->
<g id="edge74" class="edge"><title>Node4&#45;&gt;Node11</title>
<path fill="none" stroke="midnightblue" d="M1667.69,-223.834C1609.45,-214.809 1518.09,-200.589 1439,-188 1313.63,-168.045 1166.31,-144.017 1089.89,-131.509"/>
<polygon fill="midnightblue" stroke="midnightblue" points="1667.39,-227.329 1677.81,-225.401 1668.46,-220.412 1667.39,-227.329"/>
</g>
<!-- Node13 -->
<g id="node28" class="node"><title>Node13</title>
<a xlink:href="Trayicon_8hh.html" target="_top" xlink:title="src/GManager/Trayicon.hh">
<polygon fill="white" stroke="black" points="404,-112.5 404,-131.5 536,-131.5 536,-112.5 404,-112.5"/>
<text text-anchor="middle" x="470" y="-119.5" font-family="Helvetica,sans-Serif" font-size="10.00">src/GManager/Trayicon.hh</text>
</a>
</g>
<!-- Node4&#45;&gt;Node13 -->
<g id="edge76" class="edge"><title>Node4&#45;&gt;Node13</title>
<path fill="none" stroke="midnightblue" d="M1667.74,-232.927C1443.58,-232.353 654.9,-227.516 550,-188 518.516,-176.14 490.13,-146.644 477.271,-131.812"/>
<polygon fill="midnightblue" stroke="midnightblue" points="1667.98,-236.428 1677.98,-232.951 1667.99,-229.428 1667.98,-236.428"/>
</g>
<!-- Node4&#45;&gt;Node15 -->
<g id="edge78" class="edge"><title>Node4&#45;&gt;Node15</title>
<path fill="none" stroke="midnightblue" d="M1667.4,-232.714C1455.5,-231.396 739.161,-224.299 513,-188 437.124,-175.822 350.645,-146.197 310.576,-131.524"/>
<polygon fill="midnightblue" stroke="midnightblue" points="1667.68,-236.215 1677.7,-232.776 1667.72,-229.215 1667.68,-236.215"/>
</g>
<!-- Node17 -->
<g id="node39" class="node"><title>Node17</title>
<a xlink:href="Heartbeat_8hh.html" target="_top" xlink:title="src/GManager/Heartbeat.hh">
<polygon fill="white" stroke="black" points="782.5,-112.5 782.5,-131.5 919.5,-131.5 919.5,-112.5 782.5,-112.5"/>
<text text-anchor="middle" x="851" y="-119.5" font-family="Helvetica,sans-Serif" font-size="10.00">src/GManager/Heartbeat.hh</text>
</a>
</g>
<!-- Node4&#45;&gt;Node17 -->
<g id="edge82" class="edge"><title>Node4&#45;&gt;Node17</title>
<path fill="none" stroke="midnightblue" d="M1667.59,-227.11C1587.29,-219.015 1439.69,-203.667 1314,-188 1167.2,-169.703 994.761,-144.514 907.588,-131.52"/>
<polygon fill="midnightblue" stroke="midnightblue" points="1667.69,-230.637 1677.99,-228.156 1668.39,-223.673 1667.69,-230.637"/>
</g>
<!-- Node18 -->
<g id="node41" class="node"><title>Node18</title>
<a xlink:href="Statusbar_8hh.html" target="_top" xlink:title="src/GManager/Statusbar.hh">
<polygon fill="white" stroke="black" points="685.5,-56.5 685.5,-75.5 822.5,-75.5 822.5,-56.5 685.5,-56.5"/>
<text text-anchor="middle" x="754" y="-63.5" font-family="Helvetica,sans-Serif" font-size="10.00">src/GManager/Statusbar.hh</text>
</a>
</g>
<!-- Node4&#45;&gt;Node18 -->
<g id="edge88" class="edge"><title>Node4&#45;&gt;Node18</title>
<path fill="none" stroke="midnightblue" d="M1667.55,-232.441C1442.91,-229.71 654.932,-214.29 583,-132 549.609,-93.8003 624.48,-77.9643 685.499,-71.4562"/>
<polygon fill="midnightblue" stroke="midnightblue" points="1667.77,-235.944 1677.82,-232.562 1667.86,-228.944 1667.77,-235.944"/>
</g>
<!-- Node20 -->
<g id="node45" class="node"><title>Node20</title>
<a xlink:href="MenuList_8hh.html" target="_top" xlink:title="src/GManager/MenuList.hh">
<polygon fill="white" stroke="black" points="592,-112.5 592,-131.5 726,-131.5 726,-112.5 592,-112.5"/>
<text text-anchor="middle" x="659" y="-119.5" font-family="Helvetica,sans-Serif" font-size="10.00">src/GManager/MenuList.hh</text>
</a>
</g>
<!-- Node4&#45;&gt;Node20 -->
<g id="edge84" class="edge"><title>Node4&#45;&gt;Node20</title>
<path fill="none" stroke="midnightblue" d="M1667.66,-229.104C1565.76,-222.214 1350.99,-206.812 1170,-188 1006.55,-171.011 814.475,-144.923 719.075,-131.55"/>
<polygon fill="midnightblue" stroke="midnightblue" points="1667.54,-232.604 1677.75,-229.784 1668.01,-225.62 1667.54,-232.604"/>
</g>
<!-- Node22 -->
<g id="node49" class="node"><title>Node22</title>
<a xlink:href="PlaybackButtons_8hh.html" target="_top" xlink:title="src/GManager/PlaybackButtons.hh">
<polygon fill="white" stroke="black" points="1572.5,-112.5 1572.5,-131.5 1741.5,-131.5 1741.5,-112.5 1572.5,-112.5"/>
<text text-anchor="middle" x="1657" y="-119.5" font-family="Helvetica,sans-Serif" font-size="10.00">src/GManager/PlaybackButtons.hh</text>
</a>
</g>
<!-- Node4&#45;&gt;Node22 -->
<g id="edge86" class="edge"><title>Node4&#45;&gt;Node22</title>
<path fill="none" stroke="midnightblue" d="M1715.95,-215.64C1700.75,-191.744 1673.95,-149.629 1662.47,-131.591"/>
<polygon fill="midnightblue" stroke="midnightblue" points="1713.19,-217.811 1721.51,-224.368 1719.09,-214.053 1713.19,-217.811"/>
</g>
<!-- Node23 -->
<g id="node52" class="node"><title>Node23</title>
<a xlink:href="StatusIcons_8hh.html" target="_top" xlink:title="src/GManager/StatusIcons.hh">
<polygon fill="white" stroke="black" points="1759.5,-112.5 1759.5,-131.5 1906.5,-131.5 1906.5,-112.5 1759.5,-112.5"/>
<text text-anchor="middle" x="1833" y="-119.5" font-family="Helvetica,sans-Serif" font-size="10.00">src/GManager/StatusIcons.hh</text>
</a>
</g>
<!-- Node4&#45;&gt;Node23 -->
<g id="edge90" class="edge"><title>Node4&#45;&gt;Node23</title>
<path fill="none" stroke="midnightblue" d="M1742.52,-216.897C1765.31,-193.249 1807.03,-149.949 1824.72,-131.591"/>
<polygon fill="midnightblue" stroke="midnightblue" points="1739.74,-214.739 1735.32,-224.368 1744.78,-219.596 1739.74,-214.739"/>
</g>
<!-- Node24 -->
<g id="node55" class="node"><title>Node24</title>
<a xlink:href="TitleLabel_8hh.html" target="_top" xlink:title="src/GManager/TitleLabel.hh">
<polygon fill="white" stroke="black" points="1924.5,-112.5 1924.5,-131.5 2061.5,-131.5 2061.5,-112.5 1924.5,-112.5"/>
<text text-anchor="middle" x="1993" y="-119.5" font-family="Helvetica,sans-Serif" font-size="10.00">src/GManager/TitleLabel.hh</text>
</a>
</g>
<!-- Node4&#45;&gt;Node24 -->
<g id="edge92" class="edge"><title>Node4&#45;&gt;Node24</title>
<path fill="none" stroke="midnightblue" d="M1757.36,-220.446C1811.99,-197.855 1925.51,-150.911 1972.22,-131.591"/>
<polygon fill="midnightblue" stroke="midnightblue" points="1755.78,-217.313 1747.87,-224.368 1758.45,-223.781 1755.78,-217.313"/>
</g>
<!-- Node25 -->
<g id="node57" class="node"><title>Node25</title>
<a xlink:href="Volumebutton_8hh.html" target="_top" xlink:title="src/GManager/Volumebutton.hh">
<polygon fill="white" stroke="black" points="2079.5,-112.5 2079.5,-131.5 2234.5,-131.5 2234.5,-112.5 2079.5,-112.5"/>
<text text-anchor="middle" x="2157" y="-119.5" font-family="Helvetica,sans-Serif" font-size="10.00">src/GManager/Volumebutton.hh</text>
</a>
</g>
<!-- Node4&#45;&gt;Node25 -->
<g id="edge94" class="edge"><title>Node4&#45;&gt;Node25</title>
<path fill="none" stroke="midnightblue" d="M1770.33,-221.916C1856.26,-199.934 2046.58,-151.247 2123.64,-131.535"/>
<polygon fill="midnightblue" stroke="midnightblue" points="1769.2,-218.591 1760.38,-224.46 1770.94,-225.372 1769.2,-218.591"/>
</g>
<!-- Node26 -->
<g id="node66" class="node"><title>Node26</title>
<a xlink:href="StatBrowser_8hh.html" target="_top" xlink:title="src/Browser/Statistics/StatBrowser.hh">
<polygon fill="white" stroke="black" points="2036,-168.5 2036,-187.5 2220,-187.5 2220,-168.5 2036,-168.5"/>
<text text-anchor="middle" x="2128" y="-175.5" font-family="Helvetica,sans-Serif" font-size="10.00">src/Browser/Statistics/StatBrowser.hh</text>
</a>
</g>
<!-- Node4&#45;&gt;Node26 -->
<g id="edge80" class="edge"><title>Node4&#45;&gt;Node26</title>
<path fill="none" stroke="midnightblue" d="M1786.32,-225.011C1860.83,-214.978 1988.14,-197.834 2064.54,-187.545"/>
<polygon fill="midnightblue" stroke="midnightblue" points="1785.61,-221.575 1776.17,-226.379 1786.55,-228.513 1785.61,-221.575"/>
</g>
<!-- Node27 -->
<g id="node75" class="node"><title>Node27</title>
<a xlink:href="check__mpd_8hh.html" target="_top" xlink:title="src/MPD/check_mpd.hh">
<polygon fill="white" stroke="black" points="2238,-168.5 2238,-187.5 2360,-187.5 2360,-168.5 2238,-168.5"/>
<text text-anchor="middle" x="2299" y="-175.5" font-family="Helvetica,sans-Serif" font-size="10.00">src/MPD/check_mpd.hh</text>
</a>
</g>
<!-- Node4&#45;&gt;Node27 -->
<g id="edge96" class="edge"><title>Node4&#45;&gt;Node27</title>
<path fill="none" stroke="midnightblue" d="M1786.4,-228.42C1880.42,-221.001 2069.28,-205.42 2229,-188 2231.92,-187.681 2234.91,-187.343 2237.93,-186.992"/>
<polygon fill="midnightblue" stroke="midnightblue" points="1785.92,-224.946 1776.23,-229.219 1786.47,-231.924 1785.92,-224.946"/>
</g>
<!-- Node5&#45;&gt;Node2 -->
<g id="edge10" class="edge"><title>Node5&#45;&gt;Node2</title>
<path fill="none" stroke="midnightblue" d="M1437.94,-175.912C1223,-172.851 654.431,-162.317 181,-132 178.272,-131.825 175.501,-131.636 172.704,-131.434"/>
<polygon fill="midnightblue" stroke="midnightblue" points="1438.17,-179.415 1448.22,-176.056 1438.27,-172.416 1438.17,-179.415"/>
</g>
<!-- Node5&#45;&gt;Node6 -->
<g id="edge12" class="edge"><title>Node5&#45;&gt;Node6</title>
<path fill="none" stroke="midnightblue" d="M1613.62,-174.866C1807.3,-169.871 2286.43,-155.992 2687,-132 2690.38,-131.798 2693.81,-131.581 2697.28,-131.353"/>
<polygon fill="midnightblue" stroke="midnightblue" points="1613.41,-171.37 1603.5,-175.125 1613.59,-178.367 1613.41,-171.37"/>
</g>
<!-- Node5&#45;&gt;Node7 -->
<g id="edge14" class="edge"><title>Node5&#45;&gt;Node7</title>
<path fill="none" stroke="midnightblue" d="M1613.66,-175.357C1832.16,-170.996 2418.58,-157.672 2907,-132 2910.23,-131.83 2913.51,-131.649 2916.82,-131.459"/>
<polygon fill="midnightblue" stroke="midnightblue" points="1613.46,-171.86 1603.53,-175.557 1613.6,-178.858 1613.46,-171.86"/>
</g>
<!-- Node5&#45;&gt;Node8 -->
<g id="edge16" class="edge"><title>Node5&#45;&gt;Node8</title>
<path fill="none" stroke="midnightblue" d="M1614.06,-171.483C1776.46,-161.31 2121.9,-139.67 2290.86,-129.085"/>
<polygon fill="midnightblue" stroke="midnightblue" points="1613.4,-168.018 1603.64,-172.137 1613.84,-175.004 1613.4,-168.018"/>
</g>
<!-- Node5&#45;&gt;Node9 -->
<g id="edge20" class="edge"><title>Node5&#45;&gt;Node9</title>
<path fill="none" stroke="midnightblue" d="M1531.12,-158.456C1536.41,-143.152 1546.29,-122.333 1563,-112 1626.02,-73.0245 2124.76,-67.6499 2314.8,-67.0266"/>
<polygon fill="midnightblue" stroke="midnightblue" points="1527.66,-157.808 1528.05,-168.396 1534.35,-159.875 1527.66,-157.808"/>
</g>
<!-- Node5&#45;&gt;Node10 -->
<g id="edge22" class="edge"><title>Node5&#45;&gt;Node10</title>
<path fill="none" stroke="midnightblue" d="M1613.93,-174.236C1783.89,-168.599 2169.32,-154.383 2493,-132 2496.24,-131.776 2499.54,-131.536 2502.87,-131.283"/>
<polygon fill="midnightblue" stroke="midnightblue" points="1613.66,-170.743 1603.78,-174.571 1613.89,-177.739 1613.66,-170.743"/>
</g>
<!-- Node5&#45;&gt;Node11 -->
<g id="edge26" class="edge"><title>Node5&#45;&gt;Node11</title>
<path fill="none" stroke="midnightblue" d="M1438.82,-167.353C1346.77,-157.168 1203.07,-141.266 1115.05,-131.526"/>
<polygon fill="midnightblue" stroke="midnightblue" points="1438.62,-170.852 1448.94,-168.473 1439.39,-163.895 1438.62,-170.852"/>
</g>
<!-- Node5&#45;&gt;Node13 -->
<g id="edge30" class="edge"><title>Node5&#45;&gt;Node13</title>
<path fill="none" stroke="midnightblue" d="M1438.13,-173.74C1271.34,-167.346 897.424,-152.018 583,-132 567.779,-131.031 551.417,-129.824 536.001,-128.611"/>
<polygon fill="midnightblue" stroke="midnightblue" points="1438.2,-177.246 1448.33,-174.13 1438.47,-170.251 1438.2,-177.246"/>
</g>
<!-- Node5&#45;&gt;Node15 -->
<g id="edge38" class="edge"><title>Node5&#45;&gt;Node15</title>
<path fill="none" stroke="midnightblue" d="M1438.25,-174.828C1248.03,-169.83 783.551,-156.059 395,-132 391.93,-131.81 388.811,-131.607 385.663,-131.394"/>
<polygon fill="midnightblue" stroke="midnightblue" points="1438.38,-178.332 1448.46,-175.095 1438.56,-171.335 1438.38,-178.332"/>
</g>
<!-- Node16 -->
<g id="node37" class="node"><title>Node16</title>
<a xlink:href="BrowserList_8hh.html" target="_top" xlink:title="src/GManager/BrowserList.hh">
<polygon fill="white" stroke="black" points="1333,-112.5 1333,-131.5 1479,-131.5 1479,-112.5 1333,-112.5"/>
<text text-anchor="middle" x="1406" y="-119.5" font-family="Helvetica,sans-Serif" font-size="10.00">src/GManager/BrowserList.hh</text>
</a>
</g>
<!-- Node5&#45;&gt;Node16 -->
<g id="edge42" class="edge"><title>Node5&#45;&gt;Node16</title>
<path fill="none" stroke="midnightblue" d="M1497.63,-164.232C1475.18,-154.131 1444.46,-140.309 1424.93,-131.516"/>
<polygon fill="midnightblue" stroke="midnightblue" points="1496.43,-167.532 1506.99,-168.444 1499.3,-161.148 1496.43,-167.532"/>
</g>
<!-- Node5&#45;&gt;Node17 -->
<g id="edge44" class="edge"><title>Node5&#45;&gt;Node17</title>
<path fill="none" stroke="midnightblue" d="M1437.72,-171.5C1320.96,-163.963 1108.83,-149.364 928,-132 925.321,-131.743 922.59,-131.471 919.832,-131.188"/>
<polygon fill="midnightblue" stroke="midnightblue" points="1437.82,-175.013 1448.03,-172.162 1438.27,-168.028 1437.82,-175.013"/>
</g>
<!-- Node5&#45;&gt;Node18 -->
<g id="edge56" class="edge"><title>Node5&#45;&gt;Node18</title>
<path fill="none" stroke="midnightblue" d="M1438.11,-177.341C1250.54,-177.277 823.936,-172.608 773,-132 755.901,-118.368 753.619,-90.232 753.65,-75.8643"/>
<polygon fill="midnightblue" stroke="midnightblue" points="1438.21,-180.841 1448.21,-177.34 1438.21,-173.841 1438.21,-180.841"/>
</g>
<!-- Node19 -->
<g id="node43" class="node"><title>Node19</title>
<a xlink:href="Timeslide_8hh.html" target="_top" xlink:title="src/GManager/Timeslide.hh">
<polygon fill="white" stroke="black" points="848.5,-56.5 848.5,-75.5 985.5,-75.5 985.5,-56.5 848.5,-56.5"/>
<text text-anchor="middle" x="917" y="-63.5" font-family="Helvetica,sans-Serif" font-size="10.00">src/GManager/Timeslide.hh</text>
</a>
</g>
<!-- Node5&#45;&gt;Node19 -->
<g id="edge60" class="edge"><title>Node5&#45;&gt;Node19</title>
<path fill="none" stroke="midnightblue" d="M1520.54,-158.544C1514.98,-143.295 1504.75,-122.508 1488,-112 1446.35,-85.8781 1128.33,-73.2612 985.767,-68.8719"/>
<polygon fill="midnightblue" stroke="midnightblue" points="1517.34,-160.034 1523.79,-168.442 1523.99,-157.849 1517.34,-160.034"/>
</g>
<!-- Node5&#45;&gt;Node20 -->
<g id="edge50" class="edge"><title>Node5&#45;&gt;Node20</title>
<path fill="none" stroke="midnightblue" d="M1438.17,-173.506C1292.79,-167.378 993.049,-153.287 740,-132 735.488,-131.62 730.839,-131.195 726.157,-130.742"/>
<polygon fill="midnightblue" stroke="midnightblue" points="1438.23,-177.011 1448.37,-173.933 1438.52,-170.017 1438.23,-177.011"/>
</g>
<!-- Node21 -->
<g id="node47" class="node"><title>Node21</title>
<a xlink:href="NotifyManager_8hh.html" target="_top" xlink:title="src/GManager/NotifyManager.hh">
<polygon fill="white" stroke="black" points="1157,-112.5 1157,-131.5 1315,-131.5 1315,-112.5 1157,-112.5"/>
<text text-anchor="middle" x="1236" y="-119.5" font-family="Helvetica,sans-Serif" font-size="10.00">src/GManager/NotifyManager.hh</text>
</a>
</g>
<!-- Node5&#45;&gt;Node21 -->
<g id="edge52" class="edge"><title>Node5&#45;&gt;Node21</title>
<path fill="none" stroke="midnightblue" d="M1470.15,-166.601C1415.35,-156.395 1332.77,-141.019 1281.74,-131.516"/>
<polygon fill="midnightblue" stroke="midnightblue" points="1469.58,-170.054 1480.05,-168.444 1470.86,-163.172 1469.58,-170.054"/>
</g>
<!-- Node5&#45;&gt;Node22 -->
<g id="edge54" class="edge"><title>Node5&#45;&gt;Node22</title>
<path fill="none" stroke="midnightblue" d="M1556.32,-164.503C1580.88,-154.38 1614.82,-140.388 1636.34,-131.516"/>
<polygon fill="midnightblue" stroke="midnightblue" points="1554.67,-161.397 1546.76,-168.444 1557.34,-167.868 1554.67,-161.397"/>
</g>
<!-- Node5&#45;&gt;Node23 -->
<g id="edge58" class="edge"><title>Node5&#45;&gt;Node23</title>
<path fill="none" stroke="midnightblue" d="M1584.76,-166.664C1642.78,-156.459 1730.45,-141.039 1784.58,-131.516"/>
<polygon fill="midnightblue" stroke="midnightblue" points="1583.89,-163.264 1574.65,-168.444 1585.1,-170.158 1583.89,-163.264"/>
</g>
<!-- Node5&#45;&gt;Node24 -->
<g id="edge62" class="edge"><title>Node5&#45;&gt;Node24</title>
<path fill="none" stroke="midnightblue" d="M1609.89,-167.299C1699.75,-156.91 1840.65,-140.617 1924.21,-130.954"/>
<polygon fill="midnightblue" stroke="midnightblue" points="1609.27,-163.848 1599.74,-168.473 1610.08,-170.801 1609.27,-163.848"/>
</g>
<!-- Node5&#45;&gt;Node25 -->
<g id="edge64" class="edge"><title>Node5&#45;&gt;Node25</title>
<path fill="none" stroke="midnightblue" d="M1613.67,-170.305C1721.23,-161.963 1909.12,-146.974 2070,-132 2073.02,-131.719 2076.11,-131.426 2079.22,-131.126"/>
<polygon fill="midnightblue" stroke="midnightblue" points="1613.22,-166.83 1603.52,-171.091 1613.76,-173.809 1613.22,-166.83"/>
</g>
<!-- Node8&#45;&gt;Node9 -->
<g id="edge18" class="edge"><title>Node8&#45;&gt;Node9</title>
<path fill="none" stroke="midnightblue" d="M2388,-101.805C2388,-92.9102 2388,-82.7798 2388,-75.7511"/>
<polygon fill="midnightblue" stroke="midnightblue" points="2384.5,-102.083 2388,-112.083 2391.5,-102.083 2384.5,-102.083"/>
</g>
<!-- Node10&#45;&gt;Node9 -->
<g id="edge24" class="edge"><title>Node10&#45;&gt;Node9</title>
<path fill="none" stroke="midnightblue" d="M2549.01,-109.829C2510.68,-99.6333 2454.85,-84.7823 2420.02,-75.5164"/>
<polygon fill="midnightblue" stroke="midnightblue" points="2548.27,-113.255 2558.83,-112.444 2550.07,-106.49 2548.27,-113.255"/>
</g>
<!-- Node12 -->
<g id="node26" class="node"><title>Node12</title>
<a xlink:href="Settings_8hh.html" target="_top" xlink:title="src/Browser/Settings/Settings.hh">
<polygon fill="white" stroke="black" points="436.5,-0.5 436.5,-19.5 597.5,-19.5 597.5,-0.5 436.5,-0.5"/>
<text text-anchor="middle" x="517" y="-7.5" font-family="Helvetica,sans-Serif" font-size="10.00">src/Browser/Settings/Settings.hh</text>
</a>
</g>
<!-- Node11&#45;&gt;Node12 -->
<g id="edge28" class="edge"><title>Node11&#45;&gt;Node12</title>
<path fill="none" stroke="midnightblue" d="M1031.04,-102.987C1024.11,-87.7007 1011.91,-66.6106 994,-56 928.968,-17.468 715.847,-10.9664 597.691,-10.4364"/>
<polygon fill="midnightblue" stroke="midnightblue" points="1027.91,-104.571 1035,-112.442 1034.37,-101.866 1027.91,-104.571"/>
</g>
<!-- Node13&#45;&gt;Node12 -->
<g id="edge36" class="edge"><title>Node13&#45;&gt;Node12</title>
<path fill="none" stroke="midnightblue" d="M516.778,-108.85C533.378,-102.042 550.327,-91.652 560,-76 572.733,-55.3975 546.637,-31.8274 529.786,-19.5124"/>
<polygon fill="midnightblue" stroke="midnightblue" points="515.249,-105.685 507.102,-112.458 517.695,-112.244 515.249,-105.685"/>
</g>
<!-- Node14 -->
<g id="node30" class="node"><title>Node14</title>
<a xlink:href="SettingsGeneral_8hh.html" target="_top" xlink:title="src/Browser/Settings/SettingsGeneral.hh">
<polygon fill="white" stroke="black" points="358,-56.5 358,-75.5 552,-75.5 552,-56.5 358,-56.5"/>
<text text-anchor="middle" x="455" y="-63.5" font-family="Helvetica,sans-Serif" font-size="10.00">src/Browser/Settings/SettingsGeneral.hh</text>
</a>
</g>
<!-- Node13&#45;&gt;Node14 -->
<g id="edge32" class="edge"><title>Node13&#45;&gt;Node14</title>
<path fill="none" stroke="midnightblue" d="M464.832,-102.396C462.323,-93.362 459.427,-82.936 457.431,-75.7511"/>
<polygon fill="midnightblue" stroke="midnightblue" points="461.474,-103.385 467.523,-112.083 468.219,-101.511 461.474,-103.385"/>
</g>
<!-- Node14&#45;&gt;Node12 -->
<g id="edge34" class="edge"><title>Node14&#45;&gt;Node12</title>
<path fill="none" stroke="midnightblue" d="M472.754,-49.5372C483.808,-39.9087 497.631,-27.8694 506.857,-19.8339"/>
<polygon fill="midnightblue" stroke="midnightblue" points="470.203,-47.1168 464.961,-56.324 474.801,-52.3954 470.203,-47.1168"/>
</g>
<!-- Node15&#45;&gt;Node12 -->
<g id="edge40" class="edge"><title>Node15&#45;&gt;Node12</title>
<path fill="none" stroke="midnightblue" d="M299.589,-104.105C310.623,-89.2855 328.547,-68.2439 349,-56 380.607,-37.0786 420.243,-25.9716 453.078,-19.5282"/>
<polygon fill="midnightblue" stroke="midnightblue" points="296.629,-102.227 293.649,-112.394 302.319,-106.305 296.629,-102.227"/>
</g>
<!-- Node17&#45;&gt;Node18 -->
<g id="edge46" class="edge"><title>Node17&#45;&gt;Node18</title>
<path fill="none" stroke="midnightblue" d="M826.665,-107.453C808.757,-97.4835 784.946,-84.2279 769.546,-75.6545"/>
<polygon fill="midnightblue" stroke="midnightblue" points="824.975,-110.518 835.415,-112.324 828.38,-104.402 824.975,-110.518"/>
</g>
<!-- Node17&#45;&gt;Node19 -->
<g id="edge48" class="edge"><title>Node17&#45;&gt;Node19</title>
<path fill="none" stroke="midnightblue" d="M869.554,-105.82C881.378,-96.1452 896.286,-83.9481 906.203,-75.8339"/>
<polygon fill="midnightblue" stroke="midnightblue" points="867.127,-103.283 861.604,-112.324 871.56,-108.7 867.127,-103.283"/>
</g>
</g>
</svg>
