<?xml version="1.0" encoding="UTF-8" standalone="no"?>
<!DOCTYPE svg PUBLIC "-//W3C//DTD SVG 1.1//EN"
 "http://www.w3.org/Graphics/SVG/1.1/DTD/svg11.dtd">
<!-- Generated by graphviz version 2.28.0 (20111204.1018)
 -->
<!-- Title: G Pages: 1 -->
<svg width="1310pt" height="84pt"
 viewBox="0.00 0.00 1310.00 84.00" xmlns="http://www.w3.org/2000/svg" xmlns:xlink="http://www.w3.org/1999/xlink">
<g id="graph1" class="graph" transform="scale(1 1) rotate(0) translate(4 80)">
<title>G</title>
<polygon fill="white" stroke="white" points="-4,5 -4,-80 1307,-80 1307,5 -4,5"/>
<!-- Node1 -->
<g id="node1" class="node"><title>Node1</title>
<polygon fill="#bfbfbf" stroke="black" points="604,-56.5 604,-75.5 762,-75.5 762,-56.5 604,-56.5"/>
<text text-anchor="middle" x="683" y="-63.5" font-family="Helvetica,sans-Serif" font-size="10.00">src/Browser/AbstractBrowser.hh</text>
</g>
<!-- Node2 -->
<g id="node3" class="node"><title>Node2</title>
<a xlink:href="Database_8hh.html" target="_top" xlink:title="src/Browser/Database/Database.hh">
<polygon fill="white" stroke="black" points="-0.5,-0.5 -0.5,-19.5 172.5,-19.5 172.5,-0.5 -0.5,-0.5"/>
<text text-anchor="middle" x="86" y="-7.5" font-family="Helvetica,sans-Serif" font-size="10.00">src/Browser/Database/Database.hh</text>
</a>
</g>
<!-- Node1&#45;&gt;Node2 -->
<g id="edge2" class="edge"><title>Node1&#45;&gt;Node2</title>
<path fill="none" stroke="midnightblue" d="M593.768,-57.1382C493.383,-48.2618 325.471,-33.3186 181,-20 178.278,-19.7491 175.512,-19.4931 172.72,-19.2338"/>
<polygon fill="midnightblue" stroke="midnightblue" points="593.599,-60.6367 603.868,-58.0309 594.215,-53.6639 593.599,-60.6367"/>
</g>
<!-- Node3 -->
<g id="node5" class="node"><title>Node3</title>
<a xlink:href="Fortuna_8hh.html" target="_top" xlink:title="src/Browser/Fortuna/Fortuna.hh">
<polygon fill="white" stroke="black" points="190.5,-0.5 190.5,-19.5 345.5,-19.5 345.5,-0.5 190.5,-0.5"/>
<text text-anchor="middle" x="268" y="-7.5" font-family="Helvetica,sans-Serif" font-size="10.00">src/Browser/Fortuna/Fortuna.hh</text>
</a>
</g>
<!-- Node1&#45;&gt;Node3 -->
<g id="edge4" class="edge"><title>Node1&#45;&gt;Node3</title>
<path fill="none" stroke="midnightblue" d="M606.952,-55.1046C528.584,-44.9074 407.69,-29.1766 333.45,-19.5164"/>
<polygon fill="midnightblue" stroke="midnightblue" points="606.874,-58.6239 617.242,-56.4435 607.777,-51.6824 606.874,-58.6239"/>
</g>
<!-- Node4 -->
<g id="node7" class="node"><title>Node4</title>
<a xlink:href="PlaylistManager_8hh.html" target="_top" xlink:title="src/Browser/PlaylistManager/PlaylistManager.hh">
<polygon fill="white" stroke="black" points="364,-0.5 364,-19.5 592,-19.5 592,-0.5 364,-0.5"/>
<text text-anchor="middle" x="478" y="-7.5" font-family="Helvetica,sans-Serif" font-size="10.00">src/Browser/PlaylistManager/PlaylistManager.hh</text>
</a>
</g>
<!-- Node1&#45;&gt;Node4 -->
<g id="edge6" class="edge"><title>Node1&#45;&gt;Node4</title>
<path fill="none" stroke="midnightblue" d="M640.592,-53.8291C601.886,-43.6333 545.507,-28.7823 510.331,-19.5164"/>
<polygon fill="midnightblue" stroke="midnightblue" points="639.955,-57.2808 650.517,-56.4435 641.739,-50.5117 639.955,-57.2808"/>
</g>
<!-- Node5 -->
<g id="node9" class="node"><title>Node5</title>
<a xlink:href="Queue_8hh.html" target="_top" xlink:title="src/Browser/Queue/Queue.hh">
<polygon fill="white" stroke="black" points="610,-0.5 610,-19.5 756,-19.5 756,-0.5 610,-0.5"/>
<text text-anchor="middle" x="683" y="-7.5" font-family="Helvetica,sans-Serif" font-size="10.00">src/Browser/Queue/Queue.hh</text>
</a>
</g>
<!-- Node1&#45;&gt;Node5 -->
<g id="edge8" class="edge"><title>Node1&#45;&gt;Node5</title>
<path fill="none" stroke="midnightblue" d="M683,-45.8045C683,-36.9102 683,-26.7798 683,-19.7511"/>
<polygon fill="midnightblue" stroke="midnightblue" points="679.5,-46.083 683,-56.083 686.5,-46.083 679.5,-46.083"/>
</g>
<!-- Node6 -->
<g id="node11" class="node"><title>Node6</title>
<a xlink:href="Settings_8hh.html" target="_top" xlink:title="src/Browser/Settings/Settings.hh">
<polygon fill="white" stroke="black" points="774.5,-0.5 774.5,-19.5 935.5,-19.5 935.5,-0.5 774.5,-0.5"/>
<text text-anchor="middle" x="855" y="-7.5" font-family="Helvetica,sans-Serif" font-size="10.00">src/Browser/Settings/Settings.hh</text>
</a>
</g>
<!-- Node1&#45;&gt;Node6 -->
<g id="edge10" class="edge"><title>Node1&#45;&gt;Node6</title>
<path fill="none" stroke="midnightblue" d="M719.832,-53.4363C752.262,-43.2551 798.737,-28.664 827.874,-19.5164"/>
<polygon fill="midnightblue" stroke="midnightblue" points="718.746,-50.1088 710.254,-56.4435 720.843,-56.7874 718.746,-50.1088"/>
</g>
<!-- Node7 -->
<g id="node13" class="node"><title>Node7</title>
<a xlink:href="StatBrowser_8hh.html" target="_top" xlink:title="src/Browser/Statistics/StatBrowser.hh">
<polygon fill="white" stroke="black" points="954,-0.5 954,-19.5 1138,-19.5 1138,-0.5 954,-0.5"/>
<text text-anchor="middle" x="1046" y="-7.5" font-family="Helvetica,sans-Serif" font-size="10.00">src/Browser/Statistics/StatBrowser.hh</text>
</a>
</g>
<!-- Node1&#45;&gt;Node7 -->
<g id="edge12" class="edge"><title>Node1&#45;&gt;Node7</title>
<path fill="none" stroke="midnightblue" d="M750.783,-54.9166C819.36,-44.715 924.21,-29.1174 988.751,-19.5164"/>
<polygon fill="midnightblue" stroke="midnightblue" points="749.895,-51.5101 740.518,-56.4435 750.925,-58.434 749.895,-51.5101"/>
</g>
<!-- Node8 -->
<g id="node15" class="node"><title>Node8</title>
<a xlink:href="BrowserList_8hh.html" target="_top" xlink:title="src/GManager/BrowserList.hh">
<polygon fill="white" stroke="black" points="1156,-0.5 1156,-19.5 1302,-19.5 1302,-0.5 1156,-0.5"/>
<text text-anchor="middle" x="1229" y="-7.5" font-family="Helvetica,sans-Serif" font-size="10.00">src/GManager/BrowserList.hh</text>
</a>
</g>
<!-- Node1&#45;&gt;Node8 -->
<g id="edge14" class="edge"><title>Node1&#45;&gt;Node8</title>
<path fill="none" stroke="midnightblue" d="M772.241,-56.6826C865.69,-47.8939 1016.7,-33.4684 1147,-20 1149.85,-19.7055 1152.75,-19.4021 1155.69,-19.0929"/>
<polygon fill="midnightblue" stroke="midnightblue" points="771.887,-53.2003 762.258,-57.6206 772.542,-60.1696 771.887,-53.2003"/>
</g>
</g>
</svg>
