<?xml version="1.0" encoding="UTF-8" standalone="no"?>
<!DOCTYPE svg PUBLIC "-//W3C//DTD SVG 1.1//EN"
 "http://www.w3.org/Graphics/SVG/1.1/DTD/svg11.dtd">
<!-- Generated by graphviz version 2.28.0 (20111204.1018)
 -->
<!-- Title: G Pages: 1 -->
<svg width="3329pt" height="532pt"
 viewBox="0.00 0.00 3329.10 532.00" xmlns="http://www.w3.org/2000/svg" xmlns:xlink="http://www.w3.org/1999/xlink">
<g id="graph1" class="graph" transform="scale(1 1) rotate(0) translate(4 528)">
<title>G</title>
<polygon fill="white" stroke="white" points="-4,5 -4,-528 3326.1,-528 3326.1,5 -4,5"/>
<!-- Node1 -->
<g id="node1" class="node"><title>Node1</title>
<polygon fill="#bfbfbf" stroke="black" points="2903.1,-504.5 2903.1,-523.5 3059.1,-523.5 3059.1,-504.5 2903.1,-504.5"/>
<text text-anchor="middle" x="2981.1" y="-511.5" font-family="Helvetica,sans-Serif" font-size="10.00">src/MPD/AbstractComposite.hh</text>
</g>
<!-- Node2 -->
<g id="node3" class="node"><title>Node2</title>
<a xlink:href="AbstractItemlist_8hh.html" target="_top" xlink:title="src/MPD/AbstractItemlist.hh">
<polygon fill="white" stroke="black" points="976.605,-336.5 976.605,-355.5 1117.6,-355.5 1117.6,-336.5 976.605,-336.5"/>
<text text-anchor="middle" x="1047.1" y="-343.5" font-family="Helvetica,sans-Serif" font-size="10.00">src/MPD/AbstractItemlist.hh</text>
</a>
</g>
<!-- Node1&#45;&gt;Node2 -->
<g id="edge2" class="edge"><title>Node1&#45;&gt;Node2</title>
<path fill="none" stroke="midnightblue" d="M2892.46,-505.392C2563.29,-477.138 1414.83,-378.563 1117.72,-353.061"/>
<polygon fill="midnightblue" stroke="midnightblue" points="2892.63,-508.919 2902.89,-506.287 2893.23,-501.945 2892.63,-508.919"/>
</g>
<!-- Node28 -->
<g id="node82" class="node"><title>Node28</title>
<a xlink:href="Song_8hh.html" target="_top" xlink:title="src/MPD/Song.hh">
<polygon fill="white" stroke="black" points="2933.6,-448.5 2933.6,-467.5 3028.6,-467.5 3028.6,-448.5 2933.6,-448.5"/>
<text text-anchor="middle" x="2981.1" y="-455.5" font-family="Helvetica,sans-Serif" font-size="10.00">src/MPD/Song.hh</text>
</a>
</g>
<!-- Node1&#45;&gt;Node28 -->
<g id="edge108" class="edge"><title>Node1&#45;&gt;Node28</title>
<path fill="none" stroke="midnightblue" d="M2981.1,-493.805C2981.1,-484.91 2981.1,-474.78 2981.1,-467.751"/>
<polygon fill="midnightblue" stroke="midnightblue" points="2977.6,-494.083 2981.1,-504.083 2984.6,-494.083 2977.6,-494.083"/>
</g>
<!-- Node33 -->
<g id="node93" class="node"><title>Node33</title>
<a xlink:href="Playlist_8hh.html" target="_top" xlink:title="src/MPD/Playlist.hh">
<polygon fill="white" stroke="black" points="2991.1,-168.5 2991.1,-187.5 3095.1,-187.5 3095.1,-168.5 2991.1,-168.5"/>
<text text-anchor="middle" x="3043.1" y="-175.5" font-family="Helvetica,sans-Serif" font-size="10.00">src/MPD/Playlist.hh</text>
</a>
</g>
<!-- Node1&#45;&gt;Node33 -->
<g id="edge136" class="edge"><title>Node1&#45;&gt;Node33</title>
<path fill="none" stroke="midnightblue" d="M3017.01,-500.776C3056.09,-484.919 3113.1,-453.188 3113.1,-403 3113.1,-403 3113.1,-403 3113.1,-345 3113.1,-280.257 3067.34,-211.681 3049.82,-187.801"/>
<polygon fill="midnightblue" stroke="midnightblue" points="3015.55,-497.585 3007.5,-504.467 3018.09,-504.11 3015.55,-497.585"/>
</g>
<!-- Node34 -->
<g id="node96" class="node"><title>Node34</title>
<a xlink:href="AudioOutput_8hh.html" target="_top" xlink:title="src/MPD/AudioOutput.hh">
<polygon fill="white" stroke="black" points="3146.1,-168.5 3146.1,-187.5 3272.1,-187.5 3272.1,-168.5 3146.1,-168.5"/>
<text text-anchor="middle" x="3209.1" y="-175.5" font-family="Helvetica,sans-Serif" font-size="10.00">src/MPD/AudioOutput.hh</text>
</a>
</g>
<!-- Node1&#45;&gt;Node34 -->
<g id="edge138" class="edge"><title>Node1&#45;&gt;Node34</title>
<path fill="none" stroke="midnightblue" d="M3057.14,-502.977C3154.04,-488.034 3309.1,-455.86 3309.1,-403 3309.1,-403 3309.1,-403 3309.1,-289 3309.1,-258.775 3308.07,-247.532 3289.1,-224 3275.1,-206.631 3252.49,-194.801 3234.87,-187.646"/>
<polygon fill="midnightblue" stroke="midnightblue" points="3056.45,-499.542 3047.09,-504.499 3057.5,-506.464 3056.45,-499.542"/>
</g>
<!-- Node36 -->
<g id="node102" class="node"><title>Node36</title>
<a xlink:href="Directory_8hh.html" target="_top" xlink:title="src/MPD/Directory.hh">
<polygon fill="white" stroke="black" points="389.105,-392.5 389.105,-411.5 501.105,-411.5 501.105,-392.5 389.105,-392.5"/>
<text text-anchor="middle" x="445.105" y="-399.5" font-family="Helvetica,sans-Serif" font-size="10.00">src/MPD/Directory.hh</text>
</a>
</g>
<!-- Node1&#45;&gt;Node36 -->
<g id="edge132" class="edge"><title>Node1&#45;&gt;Node36</title>
<path fill="none" stroke="midnightblue" d="M2892.62,-509.162C2489.01,-491.655 828.129,-419.614 501.143,-405.431"/>
<polygon fill="midnightblue" stroke="midnightblue" points="2892.63,-512.666 2902.78,-509.602 2892.94,-505.672 2892.63,-512.666"/>
</g>
<!-- Node3 -->
<g id="node5" class="node"><title>Node3</title>
<a xlink:href="Database_8hh.html" target="_top" xlink:title="src/Browser/Database/Database.hh">
<polygon fill="white" stroke="black" points="29.6049,-112.5 29.6049,-131.5 202.605,-131.5 202.605,-112.5 29.6049,-112.5"/>
<text text-anchor="middle" x="116.105" y="-119.5" font-family="Helvetica,sans-Serif" font-size="10.00">src/Browser/Database/Database.hh</text>
</a>
</g>
<!-- Node2&#45;&gt;Node3 -->
<g id="edge4" class="edge"><title>Node2&#45;&gt;Node3</title>
<path fill="none" stroke="midnightblue" d="M992.056,-334.551C947.044,-325.837 881.805,-312.817 825.105,-300 562.455,-240.626 247.959,-158.035 148.136,-131.539"/>
<polygon fill="midnightblue" stroke="midnightblue" points="991.427,-337.994 1001.91,-336.452 992.753,-331.121 991.427,-337.994"/>
</g>
<!-- Node4 -->
<g id="node7" class="node"><title>Node4</title>
<a xlink:href="AbstractItemGenerator_8hh.html" target="_top" xlink:title="src/MPD/AbstractItemGenerator.hh">
<polygon fill="white" stroke="black" points="1251.6,-280.5 1251.6,-299.5 1422.6,-299.5 1422.6,-280.5 1251.6,-280.5"/>
<text text-anchor="middle" x="1337.1" y="-287.5" font-family="Helvetica,sans-Serif" font-size="10.00">src/MPD/AbstractItemGenerator.hh</text>
</a>
</g>
<!-- Node2&#45;&gt;Node4 -->
<g id="edge6" class="edge"><title>Node2&#45;&gt;Node4</title>
<path fill="none" stroke="midnightblue" d="M1102.95,-334.601C1157.76,-324.395 1240.34,-309.019 1291.37,-299.516"/>
<polygon fill="midnightblue" stroke="midnightblue" points="1102.25,-331.172 1093.06,-336.444 1103.53,-338.054 1102.25,-331.172"/>
</g>
<!-- Node7 -->
<g id="node14" class="node"><title>Node7</title>
<a xlink:href="DatabaseCache_8hh.html" target="_top" xlink:title="src/Browser/Database/DatabaseCache.hh">
<polygon fill="white" stroke="black" points="415.605,-112.5 415.605,-131.5 616.605,-131.5 616.605,-112.5 415.605,-112.5"/>
<text text-anchor="middle" x="516.105" y="-119.5" font-family="Helvetica,sans-Serif" font-size="10.00">src/Browser/Database/DatabaseCache.hh</text>
</a>
</g>
<!-- Node2&#45;&gt;Node7 -->
<g id="edge98" class="edge"><title>Node2&#45;&gt;Node7</title>
<path fill="none" stroke="midnightblue" d="M1017.14,-332.471C920.409,-292.031 618.065,-165.627 536.534,-131.541"/>
<polygon fill="midnightblue" stroke="midnightblue" points="1016.04,-335.805 1026.61,-336.433 1018.74,-329.347 1016.04,-335.805"/>
</g>
<!-- Node8 -->
<g id="node16" class="node"><title>Node8</title>
<a xlink:href="PlaylistManager_8hh.html" target="_top" xlink:title="src/Browser/PlaylistManager/PlaylistManager.hh">
<polygon fill="white" stroke="black" points="2813.1,-112.5 2813.1,-131.5 3041.1,-131.5 3041.1,-112.5 2813.1,-112.5"/>
<text text-anchor="middle" x="2927.1" y="-119.5" font-family="Helvetica,sans-Serif" font-size="10.00">src/Browser/PlaylistManager/PlaylistManager.hh</text>
</a>
</g>
<!-- Node2&#45;&gt;Node8 -->
<g id="edge100" class="edge"><title>Node2&#45;&gt;Node8</title>
<path fill="none" stroke="midnightblue" d="M1127.71,-343.481C1432.65,-336.88 2514.54,-305.503 2835.1,-188 2869.63,-175.347 2903.06,-146.223 2918.39,-131.644"/>
<polygon fill="midnightblue" stroke="midnightblue" points="1127.55,-339.983 1117.63,-343.696 1127.7,-346.982 1127.55,-339.983"/>
</g>
<!-- Node10 -->
<g id="node20" class="node"><title>Node10</title>
<a xlink:href="Queue_8hh.html" target="_top" xlink:title="src/Browser/Queue/Queue.hh">
<polygon fill="white" stroke="black" points="572.105,-56.5 572.105,-75.5 718.105,-75.5 718.105,-56.5 572.105,-56.5"/>
<text text-anchor="middle" x="645.105" y="-63.5" font-family="Helvetica,sans-Serif" font-size="10.00">src/Browser/Queue/Queue.hh</text>
</a>
</g>
<!-- Node2&#45;&gt;Node10 -->
<g id="edge102" class="edge"><title>Node2&#45;&gt;Node10</title>
<path fill="none" stroke="midnightblue" d="M966.159,-344.951C720.645,-343.741 1.10485,-331.926 1.10485,-235 1.10485,-235 1.10485,-235 1.10485,-177 1.10485,-146.902 -3.31456,-130.905 20.1049,-112 62.1913,-78.0259 416.078,-69.68 571.918,-67.6471"/>
<polygon fill="midnightblue" stroke="midnightblue" points="966.425,-348.452 976.441,-344.997 966.457,-341.452 966.425,-348.452"/>
</g>
<!-- Node11 -->
<g id="node23" class="node"><title>Node11</title>
<a xlink:href="QueueMerger_8hh.html" target="_top" xlink:title="src/Browser/Queue/QueueMerger.hh">
<polygon fill="white" stroke="black" points="221.105,-112.5 221.105,-131.5 397.105,-131.5 397.105,-112.5 221.105,-112.5"/>
<text text-anchor="middle" x="309.105" y="-119.5" font-family="Helvetica,sans-Serif" font-size="10.00">src/Browser/Queue/QueueMerger.hh</text>
</a>
</g>
<!-- Node2&#45;&gt;Node11 -->
<g id="edge104" class="edge"><title>Node2&#45;&gt;Node11</title>
<path fill="none" stroke="midnightblue" d="M1006.87,-333.665C975.118,-324.674 929.73,-311.714 890.105,-300 676.49,-236.853 419.793,-157.395 336.576,-131.546"/>
<polygon fill="midnightblue" stroke="midnightblue" points="1006.1,-337.084 1016.67,-336.438 1008,-330.348 1006.1,-337.084"/>
</g>
<!-- Node16 -->
<g id="node36" class="node"><title>Node16</title>
<a xlink:href="SettingsOutputs_8hh.html" target="_top" xlink:title="src/Browser/Settings/SettingsOutputs.hh">
<polygon fill="white" stroke="black" points="2687.6,-56.5 2687.6,-75.5 2882.6,-75.5 2882.6,-56.5 2687.6,-56.5"/>
<text text-anchor="middle" x="2785.1" y="-63.5" font-family="Helvetica,sans-Serif" font-size="10.00">src/Browser/Settings/SettingsOutputs.hh</text>
</a>
</g>
<!-- Node2&#45;&gt;Node16 -->
<g id="edge106" class="edge"><title>Node2&#45;&gt;Node16</title>
<path fill="none" stroke="midnightblue" d="M1127.77,-344.195C1316.38,-341.804 1800.78,-332.714 2204.1,-300 2406.31,-283.599 2457.96,-282.671 2657.1,-244 2701.68,-235.345 3023.1,-168.503 3050.1,-132 3055.39,-124.854 3055.84,-118.791 3050.1,-112 3028.69,-86.6419 2949.25,-75.5707 2882.89,-70.7385"/>
<polygon fill="midnightblue" stroke="midnightblue" points="1127.62,-340.697 1117.66,-344.32 1127.7,-347.696 1127.62,-340.697"/>
</g>
<!-- Node5 -->
<g id="node9" class="node"><title>Node5</title>
<a xlink:href="Client_8hh.html" target="_top" xlink:title="src/MPD/Client.hh">
<polygon fill="white" stroke="black" points="1514.1,-224.5 1514.1,-243.5 1612.1,-243.5 1612.1,-224.5 1514.1,-224.5"/>
<text text-anchor="middle" x="1563.1" y="-231.5" font-family="Helvetica,sans-Serif" font-size="10.00">src/MPD/Client.hh</text>
</a>
</g>
<!-- Node4&#45;&gt;Node5 -->
<g id="edge8" class="edge"><title>Node4&#45;&gt;Node5</title>
<path fill="none" stroke="midnightblue" d="M1382.77,-278.088C1425.47,-267.887 1488.35,-252.861 1527.46,-243.516"/>
<polygon fill="midnightblue" stroke="midnightblue" points="1381.83,-274.715 1372.92,-280.444 1383.45,-281.524 1381.83,-274.715"/>
</g>
<!-- Node5&#45;&gt;Node3 -->
<g id="edge68" class="edge"><title>Node5&#45;&gt;Node3</title>
<path fill="none" stroke="midnightblue" d="M1503.81,-231.727C1356.13,-228.211 960.096,-216.661 631.105,-188 463.667,-173.413 266.863,-145.582 172.345,-131.546"/>
<polygon fill="midnightblue" stroke="midnightblue" points="1503.93,-235.231 1514.01,-231.966 1504.09,-228.233 1503.93,-235.231"/>
</g>
<!-- Node6 -->
<g id="node11" class="node"><title>Node6</title>
<a xlink:href="AbstractClientUser_8hh.html" target="_top" xlink:title="src/MPD/AbstractClientUser.hh">
<polygon fill="white" stroke="black" points="1538.6,-168.5 1538.6,-187.5 1693.6,-187.5 1693.6,-168.5 1538.6,-168.5"/>
<text text-anchor="middle" x="1616.1" y="-175.5" font-family="Helvetica,sans-Serif" font-size="10.00">src/MPD/AbstractClientUser.hh</text>
</a>
</g>
<!-- Node5&#45;&gt;Node6 -->
<g id="edge10" class="edge"><title>Node5&#45;&gt;Node6</title>
<path fill="none" stroke="midnightblue" d="M1579.09,-216.718C1588.43,-207.2 1599.85,-195.561 1607.52,-187.751"/>
<polygon fill="midnightblue" stroke="midnightblue" points="1576.36,-214.494 1571.86,-224.083 1581.36,-219.398 1576.36,-214.494"/>
</g>
<!-- Node5&#45;&gt;Node8 -->
<g id="edge70" class="edge"><title>Node5&#45;&gt;Node8</title>
<path fill="none" stroke="midnightblue" d="M1622.41,-232.34C1853.25,-229.565 2684.71,-217.592 2799.1,-188 2822.51,-181.945 2883.95,-147.739 2912.34,-131.526"/>
<polygon fill="midnightblue" stroke="midnightblue" points="1622.15,-228.842 1612.19,-232.461 1622.23,-235.842 1622.15,-228.842"/>
</g>
<!-- Node9 -->
<g id="node18" class="node"><title>Node9</title>
<a xlink:href="PlaylistAddDialog_8hh.html" target="_top" xlink:title="src/Browser/Queue/PlaylistAddDialog.hh">
<polygon fill="white" stroke="black" points="673.105,-112.5 673.105,-131.5 867.105,-131.5 867.105,-112.5 673.105,-112.5"/>
<text text-anchor="middle" x="770.105" y="-119.5" font-family="Helvetica,sans-Serif" font-size="10.00">src/Browser/Queue/PlaylistAddDialog.hh</text>
</a>
</g>
<!-- Node5&#45;&gt;Node9 -->
<g id="edge72" class="edge"><title>Node5&#45;&gt;Node9</title>
<path fill="none" stroke="midnightblue" d="M1503.93,-228.66C1418.17,-222.005 1254.46,-207.923 1116.1,-188 1004.19,-171.884 873.333,-145.116 809.359,-131.507"/>
<polygon fill="midnightblue" stroke="midnightblue" points="1503.75,-232.157 1513.99,-229.435 1504.29,-225.178 1503.75,-232.157"/>
</g>
<!-- Node5&#45;&gt;Node10 -->
<g id="edge74" class="edge"><title>Node5&#45;&gt;Node10</title>
<path fill="none" stroke="midnightblue" d="M1504.02,-230.266C1313.94,-220.944 726.982,-187.848 664.105,-132 647.755,-117.478 645.134,-89.7452 644.922,-75.6646"/>
<polygon fill="midnightblue" stroke="midnightblue" points="1503.94,-233.767 1514.1,-230.757 1504.28,-226.775 1503.94,-233.767"/>
</g>
<!-- Node12 -->
<g id="node26" class="node"><title>Node12</title>
<a xlink:href="SettingsPlayback_8hh.html" target="_top" xlink:title="src/Browser/Settings/SettingsPlayback.hh">
<polygon fill="white" stroke="black" points="2178.6,-112.5 2178.6,-131.5 2379.6,-131.5 2379.6,-112.5 2178.6,-112.5"/>
<text text-anchor="middle" x="2279.1" y="-119.5" font-family="Helvetica,sans-Serif" font-size="10.00">src/Browser/Settings/SettingsPlayback.hh</text>
</a>
</g>
<!-- Node5&#45;&gt;Node12 -->
<g id="edge76" class="edge"><title>Node5&#45;&gt;Node12</title>
<path fill="none" stroke="midnightblue" d="M1616.32,-222.256C1651.45,-214.452 1698.18,-202.698 1738.1,-188 1757.13,-180.995 1759.57,-173.443 1779.1,-168 1816.47,-157.588 2043.6,-139.899 2178.54,-130.087"/>
<polygon fill="midnightblue" stroke="midnightblue" points="1615.3,-218.897 1606.28,-224.451 1616.79,-225.736 1615.3,-218.897"/>
</g>
<!-- Node14 -->
<g id="node30" class="node"><title>Node14</title>
<a xlink:href="Trayicon_8hh.html" target="_top" xlink:title="src/GManager/Trayicon.hh">
<polygon fill="white" stroke="black" points="1089.1,-112.5 1089.1,-131.5 1221.1,-131.5 1221.1,-112.5 1089.1,-112.5"/>
<text text-anchor="middle" x="1155.1" y="-119.5" font-family="Helvetica,sans-Serif" font-size="10.00">src/GManager/Trayicon.hh</text>
</a>
</g>
<!-- Node5&#45;&gt;Node14 -->
<g id="edge78" class="edge"><title>Node5&#45;&gt;Node14</title>
<path fill="none" stroke="midnightblue" d="M1503.89,-228.724C1422.86,-222.22 1282.13,-208.402 1235.1,-188 1204.57,-174.753 1176.17,-146.442 1162.93,-131.951"/>
<polygon fill="midnightblue" stroke="midnightblue" points="1503.7,-232.22 1513.94,-229.518 1504.25,-225.242 1503.7,-232.22"/>
</g>
<!-- Node5&#45;&gt;Node16 -->
<g id="edge80" class="edge"><title>Node5&#45;&gt;Node16</title>
<path fill="none" stroke="midnightblue" d="M1622.53,-231.926C1852.71,-227.242 2677.25,-205.428 2766.1,-132 2782.96,-118.07 2785.35,-90.069 2785.4,-75.7975"/>
<polygon fill="midnightblue" stroke="midnightblue" points="1622.27,-228.43 1612.34,-232.13 1622.41,-235.429 1622.27,-228.43"/>
</g>
<!-- Node18 -->
<g id="node41" class="node"><title>Node18</title>
<a xlink:href="Heartbeat_8hh.html" target="_top" xlink:title="src/GManager/Heartbeat.hh">
<polygon fill="white" stroke="black" points="1984.6,-112.5 1984.6,-131.5 2121.6,-131.5 2121.6,-112.5 1984.6,-112.5"/>
<text text-anchor="middle" x="2053.1" y="-119.5" font-family="Helvetica,sans-Serif" font-size="10.00">src/GManager/Heartbeat.hh</text>
</a>
</g>
<!-- Node5&#45;&gt;Node18 -->
<g id="edge84" class="edge"><title>Node5&#45;&gt;Node18</title>
<path fill="none" stroke="midnightblue" d="M1602.57,-221.531C1630.62,-213.061 1669.04,-200.821 1702.1,-188 1722.13,-180.235 1725.5,-174.062 1746.1,-168 1768.81,-161.321 1905.03,-142.603 1988.21,-131.525"/>
<polygon fill="midnightblue" stroke="midnightblue" points="1601.31,-218.254 1592.73,-224.474 1603.31,-224.961 1601.31,-218.254"/>
</g>
<!-- Node19 -->
<g id="node43" class="node"><title>Node19</title>
<a xlink:href="Statusbar_8hh.html" target="_top" xlink:title="src/GManager/Statusbar.hh">
<polygon fill="white" stroke="black" points="1547.6,-56.5 1547.6,-75.5 1684.6,-75.5 1684.6,-56.5 1547.6,-56.5"/>
<text text-anchor="middle" x="1616.1" y="-63.5" font-family="Helvetica,sans-Serif" font-size="10.00">src/GManager/Statusbar.hh</text>
</a>
</g>
<!-- Node5&#45;&gt;Node19 -->
<g id="edge90" class="edge"><title>Node5&#45;&gt;Node19</title>
<path fill="none" stroke="midnightblue" d="M1503.63,-229.042C1398.67,-219.936 1197.99,-191.77 1268.1,-112 1277.24,-101.605 1448.81,-83.288 1547.57,-73.5373"/>
<polygon fill="midnightblue" stroke="midnightblue" points="1503.52,-232.545 1513.78,-229.889 1504.11,-225.569 1503.52,-232.545"/>
</g>
<!-- Node21 -->
<g id="node47" class="node"><title>Node21</title>
<a xlink:href="MenuList_8hh.html" target="_top" xlink:title="src/GManager/MenuList.hh">
<polygon fill="white" stroke="black" points="2436.1,-112.5 2436.1,-131.5 2570.1,-131.5 2570.1,-112.5 2436.1,-112.5"/>
<text text-anchor="middle" x="2503.1" y="-119.5" font-family="Helvetica,sans-Serif" font-size="10.00">src/GManager/MenuList.hh</text>
</a>
</g>
<!-- Node5&#45;&gt;Node21 -->
<g id="edge86" class="edge"><title>Node5&#45;&gt;Node21</title>
<path fill="none" stroke="midnightblue" d="M1622.37,-226.933C1703.42,-218.565 1853.35,-202.83 1981.1,-188 2145.53,-168.914 2338.79,-144.271 2437.63,-131.507"/>
<polygon fill="midnightblue" stroke="midnightblue" points="1621.95,-223.458 1612.36,-227.966 1622.67,-230.421 1621.95,-223.458"/>
</g>
<!-- Node23 -->
<g id="node51" class="node"><title>Node23</title>
<a xlink:href="PlaybackButtons_8hh.html" target="_top" xlink:title="src/GManager/PlaybackButtons.hh">
<polygon fill="white" stroke="black" points="2588.6,-112.5 2588.6,-131.5 2757.6,-131.5 2757.6,-112.5 2588.6,-112.5"/>
<text text-anchor="middle" x="2673.1" y="-119.5" font-family="Helvetica,sans-Serif" font-size="10.00">src/GManager/PlaybackButtons.hh</text>
</a>
</g>
<!-- Node5&#45;&gt;Node23 -->
<g id="edge88" class="edge"><title>Node5&#45;&gt;Node23</title>
<path fill="none" stroke="midnightblue" d="M1622.37,-228.156C1717.49,-220.295 1910.09,-204.02 2073.1,-188 2262.62,-169.375 2485.47,-144.433 2598.79,-131.532"/>
<polygon fill="midnightblue" stroke="midnightblue" points="1622.05,-224.671 1612.37,-228.981 1622.62,-231.647 1622.05,-224.671"/>
</g>
<!-- Node24 -->
<g id="node54" class="node"><title>Node24</title>
<a xlink:href="StatusIcons_8hh.html" target="_top" xlink:title="src/GManager/StatusIcons.hh">
<polygon fill="white" stroke="black" points="885.605,-112.5 885.605,-131.5 1032.6,-131.5 1032.6,-112.5 885.605,-112.5"/>
<text text-anchor="middle" x="959.105" y="-119.5" font-family="Helvetica,sans-Serif" font-size="10.00">src/GManager/StatusIcons.hh</text>
</a>
</g>
<!-- Node5&#45;&gt;Node24 -->
<g id="edge92" class="edge"><title>Node5&#45;&gt;Node24</title>
<path fill="none" stroke="midnightblue" d="M1503.77,-228.216C1431.56,-221.804 1306.13,-208.764 1200.1,-188 1121.22,-172.551 1030.12,-145.362 985.922,-131.559"/>
<polygon fill="midnightblue" stroke="midnightblue" points="1503.76,-231.729 1514.03,-229.114 1504.37,-224.755 1503.76,-231.729"/>
</g>
<!-- Node25 -->
<g id="node57" class="node"><title>Node25</title>
<a xlink:href="TitleLabel_8hh.html" target="_top" xlink:title="src/GManager/TitleLabel.hh">
<polygon fill="white" stroke="black" points="1277.6,-112.5 1277.6,-131.5 1414.6,-131.5 1414.6,-112.5 1277.6,-112.5"/>
<text text-anchor="middle" x="1346.1" y="-119.5" font-family="Helvetica,sans-Serif" font-size="10.00">src/GManager/TitleLabel.hh</text>
</a>
</g>
<!-- Node5&#45;&gt;Node25 -->
<g id="edge94" class="edge"><title>Node5&#45;&gt;Node25</title>
<path fill="none" stroke="midnightblue" d="M1536.94,-219.735C1491.86,-196.884 1400.77,-150.711 1363.05,-131.591"/>
<polygon fill="midnightblue" stroke="midnightblue" points="1535.58,-222.969 1546.08,-224.368 1538.74,-216.725 1535.58,-222.969"/>
</g>
<!-- Node26 -->
<g id="node59" class="node"><title>Node26</title>
<a xlink:href="Volumebutton_8hh.html" target="_top" xlink:title="src/GManager/Volumebutton.hh">
<polygon fill="white" stroke="black" points="1432.6,-112.5 1432.6,-131.5 1587.6,-131.5 1587.6,-112.5 1432.6,-112.5"/>
<text text-anchor="middle" x="1510.1" y="-119.5" font-family="Helvetica,sans-Serif" font-size="10.00">src/GManager/Volumebutton.hh</text>
</a>
</g>
<!-- Node5&#45;&gt;Node26 -->
<g id="edge96" class="edge"><title>Node5&#45;&gt;Node26</title>
<path fill="none" stroke="midnightblue" d="M1548.51,-216.716C1541.83,-208.562 1534.26,-198.259 1529.1,-188 1519.6,-169.091 1514.07,-144.638 1511.62,-131.785"/>
<polygon fill="midnightblue" stroke="midnightblue" points="1545.87,-219.01 1555.03,-224.343 1551.19,-214.465 1545.87,-219.01"/>
</g>
<!-- Node27 -->
<g id="node68" class="node"><title>Node27</title>
<a xlink:href="StatBrowser_8hh.html" target="_top" xlink:title="src/Browser/Statistics/StatBrowser.hh">
<polygon fill="white" stroke="black" points="1788.1,-168.5 1788.1,-187.5 1972.1,-187.5 1972.1,-168.5 1788.1,-168.5"/>
<text text-anchor="middle" x="1880.1" y="-175.5" font-family="Helvetica,sans-Serif" font-size="10.00">src/Browser/Statistics/StatBrowser.hh</text>
</a>
</g>
<!-- Node5&#45;&gt;Node27 -->
<g id="edge82" class="edge"><title>Node5&#45;&gt;Node27</title>
<path fill="none" stroke="midnightblue" d="M1622.35,-222.908C1682.2,-212.712 1773.67,-197.131 1830.02,-187.532"/>
<polygon fill="midnightblue" stroke="midnightblue" points="1621.56,-219.492 1612.29,-224.622 1622.73,-226.393 1621.56,-219.492"/>
</g>
<!-- Node6&#45;&gt;Node3 -->
<g id="edge12" class="edge"><title>Node6&#45;&gt;Node3</title>
<path fill="none" stroke="midnightblue" d="M1528.15,-176.057C1306.88,-173.277 709.258,-163.242 212.105,-132 209.014,-131.806 205.869,-131.593 202.693,-131.364"/>
<polygon fill="midnightblue" stroke="midnightblue" points="1528.36,-179.56 1538.4,-176.184 1528.45,-172.56 1528.36,-179.56"/>
</g>
<!-- Node6&#45;&gt;Node7 -->
<g id="edge14" class="edge"><title>Node6&#45;&gt;Node7</title>
<path fill="none" stroke="midnightblue" d="M1528.32,-173.247C1360.44,-165.982 982.265,-149.193 664.105,-132 648.811,-131.174 632.631,-130.245 616.804,-129.307"/>
<polygon fill="midnightblue" stroke="midnightblue" points="1528.2,-176.745 1538.34,-173.68 1528.5,-169.752 1528.2,-176.745"/>
</g>
<!-- Node6&#45;&gt;Node8 -->
<g id="edge16" class="edge"><title>Node6&#45;&gt;Node8</title>
<path fill="none" stroke="midnightblue" d="M1703.91,-171.85C1728.26,-170.504 1754.7,-169.119 1779.1,-168 2217.6,-147.899 2327.61,-152.251 2766.1,-132 2781.21,-131.303 2797.1,-130.499 2812.78,-129.665"/>
<polygon fill="midnightblue" stroke="midnightblue" points="1703.4,-168.373 1693.61,-172.424 1703.79,-175.362 1703.4,-168.373"/>
</g>
<!-- Node6&#45;&gt;Node9 -->
<g id="edge18" class="edge"><title>Node6&#45;&gt;Node9</title>
<path fill="none" stroke="midnightblue" d="M1528.42,-172.35C1389.83,-164.846 1111.7,-149.163 876.105,-132 873.158,-131.785 870.165,-131.562 867.143,-131.333"/>
<polygon fill="midnightblue" stroke="midnightblue" points="1528.38,-175.853 1538.56,-172.897 1528.76,-168.863 1528.38,-175.853"/>
</g>
<!-- Node6&#45;&gt;Node10 -->
<g id="edge22" class="edge"><title>Node6&#45;&gt;Node10</title>
<path fill="none" stroke="midnightblue" d="M1528.26,-173.762C1398.43,-168.275 1161.83,-155.396 1080.1,-132 1061.38,-126.639 1059.75,-117.636 1041.1,-112 931.819,-78.9707 798.903,-69.8243 718.217,-67.4953"/>
<polygon fill="midnightblue" stroke="midnightblue" points="1528.44,-177.272 1538.57,-174.192 1528.73,-170.278 1528.44,-177.272"/>
</g>
<!-- Node6&#45;&gt;Node11 -->
<g id="edge24" class="edge"><title>Node6&#45;&gt;Node11</title>
<path fill="none" stroke="midnightblue" d="M1528.4,-175.402C1328.91,-171.403 825.955,-159.264 406.105,-132 403.151,-131.808 400.148,-131.601 397.117,-131.38"/>
<polygon fill="midnightblue" stroke="midnightblue" points="1528.46,-178.904 1538.53,-175.603 1528.6,-171.905 1528.46,-178.904"/>
</g>
<!-- Node6&#45;&gt;Node12 -->
<g id="edge28" class="edge"><title>Node6&#45;&gt;Node12</title>
<path fill="none" stroke="midnightblue" d="M1703.89,-169.85C1826.64,-159.853 2048.97,-141.744 2178.33,-131.208"/>
<polygon fill="midnightblue" stroke="midnightblue" points="1703.47,-166.373 1693.78,-170.673 1704.03,-173.35 1703.47,-166.373"/>
</g>
<!-- Node6&#45;&gt;Node14 -->
<g id="edge32" class="edge"><title>Node6&#45;&gt;Node14</title>
<path fill="none" stroke="midnightblue" d="M1533.21,-167.29C1443.85,-156.823 1303.39,-140.369 1221.17,-130.738"/>
<polygon fill="midnightblue" stroke="midnightblue" points="1532.97,-170.786 1543.31,-168.473 1533.79,-163.834 1532.97,-170.786"/>
</g>
<!-- Node6&#45;&gt;Node16 -->
<g id="edge40" class="edge"><title>Node6&#45;&gt;Node16</title>
<path fill="none" stroke="midnightblue" d="M1703.97,-172.113C1904.63,-160.922 2379.93,-134.227 2388.1,-132 2406.9,-126.879 2408.49,-117.746 2427.1,-112 2512.7,-85.5753 2614.37,-74.6307 2687.46,-70.1173"/>
<polygon fill="midnightblue" stroke="midnightblue" points="1703.55,-168.631 1693.76,-172.682 1703.94,-175.62 1703.55,-168.631"/>
</g>
<!-- Node17 -->
<g id="node39" class="node"><title>Node17</title>
<a xlink:href="BrowserList_8hh.html" target="_top" xlink:title="src/GManager/BrowserList.hh">
<polygon fill="white" stroke="black" points="1820.1,-112.5 1820.1,-131.5 1966.1,-131.5 1966.1,-112.5 1820.1,-112.5"/>
<text text-anchor="middle" x="1893.1" y="-119.5" font-family="Helvetica,sans-Serif" font-size="10.00">src/GManager/BrowserList.hh</text>
</a>
</g>
<!-- Node6&#45;&gt;Node17 -->
<g id="edge44" class="edge"><title>Node6&#45;&gt;Node17</title>
<path fill="none" stroke="midnightblue" d="M1670.1,-166.473C1722.45,-156.268 1800.88,-140.979 1849.42,-131.516"/>
<polygon fill="midnightblue" stroke="midnightblue" points="1669.14,-163.095 1660,-168.444 1670.48,-169.965 1669.14,-163.095"/>
</g>
<!-- Node6&#45;&gt;Node18 -->
<g id="edge46" class="edge"><title>Node6&#45;&gt;Node18</title>
<path fill="none" stroke="midnightblue" d="M1695.44,-167.196C1778.07,-156.986 1906.17,-141.157 1984.54,-131.472"/>
<polygon fill="midnightblue" stroke="midnightblue" points="1694.84,-163.744 1685.35,-168.444 1695.7,-170.691 1694.84,-163.744"/>
</g>
<!-- Node6&#45;&gt;Node19 -->
<g id="edge58" class="edge"><title>Node6&#45;&gt;Node19</title>
<path fill="none" stroke="midnightblue" d="M1616.1,-158.348C1616.1,-134.254 1616.1,-93.3079 1616.1,-75.5914"/>
<polygon fill="midnightblue" stroke="midnightblue" points="1612.6,-158.368 1616.1,-168.368 1619.6,-158.369 1612.6,-158.368"/>
</g>
<!-- Node20 -->
<g id="node45" class="node"><title>Node20</title>
<a xlink:href="Timeslide_8hh.html" target="_top" xlink:title="src/GManager/Timeslide.hh">
<polygon fill="white" stroke="black" points="2016.6,-56.5 2016.6,-75.5 2153.6,-75.5 2153.6,-56.5 2016.6,-56.5"/>
<text text-anchor="middle" x="2085.1" y="-63.5" font-family="Helvetica,sans-Serif" font-size="10.00">src/GManager/Timeslide.hh</text>
</a>
</g>
<!-- Node6&#45;&gt;Node20 -->
<g id="edge62" class="edge"><title>Node6&#45;&gt;Node20</title>
<path fill="none" stroke="midnightblue" d="M1703.88,-170.823C1848.8,-160.416 2122.99,-139.765 2130.1,-132 2146.98,-113.582 2117.12,-88.4993 2098.44,-75.537"/>
<polygon fill="midnightblue" stroke="midnightblue" points="1703.39,-167.348 1693.67,-171.554 1703.9,-174.33 1703.39,-167.348"/>
</g>
<!-- Node6&#45;&gt;Node21 -->
<g id="edge52" class="edge"><title>Node6&#45;&gt;Node21</title>
<path fill="none" stroke="midnightblue" d="M1704.08,-172.119C1911.27,-160.622 2413.24,-132.739 2422.1,-132 2426.62,-131.624 2431.27,-131.201 2435.95,-130.749"/>
<polygon fill="midnightblue" stroke="midnightblue" points="1703.63,-168.639 1693.84,-172.688 1704.02,-175.628 1703.63,-168.639"/>
</g>
<!-- Node22 -->
<g id="node49" class="node"><title>Node22</title>
<a xlink:href="NotifyManager_8hh.html" target="_top" xlink:title="src/GManager/NotifyManager.hh">
<polygon fill="white" stroke="black" points="1644.1,-112.5 1644.1,-131.5 1802.1,-131.5 1802.1,-112.5 1644.1,-112.5"/>
<text text-anchor="middle" x="1723.1" y="-119.5" font-family="Helvetica,sans-Serif" font-size="10.00">src/GManager/NotifyManager.hh</text>
</a>
</g>
<!-- Node6&#45;&gt;Node22 -->
<g id="edge54" class="edge"><title>Node6&#45;&gt;Node22</title>
<path fill="none" stroke="midnightblue" d="M1642.41,-163.726C1662.22,-153.727 1688.81,-140.307 1705.96,-131.655"/>
<polygon fill="midnightblue" stroke="midnightblue" points="1640.65,-160.694 1633.3,-168.324 1643.8,-166.943 1640.65,-160.694"/>
</g>
<!-- Node6&#45;&gt;Node23 -->
<g id="edge56" class="edge"><title>Node6&#45;&gt;Node23</title>
<path fill="none" stroke="midnightblue" d="M1703.91,-171.987C1728.26,-170.642 1754.71,-169.222 1779.1,-168 2134.57,-150.189 2224.07,-156.969 2579.1,-132 2582.21,-131.781 2585.38,-131.546 2588.57,-131.297"/>
<polygon fill="midnightblue" stroke="midnightblue" points="1703.41,-168.51 1693.62,-172.558 1703.8,-175.499 1703.41,-168.51"/>
</g>
<!-- Node6&#45;&gt;Node24 -->
<g id="edge60" class="edge"><title>Node6&#45;&gt;Node24</title>
<path fill="none" stroke="midnightblue" d="M1528.07,-170.668C1416.21,-162.478 1217.21,-147.423 1047.1,-132 1042.52,-131.584 1037.79,-131.142 1033.03,-130.685"/>
<polygon fill="midnightblue" stroke="midnightblue" points="1528.06,-174.177 1538.29,-171.415 1528.57,-167.195 1528.06,-174.177"/>
</g>
<!-- Node6&#45;&gt;Node25 -->
<g id="edge64" class="edge"><title>Node6&#45;&gt;Node25</title>
<path fill="none" stroke="midnightblue" d="M1563.47,-166.473C1512.44,-156.268 1436,-140.979 1388.69,-131.516"/>
<polygon fill="midnightblue" stroke="midnightblue" points="1562.83,-169.914 1573.32,-168.444 1564.2,-163.05 1562.83,-169.914"/>
</g>
<!-- Node6&#45;&gt;Node26 -->
<g id="edge66" class="edge"><title>Node6&#45;&gt;Node26</title>
<path fill="none" stroke="midnightblue" d="M1590.05,-163.726C1570.42,-153.727 1544.08,-140.307 1527.09,-131.655"/>
<polygon fill="midnightblue" stroke="midnightblue" points="1588.57,-166.903 1599.07,-168.324 1591.75,-160.666 1588.57,-166.903"/>
</g>
<!-- Node9&#45;&gt;Node10 -->
<g id="edge20" class="edge"><title>Node9&#45;&gt;Node10</title>
<path fill="none" stroke="midnightblue" d="M740.864,-108.368C717.455,-98.2553 685.264,-84.3486 664.819,-75.5164"/>
<polygon fill="midnightblue" stroke="midnightblue" points="739.73,-111.691 750.298,-112.444 742.506,-105.265 739.73,-111.691"/>
</g>
<!-- Node11&#45;&gt;Node10 -->
<g id="edge26" class="edge"><title>Node11&#45;&gt;Node10</title>
<path fill="none" stroke="midnightblue" d="M372.237,-110.854C435.721,-100.651 532.497,-85.0977 592.114,-75.5164"/>
<polygon fill="midnightblue" stroke="midnightblue" points="371.663,-107.401 362.345,-112.444 372.774,-114.312 371.663,-107.401"/>
</g>
<!-- Node13 -->
<g id="node28" class="node"><title>Node13</title>
<a xlink:href="Settings_8hh.html" target="_top" xlink:title="src/Browser/Settings/Settings.hh">
<polygon fill="white" stroke="black" points="1742.6,-0.5 1742.6,-19.5 1903.6,-19.5 1903.6,-0.5 1742.6,-0.5"/>
<text text-anchor="middle" x="1823.1" y="-7.5" font-family="Helvetica,sans-Serif" font-size="10.00">src/Browser/Settings/Settings.hh</text>
</a>
</g>
<!-- Node12&#45;&gt;Node13 -->
<g id="edge30" class="edge"><title>Node12&#45;&gt;Node13</title>
<path fill="none" stroke="midnightblue" d="M2258.8,-106.586C2236.29,-91.3811 2198.36,-67.9967 2162.1,-56 2076.71,-27.7456 1973.66,-17.1729 1903.76,-13.2493"/>
<polygon fill="midnightblue" stroke="midnightblue" points="2256.96,-109.568 2267.18,-112.354 2260.93,-103.801 2256.96,-109.568"/>
</g>
<!-- Node14&#45;&gt;Node13 -->
<g id="edge38" class="edge"><title>Node14&#45;&gt;Node13</title>
<path fill="none" stroke="midnightblue" d="M1176.95,-107.155C1202.51,-91.726 1246.62,-67.4468 1288.1,-56 1371.39,-33.0185 1614.58,-19.724 1742.43,-14.1377"/>
<polygon fill="midnightblue" stroke="midnightblue" points="1175.1,-104.182 1168.41,-112.398 1178.77,-110.147 1175.1,-104.182"/>
</g>
<!-- Node15 -->
<g id="node32" class="node"><title>Node15</title>
<a xlink:href="SettingsGeneral_8hh.html" target="_top" xlink:title="src/Browser/Settings/SettingsGeneral.hh">
<polygon fill="white" stroke="black" points="1297.1,-56.5 1297.1,-75.5 1491.1,-75.5 1491.1,-56.5 1297.1,-56.5"/>
<text text-anchor="middle" x="1394.1" y="-63.5" font-family="Helvetica,sans-Serif" font-size="10.00">src/Browser/Settings/SettingsGeneral.hh</text>
</a>
</g>
<!-- Node14&#45;&gt;Node15 -->
<g id="edge34" class="edge"><title>Node14&#45;&gt;Node15</title>
<path fill="none" stroke="midnightblue" d="M1202.83,-110.217C1247.99,-100.013 1314.88,-84.9006 1356.41,-75.5164"/>
<polygon fill="midnightblue" stroke="midnightblue" points="1201.96,-106.826 1192.98,-112.444 1203.5,-113.654 1201.96,-106.826"/>
</g>
<!-- Node15&#45;&gt;Node13 -->
<g id="edge36" class="edge"><title>Node15&#45;&gt;Node13</title>
<path fill="none" stroke="midnightblue" d="M1472.22,-55.1669C1553.22,-44.9716 1678.55,-29.1963 1755.45,-19.5164"/>
<polygon fill="midnightblue" stroke="midnightblue" points="1471.57,-51.722 1462.08,-56.4435 1472.44,-58.6672 1471.57,-51.722"/>
</g>
<!-- Node16&#45;&gt;Node13 -->
<g id="edge42" class="edge"><title>Node16&#45;&gt;Node13</title>
<path fill="none" stroke="midnightblue" d="M2677.32,-58.9499C2482.61,-48.0198 2076.41,-25.2186 1903.65,-15.5213"/>
<polygon fill="midnightblue" stroke="midnightblue" points="2677.39,-62.459 2687.57,-59.525 2677.78,-55.47 2677.39,-62.459"/>
</g>
<!-- Node18&#45;&gt;Node19 -->
<g id="edge48" class="edge"><title>Node18&#45;&gt;Node19</title>
<path fill="none" stroke="midnightblue" d="M1974.26,-111.257C1891.71,-101.056 1763.37,-85.1981 1684.83,-75.4919"/>
<polygon fill="midnightblue" stroke="midnightblue" points="1973.99,-114.75 1984.34,-112.503 1974.85,-107.803 1973.99,-114.75"/>
</g>
<!-- Node18&#45;&gt;Node20 -->
<g id="edge50" class="edge"><title>Node18&#45;&gt;Node20</title>
<path fill="none" stroke="midnightblue" d="M2063.61,-103.275C2069.08,-94.0454 2075.52,-83.1703 2079.92,-75.7511"/>
<polygon fill="midnightblue" stroke="midnightblue" points="2060.48,-101.696 2058.39,-112.083 2066.5,-105.264 2060.48,-101.696"/>
</g>
<!-- Node29 -->
<g id="node84" class="node"><title>Node29</title>
<a xlink:href="NotifyData_8hh.html" target="_top" xlink:title="src/MPD/NotifyData.hh">
<polygon fill="white" stroke="black" points="2965.6,-392.5 2965.6,-411.5 3084.6,-411.5 3084.6,-392.5 2965.6,-392.5"/>
<text text-anchor="middle" x="3025.1" y="-399.5" font-family="Helvetica,sans-Serif" font-size="10.00">src/MPD/NotifyData.hh</text>
</a>
</g>
<!-- Node28&#45;&gt;Node29 -->
<g id="edge110" class="edge"><title>Node28&#45;&gt;Node29</title>
<path fill="none" stroke="midnightblue" d="M2994.84,-440.144C3002.51,-430.736 3011.74,-419.405 3017.97,-411.751"/>
<polygon fill="midnightblue" stroke="midnightblue" points="2991.97,-438.12 2988.37,-448.083 2997.4,-442.541 2991.97,-438.12"/>
</g>
<!-- Node28&#45;&gt;Node33 -->
<g id="edge130" class="edge"><title>Node28&#45;&gt;Node33</title>
<path fill="none" stroke="midnightblue" d="M2969.54,-439.925C2956.5,-418.987 2937.1,-381.96 2937.1,-347 2937.1,-347 2937.1,-347 2937.1,-289 2937.1,-239.14 2994.27,-203.188 3024.64,-187.607"/>
<polygon fill="midnightblue" stroke="midnightblue" points="2966.62,-441.854 2974.99,-448.349 2972.49,-438.051 2966.62,-441.854"/>
</g>
<!-- Node30 -->
<g id="node86" class="node"><title>Node30</title>
<a xlink:href="Listener_8hh.html" target="_top" xlink:title="src/MPD/Listener.hh">
<polygon fill="white" stroke="black" points="2971.6,-336.5 2971.6,-355.5 3078.6,-355.5 3078.6,-336.5 2971.6,-336.5"/>
<text text-anchor="middle" x="3025.1" y="-343.5" font-family="Helvetica,sans-Serif" font-size="10.00">src/MPD/Listener.hh</text>
</a>
</g>
<!-- Node29&#45;&gt;Node30 -->
<g id="edge112" class="edge"><title>Node29&#45;&gt;Node30</title>
<path fill="none" stroke="midnightblue" d="M3025.1,-381.805C3025.1,-372.91 3025.1,-362.78 3025.1,-355.751"/>
<polygon fill="midnightblue" stroke="midnightblue" points="3021.6,-382.083 3025.1,-392.083 3028.6,-382.083 3021.6,-382.083"/>
</g>
<!-- Node31 -->
<g id="node88" class="node"><title>Node31</title>
<a xlink:href="BaseClient_8hh.html" target="_top" xlink:title="src/MPD/BaseClient.hh">
<polygon fill="white" stroke="black" points="2965.1,-280.5 2965.1,-299.5 3085.1,-299.5 3085.1,-280.5 2965.1,-280.5"/>
<text text-anchor="middle" x="3025.1" y="-287.5" font-family="Helvetica,sans-Serif" font-size="10.00">src/MPD/BaseClient.hh</text>
</a>
</g>
<!-- Node30&#45;&gt;Node31 -->
<g id="edge114" class="edge"><title>Node30&#45;&gt;Node31</title>
<path fill="none" stroke="midnightblue" d="M3025.1,-325.805C3025.1,-316.91 3025.1,-306.78 3025.1,-299.751"/>
<polygon fill="midnightblue" stroke="midnightblue" points="3021.6,-326.083 3025.1,-336.083 3028.6,-326.083 3021.6,-326.083"/>
</g>
<!-- Node31&#45;&gt;Node5 -->
<g id="edge116" class="edge"><title>Node31&#45;&gt;Node5</title>
<path fill="none" stroke="midnightblue" d="M2954.84,-286.405C2700.22,-277 1829.5,-244.839 1612.43,-236.822"/>
<polygon fill="midnightblue" stroke="midnightblue" points="2954.94,-289.911 2965.07,-286.782 2955.2,-282.916 2954.94,-289.911"/>
</g>
<!-- Node32 -->
<g id="node91" class="node"><title>Node32</title>
<a xlink:href="AbstractClientExtension_8hh.html" target="_top" xlink:title="src/MPD/AbstractClientExtension.hh">
<polygon fill="white" stroke="black" points="3103.1,-224.5 3103.1,-243.5 3281.1,-243.5 3281.1,-224.5 3103.1,-224.5"/>
<text text-anchor="middle" x="3192.1" y="-231.5" font-family="Helvetica,sans-Serif" font-size="10.00">src/MPD/AbstractClientExtension.hh</text>
</a>
</g>
<!-- Node31&#45;&gt;Node32 -->
<g id="edge118" class="edge"><title>Node31&#45;&gt;Node32</title>
<path fill="none" stroke="midnightblue" d="M3061.27,-277.304C3092.74,-267.129 3137.6,-252.625 3165.77,-243.516"/>
<polygon fill="midnightblue" stroke="midnightblue" points="3060,-274.037 3051.57,-280.444 3062.16,-280.697 3060,-274.037"/>
</g>
<!-- Node32&#45;&gt;Node33 -->
<g id="edge120" class="edge"><title>Node32&#45;&gt;Node33</title>
<path fill="none" stroke="midnightblue" d="M3158.73,-220.906C3130.72,-210.754 3091.41,-196.506 3066.6,-187.516"/>
<polygon fill="midnightblue" stroke="midnightblue" points="3157.9,-224.327 3168.5,-224.444 3160.29,-217.746 3157.9,-224.327"/>
</g>
<!-- Node32&#45;&gt;Node34 -->
<g id="edge124" class="edge"><title>Node32&#45;&gt;Node34</title>
<path fill="none" stroke="midnightblue" d="M3197.96,-214.396C3200.81,-205.362 3204.09,-194.936 3206.35,-187.751"/>
<polygon fill="midnightblue" stroke="midnightblue" points="3194.58,-213.493 3194.91,-224.083 3201.25,-215.596 3194.58,-213.493"/>
</g>
<!-- Node33&#45;&gt;Node8 -->
<g id="edge122" class="edge"><title>Node33&#45;&gt;Node8</title>
<path fill="none" stroke="midnightblue" d="M3015.39,-164.096C2993.71,-154.007 2964.2,-140.27 2945.4,-131.516"/>
<polygon fill="midnightblue" stroke="midnightblue" points="3014.18,-167.396 3024.72,-168.444 3017.14,-161.05 3014.18,-167.396"/>
</g>
<!-- Node35 -->
<g id="node98" class="node"><title>Node35</title>
<a xlink:href="OutputsModelColumns_8hh.html" target="_top" xlink:title="src/Browser/Settings/OutputsModelColumns.hh">
<polygon fill="white" stroke="black" points="3097.1,-112.5 3097.1,-131.5 3321.1,-131.5 3321.1,-112.5 3097.1,-112.5"/>
<text text-anchor="middle" x="3209.1" y="-119.5" font-family="Helvetica,sans-Serif" font-size="10.00">src/Browser/Settings/OutputsModelColumns.hh</text>
</a>
</g>
<!-- Node34&#45;&gt;Node35 -->
<g id="edge126" class="edge"><title>Node34&#45;&gt;Node35</title>
<path fill="none" stroke="midnightblue" d="M3209.1,-157.805C3209.1,-148.91 3209.1,-138.78 3209.1,-131.751"/>
<polygon fill="midnightblue" stroke="midnightblue" points="3205.6,-158.083 3209.1,-168.083 3212.6,-158.083 3205.6,-158.083"/>
</g>
<!-- Node35&#45;&gt;Node16 -->
<g id="edge128" class="edge"><title>Node35&#45;&gt;Node16</title>
<path fill="none" stroke="midnightblue" d="M3131.9,-111.167C3051.84,-100.972 2927.98,-85.1963 2851.97,-75.5164"/>
<polygon fill="midnightblue" stroke="midnightblue" points="3131.56,-114.652 3141.92,-112.444 3132.44,-107.708 3131.56,-114.652"/>
</g>
<!-- Node36&#45;&gt;Node3 -->
<g id="edge134" class="edge"><title>Node36&#45;&gt;Node3</title>
<path fill="none" stroke="midnightblue" d="M379.073,-391.798C285.91,-376.932 127.105,-343.841 127.105,-291 127.105,-291 127.105,-291 127.105,-233 127.105,-194.999 120.525,-149.978 117.543,-131.529"/>
<polygon fill="midnightblue" stroke="midnightblue" points="378.564,-395.261 388.985,-393.351 379.647,-388.346 378.564,-395.261"/>
</g>
</g>
</svg>
