<?xml version="1.0" encoding="UTF-8" standalone="no"?>
<!DOCTYPE svg PUBLIC "-//W3C//DTD SVG 1.1//EN"
 "http://www.w3.org/Graphics/SVG/1.1/DTD/svg11.dtd">
<!-- Generated by graphviz version 2.28.0 (20111204.1018)
 -->
<!-- Title: G Pages: 1 -->
<svg width="419pt" height="364pt"
 viewBox="0.00 0.00 419.00 364.00" xmlns="http://www.w3.org/2000/svg" xmlns:xlink="http://www.w3.org/1999/xlink">
<g id="graph1" class="graph" transform="scale(1 1) rotate(0) translate(4 360)">
<title>G</title>
<polygon fill="white" stroke="white" points="-4,5 -4,-360 415.998,-360 415.998,5 -4,5"/>
<!-- Node1 -->
<g id="node1" class="node"><title>Node1</title>
<polygon fill="#bfbfbf" stroke="black" points="0,-336.5 0,-355.5 178,-355.5 178,-336.5 0,-336.5"/>
<text text-anchor="middle" x="89" y="-343.5" font-family="Helvetica,sans-Serif" font-size="10.00">src/MPD/AbstractClientExtension.hh</text>
</g>
<!-- Node2 -->
<g id="node3" class="node"><title>Node2</title>
<a xlink:href="BaseClient_8hh.html" target="_top" xlink:title="BaseClient.hh">
<polygon fill="white" stroke="black" points="50,-280.5 50,-299.5 128,-299.5 128,-280.5 50,-280.5"/>
<text text-anchor="middle" x="89" y="-287.5" font-family="Helvetica,sans-Serif" font-size="10.00">BaseClient.hh</text>
</a>
</g>
<!-- Node1&#45;&gt;Node2 -->
<g id="edge2" class="edge"><title>Node1&#45;&gt;Node2</title>
<path fill="none" stroke="midnightblue" d="M89,-336.083C89,-329.006 89,-318.861 89,-309.986"/>
<polygon fill="midnightblue" stroke="midnightblue" points="92.5001,-309.751 89,-299.751 85.5001,-309.751 92.5001,-309.751"/>
</g>
<!-- Node3 -->
<g id="node5" class="node"><title>Node3</title>
<a xlink:href="Listener_8hh.html" target="_top" xlink:title="Listener.hh">
<polygon fill="white" stroke="black" points="170.5,-224.5 170.5,-243.5 235.5,-243.5 235.5,-224.5 170.5,-224.5"/>
<text text-anchor="middle" x="203" y="-231.5" font-family="Helvetica,sans-Serif" font-size="10.00">Listener.hh</text>
</a>
</g>
<!-- Node2&#45;&gt;Node3 -->
<g id="edge4" class="edge"><title>Node2&#45;&gt;Node3</title>
<path fill="none" stroke="midnightblue" d="M107.064,-280.444C125.575,-271.675 154.581,-257.935 175.855,-247.858"/>
<polygon fill="midnightblue" stroke="midnightblue" points="177.482,-250.96 185.021,-243.516 174.485,-244.634 177.482,-250.96"/>
</g>
<!-- Node10 -->
<g id="node20" class="node"><title>Node10</title>
<a xlink:href="Connection_8hh.html" target="_top" xlink:title="Connection.hh">
<polygon fill="white" stroke="black" points="82,-112.5 82,-131.5 162,-131.5 162,-112.5 82,-112.5"/>
<text text-anchor="middle" x="122" y="-119.5" font-family="Helvetica,sans-Serif" font-size="10.00">Connection.hh</text>
</a>
</g>
<!-- Node2&#45;&gt;Node10 -->
<g id="edge44" class="edge"><title>Node2&#45;&gt;Node10</title>
<path fill="none" stroke="midnightblue" d="M79.3067,-280.436C57.5337,-260.14 8.50698,-207.83 33,-168 42.5528,-152.465 59.3108,-142.096 75.728,-135.272"/>
<polygon fill="midnightblue" stroke="midnightblue" points="77.1835,-138.463 85.2978,-131.651 74.7063,-131.916 77.1835,-138.463"/>
</g>
<!-- Node4 -->
<g id="node7" class="node"><title>Node4</title>
<polygon fill="white" stroke="#bfbfbf" points="282,-56.5 282,-75.5 352,-75.5 352,-56.5 282,-56.5"/>
<text text-anchor="middle" x="317" y="-63.5" font-family="Helvetica,sans-Serif" font-size="10.00">mpd/client.h</text>
</g>
<!-- Node3&#45;&gt;Node4 -->
<g id="edge6" class="edge"><title>Node3&#45;&gt;Node4</title>
<path fill="none" stroke="midnightblue" d="M235.68,-230.914C271.585,-227.191 329.523,-216.83 370,-188 394.499,-170.55 399.166,-160.752 408,-132 410.611,-123.503 412.69,-119.551 408,-112 397.722,-95.4512 379.355,-84.8039 361.8,-78.0469"/>
<polygon fill="midnightblue" stroke="midnightblue" points="362.783,-74.6826 352.188,-74.6805 360.469,-81.2891 362.783,-74.6826"/>
</g>
<!-- Node5 -->
<g id="node9" class="node"><title>Node5</title>
<polygon fill="white" stroke="#bfbfbf" points="42.5,-168.5 42.5,-187.5 115.5,-187.5 115.5,-168.5 42.5,-168.5"/>
<text text-anchor="middle" x="79" y="-175.5" font-family="Helvetica,sans-Serif" font-size="10.00">mpd/async.h</text>
</g>
<!-- Node3&#45;&gt;Node5 -->
<g id="edge8" class="edge"><title>Node3&#45;&gt;Node5</title>
<path fill="none" stroke="midnightblue" d="M183.352,-224.444C163.035,-215.596 131.097,-201.687 107.902,-191.586"/>
<polygon fill="midnightblue" stroke="midnightblue" points="109.122,-188.3 98.5562,-187.516 106.327,-194.718 109.122,-188.3"/>
</g>
<!-- Node6 -->
<g id="node11" class="node"><title>Node6</title>
<polygon fill="white" stroke="#bfbfbf" points="134,-168.5 134,-187.5 208,-187.5 208,-168.5 134,-168.5"/>
<text text-anchor="middle" x="171" y="-175.5" font-family="Helvetica,sans-Serif" font-size="10.00">mpd/parser.h</text>
</g>
<!-- Node3&#45;&gt;Node6 -->
<g id="edge10" class="edge"><title>Node3&#45;&gt;Node6</title>
<path fill="none" stroke="midnightblue" d="M197.716,-224.083C193.289,-216.613 186.837,-205.724 181.382,-196.52"/>
<polygon fill="midnightblue" stroke="midnightblue" points="184.295,-194.57 176.186,-187.751 178.273,-198.138 184.295,-194.57"/>
</g>
<!-- Node7 -->
<g id="node13" class="node"><title>Node7</title>
<polygon fill="white" stroke="#bfbfbf" points="76,-56.5 76,-75.5 132,-75.5 132,-56.5 76,-56.5"/>
<text text-anchor="middle" x="104" y="-63.5" font-family="Helvetica,sans-Serif" font-size="10.00">glibmm.h</text>
</g>
<!-- Node3&#45;&gt;Node7 -->
<g id="edge12" class="edge"><title>Node3&#45;&gt;Node7</title>
<path fill="none" stroke="midnightblue" d="M170.262,-229.061C125.714,-222.952 49.6205,-209.592 33,-188 5.68619,-152.515 54.2239,-105.591 83.7521,-81.9597"/>
<polygon fill="midnightblue" stroke="midnightblue" points="86.095,-84.5719 91.8495,-75.676 81.8035,-79.0417 86.095,-84.5719"/>
</g>
<!-- Node8 -->
<g id="node15" class="node"><title>Node8</title>
<a xlink:href="Status_8hh.html" target="_top" xlink:title="Status.hh">
<polygon fill="white" stroke="black" points="340.5,-112.5 340.5,-131.5 399.5,-131.5 399.5,-112.5 340.5,-112.5"/>
<text text-anchor="middle" x="370" y="-119.5" font-family="Helvetica,sans-Serif" font-size="10.00">Status.hh</text>
</a>
</g>
<!-- Node3&#45;&gt;Node8 -->
<g id="edge14" class="edge"><title>Node3&#45;&gt;Node8</title>
<path fill="none" stroke="midnightblue" d="M235.528,-231.612C268.665,-228.457 319.405,-218.552 350,-188 362.13,-175.887 366.934,-156.607 368.82,-142.185"/>
<polygon fill="midnightblue" stroke="midnightblue" points="372.337,-142.174 369.792,-131.89 365.368,-141.517 372.337,-142.174"/>
</g>
<!-- Node9 -->
<g id="node18" class="node"><title>Node9</title>
<a xlink:href="NotifyData_8hh.html" target="_top" xlink:title="NotifyData.hh">
<polygon fill="white" stroke="black" points="264.5,-168.5 264.5,-187.5 341.5,-187.5 341.5,-168.5 264.5,-168.5"/>
<text text-anchor="middle" x="303" y="-175.5" font-family="Helvetica,sans-Serif" font-size="10.00">NotifyData.hh</text>
</a>
</g>
<!-- Node3&#45;&gt;Node9 -->
<g id="edge18" class="edge"><title>Node3&#45;&gt;Node9</title>
<path fill="none" stroke="midnightblue" d="M219.067,-224.324C234.958,-215.743 259.507,-202.486 277.958,-192.522"/>
<polygon fill="midnightblue" stroke="midnightblue" points="279.837,-195.486 286.973,-187.655 276.511,-189.326 279.837,-195.486"/>
</g>
<!-- Node3&#45;&gt;Node10 -->
<g id="edge42" class="edge"><title>Node3&#45;&gt;Node10</title>
<path fill="none" stroke="midnightblue" d="M208.649,-224.296C216.419,-211.117 228.235,-185.753 217,-168 206.79,-151.865 189.057,-141.403 171.657,-134.671"/>
<polygon fill="midnightblue" stroke="midnightblue" points="172.669,-131.317 162.074,-131.302 170.347,-137.92 172.669,-131.317"/>
</g>
<!-- Node8&#45;&gt;Node4 -->
<g id="edge16" class="edge"><title>Node8&#45;&gt;Node4</title>
<path fill="none" stroke="midnightblue" d="M361.248,-112.083C353.53,-104.22 342.095,-92.5688 332.783,-83.0813"/>
<polygon fill="midnightblue" stroke="midnightblue" points="335.092,-80.4363 325.589,-75.7511 330.096,-85.3396 335.092,-80.4363"/>
</g>
<!-- Node9&#45;&gt;Node8 -->
<g id="edge30" class="edge"><title>Node9&#45;&gt;Node8</title>
<path fill="none" stroke="midnightblue" d="M313.765,-168.324C323.766,-160.263 338.887,-148.077 350.93,-138.369"/>
<polygon fill="midnightblue" stroke="midnightblue" points="353.45,-140.834 359.039,-131.834 349.057,-135.384 353.45,-140.834"/>
</g>
<!-- Node9&#45;&gt;Node10 -->
<g id="edge20" class="edge"><title>Node9&#45;&gt;Node10</title>
<path fill="none" stroke="midnightblue" d="M274.32,-168.444C243.473,-159.241 194.272,-144.562 160.171,-134.388"/>
<polygon fill="midnightblue" stroke="midnightblue" points="161.129,-131.021 150.546,-131.516 159.128,-137.729 161.129,-131.021"/>
</g>
<!-- Node11 -->
<g id="node24" class="node"><title>Node11</title>
<a xlink:href="Statistics_8hh.html" target="_top" xlink:title="Statistics.hh">
<polygon fill="white" stroke="black" points="251.5,-112.5 251.5,-131.5 322.5,-131.5 322.5,-112.5 251.5,-112.5"/>
<text text-anchor="middle" x="287" y="-119.5" font-family="Helvetica,sans-Serif" font-size="10.00">Statistics.hh</text>
</a>
</g>
<!-- Node9&#45;&gt;Node11 -->
<g id="edge26" class="edge"><title>Node9&#45;&gt;Node11</title>
<path fill="none" stroke="midnightblue" d="M300.358,-168.083C298.214,-160.849 295.121,-150.409 292.451,-141.397"/>
<polygon fill="midnightblue" stroke="midnightblue" points="295.79,-140.345 289.593,-131.751 289.078,-142.333 295.79,-140.345"/>
</g>
<!-- Node12 -->
<g id="node28" class="node"><title>Node12</title>
<a xlink:href="Song_8hh.html" target="_top" xlink:title="Song.hh">
<polygon fill="white" stroke="black" points="180.5,-112.5 180.5,-131.5 233.5,-131.5 233.5,-112.5 180.5,-112.5"/>
<text text-anchor="middle" x="207" y="-119.5" font-family="Helvetica,sans-Serif" font-size="10.00">Song.hh</text>
</a>
</g>
<!-- Node9&#45;&gt;Node12 -->
<g id="edge32" class="edge"><title>Node9&#45;&gt;Node12</title>
<path fill="none" stroke="midnightblue" d="M287.576,-168.324C272.46,-159.822 249.185,-146.729 231.529,-136.797"/>
<polygon fill="midnightblue" stroke="midnightblue" points="232.817,-133.507 222.386,-131.655 229.386,-139.608 232.817,-133.507"/>
</g>
<!-- Node10&#45;&gt;Node4 -->
<g id="edge22" class="edge"><title>Node10&#45;&gt;Node4</title>
<path fill="none" stroke="midnightblue" d="M152.898,-112.444C186.274,-103.201 239.594,-88.4356 276.349,-78.2572"/>
<polygon fill="midnightblue" stroke="midnightblue" points="277.543,-81.5583 286.246,-75.5164 275.675,-74.8122 277.543,-81.5583"/>
</g>
<!-- Node10&#45;&gt;Node7 -->
<g id="edge24" class="edge"><title>Node10&#45;&gt;Node7</title>
<path fill="none" stroke="midnightblue" d="M119.028,-112.083C116.616,-104.849 113.136,-94.4087 110.132,-85.3968"/>
<polygon fill="midnightblue" stroke="midnightblue" points="113.4,-84.1311 106.917,-75.7511 106.759,-86.3447 113.4,-84.1311"/>
</g>
<!-- Node11&#45;&gt;Node4 -->
<g id="edge28" class="edge"><title>Node11&#45;&gt;Node4</title>
<path fill="none" stroke="midnightblue" d="M291.954,-112.083C296.104,-104.613 302.153,-93.7244 307.267,-84.5199"/>
<polygon fill="midnightblue" stroke="midnightblue" points="310.341,-86.1924 312.138,-75.7511 304.222,-82.7929 310.341,-86.1924"/>
</g>
<!-- Node12&#45;&gt;Node4 -->
<g id="edge34" class="edge"><title>Node12&#45;&gt;Node4</title>
<path fill="none" stroke="midnightblue" d="M224.673,-112.324C242.394,-103.625 269.903,-90.1202 290.288,-80.113"/>
<polygon fill="midnightblue" stroke="midnightblue" points="291.936,-83.2031 299.37,-75.6545 288.851,-76.9195 291.936,-83.2031"/>
</g>
<!-- Node12&#45;&gt;Node7 -->
<g id="edge40" class="edge"><title>Node12&#45;&gt;Node7</title>
<path fill="none" stroke="midnightblue" d="M190.451,-112.324C174.008,-103.703 148.565,-90.3643 129.532,-80.3855"/>
<polygon fill="midnightblue" stroke="midnightblue" points="130.989,-77.198 120.508,-75.6545 127.739,-83.3977 130.989,-77.198"/>
</g>
<!-- Node13 -->
<g id="node31" class="node"><title>Node13</title>
<a xlink:href="AbstractComposite_8hh.html" target="_top" xlink:title="AbstractComposite.hh">
<polygon fill="white" stroke="black" points="150,-56.5 150,-75.5 264,-75.5 264,-56.5 150,-56.5"/>
<text text-anchor="middle" x="207" y="-63.5" font-family="Helvetica,sans-Serif" font-size="10.00">AbstractComposite.hh</text>
</a>
</g>
<!-- Node12&#45;&gt;Node13 -->
<g id="edge36" class="edge"><title>Node12&#45;&gt;Node13</title>
<path fill="none" stroke="midnightblue" d="M207,-112.083C207,-105.006 207,-94.8611 207,-85.9865"/>
<polygon fill="midnightblue" stroke="midnightblue" points="210.5,-85.751 207,-75.7511 203.5,-85.7511 210.5,-85.751"/>
</g>
<!-- Node14 -->
<g id="node33" class="node"><title>Node14</title>
<polygon fill="white" stroke="#bfbfbf" points="185,-0.5 185,-19.5 229,-19.5 229,-0.5 185,-0.5"/>
<text text-anchor="middle" x="207" y="-7.5" font-family="Helvetica,sans-Serif" font-size="10.00">vector</text>
</g>
<!-- Node13&#45;&gt;Node14 -->
<g id="edge38" class="edge"><title>Node13&#45;&gt;Node14</title>
<path fill="none" stroke="midnightblue" d="M207,-56.083C207,-49.0059 207,-38.8611 207,-29.9865"/>
<polygon fill="midnightblue" stroke="midnightblue" points="210.5,-29.751 207,-19.7511 203.5,-29.7511 210.5,-29.751"/>
</g>
</g>
</svg>
