<?xml version="1.0" encoding="UTF-8" standalone="no"?>
<!DOCTYPE svg PUBLIC "-//W3C//DTD SVG 1.1//EN"
 "http://www.w3.org/Graphics/SVG/1.1/DTD/svg11.dtd">
<!-- Generated by graphviz version 2.28.0 (20111204.1018)
 -->
<!-- Title: G Pages: 1 -->
<svg width="3497pt" height="308pt"
 viewBox="0.00 0.00 3497.00 308.00" xmlns="http://www.w3.org/2000/svg" xmlns:xlink="http://www.w3.org/1999/xlink">
<g id="graph1" class="graph" transform="scale(1 1) rotate(0) translate(4 304)">
<title>G</title>
<polygon fill="white" stroke="white" points="-4,5 -4,-304 3494,-304 3494,5 -4,5"/>
<!-- Node1 -->
<g id="node1" class="node"><title>Node1</title>
<polygon fill="#bfbfbf" stroke="black" points="2121.5,-280.5 2121.5,-299.5 2292.5,-299.5 2292.5,-280.5 2121.5,-280.5"/>
<text text-anchor="middle" x="2207" y="-287.5" font-family="Helvetica,sans-Serif" font-size="10.00">src/MPD/AbstractItemGenerator.hh</text>
</g>
<!-- Node2 -->
<g id="node3" class="node"><title>Node2</title>
<a xlink:href="Client_8hh.html" target="_top" xlink:title="src/MPD/Client.hh">
<polygon fill="white" stroke="black" points="2158,-224.5 2158,-243.5 2256,-243.5 2256,-224.5 2158,-224.5"/>
<text text-anchor="middle" x="2207" y="-231.5" font-family="Helvetica,sans-Serif" font-size="10.00">src/MPD/Client.hh</text>
</a>
</g>
<!-- Node1&#45;&gt;Node2 -->
<g id="edge2" class="edge"><title>Node1&#45;&gt;Node2</title>
<path fill="none" stroke="midnightblue" d="M2207,-269.805C2207,-260.91 2207,-250.78 2207,-243.751"/>
<polygon fill="midnightblue" stroke="midnightblue" points="2203.5,-270.083 2207,-280.083 2210.5,-270.083 2203.5,-270.083"/>
</g>
<!-- Node3 -->
<g id="node5" class="node"><title>Node3</title>
<a xlink:href="AbstractClientUser_8hh.html" target="_top" xlink:title="src/MPD/AbstractClientUser.hh">
<polygon fill="white" stroke="black" points="1724.5,-168.5 1724.5,-187.5 1879.5,-187.5 1879.5,-168.5 1724.5,-168.5"/>
<text text-anchor="middle" x="1802" y="-175.5" font-family="Helvetica,sans-Serif" font-size="10.00">src/MPD/AbstractClientUser.hh</text>
</a>
</g>
<!-- Node2&#45;&gt;Node3 -->
<g id="edge4" class="edge"><title>Node2&#45;&gt;Node3</title>
<path fill="none" stroke="midnightblue" d="M2147.49,-225.066C2072.23,-215.031 1943.16,-197.822 1865.88,-187.518"/>
<polygon fill="midnightblue" stroke="midnightblue" points="2147.37,-228.58 2157.74,-226.433 2148.29,-221.642 2147.37,-228.58"/>
</g>
<!-- Node4 -->
<g id="node7" class="node"><title>Node4</title>
<a xlink:href="Database_8hh.html" target="_top" xlink:title="src/Browser/Database/Database.hh">
<polygon fill="white" stroke="black" points="218.5,-112.5 218.5,-131.5 391.5,-131.5 391.5,-112.5 218.5,-112.5"/>
<text text-anchor="middle" x="305" y="-119.5" font-family="Helvetica,sans-Serif" font-size="10.00">src/Browser/Database/Database.hh</text>
</a>
</g>
<!-- Node2&#45;&gt;Node4 -->
<g id="edge62" class="edge"><title>Node2&#45;&gt;Node4</title>
<path fill="none" stroke="midnightblue" d="M2147.61,-232.096C1909.52,-228.329 1023.49,-212.904 744,-188 599.533,-175.127 430.148,-146.038 350.612,-131.543"/>
<polygon fill="midnightblue" stroke="midnightblue" points="2147.74,-235.598 2157.8,-232.256 2147.85,-228.599 2147.74,-235.598"/>
</g>
<!-- Node6 -->
<g id="node11" class="node"><title>Node6</title>
<a xlink:href="PlaylistManager_8hh.html" target="_top" xlink:title="src/Browser/PlaylistManager/PlaylistManager.hh">
<polygon fill="white" stroke="black" points="410,-112.5 410,-131.5 638,-131.5 638,-112.5 410,-112.5"/>
<text text-anchor="middle" x="524" y="-119.5" font-family="Helvetica,sans-Serif" font-size="10.00">src/Browser/PlaylistManager/PlaylistManager.hh</text>
</a>
</g>
<!-- Node2&#45;&gt;Node6 -->
<g id="edge64" class="edge"><title>Node2&#45;&gt;Node6</title>
<path fill="none" stroke="midnightblue" d="M2147.64,-232.101C1924.68,-228.55 1137.39,-214.385 888,-188 767.666,-175.269 627.189,-146.045 561.476,-131.519"/>
<polygon fill="midnightblue" stroke="midnightblue" points="2147.77,-235.603 2157.82,-232.262 2147.88,-228.604 2147.77,-235.603"/>
</g>
<!-- Node7 -->
<g id="node13" class="node"><title>Node7</title>
<a xlink:href="PlaylistAddDialog_8hh.html" target="_top" xlink:title="src/Browser/Queue/PlaylistAddDialog.hh">
<polygon fill="white" stroke="black" points="1058,-112.5 1058,-131.5 1252,-131.5 1252,-112.5 1058,-112.5"/>
<text text-anchor="middle" x="1155" y="-119.5" font-family="Helvetica,sans-Serif" font-size="10.00">src/Browser/Queue/PlaylistAddDialog.hh</text>
</a>
</g>
<!-- Node2&#45;&gt;Node7 -->
<g id="edge66" class="edge"><title>Node2&#45;&gt;Node7</title>
<path fill="none" stroke="midnightblue" d="M2147.72,-228.047C2055.24,-220.215 1871.04,-204.189 1715,-188 1537.82,-169.617 1329.53,-144.519 1223.91,-131.546"/>
<polygon fill="midnightblue" stroke="midnightblue" points="2147.47,-231.538 2157.73,-228.893 2148.06,-224.563 2147.47,-231.538"/>
</g>
<!-- Node8 -->
<g id="node15" class="node"><title>Node8</title>
<a xlink:href="Queue_8hh.html" target="_top" xlink:title="src/Browser/Queue/Queue.hh">
<polygon fill="white" stroke="black" points="1144,-56.5 1144,-75.5 1290,-75.5 1290,-56.5 1144,-56.5"/>
<text text-anchor="middle" x="1217" y="-63.5" font-family="Helvetica,sans-Serif" font-size="10.00">src/Browser/Queue/Queue.hh</text>
</a>
</g>
<!-- Node2&#45;&gt;Node8 -->
<g id="edge68" class="edge"><title>Node2&#45;&gt;Node8</title>
<path fill="none" stroke="midnightblue" d="M2147.64,-232.464C1921.47,-229.81 1122.76,-214.612 1049,-132 1016.77,-95.8994 1084.89,-79.6921 1143.82,-72.519"/>
<polygon fill="midnightblue" stroke="midnightblue" points="2147.93,-235.968 2157.97,-232.581 2148.01,-228.968 2147.93,-235.968"/>
</g>
<!-- Node10 -->
<g id="node21" class="node"><title>Node10</title>
<a xlink:href="SettingsPlayback_8hh.html" target="_top" xlink:title="src/Browser/Settings/SettingsPlayback.hh">
<polygon fill="white" stroke="black" points="-0.5,-112.5 -0.5,-131.5 200.5,-131.5 200.5,-112.5 -0.5,-112.5"/>
<text text-anchor="middle" x="100" y="-119.5" font-family="Helvetica,sans-Serif" font-size="10.00">src/Browser/Settings/SettingsPlayback.hh</text>
</a>
</g>
<!-- Node2&#45;&gt;Node10 -->
<g id="edge70" class="edge"><title>Node2&#45;&gt;Node10</title>
<path fill="none" stroke="midnightblue" d="M2147.48,-232.198C1893.1,-228.639 895.991,-213.325 583,-188 424.24,-175.154 237.791,-146.053 150.223,-131.549"/>
<polygon fill="midnightblue" stroke="midnightblue" points="2147.58,-235.699 2157.62,-232.339 2147.67,-228.7 2147.58,-235.699"/>
</g>
<!-- Node12 -->
<g id="node25" class="node"><title>Node12</title>
<a xlink:href="Trayicon_8hh.html" target="_top" xlink:title="src/GManager/Trayicon.hh">
<polygon fill="white" stroke="black" points="870,-112.5 870,-131.5 1002,-131.5 1002,-112.5 870,-112.5"/>
<text text-anchor="middle" x="936" y="-119.5" font-family="Helvetica,sans-Serif" font-size="10.00">src/GManager/Trayicon.hh</text>
</a>
</g>
<!-- Node2&#45;&gt;Node12 -->
<g id="edge72" class="edge"><title>Node2&#45;&gt;Node12</title>
<path fill="none" stroke="midnightblue" d="M2147.76,-232.956C1921.9,-232.49 1122.27,-228.004 1016,-188 984.514,-176.147 956.128,-146.648 943.27,-131.813"/>
<polygon fill="midnightblue" stroke="midnightblue" points="2147.75,-236.456 2157.76,-232.975 2147.76,-229.456 2147.75,-236.456"/>
</g>
<!-- Node14 -->
<g id="node31" class="node"><title>Node14</title>
<a xlink:href="SettingsOutputs_8hh.html" target="_top" xlink:title="src/Browser/Settings/SettingsOutputs.hh">
<polygon fill="white" stroke="black" points="656.5,-112.5 656.5,-131.5 851.5,-131.5 851.5,-112.5 656.5,-112.5"/>
<text text-anchor="middle" x="754" y="-119.5" font-family="Helvetica,sans-Serif" font-size="10.00">src/Browser/Settings/SettingsOutputs.hh</text>
</a>
</g>
<!-- Node2&#45;&gt;Node14 -->
<g id="edge74" class="edge"><title>Node2&#45;&gt;Node14</title>
<path fill="none" stroke="midnightblue" d="M2147.76,-232.745C1934.73,-231.53 1208.15,-224.728 979,-188 903.121,-175.838 816.644,-146.205 776.576,-131.527"/>
<polygon fill="midnightblue" stroke="midnightblue" points="2147.79,-236.245 2157.81,-232.8 2147.83,-229.245 2147.79,-236.245"/>
</g>
<!-- Node16 -->
<g id="node36" class="node"><title>Node16</title>
<a xlink:href="Heartbeat_8hh.html" target="_top" xlink:title="src/GManager/Heartbeat.hh">
<polygon fill="white" stroke="black" points="2138.5,-112.5 2138.5,-131.5 2275.5,-131.5 2275.5,-112.5 2138.5,-112.5"/>
<text text-anchor="middle" x="2207" y="-119.5" font-family="Helvetica,sans-Serif" font-size="10.00">src/GManager/Heartbeat.hh</text>
</a>
</g>
<!-- Node2&#45;&gt;Node16 -->
<g id="edge78" class="edge"><title>Node2&#45;&gt;Node16</title>
<path fill="none" stroke="midnightblue" d="M2207,-214.348C2207,-190.254 2207,-149.308 2207,-131.591"/>
<polygon fill="midnightblue" stroke="midnightblue" points="2203.5,-214.368 2207,-224.368 2210.5,-214.369 2203.5,-214.368"/>
</g>
<!-- Node17 -->
<g id="node38" class="node"><title>Node17</title>
<a xlink:href="Statusbar_8hh.html" target="_top" xlink:title="src/GManager/Statusbar.hh">
<polygon fill="white" stroke="black" points="2138.5,-56.5 2138.5,-75.5 2275.5,-75.5 2275.5,-56.5 2138.5,-56.5"/>
<text text-anchor="middle" x="2207" y="-63.5" font-family="Helvetica,sans-Serif" font-size="10.00">src/GManager/Statusbar.hh</text>
</a>
</g>
<!-- Node2&#45;&gt;Node17 -->
<g id="edge84" class="edge"><title>Node2&#45;&gt;Node17</title>
<path fill="none" stroke="midnightblue" d="M2266.15,-227.057C2349.23,-218.658 2505.2,-202.695 2638,-188 2852.24,-164.293 3265.61,-268.137 3117,-112 3088.1,-81.6367 2483,-70.702 2275.85,-67.8402"/>
<polygon fill="midnightblue" stroke="midnightblue" points="2265.74,-223.581 2256.15,-228.068 2266.45,-230.545 2265.74,-223.581"/>
</g>
<!-- Node19 -->
<g id="node42" class="node"><title>Node19</title>
<a xlink:href="MenuList_8hh.html" target="_top" xlink:title="src/GManager/MenuList.hh">
<polygon fill="white" stroke="black" points="2294,-112.5 2294,-131.5 2428,-131.5 2428,-112.5 2294,-112.5"/>
<text text-anchor="middle" x="2361" y="-119.5" font-family="Helvetica,sans-Serif" font-size="10.00">src/GManager/MenuList.hh</text>
</a>
</g>
<!-- Node2&#45;&gt;Node19 -->
<g id="edge80" class="edge"><title>Node2&#45;&gt;Node19</title>
<path fill="none" stroke="midnightblue" d="M2227.42,-218.417C2259.99,-195.151 2322.71,-150.35 2348.97,-131.591"/>
<polygon fill="midnightblue" stroke="midnightblue" points="2225.19,-215.708 2219.08,-224.368 2229.26,-221.404 2225.19,-215.708"/>
</g>
<!-- Node21 -->
<g id="node46" class="node"><title>Node21</title>
<a xlink:href="PlaybackButtons_8hh.html" target="_top" xlink:title="src/GManager/PlaybackButtons.hh">
<polygon fill="white" stroke="black" points="2446.5,-112.5 2446.5,-131.5 2615.5,-131.5 2615.5,-112.5 2446.5,-112.5"/>
<text text-anchor="middle" x="2531" y="-119.5" font-family="Helvetica,sans-Serif" font-size="10.00">src/GManager/PlaybackButtons.hh</text>
</a>
</g>
<!-- Node2&#45;&gt;Node21 -->
<g id="edge82" class="edge"><title>Node2&#45;&gt;Node21</title>
<path fill="none" stroke="midnightblue" d="M2241.63,-221.241C2307.2,-198.983 2448.02,-151.172 2505.64,-131.61"/>
<polygon fill="midnightblue" stroke="midnightblue" points="2240.5,-217.931 2232.15,-224.46 2242.75,-224.559 2240.5,-217.931"/>
</g>
<!-- Node22 -->
<g id="node49" class="node"><title>Node22</title>
<a xlink:href="StatusIcons_8hh.html" target="_top" xlink:title="src/GManager/StatusIcons.hh">
<polygon fill="white" stroke="black" points="2633.5,-112.5 2633.5,-131.5 2780.5,-131.5 2780.5,-112.5 2633.5,-112.5"/>
<text text-anchor="middle" x="2707" y="-119.5" font-family="Helvetica,sans-Serif" font-size="10.00">src/GManager/StatusIcons.hh</text>
</a>
</g>
<!-- Node2&#45;&gt;Node22 -->
<g id="edge86" class="edge"><title>Node2&#45;&gt;Node22</title>
<path fill="none" stroke="midnightblue" d="M2255.87,-222.249C2355.05,-200.43 2578.15,-151.347 2668.21,-131.535"/>
<polygon fill="midnightblue" stroke="midnightblue" points="2254.83,-218.893 2245.82,-224.46 2256.34,-225.73 2254.83,-218.893"/>
</g>
<!-- Node23 -->
<g id="node52" class="node"><title>Node23</title>
<a xlink:href="TitleLabel_8hh.html" target="_top" xlink:title="src/GManager/TitleLabel.hh">
<polygon fill="white" stroke="black" points="2798.5,-112.5 2798.5,-131.5 2935.5,-131.5 2935.5,-112.5 2798.5,-112.5"/>
<text text-anchor="middle" x="2867" y="-119.5" font-family="Helvetica,sans-Serif" font-size="10.00">src/GManager/TitleLabel.hh</text>
</a>
</g>
<!-- Node2&#45;&gt;Node23 -->
<g id="edge88" class="edge"><title>Node2&#45;&gt;Node23</title>
<path fill="none" stroke="midnightblue" d="M2266.08,-223.153C2394.1,-201.817 2695.25,-151.625 2815.8,-131.534"/>
<polygon fill="midnightblue" stroke="midnightblue" points="2265.36,-219.726 2256.07,-224.822 2266.51,-226.63 2265.36,-219.726"/>
</g>
<!-- Node24 -->
<g id="node54" class="node"><title>Node24</title>
<a xlink:href="Volumebutton_8hh.html" target="_top" xlink:title="src/GManager/Volumebutton.hh">
<polygon fill="white" stroke="black" points="2953.5,-112.5 2953.5,-131.5 3108.5,-131.5 3108.5,-112.5 2953.5,-112.5"/>
<text text-anchor="middle" x="3031" y="-119.5" font-family="Helvetica,sans-Serif" font-size="10.00">src/GManager/Volumebutton.hh</text>
</a>
</g>
<!-- Node2&#45;&gt;Node24 -->
<g id="edge90" class="edge"><title>Node2&#45;&gt;Node24</title>
<path fill="none" stroke="midnightblue" d="M2266.17,-225.342C2334.72,-216.452 2451.05,-201.305 2551,-188 2701.05,-168.027 2877.39,-144.006 2968.88,-131.504"/>
<polygon fill="midnightblue" stroke="midnightblue" points="2265.47,-221.904 2256,-226.661 2266.37,-228.846 2265.47,-221.904"/>
</g>
<!-- Node25 -->
<g id="node63" class="node"><title>Node25</title>
<a xlink:href="StatBrowser_8hh.html" target="_top" xlink:title="src/Browser/Statistics/StatBrowser.hh">
<polygon fill="white" stroke="black" points="3165,-168.5 3165,-187.5 3349,-187.5 3349,-168.5 3165,-168.5"/>
<text text-anchor="middle" x="3257" y="-175.5" font-family="Helvetica,sans-Serif" font-size="10.00">src/Browser/Statistics/StatBrowser.hh</text>
</a>
</g>
<!-- Node2&#45;&gt;Node25 -->
<g id="edge76" class="edge"><title>Node2&#45;&gt;Node25</title>
<path fill="none" stroke="midnightblue" d="M2266.46,-230.932C2415.47,-225.582 2816.85,-210.142 3151,-188 3155.52,-187.701 3160.14,-187.376 3164.8,-187.035"/>
<polygon fill="midnightblue" stroke="midnightblue" points="2266.04,-227.444 2256.17,-231.299 2266.29,-234.44 2266.04,-227.444"/>
</g>
<!-- Node26 -->
<g id="node72" class="node"><title>Node26</title>
<a xlink:href="check__mpd_8hh.html" target="_top" xlink:title="src/MPD/check_mpd.hh">
<polygon fill="white" stroke="black" points="3367,-168.5 3367,-187.5 3489,-187.5 3489,-168.5 3367,-168.5"/>
<text text-anchor="middle" x="3428" y="-175.5" font-family="Helvetica,sans-Serif" font-size="10.00">src/MPD/check_mpd.hh</text>
</a>
</g>
<!-- Node2&#45;&gt;Node26 -->
<g id="edge92" class="edge"><title>Node2&#45;&gt;Node26</title>
<path fill="none" stroke="midnightblue" d="M2266.43,-232.536C2436.73,-230.807 2941.01,-222.888 3358,-188 3360.93,-187.755 3363.93,-187.477 3366.95,-187.173"/>
<polygon fill="midnightblue" stroke="midnightblue" points="2266.14,-229.039 2256.18,-232.637 2266.21,-236.039 2266.14,-229.039"/>
</g>
<!-- Node3&#45;&gt;Node4 -->
<g id="edge6" class="edge"><title>Node3&#45;&gt;Node4</title>
<path fill="none" stroke="midnightblue" d="M1714.23,-176.051C1493.44,-173.257 897.091,-163.192 401,-132 397.909,-131.806 394.764,-131.592 391.588,-131.364"/>
<polygon fill="midnightblue" stroke="midnightblue" points="1714.42,-179.553 1724.46,-176.178 1714.51,-172.554 1714.42,-179.553"/>
</g>
<!-- Node5 -->
<g id="node9" class="node"><title>Node5</title>
<a xlink:href="DatabaseCache_8hh.html" target="_top" xlink:title="src/Browser/Database/DatabaseCache.hh">
<polygon fill="white" stroke="black" points="1880.5,-112.5 1880.5,-131.5 2081.5,-131.5 2081.5,-112.5 1880.5,-112.5"/>
<text text-anchor="middle" x="1981" y="-119.5" font-family="Helvetica,sans-Serif" font-size="10.00">src/Browser/Database/DatabaseCache.hh</text>
</a>
</g>
<!-- Node3&#45;&gt;Node5 -->
<g id="edge8" class="edge"><title>Node3&#45;&gt;Node5</title>
<path fill="none" stroke="midnightblue" d="M1840.33,-165.436C1874.08,-155.255 1922.45,-140.664 1952.77,-131.516"/>
<polygon fill="midnightblue" stroke="midnightblue" points="1838.93,-162.204 1830.36,-168.444 1840.95,-168.906 1838.93,-162.204"/>
</g>
<!-- Node3&#45;&gt;Node6 -->
<g id="edge10" class="edge"><title>Node3&#45;&gt;Node6</title>
<path fill="none" stroke="midnightblue" d="M1714.13,-174.599C1521.01,-169.098 1045.1,-154.313 647,-132 644.114,-131.838 641.19,-131.669 638.241,-131.492"/>
<polygon fill="midnightblue" stroke="midnightblue" points="1714.13,-178.1 1724.22,-174.886 1714.33,-171.103 1714.13,-178.1"/>
</g>
<!-- Node3&#45;&gt;Node7 -->
<g id="edge12" class="edge"><title>Node3&#45;&gt;Node7</title>
<path fill="none" stroke="midnightblue" d="M1713.98,-169.653C1593.34,-159.585 1377.37,-141.559 1252.13,-131.107"/>
<polygon fill="midnightblue" stroke="midnightblue" points="1714.02,-173.169 1724.28,-170.513 1714.6,-166.193 1714.02,-173.169"/>
</g>
<!-- Node3&#45;&gt;Node8 -->
<g id="edge16" class="edge"><title>Node3&#45;&gt;Node8</title>
<path fill="none" stroke="midnightblue" d="M1714.08,-175.172C1590.46,-171.58 1372.16,-161.201 1299,-132 1267.28,-119.34 1237.93,-90.2196 1224.57,-75.6424"/>
<polygon fill="midnightblue" stroke="midnightblue" points="1714.18,-178.677 1724.28,-175.46 1714.38,-171.679 1714.18,-178.677"/>
</g>
<!-- Node9 -->
<g id="node18" class="node"><title>Node9</title>
<a xlink:href="QueueMerger_8hh.html" target="_top" xlink:title="src/Browser/Queue/QueueMerger.hh">
<polygon fill="white" stroke="black" points="1308,-112.5 1308,-131.5 1484,-131.5 1484,-112.5 1308,-112.5"/>
<text text-anchor="middle" x="1396" y="-119.5" font-family="Helvetica,sans-Serif" font-size="10.00">src/Browser/Queue/QueueMerger.hh</text>
</a>
</g>
<!-- Node3&#45;&gt;Node9 -->
<g id="edge18" class="edge"><title>Node3&#45;&gt;Node9</title>
<path fill="none" stroke="midnightblue" d="M1727.6,-167.105C1650.93,-156.907 1532.66,-141.177 1460.03,-131.516"/>
<polygon fill="midnightblue" stroke="midnightblue" points="1727.29,-170.594 1737.67,-168.444 1728.22,-163.656 1727.29,-170.594"/>
</g>
<!-- Node3&#45;&gt;Node10 -->
<g id="edge22" class="edge"><title>Node3&#45;&gt;Node10</title>
<path fill="none" stroke="midnightblue" d="M1714.35,-176.189C1473.72,-173.604 782.612,-163.76 209,-132 206.251,-131.848 203.464,-131.684 200.651,-131.51"/>
<polygon fill="midnightblue" stroke="midnightblue" points="1714.41,-179.69 1724.44,-176.296 1714.48,-172.69 1714.41,-179.69"/>
</g>
<!-- Node3&#45;&gt;Node12 -->
<g id="edge26" class="edge"><title>Node3&#45;&gt;Node12</title>
<path fill="none" stroke="midnightblue" d="M1714.18,-172.317C1573.66,-164.696 1289.57,-148.767 1049,-132 1033.78,-130.94 1017.43,-129.696 1002.01,-128.478"/>
<polygon fill="midnightblue" stroke="midnightblue" points="1714.29,-175.828 1724.46,-172.873 1714.67,-168.838 1714.29,-175.828"/>
</g>
<!-- Node3&#45;&gt;Node14 -->
<g id="edge34" class="edge"><title>Node3&#45;&gt;Node14</title>
<path fill="none" stroke="midnightblue" d="M1714.31,-173.865C1547.86,-167.679 1174.71,-152.688 861,-132 857.931,-131.798 854.813,-131.584 851.665,-131.361"/>
<polygon fill="midnightblue" stroke="midnightblue" points="1714.36,-177.369 1724.49,-174.242 1714.62,-170.374 1714.36,-177.369"/>
</g>
<!-- Node15 -->
<g id="node34" class="node"><title>Node15</title>
<a xlink:href="BrowserList_8hh.html" target="_top" xlink:title="src/GManager/BrowserList.hh">
<polygon fill="white" stroke="black" points="1678,-112.5 1678,-131.5 1824,-131.5 1824,-112.5 1678,-112.5"/>
<text text-anchor="middle" x="1751" y="-119.5" font-family="Helvetica,sans-Serif" font-size="10.00">src/GManager/BrowserList.hh</text>
</a>
</g>
<!-- Node3&#45;&gt;Node15 -->
<g id="edge38" class="edge"><title>Node3&#45;&gt;Node15</title>
<path fill="none" stroke="midnightblue" d="M1786.62,-160.718C1777.63,-151.2 1766.64,-139.561 1759.26,-131.751"/>
<polygon fill="midnightblue" stroke="midnightblue" points="1784.17,-163.216 1793.58,-168.083 1789.26,-158.41 1784.17,-163.216"/>
</g>
<!-- Node3&#45;&gt;Node16 -->
<g id="edge40" class="edge"><title>Node3&#45;&gt;Node16</title>
<path fill="none" stroke="midnightblue" d="M1876.22,-167.105C1952.69,-156.907 2070.68,-141.177 2143.13,-131.516"/>
<polygon fill="midnightblue" stroke="midnightblue" points="1875.62,-163.653 1866.17,-168.444 1876.55,-170.591 1875.62,-163.653"/>
</g>
<!-- Node3&#45;&gt;Node17 -->
<g id="edge52" class="edge"><title>Node3&#45;&gt;Node17</title>
<path fill="none" stroke="midnightblue" d="M1889.81,-171.333C1947.88,-165.647 2024.99,-154.345 2090,-132 2100.71,-128.318 2162.99,-92.5313 2192.06,-75.6858"/>
<polygon fill="midnightblue" stroke="midnightblue" points="1889.2,-167.876 1879.57,-172.298 1889.85,-174.845 1889.2,-167.876"/>
</g>
<!-- Node18 -->
<g id="node40" class="node"><title>Node18</title>
<a xlink:href="Timeslide_8hh.html" target="_top" xlink:title="src/GManager/Timeslide.hh">
<polygon fill="white" stroke="black" points="1883.5,-56.5 1883.5,-75.5 2020.5,-75.5 2020.5,-56.5 1883.5,-56.5"/>
<text text-anchor="middle" x="1952" y="-63.5" font-family="Helvetica,sans-Serif" font-size="10.00">src/GManager/Timeslide.hh</text>
</a>
</g>
<!-- Node3&#45;&gt;Node18 -->
<g id="edge56" class="edge"><title>Node3&#45;&gt;Node18</title>
<path fill="none" stroke="midnightblue" d="M1816.88,-160.882C1830.23,-146.948 1850.79,-126.778 1871,-112 1891.13,-97.2831 1916.58,-83.8908 1933.52,-75.6142"/>
<polygon fill="midnightblue" stroke="midnightblue" points="1814.22,-158.601 1809.9,-168.278 1819.31,-163.403 1814.22,-158.601"/>
</g>
<!-- Node3&#45;&gt;Node19 -->
<g id="edge46" class="edge"><title>Node3&#45;&gt;Node19</title>
<path fill="none" stroke="midnightblue" d="M1889.71,-169.429C1986.36,-160.942 2146.36,-146.467 2284,-132 2287.21,-131.662 2290.5,-131.309 2293.82,-130.946"/>
<polygon fill="midnightblue" stroke="midnightblue" points="1889.35,-165.947 1879.69,-170.307 1889.96,-172.92 1889.35,-165.947"/>
</g>
<!-- Node20 -->
<g id="node44" class="node"><title>Node20</title>
<a xlink:href="NotifyManager_8hh.html" target="_top" xlink:title="src/GManager/NotifyManager.hh">
<polygon fill="white" stroke="black" points="1502,-112.5 1502,-131.5 1660,-131.5 1660,-112.5 1502,-112.5"/>
<text text-anchor="middle" x="1581" y="-119.5" font-family="Helvetica,sans-Serif" font-size="10.00">src/GManager/NotifyManager.hh</text>
</a>
</g>
<!-- Node3&#45;&gt;Node20 -->
<g id="edge48" class="edge"><title>Node3&#45;&gt;Node20</title>
<path fill="none" stroke="midnightblue" d="M1757.08,-166.024C1715.33,-155.823 1654.02,-140.841 1615.85,-131.516"/>
<polygon fill="midnightblue" stroke="midnightblue" points="1756.44,-169.47 1766.98,-168.444 1758.1,-162.67 1756.44,-169.47"/>
</g>
<!-- Node3&#45;&gt;Node21 -->
<g id="edge50" class="edge"><title>Node3&#45;&gt;Node21</title>
<path fill="none" stroke="midnightblue" d="M1889.84,-171.463C2012.44,-163.58 2241.76,-148.262 2437,-132 2440.1,-131.741 2443.27,-131.472 2446.46,-131.194"/>
<polygon fill="midnightblue" stroke="midnightblue" points="1889.52,-167.977 1879.76,-172.11 1889.96,-174.963 1889.52,-167.977"/>
</g>
<!-- Node3&#45;&gt;Node22 -->
<g id="edge54" class="edge"><title>Node3&#45;&gt;Node22</title>
<path fill="none" stroke="midnightblue" d="M1889.83,-173.73C2040.3,-167.785 2356.99,-153.77 2624,-132 2627.03,-131.753 2630.13,-131.485 2633.25,-131.203"/>
<polygon fill="midnightblue" stroke="midnightblue" points="1889.58,-170.238 1879.73,-174.128 1889.86,-177.232 1889.58,-170.238"/>
</g>
<!-- Node3&#45;&gt;Node23 -->
<g id="edge58" class="edge"><title>Node3&#45;&gt;Node23</title>
<path fill="none" stroke="midnightblue" d="M1889.57,-175.045C2061.98,-170.745 2457.49,-158.651 2789,-132 2791.99,-131.76 2795.04,-131.494 2798.12,-131.21"/>
<polygon fill="midnightblue" stroke="midnightblue" points="1889.44,-171.547 1879.53,-175.293 1889.61,-178.545 1889.44,-171.547"/>
</g>
<!-- Node3&#45;&gt;Node24 -->
<g id="edge60" class="edge"><title>Node3&#45;&gt;Node24</title>
<path fill="none" stroke="midnightblue" d="M1889.65,-175.449C2081.15,-171.642 2551.24,-160.025 2944,-132 2947.03,-131.784 2950.12,-131.547 2953.23,-131.293"/>
<polygon fill="midnightblue" stroke="midnightblue" points="1889.57,-171.95 1879.64,-175.646 1889.7,-178.948 1889.57,-171.95"/>
</g>
<!-- Node7&#45;&gt;Node8 -->
<g id="edge14" class="edge"><title>Node7&#45;&gt;Node8</title>
<path fill="none" stroke="midnightblue" d="M1172.75,-105.537C1183.81,-95.9087 1197.63,-83.8694 1206.86,-75.8339"/>
<polygon fill="midnightblue" stroke="midnightblue" points="1170.2,-103.117 1164.96,-112.324 1174.8,-108.395 1170.2,-103.117"/>
</g>
<!-- Node9&#45;&gt;Node8 -->
<g id="edge20" class="edge"><title>Node9&#45;&gt;Node8</title>
<path fill="none" stroke="midnightblue" d="M1357.67,-109.436C1323.92,-99.2551 1275.55,-84.664 1245.23,-75.5164"/>
<polygon fill="midnightblue" stroke="midnightblue" points="1357.05,-112.906 1367.64,-112.444 1359.07,-106.204 1357.05,-112.906"/>
</g>
<!-- Node11 -->
<g id="node23" class="node"><title>Node11</title>
<a xlink:href="Settings_8hh.html" target="_top" xlink:title="src/Browser/Settings/Settings.hh">
<polygon fill="white" stroke="black" points="701.5,-0.5 701.5,-19.5 862.5,-19.5 862.5,-0.5 701.5,-0.5"/>
<text text-anchor="middle" x="782" y="-7.5" font-family="Helvetica,sans-Serif" font-size="10.00">src/Browser/Settings/Settings.hh</text>
</a>
</g>
<!-- Node10&#45;&gt;Node11 -->
<g id="edge24" class="edge"><title>Node10&#45;&gt;Node11</title>
<path fill="none" stroke="midnightblue" d="M163.008,-110.837C296.381,-89.3256 605.129,-39.5276 729.086,-19.5345"/>
<polygon fill="midnightblue" stroke="midnightblue" points="162.263,-107.412 152.948,-112.46 163.378,-114.323 162.263,-107.412"/>
</g>
<!-- Node12&#45;&gt;Node11 -->
<g id="edge32" class="edge"><title>Node12&#45;&gt;Node11</title>
<path fill="none" stroke="midnightblue" d="M946.708,-103.72C953.967,-89.5587 960.506,-69.6909 950,-56 936.857,-38.8726 885.976,-26.8385 843.619,-19.5517"/>
<polygon fill="midnightblue" stroke="midnightblue" points="943.638,-102.038 941.768,-112.466 949.733,-105.48 943.638,-102.038"/>
</g>
<!-- Node13 -->
<g id="node27" class="node"><title>Node13</title>
<a xlink:href="SettingsGeneral_8hh.html" target="_top" xlink:title="src/Browser/Settings/SettingsGeneral.hh">
<polygon fill="white" stroke="black" points="748,-56.5 748,-75.5 942,-75.5 942,-56.5 748,-56.5"/>
<text text-anchor="middle" x="845" y="-63.5" font-family="Helvetica,sans-Serif" font-size="10.00">src/Browser/Settings/SettingsGeneral.hh</text>
</a>
</g>
<!-- Node12&#45;&gt;Node13 -->
<g id="edge28" class="edge"><title>Node12&#45;&gt;Node13</title>
<path fill="none" stroke="midnightblue" d="M912.706,-107.177C895.961,-97.2407 873.9,-84.1492 859.584,-75.6545"/>
<polygon fill="midnightblue" stroke="midnightblue" points="910.993,-110.231 921.379,-112.324 914.566,-104.211 910.993,-110.231"/>
</g>
<!-- Node13&#45;&gt;Node11 -->
<g id="edge30" class="edge"><title>Node13&#45;&gt;Node11</title>
<path fill="none" stroke="midnightblue" d="M826.96,-49.5372C815.727,-39.9087 801.681,-27.8694 792.306,-19.8339"/>
<polygon fill="midnightblue" stroke="midnightblue" points="825.008,-52.4734 834.878,-56.324 829.563,-47.1586 825.008,-52.4734"/>
</g>
<!-- Node14&#45;&gt;Node11 -->
<g id="edge36" class="edge"><title>Node14&#45;&gt;Node11</title>
<path fill="none" stroke="midnightblue" d="M744.264,-103.294C738.272,-89.9651 732.818,-71.4187 739,-56 745.113,-40.755 759.126,-27.7492 769.503,-19.698"/>
<polygon fill="midnightblue" stroke="midnightblue" points="741.175,-104.942 748.768,-112.331 747.44,-101.82 741.175,-104.942"/>
</g>
<!-- Node16&#45;&gt;Node17 -->
<g id="edge42" class="edge"><title>Node16&#45;&gt;Node17</title>
<path fill="none" stroke="midnightblue" d="M2207,-101.805C2207,-92.9102 2207,-82.7798 2207,-75.7511"/>
<polygon fill="midnightblue" stroke="midnightblue" points="2203.5,-102.083 2207,-112.083 2210.5,-102.083 2203.5,-102.083"/>
</g>
<!-- Node16&#45;&gt;Node18 -->
<g id="edge44" class="edge"><title>Node16&#45;&gt;Node18</title>
<path fill="none" stroke="midnightblue" d="M2156.69,-110.346C2108.5,-100.141 2036.72,-84.94 1992.22,-75.5164"/>
<polygon fill="midnightblue" stroke="midnightblue" points="2156.09,-113.796 2166.59,-112.444 2157.54,-106.948 2156.09,-113.796"/>
</g>
</g>
</svg>
