<?xml version="1.0" encoding="UTF-8" standalone="no"?>
<!DOCTYPE svg PUBLIC "-//W3C//DTD SVG 1.1//EN"
 "http://www.w3.org/Graphics/SVG/1.1/DTD/svg11.dtd">
<!-- Generated by graphviz version 2.28.0 (20111204.1018)
 -->
<!-- Title: G Pages: 1 -->
<svg width="3184pt" height="364pt"
 viewBox="0.00 0.00 3183.97 364.00" xmlns="http://www.w3.org/2000/svg" xmlns:xlink="http://www.w3.org/1999/xlink">
<g id="graph1" class="graph" transform="scale(1 1) rotate(0) translate(4 360)">
<title>G</title>
<polygon fill="white" stroke="white" points="-4,5 -4,-360 3180.97,-360 3180.97,5 -4,5"/>
<!-- Node1 -->
<g id="node1" class="node"><title>Node1</title>
<polygon fill="#bfbfbf" stroke="black" points="719.475,-336.5 719.475,-355.5 860.475,-355.5 860.475,-336.5 719.475,-336.5"/>
<text text-anchor="middle" x="789.975" y="-343.5" font-family="Helvetica,sans-Serif" font-size="10.00">src/MPD/AbstractItemlist.hh</text>
</g>
<!-- Node2 -->
<g id="node3" class="node"><title>Node2</title>
<a xlink:href="Database_8hh.html" target="_top" xlink:title="src/Browser/Database/Database.hh">
<polygon fill="white" stroke="black" points="2756.47,-112.5 2756.47,-131.5 2929.47,-131.5 2929.47,-112.5 2756.47,-112.5"/>
<text text-anchor="middle" x="2842.97" y="-119.5" font-family="Helvetica,sans-Serif" font-size="10.00">src/Browser/Database/Database.hh</text>
</a>
</g>
<!-- Node1&#45;&gt;Node2 -->
<g id="edge2" class="edge"><title>Node1&#45;&gt;Node2</title>
<path fill="none" stroke="midnightblue" d="M870.877,-340.228C997.01,-332.641 1248.15,-316.943 1460.97,-300 2001.55,-256.964 2148.16,-312.448 2675.97,-188 2732.6,-174.649 2795.61,-146.12 2825.46,-131.711"/>
<polygon fill="midnightblue" stroke="midnightblue" points="870.311,-336.756 860.539,-340.849 870.731,-343.743 870.311,-336.756"/>
</g>
<!-- Node3 -->
<g id="node5" class="node"><title>Node3</title>
<a xlink:href="AbstractItemGenerator_8hh.html" target="_top" xlink:title="src/MPD/AbstractItemGenerator.hh">
<polygon fill="white" stroke="black" points="1281.47,-280.5 1281.47,-299.5 1452.47,-299.5 1452.47,-280.5 1281.47,-280.5"/>
<text text-anchor="middle" x="1366.97" y="-287.5" font-family="Helvetica,sans-Serif" font-size="10.00">src/MPD/AbstractItemGenerator.hh</text>
</a>
</g>
<!-- Node1&#45;&gt;Node3 -->
<g id="edge4" class="edge"><title>Node1&#45;&gt;Node3</title>
<path fill="none" stroke="midnightblue" d="M870.941,-337.423C979.218,-327.289 1170.35,-309.402 1281.08,-299.039"/>
<polygon fill="midnightblue" stroke="midnightblue" points="870.356,-333.962 860.726,-338.379 871.009,-340.931 870.356,-333.962"/>
</g>
<!-- Node6 -->
<g id="node12" class="node"><title>Node6</title>
<a xlink:href="DatabaseCache_8hh.html" target="_top" xlink:title="src/Browser/Database/DatabaseCache.hh">
<polygon fill="white" stroke="black" points="29.4746,-112.5 29.4746,-131.5 230.475,-131.5 230.475,-112.5 29.4746,-112.5"/>
<text text-anchor="middle" x="129.975" y="-119.5" font-family="Helvetica,sans-Serif" font-size="10.00">src/Browser/Database/DatabaseCache.hh</text>
</a>
</g>
<!-- Node1&#45;&gt;Node6 -->
<g id="edge96" class="edge"><title>Node1&#45;&gt;Node6</title>
<path fill="none" stroke="midnightblue" d="M754.886,-333.197C637.069,-293.568 257.319,-165.834 155.367,-131.541"/>
<polygon fill="midnightblue" stroke="midnightblue" points="753.912,-336.563 764.506,-336.433 756.144,-329.928 753.912,-336.563"/>
</g>
<!-- Node7 -->
<g id="node14" class="node"><title>Node7</title>
<a xlink:href="PlaylistManager_8hh.html" target="_top" xlink:title="src/Browser/PlaylistManager/PlaylistManager.hh">
<polygon fill="white" stroke="black" points="2947.97,-112.5 2947.97,-131.5 3175.97,-131.5 3175.97,-112.5 2947.97,-112.5"/>
<text text-anchor="middle" x="3061.97" y="-119.5" font-family="Helvetica,sans-Serif" font-size="10.00">src/Browser/PlaylistManager/PlaylistManager.hh</text>
</a>
</g>
<!-- Node1&#45;&gt;Node7 -->
<g id="edge98" class="edge"><title>Node1&#45;&gt;Node7</title>
<path fill="none" stroke="midnightblue" d="M870.971,-344.403C1113.46,-341.697 1854.43,-326.728 2461.97,-244 2679.4,-214.393 2936.46,-153.82 3027.74,-131.502"/>
<polygon fill="midnightblue" stroke="midnightblue" points="870.794,-340.905 860.833,-344.512 870.87,-347.904 870.794,-340.905"/>
</g>
<!-- Node9 -->
<g id="node18" class="node"><title>Node9</title>
<a xlink:href="Queue_8hh.html" target="_top" xlink:title="src/Browser/Queue/Queue.hh">
<polygon fill="white" stroke="black" points="301.975,-56.5 301.975,-75.5 447.975,-75.5 447.975,-56.5 301.975,-56.5"/>
<text text-anchor="middle" x="374.975" y="-63.5" font-family="Helvetica,sans-Serif" font-size="10.00">src/Browser/Queue/Queue.hh</text>
</a>
</g>
<!-- Node1&#45;&gt;Node9 -->
<g id="edge100" class="edge"><title>Node1&#45;&gt;Node9</title>
<path fill="none" stroke="midnightblue" d="M709.047,-342.104C507.823,-333.829 0.974606,-305.944 0.974606,-235 0.974606,-235 0.974606,-235 0.974606,-177 0.974606,-146.902 -2.92382,-131.533 19.9746,-112 61.095,-76.9231 210.319,-68.74 301.696,-67.0966"/>
<polygon fill="midnightblue" stroke="midnightblue" points="709.128,-345.61 719.262,-342.518 709.412,-338.616 709.128,-345.61"/>
</g>
<!-- Node10 -->
<g id="node21" class="node"><title>Node10</title>
<a xlink:href="QueueMerger_8hh.html" target="_top" xlink:title="src/Browser/Queue/QueueMerger.hh">
<polygon fill="white" stroke="black" points="286.975,-112.5 286.975,-131.5 462.975,-131.5 462.975,-112.5 286.975,-112.5"/>
<text text-anchor="middle" x="374.975" y="-119.5" font-family="Helvetica,sans-Serif" font-size="10.00">src/Browser/Queue/QueueMerger.hh</text>
</a>
</g>
<!-- Node1&#45;&gt;Node10 -->
<g id="edge102" class="edge"><title>Node1&#45;&gt;Node10</title>
<path fill="none" stroke="midnightblue" d="M764.935,-331.605C687.733,-290.307 454.761,-165.681 391.165,-131.661"/>
<polygon fill="midnightblue" stroke="midnightblue" points="763.492,-334.803 773.96,-336.433 766.794,-328.63 763.492,-334.803"/>
</g>
<!-- Node15 -->
<g id="node34" class="node"><title>Node15</title>
<a xlink:href="SettingsOutputs_8hh.html" target="_top" xlink:title="src/Browser/Settings/SettingsOutputs.hh">
<polygon fill="white" stroke="black" points="692.475,-112.5 692.475,-131.5 887.475,-131.5 887.475,-112.5 692.475,-112.5"/>
<text text-anchor="middle" x="789.975" y="-119.5" font-family="Helvetica,sans-Serif" font-size="10.00">src/Browser/Settings/SettingsOutputs.hh</text>
</a>
</g>
<!-- Node1&#45;&gt;Node15 -->
<g id="edge104" class="edge"><title>Node1&#45;&gt;Node15</title>
<path fill="none" stroke="midnightblue" d="M789.975,-326.295C789.975,-280.644 789.975,-164.854 789.975,-131.884"/>
<polygon fill="midnightblue" stroke="midnightblue" points="786.475,-326.297 789.975,-336.297 793.475,-326.297 786.475,-326.297"/>
</g>
<!-- Node4 -->
<g id="node7" class="node"><title>Node4</title>
<a xlink:href="Client_8hh.html" target="_top" xlink:title="src/MPD/Client.hh">
<polygon fill="white" stroke="black" points="1775.97,-224.5 1775.97,-243.5 1873.97,-243.5 1873.97,-224.5 1775.97,-224.5"/>
<text text-anchor="middle" x="1824.97" y="-231.5" font-family="Helvetica,sans-Serif" font-size="10.00">src/MPD/Client.hh</text>
</a>
</g>
<!-- Node3&#45;&gt;Node4 -->
<g id="edge6" class="edge"><title>Node3&#45;&gt;Node4</title>
<path fill="none" stroke="midnightblue" d="M1449.45,-279.275C1544.59,-268.059 1697.88,-249.985 1775.92,-240.784"/>
<polygon fill="midnightblue" stroke="midnightblue" points="1448.81,-275.826 1439.29,-280.473 1449.63,-282.778 1448.81,-275.826"/>
</g>
<!-- Node4&#45;&gt;Node2 -->
<g id="edge66" class="edge"><title>Node4&#45;&gt;Node2</title>
<path fill="none" stroke="midnightblue" d="M1884.26,-231.417C2043.87,-226.874 2480.16,-212.522 2621.97,-188 2696.06,-175.189 2780.52,-146.139 2820.16,-131.61"/>
<polygon fill="midnightblue" stroke="midnightblue" points="1884.05,-227.922 1874.15,-231.702 1884.25,-234.919 1884.05,-227.922"/>
</g>
<!-- Node5 -->
<g id="node9" class="node"><title>Node5</title>
<a xlink:href="AbstractClientUser_8hh.html" target="_top" xlink:title="src/MPD/AbstractClientUser.hh">
<polygon fill="white" stroke="black" points="1641.47,-168.5 1641.47,-187.5 1796.47,-187.5 1796.47,-168.5 1641.47,-168.5"/>
<text text-anchor="middle" x="1718.97" y="-175.5" font-family="Helvetica,sans-Serif" font-size="10.00">src/MPD/AbstractClientUser.hh</text>
</a>
</g>
<!-- Node4&#45;&gt;Node5 -->
<g id="edge8" class="edge"><title>Node4&#45;&gt;Node5</title>
<path fill="none" stroke="midnightblue" d="M1798.92,-219.726C1779.29,-209.727 1752.95,-196.307 1735.96,-187.655"/>
<polygon fill="midnightblue" stroke="midnightblue" points="1797.44,-222.903 1807.94,-224.324 1800.62,-216.666 1797.44,-222.903"/>
</g>
<!-- Node4&#45;&gt;Node7 -->
<g id="edge68" class="edge"><title>Node4&#45;&gt;Node7</title>
<path fill="none" stroke="midnightblue" d="M1884.47,-232.184C2023.44,-229.77 2380.01,-220.637 2675.97,-188 2802.46,-174.052 2950.42,-145.733 3020.78,-131.528"/>
<polygon fill="midnightblue" stroke="midnightblue" points="1884,-228.691 1874.06,-232.359 1884.12,-235.69 1884,-228.691"/>
</g>
<!-- Node8 -->
<g id="node16" class="node"><title>Node8</title>
<a xlink:href="PlaylistAddDialog_8hh.html" target="_top" xlink:title="src/Browser/Queue/PlaylistAddDialog.hh">
<polygon fill="white" stroke="black" points="480.975,-112.5 480.975,-131.5 674.975,-131.5 674.975,-112.5 480.975,-112.5"/>
<text text-anchor="middle" x="577.975" y="-119.5" font-family="Helvetica,sans-Serif" font-size="10.00">src/Browser/Queue/PlaylistAddDialog.hh</text>
</a>
</g>
<!-- Node4&#45;&gt;Node8 -->
<g id="edge70" class="edge"><title>Node4&#45;&gt;Node8</title>
<path fill="none" stroke="midnightblue" d="M1765.74,-227.774C1566.71,-210.218 920.769,-153.238 674.532,-131.517"/>
<polygon fill="midnightblue" stroke="midnightblue" points="1765.44,-231.262 1775.71,-228.654 1766.05,-224.289 1765.44,-231.262"/>
</g>
<!-- Node4&#45;&gt;Node9 -->
<g id="edge72" class="edge"><title>Node4&#45;&gt;Node9</title>
<path fill="none" stroke="midnightblue" d="M1765.5,-229.548C1639.95,-222.223 1338.61,-204.446 1085.97,-188 906.368,-176.308 400.766,-263.596 277.975,-132 254.464,-106.803 304.953,-86.4075 341.529,-75.5474"/>
<polygon fill="midnightblue" stroke="midnightblue" points="1765.48,-233.053 1775.67,-230.141 1765.89,-226.065 1765.48,-233.053"/>
</g>
<!-- Node11 -->
<g id="node24" class="node"><title>Node11</title>
<a xlink:href="SettingsPlayback_8hh.html" target="_top" xlink:title="src/Browser/Settings/SettingsPlayback.hh">
<polygon fill="white" stroke="black" points="1078.47,-112.5 1078.47,-131.5 1279.47,-131.5 1279.47,-112.5 1078.47,-112.5"/>
<text text-anchor="middle" x="1178.97" y="-119.5" font-family="Helvetica,sans-Serif" font-size="10.00">src/Browser/Settings/SettingsPlayback.hh</text>
</a>
</g>
<!-- Node4&#45;&gt;Node11 -->
<g id="edge74" class="edge"><title>Node4&#45;&gt;Node11</title>
<path fill="none" stroke="midnightblue" d="M1765.76,-222.486C1727.11,-214.824 1675.86,-203.142 1631.97,-188 1612.05,-181.126 1609.27,-173.669 1588.97,-168 1559.19,-159.682 1382.9,-142.098 1271.4,-131.542"/>
<polygon fill="midnightblue" stroke="midnightblue" points="1765.32,-225.967 1775.81,-224.444 1766.66,-219.096 1765.32,-225.967"/>
</g>
<!-- Node13 -->
<g id="node28" class="node"><title>Node13</title>
<a xlink:href="Trayicon_8hh.html" target="_top" xlink:title="src/GManager/Trayicon.hh">
<polygon fill="white" stroke="black" points="2605.97,-112.5 2605.97,-131.5 2737.97,-131.5 2737.97,-112.5 2605.97,-112.5"/>
<text text-anchor="middle" x="2671.97" y="-119.5" font-family="Helvetica,sans-Serif" font-size="10.00">src/GManager/Trayicon.hh</text>
</a>
</g>
<!-- Node4&#45;&gt;Node13 -->
<g id="edge76" class="edge"><title>Node4&#45;&gt;Node13</title>
<path fill="none" stroke="midnightblue" d="M1884.39,-231.61C2053.04,-227.373 2526.74,-213.336 2591.97,-188 2623.34,-175.82 2651.78,-146.474 2664.68,-131.744"/>
<polygon fill="midnightblue" stroke="midnightblue" points="1884.12,-228.116 1874.21,-231.864 1884.29,-235.114 1884.12,-228.116"/>
</g>
<!-- Node4&#45;&gt;Node15 -->
<g id="edge78" class="edge"><title>Node4&#45;&gt;Node15</title>
<path fill="none" stroke="midnightblue" d="M1765.57,-229.779C1708.92,-225.205 1621.96,-214.22 1550.97,-188 1534.89,-182.058 1534.35,-173.09 1517.97,-168 1385.76,-126.907 1034.08,-141.858 895.975,-132 893.211,-131.803 890.408,-131.598 887.579,-131.387"/>
<polygon fill="midnightblue" stroke="midnightblue" points="1765.54,-233.288 1775.78,-230.561 1766.08,-226.308 1765.54,-233.288"/>
</g>
<!-- Node17 -->
<g id="node39" class="node"><title>Node17</title>
<a xlink:href="Heartbeat_8hh.html" target="_top" xlink:title="src/GManager/Heartbeat.hh">
<polygon fill="white" stroke="black" points="1752.47,-112.5 1752.47,-131.5 1889.47,-131.5 1889.47,-112.5 1752.47,-112.5"/>
<text text-anchor="middle" x="1820.97" y="-119.5" font-family="Helvetica,sans-Serif" font-size="10.00">src/GManager/Heartbeat.hh</text>
</a>
</g>
<!-- Node4&#45;&gt;Node17 -->
<g id="edge82" class="edge"><title>Node4&#45;&gt;Node17</title>
<path fill="none" stroke="midnightblue" d="M1824.3,-214.348C1823.42,-190.254 1821.93,-149.308 1821.29,-131.591"/>
<polygon fill="midnightblue" stroke="midnightblue" points="1820.8,-214.502 1824.66,-224.368 1827.79,-214.248 1820.8,-214.502"/>
</g>
<!-- Node18 -->
<g id="node41" class="node"><title>Node18</title>
<a xlink:href="Statusbar_8hh.html" target="_top" xlink:title="src/GManager/Statusbar.hh">
<polygon fill="white" stroke="black" points="1772.47,-56.5 1772.47,-75.5 1909.47,-75.5 1909.47,-56.5 1772.47,-56.5"/>
<text text-anchor="middle" x="1840.97" y="-63.5" font-family="Helvetica,sans-Serif" font-size="10.00">src/GManager/Statusbar.hh</text>
</a>
</g>
<!-- Node4&#45;&gt;Node18 -->
<g id="edge88" class="edge"><title>Node4&#45;&gt;Node18</title>
<path fill="none" stroke="midnightblue" d="M1884.17,-232.438C2074.45,-229.63 2652.64,-212.798 2557.97,-112 2535.97,-88.5756 2084.57,-73.6989 1909.51,-68.7913"/>
<polygon fill="midnightblue" stroke="midnightblue" points="1884.02,-228.94 1874.07,-232.579 1884.12,-235.939 1884.02,-228.94"/>
</g>
<!-- Node20 -->
<g id="node45" class="node"><title>Node20</title>
<a xlink:href="MenuList_8hh.html" target="_top" xlink:title="src/GManager/MenuList.hh">
<polygon fill="white" stroke="black" points="1907.97,-112.5 1907.97,-131.5 2041.97,-131.5 2041.97,-112.5 1907.97,-112.5"/>
<text text-anchor="middle" x="1974.97" y="-119.5" font-family="Helvetica,sans-Serif" font-size="10.00">src/GManager/MenuList.hh</text>
</a>
</g>
<!-- Node4&#45;&gt;Node20 -->
<g id="edge84" class="edge"><title>Node4&#45;&gt;Node20</title>
<path fill="none" stroke="midnightblue" d="M1844.86,-218.417C1876.59,-195.151 1937.68,-150.35 1963.26,-131.591"/>
<polygon fill="midnightblue" stroke="midnightblue" points="1842.74,-215.632 1836.74,-224.368 1846.88,-221.277 1842.74,-215.632"/>
</g>
<!-- Node22 -->
<g id="node49" class="node"><title>Node22</title>
<a xlink:href="PlaybackButtons_8hh.html" target="_top" xlink:title="src/GManager/PlaybackButtons.hh">
<polygon fill="white" stroke="black" points="2060.47,-112.5 2060.47,-131.5 2229.47,-131.5 2229.47,-112.5 2060.47,-112.5"/>
<text text-anchor="middle" x="2144.97" y="-119.5" font-family="Helvetica,sans-Serif" font-size="10.00">src/GManager/PlaybackButtons.hh</text>
</a>
</g>
<!-- Node4&#45;&gt;Node22 -->
<g id="edge86" class="edge"><title>Node4&#45;&gt;Node22</title>
<path fill="none" stroke="midnightblue" d="M1859.58,-221.104C1924.51,-198.786 2063.14,-151.132 2119.93,-131.61"/>
<polygon fill="midnightblue" stroke="midnightblue" points="1858.14,-217.899 1849.82,-224.46 1860.41,-224.519 1858.14,-217.899"/>
</g>
<!-- Node23 -->
<g id="node52" class="node"><title>Node23</title>
<a xlink:href="StatusIcons_8hh.html" target="_top" xlink:title="src/GManager/StatusIcons.hh">
<polygon fill="white" stroke="black" points="2247.47,-112.5 2247.47,-131.5 2394.47,-131.5 2394.47,-112.5 2247.47,-112.5"/>
<text text-anchor="middle" x="2320.97" y="-119.5" font-family="Helvetica,sans-Serif" font-size="10.00">src/GManager/StatusIcons.hh</text>
</a>
</g>
<!-- Node4&#45;&gt;Node23 -->
<g id="edge90" class="edge"><title>Node4&#45;&gt;Node23</title>
<path fill="none" stroke="midnightblue" d="M1873.45,-222.249C1971.84,-200.43 2193.15,-151.347 2282.49,-131.535"/>
<polygon fill="midnightblue" stroke="midnightblue" points="1872.49,-218.878 1863.48,-224.46 1874,-225.712 1872.49,-218.878"/>
</g>
<!-- Node24 -->
<g id="node55" class="node"><title>Node24</title>
<a xlink:href="TitleLabel_8hh.html" target="_top" xlink:title="src/GManager/TitleLabel.hh">
<polygon fill="white" stroke="black" points="2412.47,-112.5 2412.47,-131.5 2549.47,-131.5 2549.47,-112.5 2412.47,-112.5"/>
<text text-anchor="middle" x="2480.97" y="-119.5" font-family="Helvetica,sans-Serif" font-size="10.00">src/GManager/TitleLabel.hh</text>
</a>
</g>
<!-- Node4&#45;&gt;Node24 -->
<g id="edge92" class="edge"><title>Node4&#45;&gt;Node24</title>
<path fill="none" stroke="midnightblue" d="M1883.98,-223.106C2011.4,-201.739 2310.45,-151.594 2430.14,-131.524"/>
<polygon fill="midnightblue" stroke="midnightblue" points="1883.3,-219.671 1874.01,-224.777 1884.45,-226.575 1883.3,-219.671"/>
</g>
<!-- Node25 -->
<g id="node57" class="node"><title>Node25</title>
<a xlink:href="Volumebutton_8hh.html" target="_top" xlink:title="src/GManager/Volumebutton.hh">
<polygon fill="white" stroke="black" points="905.475,-112.5 905.475,-131.5 1060.47,-131.5 1060.47,-112.5 905.475,-112.5"/>
<text text-anchor="middle" x="982.975" y="-119.5" font-family="Helvetica,sans-Serif" font-size="10.00">src/GManager/Volumebutton.hh</text>
</a>
</g>
<!-- Node4&#45;&gt;Node25 -->
<g id="edge94" class="edge"><title>Node4&#45;&gt;Node25</title>
<path fill="none" stroke="midnightblue" d="M1765.95,-226.669C1717.43,-220.306 1647.42,-208.441 1588.97,-188 1570.96,-181.699 1569.32,-173.265 1550.97,-168 1344.49,-108.734 1282.94,-151.182 1068.97,-132 1066.28,-131.759 1063.55,-131.507 1060.78,-131.247"/>
<polygon fill="midnightblue" stroke="midnightblue" points="1765.6,-230.153 1775.97,-227.944 1766.49,-223.209 1765.6,-230.153"/>
</g>
<!-- Node26 -->
<g id="node66" class="node"><title>Node26</title>
<a xlink:href="StatBrowser_8hh.html" target="_top" xlink:title="src/Browser/Statistics/StatBrowser.hh">
<polygon fill="white" stroke="black" points="1324.97,-168.5 1324.97,-187.5 1508.97,-187.5 1508.97,-168.5 1324.97,-168.5"/>
<text text-anchor="middle" x="1416.97" y="-175.5" font-family="Helvetica,sans-Serif" font-size="10.00">src/Browser/Statistics/StatBrowser.hh</text>
</a>
</g>
<!-- Node4&#45;&gt;Node26 -->
<g id="edge80" class="edge"><title>Node4&#45;&gt;Node26</title>
<path fill="none" stroke="midnightblue" d="M1765.45,-225.122C1689.74,-215.101 1559.49,-197.862 1481.48,-187.537"/>
<polygon fill="midnightblue" stroke="midnightblue" points="1765.39,-228.644 1775.76,-226.486 1766.31,-221.704 1765.39,-228.644"/>
</g>
<!-- Node5&#45;&gt;Node2 -->
<g id="edge10" class="edge"><title>Node5&#45;&gt;Node2</title>
<path fill="none" stroke="midnightblue" d="M1806.82,-174.628C1984.52,-169.503 2399.28,-155.893 2746.97,-132 2750.06,-131.788 2753.21,-131.559 2756.38,-131.318"/>
<polygon fill="midnightblue" stroke="midnightblue" points="1806.64,-171.131 1796.75,-174.916 1806.84,-178.128 1806.64,-171.131"/>
</g>
<!-- Node5&#45;&gt;Node6 -->
<g id="edge12" class="edge"><title>Node5&#45;&gt;Node6</title>
<path fill="none" stroke="midnightblue" d="M1630.96,-172.759C1595.82,-171.144 1554.99,-169.366 1517.97,-168 967.006,-147.668 828.763,-156.736 277.975,-132 262.674,-131.313 246.49,-130.459 230.661,-129.553"/>
<polygon fill="midnightblue" stroke="midnightblue" points="1631.04,-176.266 1641.19,-173.232 1631.37,-169.274 1631.04,-176.266"/>
</g>
<!-- Node5&#45;&gt;Node7 -->
<g id="edge14" class="edge"><title>Node5&#45;&gt;Node7</title>
<path fill="none" stroke="midnightblue" d="M1806.93,-174.826C2007.57,-169.631 2514.49,-155.178 2937.97,-132 2941.21,-131.823 2944.49,-131.636 2947.8,-131.441"/>
<polygon fill="midnightblue" stroke="midnightblue" points="1806.65,-171.332 1796.74,-175.088 1806.83,-178.329 1806.65,-171.332"/>
</g>
<!-- Node5&#45;&gt;Node8 -->
<g id="edge16" class="edge"><title>Node5&#45;&gt;Node8</title>
<path fill="none" stroke="midnightblue" d="M1630.95,-173.027C1595.81,-171.449 1554.98,-169.626 1517.97,-168 1146.88,-151.692 1053.66,-155.867 682.975,-132 680.418,-131.835 677.828,-131.662 675.214,-131.481"/>
<polygon fill="midnightblue" stroke="midnightblue" points="1631.04,-176.534 1641.18,-173.487 1631.35,-169.541 1631.04,-176.534"/>
</g>
<!-- Node5&#45;&gt;Node9 -->
<g id="edge20" class="edge"><title>Node5&#45;&gt;Node9</title>
<path fill="none" stroke="midnightblue" d="M1631.32,-168.614C1524.7,-158.152 1355.36,-140.596 1326.97,-132 1308.33,-126.354 1306.79,-117.037 1287.97,-112 1130.17,-69.7584 635.707,-66.355 448.125,-66.6417"/>
<polygon fill="midnightblue" stroke="midnightblue" points="1631.14,-172.114 1641.44,-169.604 1631.82,-165.147 1631.14,-172.114"/>
</g>
<!-- Node5&#45;&gt;Node10 -->
<g id="edge22" class="edge"><title>Node5&#45;&gt;Node10</title>
<path fill="none" stroke="midnightblue" d="M1630.96,-172.862C1595.82,-171.261 1554.98,-169.465 1517.97,-168 1053.17,-149.596 936.202,-161.5 471.975,-132 469.021,-131.812 466.018,-131.608 462.986,-131.391"/>
<polygon fill="midnightblue" stroke="midnightblue" points="1631.04,-176.369 1641.19,-173.329 1631.36,-169.376 1631.04,-176.369"/>
</g>
<!-- Node5&#45;&gt;Node11 -->
<g id="edge26" class="edge"><title>Node5&#45;&gt;Node11</title>
<path fill="none" stroke="midnightblue" d="M1631.11,-168.213C1529.77,-158.08 1364.29,-141.532 1264.12,-131.515"/>
<polygon fill="midnightblue" stroke="midnightblue" points="1631.02,-171.722 1641.32,-169.234 1631.72,-164.757 1631.02,-171.722"/>
</g>
<!-- Node5&#45;&gt;Node13 -->
<g id="edge30" class="edge"><title>Node5&#45;&gt;Node13</title>
<path fill="none" stroke="midnightblue" d="M1806.77,-173.021C1959.52,-165.933 2284.08,-150.154 2557.97,-132 2573.43,-130.976 2590.05,-129.74 2605.69,-128.517"/>
<polygon fill="midnightblue" stroke="midnightblue" points="1806.34,-169.536 1796.51,-173.495 1806.66,-176.529 1806.34,-169.536"/>
</g>
<!-- Node5&#45;&gt;Node15 -->
<g id="edge38" class="edge"><title>Node5&#45;&gt;Node15</title>
<path fill="none" stroke="midnightblue" d="M1631.14,-172.269C1426.42,-161.232 932.122,-134.522 895.975,-132 893.211,-131.807 890.407,-131.606 887.578,-131.398"/>
<polygon fill="midnightblue" stroke="midnightblue" points="1631.09,-175.771 1641.26,-172.814 1631.46,-168.781 1631.09,-175.771"/>
</g>
<!-- Node16 -->
<g id="node37" class="node"><title>Node16</title>
<a xlink:href="BrowserList_8hh.html" target="_top" xlink:title="src/GManager/BrowserList.hh">
<polygon fill="white" stroke="black" points="1511.97,-112.5 1511.97,-131.5 1657.97,-131.5 1657.97,-112.5 1511.97,-112.5"/>
<text text-anchor="middle" x="1584.97" y="-119.5" font-family="Helvetica,sans-Serif" font-size="10.00">src/GManager/BrowserList.hh</text>
</a>
</g>
<!-- Node5&#45;&gt;Node16 -->
<g id="edge42" class="edge"><title>Node5&#45;&gt;Node16</title>
<path fill="none" stroke="midnightblue" d="M1688.3,-164.638C1663.15,-154.504 1628.22,-140.427 1606.11,-131.516"/>
<polygon fill="midnightblue" stroke="midnightblue" points="1687.16,-167.952 1697.74,-168.444 1689.77,-161.459 1687.16,-167.952"/>
</g>
<!-- Node5&#45;&gt;Node17 -->
<g id="edge44" class="edge"><title>Node5&#45;&gt;Node17</title>
<path fill="none" stroke="midnightblue" d="M1744.31,-163.59C1763.16,-153.605 1788.36,-140.267 1804.63,-131.655"/>
<polygon fill="midnightblue" stroke="midnightblue" points="1742.56,-160.552 1735.36,-168.324 1745.84,-166.738 1742.56,-160.552"/>
</g>
<!-- Node5&#45;&gt;Node18 -->
<g id="edge56" class="edge"><title>Node5&#45;&gt;Node18</title>
<path fill="none" stroke="midnightblue" d="M1721.9,-158.21C1724.98,-144.001 1731.11,-124.815 1742.97,-112 1759.89,-93.7304 1785.68,-82.2979 1806.56,-75.5297"/>
<polygon fill="midnightblue" stroke="midnightblue" points="1718.41,-157.852 1720.03,-168.321 1725.29,-159.124 1718.41,-157.852"/>
</g>
<!-- Node19 -->
<g id="node43" class="node"><title>Node19</title>
<a xlink:href="Timeslide_8hh.html" target="_top" xlink:title="src/GManager/Timeslide.hh">
<polygon fill="white" stroke="black" points="1617.47,-56.5 1617.47,-75.5 1754.47,-75.5 1754.47,-56.5 1617.47,-56.5"/>
<text text-anchor="middle" x="1685.97" y="-63.5" font-family="Helvetica,sans-Serif" font-size="10.00">src/GManager/Timeslide.hh</text>
</a>
</g>
<!-- Node5&#45;&gt;Node19 -->
<g id="edge60" class="edge"><title>Node5&#45;&gt;Node19</title>
<path fill="none" stroke="midnightblue" d="M1713.48,-158.674C1706.26,-134.625 1693.89,-93.3881 1688.55,-75.5914"/>
<polygon fill="midnightblue" stroke="midnightblue" points="1710.16,-159.796 1716.39,-168.368 1716.86,-157.784 1710.16,-159.796"/>
</g>
<!-- Node5&#45;&gt;Node20 -->
<g id="edge50" class="edge"><title>Node5&#45;&gt;Node20</title>
<path fill="none" stroke="midnightblue" d="M1769.48,-166.346C1817.86,-156.141 1889.93,-140.94 1934.6,-131.516"/>
<polygon fill="midnightblue" stroke="midnightblue" points="1768.6,-162.955 1759.54,-168.444 1770.05,-169.804 1768.6,-162.955"/>
</g>
<!-- Node21 -->
<g id="node47" class="node"><title>Node21</title>
<a xlink:href="NotifyManager_8hh.html" target="_top" xlink:title="src/GManager/NotifyManager.hh">
<polygon fill="white" stroke="black" points="1335.97,-112.5 1335.97,-131.5 1493.97,-131.5 1493.97,-112.5 1335.97,-112.5"/>
<text text-anchor="middle" x="1414.97" y="-119.5" font-family="Helvetica,sans-Serif" font-size="10.00">src/GManager/NotifyManager.hh</text>
</a>
</g>
<!-- Node5&#45;&gt;Node21 -->
<g id="edge52" class="edge"><title>Node5&#45;&gt;Node21</title>
<path fill="none" stroke="midnightblue" d="M1660.79,-166.664C1603.34,-156.459 1516.53,-141.039 1462.92,-131.516"/>
<polygon fill="midnightblue" stroke="midnightblue" points="1660.35,-170.141 1670.8,-168.444 1661.57,-163.248 1660.35,-170.141"/>
</g>
<!-- Node5&#45;&gt;Node22 -->
<g id="edge54" class="edge"><title>Node5&#45;&gt;Node22</title>
<path fill="none" stroke="midnightblue" d="M1796.55,-167.167C1876.98,-156.972 2001.43,-141.196 2077.79,-131.516"/>
<polygon fill="midnightblue" stroke="midnightblue" points="1795.96,-163.714 1786.48,-168.444 1796.84,-170.658 1795.96,-163.714"/>
</g>
<!-- Node5&#45;&gt;Node23 -->
<g id="edge58" class="edge"><title>Node5&#45;&gt;Node23</title>
<path fill="none" stroke="midnightblue" d="M1806.91,-169.956C1910.18,-161.549 2086.61,-146.766 2237.97,-132 2241,-131.704 2244.09,-131.397 2247.22,-131.081"/>
<polygon fill="midnightblue" stroke="midnightblue" points="1806.52,-166.476 1796.84,-170.774 1807.09,-173.453 1806.52,-166.476"/>
</g>
<!-- Node5&#45;&gt;Node24 -->
<g id="edge62" class="edge"><title>Node5&#45;&gt;Node24</title>
<path fill="none" stroke="midnightblue" d="M1806.83,-172.605C1937.12,-165.773 2189.2,-151.353 2402.97,-132 2405.96,-131.73 2409.01,-131.439 2412.09,-131.134"/>
<polygon fill="midnightblue" stroke="midnightblue" points="1806.32,-169.127 1796.52,-173.143 1806.69,-176.117 1806.32,-169.127"/>
</g>
<!-- Node5&#45;&gt;Node25 -->
<g id="edge64" class="edge"><title>Node5&#45;&gt;Node25</title>
<path fill="none" stroke="midnightblue" d="M1631.18,-170.923C1453.81,-158.646 1069.41,-132.038 1068.97,-132 1066.28,-131.766 1063.54,-131.52 1060.78,-131.266"/>
<polygon fill="midnightblue" stroke="midnightblue" points="1631.06,-174.423 1641.28,-171.622 1631.54,-167.44 1631.06,-174.423"/>
</g>
<!-- Node8&#45;&gt;Node9 -->
<g id="edge18" class="edge"><title>Node8&#45;&gt;Node9</title>
<path fill="none" stroke="midnightblue" d="M535.98,-109.829C497.652,-99.6333 441.823,-84.7823 406.99,-75.5164"/>
<polygon fill="midnightblue" stroke="midnightblue" points="535.245,-113.255 545.809,-112.444 537.044,-106.49 535.245,-113.255"/>
</g>
<!-- Node10&#45;&gt;Node9 -->
<g id="edge24" class="edge"><title>Node10&#45;&gt;Node9</title>
<path fill="none" stroke="midnightblue" d="M374.975,-101.805C374.975,-92.9102 374.975,-82.7798 374.975,-75.7511"/>
<polygon fill="midnightblue" stroke="midnightblue" points="371.475,-102.083 374.975,-112.083 378.475,-102.083 371.475,-102.083"/>
</g>
<!-- Node12 -->
<g id="node26" class="node"><title>Node12</title>
<a xlink:href="Settings_8hh.html" target="_top" xlink:title="src/Browser/Settings/Settings.hh">
<polygon fill="white" stroke="black" points="1754.47,-0.5 1754.47,-19.5 1915.47,-19.5 1915.47,-0.5 1754.47,-0.5"/>
<text text-anchor="middle" x="1834.97" y="-7.5" font-family="Helvetica,sans-Serif" font-size="10.00">src/Browser/Settings/Settings.hh</text>
</a>
</g>
<!-- Node11&#45;&gt;Node12 -->
<g id="edge28" class="edge"><title>Node11&#45;&gt;Node12</title>
<path fill="none" stroke="midnightblue" d="M1239.97,-110.773C1368.46,-89.2258 1664.97,-39.5076 1784.08,-19.5345"/>
<polygon fill="midnightblue" stroke="midnightblue" points="1239.19,-107.354 1229.9,-112.46 1240.35,-114.258 1239.19,-107.354"/>
</g>
<!-- Node13&#45;&gt;Node12 -->
<g id="edge36" class="edge"><title>Node13&#45;&gt;Node12</title>
<path fill="none" stroke="midnightblue" d="M2631.58,-109.686C2577.32,-94.943 2477.67,-69.4607 2390.97,-56 2223.03,-29.9229 2024.05,-18.4511 1915.51,-13.8149"/>
<polygon fill="midnightblue" stroke="midnightblue" points="2630.92,-113.135 2641.49,-112.397 2632.77,-106.383 2630.92,-113.135"/>
</g>
<!-- Node14 -->
<g id="node30" class="node"><title>Node14</title>
<a xlink:href="SettingsGeneral_8hh.html" target="_top" xlink:title="src/Browser/Settings/SettingsGeneral.hh">
<polygon fill="white" stroke="black" points="2188.97,-56.5 2188.97,-75.5 2382.97,-75.5 2382.97,-56.5 2188.97,-56.5"/>
<text text-anchor="middle" x="2285.97" y="-63.5" font-family="Helvetica,sans-Serif" font-size="10.00">src/Browser/Settings/SettingsGeneral.hh</text>
</a>
</g>
<!-- Node13&#45;&gt;Node14 -->
<g id="edge32" class="edge"><title>Node13&#45;&gt;Node14</title>
<path fill="none" stroke="midnightblue" d="M2600.79,-111.042C2527.89,-100.843 2415.76,-85.1569 2346.85,-75.5164"/>
<polygon fill="midnightblue" stroke="midnightblue" points="2600.42,-114.524 2610.81,-112.444 2601.39,-107.592 2600.42,-114.524"/>
</g>
<!-- Node14&#45;&gt;Node12 -->
<g id="edge34" class="edge"><title>Node14&#45;&gt;Node12</title>
<path fill="none" stroke="midnightblue" d="M2204.37,-55.2291C2119.24,-45.0359 1987.11,-29.216 1906.1,-19.5164"/>
<polygon fill="midnightblue" stroke="midnightblue" points="2204.17,-58.7298 2214.51,-56.4435 2205,-51.7794 2204.17,-58.7298"/>
</g>
<!-- Node15&#45;&gt;Node12 -->
<g id="edge40" class="edge"><title>Node15&#45;&gt;Node12</title>
<path fill="none" stroke="midnightblue" d="M881.063,-111.412C1082.46,-90.2119 1562.85,-39.6445 1754.26,-19.4967"/>
<polygon fill="midnightblue" stroke="midnightblue" points="880.683,-107.932 871.104,-112.46 881.416,-114.894 880.683,-107.932"/>
</g>
<!-- Node17&#45;&gt;Node18 -->
<g id="edge46" class="edge"><title>Node17&#45;&gt;Node18</title>
<path fill="none" stroke="midnightblue" d="M1827.76,-102.69C1831.13,-93.589 1835.04,-83.0141 1837.73,-75.7511"/>
<polygon fill="midnightblue" stroke="midnightblue" points="1824.47,-101.49 1824.28,-112.083 1831.03,-103.921 1824.47,-101.49"/>
</g>
<!-- Node17&#45;&gt;Node19 -->
<g id="edge48" class="edge"><title>Node17&#45;&gt;Node19</title>
<path fill="none" stroke="midnightblue" d="M1790.07,-108.638C1764.73,-98.504 1729.54,-84.4274 1707.27,-75.5164"/>
<polygon fill="midnightblue" stroke="midnightblue" points="1789,-111.979 1799.58,-112.444 1791.6,-105.48 1789,-111.979"/>
</g>
</g>
</svg>
