<?xml version="1.0" encoding="UTF-8" standalone="no"?>
<!DOCTYPE svg PUBLIC "-//W3C//DTD SVG 1.1//EN"
 "http://www.w3.org/Graphics/SVG/1.1/DTD/svg11.dtd">
<!-- Generated by graphviz version 2.28.0 (20120217.0315)
 -->
<!-- Title: G Pages: 1 -->
<svg width="4564pt" height="420pt"
 viewBox="0.00 0.00 4563.55 420.00" xmlns="http://www.w3.org/2000/svg" xmlns:xlink="http://www.w3.org/1999/xlink">
<g id="graph1" class="graph" transform="scale(1 1) rotate(0) translate(4 416)">
<title>G</title>
<polygon fill="white" stroke="white" points="-4,5 -4,-416 4560.55,-416 4560.55,5 -4,5"/>
<!-- Node1 -->
<g id="node1" class="node"><title>Node1</title>
<polygon fill="#bfbfbf" stroke="black" points="2068,-392.5 2068,-411.5 2246,-411.5 2246,-392.5 2068,-392.5"/>
<text text-anchor="middle" x="2157" y="-399.5" font-family="Helvetica,sans-Serif" font-size="10.00">src/MPD/AbstractClientExtension.hh</text>
</g>
<!-- Node2 -->
<g id="node3" class="node"><title>Node2</title>
<a xlink:href="Query_8hh.html" target="_top" xlink:title="src/MPD/Query.hh">
<polygon fill="white" stroke="black" points="2108,-336.5 2108,-355.5 2206,-355.5 2206,-336.5 2108,-336.5"/>
<text text-anchor="middle" x="2157" y="-343.5" font-family="Helvetica,sans-Serif" font-size="10.00">src/MPD/Query.hh</text>
</a>
</g>
<!-- Node1&#45;&gt;Node2 -->
<g id="edge2" class="edge"><title>Node1&#45;&gt;Node2</title>
<path fill="none" stroke="midnightblue" d="M2157,-381.805C2157,-372.91 2157,-362.78 2157,-355.751"/>
<polygon fill="midnightblue" stroke="midnightblue" points="2153.5,-382.083 2157,-392.083 2160.5,-382.083 2153.5,-382.083"/>
</g>
<!-- Node41 -->
<g id="node117" class="node"><title>Node41</title>
<a xlink:href="Playlist_8hh.html" target="_top" xlink:title="src/MPD/Playlist.hh">
<polygon fill="white" stroke="black" points="2631,-224.5 2631,-243.5 2735,-243.5 2735,-224.5 2631,-224.5"/>
<text text-anchor="middle" x="2683" y="-231.5" font-family="Helvetica,sans-Serif" font-size="10.00">src/MPD/Playlist.hh</text>
</a>
</g>
<!-- Node1&#45;&gt;Node41 -->
<g id="edge152" class="edge"><title>Node1&#45;&gt;Node41</title>
<path fill="none" stroke="midnightblue" d="M2193.84,-389.373C2293.84,-357.816 2568.66,-271.083 2655.99,-243.524"/>
<polygon fill="midnightblue" stroke="midnightblue" points="2192.66,-386.077 2184.17,-392.425 2194.76,-392.753 2192.66,-386.077"/>
</g>
<!-- Node42 -->
<g id="node120" class="node"><title>Node42</title>
<a xlink:href="AudioOutput_8hh.html" target="_top" xlink:title="src/MPD/AudioOutput.hh">
<polygon fill="white" stroke="black" points="1486,-336.5 1486,-355.5 1612,-355.5 1612,-336.5 1486,-336.5"/>
<text text-anchor="middle" x="1549" y="-343.5" font-family="Helvetica,sans-Serif" font-size="10.00">src/MPD/AudioOutput.hh</text>
</a>
</g>
<!-- Node1&#45;&gt;Node42 -->
<g id="edge156" class="edge"><title>Node1&#45;&gt;Node42</title>
<path fill="none" stroke="midnightblue" d="M2057.9,-392.199C1931.93,-381.01 1718.14,-362.022 1612.27,-352.62"/>
<polygon fill="midnightblue" stroke="midnightblue" points="2057.67,-395.692 2067.94,-393.09 2058.29,-388.719 2057.67,-395.692"/>
</g>
<!-- Node3 -->
<g id="node5" class="node"><title>Node3</title>
<a xlink:href="BaseClient_8hh.html" target="_top" xlink:title="src/MPD/BaseClient.hh">
<polygon fill="white" stroke="black" points="2097,-280.5 2097,-299.5 2217,-299.5 2217,-280.5 2097,-280.5"/>
<text text-anchor="middle" x="2157" y="-287.5" font-family="Helvetica,sans-Serif" font-size="10.00">src/MPD/BaseClient.hh</text>
</a>
</g>
<!-- Node2&#45;&gt;Node3 -->
<g id="edge4" class="edge"><title>Node2&#45;&gt;Node3</title>
<path fill="none" stroke="midnightblue" d="M2157,-325.805C2157,-316.91 2157,-306.78 2157,-299.751"/>
<polygon fill="midnightblue" stroke="midnightblue" points="2153.5,-326.083 2157,-336.083 2160.5,-326.083 2153.5,-326.083"/>
</g>
<!-- Node4 -->
<g id="node7" class="node"><title>Node4</title>
<a xlink:href="Client_8hh.html" target="_top" xlink:title="src/MPD/Client.hh">
<polygon fill="white" stroke="black" points="2108,-224.5 2108,-243.5 2206,-243.5 2206,-224.5 2108,-224.5"/>
<text text-anchor="middle" x="2157" y="-231.5" font-family="Helvetica,sans-Serif" font-size="10.00">src/MPD/Client.hh</text>
</a>
</g>
<!-- Node3&#45;&gt;Node4 -->
<g id="edge6" class="edge"><title>Node3&#45;&gt;Node4</title>
<path fill="none" stroke="midnightblue" d="M2157,-269.805C2157,-260.91 2157,-250.78 2157,-243.751"/>
<polygon fill="midnightblue" stroke="midnightblue" points="2153.5,-270.083 2157,-280.083 2160.5,-270.083 2153.5,-270.083"/>
</g>
<!-- Node5 -->
<g id="node9" class="node"><title>Node5</title>
<a xlink:href="AbstractClientUser_8hh.html" target="_top" xlink:title="src/MPD/AbstractClientUser.hh">
<polygon fill="white" stroke="black" points="1421.5,-168.5 1421.5,-187.5 1576.5,-187.5 1576.5,-168.5 1421.5,-168.5"/>
<text text-anchor="middle" x="1499" y="-175.5" font-family="Helvetica,sans-Serif" font-size="10.00">src/MPD/AbstractClientUser.hh</text>
</a>
</g>
<!-- Node4&#45;&gt;Node5 -->
<g id="edge8" class="edge"><title>Node4&#45;&gt;Node5</title>
<path fill="none" stroke="midnightblue" d="M2097.78,-228.14C1978.58,-218.357 1709.74,-196.295 1576.66,-185.373"/>
<polygon fill="midnightblue" stroke="midnightblue" points="2097.56,-231.634 2107.81,-228.963 2098.13,-224.657 2097.56,-231.634"/>
</g>
<!-- Node8 -->
<g id="node15" class="node"><title>Node8</title>
<a xlink:href="Database_8hh.html" target="_top" xlink:title="src/Browser/Database/Database.hh">
<polygon fill="white" stroke="black" points="544.5,-0.5 544.5,-19.5 717.5,-19.5 717.5,-0.5 544.5,-0.5"/>
<text text-anchor="middle" x="631" y="-7.5" font-family="Helvetica,sans-Serif" font-size="10.00">src/Browser/Database/Database.hh</text>
</a>
</g>
<!-- Node4&#45;&gt;Node8 -->
<g id="edge86" class="edge"><title>Node4&#45;&gt;Node8</title>
<path fill="none" stroke="midnightblue" d="M2097.88,-233.362C1870.49,-234.396 1052.18,-234.715 797,-188 721.238,-174.13 683.662,-190.014 633,-132 604.67,-99.5587 620.43,-41.4829 627.833,-19.6308"/>
<polygon fill="midnightblue" stroke="midnightblue" points="2097.96,-236.862 2107.95,-233.314 2097.93,-229.862 2097.96,-236.862"/>
</g>
<!-- Node10 -->
<g id="node19" class="node"><title>Node10</title>
<a xlink:href="NowPlaying_8hh.html" target="_top" xlink:title="src/Browser/NowPlaying/NowPlaying.hh">
<polygon fill="white" stroke="black" points="3733,-0.5 3733,-19.5 3927,-19.5 3927,-0.5 3733,-0.5"/>
<text text-anchor="middle" x="3830" y="-7.5" font-family="Helvetica,sans-Serif" font-size="10.00">src/Browser/NowPlaying/NowPlaying.hh</text>
</a>
</g>
<!-- Node4&#45;&gt;Node10 -->
<g id="edge118" class="edge"><title>Node4&#45;&gt;Node10</title>
<path fill="none" stroke="midnightblue" d="M2216.5,-231.397C2578.23,-221.365 4469.49,-164.771 4551,-76 4557.01,-69.4524 4557.09,-62.4782 4551,-56 4529.97,-33.6204 4119.03,-19.1432 3927.15,-13.5773"/>
<polygon fill="midnightblue" stroke="midnightblue" points="2216.14,-227.905 2206.24,-231.68 2216.34,-234.902 2216.14,-227.905"/>
</g>
<!-- Node11 -->
<g id="node21" class="node"><title>Node11</title>
<a xlink:href="PlaylistManager_8hh.html" target="_top" xlink:title="src/Browser/PlaylistManager/PlaylistManager.hh">
<polygon fill="white" stroke="black" points="2468,-0.5 2468,-19.5 2696,-19.5 2696,-0.5 2468,-0.5"/>
<text text-anchor="middle" x="2582" y="-7.5" font-family="Helvetica,sans-Serif" font-size="10.00">src/Browser/PlaylistManager/PlaylistManager.hh</text>
</a>
</g>
<!-- Node4&#45;&gt;Node11 -->
<g id="edge120" class="edge"><title>Node4&#45;&gt;Node11</title>
<path fill="none" stroke="midnightblue" d="M2216.55,-232.772C2355.85,-231.62 2693.8,-225.001 2728,-188 2750.93,-163.195 2743.68,-141.917 2728,-112 2702.31,-62.9996 2640.87,-33.0588 2606.44,-19.5401"/>
<polygon fill="midnightblue" stroke="midnightblue" points="2216.44,-229.273 2206.47,-232.849 2216.5,-236.273 2216.44,-229.273"/>
</g>
<!-- Node12 -->
<g id="node23" class="node"><title>Node12</title>
<a xlink:href="Queue_8hh.html" target="_top" xlink:title="src/Browser/Queue/Queue.hh">
<polygon fill="white" stroke="black" points="1542,-0.5 1542,-19.5 1688,-19.5 1688,-0.5 1542,-0.5"/>
<text text-anchor="middle" x="1615" y="-7.5" font-family="Helvetica,sans-Serif" font-size="10.00">src/Browser/Queue/Queue.hh</text>
</a>
</g>
<!-- Node4&#45;&gt;Node12 -->
<g id="edge124" class="edge"><title>Node4&#45;&gt;Node12</title>
<path fill="none" stroke="midnightblue" d="M2216.45,-228.945C2365.31,-217.685 2737.78,-182.147 2674,-112 2640.75,-75.4239 1922.24,-29.3738 1688.07,-15.2872"/>
<polygon fill="midnightblue" stroke="midnightblue" points="2215.84,-225.48 2206.12,-229.713 2216.36,-232.461 2215.84,-225.48"/>
</g>
<!-- Node14 -->
<g id="node27" class="node"><title>Node14</title>
<a xlink:href="StatBrowser_8hh.html" target="_top" xlink:title="src/Browser/Statistics/StatBrowser.hh">
<polygon fill="white" stroke="black" points="1893,-0.5 1893,-19.5 2077,-19.5 2077,-0.5 1893,-0.5"/>
<text text-anchor="middle" x="1985" y="-7.5" font-family="Helvetica,sans-Serif" font-size="10.00">src/Browser/Statistics/StatBrowser.hh</text>
</a>
</g>
<!-- Node4&#45;&gt;Node14 -->
<g id="edge132" class="edge"><title>Node4&#45;&gt;Node14</title>
<path fill="none" stroke="midnightblue" d="M2216.23,-232.581C2351.55,-231.009 2674.26,-223.533 2707,-188 2729.89,-163.161 2729.17,-137.485 2707,-112 2666.19,-65.0879 2262.65,-30.6864 2077.26,-17.2293"/>
<polygon fill="midnightblue" stroke="midnightblue" points="2216,-229.083 2206.04,-232.692 2216.08,-236.083 2216,-229.083"/>
</g>
<!-- Node17 -->
<g id="node36" class="node"><title>Node17</title>
<a xlink:href="PlaylistAddDialog_8hh.html" target="_top" xlink:title="src/Browser/Queue/PlaylistAddDialog.hh">
<polygon fill="white" stroke="black" points="1641,-112.5 1641,-131.5 1835,-131.5 1835,-112.5 1641,-112.5"/>
<text text-anchor="middle" x="1738" y="-119.5" font-family="Helvetica,sans-Serif" font-size="10.00">src/Browser/Queue/PlaylistAddDialog.hh</text>
</a>
</g>
<!-- Node4&#45;&gt;Node17 -->
<g id="edge122" class="edge"><title>Node4&#45;&gt;Node17</title>
<path fill="none" stroke="midnightblue" d="M2114.78,-221.916C2031.05,-199.934 1845.6,-151.247 1770.51,-131.535"/>
<polygon fill="midnightblue" stroke="midnightblue" points="2113.91,-225.306 2124.47,-224.46 2115.69,-218.535 2113.91,-225.306"/>
</g>
<!-- Node19 -->
<g id="node43" class="node"><title>Node19</title>
<a xlink:href="SettingsPlayback_8hh.html" target="_top" xlink:title="src/Browser/Settings/SettingsPlayback.hh">
<polygon fill="white" stroke="black" points="363.5,-112.5 363.5,-131.5 564.5,-131.5 564.5,-112.5 363.5,-112.5"/>
<text text-anchor="middle" x="464" y="-119.5" font-family="Helvetica,sans-Serif" font-size="10.00">src/Browser/Settings/SettingsPlayback.hh</text>
</a>
</g>
<!-- Node4&#45;&gt;Node19 -->
<g id="edge126" class="edge"><title>Node4&#45;&gt;Node19</title>
<path fill="none" stroke="midnightblue" d="M2097.49,-232.997C1827.82,-232.754 727.107,-229.226 579,-188 537.243,-176.377 494.461,-146.487 474.927,-131.638"/>
<polygon fill="midnightblue" stroke="midnightblue" points="2097.85,-236.497 2107.85,-233.005 2097.86,-229.497 2097.85,-236.497"/>
</g>
<!-- Node20 -->
<g id="node46" class="node"><title>Node20</title>
<a xlink:href="Trayicon_8hh.html" target="_top" xlink:title="src/GManager/Trayicon.hh">
<polygon fill="white" stroke="black" points="213,-112.5 213,-131.5 345,-131.5 345,-112.5 213,-112.5"/>
<text text-anchor="middle" x="279" y="-119.5" font-family="Helvetica,sans-Serif" font-size="10.00">src/GManager/Trayicon.hh</text>
</a>
</g>
<!-- Node4&#45;&gt;Node20 -->
<g id="edge128" class="edge"><title>Node4&#45;&gt;Node20</title>
<path fill="none" stroke="midnightblue" d="M2097.65,-233.159C1842.89,-233.566 840.836,-232.263 529,-188 445.083,-176.089 348.81,-146.336 304.165,-131.579"/>
<polygon fill="midnightblue" stroke="midnightblue" points="2097.81,-236.659 2107.81,-233.142 2097.8,-229.659 2097.81,-236.659"/>
</g>
<!-- Node22 -->
<g id="node52" class="node"><title>Node22</title>
<a xlink:href="SettingsOutputs_8hh.html" target="_top" xlink:title="src/Browser/Settings/SettingsOutputs.hh">
<polygon fill="white" stroke="black" points="-0.5,-112.5 -0.5,-131.5 194.5,-131.5 194.5,-112.5 -0.5,-112.5"/>
<text text-anchor="middle" x="97" y="-119.5" font-family="Helvetica,sans-Serif" font-size="10.00">src/Browser/Settings/SettingsOutputs.hh</text>
</a>
</g>
<!-- Node4&#45;&gt;Node22 -->
<g id="edge130" class="edge"><title>Node4&#45;&gt;Node22</title>
<path fill="none" stroke="midnightblue" d="M2097.53,-232.793C1833.04,-231.665 761.92,-224.868 428,-188 317.985,-175.853 189.999,-146.213 130.543,-131.53"/>
<polygon fill="midnightblue" stroke="midnightblue" points="2097.68,-236.293 2107.7,-232.835 2097.71,-229.293 2097.68,-236.293"/>
</g>
<!-- Node23 -->
<g id="node55" class="node"><title>Node23</title>
<a xlink:href="Heartbeat_8hh.html" target="_top" xlink:title="src/GManager/Heartbeat.hh">
<polygon fill="white" stroke="black" points="659.5,-112.5 659.5,-131.5 796.5,-131.5 796.5,-112.5 659.5,-112.5"/>
<text text-anchor="middle" x="728" y="-119.5" font-family="Helvetica,sans-Serif" font-size="10.00">src/GManager/Heartbeat.hh</text>
</a>
</g>
<!-- Node4&#45;&gt;Node23 -->
<g id="edge136" class="edge"><title>Node4&#45;&gt;Node23</title>
<path fill="none" stroke="midnightblue" d="M2097.42,-232.544C1857.64,-230.491 970.247,-220.732 849,-188 805.488,-176.254 760.272,-146.423 739.585,-131.613"/>
<polygon fill="midnightblue" stroke="midnightblue" points="2097.65,-236.046 2107.68,-232.63 2097.71,-229.046 2097.65,-236.046"/>
</g>
<!-- Node24 -->
<g id="node57" class="node"><title>Node24</title>
<a xlink:href="Statusbar_8hh.html" target="_top" xlink:title="src/GManager/Statusbar.hh">
<polygon fill="white" stroke="black" points="814.5,-56.5 814.5,-75.5 951.5,-75.5 951.5,-56.5 814.5,-56.5"/>
<text text-anchor="middle" x="883" y="-63.5" font-family="Helvetica,sans-Serif" font-size="10.00">src/GManager/Statusbar.hh</text>
</a>
</g>
<!-- Node4&#45;&gt;Node24 -->
<g id="edge142" class="edge"><title>Node4&#45;&gt;Node24</title>
<path fill="none" stroke="midnightblue" d="M2097.72,-232.97C1857.34,-232.233 964.189,-223.331 882,-132 868.109,-116.564 874.703,-89.738 879.511,-75.8696"/>
<polygon fill="midnightblue" stroke="midnightblue" points="2097.99,-236.47 2108,-232.997 2098.01,-229.47 2097.99,-236.47"/>
</g>
<!-- Node26 -->
<g id="node61" class="node"><title>Node26</title>
<a xlink:href="MenuList_8hh.html" target="_top" xlink:title="src/GManager/MenuList.hh">
<polygon fill="white" stroke="black" points="1853,-112.5 1853,-131.5 1987,-131.5 1987,-112.5 1853,-112.5"/>
<text text-anchor="middle" x="1920" y="-119.5" font-family="Helvetica,sans-Serif" font-size="10.00">src/GManager/MenuList.hh</text>
</a>
</g>
<!-- Node4&#45;&gt;Node26 -->
<g id="edge138" class="edge"><title>Node4&#45;&gt;Node26</title>
<path fill="none" stroke="midnightblue" d="M2129.04,-220.021C2080.02,-197.272 1979.88,-150.791 1938.51,-131.591"/>
<polygon fill="midnightblue" stroke="midnightblue" points="2127.86,-223.333 2138.4,-224.368 2130.81,-216.984 2127.86,-223.333"/>
</g>
<!-- Node28 -->
<g id="node65" class="node"><title>Node28</title>
<a xlink:href="PlaybackButtons_8hh.html" target="_top" xlink:title="src/GManager/PlaybackButtons.hh">
<polygon fill="white" stroke="black" points="2005.5,-112.5 2005.5,-131.5 2174.5,-131.5 2174.5,-112.5 2005.5,-112.5"/>
<text text-anchor="middle" x="2090" y="-119.5" font-family="Helvetica,sans-Serif" font-size="10.00">src/GManager/PlaybackButtons.hh</text>
</a>
</g>
<!-- Node4&#45;&gt;Node28 -->
<g id="edge140" class="edge"><title>Node4&#45;&gt;Node28</title>
<path fill="none" stroke="midnightblue" d="M2146.43,-215.64C2131.87,-191.744 2106.22,-149.629 2095.23,-131.591"/>
<polygon fill="midnightblue" stroke="midnightblue" points="2143.55,-217.649 2151.74,-224.368 2149.53,-214.007 2143.55,-217.649"/>
</g>
<!-- Node29 -->
<g id="node68" class="node"><title>Node29</title>
<a xlink:href="StatusIcons_8hh.html" target="_top" xlink:title="src/GManager/StatusIcons.hh">
<polygon fill="white" stroke="black" points="2192.5,-112.5 2192.5,-131.5 2339.5,-131.5 2339.5,-112.5 2192.5,-112.5"/>
<text text-anchor="middle" x="2266" y="-119.5" font-family="Helvetica,sans-Serif" font-size="10.00">src/GManager/StatusIcons.hh</text>
</a>
</g>
<!-- Node4&#45;&gt;Node29 -->
<g id="edge144" class="edge"><title>Node4&#45;&gt;Node29</title>
<path fill="none" stroke="midnightblue" d="M2172.65,-217.205C2196.01,-193.627 2239.22,-150.029 2257.49,-131.591"/>
<polygon fill="midnightblue" stroke="midnightblue" points="2170.11,-214.802 2165.55,-224.368 2175.08,-219.729 2170.11,-214.802"/>
</g>
<!-- Node30 -->
<g id="node71" class="node"><title>Node30</title>
<a xlink:href="TitleLabel_8hh.html" target="_top" xlink:title="src/GManager/TitleLabel.hh">
<polygon fill="white" stroke="black" points="2357.5,-112.5 2357.5,-131.5 2494.5,-131.5 2494.5,-112.5 2357.5,-112.5"/>
<text text-anchor="middle" x="2426" y="-119.5" font-family="Helvetica,sans-Serif" font-size="10.00">src/GManager/TitleLabel.hh</text>
</a>
</g>
<!-- Node4&#45;&gt;Node30 -->
<g id="edge146" class="edge"><title>Node4&#45;&gt;Node30</title>
<path fill="none" stroke="midnightblue" d="M2187.7,-220.446C2242.95,-197.855 2357.74,-150.911 2404.99,-131.591"/>
<polygon fill="midnightblue" stroke="midnightblue" points="2186.04,-217.344 2178.11,-224.368 2188.69,-223.823 2186.04,-217.344"/>
</g>
<!-- Node31 -->
<g id="node73" class="node"><title>Node31</title>
<a xlink:href="VolumeSlider_8hh.html" target="_top" xlink:title="src/GManager/VolumeSlider.hh">
<polygon fill="white" stroke="black" points="2513,-112.5 2513,-131.5 2665,-131.5 2665,-112.5 2513,-112.5"/>
<text text-anchor="middle" x="2589" y="-119.5" font-family="Helvetica,sans-Serif" font-size="10.00">src/GManager/VolumeSlider.hh</text>
</a>
</g>
<!-- Node4&#45;&gt;Node31 -->
<g id="edge148" class="edge"><title>Node4&#45;&gt;Node31</title>
<path fill="none" stroke="midnightblue" d="M2200.27,-221.982C2286.47,-200.033 2477.99,-151.267 2555.48,-131.535"/>
<polygon fill="midnightblue" stroke="midnightblue" points="2199.37,-218.601 2190.54,-224.46 2201.09,-225.384 2199.37,-218.601"/>
</g>
<!-- Node32 -->
<g id="node76" class="node"><title>Node32</title>
<a xlink:href="UpdateInterface_8hh.html" target="_top" xlink:title="src/Glyr/UpdateInterface.hh">
<polygon fill="white" stroke="black" points="3306.5,-112.5 3306.5,-131.5 3443.5,-131.5 3443.5,-112.5 3306.5,-112.5"/>
<text text-anchor="middle" x="3375" y="-119.5" font-family="Helvetica,sans-Serif" font-size="10.00">src/Glyr/UpdateInterface.hh</text>
</a>
</g>
<!-- Node4&#45;&gt;Node32 -->
<g id="edge88" class="edge"><title>Node4&#45;&gt;Node32</title>
<path fill="none" stroke="midnightblue" d="M2216.43,-232.408C2372.91,-230.391 2793.51,-221.886 2928,-188 2948.44,-182.85 2950.7,-173.686 2971,-168 3085.68,-135.874 3224.71,-126.548 3306.17,-123.923"/>
<polygon fill="midnightblue" stroke="midnightblue" points="2216.02,-228.913 2206.07,-232.537 2216.11,-235.912 2216.02,-228.913"/>
</g>
<!-- Node39 -->
<g id="node97" class="node"><title>Node39</title>
<a xlink:href="Request_8hh.html" target="_top" xlink:title="src/Glyr/Request.hh">
<polygon fill="white" stroke="black" points="4438,-56.5 4438,-75.5 4542,-75.5 4542,-56.5 4438,-56.5"/>
<text text-anchor="middle" x="4490" y="-63.5" font-family="Helvetica,sans-Serif" font-size="10.00">src/Glyr/Request.hh</text>
</a>
</g>
<!-- Node4&#45;&gt;Node39 -->
<g id="edge134" class="edge"><title>Node4&#45;&gt;Node39</title>
<path fill="none" stroke="midnightblue" d="M2216.17,-230.142C2349.62,-223.6 2684.27,-206.653 2964,-188 3605.84,-145.202 3766.5,-135.568 4407,-76 4416.96,-75.0739 4427.58,-73.9932 4437.78,-72.9085"/>
<polygon fill="midnightblue" stroke="midnightblue" points="2215.97,-226.648 2206.15,-230.632 2216.31,-233.64 2215.97,-226.648"/>
</g>
<!-- Node40 -->
<g id="node115" class="node"><title>Node40</title>
<a xlink:href="check__mpd_8hh.html" target="_top" xlink:title="src/MPD/check_mpd.hh">
<polygon fill="white" stroke="black" points="2797,-168.5 2797,-187.5 2919,-187.5 2919,-168.5 2797,-168.5"/>
<text text-anchor="middle" x="2858" y="-175.5" font-family="Helvetica,sans-Serif" font-size="10.00">src/MPD/check_mpd.hh</text>
</a>
</g>
<!-- Node4&#45;&gt;Node40 -->
<g id="edge150" class="edge"><title>Node4&#45;&gt;Node40</title>
<path fill="none" stroke="midnightblue" d="M2216.18,-229.689C2327.36,-223.259 2575.01,-207.944 2783,-188 2787.44,-187.574 2792.02,-187.103 2796.63,-186.606"/>
<polygon fill="midnightblue" stroke="midnightblue" points="2215.95,-226.196 2206.17,-230.265 2216.35,-233.185 2215.95,-226.196"/>
</g>
<!-- Node6 -->
<g id="node11" class="node"><title>Node6</title>
<a xlink:href="BrowserList_8hh.html" target="_top" xlink:title="src/GManager/BrowserList.hh">
<polygon fill="white" stroke="black" points="1325,-112.5 1325,-131.5 1471,-131.5 1471,-112.5 1325,-112.5"/>
<text text-anchor="middle" x="1398" y="-119.5" font-family="Helvetica,sans-Serif" font-size="10.00">src/GManager/BrowserList.hh</text>
</a>
</g>
<!-- Node5&#45;&gt;Node6 -->
<g id="edge10" class="edge"><title>Node5&#45;&gt;Node6</title>
<path fill="none" stroke="midnightblue" d="M1473.92,-163.59C1455.24,-153.605 1430.3,-140.267 1414.19,-131.655"/>
<polygon fill="midnightblue" stroke="midnightblue" points="1472.3,-166.696 1482.77,-168.324 1475.6,-160.522 1472.3,-166.696"/>
</g>
<!-- Node5&#45;&gt;Node8 -->
<g id="edge28" class="edge"><title>Node5&#45;&gt;Node8</title>
<path fill="none" stroke="midnightblue" d="M1411.32,-175.299C1200.02,-170.806 677.935,-157.201 650,-132 617.475,-102.658 624.992,-42.188 629.169,-19.6864"/>
<polygon fill="midnightblue" stroke="midnightblue" points="1411.38,-178.801 1421.45,-175.512 1411.53,-171.802 1411.38,-178.801"/>
</g>
<!-- Node5&#45;&gt;Node11 -->
<g id="edge36" class="edge"><title>Node5&#45;&gt;Node11</title>
<path fill="none" stroke="midnightblue" d="M1519.14,-162.356C1545.36,-143.304 1588,-112.379 1589,-112 1747.22,-51.8256 2242.31,-24.672 2467.93,-15.1859"/>
<polygon fill="midnightblue" stroke="midnightblue" points="1516.99,-159.591 1510.96,-168.301 1521.11,-165.253 1516.99,-159.591"/>
</g>
<!-- Node5&#45;&gt;Node12 -->
<g id="edge42" class="edge"><title>Node5&#45;&gt;Node12</title>
<path fill="none" stroke="midnightblue" d="M1496.83,-158.088C1494.93,-132.342 1495.35,-86.0358 1518,-56 1532.08,-37.3237 1555.8,-26.1307 1576.26,-19.5789"/>
<polygon fill="midnightblue" stroke="midnightblue" points="1493.38,-158.711 1497.8,-168.338 1500.35,-158.054 1493.38,-158.711"/>
</g>
<!-- Node15 -->
<g id="node30" class="node"><title>Node15</title>
<a xlink:href="DatabaseCache_8hh.html" target="_top" xlink:title="src/Browser/Database/DatabaseCache.hh">
<polygon fill="white" stroke="black" points="1067.5,-112.5 1067.5,-131.5 1268.5,-131.5 1268.5,-112.5 1067.5,-112.5"/>
<text text-anchor="middle" x="1168" y="-119.5" font-family="Helvetica,sans-Serif" font-size="10.00">src/Browser/Database/DatabaseCache.hh</text>
</a>
</g>
<!-- Node5&#45;&gt;Node15 -->
<g id="edge30" class="edge"><title>Node5&#45;&gt;Node15</title>
<path fill="none" stroke="midnightblue" d="M1436.42,-166.791C1373.88,-156.587 1278.81,-141.078 1220.2,-131.516"/>
<polygon fill="midnightblue" stroke="midnightblue" points="1436.12,-170.288 1446.55,-168.444 1437.25,-163.379 1436.12,-170.288"/>
</g>
<!-- Node16 -->
<g id="node32" class="node"><title>Node16</title>
<a xlink:href="CoverArtMgr_8hh.html" target="_top" xlink:title="src/Browser/NowPlaying/CoverArtMgr.hh">
<polygon fill="white" stroke="black" points="2835.5,-56.5 2835.5,-75.5 3032.5,-75.5 3032.5,-56.5 2835.5,-56.5"/>
<text text-anchor="middle" x="2934" y="-63.5" font-family="Helvetica,sans-Serif" font-size="10.00">src/Browser/NowPlaying/CoverArtMgr.hh</text>
</a>
</g>
<!-- Node5&#45;&gt;Node16 -->
<g id="edge32" class="edge"><title>Node5&#45;&gt;Node16</title>
<path fill="none" stroke="midnightblue" d="M1525.2,-163.845C1562.32,-145.262 1626.36,-113.407 1632,-112 1747.38,-83.2054 2551.92,-71.351 2835.42,-68.0369"/>
<polygon fill="midnightblue" stroke="midnightblue" points="1523.33,-160.869 1515.96,-168.478 1526.47,-167.127 1523.33,-160.869"/>
</g>
<!-- Node5&#45;&gt;Node17 -->
<g id="edge38" class="edge"><title>Node5&#45;&gt;Node17</title>
<path fill="none" stroke="midnightblue" d="M1546.72,-166.217C1591.89,-156.013 1658.77,-140.901 1700.31,-131.516"/>
<polygon fill="midnightblue" stroke="midnightblue" points="1545.85,-162.826 1536.87,-168.444 1547.4,-169.654 1545.85,-162.826"/>
</g>
<!-- Node18 -->
<g id="node40" class="node"><title>Node18</title>
<a xlink:href="QueueMerger_8hh.html" target="_top" xlink:title="src/Browser/Queue/QueueMerger.hh">
<polygon fill="white" stroke="black" points="1527,-56.5 1527,-75.5 1703,-75.5 1703,-56.5 1527,-56.5"/>
<text text-anchor="middle" x="1615" y="-63.5" font-family="Helvetica,sans-Serif" font-size="10.00">src/Browser/Queue/QueueMerger.hh</text>
</a>
</g>
<!-- Node5&#45;&gt;Node18 -->
<g id="edge44" class="edge"><title>Node5&#45;&gt;Node18</title>
<path fill="none" stroke="midnightblue" d="M1513.53,-160.761C1525.79,-147.303 1544.02,-127.878 1561,-112 1575.26,-98.6638 1592.79,-84.4197 1603.93,-75.6121"/>
<polygon fill="midnightblue" stroke="midnightblue" points="1510.84,-158.519 1506.73,-168.285 1516.03,-163.214 1510.84,-158.519"/>
</g>
<!-- Node5&#45;&gt;Node19 -->
<g id="edge48" class="edge"><title>Node5&#45;&gt;Node19</title>
<path fill="none" stroke="midnightblue" d="M1411.24,-172.749C1252.66,-165.017 907.808,-147.971 617,-132 600.129,-131.073 582.214,-130.053 564.811,-129.042"/>
<polygon fill="midnightblue" stroke="midnightblue" points="1411.26,-176.254 1421.42,-173.245 1411.6,-169.262 1411.26,-176.254"/>
</g>
<!-- Node5&#45;&gt;Node20 -->
<g id="edge52" class="edge"><title>Node5&#45;&gt;Node20</title>
<path fill="none" stroke="midnightblue" d="M1411.44,-175.95C1219.59,-173.125 747.792,-163.315 354,-132 351.124,-131.771 348.188,-131.515 345.225,-131.239"/>
<polygon fill="midnightblue" stroke="midnightblue" points="1411.42,-179.45 1421.47,-176.095 1411.52,-172.451 1411.42,-179.45"/>
</g>
<!-- Node5&#45;&gt;Node22 -->
<g id="edge60" class="edge"><title>Node5&#45;&gt;Node22</title>
<path fill="none" stroke="midnightblue" d="M1411.2,-175.438C1202.02,-171.392 657.772,-158.952 204,-132 200.929,-131.818 197.81,-131.621 194.661,-131.414"/>
<polygon fill="midnightblue" stroke="midnightblue" points="1411.14,-178.938 1421.21,-175.63 1411.28,-171.939 1411.14,-178.938"/>
</g>
<!-- Node5&#45;&gt;Node23 -->
<g id="edge64" class="edge"><title>Node5&#45;&gt;Node23</title>
<path fill="none" stroke="midnightblue" d="M1410.91,-172.445C1279.96,-165.4 1026.23,-150.699 811,-132 806.379,-131.599 801.617,-131.157 796.82,-130.691"/>
<polygon fill="midnightblue" stroke="midnightblue" points="1411.1,-175.96 1421.28,-173 1411.48,-168.97 1411.1,-175.96"/>
</g>
<!-- Node5&#45;&gt;Node24 -->
<g id="edge76" class="edge"><title>Node5&#45;&gt;Node24</title>
<path fill="none" stroke="midnightblue" d="M1441.46,-166.44C1404.89,-158.856 1356.9,-147.278 1316,-132 1297.75,-125.184 1295.65,-117.641 1277,-112 1166.46,-78.5562 1031.61,-69.6198 951.774,-67.4329"/>
<polygon fill="midnightblue" stroke="midnightblue" points="1440.96,-169.91 1451.46,-168.473 1442.36,-163.05 1440.96,-169.91"/>
</g>
<!-- Node25 -->
<g id="node59" class="node"><title>Node25</title>
<a xlink:href="Timeslide_8hh.html" target="_top" xlink:title="src/GManager/Timeslide.hh">
<polygon fill="white" stroke="black" points="659.5,-56.5 659.5,-75.5 796.5,-75.5 796.5,-56.5 659.5,-56.5"/>
<text text-anchor="middle" x="728" y="-63.5" font-family="Helvetica,sans-Serif" font-size="10.00">src/GManager/Timeslide.hh</text>
</a>
</g>
<!-- Node5&#45;&gt;Node25 -->
<g id="edge80" class="edge"><title>Node5&#45;&gt;Node25</title>
<path fill="none" stroke="midnightblue" d="M1411.14,-174.117C1265.37,-168.744 979.897,-155.553 882,-132 828.956,-119.238 770.767,-90.1654 743.597,-75.6209"/>
<polygon fill="midnightblue" stroke="midnightblue" points="1411.27,-177.624 1421.39,-174.491 1411.52,-170.629 1411.27,-177.624"/>
</g>
<!-- Node5&#45;&gt;Node26 -->
<g id="edge70" class="edge"><title>Node5&#45;&gt;Node26</title>
<path fill="none" stroke="midnightblue" d="M1575.66,-167.167C1655.15,-156.972 1778.14,-141.196 1853.6,-131.516"/>
<polygon fill="midnightblue" stroke="midnightblue" points="1575.18,-163.7 1565.71,-168.444 1576.07,-170.643 1575.18,-163.7"/>
</g>
<!-- Node27 -->
<g id="node63" class="node"><title>Node27</title>
<a xlink:href="NotifyManager_8hh.html" target="_top" xlink:title="src/GManager/NotifyManager.hh">
<polygon fill="white" stroke="black" points="891,-112.5 891,-131.5 1049,-131.5 1049,-112.5 891,-112.5"/>
<text text-anchor="middle" x="970" y="-119.5" font-family="Helvetica,sans-Serif" font-size="10.00">src/GManager/NotifyManager.hh</text>
</a>
</g>
<!-- Node5&#45;&gt;Node27 -->
<g id="edge72" class="edge"><title>Node5&#45;&gt;Node27</title>
<path fill="none" stroke="midnightblue" d="M1411.28,-168.055C1322.28,-158.978 1180.56,-144.52 1058,-132 1055.1,-131.703 1052.14,-131.401 1049.15,-131.096"/>
<polygon fill="midnightblue" stroke="midnightblue" points="1411.03,-171.547 1421.33,-169.08 1411.74,-164.583 1411.03,-171.547"/>
</g>
<!-- Node5&#45;&gt;Node28 -->
<g id="edge74" class="edge"><title>Node5&#45;&gt;Node28</title>
<path fill="none" stroke="midnightblue" d="M1586.91,-169.178C1686.24,-160.308 1852.76,-145.342 1996,-132 1999.1,-131.711 2002.26,-131.416 2005.45,-131.116"/>
<polygon fill="midnightblue" stroke="midnightblue" points="1586.57,-165.695 1576.92,-170.07 1587.19,-172.667 1586.57,-165.695"/>
</g>
<!-- Node5&#45;&gt;Node29 -->
<g id="edge78" class="edge"><title>Node5&#45;&gt;Node29</title>
<path fill="none" stroke="midnightblue" d="M1586.84,-172.413C1717.11,-165.34 1969.16,-150.619 2183,-132 2186.03,-131.736 2189.13,-131.455 2192.25,-131.161"/>
<polygon fill="midnightblue" stroke="midnightblue" points="1586.32,-168.936 1576.53,-172.971 1586.7,-175.925 1586.32,-168.936"/>
</g>
<!-- Node5&#45;&gt;Node30 -->
<g id="edge82" class="edge"><title>Node5&#45;&gt;Node30</title>
<path fill="none" stroke="midnightblue" d="M1587.02,-174.132C1741.33,-168.702 2070.68,-155.326 2348,-132 2350.99,-131.749 2354.04,-131.474 2357.12,-131.182"/>
<polygon fill="midnightblue" stroke="midnightblue" points="1586.53,-170.647 1576.66,-174.494 1586.78,-177.642 1586.53,-170.647"/>
</g>
<!-- Node5&#45;&gt;Node31 -->
<g id="edge84" class="edge"><title>Node5&#45;&gt;Node31</title>
<path fill="none" stroke="midnightblue" d="M1586.73,-174.823C1761.35,-170.101 2164.79,-157.254 2503,-132 2506.14,-131.765 2509.35,-131.508 2512.59,-131.235"/>
<polygon fill="midnightblue" stroke="midnightblue" points="1586.47,-171.328 1576.56,-175.095 1586.65,-178.326 1586.47,-171.328"/>
</g>
<!-- Node7 -->
<g id="node13" class="node"><title>Node7</title>
<a xlink:href="AbstractBrowser_8hh.html" target="_top" xlink:title="src/Browser/AbstractBrowser.hh">
<polygon fill="white" stroke="black" points="1313,-56.5 1313,-75.5 1471,-75.5 1471,-56.5 1313,-56.5"/>
<text text-anchor="middle" x="1392" y="-63.5" font-family="Helvetica,sans-Serif" font-size="10.00">src/Browser/AbstractBrowser.hh</text>
</a>
</g>
<!-- Node6&#45;&gt;Node7 -->
<g id="edge12" class="edge"><title>Node6&#45;&gt;Node7</title>
<path fill="none" stroke="midnightblue" d="M1395.9,-102.101C1394.9,-93.1357 1393.76,-82.8579 1392.97,-75.7511"/>
<polygon fill="midnightblue" stroke="midnightblue" points="1392.43,-102.531 1397.01,-112.083 1399.38,-101.758 1392.43,-102.531"/>
</g>
<!-- Node7&#45;&gt;Node8 -->
<g id="edge14" class="edge"><title>Node7&#45;&gt;Node8</title>
<path fill="none" stroke="midnightblue" d="M1302.35,-58.6386C1154.91,-48.1766 863.127,-27.4716 717.665,-17.1497"/>
<polygon fill="midnightblue" stroke="midnightblue" points="1302.49,-62.1572 1312.71,-59.3739 1302.99,-55.1747 1302.49,-62.1572"/>
</g>
<!-- Node9 -->
<g id="node17" class="node"><title>Node9</title>
<a xlink:href="Fortuna_8hh.html" target="_top" xlink:title="src/Browser/Fortuna/Fortuna.hh">
<polygon fill="white" stroke="black" points="1314.5,-0.5 1314.5,-19.5 1469.5,-19.5 1469.5,-0.5 1314.5,-0.5"/>
<text text-anchor="middle" x="1392" y="-7.5" font-family="Helvetica,sans-Serif" font-size="10.00">src/Browser/Fortuna/Fortuna.hh</text>
</a>
</g>
<!-- Node7&#45;&gt;Node9 -->
<g id="edge16" class="edge"><title>Node7&#45;&gt;Node9</title>
<path fill="none" stroke="midnightblue" d="M1392,-45.8045C1392,-36.9102 1392,-26.7798 1392,-19.7511"/>
<polygon fill="midnightblue" stroke="midnightblue" points="1388.5,-46.083 1392,-56.083 1395.5,-46.083 1388.5,-46.083"/>
</g>
<!-- Node7&#45;&gt;Node10 -->
<g id="edge18" class="edge"><title>Node7&#45;&gt;Node10</title>
<path fill="none" stroke="midnightblue" d="M1481.51,-58.0319C1493.77,-57.2459 1506.19,-56.5364 1518,-56 2376,-17.0335 3414.61,-11.7678 3732.75,-11.0894"/>
<polygon fill="midnightblue" stroke="midnightblue" points="1481.02,-54.5565 1471.28,-58.708 1481.48,-61.5413 1481.02,-54.5565"/>
</g>
<!-- Node7&#45;&gt;Node11 -->
<g id="edge20" class="edge"><title>Node7&#45;&gt;Node11</title>
<path fill="none" stroke="midnightblue" d="M1481.53,-58.2836C1493.78,-57.4585 1506.2,-56.671 1518,-56 1863.64,-36.3506 2272.9,-21.3705 2467.79,-14.7418"/>
<polygon fill="midnightblue" stroke="midnightblue" points="1481.03,-54.8094 1471.29,-58.9838 1481.51,-61.7931 1481.03,-54.8094"/>
</g>
<!-- Node7&#45;&gt;Node12 -->
<g id="edge22" class="edge"><title>Node7&#45;&gt;Node12</title>
<path fill="none" stroke="midnightblue" d="M1437.06,-54.0884C1479.19,-43.8865 1541.24,-28.8612 1579.83,-19.5164"/>
<polygon fill="midnightblue" stroke="midnightblue" points="1436.23,-50.6883 1427.34,-56.4435 1437.88,-57.4916 1436.23,-50.6883"/>
</g>
<!-- Node13 -->
<g id="node25" class="node"><title>Node13</title>
<a xlink:href="Settings_8hh.html" target="_top" xlink:title="src/Browser/Settings/Settings.hh">
<polygon fill="white" stroke="black" points="323.5,-0.5 323.5,-19.5 484.5,-19.5 484.5,-0.5 323.5,-0.5"/>
<text text-anchor="middle" x="404" y="-7.5" font-family="Helvetica,sans-Serif" font-size="10.00">src/Browser/Settings/Settings.hh</text>
</a>
</g>
<!-- Node7&#45;&gt;Node13 -->
<g id="edge24" class="edge"><title>Node7&#45;&gt;Node13</title>
<path fill="none" stroke="midnightblue" d="M1302.81,-60.7914C1147,-53.3333 815.129,-36.9763 535,-20 518.73,-19.014 501.33,-17.8768 484.699,-16.7496"/>
<polygon fill="midnightblue" stroke="midnightblue" points="1302.66,-64.2881 1312.81,-61.2697 1302.99,-57.2961 1302.66,-64.2881"/>
</g>
<!-- Node7&#45;&gt;Node14 -->
<g id="edge26" class="edge"><title>Node7&#45;&gt;Node14</title>
<path fill="none" stroke="midnightblue" d="M1481.21,-56.8762C1592.15,-46.7736 1780.58,-29.6148 1892.86,-19.3901"/>
<polygon fill="midnightblue" stroke="midnightblue" points="1480.69,-53.4088 1471.05,-57.8013 1481.33,-60.3799 1480.69,-53.4088"/>
</g>
<!-- Node16&#45;&gt;Node10 -->
<g id="edge34" class="edge"><title>Node16&#45;&gt;Node10</title>
<path fill="none" stroke="midnightblue" d="M3042.81,-55.9621C3298.49,-38.1297 3586.07,-23.0599 3732.9,-15.7281"/>
<polygon fill="midnightblue" stroke="midnightblue" points="3042.31,-52.4883 3032.58,-56.6782 3042.8,-59.4712 3042.31,-52.4883"/>
</g>
<!-- Node17&#45;&gt;Node12 -->
<g id="edge40" class="edge"><title>Node17&#45;&gt;Node12</title>
<path fill="none" stroke="midnightblue" d="M1734.1,-102.214C1730.3,-88.0071 1723.26,-68.8218 1711,-56 1693.83,-38.0411 1668.07,-26.5092 1647.56,-19.6199"/>
<polygon fill="midnightblue" stroke="midnightblue" points="1730.78,-103.395 1736.48,-112.323 1737.59,-101.787 1730.78,-103.395"/>
</g>
<!-- Node18&#45;&gt;Node12 -->
<g id="edge46" class="edge"><title>Node18&#45;&gt;Node12</title>
<path fill="none" stroke="midnightblue" d="M1615,-45.8045C1615,-36.9102 1615,-26.7798 1615,-19.7511"/>
<polygon fill="midnightblue" stroke="midnightblue" points="1611.5,-46.083 1615,-56.083 1618.5,-46.083 1611.5,-46.083"/>
</g>
<!-- Node19&#45;&gt;Node13 -->
<g id="edge50" class="edge"><title>Node19&#45;&gt;Node13</title>
<path fill="none" stroke="midnightblue" d="M454.356,-103.32C441.293,-79.3697 418.481,-37.5484 408.686,-19.5914"/>
<polygon fill="midnightblue" stroke="midnightblue" points="451.431,-105.266 459.292,-112.368 457.576,-101.914 451.431,-105.266"/>
</g>
<!-- Node20&#45;&gt;Node13 -->
<g id="edge58" class="edge"><title>Node20&#45;&gt;Node13</title>
<path fill="none" stroke="midnightblue" d="M329.23,-109.283C348.672,-102.47 369.652,-91.9616 384,-76 398.523,-59.8433 402.501,-33.3328 403.59,-19.6986"/>
<polygon fill="midnightblue" stroke="midnightblue" points="327.977,-106.01 319.547,-112.428 330.14,-112.668 327.977,-106.01"/>
</g>
<!-- Node21 -->
<g id="node48" class="node"><title>Node21</title>
<a xlink:href="SettingsGeneral_8hh.html" target="_top" xlink:title="src/Browser/Settings/SettingsGeneral.hh">
<polygon fill="white" stroke="black" points="182,-56.5 182,-75.5 376,-75.5 376,-56.5 182,-56.5"/>
<text text-anchor="middle" x="279" y="-63.5" font-family="Helvetica,sans-Serif" font-size="10.00">src/Browser/Settings/SettingsGeneral.hh</text>
</a>
</g>
<!-- Node20&#45;&gt;Node21 -->
<g id="edge54" class="edge"><title>Node20&#45;&gt;Node21</title>
<path fill="none" stroke="midnightblue" d="M279,-101.805C279,-92.9102 279,-82.7798 279,-75.7511"/>
<polygon fill="midnightblue" stroke="midnightblue" points="275.5,-102.083 279,-112.083 282.5,-102.083 275.5,-102.083"/>
</g>
<!-- Node21&#45;&gt;Node13 -->
<g id="edge56" class="edge"><title>Node21&#45;&gt;Node13</title>
<path fill="none" stroke="midnightblue" d="M308.241,-52.3678C331.65,-42.2553 363.841,-28.3486 384.286,-19.5164"/>
<polygon fill="midnightblue" stroke="midnightblue" points="306.599,-49.2647 298.807,-56.4435 309.375,-55.6907 306.599,-49.2647"/>
</g>
<!-- Node22&#45;&gt;Node13 -->
<g id="edge62" class="edge"><title>Node22&#45;&gt;Node13</title>
<path fill="none" stroke="midnightblue" d="M111.312,-104.657C125.45,-89.5997 148.465,-67.8509 173,-56 219.909,-33.3424 277.392,-22.0916 323.28,-16.5056"/>
<polygon fill="midnightblue" stroke="midnightblue" points="108.562,-102.478 104.417,-112.228 113.738,-107.191 108.562,-102.478"/>
</g>
<!-- Node23&#45;&gt;Node24 -->
<g id="edge66" class="edge"><title>Node23&#45;&gt;Node24</title>
<path fill="none" stroke="midnightblue" d="M762.332,-109.039C791.497,-98.8786 832.637,-84.5457 858.555,-75.5164"/>
<polygon fill="midnightblue" stroke="midnightblue" points="760.852,-105.848 752.56,-112.444 763.155,-112.459 760.852,-105.848"/>
</g>
<!-- Node23&#45;&gt;Node25 -->
<g id="edge68" class="edge"><title>Node23&#45;&gt;Node25</title>
<path fill="none" stroke="midnightblue" d="M728,-101.805C728,-92.9102 728,-82.7798 728,-75.7511"/>
<polygon fill="midnightblue" stroke="midnightblue" points="724.5,-102.083 728,-112.083 731.5,-102.083 724.5,-102.083"/>
</g>
<!-- Node32&#45;&gt;Node10 -->
<g id="edge112" class="edge"><title>Node32&#45;&gt;Node10</title>
<path fill="none" stroke="midnightblue" d="M3454.07,-112.299C3455.39,-112.195 3456.7,-112.096 3458,-112 3509.68,-108.205 4354.07,-113.34 4390,-76 4396.16,-69.5945 4396.03,-62.5323 4390,-56 4359.32,-22.7598 4079.07,-14.0643 3927.04,-11.7959"/>
<polygon fill="midnightblue" stroke="midnightblue" points="3453.48,-108.837 3443.81,-113.167 3454.07,-115.812 3453.48,-108.837"/>
</g>
<!-- Node32&#45;&gt;Node16 -->
<g id="edge94" class="edge"><title>Node32&#45;&gt;Node16</title>
<path fill="none" stroke="midnightblue" d="M3295.93,-111.318C3212.7,-101.126 3082.95,-85.2391 3003.51,-75.5118"/>
<polygon fill="midnightblue" stroke="midnightblue" points="3295.74,-114.821 3306.09,-112.562 3296.59,-107.873 3295.74,-114.821"/>
</g>
<!-- Node33 -->
<g id="node78" class="node"><title>Node33</title>
<a xlink:href="ArtistPhotosMgr_8hh.html" target="_top" xlink:title="src/Browser/NowPlaying/ArtistPhotosMgr.hh">
<polygon fill="white" stroke="black" points="3269,-56.5 3269,-75.5 3481,-75.5 3481,-56.5 3269,-56.5"/>
<text text-anchor="middle" x="3375" y="-63.5" font-family="Helvetica,sans-Serif" font-size="10.00">src/Browser/NowPlaying/ArtistPhotosMgr.hh</text>
</a>
</g>
<!-- Node32&#45;&gt;Node33 -->
<g id="edge90" class="edge"><title>Node32&#45;&gt;Node33</title>
<path fill="none" stroke="midnightblue" d="M3375,-101.805C3375,-92.9102 3375,-82.7798 3375,-75.7511"/>
<polygon fill="midnightblue" stroke="midnightblue" points="3371.5,-102.083 3375,-112.083 3378.5,-102.083 3371.5,-102.083"/>
</g>
<!-- Node34 -->
<g id="node82" class="node"><title>Node34</title>
<a xlink:href="OtherAlbumsMgr_8hh.html" target="_top" xlink:title="src/Browser/NowPlaying/OtherAlbumsMgr.hh">
<polygon fill="white" stroke="black" points="3499.5,-56.5 3499.5,-75.5 3714.5,-75.5 3714.5,-56.5 3499.5,-56.5"/>
<text text-anchor="middle" x="3607" y="-63.5" font-family="Helvetica,sans-Serif" font-size="10.00">src/Browser/NowPlaying/OtherAlbumsMgr.hh</text>
</a>
</g>
<!-- Node32&#45;&gt;Node34 -->
<g id="edge96" class="edge"><title>Node32&#45;&gt;Node34</title>
<path fill="none" stroke="midnightblue" d="M3421.6,-110.153C3465.44,-99.95 3530.18,-84.8809 3570.41,-75.5164"/>
<polygon fill="midnightblue" stroke="midnightblue" points="3420.71,-106.768 3411.76,-112.444 3422.29,-113.585 3420.71,-106.768"/>
</g>
<!-- Node35 -->
<g id="node85" class="node"><title>Node35</title>
<a xlink:href="TracklistMgr_8hh.html" target="_top" xlink:title="src/Browser/NowPlaying/TracklistMgr.hh">
<polygon fill="white" stroke="black" points="3732.5,-56.5 3732.5,-75.5 3927.5,-75.5 3927.5,-56.5 3732.5,-56.5"/>
<text text-anchor="middle" x="3830" y="-63.5" font-family="Helvetica,sans-Serif" font-size="10.00">src/Browser/NowPlaying/TracklistMgr.hh</text>
</a>
</g>
<!-- Node32&#45;&gt;Node35 -->
<g id="edge100" class="edge"><title>Node32&#45;&gt;Node35</title>
<path fill="none" stroke="midnightblue" d="M3453.55,-111.678C3539.24,-101.507 3675.26,-85.3652 3758.2,-75.5216"/>
<polygon fill="midnightblue" stroke="midnightblue" points="3453.13,-108.203 3443.61,-112.857 3453.95,-115.154 3453.13,-108.203"/>
</g>
<!-- Node36 -->
<g id="node88" class="node"><title>Node36</title>
<a xlink:href="TextItemsMgr_8hh.html" target="_top" xlink:title="src/Browser/NowPlaying/TextItemsMgr.hh">
<polygon fill="white" stroke="black" points="3946,-56.5 3946,-75.5 4148,-75.5 4148,-56.5 3946,-56.5"/>
<text text-anchor="middle" x="4047" y="-63.5" font-family="Helvetica,sans-Serif" font-size="10.00">src/Browser/NowPlaying/TextItemsMgr.hh</text>
</a>
</g>
<!-- Node32&#45;&gt;Node36 -->
<g id="edge104" class="edge"><title>Node32&#45;&gt;Node36</title>
<path fill="none" stroke="midnightblue" d="M3454.07,-112.366C3455.39,-112.241 3456.7,-112.119 3458,-112 3670.15,-92.514 3723.6,-92.6088 3936,-76 3939.28,-75.7438 3942.61,-75.4819 3945.97,-75.2162"/>
<polygon fill="midnightblue" stroke="midnightblue" points="3453.44,-108.911 3443.83,-113.361 3454.12,-115.878 3453.44,-108.911"/>
</g>
<!-- Node37 -->
<g id="node91" class="node"><title>Node37</title>
<a xlink:href="RelatedLinksMgr_8hh.html" target="_top" xlink:title="src/Browser/NowPlaying/RelatedLinksMgr.hh">
<polygon fill="white" stroke="black" points="4166.5,-56.5 4166.5,-75.5 4381.5,-75.5 4381.5,-56.5 4166.5,-56.5"/>
<text text-anchor="middle" x="4274" y="-63.5" font-family="Helvetica,sans-Serif" font-size="10.00">src/Browser/NowPlaying/RelatedLinksMgr.hh</text>
</a>
</g>
<!-- Node32&#45;&gt;Node37 -->
<g id="edge108" class="edge"><title>Node32&#45;&gt;Node37</title>
<path fill="none" stroke="midnightblue" d="M3454.07,-112.323C3455.39,-112.212 3456.7,-112.104 3458,-112 3768.09,-87.2227 3846.56,-95.9309 4157,-76 4160.05,-75.8042 4163.14,-75.6005 4166.27,-75.3904"/>
<polygon fill="midnightblue" stroke="midnightblue" points="3453.46,-108.863 3443.81,-113.235 3454.09,-115.835 3453.46,-108.863"/>
</g>
<!-- Node38 -->
<g id="node95" class="node"><title>Node38</title>
<a xlink:href="TextPageMgr_8hh.html" target="_top" xlink:title="src/Browser/NowPlaying/TextPageMgr.hh">
<polygon fill="white" stroke="black" points="3051,-56.5 3051,-75.5 3251,-75.5 3251,-56.5 3051,-56.5"/>
<text text-anchor="middle" x="3151" y="-63.5" font-family="Helvetica,sans-Serif" font-size="10.00">src/Browser/NowPlaying/TextPageMgr.hh</text>
</a>
</g>
<!-- Node32&#45;&gt;Node38 -->
<g id="edge114" class="edge"><title>Node32&#45;&gt;Node38</title>
<path fill="none" stroke="midnightblue" d="M3329.74,-110.088C3287.42,-99.8865 3225.09,-84.8612 3186.33,-75.5164"/>
<polygon fill="midnightblue" stroke="midnightblue" points="3328.96,-113.502 3339.51,-112.444 3330.61,-106.697 3328.96,-113.502"/>
</g>
<!-- Node32&#45;&gt;Node39 -->
<g id="edge116" class="edge"><title>Node32&#45;&gt;Node39</title>
<path fill="none" stroke="midnightblue" d="M3454.07,-112.297C3455.39,-112.194 3456.7,-112.095 3458,-112 3886.5,-80.823 3995.97,-113.069 4424,-76 4428.49,-75.6109 4433.15,-75.1314 4437.81,-74.5982"/>
<polygon fill="midnightblue" stroke="midnightblue" points="3453.48,-108.834 3443.81,-113.16 3454.07,-115.809 3453.48,-108.834"/>
</g>
<!-- Node33&#45;&gt;Node10 -->
<g id="edge92" class="edge"><title>Node33&#45;&gt;Node10</title>
<path fill="none" stroke="midnightblue" d="M3456.81,-55.2906C3542.65,-45.1031 3676.26,-29.2464 3758.16,-19.5264"/>
<polygon fill="midnightblue" stroke="midnightblue" points="3456.36,-51.8191 3446.85,-56.4733 3457.19,-58.7703 3456.36,-51.8191"/>
</g>
<!-- Node34&#45;&gt;Node10 -->
<g id="edge98" class="edge"><title>Node34&#45;&gt;Node10</title>
<path fill="none" stroke="midnightblue" d="M3652.06,-54.0884C3694.19,-43.8865 3756.24,-28.8612 3794.83,-19.5164"/>
<polygon fill="midnightblue" stroke="midnightblue" points="3651.23,-50.6883 3642.34,-56.4435 3652.88,-57.4916 3651.23,-50.6883"/>
</g>
<!-- Node35&#45;&gt;Node10 -->
<g id="edge102" class="edge"><title>Node35&#45;&gt;Node10</title>
<path fill="none" stroke="midnightblue" d="M3830,-45.8045C3830,-36.9102 3830,-26.7798 3830,-19.7511"/>
<polygon fill="midnightblue" stroke="midnightblue" points="3826.5,-46.083 3830,-56.083 3833.5,-46.083 3826.5,-46.083"/>
</g>
<!-- Node36&#45;&gt;Node10 -->
<g id="edge106" class="edge"><title>Node36&#45;&gt;Node10</title>
<path fill="none" stroke="midnightblue" d="M4002.89,-54.0237C3961.9,-43.8232 3901.7,-28.8414 3864.22,-19.5164"/>
<polygon fill="midnightblue" stroke="midnightblue" points="4002.07,-57.425 4012.62,-56.4435 4003.76,-50.6322 4002.07,-57.425"/>
</g>
<!-- Node37&#45;&gt;Node10 -->
<g id="edge110" class="edge"><title>Node37&#45;&gt;Node10</title>
<path fill="none" stroke="midnightblue" d="M4193.66,-55.2291C4109.85,-45.0359 3979.78,-29.216 3900.02,-19.5164"/>
<polygon fill="midnightblue" stroke="midnightblue" points="4193.3,-58.7105 4203.65,-56.4435 4194.14,-51.7617 4193.3,-58.7105"/>
</g>
<!-- Node41&#45;&gt;Node11 -->
<g id="edge154" class="edge"><title>Node41&#45;&gt;Node11</title>
<path fill="none" stroke="midnightblue" d="M2745.29,-230.37C2810.07,-226.173 2905.17,-215.4 2928,-188 2933.69,-181.17 2931.92,-175.978 2928,-168 2910.05,-131.455 2819.85,-73.3043 2783,-56 2742.86,-37.1543 2694.45,-26.0075 2655.2,-19.5229"/>
<polygon fill="midnightblue" stroke="midnightblue" points="2744.94,-226.885 2735.17,-230.989 2745.37,-233.872 2744.94,-226.885"/>
</g>
<!-- Node43 -->
<g id="node122" class="node"><title>Node43</title>
<a xlink:href="OutputsModelColumns_8hh.html" target="_top" xlink:title="src/Browser/Settings/OutputsModelColumns.hh">
<polygon fill="white" stroke="black" points="958,-280.5 958,-299.5 1182,-299.5 1182,-280.5 958,-280.5"/>
<text text-anchor="middle" x="1070" y="-287.5" font-family="Helvetica,sans-Serif" font-size="10.00">src/Browser/Settings/OutputsModelColumns.hh</text>
</a>
</g>
<!-- Node42&#45;&gt;Node43 -->
<g id="edge158" class="edge"><title>Node42&#45;&gt;Node43</title>
<path fill="none" stroke="midnightblue" d="M1475.83,-336.751C1386.43,-326.672 1235.94,-309.707 1145.49,-299.511"/>
<polygon fill="midnightblue" stroke="midnightblue" points="1475.56,-340.243 1485.89,-337.885 1476.34,-333.287 1475.56,-340.243"/>
</g>
<!-- Node43&#45;&gt;Node22 -->
<g id="edge160" class="edge"><title>Node43&#45;&gt;Node22</title>
<path fill="none" stroke="midnightblue" d="M947.584,-280.1C793.956,-267.318 523.066,-239.428 296,-188 230.068,-173.067 154.893,-145.521 118.711,-131.572"/>
<polygon fill="midnightblue" stroke="midnightblue" points="947.732,-283.624 957.986,-280.957 948.307,-276.647 947.732,-283.624"/>
</g>
</g>
</svg>
