<?xml version="1.0" encoding="UTF-8" standalone="no"?>
<!DOCTYPE svg PUBLIC "-//W3C//DTD SVG 1.1//EN"
 "http://www.w3.org/Graphics/SVG/1.1/DTD/svg11.dtd">
<!-- Generated by graphviz version 2.28.0 (20111204.1018)
 -->
<!-- Title: G Pages: 1 -->
<svg width="887pt" height="140pt"
 viewBox="0.00 0.00 887.00 140.00" xmlns="http://www.w3.org/2000/svg" xmlns:xlink="http://www.w3.org/1999/xlink">
<g id="graph1" class="graph" transform="scale(1 1) rotate(0) translate(4 136)">
<title>G</title>
<polygon fill="white" stroke="white" points="-4,5 -4,-136 884,-136 884,5 -4,5"/>
<!-- Node1 -->
<g id="node1" class="node"><title>Node1</title>
<polygon fill="#bfbfbf" stroke="black" points="257.5,-112.5 257.5,-131.5 454.5,-131.5 454.5,-112.5 257.5,-112.5"/>
<text text-anchor="middle" x="356" y="-119.5" font-family="Helvetica,sans-Serif" font-size="10.00">src/Browser/Settings/AbstractSettings.hh</text>
</g>
<!-- Node2 -->
<g id="node3" class="node"><title>Node2</title>
<a xlink:href="SettingsPlayback_8hh.html" target="_top" xlink:title="src/Browser/Settings/SettingsPlayback.hh">
<polygon fill="white" stroke="black" points="-0.5,-56.5 -0.5,-75.5 200.5,-75.5 200.5,-56.5 -0.5,-56.5"/>
<text text-anchor="middle" x="100" y="-63.5" font-family="Helvetica,sans-Serif" font-size="10.00">src/Browser/Settings/SettingsPlayback.hh</text>
</a>
</g>
<!-- Node1&#45;&gt;Node2 -->
<g id="edge2" class="edge"><title>Node1&#45;&gt;Node2</title>
<path fill="none" stroke="midnightblue" d="M305.49,-110.346C257.111,-100.141 185.049,-84.94 140.374,-75.5164"/>
<polygon fill="midnightblue" stroke="midnightblue" points="304.929,-113.804 315.436,-112.444 306.374,-106.955 304.929,-113.804"/>
</g>
<!-- Node3 -->
<g id="node5" class="node"><title>Node3</title>
<a xlink:href="Settings_8hh.html" target="_top" xlink:title="src/Browser/Settings/Settings.hh">
<polygon fill="white" stroke="black" points="275.5,-0.5 275.5,-19.5 436.5,-19.5 436.5,-0.5 275.5,-0.5"/>
<text text-anchor="middle" x="356" y="-7.5" font-family="Helvetica,sans-Serif" font-size="10.00">src/Browser/Settings/Settings.hh</text>
</a>
</g>
<!-- Node1&#45;&gt;Node3 -->
<g id="edge18" class="edge"><title>Node1&#45;&gt;Node3</title>
<path fill="none" stroke="midnightblue" d="M294.726,-109.207C276.628,-102.563 258.792,-92.1887 248,-76 228.76,-47.1394 274.744,-29.0996 312.563,-19.5446"/>
<polygon fill="midnightblue" stroke="midnightblue" points="293.876,-112.613 304.47,-112.44 296.081,-105.969 293.876,-112.613"/>
</g>
<!-- Node4 -->
<g id="node7" class="node"><title>Node4</title>
<a xlink:href="SettingsNetwork_8hh.html" target="_top" xlink:title="src/Browser/Settings/SettingsNetwork.hh">
<polygon fill="white" stroke="black" points="257.5,-56.5 257.5,-75.5 454.5,-75.5 454.5,-56.5 257.5,-56.5"/>
<text text-anchor="middle" x="356" y="-63.5" font-family="Helvetica,sans-Serif" font-size="10.00">src/Browser/Settings/SettingsNetwork.hh</text>
</a>
</g>
<!-- Node1&#45;&gt;Node4 -->
<g id="edge6" class="edge"><title>Node1&#45;&gt;Node4</title>
<path fill="none" stroke="midnightblue" d="M356,-101.805C356,-92.9102 356,-82.7798 356,-75.7511"/>
<polygon fill="midnightblue" stroke="midnightblue" points="352.5,-102.083 356,-112.083 359.5,-102.083 352.5,-102.083"/>
</g>
<!-- Node5 -->
<g id="node10" class="node"><title>Node5</title>
<a xlink:href="SettingsGeneral_8hh.html" target="_top" xlink:title="src/Browser/Settings/SettingsGeneral.hh">
<polygon fill="white" stroke="black" points="473,-56.5 473,-75.5 667,-75.5 667,-56.5 473,-56.5"/>
<text text-anchor="middle" x="570" y="-63.5" font-family="Helvetica,sans-Serif" font-size="10.00">src/Browser/Settings/SettingsGeneral.hh</text>
</a>
</g>
<!-- Node1&#45;&gt;Node5 -->
<g id="edge10" class="edge"><title>Node1&#45;&gt;Node5</title>
<path fill="none" stroke="midnightblue" d="M399.755,-109.959C440.174,-99.7598 499.373,-84.8217 536.25,-75.5164"/>
<polygon fill="midnightblue" stroke="midnightblue" points="398.749,-106.603 389.909,-112.444 400.461,-113.39 398.749,-106.603"/>
</g>
<!-- Node6 -->
<g id="node13" class="node"><title>Node6</title>
<a xlink:href="SettingsOutputs_8hh.html" target="_top" xlink:title="src/Browser/Settings/SettingsOutputs.hh">
<polygon fill="white" stroke="black" points="684.5,-56.5 684.5,-75.5 879.5,-75.5 879.5,-56.5 684.5,-56.5"/>
<text text-anchor="middle" x="782" y="-63.5" font-family="Helvetica,sans-Serif" font-size="10.00">src/Browser/Settings/SettingsOutputs.hh</text>
</a>
</g>
<!-- Node1&#45;&gt;Node6 -->
<g id="edge14" class="edge"><title>Node1&#45;&gt;Node6</title>
<path fill="none" stroke="midnightblue" d="M433.572,-111.167C514.002,-100.972 638.451,-85.1963 714.815,-75.5164"/>
<polygon fill="midnightblue" stroke="midnightblue" points="432.981,-107.714 423.501,-112.444 433.862,-114.658 432.981,-107.714"/>
</g>
<!-- Node2&#45;&gt;Node3 -->
<g id="edge4" class="edge"><title>Node2&#45;&gt;Node3</title>
<path fill="none" stroke="midnightblue" d="M150.51,-54.3456C198.889,-44.1405 270.951,-28.94 315.626,-19.5164"/>
<polygon fill="midnightblue" stroke="midnightblue" points="149.626,-50.9549 140.564,-56.4435 151.071,-57.8041 149.626,-50.9549"/>
</g>
<!-- Node4&#45;&gt;Node3 -->
<g id="edge8" class="edge"><title>Node4&#45;&gt;Node3</title>
<path fill="none" stroke="midnightblue" d="M356,-45.8045C356,-36.9102 356,-26.7798 356,-19.7511"/>
<polygon fill="midnightblue" stroke="midnightblue" points="352.5,-46.083 356,-56.083 359.5,-46.083 352.5,-46.083"/>
</g>
<!-- Node5&#45;&gt;Node3 -->
<g id="edge12" class="edge"><title>Node5&#45;&gt;Node3</title>
<path fill="none" stroke="midnightblue" d="M526.245,-53.959C485.826,-43.7598 426.627,-28.8217 389.75,-19.5164"/>
<polygon fill="midnightblue" stroke="midnightblue" points="525.539,-57.3904 536.091,-56.4435 527.251,-50.6032 525.539,-57.3904"/>
</g>
<!-- Node6&#45;&gt;Node3 -->
<g id="edge16" class="edge"><title>Node6&#45;&gt;Node3</title>
<path fill="none" stroke="midnightblue" d="M704.428,-55.1669C623.998,-44.9716 499.549,-29.1963 423.185,-19.5164"/>
<polygon fill="midnightblue" stroke="midnightblue" points="704.138,-58.6581 714.499,-56.4435 705.019,-51.7137 704.138,-58.6581"/>
</g>
</g>
</svg>
