<?xml version="1.0" encoding="UTF-8" standalone="no"?>
<!DOCTYPE svg PUBLIC "-//W3C//DTD SVG 1.1//EN"
 "http://www.w3.org/Graphics/SVG/1.1/DTD/svg11.dtd">
<!-- Generated by graphviz version 2.28.0 (20120217.0315)
 -->
<!-- Title: G Pages: 1 -->
<svg width="1358pt" height="84pt"
 viewBox="0.00 0.00 1358.00 84.00" xmlns="http://www.w3.org/2000/svg" xmlns:xlink="http://www.w3.org/1999/xlink">
<g id="graph1" class="graph" transform="scale(1 1) rotate(0) translate(4 80)">
<title>G</title>
<polygon fill="white" stroke="white" points="-4,5 -4,-80 1355,-80 1355,5 -4,5"/>
<!-- Node1 -->
<g id="node1" class="node"><title>Node1</title>
<polygon fill="#bfbfbf" stroke="black" points="611,-56.5 611,-75.5 769,-75.5 769,-56.5 611,-56.5"/>
<text text-anchor="middle" x="690" y="-63.5" font-family="Helvetica,sans-Serif" font-size="10.00">src/Browser/AbstractBrowser.hh</text>
</g>
<!-- Node2 -->
<g id="node3" class="node"><title>Node2</title>
<a xlink:href="Database_8hh.html" target="_top" xlink:title="src/Browser/Database/Database.hh">
<polygon fill="white" stroke="black" points="-0.5,-0.5 -0.5,-19.5 172.5,-19.5 172.5,-0.5 -0.5,-0.5"/>
<text text-anchor="middle" x="86" y="-7.5" font-family="Helvetica,sans-Serif" font-size="10.00">src/Browser/Database/Database.hh</text>
</a>
</g>
<!-- Node1&#45;&gt;Node2 -->
<g id="edge2" class="edge"><title>Node1&#45;&gt;Node2</title>
<path fill="none" stroke="midnightblue" d="M600.409,-57.2506C498.727,-48.4155 327.905,-33.4524 181,-20 178.278,-19.7507 175.512,-19.4962 172.719,-19.2381"/>
<polygon fill="midnightblue" stroke="midnightblue" points="600.372,-60.7605 610.637,-58.1389 600.978,-53.7867 600.372,-60.7605"/>
</g>
<!-- Node3 -->
<g id="node5" class="node"><title>Node3</title>
<a xlink:href="Fortuna_8hh.html" target="_top" xlink:title="src/Browser/Fortuna/Fortuna.hh">
<polygon fill="white" stroke="black" points="190.5,-0.5 190.5,-19.5 345.5,-19.5 345.5,-0.5 190.5,-0.5"/>
<text text-anchor="middle" x="268" y="-7.5" font-family="Helvetica,sans-Serif" font-size="10.00">src/Browser/Fortuna/Fortuna.hh</text>
</a>
</g>
<!-- Node1&#45;&gt;Node3 -->
<g id="edge4" class="edge"><title>Node1&#45;&gt;Node3</title>
<path fill="none" stroke="midnightblue" d="M613.156,-55.1669C533.482,-44.9716 410.201,-29.1963 334.554,-19.5164"/>
<polygon fill="midnightblue" stroke="midnightblue" points="612.769,-58.6459 623.133,-56.4435 613.658,-51.7025 612.769,-58.6459"/>
</g>
<!-- Node4 -->
<g id="node7" class="node"><title>Node4</title>
<a xlink:href="NowPlaying_8hh.html" target="_top" xlink:title="src/Browser/NowPlaying/NowPlaying.hh">
<polygon fill="white" stroke="black" points="364,-0.5 364,-19.5 558,-19.5 558,-0.5 364,-0.5"/>
<text text-anchor="middle" x="461" y="-7.5" font-family="Helvetica,sans-Serif" font-size="10.00">src/Browser/NowPlaying/NowPlaying.hh</text>
</a>
</g>
<!-- Node1&#45;&gt;Node4 -->
<g id="edge6" class="edge"><title>Node1&#45;&gt;Node4</title>
<path fill="none" stroke="midnightblue" d="M643.727,-54.0884C600.463,-43.8865 536.745,-28.8612 497.116,-19.5164"/>
<polygon fill="midnightblue" stroke="midnightblue" points="643.178,-57.5549 653.714,-56.4435 644.785,-50.7418 643.178,-57.5549"/>
</g>
<!-- Node5 -->
<g id="node9" class="node"><title>Node5</title>
<a xlink:href="PlaylistManager_8hh.html" target="_top" xlink:title="src/Browser/PlaylistManager/PlaylistManager.hh">
<polygon fill="white" stroke="black" points="576,-0.5 576,-19.5 804,-19.5 804,-0.5 576,-0.5"/>
<text text-anchor="middle" x="690" y="-7.5" font-family="Helvetica,sans-Serif" font-size="10.00">src/Browser/PlaylistManager/PlaylistManager.hh</text>
</a>
</g>
<!-- Node1&#45;&gt;Node5 -->
<g id="edge8" class="edge"><title>Node1&#45;&gt;Node5</title>
<path fill="none" stroke="midnightblue" d="M690,-45.8045C690,-36.9102 690,-26.7798 690,-19.7511"/>
<polygon fill="midnightblue" stroke="midnightblue" points="686.5,-46.083 690,-56.083 693.5,-46.083 686.5,-46.083"/>
</g>
<!-- Node6 -->
<g id="node11" class="node"><title>Node6</title>
<a xlink:href="Queue_8hh.html" target="_top" xlink:title="src/Browser/Queue/Queue.hh">
<polygon fill="white" stroke="black" points="822,-0.5 822,-19.5 968,-19.5 968,-0.5 822,-0.5"/>
<text text-anchor="middle" x="895" y="-7.5" font-family="Helvetica,sans-Serif" font-size="10.00">src/Browser/Queue/Queue.hh</text>
</a>
</g>
<!-- Node1&#45;&gt;Node6 -->
<g id="edge10" class="edge"><title>Node1&#45;&gt;Node6</title>
<path fill="none" stroke="midnightblue" d="M732.408,-53.8291C771.114,-43.6333 827.493,-28.7823 862.669,-19.5164"/>
<polygon fill="midnightblue" stroke="midnightblue" points="731.261,-50.5117 722.483,-56.4435 733.045,-57.2808 731.261,-50.5117"/>
</g>
<!-- Node7 -->
<g id="node13" class="node"><title>Node7</title>
<a xlink:href="Settings_8hh.html" target="_top" xlink:title="src/Browser/Settings/Settings.hh">
<polygon fill="white" stroke="black" points="986.5,-0.5 986.5,-19.5 1147.5,-19.5 1147.5,-0.5 986.5,-0.5"/>
<text text-anchor="middle" x="1067" y="-7.5" font-family="Helvetica,sans-Serif" font-size="10.00">src/Browser/Settings/Settings.hh</text>
</a>
</g>
<!-- Node1&#45;&gt;Node7 -->
<g id="edge12" class="edge"><title>Node1&#45;&gt;Node7</title>
<path fill="none" stroke="midnightblue" d="M759.959,-54.9794C831.172,-44.7791 940.376,-29.1372 1007.54,-19.5164"/>
<polygon fill="midnightblue" stroke="midnightblue" points="759.139,-51.5609 749.737,-56.4435 760.132,-58.4902 759.139,-51.5609"/>
</g>
<!-- Node8 -->
<g id="node15" class="node"><title>Node8</title>
<a xlink:href="StatBrowser_8hh.html" target="_top" xlink:title="src/Browser/Statistics/StatBrowser.hh">
<polygon fill="white" stroke="black" points="1166,-0.5 1166,-19.5 1350,-19.5 1350,-0.5 1166,-0.5"/>
<text text-anchor="middle" x="1258" y="-7.5" font-family="Helvetica,sans-Serif" font-size="10.00">src/Browser/Statistics/StatBrowser.hh</text>
</a>
</g>
<!-- Node1&#45;&gt;Node8 -->
<g id="edge14" class="edge"><title>Node1&#45;&gt;Node8</title>
<path fill="none" stroke="midnightblue" d="M779.344,-56.506C885.682,-46.3964 1062.2,-29.6152 1168.57,-19.502"/>
<polygon fill="midnightblue" stroke="midnightblue" points="778.901,-53.0323 769.277,-57.4631 779.563,-60.0009 778.901,-53.0323"/>
</g>
</g>
</svg>
