<?xml version="1.0" encoding="UTF-8" standalone="no"?>
<!DOCTYPE svg PUBLIC "-//W3C//DTD SVG 1.1//EN"
 "http://www.w3.org/Graphics/SVG/1.1/DTD/svg11.dtd">
<!-- Generated by graphviz version 2.28.0 (20111204.1018)
 -->
<!-- Title: G Pages: 1 -->
<svg width="520pt" height="420pt"
 viewBox="0.00 0.00 520.43 420.00" xmlns="http://www.w3.org/2000/svg" xmlns:xlink="http://www.w3.org/1999/xlink">
<g id="graph1" class="graph" transform="scale(1 1) rotate(0) translate(4 416)">
<title>G</title>
<polygon fill="white" stroke="white" points="-4,5 -4,-416 517.426,-416 517.426,5 -4,5"/>
<!-- Node1 -->
<g id="node1" class="node"><title>Node1</title>
<polygon fill="#bfbfbf" stroke="black" points="365.426,-392.5 365.426,-411.5 491.426,-411.5 491.426,-392.5 365.426,-392.5"/>
<text text-anchor="middle" x="428.426" y="-399.5" font-family="Helvetica,sans-Serif" font-size="10.00">src/MPD/AudioOutput.hh</text>
</g>
<!-- Node2 -->
<g id="node3" class="node"><title>Node2</title>
<a xlink:href="AbstractClientExtension_8hh.html" target="_top" xlink:title="AbstractClientExtension.hh">
<polygon fill="white" stroke="black" points="312.426,-336.5 312.426,-355.5 448.426,-355.5 448.426,-336.5 312.426,-336.5"/>
<text text-anchor="middle" x="380.426" y="-343.5" font-family="Helvetica,sans-Serif" font-size="10.00">AbstractClientExtension.hh</text>
</a>
</g>
<!-- Node1&#45;&gt;Node2 -->
<g id="edge2" class="edge"><title>Node1&#45;&gt;Node2</title>
<path fill="none" stroke="midnightblue" d="M420.499,-392.083C413.58,-384.298 403.36,-372.801 394.974,-363.367"/>
<polygon fill="midnightblue" stroke="midnightblue" points="397.464,-360.9 388.204,-355.751 392.232,-365.55 397.464,-360.9"/>
</g>
<!-- Node14 -->
<g id="node33" class="node"><title>Node14</title>
<a xlink:href="AbstractComposite_8hh.html" target="_top" xlink:title="AbstractComposite.hh">
<polygon fill="white" stroke="black" points="398.426,-56.5 398.426,-75.5 512.426,-75.5 512.426,-56.5 398.426,-56.5"/>
<text text-anchor="middle" x="455.426" y="-63.5" font-family="Helvetica,sans-Serif" font-size="10.00">AbstractComposite.hh</text>
</a>
</g>
<!-- Node1&#45;&gt;Node14 -->
<g id="edge48" class="edge"><title>Node1&#45;&gt;Node14</title>
<path fill="none" stroke="midnightblue" d="M435.1,-392.435C448.289,-374.623 476.426,-331.839 476.426,-291 476.426,-291 476.426,-291 476.426,-177 476.426,-144.384 467.408,-107.278 461.191,-85.5732"/>
<polygon fill="midnightblue" stroke="midnightblue" points="464.468,-84.3156 458.258,-75.7319 457.76,-86.3151 464.468,-84.3156"/>
</g>
<!-- Node3 -->
<g id="node5" class="node"><title>Node3</title>
<a xlink:href="BaseClient_8hh.html" target="_top" xlink:title="BaseClient.hh">
<polygon fill="white" stroke="black" points="341.426,-280.5 341.426,-299.5 419.426,-299.5 419.426,-280.5 341.426,-280.5"/>
<text text-anchor="middle" x="380.426" y="-287.5" font-family="Helvetica,sans-Serif" font-size="10.00">BaseClient.hh</text>
</a>
</g>
<!-- Node2&#45;&gt;Node3 -->
<g id="edge4" class="edge"><title>Node2&#45;&gt;Node3</title>
<path fill="none" stroke="midnightblue" d="M380.426,-336.083C380.426,-329.006 380.426,-318.861 380.426,-309.986"/>
<polygon fill="midnightblue" stroke="midnightblue" points="383.926,-309.751 380.426,-299.751 376.926,-309.751 383.926,-309.751"/>
</g>
<!-- Node4 -->
<g id="node7" class="node"><title>Node4</title>
<a xlink:href="Listener_8hh.html" target="_top" xlink:title="Listener.hh">
<polygon fill="white" stroke="black" points="214.926,-224.5 214.926,-243.5 279.926,-243.5 279.926,-224.5 214.926,-224.5"/>
<text text-anchor="middle" x="247.426" y="-231.5" font-family="Helvetica,sans-Serif" font-size="10.00">Listener.hh</text>
</a>
</g>
<!-- Node3&#45;&gt;Node4 -->
<g id="edge6" class="edge"><title>Node3&#45;&gt;Node4</title>
<path fill="none" stroke="midnightblue" d="M359.351,-280.444C337.366,-271.517 302.691,-257.439 277.761,-247.317"/>
<polygon fill="midnightblue" stroke="midnightblue" points="278.983,-244.035 268.401,-243.516 276.35,-250.521 278.983,-244.035"/>
</g>
<!-- Node11 -->
<g id="node22" class="node"><title>Node11</title>
<a xlink:href="Connection_8hh.html" target="_top" xlink:title="Connection.hh">
<polygon fill="white" stroke="black" points="307.426,-112.5 307.426,-131.5 387.426,-131.5 387.426,-112.5 307.426,-112.5"/>
<text text-anchor="middle" x="347.426" y="-119.5" font-family="Helvetica,sans-Serif" font-size="10.00">Connection.hh</text>
</a>
</g>
<!-- Node3&#45;&gt;Node11 -->
<g id="edge46" class="edge"><title>Node3&#45;&gt;Node11</title>
<path fill="none" stroke="midnightblue" d="M378.651,-280.075C373.457,-253.945 358.202,-177.211 351.119,-141.577"/>
<polygon fill="midnightblue" stroke="midnightblue" points="354.512,-140.694 349.129,-131.568 347.646,-142.059 354.512,-140.694"/>
</g>
<!-- Node5 -->
<g id="node9" class="node"><title>Node5</title>
<polygon fill="white" stroke="#bfbfbf" points="147.426,-56.5 147.426,-75.5 217.426,-75.5 217.426,-56.5 147.426,-56.5"/>
<text text-anchor="middle" x="182.426" y="-63.5" font-family="Helvetica,sans-Serif" font-size="10.00">mpd/client.h</text>
</g>
<!-- Node4&#45;&gt;Node5 -->
<g id="edge8" class="edge"><title>Node4&#45;&gt;Node5</title>
<path fill="none" stroke="midnightblue" d="M214.743,-231.752C155.932,-228.745 36.0002,-218.887 10.4256,-188 -32.2312,-136.482 74.248,-96.7328 138.258,-78.2917"/>
<polygon fill="midnightblue" stroke="midnightblue" points="139.457,-81.5905 148.138,-75.5164 137.564,-74.8514 139.457,-81.5905"/>
</g>
<!-- Node6 -->
<g id="node11" class="node"><title>Node6</title>
<polygon fill="white" stroke="#bfbfbf" points="19.9256,-168.5 19.9256,-187.5 92.9256,-187.5 92.9256,-168.5 19.9256,-168.5"/>
<text text-anchor="middle" x="56.4256" y="-175.5" font-family="Helvetica,sans-Serif" font-size="10.00">mpd/async.h</text>
</g>
<!-- Node4&#45;&gt;Node6 -->
<g id="edge10" class="edge"><title>Node4&#45;&gt;Node6</title>
<path fill="none" stroke="midnightblue" d="M217.161,-224.444C184.47,-215.201 132.244,-200.436 96.2427,-190.257"/>
<polygon fill="midnightblue" stroke="midnightblue" points="97.1236,-186.869 86.5485,-187.516 95.2191,-193.605 97.1236,-186.869"/>
</g>
<!-- Node7 -->
<g id="node13" class="node"><title>Node7</title>
<polygon fill="white" stroke="#bfbfbf" points="111.426,-168.5 111.426,-187.5 185.426,-187.5 185.426,-168.5 111.426,-168.5"/>
<text text-anchor="middle" x="148.426" y="-175.5" font-family="Helvetica,sans-Serif" font-size="10.00">mpd/parser.h</text>
</g>
<!-- Node4&#45;&gt;Node7 -->
<g id="edge12" class="edge"><title>Node4&#45;&gt;Node7</title>
<path fill="none" stroke="midnightblue" d="M231.52,-224.324C215.787,-215.743 191.483,-202.486 173.217,-192.522"/>
<polygon fill="midnightblue" stroke="midnightblue" points="174.747,-189.37 164.292,-187.655 171.395,-195.516 174.747,-189.37"/>
</g>
<!-- Node8 -->
<g id="node15" class="node"><title>Node8</title>
<polygon fill="white" stroke="#bfbfbf" points="319.426,-56.5 319.426,-75.5 375.426,-75.5 375.426,-56.5 319.426,-56.5"/>
<text text-anchor="middle" x="347.426" y="-63.5" font-family="Helvetica,sans-Serif" font-size="10.00">glibmm.h</text>
</g>
<!-- Node4&#45;&gt;Node8 -->
<g id="edge14" class="edge"><title>Node4&#45;&gt;Node8</title>
<path fill="none" stroke="midnightblue" d="M276.959,-224.44C314.625,-211.594 377.19,-183.195 396.426,-132 399.552,-123.679 400.001,-120.138 396.426,-112 391.036,-99.732 380.467,-89.3414 370.521,-81.6461"/>
<polygon fill="midnightblue" stroke="midnightblue" points="372.253,-78.5811 362.087,-75.598 368.174,-84.2697 372.253,-78.5811"/>
</g>
<!-- Node9 -->
<g id="node17" class="node"><title>Node9</title>
<a xlink:href="Status_8hh.html" target="_top" xlink:title="Status.hh">
<polygon fill="white" stroke="black" points="69.9256,-112.5 69.9256,-131.5 128.926,-131.5 128.926,-112.5 69.9256,-112.5"/>
<text text-anchor="middle" x="99.4256" y="-119.5" font-family="Helvetica,sans-Serif" font-size="10.00">Status.hh</text>
</a>
</g>
<!-- Node4&#45;&gt;Node9 -->
<g id="edge16" class="edge"><title>Node4&#45;&gt;Node9</title>
<path fill="none" stroke="midnightblue" d="M242.211,-224.388C233.669,-210.873 215.516,-184.523 194.426,-168 176.442,-153.911 153.331,-142.841 134.407,-135.206"/>
<polygon fill="midnightblue" stroke="midnightblue" points="135.53,-131.888 124.942,-131.529 132.995,-138.413 135.53,-131.888"/>
</g>
<!-- Node10 -->
<g id="node20" class="node"><title>Node10</title>
<a xlink:href="NotifyData_8hh.html" target="_top" xlink:title="NotifyData.hh">
<polygon fill="white" stroke="black" points="241.926,-168.5 241.926,-187.5 318.926,-187.5 318.926,-168.5 241.926,-168.5"/>
<text text-anchor="middle" x="280.426" y="-175.5" font-family="Helvetica,sans-Serif" font-size="10.00">NotifyData.hh</text>
</a>
</g>
<!-- Node4&#45;&gt;Node10 -->
<g id="edge20" class="edge"><title>Node4&#45;&gt;Node10</title>
<path fill="none" stroke="midnightblue" d="M252.875,-224.083C257.44,-216.613 264.094,-205.724 269.719,-196.52"/>
<polygon fill="midnightblue" stroke="midnightblue" points="272.85,-198.109 275.078,-187.751 266.877,-194.459 272.85,-198.109"/>
</g>
<!-- Node4&#45;&gt;Node11 -->
<g id="edge44" class="edge"><title>Node4&#45;&gt;Node11</title>
<path fill="none" stroke="midnightblue" d="M273.193,-224.354C290.811,-217.199 313.424,-205.369 327.426,-188 338.184,-174.654 343.172,-155.539 345.475,-141.492"/>
<polygon fill="midnightblue" stroke="midnightblue" points="348.952,-141.894 346.805,-131.519 342.014,-140.969 348.952,-141.894"/>
</g>
<!-- Node9&#45;&gt;Node5 -->
<g id="edge18" class="edge"><title>Node9&#45;&gt;Node5</title>
<path fill="none" stroke="midnightblue" d="M112.761,-112.324C125.588,-103.979 145.211,-91.2122 160.365,-81.3524"/>
<polygon fill="midnightblue" stroke="midnightblue" points="162.65,-84.0417 169.123,-75.6545 158.832,-78.1742 162.65,-84.0417"/>
</g>
<!-- Node10&#45;&gt;Node9 -->
<g id="edge32" class="edge"><title>Node10&#45;&gt;Node9</title>
<path fill="none" stroke="midnightblue" d="M251.746,-168.444C220.899,-159.241 171.697,-144.562 137.596,-134.388"/>
<polygon fill="midnightblue" stroke="midnightblue" points="138.555,-131.021 127.971,-131.516 136.553,-137.729 138.555,-131.021"/>
</g>
<!-- Node10&#45;&gt;Node11 -->
<g id="edge22" class="edge"><title>Node10&#45;&gt;Node11</title>
<path fill="none" stroke="midnightblue" d="M291.19,-168.324C301.192,-160.263 316.312,-148.077 328.356,-138.369"/>
<polygon fill="midnightblue" stroke="midnightblue" points="330.875,-140.834 336.465,-131.834 326.483,-135.384 330.875,-140.834"/>
</g>
<!-- Node12 -->
<g id="node26" class="node"><title>Node12</title>
<a xlink:href="Statistics_8hh.html" target="_top" xlink:title="Statistics.hh">
<polygon fill="white" stroke="black" points="146.926,-112.5 146.926,-131.5 217.926,-131.5 217.926,-112.5 146.926,-112.5"/>
<text text-anchor="middle" x="182.426" y="-119.5" font-family="Helvetica,sans-Serif" font-size="10.00">Statistics.hh</text>
</a>
</g>
<!-- Node10&#45;&gt;Node12 -->
<g id="edge28" class="edge"><title>Node10&#45;&gt;Node12</title>
<path fill="none" stroke="midnightblue" d="M264.68,-168.324C249.107,-159.743 225.048,-146.486 206.966,-136.522"/>
<polygon fill="midnightblue" stroke="midnightblue" points="208.579,-133.415 198.132,-131.655 205.201,-139.546 208.579,-133.415"/>
</g>
<!-- Node13 -->
<g id="node30" class="node"><title>Node13</title>
<a xlink:href="Song_8hh.html" target="_top" xlink:title="Song.hh">
<polygon fill="white" stroke="black" points="235.926,-112.5 235.926,-131.5 288.926,-131.5 288.926,-112.5 235.926,-112.5"/>
<text text-anchor="middle" x="262.426" y="-119.5" font-family="Helvetica,sans-Serif" font-size="10.00">Song.hh</text>
</a>
</g>
<!-- Node10&#45;&gt;Node13 -->
<g id="edge34" class="edge"><title>Node10&#45;&gt;Node13</title>
<path fill="none" stroke="midnightblue" d="M277.453,-168.083C275.042,-160.849 271.562,-150.409 268.558,-141.397"/>
<polygon fill="midnightblue" stroke="midnightblue" points="271.825,-140.131 265.343,-131.751 265.185,-142.345 271.825,-140.131"/>
</g>
<!-- Node11&#45;&gt;Node5 -->
<g id="edge24" class="edge"><title>Node11&#45;&gt;Node5</title>
<path fill="none" stroke="midnightblue" d="M321.281,-112.444C293.402,-103.32 249.077,-88.8133 218.026,-78.6509"/>
<polygon fill="midnightblue" stroke="midnightblue" points="219.041,-75.3005 208.448,-75.5164 216.863,-81.9533 219.041,-75.3005"/>
</g>
<!-- Node11&#45;&gt;Node8 -->
<g id="edge26" class="edge"><title>Node11&#45;&gt;Node8</title>
<path fill="none" stroke="midnightblue" d="M347.426,-112.083C347.426,-105.006 347.426,-94.8611 347.426,-85.9865"/>
<polygon fill="midnightblue" stroke="midnightblue" points="350.926,-85.751 347.426,-75.7511 343.926,-85.7511 350.926,-85.751"/>
</g>
<!-- Node12&#45;&gt;Node5 -->
<g id="edge30" class="edge"><title>Node12&#45;&gt;Node5</title>
<path fill="none" stroke="midnightblue" d="M182.426,-112.083C182.426,-105.006 182.426,-94.8611 182.426,-85.9865"/>
<polygon fill="midnightblue" stroke="midnightblue" points="185.926,-85.751 182.426,-75.7511 178.926,-85.7511 185.926,-85.751"/>
</g>
<!-- Node13&#45;&gt;Node5 -->
<g id="edge36" class="edge"><title>Node13&#45;&gt;Node5</title>
<path fill="none" stroke="midnightblue" d="M249.572,-112.324C237.209,-103.979 218.295,-91.2122 203.688,-81.3524"/>
<polygon fill="midnightblue" stroke="midnightblue" points="205.494,-78.3483 195.247,-75.6545 201.577,-84.1503 205.494,-78.3483"/>
</g>
<!-- Node13&#45;&gt;Node8 -->
<g id="edge42" class="edge"><title>Node13&#45;&gt;Node8</title>
<path fill="none" stroke="midnightblue" d="M276.082,-112.324C289.342,-103.9 309.694,-90.9709 325.272,-81.0741"/>
<polygon fill="midnightblue" stroke="midnightblue" points="327.239,-83.9711 333.803,-75.6545 323.485,-78.0626 327.239,-83.9711"/>
</g>
<!-- Node13&#45;&gt;Node14 -->
<g id="edge38" class="edge"><title>Node13&#45;&gt;Node14</title>
<path fill="none" stroke="midnightblue" d="M289.261,-113.492C321.969,-104.34 377.539,-88.7922 415.328,-78.219"/>
<polygon fill="midnightblue" stroke="midnightblue" points="416.317,-81.5769 425.004,-75.5118 414.431,-74.8357 416.317,-81.5769"/>
</g>
<!-- Node15 -->
<g id="node35" class="node"><title>Node15</title>
<polygon fill="white" stroke="#bfbfbf" points="433.426,-0.5 433.426,-19.5 477.426,-19.5 477.426,-0.5 433.426,-0.5"/>
<text text-anchor="middle" x="455.426" y="-7.5" font-family="Helvetica,sans-Serif" font-size="10.00">vector</text>
</g>
<!-- Node14&#45;&gt;Node15 -->
<g id="edge40" class="edge"><title>Node14&#45;&gt;Node15</title>
<path fill="none" stroke="midnightblue" d="M455.426,-56.083C455.426,-49.0059 455.426,-38.8611 455.426,-29.9865"/>
<polygon fill="midnightblue" stroke="midnightblue" points="458.926,-29.751 455.426,-19.7511 451.926,-29.7511 458.926,-29.751"/>
</g>
</g>
</svg>
