<?xml version="1.0" encoding="UTF-8" standalone="no"?>
<!DOCTYPE svg PUBLIC "-//W3C//DTD SVG 1.1//EN"
 "http://www.w3.org/Graphics/SVG/1.1/DTD/svg11.dtd">
<!-- Generated by graphviz version 2.28.0 (20111204.1018)
 -->
<!-- Title: G Pages: 1 -->
<svg width="230pt" height="196pt"
 viewBox="0.00 0.00 230.00 196.00" xmlns="http://www.w3.org/2000/svg" xmlns:xlink="http://www.w3.org/1999/xlink">
<g id="graph1" class="graph" transform="scale(1 1) rotate(0) translate(4 192)">
<title>G</title>
<polygon fill="white" stroke="white" points="-4,5 -4,-192 227,-192 227,5 -4,5"/>
<!-- Node1 -->
<g id="node1" class="node"><title>Node1</title>
<polygon fill="#bfbfbf" stroke="black" points="48,-168.5 48,-187.5 174,-187.5 174,-168.5 48,-168.5"/>
<text text-anchor="middle" x="111" y="-175.5" font-family="Helvetica,sans-Serif" font-size="10.00">src/MPD/AudioOutput.hh</text>
</g>
<!-- Node2 -->
<g id="node3" class="node"><title>Node2</title>
<a xlink:href="OutputsModelColumns_8hh.html" target="_top" xlink:title="src/Browser/Settings/OutputsModelColumns.hh">
<polygon fill="white" stroke="black" points="-1,-112.5 -1,-131.5 223,-131.5 223,-112.5 -1,-112.5"/>
<text text-anchor="middle" x="111" y="-119.5" font-family="Helvetica,sans-Serif" font-size="10.00">src/Browser/Settings/OutputsModelColumns.hh</text>
</a>
</g>
<!-- Node1&#45;&gt;Node2 -->
<g id="edge2" class="edge"><title>Node1&#45;&gt;Node2</title>
<path fill="none" stroke="midnightblue" d="M111,-157.805C111,-148.91 111,-138.78 111,-131.751"/>
<polygon fill="midnightblue" stroke="midnightblue" points="107.5,-158.083 111,-168.083 114.5,-158.083 107.5,-158.083"/>
</g>
<!-- Node3 -->
<g id="node5" class="node"><title>Node3</title>
<a xlink:href="SettingsOutputs_8hh.html" target="_top" xlink:title="src/Browser/Settings/SettingsOutputs.hh">
<polygon fill="white" stroke="black" points="13.5,-56.5 13.5,-75.5 208.5,-75.5 208.5,-56.5 13.5,-56.5"/>
<text text-anchor="middle" x="111" y="-63.5" font-family="Helvetica,sans-Serif" font-size="10.00">src/Browser/Settings/SettingsOutputs.hh</text>
</a>
</g>
<!-- Node2&#45;&gt;Node3 -->
<g id="edge4" class="edge"><title>Node2&#45;&gt;Node3</title>
<path fill="none" stroke="midnightblue" d="M111,-101.805C111,-92.9102 111,-82.7798 111,-75.7511"/>
<polygon fill="midnightblue" stroke="midnightblue" points="107.5,-102.083 111,-112.083 114.5,-102.083 107.5,-102.083"/>
</g>
<!-- Node4 -->
<g id="node7" class="node"><title>Node4</title>
<a xlink:href="Settings_8hh.html" target="_top" xlink:title="src/Browser/Settings/Settings.hh">
<polygon fill="white" stroke="black" points="30.5,-0.5 30.5,-19.5 191.5,-19.5 191.5,-0.5 30.5,-0.5"/>
<text text-anchor="middle" x="111" y="-7.5" font-family="Helvetica,sans-Serif" font-size="10.00">src/Browser/Settings/Settings.hh</text>
</a>
</g>
<!-- Node3&#45;&gt;Node4 -->
<g id="edge6" class="edge"><title>Node3&#45;&gt;Node4</title>
<path fill="none" stroke="midnightblue" d="M111,-45.8045C111,-36.9102 111,-26.7798 111,-19.7511"/>
<polygon fill="midnightblue" stroke="midnightblue" points="107.5,-46.083 111,-56.083 114.5,-46.083 107.5,-46.083"/>
</g>
</g>
</svg>
