<?xml version="1.0" encoding="UTF-8" standalone="no"?>
<!DOCTYPE svg PUBLIC "-//W3C//DTD SVG 1.1//EN"
 "http://www.w3.org/Graphics/SVG/1.1/DTD/svg11.dtd">
<!-- Generated by graphviz version 2.28.0 (20111204.1018)
 -->
<!-- Title: G Pages: 1 -->
<svg width="394pt" height="308pt"
 viewBox="0.00 0.00 394.33 308.00" xmlns="http://www.w3.org/2000/svg" xmlns:xlink="http://www.w3.org/1999/xlink">
<g id="graph1" class="graph" transform="scale(1 1) rotate(0) translate(4 304)">
<title>G</title>
<polygon fill="white" stroke="white" points="-4,5 -4,-304 391.328,-304 391.328,5 -4,5"/>
<!-- Node1 -->
<g id="node1" class="node"><title>Node1</title>
<polygon fill="#bfbfbf" stroke="black" points="4.3308,-280.5 4.3308,-299.5 124.331,-299.5 124.331,-280.5 4.3308,-280.5"/>
<text text-anchor="middle" x="64.3308" y="-287.5" font-family="Helvetica,sans-Serif" font-size="10.00">src/MPD/BaseClient.hh</text>
</g>
<!-- Node2 -->
<g id="node3" class="node"><title>Node2</title>
<a xlink:href="Listener_8hh.html" target="_top" xlink:title="Listener.hh">
<polygon fill="white" stroke="black" points="145.831,-224.5 145.831,-243.5 210.831,-243.5 210.831,-224.5 145.831,-224.5"/>
<text text-anchor="middle" x="178.331" y="-231.5" font-family="Helvetica,sans-Serif" font-size="10.00">Listener.hh</text>
</a>
</g>
<!-- Node1&#45;&gt;Node2 -->
<g id="edge2" class="edge"><title>Node1&#45;&gt;Node2</title>
<path fill="none" stroke="midnightblue" d="M82.3944,-280.444C100.906,-271.675 129.912,-257.935 151.186,-247.858"/>
<polygon fill="midnightblue" stroke="midnightblue" points="152.813,-250.96 160.352,-243.516 149.816,-244.634 152.813,-250.96"/>
</g>
<!-- Node9 -->
<g id="node18" class="node"><title>Node9</title>
<a xlink:href="Connection_8hh.html" target="_top" xlink:title="Connection.hh">
<polygon fill="white" stroke="black" points="57.3308,-112.5 57.3308,-131.5 137.331,-131.5 137.331,-112.5 57.3308,-112.5"/>
<text text-anchor="middle" x="97.3308" y="-119.5" font-family="Helvetica,sans-Serif" font-size="10.00">Connection.hh</text>
</a>
</g>
<!-- Node1&#45;&gt;Node9 -->
<g id="edge42" class="edge"><title>Node1&#45;&gt;Node9</title>
<path fill="none" stroke="midnightblue" d="M54.6375,-280.436C32.8645,-260.14 -16.1622,-207.83 8.3308,-168 17.8836,-152.465 34.6416,-142.096 51.0588,-135.272"/>
<polygon fill="midnightblue" stroke="midnightblue" points="52.5143,-138.463 60.6286,-131.651 50.0371,-131.916 52.5143,-138.463"/>
</g>
<!-- Node3 -->
<g id="node5" class="node"><title>Node3</title>
<polygon fill="white" stroke="#bfbfbf" points="257.331,-56.5 257.331,-75.5 327.331,-75.5 327.331,-56.5 257.331,-56.5"/>
<text text-anchor="middle" x="292.331" y="-63.5" font-family="Helvetica,sans-Serif" font-size="10.00">mpd/client.h</text>
</g>
<!-- Node2&#45;&gt;Node3 -->
<g id="edge4" class="edge"><title>Node2&#45;&gt;Node3</title>
<path fill="none" stroke="midnightblue" d="M211.011,-230.914C246.916,-227.191 304.853,-216.83 345.331,-188 369.83,-170.55 374.497,-160.752 383.331,-132 385.942,-123.503 388.021,-119.551 383.331,-112 373.053,-95.4512 354.686,-84.8039 337.131,-78.0469"/>
<polygon fill="midnightblue" stroke="midnightblue" points="338.113,-74.6826 327.519,-74.6805 335.8,-81.2891 338.113,-74.6826"/>
</g>
<!-- Node4 -->
<g id="node7" class="node"><title>Node4</title>
<polygon fill="white" stroke="#bfbfbf" points="17.8308,-168.5 17.8308,-187.5 90.8308,-187.5 90.8308,-168.5 17.8308,-168.5"/>
<text text-anchor="middle" x="54.3308" y="-175.5" font-family="Helvetica,sans-Serif" font-size="10.00">mpd/async.h</text>
</g>
<!-- Node2&#45;&gt;Node4 -->
<g id="edge6" class="edge"><title>Node2&#45;&gt;Node4</title>
<path fill="none" stroke="midnightblue" d="M158.683,-224.444C138.366,-215.596 106.428,-201.687 83.2331,-191.586"/>
<polygon fill="midnightblue" stroke="midnightblue" points="84.4529,-188.3 73.887,-187.516 81.6579,-194.718 84.4529,-188.3"/>
</g>
<!-- Node5 -->
<g id="node9" class="node"><title>Node5</title>
<polygon fill="white" stroke="#bfbfbf" points="109.331,-168.5 109.331,-187.5 183.331,-187.5 183.331,-168.5 109.331,-168.5"/>
<text text-anchor="middle" x="146.331" y="-175.5" font-family="Helvetica,sans-Serif" font-size="10.00">mpd/parser.h</text>
</g>
<!-- Node2&#45;&gt;Node5 -->
<g id="edge8" class="edge"><title>Node2&#45;&gt;Node5</title>
<path fill="none" stroke="midnightblue" d="M173.047,-224.083C168.62,-216.613 162.167,-205.724 156.713,-196.52"/>
<polygon fill="midnightblue" stroke="midnightblue" points="159.626,-194.57 151.517,-187.751 153.604,-198.138 159.626,-194.57"/>
</g>
<!-- Node6 -->
<g id="node11" class="node"><title>Node6</title>
<polygon fill="white" stroke="#bfbfbf" points="51.3308,-56.5 51.3308,-75.5 107.331,-75.5 107.331,-56.5 51.3308,-56.5"/>
<text text-anchor="middle" x="79.3308" y="-63.5" font-family="Helvetica,sans-Serif" font-size="10.00">glibmm.h</text>
</g>
<!-- Node2&#45;&gt;Node6 -->
<g id="edge10" class="edge"><title>Node2&#45;&gt;Node6</title>
<path fill="none" stroke="midnightblue" d="M145.593,-229.061C101.044,-222.952 24.9513,-209.592 8.3308,-188 -18.983,-152.515 29.5547,-105.591 59.0829,-81.9597"/>
<polygon fill="midnightblue" stroke="midnightblue" points="61.4258,-84.5719 67.1803,-75.676 57.1343,-79.0417 61.4258,-84.5719"/>
</g>
<!-- Node7 -->
<g id="node13" class="node"><title>Node7</title>
<a xlink:href="Status_8hh.html" target="_top" xlink:title="Status.hh">
<polygon fill="white" stroke="black" points="315.831,-112.5 315.831,-131.5 374.831,-131.5 374.831,-112.5 315.831,-112.5"/>
<text text-anchor="middle" x="345.331" y="-119.5" font-family="Helvetica,sans-Serif" font-size="10.00">Status.hh</text>
</a>
</g>
<!-- Node2&#45;&gt;Node7 -->
<g id="edge12" class="edge"><title>Node2&#45;&gt;Node7</title>
<path fill="none" stroke="midnightblue" d="M210.859,-231.612C243.996,-228.457 294.735,-218.552 325.331,-188 337.461,-175.887 342.265,-156.607 344.151,-142.185"/>
<polygon fill="midnightblue" stroke="midnightblue" points="347.668,-142.174 345.123,-131.89 340.699,-141.517 347.668,-142.174"/>
</g>
<!-- Node8 -->
<g id="node16" class="node"><title>Node8</title>
<a xlink:href="NotifyData_8hh.html" target="_top" xlink:title="NotifyData.hh">
<polygon fill="white" stroke="black" points="239.831,-168.5 239.831,-187.5 316.831,-187.5 316.831,-168.5 239.831,-168.5"/>
<text text-anchor="middle" x="278.331" y="-175.5" font-family="Helvetica,sans-Serif" font-size="10.00">NotifyData.hh</text>
</a>
</g>
<!-- Node2&#45;&gt;Node8 -->
<g id="edge16" class="edge"><title>Node2&#45;&gt;Node8</title>
<path fill="none" stroke="midnightblue" d="M194.398,-224.324C210.289,-215.743 234.838,-202.486 253.289,-192.522"/>
<polygon fill="midnightblue" stroke="midnightblue" points="255.168,-195.486 262.304,-187.655 251.842,-189.326 255.168,-195.486"/>
</g>
<!-- Node2&#45;&gt;Node9 -->
<g id="edge40" class="edge"><title>Node2&#45;&gt;Node9</title>
<path fill="none" stroke="midnightblue" d="M183.98,-224.296C191.75,-211.117 203.565,-185.753 192.331,-168 182.12,-151.865 164.388,-141.403 146.988,-134.671"/>
<polygon fill="midnightblue" stroke="midnightblue" points="147.999,-131.317 137.405,-131.302 145.678,-137.92 147.999,-131.317"/>
</g>
<!-- Node7&#45;&gt;Node3 -->
<g id="edge14" class="edge"><title>Node7&#45;&gt;Node3</title>
<path fill="none" stroke="midnightblue" d="M336.579,-112.083C328.861,-104.22 317.426,-92.5688 308.114,-83.0813"/>
<polygon fill="midnightblue" stroke="midnightblue" points="310.422,-80.4363 300.92,-75.7511 305.427,-85.3396 310.422,-80.4363"/>
</g>
<!-- Node8&#45;&gt;Node7 -->
<g id="edge28" class="edge"><title>Node8&#45;&gt;Node7</title>
<path fill="none" stroke="midnightblue" d="M289.096,-168.324C299.097,-160.263 314.217,-148.077 326.261,-138.369"/>
<polygon fill="midnightblue" stroke="midnightblue" points="328.781,-140.834 334.37,-131.834 324.388,-135.384 328.781,-140.834"/>
</g>
<!-- Node8&#45;&gt;Node9 -->
<g id="edge18" class="edge"><title>Node8&#45;&gt;Node9</title>
<path fill="none" stroke="midnightblue" d="M249.651,-168.444C218.804,-159.241 169.602,-144.562 135.502,-134.388"/>
<polygon fill="midnightblue" stroke="midnightblue" points="136.46,-131.021 125.877,-131.516 134.459,-137.729 136.46,-131.021"/>
</g>
<!-- Node10 -->
<g id="node22" class="node"><title>Node10</title>
<a xlink:href="Statistics_8hh.html" target="_top" xlink:title="Statistics.hh">
<polygon fill="white" stroke="black" points="226.831,-112.5 226.831,-131.5 297.831,-131.5 297.831,-112.5 226.831,-112.5"/>
<text text-anchor="middle" x="262.331" y="-119.5" font-family="Helvetica,sans-Serif" font-size="10.00">Statistics.hh</text>
</a>
</g>
<!-- Node8&#45;&gt;Node10 -->
<g id="edge24" class="edge"><title>Node8&#45;&gt;Node10</title>
<path fill="none" stroke="midnightblue" d="M275.689,-168.083C273.545,-160.849 270.452,-150.409 267.782,-141.397"/>
<polygon fill="midnightblue" stroke="midnightblue" points="271.12,-140.345 264.924,-131.751 264.409,-142.333 271.12,-140.345"/>
</g>
<!-- Node11 -->
<g id="node26" class="node"><title>Node11</title>
<a xlink:href="Song_8hh.html" target="_top" xlink:title="Song.hh">
<polygon fill="white" stroke="black" points="155.831,-112.5 155.831,-131.5 208.831,-131.5 208.831,-112.5 155.831,-112.5"/>
<text text-anchor="middle" x="182.331" y="-119.5" font-family="Helvetica,sans-Serif" font-size="10.00">Song.hh</text>
</a>
</g>
<!-- Node8&#45;&gt;Node11 -->
<g id="edge30" class="edge"><title>Node8&#45;&gt;Node11</title>
<path fill="none" stroke="midnightblue" d="M262.907,-168.324C247.791,-159.822 224.515,-146.729 206.86,-136.797"/>
<polygon fill="midnightblue" stroke="midnightblue" points="208.148,-133.507 197.717,-131.655 204.716,-139.608 208.148,-133.507"/>
</g>
<!-- Node9&#45;&gt;Node3 -->
<g id="edge20" class="edge"><title>Node9&#45;&gt;Node3</title>
<path fill="none" stroke="midnightblue" d="M128.229,-112.444C161.605,-103.201 214.925,-88.4356 251.68,-78.2572"/>
<polygon fill="midnightblue" stroke="midnightblue" points="252.874,-81.5583 261.577,-75.5164 251.006,-74.8122 252.874,-81.5583"/>
</g>
<!-- Node9&#45;&gt;Node6 -->
<g id="edge22" class="edge"><title>Node9&#45;&gt;Node6</title>
<path fill="none" stroke="midnightblue" d="M94.3585,-112.083C91.947,-104.849 88.467,-94.4087 85.463,-85.3968"/>
<polygon fill="midnightblue" stroke="midnightblue" points="88.7306,-84.1311 82.2478,-75.7511 82.0898,-86.3447 88.7306,-84.1311"/>
</g>
<!-- Node10&#45;&gt;Node3 -->
<g id="edge26" class="edge"><title>Node10&#45;&gt;Node3</title>
<path fill="none" stroke="midnightblue" d="M267.285,-112.083C271.435,-104.613 277.484,-93.7244 282.598,-84.5199"/>
<polygon fill="midnightblue" stroke="midnightblue" points="285.672,-86.1924 287.469,-75.7511 279.553,-82.7929 285.672,-86.1924"/>
</g>
<!-- Node11&#45;&gt;Node3 -->
<g id="edge32" class="edge"><title>Node11&#45;&gt;Node3</title>
<path fill="none" stroke="midnightblue" d="M200.004,-112.324C217.725,-103.625 245.234,-90.1202 265.619,-80.113"/>
<polygon fill="midnightblue" stroke="midnightblue" points="267.267,-83.2031 274.701,-75.6545 264.182,-76.9195 267.267,-83.2031"/>
</g>
<!-- Node11&#45;&gt;Node6 -->
<g id="edge38" class="edge"><title>Node11&#45;&gt;Node6</title>
<path fill="none" stroke="midnightblue" d="M165.782,-112.324C149.339,-103.703 123.896,-90.3643 104.862,-80.3855"/>
<polygon fill="midnightblue" stroke="midnightblue" points="106.32,-77.198 95.8385,-75.6545 103.07,-83.3977 106.32,-77.198"/>
</g>
<!-- Node12 -->
<g id="node29" class="node"><title>Node12</title>
<a xlink:href="AbstractComposite_8hh.html" target="_top" xlink:title="AbstractComposite.hh">
<polygon fill="white" stroke="black" points="125.331,-56.5 125.331,-75.5 239.331,-75.5 239.331,-56.5 125.331,-56.5"/>
<text text-anchor="middle" x="182.331" y="-63.5" font-family="Helvetica,sans-Serif" font-size="10.00">AbstractComposite.hh</text>
</a>
</g>
<!-- Node11&#45;&gt;Node12 -->
<g id="edge34" class="edge"><title>Node11&#45;&gt;Node12</title>
<path fill="none" stroke="midnightblue" d="M182.331,-112.083C182.331,-105.006 182.331,-94.8611 182.331,-85.9865"/>
<polygon fill="midnightblue" stroke="midnightblue" points="185.831,-85.751 182.331,-75.7511 178.831,-85.7511 185.831,-85.751"/>
</g>
<!-- Node13 -->
<g id="node31" class="node"><title>Node13</title>
<polygon fill="white" stroke="#bfbfbf" points="160.331,-0.5 160.331,-19.5 204.331,-19.5 204.331,-0.5 160.331,-0.5"/>
<text text-anchor="middle" x="182.331" y="-7.5" font-family="Helvetica,sans-Serif" font-size="10.00">vector</text>
</g>
<!-- Node12&#45;&gt;Node13 -->
<g id="edge36" class="edge"><title>Node12&#45;&gt;Node13</title>
<path fill="none" stroke="midnightblue" d="M182.331,-56.083C182.331,-49.0059 182.331,-38.8611 182.331,-29.9865"/>
<polygon fill="midnightblue" stroke="midnightblue" points="185.831,-29.751 182.331,-19.7511 178.831,-29.7511 185.831,-29.751"/>
</g>
</g>
</svg>
