<?xml version="1.0" encoding="UTF-8" standalone="no"?>
<!DOCTYPE svg PUBLIC "-//W3C//DTD SVG 1.1//EN"
 "http://www.w3.org/Graphics/SVG/1.1/DTD/svg11.dtd">
<!-- Generated by graphviz version 2.28.0 (20111204.1018)
 -->
<!-- Title: G Pages: 1 -->
<svg width="908pt" height="196pt"
 viewBox="0.00 0.00 908.00 196.00" xmlns="http://www.w3.org/2000/svg" xmlns:xlink="http://www.w3.org/1999/xlink">
<g id="graph1" class="graph" transform="scale(1 1) rotate(0) translate(4 192)">
<title>G</title>
<polygon fill="white" stroke="white" points="-4,5 -4,-192 905,-192 905,5 -4,5"/>
<!-- Node1 -->
<g id="node1" class="node"><title>Node1</title>
<polygon fill="#bfbfbf" stroke="black" points="394,-168.5 394,-187.5 530,-187.5 530,-168.5 394,-168.5"/>
<text text-anchor="middle" x="462" y="-175.5" font-family="Helvetica,sans-Serif" font-size="10.00">src/Browser/BasePopup.hh</text>
</g>
<!-- Node2 -->
<g id="node3" class="node"><title>Node2</title>
<a xlink:href="DatabasePopup_8hh.html" target="_top" xlink:title="src/Browser/Database/DatabasePopup.hh">
<polygon fill="white" stroke="black" points="0,-112.5 0,-131.5 200,-131.5 200,-112.5 0,-112.5"/>
<text text-anchor="middle" x="100" y="-119.5" font-family="Helvetica,sans-Serif" font-size="10.00">src/Browser/Database/DatabasePopup.hh</text>
</a>
</g>
<!-- Node1&#45;&gt;Node2 -->
<g id="edge2" class="edge"><title>Node1&#45;&gt;Node2</title>
<path fill="none" stroke="midnightblue" d="M394.404,-166.917C326.015,-156.715 221.454,-141.117 157.092,-131.516"/>
<polygon fill="midnightblue" stroke="midnightblue" points="394.233,-170.43 404.64,-168.444 395.266,-163.506 394.233,-170.43"/>
</g>
<!-- Node4 -->
<g id="node7" class="node"><title>Node4</title>
<a xlink:href="PlaylistManagerPopup_8hh.html" target="_top" xlink:title="src/Browser/PlaylistManager/PlaylistManagerPopup.hh">
<polygon fill="white" stroke="black" points="218,-112.5 218,-131.5 474,-131.5 474,-112.5 218,-112.5"/>
<text text-anchor="middle" x="346" y="-119.5" font-family="Helvetica,sans-Serif" font-size="10.00">src/Browser/PlaylistManager/PlaylistManagerPopup.hh</text>
</a>
</g>
<!-- Node1&#45;&gt;Node4 -->
<g id="edge6" class="edge"><title>Node1&#45;&gt;Node4</title>
<path fill="none" stroke="midnightblue" d="M434.28,-164.096C412.608,-154.007 383.098,-140.27 364.295,-131.516"/>
<polygon fill="midnightblue" stroke="midnightblue" points="433.077,-167.396 443.619,-168.444 436.031,-161.05 433.077,-167.396"/>
</g>
<!-- Node6 -->
<g id="node11" class="node"><title>Node6</title>
<a xlink:href="QueuePopup_8hh.html" target="_top" xlink:title="src/Browser/Queue/QueuePopup.hh">
<polygon fill="white" stroke="black" points="492.5,-112.5 492.5,-131.5 665.5,-131.5 665.5,-112.5 492.5,-112.5"/>
<text text-anchor="middle" x="579" y="-119.5" font-family="Helvetica,sans-Serif" font-size="10.00">src/Browser/Queue/QueuePopup.hh</text>
</a>
</g>
<!-- Node1&#45;&gt;Node6 -->
<g id="edge10" class="edge"><title>Node1&#45;&gt;Node6</title>
<path fill="none" stroke="midnightblue" d="M489.664,-164.232C511.549,-154.131 541.497,-140.309 560.548,-131.516"/>
<polygon fill="midnightblue" stroke="midnightblue" points="488.152,-161.075 480.539,-168.444 491.085,-167.431 488.152,-161.075"/>
</g>
<!-- Node8 -->
<g id="node15" class="node"><title>Node8</title>
<a xlink:href="Trayicon_8hh.html" target="_top" xlink:title="src/GManager/Trayicon.hh">
<polygon fill="white" stroke="black" points="692,-112.5 692,-131.5 824,-131.5 824,-112.5 692,-112.5"/>
<text text-anchor="middle" x="758" y="-119.5" font-family="Helvetica,sans-Serif" font-size="10.00">src/GManager/Trayicon.hh</text>
</a>
</g>
<!-- Node1&#45;&gt;Node8 -->
<g id="edge14" class="edge"><title>Node1&#45;&gt;Node8</title>
<path fill="none" stroke="midnightblue" d="M519.003,-166.601C574.944,-156.395 659.23,-141.019 711.317,-131.516"/>
<polygon fill="midnightblue" stroke="midnightblue" points="518.112,-163.206 508.902,-168.444 519.368,-170.092 518.112,-163.206"/>
</g>
<!-- Node3 -->
<g id="node5" class="node"><title>Node3</title>
<a xlink:href="Database_8hh.html" target="_top" xlink:title="src/Browser/Database/Database.hh">
<polygon fill="white" stroke="black" points="13.5,-56.5 13.5,-75.5 186.5,-75.5 186.5,-56.5 13.5,-56.5"/>
<text text-anchor="middle" x="100" y="-63.5" font-family="Helvetica,sans-Serif" font-size="10.00">src/Browser/Database/Database.hh</text>
</a>
</g>
<!-- Node2&#45;&gt;Node3 -->
<g id="edge4" class="edge"><title>Node2&#45;&gt;Node3</title>
<path fill="none" stroke="midnightblue" d="M100,-101.805C100,-92.9102 100,-82.7798 100,-75.7511"/>
<polygon fill="midnightblue" stroke="midnightblue" points="96.5001,-102.083 100,-112.083 103.5,-102.083 96.5001,-102.083"/>
</g>
<!-- Node5 -->
<g id="node9" class="node"><title>Node5</title>
<a xlink:href="PlaylistManager_8hh.html" target="_top" xlink:title="src/Browser/PlaylistManager/PlaylistManager.hh">
<polygon fill="white" stroke="black" points="232,-56.5 232,-75.5 460,-75.5 460,-56.5 232,-56.5"/>
<text text-anchor="middle" x="346" y="-63.5" font-family="Helvetica,sans-Serif" font-size="10.00">src/Browser/PlaylistManager/PlaylistManager.hh</text>
</a>
</g>
<!-- Node4&#45;&gt;Node5 -->
<g id="edge8" class="edge"><title>Node4&#45;&gt;Node5</title>
<path fill="none" stroke="midnightblue" d="M346,-101.805C346,-92.9102 346,-82.7798 346,-75.7511"/>
<polygon fill="midnightblue" stroke="midnightblue" points="342.5,-102.083 346,-112.083 349.5,-102.083 342.5,-102.083"/>
</g>
<!-- Node7 -->
<g id="node13" class="node"><title>Node7</title>
<a xlink:href="Queue_8hh.html" target="_top" xlink:title="src/Browser/Queue/Queue.hh">
<polygon fill="white" stroke="black" points="497,-56.5 497,-75.5 643,-75.5 643,-56.5 497,-56.5"/>
<text text-anchor="middle" x="570" y="-63.5" font-family="Helvetica,sans-Serif" font-size="10.00">src/Browser/Queue/Queue.hh</text>
</a>
</g>
<!-- Node6&#45;&gt;Node7 -->
<g id="edge12" class="edge"><title>Node6&#45;&gt;Node7</title>
<path fill="none" stroke="midnightblue" d="M575.85,-102.101C574.356,-93.1357 572.643,-82.8579 571.459,-75.7511"/>
<polygon fill="midnightblue" stroke="midnightblue" points="572.417,-102.794 577.514,-112.083 579.322,-101.644 572.417,-102.794"/>
</g>
<!-- Node9 -->
<g id="node17" class="node"><title>Node9</title>
<a xlink:href="SettingsGeneral_8hh.html" target="_top" xlink:title="src/Browser/Settings/SettingsGeneral.hh">
<polygon fill="white" stroke="black" points="661,-56.5 661,-75.5 855,-75.5 855,-56.5 661,-56.5"/>
<text text-anchor="middle" x="758" y="-63.5" font-family="Helvetica,sans-Serif" font-size="10.00">src/Browser/Settings/SettingsGeneral.hh</text>
</a>
</g>
<!-- Node8&#45;&gt;Node9 -->
<g id="edge16" class="edge"><title>Node8&#45;&gt;Node9</title>
<path fill="none" stroke="midnightblue" d="M758,-101.805C758,-92.9102 758,-82.7798 758,-75.7511"/>
<polygon fill="midnightblue" stroke="midnightblue" points="754.5,-102.083 758,-112.083 761.5,-102.083 754.5,-102.083"/>
</g>
<!-- Node10 -->
<g id="node19" class="node"><title>Node10</title>
<a xlink:href="Settings_8hh.html" target="_top" xlink:title="src/Browser/Settings/Settings.hh">
<polygon fill="white" stroke="black" points="739.5,-0.5 739.5,-19.5 900.5,-19.5 900.5,-0.5 739.5,-0.5"/>
<text text-anchor="middle" x="820" y="-7.5" font-family="Helvetica,sans-Serif" font-size="10.00">src/Browser/Settings/Settings.hh</text>
</a>
</g>
<!-- Node8&#45;&gt;Node10 -->
<g id="edge20" class="edge"><title>Node8&#45;&gt;Node10</title>
<path fill="none" stroke="midnightblue" d="M816.694,-109.165C834.605,-102.507 852.36,-92.1355 863,-76 876.333,-55.7804 849.997,-32.0577 832.949,-19.6163"/>
<polygon fill="midnightblue" stroke="midnightblue" points="815.138,-105.996 806.771,-112.495 817.365,-112.632 815.138,-105.996"/>
</g>
<!-- Node9&#45;&gt;Node10 -->
<g id="edge18" class="edge"><title>Node9&#45;&gt;Node10</title>
<path fill="none" stroke="midnightblue" d="M775.754,-49.5372C786.808,-39.9087 800.631,-27.8694 809.857,-19.8339"/>
<polygon fill="midnightblue" stroke="midnightblue" points="773.203,-47.1168 767.961,-56.324 777.801,-52.3954 773.203,-47.1168"/>
</g>
</g>
</svg>
