<?xml version="1.0" encoding="UTF-8" standalone="no"?>
<!DOCTYPE svg PUBLIC "-//W3C//DTD SVG 1.1//EN"
 "http://www.w3.org/Graphics/SVG/1.1/DTD/svg11.dtd">
<!-- Generated by graphviz version 2.28.0 (20120217.0315)
 -->
<!-- Title: G Pages: 1 -->
<svg width="505pt" height="308pt"
 viewBox="0.00 0.00 505.06 308.00" xmlns="http://www.w3.org/2000/svg" xmlns:xlink="http://www.w3.org/1999/xlink">
<g id="graph1" class="graph" transform="scale(1 1) rotate(0) translate(4 304)">
<title>G</title>
<polygon fill="white" stroke="white" points="-4,5 -4,-304 502.064,-304 502.064,5 -4,5"/>
<!-- Node1 -->
<g id="node1" class="node"><title>Node1</title>
<polygon fill="#bfbfbf" stroke="black" points="131.064,-280.5 131.064,-299.5 251.064,-299.5 251.064,-280.5 131.064,-280.5"/>
<text text-anchor="middle" x="191.064" y="-287.5" font-family="Helvetica,sans-Serif" font-size="10.00">src/MPD/BaseClient.hh</text>
</g>
<!-- Node2 -->
<g id="node3" class="node"><title>Node2</title>
<a xlink:href="Listener_8hh.html" target="_top" xlink:title="Listener.hh">
<polygon fill="white" stroke="black" points="158.564,-224.5 158.564,-243.5 223.564,-243.5 223.564,-224.5 158.564,-224.5"/>
<text text-anchor="middle" x="191.064" y="-231.5" font-family="Helvetica,sans-Serif" font-size="10.00">Listener.hh</text>
</a>
</g>
<!-- Node1&#45;&gt;Node2 -->
<g id="edge2" class="edge"><title>Node1&#45;&gt;Node2</title>
<path fill="none" stroke="midnightblue" d="M191.064,-280.083C191.064,-273.006 191.064,-262.861 191.064,-253.986"/>
<polygon fill="midnightblue" stroke="midnightblue" points="194.564,-253.751 191.064,-243.751 187.564,-253.751 194.564,-253.751"/>
</g>
<!-- Node9 -->
<g id="node18" class="node"><title>Node9</title>
<a xlink:href="Connection_8hh.html" target="_top" xlink:title="Connection.hh">
<polygon fill="white" stroke="black" points="22.0636,-112.5 22.0636,-131.5 102.064,-131.5 102.064,-112.5 22.0636,-112.5"/>
<text text-anchor="middle" x="62.0636" y="-119.5" font-family="Helvetica,sans-Serif" font-size="10.00">Connection.hh</text>
</a>
</g>
<!-- Node1&#45;&gt;Node9 -->
<g id="edge42" class="edge"><title>Node1&#45;&gt;Node9</title>
<path fill="none" stroke="midnightblue" d="M155.709,-280.463C113.193,-268.09 43.7286,-240.657 13.0636,-188 2.246,-169.424 21.5828,-149.975 39.0591,-137.248"/>
<polygon fill="midnightblue" stroke="midnightblue" points="41.0736,-140.111 47.3486,-131.574 37.1196,-134.335 41.0736,-140.111"/>
</g>
<!-- Node14 -->
<g id="node36" class="node"><title>Node14</title>
<a xlink:href="Query_8hh.html" target="_top" xlink:title="Query.hh">
<polygon fill="white" stroke="black" points="397.064,-112.5 397.064,-131.5 453.064,-131.5 453.064,-112.5 397.064,-112.5"/>
<text text-anchor="middle" x="425.064" y="-119.5" font-family="Helvetica,sans-Serif" font-size="10.00">Query.hh</text>
</a>
</g>
<!-- Node1&#45;&gt;Node14 -->
<g id="edge44" class="edge"><title>Node1&#45;&gt;Node14</title>
<path fill="none" stroke="midnightblue" d="M217.312,-280.48C257.343,-266.441 334.339,-235.215 385.064,-188 399.424,-174.633 410.554,-154.985 417.386,-140.793"/>
<polygon fill="midnightblue" stroke="midnightblue" points="420.618,-142.141 421.586,-131.591 414.25,-139.235 420.618,-142.141"/>
</g>
<!-- Node3 -->
<g id="node5" class="node"><title>Node3</title>
<polygon fill="white" stroke="#bfbfbf" points="235.064,-56.5 235.064,-75.5 305.064,-75.5 305.064,-56.5 235.064,-56.5"/>
<text text-anchor="middle" x="270.064" y="-63.5" font-family="Helvetica,sans-Serif" font-size="10.00">mpd/client.h</text>
</g>
<!-- Node2&#45;&gt;Node3 -->
<g id="edge4" class="edge"><title>Node2&#45;&gt;Node3</title>
<path fill="none" stroke="midnightblue" d="M202.044,-224.498C221.23,-208.777 259.881,-173.003 271.064,-132 275.198,-116.841 274.54,-98.9466 273.079,-85.7747"/>
<polygon fill="midnightblue" stroke="midnightblue" points="276.511,-85.0368 271.689,-75.6027 269.575,-85.9846 276.511,-85.0368"/>
</g>
<!-- Node4 -->
<g id="node7" class="node"><title>Node4</title>
<polygon fill="white" stroke="#bfbfbf" points="286.564,-168.5 286.564,-187.5 359.564,-187.5 359.564,-168.5 286.564,-168.5"/>
<text text-anchor="middle" x="323.064" y="-175.5" font-family="Helvetica,sans-Serif" font-size="10.00">mpd/async.h</text>
</g>
<!-- Node2&#45;&gt;Node4 -->
<g id="edge6" class="edge"><title>Node2&#45;&gt;Node4</title>
<path fill="none" stroke="midnightblue" d="M211.979,-224.444C233.8,-215.517 268.213,-201.439 292.956,-191.317"/>
<polygon fill="midnightblue" stroke="midnightblue" points="294.315,-194.542 302.246,-187.516 291.665,-188.063 294.315,-194.542"/>
</g>
<!-- Node5 -->
<g id="node9" class="node"><title>Node5</title>
<polygon fill="white" stroke="#bfbfbf" points="22.0636,-168.5 22.0636,-187.5 96.0636,-187.5 96.0636,-168.5 22.0636,-168.5"/>
<text text-anchor="middle" x="59.0636" y="-175.5" font-family="Helvetica,sans-Serif" font-size="10.00">mpd/parser.h</text>
</g>
<!-- Node2&#45;&gt;Node5 -->
<g id="edge8" class="edge"><title>Node2&#45;&gt;Node5</title>
<path fill="none" stroke="midnightblue" d="M170.148,-224.444C148.328,-215.517 113.914,-201.439 89.1714,-191.317"/>
<polygon fill="midnightblue" stroke="midnightblue" points="90.4623,-188.063 79.8816,-187.516 87.8118,-194.542 90.4623,-188.063"/>
</g>
<!-- Node6 -->
<g id="node11" class="node"><title>Node6</title>
<polygon fill="white" stroke="#bfbfbf" points="29.0636,-56.5 29.0636,-75.5 85.0636,-75.5 85.0636,-56.5 29.0636,-56.5"/>
<text text-anchor="middle" x="57.0636" y="-63.5" font-family="Helvetica,sans-Serif" font-size="10.00">glibmm.h</text>
</g>
<!-- Node2&#45;&gt;Node6 -->
<g id="edge10" class="edge"><title>Node2&#45;&gt;Node6</title>
<path fill="none" stroke="midnightblue" d="M158.361,-229.489C111.978,-223.759 30.7373,-210.698 13.0636,-188 -7.68845,-161.349 0.312936,-143.279 13.0636,-112 17.8636,-100.225 27.3922,-89.8564 36.3584,-82.0486"/>
<polygon fill="midnightblue" stroke="midnightblue" points="38.714,-84.6448 44.2827,-75.6314 34.3087,-79.2048 38.714,-84.6448"/>
</g>
<!-- Node7 -->
<g id="node13" class="node"><title>Node7</title>
<a xlink:href="Status_8hh.html" target="_top" xlink:title="Status.hh">
<polygon fill="white" stroke="black" points="319.564,-112.5 319.564,-131.5 378.564,-131.5 378.564,-112.5 319.564,-112.5"/>
<text text-anchor="middle" x="349.064" y="-119.5" font-family="Helvetica,sans-Serif" font-size="10.00">Status.hh</text>
</a>
</g>
<!-- Node2&#45;&gt;Node7 -->
<g id="edge12" class="edge"><title>Node2&#45;&gt;Node7</title>
<path fill="none" stroke="midnightblue" d="M223.585,-229.461C269.71,-223.696 350.498,-210.59 368.064,-188 378.838,-174.143 370.583,-154.342 361.83,-140.242"/>
<polygon fill="midnightblue" stroke="midnightblue" points="364.703,-138.242 356.201,-131.919 358.905,-142.164 364.703,-138.242"/>
</g>
<!-- Node8 -->
<g id="node16" class="node"><title>Node8</title>
<a xlink:href="NotifyData_8hh.html" target="_top" xlink:title="NotifyData.hh">
<polygon fill="white" stroke="black" points="152.564,-168.5 152.564,-187.5 229.564,-187.5 229.564,-168.5 152.564,-168.5"/>
<text text-anchor="middle" x="191.064" y="-175.5" font-family="Helvetica,sans-Serif" font-size="10.00">NotifyData.hh</text>
</a>
</g>
<!-- Node2&#45;&gt;Node8 -->
<g id="edge16" class="edge"><title>Node2&#45;&gt;Node8</title>
<path fill="none" stroke="midnightblue" d="M191.064,-224.083C191.064,-217.006 191.064,-206.861 191.064,-197.986"/>
<polygon fill="midnightblue" stroke="midnightblue" points="194.564,-197.751 191.064,-187.751 187.564,-197.751 194.564,-197.751"/>
</g>
<!-- Node2&#45;&gt;Node9 -->
<g id="edge40" class="edge"><title>Node2&#45;&gt;Node9</title>
<path fill="none" stroke="midnightblue" d="M180.941,-224.368C159.087,-205.733 107.252,-161.532 79.8115,-138.134"/>
<polygon fill="midnightblue" stroke="midnightblue" points="82.0192,-135.417 72.139,-131.591 77.4773,-140.743 82.0192,-135.417"/>
</g>
<!-- Node7&#45;&gt;Node3 -->
<g id="edge14" class="edge"><title>Node7&#45;&gt;Node3</title>
<path fill="none" stroke="midnightblue" d="M336.371,-112.324C324.162,-103.979 305.485,-91.2122 291.061,-81.3524"/>
<polygon fill="midnightblue" stroke="midnightblue" points="292.956,-78.4082 282.725,-75.6545 289.005,-84.1871 292.956,-78.4082"/>
</g>
<!-- Node8&#45;&gt;Node7 -->
<g id="edge28" class="edge"><title>Node8&#45;&gt;Node7</title>
<path fill="none" stroke="midnightblue" d="M216.099,-168.444C242.68,-159.359 284.872,-144.939 314.587,-134.783"/>
<polygon fill="midnightblue" stroke="midnightblue" points="315.815,-138.062 324.145,-131.516 313.551,-131.439 315.815,-138.062"/>
</g>
<!-- Node8&#45;&gt;Node9 -->
<g id="edge18" class="edge"><title>Node8&#45;&gt;Node9</title>
<path fill="none" stroke="midnightblue" d="M170.623,-168.444C149.393,-159.557 115.965,-145.563 91.8087,-135.451"/>
<polygon fill="midnightblue" stroke="midnightblue" points="92.9843,-132.149 82.4084,-131.516 90.2813,-138.606 92.9843,-132.149"/>
</g>
<!-- Node10 -->
<g id="node22" class="node"><title>Node10</title>
<a xlink:href="Statistics_8hh.html" target="_top" xlink:title="Statistics.hh">
<polygon fill="white" stroke="black" points="191.564,-112.5 191.564,-131.5 262.564,-131.5 262.564,-112.5 191.564,-112.5"/>
<text text-anchor="middle" x="227.064" y="-119.5" font-family="Helvetica,sans-Serif" font-size="10.00">Statistics.hh</text>
</a>
</g>
<!-- Node8&#45;&gt;Node10 -->
<g id="edge24" class="edge"><title>Node8&#45;&gt;Node10</title>
<path fill="none" stroke="midnightblue" d="M197.008,-168.083C202.041,-160.534 209.4,-149.495 215.577,-140.23"/>
<polygon fill="midnightblue" stroke="midnightblue" points="218.595,-142.013 221.23,-131.751 212.77,-138.13 218.595,-142.013"/>
</g>
<!-- Node11 -->
<g id="node26" class="node"><title>Node11</title>
<a xlink:href="Song_8hh.html" target="_top" xlink:title="Song.hh">
<polygon fill="white" stroke="black" points="120.564,-112.5 120.564,-131.5 173.564,-131.5 173.564,-112.5 120.564,-112.5"/>
<text text-anchor="middle" x="147.064" y="-119.5" font-family="Helvetica,sans-Serif" font-size="10.00">Song.hh</text>
</a>
</g>
<!-- Node8&#45;&gt;Node11 -->
<g id="edge30" class="edge"><title>Node8&#45;&gt;Node11</title>
<path fill="none" stroke="midnightblue" d="M183.798,-168.083C177.519,-160.377 168.276,-149.033 160.633,-139.653"/>
<polygon fill="midnightblue" stroke="midnightblue" points="163.224,-137.293 154.194,-131.751 157.798,-141.714 163.224,-137.293"/>
</g>
<!-- Node9&#45;&gt;Node3 -->
<g id="edge20" class="edge"><title>Node9&#45;&gt;Node3</title>
<path fill="none" stroke="midnightblue" d="M95.0218,-112.444C130.851,-103.142 188.227,-88.246 227.454,-78.062"/>
<polygon fill="midnightblue" stroke="midnightblue" points="228.46,-81.4171 237.26,-75.5164 226.701,-74.6417 228.46,-81.4171"/>
</g>
<!-- Node9&#45;&gt;Node6 -->
<g id="edge22" class="edge"><title>Node9&#45;&gt;Node6</title>
<path fill="none" stroke="midnightblue" d="M61.238,-112.083C60.5827,-105.006 59.6433,-94.8611 58.8216,-85.9865"/>
<polygon fill="midnightblue" stroke="midnightblue" points="62.2811,-85.3858 57.8739,-75.7511 55.3109,-86.0312 62.2811,-85.3858"/>
</g>
<!-- Node10&#45;&gt;Node3 -->
<g id="edge26" class="edge"><title>Node10&#45;&gt;Node3</title>
<path fill="none" stroke="midnightblue" d="M234.164,-112.083C240.301,-104.377 249.333,-93.0333 256.803,-83.6531"/>
<polygon fill="midnightblue" stroke="midnightblue" points="259.604,-85.7542 263.095,-75.7511 254.128,-81.3936 259.604,-85.7542"/>
</g>
<!-- Node11&#45;&gt;Node3 -->
<g id="edge32" class="edge"><title>Node11&#45;&gt;Node3</title>
<path fill="none" stroke="midnightblue" d="M166.553,-112.444C186.706,-103.596 218.387,-89.6875 241.394,-79.5865"/>
<polygon fill="midnightblue" stroke="midnightblue" points="242.916,-82.7411 250.665,-75.5164 240.102,-76.3316 242.916,-82.7411"/>
</g>
<!-- Node11&#45;&gt;Node6 -->
<g id="edge38" class="edge"><title>Node11&#45;&gt;Node6</title>
<path fill="none" stroke="midnightblue" d="M132.604,-112.324C118.564,-103.9 97.0151,-90.9709 80.5205,-81.0741"/>
<polygon fill="midnightblue" stroke="midnightblue" points="81.8635,-77.7983 71.4878,-75.6545 78.262,-83.8007 81.8635,-77.7983"/>
</g>
<!-- Node12 -->
<g id="node29" class="node"><title>Node12</title>
<a xlink:href="AbstractComposite_8hh.html" target="_top" xlink:title="AbstractComposite.hh">
<polygon fill="white" stroke="black" points="103.064,-56.5 103.064,-75.5 217.064,-75.5 217.064,-56.5 103.064,-56.5"/>
<text text-anchor="middle" x="160.064" y="-63.5" font-family="Helvetica,sans-Serif" font-size="10.00">AbstractComposite.hh</text>
</a>
</g>
<!-- Node11&#45;&gt;Node12 -->
<g id="edge34" class="edge"><title>Node11&#45;&gt;Node12</title>
<path fill="none" stroke="midnightblue" d="M149.21,-112.083C150.933,-104.927 153.411,-94.6353 155.564,-85.6911"/>
<polygon fill="midnightblue" stroke="midnightblue" points="159.019,-86.2925 157.957,-75.7511 152.213,-84.6541 159.019,-86.2925"/>
</g>
<!-- Node13 -->
<g id="node31" class="node"><title>Node13</title>
<polygon fill="white" stroke="#bfbfbf" points="224.064,-0.5 224.064,-19.5 268.064,-19.5 268.064,-0.5 224.064,-0.5"/>
<text text-anchor="middle" x="246.064" y="-7.5" font-family="Helvetica,sans-Serif" font-size="10.00">vector</text>
</g>
<!-- Node12&#45;&gt;Node13 -->
<g id="edge36" class="edge"><title>Node12&#45;&gt;Node13</title>
<path fill="none" stroke="midnightblue" d="M173.881,-56.324C187.297,-47.9002 207.888,-34.9709 223.649,-25.0741"/>
<polygon fill="midnightblue" stroke="midnightblue" points="225.673,-27.9364 232.281,-19.6545 221.95,-22.0081 225.673,-27.9364"/>
</g>
<!-- Node14&#45;&gt;Node3 -->
<g id="edge46" class="edge"><title>Node14&#45;&gt;Node3</title>
<path fill="none" stroke="midnightblue" d="M400.503,-112.444C374.541,-103.399 333.396,-89.064 304.267,-78.9158"/>
<polygon fill="midnightblue" stroke="midnightblue" points="305.104,-75.5013 294.509,-75.5164 302.801,-82.1116 305.104,-75.5013"/>
</g>
<!-- Node14&#45;&gt;Node13 -->
<g id="edge48" class="edge"><title>Node14&#45;&gt;Node13</title>
<path fill="none" stroke="midnightblue" d="M411.018,-112.368C380.171,-93.4121 306.274,-48.0006 268.752,-24.9424"/>
<polygon fill="midnightblue" stroke="midnightblue" points="270.397,-21.8452 260.044,-19.5914 266.732,-27.8091 270.397,-21.8452"/>
</g>
<!-- Node15 -->
<g id="node40" class="node"><title>Node15</title>
<a xlink:href="AbstractClientExtension_8hh.html" target="_top" xlink:title="AbstractClientExtension.hh">
<polygon fill="white" stroke="black" points="361.064,-56.5 361.064,-75.5 497.064,-75.5 497.064,-56.5 361.064,-56.5"/>
<text text-anchor="middle" x="429.064" y="-63.5" font-family="Helvetica,sans-Serif" font-size="10.00">AbstractClientExtension.hh</text>
</a>
</g>
<!-- Node14&#45;&gt;Node15 -->
<g id="edge50" class="edge"><title>Node14&#45;&gt;Node15</title>
<path fill="none" stroke="midnightblue" d="M425.724,-112.083C426.248,-105.006 427,-94.8611 427.657,-85.9865"/>
<polygon fill="midnightblue" stroke="midnightblue" points="431.167,-85.9823 428.415,-75.7511 424.186,-85.4652 431.167,-85.9823"/>
</g>
</g>
</svg>
