<?xml version="1.0" encoding="UTF-8" standalone="no"?>
<!DOCTYPE svg PUBLIC "-//W3C//DTD SVG 1.1//EN"
 "http://www.w3.org/Graphics/SVG/1.1/DTD/svg11.dtd">
<!-- Generated by graphviz version 2.28.0 (20120217.0315)
 -->
<!-- Title: G Pages: 1 -->
<svg width="715pt" height="196pt"
 viewBox="0.00 0.00 715.00 196.00" xmlns="http://www.w3.org/2000/svg" xmlns:xlink="http://www.w3.org/1999/xlink">
<g id="graph1" class="graph" transform="scale(1 1) rotate(0) translate(4 192)">
<title>G</title>
<polygon fill="white" stroke="white" points="-4,5 -4,-192 712,-192 712,5 -4,5"/>
<!-- Node1 -->
<g id="node1" class="node"><title>Node1</title>
<polygon fill="#bfbfbf" stroke="black" points="268,-168.5 268,-187.5 378,-187.5 378,-168.5 268,-168.5"/>
<text text-anchor="middle" x="323" y="-175.5" font-family="Helvetica,sans-Serif" font-size="10.00">src/Avahi/Browser.hh</text>
</g>
<!-- Node2 -->
<g id="node3" class="node"><title>Node2</title>
<a xlink:href="View_8hh.html" target="_top" xlink:title="View.hh">
<polygon fill="white" stroke="black" points="17,-112.5 17,-131.5 69,-131.5 69,-112.5 17,-112.5"/>
<text text-anchor="middle" x="43" y="-119.5" font-family="Helvetica,sans-Serif" font-size="10.00">View.hh</text>
</a>
</g>
<!-- Node1&#45;&gt;Node2 -->
<g id="edge2" class="edge"><title>Node1&#45;&gt;Node2</title>
<path fill="none" stroke="midnightblue" d="M271.403,-168.45C224.016,-160.379 151.64,-147.507 79.0745,-131.896"/>
<polygon fill="midnightblue" stroke="midnightblue" points="79.8161,-128.476 69.3015,-129.777 78.3328,-135.317 79.8161,-128.476"/>
</g>
<!-- Node5 -->
<g id="node9" class="node"><title>Node5</title>
<polygon fill="white" stroke="#bfbfbf" points="87.5,-112.5 87.5,-131.5 188.5,-131.5 188.5,-112.5 87.5,-112.5"/>
<text text-anchor="middle" x="138" y="-119.5" font-family="Helvetica,sans-Serif" font-size="10.00">avahi&#45;client/client.h</text>
</g>
<!-- Node1&#45;&gt;Node5 -->
<g id="edge8" class="edge"><title>Node1&#45;&gt;Node5</title>
<path fill="none" stroke="midnightblue" d="M293.686,-168.444C262.158,-159.241 211.869,-144.562 177.014,-134.388"/>
<polygon fill="midnightblue" stroke="midnightblue" points="177.757,-130.959 167.177,-131.516 175.795,-137.678 177.757,-130.959"/>
</g>
<!-- Node6 -->
<g id="node11" class="node"><title>Node6</title>
<polygon fill="white" stroke="#bfbfbf" points="207,-112.5 207,-131.5 313,-131.5 313,-112.5 207,-112.5"/>
<text text-anchor="middle" x="260" y="-119.5" font-family="Helvetica,sans-Serif" font-size="10.00">avahi&#45;client/lookup.h</text>
</g>
<!-- Node1&#45;&gt;Node6 -->
<g id="edge10" class="edge"><title>Node1&#45;&gt;Node6</title>
<path fill="none" stroke="midnightblue" d="M312.878,-168.324C303.474,-160.263 289.256,-148.077 277.931,-138.369"/>
<polygon fill="midnightblue" stroke="midnightblue" points="280.177,-135.684 270.306,-131.834 275.621,-140.999 280.177,-135.684"/>
</g>
<!-- Node7 -->
<g id="node13" class="node"><title>Node7</title>
<polygon fill="white" stroke="#bfbfbf" points="330.5,-112.5 330.5,-131.5 441.5,-131.5 441.5,-112.5 330.5,-112.5"/>
<text text-anchor="middle" x="386" y="-119.5" font-family="Helvetica,sans-Serif" font-size="10.00">avahi&#45;common/error.h</text>
</g>
<!-- Node1&#45;&gt;Node7 -->
<g id="edge12" class="edge"><title>Node1&#45;&gt;Node7</title>
<path fill="none" stroke="midnightblue" d="M333.122,-168.324C342.526,-160.263 356.744,-148.077 368.069,-138.369"/>
<polygon fill="midnightblue" stroke="midnightblue" points="370.379,-140.999 375.694,-131.834 365.823,-135.684 370.379,-140.999"/>
</g>
<!-- Node8 -->
<g id="node15" class="node"><title>Node8</title>
<polygon fill="white" stroke="#bfbfbf" points="459.5,-112.5 459.5,-131.5 572.5,-131.5 572.5,-112.5 459.5,-112.5"/>
<text text-anchor="middle" x="516" y="-119.5" font-family="Helvetica,sans-Serif" font-size="10.00">avahi&#45;glib/glib&#45;watch.h</text>
</g>
<!-- Node1&#45;&gt;Node8 -->
<g id="edge14" class="edge"><title>Node1&#45;&gt;Node8</title>
<path fill="none" stroke="midnightblue" d="M353.581,-168.444C386.615,-159.201 439.388,-144.436 475.766,-134.257"/>
<polygon fill="midnightblue" stroke="midnightblue" points="476.875,-137.582 485.562,-131.516 474.988,-130.84 476.875,-137.582"/>
</g>
<!-- Node9 -->
<g id="node17" class="node"><title>Node9</title>
<polygon fill="white" stroke="#bfbfbf" points="591,-112.5 591,-131.5 707,-131.5 707,-112.5 591,-112.5"/>
<text text-anchor="middle" x="649" y="-119.5" font-family="Helvetica,sans-Serif" font-size="10.00">avahi&#45;glib/glib&#45;malloc.h</text>
</g>
<!-- Node1&#45;&gt;Node9 -->
<g id="edge16" class="edge"><title>Node1&#45;&gt;Node9</title>
<path fill="none" stroke="midnightblue" d="M374.656,-168.444C432.479,-158.865 526.113,-143.356 587.623,-133.167"/>
<polygon fill="midnightblue" stroke="midnightblue" points="588.292,-136.604 597.586,-131.516 587.148,-129.698 588.292,-136.604"/>
</g>
<!-- Node3 -->
<g id="node5" class="node"><title>Node3</title>
<a xlink:href="ui__includes_8hh.html" target="_top" xlink:title="../ui_includes.hh">
<polygon fill="white" stroke="black" points="-1,-56.5 -1,-75.5 87,-75.5 87,-56.5 -1,-56.5"/>
<text text-anchor="middle" x="43" y="-63.5" font-family="Helvetica,sans-Serif" font-size="10.00">../ui_includes.hh</text>
</a>
</g>
<!-- Node2&#45;&gt;Node3 -->
<g id="edge4" class="edge"><title>Node2&#45;&gt;Node3</title>
<path fill="none" stroke="midnightblue" d="M43,-112.083C43,-105.006 43,-94.8611 43,-85.9865"/>
<polygon fill="midnightblue" stroke="midnightblue" points="46.5001,-85.751 43,-75.7511 39.5001,-85.7511 46.5001,-85.751"/>
</g>
<!-- Node4 -->
<g id="node7" class="node"><title>Node4</title>
<polygon fill="white" stroke="#bfbfbf" points="15.5,-0.5 15.5,-19.5 70.5,-19.5 70.5,-0.5 15.5,-0.5"/>
<text text-anchor="middle" x="43" y="-7.5" font-family="Helvetica,sans-Serif" font-size="10.00">gtkmm.h</text>
</g>
<!-- Node3&#45;&gt;Node4 -->
<g id="edge6" class="edge"><title>Node3&#45;&gt;Node4</title>
<path fill="none" stroke="midnightblue" d="M43,-56.083C43,-49.0059 43,-38.8611 43,-29.9865"/>
<polygon fill="midnightblue" stroke="midnightblue" points="46.5001,-29.751 43,-19.7511 39.5001,-29.7511 46.5001,-29.751"/>
</g>
</g>
</svg>
