<?xml version="1.0" encoding="UTF-8" standalone="no"?>
<!DOCTYPE svg PUBLIC "-//W3C//DTD SVG 1.1//EN"
 "http://www.w3.org/Graphics/SVG/1.1/DTD/svg11.dtd">
<!-- Generated by graphviz version 2.28.0 (20111204.1018)
 -->
<!-- Title: G Pages: 1 -->
<svg width="699pt" height="140pt"
 viewBox="0.00 0.00 699.00 140.00" xmlns="http://www.w3.org/2000/svg" xmlns:xlink="http://www.w3.org/1999/xlink">
<g id="graph1" class="graph" transform="scale(1 1) rotate(0) translate(4 136)">
<title>G</title>
<polygon fill="white" stroke="white" points="-4,5 -4,-136 696,-136 696,5 -4,5"/>
<!-- Node1 -->
<g id="node1" class="node"><title>Node1</title>
<polygon fill="#bfbfbf" stroke="black" points="252,-112.5 252,-131.5 362,-131.5 362,-112.5 252,-112.5"/>
<text text-anchor="middle" x="307" y="-119.5" font-family="Helvetica,sans-Serif" font-size="10.00">src/Avahi/Browser.hh</text>
</g>
<!-- Node2 -->
<g id="node3" class="node"><title>Node2</title>
<a xlink:href="View_8hh.html" target="_top" xlink:title="View.hh">
<polygon fill="white" stroke="black" points="1,-56.5 1,-75.5 53,-75.5 53,-56.5 1,-56.5"/>
<text text-anchor="middle" x="27" y="-63.5" font-family="Helvetica,sans-Serif" font-size="10.00">View.hh</text>
</a>
</g>
<!-- Node1&#45;&gt;Node2 -->
<g id="edge2" class="edge"><title>Node1&#45;&gt;Node2</title>
<path fill="none" stroke="midnightblue" d="M255.403,-112.45C208.016,-104.379 135.64,-91.5066 63.0745,-75.8962"/>
<polygon fill="midnightblue" stroke="midnightblue" points="63.8161,-72.4758 53.3015,-73.7772 62.3328,-79.3168 63.8161,-72.4758"/>
</g>
<!-- Node4 -->
<g id="node7" class="node"><title>Node4</title>
<polygon fill="white" stroke="#bfbfbf" points="71.5,-56.5 71.5,-75.5 172.5,-75.5 172.5,-56.5 71.5,-56.5"/>
<text text-anchor="middle" x="122" y="-63.5" font-family="Helvetica,sans-Serif" font-size="10.00">avahi&#45;client/client.h</text>
</g>
<!-- Node1&#45;&gt;Node4 -->
<g id="edge6" class="edge"><title>Node1&#45;&gt;Node4</title>
<path fill="none" stroke="midnightblue" d="M277.686,-112.444C246.158,-103.241 195.869,-88.5617 161.014,-78.3879"/>
<polygon fill="midnightblue" stroke="midnightblue" points="161.757,-74.9587 151.177,-75.5164 159.795,-81.6783 161.757,-74.9587"/>
</g>
<!-- Node5 -->
<g id="node9" class="node"><title>Node5</title>
<polygon fill="white" stroke="#bfbfbf" points="191,-56.5 191,-75.5 297,-75.5 297,-56.5 191,-56.5"/>
<text text-anchor="middle" x="244" y="-63.5" font-family="Helvetica,sans-Serif" font-size="10.00">avahi&#45;client/lookup.h</text>
</g>
<!-- Node1&#45;&gt;Node5 -->
<g id="edge8" class="edge"><title>Node1&#45;&gt;Node5</title>
<path fill="none" stroke="midnightblue" d="M296.878,-112.324C287.474,-104.263 273.256,-92.0765 261.931,-82.3695"/>
<polygon fill="midnightblue" stroke="midnightblue" points="264.177,-79.6844 254.306,-75.8339 259.621,-84.9993 264.177,-79.6844"/>
</g>
<!-- Node6 -->
<g id="node11" class="node"><title>Node6</title>
<polygon fill="white" stroke="#bfbfbf" points="314.5,-56.5 314.5,-75.5 425.5,-75.5 425.5,-56.5 314.5,-56.5"/>
<text text-anchor="middle" x="370" y="-63.5" font-family="Helvetica,sans-Serif" font-size="10.00">avahi&#45;common/error.h</text>
</g>
<!-- Node1&#45;&gt;Node6 -->
<g id="edge10" class="edge"><title>Node1&#45;&gt;Node6</title>
<path fill="none" stroke="midnightblue" d="M317.122,-112.324C326.526,-104.263 340.744,-92.0765 352.069,-82.3695"/>
<polygon fill="midnightblue" stroke="midnightblue" points="354.379,-84.9993 359.694,-75.8339 349.823,-79.6844 354.379,-84.9993"/>
</g>
<!-- Node7 -->
<g id="node13" class="node"><title>Node7</title>
<polygon fill="white" stroke="#bfbfbf" points="443.5,-56.5 443.5,-75.5 556.5,-75.5 556.5,-56.5 443.5,-56.5"/>
<text text-anchor="middle" x="500" y="-63.5" font-family="Helvetica,sans-Serif" font-size="10.00">avahi&#45;glib/glib&#45;watch.h</text>
</g>
<!-- Node1&#45;&gt;Node7 -->
<g id="edge12" class="edge"><title>Node1&#45;&gt;Node7</title>
<path fill="none" stroke="midnightblue" d="M337.581,-112.444C370.615,-103.201 423.388,-88.4356 459.766,-78.2572"/>
<polygon fill="midnightblue" stroke="midnightblue" points="460.875,-81.5815 469.562,-75.5164 458.988,-74.8404 460.875,-81.5815"/>
</g>
<!-- Node8 -->
<g id="node15" class="node"><title>Node8</title>
<polygon fill="white" stroke="#bfbfbf" points="575,-56.5 575,-75.5 691,-75.5 691,-56.5 575,-56.5"/>
<text text-anchor="middle" x="633" y="-63.5" font-family="Helvetica,sans-Serif" font-size="10.00">avahi&#45;glib/glib&#45;malloc.h</text>
</g>
<!-- Node1&#45;&gt;Node8 -->
<g id="edge14" class="edge"><title>Node1&#45;&gt;Node8</title>
<path fill="none" stroke="midnightblue" d="M358.656,-112.444C416.479,-102.865 510.113,-87.3556 571.623,-77.1667"/>
<polygon fill="midnightblue" stroke="midnightblue" points="572.292,-80.6036 581.586,-75.5164 571.148,-73.6977 572.292,-80.6036"/>
</g>
<!-- Node3 -->
<g id="node5" class="node"><title>Node3</title>
<polygon fill="white" stroke="#bfbfbf" points="-0.5,-0.5 -0.5,-19.5 54.5,-19.5 54.5,-0.5 -0.5,-0.5"/>
<text text-anchor="middle" x="27" y="-7.5" font-family="Helvetica,sans-Serif" font-size="10.00">gtkmm.h</text>
</g>
<!-- Node2&#45;&gt;Node3 -->
<g id="edge4" class="edge"><title>Node2&#45;&gt;Node3</title>
<path fill="none" stroke="midnightblue" d="M27,-56.083C27,-49.0059 27,-38.8611 27,-29.9865"/>
<polygon fill="midnightblue" stroke="midnightblue" points="30.5001,-29.751 27,-19.7511 23.5001,-29.7511 30.5001,-29.751"/>
</g>
</g>
</svg>
