<?xml version="1.0" encoding="UTF-8" standalone="no"?>
<!DOCTYPE svg PUBLIC "-//W3C//DTD SVG 1.1//EN"
 "http://www.w3.org/Graphics/SVG/1.1/DTD/svg11.dtd">
<!-- Generated by graphviz version 2.28.0 (20111204.1018)
 -->
<!-- Title: G Pages: 1 -->
<svg width="704pt" height="420pt"
 viewBox="0.00 0.00 704.00 420.00" xmlns="http://www.w3.org/2000/svg" xmlns:xlink="http://www.w3.org/1999/xlink">
<g id="graph1" class="graph" transform="scale(1 1) rotate(0) translate(4 416)">
<title>G</title>
<polygon fill="white" stroke="white" points="-4,5 -4,-416 701,-416 701,5 -4,5"/>
<!-- Node1 -->
<g id="node1" class="node"><title>Node1</title>
<polygon fill="#bfbfbf" stroke="black" points="448,-392.5 448,-411.5 570,-411.5 570,-392.5 448,-392.5"/>
<text text-anchor="middle" x="509" y="-399.5" font-family="Helvetica,sans-Serif" font-size="10.00">src/MPD/check_mpd.hh</text>
</g>
<!-- Node2 -->
<g id="node3" class="node"><title>Node2</title>
<polygon fill="white" stroke="#bfbfbf" points="273,-336.5 273,-355.5 375,-355.5 375,-336.5 273,-336.5"/>
<text text-anchor="middle" x="324" y="-343.5" font-family="Helvetica,sans-Serif" font-size="10.00">cxxtest/TestSuite.h</text>
</g>
<!-- Node1&#45;&gt;Node2 -->
<g id="edge2" class="edge"><title>Node1&#45;&gt;Node2</title>
<path fill="none" stroke="midnightblue" d="M479.686,-392.444C448.158,-383.241 397.869,-368.562 363.014,-358.388"/>
<polygon fill="midnightblue" stroke="midnightblue" points="363.757,-354.959 353.177,-355.516 361.795,-361.678 363.757,-354.959"/>
</g>
<!-- Node3 -->
<g id="node5" class="node"><title>Node3</title>
<a xlink:href="Client_8hh.html" target="_top" xlink:title="Client.hh">
<polygon fill="white" stroke="black" points="393,-336.5 393,-355.5 449,-355.5 449,-336.5 393,-336.5"/>
<text text-anchor="middle" x="421" y="-343.5" font-family="Helvetica,sans-Serif" font-size="10.00">Client.hh</text>
</a>
</g>
<!-- Node1&#45;&gt;Node3 -->
<g id="edge4" class="edge"><title>Node1&#45;&gt;Node3</title>
<path fill="none" stroke="midnightblue" d="M494.861,-392.324C481.134,-383.9 460.064,-370.971 443.936,-361.074"/>
<polygon fill="midnightblue" stroke="midnightblue" points="445.457,-357.902 435.104,-355.655 441.796,-363.868 445.457,-357.902"/>
</g>
<!-- Node19 -->
<g id="node47" class="node"><title>Node19</title>
<polygon fill="white" stroke="#bfbfbf" points="569,-336.5 569,-355.5 609,-355.5 609,-336.5 569,-336.5"/>
<text text-anchor="middle" x="589" y="-343.5" font-family="Helvetica,sans-Serif" font-size="10.00">glib.h</text>
</g>
<!-- Node1&#45;&gt;Node19 -->
<g id="edge56" class="edge"><title>Node1&#45;&gt;Node19</title>
<path fill="none" stroke="midnightblue" d="M521.853,-392.324C534.216,-383.979 553.13,-371.212 567.737,-361.352"/>
<polygon fill="midnightblue" stroke="midnightblue" points="569.848,-364.15 576.179,-355.655 565.932,-358.348 569.848,-364.15"/>
</g>
<!-- Node20 -->
<g id="node49" class="node"><title>Node20</title>
<polygon fill="white" stroke="#bfbfbf" points="627.5,-336.5 627.5,-355.5 696.5,-355.5 696.5,-336.5 627.5,-336.5"/>
<text text-anchor="middle" x="662" y="-343.5" font-family="Helvetica,sans-Serif" font-size="10.00">glib/gstdio.h</text>
</g>
<!-- Node1&#45;&gt;Node20 -->
<g id="edge58" class="edge"><title>Node1&#45;&gt;Node20</title>
<path fill="none" stroke="midnightblue" d="M533.243,-392.444C558.871,-383.399 599.485,-369.064 628.238,-358.916"/>
<polygon fill="midnightblue" stroke="midnightblue" points="629.605,-362.145 637.87,-355.516 627.275,-355.544 629.605,-362.145"/>
</g>
<!-- Node21 -->
<g id="node51" class="node"><title>Node21</title>
<a xlink:href="Writer_8hh.html" target="_top" xlink:title="../Log/Writer.hh">
<polygon fill="white" stroke="black" points="467,-336.5 467,-355.5 551,-355.5 551,-336.5 467,-336.5"/>
<text text-anchor="middle" x="509" y="-343.5" font-family="Helvetica,sans-Serif" font-size="10.00">../Log/Writer.hh</text>
</a>
</g>
<!-- Node1&#45;&gt;Node21 -->
<g id="edge60" class="edge"><title>Node1&#45;&gt;Node21</title>
<path fill="none" stroke="midnightblue" d="M509,-392.083C509,-385.006 509,-374.861 509,-365.986"/>
<polygon fill="midnightblue" stroke="midnightblue" points="512.5,-365.751 509,-355.751 505.5,-365.751 512.5,-365.751"/>
</g>
<!-- Node4 -->
<g id="node7" class="node"><title>Node4</title>
<a xlink:href="BaseClient_8hh.html" target="_top" xlink:title="BaseClient.hh">
<polygon fill="white" stroke="black" points="382,-280.5 382,-299.5 460,-299.5 460,-280.5 382,-280.5"/>
<text text-anchor="middle" x="421" y="-287.5" font-family="Helvetica,sans-Serif" font-size="10.00">BaseClient.hh</text>
</a>
</g>
<!-- Node3&#45;&gt;Node4 -->
<g id="edge6" class="edge"><title>Node3&#45;&gt;Node4</title>
<path fill="none" stroke="midnightblue" d="M421,-336.083C421,-329.006 421,-318.861 421,-309.986"/>
<polygon fill="midnightblue" stroke="midnightblue" points="424.5,-309.751 421,-299.751 417.5,-309.751 424.5,-309.751"/>
</g>
<!-- Node17 -->
<g id="node42" class="node"><title>Node17</title>
<a xlink:href="AbstractItemGenerator_8hh.html" target="_top" xlink:title="AbstractItemGenerator.hh">
<polygon fill="white" stroke="black" points="118.5,-280.5 118.5,-299.5 247.5,-299.5 247.5,-280.5 118.5,-280.5"/>
<text text-anchor="middle" x="183" y="-287.5" font-family="Helvetica,sans-Serif" font-size="10.00">AbstractItemGenerator.hh</text>
</a>
</g>
<!-- Node3&#45;&gt;Node17 -->
<g id="edge50" class="edge"><title>Node3&#45;&gt;Node17</title>
<path fill="none" stroke="midnightblue" d="M392.787,-338.281C389.489,-337.506 386.171,-336.732 383,-336 331.371,-324.078 272.148,-310.803 231.627,-301.781"/>
<polygon fill="midnightblue" stroke="midnightblue" points="232.266,-298.337 221.744,-299.582 230.745,-305.17 232.266,-298.337"/>
</g>
<!-- Node5 -->
<g id="node9" class="node"><title>Node5</title>
<a xlink:href="Listener_8hh.html" target="_top" xlink:title="Listener.hh">
<polygon fill="white" stroke="black" points="250.5,-224.5 250.5,-243.5 315.5,-243.5 315.5,-224.5 250.5,-224.5"/>
<text text-anchor="middle" x="283" y="-231.5" font-family="Helvetica,sans-Serif" font-size="10.00">Listener.hh</text>
</a>
</g>
<!-- Node4&#45;&gt;Node5 -->
<g id="edge8" class="edge"><title>Node4&#45;&gt;Node5</title>
<path fill="none" stroke="midnightblue" d="M399.133,-280.444C376.221,-271.478 340.025,-257.314 314.134,-247.183"/>
<polygon fill="midnightblue" stroke="midnightblue" points="315.352,-243.901 304.764,-243.516 312.801,-250.42 315.352,-243.901"/>
</g>
<!-- Node12 -->
<g id="node24" class="node"><title>Node12</title>
<a xlink:href="Connection_8hh.html" target="_top" xlink:title="Connection.hh">
<polygon fill="white" stroke="black" points="410,-112.5 410,-131.5 490,-131.5 490,-112.5 410,-112.5"/>
<text text-anchor="middle" x="450" y="-119.5" font-family="Helvetica,sans-Serif" font-size="10.00">Connection.hh</text>
</a>
</g>
<!-- Node4&#45;&gt;Node12 -->
<g id="edge48" class="edge"><title>Node4&#45;&gt;Node12</title>
<path fill="none" stroke="midnightblue" d="M422.559,-280.075C427.124,-253.945 440.529,-177.211 446.755,-141.577"/>
<polygon fill="midnightblue" stroke="midnightblue" points="450.23,-142.021 448.503,-131.568 443.334,-140.817 450.23,-142.021"/>
</g>
<!-- Node6 -->
<g id="node11" class="node"><title>Node6</title>
<polygon fill="white" stroke="#bfbfbf" points="241,-56.5 241,-75.5 311,-75.5 311,-56.5 241,-56.5"/>
<text text-anchor="middle" x="276" y="-63.5" font-family="Helvetica,sans-Serif" font-size="10.00">mpd/client.h</text>
</g>
<!-- Node5&#45;&gt;Node6 -->
<g id="edge10" class="edge"><title>Node5&#45;&gt;Node6</title>
<path fill="none" stroke="midnightblue" d="M270.362,-224.453C241.938,-204.925 174.547,-156.811 163,-132 148.098,-99.9794 193.355,-82.8437 230.964,-74.3443"/>
<polygon fill="midnightblue" stroke="midnightblue" points="231.751,-77.7553 240.814,-72.2682 230.308,-70.9058 231.751,-77.7553"/>
</g>
<!-- Node7 -->
<g id="node13" class="node"><title>Node7</title>
<polygon fill="white" stroke="#bfbfbf" points="17.5,-168.5 17.5,-187.5 90.5,-187.5 90.5,-168.5 17.5,-168.5"/>
<text text-anchor="middle" x="54" y="-175.5" font-family="Helvetica,sans-Serif" font-size="10.00">mpd/async.h</text>
</g>
<!-- Node5&#45;&gt;Node7 -->
<g id="edge12" class="edge"><title>Node5&#45;&gt;Node7</title>
<path fill="none" stroke="midnightblue" d="M250.19,-225.263C210.836,-215.983 144.616,-200.368 100.127,-189.877"/>
<polygon fill="midnightblue" stroke="midnightblue" points="100.686,-186.413 90.1495,-187.524 99.0792,-193.226 100.686,-186.413"/>
</g>
<!-- Node8 -->
<g id="node15" class="node"><title>Node8</title>
<polygon fill="white" stroke="#bfbfbf" points="109,-168.5 109,-187.5 183,-187.5 183,-168.5 109,-168.5"/>
<text text-anchor="middle" x="146" y="-175.5" font-family="Helvetica,sans-Serif" font-size="10.00">mpd/parser.h</text>
</g>
<!-- Node5&#45;&gt;Node8 -->
<g id="edge14" class="edge"><title>Node5&#45;&gt;Node8</title>
<path fill="none" stroke="midnightblue" d="M261.292,-224.444C238.645,-215.517 202.928,-201.439 177.248,-191.317"/>
<polygon fill="midnightblue" stroke="midnightblue" points="178.193,-187.927 167.606,-187.516 175.626,-194.44 178.193,-187.927"/>
</g>
<!-- Node9 -->
<g id="node17" class="node"><title>Node9</title>
<polygon fill="white" stroke="#bfbfbf" points="456,-56.5 456,-75.5 512,-75.5 512,-56.5 456,-56.5"/>
<text text-anchor="middle" x="484" y="-63.5" font-family="Helvetica,sans-Serif" font-size="10.00">glibmm.h</text>
</g>
<!-- Node5&#45;&gt;Node9 -->
<g id="edge16" class="edge"><title>Node5&#45;&gt;Node9</title>
<path fill="none" stroke="midnightblue" d="M315.636,-228.887C365.6,-220.617 459.418,-196.836 499,-132 507.838,-117.523 501.655,-98.3373 494.744,-84.568"/>
<polygon fill="midnightblue" stroke="midnightblue" points="497.703,-82.6872 489.789,-75.644 491.584,-86.0857 497.703,-82.6872"/>
</g>
<!-- Node10 -->
<g id="node19" class="node"><title>Node10</title>
<a xlink:href="Status_8hh.html" target="_top" xlink:title="Status.hh">
<polygon fill="white" stroke="black" points="172.5,-112.5 172.5,-131.5 231.5,-131.5 231.5,-112.5 172.5,-112.5"/>
<text text-anchor="middle" x="202" y="-119.5" font-family="Helvetica,sans-Serif" font-size="10.00">Status.hh</text>
</a>
</g>
<!-- Node5&#45;&gt;Node10 -->
<g id="edge18" class="edge"><title>Node5&#45;&gt;Node10</title>
<path fill="none" stroke="midnightblue" d="M276.644,-224.368C263.218,-206.135 231.768,-163.426 214.279,-139.675"/>
<polygon fill="midnightblue" stroke="midnightblue" points="217.074,-137.568 208.326,-131.591 211.438,-141.719 217.074,-137.568"/>
</g>
<!-- Node11 -->
<g id="node22" class="node"><title>Node11</title>
<a xlink:href="NotifyData_8hh.html" target="_top" xlink:title="NotifyData.hh">
<polygon fill="white" stroke="black" points="277.5,-168.5 277.5,-187.5 354.5,-187.5 354.5,-168.5 277.5,-168.5"/>
<text text-anchor="middle" x="316" y="-175.5" font-family="Helvetica,sans-Serif" font-size="10.00">NotifyData.hh</text>
</a>
</g>
<!-- Node5&#45;&gt;Node11 -->
<g id="edge22" class="edge"><title>Node5&#45;&gt;Node11</title>
<path fill="none" stroke="midnightblue" d="M288.449,-224.083C293.014,-216.613 299.668,-205.724 305.293,-196.52"/>
<polygon fill="midnightblue" stroke="midnightblue" points="308.424,-198.109 310.652,-187.751 302.451,-194.459 308.424,-198.109"/>
</g>
<!-- Node5&#45;&gt;Node12 -->
<g id="edge46" class="edge"><title>Node5&#45;&gt;Node12</title>
<path fill="none" stroke="midnightblue" d="M299.607,-224.467C316.047,-215.834 341.765,-201.822 363,-188 387.355,-172.147 413.921,-151.821 431.206,-138.155"/>
<polygon fill="midnightblue" stroke="midnightblue" points="433.699,-140.644 439.338,-131.674 429.336,-135.169 433.699,-140.644"/>
</g>
<!-- Node10&#45;&gt;Node6 -->
<g id="edge20" class="edge"><title>Node10&#45;&gt;Node6</title>
<path fill="none" stroke="midnightblue" d="M213.889,-112.324C225.15,-104.107 242.287,-91.6017 255.709,-81.8069"/>
<polygon fill="midnightblue" stroke="midnightblue" points="257.88,-84.5559 263.894,-75.8339 253.753,-78.9014 257.88,-84.5559"/>
</g>
<!-- Node11&#45;&gt;Node10 -->
<g id="edge34" class="edge"><title>Node11&#45;&gt;Node10</title>
<path fill="none" stroke="midnightblue" d="M297.936,-168.444C279.425,-159.675 250.419,-145.935 229.145,-135.858"/>
<polygon fill="midnightblue" stroke="midnightblue" points="230.515,-132.634 219.979,-131.516 227.518,-138.96 230.515,-132.634"/>
</g>
<!-- Node11&#45;&gt;Node12 -->
<g id="edge24" class="edge"><title>Node11&#45;&gt;Node12</title>
<path fill="none" stroke="midnightblue" d="M337.233,-168.444C359.384,-159.517 394.319,-145.439 419.436,-135.317"/>
<polygon fill="midnightblue" stroke="midnightblue" points="420.9,-138.501 428.867,-131.516 418.283,-132.008 420.9,-138.501"/>
</g>
<!-- Node13 -->
<g id="node28" class="node"><title>Node13</title>
<a xlink:href="Statistics_8hh.html" target="_top" xlink:title="Statistics.hh">
<polygon fill="white" stroke="black" points="320.5,-112.5 320.5,-131.5 391.5,-131.5 391.5,-112.5 320.5,-112.5"/>
<text text-anchor="middle" x="356" y="-119.5" font-family="Helvetica,sans-Serif" font-size="10.00">Statistics.hh</text>
</a>
</g>
<!-- Node11&#45;&gt;Node13 -->
<g id="edge30" class="edge"><title>Node11&#45;&gt;Node13</title>
<path fill="none" stroke="midnightblue" d="M322.605,-168.083C328.255,-160.455 336.545,-149.264 343.451,-139.941"/>
<polygon fill="midnightblue" stroke="midnightblue" points="346.378,-141.87 349.518,-131.751 340.753,-137.703 346.378,-141.87"/>
</g>
<!-- Node14 -->
<g id="node32" class="node"><title>Node14</title>
<a xlink:href="Song_8hh.html" target="_top" xlink:title="Song.hh">
<polygon fill="white" stroke="black" points="249.5,-112.5 249.5,-131.5 302.5,-131.5 302.5,-112.5 249.5,-112.5"/>
<text text-anchor="middle" x="276" y="-119.5" font-family="Helvetica,sans-Serif" font-size="10.00">Song.hh</text>
</a>
</g>
<!-- Node11&#45;&gt;Node14 -->
<g id="edge36" class="edge"><title>Node11&#45;&gt;Node14</title>
<path fill="none" stroke="midnightblue" d="M309.395,-168.083C303.745,-160.455 295.455,-149.264 288.549,-139.941"/>
<polygon fill="midnightblue" stroke="midnightblue" points="291.247,-137.703 282.482,-131.751 285.622,-141.87 291.247,-137.703"/>
</g>
<!-- Node12&#45;&gt;Node6 -->
<g id="edge26" class="edge"><title>Node12&#45;&gt;Node6</title>
<path fill="none" stroke="midnightblue" d="M422.429,-112.444C392.903,-103.28 345.882,-88.6876 313.117,-78.5192"/>
<polygon fill="midnightblue" stroke="midnightblue" points="314.03,-75.1378 303.442,-75.5164 311.955,-81.8232 314.03,-75.1378"/>
</g>
<!-- Node12&#45;&gt;Node9 -->
<g id="edge28" class="edge"><title>Node12&#45;&gt;Node9</title>
<path fill="none" stroke="midnightblue" d="M455.614,-112.083C460.367,-104.534 467.318,-93.4948 473.152,-84.2298"/>
<polygon fill="midnightblue" stroke="midnightblue" points="476.124,-86.0783 478.49,-75.7511 470.2,-82.3486 476.124,-86.0783"/>
</g>
<!-- Node13&#45;&gt;Node6 -->
<g id="edge32" class="edge"><title>Node13&#45;&gt;Node6</title>
<path fill="none" stroke="midnightblue" d="M343.147,-112.324C330.784,-103.979 311.87,-91.2122 297.263,-81.3524"/>
<polygon fill="midnightblue" stroke="midnightblue" points="299.068,-78.3483 288.821,-75.6545 295.152,-84.1503 299.068,-78.3483"/>
</g>
<!-- Node14&#45;&gt;Node6 -->
<g id="edge38" class="edge"><title>Node14&#45;&gt;Node6</title>
<path fill="none" stroke="midnightblue" d="M276,-112.083C276,-105.006 276,-94.8611 276,-85.9865"/>
<polygon fill="midnightblue" stroke="midnightblue" points="279.5,-85.751 276,-75.7511 272.5,-85.7511 279.5,-85.751"/>
</g>
<!-- Node14&#45;&gt;Node9 -->
<g id="edge44" class="edge"><title>Node14&#45;&gt;Node9</title>
<path fill="none" stroke="midnightblue" d="M302.767,-114.051C339.156,-104.604 404.447,-87.6532 445.928,-76.8841"/>
<polygon fill="midnightblue" stroke="midnightblue" points="446.874,-80.2547 455.673,-74.3541 445.115,-73.4793 446.874,-80.2547"/>
</g>
<!-- Node15 -->
<g id="node35" class="node"><title>Node15</title>
<a xlink:href="AbstractComposite_8hh.html" target="_top" xlink:title="AbstractComposite.hh">
<polygon fill="white" stroke="black" points="0,-56.5 0,-75.5 114,-75.5 114,-56.5 0,-56.5"/>
<text text-anchor="middle" x="57" y="-63.5" font-family="Helvetica,sans-Serif" font-size="10.00">AbstractComposite.hh</text>
</a>
</g>
<!-- Node14&#45;&gt;Node15 -->
<g id="edge40" class="edge"><title>Node14&#45;&gt;Node15</title>
<path fill="none" stroke="midnightblue" d="M249.267,-114.304C246.143,-113.526 243.001,-112.744 240,-112 192.832,-100.305 138.792,-87.0317 101.734,-77.9491"/>
<polygon fill="midnightblue" stroke="midnightblue" points="102.297,-74.4837 91.7517,-75.5032 100.631,-81.2826 102.297,-74.4837"/>
</g>
<!-- Node16 -->
<g id="node37" class="node"><title>Node16</title>
<polygon fill="white" stroke="#bfbfbf" points="35,-0.5 35,-19.5 79,-19.5 79,-0.5 35,-0.5"/>
<text text-anchor="middle" x="57" y="-7.5" font-family="Helvetica,sans-Serif" font-size="10.00">vector</text>
</g>
<!-- Node15&#45;&gt;Node16 -->
<g id="edge42" class="edge"><title>Node15&#45;&gt;Node16</title>
<path fill="none" stroke="midnightblue" d="M57,-56.083C57,-49.0059 57,-38.8611 57,-29.9865"/>
<polygon fill="midnightblue" stroke="midnightblue" points="60.5001,-29.751 57,-19.7511 53.5001,-29.7511 60.5001,-29.751"/>
</g>
<!-- Node18 -->
<g id="node44" class="node"><title>Node18</title>
<a xlink:href="AbstractItemlist_8hh.html" target="_top" xlink:title="AbstractItemlist.hh">
<polygon fill="white" stroke="black" points="20.5,-224.5 20.5,-243.5 119.5,-243.5 119.5,-224.5 20.5,-224.5"/>
<text text-anchor="middle" x="70" y="-231.5" font-family="Helvetica,sans-Serif" font-size="10.00">AbstractItemlist.hh</text>
</a>
</g>
<!-- Node17&#45;&gt;Node18 -->
<g id="edge52" class="edge"><title>Node17&#45;&gt;Node18</title>
<path fill="none" stroke="midnightblue" d="M165.095,-280.444C146.746,-271.675 117.995,-257.935 96.9064,-247.858"/>
<polygon fill="midnightblue" stroke="midnightblue" points="98.3532,-244.67 87.8214,-243.516 95.335,-250.986 98.3532,-244.67"/>
</g>
<!-- Node18&#45;&gt;Node15 -->
<g id="edge54" class="edge"><title>Node18&#45;&gt;Node15</title>
<path fill="none" stroke="midnightblue" d="M49.7774,-224.495C35.2289,-217.168 16.6991,-205.063 8,-188 -10.4281,-151.854 20.8772,-107.092 41.372,-83.4396"/>
<polygon fill="midnightblue" stroke="midnightblue" points="44.2223,-85.5053 48.3215,-75.7356 39.0245,-80.8166 44.2223,-85.5053"/>
</g>
<!-- Node21&#45;&gt;Node9 -->
<g id="edge62" class="edge"><title>Node21&#45;&gt;Node9</title>
<path fill="none" stroke="midnightblue" d="M515.535,-336.413C528.449,-318.56 556,-275.704 556,-235 556,-235 556,-235 556,-177 556,-137.939 523.823,-101.944 502.491,-82.3723"/>
<polygon fill="midnightblue" stroke="midnightblue" points="504.749,-79.6969 494.935,-75.7031 500.116,-84.9449 504.749,-79.6969"/>
</g>
<!-- Node22 -->
<g id="node54" class="node"><title>Node22</title>
<polygon fill="white" stroke="#bfbfbf" points="482,-280.5 482,-299.5 528,-299.5 528,-280.5 482,-280.5"/>
<text text-anchor="middle" x="505" y="-287.5" font-family="Helvetica,sans-Serif" font-size="10.00">stdio.h</text>
</g>
<!-- Node21&#45;&gt;Node22 -->
<g id="edge64" class="edge"><title>Node21&#45;&gt;Node22</title>
<path fill="none" stroke="midnightblue" d="M508.339,-336.083C507.815,-329.006 507.064,-318.861 506.406,-309.986"/>
<polygon fill="midnightblue" stroke="midnightblue" points="509.877,-309.465 505.648,-299.751 502.897,-309.982 509.877,-309.465"/>
</g>
<!-- Node23 -->
<g id="node56" class="node"><title>Node23</title>
<a xlink:href="Singleton_8hh.html" target="_top" xlink:title="../Utils/Singleton.hh">
<polygon fill="white" stroke="black" points="584.5,-280.5 584.5,-299.5 687.5,-299.5 687.5,-280.5 584.5,-280.5"/>
<text text-anchor="middle" x="636" y="-287.5" font-family="Helvetica,sans-Serif" font-size="10.00">../Utils/Singleton.hh</text>
</a>
</g>
<!-- Node21&#45;&gt;Node23 -->
<g id="edge66" class="edge"><title>Node21&#45;&gt;Node23</title>
<path fill="none" stroke="midnightblue" d="M529.124,-336.444C550.024,-327.557 582.935,-313.563 606.716,-303.451"/>
<polygon fill="midnightblue" stroke="midnightblue" points="608.138,-306.65 615.971,-299.516 605.398,-300.208 608.138,-306.65"/>
</g>
</g>
</svg>
