<?xml version="1.0" encoding="UTF-8" standalone="no"?>
<!DOCTYPE svg PUBLIC "-//W3C//DTD SVG 1.1//EN"
 "http://www.w3.org/Graphics/SVG/1.1/DTD/svg11.dtd">
<!-- Generated by graphviz version 2.28.0 (20120217.0315)
 -->
<!-- Title: G Pages: 1 -->
<svg width="706pt" height="420pt"
 viewBox="0.00 0.00 706.00 420.00" xmlns="http://www.w3.org/2000/svg" xmlns:xlink="http://www.w3.org/1999/xlink">
<g id="graph1" class="graph" transform="scale(1 1) rotate(0) translate(4 416)">
<title>G</title>
<polygon fill="white" stroke="white" points="-4,5 -4,-416 703,-416 703,5 -4,5"/>
<!-- Node1 -->
<g id="node1" class="node"><title>Node1</title>
<polygon fill="#bfbfbf" stroke="black" points="353,-392.5 353,-411.5 475,-411.5 475,-392.5 353,-392.5"/>
<text text-anchor="middle" x="414" y="-399.5" font-family="Helvetica,sans-Serif" font-size="10.00">src/MPD/check_mpd.hh</text>
</g>
<!-- Node2 -->
<g id="node3" class="node"><title>Node2</title>
<polygon fill="white" stroke="#bfbfbf" points="200,-336.5 200,-355.5 302,-355.5 302,-336.5 200,-336.5"/>
<text text-anchor="middle" x="251" y="-343.5" font-family="Helvetica,sans-Serif" font-size="10.00">cxxtest/TestSuite.h</text>
</g>
<!-- Node1&#45;&gt;Node2 -->
<g id="edge2" class="edge"><title>Node1&#45;&gt;Node2</title>
<path fill="none" stroke="midnightblue" d="M388.172,-392.444C360.751,-383.359 317.223,-368.939 286.568,-358.783"/>
<polygon fill="midnightblue" stroke="midnightblue" points="287.3,-355.339 276.707,-355.516 285.099,-361.984 287.3,-355.339"/>
</g>
<!-- Node3 -->
<g id="node5" class="node"><title>Node3</title>
<a xlink:href="Client_8hh.html" target="_top" xlink:title="Client.hh">
<polygon fill="white" stroke="black" points="320,-336.5 320,-355.5 376,-355.5 376,-336.5 320,-336.5"/>
<text text-anchor="middle" x="348" y="-343.5" font-family="Helvetica,sans-Serif" font-size="10.00">Client.hh</text>
</a>
</g>
<!-- Node1&#45;&gt;Node3 -->
<g id="edge4" class="edge"><title>Node1&#45;&gt;Node3</title>
<path fill="none" stroke="midnightblue" d="M403.396,-392.324C393.544,-384.263 378.649,-372.077 366.785,-362.369"/>
<polygon fill="midnightblue" stroke="midnightblue" points="368.753,-359.457 358.797,-355.834 364.32,-364.875 368.753,-359.457"/>
</g>
<!-- Node21 -->
<g id="node53" class="node"><title>Node21</title>
<polygon fill="white" stroke="#bfbfbf" points="394,-336.5 394,-355.5 434,-355.5 434,-336.5 394,-336.5"/>
<text text-anchor="middle" x="414" y="-343.5" font-family="Helvetica,sans-Serif" font-size="10.00">glib.h</text>
</g>
<!-- Node1&#45;&gt;Node21 -->
<g id="edge64" class="edge"><title>Node1&#45;&gt;Node21</title>
<path fill="none" stroke="midnightblue" d="M414,-392.083C414,-385.006 414,-374.861 414,-365.986"/>
<polygon fill="midnightblue" stroke="midnightblue" points="417.5,-365.751 414,-355.751 410.5,-365.751 417.5,-365.751"/>
</g>
<!-- Node22 -->
<g id="node55" class="node"><title>Node22</title>
<polygon fill="white" stroke="#bfbfbf" points="452.5,-336.5 452.5,-355.5 521.5,-355.5 521.5,-336.5 452.5,-336.5"/>
<text text-anchor="middle" x="487" y="-343.5" font-family="Helvetica,sans-Serif" font-size="10.00">glib/gstdio.h</text>
</g>
<!-- Node1&#45;&gt;Node22 -->
<g id="edge66" class="edge"><title>Node1&#45;&gt;Node22</title>
<path fill="none" stroke="midnightblue" d="M425.729,-392.324C436.837,-384.107 453.742,-371.602 466.983,-361.807"/>
<polygon fill="midnightblue" stroke="midnightblue" points="469.1,-364.595 475.058,-355.834 464.937,-358.967 469.1,-364.595"/>
</g>
<!-- Node23 -->
<g id="node57" class="node"><title>Node23</title>
<a xlink:href="Writer_8hh.html" target="_top" xlink:title="../Log/Writer.hh">
<polygon fill="white" stroke="black" points="540,-336.5 540,-355.5 624,-355.5 624,-336.5 540,-336.5"/>
<text text-anchor="middle" x="582" y="-343.5" font-family="Helvetica,sans-Serif" font-size="10.00">../Log/Writer.hh</text>
</a>
</g>
<!-- Node1&#45;&gt;Node23 -->
<g id="edge68" class="edge"><title>Node1&#45;&gt;Node23</title>
<path fill="none" stroke="midnightblue" d="M440.62,-392.444C469.006,-383.32 514.137,-368.813 545.753,-358.651"/>
<polygon fill="midnightblue" stroke="midnightblue" points="547.055,-361.909 555.504,-355.516 544.913,-355.244 547.055,-361.909"/>
</g>
<!-- Node4 -->
<g id="node7" class="node"><title>Node4</title>
<a xlink:href="BaseClient_8hh.html" target="_top" xlink:title="BaseClient.hh">
<polygon fill="white" stroke="black" points="318,-280.5 318,-299.5 396,-299.5 396,-280.5 318,-280.5"/>
<text text-anchor="middle" x="357" y="-287.5" font-family="Helvetica,sans-Serif" font-size="10.00">BaseClient.hh</text>
</a>
</g>
<!-- Node3&#45;&gt;Node4 -->
<g id="edge6" class="edge"><title>Node3&#45;&gt;Node4</title>
<path fill="none" stroke="midnightblue" d="M349.486,-336.083C350.679,-328.927 352.394,-318.635 353.885,-309.691"/>
<polygon fill="midnightblue" stroke="midnightblue" points="357.35,-310.19 355.541,-299.751 350.445,-309.04 357.35,-310.19"/>
</g>
<!-- Node19 -->
<g id="node48" class="node"><title>Node19</title>
<a xlink:href="AbstractItemGenerator_8hh.html" target="_top" xlink:title="AbstractItemGenerator.hh">
<polygon fill="white" stroke="black" points="39.5,-280.5 39.5,-299.5 168.5,-299.5 168.5,-280.5 39.5,-280.5"/>
<text text-anchor="middle" x="104" y="-287.5" font-family="Helvetica,sans-Serif" font-size="10.00">AbstractItemGenerator.hh</text>
</a>
</g>
<!-- Node3&#45;&gt;Node19 -->
<g id="edge58" class="edge"><title>Node3&#45;&gt;Node19</title>
<path fill="none" stroke="midnightblue" d="M319.791,-338.261C316.492,-337.49 313.173,-336.722 310,-336 256.745,-323.878 195.594,-310.601 153.84,-301.632"/>
<polygon fill="midnightblue" stroke="midnightblue" points="154.434,-298.18 143.922,-299.505 152.966,-305.024 154.434,-298.18"/>
</g>
<!-- Node5 -->
<g id="node9" class="node"><title>Node5</title>
<a xlink:href="Listener_8hh.html" target="_top" xlink:title="Listener.hh">
<polygon fill="white" stroke="black" points="206.5,-224.5 206.5,-243.5 271.5,-243.5 271.5,-224.5 206.5,-224.5"/>
<text text-anchor="middle" x="239" y="-231.5" font-family="Helvetica,sans-Serif" font-size="10.00">Listener.hh</text>
</a>
</g>
<!-- Node4&#45;&gt;Node5 -->
<g id="edge8" class="edge"><title>Node4&#45;&gt;Node5</title>
<path fill="none" stroke="midnightblue" d="M338.303,-280.444C319.056,-271.636 288.848,-257.812 266.8,-247.722"/>
<polygon fill="midnightblue" stroke="midnightblue" points="268.16,-244.495 257.61,-243.516 265.247,-250.86 268.16,-244.495"/>
</g>
<!-- Node12 -->
<g id="node24" class="node"><title>Node12</title>
<a xlink:href="Connection_8hh.html" target="_top" xlink:title="Connection.hh">
<polygon fill="white" stroke="black" points="375,-112.5 375,-131.5 455,-131.5 455,-112.5 375,-112.5"/>
<text text-anchor="middle" x="415" y="-119.5" font-family="Helvetica,sans-Serif" font-size="10.00">Connection.hh</text>
</a>
</g>
<!-- Node4&#45;&gt;Node12 -->
<g id="edge48" class="edge"><title>Node4&#45;&gt;Node12</title>
<path fill="none" stroke="midnightblue" d="M360.118,-280.075C369.288,-253.832 396.291,-176.545 408.67,-141.117"/>
<polygon fill="midnightblue" stroke="midnightblue" points="412.012,-142.163 412.006,-131.568 405.404,-139.854 412.012,-142.163"/>
</g>
<!-- Node17 -->
<g id="node42" class="node"><title>Node17</title>
<a xlink:href="Query_8hh.html" target="_top" xlink:title="Query.hh">
<polygon fill="white" stroke="black" points="473,-112.5 473,-131.5 529,-131.5 529,-112.5 473,-112.5"/>
<text text-anchor="middle" x="501" y="-119.5" font-family="Helvetica,sans-Serif" font-size="10.00">Query.hh</text>
</a>
</g>
<!-- Node4&#45;&gt;Node17 -->
<g id="edge50" class="edge"><title>Node4&#45;&gt;Node17</title>
<path fill="none" stroke="midnightblue" d="M364.742,-280.075C387.9,-253.38 456.876,-173.865 486.841,-139.322"/>
<polygon fill="midnightblue" stroke="midnightblue" points="489.658,-141.416 493.567,-131.568 484.371,-136.829 489.658,-141.416"/>
</g>
<!-- Node6 -->
<g id="node11" class="node"><title>Node6</title>
<polygon fill="white" stroke="#bfbfbf" points="231,-56.5 231,-75.5 301,-75.5 301,-56.5 231,-56.5"/>
<text text-anchor="middle" x="266" y="-63.5" font-family="Helvetica,sans-Serif" font-size="10.00">mpd/client.h</text>
</g>
<!-- Node5&#45;&gt;Node6 -->
<g id="edge10" class="edge"><title>Node5&#45;&gt;Node6</title>
<path fill="none" stroke="midnightblue" d="M206.457,-230.207C156.773,-225.193 65.6776,-212.793 46,-188 40.4741,-181.037 43.0945,-176.401 46,-168 56.3461,-138.086 63.4819,-129.282 90,-112 101.008,-104.826 172.265,-87.9231 220.666,-76.9977"/>
<polygon fill="midnightblue" stroke="midnightblue" points="221.628,-80.369 230.618,-74.7627 220.094,-73.5391 221.628,-80.369"/>
</g>
<!-- Node7 -->
<g id="node13" class="node"><title>Node7</title>
<polygon fill="white" stroke="#bfbfbf" points="63.5,-168.5 63.5,-187.5 136.5,-187.5 136.5,-168.5 63.5,-168.5"/>
<text text-anchor="middle" x="100" y="-175.5" font-family="Helvetica,sans-Serif" font-size="10.00">mpd/async.h</text>
</g>
<!-- Node5&#45;&gt;Node7 -->
<g id="edge12" class="edge"><title>Node5&#45;&gt;Node7</title>
<path fill="none" stroke="midnightblue" d="M216.975,-224.444C193.896,-215.478 157.438,-201.314 131.359,-191.183"/>
<polygon fill="midnightblue" stroke="midnightblue" points="132.511,-187.875 121.922,-187.516 129.976,-194.4 132.511,-187.875"/>
</g>
<!-- Node8 -->
<g id="node15" class="node"><title>Node8</title>
<polygon fill="white" stroke="#bfbfbf" points="155,-168.5 155,-187.5 229,-187.5 229,-168.5 155,-168.5"/>
<text text-anchor="middle" x="192" y="-175.5" font-family="Helvetica,sans-Serif" font-size="10.00">mpd/parser.h</text>
</g>
<!-- Node5&#45;&gt;Node8 -->
<g id="edge14" class="edge"><title>Node5&#45;&gt;Node8</title>
<path fill="none" stroke="midnightblue" d="M231.239,-224.083C224.463,-216.298 214.457,-204.801 206.245,-195.367"/>
<polygon fill="midnightblue" stroke="midnightblue" points="208.822,-192.996 199.617,-187.751 203.542,-197.592 208.822,-192.996"/>
</g>
<!-- Node9 -->
<g id="node17" class="node"><title>Node9</title>
<polygon fill="white" stroke="#bfbfbf" points="319,-56.5 319,-75.5 375,-75.5 375,-56.5 319,-56.5"/>
<text text-anchor="middle" x="347" y="-63.5" font-family="Helvetica,sans-Serif" font-size="10.00">glibmm.h</text>
</g>
<!-- Node5&#45;&gt;Node9 -->
<g id="edge16" class="edge"><title>Node5&#45;&gt;Node9</title>
<path fill="none" stroke="midnightblue" d="M271.718,-225.949C292.694,-219.647 318.603,-208.178 333,-188 354.729,-157.547 353.112,-111.401 350.039,-85.7927"/>
<polygon fill="midnightblue" stroke="midnightblue" points="353.464,-85.0162 348.603,-75.6024 346.533,-85.9929 353.464,-85.0162"/>
</g>
<!-- Node10 -->
<g id="node19" class="node"><title>Node10</title>
<a xlink:href="Status_8hh.html" target="_top" xlink:title="Status.hh">
<polygon fill="white" stroke="black" points="99.5,-112.5 99.5,-131.5 158.5,-131.5 158.5,-112.5 99.5,-112.5"/>
<text text-anchor="middle" x="129" y="-119.5" font-family="Helvetica,sans-Serif" font-size="10.00">Status.hh</text>
</a>
</g>
<!-- Node5&#45;&gt;Node10 -->
<g id="edge18" class="edge"><title>Node5&#45;&gt;Node10</title>
<path fill="none" stroke="midnightblue" d="M206.222,-229.822C158.25,-224.417 72.5868,-211.65 54,-188 37.5233,-167.035 68.3744,-147.664 95.3543,-135.621"/>
<polygon fill="midnightblue" stroke="midnightblue" points="96.8133,-138.804 104.652,-131.677 94.0793,-132.36 96.8133,-138.804"/>
</g>
<!-- Node11 -->
<g id="node22" class="node"><title>Node11</title>
<a xlink:href="NotifyData_8hh.html" target="_top" xlink:title="NotifyData.hh">
<polygon fill="white" stroke="black" points="247.5,-168.5 247.5,-187.5 324.5,-187.5 324.5,-168.5 247.5,-168.5"/>
<text text-anchor="middle" x="286" y="-175.5" font-family="Helvetica,sans-Serif" font-size="10.00">NotifyData.hh</text>
</a>
</g>
<!-- Node5&#45;&gt;Node11 -->
<g id="edge22" class="edge"><title>Node5&#45;&gt;Node11</title>
<path fill="none" stroke="midnightblue" d="M246.761,-224.083C253.537,-216.298 263.543,-204.801 271.755,-195.367"/>
<polygon fill="midnightblue" stroke="midnightblue" points="274.458,-197.592 278.383,-187.751 269.178,-192.996 274.458,-197.592"/>
</g>
<!-- Node5&#45;&gt;Node12 -->
<g id="edge46" class="edge"><title>Node5&#45;&gt;Node12</title>
<path fill="none" stroke="midnightblue" d="M271.772,-227.106C299.262,-220.918 338.489,-209.069 367,-188 383.867,-175.536 397.403,-155.462 405.747,-140.917"/>
<polygon fill="midnightblue" stroke="midnightblue" points="408.954,-142.347 410.671,-131.892 402.809,-138.994 408.954,-142.347"/>
</g>
<!-- Node10&#45;&gt;Node6 -->
<g id="edge20" class="edge"><title>Node10&#45;&gt;Node6</title>
<path fill="none" stroke="midnightblue" d="M150.708,-112.444C173.355,-103.517 209.072,-89.4387 234.752,-79.3168"/>
<polygon fill="midnightblue" stroke="midnightblue" points="236.374,-82.4397 244.394,-75.5164 233.807,-75.9273 236.374,-82.4397"/>
</g>
<!-- Node11&#45;&gt;Node10 -->
<g id="edge34" class="edge"><title>Node11&#45;&gt;Node10</title>
<path fill="none" stroke="midnightblue" d="M261.123,-168.444C234.711,-159.359 192.785,-144.939 163.258,-134.783"/>
<polygon fill="midnightblue" stroke="midnightblue" points="164.355,-131.459 153.761,-131.516 162.079,-138.079 164.355,-131.459"/>
</g>
<!-- Node11&#45;&gt;Node12 -->
<g id="edge24" class="edge"><title>Node11&#45;&gt;Node12</title>
<path fill="none" stroke="midnightblue" d="M306.44,-168.444C327.67,-159.557 361.099,-145.563 385.255,-135.451"/>
<polygon fill="midnightblue" stroke="midnightblue" points="386.782,-138.606 394.655,-131.516 384.079,-132.149 386.782,-138.606"/>
</g>
<!-- Node13 -->
<g id="node28" class="node"><title>Node13</title>
<a xlink:href="Statistics_8hh.html" target="_top" xlink:title="Statistics.hh">
<polygon fill="white" stroke="black" points="176.5,-112.5 176.5,-131.5 247.5,-131.5 247.5,-112.5 176.5,-112.5"/>
<text text-anchor="middle" x="212" y="-119.5" font-family="Helvetica,sans-Serif" font-size="10.00">Statistics.hh</text>
</a>
</g>
<!-- Node11&#45;&gt;Node13 -->
<g id="edge30" class="edge"><title>Node11&#45;&gt;Node13</title>
<path fill="none" stroke="midnightblue" d="M274.111,-168.324C262.85,-160.107 245.713,-147.602 232.291,-137.807"/>
<polygon fill="midnightblue" stroke="midnightblue" points="234.247,-134.901 224.106,-131.834 230.12,-140.556 234.247,-134.901"/>
</g>
<!-- Node14 -->
<g id="node32" class="node"><title>Node14</title>
<a xlink:href="Song_8hh.html" target="_top" xlink:title="Song.hh">
<polygon fill="white" stroke="black" points="265.5,-112.5 265.5,-131.5 318.5,-131.5 318.5,-112.5 265.5,-112.5"/>
<text text-anchor="middle" x="292" y="-119.5" font-family="Helvetica,sans-Serif" font-size="10.00">Song.hh</text>
</a>
</g>
<!-- Node11&#45;&gt;Node14 -->
<g id="edge36" class="edge"><title>Node11&#45;&gt;Node14</title>
<path fill="none" stroke="midnightblue" d="M286.991,-168.083C287.786,-160.927 288.929,-150.635 289.923,-141.691"/>
<polygon fill="midnightblue" stroke="midnightblue" points="293.402,-142.076 291.028,-131.751 286.445,-141.303 293.402,-142.076"/>
</g>
<!-- Node12&#45;&gt;Node6 -->
<g id="edge26" class="edge"><title>Node12&#45;&gt;Node6</title>
<path fill="none" stroke="midnightblue" d="M391.391,-112.444C366.542,-103.438 327.226,-89.1891 299.246,-79.049"/>
<polygon fill="midnightblue" stroke="midnightblue" points="300.093,-75.6332 289.499,-75.5164 297.708,-82.2144 300.093,-75.6332"/>
</g>
<!-- Node12&#45;&gt;Node9 -->
<g id="edge28" class="edge"><title>Node12&#45;&gt;Node9</title>
<path fill="none" stroke="midnightblue" d="M404.075,-112.324C393.825,-104.185 378.279,-91.8395 365.999,-82.0874"/>
<polygon fill="midnightblue" stroke="midnightblue" points="368.132,-79.3119 358.124,-75.8339 363.779,-84.7937 368.132,-79.3119"/>
</g>
<!-- Node13&#45;&gt;Node6 -->
<g id="edge32" class="edge"><title>Node13&#45;&gt;Node6</title>
<path fill="none" stroke="midnightblue" d="M220.917,-112.083C228.78,-104.22 240.431,-92.5688 249.919,-83.0813"/>
<polygon fill="midnightblue" stroke="midnightblue" points="252.653,-85.2971 257.249,-75.7511 247.703,-80.3473 252.653,-85.2971"/>
</g>
<!-- Node14&#45;&gt;Node6 -->
<g id="edge38" class="edge"><title>Node14&#45;&gt;Node6</title>
<path fill="none" stroke="midnightblue" d="M287.707,-112.083C284.148,-104.691 278.978,-93.9533 274.576,-84.8111"/>
<polygon fill="midnightblue" stroke="midnightblue" points="277.705,-83.2427 270.213,-75.7511 271.398,-86.2795 277.705,-83.2427"/>
</g>
<!-- Node14&#45;&gt;Node9 -->
<g id="edge44" class="edge"><title>Node14&#45;&gt;Node9</title>
<path fill="none" stroke="midnightblue" d="M301.082,-112.083C309.171,-104.141 321.195,-92.3354 330.91,-82.7973"/>
<polygon fill="midnightblue" stroke="midnightblue" points="333.403,-85.2545 338.087,-75.7511 328.499,-80.2595 333.403,-85.2545"/>
</g>
<!-- Node15 -->
<g id="node35" class="node"><title>Node15</title>
<a xlink:href="AbstractComposite_8hh.html" target="_top" xlink:title="AbstractComposite.hh">
<polygon fill="white" stroke="black" points="99,-56.5 99,-75.5 213,-75.5 213,-56.5 99,-56.5"/>
<text text-anchor="middle" x="156" y="-63.5" font-family="Helvetica,sans-Serif" font-size="10.00">AbstractComposite.hh</text>
</a>
</g>
<!-- Node14&#45;&gt;Node15 -->
<g id="edge40" class="edge"><title>Node14&#45;&gt;Node15</title>
<path fill="none" stroke="midnightblue" d="M270.45,-112.444C247.969,-103.517 212.512,-89.4387 187.02,-79.3168"/>
<polygon fill="midnightblue" stroke="midnightblue" points="188.035,-75.9539 177.449,-75.5164 185.451,-82.4598 188.035,-75.9539"/>
</g>
<!-- Node16 -->
<g id="node37" class="node"><title>Node16</title>
<polygon fill="white" stroke="#bfbfbf" points="334,-0.5 334,-19.5 378,-19.5 378,-0.5 334,-0.5"/>
<text text-anchor="middle" x="356" y="-7.5" font-family="Helvetica,sans-Serif" font-size="10.00">vector</text>
</g>
<!-- Node15&#45;&gt;Node16 -->
<g id="edge42" class="edge"><title>Node15&#45;&gt;Node16</title>
<path fill="none" stroke="midnightblue" d="M187.691,-56.4435C224.942,-46.3856 286.419,-29.7869 323.863,-19.677"/>
<polygon fill="midnightblue" stroke="midnightblue" points="325.005,-22.9942 333.747,-17.0084 323.18,-16.2361 325.005,-22.9942"/>
</g>
<!-- Node17&#45;&gt;Node6 -->
<g id="edge52" class="edge"><title>Node17&#45;&gt;Node6</title>
<path fill="none" stroke="midnightblue" d="M472.729,-114.077C469.783,-113.369 466.832,-112.666 464,-112 411.599,-99.6729 351.26,-86.0402 311.099,-77.0457"/>
<polygon fill="midnightblue" stroke="midnightblue" points="311.611,-73.5739 301.088,-74.8062 310.083,-80.405 311.611,-73.5739"/>
</g>
<!-- Node17&#45;&gt;Node16 -->
<g id="edge54" class="edge"><title>Node17&#45;&gt;Node16</title>
<path fill="none" stroke="midnightblue" d="M512.397,-112.297C527.993,-99.3365 552.488,-74.5062 538,-56 519.72,-32.6494 435.253,-19.7412 388.084,-14.2403"/>
<polygon fill="midnightblue" stroke="midnightblue" points="388.394,-10.7532 378.066,-13.118 387.614,-17.7097 388.394,-10.7532"/>
</g>
<!-- Node18 -->
<g id="node46" class="node"><title>Node18</title>
<a xlink:href="AbstractClientExtension_8hh.html" target="_top" xlink:title="AbstractClientExtension.hh">
<polygon fill="white" stroke="black" points="393,-56.5 393,-75.5 529,-75.5 529,-56.5 393,-56.5"/>
<text text-anchor="middle" x="461" y="-63.5" font-family="Helvetica,sans-Serif" font-size="10.00">AbstractClientExtension.hh</text>
</a>
</g>
<!-- Node17&#45;&gt;Node18 -->
<g id="edge56" class="edge"><title>Node17&#45;&gt;Node18</title>
<path fill="none" stroke="midnightblue" d="M494.395,-112.083C488.745,-104.455 480.455,-93.2645 473.549,-83.9408"/>
<polygon fill="midnightblue" stroke="midnightblue" points="476.247,-81.7034 467.482,-75.7511 470.622,-85.87 476.247,-81.7034"/>
</g>
<!-- Node20 -->
<g id="node50" class="node"><title>Node20</title>
<a xlink:href="AbstractItemlist_8hh.html" target="_top" xlink:title="AbstractItemlist.hh">
<polygon fill="white" stroke="black" points="-0.5,-224.5 -0.5,-243.5 98.5,-243.5 98.5,-224.5 -0.5,-224.5"/>
<text text-anchor="middle" x="49" y="-231.5" font-family="Helvetica,sans-Serif" font-size="10.00">AbstractItemlist.hh</text>
</a>
</g>
<!-- Node19&#45;&gt;Node20 -->
<g id="edge60" class="edge"><title>Node19&#45;&gt;Node20</title>
<path fill="none" stroke="midnightblue" d="M94.9179,-280.083C86.8287,-272.141 74.8046,-260.335 65.0898,-250.797"/>
<polygon fill="midnightblue" stroke="midnightblue" points="67.5009,-248.26 57.9131,-243.751 62.5967,-253.254 67.5009,-248.26"/>
</g>
<!-- Node20&#45;&gt;Node15 -->
<g id="edge62" class="edge"><title>Node20&#45;&gt;Node15</title>
<path fill="none" stroke="midnightblue" d="M46.5176,-224.467C44.0434,-215.485 40.4147,-200.888 39,-188 35.163,-153.045 36.9951,-137.696 61,-112 75.2563,-96.7391 95.7497,-86.13 114.056,-79.0632"/>
<polygon fill="midnightblue" stroke="midnightblue" points="115.45,-82.2809 123.665,-75.5899 113.07,-75.6978 115.45,-82.2809"/>
</g>
<!-- Node24 -->
<g id="node59" class="node"><title>Node24</title>
<polygon fill="white" stroke="#bfbfbf" points="652,-280.5 652,-299.5 698,-299.5 698,-280.5 652,-280.5"/>
<text text-anchor="middle" x="675" y="-287.5" font-family="Helvetica,sans-Serif" font-size="10.00">stdio.h</text>
</g>
<!-- Node23&#45;&gt;Node24 -->
<g id="edge70" class="edge"><title>Node23&#45;&gt;Node24</title>
<path fill="none" stroke="midnightblue" d="M596.942,-336.324C611.585,-327.822 634.134,-314.729 651.238,-304.797"/>
<polygon fill="midnightblue" stroke="midnightblue" points="653.205,-307.703 660.095,-299.655 649.69,-301.649 653.205,-307.703"/>
</g>
<!-- Node25 -->
<g id="node61" class="node"><title>Node25</title>
<polygon fill="white" stroke="#bfbfbf" points="423.5,-280.5 423.5,-299.5 512.5,-299.5 512.5,-280.5 423.5,-280.5"/>
<text text-anchor="middle" x="468" y="-287.5" font-family="Helvetica,sans-Serif" font-size="10.00">glibmm/ustring.h</text>
</g>
<!-- Node23&#45;&gt;Node25 -->
<g id="edge72" class="edge"><title>Node23&#45;&gt;Node25</title>
<path fill="none" stroke="midnightblue" d="M563.936,-336.444C545.425,-327.675 516.419,-313.935 495.145,-303.858"/>
<polygon fill="midnightblue" stroke="midnightblue" points="496.515,-300.634 485.979,-299.516 493.518,-306.96 496.515,-300.634"/>
</g>
<!-- Node26 -->
<g id="node63" class="node"><title>Node26</title>
<a xlink:href="Singleton_8hh.html" target="_top" xlink:title="../Utils/Singleton.hh">
<polygon fill="white" stroke="black" points="530.5,-280.5 530.5,-299.5 633.5,-299.5 633.5,-280.5 530.5,-280.5"/>
<text text-anchor="middle" x="582" y="-287.5" font-family="Helvetica,sans-Serif" font-size="10.00">../Utils/Singleton.hh</text>
</a>
</g>
<!-- Node23&#45;&gt;Node26 -->
<g id="edge74" class="edge"><title>Node23&#45;&gt;Node26</title>
<path fill="none" stroke="midnightblue" d="M582,-336.083C582,-329.006 582,-318.861 582,-309.986"/>
<polygon fill="midnightblue" stroke="midnightblue" points="585.5,-309.751 582,-299.751 578.5,-309.751 585.5,-309.751"/>
</g>
</g>
</svg>
