<?xml version="1.0" encoding="UTF-8" standalone="no"?>
<!DOCTYPE svg PUBLIC "-//W3C//DTD SVG 1.1//EN"
 "http://www.w3.org/Graphics/SVG/1.1/DTD/svg11.dtd">
<!-- Generated by graphviz version 2.28.0 (20120217.0315)
 -->
<!-- Title: G Pages: 1 -->
<svg width="487pt" height="140pt"
 viewBox="0.00 0.00 487.00 140.00" xmlns="http://www.w3.org/2000/svg" xmlns:xlink="http://www.w3.org/1999/xlink">
<g id="graph1" class="graph" transform="scale(1 1) rotate(0) translate(4 136)">
<title>G</title>
<polygon fill="white" stroke="white" points="-4,5 -4,-136 484,-136 484,5 -4,5"/>
<!-- Node1 -->
<g id="node1" class="node"><title>Node1</title>
<polygon fill="#bfbfbf" stroke="black" points="216,-112.5 216,-131.5 326,-131.5 326,-112.5 216,-112.5"/>
<text text-anchor="middle" x="271" y="-119.5" font-family="Helvetica,sans-Serif" font-size="10.00">src/Log/check_log.hh</text>
</g>
<!-- Node2 -->
<g id="node3" class="node"><title>Node2</title>
<polygon fill="white" stroke="#bfbfbf" points="0,-56.5 0,-75.5 102,-75.5 102,-56.5 0,-56.5"/>
<text text-anchor="middle" x="51" y="-63.5" font-family="Helvetica,sans-Serif" font-size="10.00">cxxtest/TestSuite.h</text>
</g>
<!-- Node1&#45;&gt;Node2 -->
<g id="edge2" class="edge"><title>Node1&#45;&gt;Node2</title>
<path fill="none" stroke="midnightblue" d="M236.14,-112.444C198.084,-103.102 137.042,-88.1194 95.5401,-77.9326"/>
<polygon fill="midnightblue" stroke="midnightblue" points="96.2426,-74.5012 85.6966,-75.5164 94.5739,-81.2994 96.2426,-74.5012"/>
</g>
<!-- Node3 -->
<g id="node5" class="node"><title>Node3</title>
<a xlink:href="Writer_8hh.html" target="_top" xlink:title="Writer.hh">
<polygon fill="white" stroke="black" points="120,-56.5 120,-75.5 176,-75.5 176,-56.5 120,-56.5"/>
<text text-anchor="middle" x="148" y="-63.5" font-family="Helvetica,sans-Serif" font-size="10.00">Writer.hh</text>
</a>
</g>
<!-- Node1&#45;&gt;Node3 -->
<g id="edge4" class="edge"><title>Node1&#45;&gt;Node3</title>
<path fill="none" stroke="midnightblue" d="M251.51,-112.444C231.358,-103.596 199.677,-89.6875 176.669,-79.5865"/>
<polygon fill="midnightblue" stroke="midnightblue" points="177.962,-76.3316 167.399,-75.5164 175.148,-82.7411 177.962,-76.3316"/>
</g>
<!-- Node7 -->
<g id="node13" class="node"><title>Node7</title>
<a xlink:href="Path_8hh.html" target="_top" xlink:title="../Init/Path.hh">
<polygon fill="white" stroke="black" points="194,-56.5 194,-75.5 270,-75.5 270,-56.5 194,-56.5"/>
<text text-anchor="middle" x="232" y="-63.5" font-family="Helvetica,sans-Serif" font-size="10.00">../Init/Path.hh</text>
</a>
</g>
<!-- Node1&#45;&gt;Node7 -->
<g id="edge12" class="edge"><title>Node1&#45;&gt;Node7</title>
<path fill="none" stroke="midnightblue" d="M264.56,-112.083C259.051,-104.455 250.969,-93.2645 244.235,-83.9408"/>
<polygon fill="midnightblue" stroke="midnightblue" points="247.013,-81.8087 238.32,-75.7511 241.338,-85.9071 247.013,-81.8087"/>
</g>
<!-- Node8 -->
<g id="node16" class="node"><title>Node8</title>
<polygon fill="white" stroke="#bfbfbf" points="288,-56.5 288,-75.5 334,-75.5 334,-56.5 288,-56.5"/>
<text text-anchor="middle" x="311" y="-63.5" font-family="Helvetica,sans-Serif" font-size="10.00">cstring</text>
</g>
<!-- Node1&#45;&gt;Node8 -->
<g id="edge16" class="edge"><title>Node1&#45;&gt;Node8</title>
<path fill="none" stroke="midnightblue" d="M277.605,-112.083C283.255,-104.455 291.545,-93.2645 298.451,-83.9408"/>
<polygon fill="midnightblue" stroke="midnightblue" points="301.378,-85.87 304.518,-75.7511 295.753,-81.7034 301.378,-85.87"/>
</g>
<!-- Node9 -->
<g id="node18" class="node"><title>Node9</title>
<polygon fill="white" stroke="#bfbfbf" points="352,-56.5 352,-75.5 392,-75.5 392,-56.5 352,-56.5"/>
<text text-anchor="middle" x="372" y="-63.5" font-family="Helvetica,sans-Serif" font-size="10.00">glib.h</text>
</g>
<!-- Node1&#45;&gt;Node9 -->
<g id="edge18" class="edge"><title>Node1&#45;&gt;Node9</title>
<path fill="none" stroke="midnightblue" d="M287.227,-112.324C303.351,-103.703 328.3,-90.3643 346.964,-80.3855"/>
<polygon fill="midnightblue" stroke="midnightblue" points="348.644,-83.456 355.813,-75.6545 345.344,-77.283 348.644,-83.456"/>
</g>
<!-- Node10 -->
<g id="node20" class="node"><title>Node10</title>
<polygon fill="white" stroke="#bfbfbf" points="410.5,-56.5 410.5,-75.5 479.5,-75.5 479.5,-56.5 410.5,-56.5"/>
<text text-anchor="middle" x="445" y="-63.5" font-family="Helvetica,sans-Serif" font-size="10.00">glib/gstdio.h</text>
</g>
<!-- Node1&#45;&gt;Node10 -->
<g id="edge20" class="edge"><title>Node1&#45;&gt;Node10</title>
<path fill="none" stroke="midnightblue" d="M298.571,-112.444C328.097,-103.28 375.118,-88.6876 407.883,-78.5192"/>
<polygon fill="midnightblue" stroke="midnightblue" points="409.045,-81.8232 417.558,-75.5164 406.97,-75.1378 409.045,-81.8232"/>
</g>
<!-- Node4 -->
<g id="node7" class="node"><title>Node4</title>
<polygon fill="white" stroke="#bfbfbf" points="17,-0.5 17,-19.5 63,-19.5 63,-0.5 17,-0.5"/>
<text text-anchor="middle" x="40" y="-7.5" font-family="Helvetica,sans-Serif" font-size="10.00">stdio.h</text>
</g>
<!-- Node3&#45;&gt;Node4 -->
<g id="edge6" class="edge"><title>Node3&#45;&gt;Node4</title>
<path fill="none" stroke="midnightblue" d="M130.648,-56.324C113.328,-47.6641 86.4847,-34.2424 66.4981,-24.249"/>
<polygon fill="midnightblue" stroke="midnightblue" points="67.8186,-20.9962 57.309,-19.6545 64.688,-27.2572 67.8186,-20.9962"/>
</g>
<!-- Node5 -->
<g id="node9" class="node"><title>Node5</title>
<polygon fill="white" stroke="#bfbfbf" points="202.5,-0.5 202.5,-19.5 291.5,-19.5 291.5,-0.5 202.5,-0.5"/>
<text text-anchor="middle" x="247" y="-7.5" font-family="Helvetica,sans-Serif" font-size="10.00">glibmm/ustring.h</text>
</g>
<!-- Node3&#45;&gt;Node5 -->
<g id="edge8" class="edge"><title>Node3&#45;&gt;Node5</title>
<path fill="none" stroke="midnightblue" d="M163.906,-56.324C179.638,-47.7428 203.942,-34.486 222.209,-24.5224"/>
<polygon fill="midnightblue" stroke="midnightblue" points="224.03,-27.5157 231.133,-19.6545 220.678,-21.3704 224.03,-27.5157"/>
</g>
<!-- Node6 -->
<g id="node11" class="node"><title>Node6</title>
<a xlink:href="Singleton_8hh.html" target="_top" xlink:title="../Utils/Singleton.hh">
<polygon fill="white" stroke="black" points="81.5,-0.5 81.5,-19.5 184.5,-19.5 184.5,-0.5 81.5,-0.5"/>
<text text-anchor="middle" x="133" y="-7.5" font-family="Helvetica,sans-Serif" font-size="10.00">../Utils/Singleton.hh</text>
</a>
</g>
<!-- Node3&#45;&gt;Node6 -->
<g id="edge10" class="edge"><title>Node3&#45;&gt;Node6</title>
<path fill="none" stroke="midnightblue" d="M145.523,-56.083C143.514,-48.8486 140.614,-38.4087 138.11,-29.3968"/>
<polygon fill="midnightblue" stroke="midnightblue" points="141.48,-28.4495 135.431,-19.7511 134.735,-30.323 141.48,-28.4495"/>
</g>
<!-- Node7&#45;&gt;Node5 -->
<g id="edge14" class="edge"><title>Node7&#45;&gt;Node5</title>
<path fill="none" stroke="midnightblue" d="M234.477,-56.083C236.486,-48.8486 239.386,-38.4087 241.89,-29.3968"/>
<polygon fill="midnightblue" stroke="midnightblue" points="245.265,-30.323 244.569,-19.7511 238.52,-28.4495 245.265,-30.323"/>
</g>
</g>
</svg>
