<?xml version="1.0" encoding="UTF-8" standalone="no"?>
<!DOCTYPE svg PUBLIC "-//W3C//DTD SVG 1.1//EN"
 "http://www.w3.org/Graphics/SVG/1.1/DTD/svg11.dtd">
<!-- Generated by graphviz version 2.28.0 (20111204.1018)
 -->
<!-- Title: G Pages: 1 -->
<svg width="288pt" height="140pt"
 viewBox="0.00 0.00 288.00 140.00" xmlns="http://www.w3.org/2000/svg" xmlns:xlink="http://www.w3.org/1999/xlink">
<g id="graph1" class="graph" transform="scale(1 1) rotate(0) translate(4 136)">
<title>G</title>
<polygon fill="white" stroke="white" points="-4,5 -4,-136 285,-136 285,5 -4,5"/>
<!-- Node1 -->
<g id="node1" class="node"><title>Node1</title>
<polygon fill="#bfbfbf" stroke="black" points="33.5,-112.5 33.5,-131.5 164.5,-131.5 164.5,-112.5 33.5,-112.5"/>
<text text-anchor="middle" x="99" y="-119.5" font-family="Helvetica,sans-Serif" font-size="10.00">src/Notify/check_notify.hh</text>
</g>
<!-- Node2 -->
<g id="node3" class="node"><title>Node2</title>
<polygon fill="white" stroke="#bfbfbf" points="0,-56.5 0,-75.5 102,-75.5 102,-56.5 0,-56.5"/>
<text text-anchor="middle" x="51" y="-63.5" font-family="Helvetica,sans-Serif" font-size="10.00">cxxtest/TestSuite.h</text>
</g>
<!-- Node1&#45;&gt;Node2 -->
<g id="edge2" class="edge"><title>Node1&#45;&gt;Node2</title>
<path fill="none" stroke="midnightblue" d="M91.0738,-112.083C84.1539,-104.298 73.9346,-92.8015 65.548,-83.3665"/>
<polygon fill="midnightblue" stroke="midnightblue" points="68.0383,-80.8999 58.7787,-75.7511 62.8065,-85.5505 68.0383,-80.8999"/>
</g>
<!-- Node3 -->
<g id="node5" class="node"><title>Node3</title>
<a xlink:href="Notify_8hh.html" target="_top" xlink:title="Notify.hh">
<polygon fill="white" stroke="black" points="120,-56.5 120,-75.5 176,-75.5 176,-56.5 120,-56.5"/>
<text text-anchor="middle" x="148" y="-63.5" font-family="Helvetica,sans-Serif" font-size="10.00">Notify.hh</text>
</a>
</g>
<!-- Node1&#45;&gt;Node3 -->
<g id="edge4" class="edge"><title>Node1&#45;&gt;Node3</title>
<path fill="none" stroke="midnightblue" d="M107.091,-112.083C114.155,-104.298 124.588,-92.8015 133.149,-83.3665"/>
<polygon fill="midnightblue" stroke="midnightblue" points="135.931,-85.5087 140.059,-75.7511 130.747,-80.8047 135.931,-85.5087"/>
</g>
<!-- Node4 -->
<g id="node7" class="node"><title>Node4</title>
<a xlink:href="Singleton_8hh.html" target="_top" xlink:title="../Utils/Singleton.hh">
<polygon fill="white" stroke="black" points="-0.5,-0.5 -0.5,-19.5 102.5,-19.5 102.5,-0.5 -0.5,-0.5"/>
<text text-anchor="middle" x="51" y="-7.5" font-family="Helvetica,sans-Serif" font-size="10.00">../Utils/Singleton.hh</text>
</a>
</g>
<!-- Node3&#45;&gt;Node4 -->
<g id="edge6" class="edge"><title>Node3&#45;&gt;Node4</title>
<path fill="none" stroke="midnightblue" d="M132.415,-56.324C117.001,-47.7428 93.1878,-34.486 75.2903,-24.5224"/>
<polygon fill="midnightblue" stroke="midnightblue" points="76.9858,-21.4606 66.5461,-19.6545 73.5809,-27.5767 76.9858,-21.4606"/>
</g>
<!-- Node5 -->
<g id="node9" class="node"><title>Node5</title>
<polygon fill="white" stroke="#bfbfbf" points="120.5,-0.5 120.5,-19.5 175.5,-19.5 175.5,-0.5 120.5,-0.5"/>
<text text-anchor="middle" x="148" y="-7.5" font-family="Helvetica,sans-Serif" font-size="10.00">gtkmm.h</text>
</g>
<!-- Node3&#45;&gt;Node5 -->
<g id="edge8" class="edge"><title>Node3&#45;&gt;Node5</title>
<path fill="none" stroke="midnightblue" d="M148,-56.083C148,-49.0059 148,-38.8611 148,-29.9865"/>
<polygon fill="midnightblue" stroke="midnightblue" points="151.5,-29.751 148,-19.7511 144.5,-29.7511 151.5,-29.751"/>
</g>
<!-- Node6 -->
<g id="node11" class="node"><title>Node6</title>
<polygon fill="white" stroke="#bfbfbf" points="194,-0.5 194,-19.5 280,-19.5 280,-0.5 194,-0.5"/>
<text text-anchor="middle" x="237" y="-7.5" font-family="Helvetica,sans-Serif" font-size="10.00">libnotify/notify.h</text>
</g>
<!-- Node3&#45;&gt;Node6 -->
<g id="edge10" class="edge"><title>Node3&#45;&gt;Node6</title>
<path fill="none" stroke="midnightblue" d="M162.299,-56.324C176.183,-47.9002 197.492,-34.9709 213.804,-25.0741"/>
<polygon fill="midnightblue" stroke="midnightblue" points="216.002,-27.8341 222.736,-19.6545 212.371,-21.8495 216.002,-27.8341"/>
</g>
</g>
</svg>
