<?xml version="1.0" encoding="UTF-8" standalone="no"?>
<!DOCTYPE svg PUBLIC "-//W3C//DTD SVG 1.1//EN"
 "http://www.w3.org/Graphics/SVG/1.1/DTD/svg11.dtd">
<!-- Generated by graphviz version 2.28.0 (20111204.1018)
 -->
<!-- Title: G Pages: 1 -->
<svg width="438pt" height="140pt"
 viewBox="0.00 0.00 438.00 140.00" xmlns="http://www.w3.org/2000/svg" xmlns:xlink="http://www.w3.org/1999/xlink">
<g id="graph1" class="graph" transform="scale(1 1) rotate(0) translate(4 136)">
<title>G</title>
<polygon fill="white" stroke="white" points="-4,5 -4,-136 435,-136 435,5 -4,5"/>
<!-- Node1 -->
<g id="node1" class="node"><title>Node1</title>
<polygon fill="#bfbfbf" stroke="black" points="210,-112.5 210,-131.5 320,-131.5 320,-112.5 210,-112.5"/>
<text text-anchor="middle" x="265" y="-119.5" font-family="Helvetica,sans-Serif" font-size="10.00">src/Log/check_log.hh</text>
</g>
<!-- Node2 -->
<g id="node3" class="node"><title>Node2</title>
<polygon fill="white" stroke="#bfbfbf" points="0,-56.5 0,-75.5 102,-75.5 102,-56.5 0,-56.5"/>
<text text-anchor="middle" x="51" y="-63.5" font-family="Helvetica,sans-Serif" font-size="10.00">cxxtest/TestSuite.h</text>
</g>
<!-- Node1&#45;&gt;Node2 -->
<g id="edge2" class="edge"><title>Node1&#45;&gt;Node2</title>
<path fill="none" stroke="midnightblue" d="M231.091,-112.444C194.151,-103.122 134.946,-88.1828 94.5816,-77.9972"/>
<polygon fill="midnightblue" stroke="midnightblue" points="95.3027,-74.5695 84.7503,-75.5164 93.59,-81.3568 95.3027,-74.5695"/>
</g>
<!-- Node3 -->
<g id="node5" class="node"><title>Node3</title>
<a xlink:href="Writer_8hh.html" target="_top" xlink:title="Writer.hh">
<polygon fill="white" stroke="black" points="120,-56.5 120,-75.5 176,-75.5 176,-56.5 120,-56.5"/>
<text text-anchor="middle" x="148" y="-63.5" font-family="Helvetica,sans-Serif" font-size="10.00">Writer.hh</text>
</a>
</g>
<!-- Node1&#45;&gt;Node3 -->
<g id="edge4" class="edge"><title>Node1&#45;&gt;Node3</title>
<path fill="none" stroke="midnightblue" d="M246.461,-112.444C227.377,-103.636 197.425,-89.8116 175.564,-79.722"/>
<polygon fill="midnightblue" stroke="midnightblue" points="176.999,-76.5292 166.452,-75.5164 174.065,-82.8849 176.999,-76.5292"/>
</g>
<!-- Node7 -->
<g id="node13" class="node"><title>Node7</title>
<a xlink:href="Path_8hh.html" target="_top" xlink:title="../Init/Path.hh">
<polygon fill="white" stroke="black" points="194,-56.5 194,-75.5 270,-75.5 270,-56.5 194,-56.5"/>
<text text-anchor="middle" x="232" y="-63.5" font-family="Helvetica,sans-Serif" font-size="10.00">../Init/Path.hh</text>
</a>
</g>
<!-- Node1&#45;&gt;Node7 -->
<g id="edge12" class="edge"><title>Node1&#45;&gt;Node7</title>
<path fill="none" stroke="midnightblue" d="M259.551,-112.083C254.986,-104.613 248.332,-93.7244 242.707,-84.5199"/>
<polygon fill="midnightblue" stroke="midnightblue" points="245.549,-82.4588 237.348,-75.7511 239.576,-86.109 245.549,-82.4588"/>
</g>
<!-- Node8 -->
<g id="node16" class="node"><title>Node8</title>
<polygon fill="white" stroke="#bfbfbf" points="271.5,-0.5 271.5,-19.5 340.5,-19.5 340.5,-0.5 271.5,-0.5"/>
<text text-anchor="middle" x="306" y="-7.5" font-family="Helvetica,sans-Serif" font-size="10.00">glib/gstdio.h</text>
</g>
<!-- Node1&#45;&gt;Node8 -->
<g id="edge22" class="edge"><title>Node1&#45;&gt;Node8</title>
<path fill="none" stroke="midnightblue" d="M268.217,-112.368C274.864,-94.5366 290.235,-53.2953 299.19,-29.2717"/>
<polygon fill="midnightblue" stroke="midnightblue" points="302.585,-30.1841 302.798,-19.5914 296.026,-27.7393 302.585,-30.1841"/>
</g>
<!-- Node9 -->
<g id="node18" class="node"><title>Node9</title>
<polygon fill="white" stroke="#bfbfbf" points="326,-56.5 326,-75.5 372,-75.5 372,-56.5 326,-56.5"/>
<text text-anchor="middle" x="349" y="-63.5" font-family="Helvetica,sans-Serif" font-size="10.00">cstring</text>
</g>
<!-- Node1&#45;&gt;Node9 -->
<g id="edge18" class="edge"><title>Node1&#45;&gt;Node9</title>
<path fill="none" stroke="midnightblue" d="M278.496,-112.324C291.6,-103.9 311.712,-90.9709 327.107,-81.0741"/>
<polygon fill="midnightblue" stroke="midnightblue" points="329.018,-84.0063 335.537,-75.6545 325.233,-78.118 329.018,-84.0063"/>
</g>
<!-- Node10 -->
<g id="node20" class="node"><title>Node10</title>
<polygon fill="white" stroke="#bfbfbf" points="390,-56.5 390,-75.5 430,-75.5 430,-56.5 390,-56.5"/>
<text text-anchor="middle" x="410" y="-63.5" font-family="Helvetica,sans-Serif" font-size="10.00">glib.h</text>
</g>
<!-- Node1&#45;&gt;Node10 -->
<g id="edge20" class="edge"><title>Node1&#45;&gt;Node10</title>
<path fill="none" stroke="midnightblue" d="M287.976,-112.444C313.01,-103.12 353.136,-88.1768 380.487,-77.9911"/>
<polygon fill="midnightblue" stroke="midnightblue" points="381.784,-81.243 389.934,-74.473 379.341,-74.6831 381.784,-81.243"/>
</g>
<!-- Node4 -->
<g id="node7" class="node"><title>Node4</title>
<polygon fill="white" stroke="#bfbfbf" points="197,-0.5 197,-19.5 253,-19.5 253,-0.5 197,-0.5"/>
<text text-anchor="middle" x="225" y="-7.5" font-family="Helvetica,sans-Serif" font-size="10.00">glibmm.h</text>
</g>
<!-- Node3&#45;&gt;Node4 -->
<g id="edge6" class="edge"><title>Node3&#45;&gt;Node4</title>
<path fill="none" stroke="midnightblue" d="M160.371,-56.324C172.158,-48.0577 190.132,-35.4527 204.136,-25.6322"/>
<polygon fill="midnightblue" stroke="midnightblue" points="206.482,-28.2619 212.659,-19.6545 202.462,-22.5307 206.482,-28.2619"/>
</g>
<!-- Node5 -->
<g id="node9" class="node"><title>Node5</title>
<polygon fill="white" stroke="#bfbfbf" points="11,-0.5 11,-19.5 57,-19.5 57,-0.5 11,-0.5"/>
<text text-anchor="middle" x="34" y="-7.5" font-family="Helvetica,sans-Serif" font-size="10.00">stdio.h</text>
</g>
<!-- Node3&#45;&gt;Node5 -->
<g id="edge8" class="edge"><title>Node3&#45;&gt;Node5</title>
<path fill="none" stroke="midnightblue" d="M129.936,-56.4435C111.425,-47.6751 82.4193,-33.9355 61.1445,-23.8579"/>
<polygon fill="midnightblue" stroke="midnightblue" points="62.5148,-20.6343 51.9791,-19.5164 59.5182,-26.9604 62.5148,-20.6343"/>
</g>
<!-- Node6 -->
<g id="node11" class="node"><title>Node6</title>
<a xlink:href="Singleton_8hh.html" target="_top" xlink:title="../Utils/Singleton.hh">
<polygon fill="white" stroke="black" points="75.5,-0.5 75.5,-19.5 178.5,-19.5 178.5,-0.5 75.5,-0.5"/>
<text text-anchor="middle" x="127" y="-7.5" font-family="Helvetica,sans-Serif" font-size="10.00">../Utils/Singleton.hh</text>
</a>
</g>
<!-- Node3&#45;&gt;Node6 -->
<g id="edge10" class="edge"><title>Node3&#45;&gt;Node6</title>
<path fill="none" stroke="midnightblue" d="M144.532,-56.083C141.688,-48.77 137.571,-38.1814 134.04,-29.1034"/>
<polygon fill="midnightblue" stroke="midnightblue" points="137.29,-27.8025 130.403,-19.7511 130.766,-30.3397 137.29,-27.8025"/>
</g>
<!-- Node7&#45;&gt;Node4 -->
<g id="edge14" class="edge"><title>Node7&#45;&gt;Node4</title>
<path fill="none" stroke="midnightblue" d="M230.844,-56.083C229.916,-48.9272 228.582,-38.6353 227.423,-29.6911"/>
<polygon fill="midnightblue" stroke="midnightblue" points="230.891,-29.2181 226.134,-19.7511 223.949,-30.1181 230.891,-29.2181"/>
</g>
<!-- Node7&#45;&gt;Node8 -->
<g id="edge16" class="edge"><title>Node7&#45;&gt;Node8</title>
<path fill="none" stroke="midnightblue" d="M243.889,-56.324C255.15,-48.1066 272.287,-35.6017 285.709,-25.8069"/>
<polygon fill="midnightblue" stroke="midnightblue" points="287.88,-28.5559 293.894,-19.8339 283.753,-22.9014 287.88,-28.5559"/>
</g>
</g>
</svg>
