<?xml version="1.0" encoding="UTF-8" standalone="no"?>
<!DOCTYPE svg PUBLIC "-//W3C//DTD SVG 1.1//EN"
 "http://www.w3.org/Graphics/SVG/1.1/DTD/svg11.dtd">
<!-- Generated by graphviz version 2.28.0 (20111204.1018)
 -->
<!-- Title: G Pages: 1 -->
<svg width="462pt" height="304pt"
 viewBox="0.00 0.00 462.00 304.00" xmlns="http://www.w3.org/2000/svg" xmlns:xlink="http://www.w3.org/1999/xlink">
<g id="graph1" class="graph" transform="scale(1 1) rotate(0) translate(4 300)">
<title>G</title>
<polygon fill="white" stroke="white" points="-4,5 -4,-300 459,-300 459,5 -4,5"/>
<!-- Node1 -->
<g id="node1" class="node"><title>Node1</title>
<polygon fill="#bfbfbf" stroke="black" points="151.5,-205 151.5,-295 280.5,-295 280.5,-205 151.5,-205"/>
<text text-anchor="middle" x="216" y="-283" font-family="Helvetica,sans-Serif" font-size="10.00">MPD::AbstractComposite</text>
<polyline fill="none" stroke="black" points="151.5,-276 280.5,-276 "/>
<text text-anchor="middle" x="216" y="-264" font-family="Helvetica,sans-Serif" font-size="10.00"> </text>
<polyline fill="none" stroke="black" points="151.5,-257 280.5,-257 "/>
<text text-anchor="start" x="159.5" y="-245" font-family="Helvetica,sans-Serif" font-size="10.00">+ AbstractComposite()</text>
<text text-anchor="start" x="159.5" y="-234" font-family="Helvetica,sans-Serif" font-size="10.00">+ ~AbstractComposite()</text>
<text text-anchor="start" x="159.5" y="-223" font-family="Helvetica,sans-Serif" font-size="10.00">+ is_leaf()</text>
<text text-anchor="start" x="159.5" y="-212" font-family="Helvetica,sans-Serif" font-size="10.00">+ get_path()</text>
</g>
<!-- Node2 -->
<g id="node3" class="node"><title>Node2</title>
<a xlink:href="classMPD_1_1AudioOutput.html" target="_top" xlink:title="Wrapper for mpd_output, implements also two client commands: enable() and disable()">
<polygon fill="white" stroke="black" points="-0.5,-22.5 -0.5,-145.5 98.5,-145.5 98.5,-22.5 -0.5,-22.5"/>
<text text-anchor="middle" x="49" y="-133.5" font-family="Helvetica,sans-Serif" font-size="10.00">MPD::AudioOutput</text>
<polyline fill="none" stroke="black" points="-0.5,-126.5 98.5,-126.5 "/>
<text text-anchor="middle" x="49" y="-114.5" font-family="Helvetica,sans-Serif" font-size="10.00"> </text>
<polyline fill="none" stroke="black" points="-0.5,-107.5 98.5,-107.5 "/>
<text text-anchor="start" x="7.5" y="-95.5" font-family="Helvetica,sans-Serif" font-size="10.00">+ AudioOutput()</text>
<text text-anchor="start" x="7.5" y="-84.5" font-family="Helvetica,sans-Serif" font-size="10.00">+ get_id()</text>
<text text-anchor="start" x="7.5" y="-73.5" font-family="Helvetica,sans-Serif" font-size="10.00">+ get_name()</text>
<text text-anchor="start" x="7.5" y="-62.5" font-family="Helvetica,sans-Serif" font-size="10.00">+ get_enabled()</text>
<text text-anchor="start" x="7.5" y="-51.5" font-family="Helvetica,sans-Serif" font-size="10.00">+ enable()</text>
<text text-anchor="start" x="7.5" y="-40.5" font-family="Helvetica,sans-Serif" font-size="10.00">+ disable()</text>
<text text-anchor="start" x="7.5" y="-29.5" font-family="Helvetica,sans-Serif" font-size="10.00">+ get_path()</text>
</a>
</g>
<!-- Node1&#45;&gt;Node2 -->
<g id="edge2" class="edge"><title>Node1&#45;&gt;Node2</title>
<path fill="none" stroke="midnightblue" d="M143.531,-200.304C130.746,-190.305 118.018,-179.345 107,-168 100.386,-161.19 93.9818,-153.56 87.9929,-145.759"/>
<polygon fill="none" stroke="midnightblue" points="141.418,-203.095 151.484,-206.401 145.677,-197.539 141.418,-203.095"/>
</g>
<!-- Node3 -->
<g id="node5" class="node"><title>Node3</title>
<a xlink:href="classMPD_1_1Directory.html" target="_top" xlink:title="A wrapper for mpd_directory.">
<polygon fill="white" stroke="black" points="116.5,-44.5 116.5,-123.5 201.5,-123.5 201.5,-44.5 116.5,-44.5"/>
<text text-anchor="middle" x="159" y="-111.5" font-family="Helvetica,sans-Serif" font-size="10.00">MPD::Directory</text>
<polyline fill="none" stroke="black" points="116.5,-104.5 201.5,-104.5 "/>
<text text-anchor="middle" x="159" y="-92.5" font-family="Helvetica,sans-Serif" font-size="10.00"> </text>
<polyline fill="none" stroke="black" points="116.5,-85.5 201.5,-85.5 "/>
<text text-anchor="start" x="124.5" y="-73.5" font-family="Helvetica,sans-Serif" font-size="10.00">+ Directory()</text>
<text text-anchor="start" x="124.5" y="-62.5" font-family="Helvetica,sans-Serif" font-size="10.00">+ ~Directory()</text>
<text text-anchor="start" x="124.5" y="-51.5" font-family="Helvetica,sans-Serif" font-size="10.00">+ get_path()</text>
</a>
</g>
<!-- Node1&#45;&gt;Node3 -->
<g id="edge4" class="edge"><title>Node1&#45;&gt;Node3</title>
<path fill="none" stroke="midnightblue" d="M197.292,-195.173C189.162,-171.781 179.822,-144.908 172.401,-123.558"/>
<polygon fill="none" stroke="midnightblue" points="193.986,-196.323 200.575,-204.619 200.598,-194.024 193.986,-196.323"/>
</g>
<!-- Node4 -->
<g id="node7" class="node"><title>Node4</title>
<a xlink:href="classMPD_1_1Playlist.html" target="_top" xlink:title="A Wrapper for mpd_playlist, also implements own client commands.">
<polygon fill="white" stroke="black" points="220,-6 220,-162 328,-162 328,-6 220,-6"/>
<text text-anchor="middle" x="274" y="-150" font-family="Helvetica,sans-Serif" font-size="10.00">MPD::Playlist</text>
<polyline fill="none" stroke="black" points="220,-143 328,-143 "/>
<text text-anchor="middle" x="274" y="-131" font-family="Helvetica,sans-Serif" font-size="10.00"> </text>
<polyline fill="none" stroke="black" points="220,-124 328,-124 "/>
<text text-anchor="start" x="228" y="-112" font-family="Helvetica,sans-Serif" font-size="10.00">+ Playlist()</text>
<text text-anchor="start" x="228" y="-101" font-family="Helvetica,sans-Serif" font-size="10.00">+ Playlist()</text>
<text text-anchor="start" x="228" y="-90" font-family="Helvetica,sans-Serif" font-size="10.00">+ ~Playlist()</text>
<text text-anchor="start" x="228" y="-79" font-family="Helvetica,sans-Serif" font-size="10.00">+ get_path()</text>
<text text-anchor="start" x="228" y="-68" font-family="Helvetica,sans-Serif" font-size="10.00">+ get_last_modified()</text>
<text text-anchor="start" x="228" y="-57" font-family="Helvetica,sans-Serif" font-size="10.00">+ remove()</text>
<text text-anchor="start" x="228" y="-46" font-family="Helvetica,sans-Serif" font-size="10.00">+ load()</text>
<text text-anchor="start" x="228" y="-35" font-family="Helvetica,sans-Serif" font-size="10.00">+ rename()</text>
<text text-anchor="start" x="228" y="-24" font-family="Helvetica,sans-Serif" font-size="10.00">+ add_song()</text>
<text text-anchor="start" x="228" y="-13" font-family="Helvetica,sans-Serif" font-size="10.00">+ add_song()</text>
</a>
</g>
<!-- Node1&#45;&gt;Node4 -->
<g id="edge6" class="edge"><title>Node1&#45;&gt;Node4</title>
<path fill="none" stroke="midnightblue" d="M235.038,-195.169C238.762,-184.637 242.737,-173.4 246.67,-162.278"/>
<polygon fill="none" stroke="midnightblue" points="231.73,-194.024 231.696,-204.619 238.33,-196.358 231.73,-194.024"/>
</g>
<!-- Node5 -->
<g id="node9" class="node"><title>Node5</title>
<a xlink:href="classMPD_1_1Song.html" target="_top" xlink:title="A wrapper for mpd_song.">
<polygon fill="white" stroke="black" points="346,-0.5 346,-167.5 454,-167.5 454,-0.5 346,-0.5"/>
<text text-anchor="middle" x="400" y="-155.5" font-family="Helvetica,sans-Serif" font-size="10.00">MPD::Song</text>
<polyline fill="none" stroke="black" points="346,-148.5 454,-148.5 "/>
<text text-anchor="middle" x="400" y="-136.5" font-family="Helvetica,sans-Serif" font-size="10.00"> </text>
<polyline fill="none" stroke="black" points="346,-129.5 454,-129.5 "/>
<text text-anchor="start" x="354" y="-117.5" font-family="Helvetica,sans-Serif" font-size="10.00">+ Song()</text>
<text text-anchor="start" x="354" y="-106.5" font-family="Helvetica,sans-Serif" font-size="10.00">+ Song()</text>
<text text-anchor="start" x="354" y="-95.5" font-family="Helvetica,sans-Serif" font-size="10.00">+ ~Song()</text>
<text text-anchor="start" x="354" y="-84.5" font-family="Helvetica,sans-Serif" font-size="10.00">+ get_path()</text>
<text text-anchor="start" x="354" y="-73.5" font-family="Helvetica,sans-Serif" font-size="10.00">+ get_tag()</text>
<text text-anchor="start" x="354" y="-62.5" font-family="Helvetica,sans-Serif" font-size="10.00">+ song_format()</text>
<text text-anchor="start" x="354" y="-51.5" font-family="Helvetica,sans-Serif" font-size="10.00">+ get_duration()</text>
<text text-anchor="start" x="354" y="-40.5" font-family="Helvetica,sans-Serif" font-size="10.00">+ get_last_modified()</text>
<text text-anchor="start" x="354" y="-29.5" font-family="Helvetica,sans-Serif" font-size="10.00">+ set_pos()</text>
<text text-anchor="start" x="354" y="-18.5" font-family="Helvetica,sans-Serif" font-size="10.00">+ get_pos()</text>
<text text-anchor="start" x="354" y="-7.5" font-family="Helvetica,sans-Serif" font-size="10.00">+ get_id()</text>
</a>
</g>
<!-- Node1&#45;&gt;Node5 -->
<g id="edge8" class="edge"><title>Node1&#45;&gt;Node5</title>
<path fill="none" stroke="midnightblue" d="M289.115,-205.739C305.663,-194.438 322.587,-181.582 337,-168 340.028,-165.146 343.021,-162.136 345.96,-159.019"/>
<polygon fill="none" stroke="midnightblue" points="286.871,-203.029 280.511,-211.502 290.767,-208.844 286.871,-203.029"/>
</g>
</g>
</svg>
