<?xml version="1.0" encoding="UTF-8" standalone="no"?>
<!DOCTYPE svg PUBLIC "-//W3C//DTD SVG 1.1//EN"
 "http://www.w3.org/Graphics/SVG/1.1/DTD/svg11.dtd">
<!-- Generated by graphviz version 2.28.0 (20120217.0315)
 -->
<!-- Title: G Pages: 1 -->
<svg width="476pt" height="66pt"
 viewBox="0.00 0.00 476.00 66.00" xmlns="http://www.w3.org/2000/svg" xmlns:xlink="http://www.w3.org/1999/xlink">
<g id="graph1" class="graph" transform="scale(1 1) rotate(0) translate(4 62)">
<title>G</title>
<polygon fill="white" stroke="white" points="-4,5 -4,-62 473,-62 473,5 -4,5"/>
<!-- Node1 -->
<g id="node1" class="node"><title>Node1</title>
<polygon fill="#bfbfbf" stroke="black" points="0,-19.5 0,-38.5 214,-38.5 214,-19.5 0,-19.5"/>
<text text-anchor="middle" x="107" y="-26.5" font-family="Helvetica,sans-Serif" font-size="10.00">MPD::BaseClient::signal_connection_change</text>
</g>
<!-- Node2 -->
<g id="node3" class="node"><title>Node2</title>
<a xlink:href="classMPD_1_1AbstractClientUser.html#aa49671e04a5f96834f3cd35138a68f78" target="_top" xlink:title="Pass a MPD::Client ref to register it&#39;s signals and maintain a pointer to it.">
<polygon fill="white" stroke="black" points="250,-38.5 250,-57.5 468,-57.5 468,-38.5 250,-38.5"/>
<text text-anchor="middle" x="359" y="-45.5" font-family="Helvetica,sans-Serif" font-size="10.00">MPD::AbstractClientUser::AbstractClientUser</text>
</a>
</g>
<!-- Node1&#45;&gt;Node2 -->
<g id="edge2" class="edge"><title>Node1&#45;&gt;Node2</title>
<path fill="none" stroke="midnightblue" d="M224.062,-37.8207C232.644,-38.4729 241.282,-39.1295 249.815,-39.7779"/>
<polygon fill="midnightblue" stroke="midnightblue" points="224.259,-34.3257 214.023,-37.0577 223.728,-41.3056 224.259,-34.3257"/>
</g>
<!-- Node3 -->
<g id="node5" class="node"><title>Node3</title>
<a xlink:href="classMPDTestSuite.html#a0687cc1e17a07b8296ff3af7480cced0" target="_top" xlink:title="MPDTestSuite::setUp">
<polygon fill="white" stroke="black" points="302.5,-0.5 302.5,-19.5 415.5,-19.5 415.5,-0.5 302.5,-0.5"/>
<text text-anchor="middle" x="359" y="-7.5" font-family="Helvetica,sans-Serif" font-size="10.00">MPDTestSuite::setUp</text>
</a>
</g>
<!-- Node1&#45;&gt;Node3 -->
<g id="edge4" class="edge"><title>Node1&#45;&gt;Node3</title>
<path fill="none" stroke="midnightblue" d="M224.024,-20.1822C251.267,-18.1117 279.081,-15.9979 302.255,-14.2366"/>
<polygon fill="midnightblue" stroke="midnightblue" points="223.728,-16.6944 214.023,-20.9423 224.259,-23.6743 223.728,-16.6944"/>
</g>
</g>
</svg>
