<?xml version="1.0" encoding="UTF-8" standalone="no"?>
<!DOCTYPE svg PUBLIC "-//W3C//DTD SVG 1.1//EN"
 "http://www.w3.org/Graphics/SVG/1.1/DTD/svg11.dtd">
<!-- Generated by graphviz version 2.28.0 (20111204.1018)
 -->
<!-- Title: G Pages: 1 -->
<svg width="202pt" height="238pt"
 viewBox="0.00 0.00 202.00 238.00" xmlns="http://www.w3.org/2000/svg" xmlns:xlink="http://www.w3.org/1999/xlink">
<g id="graph1" class="graph" transform="scale(1 1) rotate(0) translate(4 234)">
<title>G</title>
<polygon fill="white" stroke="white" points="-4,5 -4,-234 199,-234 199,5 -4,5"/>
<!-- Node1 -->
<g id="node1" class="node"><title>Node1</title>
<polygon fill="#bfbfbf" stroke="black" points="29.5,-0.5 29.5,-79.5 142.5,-79.5 142.5,-0.5 29.5,-0.5"/>
<text text-anchor="middle" x="86" y="-67.5" font-family="Helvetica,sans-Serif" font-size="10.00">Browser::StatBrowser</text>
<polyline fill="none" stroke="black" points="29.5,-60.5 142.5,-60.5 "/>
<text text-anchor="middle" x="86" y="-48.5" font-family="Helvetica,sans-Serif" font-size="10.00"> </text>
<polyline fill="none" stroke="black" points="29.5,-41.5 142.5,-41.5 "/>
<text text-anchor="start" x="37.5" y="-29.5" font-family="Helvetica,sans-Serif" font-size="10.00">+ StatBrowser()</text>
<text text-anchor="start" x="37.5" y="-18.5" font-family="Helvetica,sans-Serif" font-size="10.00">+ ~StatBrowser()</text>
<text text-anchor="start" x="37.5" y="-7.5" font-family="Helvetica,sans-Serif" font-size="10.00">+ get_container()</text>
</g>
<!-- Node2 -->
<g id="node2" class="node"><title>Node2</title>
<a xlink:href="classGtk_1_1Frame.html" target="_top" xlink:title="{Gtk::Frame\n||}">
<polygon fill="white" stroke="black" points="0,-144.5 0,-201.5 66,-201.5 66,-144.5 0,-144.5"/>
<text text-anchor="middle" x="33" y="-189.5" font-family="Helvetica,sans-Serif" font-size="10.00">Gtk::Frame</text>
<polyline fill="none" stroke="black" points="0,-182.5 66,-182.5 "/>
<text text-anchor="middle" x="33" y="-170.5" font-family="Helvetica,sans-Serif" font-size="10.00"> </text>
<polyline fill="none" stroke="black" points="0,-163.5 66,-163.5 "/>
<text text-anchor="middle" x="33" y="-151.5" font-family="Helvetica,sans-Serif" font-size="10.00"> </text>
</a>
</g>
<!-- Node2&#45;&gt;Node1 -->
<g id="edge2" class="edge"><title>Node2&#45;&gt;Node1</title>
<path fill="none" stroke="midnightblue" d="M48.1648,-134.517C55.1147,-117.339 63.3462,-96.9934 70.3536,-79.6731"/>
<polygon fill="none" stroke="midnightblue" points="44.746,-133.636 44.2399,-144.218 51.235,-136.261 44.746,-133.636"/>
</g>
<!-- Node3 -->
<g id="node4" class="node"><title>Node3</title>
<a xlink:href="classAbstractBrowser.html" target="_top" xlink:title="Inherit from this class in order to be able to add the browser to the browserlist.">
<polygon fill="white" stroke="black" points="84,-117 84,-229 194,-229 194,-117 84,-117"/>
<text text-anchor="middle" x="139" y="-217" font-family="Helvetica,sans-Serif" font-size="10.00">AbstractBrowser</text>
<polyline fill="none" stroke="black" points="84,-210 194,-210 "/>
<text text-anchor="middle" x="139" y="-198" font-family="Helvetica,sans-Serif" font-size="10.00"> </text>
<polyline fill="none" stroke="black" points="84,-191 194,-191 "/>
<text text-anchor="start" x="92" y="-179" font-family="Helvetica,sans-Serif" font-size="10.00">+ AbstractBrowser()</text>
<text text-anchor="start" x="92" y="-168" font-family="Helvetica,sans-Serif" font-size="10.00">+ get_container()</text>
<text text-anchor="start" x="92" y="-157" font-family="Helvetica,sans-Serif" font-size="10.00">+ get_name()</text>
<text text-anchor="start" x="92" y="-146" font-family="Helvetica,sans-Serif" font-size="10.00">+ get_icon_stock_id()</text>
<text text-anchor="start" x="92" y="-135" font-family="Helvetica,sans-Serif" font-size="10.00">+ is_visible()</text>
<text text-anchor="start" x="92" y="-124" font-family="Helvetica,sans-Serif" font-size="10.00">+ needs_connection()</text>
</a>
</g>
<!-- Node3&#45;&gt;Node1 -->
<g id="edge4" class="edge"><title>Node3&#45;&gt;Node1</title>
<path fill="none" stroke="midnightblue" d="M112.873,-107.422C109.054,-97.9832 105.225,-88.5186 101.703,-79.8127"/>
<polygon fill="none" stroke="midnightblue" points="109.682,-108.867 116.677,-116.824 116.171,-106.241 109.682,-108.867"/>
</g>
</g>
</svg>
