<?xml version="1.0" encoding="UTF-8" standalone="no"?>
<!DOCTYPE svg PUBLIC "-//W3C//DTD SVG 1.1//EN"
 "http://www.w3.org/Graphics/SVG/1.1/DTD/svg11.dtd">
<!-- Generated by graphviz version 2.28.0 (20111204.1018)
 -->
<!-- Title: G Pages: 1 -->
<svg width="646pt" height="1186pt"
 viewBox="0.00 0.00 646.00 1186.00" xmlns="http://www.w3.org/2000/svg" xmlns:xlink="http://www.w3.org/1999/xlink">
<g id="graph1" class="graph" transform="scale(1 1) rotate(0) translate(4 1182)">
<title>G</title>
<polygon fill="white" stroke="white" points="-4,5 -4,-1182 643,-1182 643,5 -4,5"/>
<!-- Node1 -->
<g id="node1" class="node"><title>Node1</title>
<polygon fill="#bfbfbf" stroke="black" points="154.5,-0.5 154.5,-57.5 259.5,-57.5 259.5,-0.5 154.5,-0.5"/>
<text text-anchor="middle" x="207" y="-45.5" font-family="Helvetica,sans-Serif" font-size="10.00">GManager::Trayicon</text>
<polyline fill="none" stroke="black" points="154.5,-38.5 259.5,-38.5 "/>
<text text-anchor="middle" x="207" y="-26.5" font-family="Helvetica,sans-Serif" font-size="10.00"> </text>
<polyline fill="none" stroke="black" points="154.5,-19.5 259.5,-19.5 "/>
<text text-anchor="start" x="162.5" y="-7.5" font-family="Helvetica,sans-Serif" font-size="10.00">+ Trayicon()</text>
</g>
<!-- Node2 -->
<g id="node2" class="node"><title>Node2</title>
<a xlink:href="classGtk_1_1StatusIcon.html" target="_top" xlink:title="{Gtk::StatusIcon\n||}">
<polygon fill="white" stroke="black" points="48,-129.5 48,-186.5 134,-186.5 134,-129.5 48,-129.5"/>
<text text-anchor="middle" x="91" y="-174.5" font-family="Helvetica,sans-Serif" font-size="10.00">Gtk::StatusIcon</text>
<polyline fill="none" stroke="black" points="48,-167.5 134,-167.5 "/>
<text text-anchor="middle" x="91" y="-155.5" font-family="Helvetica,sans-Serif" font-size="10.00"> </text>
<polyline fill="none" stroke="black" points="48,-148.5 134,-148.5 "/>
<text text-anchor="middle" x="91" y="-136.5" font-family="Helvetica,sans-Serif" font-size="10.00"> </text>
</a>
</g>
<!-- Node2&#45;&gt;Node1 -->
<g id="edge2" class="edge"><title>Node2&#45;&gt;Node1</title>
<path fill="none" stroke="midnightblue" d="M120.422,-121.707C127.697,-113.197 135.545,-104.198 143,-96 154.705,-83.1288 168.045,-69.2531 179.505,-57.5617"/>
<polygon fill="none" stroke="midnightblue" points="117.738,-119.46 113.929,-129.347 123.072,-123.993 117.738,-119.46"/>
</g>
<!-- Node3 -->
<g id="node4" class="node"><title>Node3</title>
<a xlink:href="classBrowser_1_1BasePopup.html" target="_top" xlink:title="A Baseclass for Widgets that want to implement easily popup widgets.">
<polygon fill="white" stroke="black" points="152.5,-96.5 152.5,-219.5 261.5,-219.5 261.5,-96.5 152.5,-96.5"/>
<text text-anchor="middle" x="207" y="-207.5" font-family="Helvetica,sans-Serif" font-size="10.00">Browser::BasePopup</text>
<polyline fill="none" stroke="black" points="152.5,-200.5 261.5,-200.5 "/>
<text text-anchor="start" x="160.5" y="-188.5" font-family="Helvetica,sans-Serif" font-size="10.00"># m_refUIManager</text>
<text text-anchor="start" x="160.5" y="-177.5" font-family="Helvetica,sans-Serif" font-size="10.00"># m_refActionGroup</text>
<text text-anchor="start" x="160.5" y="-166.5" font-family="Helvetica,sans-Serif" font-size="10.00"># m_UiDefinition</text>
<text text-anchor="start" x="160.5" y="-155.5" font-family="Helvetica,sans-Serif" font-size="10.00"># mp_Popup</text>
<polyline fill="none" stroke="black" points="152.5,-148.5 261.5,-148.5 "/>
<text text-anchor="start" x="160.5" y="-136.5" font-family="Helvetica,sans-Serif" font-size="10.00">+ BasePopup()</text>
<text text-anchor="start" x="160.5" y="-125.5" font-family="Helvetica,sans-Serif" font-size="10.00">+ get_action()</text>
<text text-anchor="start" x="160.5" y="-114.5" font-family="Helvetica,sans-Serif" font-size="10.00"># menu_add_item()</text>
<text text-anchor="start" x="160.5" y="-103.5" font-family="Helvetica,sans-Serif" font-size="10.00"># menu_construct()</text>
</a>
</g>
<!-- Node3&#45;&gt;Node1 -->
<g id="edge4" class="edge"><title>Node3&#45;&gt;Node1</title>
<path fill="none" stroke="midnightblue" d="M207,-86.3222C207,-76.2122 207,-66.348 207,-57.7726"/>
<polygon fill="none" stroke="midnightblue" points="203.5,-86.4756 207,-96.4756 210.5,-86.4756 203.5,-86.4756"/>
</g>
<!-- Node4 -->
<g id="node6" class="node"><title>Node4</title>
<polygon fill="white" stroke="#bfbfbf" points="-0.5,-461.5 -0.5,-518.5 46.5,-518.5 46.5,-461.5 -0.5,-461.5"/>
<text text-anchor="middle" x="23" y="-506.5" font-family="Helvetica,sans-Serif" font-size="10.00">Menu *</text>
<polyline fill="none" stroke="#bfbfbf" points="-0.5,-499.5 46.5,-499.5 "/>
<text text-anchor="middle" x="23" y="-487.5" font-family="Helvetica,sans-Serif" font-size="10.00"> </text>
<polyline fill="none" stroke="#bfbfbf" points="-0.5,-480.5 46.5,-480.5 "/>
<text text-anchor="middle" x="23" y="-468.5" font-family="Helvetica,sans-Serif" font-size="10.00"> </text>
</g>
<!-- Node4&#45;&gt;Node3 -->
<g id="edge6" class="edge"><title>Node4&#45;&gt;Node3</title>
<path fill="none" stroke="#404040" d="M23.2623,-461.42C24.5347,-418.531 30.5387,-333.927 57,-268 63.0624,-252.896 64.7077,-247.392 78,-238 99.8041,-222.594 113.644,-232.079 141.529,-219.666"/>
<polygon fill="none" stroke="#404040" points="141.814,-219.519 145.312,-213.213 152.478,-214.015 148.981,-220.322 141.814,-219.519"/>
<text text-anchor="middle" x="103" y="-241.5" font-family="Helvetica,sans-Serif" font-size="10.00"> mp_Popup</text>
</g>
<!-- Node5 -->
<g id="node8" class="node"><title>Node5</title>
<polygon fill="white" stroke="#bfbfbf" points="66.5,-461.5 66.5,-518.5 119.5,-518.5 119.5,-461.5 66.5,-461.5"/>
<text text-anchor="middle" x="93" y="-506.5" font-family="Helvetica,sans-Serif" font-size="10.00">ustring *</text>
<polyline fill="none" stroke="#bfbfbf" points="66.5,-499.5 119.5,-499.5 "/>
<text text-anchor="middle" x="93" y="-487.5" font-family="Helvetica,sans-Serif" font-size="10.00"> </text>
<polyline fill="none" stroke="#bfbfbf" points="66.5,-480.5 119.5,-480.5 "/>
<text text-anchor="middle" x="93" y="-468.5" font-family="Helvetica,sans-Serif" font-size="10.00"> </text>
</g>
<!-- Node5&#45;&gt;Node3 -->
<g id="edge8" class="edge"><title>Node5&#45;&gt;Node3</title>
<path fill="none" stroke="#404040" d="M92.1349,-461.226C91.786,-412.958 96.235,-311.712 135,-238 137.895,-232.495 141.266,-227.078 144.939,-221.819"/>
<polygon fill="none" stroke="#404040" points="145.149,-221.537 145.533,-214.336 152.328,-211.921 151.944,-219.122 145.149,-221.537"/>
<text text-anchor="middle" x="169" y="-241.5" font-family="Helvetica,sans-Serif" font-size="10.00"> m_UiDefinition</text>
</g>
<!-- Node6 -->
<g id="node10" class="node"><title>Node6</title>
<polygon fill="white" stroke="#bfbfbf" points="137.5,-461.5 137.5,-518.5 276.5,-518.5 276.5,-461.5 137.5,-461.5"/>
<text text-anchor="middle" x="207" y="-506.5" font-family="Helvetica,sans-Serif" font-size="10.00">RefPtr&lt; Gtk::ActionGroup &gt;</text>
<polyline fill="none" stroke="#bfbfbf" points="137.5,-499.5 276.5,-499.5 "/>
<text text-anchor="middle" x="207" y="-487.5" font-family="Helvetica,sans-Serif" font-size="10.00"> </text>
<polyline fill="none" stroke="#bfbfbf" points="137.5,-480.5 276.5,-480.5 "/>
<text text-anchor="middle" x="207" y="-468.5" font-family="Helvetica,sans-Serif" font-size="10.00"> </text>
</g>
<!-- Node6&#45;&gt;Node3 -->
<g id="edge10" class="edge"><title>Node6&#45;&gt;Node3</title>
<path fill="none" stroke="#404040" d="M207,-461.432C207,-411.424 207,-304.246 207,-231.872"/>
<polygon fill="none" stroke="#404040" points="207,-231.678 203,-225.678 207,-219.678 211,-225.678 207,-231.678"/>
<text text-anchor="middle" x="248" y="-241.5" font-family="Helvetica,sans-Serif" font-size="10.00"> m_refActionGroup</text>
</g>
<!-- Node7 -->
<g id="node12" class="node"><title>Node7</title>
<polygon fill="white" stroke="#bfbfbf" points="294.5,-461.5 294.5,-518.5 427.5,-518.5 427.5,-461.5 294.5,-461.5"/>
<text text-anchor="middle" x="361" y="-506.5" font-family="Helvetica,sans-Serif" font-size="10.00">RefPtr&lt; Gtk::UIManager &gt;</text>
<polyline fill="none" stroke="#bfbfbf" points="294.5,-499.5 427.5,-499.5 "/>
<text text-anchor="middle" x="361" y="-487.5" font-family="Helvetica,sans-Serif" font-size="10.00"> </text>
<polyline fill="none" stroke="#bfbfbf" points="294.5,-480.5 427.5,-480.5 "/>
<text text-anchor="middle" x="361" y="-468.5" font-family="Helvetica,sans-Serif" font-size="10.00"> </text>
</g>
<!-- Node7&#45;&gt;Node3 -->
<g id="edge12" class="edge"><title>Node7&#45;&gt;Node3</title>
<path fill="none" stroke="#404040" d="M358.572,-461.404C353.264,-412.976 337.322,-310.914 293,-238 286.76,-227.735 278.802,-217.99 270.256,-209.074"/>
<polygon fill="none" stroke="#404040" points="270.075,-208.895 262.998,-207.511 261.554,-200.446 268.631,-201.83 270.075,-208.895"/>
<text text-anchor="middle" x="334" y="-241.5" font-family="Helvetica,sans-Serif" font-size="10.00"> m_refUIManager</text>
</g>
<!-- Node8 -->
<g id="node14" class="node"><title>Node8</title>
<a xlink:href="classMPD_1_1AbstractClientUser.html" target="_top" xlink:title="{MPD::AbstractClientUser\n|# mp_Client\l|+ AbstractClientUser()\l# on_client_update()\l# on_connection_change()\l}">
<polygon fill="white" stroke="black" points="351.5,-118.5 351.5,-197.5 482.5,-197.5 482.5,-118.5 351.5,-118.5"/>
<text text-anchor="middle" x="417" y="-185.5" font-family="Helvetica,sans-Serif" font-size="10.00">MPD::AbstractClientUser</text>
<polyline fill="none" stroke="black" points="351.5,-178.5 482.5,-178.5 "/>
<text text-anchor="start" x="359.5" y="-166.5" font-family="Helvetica,sans-Serif" font-size="10.00"># mp_Client</text>
<polyline fill="none" stroke="black" points="351.5,-159.5 482.5,-159.5 "/>
<text text-anchor="start" x="359.5" y="-147.5" font-family="Helvetica,sans-Serif" font-size="10.00">+ AbstractClientUser()</text>
<text text-anchor="start" x="359.5" y="-136.5" font-family="Helvetica,sans-Serif" font-size="10.00"># on_client_update()</text>
<text text-anchor="start" x="359.5" y="-125.5" font-family="Helvetica,sans-Serif" font-size="10.00"># on_connection_change()</text>
</a>
</g>
<!-- Node8&#45;&gt;Node1 -->
<g id="edge14" class="edge"><title>Node8&#45;&gt;Node1</title>
<path fill="none" stroke="midnightblue" d="M344.249,-113.003C313.8,-94.5886 279.344,-73.7509 252.572,-57.5605"/>
<polygon fill="none" stroke="midnightblue" points="342.77,-116.199 353.138,-118.379 346.392,-110.209 342.77,-116.199"/>
</g>
<!-- Node9 -->
<g id="node16" class="node"><title>Node9</title>
<a xlink:href="classMPD_1_1Client.html" target="_top" xlink:title="The client implements concrete commands of the MPD Protocol.">
<polygon fill="white" stroke="black" points="446,-269 446,-711 592,-711 592,-269 446,-269"/>
<text text-anchor="middle" x="519" y="-699" font-family="Helvetica,sans-Serif" font-size="10.00">MPD::Client</text>
<polyline fill="none" stroke="black" points="446,-692 592,-692 "/>
<text text-anchor="middle" x="519" y="-680" font-family="Helvetica,sans-Serif" font-size="10.00"> </text>
<polyline fill="none" stroke="black" points="446,-673 592,-673 "/>
<text text-anchor="start" x="454" y="-661" font-family="Helvetica,sans-Serif" font-size="10.00">+ Client()</text>
<text text-anchor="start" x="454" y="-650" font-family="Helvetica,sans-Serif" font-size="10.00">+ ~Client()</text>
<text text-anchor="start" x="454" y="-639" font-family="Helvetica,sans-Serif" font-size="10.00">+ connect()</text>
<text text-anchor="start" x="454" y="-628" font-family="Helvetica,sans-Serif" font-size="10.00">+ disconnect()</text>
<text text-anchor="start" x="454" y="-617" font-family="Helvetica,sans-Serif" font-size="10.00">+ playback_next()</text>
<text text-anchor="start" x="454" y="-606" font-family="Helvetica,sans-Serif" font-size="10.00">+ playback_prev()</text>
<text text-anchor="start" x="454" y="-595" font-family="Helvetica,sans-Serif" font-size="10.00">+ playback_stop()</text>
<text text-anchor="start" x="454" y="-584" font-family="Helvetica,sans-Serif" font-size="10.00">+ playback_play()</text>
<text text-anchor="start" x="454" y="-573" font-family="Helvetica,sans-Serif" font-size="10.00">+ playback_pause()</text>
<text text-anchor="start" x="454" y="-562" font-family="Helvetica,sans-Serif" font-size="10.00">+ playback_seek()</text>
<text text-anchor="start" x="454" y="-551" font-family="Helvetica,sans-Serif" font-size="10.00">and 5 more...+ playlist_save()</text>
<text text-anchor="start" x="454" y="-540" font-family="Helvetica,sans-Serif" font-size="10.00">+ queue_add()</text>
<text text-anchor="start" x="454" y="-529" font-family="Helvetica,sans-Serif" font-size="10.00">+ queue_clear()</text>
<text text-anchor="start" x="454" y="-518" font-family="Helvetica,sans-Serif" font-size="10.00">+ queue_delete()</text>
<text text-anchor="start" x="454" y="-507" font-family="Helvetica,sans-Serif" font-size="10.00">+ database_update()</text>
<text text-anchor="start" x="454" y="-496" font-family="Helvetica,sans-Serif" font-size="10.00">+ database_rescan()</text>
<text text-anchor="start" x="454" y="-485" font-family="Helvetica,sans-Serif" font-size="10.00">+ set_volume()</text>
<text text-anchor="start" x="454" y="-474" font-family="Helvetica,sans-Serif" font-size="10.00">+ fill_queue()</text>
<text text-anchor="start" x="454" y="-463" font-family="Helvetica,sans-Serif" font-size="10.00">+ fill_queue_changes()</text>
<text text-anchor="start" x="454" y="-452" font-family="Helvetica,sans-Serif" font-size="10.00">+ fill_playlists()</text>
<text text-anchor="start" x="454" y="-441" font-family="Helvetica,sans-Serif" font-size="10.00">+ fill_outputs()</text>
<text text-anchor="start" x="454" y="-430" font-family="Helvetica,sans-Serif" font-size="10.00">+ fill_filelist()</text>
<text text-anchor="start" x="454" y="-419" font-family="Helvetica,sans-Serif" font-size="10.00">+ send_command()</text>
<text text-anchor="start" x="454" y="-408" font-family="Helvetica,sans-Serif" font-size="10.00">* playlist_save()</text>
<text text-anchor="start" x="454" y="-397" font-family="Helvetica,sans-Serif" font-size="10.00">* queue_add()</text>
<text text-anchor="start" x="454" y="-386" font-family="Helvetica,sans-Serif" font-size="10.00">* queue_clear()</text>
<text text-anchor="start" x="454" y="-375" font-family="Helvetica,sans-Serif" font-size="10.00">* queue_delete()</text>
<text text-anchor="start" x="454" y="-364" font-family="Helvetica,sans-Serif" font-size="10.00">* database_update()</text>
<text text-anchor="start" x="454" y="-353" font-family="Helvetica,sans-Serif" font-size="10.00">* database_rescan()</text>
<text text-anchor="start" x="454" y="-342" font-family="Helvetica,sans-Serif" font-size="10.00">* set_volume()</text>
<text text-anchor="start" x="454" y="-331" font-family="Helvetica,sans-Serif" font-size="10.00">* fill_queue()</text>
<text text-anchor="start" x="454" y="-320" font-family="Helvetica,sans-Serif" font-size="10.00">* fill_queue_changes()</text>
<text text-anchor="start" x="454" y="-309" font-family="Helvetica,sans-Serif" font-size="10.00">* fill_playlists()</text>
<text text-anchor="start" x="454" y="-298" font-family="Helvetica,sans-Serif" font-size="10.00">* fill_outputs()</text>
<text text-anchor="start" x="454" y="-287" font-family="Helvetica,sans-Serif" font-size="10.00">* fill_filelist()</text>
<text text-anchor="start" x="454" y="-276" font-family="Helvetica,sans-Serif" font-size="10.00">* send_command()</text>
</a>
</g>
<!-- Node9&#45;&gt;Node8 -->
<g id="edge16" class="edge"><title>Node9&#45;&gt;Node8</title>
<path fill="none" stroke="#404040" d="M450.965,-268.885C444.168,-246.897 437.828,-226.385 432.509,-209.177"/>
<polygon fill="none" stroke="#404040" points="432.455,-209.001 426.862,-204.45 428.911,-197.536 434.505,-202.088 432.455,-209.001"/>
<text text-anchor="middle" x="468" y="-241.5" font-family="Helvetica,sans-Serif" font-size="10.00"> mp_Client</text>
</g>
<!-- Node10 -->
<g id="node18" class="node"><title>Node10</title>
<a xlink:href="classMPD_1_1BaseClient.html" target="_top" xlink:title="The Base to MPD::Client.">
<polygon fill="white" stroke="black" points="330,-750.5 330,-961.5 476,-961.5 476,-750.5 330,-750.5"/>
<text text-anchor="middle" x="403" y="-949.5" font-family="Helvetica,sans-Serif" font-size="10.00">MPD::BaseClient</text>
<polyline fill="none" stroke="black" points="330,-942.5 476,-942.5 "/>
<text text-anchor="start" x="338" y="-930.5" font-family="Helvetica,sans-Serif" font-size="10.00"># m_Conn</text>
<text text-anchor="start" x="338" y="-919.5" font-family="Helvetica,sans-Serif" font-size="10.00"># mp_Listener</text>
<text text-anchor="start" x="338" y="-908.5" font-family="Helvetica,sans-Serif" font-size="10.00"># m_ListBegun</text>
<polyline fill="none" stroke="black" points="330,-901.5 476,-901.5 "/>
<text text-anchor="start" x="338" y="-889.5" font-family="Helvetica,sans-Serif" font-size="10.00">+ go_idle()</text>
<text text-anchor="start" x="338" y="-878.5" font-family="Helvetica,sans-Serif" font-size="10.00">+ go_busy()</text>
<text text-anchor="start" x="338" y="-867.5" font-family="Helvetica,sans-Serif" font-size="10.00">+ get_connection()</text>
<text text-anchor="start" x="338" y="-856.5" font-family="Helvetica,sans-Serif" font-size="10.00">+ is_connected()</text>
<text text-anchor="start" x="338" y="-845.5" font-family="Helvetica,sans-Serif" font-size="10.00">+ begin()</text>
<text text-anchor="start" x="338" y="-834.5" font-family="Helvetica,sans-Serif" font-size="10.00">+ commit()</text>
<text text-anchor="start" x="338" y="-823.5" font-family="Helvetica,sans-Serif" font-size="10.00">+ get_status()</text>
<text text-anchor="start" x="338" y="-812.5" font-family="Helvetica,sans-Serif" font-size="10.00">+ signal_client_update()</text>
<text text-anchor="start" x="338" y="-801.5" font-family="Helvetica,sans-Serif" font-size="10.00">+ signal_connection_change()</text>
<text text-anchor="start" x="338" y="-790.5" font-family="Helvetica,sans-Serif" font-size="10.00">+ force_update()</text>
<text text-anchor="start" x="338" y="-779.5" font-family="Helvetica,sans-Serif" font-size="10.00"># BaseClient()</text>
<text text-anchor="start" x="338" y="-768.5" font-family="Helvetica,sans-Serif" font-size="10.00"># __connect()</text>
<text text-anchor="start" x="338" y="-757.5" font-family="Helvetica,sans-Serif" font-size="10.00"># __disconnect()</text>
</a>
</g>
<!-- Node10&#45;&gt;Node9 -->
<g id="edge18" class="edge"><title>Node10&#45;&gt;Node9</title>
<path fill="none" stroke="midnightblue" d="M439.513,-740.426C442.536,-730.938 445.651,-721.166 448.816,-711.234"/>
<polygon fill="none" stroke="midnightblue" points="436.098,-739.614 436.396,-750.204 442.768,-741.739 436.098,-739.614"/>
</g>
<!-- Node11 -->
<g id="node20" class="node"><title>Node11</title>
<a xlink:href="classMPD_1_1Listener.html" target="_top" xlink:title="Listener for Server events, Freya&#39;s actual core.">
<polygon fill="white" stroke="black" points="223,-1032.5 223,-1155.5 367,-1155.5 367,-1032.5 223,-1032.5"/>
<text text-anchor="middle" x="295" y="-1143.5" font-family="Helvetica,sans-Serif" font-size="10.00">MPD::Listener</text>
<polyline fill="none" stroke="black" points="223,-1136.5 367,-1136.5 "/>
<text text-anchor="middle" x="295" y="-1124.5" font-family="Helvetica,sans-Serif" font-size="10.00"> </text>
<polyline fill="none" stroke="black" points="223,-1117.5 367,-1117.5 "/>
<text text-anchor="start" x="231" y="-1105.5" font-family="Helvetica,sans-Serif" font-size="10.00">+ Listener()</text>
<text text-anchor="start" x="231" y="-1094.5" font-family="Helvetica,sans-Serif" font-size="10.00">+ ~Listener()</text>
<text text-anchor="start" x="231" y="-1083.5" font-family="Helvetica,sans-Serif" font-size="10.00">+ enter()</text>
<text text-anchor="start" x="231" y="-1072.5" font-family="Helvetica,sans-Serif" font-size="10.00">+ leave()</text>
<text text-anchor="start" x="231" y="-1061.5" font-family="Helvetica,sans-Serif" font-size="10.00">+ is_idling()</text>
<text text-anchor="start" x="231" y="-1050.5" font-family="Helvetica,sans-Serif" font-size="10.00">+ signal_client_update_data()</text>
<text text-anchor="start" x="231" y="-1039.5" font-family="Helvetica,sans-Serif" font-size="10.00">+ force_update()</text>
</a>
</g>
<!-- Node11&#45;&gt;Node10 -->
<g id="edge20" class="edge"><title>Node11&#45;&gt;Node10</title>
<path fill="none" stroke="#404040" d="M319.39,-1032.28C326.458,-1015.26 334.34,-996.823 342,-980 343.103,-977.576 344.227,-975.13 345.366,-972.668"/>
<polygon fill="none" stroke="#404040" points="345.37,-972.659 344.288,-965.53 350.453,-961.789 351.535,-968.918 345.37,-972.659"/>
<text text-anchor="middle" x="370.5" y="-983.5" font-family="Helvetica,sans-Serif" font-size="10.00"> mp_Listener</text>
</g>
<!-- Node12 -->
<g id="node22" class="node"><title>Node12</title>
<polygon fill="white" stroke="#bfbfbf" points="385.5,-1065.5 385.5,-1122.5 420.5,-1122.5 420.5,-1065.5 385.5,-1065.5"/>
<text text-anchor="middle" x="403" y="-1110.5" font-family="Helvetica,sans-Serif" font-size="10.00">bool</text>
<polyline fill="none" stroke="#bfbfbf" points="385.5,-1103.5 420.5,-1103.5 "/>
<text text-anchor="middle" x="403" y="-1091.5" font-family="Helvetica,sans-Serif" font-size="10.00"> </text>
<polyline fill="none" stroke="#bfbfbf" points="385.5,-1084.5 420.5,-1084.5 "/>
<text text-anchor="middle" x="403" y="-1072.5" font-family="Helvetica,sans-Serif" font-size="10.00"> </text>
</g>
<!-- Node12&#45;&gt;Node10 -->
<g id="edge22" class="edge"><title>Node12&#45;&gt;Node10</title>
<path fill="none" stroke="#404040" d="M403,-1065.47C403,-1042.46 403,-1007.99 403,-973.675"/>
<polygon fill="none" stroke="#404040" points="403,-973.562 399,-967.562 403,-961.562 407,-967.562 403,-973.562"/>
<text text-anchor="middle" x="433.5" y="-983.5" font-family="Helvetica,sans-Serif" font-size="10.00"> m_ListBegun</text>
</g>
<!-- Node13 -->
<g id="node24" class="node"><title>Node13</title>
<a xlink:href="classMPD_1_1Connection.html" target="_top" xlink:title="A convinience Wrapper around mpd_connection*.">
<polygon fill="white" stroke="black" points="439,-1010.5 439,-1177.5 585,-1177.5 585,-1010.5 439,-1010.5"/>
<text text-anchor="middle" x="512" y="-1165.5" font-family="Helvetica,sans-Serif" font-size="10.00">MPD::Connection</text>
<polyline fill="none" stroke="black" points="439,-1158.5 585,-1158.5 "/>
<text text-anchor="middle" x="512" y="-1146.5" font-family="Helvetica,sans-Serif" font-size="10.00"> </text>
<polyline fill="none" stroke="black" points="439,-1139.5 585,-1139.5 "/>
<text text-anchor="start" x="447" y="-1127.5" font-family="Helvetica,sans-Serif" font-size="10.00">+ Connection()</text>
<text text-anchor="start" x="447" y="-1116.5" font-family="Helvetica,sans-Serif" font-size="10.00">+ ~Connection()</text>
<text text-anchor="start" x="447" y="-1105.5" font-family="Helvetica,sans-Serif" font-size="10.00">+ is_connected()</text>
<text text-anchor="start" x="447" y="-1094.5" font-family="Helvetica,sans-Serif" font-size="10.00">+ connect()</text>
<text text-anchor="start" x="447" y="-1083.5" font-family="Helvetica,sans-Serif" font-size="10.00">+ disconnect()</text>
<text text-anchor="start" x="447" y="-1072.5" font-family="Helvetica,sans-Serif" font-size="10.00">+ clear_error()</text>
<text text-anchor="start" x="447" y="-1061.5" font-family="Helvetica,sans-Serif" font-size="10.00">+ check_error()</text>
<text text-anchor="start" x="447" y="-1050.5" font-family="Helvetica,sans-Serif" font-size="10.00">+ signal_error()</text>
<text text-anchor="start" x="447" y="-1039.5" font-family="Helvetica,sans-Serif" font-size="10.00">+ signal_connection_change()</text>
<text text-anchor="start" x="447" y="-1028.5" font-family="Helvetica,sans-Serif" font-size="10.00">+ emit_connection_change()</text>
<text text-anchor="start" x="447" y="-1017.5" font-family="Helvetica,sans-Serif" font-size="10.00">+ get_connection()</text>
</a>
</g>
<!-- Node13&#45;&gt;Node10 -->
<g id="edge24" class="edge"><title>Node13&#45;&gt;Node10</title>
<path fill="none" stroke="#404040" d="M481.13,-1010.45C476.895,-1000.12 472.464,-989.765 468,-980 466.878,-977.546 465.731,-975.072 464.562,-972.584"/>
<polygon fill="none" stroke="#404040" points="464.49,-972.434 458.292,-968.748 459.311,-961.609 465.509,-965.295 464.49,-972.434"/>
<text text-anchor="middle" x="492" y="-983.5" font-family="Helvetica,sans-Serif" font-size="10.00"> m_Conn</text>
</g>
<!-- Node14 -->
<g id="node26" class="node"><title>Node14</title>
<a xlink:href="classMPD_1_1AbstractItemGenerator.html" target="_top" xlink:title="{MPD::AbstractItemGenerator\n||+ fill_queue()\l+ fill_queue_changes()\l+ fill_playlists()\l+ fill_outputs()\l+ fill_filelist()\l+ ~AbstractItemGenerator()\l}">
<polygon fill="white" stroke="black" points="494,-800 494,-912 638,-912 638,-800 494,-800"/>
<text text-anchor="middle" x="566" y="-900" font-family="Helvetica,sans-Serif" font-size="10.00">MPD::AbstractItemGenerator</text>
<polyline fill="none" stroke="black" points="494,-893 638,-893 "/>
<text text-anchor="middle" x="566" y="-881" font-family="Helvetica,sans-Serif" font-size="10.00"> </text>
<polyline fill="none" stroke="black" points="494,-874 638,-874 "/>
<text text-anchor="start" x="502" y="-862" font-family="Helvetica,sans-Serif" font-size="10.00">+ fill_queue()</text>
<text text-anchor="start" x="502" y="-851" font-family="Helvetica,sans-Serif" font-size="10.00">+ fill_queue_changes()</text>
<text text-anchor="start" x="502" y="-840" font-family="Helvetica,sans-Serif" font-size="10.00">+ fill_playlists()</text>
<text text-anchor="start" x="502" y="-829" font-family="Helvetica,sans-Serif" font-size="10.00">+ fill_outputs()</text>
<text text-anchor="start" x="502" y="-818" font-family="Helvetica,sans-Serif" font-size="10.00">+ fill_filelist()</text>
<text text-anchor="start" x="502" y="-807" font-family="Helvetica,sans-Serif" font-size="10.00">+ ~AbstractItemGenerator()</text>
</a>
</g>
<!-- Node14&#45;&gt;Node9 -->
<g id="edge26" class="edge"><title>Node14&#45;&gt;Node9</title>
<path fill="none" stroke="midnightblue" d="M557.547,-789.532C554.598,-766.698 551.105,-739.639 547.443,-711.283"/>
<polygon fill="none" stroke="midnightblue" points="554.11,-790.247 558.862,-799.716 561.052,-789.35 554.11,-790.247"/>
</g>
</g>
</svg>
