<?xml version="1.0" encoding="UTF-8" standalone="no"?>
<!DOCTYPE svg PUBLIC "-//W3C//DTD SVG 1.1//EN"
 "http://www.w3.org/Graphics/SVG/1.1/DTD/svg11.dtd">
<!-- Generated by graphviz version 2.28.0 (20111204.1018)
 -->
<!-- Title: G Pages: 1 -->
<svg width="372pt" height="180pt"
 viewBox="0.00 0.00 372.00 180.00" xmlns="http://www.w3.org/2000/svg" xmlns:xlink="http://www.w3.org/1999/xlink">
<g id="graph1" class="graph" transform="scale(1 1) rotate(0) translate(4 176)">
<title>G</title>
<polygon fill="white" stroke="white" points="-4,5 -4,-176 369,-176 369,5 -4,5"/>
<!-- Node1 -->
<g id="node1" class="node"><title>Node1</title>
<polygon fill="#bfbfbf" stroke="black" points="0.5,-76.5 0.5,-95.5 113.5,-95.5 113.5,-76.5 0.5,-76.5"/>
<text text-anchor="middle" x="57" y="-83.5" font-family="Helvetica,sans-Serif" font-size="10.00">MPDTestSuite::setUp</text>
</g>
<!-- Node2 -->
<g id="node3" class="node"><title>Node2</title>
<a xlink:href="classMPD_1_1BaseClient.html#ad6846d7cfc8fd752baf8da42bdbfc01e" target="_top" xlink:title="Get the notify sigc::signal.">
<polygon fill="white" stroke="black" points="163,-152.5 163,-171.5 351,-171.5 351,-152.5 163,-152.5"/>
<text text-anchor="middle" x="257" y="-159.5" font-family="Helvetica,sans-Serif" font-size="10.00">MPD::BaseClient::signal_client_update</text>
</a>
</g>
<!-- Node1&#45;&gt;Node2 -->
<g id="edge2" class="edge"><title>Node1&#45;&gt;Node2</title>
<path fill="none" stroke="midnightblue" d="M70.0044,-95.5337C86.8539,-108.405 118.946,-131.097 150,-143 157.119,-145.729 164.661,-148.07 172.308,-150.079"/>
<polygon fill="midnightblue" stroke="midnightblue" points="171.484,-153.48 182.029,-152.449 173.143,-146.68 171.484,-153.48"/>
</g>
<!-- Node3 -->
<g id="node5" class="node"><title>Node3</title>
<a xlink:href="classMPDTestSuite.html#add092e38e59bb2d84279ede952925a09" target="_top" xlink:title="MPDTestSuite::clientUpdate">
<polygon fill="white" stroke="black" points="186,-114.5 186,-133.5 328,-133.5 328,-114.5 186,-114.5"/>
<text text-anchor="middle" x="257" y="-121.5" font-family="Helvetica,sans-Serif" font-size="10.00">MPDTestSuite::clientUpdate</text>
</a>
</g>
<!-- Node1&#45;&gt;Node3 -->
<g id="edge4" class="edge"><title>Node1&#45;&gt;Node3</title>
<path fill="none" stroke="midnightblue" d="M102.875,-95.5139C117.845,-98.6221 134.626,-102.035 150,-105 163.239,-107.553 177.431,-110.176 190.989,-112.626"/>
<polygon fill="midnightblue" stroke="midnightblue" points="190.745,-116.138 201.206,-114.462 191.983,-109.248 190.745,-116.138"/>
</g>
<!-- Node4 -->
<g id="node7" class="node"><title>Node4</title>
<a xlink:href="classMPD_1_1BaseClient.html#a7de1b19d75cc7147d48bdf05c33c151c" target="_top" xlink:title="Register for connection changes.">
<polygon fill="white" stroke="black" points="150,-76.5 150,-95.5 364,-95.5 364,-76.5 150,-76.5"/>
<text text-anchor="middle" x="257" y="-83.5" font-family="Helvetica,sans-Serif" font-size="10.00">MPD::BaseClient::signal_connection_change</text>
</a>
</g>
<!-- Node1&#45;&gt;Node4 -->
<g id="edge6" class="edge"><title>Node1&#45;&gt;Node4</title>
<path fill="none" stroke="midnightblue" d="M113.681,-86C121.908,-86 130.633,-86 139.553,-86"/>
<polygon fill="midnightblue" stroke="midnightblue" points="139.69,-89.5001 149.69,-86 139.69,-82.5001 139.69,-89.5001"/>
</g>
<!-- Node5 -->
<g id="node9" class="node"><title>Node5</title>
<a xlink:href="classMPDTestSuite.html#a64d2528994af467ea691d14ee4c2590a" target="_top" xlink:title="MPDTestSuite::connectionChange">
<polygon fill="white" stroke="black" points="173,-38.5 173,-57.5 341,-57.5 341,-38.5 173,-38.5"/>
<text text-anchor="middle" x="257" y="-45.5" font-family="Helvetica,sans-Serif" font-size="10.00">MPDTestSuite::connectionChange</text>
</a>
</g>
<!-- Node1&#45;&gt;Node5 -->
<g id="edge8" class="edge"><title>Node1&#45;&gt;Node5</title>
<path fill="none" stroke="midnightblue" d="M102.875,-76.4861C117.845,-73.3779 134.626,-69.9648 150,-67 163.239,-64.4468 177.431,-61.8244 190.989,-59.3742"/>
<polygon fill="midnightblue" stroke="midnightblue" points="191.983,-62.7517 201.206,-57.5382 190.745,-55.862 191.983,-62.7517"/>
</g>
<!-- Node6 -->
<g id="node11" class="node"><title>Node6</title>
<a xlink:href="classMPD_1_1Client.html#a2144f99e66aeacfc25e6cea72b12e1de" target="_top" xlink:title="Connect to the MPD Server specified in the config.">
<polygon fill="white" stroke="black" points="201.5,-0.5 201.5,-19.5 312.5,-19.5 312.5,-0.5 201.5,-0.5"/>
<text text-anchor="middle" x="257" y="-7.5" font-family="Helvetica,sans-Serif" font-size="10.00">MPD::Client::connect</text>
</a>
</g>
<!-- Node1&#45;&gt;Node6 -->
<g id="edge10" class="edge"><title>Node1&#45;&gt;Node6</title>
<path fill="none" stroke="midnightblue" d="M70.0044,-76.4663C86.8539,-63.5947 118.946,-40.9028 150,-29 162.994,-24.0194 177.393,-20.3288 191.282,-17.5991"/>
<polygon fill="midnightblue" stroke="midnightblue" points="192.067,-21.0137 201.277,-15.7766 190.812,-14.1273 192.067,-21.0137"/>
</g>
</g>
</svg>
