<?xml version="1.0" encoding="UTF-8" standalone="no"?>
<!DOCTYPE svg PUBLIC "-//W3C//DTD SVG 1.1//EN"
 "http://www.w3.org/Graphics/SVG/1.1/DTD/svg11.dtd">
<!-- Generated by graphviz version 2.28.0 (20111204.1018)
 -->
<!-- Title: G Pages: 1 -->
<svg width="435pt" height="238pt"
 viewBox="0.00 0.00 435.00 238.00" xmlns="http://www.w3.org/2000/svg" xmlns:xlink="http://www.w3.org/1999/xlink">
<g id="graph1" class="graph" transform="scale(1 1) rotate(0) translate(4 234)">
<title>G</title>
<polygon fill="white" stroke="white" points="-4,5 -4,-234 432,-234 432,5 -4,5"/>
<!-- Node1 -->
<g id="node1" class="node"><title>Node1</title>
<polygon fill="#bfbfbf" stroke="black" points="95.5,-0.5 95.5,-123.5 204.5,-123.5 204.5,-0.5 95.5,-0.5"/>
<text text-anchor="middle" x="150" y="-111.5" font-family="Helvetica,sans-Serif" font-size="10.00">Browser::BasePopup</text>
<polyline fill="none" stroke="black" points="95.5,-104.5 204.5,-104.5 "/>
<text text-anchor="start" x="103.5" y="-92.5" font-family="Helvetica,sans-Serif" font-size="10.00"># m_refUIManager</text>
<text text-anchor="start" x="103.5" y="-81.5" font-family="Helvetica,sans-Serif" font-size="10.00"># m_refActionGroup</text>
<text text-anchor="start" x="103.5" y="-70.5" font-family="Helvetica,sans-Serif" font-size="10.00"># m_UiDefinition</text>
<text text-anchor="start" x="103.5" y="-59.5" font-family="Helvetica,sans-Serif" font-size="10.00"># mp_Popup</text>
<polyline fill="none" stroke="black" points="95.5,-52.5 204.5,-52.5 "/>
<text text-anchor="start" x="103.5" y="-40.5" font-family="Helvetica,sans-Serif" font-size="10.00">+ BasePopup()</text>
<text text-anchor="start" x="103.5" y="-29.5" font-family="Helvetica,sans-Serif" font-size="10.00">+ get_action()</text>
<text text-anchor="start" x="103.5" y="-18.5" font-family="Helvetica,sans-Serif" font-size="10.00"># menu_add_item()</text>
<text text-anchor="start" x="103.5" y="-7.5" font-family="Helvetica,sans-Serif" font-size="10.00"># menu_construct()</text>
</g>
<!-- Node2 -->
<g id="node2" class="node"><title>Node2</title>
<polygon fill="white" stroke="#bfbfbf" points="-0.5,-172.5 -0.5,-229.5 46.5,-229.5 46.5,-172.5 -0.5,-172.5"/>
<text text-anchor="middle" x="23" y="-217.5" font-family="Helvetica,sans-Serif" font-size="10.00">Menu *</text>
<polyline fill="none" stroke="#bfbfbf" points="-0.5,-210.5 46.5,-210.5 "/>
<text text-anchor="middle" x="23" y="-198.5" font-family="Helvetica,sans-Serif" font-size="10.00"> </text>
<polyline fill="none" stroke="#bfbfbf" points="-0.5,-191.5 46.5,-191.5 "/>
<text text-anchor="middle" x="23" y="-179.5" font-family="Helvetica,sans-Serif" font-size="10.00"> </text>
</g>
<!-- Node2&#45;&gt;Node1 -->
<g id="edge2" class="edge"><title>Node2&#45;&gt;Node1</title>
<path fill="none" stroke="#404040" d="M37.3479,-172.229C43.1226,-162.227 50.2526,-151.159 58,-142 66.432,-132.032 76.1777,-122.257 86.1058,-113.167"/>
<polygon fill="none" stroke="#404040" points="86.283,-113.01 88.1015,-106.031 95.2422,-105.026 93.4237,-112.004 86.283,-113.01"/>
<text text-anchor="middle" x="83" y="-145.5" font-family="Helvetica,sans-Serif" font-size="10.00"> mp_Popup</text>
</g>
<!-- Node3 -->
<g id="node4" class="node"><title>Node3</title>
<polygon fill="white" stroke="#bfbfbf" points="66.5,-172.5 66.5,-229.5 119.5,-229.5 119.5,-172.5 66.5,-172.5"/>
<text text-anchor="middle" x="93" y="-217.5" font-family="Helvetica,sans-Serif" font-size="10.00">ustring *</text>
<polyline fill="none" stroke="#bfbfbf" points="66.5,-210.5 119.5,-210.5 "/>
<text text-anchor="middle" x="93" y="-198.5" font-family="Helvetica,sans-Serif" font-size="10.00"> </text>
<polyline fill="none" stroke="#bfbfbf" points="66.5,-191.5 119.5,-191.5 "/>
<text text-anchor="middle" x="93" y="-179.5" font-family="Helvetica,sans-Serif" font-size="10.00"> </text>
</g>
<!-- Node3&#45;&gt;Node1 -->
<g id="edge4" class="edge"><title>Node3&#45;&gt;Node1</title>
<path fill="none" stroke="#404040" d="M104.456,-172.26C108.422,-162.672 112.9,-151.861 117,-142 117.958,-139.695 118.933,-137.352 119.918,-134.986"/>
<polygon fill="none" stroke="#404040" points="119.961,-134.882 118.576,-127.806 124.576,-123.805 125.961,-130.882 119.961,-134.882"/>
<text text-anchor="middle" x="151" y="-145.5" font-family="Helvetica,sans-Serif" font-size="10.00"> m_UiDefinition</text>
</g>
<!-- Node4 -->
<g id="node6" class="node"><title>Node4</title>
<polygon fill="white" stroke="#bfbfbf" points="137.5,-172.5 137.5,-229.5 276.5,-229.5 276.5,-172.5 137.5,-172.5"/>
<text text-anchor="middle" x="207" y="-217.5" font-family="Helvetica,sans-Serif" font-size="10.00">RefPtr&lt; Gtk::ActionGroup &gt;</text>
<polyline fill="none" stroke="#bfbfbf" points="137.5,-210.5 276.5,-210.5 "/>
<text text-anchor="middle" x="207" y="-198.5" font-family="Helvetica,sans-Serif" font-size="10.00"> </text>
<polyline fill="none" stroke="#bfbfbf" points="137.5,-191.5 276.5,-191.5 "/>
<text text-anchor="middle" x="207" y="-179.5" font-family="Helvetica,sans-Serif" font-size="10.00"> </text>
</g>
<!-- Node4&#45;&gt;Node1 -->
<g id="edge6" class="edge"><title>Node4&#45;&gt;Node1</title>
<path fill="none" stroke="#404040" d="M196.897,-172.441C193.26,-162.77 189.051,-151.862 185,-142 184.043,-139.669 183.06,-137.304 182.06,-134.92"/>
<polygon fill="none" stroke="#404040" points="181.973,-134.714 175.944,-130.757 177.279,-123.671 183.307,-127.628 181.973,-134.714"/>
<text text-anchor="middle" x="230" y="-145.5" font-family="Helvetica,sans-Serif" font-size="10.00"> m_refActionGroup</text>
</g>
<!-- Node5 -->
<g id="node8" class="node"><title>Node5</title>
<polygon fill="white" stroke="#bfbfbf" points="294.5,-172.5 294.5,-229.5 427.5,-229.5 427.5,-172.5 294.5,-172.5"/>
<text text-anchor="middle" x="361" y="-217.5" font-family="Helvetica,sans-Serif" font-size="10.00">RefPtr&lt; Gtk::UIManager &gt;</text>
<polyline fill="none" stroke="#bfbfbf" points="294.5,-210.5 427.5,-210.5 "/>
<text text-anchor="middle" x="361" y="-198.5" font-family="Helvetica,sans-Serif" font-size="10.00"> </text>
<polyline fill="none" stroke="#bfbfbf" points="294.5,-191.5 427.5,-191.5 "/>
<text text-anchor="middle" x="361" y="-179.5" font-family="Helvetica,sans-Serif" font-size="10.00"> </text>
</g>
<!-- Node5&#45;&gt;Node1 -->
<g id="edge8" class="edge"><title>Node5&#45;&gt;Node1</title>
<path fill="none" stroke="#404040" d="M320.48,-172.312C306.171,-162.63 289.928,-151.748 275,-142 255.595,-129.329 234.332,-115.77 214.934,-103.526"/>
<polygon fill="none" stroke="#404040" points="214.831,-103.461 207.622,-103.647 204.678,-97.0643 211.886,-96.8782 214.831,-103.461"/>
<text text-anchor="middle" x="329" y="-145.5" font-family="Helvetica,sans-Serif" font-size="10.00"> m_refUIManager</text>
</g>
</g>
</svg>
