<?xml version="1.0" encoding="UTF-8" standalone="no"?>
<!DOCTYPE svg PUBLIC "-//W3C//DTD SVG 1.1//EN"
 "http://www.w3.org/Graphics/SVG/1.1/DTD/svg11.dtd">
<!-- Generated by graphviz version 2.28.0 (20111204.1018)
 -->
<!-- Title: G Pages: 1 -->
<svg width="423pt" height="1154pt"
 viewBox="0.00 0.00 423.00 1154.00" xmlns="http://www.w3.org/2000/svg" xmlns:xlink="http://www.w3.org/1999/xlink">
<g id="graph1" class="graph" transform="scale(1 1) rotate(0) translate(4 1150)">
<title>G</title>
<polygon fill="white" stroke="white" points="-4,5 -4,-1150 420,-1150 420,5 -4,5"/>
<!-- Node1 -->
<g id="node1" class="node"><title>Node1</title>
<polygon fill="#bfbfbf" stroke="black" points="247,-1 247,-69 357,-69 357,-1 247,-1"/>
<text text-anchor="middle" x="302" y="-57" font-family="Helvetica,sans-Serif" font-size="10.00">GManager::Statusbar</text>
<polyline fill="none" stroke="black" points="247,-50 357,-50 "/>
<text text-anchor="middle" x="302" y="-38" font-family="Helvetica,sans-Serif" font-size="10.00"> </text>
<polyline fill="none" stroke="black" points="247,-31 357,-31 "/>
<text text-anchor="start" x="255" y="-19" font-family="Helvetica,sans-Serif" font-size="10.00">+ Statusbar()</text>
<text text-anchor="start" x="255" y="-8" font-family="Helvetica,sans-Serif" font-size="10.00">+ ~Statusbar()</text>
</g>
<!-- Node2 -->
<g id="node2" class="node"><title>Node2</title>
<a xlink:href="classMPD_1_1AbstractClientUser.html" target="_top" xlink:title="{MPD::AbstractClientUser\n|# mp_Client\l|+ AbstractClientUser()\l# on_client_update()\l# on_connection_change()\l}">
<polygon fill="white" stroke="black" points="236.5,-108.5 236.5,-187.5 367.5,-187.5 367.5,-108.5 236.5,-108.5"/>
<text text-anchor="middle" x="302" y="-175.5" font-family="Helvetica,sans-Serif" font-size="10.00">MPD::AbstractClientUser</text>
<polyline fill="none" stroke="black" points="236.5,-168.5 367.5,-168.5 "/>
<text text-anchor="start" x="244.5" y="-156.5" font-family="Helvetica,sans-Serif" font-size="10.00"># mp_Client</text>
<polyline fill="none" stroke="black" points="236.5,-149.5 367.5,-149.5 "/>
<text text-anchor="start" x="244.5" y="-137.5" font-family="Helvetica,sans-Serif" font-size="10.00">+ AbstractClientUser()</text>
<text text-anchor="start" x="244.5" y="-126.5" font-family="Helvetica,sans-Serif" font-size="10.00"># on_client_update()</text>
<text text-anchor="start" x="244.5" y="-115.5" font-family="Helvetica,sans-Serif" font-size="10.00"># on_connection_change()</text>
</a>
</g>
<!-- Node2&#45;&gt;Node1 -->
<g id="edge2" class="edge"><title>Node2&#45;&gt;Node1</title>
<path fill="none" stroke="midnightblue" d="M302,-98.3974C302,-88.5607 302,-78.4304 302,-69.2684"/>
<polygon fill="none" stroke="midnightblue" points="298.5,-98.4891 302,-108.489 305.5,-98.4891 298.5,-98.4891"/>
</g>
<!-- Node3 -->
<g id="node4" class="node"><title>Node3</title>
<a xlink:href="classMPD_1_1Client.html" target="_top" xlink:title="The client implements concrete commands of the MPD Protocol.">
<polygon fill="white" stroke="black" points="229,-237 229,-679 375,-679 375,-237 229,-237"/>
<text text-anchor="middle" x="302" y="-667" font-family="Helvetica,sans-Serif" font-size="10.00">MPD::Client</text>
<polyline fill="none" stroke="black" points="229,-660 375,-660 "/>
<text text-anchor="middle" x="302" y="-648" font-family="Helvetica,sans-Serif" font-size="10.00"> </text>
<polyline fill="none" stroke="black" points="229,-641 375,-641 "/>
<text text-anchor="start" x="237" y="-629" font-family="Helvetica,sans-Serif" font-size="10.00">+ Client()</text>
<text text-anchor="start" x="237" y="-618" font-family="Helvetica,sans-Serif" font-size="10.00">+ ~Client()</text>
<text text-anchor="start" x="237" y="-607" font-family="Helvetica,sans-Serif" font-size="10.00">+ connect()</text>
<text text-anchor="start" x="237" y="-596" font-family="Helvetica,sans-Serif" font-size="10.00">+ disconnect()</text>
<text text-anchor="start" x="237" y="-585" font-family="Helvetica,sans-Serif" font-size="10.00">+ playback_next()</text>
<text text-anchor="start" x="237" y="-574" font-family="Helvetica,sans-Serif" font-size="10.00">+ playback_prev()</text>
<text text-anchor="start" x="237" y="-563" font-family="Helvetica,sans-Serif" font-size="10.00">+ playback_stop()</text>
<text text-anchor="start" x="237" y="-552" font-family="Helvetica,sans-Serif" font-size="10.00">+ playback_play()</text>
<text text-anchor="start" x="237" y="-541" font-family="Helvetica,sans-Serif" font-size="10.00">+ playback_pause()</text>
<text text-anchor="start" x="237" y="-530" font-family="Helvetica,sans-Serif" font-size="10.00">+ playback_seek()</text>
<text text-anchor="start" x="237" y="-519" font-family="Helvetica,sans-Serif" font-size="10.00">and 5 more...+ playlist_save()</text>
<text text-anchor="start" x="237" y="-508" font-family="Helvetica,sans-Serif" font-size="10.00">+ queue_add()</text>
<text text-anchor="start" x="237" y="-497" font-family="Helvetica,sans-Serif" font-size="10.00">+ queue_clear()</text>
<text text-anchor="start" x="237" y="-486" font-family="Helvetica,sans-Serif" font-size="10.00">+ queue_delete()</text>
<text text-anchor="start" x="237" y="-475" font-family="Helvetica,sans-Serif" font-size="10.00">+ database_update()</text>
<text text-anchor="start" x="237" y="-464" font-family="Helvetica,sans-Serif" font-size="10.00">+ database_rescan()</text>
<text text-anchor="start" x="237" y="-453" font-family="Helvetica,sans-Serif" font-size="10.00">+ set_volume()</text>
<text text-anchor="start" x="237" y="-442" font-family="Helvetica,sans-Serif" font-size="10.00">+ fill_queue()</text>
<text text-anchor="start" x="237" y="-431" font-family="Helvetica,sans-Serif" font-size="10.00">+ fill_queue_changes()</text>
<text text-anchor="start" x="237" y="-420" font-family="Helvetica,sans-Serif" font-size="10.00">+ fill_playlists()</text>
<text text-anchor="start" x="237" y="-409" font-family="Helvetica,sans-Serif" font-size="10.00">+ fill_outputs()</text>
<text text-anchor="start" x="237" y="-398" font-family="Helvetica,sans-Serif" font-size="10.00">+ fill_filelist()</text>
<text text-anchor="start" x="237" y="-387" font-family="Helvetica,sans-Serif" font-size="10.00">+ send_command()</text>
<text text-anchor="start" x="237" y="-376" font-family="Helvetica,sans-Serif" font-size="10.00">* playlist_save()</text>
<text text-anchor="start" x="237" y="-365" font-family="Helvetica,sans-Serif" font-size="10.00">* queue_add()</text>
<text text-anchor="start" x="237" y="-354" font-family="Helvetica,sans-Serif" font-size="10.00">* queue_clear()</text>
<text text-anchor="start" x="237" y="-343" font-family="Helvetica,sans-Serif" font-size="10.00">* queue_delete()</text>
<text text-anchor="start" x="237" y="-332" font-family="Helvetica,sans-Serif" font-size="10.00">* database_update()</text>
<text text-anchor="start" x="237" y="-321" font-family="Helvetica,sans-Serif" font-size="10.00">* database_rescan()</text>
<text text-anchor="start" x="237" y="-310" font-family="Helvetica,sans-Serif" font-size="10.00">* set_volume()</text>
<text text-anchor="start" x="237" y="-299" font-family="Helvetica,sans-Serif" font-size="10.00">* fill_queue()</text>
<text text-anchor="start" x="237" y="-288" font-family="Helvetica,sans-Serif" font-size="10.00">* fill_queue_changes()</text>
<text text-anchor="start" x="237" y="-277" font-family="Helvetica,sans-Serif" font-size="10.00">* fill_playlists()</text>
<text text-anchor="start" x="237" y="-266" font-family="Helvetica,sans-Serif" font-size="10.00">* fill_outputs()</text>
<text text-anchor="start" x="237" y="-255" font-family="Helvetica,sans-Serif" font-size="10.00">* fill_filelist()</text>
<text text-anchor="start" x="237" y="-244" font-family="Helvetica,sans-Serif" font-size="10.00">* send_command()</text>
</a>
</g>
<!-- Node3&#45;&gt;Node2 -->
<g id="edge4" class="edge"><title>Node3&#45;&gt;Node2</title>
<path fill="none" stroke="#404040" d="M302,-236.848C302,-223.483 302,-210.939 302,-199.745"/>
<polygon fill="none" stroke="#404040" points="302,-199.707 298,-193.708 302,-187.707 306,-193.707 302,-199.707"/>
<text text-anchor="middle" x="326" y="-209.5" font-family="Helvetica,sans-Serif" font-size="10.00"> mp_Client</text>
</g>
<!-- Node4 -->
<g id="node6" class="node"><title>Node4</title>
<a xlink:href="classMPD_1_1BaseClient.html" target="_top" xlink:title="The Base to MPD::Client.">
<polygon fill="white" stroke="black" points="107,-718.5 107,-929.5 253,-929.5 253,-718.5 107,-718.5"/>
<text text-anchor="middle" x="180" y="-917.5" font-family="Helvetica,sans-Serif" font-size="10.00">MPD::BaseClient</text>
<polyline fill="none" stroke="black" points="107,-910.5 253,-910.5 "/>
<text text-anchor="start" x="115" y="-898.5" font-family="Helvetica,sans-Serif" font-size="10.00"># m_Conn</text>
<text text-anchor="start" x="115" y="-887.5" font-family="Helvetica,sans-Serif" font-size="10.00"># mp_Listener</text>
<text text-anchor="start" x="115" y="-876.5" font-family="Helvetica,sans-Serif" font-size="10.00"># m_ListBegun</text>
<polyline fill="none" stroke="black" points="107,-869.5 253,-869.5 "/>
<text text-anchor="start" x="115" y="-857.5" font-family="Helvetica,sans-Serif" font-size="10.00">+ go_idle()</text>
<text text-anchor="start" x="115" y="-846.5" font-family="Helvetica,sans-Serif" font-size="10.00">+ go_busy()</text>
<text text-anchor="start" x="115" y="-835.5" font-family="Helvetica,sans-Serif" font-size="10.00">+ get_connection()</text>
<text text-anchor="start" x="115" y="-824.5" font-family="Helvetica,sans-Serif" font-size="10.00">+ is_connected()</text>
<text text-anchor="start" x="115" y="-813.5" font-family="Helvetica,sans-Serif" font-size="10.00">+ begin()</text>
<text text-anchor="start" x="115" y="-802.5" font-family="Helvetica,sans-Serif" font-size="10.00">+ commit()</text>
<text text-anchor="start" x="115" y="-791.5" font-family="Helvetica,sans-Serif" font-size="10.00">+ get_status()</text>
<text text-anchor="start" x="115" y="-780.5" font-family="Helvetica,sans-Serif" font-size="10.00">+ signal_client_update()</text>
<text text-anchor="start" x="115" y="-769.5" font-family="Helvetica,sans-Serif" font-size="10.00">+ signal_connection_change()</text>
<text text-anchor="start" x="115" y="-758.5" font-family="Helvetica,sans-Serif" font-size="10.00">+ force_update()</text>
<text text-anchor="start" x="115" y="-747.5" font-family="Helvetica,sans-Serif" font-size="10.00"># BaseClient()</text>
<text text-anchor="start" x="115" y="-736.5" font-family="Helvetica,sans-Serif" font-size="10.00"># __connect()</text>
<text text-anchor="start" x="115" y="-725.5" font-family="Helvetica,sans-Serif" font-size="10.00"># __disconnect()</text>
</a>
</g>
<!-- Node4&#45;&gt;Node3 -->
<g id="edge6" class="edge"><title>Node4&#45;&gt;Node3</title>
<path fill="none" stroke="midnightblue" d="M218.384,-708.478C221.821,-698.222 225.37,-687.633 228.978,-676.87"/>
<polygon fill="none" stroke="midnightblue" points="214.983,-707.611 215.124,-718.204 221.62,-709.835 214.983,-707.611"/>
</g>
<!-- Node5 -->
<g id="node8" class="node"><title>Node5</title>
<a xlink:href="classMPD_1_1Listener.html" target="_top" xlink:title="Listener for Server events, Freya&#39;s actual core.">
<polygon fill="white" stroke="black" points="0,-1000.5 0,-1123.5 144,-1123.5 144,-1000.5 0,-1000.5"/>
<text text-anchor="middle" x="72" y="-1111.5" font-family="Helvetica,sans-Serif" font-size="10.00">MPD::Listener</text>
<polyline fill="none" stroke="black" points="0,-1104.5 144,-1104.5 "/>
<text text-anchor="middle" x="72" y="-1092.5" font-family="Helvetica,sans-Serif" font-size="10.00"> </text>
<polyline fill="none" stroke="black" points="0,-1085.5 144,-1085.5 "/>
<text text-anchor="start" x="8" y="-1073.5" font-family="Helvetica,sans-Serif" font-size="10.00">+ Listener()</text>
<text text-anchor="start" x="8" y="-1062.5" font-family="Helvetica,sans-Serif" font-size="10.00">+ ~Listener()</text>
<text text-anchor="start" x="8" y="-1051.5" font-family="Helvetica,sans-Serif" font-size="10.00">+ enter()</text>
<text text-anchor="start" x="8" y="-1040.5" font-family="Helvetica,sans-Serif" font-size="10.00">+ leave()</text>
<text text-anchor="start" x="8" y="-1029.5" font-family="Helvetica,sans-Serif" font-size="10.00">+ is_idling()</text>
<text text-anchor="start" x="8" y="-1018.5" font-family="Helvetica,sans-Serif" font-size="10.00">+ signal_client_update_data()</text>
<text text-anchor="start" x="8" y="-1007.5" font-family="Helvetica,sans-Serif" font-size="10.00">+ force_update()</text>
</a>
</g>
<!-- Node5&#45;&gt;Node4 -->
<g id="edge8" class="edge"><title>Node5&#45;&gt;Node4</title>
<path fill="none" stroke="#404040" d="M96.3899,-1000.28C103.458,-983.263 111.34,-964.823 119,-948 120.103,-945.576 121.227,-943.13 122.366,-940.668"/>
<polygon fill="none" stroke="#404040" points="122.37,-940.659 121.288,-933.53 127.453,-929.789 128.535,-936.918 122.37,-940.659"/>
<text text-anchor="middle" x="147.5" y="-951.5" font-family="Helvetica,sans-Serif" font-size="10.00"> mp_Listener</text>
</g>
<!-- Node6 -->
<g id="node10" class="node"><title>Node6</title>
<polygon fill="white" stroke="#bfbfbf" points="162.5,-1033.5 162.5,-1090.5 197.5,-1090.5 197.5,-1033.5 162.5,-1033.5"/>
<text text-anchor="middle" x="180" y="-1078.5" font-family="Helvetica,sans-Serif" font-size="10.00">bool</text>
<polyline fill="none" stroke="#bfbfbf" points="162.5,-1071.5 197.5,-1071.5 "/>
<text text-anchor="middle" x="180" y="-1059.5" font-family="Helvetica,sans-Serif" font-size="10.00"> </text>
<polyline fill="none" stroke="#bfbfbf" points="162.5,-1052.5 197.5,-1052.5 "/>
<text text-anchor="middle" x="180" y="-1040.5" font-family="Helvetica,sans-Serif" font-size="10.00"> </text>
</g>
<!-- Node6&#45;&gt;Node4 -->
<g id="edge10" class="edge"><title>Node6&#45;&gt;Node4</title>
<path fill="none" stroke="#404040" d="M180,-1033.47C180,-1010.46 180,-975.994 180,-941.675"/>
<polygon fill="none" stroke="#404040" points="180,-941.562 176,-935.562 180,-929.562 184,-935.562 180,-941.562"/>
<text text-anchor="middle" x="210.5" y="-951.5" font-family="Helvetica,sans-Serif" font-size="10.00"> m_ListBegun</text>
</g>
<!-- Node7 -->
<g id="node12" class="node"><title>Node7</title>
<a xlink:href="classMPD_1_1Connection.html" target="_top" xlink:title="A convinience Wrapper around mpd_connection*.">
<polygon fill="white" stroke="black" points="216,-978.5 216,-1145.5 362,-1145.5 362,-978.5 216,-978.5"/>
<text text-anchor="middle" x="289" y="-1133.5" font-family="Helvetica,sans-Serif" font-size="10.00">MPD::Connection</text>
<polyline fill="none" stroke="black" points="216,-1126.5 362,-1126.5 "/>
<text text-anchor="middle" x="289" y="-1114.5" font-family="Helvetica,sans-Serif" font-size="10.00"> </text>
<polyline fill="none" stroke="black" points="216,-1107.5 362,-1107.5 "/>
<text text-anchor="start" x="224" y="-1095.5" font-family="Helvetica,sans-Serif" font-size="10.00">+ Connection()</text>
<text text-anchor="start" x="224" y="-1084.5" font-family="Helvetica,sans-Serif" font-size="10.00">+ ~Connection()</text>
<text text-anchor="start" x="224" y="-1073.5" font-family="Helvetica,sans-Serif" font-size="10.00">+ is_connected()</text>
<text text-anchor="start" x="224" y="-1062.5" font-family="Helvetica,sans-Serif" font-size="10.00">+ connect()</text>
<text text-anchor="start" x="224" y="-1051.5" font-family="Helvetica,sans-Serif" font-size="10.00">+ disconnect()</text>
<text text-anchor="start" x="224" y="-1040.5" font-family="Helvetica,sans-Serif" font-size="10.00">+ clear_error()</text>
<text text-anchor="start" x="224" y="-1029.5" font-family="Helvetica,sans-Serif" font-size="10.00">+ check_error()</text>
<text text-anchor="start" x="224" y="-1018.5" font-family="Helvetica,sans-Serif" font-size="10.00">+ signal_error()</text>
<text text-anchor="start" x="224" y="-1007.5" font-family="Helvetica,sans-Serif" font-size="10.00">+ signal_connection_change()</text>
<text text-anchor="start" x="224" y="-996.5" font-family="Helvetica,sans-Serif" font-size="10.00">+ emit_connection_change()</text>
<text text-anchor="start" x="224" y="-985.5" font-family="Helvetica,sans-Serif" font-size="10.00">+ get_connection()</text>
</a>
</g>
<!-- Node7&#45;&gt;Node4 -->
<g id="edge12" class="edge"><title>Node7&#45;&gt;Node4</title>
<path fill="none" stroke="#404040" d="M258.13,-978.453C253.895,-968.124 249.464,-957.765 245,-948 243.878,-945.546 242.731,-943.072 241.562,-940.584"/>
<polygon fill="none" stroke="#404040" points="241.49,-940.434 235.292,-936.748 236.311,-929.609 242.509,-933.295 241.49,-940.434"/>
<text text-anchor="middle" x="270" y="-951.5" font-family="Helvetica,sans-Serif" font-size="10.00"> m_Conn</text>
</g>
<!-- Node8 -->
<g id="node14" class="node"><title>Node8</title>
<a xlink:href="classMPD_1_1AbstractItemGenerator.html" target="_top" xlink:title="{MPD::AbstractItemGenerator\n||+ fill_queue()\l+ fill_queue_changes()\l+ fill_playlists()\l+ fill_outputs()\l+ fill_filelist()\l+ ~AbstractItemGenerator()\l}">
<polygon fill="white" stroke="black" points="271,-768 271,-880 415,-880 415,-768 271,-768"/>
<text text-anchor="middle" x="343" y="-868" font-family="Helvetica,sans-Serif" font-size="10.00">MPD::AbstractItemGenerator</text>
<polyline fill="none" stroke="black" points="271,-861 415,-861 "/>
<text text-anchor="middle" x="343" y="-849" font-family="Helvetica,sans-Serif" font-size="10.00"> </text>
<polyline fill="none" stroke="black" points="271,-842 415,-842 "/>
<text text-anchor="start" x="279" y="-830" font-family="Helvetica,sans-Serif" font-size="10.00">+ fill_queue()</text>
<text text-anchor="start" x="279" y="-819" font-family="Helvetica,sans-Serif" font-size="10.00">+ fill_queue_changes()</text>
<text text-anchor="start" x="279" y="-808" font-family="Helvetica,sans-Serif" font-size="10.00">+ fill_playlists()</text>
<text text-anchor="start" x="279" y="-797" font-family="Helvetica,sans-Serif" font-size="10.00">+ fill_outputs()</text>
<text text-anchor="start" x="279" y="-786" font-family="Helvetica,sans-Serif" font-size="10.00">+ fill_filelist()</text>
<text text-anchor="start" x="279" y="-775" font-family="Helvetica,sans-Serif" font-size="10.00">+ ~AbstractItemGenerator()</text>
</a>
</g>
<!-- Node8&#45;&gt;Node3 -->
<g id="edge14" class="edge"><title>Node8&#45;&gt;Node3</title>
<path fill="none" stroke="midnightblue" d="M335.626,-757.532C333.054,-734.698 330.006,-707.639 326.812,-679.283"/>
<polygon fill="none" stroke="midnightblue" points="332.176,-758.171 336.773,-767.716 339.132,-757.387 332.176,-758.171"/>
</g>
</g>
</svg>
