<?xml version="1.0" encoding="UTF-8" standalone="no"?>
<!DOCTYPE svg PUBLIC "-//W3C//DTD SVG 1.1//EN"
 "http://www.w3.org/Graphics/SVG/1.1/DTD/svg11.dtd">
<!-- Generated by graphviz version 2.28.0 (20111204.1018)
 -->
<!-- Title: G Pages: 1 -->
<svg width="122pt" height="194pt"
 viewBox="0.00 0.00 122.00 194.00" xmlns="http://www.w3.org/2000/svg" xmlns:xlink="http://www.w3.org/1999/xlink">
<g id="graph1" class="graph" transform="scale(1 1) rotate(0) translate(4 190)">
<title>G</title>
<polygon fill="white" stroke="white" points="-4,5 -4,-190 119,-190 119,5 -4,5"/>
<!-- Node1 -->
<g id="node1" class="node"><title>Node1</title>
<polygon fill="#bfbfbf" stroke="black" points="0,-1 0,-91 114,-91 114,-1 0,-1"/>
<text text-anchor="middle" x="57" y="-79" font-family="Helvetica,sans-Serif" font-size="10.00">NotifyTestSuite</text>
<polyline fill="none" stroke="black" points="0,-72 114,-72 "/>
<text text-anchor="middle" x="57" y="-60" font-family="Helvetica,sans-Serif" font-size="10.00"> </text>
<polyline fill="none" stroke="black" points="0,-53 114,-53 "/>
<text text-anchor="start" x="8" y="-41" font-family="Helvetica,sans-Serif" font-size="10.00">+ testsend_big()</text>
<text text-anchor="start" x="8" y="-30" font-family="Helvetica,sans-Serif" font-size="10.00">+ testsend_full()</text>
<text text-anchor="start" x="8" y="-19" font-family="Helvetica,sans-Serif" font-size="10.00">+ testset_stock_icon()</text>
<text text-anchor="start" x="8" y="-8" font-family="Helvetica,sans-Serif" font-size="10.00">+ testset_next_extra()</text>
</g>
<!-- Node2 -->
<g id="node2" class="node"><title>Node2</title>
<a xlink:href="classCxxTest_1_1TestSuite.html" target="_top" xlink:title="{TestSuite\n||}">
<polygon fill="white" stroke="black" points="27.5,-128.5 27.5,-185.5 86.5,-185.5 86.5,-128.5 27.5,-128.5"/>
<text text-anchor="middle" x="57" y="-173.5" font-family="Helvetica,sans-Serif" font-size="10.00">TestSuite</text>
<polyline fill="none" stroke="black" points="27.5,-166.5 86.5,-166.5 "/>
<text text-anchor="middle" x="57" y="-154.5" font-family="Helvetica,sans-Serif" font-size="10.00"> </text>
<polyline fill="none" stroke="black" points="27.5,-147.5 86.5,-147.5 "/>
<text text-anchor="middle" x="57" y="-135.5" font-family="Helvetica,sans-Serif" font-size="10.00"> </text>
</a>
</g>
<!-- Node2&#45;&gt;Node1 -->
<g id="edge2" class="edge"><title>Node2&#45;&gt;Node1</title>
<path fill="none" stroke="midnightblue" d="M57,-118.484C57,-109.643 57,-100.139 57,-91.0399"/>
<polygon fill="none" stroke="midnightblue" points="53.5001,-118.495 57,-128.495 60.5001,-118.495 53.5001,-118.495"/>
</g>
</g>
</svg>
