<?xml version="1.0" encoding="UTF-8" standalone="no"?>
<!DOCTYPE svg PUBLIC "-//W3C//DTD SVG 1.1//EN"
 "http://www.w3.org/Graphics/SVG/1.1/DTD/svg11.dtd">
<!-- Generated by graphviz version 2.28.0 (20111204.1018)
 -->
<!-- Title: G Pages: 1 -->
<svg width="108pt" height="160pt"
 viewBox="0.00 0.00 108.00 160.00" xmlns="http://www.w3.org/2000/svg" xmlns:xlink="http://www.w3.org/1999/xlink">
<g id="graph1" class="graph" transform="scale(1 1) rotate(0) translate(4 156)">
<title>G</title>
<polygon fill="white" stroke="white" points="-4,5 -4,-156 105,-156 105,5 -4,5"/>
<!-- Node1 -->
<g id="node1" class="node"><title>Node1</title>
<polygon fill="#bfbfbf" stroke="black" points="5,-0.5 5,-57.5 95,-57.5 95,-0.5 5,-0.5"/>
<text text-anchor="middle" x="50" y="-45.5" font-family="Helvetica,sans-Serif" font-size="10.00">LogTestSuite</text>
<polyline fill="none" stroke="black" points="5,-38.5 95,-38.5 "/>
<text text-anchor="middle" x="50" y="-26.5" font-family="Helvetica,sans-Serif" font-size="10.00"> </text>
<polyline fill="none" stroke="black" points="5,-19.5 95,-19.5 "/>
<text text-anchor="start" x="13" y="-7.5" font-family="Helvetica,sans-Serif" font-size="10.00">+ testLogWriter()</text>
</g>
<!-- Node2 -->
<g id="node2" class="node"><title>Node2</title>
<a xlink:href="classCxxTest_1_1TestSuite.html" target="_top" xlink:title="{CxxTest::TestSuite\n||}">
<polygon fill="white" stroke="black" points="-1,-94.5 -1,-151.5 101,-151.5 101,-94.5 -1,-94.5"/>
<text text-anchor="middle" x="50" y="-139.5" font-family="Helvetica,sans-Serif" font-size="10.00">CxxTest::TestSuite</text>
<polyline fill="none" stroke="black" points="-1,-132.5 101,-132.5 "/>
<text text-anchor="middle" x="50" y="-120.5" font-family="Helvetica,sans-Serif" font-size="10.00"> </text>
<polyline fill="none" stroke="black" points="-1,-113.5 101,-113.5 "/>
<text text-anchor="middle" x="50" y="-101.5" font-family="Helvetica,sans-Serif" font-size="10.00"> </text>
</a>
</g>
<!-- Node2&#45;&gt;Node1 -->
<g id="edge2" class="edge"><title>Node2&#45;&gt;Node1</title>
<path fill="none" stroke="midnightblue" d="M50,-84.2092C50,-75.2929 50,-65.9513 50,-57.5836"/>
<polygon fill="none" stroke="midnightblue" points="46.5001,-84.3969 50,-94.397 53.5001,-84.397 46.5001,-84.3969"/>
</g>
</g>
</svg>
