<?xml version="1.0" encoding="UTF-8" standalone="no"?>
<!DOCTYPE svg PUBLIC "-//W3C//DTD SVG 1.1//EN"
 "http://www.w3.org/Graphics/SVG/1.1/DTD/svg11.dtd">
<!-- Generated by graphviz version 2.28.0 (20111204.1018)
 -->
<!-- Title: G Pages: 1 -->
<svg width="271pt" height="216pt"
 viewBox="0.00 0.00 271.00 216.00" xmlns="http://www.w3.org/2000/svg" xmlns:xlink="http://www.w3.org/1999/xlink">
<g id="graph1" class="graph" transform="scale(1 1) rotate(0) translate(4 212)">
<title>G</title>
<polygon fill="white" stroke="white" points="-4,5 -4,-212 268,-212 268,5 -4,5"/>
<!-- Node1 -->
<g id="node1" class="node"><title>Node1</title>
<polygon fill="#bfbfbf" stroke="black" points="65.5,-1 65.5,-91 188.5,-91 188.5,-1 65.5,-1"/>
<text text-anchor="middle" x="127" y="-79" font-family="Helvetica,sans-Serif" font-size="10.00">Browser::QueueMerger</text>
<polyline fill="none" stroke="black" points="65.5,-72 188.5,-72 "/>
<text text-anchor="middle" x="127" y="-60" font-family="Helvetica,sans-Serif" font-size="10.00"> </text>
<polyline fill="none" stroke="black" points="65.5,-53 188.5,-53 "/>
<text text-anchor="start" x="73.5" y="-41" font-family="Helvetica,sans-Serif" font-size="10.00">+ QueueMerger()</text>
<text text-anchor="start" x="73.5" y="-30" font-family="Helvetica,sans-Serif" font-size="10.00">+ add_item()</text>
<text text-anchor="start" x="73.5" y="-19" font-family="Helvetica,sans-Serif" font-size="10.00">+ disable_merge_once()</text>
<text text-anchor="start" x="73.5" y="-8" font-family="Helvetica,sans-Serif" font-size="10.00">+ recalculate_positions()</text>
</g>
<!-- Node2 -->
<g id="node2" class="node"><title>Node2</title>
<a xlink:href="classMPD_1_1AbstractItemlist.html" target="_top" xlink:title="Inhertit from this class to use MPD::Client&#39;s fill_* methods.">
<polygon fill="white" stroke="black" points="0,-134 0,-202 114,-202 114,-134 0,-134"/>
<text text-anchor="middle" x="57" y="-190" font-family="Helvetica,sans-Serif" font-size="10.00">MPD::AbstractItemlist</text>
<polyline fill="none" stroke="black" points="0,-183 114,-183 "/>
<text text-anchor="middle" x="57" y="-171" font-family="Helvetica,sans-Serif" font-size="10.00"> </text>
<polyline fill="none" stroke="black" points="0,-164 114,-164 "/>
<text text-anchor="start" x="8" y="-152" font-family="Helvetica,sans-Serif" font-size="10.00">+ add_item()</text>
<text text-anchor="start" x="8" y="-141" font-family="Helvetica,sans-Serif" font-size="10.00">+ ~AbstractItemlist()</text>
</a>
</g>
<!-- Node2&#45;&gt;Node1 -->
<g id="edge2" class="edge"><title>Node2&#45;&gt;Node1</title>
<path fill="none" stroke="midnightblue" d="M81.5208,-124.964C87.8881,-114.049 94.7652,-102.26 101.196,-91.2349"/>
<polygon fill="none" stroke="midnightblue" points="78.3286,-123.49 76.3131,-133.892 84.3751,-127.018 78.3286,-123.49"/>
</g>
<!-- Node3 -->
<g id="node4" class="node"><title>Node3</title>
<a xlink:href="classMPD_1_1AbstractClientUser.html" target="_top" xlink:title="{MPD::AbstractClientUser\n|# mp_Client\l|+ AbstractClientUser()\l# on_client_update()\l# on_connection_change()\l}">
<polygon fill="white" stroke="black" points="132.5,-128.5 132.5,-207.5 263.5,-207.5 263.5,-128.5 132.5,-128.5"/>
<text text-anchor="middle" x="198" y="-195.5" font-family="Helvetica,sans-Serif" font-size="10.00">MPD::AbstractClientUser</text>
<polyline fill="none" stroke="black" points="132.5,-188.5 263.5,-188.5 "/>
<text text-anchor="start" x="140.5" y="-176.5" font-family="Helvetica,sans-Serif" font-size="10.00"># mp_Client</text>
<polyline fill="none" stroke="black" points="132.5,-169.5 263.5,-169.5 "/>
<text text-anchor="start" x="140.5" y="-157.5" font-family="Helvetica,sans-Serif" font-size="10.00">+ AbstractClientUser()</text>
<text text-anchor="start" x="140.5" y="-146.5" font-family="Helvetica,sans-Serif" font-size="10.00"># on_client_update()</text>
<text text-anchor="start" x="140.5" y="-135.5" font-family="Helvetica,sans-Serif" font-size="10.00"># on_connection_change()</text>
</a>
</g>
<!-- Node3&#45;&gt;Node1 -->
<g id="edge4" class="edge"><title>Node3&#45;&gt;Node1</title>
<path fill="none" stroke="midnightblue" d="M169.965,-119.617C164.464,-110.319 158.712,-100.597 153.271,-91.4012"/>
<polygon fill="none" stroke="midnightblue" points="167.04,-121.547 175.144,-128.371 173.064,-117.982 167.04,-121.547"/>
</g>
</g>
</svg>
