<?xml version="1.0" encoding="UTF-8" standalone="no"?>
<!DOCTYPE svg PUBLIC "-//W3C//DTD SVG 1.1//EN"
 "http://www.w3.org/Graphics/SVG/1.1/DTD/svg11.dtd">
<!-- Generated by graphviz version 2.28.0 (20120217.0315)
 -->
<!-- Title: G Pages: 1 -->
<svg width="1289pt" height="398pt"
 viewBox="0.00 0.00 1289.00 398.00" xmlns="http://www.w3.org/2000/svg" xmlns:xlink="http://www.w3.org/1999/xlink">
<g id="graph1" class="graph" transform="scale(1 1) rotate(0) translate(4 394)">
<title>G</title>
<polygon fill="white" stroke="white" points="-4,5 -4,-394 1286,-394 1286,5 -4,5"/>
<!-- Node1 -->
<g id="node1" class="node"><title>Node1</title>
<polygon fill="#bfbfbf" stroke="black" points="412.5,-0.5 412.5,-123.5 519.5,-123.5 519.5,-0.5 412.5,-0.5"/>
<text text-anchor="middle" x="466" y="-111.5" font-family="Helvetica,sans-Serif" font-size="10.00">Avahi::View</text>
<polyline fill="none" stroke="black" points="412.5,-104.5 519.5,-104.5 "/>
<text text-anchor="start" x="420.5" y="-92.5" font-family="Helvetica,sans-Serif" font-size="10.00"># m_Button_Cancel</text>
<text text-anchor="start" x="420.5" y="-81.5" font-family="Helvetica,sans-Serif" font-size="10.00"># m_Button_Select</text>
<polyline fill="none" stroke="black" points="412.5,-74.5 519.5,-74.5 "/>
<text text-anchor="start" x="420.5" y="-62.5" font-family="Helvetica,sans-Serif" font-size="10.00">+ View()</text>
<text text-anchor="start" x="420.5" y="-51.5" font-family="Helvetica,sans-Serif" font-size="10.00">+ server_append()</text>
<text text-anchor="start" x="420.5" y="-40.5" font-family="Helvetica,sans-Serif" font-size="10.00">+ server_delete()</text>
<text text-anchor="start" x="420.5" y="-29.5" font-family="Helvetica,sans-Serif" font-size="10.00">+ set_status()</text>
<text text-anchor="start" x="420.5" y="-18.5" font-family="Helvetica,sans-Serif" font-size="10.00"># on_button_cancel()</text>
<text text-anchor="start" x="420.5" y="-7.5" font-family="Helvetica,sans-Serif" font-size="10.00"># on_button_select()</text>
</g>
<!-- Node2 -->
<g id="node2" class="node"><title>Node2</title>
<a xlink:href="classGtk_1_1Window.html" target="_top" xlink:title="{Gtk::Window\n||}">
<polygon fill="white" stroke="black" points="0,-193.5 0,-250.5 74,-250.5 74,-193.5 0,-193.5"/>
<text text-anchor="middle" x="37" y="-238.5" font-family="Helvetica,sans-Serif" font-size="10.00">Gtk::Window</text>
<polyline fill="none" stroke="black" points="0,-231.5 74,-231.5 "/>
<text text-anchor="middle" x="37" y="-219.5" font-family="Helvetica,sans-Serif" font-size="10.00"> </text>
<polyline fill="none" stroke="black" points="0,-212.5 74,-212.5 "/>
<text text-anchor="middle" x="37" y="-200.5" font-family="Helvetica,sans-Serif" font-size="10.00"> </text>
</a>
</g>
<!-- Node2&#45;&gt;Node1 -->
<g id="edge2" class="edge"><title>Node2&#45;&gt;Node1</title>
<path fill="none" stroke="midnightblue" d="M72.9495,-186.508C91.3617,-170.666 114.935,-152.997 139,-142 230.101,-100.368 345.897,-79.0616 412.415,-69.5318"/>
<polygon fill="none" stroke="midnightblue" points="70.584,-183.927 65.3882,-193.16 75.2079,-189.182 70.584,-183.927"/>
</g>
<!-- Node3 -->
<g id="node4" class="node"><title>Node3</title>
<polygon fill="white" stroke="#bfbfbf" points="92,-193.5 92,-250.5 132,-250.5 132,-193.5 92,-193.5"/>
<text text-anchor="middle" x="112" y="-238.5" font-family="Helvetica,sans-Serif" font-size="10.00">Label</text>
<polyline fill="none" stroke="#bfbfbf" points="92,-231.5 132,-231.5 "/>
<text text-anchor="middle" x="112" y="-219.5" font-family="Helvetica,sans-Serif" font-size="10.00"> </text>
<polyline fill="none" stroke="#bfbfbf" points="92,-212.5 132,-212.5 "/>
<text text-anchor="middle" x="112" y="-200.5" font-family="Helvetica,sans-Serif" font-size="10.00"> </text>
</g>
<!-- Node3&#45;&gt;Node1 -->
<g id="edge4" class="edge"><title>Node3&#45;&gt;Node1</title>
<path fill="none" stroke="#404040" d="M124.151,-193.399C133.086,-176.186 146.831,-154.924 165,-142 235.312,-91.9869 335.043,-73.6292 400.121,-66.8951"/>
<polygon fill="none" stroke="#404040" points="400.31,-66.8771 405.901,-62.323 412.255,-65.7325 406.664,-70.2866 400.31,-66.8771"/>
<text text-anchor="middle" x="202" y="-150.5" font-family="Helvetica,sans-Serif" font-size="10.00"> m_Status_Label</text>
</g>
<!-- Node4 -->
<g id="node6" class="node"><title>Node4</title>
<polygon fill="white" stroke="#bfbfbf" points="178.5,-193.5 178.5,-250.5 219.5,-250.5 219.5,-193.5 178.5,-193.5"/>
<text text-anchor="middle" x="199" y="-238.5" font-family="Helvetica,sans-Serif" font-size="10.00">VBox</text>
<polyline fill="none" stroke="#bfbfbf" points="178.5,-231.5 219.5,-231.5 "/>
<text text-anchor="middle" x="199" y="-219.5" font-family="Helvetica,sans-Serif" font-size="10.00"> </text>
<polyline fill="none" stroke="#bfbfbf" points="178.5,-212.5 219.5,-212.5 "/>
<text text-anchor="middle" x="199" y="-200.5" font-family="Helvetica,sans-Serif" font-size="10.00"> </text>
</g>
<!-- Node4&#45;&gt;Node1 -->
<g id="edge6" class="edge"><title>Node4&#45;&gt;Node1</title>
<path fill="none" stroke="#404040" d="M216.869,-193.17C228.95,-176.306 246.263,-155.51 266,-142 307.165,-113.822 359.847,-93.536 400.807,-80.5809"/>
<polygon fill="none" stroke="#404040" points="400.832,-80.5731 405.388,-74.9837 412.3,-77.0395 407.744,-82.629 400.832,-80.5731"/>
<text text-anchor="middle" x="286.5" y="-150.5" font-family="Helvetica,sans-Serif" font-size="10.00"> m_VBox</text>
</g>
<!-- Node5 -->
<g id="node8" class="node"><title>Node5</title>
<polygon fill="white" stroke="#bfbfbf" points="238,-193.5 238,-250.5 308,-250.5 308,-193.5 238,-193.5"/>
<text text-anchor="middle" x="273" y="-238.5" font-family="Helvetica,sans-Serif" font-size="10.00">HButtonBox</text>
<polyline fill="none" stroke="#bfbfbf" points="238,-231.5 308,-231.5 "/>
<text text-anchor="middle" x="273" y="-219.5" font-family="Helvetica,sans-Serif" font-size="10.00"> </text>
<polyline fill="none" stroke="#bfbfbf" points="238,-212.5 308,-212.5 "/>
<text text-anchor="middle" x="273" y="-200.5" font-family="Helvetica,sans-Serif" font-size="10.00"> </text>
</g>
<!-- Node5&#45;&gt;Node1 -->
<g id="edge8" class="edge"><title>Node5&#45;&gt;Node1</title>
<path fill="none" stroke="#404040" d="M289.379,-193.187C299.869,-176.948 314.569,-156.808 331,-142 351.905,-123.161 378.006,-106.629 401.672,-93.6228"/>
<polygon fill="none" stroke="#404040" points="401.771,-93.5699 405.169,-87.2094 412.347,-87.8996 408.949,-94.26 401.771,-93.5699"/>
<text text-anchor="middle" x="362.5" y="-150.5" font-family="Helvetica,sans-Serif" font-size="10.00"> m_ButtonBox</text>
</g>
<!-- Node6 -->
<g id="node10" class="node"><title>Node6</title>
<polygon fill="white" stroke="#bfbfbf" points="326.5,-193.5 326.5,-250.5 385.5,-250.5 385.5,-193.5 326.5,-193.5"/>
<text text-anchor="middle" x="356" y="-238.5" font-family="Helvetica,sans-Serif" font-size="10.00">Separator</text>
<polyline fill="none" stroke="#bfbfbf" points="326.5,-231.5 385.5,-231.5 "/>
<text text-anchor="middle" x="356" y="-219.5" font-family="Helvetica,sans-Serif" font-size="10.00"> </text>
<polyline fill="none" stroke="#bfbfbf" points="326.5,-212.5 385.5,-212.5 "/>
<text text-anchor="middle" x="356" y="-200.5" font-family="Helvetica,sans-Serif" font-size="10.00"> </text>
</g>
<!-- Node6&#45;&gt;Node1 -->
<g id="edge10" class="edge"><title>Node6&#45;&gt;Node1</title>
<path fill="none" stroke="#404040" d="M375.161,-193.479C386.745,-176.839 402.086,-154.804 416.857,-133.587"/>
<polygon fill="none" stroke="#404040" points="416.959,-133.441 417.104,-126.231 423.815,-123.593 423.67,-130.802 416.959,-133.441"/>
<text text-anchor="middle" x="436" y="-150.5" font-family="Helvetica,sans-Serif" font-size="10.00"> m_CtrlSep</text>
</g>
<!-- Node7 -->
<g id="node12" class="node"><title>Node7</title>
<polygon fill="white" stroke="#bfbfbf" points="404,-193.5 404,-250.5 528,-250.5 528,-193.5 404,-193.5"/>
<text text-anchor="middle" x="466" y="-238.5" font-family="Helvetica,sans-Serif" font-size="10.00">RefPtr&lt; Gtk::ListStore &gt;</text>
<polyline fill="none" stroke="#bfbfbf" points="404,-231.5 528,-231.5 "/>
<text text-anchor="middle" x="466" y="-219.5" font-family="Helvetica,sans-Serif" font-size="10.00"> </text>
<polyline fill="none" stroke="#bfbfbf" points="404,-212.5 528,-212.5 "/>
<text text-anchor="middle" x="466" y="-200.5" font-family="Helvetica,sans-Serif" font-size="10.00"> </text>
</g>
<!-- Node7&#45;&gt;Node1 -->
<g id="edge12" class="edge"><title>Node7&#45;&gt;Node1</title>
<path fill="none" stroke="#404040" d="M466,-193.479C466,-177.366 466,-156.194 466,-135.605"/>
<polygon fill="none" stroke="#404040" points="466,-135.593 462,-129.593 466,-123.593 470,-129.593 466,-135.593"/>
<text text-anchor="middle" x="503" y="-150.5" font-family="Helvetica,sans-Serif" font-size="10.00"> m_refTreeModel</text>
</g>
<!-- Node8 -->
<g id="node14" class="node"><title>Node8</title>
<a xlink:href="classAvahi_1_1View_1_1ModelColumns.html" target="_top" xlink:title="{Avahi::View::ModelColumns\n|+ m_col_ip\l+ m_col_hostname\l+ m_col_name\l|+ ModelColumns()\l}">
<polygon fill="white" stroke="black" points="546,-182.5 546,-261.5 686,-261.5 686,-182.5 546,-182.5"/>
<text text-anchor="middle" x="616" y="-249.5" font-family="Helvetica,sans-Serif" font-size="10.00">Avahi::View::ModelColumns</text>
<polyline fill="none" stroke="black" points="546,-242.5 686,-242.5 "/>
<text text-anchor="start" x="554" y="-230.5" font-family="Helvetica,sans-Serif" font-size="10.00">+ m_col_ip</text>
<text text-anchor="start" x="554" y="-219.5" font-family="Helvetica,sans-Serif" font-size="10.00">+ m_col_hostname</text>
<text text-anchor="start" x="554" y="-208.5" font-family="Helvetica,sans-Serif" font-size="10.00">+ m_col_name</text>
<polyline fill="none" stroke="black" points="546,-201.5 686,-201.5 "/>
<text text-anchor="start" x="554" y="-189.5" font-family="Helvetica,sans-Serif" font-size="10.00">+ ModelColumns()</text>
</a>
</g>
<!-- Node8&#45;&gt;Node1 -->
<g id="edge14" class="edge"><title>Node8&#45;&gt;Node1</title>
<path fill="none" stroke="#404040" d="M581.149,-182.142C569.451,-169.265 556.261,-154.924 544,-142 538.864,-136.586 533.497,-131.002 528.087,-125.425"/>
<polygon fill="none" stroke="#404040" points="527.951,-125.285 520.899,-123.778 519.577,-116.689 526.629,-118.196 527.951,-125.285"/>
<text text-anchor="middle" x="593" y="-150.5" font-family="Helvetica,sans-Serif" font-size="10.00"> m_Columns</text>
</g>
<!-- Node9 -->
<g id="node16" class="node"><title>Node9</title>
<a xlink:href="classGtk_1_1TreeModel_1_1ColumnRecord.html" target="_top" xlink:title="{ColumnRecord\n||}">
<polygon fill="white" stroke="black" points="432,-332.5 432,-389.5 514,-389.5 514,-332.5 432,-332.5"/>
<text text-anchor="middle" x="473" y="-377.5" font-family="Helvetica,sans-Serif" font-size="10.00">ColumnRecord</text>
<polyline fill="none" stroke="black" points="432,-370.5 514,-370.5 "/>
<text text-anchor="middle" x="473" y="-358.5" font-family="Helvetica,sans-Serif" font-size="10.00"> </text>
<polyline fill="none" stroke="black" points="432,-351.5 514,-351.5 "/>
<text text-anchor="middle" x="473" y="-339.5" font-family="Helvetica,sans-Serif" font-size="10.00"> </text>
</a>
</g>
<!-- Node9&#45;&gt;Node8 -->
<g id="edge16" class="edge"><title>Node9&#45;&gt;Node8</title>
<path fill="none" stroke="midnightblue" d="M509.165,-325.352C529.452,-305.917 554.808,-281.624 575.726,-261.584"/>
<polygon fill="none" stroke="midnightblue" points="506.738,-322.831 501.938,-332.276 511.58,-327.885 506.738,-322.831"/>
</g>
<!-- Node10 -->
<g id="node18" class="node"><title>Node10</title>
<polygon fill="white" stroke="#bfbfbf" points="532.5,-332.5 532.5,-389.5 699.5,-389.5 699.5,-332.5 532.5,-332.5"/>
<text text-anchor="middle" x="616" y="-377.5" font-family="Helvetica,sans-Serif" font-size="10.00">TreeModelColumn&lt; unsigned int &gt;</text>
<polyline fill="none" stroke="#bfbfbf" points="532.5,-370.5 699.5,-370.5 "/>
<text text-anchor="middle" x="616" y="-358.5" font-family="Helvetica,sans-Serif" font-size="10.00"> </text>
<polyline fill="none" stroke="#bfbfbf" points="532.5,-351.5 699.5,-351.5 "/>
<text text-anchor="middle" x="616" y="-339.5" font-family="Helvetica,sans-Serif" font-size="10.00"> </text>
</g>
<!-- Node10&#45;&gt;Node8 -->
<g id="edge18" class="edge"><title>Node10&#45;&gt;Node8</title>
<path fill="none" stroke="#404040" d="M616,-332.276C616,-315.441 616,-293.441 616,-273.596"/>
<polygon fill="none" stroke="#404040" points="616,-273.584 612,-267.584 616,-261.584 620,-267.584 616,-273.584"/>
<text text-anchor="middle" x="642" y="-294.5" font-family="Helvetica,sans-Serif" font-size="10.00"> m_col_port</text>
</g>
<!-- Node11 -->
<g id="node20" class="node"><title>Node11</title>
<polygon fill="white" stroke="#bfbfbf" points="717.5,-332.5 717.5,-389.5 884.5,-389.5 884.5,-332.5 717.5,-332.5"/>
<text text-anchor="middle" x="801" y="-377.5" font-family="Helvetica,sans-Serif" font-size="10.00">TreeModelColumn&lt; Glib::ustring &gt;</text>
<polyline fill="none" stroke="#bfbfbf" points="717.5,-370.5 884.5,-370.5 "/>
<text text-anchor="middle" x="801" y="-358.5" font-family="Helvetica,sans-Serif" font-size="10.00"> </text>
<polyline fill="none" stroke="#bfbfbf" points="717.5,-351.5 884.5,-351.5 "/>
<text text-anchor="middle" x="801" y="-339.5" font-family="Helvetica,sans-Serif" font-size="10.00"> </text>
</g>
<!-- Node11&#45;&gt;Node8 -->
<g id="edge20" class="edge"><title>Node11&#45;&gt;Node8</title>
<path fill="none" stroke="#404040" d="M763.562,-332.276C739.007,-314.091 706.311,-289.879 677.938,-268.867"/>
<polygon fill="none" stroke="#404040" points="677.746,-268.725 670.543,-268.369 668.102,-261.584 675.304,-261.94 677.746,-268.725"/>
<text text-anchor="middle" x="775" y="-305.5" font-family="Helvetica,sans-Serif" font-size="10.00"> m_col_hostname</text>
<text text-anchor="middle" x="775" y="-294.5" font-family="Helvetica,sans-Serif" font-size="10.00">m_col_name</text>
<text text-anchor="middle" x="775" y="-283.5" font-family="Helvetica,sans-Serif" font-size="10.00">m_col_ip</text>
</g>
<!-- Node12 -->
<g id="node22" class="node"><title>Node12</title>
<polygon fill="white" stroke="#bfbfbf" points="704,-193.5 704,-250.5 1016,-250.5 1016,-193.5 704,-193.5"/>
<text text-anchor="middle" x="860" y="-238.5" font-family="Helvetica,sans-Serif" font-size="10.00">signal&lt; void, Glib::ustring, Glib::ustring, Glib::ustring, unsigned int &gt;</text>
<polyline fill="none" stroke="#bfbfbf" points="704,-231.5 1016,-231.5 "/>
<text text-anchor="middle" x="860" y="-219.5" font-family="Helvetica,sans-Serif" font-size="10.00"> </text>
<polyline fill="none" stroke="#bfbfbf" points="704,-212.5 1016,-212.5 "/>
<text text-anchor="middle" x="860" y="-200.5" font-family="Helvetica,sans-Serif" font-size="10.00"> </text>
</g>
<!-- Node12&#45;&gt;Node1 -->
<g id="edge22" class="edge"><title>Node12&#45;&gt;Node1</title>
<path fill="none" stroke="#404040" d="M791.37,-193.479C718.018,-164.063 602.608,-117.782 530.772,-88.9746"/>
<polygon fill="none" stroke="#404040" points="530.768,-88.973 523.71,-90.4523 519.63,-84.5065 526.688,-83.0271 530.768,-88.973"/>
<text text-anchor="middle" x="740.5" y="-150.5" font-family="Helvetica,sans-Serif" font-size="10.00"> signal_select</text>
</g>
<!-- Node13 -->
<g id="node24" class="node"><title>Node13</title>
<polygon fill="white" stroke="#bfbfbf" points="1034,-193.5 1034,-250.5 1092,-250.5 1092,-193.5 1034,-193.5"/>
<text text-anchor="middle" x="1063" y="-238.5" font-family="Helvetica,sans-Serif" font-size="10.00">TreeView</text>
<polyline fill="none" stroke="#bfbfbf" points="1034,-231.5 1092,-231.5 "/>
<text text-anchor="middle" x="1063" y="-219.5" font-family="Helvetica,sans-Serif" font-size="10.00"> </text>
<polyline fill="none" stroke="#bfbfbf" points="1034,-212.5 1092,-212.5 "/>
<text text-anchor="middle" x="1063" y="-200.5" font-family="Helvetica,sans-Serif" font-size="10.00"> </text>
</g>
<!-- Node13&#45;&gt;Node1 -->
<g id="edge24" class="edge"><title>Node13&#45;&gt;Node1</title>
<path fill="none" stroke="#404040" d="M1040.3,-193.42C1035.64,-189.065 1030.46,-185.014 1025,-182 863.121,-92.7085 640.77,-70.3563 531.72,-64.8036"/>
<polygon fill="none" stroke="#404040" points="531.613,-64.7987 525.431,-68.5117 519.626,-64.2336 525.808,-60.5206 531.613,-64.7987"/>
<text text-anchor="middle" x="1013" y="-150.5" font-family="Helvetica,sans-Serif" font-size="10.00"> m_TreeView</text>
</g>
<!-- Node14 -->
<g id="node26" class="node"><title>Node14</title>
<polygon fill="white" stroke="#bfbfbf" points="1110.5,-193.5 1110.5,-250.5 1155.5,-250.5 1155.5,-193.5 1110.5,-193.5"/>
<text text-anchor="middle" x="1133" y="-238.5" font-family="Helvetica,sans-Serif" font-size="10.00">Button</text>
<polyline fill="none" stroke="#bfbfbf" points="1110.5,-231.5 1155.5,-231.5 "/>
<text text-anchor="middle" x="1133" y="-219.5" font-family="Helvetica,sans-Serif" font-size="10.00"> </text>
<polyline fill="none" stroke="#bfbfbf" points="1110.5,-212.5 1155.5,-212.5 "/>
<text text-anchor="middle" x="1133" y="-200.5" font-family="Helvetica,sans-Serif" font-size="10.00"> </text>
</g>
<!-- Node14&#45;&gt;Node1 -->
<g id="edge26" class="edge"><title>Node14&#45;&gt;Node1</title>
<path fill="none" stroke="#404040" d="M1111.55,-193.277C1095.66,-175.061 1072.27,-152.689 1046,-142 953.9,-104.522 663.701,-78.1801 532.074,-67.848"/>
<polygon fill="none" stroke="#404040" points="531.807,-67.8274 525.515,-71.3508 519.843,-66.8983 526.135,-63.3748 531.807,-67.8274"/>
<text text-anchor="middle" x="1121.5" y="-156" font-family="Helvetica,sans-Serif" font-size="10.00"> m_Button_Select</text>
<text text-anchor="middle" x="1121.5" y="-145" font-family="Helvetica,sans-Serif" font-size="10.00">m_Button_Cancel</text>
</g>
<!-- Node15 -->
<g id="node28" class="node"><title>Node15</title>
<polygon fill="white" stroke="#bfbfbf" points="1191.5,-193.5 1191.5,-250.5 1278.5,-250.5 1278.5,-193.5 1191.5,-193.5"/>
<text text-anchor="middle" x="1235" y="-238.5" font-family="Helvetica,sans-Serif" font-size="10.00">ScrolledWindow</text>
<polyline fill="none" stroke="#bfbfbf" points="1191.5,-231.5 1278.5,-231.5 "/>
<text text-anchor="middle" x="1235" y="-219.5" font-family="Helvetica,sans-Serif" font-size="10.00"> </text>
<polyline fill="none" stroke="#bfbfbf" points="1191.5,-212.5 1278.5,-212.5 "/>
<text text-anchor="middle" x="1235" y="-200.5" font-family="Helvetica,sans-Serif" font-size="10.00"> </text>
</g>
<!-- Node15&#45;&gt;Node1 -->
<g id="edge28" class="edge"><title>Node15&#45;&gt;Node1</title>
<path fill="none" stroke="#404040" d="M1218.13,-193.162C1205.76,-175.385 1187.28,-153.574 1165,-142 1055.64,-85.1841 684.251,-68.8513 531.966,-64.483"/>
<polygon fill="none" stroke="#404040" points="531.649,-64.4743 525.54,-68.3068 519.653,-64.1424 525.761,-60.3099 531.649,-64.4743"/>
<text text-anchor="middle" x="1237" y="-150.5" font-family="Helvetica,sans-Serif" font-size="10.00"> m_ScrolledWindow</text>
</g>
</g>
</svg>
