<?xml version="1.0" encoding="UTF-8" standalone="no"?>
<!DOCTYPE svg PUBLIC "-//W3C//DTD SVG 1.1//EN"
 "http://www.w3.org/Graphics/SVG/1.1/DTD/svg11.dtd">
<!-- Generated by graphviz version 2.28.0 (20111204.1018)
 -->
<!-- Title: G Pages: 1 -->
<svg width="376pt" height="332pt"
 viewBox="0.00 0.00 376.00 332.00" xmlns="http://www.w3.org/2000/svg" xmlns:xlink="http://www.w3.org/1999/xlink">
<g id="graph1" class="graph" transform="scale(1 1) rotate(0) translate(4 328)">
<title>G</title>
<polygon fill="white" stroke="white" points="-4,5 -4,-328 373,-328 373,5 -4,5"/>
<!-- Node1 -->
<g id="node1" class="node"><title>Node1</title>
<polygon fill="#bfbfbf" stroke="black" points="0.5,-152.5 0.5,-171.5 183.5,-171.5 183.5,-152.5 0.5,-152.5"/>
<text text-anchor="middle" x="92" y="-159.5" font-family="Helvetica,sans-Serif" font-size="10.00">MPDTestSuite::testToggleCommands</text>
</g>
<!-- Node2 -->
<g id="node3" class="node"><title>Node2</title>
<a xlink:href="classMPD_1_1BaseClient.html#a6797f70cd2cdc6807ca7da8d62302352" target="_top" xlink:title="Get the current MPD::Status.">
<polygon fill="white" stroke="black" points="221.5,-304.5 221.5,-323.5 366.5,-323.5 366.5,-304.5 221.5,-304.5"/>
<text text-anchor="middle" x="294" y="-311.5" font-family="Helvetica,sans-Serif" font-size="10.00">MPD::BaseClient::get_status</text>
</a>
</g>
<!-- Node1&#45;&gt;Node2 -->
<g id="edge2" class="edge"><title>Node1&#45;&gt;Node2</title>
<path fill="none" stroke="midnightblue" d="M99.3954,-171.783C116.082,-196.496 163.581,-261.826 220,-295 223.683,-297.166 227.613,-299.088 231.667,-300.794"/>
<polygon fill="midnightblue" stroke="midnightblue" points="230.701,-304.169 241.294,-304.393 233.153,-297.612 230.701,-304.169"/>
</g>
<!-- Node3 -->
<g id="node5" class="node"><title>Node3</title>
<a xlink:href="classMPD_1_1Status.html#aebea5eb9e5531c41c29d7b172eb3c455" target="_top" xlink:title="True if on random mode.">
<polygon fill="white" stroke="black" points="228.5,-266.5 228.5,-285.5 359.5,-285.5 359.5,-266.5 228.5,-266.5"/>
<text text-anchor="middle" x="294" y="-273.5" font-family="Helvetica,sans-Serif" font-size="10.00">MPD::Status::get_random</text>
</a>
</g>
<!-- Node1&#45;&gt;Node3 -->
<g id="edge4" class="edge"><title>Node1&#45;&gt;Node3</title>
<path fill="none" stroke="midnightblue" d="M102.955,-171.646C123.255,-190.786 171.616,-233.721 220,-257 224.942,-259.378 230.22,-261.486 235.592,-263.349"/>
<polygon fill="midnightblue" stroke="midnightblue" points="234.722,-266.745 245.312,-266.443 236.845,-260.075 234.722,-266.745"/>
</g>
<!-- Node4 -->
<g id="node7" class="node"><title>Node4</title>
<a xlink:href="classMPD_1_1Status.html#a61ca703d1ad786f649f0c6cf215c8467" target="_top" xlink:title="True if on consume mode.">
<polygon fill="white" stroke="black" points="225,-228.5 225,-247.5 363,-247.5 363,-228.5 225,-228.5"/>
<text text-anchor="middle" x="294" y="-235.5" font-family="Helvetica,sans-Serif" font-size="10.00">MPD::Status::get_consume</text>
</a>
</g>
<!-- Node1&#45;&gt;Node4 -->
<g id="edge6" class="edge"><title>Node1&#45;&gt;Node4</title>
<path fill="none" stroke="midnightblue" d="M111.533,-171.503C135.916,-183.728 180.331,-205.046 220,-219 226.88,-221.42 234.22,-223.686 241.496,-225.751"/>
<polygon fill="midnightblue" stroke="midnightblue" points="240.759,-229.178 251.328,-228.437 242.604,-222.425 240.759,-229.178"/>
</g>
<!-- Node5 -->
<g id="node9" class="node"><title>Node5</title>
<a xlink:href="classMPD_1_1Status.html#a114b5aa3226b2965713064937875588e" target="_top" xlink:title="True if on single mode.">
<polygon fill="white" stroke="black" points="232,-190.5 232,-209.5 356,-209.5 356,-190.5 232,-190.5"/>
<text text-anchor="middle" x="294" y="-197.5" font-family="Helvetica,sans-Serif" font-size="10.00">MPD::Status::get_single</text>
</a>
</g>
<!-- Node1&#45;&gt;Node5 -->
<g id="edge8" class="edge"><title>Node1&#45;&gt;Node5</title>
<path fill="none" stroke="midnightblue" d="M143.21,-171.54C170.433,-176.712 204.264,-183.14 232.883,-188.578"/>
<polygon fill="midnightblue" stroke="midnightblue" points="232.291,-192.028 242.769,-190.456 233.598,-185.151 232.291,-192.028"/>
</g>
<!-- Node6 -->
<g id="node11" class="node"><title>Node6</title>
<a xlink:href="classMPD_1_1Status.html#ae13f705c034e8db03dc1a6f19c66a72c" target="_top" xlink:title="True if on repeat mode.">
<polygon fill="white" stroke="black" points="231.5,-152.5 231.5,-171.5 356.5,-171.5 356.5,-152.5 231.5,-152.5"/>
<text text-anchor="middle" x="294" y="-159.5" font-family="Helvetica,sans-Serif" font-size="10.00">MPD::Status::get_repeat</text>
</a>
</g>
<!-- Node1&#45;&gt;Node6 -->
<g id="edge10" class="edge"><title>Node1&#45;&gt;Node6</title>
<path fill="none" stroke="midnightblue" d="M183.637,-162C196.234,-162 209.03,-162 221.217,-162"/>
<polygon fill="midnightblue" stroke="midnightblue" points="221.293,-165.5 231.293,-162 221.293,-158.5 221.293,-165.5"/>
</g>
<!-- Node7 -->
<g id="node13" class="node"><title>Node7</title>
<a xlink:href="classMPD_1_1Client.html#a77f6e322d6f30a37b3100976bf218b62" target="_top" xlink:title="Toggle randome mode.">
<polygon fill="white" stroke="black" points="224,-114.5 224,-133.5 364,-133.5 364,-114.5 224,-114.5"/>
<text text-anchor="middle" x="294" y="-121.5" font-family="Helvetica,sans-Serif" font-size="10.00">MPD::Client::toggle_random</text>
</a>
</g>
<!-- Node1&#45;&gt;Node7 -->
<g id="edge12" class="edge"><title>Node1&#45;&gt;Node7</title>
<path fill="none" stroke="midnightblue" d="M143.21,-152.46C170.433,-147.288 204.264,-140.86 232.883,-135.422"/>
<polygon fill="midnightblue" stroke="midnightblue" points="233.598,-138.849 242.769,-133.544 232.291,-131.972 233.598,-138.849"/>
</g>
<!-- Node8 -->
<g id="node15" class="node"><title>Node8</title>
<a xlink:href="classMPD_1_1Client.html#a3e2cd3bc2f7aff8cfc27b85597fa23a0" target="_top" xlink:title="Toggle consume mode (song gets deleted from playlist after playing)">
<polygon fill="white" stroke="black" points="220,-76.5 220,-95.5 368,-95.5 368,-76.5 220,-76.5"/>
<text text-anchor="middle" x="294" y="-83.5" font-family="Helvetica,sans-Serif" font-size="10.00">MPD::Client::toggle_consume</text>
</a>
</g>
<!-- Node1&#45;&gt;Node8 -->
<g id="edge14" class="edge"><title>Node1&#45;&gt;Node8</title>
<path fill="none" stroke="midnightblue" d="M111.533,-152.497C135.916,-140.272 180.331,-118.954 220,-105 226.88,-102.58 234.22,-100.314 241.496,-98.249"/>
<polygon fill="midnightblue" stroke="midnightblue" points="242.604,-101.575 251.328,-95.5626 240.759,-94.8221 242.604,-101.575"/>
</g>
<!-- Node9 -->
<g id="node17" class="node"><title>Node9</title>
<a xlink:href="classMPD_1_1Client.html#afccca0d48bba40c4a937ee119f1b1269" target="_top" xlink:title="Toggle single mode (stops playing after one song)">
<polygon fill="white" stroke="black" points="227,-38.5 227,-57.5 361,-57.5 361,-38.5 227,-38.5"/>
<text text-anchor="middle" x="294" y="-45.5" font-family="Helvetica,sans-Serif" font-size="10.00">MPD::Client::toggle_single</text>
</a>
</g>
<!-- Node1&#45;&gt;Node9 -->
<g id="edge16" class="edge"><title>Node1&#45;&gt;Node9</title>
<path fill="none" stroke="midnightblue" d="M102.955,-152.354C123.255,-133.214 171.616,-90.2787 220,-67 224.942,-64.6224 230.22,-62.5143 235.592,-60.6511"/>
<polygon fill="midnightblue" stroke="midnightblue" points="236.845,-63.9254 245.312,-57.5565 234.722,-57.2553 236.845,-63.9254"/>
</g>
<!-- Node10 -->
<g id="node19" class="node"><title>Node10</title>
<a xlink:href="classMPD_1_1Client.html#a1cab014c39b0e730635186b8a7a70ae3" target="_top" xlink:title="Toggle repeat mode (repeat playlist)">
<polygon fill="white" stroke="black" points="226.5,-0.5 226.5,-19.5 361.5,-19.5 361.5,-0.5 226.5,-0.5"/>
<text text-anchor="middle" x="294" y="-7.5" font-family="Helvetica,sans-Serif" font-size="10.00">MPD::Client::toggle_repeat</text>
</a>
</g>
<!-- Node1&#45;&gt;Node10 -->
<g id="edge18" class="edge"><title>Node1&#45;&gt;Node10</title>
<path fill="none" stroke="midnightblue" d="M99.3954,-152.217C116.082,-127.504 163.581,-62.1742 220,-29 223.683,-26.8344 227.613,-24.9122 231.667,-23.2065"/>
<polygon fill="midnightblue" stroke="midnightblue" points="233.153,-26.3876 241.294,-19.6069 230.701,-19.8309 233.153,-26.3876"/>
</g>
</g>
</svg>
