<?xml version="1.0" encoding="UTF-8" standalone="no"?>
<!DOCTYPE svg PUBLIC "-//W3C//DTD SVG 1.1//EN"
 "http://www.w3.org/Graphics/SVG/1.1/DTD/svg11.dtd">
<!-- Generated by graphviz version 2.28.0 (20111204.1018)
 -->
<!-- Title: G Pages: 1 -->
<svg width="512pt" height="282pt"
 viewBox="0.00 0.00 512.00 282.00" xmlns="http://www.w3.org/2000/svg" xmlns:xlink="http://www.w3.org/1999/xlink">
<g id="graph1" class="graph" transform="scale(1 1) rotate(0) translate(4 278)">
<title>G</title>
<polygon fill="white" stroke="white" points="-4,5 -4,-278 509,-278 509,5 -4,5"/>
<!-- Node1 -->
<g id="node1" class="node"><title>Node1</title>
<polygon fill="#bfbfbf" stroke="black" points="135.5,-216.5 135.5,-273.5 194.5,-273.5 194.5,-216.5 135.5,-216.5"/>
<text text-anchor="middle" x="165" y="-261.5" font-family="Helvetica,sans-Serif" font-size="10.00">TestSuite</text>
<polyline fill="none" stroke="black" points="135.5,-254.5 194.5,-254.5 "/>
<text text-anchor="middle" x="165" y="-242.5" font-family="Helvetica,sans-Serif" font-size="10.00"> </text>
<polyline fill="none" stroke="black" points="135.5,-235.5 194.5,-235.5 "/>
<text text-anchor="middle" x="165" y="-223.5" font-family="Helvetica,sans-Serif" font-size="10.00"> </text>
</g>
<!-- Node2 -->
<g id="node3" class="node"><title>Node2</title>
<a xlink:href="classLogTestSuite.html" target="_top" xlink:title="{LogTestSuite\n||+ testLogWriter()\l}">
<polygon fill="white" stroke="black" points="0,-61.5 0,-118.5 90,-118.5 90,-61.5 0,-61.5"/>
<text text-anchor="middle" x="45" y="-106.5" font-family="Helvetica,sans-Serif" font-size="10.00">LogTestSuite</text>
<polyline fill="none" stroke="black" points="0,-99.5 90,-99.5 "/>
<text text-anchor="middle" x="45" y="-87.5" font-family="Helvetica,sans-Serif" font-size="10.00"> </text>
<polyline fill="none" stroke="black" points="0,-80.5 90,-80.5 "/>
<text text-anchor="start" x="8" y="-68.5" font-family="Helvetica,sans-Serif" font-size="10.00">+ testLogWriter()</text>
</a>
</g>
<!-- Node1&#45;&gt;Node2 -->
<g id="edge2" class="edge"><title>Node1&#45;&gt;Node2</title>
<path fill="none" stroke="midnightblue" d="M127.956,-211.3C118.018,-201.692 107.642,-190.84 99,-180 83.6774,-160.781 69.3949,-136.864 59.3717,-118.665"/>
<polygon fill="none" stroke="midnightblue" points="125.767,-214.047 135.434,-218.383 130.581,-208.965 125.767,-214.047"/>
</g>
<!-- Node3 -->
<g id="node5" class="node"><title>Node3</title>
<a xlink:href="classNotifyTestSuite.html" target="_top" xlink:title="{NotifyTestSuite\n||+ testsend_big()\l+ testsend_full()\l+ testset_stock_icon()\l+ testset_next_extra()\l}">
<polygon fill="white" stroke="black" points="108,-45 108,-135 222,-135 222,-45 108,-45"/>
<text text-anchor="middle" x="165" y="-123" font-family="Helvetica,sans-Serif" font-size="10.00">NotifyTestSuite</text>
<polyline fill="none" stroke="black" points="108,-116 222,-116 "/>
<text text-anchor="middle" x="165" y="-104" font-family="Helvetica,sans-Serif" font-size="10.00"> </text>
<polyline fill="none" stroke="black" points="108,-97 222,-97 "/>
<text text-anchor="start" x="116" y="-85" font-family="Helvetica,sans-Serif" font-size="10.00">+ testsend_big()</text>
<text text-anchor="start" x="116" y="-74" font-family="Helvetica,sans-Serif" font-size="10.00">+ testsend_full()</text>
<text text-anchor="start" x="116" y="-63" font-family="Helvetica,sans-Serif" font-size="10.00">+ testset_stock_icon()</text>
<text text-anchor="start" x="116" y="-52" font-family="Helvetica,sans-Serif" font-size="10.00">+ testset_next_extra()</text>
</a>
</g>
<!-- Node1&#45;&gt;Node3 -->
<g id="edge4" class="edge"><title>Node1&#45;&gt;Node3</title>
<path fill="none" stroke="midnightblue" d="M165,-206.202C165,-184.644 165,-157.521 165,-135.008"/>
<polygon fill="none" stroke="midnightblue" points="161.5,-206.293 165,-216.293 168.5,-206.293 161.5,-206.293"/>
</g>
<!-- Node4 -->
<g id="node7" class="node"><title>Node4</title>
<a xlink:href="classUtilsTestSuite.html" target="_top" xlink:title="{UtilsTestSuite\n||+ testseconds_to_duration_1_year()\l+ testseconds_to_duration_check_if_always_the_same()\l+ testseconds_to_duration_1_second()\l+ testseconds_to_duration_0_seconds()\l+ testseconds_to_duration_1_minutes()\l+ testseconds_to_duration_2_minutes()\l+ testseconds_to_duration_1_hour()\l+ testseconds_to_duration_2_hours()\l+ testseconds_to_duration_1_day()\l+ testseconds_to_duration_2_days()\l+ testseconds_to_duration_2_years()\l+ testseconds_to_timestamp_date1()\l}">
<polygon fill="white" stroke="black" points="240,-1 240,-179 504,-179 504,-1 240,-1"/>
<text text-anchor="middle" x="372" y="-167" font-family="Helvetica,sans-Serif" font-size="10.00">UtilsTestSuite</text>
<polyline fill="none" stroke="black" points="240,-160 504,-160 "/>
<text text-anchor="middle" x="372" y="-148" font-family="Helvetica,sans-Serif" font-size="10.00"> </text>
<polyline fill="none" stroke="black" points="240,-141 504,-141 "/>
<text text-anchor="start" x="248" y="-129" font-family="Helvetica,sans-Serif" font-size="10.00">+ testseconds_to_duration_1_year()</text>
<text text-anchor="start" x="248" y="-118" font-family="Helvetica,sans-Serif" font-size="10.00">+ testseconds_to_duration_check_if_always_the_same()</text>
<text text-anchor="start" x="248" y="-107" font-family="Helvetica,sans-Serif" font-size="10.00">+ testseconds_to_duration_1_second()</text>
<text text-anchor="start" x="248" y="-96" font-family="Helvetica,sans-Serif" font-size="10.00">+ testseconds_to_duration_0_seconds()</text>
<text text-anchor="start" x="248" y="-85" font-family="Helvetica,sans-Serif" font-size="10.00">+ testseconds_to_duration_1_minutes()</text>
<text text-anchor="start" x="248" y="-74" font-family="Helvetica,sans-Serif" font-size="10.00">+ testseconds_to_duration_2_minutes()</text>
<text text-anchor="start" x="248" y="-63" font-family="Helvetica,sans-Serif" font-size="10.00">+ testseconds_to_duration_1_hour()</text>
<text text-anchor="start" x="248" y="-52" font-family="Helvetica,sans-Serif" font-size="10.00">+ testseconds_to_duration_2_hours()</text>
<text text-anchor="start" x="248" y="-41" font-family="Helvetica,sans-Serif" font-size="10.00">+ testseconds_to_duration_1_day()</text>
<text text-anchor="start" x="248" y="-30" font-family="Helvetica,sans-Serif" font-size="10.00">+ testseconds_to_duration_2_days()</text>
<text text-anchor="start" x="248" y="-19" font-family="Helvetica,sans-Serif" font-size="10.00">+ testseconds_to_duration_2_years()</text>
<text text-anchor="start" x="248" y="-8" font-family="Helvetica,sans-Serif" font-size="10.00">+ testseconds_to_timestamp_date1()</text>
</a>
</g>
<!-- Node1&#45;&gt;Node4 -->
<g id="edge6" class="edge"><title>Node1&#45;&gt;Node4</title>
<path fill="none" stroke="midnightblue" d="M202.844,-216.028C217.353,-205.304 234.793,-192.414 252.885,-179.041"/>
<polygon fill="none" stroke="midnightblue" points="200.619,-213.32 194.658,-222.079 204.78,-218.95 200.619,-213.32"/>
</g>
</g>
</svg>
