<?xml version="1.0" encoding="UTF-8" standalone="no"?>
<!DOCTYPE svg PUBLIC "-//W3C//DTD SVG 1.1//EN"
 "http://www.w3.org/Graphics/SVG/1.1/DTD/svg11.dtd">
<!-- Generated by graphviz version 2.28.0 (20120217.0315)
 -->
<!-- Title: G Pages: 1 -->
<svg width="216pt" height="204pt"
 viewBox="0.00 0.00 216.00 204.00" xmlns="http://www.w3.org/2000/svg" xmlns:xlink="http://www.w3.org/1999/xlink">
<g id="graph1" class="graph" transform="scale(1 1) rotate(0) translate(4 200)">
<title>G</title>
<polygon fill="white" stroke="white" points="-4,5 -4,-200 213,-200 213,5 -4,5"/>
<!-- Node1 -->
<g id="node1" class="node"><title>Node1</title>
<polygon fill="#bfbfbf" stroke="black" points="30,-0.5 30,-79.5 162,-79.5 162,-0.5 30,-0.5"/>
<text text-anchor="middle" x="96" y="-67.5" font-family="Helvetica,sans-Serif" font-size="10.00">Browser::OtherAlbumsMgr</text>
<polyline fill="none" stroke="black" points="30,-60.5 162,-60.5 "/>
<text text-anchor="middle" x="96" y="-48.5" font-family="Helvetica,sans-Serif" font-size="10.00"> </text>
<polyline fill="none" stroke="black" points="30,-41.5 162,-41.5 "/>
<text text-anchor="start" x="38" y="-29.5" font-family="Helvetica,sans-Serif" font-size="10.00">+ OtherAlbumsMgr()</text>
<text text-anchor="start" x="38" y="-18.5" font-family="Helvetica,sans-Serif" font-size="10.00">+ update()</text>
<text text-anchor="start" x="38" y="-7.5" font-family="Helvetica,sans-Serif" font-size="10.00">+ on_deliver()</text>
</g>
<!-- Node2 -->
<g id="node2" class="node"><title>Node2</title>
<a xlink:href="classGtk_1_1Expander.html" target="_top" xlink:title="{Gtk::Expander\n||}">
<polygon fill="white" stroke="black" points="0,-127.5 0,-184.5 80,-184.5 80,-127.5 0,-127.5"/>
<text text-anchor="middle" x="40" y="-172.5" font-family="Helvetica,sans-Serif" font-size="10.00">Gtk::Expander</text>
<polyline fill="none" stroke="black" points="0,-165.5 80,-165.5 "/>
<text text-anchor="middle" x="40" y="-153.5" font-family="Helvetica,sans-Serif" font-size="10.00"> </text>
<polyline fill="none" stroke="black" points="0,-146.5 80,-146.5 "/>
<text text-anchor="middle" x="40" y="-134.5" font-family="Helvetica,sans-Serif" font-size="10.00"> </text>
</a>
</g>
<!-- Node2&#45;&gt;Node1 -->
<g id="edge2" class="edge"><title>Node2&#45;&gt;Node1</title>
<path fill="none" stroke="midnightblue" d="M58.042,-118.272C64.1217,-105.895 70.9215,-92.0527 77.0678,-79.5406"/>
<polygon fill="none" stroke="midnightblue" points="54.8237,-116.885 53.556,-127.404 61.1066,-119.971 54.8237,-116.885"/>
</g>
<!-- Node3 -->
<g id="node4" class="node"><title>Node3</title>
<a xlink:href="classGlyr_1_1UpdateInterface.html" target="_top" xlink:title="Very similar to AbstractClientUser, but doesnt take a Client instance.">
<polygon fill="white" stroke="black" points="98,-116.5 98,-195.5 208,-195.5 208,-116.5 98,-116.5"/>
<text text-anchor="middle" x="153" y="-183.5" font-family="Helvetica,sans-Serif" font-size="10.00">Glyr::UpdateInterface</text>
<polyline fill="none" stroke="black" points="98,-176.5 208,-176.5 "/>
<text text-anchor="middle" x="153" y="-164.5" font-family="Helvetica,sans-Serif" font-size="10.00"> </text>
<polyline fill="none" stroke="black" points="98,-157.5 208,-157.5 "/>
<text text-anchor="start" x="106" y="-145.5" font-family="Helvetica,sans-Serif" font-size="10.00">+ UpdateInterface()</text>
<text text-anchor="start" x="106" y="-134.5" font-family="Helvetica,sans-Serif" font-size="10.00">+ update()</text>
<text text-anchor="start" x="106" y="-123.5" font-family="Helvetica,sans-Serif" font-size="10.00">+ on_deliver()</text>
</a>
</g>
<!-- Node3&#45;&gt;Node1 -->
<g id="edge4" class="edge"><title>Node3&#45;&gt;Node1</title>
<path fill="none" stroke="midnightblue" d="M129.152,-107.304C124.527,-98.0537 119.734,-88.4675 115.278,-79.5555"/>
<polygon fill="none" stroke="midnightblue" points="126.1,-109.026 133.702,-116.405 132.361,-105.895 126.1,-109.026"/>
</g>
</g>
</svg>
