<?xml version="1.0" encoding="UTF-8" standalone="no"?>
<!DOCTYPE svg PUBLIC "-//W3C//DTD SVG 1.1//EN"
 "http://www.w3.org/Graphics/SVG/1.1/DTD/svg11.dtd">
<!-- Generated by graphviz version 2.28.0 (20120217.0315)
 -->
<!-- Title: G Pages: 1 -->
<svg width="355pt" height="772pt"
 viewBox="0.00 0.00 355.00 772.00" xmlns="http://www.w3.org/2000/svg" xmlns:xlink="http://www.w3.org/1999/xlink">
<g id="graph1" class="graph" transform="scale(1 1) rotate(0) translate(4 768)">
<title>G</title>
<polygon fill="white" stroke="white" points="-4,5 -4,-768 352,-768 352,5 -4,5"/>
<!-- Node1 -->
<g id="node1" class="node"><title>Node1</title>
<polygon fill="#bfbfbf" stroke="black" points="188,-1 188,-157 296,-157 296,-1 188,-1"/>
<text text-anchor="middle" x="242" y="-145" font-family="Helvetica,sans-Serif" font-size="10.00">MPD::Playlist</text>
<polyline fill="none" stroke="black" points="188,-138 296,-138 "/>
<text text-anchor="middle" x="242" y="-126" font-family="Helvetica,sans-Serif" font-size="10.00"> </text>
<polyline fill="none" stroke="black" points="188,-119 296,-119 "/>
<text text-anchor="start" x="196" y="-107" font-family="Helvetica,sans-Serif" font-size="10.00">+ Playlist()</text>
<text text-anchor="start" x="196" y="-96" font-family="Helvetica,sans-Serif" font-size="10.00">+ Playlist()</text>
<text text-anchor="start" x="196" y="-85" font-family="Helvetica,sans-Serif" font-size="10.00">+ ~Playlist()</text>
<text text-anchor="start" x="196" y="-74" font-family="Helvetica,sans-Serif" font-size="10.00">+ get_path()</text>
<text text-anchor="start" x="196" y="-63" font-family="Helvetica,sans-Serif" font-size="10.00">+ get_last_modified()</text>
<text text-anchor="start" x="196" y="-52" font-family="Helvetica,sans-Serif" font-size="10.00">+ remove()</text>
<text text-anchor="start" x="196" y="-41" font-family="Helvetica,sans-Serif" font-size="10.00">+ load()</text>
<text text-anchor="start" x="196" y="-30" font-family="Helvetica,sans-Serif" font-size="10.00">+ rename()</text>
<text text-anchor="start" x="196" y="-19" font-family="Helvetica,sans-Serif" font-size="10.00">+ add_song()</text>
<text text-anchor="start" x="196" y="-8" font-family="Helvetica,sans-Serif" font-size="10.00">+ add_song()</text>
</g>
<!-- Node2 -->
<g id="node2" class="node"><title>Node2</title>
<a xlink:href="classMPD_1_1AbstractClientExtension.html" target="_top" xlink:title="Abstract base class for classes that want to implement spefic MPD Commands.">
<polygon fill="white" stroke="black" points="48.5,-213.5 48.5,-270.5 199.5,-270.5 199.5,-213.5 48.5,-213.5"/>
<text text-anchor="middle" x="124" y="-258.5" font-family="Helvetica,sans-Serif" font-size="10.00">MPD::AbstractClientExtension</text>
<polyline fill="none" stroke="black" points="48.5,-251.5 199.5,-251.5 "/>
<text text-anchor="middle" x="124" y="-239.5" font-family="Helvetica,sans-Serif" font-size="10.00"> </text>
<polyline fill="none" stroke="black" points="48.5,-232.5 199.5,-232.5 "/>
<text text-anchor="start" x="56.5" y="-220.5" font-family="Helvetica,sans-Serif" font-size="10.00">+ AbstractClientExtension()</text>
</a>
</g>
<!-- Node2&#45;&gt;Node1 -->
<g id="edge2" class="edge"><title>Node2&#45;&gt;Node1</title>
<path fill="none" stroke="midnightblue" d="M150.204,-205.247C161.308,-190.096 174.685,-171.846 187.748,-154.022"/>
<polygon fill="none" stroke="midnightblue" points="147.373,-203.188 144.285,-213.323 153.019,-207.326 147.373,-203.188"/>
</g>
<!-- Node3 -->
<g id="node4" class="node"><title>Node3</title>
<a xlink:href="classMPD_1_1BaseClient.html" target="_top" xlink:title="The Base to MPD::Client.">
<polygon fill="white" stroke="black" points="51,-336.5 51,-547.5 197,-547.5 197,-336.5 51,-336.5"/>
<text text-anchor="middle" x="124" y="-535.5" font-family="Helvetica,sans-Serif" font-size="10.00">MPD::BaseClient</text>
<polyline fill="none" stroke="black" points="51,-528.5 197,-528.5 "/>
<text text-anchor="middle" x="124" y="-516.5" font-family="Helvetica,sans-Serif" font-size="10.00"> </text>
<polyline fill="none" stroke="black" points="51,-509.5 197,-509.5 "/>
<text text-anchor="start" x="59" y="-497.5" font-family="Helvetica,sans-Serif" font-size="10.00">+ go_idle()</text>
<text text-anchor="start" x="59" y="-486.5" font-family="Helvetica,sans-Serif" font-size="10.00">+ go_busy()</text>
<text text-anchor="start" x="59" y="-475.5" font-family="Helvetica,sans-Serif" font-size="10.00">+ get_connection()</text>
<text text-anchor="start" x="59" y="-464.5" font-family="Helvetica,sans-Serif" font-size="10.00">+ is_connected()</text>
<text text-anchor="start" x="59" y="-453.5" font-family="Helvetica,sans-Serif" font-size="10.00">+ begin()</text>
<text text-anchor="start" x="59" y="-442.5" font-family="Helvetica,sans-Serif" font-size="10.00">+ commit()</text>
<text text-anchor="start" x="59" y="-431.5" font-family="Helvetica,sans-Serif" font-size="10.00">+ get_status()</text>
<text text-anchor="start" x="59" y="-420.5" font-family="Helvetica,sans-Serif" font-size="10.00">+ signal_client_update()</text>
<text text-anchor="start" x="59" y="-409.5" font-family="Helvetica,sans-Serif" font-size="10.00">+ signal_connection_change()</text>
<text text-anchor="start" x="59" y="-398.5" font-family="Helvetica,sans-Serif" font-size="10.00">+ force_update()</text>
<text text-anchor="start" x="59" y="-387.5" font-family="Helvetica,sans-Serif" font-size="10.00">+ create_db_songs_query()</text>
<text text-anchor="start" x="59" y="-376.5" font-family="Helvetica,sans-Serif" font-size="10.00">+ create_db_tag_query()</text>
<text text-anchor="start" x="59" y="-365.5" font-family="Helvetica,sans-Serif" font-size="10.00"># BaseClient()</text>
<text text-anchor="start" x="59" y="-354.5" font-family="Helvetica,sans-Serif" font-size="10.00"># __connect()</text>
<text text-anchor="start" x="59" y="-343.5" font-family="Helvetica,sans-Serif" font-size="10.00"># __disconnect()</text>
</a>
</g>
<!-- Node3&#45;&gt;Node2 -->
<g id="edge4" class="edge"><title>Node3&#45;&gt;Node2</title>
<path fill="none" stroke="#404040" d="M124,-336.492C124,-317.463 124,-298.707 124,-283.046"/>
<polygon fill="none" stroke="#404040" points="124,-282.682 120,-276.682 124,-270.682 128,-276.682 124,-282.682"/>
<text text-anchor="middle" x="159" y="-309.5" font-family="Helvetica,sans-Serif" font-size="10.00"> mp_BaseClient</text>
</g>
<!-- Node4 -->
<g id="node6" class="node"><title>Node4</title>
<a xlink:href="classMPD_1_1Listener.html" target="_top" xlink:title="Listener for Server events, Freya&#39;s actual core.">
<polygon fill="white" stroke="black" points="0,-618.5 0,-741.5 88,-741.5 88,-618.5 0,-618.5"/>
<text text-anchor="middle" x="44" y="-729.5" font-family="Helvetica,sans-Serif" font-size="10.00">MPD::Listener</text>
<polyline fill="none" stroke="black" points="0,-722.5 88,-722.5 "/>
<text text-anchor="middle" x="44" y="-710.5" font-family="Helvetica,sans-Serif" font-size="10.00"> </text>
<polyline fill="none" stroke="black" points="0,-703.5 88,-703.5 "/>
<text text-anchor="start" x="8" y="-691.5" font-family="Helvetica,sans-Serif" font-size="10.00">+ Listener()</text>
<text text-anchor="start" x="8" y="-680.5" font-family="Helvetica,sans-Serif" font-size="10.00">+ ~Listener()</text>
<text text-anchor="start" x="8" y="-669.5" font-family="Helvetica,sans-Serif" font-size="10.00">+ enter()</text>
<text text-anchor="start" x="8" y="-658.5" font-family="Helvetica,sans-Serif" font-size="10.00">+ leave()</text>
<text text-anchor="start" x="8" y="-647.5" font-family="Helvetica,sans-Serif" font-size="10.00">+ is_idling()</text>
<text text-anchor="start" x="8" y="-636.5" font-family="Helvetica,sans-Serif" font-size="10.00">+ get_data()</text>
<text text-anchor="start" x="8" y="-625.5" font-family="Helvetica,sans-Serif" font-size="10.00">+ force_update()</text>
</a>
</g>
<!-- Node4&#45;&gt;Node3 -->
<g id="edge6" class="edge"><title>Node4&#45;&gt;Node3</title>
<path fill="none" stroke="#404040" d="M50.8333,-618.393C53.6693,-601.21 57.6015,-582.653 63,-566 63.7305,-563.747 64.4961,-561.483 65.2932,-559.213"/>
<polygon fill="none" stroke="#404040" points="65.3425,-559.08 63.6827,-552.063 69.522,-547.832 71.1818,-554.849 65.3425,-559.08"/>
<text text-anchor="middle" x="91.5" y="-569.5" font-family="Helvetica,sans-Serif" font-size="10.00"> mp_Listener</text>
</g>
<!-- Node5 -->
<g id="node8" class="node"><title>Node5</title>
<polygon fill="white" stroke="#bfbfbf" points="106.5,-651.5 106.5,-708.5 141.5,-708.5 141.5,-651.5 106.5,-651.5"/>
<text text-anchor="middle" x="124" y="-696.5" font-family="Helvetica,sans-Serif" font-size="10.00">bool</text>
<polyline fill="none" stroke="#bfbfbf" points="106.5,-689.5 141.5,-689.5 "/>
<text text-anchor="middle" x="124" y="-677.5" font-family="Helvetica,sans-Serif" font-size="10.00"> </text>
<polyline fill="none" stroke="#bfbfbf" points="106.5,-670.5 141.5,-670.5 "/>
<text text-anchor="middle" x="124" y="-658.5" font-family="Helvetica,sans-Serif" font-size="10.00"> </text>
</g>
<!-- Node5&#45;&gt;Node3 -->
<g id="edge8" class="edge"><title>Node5&#45;&gt;Node3</title>
<path fill="none" stroke="#404040" d="M124,-651.466C124,-628.462 124,-593.994 124,-559.675"/>
<polygon fill="none" stroke="#404040" points="124,-559.562 120,-553.562 124,-547.562 128,-553.562 124,-559.562"/>
<text text-anchor="middle" x="154.5" y="-569.5" font-family="Helvetica,sans-Serif" font-size="10.00"> m_ListBegun</text>
</g>
<!-- Node6 -->
<g id="node10" class="node"><title>Node6</title>
<a xlink:href="classMPD_1_1Connection.html" target="_top" xlink:title="A convinience Wrapper around mpd_connection*.">
<polygon fill="white" stroke="black" points="160,-596.5 160,-763.5 306,-763.5 306,-596.5 160,-596.5"/>
<text text-anchor="middle" x="233" y="-751.5" font-family="Helvetica,sans-Serif" font-size="10.00">MPD::Connection</text>
<polyline fill="none" stroke="black" points="160,-744.5 306,-744.5 "/>
<text text-anchor="middle" x="233" y="-732.5" font-family="Helvetica,sans-Serif" font-size="10.00"> </text>
<polyline fill="none" stroke="black" points="160,-725.5 306,-725.5 "/>
<text text-anchor="start" x="168" y="-713.5" font-family="Helvetica,sans-Serif" font-size="10.00">+ Connection()</text>
<text text-anchor="start" x="168" y="-702.5" font-family="Helvetica,sans-Serif" font-size="10.00">+ ~Connection()</text>
<text text-anchor="start" x="168" y="-691.5" font-family="Helvetica,sans-Serif" font-size="10.00">+ is_connected()</text>
<text text-anchor="start" x="168" y="-680.5" font-family="Helvetica,sans-Serif" font-size="10.00">+ connect()</text>
<text text-anchor="start" x="168" y="-669.5" font-family="Helvetica,sans-Serif" font-size="10.00">+ disconnect()</text>
<text text-anchor="start" x="168" y="-658.5" font-family="Helvetica,sans-Serif" font-size="10.00">+ clear_error()</text>
<text text-anchor="start" x="168" y="-647.5" font-family="Helvetica,sans-Serif" font-size="10.00">+ check_error()</text>
<text text-anchor="start" x="168" y="-636.5" font-family="Helvetica,sans-Serif" font-size="10.00">+ signal_error()</text>
<text text-anchor="start" x="168" y="-625.5" font-family="Helvetica,sans-Serif" font-size="10.00">+ signal_connection_change()</text>
<text text-anchor="start" x="168" y="-614.5" font-family="Helvetica,sans-Serif" font-size="10.00">+ emit_connection_change()</text>
<text text-anchor="start" x="168" y="-603.5" font-family="Helvetica,sans-Serif" font-size="10.00">+ get_connection()</text>
</a>
</g>
<!-- Node6&#45;&gt;Node3 -->
<g id="edge10" class="edge"><title>Node6&#45;&gt;Node3</title>
<path fill="none" stroke="#404040" d="M202.13,-596.453C197.895,-586.124 193.464,-575.765 189,-566 187.878,-563.546 186.731,-561.072 185.562,-558.584"/>
<polygon fill="none" stroke="#404040" points="185.49,-558.434 179.292,-554.748 180.311,-547.609 186.509,-551.295 185.49,-558.434"/>
<text text-anchor="middle" x="214" y="-569.5" font-family="Helvetica,sans-Serif" font-size="10.00"> m_Conn</text>
</g>
<!-- Node7 -->
<g id="node12" class="node"><title>Node7</title>
<a xlink:href="classMPD_1_1AbstractComposite.html" target="_top" xlink:title="{MPD::AbstractComposite\n||+ AbstractComposite()\l+ ~AbstractComposite()\l+ is_leaf()\l+ get_path()\l}">
<polygon fill="white" stroke="black" points="217.5,-197 217.5,-287 346.5,-287 346.5,-197 217.5,-197"/>
<text text-anchor="middle" x="282" y="-275" font-family="Helvetica,sans-Serif" font-size="10.00">MPD::AbstractComposite</text>
<polyline fill="none" stroke="black" points="217.5,-268 346.5,-268 "/>
<text text-anchor="middle" x="282" y="-256" font-family="Helvetica,sans-Serif" font-size="10.00"> </text>
<polyline fill="none" stroke="black" points="217.5,-249 346.5,-249 "/>
<text text-anchor="start" x="225.5" y="-237" font-family="Helvetica,sans-Serif" font-size="10.00">+ AbstractComposite()</text>
<text text-anchor="start" x="225.5" y="-226" font-family="Helvetica,sans-Serif" font-size="10.00">+ ~AbstractComposite()</text>
<text text-anchor="start" x="225.5" y="-215" font-family="Helvetica,sans-Serif" font-size="10.00">+ is_leaf()</text>
<text text-anchor="start" x="225.5" y="-204" font-family="Helvetica,sans-Serif" font-size="10.00">+ get_path()</text>
</a>
</g>
<!-- Node7&#45;&gt;Node1 -->
<g id="edge12" class="edge"><title>Node7&#45;&gt;Node1</title>
<path fill="none" stroke="midnightblue" d="M268.54,-186.822C266.159,-177.239 263.639,-167.096 261.137,-157.026"/>
<polygon fill="none" stroke="midnightblue" points="265.156,-187.719 270.964,-196.58 271.949,-186.031 265.156,-187.719"/>
</g>
</g>
</svg>
