<?xml version="1.0" encoding="UTF-8" standalone="no"?>
<!DOCTYPE svg PUBLIC "-//W3C//DTD SVG 1.1//EN"
 "http://www.w3.org/Graphics/SVG/1.1/DTD/svg11.dtd">
<!-- Generated by graphviz version 2.28.0 (20111204.1018)
 -->
<!-- Title: G Pages: 1 -->
<svg width="692pt" height="282pt"
 viewBox="0.00 0.00 692.00 282.00" xmlns="http://www.w3.org/2000/svg" xmlns:xlink="http://www.w3.org/1999/xlink">
<g id="graph1" class="graph" transform="scale(1 1) rotate(0) translate(4 278)">
<title>G</title>
<polygon fill="white" stroke="white" points="-4,5 -4,-278 689,-278 689,5 -4,5"/>
<!-- Node1 -->
<g id="node1" class="node"><title>Node1</title>
<polygon fill="#bfbfbf" stroke="black" points="273,-205 273,-273 387,-273 387,-205 273,-205"/>
<text text-anchor="middle" x="330" y="-261" font-family="Helvetica,sans-Serif" font-size="10.00">MPD::AbstractItemlist</text>
<polyline fill="none" stroke="black" points="273,-254 387,-254 "/>
<text text-anchor="middle" x="330" y="-242" font-family="Helvetica,sans-Serif" font-size="10.00"> </text>
<polyline fill="none" stroke="black" points="273,-235 387,-235 "/>
<text text-anchor="start" x="281" y="-223" font-family="Helvetica,sans-Serif" font-size="10.00">+ add_item()</text>
<text text-anchor="start" x="281" y="-212" font-family="Helvetica,sans-Serif" font-size="10.00">+ ~AbstractItemlist()</text>
</g>
<!-- Node2 -->
<g id="node3" class="node"><title>Node2</title>
<a xlink:href="classBrowser_1_1Database.html" target="_top" xlink:title="The Database Browser.">
<polygon fill="white" stroke="black" points="-0.5,-39 -0.5,-129 100.5,-129 100.5,-39 -0.5,-39"/>
<text text-anchor="middle" x="50" y="-117" font-family="Helvetica,sans-Serif" font-size="10.00">Browser::Database</text>
<polyline fill="none" stroke="black" points="-0.5,-110 100.5,-110 "/>
<text text-anchor="middle" x="50" y="-98" font-family="Helvetica,sans-Serif" font-size="10.00"> </text>
<polyline fill="none" stroke="black" points="-0.5,-91 100.5,-91 "/>
<text text-anchor="start" x="7.5" y="-79" font-family="Helvetica,sans-Serif" font-size="10.00">+ Database()</text>
<text text-anchor="start" x="7.5" y="-68" font-family="Helvetica,sans-Serif" font-size="10.00">+ ~Database()</text>
<text text-anchor="start" x="7.5" y="-57" font-family="Helvetica,sans-Serif" font-size="10.00">+ get_container()</text>
<text text-anchor="start" x="7.5" y="-46" font-family="Helvetica,sans-Serif" font-size="10.00">+ add_item()</text>
</a>
</g>
<!-- Node1&#45;&gt;Node2 -->
<g id="edge2" class="edge"><title>Node1&#45;&gt;Node2</title>
<path fill="none" stroke="midnightblue" d="M262.788,-228.298C216.137,-218.945 154.453,-201.126 109,-168 94.9981,-157.796 83.0702,-143.241 73.6804,-129.161"/>
<polygon fill="none" stroke="midnightblue" points="262.321,-231.772 272.802,-230.223 263.642,-224.898 262.321,-231.772"/>
</g>
<!-- Node3 -->
<g id="node5" class="node"><title>Node3</title>
<a xlink:href="classBrowser_1_1DatabaseCache.html" target="_top" xlink:title="Acts as a Proxy betwenn Browser::Database and MPD::Client, but caches requested data.">
<polygon fill="white" stroke="black" points="118.5,-17 118.5,-151 247.5,-151 247.5,-17 118.5,-17"/>
<text text-anchor="middle" x="183" y="-139" font-family="Helvetica,sans-Serif" font-size="10.00">Browser::DatabaseCache</text>
<polyline fill="none" stroke="black" points="118.5,-132 247.5,-132 "/>
<text text-anchor="middle" x="183" y="-120" font-family="Helvetica,sans-Serif" font-size="10.00"> </text>
<polyline fill="none" stroke="black" points="118.5,-113 247.5,-113 "/>
<text text-anchor="start" x="126.5" y="-101" font-family="Helvetica,sans-Serif" font-size="10.00">+ DatabaseCache()</text>
<text text-anchor="start" x="126.5" y="-90" font-family="Helvetica,sans-Serif" font-size="10.00">+ ~DatabaseCache()</text>
<text text-anchor="start" x="126.5" y="-79" font-family="Helvetica,sans-Serif" font-size="10.00">+ fill_filelist()</text>
<text text-anchor="start" x="126.5" y="-68" font-family="Helvetica,sans-Serif" font-size="10.00">+ add_item()</text>
<text text-anchor="start" x="126.5" y="-57" font-family="Helvetica,sans-Serif" font-size="10.00">+ fill_queue()</text>
<text text-anchor="start" x="126.5" y="-46" font-family="Helvetica,sans-Serif" font-size="10.00">+ fill_queue_changes()</text>
<text text-anchor="start" x="126.5" y="-35" font-family="Helvetica,sans-Serif" font-size="10.00">+ fill_playlists()</text>
<text text-anchor="start" x="126.5" y="-24" font-family="Helvetica,sans-Serif" font-size="10.00">+ fill_outputs()</text>
</a>
</g>
<!-- Node1&#45;&gt;Node3 -->
<g id="edge4" class="edge"><title>Node1&#45;&gt;Node3</title>
<path fill="none" stroke="midnightblue" d="M286.72,-197.573C276.809,-188.021 266.421,-177.77 257,-168 251.774,-162.58 246.422,-156.886 241.105,-151.126"/>
<polygon fill="none" stroke="midnightblue" points="284.539,-200.332 294.182,-204.722 289.382,-195.277 284.539,-200.332"/>
</g>
<!-- Node4 -->
<g id="node7" class="node"><title>Node4</title>
<a xlink:href="classBrowser_1_1PlaylistManager.html" target="_top" xlink:title="Shows a list of stored playlists.">
<polygon fill="white" stroke="black" points="266,-44.5 266,-123.5 394,-123.5 394,-44.5 266,-44.5"/>
<text text-anchor="middle" x="330" y="-111.5" font-family="Helvetica,sans-Serif" font-size="10.00">Browser::PlaylistManager</text>
<polyline fill="none" stroke="black" points="266,-104.5 394,-104.5 "/>
<text text-anchor="middle" x="330" y="-92.5" font-family="Helvetica,sans-Serif" font-size="10.00"> </text>
<polyline fill="none" stroke="black" points="266,-85.5 394,-85.5 "/>
<text text-anchor="start" x="274" y="-73.5" font-family="Helvetica,sans-Serif" font-size="10.00">+ PlaylistManager()</text>
<text text-anchor="start" x="274" y="-62.5" font-family="Helvetica,sans-Serif" font-size="10.00">+ ~PlaylistManager()</text>
<text text-anchor="start" x="274" y="-51.5" font-family="Helvetica,sans-Serif" font-size="10.00">+ get_container()</text>
</a>
</g>
<!-- Node1&#45;&gt;Node4 -->
<g id="edge6" class="edge"><title>Node1&#45;&gt;Node4</title>
<path fill="none" stroke="midnightblue" d="M330,-194.565C330,-172.195 330,-145.155 330,-123.534"/>
<polygon fill="none" stroke="midnightblue" points="326.5,-194.801 330,-204.801 333.5,-194.801 326.5,-194.801"/>
</g>
<!-- Node5 -->
<g id="node9" class="node"><title>Node5</title>
<a xlink:href="classBrowser_1_1QueueMerger.html" target="_top" xlink:title="This class manages the updating and merging of the Queue.">
<polygon fill="white" stroke="black" points="412.5,-39 412.5,-129 535.5,-129 535.5,-39 412.5,-39"/>
<text text-anchor="middle" x="474" y="-117" font-family="Helvetica,sans-Serif" font-size="10.00">Browser::QueueMerger</text>
<polyline fill="none" stroke="black" points="412.5,-110 535.5,-110 "/>
<text text-anchor="middle" x="474" y="-98" font-family="Helvetica,sans-Serif" font-size="10.00"> </text>
<polyline fill="none" stroke="black" points="412.5,-91 535.5,-91 "/>
<text text-anchor="start" x="420.5" y="-79" font-family="Helvetica,sans-Serif" font-size="10.00">+ QueueMerger()</text>
<text text-anchor="start" x="420.5" y="-68" font-family="Helvetica,sans-Serif" font-size="10.00">+ add_item()</text>
<text text-anchor="start" x="420.5" y="-57" font-family="Helvetica,sans-Serif" font-size="10.00">+ disable_merge_once()</text>
<text text-anchor="start" x="420.5" y="-46" font-family="Helvetica,sans-Serif" font-size="10.00">+ recalculate_positions()</text>
</a>
</g>
<!-- Node1&#45;&gt;Node5 -->
<g id="edge8" class="edge"><title>Node1&#45;&gt;Node5</title>
<path fill="none" stroke="midnightblue" d="M373.427,-197.714C383.332,-188.155 393.679,-177.866 403,-168 414.59,-155.732 426.703,-141.963 437.574,-129.218"/>
<polygon fill="none" stroke="midnightblue" points="370.766,-195.417 365.964,-204.861 375.607,-200.472 370.766,-195.417"/>
</g>
<!-- Node6 -->
<g id="node11" class="node"><title>Node6</title>
<a xlink:href="classBrowser_1_1SettingsOutputs.html" target="_top" xlink:title="Outputlist Tab.">
<polygon fill="white" stroke="black" points="553.5,-0.5 553.5,-167.5 684.5,-167.5 684.5,-0.5 553.5,-0.5"/>
<text text-anchor="middle" x="619" y="-155.5" font-family="Helvetica,sans-Serif" font-size="10.00">Browser::SettingsOutputs</text>
<polyline fill="none" stroke="black" points="553.5,-148.5 684.5,-148.5 "/>
<text text-anchor="middle" x="619" y="-136.5" font-family="Helvetica,sans-Serif" font-size="10.00"> </text>
<polyline fill="none" stroke="black" points="553.5,-129.5 684.5,-129.5 "/>
<text text-anchor="start" x="561.5" y="-117.5" font-family="Helvetica,sans-Serif" font-size="10.00">+ SettingsOutputs()</text>
<text text-anchor="start" x="561.5" y="-106.5" font-family="Helvetica,sans-Serif" font-size="10.00">+ ~SettingsOutputs()</text>
<text text-anchor="start" x="561.5" y="-95.5" font-family="Helvetica,sans-Serif" font-size="10.00">+ accept_new_settings()</text>
<text text-anchor="start" x="561.5" y="-84.5" font-family="Helvetica,sans-Serif" font-size="10.00">+ decline_new_settings()</text>
<text text-anchor="start" x="561.5" y="-73.5" font-family="Helvetica,sans-Serif" font-size="10.00">+ reset_settings()</text>
<text text-anchor="start" x="561.5" y="-62.5" font-family="Helvetica,sans-Serif" font-size="10.00">+ add_item()</text>
<text text-anchor="start" x="561.5" y="-51.5" font-family="Helvetica,sans-Serif" font-size="10.00"># on_client_update()</text>
<text text-anchor="start" x="561.5" y="-40.5" font-family="Helvetica,sans-Serif" font-size="10.00"># on_connection_change()</text>
<text text-anchor="start" x="561.5" y="-29.5" font-family="Helvetica,sans-Serif" font-size="10.00"># on_toggle()</text>
<text text-anchor="start" x="561.5" y="-18.5" font-family="Helvetica,sans-Serif" font-size="10.00"># on_select()</text>
<text text-anchor="start" x="561.5" y="-7.5" font-family="Helvetica,sans-Serif" font-size="10.00"># clear()</text>
</a>
</g>
<!-- Node1&#45;&gt;Node6 -->
<g id="edge10" class="edge"><title>Node1&#45;&gt;Node6</title>
<path fill="none" stroke="midnightblue" d="M396.947,-225.519C441.244,-215.08 499.2,-197.1 544,-168 547.095,-165.99 550.143,-163.821 553.135,-161.528"/>
<polygon fill="none" stroke="midnightblue" points="396.111,-222.119 387.142,-227.759 397.671,-228.943 396.111,-222.119"/>
</g>
</g>
</svg>
