<?xml version="1.0" encoding="UTF-8" standalone="no"?>
<!DOCTYPE svg PUBLIC "-//W3C//DTD SVG 1.1//EN"
 "http://www.w3.org/Graphics/SVG/1.1/DTD/svg11.dtd">
<!-- Generated by graphviz version 2.28.0 (20120217.0315)
 -->
<!-- Title: G Pages: 1 -->
<svg width="122pt" height="260pt"
 viewBox="0.00 0.00 122.00 260.00" xmlns="http://www.w3.org/2000/svg" xmlns:xlink="http://www.w3.org/1999/xlink">
<g id="graph1" class="graph" transform="scale(1 1) rotate(0) translate(4 256)">
<title>G</title>
<polygon fill="white" stroke="white" points="-4,5 -4,-256 119,-256 119,5 -4,5"/>
<!-- Node1 -->
<g id="node1" class="node"><title>Node1</title>
<polygon fill="#bfbfbf" stroke="black" points="-1,-1 -1,-157 115,-157 115,-1 -1,-1"/>
<text text-anchor="middle" x="57" y="-145" font-family="Helvetica,sans-Serif" font-size="10.00">CairoSlider</text>
<polyline fill="none" stroke="black" points="-1,-138 115,-138 "/>
<text text-anchor="middle" x="57" y="-126" font-family="Helvetica,sans-Serif" font-size="10.00"> </text>
<polyline fill="none" stroke="black" points="-1,-119 115,-119 "/>
<text text-anchor="start" x="7" y="-107" font-family="Helvetica,sans-Serif" font-size="10.00">+ CairoSlider()</text>
<text text-anchor="start" x="7" y="-96" font-family="Helvetica,sans-Serif" font-size="10.00">+ ~CairoSlider()</text>
<text text-anchor="start" x="7" y="-85" font-family="Helvetica,sans-Serif" font-size="10.00"># on_draw()</text>
<text text-anchor="start" x="7" y="-74" font-family="Helvetica,sans-Serif" font-size="10.00"># get_border()</text>
<text text-anchor="start" x="7" y="-63" font-family="Helvetica,sans-Serif" font-size="10.00"># get_percentage()</text>
<text text-anchor="start" x="7" y="-52" font-family="Helvetica,sans-Serif" font-size="10.00"># set_percentage()</text>
<text text-anchor="start" x="7" y="-41" font-family="Helvetica,sans-Serif" font-size="10.00"># on_percent_change()</text>
<text text-anchor="start" x="7" y="-30" font-family="Helvetica,sans-Serif" font-size="10.00"># get_update_timeout()</text>
<text text-anchor="start" x="7" y="-19" font-family="Helvetica,sans-Serif" font-size="10.00"># get_active_color()</text>
<text text-anchor="start" x="7" y="-8" font-family="Helvetica,sans-Serif" font-size="10.00"># get_inactive_color()</text>
</g>
<!-- Node2 -->
<g id="node2" class="node"><title>Node2</title>
<a xlink:href="classGtk_1_1DrawingArea.html" target="_top" xlink:title="{Gtk::DrawingArea\n||}">
<polygon fill="white" stroke="black" points="9.5,-194.5 9.5,-251.5 104.5,-251.5 104.5,-194.5 9.5,-194.5"/>
<text text-anchor="middle" x="57" y="-239.5" font-family="Helvetica,sans-Serif" font-size="10.00">Gtk::DrawingArea</text>
<polyline fill="none" stroke="black" points="9.5,-232.5 104.5,-232.5 "/>
<text text-anchor="middle" x="57" y="-220.5" font-family="Helvetica,sans-Serif" font-size="10.00"> </text>
<polyline fill="none" stroke="black" points="9.5,-213.5 104.5,-213.5 "/>
<text text-anchor="middle" x="57" y="-201.5" font-family="Helvetica,sans-Serif" font-size="10.00"> </text>
</a>
</g>
<!-- Node2&#45;&gt;Node1 -->
<g id="edge2" class="edge"><title>Node2&#45;&gt;Node1</title>
<path fill="none" stroke="midnightblue" d="M57,-184.128C57,-175.734 57,-166.545 57,-157.212"/>
<polygon fill="none" stroke="midnightblue" points="53.5001,-184.284 57,-194.284 60.5001,-184.284 53.5001,-184.284"/>
</g>
</g>
</svg>
