<?xml version="1.0" encoding="UTF-8" standalone="no"?>
<!DOCTYPE svg PUBLIC "-//W3C//DTD SVG 1.1//EN"
 "http://www.w3.org/Graphics/SVG/1.1/DTD/svg11.dtd">
<!-- Generated by graphviz version 2.28.0 (20111204.1018)
 -->
<!-- Title: G Pages: 1 -->
<svg width="646pt" height="194pt"
 viewBox="0.00 0.00 646.00 194.00" xmlns="http://www.w3.org/2000/svg" xmlns:xlink="http://www.w3.org/1999/xlink">
<g id="graph1" class="graph" transform="scale(1 1) rotate(0) translate(4 190)">
<title>G</title>
<polygon fill="white" stroke="white" points="-4,5 -4,-190 643,-190 643,5 -4,5"/>
<!-- Node1 -->
<g id="node1" class="node"><title>Node1</title>
<polygon fill="#bfbfbf" stroke="black" points="180,-0.5 180,-79.5 338,-79.5 338,-0.5 180,-0.5"/>
<text text-anchor="middle" x="259" y="-67.5" font-family="Helvetica,sans-Serif" font-size="10.00">Browser::OutputsModelColumns</text>
<polyline fill="none" stroke="black" points="180,-60.5 338,-60.5 "/>
<text text-anchor="start" x="188" y="-48.5" font-family="Helvetica,sans-Serif" font-size="10.00">+ colName</text>
<text text-anchor="start" x="188" y="-37.5" font-family="Helvetica,sans-Serif" font-size="10.00">+ colActive</text>
<text text-anchor="start" x="188" y="-26.5" font-family="Helvetica,sans-Serif" font-size="10.00">+ colOutput</text>
<polyline fill="none" stroke="black" points="180,-19.5 338,-19.5 "/>
<text text-anchor="start" x="188" y="-7.5" font-family="Helvetica,sans-Serif" font-size="10.00">+ OutputsModelColumns()</text>
</g>
<!-- Node2 -->
<g id="node2" class="node"><title>Node2</title>
<a xlink:href="classGtk_1_1TreeModel_1_1ColumnRecord.html" target="_top" xlink:title="{ColumnRecord\n||}">
<polygon fill="white" stroke="black" points="0,-128.5 0,-185.5 82,-185.5 82,-128.5 0,-128.5"/>
<text text-anchor="middle" x="41" y="-173.5" font-family="Helvetica,sans-Serif" font-size="10.00">ColumnRecord</text>
<polyline fill="none" stroke="black" points="0,-166.5 82,-166.5 "/>
<text text-anchor="middle" x="41" y="-154.5" font-family="Helvetica,sans-Serif" font-size="10.00"> </text>
<polyline fill="none" stroke="black" points="0,-147.5 82,-147.5 "/>
<text text-anchor="middle" x="41" y="-135.5" font-family="Helvetica,sans-Serif" font-size="10.00"> </text>
</a>
</g>
<!-- Node2&#45;&gt;Node1 -->
<g id="edge2" class="edge"><title>Node2&#45;&gt;Node1</title>
<path fill="none" stroke="midnightblue" d="M90.7288,-128.146C90.8193,-128.097 90.9097,-128.049 91,-128 120.928,-111.876 154.117,-94.5695 183.039,-79.6717"/>
<polygon fill="none" stroke="midnightblue" points="89.2514,-124.965 82.1419,-132.821 92.5983,-131.113 89.2514,-124.965"/>
</g>
<!-- Node3 -->
<g id="node4" class="node"><title>Node3</title>
<polygon fill="white" stroke="#bfbfbf" points="100,-128.5 100,-185.5 232,-185.5 232,-128.5 100,-128.5"/>
<text text-anchor="middle" x="166" y="-173.5" font-family="Helvetica,sans-Serif" font-size="10.00">TreeModelColumn&lt; bool &gt;</text>
<polyline fill="none" stroke="#bfbfbf" points="100,-166.5 232,-166.5 "/>
<text text-anchor="middle" x="166" y="-154.5" font-family="Helvetica,sans-Serif" font-size="10.00"> </text>
<polyline fill="none" stroke="#bfbfbf" points="100,-147.5 232,-147.5 "/>
<text text-anchor="middle" x="166" y="-135.5" font-family="Helvetica,sans-Serif" font-size="10.00"> </text>
</g>
<!-- Node3&#45;&gt;Node1 -->
<g id="edge4" class="edge"><title>Node3&#45;&gt;Node1</title>
<path fill="none" stroke="#404040" d="M188.276,-128.455C197.789,-116.691 209.179,-102.607 220.01,-89.2133"/>
<polygon fill="none" stroke="#404040" points="220.218,-88.9565 220.88,-81.7759 227.764,-79.6258 227.101,-86.8064 220.218,-88.9565"/>
<text text-anchor="middle" x="235" y="-101.5" font-family="Helvetica,sans-Serif" font-size="10.00"> colActive</text>
</g>
<!-- Node4 -->
<g id="node6" class="node"><title>Node4</title>
<polygon fill="white" stroke="#bfbfbf" points="250.5,-128.5 250.5,-185.5 453.5,-185.5 453.5,-128.5 250.5,-128.5"/>
<text text-anchor="middle" x="352" y="-173.5" font-family="Helvetica,sans-Serif" font-size="10.00">TreeModelColumn&lt; MPD::AudioOutput * &gt;</text>
<polyline fill="none" stroke="#bfbfbf" points="250.5,-166.5 453.5,-166.5 "/>
<text text-anchor="middle" x="352" y="-154.5" font-family="Helvetica,sans-Serif" font-size="10.00"> </text>
<polyline fill="none" stroke="#bfbfbf" points="250.5,-147.5 453.5,-147.5 "/>
<text text-anchor="middle" x="352" y="-135.5" font-family="Helvetica,sans-Serif" font-size="10.00"> </text>
</g>
<!-- Node4&#45;&gt;Node1 -->
<g id="edge6" class="edge"><title>Node4&#45;&gt;Node1</title>
<path fill="none" stroke="#404040" d="M329.724,-128.455C320.211,-116.691 308.821,-102.607 297.99,-89.2133"/>
<polygon fill="none" stroke="#404040" points="297.782,-88.9565 290.899,-86.8064 290.236,-79.6258 297.12,-81.7759 297.782,-88.9565"/>
<text text-anchor="middle" x="337" y="-101.5" font-family="Helvetica,sans-Serif" font-size="10.00"> colOutput</text>
</g>
<!-- Node5 -->
<g id="node8" class="node"><title>Node5</title>
<polygon fill="white" stroke="#bfbfbf" points="471.5,-128.5 471.5,-185.5 638.5,-185.5 638.5,-128.5 471.5,-128.5"/>
<text text-anchor="middle" x="555" y="-173.5" font-family="Helvetica,sans-Serif" font-size="10.00">TreeModelColumn&lt; Glib::ustring &gt;</text>
<polyline fill="none" stroke="#bfbfbf" points="471.5,-166.5 638.5,-166.5 "/>
<text text-anchor="middle" x="555" y="-154.5" font-family="Helvetica,sans-Serif" font-size="10.00"> </text>
<polyline fill="none" stroke="#bfbfbf" points="471.5,-147.5 638.5,-147.5 "/>
<text text-anchor="middle" x="555" y="-135.5" font-family="Helvetica,sans-Serif" font-size="10.00"> </text>
</g>
<!-- Node5&#45;&gt;Node1 -->
<g id="edge8" class="edge"><title>Node5&#45;&gt;Node1</title>
<path fill="none" stroke="#404040" d="M484.101,-128.455C443.751,-112.778 392.793,-92.9805 349.57,-76.1878"/>
<polygon fill="none" stroke="#404040" points="349.367,-76.1088 342.325,-77.6644 338.181,-71.763 345.223,-70.2074 349.367,-76.1088"/>
<text text-anchor="middle" x="455.5" y="-101.5" font-family="Helvetica,sans-Serif" font-size="10.00"> colName</text>
</g>
</g>
</svg>
