<?xml version="1.0" encoding="UTF-8" standalone="no"?>
<!DOCTYPE svg PUBLIC "-//W3C//DTD SVG 1.1//EN"
 "http://www.w3.org/Graphics/SVG/1.1/DTD/svg11.dtd">
<!-- Generated by graphviz version 2.28.0 (20111204.1018)
 -->
<!-- Title: G Pages: 1 -->
<svg width="342pt" height="66pt"
 viewBox="0.00 0.00 342.00 66.00" xmlns="http://www.w3.org/2000/svg" xmlns:xlink="http://www.w3.org/1999/xlink">
<g id="graph1" class="graph" transform="scale(1 1) rotate(0) translate(4 62)">
<title>G</title>
<polygon fill="white" stroke="white" points="-4,5 -4,-62 339,-62 339,5 -4,5"/>
<!-- Node1 -->
<g id="node1" class="node"><title>Node1</title>
<polygon fill="#bfbfbf" stroke="black" points="0,-19.5 0,-38.5 140,-38.5 140,-19.5 0,-19.5"/>
<text text-anchor="middle" x="70" y="-26.5" font-family="Helvetica,sans-Serif" font-size="10.00">MPDTestSuite::testConnect</text>
</g>
<!-- Node2 -->
<g id="node3" class="node"><title>Node2</title>
<a xlink:href="classMPD_1_1Client.html#aa896dd836da9c78a01300431dedcd73d" target="_top" xlink:title="Pings server.">
<polygon fill="white" stroke="black" points="207.5,-38.5 207.5,-57.5 302.5,-57.5 302.5,-38.5 207.5,-38.5"/>
<text text-anchor="middle" x="255" y="-45.5" font-family="Helvetica,sans-Serif" font-size="10.00">MPD::Client::ping</text>
</a>
</g>
<!-- Node1&#45;&gt;Node2 -->
<g id="edge2" class="edge"><title>Node1&#45;&gt;Node2</title>
<path fill="none" stroke="midnightblue" d="M140.184,-36.1831C159.056,-38.1424 179.276,-40.2417 197.359,-42.1193"/>
<polygon fill="midnightblue" stroke="midnightblue" points="197.14,-45.6152 207.448,-43.1667 197.863,-38.6526 197.14,-45.6152"/>
</g>
<!-- Node3 -->
<g id="node5" class="node"><title>Node3</title>
<a xlink:href="classMPD_1_1BaseClient.html#a7f307f2b57a8556fe60973b606626d85" target="_top" xlink:title="true if connected">
<polygon fill="white" stroke="black" points="176.5,-0.5 176.5,-19.5 333.5,-19.5 333.5,-0.5 176.5,-0.5"/>
<text text-anchor="middle" x="255" y="-7.5" font-family="Helvetica,sans-Serif" font-size="10.00">MPD::BaseClient::is_connected</text>
</a>
</g>
<!-- Node1&#45;&gt;Node3 -->
<g id="edge4" class="edge"><title>Node1&#45;&gt;Node3</title>
<path fill="none" stroke="midnightblue" d="M140.184,-21.8169C148.696,-20.9332 157.482,-20.021 166.223,-19.1135"/>
<polygon fill="midnightblue" stroke="midnightblue" points="166.858,-22.5664 176.443,-18.0523 166.135,-15.6038 166.858,-22.5664"/>
</g>
</g>
</svg>
