<?xml version="1.0" encoding="UTF-8" standalone="no"?>
<!DOCTYPE svg PUBLIC "-//W3C//DTD SVG 1.1//EN"
 "http://www.w3.org/Graphics/SVG/1.1/DTD/svg11.dtd">
<!-- Generated by graphviz version 2.28.0 (20111204.1018)
 -->
<!-- Title: G Pages: 1 -->
<svg width="450pt" height="66pt"
 viewBox="0.00 0.00 450.00 66.00" xmlns="http://www.w3.org/2000/svg" xmlns:xlink="http://www.w3.org/1999/xlink">
<g id="graph1" class="graph" transform="scale(1 1) rotate(0) translate(4 62)">
<title>G</title>
<polygon fill="white" stroke="white" points="-4,5 -4,-62 447,-62 447,5 -4,5"/>
<!-- Node1 -->
<g id="node1" class="node"><title>Node1</title>
<polygon fill="#bfbfbf" stroke="black" points="0,-19.5 0,-38.5 188,-38.5 188,-19.5 0,-19.5"/>
<text text-anchor="middle" x="94" y="-26.5" font-family="Helvetica,sans-Serif" font-size="10.00">MPD::BaseClient::signal_client_update</text>
</g>
<!-- Node2 -->
<g id="node3" class="node"><title>Node2</title>
<a xlink:href="classMPD_1_1AbstractClientUser.html#aa49671e04a5f96834f3cd35138a68f78" target="_top" xlink:title="Pass a MPD::Client ref to register it&#39;s signals and maintain a pointer to it.">
<polygon fill="white" stroke="black" points="224,-38.5 224,-57.5 442,-57.5 442,-38.5 224,-38.5"/>
<text text-anchor="middle" x="333" y="-45.5" font-family="Helvetica,sans-Serif" font-size="10.00">MPD::AbstractClientUser::AbstractClientUser</text>
</a>
</g>
<!-- Node1&#45;&gt;Node2 -->
<g id="edge2" class="edge"><title>Node1&#45;&gt;Node2</title>
<path fill="none" stroke="midnightblue" d="M198.512,-37.2984C206.912,-37.9718 215.414,-38.6534 223.845,-39.3293"/>
<polygon fill="midnightblue" stroke="midnightblue" points="198.576,-33.7924 188.328,-36.482 198.017,-40.77 198.576,-33.7924"/>
</g>
<!-- Node3 -->
<g id="node5" class="node"><title>Node3</title>
<a xlink:href="classMPDTestSuite.html#a0cf8c1358093b146bd4960fcbfa4bb6c" target="_top" xlink:title="MPDTestSuite::setUp">
<polygon fill="white" stroke="black" points="276.5,-0.5 276.5,-19.5 389.5,-19.5 389.5,-0.5 276.5,-0.5"/>
<text text-anchor="middle" x="333" y="-7.5" font-family="Helvetica,sans-Serif" font-size="10.00">MPDTestSuite::setUp</text>
</a>
</g>
<!-- Node1&#45;&gt;Node3 -->
<g id="edge4" class="edge"><title>Node1&#45;&gt;Node3</title>
<path fill="none" stroke="midnightblue" d="M198.527,-20.7003C225.301,-18.5539 253.111,-16.3244 276.372,-14.4596"/>
<polygon fill="midnightblue" stroke="midnightblue" points="198.017,-17.23 188.328,-21.518 198.576,-24.2076 198.017,-17.23"/>
</g>
</g>
</svg>
