<?xml version="1.0" encoding="UTF-8" standalone="no"?>
<!DOCTYPE svg PUBLIC "-//W3C//DTD SVG 1.1//EN"
 "http://www.w3.org/Graphics/SVG/1.1/DTD/svg11.dtd">
<!-- Generated by graphviz version 2.28.0 (20111204.1018)
 -->
<!-- Title: G Pages: 1 -->
<svg width="272pt" height="282pt"
 viewBox="0.00 0.00 272.00 282.00" xmlns="http://www.w3.org/2000/svg" xmlns:xlink="http://www.w3.org/1999/xlink">
<g id="graph1" class="graph" transform="scale(1 1) rotate(0) translate(4 278)">
<title>G</title>
<polygon fill="white" stroke="white" points="-4,5 -4,-278 269,-278 269,5 -4,5"/>
<!-- Node1 -->
<g id="node1" class="node"><title>Node1</title>
<polygon fill="#bfbfbf" stroke="black" points="0,-1 0,-179 264,-179 264,-1 0,-1"/>
<text text-anchor="middle" x="132" y="-167" font-family="Helvetica,sans-Serif" font-size="10.00">UtilsTestSuite</text>
<polyline fill="none" stroke="black" points="0,-160 264,-160 "/>
<text text-anchor="middle" x="132" y="-148" font-family="Helvetica,sans-Serif" font-size="10.00"> </text>
<polyline fill="none" stroke="black" points="0,-141 264,-141 "/>
<text text-anchor="start" x="8" y="-129" font-family="Helvetica,sans-Serif" font-size="10.00">+ testseconds_to_duration_1_year()</text>
<text text-anchor="start" x="8" y="-118" font-family="Helvetica,sans-Serif" font-size="10.00">+ testseconds_to_duration_check_if_always_the_same()</text>
<text text-anchor="start" x="8" y="-107" font-family="Helvetica,sans-Serif" font-size="10.00">+ testseconds_to_duration_1_second()</text>
<text text-anchor="start" x="8" y="-96" font-family="Helvetica,sans-Serif" font-size="10.00">+ testseconds_to_duration_0_seconds()</text>
<text text-anchor="start" x="8" y="-85" font-family="Helvetica,sans-Serif" font-size="10.00">+ testseconds_to_duration_1_minutes()</text>
<text text-anchor="start" x="8" y="-74" font-family="Helvetica,sans-Serif" font-size="10.00">+ testseconds_to_duration_2_minutes()</text>
<text text-anchor="start" x="8" y="-63" font-family="Helvetica,sans-Serif" font-size="10.00">+ testseconds_to_duration_1_hour()</text>
<text text-anchor="start" x="8" y="-52" font-family="Helvetica,sans-Serif" font-size="10.00">+ testseconds_to_duration_2_hours()</text>
<text text-anchor="start" x="8" y="-41" font-family="Helvetica,sans-Serif" font-size="10.00">+ testseconds_to_duration_1_day()</text>
<text text-anchor="start" x="8" y="-30" font-family="Helvetica,sans-Serif" font-size="10.00">+ testseconds_to_duration_2_days()</text>
<text text-anchor="start" x="8" y="-19" font-family="Helvetica,sans-Serif" font-size="10.00">+ testseconds_to_duration_2_years()</text>
<text text-anchor="start" x="8" y="-8" font-family="Helvetica,sans-Serif" font-size="10.00">+ testseconds_to_timestamp_date1()</text>
</g>
<!-- Node2 -->
<g id="node2" class="node"><title>Node2</title>
<a xlink:href="classCxxTest_1_1TestSuite.html" target="_top" xlink:title="{TestSuite\n||}">
<polygon fill="white" stroke="black" points="102.5,-216.5 102.5,-273.5 161.5,-273.5 161.5,-216.5 102.5,-216.5"/>
<text text-anchor="middle" x="132" y="-261.5" font-family="Helvetica,sans-Serif" font-size="10.00">TestSuite</text>
<polyline fill="none" stroke="black" points="102.5,-254.5 161.5,-254.5 "/>
<text text-anchor="middle" x="132" y="-242.5" font-family="Helvetica,sans-Serif" font-size="10.00"> </text>
<polyline fill="none" stroke="black" points="102.5,-235.5 161.5,-235.5 "/>
<text text-anchor="middle" x="132" y="-223.5" font-family="Helvetica,sans-Serif" font-size="10.00"> </text>
</a>
</g>
<!-- Node2&#45;&gt;Node1 -->
<g id="edge2" class="edge"><title>Node2&#45;&gt;Node1</title>
<path fill="none" stroke="midnightblue" d="M132,-206.166C132,-197.781 132,-188.554 132,-179.086"/>
<polygon fill="none" stroke="midnightblue" points="128.5,-206.293 132,-216.293 135.5,-206.293 128.5,-206.293"/>
</g>
</g>
</svg>
