<?xml version="1.0" encoding="UTF-8" standalone="no"?>
<!DOCTYPE svg PUBLIC "-//W3C//DTD SVG 1.1//EN"
 "http://www.w3.org/Graphics/SVG/1.1/DTD/svg11.dtd">
<!-- Generated by graphviz version 2.28.0 (20120217.0315)
 -->
<!-- Title: G Pages: 1 -->
<svg width="995pt" height="216pt"
 viewBox="0.00 0.00 995.00 216.00" xmlns="http://www.w3.org/2000/svg" xmlns:xlink="http://www.w3.org/1999/xlink">
<g id="graph1" class="graph" transform="scale(1 1) rotate(0) translate(4 212)">
<title>G</title>
<polygon fill="white" stroke="white" points="-4,5 -4,-212 992,-212 992,5 -4,5"/>
<!-- Node1 -->
<g id="node1" class="node"><title>Node1</title>
<polygon fill="#bfbfbf" stroke="black" points="440,-128.5 440,-207.5 550,-207.5 550,-128.5 440,-128.5"/>
<text text-anchor="middle" x="495" y="-195.5" font-family="Helvetica,sans-Serif" font-size="10.00">Glyr::UpdateInterface</text>
<polyline fill="none" stroke="black" points="440,-188.5 550,-188.5 "/>
<text text-anchor="middle" x="495" y="-176.5" font-family="Helvetica,sans-Serif" font-size="10.00"> </text>
<polyline fill="none" stroke="black" points="440,-169.5 550,-169.5 "/>
<text text-anchor="start" x="448" y="-157.5" font-family="Helvetica,sans-Serif" font-size="10.00">+ UpdateInterface()</text>
<text text-anchor="start" x="448" y="-146.5" font-family="Helvetica,sans-Serif" font-size="10.00">+ update()</text>
<text text-anchor="start" x="448" y="-135.5" font-family="Helvetica,sans-Serif" font-size="10.00">+ on_deliver()</text>
</g>
<!-- Node2 -->
<g id="node3" class="node"><title>Node2</title>
<a xlink:href="classBrowser_1_1ArtistPhotosMgr.html" target="_top" xlink:title="{Browser::ArtistPhotosMgr\n||+ ArtistPhotosMgr()\l+ update()\l+ on_deliver()\l}">
<polygon fill="white" stroke="black" points="-0.5,-6.5 -0.5,-85.5 128.5,-85.5 128.5,-6.5 -0.5,-6.5"/>
<text text-anchor="middle" x="64" y="-73.5" font-family="Helvetica,sans-Serif" font-size="10.00">Browser::ArtistPhotosMgr</text>
<polyline fill="none" stroke="black" points="-0.5,-66.5 128.5,-66.5 "/>
<text text-anchor="middle" x="64" y="-54.5" font-family="Helvetica,sans-Serif" font-size="10.00"> </text>
<polyline fill="none" stroke="black" points="-0.5,-47.5 128.5,-47.5 "/>
<text text-anchor="start" x="7.5" y="-35.5" font-family="Helvetica,sans-Serif" font-size="10.00">+ ArtistPhotosMgr()</text>
<text text-anchor="start" x="7.5" y="-24.5" font-family="Helvetica,sans-Serif" font-size="10.00">+ update()</text>
<text text-anchor="start" x="7.5" y="-13.5" font-family="Helvetica,sans-Serif" font-size="10.00">+ on_deliver()</text>
</a>
</g>
<!-- Node1&#45;&gt;Node2 -->
<g id="edge2" class="edge"><title>Node1&#45;&gt;Node2</title>
<path fill="none" stroke="midnightblue" d="M429.828,-160.039C356.765,-150.715 235.727,-130.662 138,-92 133.246,-90.1193 128.45,-87.9445 123.706,-85.5867"/>
<polygon fill="none" stroke="midnightblue" points="429.456,-163.52 439.812,-161.285 430.322,-156.574 429.456,-163.52"/>
</g>
<!-- Node3 -->
<g id="node5" class="node"><title>Node3</title>
<a xlink:href="classBrowser_1_1CoverArtMgr.html" target="_top" xlink:title="{Browser::CoverArtMgr\n||+ CoverArtMgr()\l+ ~CoverArtMgr()\l# update()\l# on_deliver()\l}">
<polygon fill="white" stroke="black" points="147,-1 147,-91 261,-91 261,-1 147,-1"/>
<text text-anchor="middle" x="204" y="-79" font-family="Helvetica,sans-Serif" font-size="10.00">Browser::CoverArtMgr</text>
<polyline fill="none" stroke="black" points="147,-72 261,-72 "/>
<text text-anchor="middle" x="204" y="-60" font-family="Helvetica,sans-Serif" font-size="10.00"> </text>
<polyline fill="none" stroke="black" points="147,-53 261,-53 "/>
<text text-anchor="start" x="155" y="-41" font-family="Helvetica,sans-Serif" font-size="10.00">+ CoverArtMgr()</text>
<text text-anchor="start" x="155" y="-30" font-family="Helvetica,sans-Serif" font-size="10.00">+ ~CoverArtMgr()</text>
<text text-anchor="start" x="155" y="-19" font-family="Helvetica,sans-Serif" font-size="10.00"># update()</text>
<text text-anchor="start" x="155" y="-8" font-family="Helvetica,sans-Serif" font-size="10.00"># on_deliver()</text>
</a>
</g>
<!-- Node1&#45;&gt;Node3 -->
<g id="edge4" class="edge"><title>Node1&#45;&gt;Node3</title>
<path fill="none" stroke="midnightblue" d="M429.839,-150.454C383.874,-137.554 321.558,-117.55 270,-92 267.018,-90.5221 264.015,-88.9258 261.021,-87.2463"/>
<polygon fill="none" stroke="midnightblue" points="429.111,-153.884 439.682,-153.178 430.978,-147.138 429.111,-153.884"/>
</g>
<!-- Node4 -->
<g id="node7" class="node"><title>Node4</title>
<a xlink:href="classBrowser_1_1OtherAlbumsMgr.html" target="_top" xlink:title="{Browser::OtherAlbumsMgr\n||+ OtherAlbumsMgr()\l+ update()\l+ on_deliver()\l}">
<polygon fill="white" stroke="black" points="279,-6.5 279,-85.5 411,-85.5 411,-6.5 279,-6.5"/>
<text text-anchor="middle" x="345" y="-73.5" font-family="Helvetica,sans-Serif" font-size="10.00">Browser::OtherAlbumsMgr</text>
<polyline fill="none" stroke="black" points="279,-66.5 411,-66.5 "/>
<text text-anchor="middle" x="345" y="-54.5" font-family="Helvetica,sans-Serif" font-size="10.00"> </text>
<polyline fill="none" stroke="black" points="279,-47.5 411,-47.5 "/>
<text text-anchor="start" x="287" y="-35.5" font-family="Helvetica,sans-Serif" font-size="10.00">+ OtherAlbumsMgr()</text>
<text text-anchor="start" x="287" y="-24.5" font-family="Helvetica,sans-Serif" font-size="10.00">+ update()</text>
<text text-anchor="start" x="287" y="-13.5" font-family="Helvetica,sans-Serif" font-size="10.00">+ on_deliver()</text>
</a>
</g>
<!-- Node1&#45;&gt;Node4 -->
<g id="edge6" class="edge"><title>Node1&#45;&gt;Node4</title>
<path fill="none" stroke="midnightblue" d="M438.544,-121.835C423.616,-109.893 407.642,-97.1138 393.196,-85.5569"/>
<polygon fill="none" stroke="midnightblue" points="436.718,-124.857 446.713,-128.371 441.091,-119.391 436.718,-124.857"/>
</g>
<!-- Node5 -->
<g id="node9" class="node"><title>Node5</title>
<a xlink:href="classBrowser_1_1RelatedLinksMgr.html" target="_top" xlink:title="{Browser::RelatedLinksMgr\n||+ RelatedLinksMgr()\l+ update()\l+ on_deliver()\l}">
<polygon fill="white" stroke="black" points="429,-6.5 429,-85.5 561,-85.5 561,-6.5 429,-6.5"/>
<text text-anchor="middle" x="495" y="-73.5" font-family="Helvetica,sans-Serif" font-size="10.00">Browser::RelatedLinksMgr</text>
<polyline fill="none" stroke="black" points="429,-66.5 561,-66.5 "/>
<text text-anchor="middle" x="495" y="-54.5" font-family="Helvetica,sans-Serif" font-size="10.00"> </text>
<polyline fill="none" stroke="black" points="429,-47.5 561,-47.5 "/>
<text text-anchor="start" x="437" y="-35.5" font-family="Helvetica,sans-Serif" font-size="10.00">+ RelatedLinksMgr()</text>
<text text-anchor="start" x="437" y="-24.5" font-family="Helvetica,sans-Serif" font-size="10.00">+ update()</text>
<text text-anchor="start" x="437" y="-13.5" font-family="Helvetica,sans-Serif" font-size="10.00">+ on_deliver()</text>
</a>
</g>
<!-- Node1&#45;&gt;Node5 -->
<g id="edge8" class="edge"><title>Node1&#45;&gt;Node5</title>
<path fill="none" stroke="midnightblue" d="M495,-118.162C495,-107.302 495,-95.9367 495,-85.5569"/>
<polygon fill="none" stroke="midnightblue" points="491.5,-118.371 495,-128.371 498.5,-118.371 491.5,-118.371"/>
</g>
<!-- Node6 -->
<g id="node11" class="node"><title>Node6</title>
<a xlink:href="classBrowser_1_1TextItemsMgr.html" target="_top" xlink:title="{Browser::TextItemsMgr\n||+ TextItemsMgr()\l+ update()\l# on_type_combo_changed()\l# add_txtview_page()\l}">
<polygon fill="white" stroke="black" points="579,-1 579,-91 721,-91 721,-1 579,-1"/>
<text text-anchor="middle" x="650" y="-79" font-family="Helvetica,sans-Serif" font-size="10.00">Browser::TextItemsMgr</text>
<polyline fill="none" stroke="black" points="579,-72 721,-72 "/>
<text text-anchor="middle" x="650" y="-60" font-family="Helvetica,sans-Serif" font-size="10.00"> </text>
<polyline fill="none" stroke="black" points="579,-53 721,-53 "/>
<text text-anchor="start" x="587" y="-41" font-family="Helvetica,sans-Serif" font-size="10.00">+ TextItemsMgr()</text>
<text text-anchor="start" x="587" y="-30" font-family="Helvetica,sans-Serif" font-size="10.00">+ update()</text>
<text text-anchor="start" x="587" y="-19" font-family="Helvetica,sans-Serif" font-size="10.00"># on_type_combo_changed()</text>
<text text-anchor="start" x="587" y="-8" font-family="Helvetica,sans-Serif" font-size="10.00"># add_txtview_page()</text>
</a>
</g>
<!-- Node1&#45;&gt;Node6 -->
<g id="edge10" class="edge"><title>Node1&#45;&gt;Node6</title>
<path fill="none" stroke="midnightblue" d="M552.923,-122.157C566.002,-112.031 579.877,-101.288 592.922,-91.1896"/>
<polygon fill="none" stroke="midnightblue" points="550.661,-119.481 544.896,-128.371 554.946,-125.016 550.661,-119.481"/>
</g>
<!-- Node7 -->
<g id="node13" class="node"><title>Node7</title>
<a xlink:href="classBrowser_1_1TextPageMgr.html" target="_top" xlink:title="{Browser::TextPageMgr\n||+ TextPageMgr()\l+ update()\l+ set_request_type()\l+ on_deliver()\l}">
<polygon fill="white" stroke="black" points="739.5,-1 739.5,-91 856.5,-91 856.5,-1 739.5,-1"/>
<text text-anchor="middle" x="798" y="-79" font-family="Helvetica,sans-Serif" font-size="10.00">Browser::TextPageMgr</text>
<polyline fill="none" stroke="black" points="739.5,-72 856.5,-72 "/>
<text text-anchor="middle" x="798" y="-60" font-family="Helvetica,sans-Serif" font-size="10.00"> </text>
<polyline fill="none" stroke="black" points="739.5,-53 856.5,-53 "/>
<text text-anchor="start" x="747.5" y="-41" font-family="Helvetica,sans-Serif" font-size="10.00">+ TextPageMgr()</text>
<text text-anchor="start" x="747.5" y="-30" font-family="Helvetica,sans-Serif" font-size="10.00">+ update()</text>
<text text-anchor="start" x="747.5" y="-19" font-family="Helvetica,sans-Serif" font-size="10.00">+ set_request_type()</text>
<text text-anchor="start" x="747.5" y="-8" font-family="Helvetica,sans-Serif" font-size="10.00">+ on_deliver()</text>
</a>
</g>
<!-- Node1&#45;&gt;Node7 -->
<g id="edge12" class="edge"><title>Node1&#45;&gt;Node7</title>
<path fill="none" stroke="midnightblue" d="M559.991,-151.439C608.223,-138.667 674.897,-118.398 730,-92 733.064,-90.5321 736.151,-88.9439 739.23,-87.2709"/>
<polygon fill="none" stroke="midnightblue" points="559.085,-148.058 550.294,-153.972 560.854,-154.831 559.085,-148.058"/>
</g>
<!-- Node8 -->
<g id="node15" class="node"><title>Node8</title>
<a xlink:href="classBrowser_1_1TracklistMgr.html" target="_top" xlink:title="{Browser::TracklistMgr\n||+ TracklistMgr()\l+ update()\l}">
<polygon fill="white" stroke="black" points="874.5,-12 874.5,-80 987.5,-80 987.5,-12 874.5,-12"/>
<text text-anchor="middle" x="931" y="-68" font-family="Helvetica,sans-Serif" font-size="10.00">Browser::TracklistMgr</text>
<polyline fill="none" stroke="black" points="874.5,-61 987.5,-61 "/>
<text text-anchor="middle" x="931" y="-49" font-family="Helvetica,sans-Serif" font-size="10.00"> </text>
<polyline fill="none" stroke="black" points="874.5,-42 987.5,-42 "/>
<text text-anchor="start" x="882.5" y="-30" font-family="Helvetica,sans-Serif" font-size="10.00">+ TracklistMgr()</text>
<text text-anchor="start" x="882.5" y="-19" font-family="Helvetica,sans-Serif" font-size="10.00">+ update()</text>
</a>
</g>
<!-- Node1&#45;&gt;Node8 -->
<g id="edge14" class="edge"><title>Node1&#45;&gt;Node8</title>
<path fill="none" stroke="midnightblue" d="M560.66,-161.623C636.488,-153.637 763.778,-134.701 865,-92 872.667,-88.7658 880.365,-84.5756 887.659,-80.0554"/>
<polygon fill="none" stroke="midnightblue" points="559.903,-158.182 550.31,-162.679 560.613,-165.146 559.903,-158.182"/>
</g>
</g>
</svg>
