<?xml version="1.0" encoding="UTF-8" standalone="no"?>
<!DOCTYPE svg PUBLIC "-//W3C//DTD SVG 1.1//EN"
 "http://www.w3.org/Graphics/SVG/1.1/DTD/svg11.dtd">
<!-- Generated by graphviz version 2.28.0 (20120217.0315)
 -->
<!-- Title: G Pages: 1 -->
<svg width="398pt" height="66pt"
 viewBox="0.00 0.00 398.00 66.00" xmlns="http://www.w3.org/2000/svg" xmlns:xlink="http://www.w3.org/1999/xlink">
<g id="graph1" class="graph" transform="scale(1 1) rotate(0) translate(4 62)">
<title>G</title>
<polygon fill="white" stroke="white" points="-4,5 -4,-62 395,-62 395,5 -4,5"/>
<!-- Node1 -->
<g id="node1" class="node"><title>Node1</title>
<polygon fill="#bfbfbf" stroke="black" points="0.5,-19.5 0.5,-38.5 131.5,-38.5 131.5,-19.5 0.5,-19.5"/>
<text text-anchor="middle" x="66" y="-26.5" font-family="Helvetica,sans-Serif" font-size="10.00">MPD::Status::get_random</text>
</g>
<!-- Node2 -->
<g id="node3" class="node"><title>Node2</title>
<a xlink:href="classMPDTestSuite.html#ad7ec644d8d87f5c1d920b402db652b82" target="_top" xlink:title="MPDTestSuite::toggleCommandsClientUpdate">
<polygon fill="white" stroke="black" points="168.5,-38.5 168.5,-57.5 389.5,-57.5 389.5,-38.5 168.5,-38.5"/>
<text text-anchor="middle" x="279" y="-45.5" font-family="Helvetica,sans-Serif" font-size="10.00">MPDTestSuite::toggleCommandsClientUpdate</text>
</a>
</g>
<!-- Node1&#45;&gt;Node2 -->
<g id="edge2" class="edge"><title>Node1&#45;&gt;Node2</title>
<path fill="none" stroke="midnightblue" d="M141.846,-35.7397C151.694,-36.6265 161.933,-37.5484 172.175,-38.4708"/>
<polygon fill="midnightblue" stroke="midnightblue" points="142.015,-32.2408 131.741,-34.8297 141.387,-39.2126 142.015,-32.2408"/>
</g>
<!-- Node3 -->
<g id="node5" class="node"><title>Node3</title>
<a xlink:href="classMPDTestSuite.html#a31339f9f36aa7325309729bec095002e" target="_top" xlink:title="MPDTestSuite::testToggleCommands">
<polygon fill="white" stroke="black" points="187.5,-0.5 187.5,-19.5 370.5,-19.5 370.5,-0.5 187.5,-0.5"/>
<text text-anchor="middle" x="279" y="-7.5" font-family="Helvetica,sans-Serif" font-size="10.00">MPDTestSuite::testToggleCommands</text>
</a>
</g>
<!-- Node1&#45;&gt;Node3 -->
<g id="edge4" class="edge"><title>Node1&#45;&gt;Node3</title>
<path fill="none" stroke="midnightblue" d="M141.793,-22.265C156.539,-20.9372 172.161,-19.5305 187.364,-18.1616"/>
<polygon fill="midnightblue" stroke="midnightblue" points="141.387,-18.7874 131.741,-23.1703 142.015,-25.7592 141.387,-18.7874"/>
</g>
</g>
</svg>
