<?xml version="1.0" encoding="UTF-8" standalone="no"?>
<!DOCTYPE svg PUBLIC "-//W3C//DTD SVG 1.1//EN"
 "http://www.w3.org/Graphics/SVG/1.1/DTD/svg11.dtd">
<!-- Generated by graphviz version 2.28.0 (20111204.1018)
 -->
<!-- Title: G Pages: 1 -->
<svg width="435pt" height="334pt"
 viewBox="0.00 0.00 435.00 334.00" xmlns="http://www.w3.org/2000/svg" xmlns:xlink="http://www.w3.org/1999/xlink">
<g id="graph1" class="graph" transform="scale(1 1) rotate(0) translate(4 330)">
<title>G</title>
<polygon fill="white" stroke="white" points="-4,5 -4,-330 432,-330 432,5 -4,5"/>
<!-- Node1 -->
<g id="node1" class="node"><title>Node1</title>
<polygon fill="#bfbfbf" stroke="black" points="72,-0.5 72,-57.5 228,-57.5 228,-0.5 72,-0.5"/>
<text text-anchor="middle" x="150" y="-45.5" font-family="Helvetica,sans-Serif" font-size="10.00">Browser::PlaylistManagerPopup</text>
<polyline fill="none" stroke="black" points="72,-38.5 228,-38.5 "/>
<text text-anchor="middle" x="150" y="-26.5" font-family="Helvetica,sans-Serif" font-size="10.00"> </text>
<polyline fill="none" stroke="black" points="72,-19.5 228,-19.5 "/>
<text text-anchor="start" x="80" y="-7.5" font-family="Helvetica,sans-Serif" font-size="10.00">+ PlaylistManagerPopup()</text>
</g>
<!-- Node2 -->
<g id="node2" class="node"><title>Node2</title>
<a xlink:href="classBrowser_1_1BasePopup.html" target="_top" xlink:title="A Baseclass for Widgets that want to implement easily popup widgets.">
<polygon fill="white" stroke="black" points="95.5,-96.5 95.5,-219.5 204.5,-219.5 204.5,-96.5 95.5,-96.5"/>
<text text-anchor="middle" x="150" y="-207.5" font-family="Helvetica,sans-Serif" font-size="10.00">Browser::BasePopup</text>
<polyline fill="none" stroke="black" points="95.5,-200.5 204.5,-200.5 "/>
<text text-anchor="start" x="103.5" y="-188.5" font-family="Helvetica,sans-Serif" font-size="10.00"># m_refUIManager</text>
<text text-anchor="start" x="103.5" y="-177.5" font-family="Helvetica,sans-Serif" font-size="10.00"># m_refActionGroup</text>
<text text-anchor="start" x="103.5" y="-166.5" font-family="Helvetica,sans-Serif" font-size="10.00"># m_UiDefinition</text>
<text text-anchor="start" x="103.5" y="-155.5" font-family="Helvetica,sans-Serif" font-size="10.00"># mp_Popup</text>
<polyline fill="none" stroke="black" points="95.5,-148.5 204.5,-148.5 "/>
<text text-anchor="start" x="103.5" y="-136.5" font-family="Helvetica,sans-Serif" font-size="10.00">+ BasePopup()</text>
<text text-anchor="start" x="103.5" y="-125.5" font-family="Helvetica,sans-Serif" font-size="10.00">+ get_action()</text>
<text text-anchor="start" x="103.5" y="-114.5" font-family="Helvetica,sans-Serif" font-size="10.00"># menu_add_item()</text>
<text text-anchor="start" x="103.5" y="-103.5" font-family="Helvetica,sans-Serif" font-size="10.00"># menu_construct()</text>
</a>
</g>
<!-- Node2&#45;&gt;Node1 -->
<g id="edge2" class="edge"><title>Node2&#45;&gt;Node1</title>
<path fill="none" stroke="midnightblue" d="M150,-86.3222C150,-76.2122 150,-66.348 150,-57.7726"/>
<polygon fill="none" stroke="midnightblue" points="146.5,-86.4756 150,-96.4756 153.5,-86.4756 146.5,-86.4756"/>
</g>
<!-- Node3 -->
<g id="node4" class="node"><title>Node3</title>
<polygon fill="white" stroke="#bfbfbf" points="-0.5,-268.5 -0.5,-325.5 46.5,-325.5 46.5,-268.5 -0.5,-268.5"/>
<text text-anchor="middle" x="23" y="-313.5" font-family="Helvetica,sans-Serif" font-size="10.00">Menu *</text>
<polyline fill="none" stroke="#bfbfbf" points="-0.5,-306.5 46.5,-306.5 "/>
<text text-anchor="middle" x="23" y="-294.5" font-family="Helvetica,sans-Serif" font-size="10.00"> </text>
<polyline fill="none" stroke="#bfbfbf" points="-0.5,-287.5 46.5,-287.5 "/>
<text text-anchor="middle" x="23" y="-275.5" font-family="Helvetica,sans-Serif" font-size="10.00"> </text>
</g>
<!-- Node3&#45;&gt;Node2 -->
<g id="edge4" class="edge"><title>Node3&#45;&gt;Node2</title>
<path fill="none" stroke="#404040" d="M37.3479,-268.229C43.1226,-258.227 50.2526,-247.159 58,-238 66.432,-228.032 76.1777,-218.257 86.1058,-209.167"/>
<polygon fill="none" stroke="#404040" points="86.283,-209.01 88.1015,-202.031 95.2422,-201.026 93.4237,-208.004 86.283,-209.01"/>
<text text-anchor="middle" x="83" y="-241.5" font-family="Helvetica,sans-Serif" font-size="10.00"> mp_Popup</text>
</g>
<!-- Node4 -->
<g id="node6" class="node"><title>Node4</title>
<polygon fill="white" stroke="#bfbfbf" points="66.5,-268.5 66.5,-325.5 119.5,-325.5 119.5,-268.5 66.5,-268.5"/>
<text text-anchor="middle" x="93" y="-313.5" font-family="Helvetica,sans-Serif" font-size="10.00">ustring *</text>
<polyline fill="none" stroke="#bfbfbf" points="66.5,-306.5 119.5,-306.5 "/>
<text text-anchor="middle" x="93" y="-294.5" font-family="Helvetica,sans-Serif" font-size="10.00"> </text>
<polyline fill="none" stroke="#bfbfbf" points="66.5,-287.5 119.5,-287.5 "/>
<text text-anchor="middle" x="93" y="-275.5" font-family="Helvetica,sans-Serif" font-size="10.00"> </text>
</g>
<!-- Node4&#45;&gt;Node2 -->
<g id="edge6" class="edge"><title>Node4&#45;&gt;Node2</title>
<path fill="none" stroke="#404040" d="M104.456,-268.26C108.422,-258.672 112.9,-247.861 117,-238 117.958,-235.695 118.933,-233.352 119.918,-230.986"/>
<polygon fill="none" stroke="#404040" points="119.961,-230.882 118.576,-223.806 124.576,-219.805 125.961,-226.882 119.961,-230.882"/>
<text text-anchor="middle" x="151" y="-241.5" font-family="Helvetica,sans-Serif" font-size="10.00"> m_UiDefinition</text>
</g>
<!-- Node5 -->
<g id="node8" class="node"><title>Node5</title>
<polygon fill="white" stroke="#bfbfbf" points="137.5,-268.5 137.5,-325.5 276.5,-325.5 276.5,-268.5 137.5,-268.5"/>
<text text-anchor="middle" x="207" y="-313.5" font-family="Helvetica,sans-Serif" font-size="10.00">RefPtr&lt; Gtk::ActionGroup &gt;</text>
<polyline fill="none" stroke="#bfbfbf" points="137.5,-306.5 276.5,-306.5 "/>
<text text-anchor="middle" x="207" y="-294.5" font-family="Helvetica,sans-Serif" font-size="10.00"> </text>
<polyline fill="none" stroke="#bfbfbf" points="137.5,-287.5 276.5,-287.5 "/>
<text text-anchor="middle" x="207" y="-275.5" font-family="Helvetica,sans-Serif" font-size="10.00"> </text>
</g>
<!-- Node5&#45;&gt;Node2 -->
<g id="edge8" class="edge"><title>Node5&#45;&gt;Node2</title>
<path fill="none" stroke="#404040" d="M196.897,-268.441C193.26,-258.77 189.051,-247.862 185,-238 184.043,-235.669 183.06,-233.304 182.06,-230.92"/>
<polygon fill="none" stroke="#404040" points="181.973,-230.714 175.944,-226.757 177.279,-219.671 183.307,-223.628 181.973,-230.714"/>
<text text-anchor="middle" x="230" y="-241.5" font-family="Helvetica,sans-Serif" font-size="10.00"> m_refActionGroup</text>
</g>
<!-- Node6 -->
<g id="node10" class="node"><title>Node6</title>
<polygon fill="white" stroke="#bfbfbf" points="294.5,-268.5 294.5,-325.5 427.5,-325.5 427.5,-268.5 294.5,-268.5"/>
<text text-anchor="middle" x="361" y="-313.5" font-family="Helvetica,sans-Serif" font-size="10.00">RefPtr&lt; Gtk::UIManager &gt;</text>
<polyline fill="none" stroke="#bfbfbf" points="294.5,-306.5 427.5,-306.5 "/>
<text text-anchor="middle" x="361" y="-294.5" font-family="Helvetica,sans-Serif" font-size="10.00"> </text>
<polyline fill="none" stroke="#bfbfbf" points="294.5,-287.5 427.5,-287.5 "/>
<text text-anchor="middle" x="361" y="-275.5" font-family="Helvetica,sans-Serif" font-size="10.00"> </text>
</g>
<!-- Node6&#45;&gt;Node2 -->
<g id="edge10" class="edge"><title>Node6&#45;&gt;Node2</title>
<path fill="none" stroke="#404040" d="M320.48,-268.312C306.171,-258.63 289.928,-247.748 275,-238 255.595,-225.329 234.332,-211.77 214.934,-199.526"/>
<polygon fill="none" stroke="#404040" points="214.831,-199.461 207.622,-199.647 204.678,-193.064 211.886,-192.878 214.831,-199.461"/>
<text text-anchor="middle" x="329" y="-241.5" font-family="Helvetica,sans-Serif" font-size="10.00"> m_refUIManager</text>
</g>
</g>
</svg>
