<?xml version="1.0" encoding="UTF-8" standalone="no"?>
<!DOCTYPE svg PUBLIC "-//W3C//DTD SVG 1.1//EN"
 "http://www.w3.org/Graphics/SVG/1.1/DTD/svg11.dtd">
<!-- Generated by graphviz version 2.28.0 (20111204.1018)
 -->
<!-- Title: G Pages: 1 -->
<svg width="411pt" height="738pt"
 viewBox="0.00 0.00 411.00 738.00" xmlns="http://www.w3.org/2000/svg" xmlns:xlink="http://www.w3.org/1999/xlink">
<g id="graph1" class="graph" transform="scale(1 1) rotate(0) translate(4 734)">
<title>G</title>
<polygon fill="white" stroke="white" points="-4,5 -4,-734 408,-734 408,5 -4,5"/>
<!-- Node1 -->
<g id="node1" class="node"><title>Node1</title>
<polygon fill="#bfbfbf" stroke="black" points="248.5,-0.5 248.5,-123.5 347.5,-123.5 347.5,-0.5 248.5,-0.5"/>
<text text-anchor="middle" x="298" y="-111.5" font-family="Helvetica,sans-Serif" font-size="10.00">MPD::AudioOutput</text>
<polyline fill="none" stroke="black" points="248.5,-104.5 347.5,-104.5 "/>
<text text-anchor="middle" x="298" y="-92.5" font-family="Helvetica,sans-Serif" font-size="10.00"> </text>
<polyline fill="none" stroke="black" points="248.5,-85.5 347.5,-85.5 "/>
<text text-anchor="start" x="256.5" y="-73.5" font-family="Helvetica,sans-Serif" font-size="10.00">+ AudioOutput()</text>
<text text-anchor="start" x="256.5" y="-62.5" font-family="Helvetica,sans-Serif" font-size="10.00">+ get_id()</text>
<text text-anchor="start" x="256.5" y="-51.5" font-family="Helvetica,sans-Serif" font-size="10.00">+ get_name()</text>
<text text-anchor="start" x="256.5" y="-40.5" font-family="Helvetica,sans-Serif" font-size="10.00">+ get_enabled()</text>
<text text-anchor="start" x="256.5" y="-29.5" font-family="Helvetica,sans-Serif" font-size="10.00">+ enable()</text>
<text text-anchor="start" x="256.5" y="-18.5" font-family="Helvetica,sans-Serif" font-size="10.00">+ disable()</text>
<text text-anchor="start" x="256.5" y="-7.5" font-family="Helvetica,sans-Serif" font-size="10.00">+ get_path()</text>
</g>
<!-- Node2 -->
<g id="node2" class="node"><title>Node2</title>
<a xlink:href="classMPD_1_1AbstractClientExtension.html" target="_top" xlink:title="Abstract base class for classes that want to implement spefic MPD Commands.">
<polygon fill="white" stroke="black" points="104.5,-168.5 104.5,-247.5 255.5,-247.5 255.5,-168.5 104.5,-168.5"/>
<text text-anchor="middle" x="180" y="-235.5" font-family="Helvetica,sans-Serif" font-size="10.00">MPD::AbstractClientExtension</text>
<polyline fill="none" stroke="black" points="104.5,-228.5 255.5,-228.5 "/>
<text text-anchor="start" x="112.5" y="-216.5" font-family="Helvetica,sans-Serif" font-size="10.00"># mp_BaseClient</text>
<polyline fill="none" stroke="black" points="104.5,-209.5 255.5,-209.5 "/>
<text text-anchor="start" x="112.5" y="-197.5" font-family="Helvetica,sans-Serif" font-size="10.00">+ AbstractClientExtension()</text>
<text text-anchor="start" x="112.5" y="-186.5" font-family="Helvetica,sans-Serif" font-size="10.00">+ ~AbstractClientExtension()</text>
<text text-anchor="start" x="112.5" y="-175.5" font-family="Helvetica,sans-Serif" font-size="10.00"># get_c_connection()</text>
</a>
</g>
<!-- Node2&#45;&gt;Node1 -->
<g id="edge2" class="edge"><title>Node2&#45;&gt;Node1</title>
<path fill="none" stroke="midnightblue" d="M218.164,-160.427C227.833,-148.628 238.358,-135.783 248.5,-123.407"/>
<polygon fill="none" stroke="midnightblue" points="215.253,-158.457 211.622,-168.411 220.667,-162.894 215.253,-158.457"/>
</g>
<!-- Node3 -->
<g id="node4" class="node"><title>Node3</title>
<a xlink:href="classMPD_1_1BaseClient.html" target="_top" xlink:title="The Base to MPD::Client.">
<polygon fill="white" stroke="black" points="107,-302.5 107,-513.5 253,-513.5 253,-302.5 107,-302.5"/>
<text text-anchor="middle" x="180" y="-501.5" font-family="Helvetica,sans-Serif" font-size="10.00">MPD::BaseClient</text>
<polyline fill="none" stroke="black" points="107,-494.5 253,-494.5 "/>
<text text-anchor="start" x="115" y="-482.5" font-family="Helvetica,sans-Serif" font-size="10.00"># m_Conn</text>
<text text-anchor="start" x="115" y="-471.5" font-family="Helvetica,sans-Serif" font-size="10.00"># mp_Listener</text>
<text text-anchor="start" x="115" y="-460.5" font-family="Helvetica,sans-Serif" font-size="10.00"># m_ListBegun</text>
<polyline fill="none" stroke="black" points="107,-453.5 253,-453.5 "/>
<text text-anchor="start" x="115" y="-441.5" font-family="Helvetica,sans-Serif" font-size="10.00">+ go_idle()</text>
<text text-anchor="start" x="115" y="-430.5" font-family="Helvetica,sans-Serif" font-size="10.00">+ go_busy()</text>
<text text-anchor="start" x="115" y="-419.5" font-family="Helvetica,sans-Serif" font-size="10.00">+ get_connection()</text>
<text text-anchor="start" x="115" y="-408.5" font-family="Helvetica,sans-Serif" font-size="10.00">+ is_connected()</text>
<text text-anchor="start" x="115" y="-397.5" font-family="Helvetica,sans-Serif" font-size="10.00">+ begin()</text>
<text text-anchor="start" x="115" y="-386.5" font-family="Helvetica,sans-Serif" font-size="10.00">+ commit()</text>
<text text-anchor="start" x="115" y="-375.5" font-family="Helvetica,sans-Serif" font-size="10.00">+ get_status()</text>
<text text-anchor="start" x="115" y="-364.5" font-family="Helvetica,sans-Serif" font-size="10.00">+ signal_client_update()</text>
<text text-anchor="start" x="115" y="-353.5" font-family="Helvetica,sans-Serif" font-size="10.00">+ signal_connection_change()</text>
<text text-anchor="start" x="115" y="-342.5" font-family="Helvetica,sans-Serif" font-size="10.00">+ force_update()</text>
<text text-anchor="start" x="115" y="-331.5" font-family="Helvetica,sans-Serif" font-size="10.00"># BaseClient()</text>
<text text-anchor="start" x="115" y="-320.5" font-family="Helvetica,sans-Serif" font-size="10.00"># __connect()</text>
<text text-anchor="start" x="115" y="-309.5" font-family="Helvetica,sans-Serif" font-size="10.00"># __disconnect()</text>
</a>
</g>
<!-- Node3&#45;&gt;Node2 -->
<g id="edge4" class="edge"><title>Node3&#45;&gt;Node2</title>
<path fill="none" stroke="#404040" d="M180,-302.492C180,-287.697 180,-273.068 180,-259.929"/>
<polygon fill="none" stroke="#404040" points="180,-259.833 176,-253.833 180,-247.833 184,-253.833 180,-259.833"/>
<text text-anchor="middle" x="215" y="-275.5" font-family="Helvetica,sans-Serif" font-size="10.00"> mp_BaseClient</text>
</g>
<!-- Node4 -->
<g id="node6" class="node"><title>Node4</title>
<a xlink:href="classMPD_1_1Listener.html" target="_top" xlink:title="Listener for Server events, Freya&#39;s actual core.">
<polygon fill="white" stroke="black" points="0,-584.5 0,-707.5 144,-707.5 144,-584.5 0,-584.5"/>
<text text-anchor="middle" x="72" y="-695.5" font-family="Helvetica,sans-Serif" font-size="10.00">MPD::Listener</text>
<polyline fill="none" stroke="black" points="0,-688.5 144,-688.5 "/>
<text text-anchor="middle" x="72" y="-676.5" font-family="Helvetica,sans-Serif" font-size="10.00"> </text>
<polyline fill="none" stroke="black" points="0,-669.5 144,-669.5 "/>
<text text-anchor="start" x="8" y="-657.5" font-family="Helvetica,sans-Serif" font-size="10.00">+ Listener()</text>
<text text-anchor="start" x="8" y="-646.5" font-family="Helvetica,sans-Serif" font-size="10.00">+ ~Listener()</text>
<text text-anchor="start" x="8" y="-635.5" font-family="Helvetica,sans-Serif" font-size="10.00">+ enter()</text>
<text text-anchor="start" x="8" y="-624.5" font-family="Helvetica,sans-Serif" font-size="10.00">+ leave()</text>
<text text-anchor="start" x="8" y="-613.5" font-family="Helvetica,sans-Serif" font-size="10.00">+ is_idling()</text>
<text text-anchor="start" x="8" y="-602.5" font-family="Helvetica,sans-Serif" font-size="10.00">+ signal_client_update_data()</text>
<text text-anchor="start" x="8" y="-591.5" font-family="Helvetica,sans-Serif" font-size="10.00">+ force_update()</text>
</a>
</g>
<!-- Node4&#45;&gt;Node3 -->
<g id="edge6" class="edge"><title>Node4&#45;&gt;Node3</title>
<path fill="none" stroke="#404040" d="M96.3899,-584.277C103.458,-567.263 111.34,-548.823 119,-532 120.103,-529.576 121.227,-527.13 122.366,-524.668"/>
<polygon fill="none" stroke="#404040" points="122.37,-524.659 121.288,-517.53 127.453,-513.789 128.535,-520.918 122.37,-524.659"/>
<text text-anchor="middle" x="147.5" y="-535.5" font-family="Helvetica,sans-Serif" font-size="10.00"> mp_Listener</text>
</g>
<!-- Node5 -->
<g id="node8" class="node"><title>Node5</title>
<polygon fill="white" stroke="#bfbfbf" points="162.5,-617.5 162.5,-674.5 197.5,-674.5 197.5,-617.5 162.5,-617.5"/>
<text text-anchor="middle" x="180" y="-662.5" font-family="Helvetica,sans-Serif" font-size="10.00">bool</text>
<polyline fill="none" stroke="#bfbfbf" points="162.5,-655.5 197.5,-655.5 "/>
<text text-anchor="middle" x="180" y="-643.5" font-family="Helvetica,sans-Serif" font-size="10.00"> </text>
<polyline fill="none" stroke="#bfbfbf" points="162.5,-636.5 197.5,-636.5 "/>
<text text-anchor="middle" x="180" y="-624.5" font-family="Helvetica,sans-Serif" font-size="10.00"> </text>
</g>
<!-- Node5&#45;&gt;Node3 -->
<g id="edge8" class="edge"><title>Node5&#45;&gt;Node3</title>
<path fill="none" stroke="#404040" d="M180,-617.466C180,-594.462 180,-559.994 180,-525.675"/>
<polygon fill="none" stroke="#404040" points="180,-525.562 176,-519.562 180,-513.562 184,-519.562 180,-525.562"/>
<text text-anchor="middle" x="210.5" y="-535.5" font-family="Helvetica,sans-Serif" font-size="10.00"> m_ListBegun</text>
</g>
<!-- Node6 -->
<g id="node10" class="node"><title>Node6</title>
<a xlink:href="classMPD_1_1Connection.html" target="_top" xlink:title="A convinience Wrapper around mpd_connection*.">
<polygon fill="white" stroke="black" points="216,-562.5 216,-729.5 362,-729.5 362,-562.5 216,-562.5"/>
<text text-anchor="middle" x="289" y="-717.5" font-family="Helvetica,sans-Serif" font-size="10.00">MPD::Connection</text>
<polyline fill="none" stroke="black" points="216,-710.5 362,-710.5 "/>
<text text-anchor="middle" x="289" y="-698.5" font-family="Helvetica,sans-Serif" font-size="10.00"> </text>
<polyline fill="none" stroke="black" points="216,-691.5 362,-691.5 "/>
<text text-anchor="start" x="224" y="-679.5" font-family="Helvetica,sans-Serif" font-size="10.00">+ Connection()</text>
<text text-anchor="start" x="224" y="-668.5" font-family="Helvetica,sans-Serif" font-size="10.00">+ ~Connection()</text>
<text text-anchor="start" x="224" y="-657.5" font-family="Helvetica,sans-Serif" font-size="10.00">+ is_connected()</text>
<text text-anchor="start" x="224" y="-646.5" font-family="Helvetica,sans-Serif" font-size="10.00">+ connect()</text>
<text text-anchor="start" x="224" y="-635.5" font-family="Helvetica,sans-Serif" font-size="10.00">+ disconnect()</text>
<text text-anchor="start" x="224" y="-624.5" font-family="Helvetica,sans-Serif" font-size="10.00">+ clear_error()</text>
<text text-anchor="start" x="224" y="-613.5" font-family="Helvetica,sans-Serif" font-size="10.00">+ check_error()</text>
<text text-anchor="start" x="224" y="-602.5" font-family="Helvetica,sans-Serif" font-size="10.00">+ signal_error()</text>
<text text-anchor="start" x="224" y="-591.5" font-family="Helvetica,sans-Serif" font-size="10.00">+ signal_connection_change()</text>
<text text-anchor="start" x="224" y="-580.5" font-family="Helvetica,sans-Serif" font-size="10.00">+ emit_connection_change()</text>
<text text-anchor="start" x="224" y="-569.5" font-family="Helvetica,sans-Serif" font-size="10.00">+ get_connection()</text>
</a>
</g>
<!-- Node6&#45;&gt;Node3 -->
<g id="edge10" class="edge"><title>Node6&#45;&gt;Node3</title>
<path fill="none" stroke="#404040" d="M258.13,-562.453C253.895,-552.124 249.464,-541.765 245,-532 243.878,-529.546 242.731,-527.072 241.562,-524.584"/>
<polygon fill="none" stroke="#404040" points="241.49,-524.434 235.292,-520.748 236.311,-513.609 242.509,-517.295 241.49,-524.434"/>
<text text-anchor="middle" x="270" y="-535.5" font-family="Helvetica,sans-Serif" font-size="10.00"> m_Conn</text>
</g>
<!-- Node7 -->
<g id="node12" class="node"><title>Node7</title>
<a xlink:href="classMPD_1_1AbstractComposite.html" target="_top" xlink:title="{MPD::AbstractComposite\n||+ AbstractComposite()\l+ ~AbstractComposite()\l+ is_leaf()\l+ get_path()\l}">
<polygon fill="white" stroke="black" points="273.5,-163 273.5,-253 402.5,-253 402.5,-163 273.5,-163"/>
<text text-anchor="middle" x="338" y="-241" font-family="Helvetica,sans-Serif" font-size="10.00">MPD::AbstractComposite</text>
<polyline fill="none" stroke="black" points="273.5,-234 402.5,-234 "/>
<text text-anchor="middle" x="338" y="-222" font-family="Helvetica,sans-Serif" font-size="10.00"> </text>
<polyline fill="none" stroke="black" points="273.5,-215 402.5,-215 "/>
<text text-anchor="start" x="281.5" y="-203" font-family="Helvetica,sans-Serif" font-size="10.00">+ AbstractComposite()</text>
<text text-anchor="start" x="281.5" y="-192" font-family="Helvetica,sans-Serif" font-size="10.00">+ ~AbstractComposite()</text>
<text text-anchor="start" x="281.5" y="-181" font-family="Helvetica,sans-Serif" font-size="10.00">+ is_leaf()</text>
<text text-anchor="start" x="281.5" y="-170" font-family="Helvetica,sans-Serif" font-size="10.00">+ get_path()</text>
</a>
</g>
<!-- Node7&#45;&gt;Node1 -->
<g id="edge12" class="edge"><title>Node7&#45;&gt;Node1</title>
<path fill="none" stroke="midnightblue" d="M322.965,-152.874C320.316,-143.337 317.543,-133.354 314.848,-123.652"/>
<polygon fill="none" stroke="midnightblue" points="319.623,-153.922 325.672,-162.62 326.368,-152.048 319.623,-153.922"/>
</g>
</g>
</svg>
