<?xml version="1.0" encoding="UTF-8" standalone="no"?>
<!DOCTYPE svg PUBLIC "-//W3C//DTD SVG 1.1//EN"
 "http://www.w3.org/Graphics/SVG/1.1/DTD/svg11.dtd">
<!-- Generated by graphviz version 2.28.0 (20111204.1018)
 -->
<!-- Title: G Pages: 1 -->
<svg width="399pt" height="250pt"
 viewBox="0.00 0.00 399.00 250.00" xmlns="http://www.w3.org/2000/svg" xmlns:xlink="http://www.w3.org/1999/xlink">
<g id="graph1" class="graph" transform="scale(1 1) rotate(0) translate(4 246)">
<title>G</title>
<polygon fill="white" stroke="white" points="-4,5 -4,-246 396,-246 396,5 -4,5"/>
<!-- Node1 -->
<g id="node1" class="node"><title>Node1</title>
<polygon fill="#bfbfbf" stroke="black" points="134.5,-1 134.5,-91 235.5,-91 235.5,-1 134.5,-1"/>
<text text-anchor="middle" x="185" y="-79" font-family="Helvetica,sans-Serif" font-size="10.00">Browser::Database</text>
<polyline fill="none" stroke="black" points="134.5,-72 235.5,-72 "/>
<text text-anchor="middle" x="185" y="-60" font-family="Helvetica,sans-Serif" font-size="10.00"> </text>
<polyline fill="none" stroke="black" points="134.5,-53 235.5,-53 "/>
<text text-anchor="start" x="142.5" y="-41" font-family="Helvetica,sans-Serif" font-size="10.00">+ Database()</text>
<text text-anchor="start" x="142.5" y="-30" font-family="Helvetica,sans-Serif" font-size="10.00">+ ~Database()</text>
<text text-anchor="start" x="142.5" y="-19" font-family="Helvetica,sans-Serif" font-size="10.00">+ get_container()</text>
<text text-anchor="start" x="142.5" y="-8" font-family="Helvetica,sans-Serif" font-size="10.00">+ add_item()</text>
</g>
<!-- Node2 -->
<g id="node2" class="node"><title>Node2</title>
<a xlink:href="classAbstractBrowser.html" target="_top" xlink:title="Inherit from this class in order to be able to add the browser to the browserlist.">
<polygon fill="white" stroke="black" points="0,-129 0,-241 110,-241 110,-129 0,-129"/>
<text text-anchor="middle" x="55" y="-229" font-family="Helvetica,sans-Serif" font-size="10.00">AbstractBrowser</text>
<polyline fill="none" stroke="black" points="0,-222 110,-222 "/>
<text text-anchor="middle" x="55" y="-210" font-family="Helvetica,sans-Serif" font-size="10.00"> </text>
<polyline fill="none" stroke="black" points="0,-203 110,-203 "/>
<text text-anchor="start" x="8" y="-191" font-family="Helvetica,sans-Serif" font-size="10.00">+ AbstractBrowser()</text>
<text text-anchor="start" x="8" y="-180" font-family="Helvetica,sans-Serif" font-size="10.00">+ get_container()</text>
<text text-anchor="start" x="8" y="-169" font-family="Helvetica,sans-Serif" font-size="10.00">+ get_name()</text>
<text text-anchor="start" x="8" y="-158" font-family="Helvetica,sans-Serif" font-size="10.00">+ get_icon_stock_id()</text>
<text text-anchor="start" x="8" y="-147" font-family="Helvetica,sans-Serif" font-size="10.00">+ is_visible()</text>
<text text-anchor="start" x="8" y="-136" font-family="Helvetica,sans-Serif" font-size="10.00">+ needs_connection()</text>
</a>
</g>
<!-- Node2&#45;&gt;Node1 -->
<g id="edge2" class="edge"><title>Node2&#45;&gt;Node1</title>
<path fill="none" stroke="midnightblue" d="M114.491,-121.305C124.148,-111.129 133.968,-100.78 143.09,-91.1667"/>
<polygon fill="none" stroke="midnightblue" points="111.846,-119.009 107.501,-128.672 116.924,-123.827 111.846,-119.009"/>
</g>
<!-- Node3 -->
<g id="node4" class="node"><title>Node3</title>
<a xlink:href="classMPD_1_1AbstractItemlist.html" target="_top" xlink:title="Inhertit from this class to use MPD::Client&#39;s fill_* methods.">
<polygon fill="white" stroke="black" points="128,-151 128,-219 242,-219 242,-151 128,-151"/>
<text text-anchor="middle" x="185" y="-207" font-family="Helvetica,sans-Serif" font-size="10.00">MPD::AbstractItemlist</text>
<polyline fill="none" stroke="black" points="128,-200 242,-200 "/>
<text text-anchor="middle" x="185" y="-188" font-family="Helvetica,sans-Serif" font-size="10.00"> </text>
<polyline fill="none" stroke="black" points="128,-181 242,-181 "/>
<text text-anchor="start" x="136" y="-169" font-family="Helvetica,sans-Serif" font-size="10.00">+ add_item()</text>
<text text-anchor="start" x="136" y="-158" font-family="Helvetica,sans-Serif" font-size="10.00">+ ~AbstractItemlist()</text>
</a>
</g>
<!-- Node3&#45;&gt;Node1 -->
<g id="edge4" class="edge"><title>Node3&#45;&gt;Node1</title>
<path fill="none" stroke="midnightblue" d="M185,-140.802C185,-125.011 185,-107.131 185,-91.2494"/>
<polygon fill="none" stroke="midnightblue" points="181.5,-140.836 185,-150.836 188.5,-140.836 181.5,-140.836"/>
</g>
<!-- Node4 -->
<g id="node6" class="node"><title>Node4</title>
<a xlink:href="classMPD_1_1AbstractClientUser.html" target="_top" xlink:title="{MPD::AbstractClientUser\n|# mp_Client\l|+ AbstractClientUser()\l# on_client_update()\l# on_connection_change()\l}">
<polygon fill="white" stroke="black" points="260.5,-145.5 260.5,-224.5 391.5,-224.5 391.5,-145.5 260.5,-145.5"/>
<text text-anchor="middle" x="326" y="-212.5" font-family="Helvetica,sans-Serif" font-size="10.00">MPD::AbstractClientUser</text>
<polyline fill="none" stroke="black" points="260.5,-205.5 391.5,-205.5 "/>
<text text-anchor="start" x="268.5" y="-193.5" font-family="Helvetica,sans-Serif" font-size="10.00"># mp_Client</text>
<polyline fill="none" stroke="black" points="260.5,-186.5 391.5,-186.5 "/>
<text text-anchor="start" x="268.5" y="-174.5" font-family="Helvetica,sans-Serif" font-size="10.00">+ AbstractClientUser()</text>
<text text-anchor="start" x="268.5" y="-163.5" font-family="Helvetica,sans-Serif" font-size="10.00"># on_client_update()</text>
<text text-anchor="start" x="268.5" y="-152.5" font-family="Helvetica,sans-Serif" font-size="10.00"># on_connection_change()</text>
</a>
</g>
<!-- Node4&#45;&gt;Node1 -->
<g id="edge6" class="edge"><title>Node4&#45;&gt;Node1</title>
<path fill="none" stroke="midnightblue" d="M278.824,-138.163C263.183,-122.965 245.816,-106.091 230.318,-91.0324"/>
<polygon fill="none" stroke="midnightblue" points="276.737,-141.015 286.348,-145.473 281.615,-135.994 276.737,-141.015"/>
</g>
</g>
</svg>
