<?xml version="1.0" encoding="UTF-8" standalone="no"?>
<!DOCTYPE svg PUBLIC "-//W3C//DTD SVG 1.1//EN"
 "http://www.w3.org/Graphics/SVG/1.1/DTD/svg11.dtd">
<!-- Generated by graphviz version 2.28.0 (20120217.0315)
 -->
<!-- Title: G Pages: 1 -->
<svg width="460pt" height="216pt"
 viewBox="0.00 0.00 460.00 216.00" xmlns="http://www.w3.org/2000/svg" xmlns:xlink="http://www.w3.org/1999/xlink">
<g id="graph1" class="graph" transform="scale(1 1) rotate(0) translate(4 212)">
<title>G</title>
<polygon fill="white" stroke="white" points="-4,5 -4,-212 457,-212 457,5 -4,5"/>
<!-- Node1 -->
<g id="node1" class="node"><title>Node1</title>
<polygon fill="#bfbfbf" stroke="black" points="114,-0.5 114,-79.5 254,-79.5 254,-0.5 114,-0.5"/>
<text text-anchor="middle" x="184" y="-67.5" font-family="Helvetica,sans-Serif" font-size="10.00">Avahi::View::ModelColumns</text>
<polyline fill="none" stroke="black" points="114,-60.5 254,-60.5 "/>
<text text-anchor="start" x="122" y="-48.5" font-family="Helvetica,sans-Serif" font-size="10.00">+ m_col_ip</text>
<text text-anchor="start" x="122" y="-37.5" font-family="Helvetica,sans-Serif" font-size="10.00">+ m_col_hostname</text>
<text text-anchor="start" x="122" y="-26.5" font-family="Helvetica,sans-Serif" font-size="10.00">+ m_col_name</text>
<polyline fill="none" stroke="black" points="114,-19.5 254,-19.5 "/>
<text text-anchor="start" x="122" y="-7.5" font-family="Helvetica,sans-Serif" font-size="10.00">+ ModelColumns()</text>
</g>
<!-- Node2 -->
<g id="node2" class="node"><title>Node2</title>
<a xlink:href="classGtk_1_1TreeModel_1_1ColumnRecord.html" target="_top" xlink:title="{ColumnRecord\n||}">
<polygon fill="white" stroke="black" points="0,-150.5 0,-207.5 82,-207.5 82,-150.5 0,-150.5"/>
<text text-anchor="middle" x="41" y="-195.5" font-family="Helvetica,sans-Serif" font-size="10.00">ColumnRecord</text>
<polyline fill="none" stroke="black" points="0,-188.5 82,-188.5 "/>
<text text-anchor="middle" x="41" y="-176.5" font-family="Helvetica,sans-Serif" font-size="10.00"> </text>
<polyline fill="none" stroke="black" points="0,-169.5 82,-169.5 "/>
<text text-anchor="middle" x="41" y="-157.5" font-family="Helvetica,sans-Serif" font-size="10.00"> </text>
</a>
</g>
<!-- Node2&#45;&gt;Node1 -->
<g id="edge2" class="edge"><title>Node2&#45;&gt;Node1</title>
<path fill="none" stroke="midnightblue" d="M77.1652,-143.352C97.4519,-123.917 122.808,-99.6245 143.726,-79.5838"/>
<polygon fill="none" stroke="midnightblue" points="74.7378,-140.831 69.9382,-150.276 79.5804,-145.885 74.7378,-140.831"/>
</g>
<!-- Node3 -->
<g id="node4" class="node"><title>Node3</title>
<polygon fill="white" stroke="#bfbfbf" points="100.5,-150.5 100.5,-207.5 267.5,-207.5 267.5,-150.5 100.5,-150.5"/>
<text text-anchor="middle" x="184" y="-195.5" font-family="Helvetica,sans-Serif" font-size="10.00">TreeModelColumn&lt; unsigned int &gt;</text>
<polyline fill="none" stroke="#bfbfbf" points="100.5,-188.5 267.5,-188.5 "/>
<text text-anchor="middle" x="184" y="-176.5" font-family="Helvetica,sans-Serif" font-size="10.00"> </text>
<polyline fill="none" stroke="#bfbfbf" points="100.5,-169.5 267.5,-169.5 "/>
<text text-anchor="middle" x="184" y="-157.5" font-family="Helvetica,sans-Serif" font-size="10.00"> </text>
</g>
<!-- Node3&#45;&gt;Node1 -->
<g id="edge4" class="edge"><title>Node3&#45;&gt;Node1</title>
<path fill="none" stroke="#404040" d="M184,-150.276C184,-133.441 184,-111.441 184,-91.5958"/>
<polygon fill="none" stroke="#404040" points="184,-91.5838 180,-85.5838 184,-79.5838 188,-85.5837 184,-91.5838"/>
<text text-anchor="middle" x="210" y="-112.5" font-family="Helvetica,sans-Serif" font-size="10.00"> m_col_port</text>
</g>
<!-- Node4 -->
<g id="node6" class="node"><title>Node4</title>
<polygon fill="white" stroke="#bfbfbf" points="285.5,-150.5 285.5,-207.5 452.5,-207.5 452.5,-150.5 285.5,-150.5"/>
<text text-anchor="middle" x="369" y="-195.5" font-family="Helvetica,sans-Serif" font-size="10.00">TreeModelColumn&lt; Glib::ustring &gt;</text>
<polyline fill="none" stroke="#bfbfbf" points="285.5,-188.5 452.5,-188.5 "/>
<text text-anchor="middle" x="369" y="-176.5" font-family="Helvetica,sans-Serif" font-size="10.00"> </text>
<polyline fill="none" stroke="#bfbfbf" points="285.5,-169.5 452.5,-169.5 "/>
<text text-anchor="middle" x="369" y="-157.5" font-family="Helvetica,sans-Serif" font-size="10.00"> </text>
</g>
<!-- Node4&#45;&gt;Node1 -->
<g id="edge6" class="edge"><title>Node4&#45;&gt;Node1</title>
<path fill="none" stroke="#404040" d="M331.562,-150.276C307.007,-132.091 274.311,-107.879 245.938,-86.8672"/>
<polygon fill="none" stroke="#404040" points="245.746,-86.7253 238.543,-86.3691 236.102,-79.5838 243.304,-79.94 245.746,-86.7253"/>
<text text-anchor="middle" x="343" y="-123.5" font-family="Helvetica,sans-Serif" font-size="10.00"> m_col_hostname</text>
<text text-anchor="middle" x="343" y="-112.5" font-family="Helvetica,sans-Serif" font-size="10.00">m_col_name</text>
<text text-anchor="middle" x="343" y="-101.5" font-family="Helvetica,sans-Serif" font-size="10.00">m_col_ip</text>
</g>
</g>
</svg>
