<?xml version="1.0" encoding="UTF-8" standalone="no"?>
<!DOCTYPE svg PUBLIC "-//W3C//DTD SVG 1.1//EN"
 "http://www.w3.org/Graphics/SVG/1.1/DTD/svg11.dtd">
<!-- Generated by graphviz version 2.28.0 (20111204.1018)
 -->
<!-- Title: G Pages: 1 -->
<svg width="696pt" height="282pt"
 viewBox="0.00 0.00 696.00 282.00" xmlns="http://www.w3.org/2000/svg" xmlns:xlink="http://www.w3.org/1999/xlink">
<g id="graph1" class="graph" transform="scale(1 1) rotate(0) translate(4 278)">
<title>G</title>
<polygon fill="white" stroke="white" points="-4,5 -4,-278 693,-278 693,5 -4,5"/>
<!-- Node1 -->
<g id="node1" class="node"><title>Node1</title>
<polygon fill="#bfbfbf" stroke="black" points="240.5,-216.5 240.5,-273.5 299.5,-273.5 299.5,-216.5 240.5,-216.5"/>
<text text-anchor="middle" x="270" y="-261.5" font-family="Helvetica,sans-Serif" font-size="10.00">TestSuite</text>
<polyline fill="none" stroke="black" points="240.5,-254.5 299.5,-254.5 "/>
<text text-anchor="middle" x="270" y="-242.5" font-family="Helvetica,sans-Serif" font-size="10.00"> </text>
<polyline fill="none" stroke="black" points="240.5,-235.5 299.5,-235.5 "/>
<text text-anchor="middle" x="270" y="-223.5" font-family="Helvetica,sans-Serif" font-size="10.00"> </text>
</g>
<!-- Node2 -->
<g id="node3" class="node"><title>Node2</title>
<a xlink:href="classLogTestSuite.html" target="_top" xlink:title="{LogTestSuite\n||+ testLogWriter()\l}">
<polygon fill="white" stroke="black" points="0,-61.5 0,-118.5 90,-118.5 90,-61.5 0,-61.5"/>
<text text-anchor="middle" x="45" y="-106.5" font-family="Helvetica,sans-Serif" font-size="10.00">LogTestSuite</text>
<polyline fill="none" stroke="black" points="0,-99.5 90,-99.5 "/>
<text text-anchor="middle" x="45" y="-87.5" font-family="Helvetica,sans-Serif" font-size="10.00"> </text>
<polyline fill="none" stroke="black" points="0,-80.5 90,-80.5 "/>
<text text-anchor="start" x="8" y="-68.5" font-family="Helvetica,sans-Serif" font-size="10.00">+ testLogWriter()</text>
</a>
</g>
<!-- Node1&#45;&gt;Node2 -->
<g id="edge2" class="edge"><title>Node1&#45;&gt;Node2</title>
<path fill="none" stroke="midnightblue" d="M230.41,-236.967C193.113,-228.672 137.379,-211.791 99,-180 79.3752,-163.744 64.9869,-138.396 56.0202,-118.903"/>
<polygon fill="none" stroke="midnightblue" points="229.903,-240.437 240.411,-239.084 231.353,-233.589 229.903,-240.437"/>
</g>
<!-- Node3 -->
<g id="node5" class="node"><title>Node3</title>
<a xlink:href="classMPDTestSuite.html" target="_top" xlink:title="{MPDTestSuite\n|+ toggleStates\l|+ setUp()\l+ tearDown()\l+ connectionChange()\l+ clientUpdate()\l+ testConnect()\l+ testDisconnect()\l+ testSignalClientUpdate()\l+ toggleCommandsClientUpdate()\l+ testToggleCommands()\l}">
<polygon fill="white" stroke="black" points="108.5,-17.5 108.5,-162.5 273.5,-162.5 273.5,-17.5 108.5,-17.5"/>
<text text-anchor="middle" x="191" y="-150.5" font-family="Helvetica,sans-Serif" font-size="10.00">MPDTestSuite</text>
<polyline fill="none" stroke="black" points="108.5,-143.5 273.5,-143.5 "/>
<text text-anchor="start" x="116.5" y="-131.5" font-family="Helvetica,sans-Serif" font-size="10.00">+ toggleStates</text>
<polyline fill="none" stroke="black" points="108.5,-124.5 273.5,-124.5 "/>
<text text-anchor="start" x="116.5" y="-112.5" font-family="Helvetica,sans-Serif" font-size="10.00">+ setUp()</text>
<text text-anchor="start" x="116.5" y="-101.5" font-family="Helvetica,sans-Serif" font-size="10.00">+ tearDown()</text>
<text text-anchor="start" x="116.5" y="-90.5" font-family="Helvetica,sans-Serif" font-size="10.00">+ connectionChange()</text>
<text text-anchor="start" x="116.5" y="-79.5" font-family="Helvetica,sans-Serif" font-size="10.00">+ clientUpdate()</text>
<text text-anchor="start" x="116.5" y="-68.5" font-family="Helvetica,sans-Serif" font-size="10.00">+ testConnect()</text>
<text text-anchor="start" x="116.5" y="-57.5" font-family="Helvetica,sans-Serif" font-size="10.00">+ testDisconnect()</text>
<text text-anchor="start" x="116.5" y="-46.5" font-family="Helvetica,sans-Serif" font-size="10.00">+ testSignalClientUpdate()</text>
<text text-anchor="start" x="116.5" y="-35.5" font-family="Helvetica,sans-Serif" font-size="10.00">+ toggleCommandsClientUpdate()</text>
<text text-anchor="start" x="116.5" y="-24.5" font-family="Helvetica,sans-Serif" font-size="10.00">+ testToggleCommands()</text>
</a>
</g>
<!-- Node1&#45;&gt;Node3 -->
<g id="edge4" class="edge"><title>Node1&#45;&gt;Node3</title>
<path fill="none" stroke="midnightblue" d="M251.097,-207.39C244.162,-193.959 236.052,-178.252 228.073,-162.8"/>
<polygon fill="none" stroke="midnightblue" points="247.996,-209.013 255.694,-216.293 254.216,-205.802 247.996,-209.013"/>
</g>
<!-- Node4 -->
<g id="node7" class="node"><title>Node4</title>
<a xlink:href="classNotifyTestSuite.html" target="_top" xlink:title="{NotifyTestSuite\n||+ testsend_big()\l+ testsend_full()\l+ testset_stock_icon()\l+ testset_next_extra()\l}">
<polygon fill="white" stroke="black" points="292,-45 292,-135 406,-135 406,-45 292,-45"/>
<text text-anchor="middle" x="349" y="-123" font-family="Helvetica,sans-Serif" font-size="10.00">NotifyTestSuite</text>
<polyline fill="none" stroke="black" points="292,-116 406,-116 "/>
<text text-anchor="middle" x="349" y="-104" font-family="Helvetica,sans-Serif" font-size="10.00"> </text>
<polyline fill="none" stroke="black" points="292,-97 406,-97 "/>
<text text-anchor="start" x="300" y="-85" font-family="Helvetica,sans-Serif" font-size="10.00">+ testsend_big()</text>
<text text-anchor="start" x="300" y="-74" font-family="Helvetica,sans-Serif" font-size="10.00">+ testsend_full()</text>
<text text-anchor="start" x="300" y="-63" font-family="Helvetica,sans-Serif" font-size="10.00">+ testset_stock_icon()</text>
<text text-anchor="start" x="300" y="-52" font-family="Helvetica,sans-Serif" font-size="10.00">+ testset_next_extra()</text>
</a>
</g>
<!-- Node1&#45;&gt;Node4 -->
<g id="edge6" class="edge"><title>Node1&#45;&gt;Node4</title>
<path fill="none" stroke="midnightblue" d="M288.912,-207.372C300.138,-185.632 314.441,-157.93 326.277,-135.008"/>
<polygon fill="none" stroke="midnightblue" points="285.784,-205.802 284.306,-216.293 292.004,-209.013 285.784,-205.802"/>
</g>
<!-- Node5 -->
<g id="node9" class="node"><title>Node5</title>
<a xlink:href="classUtilsTestSuite.html" target="_top" xlink:title="{UtilsTestSuite\n||+ testseconds_to_duration_1_year()\l+ testseconds_to_duration_check_if_always_the_same()\l+ testseconds_to_duration_1_second()\l+ testseconds_to_duration_0_seconds()\l+ testseconds_to_duration_1_minutes()\l+ testseconds_to_duration_2_minutes()\l+ testseconds_to_duration_1_hour()\l+ testseconds_to_duration_2_hours()\l+ testseconds_to_duration_1_day()\l+ testseconds_to_duration_2_days()\l+ testseconds_to_duration_2_years()\l+ testseconds_to_timestamp_date1()\l}">
<polygon fill="white" stroke="black" points="424,-1 424,-179 688,-179 688,-1 424,-1"/>
<text text-anchor="middle" x="556" y="-167" font-family="Helvetica,sans-Serif" font-size="10.00">UtilsTestSuite</text>
<polyline fill="none" stroke="black" points="424,-160 688,-160 "/>
<text text-anchor="middle" x="556" y="-148" font-family="Helvetica,sans-Serif" font-size="10.00"> </text>
<polyline fill="none" stroke="black" points="424,-141 688,-141 "/>
<text text-anchor="start" x="432" y="-129" font-family="Helvetica,sans-Serif" font-size="10.00">+ testseconds_to_duration_1_year()</text>
<text text-anchor="start" x="432" y="-118" font-family="Helvetica,sans-Serif" font-size="10.00">+ testseconds_to_duration_check_if_always_the_same()</text>
<text text-anchor="start" x="432" y="-107" font-family="Helvetica,sans-Serif" font-size="10.00">+ testseconds_to_duration_1_second()</text>
<text text-anchor="start" x="432" y="-96" font-family="Helvetica,sans-Serif" font-size="10.00">+ testseconds_to_duration_0_seconds()</text>
<text text-anchor="start" x="432" y="-85" font-family="Helvetica,sans-Serif" font-size="10.00">+ testseconds_to_duration_1_minutes()</text>
<text text-anchor="start" x="432" y="-74" font-family="Helvetica,sans-Serif" font-size="10.00">+ testseconds_to_duration_2_minutes()</text>
<text text-anchor="start" x="432" y="-63" font-family="Helvetica,sans-Serif" font-size="10.00">+ testseconds_to_duration_1_hour()</text>
<text text-anchor="start" x="432" y="-52" font-family="Helvetica,sans-Serif" font-size="10.00">+ testseconds_to_duration_2_hours()</text>
<text text-anchor="start" x="432" y="-41" font-family="Helvetica,sans-Serif" font-size="10.00">+ testseconds_to_duration_1_day()</text>
<text text-anchor="start" x="432" y="-30" font-family="Helvetica,sans-Serif" font-size="10.00">+ testseconds_to_duration_2_days()</text>
<text text-anchor="start" x="432" y="-19" font-family="Helvetica,sans-Serif" font-size="10.00">+ testseconds_to_duration_2_years()</text>
<text text-anchor="start" x="432" y="-8" font-family="Helvetica,sans-Serif" font-size="10.00">+ testseconds_to_timestamp_date1()</text>
</a>
</g>
<!-- Node1&#45;&gt;Node5 -->
<g id="edge8" class="edge"><title>Node1&#45;&gt;Node5</title>
<path fill="none" stroke="midnightblue" d="M309.327,-228.487C338.922,-216.373 380.196,-198.535 415,-180 417.938,-178.435 420.897,-176.831 423.869,-175.195"/>
<polygon fill="none" stroke="midnightblue" points="307.714,-225.364 299.764,-232.368 310.346,-231.85 307.714,-225.364"/>
</g>
</g>
</svg>
