<?xml version="1.0" encoding="UTF-8" standalone="no"?>
<!DOCTYPE svg PUBLIC "-//W3C//DTD SVG 1.1//EN"
 "http://www.w3.org/Graphics/SVG/1.1/DTD/svg11.dtd">
<!-- Generated by graphviz version 2.28.0 (20111204.1018)
 -->
<!-- Title: G Pages: 1 -->
<svg width="532pt" height="160pt"
 viewBox="0.00 0.00 532.00 159.68" xmlns="http://www.w3.org/2000/svg" xmlns:xlink="http://www.w3.org/1999/xlink">
<g id="graph1" class="graph" transform="scale(1 1) rotate(0) translate(4 155.683)">
<title>G</title>
<polygon fill="white" stroke="white" points="-4,5 -4,-155.683 529,-155.683 529,5 -4,5"/>
<!-- Node1 -->
<g id="node1" class="node"><title>Node1</title>
<polygon fill="#bfbfbf" stroke="black" points="0.5,-56.1829 0.5,-75.1829 153.5,-75.1829 153.5,-56.1829 0.5,-56.1829"/>
<text text-anchor="middle" x="77" y="-63.1829" font-family="Helvetica,sans-Serif" font-size="10.00">MPDTestSuite::testDisconnect</text>
</g>
<!-- Node2 -->
<g id="node3" class="node"><title>Node2</title>
<a xlink:href="classMPD_1_1Client.html#aca35baf8dfcfe778fef2a1f3802c4c0a" target="_top" xlink:title="Disconnects from the currently connected server.">
<polygon fill="white" stroke="black" points="198,-132.183 198,-151.183 322,-151.183 322,-132.183 198,-132.183"/>
<text text-anchor="middle" x="260" y="-139.183" font-family="Helvetica,sans-Serif" font-size="10.00">MPD::Client::disconnect</text>
</a>
</g>
<!-- Node1&#45;&gt;Node2 -->
<g id="edge2" class="edge"><title>Node1&#45;&gt;Node2</title>
<path fill="none" stroke="midnightblue" d="M97.1657,-75.2961C119.264,-86.2122 156.815,-104.247 190,-117.683 199.611,-121.574 210.12,-125.427 219.973,-128.87"/>
<polygon fill="midnightblue" stroke="midnightblue" points="218.956,-132.222 229.55,-132.163 221.231,-125.602 218.956,-132.222"/>
</g>
<!-- Node3 -->
<g id="node5" class="node"><title>Node3</title>
<a xlink:href="classMPD_1_1Client.html#aa896dd836da9c78a01300431dedcd73d" target="_top" xlink:title="Pings server.">
<polygon fill="white" stroke="black" points="397.5,-75.1829 397.5,-94.1829 492.5,-94.1829 492.5,-75.1829 397.5,-75.1829"/>
<text text-anchor="middle" x="445" y="-82.1829" font-family="Helvetica,sans-Serif" font-size="10.00">MPD::Client::ping</text>
</a>
</g>
<!-- Node1&#45;&gt;Node3 -->
<g id="edge4" class="edge"><title>Node1&#45;&gt;Node3</title>
<path fill="none" stroke="midnightblue" d="M123.552,-75.1953C143.8,-78.9607 167.989,-82.8292 190,-84.6829 257.42,-90.361 335.263,-89.2329 386.818,-87.4175"/>
<polygon fill="midnightblue" stroke="midnightblue" points="387.224,-90.9048 397.087,-87.0345 386.963,-83.9097 387.224,-90.9048"/>
</g>
<!-- Node4 -->
<g id="node7" class="node"><title>Node4</title>
<a xlink:href="classMPD_1_1BaseClient.html#a7f307f2b57a8556fe60973b606626d85" target="_top" xlink:title="true if connected">
<polygon fill="white" stroke="black" points="366.5,-18.1829 366.5,-37.1829 523.5,-37.1829 523.5,-18.1829 366.5,-18.1829"/>
<text text-anchor="middle" x="445" y="-25.1829" font-family="Helvetica,sans-Serif" font-size="10.00">MPD::BaseClient::is_connected</text>
</a>
</g>
<!-- Node1&#45;&gt;Node4 -->
<g id="edge6" class="edge"><title>Node1&#45;&gt;Node4</title>
<path fill="none" stroke="midnightblue" d="M91.655,-56.0163C111.954,-42.3009 151.811,-17.8417 190,-8.68292 261.355,8.42999 346.926,-4.62499 398.303,-15.9287"/>
<polygon fill="midnightblue" stroke="midnightblue" points="397.581,-19.3538 408.108,-18.1566 399.132,-12.5278 397.581,-19.3538"/>
</g>
<!-- Node5 -->
<g id="node9" class="node"><title>Node5</title>
<a xlink:href="classMPD_1_1Client.html#a2144f99e66aeacfc25e6cea72b12e1de" target="_top" xlink:title="Connect to the MPD Server specified in the config.">
<polygon fill="white" stroke="black" points="204.5,-18.1829 204.5,-37.1829 315.5,-37.1829 315.5,-18.1829 204.5,-18.1829"/>
<text text-anchor="middle" x="260" y="-25.1829" font-family="Helvetica,sans-Serif" font-size="10.00">MPD::Client::connect</text>
</a>
</g>
<!-- Node1&#45;&gt;Node5 -->
<g id="edge8" class="edge"><title>Node1&#45;&gt;Node5</title>
<path fill="none" stroke="midnightblue" d="M123.674,-56.0939C147.989,-50.989 178.08,-44.6716 203.708,-39.2911"/>
<polygon fill="midnightblue" stroke="midnightblue" points="204.587,-42.683 213.654,-37.203 203.149,-35.8324 204.587,-42.683"/>
</g>
<!-- Node6 -->
<g id="node11" class="node"><title>Node6</title>
<a xlink:href="classMPDTestSuite.html#a7438969cafa19ab3353b42c119851d7b" target="_top" xlink:title="MPDTestSuite::testConnect">
<polygon fill="white" stroke="black" points="190,-56.1829 190,-75.1829 330,-75.1829 330,-56.1829 190,-56.1829"/>
<text text-anchor="middle" x="260" y="-63.1829" font-family="Helvetica,sans-Serif" font-size="10.00">MPDTestSuite::testConnect</text>
</a>
</g>
<!-- Node1&#45;&gt;Node6 -->
<g id="edge10" class="edge"><title>Node1&#45;&gt;Node6</title>
<path fill="none" stroke="midnightblue" d="M153.712,-65.6829C162.345,-65.6829 171.164,-65.6829 179.841,-65.6829"/>
<polygon fill="midnightblue" stroke="midnightblue" points="179.942,-69.183 189.942,-65.6829 179.942,-62.183 179.942,-69.183"/>
</g>
<!-- Node6&#45;&gt;Node3 -->
<g id="edge12" class="edge"><title>Node6&#45;&gt;Node3</title>
<path fill="none" stroke="midnightblue" d="M330.184,-72.866C349.056,-74.8253 369.276,-76.9246 387.359,-78.8022"/>
<polygon fill="midnightblue" stroke="midnightblue" points="387.14,-82.2981 397.448,-79.8496 387.863,-75.3356 387.14,-82.2981"/>
</g>
<!-- Node6&#45;&gt;Node4 -->
<g id="edge14" class="edge"><title>Node6&#45;&gt;Node4</title>
<path fill="none" stroke="midnightblue" d="M307.179,-56.0939C331.763,-50.989 362.186,-44.6716 388.097,-39.2911"/>
<polygon fill="midnightblue" stroke="midnightblue" points="389.074,-42.6631 398.153,-37.203 387.651,-35.8093 389.074,-42.6631"/>
</g>
</g>
</svg>
