<?xml version="1.0" encoding="UTF-8" standalone="no"?>
<!DOCTYPE svg PUBLIC "-//W3C//DTD SVG 1.1//EN"
 "http://www.w3.org/Graphics/SVG/1.1/DTD/svg11.dtd">
<!-- Generated by graphviz version 2.28.0 (20111204.1018)
 -->
<!-- Title: G Pages: 1 -->
<svg width="404pt" height="66pt"
 viewBox="0.00 0.00 404.00 66.00" xmlns="http://www.w3.org/2000/svg" xmlns:xlink="http://www.w3.org/1999/xlink">
<g id="graph1" class="graph" transform="scale(1 1) rotate(0) translate(4 62)">
<title>G</title>
<polygon fill="white" stroke="white" points="-4,5 -4,-62 401,-62 401,5 -4,5"/>
<!-- Node1 -->
<g id="node1" class="node"><title>Node1</title>
<polygon fill="#bfbfbf" stroke="black" points="0,-19.5 0,-38.5 138,-38.5 138,-19.5 0,-19.5"/>
<text text-anchor="middle" x="69" y="-26.5" font-family="Helvetica,sans-Serif" font-size="10.00">MPD::Status::get_consume</text>
</g>
<!-- Node2 -->
<g id="node3" class="node"><title>Node2</title>
<a xlink:href="classMPDTestSuite.html#ad7ec644d8d87f5c1d920b402db652b82" target="_top" xlink:title="MPDTestSuite::toggleCommandsClientUpdate">
<polygon fill="white" stroke="black" points="174.5,-38.5 174.5,-57.5 395.5,-57.5 395.5,-38.5 174.5,-38.5"/>
<text text-anchor="middle" x="285" y="-45.5" font-family="Helvetica,sans-Serif" font-size="10.00">MPDTestSuite::toggleCommandsClientUpdate</text>
</a>
</g>
<!-- Node1&#45;&gt;Node2 -->
<g id="edge2" class="edge"><title>Node1&#45;&gt;Node2</title>
<path fill="none" stroke="midnightblue" d="M148.011,-35.9262C157.361,-36.7563 167.03,-37.6148 176.703,-38.4736"/>
<polygon fill="midnightblue" stroke="midnightblue" points="148.275,-32.436 138.005,-35.0378 147.656,-39.4086 148.275,-32.436"/>
</g>
<!-- Node3 -->
<g id="node5" class="node"><title>Node3</title>
<a xlink:href="classMPDTestSuite.html#a90a666e3c6a7a3dcad8580962dae5274" target="_top" xlink:title="MPDTestSuite::testToggleCommands">
<polygon fill="white" stroke="black" points="193.5,-0.5 193.5,-19.5 376.5,-19.5 376.5,-0.5 193.5,-0.5"/>
<text text-anchor="middle" x="285" y="-7.5" font-family="Helvetica,sans-Serif" font-size="10.00">MPDTestSuite::testToggleCommands</text>
</a>
</g>
<!-- Node1&#45;&gt;Node3 -->
<g id="edge4" class="edge"><title>Node1&#45;&gt;Node3</title>
<path fill="none" stroke="midnightblue" d="M148.076,-22.0681C162.827,-20.7584 178.371,-19.3782 193.468,-18.0379"/>
<polygon fill="midnightblue" stroke="midnightblue" points="147.656,-18.5914 138.005,-22.9622 148.275,-25.564 147.656,-18.5914"/>
</g>
</g>
</svg>
