<?xml version="1.0" encoding="UTF-8" standalone="no"?>
<!DOCTYPE svg PUBLIC "-//W3C//DTD SVG 1.1//EN"
 "http://www.w3.org/Graphics/SVG/1.1/DTD/svg11.dtd">
<!-- Generated by graphviz version 2.28.0 (20111204.1018)
 -->
<!-- Title: G Pages: 1 -->
<svg width="411pt" height="772pt"
 viewBox="0.00 0.00 411.00 772.00" xmlns="http://www.w3.org/2000/svg" xmlns:xlink="http://www.w3.org/1999/xlink">
<g id="graph1" class="graph" transform="scale(1 1) rotate(0) translate(4 768)">
<title>G</title>
<polygon fill="white" stroke="white" points="-4,5 -4,-768 408,-768 408,5 -4,5"/>
<!-- Node1 -->
<g id="node1" class="node"><title>Node1</title>
<polygon fill="#bfbfbf" stroke="black" points="244,-1 244,-157 352,-157 352,-1 244,-1"/>
<text text-anchor="middle" x="298" y="-145" font-family="Helvetica,sans-Serif" font-size="10.00">MPD::Playlist</text>
<polyline fill="none" stroke="black" points="244,-138 352,-138 "/>
<text text-anchor="middle" x="298" y="-126" font-family="Helvetica,sans-Serif" font-size="10.00"> </text>
<polyline fill="none" stroke="black" points="244,-119 352,-119 "/>
<text text-anchor="start" x="252" y="-107" font-family="Helvetica,sans-Serif" font-size="10.00">+ Playlist()</text>
<text text-anchor="start" x="252" y="-96" font-family="Helvetica,sans-Serif" font-size="10.00">+ Playlist()</text>
<text text-anchor="start" x="252" y="-85" font-family="Helvetica,sans-Serif" font-size="10.00">+ ~Playlist()</text>
<text text-anchor="start" x="252" y="-74" font-family="Helvetica,sans-Serif" font-size="10.00">+ get_path()</text>
<text text-anchor="start" x="252" y="-63" font-family="Helvetica,sans-Serif" font-size="10.00">+ get_last_modified()</text>
<text text-anchor="start" x="252" y="-52" font-family="Helvetica,sans-Serif" font-size="10.00">+ remove()</text>
<text text-anchor="start" x="252" y="-41" font-family="Helvetica,sans-Serif" font-size="10.00">+ load()</text>
<text text-anchor="start" x="252" y="-30" font-family="Helvetica,sans-Serif" font-size="10.00">+ rename()</text>
<text text-anchor="start" x="252" y="-19" font-family="Helvetica,sans-Serif" font-size="10.00">+ add_song()</text>
<text text-anchor="start" x="252" y="-8" font-family="Helvetica,sans-Serif" font-size="10.00">+ add_song()</text>
</g>
<!-- Node2 -->
<g id="node2" class="node"><title>Node2</title>
<a xlink:href="classMPD_1_1AbstractClientExtension.html" target="_top" xlink:title="Abstract base class for classes that want to implement spefic MPD Commands.">
<polygon fill="white" stroke="black" points="104.5,-202.5 104.5,-281.5 255.5,-281.5 255.5,-202.5 104.5,-202.5"/>
<text text-anchor="middle" x="180" y="-269.5" font-family="Helvetica,sans-Serif" font-size="10.00">MPD::AbstractClientExtension</text>
<polyline fill="none" stroke="black" points="104.5,-262.5 255.5,-262.5 "/>
<text text-anchor="start" x="112.5" y="-250.5" font-family="Helvetica,sans-Serif" font-size="10.00"># mp_BaseClient</text>
<polyline fill="none" stroke="black" points="104.5,-243.5 255.5,-243.5 "/>
<text text-anchor="start" x="112.5" y="-231.5" font-family="Helvetica,sans-Serif" font-size="10.00">+ AbstractClientExtension()</text>
<text text-anchor="start" x="112.5" y="-220.5" font-family="Helvetica,sans-Serif" font-size="10.00">+ ~AbstractClientExtension()</text>
<text text-anchor="start" x="112.5" y="-209.5" font-family="Helvetica,sans-Serif" font-size="10.00"># get_c_connection()</text>
</a>
</g>
<!-- Node2&#45;&gt;Node1 -->
<g id="edge2" class="edge"><title>Node2&#45;&gt;Node1</title>
<path fill="none" stroke="midnightblue" d="M214.203,-194.333C223.479,-181.676 233.755,-167.656 243.841,-153.895"/>
<polygon fill="none" stroke="midnightblue" points="211.352,-192.302 208.264,-202.436 216.998,-196.44 211.352,-192.302"/>
</g>
<!-- Node3 -->
<g id="node4" class="node"><title>Node3</title>
<a xlink:href="classMPD_1_1BaseClient.html" target="_top" xlink:title="The Base to MPD::Client.">
<polygon fill="white" stroke="black" points="107,-336.5 107,-547.5 253,-547.5 253,-336.5 107,-336.5"/>
<text text-anchor="middle" x="180" y="-535.5" font-family="Helvetica,sans-Serif" font-size="10.00">MPD::BaseClient</text>
<polyline fill="none" stroke="black" points="107,-528.5 253,-528.5 "/>
<text text-anchor="start" x="115" y="-516.5" font-family="Helvetica,sans-Serif" font-size="10.00"># m_Conn</text>
<text text-anchor="start" x="115" y="-505.5" font-family="Helvetica,sans-Serif" font-size="10.00"># mp_Listener</text>
<text text-anchor="start" x="115" y="-494.5" font-family="Helvetica,sans-Serif" font-size="10.00"># m_ListBegun</text>
<polyline fill="none" stroke="black" points="107,-487.5 253,-487.5 "/>
<text text-anchor="start" x="115" y="-475.5" font-family="Helvetica,sans-Serif" font-size="10.00">+ go_idle()</text>
<text text-anchor="start" x="115" y="-464.5" font-family="Helvetica,sans-Serif" font-size="10.00">+ go_busy()</text>
<text text-anchor="start" x="115" y="-453.5" font-family="Helvetica,sans-Serif" font-size="10.00">+ get_connection()</text>
<text text-anchor="start" x="115" y="-442.5" font-family="Helvetica,sans-Serif" font-size="10.00">+ is_connected()</text>
<text text-anchor="start" x="115" y="-431.5" font-family="Helvetica,sans-Serif" font-size="10.00">+ begin()</text>
<text text-anchor="start" x="115" y="-420.5" font-family="Helvetica,sans-Serif" font-size="10.00">+ commit()</text>
<text text-anchor="start" x="115" y="-409.5" font-family="Helvetica,sans-Serif" font-size="10.00">+ get_status()</text>
<text text-anchor="start" x="115" y="-398.5" font-family="Helvetica,sans-Serif" font-size="10.00">+ signal_client_update()</text>
<text text-anchor="start" x="115" y="-387.5" font-family="Helvetica,sans-Serif" font-size="10.00">+ signal_connection_change()</text>
<text text-anchor="start" x="115" y="-376.5" font-family="Helvetica,sans-Serif" font-size="10.00">+ force_update()</text>
<text text-anchor="start" x="115" y="-365.5" font-family="Helvetica,sans-Serif" font-size="10.00"># BaseClient()</text>
<text text-anchor="start" x="115" y="-354.5" font-family="Helvetica,sans-Serif" font-size="10.00"># __connect()</text>
<text text-anchor="start" x="115" y="-343.5" font-family="Helvetica,sans-Serif" font-size="10.00"># __disconnect()</text>
</a>
</g>
<!-- Node3&#45;&gt;Node2 -->
<g id="edge4" class="edge"><title>Node3&#45;&gt;Node2</title>
<path fill="none" stroke="#404040" d="M180,-336.492C180,-321.697 180,-307.068 180,-293.929"/>
<polygon fill="none" stroke="#404040" points="180,-293.833 176,-287.833 180,-281.833 184,-287.833 180,-293.833"/>
<text text-anchor="middle" x="215" y="-309.5" font-family="Helvetica,sans-Serif" font-size="10.00"> mp_BaseClient</text>
</g>
<!-- Node4 -->
<g id="node6" class="node"><title>Node4</title>
<a xlink:href="classMPD_1_1Listener.html" target="_top" xlink:title="Listener for Server events, Freya&#39;s actual core.">
<polygon fill="white" stroke="black" points="0,-618.5 0,-741.5 144,-741.5 144,-618.5 0,-618.5"/>
<text text-anchor="middle" x="72" y="-729.5" font-family="Helvetica,sans-Serif" font-size="10.00">MPD::Listener</text>
<polyline fill="none" stroke="black" points="0,-722.5 144,-722.5 "/>
<text text-anchor="middle" x="72" y="-710.5" font-family="Helvetica,sans-Serif" font-size="10.00"> </text>
<polyline fill="none" stroke="black" points="0,-703.5 144,-703.5 "/>
<text text-anchor="start" x="8" y="-691.5" font-family="Helvetica,sans-Serif" font-size="10.00">+ Listener()</text>
<text text-anchor="start" x="8" y="-680.5" font-family="Helvetica,sans-Serif" font-size="10.00">+ ~Listener()</text>
<text text-anchor="start" x="8" y="-669.5" font-family="Helvetica,sans-Serif" font-size="10.00">+ enter()</text>
<text text-anchor="start" x="8" y="-658.5" font-family="Helvetica,sans-Serif" font-size="10.00">+ leave()</text>
<text text-anchor="start" x="8" y="-647.5" font-family="Helvetica,sans-Serif" font-size="10.00">+ is_idling()</text>
<text text-anchor="start" x="8" y="-636.5" font-family="Helvetica,sans-Serif" font-size="10.00">+ signal_client_update_data()</text>
<text text-anchor="start" x="8" y="-625.5" font-family="Helvetica,sans-Serif" font-size="10.00">+ force_update()</text>
</a>
</g>
<!-- Node4&#45;&gt;Node3 -->
<g id="edge6" class="edge"><title>Node4&#45;&gt;Node3</title>
<path fill="none" stroke="#404040" d="M96.3899,-618.277C103.458,-601.263 111.34,-582.823 119,-566 120.103,-563.576 121.227,-561.13 122.366,-558.668"/>
<polygon fill="none" stroke="#404040" points="122.37,-558.659 121.288,-551.53 127.453,-547.789 128.535,-554.918 122.37,-558.659"/>
<text text-anchor="middle" x="147.5" y="-569.5" font-family="Helvetica,sans-Serif" font-size="10.00"> mp_Listener</text>
</g>
<!-- Node5 -->
<g id="node8" class="node"><title>Node5</title>
<polygon fill="white" stroke="#bfbfbf" points="162.5,-651.5 162.5,-708.5 197.5,-708.5 197.5,-651.5 162.5,-651.5"/>
<text text-anchor="middle" x="180" y="-696.5" font-family="Helvetica,sans-Serif" font-size="10.00">bool</text>
<polyline fill="none" stroke="#bfbfbf" points="162.5,-689.5 197.5,-689.5 "/>
<text text-anchor="middle" x="180" y="-677.5" font-family="Helvetica,sans-Serif" font-size="10.00"> </text>
<polyline fill="none" stroke="#bfbfbf" points="162.5,-670.5 197.5,-670.5 "/>
<text text-anchor="middle" x="180" y="-658.5" font-family="Helvetica,sans-Serif" font-size="10.00"> </text>
</g>
<!-- Node5&#45;&gt;Node3 -->
<g id="edge8" class="edge"><title>Node5&#45;&gt;Node3</title>
<path fill="none" stroke="#404040" d="M180,-651.466C180,-628.462 180,-593.994 180,-559.675"/>
<polygon fill="none" stroke="#404040" points="180,-559.562 176,-553.562 180,-547.562 184,-553.562 180,-559.562"/>
<text text-anchor="middle" x="210.5" y="-569.5" font-family="Helvetica,sans-Serif" font-size="10.00"> m_ListBegun</text>
</g>
<!-- Node6 -->
<g id="node10" class="node"><title>Node6</title>
<a xlink:href="classMPD_1_1Connection.html" target="_top" xlink:title="A convinience Wrapper around mpd_connection*.">
<polygon fill="white" stroke="black" points="216,-596.5 216,-763.5 362,-763.5 362,-596.5 216,-596.5"/>
<text text-anchor="middle" x="289" y="-751.5" font-family="Helvetica,sans-Serif" font-size="10.00">MPD::Connection</text>
<polyline fill="none" stroke="black" points="216,-744.5 362,-744.5 "/>
<text text-anchor="middle" x="289" y="-732.5" font-family="Helvetica,sans-Serif" font-size="10.00"> </text>
<polyline fill="none" stroke="black" points="216,-725.5 362,-725.5 "/>
<text text-anchor="start" x="224" y="-713.5" font-family="Helvetica,sans-Serif" font-size="10.00">+ Connection()</text>
<text text-anchor="start" x="224" y="-702.5" font-family="Helvetica,sans-Serif" font-size="10.00">+ ~Connection()</text>
<text text-anchor="start" x="224" y="-691.5" font-family="Helvetica,sans-Serif" font-size="10.00">+ is_connected()</text>
<text text-anchor="start" x="224" y="-680.5" font-family="Helvetica,sans-Serif" font-size="10.00">+ connect()</text>
<text text-anchor="start" x="224" y="-669.5" font-family="Helvetica,sans-Serif" font-size="10.00">+ disconnect()</text>
<text text-anchor="start" x="224" y="-658.5" font-family="Helvetica,sans-Serif" font-size="10.00">+ clear_error()</text>
<text text-anchor="start" x="224" y="-647.5" font-family="Helvetica,sans-Serif" font-size="10.00">+ check_error()</text>
<text text-anchor="start" x="224" y="-636.5" font-family="Helvetica,sans-Serif" font-size="10.00">+ signal_error()</text>
<text text-anchor="start" x="224" y="-625.5" font-family="Helvetica,sans-Serif" font-size="10.00">+ signal_connection_change()</text>
<text text-anchor="start" x="224" y="-614.5" font-family="Helvetica,sans-Serif" font-size="10.00">+ emit_connection_change()</text>
<text text-anchor="start" x="224" y="-603.5" font-family="Helvetica,sans-Serif" font-size="10.00">+ get_connection()</text>
</a>
</g>
<!-- Node6&#45;&gt;Node3 -->
<g id="edge10" class="edge"><title>Node6&#45;&gt;Node3</title>
<path fill="none" stroke="#404040" d="M258.13,-596.453C253.895,-586.124 249.464,-575.765 245,-566 243.878,-563.546 242.731,-561.072 241.562,-558.584"/>
<polygon fill="none" stroke="#404040" points="241.49,-558.434 235.292,-554.748 236.311,-547.609 242.509,-551.295 241.49,-558.434"/>
<text text-anchor="middle" x="270" y="-569.5" font-family="Helvetica,sans-Serif" font-size="10.00"> m_Conn</text>
</g>
<!-- Node7 -->
<g id="node12" class="node"><title>Node7</title>
<a xlink:href="classMPD_1_1AbstractComposite.html" target="_top" xlink:title="{MPD::AbstractComposite\n||+ AbstractComposite()\l+ ~AbstractComposite()\l+ is_leaf()\l+ get_path()\l}">
<polygon fill="white" stroke="black" points="273.5,-197 273.5,-287 402.5,-287 402.5,-197 273.5,-197"/>
<text text-anchor="middle" x="338" y="-275" font-family="Helvetica,sans-Serif" font-size="10.00">MPD::AbstractComposite</text>
<polyline fill="none" stroke="black" points="273.5,-268 402.5,-268 "/>
<text text-anchor="middle" x="338" y="-256" font-family="Helvetica,sans-Serif" font-size="10.00"> </text>
<polyline fill="none" stroke="black" points="273.5,-249 402.5,-249 "/>
<text text-anchor="start" x="281.5" y="-237" font-family="Helvetica,sans-Serif" font-size="10.00">+ AbstractComposite()</text>
<text text-anchor="start" x="281.5" y="-226" font-family="Helvetica,sans-Serif" font-size="10.00">+ ~AbstractComposite()</text>
<text text-anchor="start" x="281.5" y="-215" font-family="Helvetica,sans-Serif" font-size="10.00">+ is_leaf()</text>
<text text-anchor="start" x="281.5" y="-204" font-family="Helvetica,sans-Serif" font-size="10.00">+ get_path()</text>
</a>
</g>
<!-- Node7&#45;&gt;Node1 -->
<g id="edge12" class="edge"><title>Node7&#45;&gt;Node1</title>
<path fill="none" stroke="midnightblue" d="M324.54,-186.822C322.159,-177.239 319.639,-167.096 317.137,-157.026"/>
<polygon fill="none" stroke="midnightblue" points="321.156,-187.719 326.964,-196.58 327.949,-186.031 321.156,-187.719"/>
</g>
</g>
</svg>
