<?xml version="1.0" encoding="UTF-8" standalone="no"?>
<!DOCTYPE svg PUBLIC "-//W3C//DTD SVG 1.1//EN"
 "http://www.w3.org/Graphics/SVG/1.1/DTD/svg11.dtd">
<!-- Generated by graphviz version 2.28.0 (20120217.0315)
 -->
<!-- Title: G Pages: 1 -->
<svg width="273pt" height="354pt"
 viewBox="0.00 0.00 273.00 354.00" xmlns="http://www.w3.org/2000/svg" xmlns:xlink="http://www.w3.org/1999/xlink">
<g id="graph1" class="graph" transform="scale(1 1) rotate(0) translate(4 350)">
<title>G</title>
<polygon fill="white" stroke="white" points="-4,5 -4,-350 270,-350 270,5 -4,5"/>
<!-- Node1 -->
<g id="node1" class="node"><title>Node1</title>
<polygon fill="#bfbfbf" stroke="black" points="81,-0.5 81,-57.5 191,-57.5 191,-0.5 81,-0.5"/>
<text text-anchor="middle" x="136" y="-45.5" font-family="Helvetica,sans-Serif" font-size="10.00">GManager::Timeslide</text>
<polyline fill="none" stroke="black" points="81,-38.5 191,-38.5 "/>
<text text-anchor="middle" x="136" y="-26.5" font-family="Helvetica,sans-Serif" font-size="10.00"> </text>
<polyline fill="none" stroke="black" points="81,-19.5 191,-19.5 "/>
<text text-anchor="start" x="89" y="-7.5" font-family="Helvetica,sans-Serif" font-size="10.00">+ Timeslide()</text>
</g>
<!-- Node2 -->
<g id="node2" class="node"><title>Node2</title>
<a xlink:href="classMPD_1_1AbstractClientUser.html" target="_top" xlink:title="{MPD::AbstractClientUser\n|# mp_Client\l|+ AbstractClientUser()\l# on_client_update()\l# on_connection_change()\l}">
<polygon fill="white" stroke="black" points="-0.5,-133.5 -0.5,-212.5 130.5,-212.5 130.5,-133.5 -0.5,-133.5"/>
<text text-anchor="middle" x="65" y="-200.5" font-family="Helvetica,sans-Serif" font-size="10.00">MPD::AbstractClientUser</text>
<polyline fill="none" stroke="black" points="-0.5,-193.5 130.5,-193.5 "/>
<text text-anchor="start" x="7.5" y="-181.5" font-family="Helvetica,sans-Serif" font-size="10.00"># mp_Client</text>
<polyline fill="none" stroke="black" points="-0.5,-174.5 130.5,-174.5 "/>
<text text-anchor="start" x="7.5" y="-162.5" font-family="Helvetica,sans-Serif" font-size="10.00">+ AbstractClientUser()</text>
<text text-anchor="start" x="7.5" y="-151.5" font-family="Helvetica,sans-Serif" font-size="10.00"># on_client_update()</text>
<text text-anchor="start" x="7.5" y="-140.5" font-family="Helvetica,sans-Serif" font-size="10.00"># on_connection_change()</text>
</a>
</g>
<!-- Node2&#45;&gt;Node1 -->
<g id="edge2" class="edge"><title>Node2&#45;&gt;Node1</title>
<path fill="none" stroke="midnightblue" d="M88.8799,-124.24C99.9827,-102.035 112.79,-76.42 122.247,-57.5053"/>
<polygon fill="none" stroke="midnightblue" points="85.7428,-122.688 84.4011,-133.198 92.0038,-125.819 85.7428,-122.688"/>
</g>
<!-- Node3 -->
<g id="node4" class="node"><title>Node3</title>
<a xlink:href="classCairoSlider.html" target="_top" xlink:title="{CairoSlider\n||+ CairoSlider()\l+ ~CairoSlider()\l# on_draw()\l# get_border()\l# get_percentage()\l# set_percentage()\l# on_percent_change()\l# get_update_timeout()\l# get_active_color()\l# get_inactive_color()\l}">
<polygon fill="white" stroke="black" points="149,-95 149,-251 265,-251 265,-95 149,-95"/>
<text text-anchor="middle" x="207" y="-239" font-family="Helvetica,sans-Serif" font-size="10.00">CairoSlider</text>
<polyline fill="none" stroke="black" points="149,-232 265,-232 "/>
<text text-anchor="middle" x="207" y="-220" font-family="Helvetica,sans-Serif" font-size="10.00"> </text>
<polyline fill="none" stroke="black" points="149,-213 265,-213 "/>
<text text-anchor="start" x="157" y="-201" font-family="Helvetica,sans-Serif" font-size="10.00">+ CairoSlider()</text>
<text text-anchor="start" x="157" y="-190" font-family="Helvetica,sans-Serif" font-size="10.00">+ ~CairoSlider()</text>
<text text-anchor="start" x="157" y="-179" font-family="Helvetica,sans-Serif" font-size="10.00"># on_draw()</text>
<text text-anchor="start" x="157" y="-168" font-family="Helvetica,sans-Serif" font-size="10.00"># get_border()</text>
<text text-anchor="start" x="157" y="-157" font-family="Helvetica,sans-Serif" font-size="10.00"># get_percentage()</text>
<text text-anchor="start" x="157" y="-146" font-family="Helvetica,sans-Serif" font-size="10.00"># set_percentage()</text>
<text text-anchor="start" x="157" y="-135" font-family="Helvetica,sans-Serif" font-size="10.00"># on_percent_change()</text>
<text text-anchor="start" x="157" y="-124" font-family="Helvetica,sans-Serif" font-size="10.00"># get_update_timeout()</text>
<text text-anchor="start" x="157" y="-113" font-family="Helvetica,sans-Serif" font-size="10.00"># get_active_color()</text>
<text text-anchor="start" x="157" y="-102" font-family="Helvetica,sans-Serif" font-size="10.00"># get_inactive_color()</text>
</a>
</g>
<!-- Node3&#45;&gt;Node1 -->
<g id="edge4" class="edge"><title>Node3&#45;&gt;Node1</title>
<path fill="none" stroke="midnightblue" d="M163.907,-85.8143C158.864,-75.7277 154.035,-66.0701 149.854,-57.7082"/>
<polygon fill="none" stroke="midnightblue" points="160.781,-87.3879 168.383,-94.7669 167.042,-84.2574 160.781,-87.3879"/>
</g>
<!-- Node4 -->
<g id="node6" class="node"><title>Node4</title>
<a xlink:href="classGtk_1_1DrawingArea.html" target="_top" xlink:title="{Gtk::DrawingArea\n||}">
<polygon fill="white" stroke="black" points="159.5,-288.5 159.5,-345.5 254.5,-345.5 254.5,-288.5 159.5,-288.5"/>
<text text-anchor="middle" x="207" y="-333.5" font-family="Helvetica,sans-Serif" font-size="10.00">Gtk::DrawingArea</text>
<polyline fill="none" stroke="black" points="159.5,-326.5 254.5,-326.5 "/>
<text text-anchor="middle" x="207" y="-314.5" font-family="Helvetica,sans-Serif" font-size="10.00"> </text>
<polyline fill="none" stroke="black" points="159.5,-307.5 254.5,-307.5 "/>
<text text-anchor="middle" x="207" y="-295.5" font-family="Helvetica,sans-Serif" font-size="10.00"> </text>
</a>
</g>
<!-- Node4&#45;&gt;Node3 -->
<g id="edge6" class="edge"><title>Node4&#45;&gt;Node3</title>
<path fill="none" stroke="midnightblue" d="M207,-278.128C207,-269.734 207,-260.545 207,-251.212"/>
<polygon fill="none" stroke="midnightblue" points="203.5,-278.284 207,-288.284 210.5,-278.284 203.5,-278.284"/>
</g>
</g>
</svg>
