<?xml version="1.0" encoding="UTF-8" standalone="no"?>
<!DOCTYPE svg PUBLIC "-//W3C//DTD SVG 1.1//EN"
 "http://www.w3.org/Graphics/SVG/1.1/DTD/svg11.dtd">
<!-- Generated by graphviz version 2.28.0 (20111204.1018)
 -->
<!-- Title: G Pages: 1 -->
<svg width="267pt" height="238pt"
 viewBox="0.00 0.00 267.00 238.00" xmlns="http://www.w3.org/2000/svg" xmlns:xlink="http://www.w3.org/1999/xlink">
<g id="graph1" class="graph" transform="scale(1 1) rotate(0) translate(4 234)">
<title>G</title>
<polygon fill="white" stroke="white" points="-4,5 -4,-234 264,-234 264,5 -4,5"/>
<!-- Node1 -->
<g id="node1" class="node"><title>Node1</title>
<polygon fill="#bfbfbf" stroke="black" points="79,-0.5 79,-79.5 169,-79.5 169,-0.5 79,-0.5"/>
<text text-anchor="middle" x="124" y="-67.5" font-family="Helvetica,sans-Serif" font-size="10.00">Browser::Queue</text>
<polyline fill="none" stroke="black" points="79,-60.5 169,-60.5 "/>
<text text-anchor="middle" x="124" y="-48.5" font-family="Helvetica,sans-Serif" font-size="10.00"> </text>
<polyline fill="none" stroke="black" points="79,-41.5 169,-41.5 "/>
<text text-anchor="start" x="87" y="-29.5" font-family="Helvetica,sans-Serif" font-size="10.00">+ Queue()</text>
<text text-anchor="start" x="87" y="-18.5" font-family="Helvetica,sans-Serif" font-size="10.00">+ ~Queue()</text>
<text text-anchor="start" x="87" y="-7.5" font-family="Helvetica,sans-Serif" font-size="10.00">+ get_container()</text>
</g>
<!-- Node2 -->
<g id="node2" class="node"><title>Node2</title>
<a xlink:href="classAbstractBrowser.html" target="_top" xlink:title="Inherit from this class in order to be able to add the browser to the browserlist.">
<polygon fill="white" stroke="black" points="0,-117 0,-229 110,-229 110,-117 0,-117"/>
<text text-anchor="middle" x="55" y="-217" font-family="Helvetica,sans-Serif" font-size="10.00">AbstractBrowser</text>
<polyline fill="none" stroke="black" points="0,-210 110,-210 "/>
<text text-anchor="middle" x="55" y="-198" font-family="Helvetica,sans-Serif" font-size="10.00"> </text>
<polyline fill="none" stroke="black" points="0,-191 110,-191 "/>
<text text-anchor="start" x="8" y="-179" font-family="Helvetica,sans-Serif" font-size="10.00">+ AbstractBrowser()</text>
<text text-anchor="start" x="8" y="-168" font-family="Helvetica,sans-Serif" font-size="10.00">+ get_container()</text>
<text text-anchor="start" x="8" y="-157" font-family="Helvetica,sans-Serif" font-size="10.00">+ get_name()</text>
<text text-anchor="start" x="8" y="-146" font-family="Helvetica,sans-Serif" font-size="10.00">+ get_icon_stock_id()</text>
<text text-anchor="start" x="8" y="-135" font-family="Helvetica,sans-Serif" font-size="10.00">+ is_visible()</text>
<text text-anchor="start" x="8" y="-124" font-family="Helvetica,sans-Serif" font-size="10.00">+ needs_connection()</text>
</a>
</g>
<!-- Node2&#45;&gt;Node1 -->
<g id="edge2" class="edge"><title>Node2&#45;&gt;Node1</title>
<path fill="none" stroke="midnightblue" d="M88.8588,-107.717C93.882,-98.1805 98.9234,-88.6093 103.557,-79.8127"/>
<polygon fill="none" stroke="midnightblue" points="85.6258,-106.345 84.0622,-116.824 91.8192,-109.607 85.6258,-106.345"/>
</g>
<!-- Node3 -->
<g id="node4" class="node"><title>Node3</title>
<a xlink:href="classMPD_1_1AbstractClientUser.html" target="_top" xlink:title="{MPD::AbstractClientUser\n|# mp_Client\l|+ AbstractClientUser()\l# on_client_update()\l# on_connection_change()\l}">
<polygon fill="white" stroke="black" points="128.5,-133.5 128.5,-212.5 259.5,-212.5 259.5,-133.5 128.5,-133.5"/>
<text text-anchor="middle" x="194" y="-200.5" font-family="Helvetica,sans-Serif" font-size="10.00">MPD::AbstractClientUser</text>
<polyline fill="none" stroke="black" points="128.5,-193.5 259.5,-193.5 "/>
<text text-anchor="start" x="136.5" y="-181.5" font-family="Helvetica,sans-Serif" font-size="10.00"># mp_Client</text>
<polyline fill="none" stroke="black" points="128.5,-174.5 259.5,-174.5 "/>
<text text-anchor="start" x="136.5" y="-162.5" font-family="Helvetica,sans-Serif" font-size="10.00">+ AbstractClientUser()</text>
<text text-anchor="start" x="136.5" y="-151.5" font-family="Helvetica,sans-Serif" font-size="10.00"># on_client_update()</text>
<text text-anchor="start" x="136.5" y="-140.5" font-family="Helvetica,sans-Serif" font-size="10.00"># on_connection_change()</text>
</a>
</g>
<!-- Node3&#45;&gt;Node1 -->
<g id="edge4" class="edge"><title>Node3&#45;&gt;Node1</title>
<path fill="none" stroke="midnightblue" d="M168.597,-124.46C160.751,-109.777 152.208,-93.7893 144.718,-79.7726"/>
<polygon fill="none" stroke="midnightblue" points="165.576,-126.234 173.376,-133.404 171.75,-122.935 165.576,-126.234"/>
</g>
</g>
</svg>
