<?xml version="1.0" encoding="UTF-8" standalone="no"?>
<!DOCTYPE svg PUBLIC "-//W3C//DTD SVG 1.1//EN"
 "http://www.w3.org/Graphics/SVG/1.1/DTD/svg11.dtd">
<!-- Generated by graphviz version 2.28.0 (20111204.1018)
 -->
<!-- Title: G Pages: 1 -->
<svg width="1287pt" height="510pt"
 viewBox="0.00 0.00 1287.00 510.00" xmlns="http://www.w3.org/2000/svg" xmlns:xlink="http://www.w3.org/1999/xlink">
<g id="graph1" class="graph" transform="scale(1 1) rotate(0) translate(4 506)">
<title>G</title>
<polygon fill="white" stroke="white" points="-4,5 -4,-506 1284,-506 1284,5 -4,5"/>
<!-- Node1 -->
<g id="node1" class="node"><title>Node1</title>
<polygon fill="#bfbfbf" stroke="black" points="411.5,-1 411.5,-223 520.5,-223 520.5,-1 411.5,-1"/>
<text text-anchor="middle" x="466" y="-211" font-family="Helvetica,sans-Serif" font-size="10.00">Avahi::View</text>
<polyline fill="none" stroke="black" points="411.5,-204 520.5,-204 "/>
<text text-anchor="start" x="419.5" y="-192" font-family="Helvetica,sans-Serif" font-size="10.00">+ signal_select</text>
<text text-anchor="start" x="419.5" y="-181" font-family="Helvetica,sans-Serif" font-size="10.00"># m_Columns</text>
<text text-anchor="start" x="419.5" y="-170" font-family="Helvetica,sans-Serif" font-size="10.00"># m_VBox</text>
<text text-anchor="start" x="419.5" y="-159" font-family="Helvetica,sans-Serif" font-size="10.00"># m_ScrolledWindow</text>
<text text-anchor="start" x="419.5" y="-148" font-family="Helvetica,sans-Serif" font-size="10.00"># m_TreeView</text>
<text text-anchor="start" x="419.5" y="-137" font-family="Helvetica,sans-Serif" font-size="10.00"># m_refTreeModel</text>
<text text-anchor="start" x="419.5" y="-126" font-family="Helvetica,sans-Serif" font-size="10.00"># m_ButtonBox</text>
<text text-anchor="start" x="419.5" y="-115" font-family="Helvetica,sans-Serif" font-size="10.00"># m_Button_Cancel</text>
<text text-anchor="start" x="419.5" y="-104" font-family="Helvetica,sans-Serif" font-size="10.00"># m_Button_Select</text>
<text text-anchor="start" x="419.5" y="-93" font-family="Helvetica,sans-Serif" font-size="10.00"># m_Status_Label</text>
<text text-anchor="start" x="419.5" y="-82" font-family="Helvetica,sans-Serif" font-size="10.00"># m_CtrlSep</text>
<polyline fill="none" stroke="black" points="411.5,-75 520.5,-75 "/>
<text text-anchor="start" x="419.5" y="-63" font-family="Helvetica,sans-Serif" font-size="10.00">+ View()</text>
<text text-anchor="start" x="419.5" y="-52" font-family="Helvetica,sans-Serif" font-size="10.00">+ server_append()</text>
<text text-anchor="start" x="419.5" y="-41" font-family="Helvetica,sans-Serif" font-size="10.00">+ server_delete()</text>
<text text-anchor="start" x="419.5" y="-30" font-family="Helvetica,sans-Serif" font-size="10.00">+ set_status()</text>
<text text-anchor="start" x="419.5" y="-19" font-family="Helvetica,sans-Serif" font-size="10.00"># on_button_cancel()</text>
<text text-anchor="start" x="419.5" y="-8" font-family="Helvetica,sans-Serif" font-size="10.00"># on_button_select()</text>
</g>
<!-- Node2 -->
<g id="node2" class="node"><title>Node2</title>
<a xlink:href="classGtk_1_1Window.html" target="_top" xlink:title="{Gtk::Window\n||}">
<polygon fill="white" stroke="black" points="0,-299.5 0,-356.5 74,-356.5 74,-299.5 0,-299.5"/>
<text text-anchor="middle" x="37" y="-344.5" font-family="Helvetica,sans-Serif" font-size="10.00">Gtk::Window</text>
<polyline fill="none" stroke="black" points="0,-337.5 74,-337.5 "/>
<text text-anchor="middle" x="37" y="-325.5" font-family="Helvetica,sans-Serif" font-size="10.00"> </text>
<polyline fill="none" stroke="black" points="0,-318.5 74,-318.5 "/>
<text text-anchor="middle" x="37" y="-306.5" font-family="Helvetica,sans-Serif" font-size="10.00"> </text>
</a>
</g>
<!-- Node2&#45;&gt;Node1 -->
<g id="edge2" class="edge"><title>Node2&#45;&gt;Node1</title>
<path fill="none" stroke="midnightblue" d="M71.2775,-292.188C75.1448,-288.649 79.0989,-285.188 83,-282 107.532,-261.954 114.008,-256.835 142,-242 232.809,-193.873 345.647,-152.851 411.373,-130.673"/>
<polygon fill="none" stroke="midnightblue" points="68.8768,-289.641 63.9842,-299.038 73.6693,-294.743 68.8768,-289.641"/>
</g>
<!-- Node3 -->
<g id="node4" class="node"><title>Node3</title>
<polygon fill="white" stroke="#bfbfbf" points="92,-299.5 92,-356.5 132,-356.5 132,-299.5 92,-299.5"/>
<text text-anchor="middle" x="112" y="-344.5" font-family="Helvetica,sans-Serif" font-size="10.00">Label</text>
<polyline fill="none" stroke="#bfbfbf" points="92,-337.5 132,-337.5 "/>
<text text-anchor="middle" x="112" y="-325.5" font-family="Helvetica,sans-Serif" font-size="10.00"> </text>
<polyline fill="none" stroke="#bfbfbf" points="92,-318.5 132,-318.5 "/>
<text text-anchor="middle" x="112" y="-306.5" font-family="Helvetica,sans-Serif" font-size="10.00"> </text>
</g>
<!-- Node3&#45;&gt;Node1 -->
<g id="edge4" class="edge"><title>Node3&#45;&gt;Node1</title>
<path fill="none" stroke="#404040" d="M123.447,-299.42C132.239,-281.091 145.938,-257.611 164,-242 233.033,-182.335 333.78,-146.855 399.61,-128.638"/>
<polygon fill="none" stroke="#404040" points="399.894,-128.562 404.645,-123.137 411.48,-125.436 406.729,-130.861 399.894,-128.562"/>
<text text-anchor="middle" x="201" y="-250.5" font-family="Helvetica,sans-Serif" font-size="10.00"> m_Status_Label</text>
</g>
<!-- Node4 -->
<g id="node6" class="node"><title>Node4</title>
<polygon fill="white" stroke="#bfbfbf" points="178.5,-299.5 178.5,-356.5 219.5,-356.5 219.5,-299.5 178.5,-299.5"/>
<text text-anchor="middle" x="199" y="-344.5" font-family="Helvetica,sans-Serif" font-size="10.00">VBox</text>
<polyline fill="none" stroke="#bfbfbf" points="178.5,-337.5 219.5,-337.5 "/>
<text text-anchor="middle" x="199" y="-325.5" font-family="Helvetica,sans-Serif" font-size="10.00"> </text>
<polyline fill="none" stroke="#bfbfbf" points="178.5,-318.5 219.5,-318.5 "/>
<text text-anchor="middle" x="199" y="-306.5" font-family="Helvetica,sans-Serif" font-size="10.00"> </text>
</g>
<!-- Node4&#45;&gt;Node1 -->
<g id="edge6" class="edge"><title>Node4&#45;&gt;Node1</title>
<path fill="none" stroke="#404040" d="M215.197,-299.367C226.65,-281.475 243.259,-258.518 262,-242 304.366,-204.659 358.662,-170.883 400.586,-147.267"/>
<polygon fill="none" stroke="#404040" points="400.753,-147.174 404.049,-140.76 411.237,-141.335 407.941,-147.749 400.753,-147.174"/>
<text text-anchor="middle" x="282.5" y="-250.5" font-family="Helvetica,sans-Serif" font-size="10.00"> m_VBox</text>
</g>
<!-- Node5 -->
<g id="node8" class="node"><title>Node5</title>
<polygon fill="white" stroke="#bfbfbf" points="238,-299.5 238,-356.5 308,-356.5 308,-299.5 238,-299.5"/>
<text text-anchor="middle" x="273" y="-344.5" font-family="Helvetica,sans-Serif" font-size="10.00">HButtonBox</text>
<polyline fill="none" stroke="#bfbfbf" points="238,-337.5 308,-337.5 "/>
<text text-anchor="middle" x="273" y="-325.5" font-family="Helvetica,sans-Serif" font-size="10.00"> </text>
<polyline fill="none" stroke="#bfbfbf" points="238,-318.5 308,-318.5 "/>
<text text-anchor="middle" x="273" y="-306.5" font-family="Helvetica,sans-Serif" font-size="10.00"> </text>
</g>
<!-- Node5&#45;&gt;Node1 -->
<g id="edge8" class="edge"><title>Node5&#45;&gt;Node1</title>
<path fill="none" stroke="#404040" d="M286.18,-299.173C295.059,-281.848 307.727,-259.592 322,-242 345.362,-213.205 375.378,-185.239 401.954,-162.749"/>
<polygon fill="none" stroke="#404040" points="401.984,-162.723 404.025,-155.807 411.194,-155.03 409.153,-161.947 401.984,-162.723"/>
<text text-anchor="middle" x="353.5" y="-250.5" font-family="Helvetica,sans-Serif" font-size="10.00"> m_ButtonBox</text>
</g>
<!-- Node6 -->
<g id="node10" class="node"><title>Node6</title>
<polygon fill="white" stroke="#bfbfbf" points="326.5,-299.5 326.5,-356.5 385.5,-356.5 385.5,-299.5 326.5,-299.5"/>
<text text-anchor="middle" x="356" y="-344.5" font-family="Helvetica,sans-Serif" font-size="10.00">Separator</text>
<polyline fill="none" stroke="#bfbfbf" points="326.5,-337.5 385.5,-337.5 "/>
<text text-anchor="middle" x="356" y="-325.5" font-family="Helvetica,sans-Serif" font-size="10.00"> </text>
<polyline fill="none" stroke="#bfbfbf" points="326.5,-318.5 385.5,-318.5 "/>
<text text-anchor="middle" x="356" y="-306.5" font-family="Helvetica,sans-Serif" font-size="10.00"> </text>
</g>
<!-- Node6&#45;&gt;Node1 -->
<g id="edge10" class="edge"><title>Node6&#45;&gt;Node1</title>
<path fill="none" stroke="#404040" d="M370.155,-299.461C379.488,-281.305 392.416,-256.155 405.759,-230.197"/>
<polygon fill="none" stroke="#404040" points="405.803,-230.111 404.988,-222.946 411.289,-219.438 412.103,-226.603 405.803,-230.111"/>
<text text-anchor="middle" x="423" y="-250.5" font-family="Helvetica,sans-Serif" font-size="10.00"> m_CtrlSep</text>
</g>
<!-- Node7 -->
<g id="node12" class="node"><title>Node7</title>
<polygon fill="white" stroke="#bfbfbf" points="404,-299.5 404,-356.5 528,-356.5 528,-299.5 404,-299.5"/>
<text text-anchor="middle" x="466" y="-344.5" font-family="Helvetica,sans-Serif" font-size="10.00">RefPtr&lt; Gtk::ListStore &gt;</text>
<polyline fill="none" stroke="#bfbfbf" points="404,-337.5 528,-337.5 "/>
<text text-anchor="middle" x="466" y="-325.5" font-family="Helvetica,sans-Serif" font-size="10.00"> </text>
<polyline fill="none" stroke="#bfbfbf" points="404,-318.5 528,-318.5 "/>
<text text-anchor="middle" x="466" y="-306.5" font-family="Helvetica,sans-Serif" font-size="10.00"> </text>
</g>
<!-- Node7&#45;&gt;Node1 -->
<g id="edge12" class="edge"><title>Node7&#45;&gt;Node1</title>
<path fill="none" stroke="#404040" d="M466,-299.461C466,-282.561 466,-259.603 466,-235.573"/>
<polygon fill="none" stroke="#404040" points="466,-235.327 462,-229.327 466,-223.327 470,-229.327 466,-235.327"/>
<text text-anchor="middle" x="503" y="-250.5" font-family="Helvetica,sans-Serif" font-size="10.00"> m_refTreeModel</text>
</g>
<!-- Node8 -->
<g id="node14" class="node"><title>Node8</title>
<a xlink:href="classAvahi_1_1View_1_1ModelColumns.html" target="_top" xlink:title="{Avahi::View::ModelColumns\n|+ m_col_ip\l+ m_col_hostname\l+ m_col_name\l+ m_col_port\l|+ ModelColumns()\l}">
<polygon fill="white" stroke="black" points="546,-283 546,-373 686,-373 686,-283 546,-283"/>
<text text-anchor="middle" x="616" y="-361" font-family="Helvetica,sans-Serif" font-size="10.00">Avahi::View::ModelColumns</text>
<polyline fill="none" stroke="black" points="546,-354 686,-354 "/>
<text text-anchor="start" x="554" y="-342" font-family="Helvetica,sans-Serif" font-size="10.00">+ m_col_ip</text>
<text text-anchor="start" x="554" y="-331" font-family="Helvetica,sans-Serif" font-size="10.00">+ m_col_hostname</text>
<text text-anchor="start" x="554" y="-320" font-family="Helvetica,sans-Serif" font-size="10.00">+ m_col_name</text>
<text text-anchor="start" x="554" y="-309" font-family="Helvetica,sans-Serif" font-size="10.00">+ m_col_port</text>
<polyline fill="none" stroke="black" points="546,-302 686,-302 "/>
<text text-anchor="start" x="554" y="-290" font-family="Helvetica,sans-Serif" font-size="10.00">+ ModelColumns()</text>
</a>
</g>
<!-- Node8&#45;&gt;Node1 -->
<g id="edge14" class="edge"><title>Node8&#45;&gt;Node1</title>
<path fill="none" stroke="#404040" d="M585.102,-282.919C568.454,-259.168 547.31,-229.003 527.472,-200.7"/>
<polygon fill="none" stroke="#404040" points="527.407,-200.607 520.688,-197.99 520.519,-190.781 527.239,-193.398 527.407,-200.607"/>
<text text-anchor="middle" x="600" y="-250.5" font-family="Helvetica,sans-Serif" font-size="10.00"> m_Columns</text>
</g>
<!-- Node9 -->
<g id="node16" class="node"><title>Node9</title>
<a xlink:href="classGtk_1_1TreeModel_1_1ColumnRecord.html" target="_top" xlink:title="{ColumnRecord\n||}">
<polygon fill="white" stroke="black" points="432,-444.5 432,-501.5 514,-501.5 514,-444.5 432,-444.5"/>
<text text-anchor="middle" x="473" y="-489.5" font-family="Helvetica,sans-Serif" font-size="10.00">ColumnRecord</text>
<polyline fill="none" stroke="black" points="432,-482.5 514,-482.5 "/>
<text text-anchor="middle" x="473" y="-470.5" font-family="Helvetica,sans-Serif" font-size="10.00"> </text>
<polyline fill="none" stroke="black" points="432,-463.5 514,-463.5 "/>
<text text-anchor="middle" x="473" y="-451.5" font-family="Helvetica,sans-Serif" font-size="10.00"> </text>
</a>
</g>
<!-- Node9&#45;&gt;Node8 -->
<g id="edge16" class="edge"><title>Node9&#45;&gt;Node8</title>
<path fill="none" stroke="midnightblue" d="M507.716,-437.284C527.033,-417.967 551.271,-393.729 571.916,-373.084"/>
<polygon fill="none" stroke="midnightblue" points="505.168,-434.882 500.572,-444.428 510.118,-439.832 505.168,-434.882"/>
</g>
<!-- Node10 -->
<g id="node18" class="node"><title>Node10</title>
<polygon fill="white" stroke="#bfbfbf" points="532.5,-444.5 532.5,-501.5 699.5,-501.5 699.5,-444.5 532.5,-444.5"/>
<text text-anchor="middle" x="616" y="-489.5" font-family="Helvetica,sans-Serif" font-size="10.00">TreeModelColumn&lt; unsigned int &gt;</text>
<polyline fill="none" stroke="#bfbfbf" points="532.5,-482.5 699.5,-482.5 "/>
<text text-anchor="middle" x="616" y="-470.5" font-family="Helvetica,sans-Serif" font-size="10.00"> </text>
<polyline fill="none" stroke="#bfbfbf" points="532.5,-463.5 699.5,-463.5 "/>
<text text-anchor="middle" x="616" y="-451.5" font-family="Helvetica,sans-Serif" font-size="10.00"> </text>
</g>
<!-- Node10&#45;&gt;Node8 -->
<g id="edge18" class="edge"><title>Node10&#45;&gt;Node8</title>
<path fill="none" stroke="#404040" d="M616,-444.428C616,-427.614 616,-405.507 616,-385.145"/>
<polygon fill="none" stroke="#404040" points="616,-385.084 612,-379.084 616,-373.084 620,-379.084 616,-385.084"/>
<text text-anchor="middle" x="642" y="-406.5" font-family="Helvetica,sans-Serif" font-size="10.00"> m_col_port</text>
</g>
<!-- Node11 -->
<g id="node20" class="node"><title>Node11</title>
<polygon fill="white" stroke="#bfbfbf" points="717.5,-444.5 717.5,-501.5 884.5,-501.5 884.5,-444.5 717.5,-444.5"/>
<text text-anchor="middle" x="801" y="-489.5" font-family="Helvetica,sans-Serif" font-size="10.00">TreeModelColumn&lt; Glib::ustring &gt;</text>
<polyline fill="none" stroke="#bfbfbf" points="717.5,-482.5 884.5,-482.5 "/>
<text text-anchor="middle" x="801" y="-470.5" font-family="Helvetica,sans-Serif" font-size="10.00"> </text>
<polyline fill="none" stroke="#bfbfbf" points="717.5,-463.5 884.5,-463.5 "/>
<text text-anchor="middle" x="801" y="-451.5" font-family="Helvetica,sans-Serif" font-size="10.00"> </text>
</g>
<!-- Node11&#45;&gt;Node8 -->
<g id="edge20" class="edge"><title>Node11&#45;&gt;Node8</title>
<path fill="none" stroke="#404040" d="M765.33,-444.428C741.943,-426.351 710.643,-402.156 682.741,-380.589"/>
<polygon fill="none" stroke="#404040" points="682.526,-380.423 675.332,-379.918 673.031,-373.084 680.225,-373.588 682.526,-380.423"/>
<text text-anchor="middle" x="781" y="-417.5" font-family="Helvetica,sans-Serif" font-size="10.00"> m_col_hostname</text>
<text text-anchor="middle" x="781" y="-406.5" font-family="Helvetica,sans-Serif" font-size="10.00">m_col_name</text>
<text text-anchor="middle" x="781" y="-395.5" font-family="Helvetica,sans-Serif" font-size="10.00">m_col_ip</text>
</g>
<!-- Node12 -->
<g id="node22" class="node"><title>Node12</title>
<polygon fill="white" stroke="#bfbfbf" points="704,-299.5 704,-356.5 1016,-356.5 1016,-299.5 704,-299.5"/>
<text text-anchor="middle" x="860" y="-344.5" font-family="Helvetica,sans-Serif" font-size="10.00">signal&lt; void, Glib::ustring, Glib::ustring, Glib::ustring, unsigned int &gt;</text>
<polyline fill="none" stroke="#bfbfbf" points="704,-337.5 1016,-337.5 "/>
<text text-anchor="middle" x="860" y="-325.5" font-family="Helvetica,sans-Serif" font-size="10.00"> </text>
<polyline fill="none" stroke="#bfbfbf" points="704,-318.5 1016,-318.5 "/>
<text text-anchor="middle" x="860" y="-306.5" font-family="Helvetica,sans-Serif" font-size="10.00"> </text>
</g>
<!-- Node12&#45;&gt;Node1 -->
<g id="edge22" class="edge"><title>Node12&#45;&gt;Node1</title>
<path fill="none" stroke="#404040" d="M809.298,-299.461C738.334,-260.917 609.345,-190.858 531.282,-148.458"/>
<polygon fill="none" stroke="#404040" points="531.162,-148.392 523.98,-149.044 520.617,-142.665 527.798,-142.014 531.162,-148.392"/>
<text text-anchor="middle" x="774.5" y="-250.5" font-family="Helvetica,sans-Serif" font-size="10.00"> signal_select</text>
</g>
<!-- Node13 -->
<g id="node24" class="node"><title>Node13</title>
<polygon fill="white" stroke="#bfbfbf" points="1034,-299.5 1034,-356.5 1092,-356.5 1092,-299.5 1034,-299.5"/>
<text text-anchor="middle" x="1063" y="-344.5" font-family="Helvetica,sans-Serif" font-size="10.00">TreeView</text>
<polyline fill="none" stroke="#bfbfbf" points="1034,-337.5 1092,-337.5 "/>
<text text-anchor="middle" x="1063" y="-325.5" font-family="Helvetica,sans-Serif" font-size="10.00"> </text>
<polyline fill="none" stroke="#bfbfbf" points="1034,-318.5 1092,-318.5 "/>
<text text-anchor="middle" x="1063" y="-306.5" font-family="Helvetica,sans-Serif" font-size="10.00"> </text>
</g>
<!-- Node13&#45;&gt;Node1 -->
<g id="edge24" class="edge"><title>Node13&#45;&gt;Node1</title>
<path fill="none" stroke="#404040" d="M1043.91,-299.277C1038.42,-292.878 1032.01,-286.606 1025,-282 867.196,-178.259 643.089,-136.013 532.708,-120.695"/>
<polygon fill="none" stroke="#404040" points="532.675,-120.691 526.194,-123.851 520.783,-119.084 527.265,-115.923 532.675,-120.691"/>
<text text-anchor="middle" x="1014" y="-250.5" font-family="Helvetica,sans-Serif" font-size="10.00"> m_TreeView</text>
</g>
<!-- Node14 -->
<g id="node26" class="node"><title>Node14</title>
<polygon fill="white" stroke="#bfbfbf" points="1110.5,-299.5 1110.5,-356.5 1155.5,-356.5 1155.5,-299.5 1110.5,-299.5"/>
<text text-anchor="middle" x="1133" y="-344.5" font-family="Helvetica,sans-Serif" font-size="10.00">Button</text>
<polyline fill="none" stroke="#bfbfbf" points="1110.5,-337.5 1155.5,-337.5 "/>
<text text-anchor="middle" x="1133" y="-325.5" font-family="Helvetica,sans-Serif" font-size="10.00"> </text>
<polyline fill="none" stroke="#bfbfbf" points="1110.5,-318.5 1155.5,-318.5 "/>
<text text-anchor="middle" x="1133" y="-306.5" font-family="Helvetica,sans-Serif" font-size="10.00"> </text>
</g>
<!-- Node14&#45;&gt;Node1 -->
<g id="edge26" class="edge"><title>Node14&#45;&gt;Node1</title>
<path fill="none" stroke="#404040" d="M1114.67,-299.318C1110.18,-293.338 1105.17,-287.242 1100,-282 1079.28,-260.989 1073.79,-254.369 1047,-242 872.036,-161.228 643.627,-129.678 532.515,-118.501"/>
<polygon fill="none" stroke="#404040" points="532.466,-118.496 526.105,-121.893 520.523,-117.328 526.884,-113.931 532.466,-118.496"/>
<text text-anchor="middle" x="1121.5" y="-256" font-family="Helvetica,sans-Serif" font-size="10.00"> m_Button_Select</text>
<text text-anchor="middle" x="1121.5" y="-245" font-family="Helvetica,sans-Serif" font-size="10.00">m_Button_Cancel</text>
</g>
<!-- Node15 -->
<g id="node28" class="node"><title>Node15</title>
<polygon fill="white" stroke="#bfbfbf" points="1191.5,-299.5 1191.5,-356.5 1278.5,-356.5 1278.5,-299.5 1191.5,-299.5"/>
<text text-anchor="middle" x="1235" y="-344.5" font-family="Helvetica,sans-Serif" font-size="10.00">ScrolledWindow</text>
<polyline fill="none" stroke="#bfbfbf" points="1191.5,-337.5 1278.5,-337.5 "/>
<text text-anchor="middle" x="1235" y="-325.5" font-family="Helvetica,sans-Serif" font-size="10.00"> </text>
<polyline fill="none" stroke="#bfbfbf" points="1191.5,-318.5 1278.5,-318.5 "/>
<text text-anchor="middle" x="1235" y="-306.5" font-family="Helvetica,sans-Serif" font-size="10.00"> </text>
</g>
<!-- Node15&#45;&gt;Node1 -->
<g id="edge28" class="edge"><title>Node15&#45;&gt;Node1</title>
<path fill="none" stroke="#404040" d="M1219.38,-299.233C1207.1,-280.074 1188.23,-255.677 1165,-242 1057.78,-178.862 685.721,-135.147 532.612,-119.434"/>
<polygon fill="none" stroke="#404040" points="532.603,-119.434 526.229,-122.806 520.664,-118.22 527.038,-114.847 532.603,-119.434"/>
<text text-anchor="middle" x="1235" y="-250.5" font-family="Helvetica,sans-Serif" font-size="10.00"> m_ScrolledWindow</text>
</g>
</g>
</svg>
