<?xml version="1.0" encoding="UTF-8" standalone="no"?>
<!DOCTYPE svg PUBLIC "-//W3C//DTD SVG 1.1//EN"
 "http://www.w3.org/Graphics/SVG/1.1/DTD/svg11.dtd">
<!-- Generated by graphviz version 2.28.0 (20120217.0315)
 -->
<!-- Title: G Pages: 1 -->
<svg width="261pt" height="376pt"
 viewBox="0.00 0.00 261.00 376.00" xmlns="http://www.w3.org/2000/svg" xmlns:xlink="http://www.w3.org/1999/xlink">
<g id="graph1" class="graph" transform="scale(1 1) rotate(0) translate(4 372)">
<title>G</title>
<polygon fill="white" stroke="white" points="-4,5 -4,-372 258,-372 258,5 -4,5"/>
<!-- Node1 -->
<g id="node1" class="node"><title>Node1</title>
<polygon fill="#bfbfbf" stroke="black" points="86.5,-310.5 86.5,-367.5 159.5,-367.5 159.5,-310.5 86.5,-310.5"/>
<text text-anchor="middle" x="123" y="-355.5" font-family="Helvetica,sans-Serif" font-size="10.00">DrawingArea</text>
<polyline fill="none" stroke="black" points="86.5,-348.5 159.5,-348.5 "/>
<text text-anchor="middle" x="123" y="-336.5" font-family="Helvetica,sans-Serif" font-size="10.00"> </text>
<polyline fill="none" stroke="black" points="86.5,-329.5 159.5,-329.5 "/>
<text text-anchor="middle" x="123" y="-317.5" font-family="Helvetica,sans-Serif" font-size="10.00"> </text>
</g>
<!-- Node2 -->
<g id="node3" class="node"><title>Node2</title>
<a xlink:href="classCairoSlider.html" target="_top" xlink:title="{CairoSlider\n||+ CairoSlider()\l+ ~CairoSlider()\l# on_draw()\l# get_border()\l# get_percentage()\l# set_percentage()\l# on_percent_change()\l# get_update_timeout()\l# get_active_color()\l# get_inactive_color()\l}">
<polygon fill="white" stroke="black" points="65,-117 65,-273 181,-273 181,-117 65,-117"/>
<text text-anchor="middle" x="123" y="-261" font-family="Helvetica,sans-Serif" font-size="10.00">CairoSlider</text>
<polyline fill="none" stroke="black" points="65,-254 181,-254 "/>
<text text-anchor="middle" x="123" y="-242" font-family="Helvetica,sans-Serif" font-size="10.00"> </text>
<polyline fill="none" stroke="black" points="65,-235 181,-235 "/>
<text text-anchor="start" x="73" y="-223" font-family="Helvetica,sans-Serif" font-size="10.00">+ CairoSlider()</text>
<text text-anchor="start" x="73" y="-212" font-family="Helvetica,sans-Serif" font-size="10.00">+ ~CairoSlider()</text>
<text text-anchor="start" x="73" y="-201" font-family="Helvetica,sans-Serif" font-size="10.00"># on_draw()</text>
<text text-anchor="start" x="73" y="-190" font-family="Helvetica,sans-Serif" font-size="10.00"># get_border()</text>
<text text-anchor="start" x="73" y="-179" font-family="Helvetica,sans-Serif" font-size="10.00"># get_percentage()</text>
<text text-anchor="start" x="73" y="-168" font-family="Helvetica,sans-Serif" font-size="10.00"># set_percentage()</text>
<text text-anchor="start" x="73" y="-157" font-family="Helvetica,sans-Serif" font-size="10.00"># on_percent_change()</text>
<text text-anchor="start" x="73" y="-146" font-family="Helvetica,sans-Serif" font-size="10.00"># get_update_timeout()</text>
<text text-anchor="start" x="73" y="-135" font-family="Helvetica,sans-Serif" font-size="10.00"># get_active_color()</text>
<text text-anchor="start" x="73" y="-124" font-family="Helvetica,sans-Serif" font-size="10.00"># get_inactive_color()</text>
</a>
</g>
<!-- Node1&#45;&gt;Node2 -->
<g id="edge2" class="edge"><title>Node1&#45;&gt;Node2</title>
<path fill="none" stroke="midnightblue" d="M123,-300.128C123,-291.734 123,-282.545 123,-273.212"/>
<polygon fill="none" stroke="midnightblue" points="119.5,-300.284 123,-310.284 126.5,-300.284 119.5,-300.284"/>
</g>
<!-- Node3 -->
<g id="node5" class="node"><title>Node3</title>
<a xlink:href="classGManager_1_1Timeslide.html" target="_top" xlink:title="Manager for the Timeslide in the topbar.">
<polygon fill="white" stroke="black" points="0,-11.5 0,-68.5 110,-68.5 110,-11.5 0,-11.5"/>
<text text-anchor="middle" x="55" y="-56.5" font-family="Helvetica,sans-Serif" font-size="10.00">GManager::Timeslide</text>
<polyline fill="none" stroke="black" points="0,-49.5 110,-49.5 "/>
<text text-anchor="middle" x="55" y="-37.5" font-family="Helvetica,sans-Serif" font-size="10.00"> </text>
<polyline fill="none" stroke="black" points="0,-30.5 110,-30.5 "/>
<text text-anchor="start" x="8" y="-18.5" font-family="Helvetica,sans-Serif" font-size="10.00">+ Timeslide()</text>
</a>
</g>
<!-- Node2&#45;&gt;Node3 -->
<g id="edge4" class="edge"><title>Node2&#45;&gt;Node3</title>
<path fill="none" stroke="midnightblue" d="M84.4934,-107.36C78.273,-93.3642 72.2574,-79.8292 67.2995,-68.6739"/>
<polygon fill="none" stroke="midnightblue" points="81.3418,-108.887 88.6016,-116.604 87.7385,-106.044 81.3418,-108.887"/>
</g>
<!-- Node4 -->
<g id="node7" class="node"><title>Node4</title>
<a xlink:href="classGManager_1_1VolumeSlider.html" target="_top" xlink:title="Manages the VolumeSlider.">
<polygon fill="white" stroke="black" points="128.5,-0.5 128.5,-79.5 253.5,-79.5 253.5,-0.5 128.5,-0.5"/>
<text text-anchor="middle" x="191" y="-67.5" font-family="Helvetica,sans-Serif" font-size="10.00">GManager::VolumeSlider</text>
<polyline fill="none" stroke="black" points="128.5,-60.5 253.5,-60.5 "/>
<text text-anchor="middle" x="191" y="-48.5" font-family="Helvetica,sans-Serif" font-size="10.00"> </text>
<polyline fill="none" stroke="black" points="128.5,-41.5 253.5,-41.5 "/>
<text text-anchor="start" x="136.5" y="-29.5" font-family="Helvetica,sans-Serif" font-size="10.00">+ VolumeSlider()</text>
<text text-anchor="start" x="136.5" y="-18.5" font-family="Helvetica,sans-Serif" font-size="10.00"># on_draw()</text>
<text text-anchor="start" x="136.5" y="-7.5" font-family="Helvetica,sans-Serif" font-size="10.00"># on_percent_change()</text>
</a>
</g>
<!-- Node2&#45;&gt;Node4 -->
<g id="edge6" class="edge"><title>Node2&#45;&gt;Node4</title>
<path fill="none" stroke="midnightblue" d="M161.504,-107.367C165.764,-97.7812 169.928,-88.4114 173.723,-79.8742"/>
<polygon fill="none" stroke="midnightblue" points="158.262,-106.044 157.398,-116.604 164.658,-108.887 158.262,-106.044"/>
</g>
</g>
</svg>
