<?xml version="1.0" encoding="UTF-8" standalone="no"?>
<!DOCTYPE svg PUBLIC "-//W3C//DTD SVG 1.1//EN"
 "http://www.w3.org/Graphics/SVG/1.1/DTD/svg11.dtd">
<!-- Generated by graphviz version 2.28.0 (20120217.0315)
 -->
<!-- Title: G Pages: 1 -->
<svg width="194pt" height="194pt"
 viewBox="0.00 0.00 194.00 194.00" xmlns="http://www.w3.org/2000/svg" xmlns:xlink="http://www.w3.org/1999/xlink">
<g id="graph1" class="graph" transform="scale(1 1) rotate(0) translate(4 190)">
<title>G</title>
<polygon fill="white" stroke="white" points="-4,5 -4,-190 191,-190 191,5 -4,5"/>
<!-- Node1 -->
<g id="node1" class="node"><title>Node1</title>
<polygon fill="#bfbfbf" stroke="black" points="23.5,-1 23.5,-69 136.5,-69 136.5,-1 23.5,-1"/>
<text text-anchor="middle" x="80" y="-57" font-family="Helvetica,sans-Serif" font-size="10.00">Browser::TracklistMgr</text>
<polyline fill="none" stroke="black" points="23.5,-50 136.5,-50 "/>
<text text-anchor="middle" x="80" y="-38" font-family="Helvetica,sans-Serif" font-size="10.00"> </text>
<polyline fill="none" stroke="black" points="23.5,-31 136.5,-31 "/>
<text text-anchor="start" x="31.5" y="-19" font-family="Helvetica,sans-Serif" font-size="10.00">+ TracklistMgr()</text>
<text text-anchor="start" x="31.5" y="-8" font-family="Helvetica,sans-Serif" font-size="10.00">+ update()</text>
</g>
<!-- Node2 -->
<g id="node2" class="node"><title>Node2</title>
<a xlink:href="classGtk_1_1Expander.html" target="_top" xlink:title="{Expander\n||}">
<polygon fill="white" stroke="black" points="0,-117.5 0,-174.5 58,-174.5 58,-117.5 0,-117.5"/>
<text text-anchor="middle" x="29" y="-162.5" font-family="Helvetica,sans-Serif" font-size="10.00">Expander</text>
<polyline fill="none" stroke="black" points="0,-155.5 58,-155.5 "/>
<text text-anchor="middle" x="29" y="-143.5" font-family="Helvetica,sans-Serif" font-size="10.00"> </text>
<polyline fill="none" stroke="black" points="0,-136.5 58,-136.5 "/>
<text text-anchor="middle" x="29" y="-124.5" font-family="Helvetica,sans-Serif" font-size="10.00"> </text>
</a>
</g>
<!-- Node2&#45;&gt;Node1 -->
<g id="edge2" class="edge"><title>Node2&#45;&gt;Node1</title>
<path fill="none" stroke="midnightblue" d="M46.2182,-108.2C52.105,-95.6187 58.6523,-81.6254 64.4038,-69.333"/>
<polygon fill="none" stroke="midnightblue" points="42.9373,-106.954 41.8695,-117.495 49.2776,-109.92 42.9373,-106.954"/>
</g>
<!-- Node3 -->
<g id="node4" class="node"><title>Node3</title>
<a xlink:href="classGlyr_1_1UpdateInterface.html" target="_top" xlink:title="Very similar to AbstractClientUser, but doesnt take a Client instance.">
<polygon fill="white" stroke="black" points="76,-106.5 76,-185.5 186,-185.5 186,-106.5 76,-106.5"/>
<text text-anchor="middle" x="131" y="-173.5" font-family="Helvetica,sans-Serif" font-size="10.00">Glyr::UpdateInterface</text>
<polyline fill="none" stroke="black" points="76,-166.5 186,-166.5 "/>
<text text-anchor="middle" x="131" y="-154.5" font-family="Helvetica,sans-Serif" font-size="10.00"> </text>
<polyline fill="none" stroke="black" points="76,-147.5 186,-147.5 "/>
<text text-anchor="start" x="84" y="-135.5" font-family="Helvetica,sans-Serif" font-size="10.00">+ UpdateInterface()</text>
<text text-anchor="start" x="84" y="-124.5" font-family="Helvetica,sans-Serif" font-size="10.00">+ update()</text>
<text text-anchor="start" x="84" y="-113.5" font-family="Helvetica,sans-Serif" font-size="10.00">+ on_deliver()</text>
</a>
</g>
<!-- Node3&#45;&gt;Node1 -->
<g id="edge4" class="edge"><title>Node3&#45;&gt;Node1</title>
<path fill="none" stroke="midnightblue" d="M108.544,-97.0057C104.152,-87.6186 99.6375,-77.9703 95.5322,-69.1962"/>
<polygon fill="none" stroke="midnightblue" points="105.468,-98.6895 112.876,-106.264 111.808,-95.7229 105.468,-98.6895"/>
</g>
</g>
</svg>
