<?xml version="1.0" encoding="UTF-8" standalone="no"?>
<!DOCTYPE svg PUBLIC "-//W3C//DTD SVG 1.1//EN"
 "http://www.w3.org/Graphics/SVG/1.1/DTD/svg11.dtd">
<!-- Generated by graphviz version 2.28.0 (20120217.0315)
 -->
<!-- Title: G Pages: 1 -->
<svg width="194pt" height="216pt"
 viewBox="0.00 0.00 194.00 216.00" xmlns="http://www.w3.org/2000/svg" xmlns:xlink="http://www.w3.org/1999/xlink">
<g id="graph1" class="graph" transform="scale(1 1) rotate(0) translate(4 212)">
<title>G</title>
<polygon fill="white" stroke="white" points="-4,5 -4,-212 191,-212 191,5 -4,5"/>
<!-- Node1 -->
<g id="node1" class="node"><title>Node1</title>
<polygon fill="#bfbfbf" stroke="black" points="23,-1 23,-91 137,-91 137,-1 23,-1"/>
<text text-anchor="middle" x="80" y="-79" font-family="Helvetica,sans-Serif" font-size="10.00">Browser::CoverArtMgr</text>
<polyline fill="none" stroke="black" points="23,-72 137,-72 "/>
<text text-anchor="middle" x="80" y="-60" font-family="Helvetica,sans-Serif" font-size="10.00"> </text>
<polyline fill="none" stroke="black" points="23,-53 137,-53 "/>
<text text-anchor="start" x="31" y="-41" font-family="Helvetica,sans-Serif" font-size="10.00">+ CoverArtMgr()</text>
<text text-anchor="start" x="31" y="-30" font-family="Helvetica,sans-Serif" font-size="10.00">+ ~CoverArtMgr()</text>
<text text-anchor="start" x="31" y="-19" font-family="Helvetica,sans-Serif" font-size="10.00"># update()</text>
<text text-anchor="start" x="31" y="-8" font-family="Helvetica,sans-Serif" font-size="10.00"># on_deliver()</text>
</g>
<!-- Node2 -->
<g id="node2" class="node"><title>Node2</title>
<a xlink:href="classGtk_1_1Expander.html" target="_top" xlink:title="{Expander\n||}">
<polygon fill="white" stroke="black" points="0,-139.5 0,-196.5 58,-196.5 58,-139.5 0,-139.5"/>
<text text-anchor="middle" x="29" y="-184.5" font-family="Helvetica,sans-Serif" font-size="10.00">Expander</text>
<polyline fill="none" stroke="black" points="0,-177.5 58,-177.5 "/>
<text text-anchor="middle" x="29" y="-165.5" font-family="Helvetica,sans-Serif" font-size="10.00"> </text>
<polyline fill="none" stroke="black" points="0,-158.5 58,-158.5 "/>
<text text-anchor="middle" x="29" y="-146.5" font-family="Helvetica,sans-Serif" font-size="10.00"> </text>
</a>
</g>
<!-- Node2&#45;&gt;Node1 -->
<g id="edge2" class="edge"><title>Node2&#45;&gt;Node1</title>
<path fill="none" stroke="midnightblue" d="M44.7121,-130.03C49.9109,-117.798 55.7495,-104.06 61.1583,-91.3333"/>
<polygon fill="none" stroke="midnightblue" points="41.3907,-128.897 40.7004,-139.47 47.8331,-131.635 41.3907,-128.897"/>
</g>
<!-- Node3 -->
<g id="node4" class="node"><title>Node3</title>
<a xlink:href="classGlyr_1_1UpdateInterface.html" target="_top" xlink:title="Very similar to AbstractClientUser, but doesnt take a Client instance.">
<polygon fill="white" stroke="black" points="76,-128.5 76,-207.5 186,-207.5 186,-128.5 76,-128.5"/>
<text text-anchor="middle" x="131" y="-195.5" font-family="Helvetica,sans-Serif" font-size="10.00">Glyr::UpdateInterface</text>
<polyline fill="none" stroke="black" points="76,-188.5 186,-188.5 "/>
<text text-anchor="middle" x="131" y="-176.5" font-family="Helvetica,sans-Serif" font-size="10.00"> </text>
<polyline fill="none" stroke="black" points="76,-169.5 186,-169.5 "/>
<text text-anchor="start" x="84" y="-157.5" font-family="Helvetica,sans-Serif" font-size="10.00">+ UpdateInterface()</text>
<text text-anchor="start" x="84" y="-146.5" font-family="Helvetica,sans-Serif" font-size="10.00">+ update()</text>
<text text-anchor="start" x="84" y="-135.5" font-family="Helvetica,sans-Serif" font-size="10.00">+ on_deliver()</text>
</a>
</g>
<!-- Node3&#45;&gt;Node1 -->
<g id="edge4" class="edge"><title>Node3&#45;&gt;Node1</title>
<path fill="none" stroke="midnightblue" d="M110.617,-119.041C106.74,-109.918 102.698,-100.408 98.8705,-91.4012"/>
<polygon fill="none" stroke="midnightblue" points="107.45,-120.536 114.583,-128.371 113.892,-117.798 107.45,-120.536"/>
</g>
</g>
</svg>
