<?xml version="1.0" encoding="UTF-8" standalone="no"?>
<!DOCTYPE svg PUBLIC "-//W3C//DTD SVG 1.1//EN"
 "http://www.w3.org/Graphics/SVG/1.1/DTD/svg11.dtd">
<!-- Generated by graphviz version 2.28.0 (20111204.1018)
 -->
<!-- Title: G Pages: 1 -->
<svg width="662pt" height="282pt"
 viewBox="0.00 0.00 662.00 282.00" xmlns="http://www.w3.org/2000/svg" xmlns:xlink="http://www.w3.org/1999/xlink">
<g id="graph1" class="graph" transform="scale(1 1) rotate(0) translate(4 278)">
<title>G</title>
<polygon fill="white" stroke="white" points="-4,5 -4,-278 659,-278 659,5 -4,5"/>
<!-- Node1 -->
<g id="node1" class="node"><title>Node1</title>
<polygon fill="#bfbfbf" stroke="black" points="214.5,-216.5 214.5,-273.5 273.5,-273.5 273.5,-216.5 214.5,-216.5"/>
<text text-anchor="middle" x="244" y="-261.5" font-family="Helvetica,sans-Serif" font-size="10.00">TestSuite</text>
<polyline fill="none" stroke="black" points="214.5,-254.5 273.5,-254.5 "/>
<text text-anchor="middle" x="244" y="-242.5" font-family="Helvetica,sans-Serif" font-size="10.00"> </text>
<polyline fill="none" stroke="black" points="214.5,-235.5 273.5,-235.5 "/>
<text text-anchor="middle" x="244" y="-223.5" font-family="Helvetica,sans-Serif" font-size="10.00"> </text>
</g>
<!-- Node2 -->
<g id="node3" class="node"><title>Node2</title>
<a xlink:href="classLogTestSuite.html" target="_top" xlink:title="{LogTestSuite\n||+ testLogWriter()\l}">
<polygon fill="white" stroke="black" points="0,-61.5 0,-118.5 90,-118.5 90,-61.5 0,-61.5"/>
<text text-anchor="middle" x="45" y="-106.5" font-family="Helvetica,sans-Serif" font-size="10.00">LogTestSuite</text>
<polyline fill="none" stroke="black" points="0,-99.5 90,-99.5 "/>
<text text-anchor="middle" x="45" y="-87.5" font-family="Helvetica,sans-Serif" font-size="10.00"> </text>
<polyline fill="none" stroke="black" points="0,-80.5 90,-80.5 "/>
<text text-anchor="start" x="8" y="-68.5" font-family="Helvetica,sans-Serif" font-size="10.00">+ testLogWriter()</text>
</a>
</g>
<!-- Node1&#45;&gt;Node2 -->
<g id="edge2" class="edge"><title>Node1&#45;&gt;Node2</title>
<path fill="none" stroke="midnightblue" d="M204.684,-233.783C173.275,-224.059 129.599,-206.867 99,-180 79.8509,-163.186 65.4143,-137.895 56.3082,-118.565"/>
<polygon fill="none" stroke="midnightblue" points="203.835,-237.182 214.418,-236.68 205.832,-230.473 203.835,-237.182"/>
</g>
<!-- Node3 -->
<g id="node5" class="node"><title>Node3</title>
<a xlink:href="classMPDTestSuite.html" target="_top" xlink:title="{MPDTestSuite\n||+ setUp()\l+ tearDown()\l+ connectionChange()\l+ clientUpdate()\l+ testConnect()\l+ testDisconnect()\l+ testSignalClientUpdate()\l}">
<polygon fill="white" stroke="black" points="108,-28.5 108,-151.5 240,-151.5 240,-28.5 108,-28.5"/>
<text text-anchor="middle" x="174" y="-139.5" font-family="Helvetica,sans-Serif" font-size="10.00">MPDTestSuite</text>
<polyline fill="none" stroke="black" points="108,-132.5 240,-132.5 "/>
<text text-anchor="middle" x="174" y="-120.5" font-family="Helvetica,sans-Serif" font-size="10.00"> </text>
<polyline fill="none" stroke="black" points="108,-113.5 240,-113.5 "/>
<text text-anchor="start" x="116" y="-101.5" font-family="Helvetica,sans-Serif" font-size="10.00">+ setUp()</text>
<text text-anchor="start" x="116" y="-90.5" font-family="Helvetica,sans-Serif" font-size="10.00">+ tearDown()</text>
<text text-anchor="start" x="116" y="-79.5" font-family="Helvetica,sans-Serif" font-size="10.00">+ connectionChange()</text>
<text text-anchor="start" x="116" y="-68.5" font-family="Helvetica,sans-Serif" font-size="10.00">+ clientUpdate()</text>
<text text-anchor="start" x="116" y="-57.5" font-family="Helvetica,sans-Serif" font-size="10.00">+ testConnect()</text>
<text text-anchor="start" x="116" y="-46.5" font-family="Helvetica,sans-Serif" font-size="10.00">+ testDisconnect()</text>
<text text-anchor="start" x="116" y="-35.5" font-family="Helvetica,sans-Serif" font-size="10.00">+ testSignalClientUpdate()</text>
</a>
</g>
<!-- Node1&#45;&gt;Node3 -->
<g id="edge4" class="edge"><title>Node1&#45;&gt;Node3</title>
<path fill="none" stroke="midnightblue" d="M227.059,-206.971C219.482,-190.411 210.35,-170.452 201.815,-151.795"/>
<polygon fill="none" stroke="midnightblue" points="223.98,-208.656 231.324,-216.293 230.346,-205.743 223.98,-208.656"/>
</g>
<!-- Node4 -->
<g id="node7" class="node"><title>Node4</title>
<a xlink:href="classNotifyTestSuite.html" target="_top" xlink:title="{NotifyTestSuite\n||+ testsend_big()\l+ testsend_full()\l+ testset_stock_icon()\l+ testset_next_extra()\l}">
<polygon fill="white" stroke="black" points="258,-45 258,-135 372,-135 372,-45 258,-45"/>
<text text-anchor="middle" x="315" y="-123" font-family="Helvetica,sans-Serif" font-size="10.00">NotifyTestSuite</text>
<polyline fill="none" stroke="black" points="258,-116 372,-116 "/>
<text text-anchor="middle" x="315" y="-104" font-family="Helvetica,sans-Serif" font-size="10.00"> </text>
<polyline fill="none" stroke="black" points="258,-97 372,-97 "/>
<text text-anchor="start" x="266" y="-85" font-family="Helvetica,sans-Serif" font-size="10.00">+ testsend_big()</text>
<text text-anchor="start" x="266" y="-74" font-family="Helvetica,sans-Serif" font-size="10.00">+ testsend_full()</text>
<text text-anchor="start" x="266" y="-63" font-family="Helvetica,sans-Serif" font-size="10.00">+ testset_stock_icon()</text>
<text text-anchor="start" x="266" y="-52" font-family="Helvetica,sans-Serif" font-size="10.00">+ testset_next_extra()</text>
</a>
</g>
<!-- Node1&#45;&gt;Node4 -->
<g id="edge6" class="edge"><title>Node1&#45;&gt;Node4</title>
<path fill="none" stroke="midnightblue" d="M261.133,-207.081C271.2,-185.385 283.989,-157.828 294.578,-135.008"/>
<polygon fill="none" stroke="midnightblue" points="257.892,-205.749 256.858,-216.293 264.242,-208.695 257.892,-205.749"/>
</g>
<!-- Node5 -->
<g id="node9" class="node"><title>Node5</title>
<a xlink:href="classUtilsTestSuite.html" target="_top" xlink:title="{UtilsTestSuite\n||+ testseconds_to_duration_1_year()\l+ testseconds_to_duration_check_if_always_the_same()\l+ testseconds_to_duration_1_second()\l+ testseconds_to_duration_0_seconds()\l+ testseconds_to_duration_1_minutes()\l+ testseconds_to_duration_2_minutes()\l+ testseconds_to_duration_1_hour()\l+ testseconds_to_duration_2_hours()\l+ testseconds_to_duration_1_day()\l+ testseconds_to_duration_2_days()\l+ testseconds_to_duration_2_years()\l+ testseconds_to_timestamp_date1()\l}">
<polygon fill="white" stroke="black" points="390,-1 390,-179 654,-179 654,-1 390,-1"/>
<text text-anchor="middle" x="522" y="-167" font-family="Helvetica,sans-Serif" font-size="10.00">UtilsTestSuite</text>
<polyline fill="none" stroke="black" points="390,-160 654,-160 "/>
<text text-anchor="middle" x="522" y="-148" font-family="Helvetica,sans-Serif" font-size="10.00"> </text>
<polyline fill="none" stroke="black" points="390,-141 654,-141 "/>
<text text-anchor="start" x="398" y="-129" font-family="Helvetica,sans-Serif" font-size="10.00">+ testseconds_to_duration_1_year()</text>
<text text-anchor="start" x="398" y="-118" font-family="Helvetica,sans-Serif" font-size="10.00">+ testseconds_to_duration_check_if_always_the_same()</text>
<text text-anchor="start" x="398" y="-107" font-family="Helvetica,sans-Serif" font-size="10.00">+ testseconds_to_duration_1_second()</text>
<text text-anchor="start" x="398" y="-96" font-family="Helvetica,sans-Serif" font-size="10.00">+ testseconds_to_duration_0_seconds()</text>
<text text-anchor="start" x="398" y="-85" font-family="Helvetica,sans-Serif" font-size="10.00">+ testseconds_to_duration_1_minutes()</text>
<text text-anchor="start" x="398" y="-74" font-family="Helvetica,sans-Serif" font-size="10.00">+ testseconds_to_duration_2_minutes()</text>
<text text-anchor="start" x="398" y="-63" font-family="Helvetica,sans-Serif" font-size="10.00">+ testseconds_to_duration_1_hour()</text>
<text text-anchor="start" x="398" y="-52" font-family="Helvetica,sans-Serif" font-size="10.00">+ testseconds_to_duration_2_hours()</text>
<text text-anchor="start" x="398" y="-41" font-family="Helvetica,sans-Serif" font-size="10.00">+ testseconds_to_duration_1_day()</text>
<text text-anchor="start" x="398" y="-30" font-family="Helvetica,sans-Serif" font-size="10.00">+ testseconds_to_duration_2_days()</text>
<text text-anchor="start" x="398" y="-19" font-family="Helvetica,sans-Serif" font-size="10.00">+ testseconds_to_duration_2_years()</text>
<text text-anchor="start" x="398" y="-8" font-family="Helvetica,sans-Serif" font-size="10.00">+ testseconds_to_timestamp_date1()</text>
</a>
</g>
<!-- Node1&#45;&gt;Node5 -->
<g id="edge8" class="edge"><title>Node1&#45;&gt;Node5</title>
<path fill="none" stroke="midnightblue" d="M283.032,-227.34C310.801,-215.109 348.748,-197.621 381,-180 383.921,-178.404 386.865,-176.772 389.823,-175.11"/>
<polygon fill="none" stroke="midnightblue" points="281.42,-224.224 273.66,-231.438 284.225,-230.638 281.42,-224.224"/>
</g>
</g>
</svg>
