<?xml version="1.0" encoding="UTF-8" standalone="no"?>
<!DOCTYPE svg PUBLIC "-//W3C//DTD SVG 1.1//EN"
 "http://www.w3.org/Graphics/SVG/1.1/DTD/svg11.dtd">
<!-- Generated by graphviz version 2.28.0 (20120217.0315)
 -->
<!-- Title: G Pages: 1 -->
<svg width="118pt" height="216pt"
 viewBox="0.00 0.00 118.00 216.00" xmlns="http://www.w3.org/2000/svg" xmlns:xlink="http://www.w3.org/1999/xlink">
<g id="graph1" class="graph" transform="scale(1 1) rotate(0) translate(4 212)">
<title>G</title>
<polygon fill="white" stroke="white" points="-4,5 -4,-212 115,-212 115,5 -4,5"/>
<!-- Node1 -->
<g id="node1" class="node"><title>Node1</title>
<polygon fill="#bfbfbf" stroke="black" points="-0.5,-1 -0.5,-113 110.5,-113 110.5,-1 -0.5,-1"/>
<text text-anchor="middle" x="55" y="-101" font-family="Helvetica,sans-Serif" font-size="10.00">Browser::EventImage</text>
<polyline fill="none" stroke="black" points="-0.5,-94 110.5,-94 "/>
<text text-anchor="middle" x="55" y="-82" font-family="Helvetica,sans-Serif" font-size="10.00"> </text>
<polyline fill="none" stroke="black" points="-0.5,-75 110.5,-75 "/>
<text text-anchor="start" x="7.5" y="-63" font-family="Helvetica,sans-Serif" font-size="10.00">+ EventImage()</text>
<text text-anchor="start" x="7.5" y="-52" font-family="Helvetica,sans-Serif" font-size="10.00">+ EventImage()</text>
<text text-anchor="start" x="7.5" y="-41" font-family="Helvetica,sans-Serif" font-size="10.00">+ ~EventImage()</text>
<text text-anchor="start" x="7.5" y="-30" font-family="Helvetica,sans-Serif" font-size="10.00">+ set()</text>
<text text-anchor="start" x="7.5" y="-19" font-family="Helvetica,sans-Serif" font-size="10.00">+ set()</text>
<text text-anchor="start" x="7.5" y="-8" font-family="Helvetica,sans-Serif" font-size="10.00">+ set_default()</text>
</g>
<!-- Node2 -->
<g id="node2" class="node"><title>Node2</title>
<a xlink:href="classGtk_1_1EventBox.html" target="_top" xlink:title="{Gtk::EventBox\n||}">
<polygon fill="white" stroke="black" points="14.5,-150.5 14.5,-207.5 95.5,-207.5 95.5,-150.5 14.5,-150.5"/>
<text text-anchor="middle" x="55" y="-195.5" font-family="Helvetica,sans-Serif" font-size="10.00">Gtk::EventBox</text>
<polyline fill="none" stroke="black" points="14.5,-188.5 95.5,-188.5 "/>
<text text-anchor="middle" x="55" y="-176.5" font-family="Helvetica,sans-Serif" font-size="10.00"> </text>
<polyline fill="none" stroke="black" points="14.5,-169.5 95.5,-169.5 "/>
<text text-anchor="middle" x="55" y="-157.5" font-family="Helvetica,sans-Serif" font-size="10.00"> </text>
</a>
</g>
<!-- Node2&#45;&gt;Node1 -->
<g id="edge2" class="edge"><title>Node2&#45;&gt;Node1</title>
<path fill="none" stroke="midnightblue" d="M55,-140.398C55,-131.802 55,-122.49 55,-113.324"/>
<polygon fill="none" stroke="midnightblue" points="51.5001,-140.47 55,-150.47 58.5001,-140.47 51.5001,-140.47"/>
</g>
</g>
</svg>
