<?xml version="1.0" encoding="UTF-8" standalone="no"?>
<!DOCTYPE svg PUBLIC "-//W3C//DTD SVG 1.1//EN"
 "http://www.w3.org/Graphics/SVG/1.1/DTD/svg11.dtd">
<!-- Generated by graphviz version 2.28.0 (20120217.0315)
 -->
<!-- Title: G Pages: 1 -->
<svg width="509pt" height="1242pt"
 viewBox="0.00 0.00 509.00 1242.00" xmlns="http://www.w3.org/2000/svg" xmlns:xlink="http://www.w3.org/1999/xlink">
<g id="graph1" class="graph" transform="scale(1 1) rotate(0) translate(4 1238)">
<title>G</title>
<polygon fill="white" stroke="white" points="-4,5 -4,-1238 506,-1238 506,5 -4,5"/>
<!-- Node1 -->
<g id="node1" class="node"><title>Node1</title>
<polygon fill="#bfbfbf" stroke="black" points="118,-0.5 118,-79.5 246,-79.5 246,-0.5 118,-0.5"/>
<text text-anchor="middle" x="182" y="-67.5" font-family="Helvetica,sans-Serif" font-size="10.00">Browser::PlaylistManager</text>
<polyline fill="none" stroke="black" points="118,-60.5 246,-60.5 "/>
<text text-anchor="middle" x="182" y="-48.5" font-family="Helvetica,sans-Serif" font-size="10.00"> </text>
<polyline fill="none" stroke="black" points="118,-41.5 246,-41.5 "/>
<text text-anchor="start" x="126" y="-29.5" font-family="Helvetica,sans-Serif" font-size="10.00">+ PlaylistManager()</text>
<text text-anchor="start" x="126" y="-18.5" font-family="Helvetica,sans-Serif" font-size="10.00">+ ~PlaylistManager()</text>
<text text-anchor="start" x="126" y="-7.5" font-family="Helvetica,sans-Serif" font-size="10.00">+ get_container()</text>
</g>
<!-- Node2 -->
<g id="node2" class="node"><title>Node2</title>
<a xlink:href="classGtk_1_1Frame.html" target="_top" xlink:title="{Frame\n||}">
<polygon fill="white" stroke="black" points="0,-157.5 0,-214.5 44,-214.5 44,-157.5 0,-157.5"/>
<text text-anchor="middle" x="22" y="-202.5" font-family="Helvetica,sans-Serif" font-size="10.00">Frame</text>
<polyline fill="none" stroke="black" points="0,-195.5 44,-195.5 "/>
<text text-anchor="middle" x="22" y="-183.5" font-family="Helvetica,sans-Serif" font-size="10.00"> </text>
<polyline fill="none" stroke="black" points="0,-176.5 44,-176.5 "/>
<text text-anchor="middle" x="22" y="-164.5" font-family="Helvetica,sans-Serif" font-size="10.00"> </text>
</a>
</g>
<!-- Node2&#45;&gt;Node1 -->
<g id="edge2" class="edge"><title>Node2&#45;&gt;Node1</title>
<path fill="none" stroke="midnightblue" d="M34.41,-147.953C39.1123,-137.481 45.2524,-126.605 53,-118 70.888,-98.1321 95.132,-81.8299 117.775,-69.4232"/>
<polygon fill="none" stroke="midnightblue" points="31.0979,-146.803 30.491,-157.38 37.5616,-149.49 31.0979,-146.803"/>
</g>
<!-- Node3 -->
<g id="node4" class="node"><title>Node3</title>
<a xlink:href="classAbstractBrowser.html" target="_top" xlink:title="Inherit from this class in order to be able to add the browser to the browserlist.">
<polygon fill="white" stroke="black" points="62,-119 62,-253 172,-253 172,-119 62,-119"/>
<text text-anchor="middle" x="117" y="-241" font-family="Helvetica,sans-Serif" font-size="10.00">AbstractBrowser</text>
<polyline fill="none" stroke="black" points="62,-234 172,-234 "/>
<text text-anchor="middle" x="117" y="-222" font-family="Helvetica,sans-Serif" font-size="10.00"> </text>
<polyline fill="none" stroke="black" points="62,-215 172,-215 "/>
<text text-anchor="start" x="70" y="-203" font-family="Helvetica,sans-Serif" font-size="10.00">+ AbstractBrowser()</text>
<text text-anchor="start" x="70" y="-192" font-family="Helvetica,sans-Serif" font-size="10.00">+ get_container()</text>
<text text-anchor="start" x="70" y="-181" font-family="Helvetica,sans-Serif" font-size="10.00">+ get_name()</text>
<text text-anchor="start" x="70" y="-170" font-family="Helvetica,sans-Serif" font-size="10.00">+ get_icon_stock_id()</text>
<text text-anchor="start" x="70" y="-159" font-family="Helvetica,sans-Serif" font-size="10.00">+ is_visible()</text>
<text text-anchor="start" x="70" y="-148" font-family="Helvetica,sans-Serif" font-size="10.00">+ needs_connection()</text>
<text text-anchor="start" x="70" y="-137" font-family="Helvetica,sans-Serif" font-size="10.00">+ is_active()</text>
<text text-anchor="start" x="70" y="-126" font-family="Helvetica,sans-Serif" font-size="10.00">+ on_getting_active()</text>
</a>
</g>
<!-- Node3&#45;&gt;Node1 -->
<g id="edge4" class="edge"><title>Node3&#45;&gt;Node1</title>
<path fill="none" stroke="midnightblue" d="M150.974,-109.734C155.682,-99.3044 160.348,-88.9667 164.577,-79.5982"/>
<polygon fill="none" stroke="midnightblue" points="147.761,-108.346 146.837,-118.9 154.141,-111.226 147.761,-108.346"/>
</g>
<!-- Node4 -->
<g id="node6" class="node"><title>Node4</title>
<a xlink:href="classMPD_1_1AbstractItemlist.html" target="_top" xlink:title="Inhertit from this class to use MPD::Client&#39;s fill_* methods.">
<polygon fill="white" stroke="black" points="190,-152 190,-220 304,-220 304,-152 190,-152"/>
<text text-anchor="middle" x="247" y="-208" font-family="Helvetica,sans-Serif" font-size="10.00">MPD::AbstractItemlist</text>
<polyline fill="none" stroke="black" points="190,-201 304,-201 "/>
<text text-anchor="middle" x="247" y="-189" font-family="Helvetica,sans-Serif" font-size="10.00"> </text>
<polyline fill="none" stroke="black" points="190,-182 304,-182 "/>
<text text-anchor="start" x="198" y="-170" font-family="Helvetica,sans-Serif" font-size="10.00">+ add_item()</text>
<text text-anchor="start" x="198" y="-159" font-family="Helvetica,sans-Serif" font-size="10.00">+ ~AbstractItemlist()</text>
</a>
</g>
<!-- Node4&#45;&gt;Node1 -->
<g id="edge6" class="edge"><title>Node4&#45;&gt;Node1</title>
<path fill="none" stroke="midnightblue" d="M227.952,-142.802C218.954,-122.867 208.284,-99.2301 199.493,-79.7529"/>
<polygon fill="none" stroke="midnightblue" points="224.783,-144.289 232.088,-151.963 231.164,-141.409 224.783,-144.289"/>
</g>
<!-- Node5 -->
<g id="node8" class="node"><title>Node5</title>
<a xlink:href="classMPD_1_1AbstractClientUser.html" target="_top" xlink:title="{MPD::AbstractClientUser\n||+ AbstractClientUser()\l# on_client_update()\l# on_connection_change()\l}">
<polygon fill="white" stroke="black" points="322.5,-146.5 322.5,-225.5 453.5,-225.5 453.5,-146.5 322.5,-146.5"/>
<text text-anchor="middle" x="388" y="-213.5" font-family="Helvetica,sans-Serif" font-size="10.00">MPD::AbstractClientUser</text>
<polyline fill="none" stroke="black" points="322.5,-206.5 453.5,-206.5 "/>
<text text-anchor="middle" x="388" y="-194.5" font-family="Helvetica,sans-Serif" font-size="10.00"> </text>
<polyline fill="none" stroke="black" points="322.5,-187.5 453.5,-187.5 "/>
<text text-anchor="start" x="330.5" y="-175.5" font-family="Helvetica,sans-Serif" font-size="10.00">+ AbstractClientUser()</text>
<text text-anchor="start" x="330.5" y="-164.5" font-family="Helvetica,sans-Serif" font-size="10.00"># on_client_update()</text>
<text text-anchor="start" x="330.5" y="-153.5" font-family="Helvetica,sans-Serif" font-size="10.00"># on_connection_change()</text>
</a>
</g>
<!-- Node5&#45;&gt;Node1 -->
<g id="edge8" class="edge"><title>Node5&#45;&gt;Node1</title>
<path fill="none" stroke="midnightblue" d="M340.032,-139.651C331.285,-132.112 322.055,-124.606 313,-118 292.114,-102.763 268.021,-87.9083 246.238,-75.3755"/>
<polygon fill="none" stroke="midnightblue" points="337.751,-142.305 347.579,-146.263 342.364,-137.04 337.751,-142.305"/>
</g>
<!-- Node6 -->
<g id="node10" class="node"><title>Node6</title>
<a xlink:href="classMPD_1_1Client.html" target="_top" xlink:title="The client implements concrete commands of the MPD Protocol.">
<polygon fill="white" stroke="black" points="315,-303 315,-767 461,-767 461,-303 315,-303"/>
<text text-anchor="middle" x="388" y="-755" font-family="Helvetica,sans-Serif" font-size="10.00">MPD::Client</text>
<polyline fill="none" stroke="black" points="315,-748 461,-748 "/>
<text text-anchor="middle" x="388" y="-736" font-family="Helvetica,sans-Serif" font-size="10.00"> </text>
<polyline fill="none" stroke="black" points="315,-729 461,-729 "/>
<text text-anchor="start" x="323" y="-717" font-family="Helvetica,sans-Serif" font-size="10.00">+ Client()</text>
<text text-anchor="start" x="323" y="-706" font-family="Helvetica,sans-Serif" font-size="10.00">+ ~Client()</text>
<text text-anchor="start" x="323" y="-695" font-family="Helvetica,sans-Serif" font-size="10.00">+ connect()</text>
<text text-anchor="start" x="323" y="-684" font-family="Helvetica,sans-Serif" font-size="10.00">+ disconnect()</text>
<text text-anchor="start" x="323" y="-673" font-family="Helvetica,sans-Serif" font-size="10.00">+ playback_next()</text>
<text text-anchor="start" x="323" y="-662" font-family="Helvetica,sans-Serif" font-size="10.00">+ playback_prev()</text>
<text text-anchor="start" x="323" y="-651" font-family="Helvetica,sans-Serif" font-size="10.00">+ playback_stop()</text>
<text text-anchor="start" x="323" y="-640" font-family="Helvetica,sans-Serif" font-size="10.00">+ playback_play()</text>
<text text-anchor="start" x="323" y="-629" font-family="Helvetica,sans-Serif" font-size="10.00">+ playback_pause()</text>
<text text-anchor="start" x="323" y="-618" font-family="Helvetica,sans-Serif" font-size="10.00">+ playback_seek()</text>
<text text-anchor="start" x="323" y="-607" font-family="Helvetica,sans-Serif" font-size="10.00">and 5 more...+ playlist_save()</text>
<text text-anchor="start" x="323" y="-596" font-family="Helvetica,sans-Serif" font-size="10.00">+ queue_add()</text>
<text text-anchor="start" x="323" y="-585" font-family="Helvetica,sans-Serif" font-size="10.00">+ queue_clear()</text>
<text text-anchor="start" x="323" y="-574" font-family="Helvetica,sans-Serif" font-size="10.00">+ queue_delete()</text>
<text text-anchor="start" x="323" y="-563" font-family="Helvetica,sans-Serif" font-size="10.00">+ database_update()</text>
<text text-anchor="start" x="323" y="-552" font-family="Helvetica,sans-Serif" font-size="10.00">+ database_rescan()</text>
<text text-anchor="start" x="323" y="-541" font-family="Helvetica,sans-Serif" font-size="10.00">+ set_volume()</text>
<text text-anchor="start" x="323" y="-530" font-family="Helvetica,sans-Serif" font-size="10.00">+ fill_queue()</text>
<text text-anchor="start" x="323" y="-519" font-family="Helvetica,sans-Serif" font-size="10.00">+ fill_queue_changes()</text>
<text text-anchor="start" x="323" y="-508" font-family="Helvetica,sans-Serif" font-size="10.00">+ fill_playlists()</text>
<text text-anchor="start" x="323" y="-497" font-family="Helvetica,sans-Serif" font-size="10.00">+ fill_outputs()</text>
<text text-anchor="start" x="323" y="-486" font-family="Helvetica,sans-Serif" font-size="10.00">+ fill_filelist()</text>
<text text-anchor="start" x="323" y="-475" font-family="Helvetica,sans-Serif" font-size="10.00">+ send_command()</text>
<text text-anchor="start" x="323" y="-464" font-family="Helvetica,sans-Serif" font-size="10.00">+ ping()</text>
<text text-anchor="start" x="323" y="-453" font-family="Helvetica,sans-Serif" font-size="10.00">* playlist_save()</text>
<text text-anchor="start" x="323" y="-442" font-family="Helvetica,sans-Serif" font-size="10.00">* queue_add()</text>
<text text-anchor="start" x="323" y="-431" font-family="Helvetica,sans-Serif" font-size="10.00">* queue_clear()</text>
<text text-anchor="start" x="323" y="-420" font-family="Helvetica,sans-Serif" font-size="10.00">* queue_delete()</text>
<text text-anchor="start" x="323" y="-409" font-family="Helvetica,sans-Serif" font-size="10.00">* database_update()</text>
<text text-anchor="start" x="323" y="-398" font-family="Helvetica,sans-Serif" font-size="10.00">* database_rescan()</text>
<text text-anchor="start" x="323" y="-387" font-family="Helvetica,sans-Serif" font-size="10.00">* set_volume()</text>
<text text-anchor="start" x="323" y="-376" font-family="Helvetica,sans-Serif" font-size="10.00">* fill_queue()</text>
<text text-anchor="start" x="323" y="-365" font-family="Helvetica,sans-Serif" font-size="10.00">* fill_queue_changes()</text>
<text text-anchor="start" x="323" y="-354" font-family="Helvetica,sans-Serif" font-size="10.00">* fill_playlists()</text>
<text text-anchor="start" x="323" y="-343" font-family="Helvetica,sans-Serif" font-size="10.00">* fill_outputs()</text>
<text text-anchor="start" x="323" y="-332" font-family="Helvetica,sans-Serif" font-size="10.00">* fill_filelist()</text>
<text text-anchor="start" x="323" y="-321" font-family="Helvetica,sans-Serif" font-size="10.00">* send_command()</text>
<text text-anchor="start" x="323" y="-310" font-family="Helvetica,sans-Serif" font-size="10.00">* ping()</text>
</a>
</g>
<!-- Node6&#45;&gt;Node5 -->
<g id="edge10" class="edge"><title>Node6&#45;&gt;Node5</title>
<path fill="none" stroke="#404040" d="M388,-302.546C388,-278.607 388,-256.33 388,-237.853"/>
<polygon fill="none" stroke="#404040" points="388,-237.693 384,-231.693 388,-225.693 392,-231.693 388,-237.693"/>
<text text-anchor="middle" x="412" y="-275.5" font-family="Helvetica,sans-Serif" font-size="10.00"> mp_Client</text>
</g>
<!-- Node7 -->
<g id="node12" class="node"><title>Node7</title>
<a xlink:href="classMPD_1_1BaseClient.html" target="_top" xlink:title="The Base to MPD::Client.">
<polygon fill="white" stroke="black" points="193,-806.5 193,-1017.5 339,-1017.5 339,-806.5 193,-806.5"/>
<text text-anchor="middle" x="266" y="-1005.5" font-family="Helvetica,sans-Serif" font-size="10.00">MPD::BaseClient</text>
<polyline fill="none" stroke="black" points="193,-998.5 339,-998.5 "/>
<text text-anchor="middle" x="266" y="-986.5" font-family="Helvetica,sans-Serif" font-size="10.00"> </text>
<polyline fill="none" stroke="black" points="193,-979.5 339,-979.5 "/>
<text text-anchor="start" x="201" y="-967.5" font-family="Helvetica,sans-Serif" font-size="10.00">+ go_idle()</text>
<text text-anchor="start" x="201" y="-956.5" font-family="Helvetica,sans-Serif" font-size="10.00">+ go_busy()</text>
<text text-anchor="start" x="201" y="-945.5" font-family="Helvetica,sans-Serif" font-size="10.00">+ get_connection()</text>
<text text-anchor="start" x="201" y="-934.5" font-family="Helvetica,sans-Serif" font-size="10.00">+ is_connected()</text>
<text text-anchor="start" x="201" y="-923.5" font-family="Helvetica,sans-Serif" font-size="10.00">+ begin()</text>
<text text-anchor="start" x="201" y="-912.5" font-family="Helvetica,sans-Serif" font-size="10.00">+ commit()</text>
<text text-anchor="start" x="201" y="-901.5" font-family="Helvetica,sans-Serif" font-size="10.00">+ get_status()</text>
<text text-anchor="start" x="201" y="-890.5" font-family="Helvetica,sans-Serif" font-size="10.00">+ signal_client_update()</text>
<text text-anchor="start" x="201" y="-879.5" font-family="Helvetica,sans-Serif" font-size="10.00">+ signal_connection_change()</text>
<text text-anchor="start" x="201" y="-868.5" font-family="Helvetica,sans-Serif" font-size="10.00">+ force_update()</text>
<text text-anchor="start" x="201" y="-857.5" font-family="Helvetica,sans-Serif" font-size="10.00">+ create_db_songs_query()</text>
<text text-anchor="start" x="201" y="-846.5" font-family="Helvetica,sans-Serif" font-size="10.00">+ create_db_tag_query()</text>
<text text-anchor="start" x="201" y="-835.5" font-family="Helvetica,sans-Serif" font-size="10.00"># BaseClient()</text>
<text text-anchor="start" x="201" y="-824.5" font-family="Helvetica,sans-Serif" font-size="10.00"># __connect()</text>
<text text-anchor="start" x="201" y="-813.5" font-family="Helvetica,sans-Serif" font-size="10.00"># __disconnect()</text>
</a>
</g>
<!-- Node7&#45;&gt;Node6 -->
<g id="edge12" class="edge"><title>Node7&#45;&gt;Node6</title>
<path fill="none" stroke="midnightblue" d="M303.282,-796.402C307.058,-784.796 310.978,-772.749 314.969,-760.481"/>
<polygon fill="none" stroke="midnightblue" points="299.912,-795.451 300.146,-806.043 306.568,-797.616 299.912,-795.451"/>
</g>
<!-- Node8 -->
<g id="node14" class="node"><title>Node8</title>
<a xlink:href="classMPD_1_1Listener.html" target="_top" xlink:title="Listener for Server events, Freya&#39;s actual core.">
<polygon fill="white" stroke="black" points="142,-1088.5 142,-1211.5 230,-1211.5 230,-1088.5 142,-1088.5"/>
<text text-anchor="middle" x="186" y="-1199.5" font-family="Helvetica,sans-Serif" font-size="10.00">MPD::Listener</text>
<polyline fill="none" stroke="black" points="142,-1192.5 230,-1192.5 "/>
<text text-anchor="middle" x="186" y="-1180.5" font-family="Helvetica,sans-Serif" font-size="10.00"> </text>
<polyline fill="none" stroke="black" points="142,-1173.5 230,-1173.5 "/>
<text text-anchor="start" x="150" y="-1161.5" font-family="Helvetica,sans-Serif" font-size="10.00">+ Listener()</text>
<text text-anchor="start" x="150" y="-1150.5" font-family="Helvetica,sans-Serif" font-size="10.00">+ ~Listener()</text>
<text text-anchor="start" x="150" y="-1139.5" font-family="Helvetica,sans-Serif" font-size="10.00">+ enter()</text>
<text text-anchor="start" x="150" y="-1128.5" font-family="Helvetica,sans-Serif" font-size="10.00">+ leave()</text>
<text text-anchor="start" x="150" y="-1117.5" font-family="Helvetica,sans-Serif" font-size="10.00">+ is_idling()</text>
<text text-anchor="start" x="150" y="-1106.5" font-family="Helvetica,sans-Serif" font-size="10.00">+ get_data()</text>
<text text-anchor="start" x="150" y="-1095.5" font-family="Helvetica,sans-Serif" font-size="10.00">+ force_update()</text>
</a>
</g>
<!-- Node8&#45;&gt;Node7 -->
<g id="edge14" class="edge"><title>Node8&#45;&gt;Node7</title>
<path fill="none" stroke="#404040" d="M192.833,-1088.39C195.669,-1071.21 199.601,-1052.65 205,-1036 205.73,-1033.75 206.496,-1031.48 207.293,-1029.21"/>
<polygon fill="none" stroke="#404040" points="207.342,-1029.08 205.683,-1022.06 211.522,-1017.83 213.182,-1024.85 207.342,-1029.08"/>
<text text-anchor="middle" x="233.5" y="-1039.5" font-family="Helvetica,sans-Serif" font-size="10.00"> mp_Listener</text>
</g>
<!-- Node9 -->
<g id="node16" class="node"><title>Node9</title>
<polygon fill="white" stroke="#bfbfbf" points="248.5,-1121.5 248.5,-1178.5 283.5,-1178.5 283.5,-1121.5 248.5,-1121.5"/>
<text text-anchor="middle" x="266" y="-1166.5" font-family="Helvetica,sans-Serif" font-size="10.00">bool</text>
<polyline fill="none" stroke="#bfbfbf" points="248.5,-1159.5 283.5,-1159.5 "/>
<text text-anchor="middle" x="266" y="-1147.5" font-family="Helvetica,sans-Serif" font-size="10.00"> </text>
<polyline fill="none" stroke="#bfbfbf" points="248.5,-1140.5 283.5,-1140.5 "/>
<text text-anchor="middle" x="266" y="-1128.5" font-family="Helvetica,sans-Serif" font-size="10.00"> </text>
</g>
<!-- Node9&#45;&gt;Node7 -->
<g id="edge16" class="edge"><title>Node9&#45;&gt;Node7</title>
<path fill="none" stroke="#404040" d="M266,-1121.47C266,-1098.46 266,-1063.99 266,-1029.68"/>
<polygon fill="none" stroke="#404040" points="266,-1029.56 262,-1023.56 266,-1017.56 270,-1023.56 266,-1029.56"/>
<text text-anchor="middle" x="296.5" y="-1039.5" font-family="Helvetica,sans-Serif" font-size="10.00"> m_ListBegun</text>
</g>
<!-- Node10 -->
<g id="node18" class="node"><title>Node10</title>
<a xlink:href="classMPD_1_1Connection.html" target="_top" xlink:title="A convinience Wrapper around mpd_connection*.">
<polygon fill="white" stroke="black" points="302,-1066.5 302,-1233.5 448,-1233.5 448,-1066.5 302,-1066.5"/>
<text text-anchor="middle" x="375" y="-1221.5" font-family="Helvetica,sans-Serif" font-size="10.00">MPD::Connection</text>
<polyline fill="none" stroke="black" points="302,-1214.5 448,-1214.5 "/>
<text text-anchor="middle" x="375" y="-1202.5" font-family="Helvetica,sans-Serif" font-size="10.00"> </text>
<polyline fill="none" stroke="black" points="302,-1195.5 448,-1195.5 "/>
<text text-anchor="start" x="310" y="-1183.5" font-family="Helvetica,sans-Serif" font-size="10.00">+ Connection()</text>
<text text-anchor="start" x="310" y="-1172.5" font-family="Helvetica,sans-Serif" font-size="10.00">+ ~Connection()</text>
<text text-anchor="start" x="310" y="-1161.5" font-family="Helvetica,sans-Serif" font-size="10.00">+ is_connected()</text>
<text text-anchor="start" x="310" y="-1150.5" font-family="Helvetica,sans-Serif" font-size="10.00">+ connect()</text>
<text text-anchor="start" x="310" y="-1139.5" font-family="Helvetica,sans-Serif" font-size="10.00">+ disconnect()</text>
<text text-anchor="start" x="310" y="-1128.5" font-family="Helvetica,sans-Serif" font-size="10.00">+ clear_error()</text>
<text text-anchor="start" x="310" y="-1117.5" font-family="Helvetica,sans-Serif" font-size="10.00">+ check_error()</text>
<text text-anchor="start" x="310" y="-1106.5" font-family="Helvetica,sans-Serif" font-size="10.00">+ signal_error()</text>
<text text-anchor="start" x="310" y="-1095.5" font-family="Helvetica,sans-Serif" font-size="10.00">+ signal_connection_change()</text>
<text text-anchor="start" x="310" y="-1084.5" font-family="Helvetica,sans-Serif" font-size="10.00">+ emit_connection_change()</text>
<text text-anchor="start" x="310" y="-1073.5" font-family="Helvetica,sans-Serif" font-size="10.00">+ get_connection()</text>
</a>
</g>
<!-- Node10&#45;&gt;Node7 -->
<g id="edge18" class="edge"><title>Node10&#45;&gt;Node7</title>
<path fill="none" stroke="#404040" d="M344.13,-1066.45C339.895,-1056.12 335.464,-1045.77 331,-1036 329.878,-1033.55 328.731,-1031.07 327.562,-1028.58"/>
<polygon fill="none" stroke="#404040" points="327.49,-1028.43 321.292,-1024.75 322.311,-1017.61 328.509,-1021.3 327.49,-1028.43"/>
<text text-anchor="middle" x="355" y="-1039.5" font-family="Helvetica,sans-Serif" font-size="10.00"> m_Conn</text>
</g>
<!-- Node11 -->
<g id="node20" class="node"><title>Node11</title>
<a xlink:href="classMPD_1_1AbstractItemGenerator.html" target="_top" xlink:title="{MPD::AbstractItemGenerator\n||+ fill_queue()\l+ fill_queue_changes()\l+ fill_playlists()\l+ fill_outputs()\l+ fill_filelist()\l+ ~AbstractItemGenerator()\l}">
<polygon fill="white" stroke="black" points="357,-856 357,-968 501,-968 501,-856 357,-856"/>
<text text-anchor="middle" x="429" y="-956" font-family="Helvetica,sans-Serif" font-size="10.00">MPD::AbstractItemGenerator</text>
<polyline fill="none" stroke="black" points="357,-949 501,-949 "/>
<text text-anchor="middle" x="429" y="-937" font-family="Helvetica,sans-Serif" font-size="10.00"> </text>
<polyline fill="none" stroke="black" points="357,-930 501,-930 "/>
<text text-anchor="start" x="365" y="-918" font-family="Helvetica,sans-Serif" font-size="10.00">+ fill_queue()</text>
<text text-anchor="start" x="365" y="-907" font-family="Helvetica,sans-Serif" font-size="10.00">+ fill_queue_changes()</text>
<text text-anchor="start" x="365" y="-896" font-family="Helvetica,sans-Serif" font-size="10.00">+ fill_playlists()</text>
<text text-anchor="start" x="365" y="-885" font-family="Helvetica,sans-Serif" font-size="10.00">+ fill_outputs()</text>
<text text-anchor="start" x="365" y="-874" font-family="Helvetica,sans-Serif" font-size="10.00">+ fill_filelist()</text>
<text text-anchor="start" x="365" y="-863" font-family="Helvetica,sans-Serif" font-size="10.00">+ ~AbstractItemGenerator()</text>
</a>
</g>
<!-- Node11&#45;&gt;Node6 -->
<g id="edge20" class="edge"><title>Node11&#45;&gt;Node6</title>
<path fill="none" stroke="midnightblue" d="M421.837,-845.484C419.34,-822.644 416.376,-795.537 413.257,-767.008"/>
<polygon fill="none" stroke="midnightblue" points="418.384,-846.107 422.95,-855.667 425.343,-845.346 418.384,-846.107"/>
</g>
</g>
</svg>
