<?xml version="1.0" encoding="UTF-8" standalone="no"?>
<!DOCTYPE svg PUBLIC "-//W3C//DTD SVG 1.1//EN"
 "http://www.w3.org/Graphics/SVG/1.1/DTD/svg11.dtd">
<!-- Generated by graphviz version 2.28.0 (20120217.0315)
 -->
<!-- Title: G Pages: 1 -->
<svg width="461pt" height="260pt"
 viewBox="0.00 0.00 461.00 260.00" xmlns="http://www.w3.org/2000/svg" xmlns:xlink="http://www.w3.org/1999/xlink">
<g id="graph1" class="graph" transform="scale(1 1) rotate(0) translate(4 256)">
<title>G</title>
<polygon fill="white" stroke="white" points="-4,5 -4,-256 458,-256 458,5 -4,5"/>
<!-- Node1 -->
<g id="node1" class="node"><title>Node1</title>
<polygon fill="#bfbfbf" stroke="black" points="118,-0.5 118,-79.5 246,-79.5 246,-0.5 118,-0.5"/>
<text text-anchor="middle" x="182" y="-67.5" font-family="Helvetica,sans-Serif" font-size="10.00">Browser::PlaylistManager</text>
<polyline fill="none" stroke="black" points="118,-60.5 246,-60.5 "/>
<text text-anchor="middle" x="182" y="-48.5" font-family="Helvetica,sans-Serif" font-size="10.00"> </text>
<polyline fill="none" stroke="black" points="118,-41.5 246,-41.5 "/>
<text text-anchor="start" x="126" y="-29.5" font-family="Helvetica,sans-Serif" font-size="10.00">+ PlaylistManager()</text>
<text text-anchor="start" x="126" y="-18.5" font-family="Helvetica,sans-Serif" font-size="10.00">+ ~PlaylistManager()</text>
<text text-anchor="start" x="126" y="-7.5" font-family="Helvetica,sans-Serif" font-size="10.00">+ get_container()</text>
</g>
<!-- Node2 -->
<g id="node2" class="node"><title>Node2</title>
<a xlink:href="classGtk_1_1Frame.html" target="_top" xlink:title="{Frame\n||}">
<polygon fill="white" stroke="black" points="0,-155.5 0,-212.5 44,-212.5 44,-155.5 0,-155.5"/>
<text text-anchor="middle" x="22" y="-200.5" font-family="Helvetica,sans-Serif" font-size="10.00">Frame</text>
<polyline fill="none" stroke="black" points="0,-193.5 44,-193.5 "/>
<text text-anchor="middle" x="22" y="-181.5" font-family="Helvetica,sans-Serif" font-size="10.00"> </text>
<polyline fill="none" stroke="black" points="0,-174.5 44,-174.5 "/>
<text text-anchor="middle" x="22" y="-162.5" font-family="Helvetica,sans-Serif" font-size="10.00"> </text>
</a>
</g>
<!-- Node2&#45;&gt;Node1 -->
<g id="edge2" class="edge"><title>Node2&#45;&gt;Node1</title>
<path fill="none" stroke="midnightblue" d="M34.348,-145.897C39.0484,-135.423 45.203,-124.56 53,-116 70.8804,-96.3689 95.1229,-80.4345 117.766,-68.3838"/>
<polygon fill="none" stroke="midnightblue" points="31.034,-144.752 30.4348,-155.329 37.4997,-147.434 31.034,-144.752"/>
</g>
<!-- Node3 -->
<g id="node4" class="node"><title>Node3</title>
<a xlink:href="classAbstractBrowser.html" target="_top" xlink:title="Inherit from this class in order to be able to add the browser to the browserlist.">
<polygon fill="white" stroke="black" points="62,-117 62,-251 172,-251 172,-117 62,-117"/>
<text text-anchor="middle" x="117" y="-239" font-family="Helvetica,sans-Serif" font-size="10.00">AbstractBrowser</text>
<polyline fill="none" stroke="black" points="62,-232 172,-232 "/>
<text text-anchor="middle" x="117" y="-220" font-family="Helvetica,sans-Serif" font-size="10.00"> </text>
<polyline fill="none" stroke="black" points="62,-213 172,-213 "/>
<text text-anchor="start" x="70" y="-201" font-family="Helvetica,sans-Serif" font-size="10.00">+ AbstractBrowser()</text>
<text text-anchor="start" x="70" y="-190" font-family="Helvetica,sans-Serif" font-size="10.00">+ get_container()</text>
<text text-anchor="start" x="70" y="-179" font-family="Helvetica,sans-Serif" font-size="10.00">+ get_name()</text>
<text text-anchor="start" x="70" y="-168" font-family="Helvetica,sans-Serif" font-size="10.00">+ get_icon_stock_id()</text>
<text text-anchor="start" x="70" y="-157" font-family="Helvetica,sans-Serif" font-size="10.00">+ is_visible()</text>
<text text-anchor="start" x="70" y="-146" font-family="Helvetica,sans-Serif" font-size="10.00">+ needs_connection()</text>
<text text-anchor="start" x="70" y="-135" font-family="Helvetica,sans-Serif" font-size="10.00">+ is_active()</text>
<text text-anchor="start" x="70" y="-124" font-family="Helvetica,sans-Serif" font-size="10.00">+ on_getting_active()</text>
</a>
</g>
<!-- Node3&#45;&gt;Node1 -->
<g id="edge4" class="edge"><title>Node3&#45;&gt;Node1</title>
<path fill="none" stroke="midnightblue" d="M151.463,-107.713C155.887,-98.0471 160.263,-88.488 164.26,-79.7552"/>
<polygon fill="none" stroke="midnightblue" points="148.196,-106.439 147.217,-116.989 154.561,-109.353 148.196,-106.439"/>
</g>
<!-- Node4 -->
<g id="node6" class="node"><title>Node4</title>
<a xlink:href="classMPD_1_1AbstractItemlist.html" target="_top" xlink:title="Inhertit from this class to use MPD::Client&#39;s fill_* methods.">
<polygon fill="white" stroke="black" points="190,-150 190,-218 304,-218 304,-150 190,-150"/>
<text text-anchor="middle" x="247" y="-206" font-family="Helvetica,sans-Serif" font-size="10.00">MPD::AbstractItemlist</text>
<polyline fill="none" stroke="black" points="190,-199 304,-199 "/>
<text text-anchor="middle" x="247" y="-187" font-family="Helvetica,sans-Serif" font-size="10.00"> </text>
<polyline fill="none" stroke="black" points="190,-180 304,-180 "/>
<text text-anchor="start" x="198" y="-168" font-family="Helvetica,sans-Serif" font-size="10.00">+ add_item()</text>
<text text-anchor="start" x="198" y="-157" font-family="Helvetica,sans-Serif" font-size="10.00">+ ~AbstractItemlist()</text>
</a>
</g>
<!-- Node4&#45;&gt;Node1 -->
<g id="edge6" class="edge"><title>Node4&#45;&gt;Node1</title>
<path fill="none" stroke="midnightblue" d="M227.554,-140.519C218.703,-121.182 208.303,-98.461 199.676,-79.6146"/>
<polygon fill="none" stroke="midnightblue" points="224.416,-142.071 231.76,-149.707 230.781,-139.158 224.416,-142.071"/>
</g>
<!-- Node5 -->
<g id="node8" class="node"><title>Node5</title>
<a xlink:href="classMPD_1_1AbstractClientUser.html" target="_top" xlink:title="{MPD::AbstractClientUser\n|# mp_Client\l|+ AbstractClientUser()\l# on_client_update()\l# on_connection_change()\l}">
<polygon fill="white" stroke="black" points="322.5,-144.5 322.5,-223.5 453.5,-223.5 453.5,-144.5 322.5,-144.5"/>
<text text-anchor="middle" x="388" y="-211.5" font-family="Helvetica,sans-Serif" font-size="10.00">MPD::AbstractClientUser</text>
<polyline fill="none" stroke="black" points="322.5,-204.5 453.5,-204.5 "/>
<text text-anchor="start" x="330.5" y="-192.5" font-family="Helvetica,sans-Serif" font-size="10.00"># mp_Client</text>
<polyline fill="none" stroke="black" points="322.5,-185.5 453.5,-185.5 "/>
<text text-anchor="start" x="330.5" y="-173.5" font-family="Helvetica,sans-Serif" font-size="10.00">+ AbstractClientUser()</text>
<text text-anchor="start" x="330.5" y="-162.5" font-family="Helvetica,sans-Serif" font-size="10.00"># on_client_update()</text>
<text text-anchor="start" x="330.5" y="-151.5" font-family="Helvetica,sans-Serif" font-size="10.00"># on_connection_change()</text>
</a>
</g>
<!-- Node5&#45;&gt;Node1 -->
<g id="edge8" class="edge"><title>Node5&#45;&gt;Node1</title>
<path fill="none" stroke="midnightblue" d="M340.096,-137.563C331.341,-130.034 322.093,-122.554 313,-116 292.166,-100.983 268.085,-86.4722 246.297,-74.281"/>
<polygon fill="none" stroke="midnightblue" points="337.815,-140.219 347.646,-144.171 342.426,-134.951 337.815,-140.219"/>
</g>
</g>
</svg>
