<?xml version="1.0" encoding="UTF-8" standalone="no"?>
<!DOCTYPE svg PUBLIC "-//W3C//DTD SVG 1.1//EN"
 "http://www.w3.org/Graphics/SVG/1.1/DTD/svg11.dtd">
<!-- Generated by graphviz version 2.28.0 (20111204.1018)
 -->
<!-- Title: G Pages: 1 -->
<svg width="496pt" height="142pt"
 viewBox="0.00 0.00 496.00 142.00" xmlns="http://www.w3.org/2000/svg" xmlns:xlink="http://www.w3.org/1999/xlink">
<g id="graph1" class="graph" transform="scale(1 1) rotate(0) translate(4 138)">
<title>G</title>
<polygon fill="white" stroke="white" points="-4,5 -4,-138 493,-138 493,5 -4,5"/>
<!-- Node1 -->
<g id="node1" class="node"><title>Node1</title>
<polygon fill="#bfbfbf" stroke="black" points="0,-57.5 0,-76.5 218,-76.5 218,-57.5 0,-57.5"/>
<text text-anchor="middle" x="109" y="-64.5" font-family="Helvetica,sans-Serif" font-size="10.00">MPD::AbstractClientUser::AbstractClientUser</text>
</g>
<!-- Node2 -->
<g id="node3" class="node"><title>Node2</title>
<a xlink:href="classMPD_1_1BaseClient.html#ad6846d7cfc8fd752baf8da42bdbfc01e" target="_top" xlink:title="Get the notify sigc::signal.">
<polygon fill="white" stroke="black" points="277,-114.5 277,-133.5 465,-133.5 465,-114.5 277,-114.5"/>
<text text-anchor="middle" x="371" y="-121.5" font-family="Helvetica,sans-Serif" font-size="10.00">MPD::BaseClient::signal_client_update</text>
</a>
</g>
<!-- Node1&#45;&gt;Node2 -->
<g id="edge2" class="edge"><title>Node1&#45;&gt;Node2</title>
<path fill="none" stroke="midnightblue" d="M142.671,-76.5775C171.719,-84.8633 215.438,-96.7735 254,-105 267.25,-107.827 281.428,-110.465 295.163,-112.822"/>
<polygon fill="midnightblue" stroke="midnightblue" points="294.624,-116.281 305.066,-114.488 295.785,-109.378 294.624,-116.281"/>
</g>
<!-- Node3 -->
<g id="node5" class="node"><title>Node3</title>
<a xlink:href="classMPD_1_1AbstractClientUser.html#a1ee5e7593a61d76b82ada057e86c1462" target="_top" xlink:title="Derived class have to implement this.">
<polygon fill="white" stroke="black" points="267,-76.5 267,-95.5 475,-95.5 475,-76.5 267,-76.5"/>
<text text-anchor="middle" x="371" y="-83.5" font-family="Helvetica,sans-Serif" font-size="10.00">MPD::AbstractClientUser::on_client_update</text>
</a>
</g>
<!-- Node1&#45;&gt;Node3 -->
<g id="edge4" class="edge"><title>Node1&#45;&gt;Node3</title>
<path fill="none" stroke="midnightblue" d="M218.005,-74.8926C230.775,-75.8259 243.837,-76.7804 256.679,-77.7188"/>
<polygon fill="midnightblue" stroke="midnightblue" points="256.692,-81.229 266.92,-78.4672 257.202,-74.2476 256.692,-81.229"/>
</g>
<!-- Node4 -->
<g id="node7" class="node"><title>Node4</title>
<a xlink:href="classMPD_1_1BaseClient.html#a7de1b19d75cc7147d48bdf05c33c151c" target="_top" xlink:title="Register for connection changes.">
<polygon fill="white" stroke="black" points="264,-38.5 264,-57.5 478,-57.5 478,-38.5 264,-38.5"/>
<text text-anchor="middle" x="371" y="-45.5" font-family="Helvetica,sans-Serif" font-size="10.00">MPD::BaseClient::signal_connection_change</text>
</a>
</g>
<!-- Node1&#45;&gt;Node4 -->
<g id="edge6" class="edge"><title>Node1&#45;&gt;Node4</title>
<path fill="none" stroke="midnightblue" d="M218.005,-59.1074C229.659,-58.2557 241.556,-57.3863 253.307,-56.5276"/>
<polygon fill="midnightblue" stroke="midnightblue" points="253.868,-59.996 263.586,-55.7764 253.357,-53.0146 253.868,-59.996"/>
</g>
<!-- Node5 -->
<g id="node9" class="node"><title>Node5</title>
<a xlink:href="classMPD_1_1AbstractClientUser.html#a666e06645956aad6d230e31df6f89f30" target="_top" xlink:title="Derived class have to implement this.">
<polygon fill="white" stroke="black" points="254,-0.5 254,-19.5 488,-19.5 488,-0.5 254,-0.5"/>
<text text-anchor="middle" x="371" y="-7.5" font-family="Helvetica,sans-Serif" font-size="10.00">MPD::AbstractClientUser::on_connection_change</text>
</a>
</g>
<!-- Node1&#45;&gt;Node5 -->
<g id="edge8" class="edge"><title>Node1&#45;&gt;Node5</title>
<path fill="none" stroke="midnightblue" d="M142.671,-57.4225C171.719,-49.1367 215.438,-37.2265 254,-29 267.25,-26.1735 281.428,-23.5352 295.163,-21.1776"/>
<polygon fill="midnightblue" stroke="midnightblue" points="295.785,-24.6222 305.066,-19.5118 294.624,-17.7192 295.785,-24.6222"/>
</g>
</g>
</svg>
