<?xml version="1.0" encoding="UTF-8" standalone="no"?>
<!DOCTYPE svg PUBLIC "-//W3C//DTD SVG 1.1//EN"
 "http://www.w3.org/Graphics/SVG/1.1/DTD/svg11.dtd">
<!-- Generated by graphviz version 2.28.0 (20120217.0315)
 -->
<!-- Title: G Pages: 1 -->
<svg width="646pt" height="1176pt"
 viewBox="0.00 0.00 646.00 1176.00" xmlns="http://www.w3.org/2000/svg" xmlns:xlink="http://www.w3.org/1999/xlink">
<g id="graph1" class="graph" transform="scale(1 1) rotate(0) translate(4 1172)">
<title>G</title>
<polygon fill="white" stroke="white" points="-4,5 -4,-1172 643,-1172 643,5 -4,5"/>
<!-- Node1 -->
<g id="node1" class="node"><title>Node1</title>
<polygon fill="#bfbfbf" stroke="black" points="154.5,-0.5 154.5,-57.5 259.5,-57.5 259.5,-0.5 154.5,-0.5"/>
<text text-anchor="middle" x="207" y="-45.5" font-family="Helvetica,sans-Serif" font-size="10.00">GManager::Trayicon</text>
<polyline fill="none" stroke="black" points="154.5,-38.5 259.5,-38.5 "/>
<text text-anchor="middle" x="207" y="-26.5" font-family="Helvetica,sans-Serif" font-size="10.00"> </text>
<polyline fill="none" stroke="black" points="154.5,-19.5 259.5,-19.5 "/>
<text text-anchor="start" x="162.5" y="-7.5" font-family="Helvetica,sans-Serif" font-size="10.00">+ Trayicon()</text>
</g>
<!-- Node2 -->
<g id="node2" class="node"><title>Node2</title>
<a xlink:href="classGtk_1_1StatusIcon.html" target="_top" xlink:title="{Gtk::StatusIcon\n||}">
<polygon fill="white" stroke="black" points="48,-113.5 48,-170.5 134,-170.5 134,-113.5 48,-113.5"/>
<text text-anchor="middle" x="91" y="-158.5" font-family="Helvetica,sans-Serif" font-size="10.00">Gtk::StatusIcon</text>
<polyline fill="none" stroke="black" points="48,-151.5 134,-151.5 "/>
<text text-anchor="middle" x="91" y="-139.5" font-family="Helvetica,sans-Serif" font-size="10.00"> </text>
<polyline fill="none" stroke="black" points="48,-132.5 134,-132.5 "/>
<text text-anchor="middle" x="91" y="-120.5" font-family="Helvetica,sans-Serif" font-size="10.00"> </text>
</a>
</g>
<!-- Node2&#45;&gt;Node1 -->
<g id="edge2" class="edge"><title>Node2&#45;&gt;Node1</title>
<path fill="none" stroke="midnightblue" d="M127.266,-106.297C143.602,-90.6656 162.627,-72.4608 177.995,-57.7549"/>
<polygon fill="none" stroke="midnightblue" points="124.778,-103.834 119.972,-113.276 129.617,-108.891 124.778,-103.834"/>
</g>
<!-- Node3 -->
<g id="node4" class="node"><title>Node3</title>
<a xlink:href="classBrowser_1_1BasePopup.html" target="_top" xlink:title="A Baseclass for Widgets that want to implement easily popup widgets.">
<polygon fill="white" stroke="black" points="152.5,-97 152.5,-187 261.5,-187 261.5,-97 152.5,-97"/>
<text text-anchor="middle" x="207" y="-175" font-family="Helvetica,sans-Serif" font-size="10.00">Browser::BasePopup</text>
<polyline fill="none" stroke="black" points="152.5,-168 261.5,-168 "/>
<text text-anchor="middle" x="207" y="-156" font-family="Helvetica,sans-Serif" font-size="10.00"> </text>
<polyline fill="none" stroke="black" points="152.5,-149 261.5,-149 "/>
<text text-anchor="start" x="160.5" y="-137" font-family="Helvetica,sans-Serif" font-size="10.00">+ BasePopup()</text>
<text text-anchor="start" x="160.5" y="-126" font-family="Helvetica,sans-Serif" font-size="10.00">+ get_action()</text>
<text text-anchor="start" x="160.5" y="-115" font-family="Helvetica,sans-Serif" font-size="10.00"># menu_add_item()</text>
<text text-anchor="start" x="160.5" y="-104" font-family="Helvetica,sans-Serif" font-size="10.00"># menu_construct()</text>
</a>
</g>
<!-- Node3&#45;&gt;Node1 -->
<g id="edge4" class="edge"><title>Node3&#45;&gt;Node1</title>
<path fill="none" stroke="midnightblue" d="M207,-86.8086C207,-76.738 207,-66.6099 207,-57.7516"/>
<polygon fill="none" stroke="midnightblue" points="203.5,-86.8109 207,-96.8109 210.5,-86.811 203.5,-86.8109"/>
</g>
<!-- Node4 -->
<g id="node6" class="node"><title>Node4</title>
<polygon fill="white" stroke="#bfbfbf" points="-0.5,-440.5 -0.5,-497.5 46.5,-497.5 46.5,-440.5 -0.5,-440.5"/>
<text text-anchor="middle" x="23" y="-485.5" font-family="Helvetica,sans-Serif" font-size="10.00">Menu *</text>
<polyline fill="none" stroke="#bfbfbf" points="-0.5,-478.5 46.5,-478.5 "/>
<text text-anchor="middle" x="23" y="-466.5" font-family="Helvetica,sans-Serif" font-size="10.00"> </text>
<polyline fill="none" stroke="#bfbfbf" points="-0.5,-459.5 46.5,-459.5 "/>
<text text-anchor="middle" x="23" y="-447.5" font-family="Helvetica,sans-Serif" font-size="10.00"> </text>
</g>
<!-- Node4&#45;&gt;Node3 -->
<g id="edge6" class="edge"><title>Node4&#45;&gt;Node3</title>
<path fill="none" stroke="#404040" d="M22.9864,-440.151C23.8516,-395.494 29.2727,-305.801 57,-236 63.0085,-220.874 64.7077,-215.392 78,-206 99.8041,-190.594 112.831,-198.512 141.073,-188.026"/>
<polygon fill="none" stroke="#404040" points="141.181,-187.979 145.121,-181.939 152.211,-183.252 148.272,-189.292 141.181,-187.979"/>
<text text-anchor="middle" x="103" y="-209.5" font-family="Helvetica,sans-Serif" font-size="10.00"> mp_Popup</text>
</g>
<!-- Node5 -->
<g id="node8" class="node"><title>Node5</title>
<polygon fill="white" stroke="#bfbfbf" points="66.5,-440.5 66.5,-497.5 119.5,-497.5 119.5,-440.5 66.5,-440.5"/>
<text text-anchor="middle" x="93" y="-485.5" font-family="Helvetica,sans-Serif" font-size="10.00">ustring *</text>
<polyline fill="none" stroke="#bfbfbf" points="66.5,-478.5 119.5,-478.5 "/>
<text text-anchor="middle" x="93" y="-466.5" font-family="Helvetica,sans-Serif" font-size="10.00"> </text>
<polyline fill="none" stroke="#bfbfbf" points="66.5,-459.5 119.5,-459.5 "/>
<text text-anchor="middle" x="93" y="-447.5" font-family="Helvetica,sans-Serif" font-size="10.00"> </text>
</g>
<!-- Node5&#45;&gt;Node3 -->
<g id="edge8" class="edge"><title>Node5&#45;&gt;Node3</title>
<path fill="none" stroke="#404040" d="M90.9901,-440.496C88.6253,-390.154 89.7172,-281.441 135,-206 137.645,-201.594 140.701,-197.333 144.032,-193.246"/>
<polygon fill="none" stroke="#404040" points="144.253,-192.999 145.259,-185.858 152.237,-184.04 151.231,-191.181 144.253,-192.999"/>
<text text-anchor="middle" x="169" y="-209.5" font-family="Helvetica,sans-Serif" font-size="10.00"> m_UiDefinition</text>
</g>
<!-- Node6 -->
<g id="node10" class="node"><title>Node6</title>
<polygon fill="white" stroke="#bfbfbf" points="137.5,-440.5 137.5,-497.5 276.5,-497.5 276.5,-440.5 137.5,-440.5"/>
<text text-anchor="middle" x="207" y="-485.5" font-family="Helvetica,sans-Serif" font-size="10.00">RefPtr&lt; Gtk::ActionGroup &gt;</text>
<polyline fill="none" stroke="#bfbfbf" points="137.5,-478.5 276.5,-478.5 "/>
<text text-anchor="middle" x="207" y="-466.5" font-family="Helvetica,sans-Serif" font-size="10.00"> </text>
<polyline fill="none" stroke="#bfbfbf" points="137.5,-459.5 276.5,-459.5 "/>
<text text-anchor="middle" x="207" y="-447.5" font-family="Helvetica,sans-Serif" font-size="10.00"> </text>
</g>
<!-- Node6&#45;&gt;Node3 -->
<g id="edge10" class="edge"><title>Node6&#45;&gt;Node3</title>
<path fill="none" stroke="#404040" d="M207,-440.291C207,-387.073 207,-269.62 207,-199.321"/>
<polygon fill="none" stroke="#404040" points="207,-199.193 203,-193.193 207,-187.193 211,-193.193 207,-199.193"/>
<text text-anchor="middle" x="248" y="-209.5" font-family="Helvetica,sans-Serif" font-size="10.00"> m_refActionGroup</text>
</g>
<!-- Node7 -->
<g id="node12" class="node"><title>Node7</title>
<polygon fill="white" stroke="#bfbfbf" points="294.5,-440.5 294.5,-497.5 427.5,-497.5 427.5,-440.5 294.5,-440.5"/>
<text text-anchor="middle" x="361" y="-485.5" font-family="Helvetica,sans-Serif" font-size="10.00">RefPtr&lt; Gtk::UIManager &gt;</text>
<polyline fill="none" stroke="#bfbfbf" points="294.5,-478.5 427.5,-478.5 "/>
<text text-anchor="middle" x="361" y="-466.5" font-family="Helvetica,sans-Serif" font-size="10.00"> </text>
<polyline fill="none" stroke="#bfbfbf" points="294.5,-459.5 427.5,-459.5 "/>
<text text-anchor="middle" x="361" y="-447.5" font-family="Helvetica,sans-Serif" font-size="10.00"> </text>
</g>
<!-- Node7&#45;&gt;Node3 -->
<g id="edge12" class="edge"><title>Node7&#45;&gt;Node3</title>
<path fill="none" stroke="#404040" d="M359.823,-440.269C356.447,-389.559 343.402,-280.269 293,-206 287.035,-197.21 279.421,-189.194 271.198,-182.048"/>
<polygon fill="none" stroke="#404040" points="271.031,-181.912 263.851,-181.24 261.71,-174.354 268.89,-175.026 271.031,-181.912"/>
<text text-anchor="middle" x="334" y="-209.5" font-family="Helvetica,sans-Serif" font-size="10.00"> m_refUIManager</text>
</g>
<!-- Node8 -->
<g id="node14" class="node"><title>Node8</title>
<a xlink:href="classMPD_1_1AbstractClientUser.html" target="_top" xlink:title="{MPD::AbstractClientUser\n||+ AbstractClientUser()\l# on_client_update()\l# on_connection_change()\l}">
<polygon fill="white" stroke="black" points="351.5,-102.5 351.5,-181.5 482.5,-181.5 482.5,-102.5 351.5,-102.5"/>
<text text-anchor="middle" x="417" y="-169.5" font-family="Helvetica,sans-Serif" font-size="10.00">MPD::AbstractClientUser</text>
<polyline fill="none" stroke="black" points="351.5,-162.5 482.5,-162.5 "/>
<text text-anchor="middle" x="417" y="-150.5" font-family="Helvetica,sans-Serif" font-size="10.00"> </text>
<polyline fill="none" stroke="black" points="351.5,-143.5 482.5,-143.5 "/>
<text text-anchor="start" x="359.5" y="-131.5" font-family="Helvetica,sans-Serif" font-size="10.00">+ AbstractClientUser()</text>
<text text-anchor="start" x="359.5" y="-120.5" font-family="Helvetica,sans-Serif" font-size="10.00"># on_client_update()</text>
<text text-anchor="start" x="359.5" y="-109.5" font-family="Helvetica,sans-Serif" font-size="10.00"># on_connection_change()</text>
</a>
</g>
<!-- Node8&#45;&gt;Node1 -->
<g id="edge14" class="edge"><title>Node8&#45;&gt;Node1</title>
<path fill="none" stroke="midnightblue" d="M342.221,-101.474C314.724,-86.9396 284.203,-70.8073 259.127,-57.5527"/>
<polygon fill="none" stroke="midnightblue" points="340.942,-104.757 351.418,-106.335 344.213,-98.568 340.942,-104.757"/>
</g>
<!-- Node9 -->
<g id="node16" class="node"><title>Node9</title>
<a xlink:href="classMPD_1_1Client.html" target="_top" xlink:title="The client implements concrete commands of the MPD Protocol.">
<polygon fill="white" stroke="black" points="446,-237 446,-701 592,-701 592,-237 446,-237"/>
<text text-anchor="middle" x="519" y="-689" font-family="Helvetica,sans-Serif" font-size="10.00">MPD::Client</text>
<polyline fill="none" stroke="black" points="446,-682 592,-682 "/>
<text text-anchor="middle" x="519" y="-670" font-family="Helvetica,sans-Serif" font-size="10.00"> </text>
<polyline fill="none" stroke="black" points="446,-663 592,-663 "/>
<text text-anchor="start" x="454" y="-651" font-family="Helvetica,sans-Serif" font-size="10.00">+ Client()</text>
<text text-anchor="start" x="454" y="-640" font-family="Helvetica,sans-Serif" font-size="10.00">+ ~Client()</text>
<text text-anchor="start" x="454" y="-629" font-family="Helvetica,sans-Serif" font-size="10.00">+ connect()</text>
<text text-anchor="start" x="454" y="-618" font-family="Helvetica,sans-Serif" font-size="10.00">+ disconnect()</text>
<text text-anchor="start" x="454" y="-607" font-family="Helvetica,sans-Serif" font-size="10.00">+ playback_next()</text>
<text text-anchor="start" x="454" y="-596" font-family="Helvetica,sans-Serif" font-size="10.00">+ playback_prev()</text>
<text text-anchor="start" x="454" y="-585" font-family="Helvetica,sans-Serif" font-size="10.00">+ playback_stop()</text>
<text text-anchor="start" x="454" y="-574" font-family="Helvetica,sans-Serif" font-size="10.00">+ playback_play()</text>
<text text-anchor="start" x="454" y="-563" font-family="Helvetica,sans-Serif" font-size="10.00">+ playback_pause()</text>
<text text-anchor="start" x="454" y="-552" font-family="Helvetica,sans-Serif" font-size="10.00">+ playback_seek()</text>
<text text-anchor="start" x="454" y="-541" font-family="Helvetica,sans-Serif" font-size="10.00">and 5 more...+ playlist_save()</text>
<text text-anchor="start" x="454" y="-530" font-family="Helvetica,sans-Serif" font-size="10.00">+ queue_add()</text>
<text text-anchor="start" x="454" y="-519" font-family="Helvetica,sans-Serif" font-size="10.00">+ queue_clear()</text>
<text text-anchor="start" x="454" y="-508" font-family="Helvetica,sans-Serif" font-size="10.00">+ queue_delete()</text>
<text text-anchor="start" x="454" y="-497" font-family="Helvetica,sans-Serif" font-size="10.00">+ database_update()</text>
<text text-anchor="start" x="454" y="-486" font-family="Helvetica,sans-Serif" font-size="10.00">+ database_rescan()</text>
<text text-anchor="start" x="454" y="-475" font-family="Helvetica,sans-Serif" font-size="10.00">+ set_volume()</text>
<text text-anchor="start" x="454" y="-464" font-family="Helvetica,sans-Serif" font-size="10.00">+ fill_queue()</text>
<text text-anchor="start" x="454" y="-453" font-family="Helvetica,sans-Serif" font-size="10.00">+ fill_queue_changes()</text>
<text text-anchor="start" x="454" y="-442" font-family="Helvetica,sans-Serif" font-size="10.00">+ fill_playlists()</text>
<text text-anchor="start" x="454" y="-431" font-family="Helvetica,sans-Serif" font-size="10.00">+ fill_outputs()</text>
<text text-anchor="start" x="454" y="-420" font-family="Helvetica,sans-Serif" font-size="10.00">+ fill_filelist()</text>
<text text-anchor="start" x="454" y="-409" font-family="Helvetica,sans-Serif" font-size="10.00">+ send_command()</text>
<text text-anchor="start" x="454" y="-398" font-family="Helvetica,sans-Serif" font-size="10.00">+ ping()</text>
<text text-anchor="start" x="454" y="-387" font-family="Helvetica,sans-Serif" font-size="10.00">* playlist_save()</text>
<text text-anchor="start" x="454" y="-376" font-family="Helvetica,sans-Serif" font-size="10.00">* queue_add()</text>
<text text-anchor="start" x="454" y="-365" font-family="Helvetica,sans-Serif" font-size="10.00">* queue_clear()</text>
<text text-anchor="start" x="454" y="-354" font-family="Helvetica,sans-Serif" font-size="10.00">* queue_delete()</text>
<text text-anchor="start" x="454" y="-343" font-family="Helvetica,sans-Serif" font-size="10.00">* database_update()</text>
<text text-anchor="start" x="454" y="-332" font-family="Helvetica,sans-Serif" font-size="10.00">* database_rescan()</text>
<text text-anchor="start" x="454" y="-321" font-family="Helvetica,sans-Serif" font-size="10.00">* set_volume()</text>
<text text-anchor="start" x="454" y="-310" font-family="Helvetica,sans-Serif" font-size="10.00">* fill_queue()</text>
<text text-anchor="start" x="454" y="-299" font-family="Helvetica,sans-Serif" font-size="10.00">* fill_queue_changes()</text>
<text text-anchor="start" x="454" y="-288" font-family="Helvetica,sans-Serif" font-size="10.00">* fill_playlists()</text>
<text text-anchor="start" x="454" y="-277" font-family="Helvetica,sans-Serif" font-size="10.00">* fill_outputs()</text>
<text text-anchor="start" x="454" y="-266" font-family="Helvetica,sans-Serif" font-size="10.00">* fill_filelist()</text>
<text text-anchor="start" x="454" y="-255" font-family="Helvetica,sans-Serif" font-size="10.00">* send_command()</text>
<text text-anchor="start" x="454" y="-244" font-family="Helvetica,sans-Serif" font-size="10.00">* ping()</text>
</a>
</g>
<!-- Node9&#45;&gt;Node8 -->
<g id="edge16" class="edge"><title>Node9&#45;&gt;Node8</title>
<path fill="none" stroke="#404040" d="M451.254,-236.958C447.853,-226.473 444.427,-216.114 441,-206 439.583,-201.819 438.063,-197.502 436.501,-193.18"/>
<polygon fill="none" stroke="#404040" points="436.463,-193.077 430.633,-188.833 432.308,-181.819 438.138,-186.063 436.463,-193.077"/>
<text text-anchor="middle" x="467" y="-209.5" font-family="Helvetica,sans-Serif" font-size="10.00"> mp_Client</text>
</g>
<!-- Node10 -->
<g id="node18" class="node"><title>Node10</title>
<a xlink:href="classMPD_1_1BaseClient.html" target="_top" xlink:title="The Base to MPD::Client.">
<polygon fill="white" stroke="black" points="330,-740.5 330,-951.5 476,-951.5 476,-740.5 330,-740.5"/>
<text text-anchor="middle" x="403" y="-939.5" font-family="Helvetica,sans-Serif" font-size="10.00">MPD::BaseClient</text>
<polyline fill="none" stroke="black" points="330,-932.5 476,-932.5 "/>
<text text-anchor="middle" x="403" y="-920.5" font-family="Helvetica,sans-Serif" font-size="10.00"> </text>
<polyline fill="none" stroke="black" points="330,-913.5 476,-913.5 "/>
<text text-anchor="start" x="338" y="-901.5" font-family="Helvetica,sans-Serif" font-size="10.00">+ go_idle()</text>
<text text-anchor="start" x="338" y="-890.5" font-family="Helvetica,sans-Serif" font-size="10.00">+ go_busy()</text>
<text text-anchor="start" x="338" y="-879.5" font-family="Helvetica,sans-Serif" font-size="10.00">+ get_connection()</text>
<text text-anchor="start" x="338" y="-868.5" font-family="Helvetica,sans-Serif" font-size="10.00">+ is_connected()</text>
<text text-anchor="start" x="338" y="-857.5" font-family="Helvetica,sans-Serif" font-size="10.00">+ begin()</text>
<text text-anchor="start" x="338" y="-846.5" font-family="Helvetica,sans-Serif" font-size="10.00">+ commit()</text>
<text text-anchor="start" x="338" y="-835.5" font-family="Helvetica,sans-Serif" font-size="10.00">+ get_status()</text>
<text text-anchor="start" x="338" y="-824.5" font-family="Helvetica,sans-Serif" font-size="10.00">+ signal_client_update()</text>
<text text-anchor="start" x="338" y="-813.5" font-family="Helvetica,sans-Serif" font-size="10.00">+ signal_connection_change()</text>
<text text-anchor="start" x="338" y="-802.5" font-family="Helvetica,sans-Serif" font-size="10.00">+ force_update()</text>
<text text-anchor="start" x="338" y="-791.5" font-family="Helvetica,sans-Serif" font-size="10.00">+ create_db_songs_query()</text>
<text text-anchor="start" x="338" y="-780.5" font-family="Helvetica,sans-Serif" font-size="10.00">+ create_db_tag_query()</text>
<text text-anchor="start" x="338" y="-769.5" font-family="Helvetica,sans-Serif" font-size="10.00"># BaseClient()</text>
<text text-anchor="start" x="338" y="-758.5" font-family="Helvetica,sans-Serif" font-size="10.00"># __connect()</text>
<text text-anchor="start" x="338" y="-747.5" font-family="Helvetica,sans-Serif" font-size="10.00"># __disconnect()</text>
</a>
</g>
<!-- Node10&#45;&gt;Node9 -->
<g id="edge18" class="edge"><title>Node10&#45;&gt;Node9</title>
<path fill="none" stroke="midnightblue" d="M438.483,-730.291C441.411,-720.826 444.43,-711.068 447.501,-701.137"/>
<polygon fill="none" stroke="midnightblue" points="435.078,-729.455 435.467,-740.043 441.766,-731.524 435.078,-729.455"/>
</g>
<!-- Node11 -->
<g id="node20" class="node"><title>Node11</title>
<a xlink:href="classMPD_1_1Listener.html" target="_top" xlink:title="Listener for Server events, Freya&#39;s actual core.">
<polygon fill="white" stroke="black" points="279,-1022.5 279,-1145.5 367,-1145.5 367,-1022.5 279,-1022.5"/>
<text text-anchor="middle" x="323" y="-1133.5" font-family="Helvetica,sans-Serif" font-size="10.00">MPD::Listener</text>
<polyline fill="none" stroke="black" points="279,-1126.5 367,-1126.5 "/>
<text text-anchor="middle" x="323" y="-1114.5" font-family="Helvetica,sans-Serif" font-size="10.00"> </text>
<polyline fill="none" stroke="black" points="279,-1107.5 367,-1107.5 "/>
<text text-anchor="start" x="287" y="-1095.5" font-family="Helvetica,sans-Serif" font-size="10.00">+ Listener()</text>
<text text-anchor="start" x="287" y="-1084.5" font-family="Helvetica,sans-Serif" font-size="10.00">+ ~Listener()</text>
<text text-anchor="start" x="287" y="-1073.5" font-family="Helvetica,sans-Serif" font-size="10.00">+ enter()</text>
<text text-anchor="start" x="287" y="-1062.5" font-family="Helvetica,sans-Serif" font-size="10.00">+ leave()</text>
<text text-anchor="start" x="287" y="-1051.5" font-family="Helvetica,sans-Serif" font-size="10.00">+ is_idling()</text>
<text text-anchor="start" x="287" y="-1040.5" font-family="Helvetica,sans-Serif" font-size="10.00">+ get_data()</text>
<text text-anchor="start" x="287" y="-1029.5" font-family="Helvetica,sans-Serif" font-size="10.00">+ force_update()</text>
</a>
</g>
<!-- Node11&#45;&gt;Node10 -->
<g id="edge20" class="edge"><title>Node11&#45;&gt;Node10</title>
<path fill="none" stroke="#404040" d="M329.833,-1022.39C332.669,-1005.21 336.601,-986.653 342,-970 342.73,-967.747 343.496,-965.483 344.293,-963.213"/>
<polygon fill="none" stroke="#404040" points="344.342,-963.08 342.683,-956.063 348.522,-951.832 350.182,-958.849 344.342,-963.08"/>
<text text-anchor="middle" x="370.5" y="-973.5" font-family="Helvetica,sans-Serif" font-size="10.00"> mp_Listener</text>
</g>
<!-- Node12 -->
<g id="node22" class="node"><title>Node12</title>
<polygon fill="white" stroke="#bfbfbf" points="385.5,-1055.5 385.5,-1112.5 420.5,-1112.5 420.5,-1055.5 385.5,-1055.5"/>
<text text-anchor="middle" x="403" y="-1100.5" font-family="Helvetica,sans-Serif" font-size="10.00">bool</text>
<polyline fill="none" stroke="#bfbfbf" points="385.5,-1093.5 420.5,-1093.5 "/>
<text text-anchor="middle" x="403" y="-1081.5" font-family="Helvetica,sans-Serif" font-size="10.00"> </text>
<polyline fill="none" stroke="#bfbfbf" points="385.5,-1074.5 420.5,-1074.5 "/>
<text text-anchor="middle" x="403" y="-1062.5" font-family="Helvetica,sans-Serif" font-size="10.00"> </text>
</g>
<!-- Node12&#45;&gt;Node10 -->
<g id="edge22" class="edge"><title>Node12&#45;&gt;Node10</title>
<path fill="none" stroke="#404040" d="M403,-1055.47C403,-1032.46 403,-997.994 403,-963.675"/>
<polygon fill="none" stroke="#404040" points="403,-963.562 399,-957.562 403,-951.562 407,-957.562 403,-963.562"/>
<text text-anchor="middle" x="433.5" y="-973.5" font-family="Helvetica,sans-Serif" font-size="10.00"> m_ListBegun</text>
</g>
<!-- Node13 -->
<g id="node24" class="node"><title>Node13</title>
<a xlink:href="classMPD_1_1Connection.html" target="_top" xlink:title="A convinience Wrapper around mpd_connection*.">
<polygon fill="white" stroke="black" points="439,-1000.5 439,-1167.5 585,-1167.5 585,-1000.5 439,-1000.5"/>
<text text-anchor="middle" x="512" y="-1155.5" font-family="Helvetica,sans-Serif" font-size="10.00">MPD::Connection</text>
<polyline fill="none" stroke="black" points="439,-1148.5 585,-1148.5 "/>
<text text-anchor="middle" x="512" y="-1136.5" font-family="Helvetica,sans-Serif" font-size="10.00"> </text>
<polyline fill="none" stroke="black" points="439,-1129.5 585,-1129.5 "/>
<text text-anchor="start" x="447" y="-1117.5" font-family="Helvetica,sans-Serif" font-size="10.00">+ Connection()</text>
<text text-anchor="start" x="447" y="-1106.5" font-family="Helvetica,sans-Serif" font-size="10.00">+ ~Connection()</text>
<text text-anchor="start" x="447" y="-1095.5" font-family="Helvetica,sans-Serif" font-size="10.00">+ is_connected()</text>
<text text-anchor="start" x="447" y="-1084.5" font-family="Helvetica,sans-Serif" font-size="10.00">+ connect()</text>
<text text-anchor="start" x="447" y="-1073.5" font-family="Helvetica,sans-Serif" font-size="10.00">+ disconnect()</text>
<text text-anchor="start" x="447" y="-1062.5" font-family="Helvetica,sans-Serif" font-size="10.00">+ clear_error()</text>
<text text-anchor="start" x="447" y="-1051.5" font-family="Helvetica,sans-Serif" font-size="10.00">+ check_error()</text>
<text text-anchor="start" x="447" y="-1040.5" font-family="Helvetica,sans-Serif" font-size="10.00">+ signal_error()</text>
<text text-anchor="start" x="447" y="-1029.5" font-family="Helvetica,sans-Serif" font-size="10.00">+ signal_connection_change()</text>
<text text-anchor="start" x="447" y="-1018.5" font-family="Helvetica,sans-Serif" font-size="10.00">+ emit_connection_change()</text>
<text text-anchor="start" x="447" y="-1007.5" font-family="Helvetica,sans-Serif" font-size="10.00">+ get_connection()</text>
</a>
</g>
<!-- Node13&#45;&gt;Node10 -->
<g id="edge24" class="edge"><title>Node13&#45;&gt;Node10</title>
<path fill="none" stroke="#404040" d="M481.13,-1000.45C476.895,-990.124 472.464,-979.765 468,-970 466.878,-967.546 465.731,-965.072 464.562,-962.584"/>
<polygon fill="none" stroke="#404040" points="464.49,-962.434 458.292,-958.748 459.311,-951.609 465.509,-955.295 464.49,-962.434"/>
<text text-anchor="middle" x="492" y="-973.5" font-family="Helvetica,sans-Serif" font-size="10.00"> m_Conn</text>
</g>
<!-- Node14 -->
<g id="node26" class="node"><title>Node14</title>
<a xlink:href="classMPD_1_1AbstractItemGenerator.html" target="_top" xlink:title="{MPD::AbstractItemGenerator\n||+ fill_queue()\l+ fill_queue_changes()\l+ fill_playlists()\l+ fill_outputs()\l+ fill_filelist()\l+ ~AbstractItemGenerator()\l}">
<polygon fill="white" stroke="black" points="494,-790 494,-902 638,-902 638,-790 494,-790"/>
<text text-anchor="middle" x="566" y="-890" font-family="Helvetica,sans-Serif" font-size="10.00">MPD::AbstractItemGenerator</text>
<polyline fill="none" stroke="black" points="494,-883 638,-883 "/>
<text text-anchor="middle" x="566" y="-871" font-family="Helvetica,sans-Serif" font-size="10.00"> </text>
<polyline fill="none" stroke="black" points="494,-864 638,-864 "/>
<text text-anchor="start" x="502" y="-852" font-family="Helvetica,sans-Serif" font-size="10.00">+ fill_queue()</text>
<text text-anchor="start" x="502" y="-841" font-family="Helvetica,sans-Serif" font-size="10.00">+ fill_queue_changes()</text>
<text text-anchor="start" x="502" y="-830" font-family="Helvetica,sans-Serif" font-size="10.00">+ fill_playlists()</text>
<text text-anchor="start" x="502" y="-819" font-family="Helvetica,sans-Serif" font-size="10.00">+ fill_outputs()</text>
<text text-anchor="start" x="502" y="-808" font-family="Helvetica,sans-Serif" font-size="10.00">+ fill_filelist()</text>
<text text-anchor="start" x="502" y="-797" font-family="Helvetica,sans-Serif" font-size="10.00">+ ~AbstractItemGenerator()</text>
</a>
</g>
<!-- Node14&#45;&gt;Node9 -->
<g id="edge26" class="edge"><title>Node14&#45;&gt;Node9</title>
<path fill="none" stroke="midnightblue" d="M557.789,-779.484C554.926,-756.644 551.529,-729.537 547.953,-701.008"/>
<polygon fill="none" stroke="midnightblue" points="554.348,-780.18 559.065,-789.667 561.294,-779.31 554.348,-780.18"/>
</g>
</g>
</svg>
