<?xml version="1.0" encoding="UTF-8" standalone="no"?>
<!DOCTYPE svg PUBLIC "-//W3C//DTD SVG 1.1//EN"
 "http://www.w3.org/Graphics/SVG/1.1/DTD/svg11.dtd">
<!-- Generated by graphviz version 2.28.0 (20111204.1018)
 -->
<!-- Title: G Pages: 1 -->
<svg width="322pt" height="66pt"
 viewBox="0.00 0.00 322.00 66.00" xmlns="http://www.w3.org/2000/svg" xmlns:xlink="http://www.w3.org/1999/xlink">
<g id="graph1" class="graph" transform="scale(1 1) rotate(0) translate(4 62)">
<title>G</title>
<polygon fill="white" stroke="white" points="-4,5 -4,-62 319,-62 319,5 -4,5"/>
<!-- Node1 -->
<g id="node1" class="node"><title>Node1</title>
<polygon fill="#bfbfbf" stroke="black" points="0,-19.5 0,-38.5 124,-38.5 124,-19.5 0,-19.5"/>
<text text-anchor="middle" x="62" y="-26.5" font-family="Helvetica,sans-Serif" font-size="10.00">MPD::Client::disconnect</text>
</g>
<!-- Node2 -->
<g id="node3" class="node"><title>Node2</title>
<a xlink:href="classMPDTestSuite.html#a3167bba8a9a950608f614becbeeb9b9a" target="_top" xlink:title="MPDTestSuite::tearDown">
<polygon fill="white" stroke="black" points="172.5,-38.5 172.5,-57.5 301.5,-57.5 301.5,-38.5 172.5,-38.5"/>
<text text-anchor="middle" x="237" y="-45.5" font-family="Helvetica,sans-Serif" font-size="10.00">MPDTestSuite::tearDown</text>
</a>
</g>
<!-- Node1&#45;&gt;Node2 -->
<g id="edge2" class="edge"><title>Node1&#45;&gt;Node2</title>
<path fill="none" stroke="midnightblue" d="M134.45,-36.8471C147.025,-38.2281 160.037,-39.6572 172.38,-41.0128"/>
<polygon fill="midnightblue" stroke="midnightblue" points="134.803,-33.3649 124.48,-35.7522 134.039,-40.3231 134.803,-33.3649"/>
</g>
<!-- Node3 -->
<g id="node5" class="node"><title>Node3</title>
<a xlink:href="classMPDTestSuite.html#a07b97bc2d75537a342505869c213943b" target="_top" xlink:title="MPDTestSuite::testDisconnect">
<polygon fill="white" stroke="black" points="160.5,-0.5 160.5,-19.5 313.5,-19.5 313.5,-0.5 160.5,-0.5"/>
<text text-anchor="middle" x="237" y="-7.5" font-family="Helvetica,sans-Serif" font-size="10.00">MPDTestSuite::testDisconnect</text>
</a>
</g>
<!-- Node1&#45;&gt;Node3 -->
<g id="edge4" class="edge"><title>Node1&#45;&gt;Node3</title>
<path fill="none" stroke="midnightblue" d="M134.45,-21.1529C143.04,-20.2094 151.835,-19.2435 160.481,-18.2939"/>
<polygon fill="midnightblue" stroke="midnightblue" points="134.039,-17.6769 124.48,-22.2478 134.803,-24.6351 134.039,-17.6769"/>
</g>
</g>
</svg>
