<?xml version="1.0" encoding="UTF-8" standalone="no"?>
<!DOCTYPE svg PUBLIC "-//W3C//DTD SVG 1.1//EN"
 "http://www.w3.org/Graphics/SVG/1.1/DTD/svg11.dtd">
<!-- Generated by graphviz version 2.28.0 (20111204.1018)
 -->
<!-- Title: G Pages: 1 -->
<svg width="460pt" height="228pt"
 viewBox="0.00 0.00 460.00 228.00" xmlns="http://www.w3.org/2000/svg" xmlns:xlink="http://www.w3.org/1999/xlink">
<g id="graph1" class="graph" transform="scale(1 1) rotate(0) translate(4 224)">
<title>G</title>
<polygon fill="white" stroke="white" points="-4,5 -4,-224 457,-224 457,5 -4,5"/>
<!-- Node1 -->
<g id="node1" class="node"><title>Node1</title>
<polygon fill="#bfbfbf" stroke="black" points="114,-1 114,-91 254,-91 254,-1 114,-1"/>
<text text-anchor="middle" x="184" y="-79" font-family="Helvetica,sans-Serif" font-size="10.00">Avahi::View::ModelColumns</text>
<polyline fill="none" stroke="black" points="114,-72 254,-72 "/>
<text text-anchor="start" x="122" y="-60" font-family="Helvetica,sans-Serif" font-size="10.00">+ m_col_ip</text>
<text text-anchor="start" x="122" y="-49" font-family="Helvetica,sans-Serif" font-size="10.00">+ m_col_hostname</text>
<text text-anchor="start" x="122" y="-38" font-family="Helvetica,sans-Serif" font-size="10.00">+ m_col_name</text>
<text text-anchor="start" x="122" y="-27" font-family="Helvetica,sans-Serif" font-size="10.00">+ m_col_port</text>
<polyline fill="none" stroke="black" points="114,-20 254,-20 "/>
<text text-anchor="start" x="122" y="-8" font-family="Helvetica,sans-Serif" font-size="10.00">+ ModelColumns()</text>
</g>
<!-- Node2 -->
<g id="node2" class="node"><title>Node2</title>
<a xlink:href="classGtk_1_1TreeModel_1_1ColumnRecord.html" target="_top" xlink:title="{ColumnRecord\n||}">
<polygon fill="white" stroke="black" points="0,-162.5 0,-219.5 82,-219.5 82,-162.5 0,-162.5"/>
<text text-anchor="middle" x="41" y="-207.5" font-family="Helvetica,sans-Serif" font-size="10.00">ColumnRecord</text>
<polyline fill="none" stroke="black" points="0,-200.5 82,-200.5 "/>
<text text-anchor="middle" x="41" y="-188.5" font-family="Helvetica,sans-Serif" font-size="10.00"> </text>
<polyline fill="none" stroke="black" points="0,-181.5 82,-181.5 "/>
<text text-anchor="middle" x="41" y="-169.5" font-family="Helvetica,sans-Serif" font-size="10.00"> </text>
</a>
</g>
<!-- Node2&#45;&gt;Node1 -->
<g id="edge2" class="edge"><title>Node2&#45;&gt;Node1</title>
<path fill="none" stroke="midnightblue" d="M75.7162,-155.284C95.0326,-135.967 119.271,-111.729 139.916,-91.0837"/>
<polygon fill="none" stroke="midnightblue" points="73.1681,-152.882 68.5718,-162.428 78.1178,-157.832 73.1681,-152.882"/>
</g>
<!-- Node3 -->
<g id="node4" class="node"><title>Node3</title>
<polygon fill="white" stroke="#bfbfbf" points="100.5,-162.5 100.5,-219.5 267.5,-219.5 267.5,-162.5 100.5,-162.5"/>
<text text-anchor="middle" x="184" y="-207.5" font-family="Helvetica,sans-Serif" font-size="10.00">TreeModelColumn&lt; unsigned int &gt;</text>
<polyline fill="none" stroke="#bfbfbf" points="100.5,-200.5 267.5,-200.5 "/>
<text text-anchor="middle" x="184" y="-188.5" font-family="Helvetica,sans-Serif" font-size="10.00"> </text>
<polyline fill="none" stroke="#bfbfbf" points="100.5,-181.5 267.5,-181.5 "/>
<text text-anchor="middle" x="184" y="-169.5" font-family="Helvetica,sans-Serif" font-size="10.00"> </text>
</g>
<!-- Node3&#45;&gt;Node1 -->
<g id="edge4" class="edge"><title>Node3&#45;&gt;Node1</title>
<path fill="none" stroke="#404040" d="M184,-162.428C184,-145.614 184,-123.507 184,-103.145"/>
<polygon fill="none" stroke="#404040" points="184,-103.084 180,-97.0838 184,-91.0837 188,-97.0837 184,-103.084"/>
<text text-anchor="middle" x="210" y="-124.5" font-family="Helvetica,sans-Serif" font-size="10.00"> m_col_port</text>
</g>
<!-- Node4 -->
<g id="node6" class="node"><title>Node4</title>
<polygon fill="white" stroke="#bfbfbf" points="285.5,-162.5 285.5,-219.5 452.5,-219.5 452.5,-162.5 285.5,-162.5"/>
<text text-anchor="middle" x="369" y="-207.5" font-family="Helvetica,sans-Serif" font-size="10.00">TreeModelColumn&lt; Glib::ustring &gt;</text>
<polyline fill="none" stroke="#bfbfbf" points="285.5,-200.5 452.5,-200.5 "/>
<text text-anchor="middle" x="369" y="-188.5" font-family="Helvetica,sans-Serif" font-size="10.00"> </text>
<polyline fill="none" stroke="#bfbfbf" points="285.5,-181.5 452.5,-181.5 "/>
<text text-anchor="middle" x="369" y="-169.5" font-family="Helvetica,sans-Serif" font-size="10.00"> </text>
</g>
<!-- Node4&#45;&gt;Node1 -->
<g id="edge6" class="edge"><title>Node4&#45;&gt;Node1</title>
<path fill="none" stroke="#404040" d="M333.33,-162.428C309.943,-144.351 278.643,-120.156 250.741,-98.5886"/>
<polygon fill="none" stroke="#404040" points="250.526,-98.4226 243.332,-97.918 241.031,-91.0837 248.225,-91.5884 250.526,-98.4226"/>
<text text-anchor="middle" x="349" y="-135.5" font-family="Helvetica,sans-Serif" font-size="10.00"> m_col_hostname</text>
<text text-anchor="middle" x="349" y="-124.5" font-family="Helvetica,sans-Serif" font-size="10.00">m_col_name</text>
<text text-anchor="middle" x="349" y="-113.5" font-family="Helvetica,sans-Serif" font-size="10.00">m_col_ip</text>
</g>
</g>
</svg>
