<?xml version="1.0" encoding="UTF-8" standalone="no"?>
<!DOCTYPE svg PUBLIC "-//W3C//DTD SVG 1.1//EN"
 "http://www.w3.org/Graphics/SVG/1.1/DTD/svg11.dtd">
<!-- Generated by graphviz version 2.28.0 (20111204.1018)
 -->
<!-- Title: G Pages: 1 -->
<svg width="518pt" height="238pt"
 viewBox="0.00 0.00 518.00 238.00" xmlns="http://www.w3.org/2000/svg" xmlns:xlink="http://www.w3.org/1999/xlink">
<g id="graph1" class="graph" transform="scale(1 1) rotate(0) translate(4 234)">
<title>G</title>
<polygon fill="white" stroke="white" points="-4,5 -4,-234 515,-234 515,5 -4,5"/>
<!-- Node1 -->
<g id="node1" class="node"><title>Node1</title>
<polygon fill="#bfbfbf" stroke="black" points="173,-0.5 173,-101.5 325,-101.5 325,-0.5 173,-0.5"/>
<text text-anchor="middle" x="249" y="-89.5" font-family="Helvetica,sans-Serif" font-size="10.00">Browser::QueueModelColumns</text>
<polyline fill="none" stroke="black" points="173,-82.5 325,-82.5 "/>
<text text-anchor="start" x="181" y="-70.5" font-family="Helvetica,sans-Serif" font-size="10.00">+ m_col_id</text>
<text text-anchor="start" x="181" y="-59.5" font-family="Helvetica,sans-Serif" font-size="10.00">+ m_col_pos</text>
<text text-anchor="start" x="181" y="-48.5" font-family="Helvetica,sans-Serif" font-size="10.00">+ m_col_title</text>
<text text-anchor="start" x="181" y="-37.5" font-family="Helvetica,sans-Serif" font-size="10.00">+ m_col_album</text>
<text text-anchor="start" x="181" y="-26.5" font-family="Helvetica,sans-Serif" font-size="10.00">+ m_col_artist</text>
<polyline fill="none" stroke="black" points="173,-19.5 325,-19.5 "/>
<text text-anchor="start" x="181" y="-7.5" font-family="Helvetica,sans-Serif" font-size="10.00">+ QueueModelColumns()</text>
</g>
<!-- Node2 -->
<g id="node2" class="node"><title>Node2</title>
<a xlink:href="classGtk_1_1TreeModel_1_1ColumnRecord.html" target="_top" xlink:title="{Gtk::TreeModel::ColumnRecord\n||}">
<polygon fill="white" stroke="black" points="-0.5,-172.5 -0.5,-229.5 154.5,-229.5 154.5,-172.5 -0.5,-172.5"/>
<text text-anchor="middle" x="77" y="-217.5" font-family="Helvetica,sans-Serif" font-size="10.00">Gtk::TreeModel::ColumnRecord</text>
<polyline fill="none" stroke="black" points="-0.5,-210.5 154.5,-210.5 "/>
<text text-anchor="middle" x="77" y="-198.5" font-family="Helvetica,sans-Serif" font-size="10.00"> </text>
<polyline fill="none" stroke="black" points="-0.5,-191.5 154.5,-191.5 "/>
<text text-anchor="middle" x="77" y="-179.5" font-family="Helvetica,sans-Serif" font-size="10.00"> </text>
</a>
</g>
<!-- Node2&#45;&gt;Node1 -->
<g id="edge2" class="edge"><title>Node2&#45;&gt;Node1</title>
<path fill="none" stroke="midnightblue" d="M117.21,-165.401C139.283,-146.407 167.038,-122.526 191.377,-101.583"/>
<polygon fill="none" stroke="midnightblue" points="114.649,-162.987 109.352,-172.162 119.215,-168.293 114.649,-162.987"/>
</g>
<!-- Node3 -->
<g id="node4" class="node"><title>Node3</title>
<polygon fill="white" stroke="#bfbfbf" points="172.5,-172.5 172.5,-229.5 325.5,-229.5 325.5,-172.5 172.5,-172.5"/>
<text text-anchor="middle" x="249" y="-217.5" font-family="Helvetica,sans-Serif" font-size="10.00">TreeModelColumn&lt; unsigned &gt;</text>
<polyline fill="none" stroke="#bfbfbf" points="172.5,-210.5 325.5,-210.5 "/>
<text text-anchor="middle" x="249" y="-198.5" font-family="Helvetica,sans-Serif" font-size="10.00"> </text>
<polyline fill="none" stroke="#bfbfbf" points="172.5,-191.5 325.5,-191.5 "/>
<text text-anchor="middle" x="249" y="-179.5" font-family="Helvetica,sans-Serif" font-size="10.00"> </text>
</g>
<!-- Node3&#45;&gt;Node1 -->
<g id="edge4" class="edge"><title>Node3&#45;&gt;Node1</title>
<path fill="none" stroke="#404040" d="M249,-172.162C249,-155.651 249,-134.034 249,-113.693"/>
<polygon fill="none" stroke="#404040" points="249,-113.583 245,-107.583 249,-101.583 253,-107.582 249,-113.583"/>
<text text-anchor="middle" x="273" y="-140" font-family="Helvetica,sans-Serif" font-size="10.00"> m_col_id</text>
<text text-anchor="middle" x="273" y="-129" font-family="Helvetica,sans-Serif" font-size="10.00">m_col_pos</text>
</g>
<!-- Node4 -->
<g id="node6" class="node"><title>Node4</title>
<polygon fill="white" stroke="#bfbfbf" points="343.5,-172.5 343.5,-229.5 510.5,-229.5 510.5,-172.5 343.5,-172.5"/>
<text text-anchor="middle" x="427" y="-217.5" font-family="Helvetica,sans-Serif" font-size="10.00">TreeModelColumn&lt; Glib::ustring &gt;</text>
<polyline fill="none" stroke="#bfbfbf" points="343.5,-210.5 510.5,-210.5 "/>
<text text-anchor="middle" x="427" y="-198.5" font-family="Helvetica,sans-Serif" font-size="10.00"> </text>
<polyline fill="none" stroke="#bfbfbf" points="343.5,-191.5 510.5,-191.5 "/>
<text text-anchor="middle" x="427" y="-179.5" font-family="Helvetica,sans-Serif" font-size="10.00"> </text>
</g>
<!-- Node4&#45;&gt;Node1 -->
<g id="edge6" class="edge"><title>Node4&#45;&gt;Node1</title>
<path fill="none" stroke="#404040" d="M393.52,-172.162C372.262,-154.488 343.97,-130.964 318.055,-109.417"/>
<polygon fill="none" stroke="#404040" points="317.86,-109.255 310.689,-108.494 308.633,-101.583 315.804,-102.343 317.86,-109.255"/>
<text text-anchor="middle" x="399.5" y="-145.5" font-family="Helvetica,sans-Serif" font-size="10.00"> m_col_album</text>
<text text-anchor="middle" x="399.5" y="-134.5" font-family="Helvetica,sans-Serif" font-size="10.00">m_col_artist</text>
<text text-anchor="middle" x="399.5" y="-123.5" font-family="Helvetica,sans-Serif" font-size="10.00">m_col_title</text>
</g>
</g>
</svg>
