<?xml version="1.0" encoding="UTF-8" standalone="no"?>
<!DOCTYPE svg PUBLIC "-//W3C//DTD SVG 1.1//EN"
 "http://www.w3.org/Graphics/SVG/1.1/DTD/svg11.dtd">
<!-- Generated by graphviz version 2.28.0 (20111204.1018)
 -->
<!-- Title: G Pages: 1 -->
<svg width="122pt" height="226pt"
 viewBox="0.00 0.00 122.00 226.00" xmlns="http://www.w3.org/2000/svg" xmlns:xlink="http://www.w3.org/1999/xlink">
<g id="graph1" class="graph" transform="scale(1 1) rotate(0) translate(4 222)">
<title>G</title>
<polygon fill="white" stroke="white" points="-4,5 -4,-222 119,-222 119,5 -4,5"/>
<!-- Node1 -->
<g id="node1" class="node"><title>Node1</title>
<polygon fill="#bfbfbf" stroke="black" points="-0.5,-0.5 -0.5,-57.5 114.5,-57.5 114.5,-0.5 -0.5,-0.5"/>
<text text-anchor="middle" x="57" y="-45.5" font-family="Helvetica,sans-Serif" font-size="10.00">Browser::QueuePopup</text>
<polyline fill="none" stroke="black" points="-0.5,-38.5 114.5,-38.5 "/>
<text text-anchor="middle" x="57" y="-26.5" font-family="Helvetica,sans-Serif" font-size="10.00"> </text>
<polyline fill="none" stroke="black" points="-0.5,-19.5 114.5,-19.5 "/>
<text text-anchor="start" x="7.5" y="-7.5" font-family="Helvetica,sans-Serif" font-size="10.00">+ QueuePopup()</text>
</g>
<!-- Node2 -->
<g id="node2" class="node"><title>Node2</title>
<a xlink:href="classBrowser_1_1BasePopup.html" target="_top" xlink:title="A Baseclass for Widgets that want to implement easily popup widgets.">
<polygon fill="white" stroke="black" points="2.5,-94.5 2.5,-217.5 111.5,-217.5 111.5,-94.5 2.5,-94.5"/>
<text text-anchor="middle" x="57" y="-205.5" font-family="Helvetica,sans-Serif" font-size="10.00">Browser::BasePopup</text>
<polyline fill="none" stroke="black" points="2.5,-198.5 111.5,-198.5 "/>
<text text-anchor="start" x="10.5" y="-186.5" font-family="Helvetica,sans-Serif" font-size="10.00"># m_refUIManager</text>
<text text-anchor="start" x="10.5" y="-175.5" font-family="Helvetica,sans-Serif" font-size="10.00"># m_refActionGroup</text>
<text text-anchor="start" x="10.5" y="-164.5" font-family="Helvetica,sans-Serif" font-size="10.00"># m_UiDefinition</text>
<text text-anchor="start" x="10.5" y="-153.5" font-family="Helvetica,sans-Serif" font-size="10.00"># mp_Popup</text>
<polyline fill="none" stroke="black" points="2.5,-146.5 111.5,-146.5 "/>
<text text-anchor="start" x="10.5" y="-134.5" font-family="Helvetica,sans-Serif" font-size="10.00">+ BasePopup()</text>
<text text-anchor="start" x="10.5" y="-123.5" font-family="Helvetica,sans-Serif" font-size="10.00">+ get_action()</text>
<text text-anchor="start" x="10.5" y="-112.5" font-family="Helvetica,sans-Serif" font-size="10.00"># menu_add_item()</text>
<text text-anchor="start" x="10.5" y="-101.5" font-family="Helvetica,sans-Serif" font-size="10.00"># menu_construct()</text>
</a>
</g>
<!-- Node2&#45;&gt;Node1 -->
<g id="edge2" class="edge"><title>Node2&#45;&gt;Node1</title>
<path fill="none" stroke="midnightblue" d="M57,-84.1384C57,-74.7999 57,-65.715 57,-57.7379"/>
<polygon fill="none" stroke="midnightblue" points="53.5001,-84.3308 57,-94.3308 60.5001,-84.3309 53.5001,-84.3308"/>
</g>
</g>
</svg>
