<?xml version="1.0" encoding="UTF-8" standalone="no"?>
<!DOCTYPE svg PUBLIC "-//W3C//DTD SVG 1.1//EN"
 "http://www.w3.org/Graphics/SVG/1.1/DTD/svg11.dtd">
<!-- Generated by graphviz version 2.28.0 (20111204.1018)
 -->
<!-- Title: G Pages: 1 -->
<svg width="626pt" height="85pt"
 viewBox="0.00 0.00 626.00 85.00" xmlns="http://www.w3.org/2000/svg" xmlns:xlink="http://www.w3.org/1999/xlink">
<g id="graph1" class="graph" transform="scale(1 1) rotate(0) translate(4 81)">
<title>G</title>
<polygon fill="white" stroke="white" points="-4,5 -4,-81 623,-81 623,5 -4,5"/>
<!-- Node1 -->
<g id="node1" class="node"><title>Node1</title>
<polygon fill="#bfbfbf" stroke="black" points="0.5,-19.5 0.5,-38.5 157.5,-38.5 157.5,-19.5 0.5,-19.5"/>
<text text-anchor="middle" x="79" y="-26.5" font-family="Helvetica,sans-Serif" font-size="10.00">MPD::BaseClient::is_connected</text>
</g>
<!-- Node2 -->
<g id="node3" class="node"><title>Node2</title>
<a xlink:href="classMPD_1_1AbstractClientExtension.html#a80cba49b38e27a09b53d87420b2015cb" target="_top" xlink:title="Get the underlying C struct.">
<polygon fill="white" stroke="black" points="194.5,-57.5 194.5,-76.5 427.5,-76.5 427.5,-57.5 194.5,-57.5"/>
<text text-anchor="middle" x="311" y="-64.5" font-family="Helvetica,sans-Serif" font-size="10.00">MPD::AbstractClientExtension::get_c_connection</text>
</a>
</g>
<!-- Node1&#45;&gt;Node2 -->
<g id="edge2" class="edge"><title>Node1&#45;&gt;Node2</title>
<path fill="none" stroke="midnightblue" d="M146.84,-40.1722C162.323,-42.7512 178.735,-45.4778 194,-48 212.725,-51.0939 233.154,-54.4474 251.578,-57.4635"/>
<polygon fill="midnightblue" stroke="midnightblue" points="147.261,-36.6941 136.821,-38.5024 146.11,-43.5988 147.261,-36.6941"/>
</g>
<!-- Node3 -->
<g id="node5" class="node"><title>Node3</title>
<a xlink:href="classMPDTestSuite.html#a7438969cafa19ab3353b42c119851d7b" target="_top" xlink:title="MPDTestSuite::testConnect">
<polygon fill="white" stroke="black" points="241,-19.5 241,-38.5 381,-38.5 381,-19.5 241,-19.5"/>
<text text-anchor="middle" x="311" y="-26.5" font-family="Helvetica,sans-Serif" font-size="10.00">MPDTestSuite::testConnect</text>
</a>
</g>
<!-- Node1&#45;&gt;Node3 -->
<g id="edge4" class="edge"><title>Node1&#45;&gt;Node3</title>
<path fill="none" stroke="midnightblue" d="M167.802,-29C192.004,-29 217.912,-29 240.894,-29"/>
<polygon fill="midnightblue" stroke="midnightblue" points="167.547,-25.5001 157.547,-29 167.547,-32.5001 167.547,-25.5001"/>
</g>
<!-- Node4 -->
<g id="node7" class="node"><title>Node4</title>
<a xlink:href="classMPDTestSuite.html#a07b97bc2d75537a342505869c213943b" target="_top" xlink:title="MPDTestSuite::testDisconnect">
<polygon fill="white" stroke="black" points="464.5,-0.5 464.5,-19.5 617.5,-19.5 617.5,-0.5 464.5,-0.5"/>
<text text-anchor="middle" x="541" y="-7.5" font-family="Helvetica,sans-Serif" font-size="10.00">MPDTestSuite::testDisconnect</text>
</a>
</g>
<!-- Node1&#45;&gt;Node4 -->
<g id="edge8" class="edge"><title>Node1&#45;&gt;Node4</title>
<path fill="none" stroke="midnightblue" d="M136.305,-17.7229C154.624,-14.5623 175.103,-11.5639 194,-10 286.79,-2.32043 394.058,-3.94034 464.256,-6.41391"/>
<polygon fill="midnightblue" stroke="midnightblue" points="135.607,-14.292 126.373,-19.4874 136.831,-21.184 135.607,-14.292"/>
</g>
<!-- Node3&#45;&gt;Node4 -->
<g id="edge6" class="edge"><title>Node3&#45;&gt;Node4</title>
<path fill="none" stroke="midnightblue" d="M391.071,-22.4108C414.86,-20.4283 440.896,-18.2586 464.452,-16.2957"/>
<polygon fill="midnightblue" stroke="midnightblue" points="390.701,-18.9294 381.026,-23.2478 391.282,-25.9052 390.701,-18.9294"/>
</g>
</g>
</svg>
