<?xml version="1.0" encoding="UTF-8" standalone="no"?>
<!DOCTYPE svg PUBLIC "-//W3C//DTD SVG 1.1//EN"
 "http://www.w3.org/Graphics/SVG/1.1/DTD/svg11.dtd">
<!-- Generated by graphviz version 2.28.0 (20120217.0315)
 -->
<!-- Title: G Pages: 1 -->
<svg width="2735pt" height="292pt"
 viewBox="0.00 0.00 2735.00 292.00" xmlns="http://www.w3.org/2000/svg" xmlns:xlink="http://www.w3.org/1999/xlink">
<g id="graph1" class="graph" transform="scale(1 1) rotate(0) translate(4 288)">
<title>G</title>
<polygon fill="white" stroke="white" points="-4,5 -4,-288 2732,-288 2732,5 -4,5"/>
<!-- Node1 -->
<g id="node1" class="node"><title>Node1</title>
<polygon fill="#bfbfbf" stroke="black" points="1309.5,-204.5 1309.5,-283.5 1440.5,-283.5 1440.5,-204.5 1309.5,-204.5"/>
<text text-anchor="middle" x="1375" y="-271.5" font-family="Helvetica,sans-Serif" font-size="10.00">MPD::AbstractClientUser</text>
<polyline fill="none" stroke="black" points="1309.5,-264.5 1440.5,-264.5 "/>
<text text-anchor="start" x="1317.5" y="-252.5" font-family="Helvetica,sans-Serif" font-size="10.00"># mp_Client</text>
<polyline fill="none" stroke="black" points="1309.5,-245.5 1440.5,-245.5 "/>
<text text-anchor="start" x="1317.5" y="-233.5" font-family="Helvetica,sans-Serif" font-size="10.00">+ AbstractClientUser()</text>
<text text-anchor="start" x="1317.5" y="-222.5" font-family="Helvetica,sans-Serif" font-size="10.00"># on_client_update()</text>
<text text-anchor="start" x="1317.5" y="-211.5" font-family="Helvetica,sans-Serif" font-size="10.00"># on_connection_change()</text>
</g>
<!-- Node2 -->
<g id="node3" class="node"><title>Node2</title>
<a xlink:href="classBrowser_1_1Database.html" target="_top" xlink:title="The Database Browser.">
<polygon fill="white" stroke="black" points="-0.5,-39 -0.5,-129 100.5,-129 100.5,-39 -0.5,-39"/>
<text text-anchor="middle" x="50" y="-117" font-family="Helvetica,sans-Serif" font-size="10.00">Browser::Database</text>
<polyline fill="none" stroke="black" points="-0.5,-110 100.5,-110 "/>
<text text-anchor="middle" x="50" y="-98" font-family="Helvetica,sans-Serif" font-size="10.00"> </text>
<polyline fill="none" stroke="black" points="-0.5,-91 100.5,-91 "/>
<text text-anchor="start" x="7.5" y="-79" font-family="Helvetica,sans-Serif" font-size="10.00">+ Database()</text>
<text text-anchor="start" x="7.5" y="-68" font-family="Helvetica,sans-Serif" font-size="10.00">+ ~Database()</text>
<text text-anchor="start" x="7.5" y="-57" font-family="Helvetica,sans-Serif" font-size="10.00">+ get_container()</text>
<text text-anchor="start" x="7.5" y="-46" font-family="Helvetica,sans-Serif" font-size="10.00">+ add_item()</text>
</a>
</g>
<!-- Node1&#45;&gt;Node2 -->
<g id="edge2" class="edge"><title>Node1&#45;&gt;Node2</title>
<path fill="none" stroke="midnightblue" d="M1299.13,-242.295C1041.88,-239.387 212.94,-225.595 109,-168 93.0721,-159.174 80.4103,-144.014 70.9647,-129.046"/>
<polygon fill="none" stroke="midnightblue" points="1299.46,-245.799 1309.5,-242.41 1299.54,-238.799 1299.46,-245.799"/>
</g>
<!-- Node3 -->
<g id="node5" class="node"><title>Node3</title>
<a xlink:href="classBrowser_1_1DatabaseCache.html" target="_top" xlink:title="Acts as a Proxy betwenn Browser::Database and MPD::Client, but caches requested data.">
<polygon fill="white" stroke="black" points="118.5,-17 118.5,-151 247.5,-151 247.5,-17 118.5,-17"/>
<text text-anchor="middle" x="183" y="-139" font-family="Helvetica,sans-Serif" font-size="10.00">Browser::DatabaseCache</text>
<polyline fill="none" stroke="black" points="118.5,-132 247.5,-132 "/>
<text text-anchor="middle" x="183" y="-120" font-family="Helvetica,sans-Serif" font-size="10.00"> </text>
<polyline fill="none" stroke="black" points="118.5,-113 247.5,-113 "/>
<text text-anchor="start" x="126.5" y="-101" font-family="Helvetica,sans-Serif" font-size="10.00">+ DatabaseCache()</text>
<text text-anchor="start" x="126.5" y="-90" font-family="Helvetica,sans-Serif" font-size="10.00">+ ~DatabaseCache()</text>
<text text-anchor="start" x="126.5" y="-79" font-family="Helvetica,sans-Serif" font-size="10.00">+ fill_filelist()</text>
<text text-anchor="start" x="126.5" y="-68" font-family="Helvetica,sans-Serif" font-size="10.00">+ add_item()</text>
<text text-anchor="start" x="126.5" y="-57" font-family="Helvetica,sans-Serif" font-size="10.00">+ fill_queue()</text>
<text text-anchor="start" x="126.5" y="-46" font-family="Helvetica,sans-Serif" font-size="10.00">+ fill_queue_changes()</text>
<text text-anchor="start" x="126.5" y="-35" font-family="Helvetica,sans-Serif" font-size="10.00">+ fill_playlists()</text>
<text text-anchor="start" x="126.5" y="-24" font-family="Helvetica,sans-Serif" font-size="10.00">+ fill_outputs()</text>
</a>
</g>
<!-- Node1&#45;&gt;Node3 -->
<g id="edge4" class="edge"><title>Node1&#45;&gt;Node3</title>
<path fill="none" stroke="midnightblue" d="M1299.04,-241.251C1062.45,-235.343 349.024,-213.877 256,-168 247.222,-163.671 239.045,-157.773 231.577,-151.103"/>
<polygon fill="none" stroke="midnightblue" points="1299.19,-244.756 1309.27,-241.504 1299.36,-237.758 1299.19,-244.756"/>
</g>
<!-- Node4 -->
<g id="node7" class="node"><title>Node4</title>
<a xlink:href="classBrowser_1_1NowPlaying.html" target="_top" xlink:title="{Browser::NowPlaying\n||+ NowPlaying()\l+ get_container()\l}">
<polygon fill="white" stroke="black" points="265.5,-50 265.5,-118 376.5,-118 376.5,-50 265.5,-50"/>
<text text-anchor="middle" x="321" y="-106" font-family="Helvetica,sans-Serif" font-size="10.00">Browser::NowPlaying</text>
<polyline fill="none" stroke="black" points="265.5,-99 376.5,-99 "/>
<text text-anchor="middle" x="321" y="-87" font-family="Helvetica,sans-Serif" font-size="10.00"> </text>
<polyline fill="none" stroke="black" points="265.5,-80 376.5,-80 "/>
<text text-anchor="start" x="273.5" y="-68" font-family="Helvetica,sans-Serif" font-size="10.00">+ NowPlaying()</text>
<text text-anchor="start" x="273.5" y="-57" font-family="Helvetica,sans-Serif" font-size="10.00">+ get_container()</text>
</a>
</g>
<!-- Node1&#45;&gt;Node4 -->
<g id="edge6" class="edge"><title>Node1&#45;&gt;Node4</title>
<path fill="none" stroke="midnightblue" d="M1299.29,-240.763C1081.84,-233.852 465.829,-210.688 386,-168 365.341,-156.953 349.091,-136.203 338.006,-118.214"/>
<polygon fill="none" stroke="midnightblue" points="1299.24,-244.263 1309.34,-241.08 1299.46,-237.267 1299.24,-244.263"/>
</g>
<!-- Node5 -->
<g id="node9" class="node"><title>Node5</title>
<a xlink:href="classBrowser_1_1PlaylistAddDialog.html" target="_top" xlink:title="Shows a simple dialog when a new playlist needs to be saved.">
<polygon fill="white" stroke="black" points="395,-44.5 395,-123.5 531,-123.5 531,-44.5 395,-44.5"/>
<text text-anchor="middle" x="463" y="-111.5" font-family="Helvetica,sans-Serif" font-size="10.00">Browser::PlaylistAddDialog</text>
<polyline fill="none" stroke="black" points="395,-104.5 531,-104.5 "/>
<text text-anchor="middle" x="463" y="-92.5" font-family="Helvetica,sans-Serif" font-size="10.00"> </text>
<polyline fill="none" stroke="black" points="395,-85.5 531,-85.5 "/>
<text text-anchor="start" x="403" y="-73.5" font-family="Helvetica,sans-Serif" font-size="10.00">+ PlaylistAddDialog()</text>
<text text-anchor="start" x="403" y="-62.5" font-family="Helvetica,sans-Serif" font-size="10.00">+ ~PlaylistAddDialog()</text>
<text text-anchor="start" x="403" y="-51.5" font-family="Helvetica,sans-Serif" font-size="10.00">+ run()</text>
</a>
</g>
<!-- Node1&#45;&gt;Node5 -->
<g id="edge8" class="edge"><title>Node1&#45;&gt;Node5</title>
<path fill="none" stroke="midnightblue" d="M1299.33,-243.055C1119.68,-242.104 672.58,-233.065 540,-168 519.708,-158.041 502.109,-140.281 488.878,-123.737"/>
<polygon fill="none" stroke="midnightblue" points="1299.47,-246.556 1309.49,-243.102 1299.5,-239.556 1299.47,-246.556"/>
</g>
<!-- Node6 -->
<g id="node11" class="node"><title>Node6</title>
<a xlink:href="classBrowser_1_1PlaylistManager.html" target="_top" xlink:title="Shows a list of stored playlists.">
<polygon fill="white" stroke="black" points="549,-44.5 549,-123.5 677,-123.5 677,-44.5 549,-44.5"/>
<text text-anchor="middle" x="613" y="-111.5" font-family="Helvetica,sans-Serif" font-size="10.00">Browser::PlaylistManager</text>
<polyline fill="none" stroke="black" points="549,-104.5 677,-104.5 "/>
<text text-anchor="middle" x="613" y="-92.5" font-family="Helvetica,sans-Serif" font-size="10.00"> </text>
<polyline fill="none" stroke="black" points="549,-85.5 677,-85.5 "/>
<text text-anchor="start" x="557" y="-73.5" font-family="Helvetica,sans-Serif" font-size="10.00">+ PlaylistManager()</text>
<text text-anchor="start" x="557" y="-62.5" font-family="Helvetica,sans-Serif" font-size="10.00">+ ~PlaylistManager()</text>
<text text-anchor="start" x="557" y="-51.5" font-family="Helvetica,sans-Serif" font-size="10.00">+ get_container()</text>
</a>
</g>
<!-- Node1&#45;&gt;Node6 -->
<g id="edge10" class="edge"><title>Node1&#45;&gt;Node6</title>
<path fill="none" stroke="midnightblue" d="M1299.25,-241.599C1143.1,-237.614 791.277,-222.664 686,-168 666.414,-157.83 649.694,-140.048 637.217,-123.545"/>
<polygon fill="none" stroke="midnightblue" points="1299.16,-245.097 1309.24,-241.845 1299.33,-238.1 1299.16,-245.097"/>
</g>
<!-- Node7 -->
<g id="node13" class="node"><title>Node7</title>
<a xlink:href="classBrowser_1_1Queue.html" target="_top" xlink:title="Shows a list of songs in the current playlist.">
<polygon fill="white" stroke="black" points="695,-44.5 695,-123.5 785,-123.5 785,-44.5 695,-44.5"/>
<text text-anchor="middle" x="740" y="-111.5" font-family="Helvetica,sans-Serif" font-size="10.00">Browser::Queue</text>
<polyline fill="none" stroke="black" points="695,-104.5 785,-104.5 "/>
<text text-anchor="middle" x="740" y="-92.5" font-family="Helvetica,sans-Serif" font-size="10.00"> </text>
<polyline fill="none" stroke="black" points="695,-85.5 785,-85.5 "/>
<text text-anchor="start" x="703" y="-73.5" font-family="Helvetica,sans-Serif" font-size="10.00">+ Queue()</text>
<text text-anchor="start" x="703" y="-62.5" font-family="Helvetica,sans-Serif" font-size="10.00">+ ~Queue()</text>
<text text-anchor="start" x="703" y="-51.5" font-family="Helvetica,sans-Serif" font-size="10.00">+ get_container()</text>
</a>
</g>
<!-- Node1&#45;&gt;Node7 -->
<g id="edge12" class="edge"><title>Node1&#45;&gt;Node7</title>
<path fill="none" stroke="midnightblue" d="M1299.34,-241.011C1161.62,-236.139 876.586,-219.914 794,-168 777.408,-157.57 764.885,-139.97 756.097,-123.654"/>
<polygon fill="none" stroke="midnightblue" points="1299.28,-244.511 1309.4,-241.356 1299.52,-237.515 1299.28,-244.511"/>
</g>
<!-- Node8 -->
<g id="node15" class="node"><title>Node8</title>
<a xlink:href="classBrowser_1_1QueueMerger.html" target="_top" xlink:title="This class manages the updating and merging of the Queue.">
<polygon fill="white" stroke="black" points="803.5,-39 803.5,-129 926.5,-129 926.5,-39 803.5,-39"/>
<text text-anchor="middle" x="865" y="-117" font-family="Helvetica,sans-Serif" font-size="10.00">Browser::QueueMerger</text>
<polyline fill="none" stroke="black" points="803.5,-110 926.5,-110 "/>
<text text-anchor="middle" x="865" y="-98" font-family="Helvetica,sans-Serif" font-size="10.00"> </text>
<polyline fill="none" stroke="black" points="803.5,-91 926.5,-91 "/>
<text text-anchor="start" x="811.5" y="-79" font-family="Helvetica,sans-Serif" font-size="10.00">+ QueueMerger()</text>
<text text-anchor="start" x="811.5" y="-68" font-family="Helvetica,sans-Serif" font-size="10.00">+ add_item()</text>
<text text-anchor="start" x="811.5" y="-57" font-family="Helvetica,sans-Serif" font-size="10.00">+ disable_merge_once()</text>
<text text-anchor="start" x="811.5" y="-46" font-family="Helvetica,sans-Serif" font-size="10.00">+ recalculate_positions()</text>
</a>
</g>
<!-- Node1&#45;&gt;Node8 -->
<g id="edge14" class="edge"><title>Node1&#45;&gt;Node8</title>
<path fill="none" stroke="midnightblue" d="M1298.91,-236.367C1189.92,-225.808 995.767,-202.752 935,-168 918.473,-158.548 904.091,-143.635 892.734,-129.041"/>
<polygon fill="none" stroke="midnightblue" points="1298.9,-239.882 1309.19,-237.35 1299.57,-232.914 1298.9,-239.882"/>
</g>
<!-- Node9 -->
<g id="node17" class="node"><title>Node9</title>
<a xlink:href="classBrowser_1_1SettingsOutputs.html" target="_top" xlink:title="Outputlist Tab.">
<polygon fill="white" stroke="black" points="944.5,-0.5 944.5,-167.5 1075.5,-167.5 1075.5,-0.5 944.5,-0.5"/>
<text text-anchor="middle" x="1010" y="-155.5" font-family="Helvetica,sans-Serif" font-size="10.00">Browser::SettingsOutputs</text>
<polyline fill="none" stroke="black" points="944.5,-148.5 1075.5,-148.5 "/>
<text text-anchor="middle" x="1010" y="-136.5" font-family="Helvetica,sans-Serif" font-size="10.00"> </text>
<polyline fill="none" stroke="black" points="944.5,-129.5 1075.5,-129.5 "/>
<text text-anchor="start" x="952.5" y="-117.5" font-family="Helvetica,sans-Serif" font-size="10.00">+ SettingsOutputs()</text>
<text text-anchor="start" x="952.5" y="-106.5" font-family="Helvetica,sans-Serif" font-size="10.00">+ ~SettingsOutputs()</text>
<text text-anchor="start" x="952.5" y="-95.5" font-family="Helvetica,sans-Serif" font-size="10.00">+ accept_new_settings()</text>
<text text-anchor="start" x="952.5" y="-84.5" font-family="Helvetica,sans-Serif" font-size="10.00">+ decline_new_settings()</text>
<text text-anchor="start" x="952.5" y="-73.5" font-family="Helvetica,sans-Serif" font-size="10.00">+ reset_settings()</text>
<text text-anchor="start" x="952.5" y="-62.5" font-family="Helvetica,sans-Serif" font-size="10.00">+ add_item()</text>
<text text-anchor="start" x="952.5" y="-51.5" font-family="Helvetica,sans-Serif" font-size="10.00"># on_client_update()</text>
<text text-anchor="start" x="952.5" y="-40.5" font-family="Helvetica,sans-Serif" font-size="10.00"># on_connection_change()</text>
<text text-anchor="start" x="952.5" y="-29.5" font-family="Helvetica,sans-Serif" font-size="10.00"># on_toggle()</text>
<text text-anchor="start" x="952.5" y="-18.5" font-family="Helvetica,sans-Serif" font-size="10.00"># on_select()</text>
<text text-anchor="start" x="952.5" y="-7.5" font-family="Helvetica,sans-Serif" font-size="10.00"># clear()</text>
</a>
</g>
<!-- Node1&#45;&gt;Node9 -->
<g id="edge16" class="edge"><title>Node1&#45;&gt;Node9</title>
<path fill="none" stroke="midnightblue" d="M1299.42,-235.803C1237.74,-227.161 1150.25,-208.387 1084,-168 1081.2,-166.292 1078.44,-164.444 1075.74,-162.484"/>
<polygon fill="none" stroke="midnightblue" points="1299.1,-239.291 1309.48,-237.154 1300.03,-232.354 1299.1,-239.291"/>
</g>
<!-- Node10 -->
<g id="node19" class="node"><title>Node10</title>
<a xlink:href="classBrowser_1_1SettingsPlayback.html" target="_top" xlink:title="Playback Settings Tab.">
<polygon fill="white" stroke="black" points="1093.5,-33.5 1093.5,-134.5 1228.5,-134.5 1228.5,-33.5 1093.5,-33.5"/>
<text text-anchor="middle" x="1161" y="-122.5" font-family="Helvetica,sans-Serif" font-size="10.00">Browser::SettingsPlayback</text>
<polyline fill="none" stroke="black" points="1093.5,-115.5 1228.5,-115.5 "/>
<text text-anchor="middle" x="1161" y="-103.5" font-family="Helvetica,sans-Serif" font-size="10.00"> </text>
<polyline fill="none" stroke="black" points="1093.5,-96.5 1228.5,-96.5 "/>
<text text-anchor="start" x="1101.5" y="-84.5" font-family="Helvetica,sans-Serif" font-size="10.00">+ SettingsPlayback()</text>
<text text-anchor="start" x="1101.5" y="-73.5" font-family="Helvetica,sans-Serif" font-size="10.00">+ ~SettingsPlayback()</text>
<text text-anchor="start" x="1101.5" y="-62.5" font-family="Helvetica,sans-Serif" font-size="10.00">+ accept_new_settings()</text>
<text text-anchor="start" x="1101.5" y="-51.5" font-family="Helvetica,sans-Serif" font-size="10.00">+ decline_new_settings()</text>
<text text-anchor="start" x="1101.5" y="-40.5" font-family="Helvetica,sans-Serif" font-size="10.00">+ reset_settings()</text>
</a>
</g>
<!-- Node1&#45;&gt;Node10 -->
<g id="edge18" class="edge"><title>Node1&#45;&gt;Node10</title>
<path fill="none" stroke="midnightblue" d="M1300.34,-208.24C1278.97,-196.778 1256.27,-183.064 1237,-168 1224.53,-158.252 1212.35,-146.363 1201.51,-134.664"/>
<polygon fill="none" stroke="midnightblue" points="1298.92,-211.449 1309.4,-213.011 1302.18,-205.255 1298.92,-211.449"/>
</g>
<!-- Node11 -->
<g id="node21" class="node"><title>Node11</title>
<a xlink:href="classGManager_1_1BrowserList.html" target="_top" xlink:title="List of Browsers in sidebar.">
<polygon fill="white" stroke="black" points="1246.5,-44.5 1246.5,-123.5 1365.5,-123.5 1365.5,-44.5 1246.5,-44.5"/>
<text text-anchor="middle" x="1306" y="-111.5" font-family="Helvetica,sans-Serif" font-size="10.00">GManager::BrowserList</text>
<polyline fill="none" stroke="black" points="1246.5,-104.5 1365.5,-104.5 "/>
<text text-anchor="middle" x="1306" y="-92.5" font-family="Helvetica,sans-Serif" font-size="10.00"> </text>
<polyline fill="none" stroke="black" points="1246.5,-85.5 1365.5,-85.5 "/>
<text text-anchor="start" x="1254.5" y="-73.5" font-family="Helvetica,sans-Serif" font-size="10.00">+ BrowserList()</text>
<text text-anchor="start" x="1254.5" y="-62.5" font-family="Helvetica,sans-Serif" font-size="10.00">+ add()</text>
<text text-anchor="start" x="1254.5" y="-51.5" font-family="Helvetica,sans-Serif" font-size="10.00">+ set()</text>
</a>
</g>
<!-- Node1&#45;&gt;Node11 -->
<g id="edge20" class="edge"><title>Node1&#45;&gt;Node11</title>
<path fill="none" stroke="midnightblue" d="M1354.1,-195.133C1344.08,-172.202 1332.25,-145.104 1322.82,-123.526"/>
<polygon fill="none" stroke="midnightblue" points="1350.91,-196.585 1358.12,-204.349 1357.33,-193.784 1350.91,-196.585"/>
</g>
<!-- Node12 -->
<g id="node23" class="node"><title>Node12</title>
<a xlink:href="classGManager_1_1Heartbeat.html" target="_top" xlink:title="A software clock that emits a signal every 500ms.">
<polygon fill="white" stroke="black" points="1384,-17 1384,-151 1504,-151 1504,-17 1384,-17"/>
<text text-anchor="middle" x="1444" y="-139" font-family="Helvetica,sans-Serif" font-size="10.00">GManager::Heartbeat</text>
<polyline fill="none" stroke="black" points="1384,-132 1504,-132 "/>
<text text-anchor="middle" x="1444" y="-120" font-family="Helvetica,sans-Serif" font-size="10.00"> </text>
<polyline fill="none" stroke="black" points="1384,-113 1504,-113 "/>
<text text-anchor="start" x="1392" y="-101" font-family="Helvetica,sans-Serif" font-size="10.00">+ Heartbeat()</text>
<text text-anchor="start" x="1392" y="-90" font-family="Helvetica,sans-Serif" font-size="10.00">+ ~Heartbeat()</text>
<text text-anchor="start" x="1392" y="-79" font-family="Helvetica,sans-Serif" font-size="10.00">+ signal_client_update()</text>
<text text-anchor="start" x="1392" y="-68" font-family="Helvetica,sans-Serif" font-size="10.00">+ play()</text>
<text text-anchor="start" x="1392" y="-57" font-family="Helvetica,sans-Serif" font-size="10.00">+ pause()</text>
<text text-anchor="start" x="1392" y="-46" font-family="Helvetica,sans-Serif" font-size="10.00">+ reset()</text>
<text text-anchor="start" x="1392" y="-35" font-family="Helvetica,sans-Serif" font-size="10.00">+ set()</text>
<text text-anchor="start" x="1392" y="-24" font-family="Helvetica,sans-Serif" font-size="10.00">+ get()</text>
</a>
</g>
<!-- Node1&#45;&gt;Node12 -->
<g id="edge22" class="edge"><title>Node1&#45;&gt;Node12</title>
<path fill="none" stroke="midnightblue" d="M1395.93,-195.064C1401.96,-181.268 1408.64,-165.968 1415.06,-151.272"/>
<polygon fill="none" stroke="midnightblue" points="1392.67,-193.784 1391.88,-204.349 1399.09,-196.585 1392.67,-193.784"/>
</g>
<!-- Node13 -->
<g id="node25" class="node"><title>Node13</title>
<a xlink:href="classGManager_1_1MenuList.html" target="_top" xlink:title="The Manager for the Topmenus.">
<polygon fill="white" stroke="black" points="1522.5,-50 1522.5,-118 1629.5,-118 1629.5,-50 1522.5,-50"/>
<text text-anchor="middle" x="1576" y="-106" font-family="Helvetica,sans-Serif" font-size="10.00">GManager::MenuList</text>
<polyline fill="none" stroke="black" points="1522.5,-99 1629.5,-99 "/>
<text text-anchor="middle" x="1576" y="-87" font-family="Helvetica,sans-Serif" font-size="10.00"> </text>
<polyline fill="none" stroke="black" points="1522.5,-80 1629.5,-80 "/>
<text text-anchor="start" x="1530.5" y="-68" font-family="Helvetica,sans-Serif" font-size="10.00">+ MenuList()</text>
<text text-anchor="start" x="1530.5" y="-57" font-family="Helvetica,sans-Serif" font-size="10.00">+ ~MenuList()</text>
</a>
</g>
<!-- Node1&#45;&gt;Node13 -->
<g id="edge24" class="edge"><title>Node1&#45;&gt;Node13</title>
<path fill="none" stroke="midnightblue" d="M1449.62,-209.344C1470.95,-197.876 1493.43,-183.881 1512,-168 1528.6,-153.81 1543.7,-134.686 1555.06,-118.371"/>
<polygon fill="none" stroke="midnightblue" points="1447.79,-206.353 1440.57,-214.103 1451.05,-212.549 1447.79,-206.353"/>
</g>
<!-- Node14 -->
<g id="node27" class="node"><title>Node14</title>
<a xlink:href="classGManager_1_1NotifyManager.html" target="_top" xlink:title="Manages Notifications that are triggered on player events.">
<polygon fill="white" stroke="black" points="1647.5,-55.5 1647.5,-112.5 1778.5,-112.5 1778.5,-55.5 1647.5,-55.5"/>
<text text-anchor="middle" x="1713" y="-100.5" font-family="Helvetica,sans-Serif" font-size="10.00">GManager::NotifyManager</text>
<polyline fill="none" stroke="black" points="1647.5,-93.5 1778.5,-93.5 "/>
<text text-anchor="middle" x="1713" y="-81.5" font-family="Helvetica,sans-Serif" font-size="10.00"> </text>
<polyline fill="none" stroke="black" points="1647.5,-74.5 1778.5,-74.5 "/>
<text text-anchor="start" x="1655.5" y="-62.5" font-family="Helvetica,sans-Serif" font-size="10.00">+ NotifyManager()</text>
</a>
</g>
<!-- Node1&#45;&gt;Node14 -->
<g id="edge26" class="edge"><title>Node1&#45;&gt;Node14</title>
<path fill="none" stroke="midnightblue" d="M1450.79,-232.86C1505.95,-222.855 1580.7,-203.674 1638,-168 1660.75,-153.834 1680.77,-130.822 1694.39,-112.617"/>
<polygon fill="none" stroke="midnightblue" points="1449.97,-229.45 1440.72,-234.623 1451.18,-236.345 1449.97,-229.45"/>
</g>
<!-- Node15 -->
<g id="node29" class="node"><title>Node15</title>
<a xlink:href="classGManager_1_1PlaybackButtons.html" target="_top" xlink:title="Manages the Playbackbuttons.">
<polygon fill="white" stroke="black" points="1797,-55.5 1797,-112.5 1939,-112.5 1939,-55.5 1797,-55.5"/>
<text text-anchor="middle" x="1868" y="-100.5" font-family="Helvetica,sans-Serif" font-size="10.00">GManager::PlaybackButtons</text>
<polyline fill="none" stroke="black" points="1797,-93.5 1939,-93.5 "/>
<text text-anchor="middle" x="1868" y="-81.5" font-family="Helvetica,sans-Serif" font-size="10.00"> </text>
<polyline fill="none" stroke="black" points="1797,-74.5 1939,-74.5 "/>
<text text-anchor="start" x="1805" y="-62.5" font-family="Helvetica,sans-Serif" font-size="10.00">+ PlaybackButtons()</text>
</a>
</g>
<!-- Node1&#45;&gt;Node15 -->
<g id="edge28" class="edge"><title>Node1&#45;&gt;Node15</title>
<path fill="none" stroke="midnightblue" d="M1450.95,-242.78C1537.2,-239.553 1679.83,-225.003 1787,-168 1811.89,-154.763 1833.78,-131.181 1848.51,-112.528"/>
<polygon fill="none" stroke="midnightblue" points="1450.6,-239.289 1440.72,-243.119 1450.83,-246.286 1450.6,-239.289"/>
</g>
<!-- Node16 -->
<g id="node31" class="node"><title>Node16</title>
<a xlink:href="classGManager_1_1Statusbar.html" target="_top" xlink:title="Manager for the statusbar.">
<polygon fill="white" stroke="black" points="1957,-50 1957,-118 2067,-118 2067,-50 1957,-50"/>
<text text-anchor="middle" x="2012" y="-106" font-family="Helvetica,sans-Serif" font-size="10.00">GManager::Statusbar</text>
<polyline fill="none" stroke="black" points="1957,-99 2067,-99 "/>
<text text-anchor="middle" x="2012" y="-87" font-family="Helvetica,sans-Serif" font-size="10.00"> </text>
<polyline fill="none" stroke="black" points="1957,-80 2067,-80 "/>
<text text-anchor="start" x="1965" y="-68" font-family="Helvetica,sans-Serif" font-size="10.00">+ Statusbar()</text>
<text text-anchor="start" x="1965" y="-57" font-family="Helvetica,sans-Serif" font-size="10.00">+ ~Statusbar()</text>
</a>
</g>
<!-- Node1&#45;&gt;Node16 -->
<g id="edge30" class="edge"><title>Node1&#45;&gt;Node16</title>
<path fill="none" stroke="midnightblue" d="M1450.95,-240.193C1586.79,-234.016 1864.94,-215.783 1948,-168 1968.03,-156.477 1983.94,-135.96 1994.88,-118.208"/>
<polygon fill="none" stroke="midnightblue" points="1450.46,-236.711 1440.63,-240.651 1450.77,-243.704 1450.46,-236.711"/>
</g>
<!-- Node17 -->
<g id="node33" class="node"><title>Node17</title>
<a xlink:href="classGManager_1_1Statusicons.html" target="_top" xlink:title="Manager for the status icons in the down sidebar.">
<polygon fill="white" stroke="black" points="2085.5,-55.5 2085.5,-112.5 2204.5,-112.5 2204.5,-55.5 2085.5,-55.5"/>
<text text-anchor="middle" x="2145" y="-100.5" font-family="Helvetica,sans-Serif" font-size="10.00">GManager::Statusicons</text>
<polyline fill="none" stroke="black" points="2085.5,-93.5 2204.5,-93.5 "/>
<text text-anchor="middle" x="2145" y="-81.5" font-family="Helvetica,sans-Serif" font-size="10.00"> </text>
<polyline fill="none" stroke="black" points="2085.5,-74.5 2204.5,-74.5 "/>
<text text-anchor="start" x="2093.5" y="-62.5" font-family="Helvetica,sans-Serif" font-size="10.00">+ Statusicons()</text>
</a>
</g>
<!-- Node1&#45;&gt;Node17 -->
<g id="edge32" class="edge"><title>Node1&#45;&gt;Node17</title>
<path fill="none" stroke="midnightblue" d="M1450.72,-241.998C1609.05,-238.768 1969.31,-225.168 2076,-168 2099.29,-155.521 2117.86,-131.609 2129.84,-112.645"/>
<polygon fill="none" stroke="midnightblue" points="1450.52,-238.501 1440.59,-242.196 1450.65,-245.499 1450.52,-238.501"/>
</g>
<!-- Node18 -->
<g id="node35" class="node"><title>Node18</title>
<a xlink:href="classGManager_1_1Timeslide.html" target="_top" xlink:title="Manager for the Timeslide in the topbar.">
<polygon fill="white" stroke="black" points="2223,-55.5 2223,-112.5 2333,-112.5 2333,-55.5 2223,-55.5"/>
<text text-anchor="middle" x="2278" y="-100.5" font-family="Helvetica,sans-Serif" font-size="10.00">GManager::Timeslide</text>
<polyline fill="none" stroke="black" points="2223,-93.5 2333,-93.5 "/>
<text text-anchor="middle" x="2278" y="-81.5" font-family="Helvetica,sans-Serif" font-size="10.00"> </text>
<polyline fill="none" stroke="black" points="2223,-74.5 2333,-74.5 "/>
<text text-anchor="start" x="2231" y="-62.5" font-family="Helvetica,sans-Serif" font-size="10.00">+ Timeslide()</text>
</a>
</g>
<!-- Node1&#45;&gt;Node18 -->
<g id="edge34" class="edge"><title>Node1&#45;&gt;Node18</title>
<path fill="none" stroke="midnightblue" d="M1450.98,-243.79C1631.87,-244.478 2082.7,-238.818 2213,-168 2235.67,-155.677 2253.09,-131.749 2264.16,-112.739"/>
<polygon fill="none" stroke="midnightblue" points="1450.77,-240.289 1440.75,-243.743 1450.74,-247.289 1450.77,-240.289"/>
</g>
<!-- Node19 -->
<g id="node37" class="node"><title>Node19</title>
<a xlink:href="classGManager_1_1TitleLabel.html" target="_top" xlink:title="Updates the top titlelabel, and the down nextsong label in the sidebar.">
<polygon fill="white" stroke="black" points="2351,-55.5 2351,-112.5 2461,-112.5 2461,-55.5 2351,-55.5"/>
<text text-anchor="middle" x="2406" y="-100.5" font-family="Helvetica,sans-Serif" font-size="10.00">GManager::TitleLabel</text>
<polyline fill="none" stroke="black" points="2351,-93.5 2461,-93.5 "/>
<text text-anchor="middle" x="2406" y="-81.5" font-family="Helvetica,sans-Serif" font-size="10.00"> </text>
<polyline fill="none" stroke="black" points="2351,-74.5 2461,-74.5 "/>
<text text-anchor="start" x="2359" y="-62.5" font-family="Helvetica,sans-Serif" font-size="10.00">+ TitleLabel()</text>
</a>
</g>
<!-- Node1&#45;&gt;Node19 -->
<g id="edge36" class="edge"><title>Node1&#45;&gt;Node19</title>
<path fill="none" stroke="midnightblue" d="M1450.86,-240.647C1665.12,-233.509 2264.35,-209.984 2342,-168 2364.57,-155.797 2381.69,-131.858 2392.52,-112.812"/>
<polygon fill="none" stroke="midnightblue" points="1450.52,-237.156 1440.65,-240.984 1450.76,-244.152 1450.52,-237.156"/>
</g>
<!-- Node20 -->
<g id="node39" class="node"><title>Node20</title>
<a xlink:href="classGManager_1_1Trayicon.html" target="_top" xlink:title="Manager for the trayicon.">
<polygon fill="white" stroke="black" points="2479.5,-55.5 2479.5,-112.5 2584.5,-112.5 2584.5,-55.5 2479.5,-55.5"/>
<text text-anchor="middle" x="2532" y="-100.5" font-family="Helvetica,sans-Serif" font-size="10.00">GManager::Trayicon</text>
<polyline fill="none" stroke="black" points="2479.5,-93.5 2584.5,-93.5 "/>
<text text-anchor="middle" x="2532" y="-81.5" font-family="Helvetica,sans-Serif" font-size="10.00"> </text>
<polyline fill="none" stroke="black" points="2479.5,-74.5 2584.5,-74.5 "/>
<text text-anchor="start" x="2487.5" y="-62.5" font-family="Helvetica,sans-Serif" font-size="10.00">+ Trayicon()</text>
</a>
</g>
<!-- Node1&#45;&gt;Node20 -->
<g id="edge38" class="edge"><title>Node1&#45;&gt;Node20</title>
<path fill="none" stroke="midnightblue" d="M1450.7,-241.45C1683.91,-236.174 2381.02,-216.474 2470,-168 2492.27,-155.868 2508.82,-131.921 2519.19,-112.855"/>
<polygon fill="none" stroke="midnightblue" points="1450.53,-237.953 1440.61,-241.676 1450.69,-244.951 1450.53,-237.953"/>
</g>
<!-- Node21 -->
<g id="node41" class="node"><title>Node21</title>
<a xlink:href="classGManager_1_1VolumeSlider.html" target="_top" xlink:title="Manages the VolumeSlider.">
<polygon fill="white" stroke="black" points="2602.5,-44.5 2602.5,-123.5 2727.5,-123.5 2727.5,-44.5 2602.5,-44.5"/>
<text text-anchor="middle" x="2665" y="-111.5" font-family="Helvetica,sans-Serif" font-size="10.00">GManager::VolumeSlider</text>
<polyline fill="none" stroke="black" points="2602.5,-104.5 2727.5,-104.5 "/>
<text text-anchor="middle" x="2665" y="-92.5" font-family="Helvetica,sans-Serif" font-size="10.00"> </text>
<polyline fill="none" stroke="black" points="2602.5,-85.5 2727.5,-85.5 "/>
<text text-anchor="start" x="2610.5" y="-73.5" font-family="Helvetica,sans-Serif" font-size="10.00">+ VolumeSlider()</text>
<text text-anchor="start" x="2610.5" y="-62.5" font-family="Helvetica,sans-Serif" font-size="10.00"># on_draw()</text>
<text text-anchor="start" x="2610.5" y="-51.5" font-family="Helvetica,sans-Serif" font-size="10.00"># on_percent_change()</text>
</a>
</g>
<!-- Node1&#45;&gt;Node21 -->
<g id="edge40" class="edge"><title>Node1&#45;&gt;Node21</title>
<path fill="none" stroke="midnightblue" d="M1450.79,-241.728C1701.05,-237.06 2490.9,-218.444 2593,-168 2612.84,-158.199 2629.48,-140.238 2641.75,-123.525"/>
<polygon fill="none" stroke="midnightblue" points="1450.63,-238.23 1440.7,-241.914 1450.76,-245.229 1450.63,-238.23"/>
</g>
</g>
</svg>
