<?xml version="1.0" encoding="UTF-8" standalone="no"?>
<!DOCTYPE svg PUBLIC "-//W3C//DTD SVG 1.1//EN"
 "http://www.w3.org/Graphics/SVG/1.1/DTD/svg11.dtd">
<!-- Generated by graphviz version 2.28.0 (20111204.1018)
 -->
<!-- Title: G Pages: 1 -->
<svg width="162pt" height="204pt"
 viewBox="0.00 0.00 162.00 204.00" xmlns="http://www.w3.org/2000/svg" xmlns:xlink="http://www.w3.org/1999/xlink">
<g id="graph1" class="graph" transform="scale(1 1) rotate(0) translate(4 200)">
<title>G</title>
<polygon fill="white" stroke="white" points="-4,5 -4,-200 159,-200 159,5 -4,5"/>
<!-- Node1 -->
<g id="node1" class="node"><title>Node1</title>
<polygon fill="#bfbfbf" stroke="black" points="1,-0.5 1,-101.5 153,-101.5 153,-0.5 1,-0.5"/>
<text text-anchor="middle" x="77" y="-89.5" font-family="Helvetica,sans-Serif" font-size="10.00">Browser::QueueModelColumns</text>
<polyline fill="none" stroke="black" points="1,-82.5 153,-82.5 "/>
<text text-anchor="start" x="9" y="-70.5" font-family="Helvetica,sans-Serif" font-size="10.00">+ m_col_id</text>
<text text-anchor="start" x="9" y="-59.5" font-family="Helvetica,sans-Serif" font-size="10.00">+ m_col_pos</text>
<text text-anchor="start" x="9" y="-48.5" font-family="Helvetica,sans-Serif" font-size="10.00">+ m_col_title</text>
<text text-anchor="start" x="9" y="-37.5" font-family="Helvetica,sans-Serif" font-size="10.00">+ m_col_album</text>
<text text-anchor="start" x="9" y="-26.5" font-family="Helvetica,sans-Serif" font-size="10.00">+ m_col_artist</text>
<polyline fill="none" stroke="black" points="1,-19.5 153,-19.5 "/>
<text text-anchor="start" x="9" y="-7.5" font-family="Helvetica,sans-Serif" font-size="10.00">+ QueueModelColumns()</text>
</g>
<!-- Node2 -->
<g id="node2" class="node"><title>Node2</title>
<a xlink:href="classGtk_1_1TreeModel_1_1ColumnRecord.html" target="_top" xlink:title="{Gtk::TreeModel::ColumnRecord\n||}">
<polygon fill="white" stroke="black" points="-0.5,-138.5 -0.5,-195.5 154.5,-195.5 154.5,-138.5 -0.5,-138.5"/>
<text text-anchor="middle" x="77" y="-183.5" font-family="Helvetica,sans-Serif" font-size="10.00">Gtk::TreeModel::ColumnRecord</text>
<polyline fill="none" stroke="black" points="-0.5,-176.5 154.5,-176.5 "/>
<text text-anchor="middle" x="77" y="-164.5" font-family="Helvetica,sans-Serif" font-size="10.00"> </text>
<polyline fill="none" stroke="black" points="-0.5,-157.5 154.5,-157.5 "/>
<text text-anchor="middle" x="77" y="-145.5" font-family="Helvetica,sans-Serif" font-size="10.00"> </text>
</a>
</g>
<!-- Node2&#45;&gt;Node1 -->
<g id="edge2" class="edge"><title>Node2&#45;&gt;Node1</title>
<path fill="none" stroke="midnightblue" d="M77,-128.354C77,-119.796 77,-110.578 77,-101.608"/>
<polygon fill="none" stroke="midnightblue" points="73.5001,-128.404 77,-138.404 80.5001,-128.404 73.5001,-128.404"/>
</g>
</g>
</svg>
