<?xml version="1.0" encoding="UTF-8" standalone="no"?>
<!DOCTYPE svg PUBLIC "-//W3C//DTD SVG 1.1//EN"
 "http://www.w3.org/Graphics/SVG/1.1/DTD/svg11.dtd">
<!-- Generated by graphviz version 2.28.0 (20111204.1018)
 -->
<!-- Title: G Pages: 1 -->
<svg width="423pt" height="1220pt"
 viewBox="0.00 0.00 423.00 1220.00" xmlns="http://www.w3.org/2000/svg" xmlns:xlink="http://www.w3.org/1999/xlink">
<g id="graph1" class="graph" transform="scale(1 1) rotate(0) translate(4 1216)">
<title>G</title>
<polygon fill="white" stroke="white" points="-4,5 -4,-1216 420,-1216 420,5 -4,5"/>
<!-- Node1 -->
<g id="node1" class="node"><title>Node1</title>
<polygon fill="#bfbfbf" stroke="black" points="159,-0.5 159,-79.5 249,-79.5 249,-0.5 159,-0.5"/>
<text text-anchor="middle" x="204" y="-67.5" font-family="Helvetica,sans-Serif" font-size="10.00">Browser::Queue</text>
<polyline fill="none" stroke="black" points="159,-60.5 249,-60.5 "/>
<text text-anchor="middle" x="204" y="-48.5" font-family="Helvetica,sans-Serif" font-size="10.00"> </text>
<polyline fill="none" stroke="black" points="159,-41.5 249,-41.5 "/>
<text text-anchor="start" x="167" y="-29.5" font-family="Helvetica,sans-Serif" font-size="10.00">+ Queue()</text>
<text text-anchor="start" x="167" y="-18.5" font-family="Helvetica,sans-Serif" font-size="10.00">+ ~Queue()</text>
<text text-anchor="start" x="167" y="-7.5" font-family="Helvetica,sans-Serif" font-size="10.00">+ get_container()</text>
</g>
<!-- Node2 -->
<g id="node2" class="node"><title>Node2</title>
<a xlink:href="classAbstractBrowser.html" target="_top" xlink:title="Inherit from this class in order to be able to add the browser to the browserlist.">
<polygon fill="white" stroke="black" points="108,-119 108,-231 218,-231 218,-119 108,-119"/>
<text text-anchor="middle" x="163" y="-219" font-family="Helvetica,sans-Serif" font-size="10.00">AbstractBrowser</text>
<polyline fill="none" stroke="black" points="108,-212 218,-212 "/>
<text text-anchor="middle" x="163" y="-200" font-family="Helvetica,sans-Serif" font-size="10.00"> </text>
<polyline fill="none" stroke="black" points="108,-193 218,-193 "/>
<text text-anchor="start" x="116" y="-181" font-family="Helvetica,sans-Serif" font-size="10.00">+ AbstractBrowser()</text>
<text text-anchor="start" x="116" y="-170" font-family="Helvetica,sans-Serif" font-size="10.00">+ get_container()</text>
<text text-anchor="start" x="116" y="-159" font-family="Helvetica,sans-Serif" font-size="10.00">+ get_name()</text>
<text text-anchor="start" x="116" y="-148" font-family="Helvetica,sans-Serif" font-size="10.00">+ get_icon_stock_id()</text>
<text text-anchor="start" x="116" y="-137" font-family="Helvetica,sans-Serif" font-size="10.00">+ is_visible()</text>
<text text-anchor="start" x="116" y="-126" font-family="Helvetica,sans-Serif" font-size="10.00">+ needs_connection()</text>
</a>
</g>
<!-- Node2&#45;&gt;Node1 -->
<g id="edge2" class="edge"><title>Node2&#45;&gt;Node1</title>
<path fill="none" stroke="midnightblue" d="M182.996,-109.134C186.103,-99.056 189.225,-88.9275 192.077,-79.6757"/>
<polygon fill="none" stroke="midnightblue" points="179.633,-108.164 180.032,-118.751 186.322,-110.226 179.633,-108.164"/>
</g>
<!-- Node3 -->
<g id="node4" class="node"><title>Node3</title>
<a xlink:href="classMPD_1_1AbstractClientUser.html" target="_top" xlink:title="{MPD::AbstractClientUser\n|# mp_Client\l|+ AbstractClientUser()\l# on_client_update()\l# on_connection_change()\l}">
<polygon fill="white" stroke="black" points="236.5,-135.5 236.5,-214.5 367.5,-214.5 367.5,-135.5 236.5,-135.5"/>
<text text-anchor="middle" x="302" y="-202.5" font-family="Helvetica,sans-Serif" font-size="10.00">MPD::AbstractClientUser</text>
<polyline fill="none" stroke="black" points="236.5,-195.5 367.5,-195.5 "/>
<text text-anchor="start" x="244.5" y="-183.5" font-family="Helvetica,sans-Serif" font-size="10.00"># mp_Client</text>
<polyline fill="none" stroke="black" points="236.5,-176.5 367.5,-176.5 "/>
<text text-anchor="start" x="244.5" y="-164.5" font-family="Helvetica,sans-Serif" font-size="10.00">+ AbstractClientUser()</text>
<text text-anchor="start" x="244.5" y="-153.5" font-family="Helvetica,sans-Serif" font-size="10.00"># on_client_update()</text>
<text text-anchor="start" x="244.5" y="-142.5" font-family="Helvetica,sans-Serif" font-size="10.00"># on_connection_change()</text>
</a>
</g>
<!-- Node3&#45;&gt;Node1 -->
<g id="edge4" class="edge"><title>Node3&#45;&gt;Node1</title>
<path fill="none" stroke="midnightblue" d="M267.203,-126.775C255.826,-111.335 243.33,-94.3768 232.475,-79.645"/>
<polygon fill="none" stroke="midnightblue" points="264.641,-129.199 273.391,-135.173 270.277,-125.047 264.641,-129.199"/>
</g>
<!-- Node4 -->
<g id="node6" class="node"><title>Node4</title>
<a xlink:href="classMPD_1_1Client.html" target="_top" xlink:title="The client implements concrete commands of the MPD Protocol.">
<polygon fill="white" stroke="black" points="229,-281 229,-745 375,-745 375,-281 229,-281"/>
<text text-anchor="middle" x="302" y="-733" font-family="Helvetica,sans-Serif" font-size="10.00">MPD::Client</text>
<polyline fill="none" stroke="black" points="229,-726 375,-726 "/>
<text text-anchor="middle" x="302" y="-714" font-family="Helvetica,sans-Serif" font-size="10.00"> </text>
<polyline fill="none" stroke="black" points="229,-707 375,-707 "/>
<text text-anchor="start" x="237" y="-695" font-family="Helvetica,sans-Serif" font-size="10.00">+ Client()</text>
<text text-anchor="start" x="237" y="-684" font-family="Helvetica,sans-Serif" font-size="10.00">+ ~Client()</text>
<text text-anchor="start" x="237" y="-673" font-family="Helvetica,sans-Serif" font-size="10.00">+ connect()</text>
<text text-anchor="start" x="237" y="-662" font-family="Helvetica,sans-Serif" font-size="10.00">+ disconnect()</text>
<text text-anchor="start" x="237" y="-651" font-family="Helvetica,sans-Serif" font-size="10.00">+ playback_next()</text>
<text text-anchor="start" x="237" y="-640" font-family="Helvetica,sans-Serif" font-size="10.00">+ playback_prev()</text>
<text text-anchor="start" x="237" y="-629" font-family="Helvetica,sans-Serif" font-size="10.00">+ playback_stop()</text>
<text text-anchor="start" x="237" y="-618" font-family="Helvetica,sans-Serif" font-size="10.00">+ playback_play()</text>
<text text-anchor="start" x="237" y="-607" font-family="Helvetica,sans-Serif" font-size="10.00">+ playback_pause()</text>
<text text-anchor="start" x="237" y="-596" font-family="Helvetica,sans-Serif" font-size="10.00">+ playback_seek()</text>
<text text-anchor="start" x="237" y="-585" font-family="Helvetica,sans-Serif" font-size="10.00">and 5 more...+ playlist_save()</text>
<text text-anchor="start" x="237" y="-574" font-family="Helvetica,sans-Serif" font-size="10.00">+ queue_add()</text>
<text text-anchor="start" x="237" y="-563" font-family="Helvetica,sans-Serif" font-size="10.00">+ queue_clear()</text>
<text text-anchor="start" x="237" y="-552" font-family="Helvetica,sans-Serif" font-size="10.00">+ queue_delete()</text>
<text text-anchor="start" x="237" y="-541" font-family="Helvetica,sans-Serif" font-size="10.00">+ database_update()</text>
<text text-anchor="start" x="237" y="-530" font-family="Helvetica,sans-Serif" font-size="10.00">+ database_rescan()</text>
<text text-anchor="start" x="237" y="-519" font-family="Helvetica,sans-Serif" font-size="10.00">+ set_volume()</text>
<text text-anchor="start" x="237" y="-508" font-family="Helvetica,sans-Serif" font-size="10.00">+ fill_queue()</text>
<text text-anchor="start" x="237" y="-497" font-family="Helvetica,sans-Serif" font-size="10.00">+ fill_queue_changes()</text>
<text text-anchor="start" x="237" y="-486" font-family="Helvetica,sans-Serif" font-size="10.00">+ fill_playlists()</text>
<text text-anchor="start" x="237" y="-475" font-family="Helvetica,sans-Serif" font-size="10.00">+ fill_outputs()</text>
<text text-anchor="start" x="237" y="-464" font-family="Helvetica,sans-Serif" font-size="10.00">+ fill_filelist()</text>
<text text-anchor="start" x="237" y="-453" font-family="Helvetica,sans-Serif" font-size="10.00">+ send_command()</text>
<text text-anchor="start" x="237" y="-442" font-family="Helvetica,sans-Serif" font-size="10.00">+ ping()</text>
<text text-anchor="start" x="237" y="-431" font-family="Helvetica,sans-Serif" font-size="10.00">* playlist_save()</text>
<text text-anchor="start" x="237" y="-420" font-family="Helvetica,sans-Serif" font-size="10.00">* queue_add()</text>
<text text-anchor="start" x="237" y="-409" font-family="Helvetica,sans-Serif" font-size="10.00">* queue_clear()</text>
<text text-anchor="start" x="237" y="-398" font-family="Helvetica,sans-Serif" font-size="10.00">* queue_delete()</text>
<text text-anchor="start" x="237" y="-387" font-family="Helvetica,sans-Serif" font-size="10.00">* database_update()</text>
<text text-anchor="start" x="237" y="-376" font-family="Helvetica,sans-Serif" font-size="10.00">* database_rescan()</text>
<text text-anchor="start" x="237" y="-365" font-family="Helvetica,sans-Serif" font-size="10.00">* set_volume()</text>
<text text-anchor="start" x="237" y="-354" font-family="Helvetica,sans-Serif" font-size="10.00">* fill_queue()</text>
<text text-anchor="start" x="237" y="-343" font-family="Helvetica,sans-Serif" font-size="10.00">* fill_queue_changes()</text>
<text text-anchor="start" x="237" y="-332" font-family="Helvetica,sans-Serif" font-size="10.00">* fill_playlists()</text>
<text text-anchor="start" x="237" y="-321" font-family="Helvetica,sans-Serif" font-size="10.00">* fill_outputs()</text>
<text text-anchor="start" x="237" y="-310" font-family="Helvetica,sans-Serif" font-size="10.00">* fill_filelist()</text>
<text text-anchor="start" x="237" y="-299" font-family="Helvetica,sans-Serif" font-size="10.00">* send_command()</text>
<text text-anchor="start" x="237" y="-288" font-family="Helvetica,sans-Serif" font-size="10.00">* ping()</text>
</a>
</g>
<!-- Node4&#45;&gt;Node3 -->
<g id="edge6" class="edge"><title>Node4&#45;&gt;Node3</title>
<path fill="none" stroke="#404040" d="M302,-280.93C302,-261.321 302,-243.052 302,-227.434"/>
<polygon fill="none" stroke="#404040" points="302,-226.967 298,-220.967 302,-214.967 306,-220.967 302,-226.967"/>
<text text-anchor="middle" x="326" y="-253.5" font-family="Helvetica,sans-Serif" font-size="10.00"> mp_Client</text>
</g>
<!-- Node5 -->
<g id="node8" class="node"><title>Node5</title>
<a xlink:href="classMPD_1_1BaseClient.html" target="_top" xlink:title="The Base to MPD::Client.">
<polygon fill="white" stroke="black" points="107,-784.5 107,-995.5 253,-995.5 253,-784.5 107,-784.5"/>
<text text-anchor="middle" x="180" y="-983.5" font-family="Helvetica,sans-Serif" font-size="10.00">MPD::BaseClient</text>
<polyline fill="none" stroke="black" points="107,-976.5 253,-976.5 "/>
<text text-anchor="start" x="115" y="-964.5" font-family="Helvetica,sans-Serif" font-size="10.00"># m_Conn</text>
<text text-anchor="start" x="115" y="-953.5" font-family="Helvetica,sans-Serif" font-size="10.00"># mp_Listener</text>
<text text-anchor="start" x="115" y="-942.5" font-family="Helvetica,sans-Serif" font-size="10.00"># m_ListBegun</text>
<polyline fill="none" stroke="black" points="107,-935.5 253,-935.5 "/>
<text text-anchor="start" x="115" y="-923.5" font-family="Helvetica,sans-Serif" font-size="10.00">+ go_idle()</text>
<text text-anchor="start" x="115" y="-912.5" font-family="Helvetica,sans-Serif" font-size="10.00">+ go_busy()</text>
<text text-anchor="start" x="115" y="-901.5" font-family="Helvetica,sans-Serif" font-size="10.00">+ get_connection()</text>
<text text-anchor="start" x="115" y="-890.5" font-family="Helvetica,sans-Serif" font-size="10.00">+ is_connected()</text>
<text text-anchor="start" x="115" y="-879.5" font-family="Helvetica,sans-Serif" font-size="10.00">+ begin()</text>
<text text-anchor="start" x="115" y="-868.5" font-family="Helvetica,sans-Serif" font-size="10.00">+ commit()</text>
<text text-anchor="start" x="115" y="-857.5" font-family="Helvetica,sans-Serif" font-size="10.00">+ get_status()</text>
<text text-anchor="start" x="115" y="-846.5" font-family="Helvetica,sans-Serif" font-size="10.00">+ signal_client_update()</text>
<text text-anchor="start" x="115" y="-835.5" font-family="Helvetica,sans-Serif" font-size="10.00">+ signal_connection_change()</text>
<text text-anchor="start" x="115" y="-824.5" font-family="Helvetica,sans-Serif" font-size="10.00">+ force_update()</text>
<text text-anchor="start" x="115" y="-813.5" font-family="Helvetica,sans-Serif" font-size="10.00"># BaseClient()</text>
<text text-anchor="start" x="115" y="-802.5" font-family="Helvetica,sans-Serif" font-size="10.00"># __connect()</text>
<text text-anchor="start" x="115" y="-791.5" font-family="Helvetica,sans-Serif" font-size="10.00"># __disconnect()</text>
</a>
</g>
<!-- Node5&#45;&gt;Node4 -->
<g id="edge8" class="edge"><title>Node5&#45;&gt;Node4</title>
<path fill="none" stroke="midnightblue" d="M217.282,-774.402C221.058,-762.796 224.978,-750.749 228.969,-738.481"/>
<polygon fill="none" stroke="midnightblue" points="213.912,-773.451 214.146,-784.043 220.568,-775.616 213.912,-773.451"/>
</g>
<!-- Node6 -->
<g id="node10" class="node"><title>Node6</title>
<a xlink:href="classMPD_1_1Listener.html" target="_top" xlink:title="Listener for Server events, Freya&#39;s actual core.">
<polygon fill="white" stroke="black" points="0,-1066.5 0,-1189.5 144,-1189.5 144,-1066.5 0,-1066.5"/>
<text text-anchor="middle" x="72" y="-1177.5" font-family="Helvetica,sans-Serif" font-size="10.00">MPD::Listener</text>
<polyline fill="none" stroke="black" points="0,-1170.5 144,-1170.5 "/>
<text text-anchor="middle" x="72" y="-1158.5" font-family="Helvetica,sans-Serif" font-size="10.00"> </text>
<polyline fill="none" stroke="black" points="0,-1151.5 144,-1151.5 "/>
<text text-anchor="start" x="8" y="-1139.5" font-family="Helvetica,sans-Serif" font-size="10.00">+ Listener()</text>
<text text-anchor="start" x="8" y="-1128.5" font-family="Helvetica,sans-Serif" font-size="10.00">+ ~Listener()</text>
<text text-anchor="start" x="8" y="-1117.5" font-family="Helvetica,sans-Serif" font-size="10.00">+ enter()</text>
<text text-anchor="start" x="8" y="-1106.5" font-family="Helvetica,sans-Serif" font-size="10.00">+ leave()</text>
<text text-anchor="start" x="8" y="-1095.5" font-family="Helvetica,sans-Serif" font-size="10.00">+ is_idling()</text>
<text text-anchor="start" x="8" y="-1084.5" font-family="Helvetica,sans-Serif" font-size="10.00">+ signal_client_update_data()</text>
<text text-anchor="start" x="8" y="-1073.5" font-family="Helvetica,sans-Serif" font-size="10.00">+ force_update()</text>
</a>
</g>
<!-- Node6&#45;&gt;Node5 -->
<g id="edge10" class="edge"><title>Node6&#45;&gt;Node5</title>
<path fill="none" stroke="#404040" d="M96.3899,-1066.28C103.458,-1049.26 111.34,-1030.82 119,-1014 120.103,-1011.58 121.227,-1009.13 122.366,-1006.67"/>
<polygon fill="none" stroke="#404040" points="122.37,-1006.66 121.288,-999.53 127.453,-995.789 128.535,-1002.92 122.37,-1006.66"/>
<text text-anchor="middle" x="147.5" y="-1017.5" font-family="Helvetica,sans-Serif" font-size="10.00"> mp_Listener</text>
</g>
<!-- Node7 -->
<g id="node12" class="node"><title>Node7</title>
<polygon fill="white" stroke="#bfbfbf" points="162.5,-1099.5 162.5,-1156.5 197.5,-1156.5 197.5,-1099.5 162.5,-1099.5"/>
<text text-anchor="middle" x="180" y="-1144.5" font-family="Helvetica,sans-Serif" font-size="10.00">bool</text>
<polyline fill="none" stroke="#bfbfbf" points="162.5,-1137.5 197.5,-1137.5 "/>
<text text-anchor="middle" x="180" y="-1125.5" font-family="Helvetica,sans-Serif" font-size="10.00"> </text>
<polyline fill="none" stroke="#bfbfbf" points="162.5,-1118.5 197.5,-1118.5 "/>
<text text-anchor="middle" x="180" y="-1106.5" font-family="Helvetica,sans-Serif" font-size="10.00"> </text>
</g>
<!-- Node7&#45;&gt;Node5 -->
<g id="edge12" class="edge"><title>Node7&#45;&gt;Node5</title>
<path fill="none" stroke="#404040" d="M180,-1099.47C180,-1076.46 180,-1041.99 180,-1007.68"/>
<polygon fill="none" stroke="#404040" points="180,-1007.56 176,-1001.56 180,-995.562 184,-1001.56 180,-1007.56"/>
<text text-anchor="middle" x="210.5" y="-1017.5" font-family="Helvetica,sans-Serif" font-size="10.00"> m_ListBegun</text>
</g>
<!-- Node8 -->
<g id="node14" class="node"><title>Node8</title>
<a xlink:href="classMPD_1_1Connection.html" target="_top" xlink:title="A convinience Wrapper around mpd_connection*.">
<polygon fill="white" stroke="black" points="216,-1044.5 216,-1211.5 362,-1211.5 362,-1044.5 216,-1044.5"/>
<text text-anchor="middle" x="289" y="-1199.5" font-family="Helvetica,sans-Serif" font-size="10.00">MPD::Connection</text>
<polyline fill="none" stroke="black" points="216,-1192.5 362,-1192.5 "/>
<text text-anchor="middle" x="289" y="-1180.5" font-family="Helvetica,sans-Serif" font-size="10.00"> </text>
<polyline fill="none" stroke="black" points="216,-1173.5 362,-1173.5 "/>
<text text-anchor="start" x="224" y="-1161.5" font-family="Helvetica,sans-Serif" font-size="10.00">+ Connection()</text>
<text text-anchor="start" x="224" y="-1150.5" font-family="Helvetica,sans-Serif" font-size="10.00">+ ~Connection()</text>
<text text-anchor="start" x="224" y="-1139.5" font-family="Helvetica,sans-Serif" font-size="10.00">+ is_connected()</text>
<text text-anchor="start" x="224" y="-1128.5" font-family="Helvetica,sans-Serif" font-size="10.00">+ connect()</text>
<text text-anchor="start" x="224" y="-1117.5" font-family="Helvetica,sans-Serif" font-size="10.00">+ disconnect()</text>
<text text-anchor="start" x="224" y="-1106.5" font-family="Helvetica,sans-Serif" font-size="10.00">+ clear_error()</text>
<text text-anchor="start" x="224" y="-1095.5" font-family="Helvetica,sans-Serif" font-size="10.00">+ check_error()</text>
<text text-anchor="start" x="224" y="-1084.5" font-family="Helvetica,sans-Serif" font-size="10.00">+ signal_error()</text>
<text text-anchor="start" x="224" y="-1073.5" font-family="Helvetica,sans-Serif" font-size="10.00">+ signal_connection_change()</text>
<text text-anchor="start" x="224" y="-1062.5" font-family="Helvetica,sans-Serif" font-size="10.00">+ emit_connection_change()</text>
<text text-anchor="start" x="224" y="-1051.5" font-family="Helvetica,sans-Serif" font-size="10.00">+ get_connection()</text>
</a>
</g>
<!-- Node8&#45;&gt;Node5 -->
<g id="edge14" class="edge"><title>Node8&#45;&gt;Node5</title>
<path fill="none" stroke="#404040" d="M258.13,-1044.45C253.895,-1034.12 249.464,-1023.77 245,-1014 243.878,-1011.55 242.731,-1009.07 241.562,-1006.58"/>
<polygon fill="none" stroke="#404040" points="241.49,-1006.43 235.292,-1002.75 236.311,-995.609 242.509,-999.295 241.49,-1006.43"/>
<text text-anchor="middle" x="269" y="-1017.5" font-family="Helvetica,sans-Serif" font-size="10.00"> m_Conn</text>
</g>
<!-- Node9 -->
<g id="node16" class="node"><title>Node9</title>
<a xlink:href="classMPD_1_1AbstractItemGenerator.html" target="_top" xlink:title="{MPD::AbstractItemGenerator\n||+ fill_queue()\l+ fill_queue_changes()\l+ fill_playlists()\l+ fill_outputs()\l+ fill_filelist()\l+ ~AbstractItemGenerator()\l}">
<polygon fill="white" stroke="black" points="271,-834 271,-946 415,-946 415,-834 271,-834"/>
<text text-anchor="middle" x="343" y="-934" font-family="Helvetica,sans-Serif" font-size="10.00">MPD::AbstractItemGenerator</text>
<polyline fill="none" stroke="black" points="271,-927 415,-927 "/>
<text text-anchor="middle" x="343" y="-915" font-family="Helvetica,sans-Serif" font-size="10.00"> </text>
<polyline fill="none" stroke="black" points="271,-908 415,-908 "/>
<text text-anchor="start" x="279" y="-896" font-family="Helvetica,sans-Serif" font-size="10.00">+ fill_queue()</text>
<text text-anchor="start" x="279" y="-885" font-family="Helvetica,sans-Serif" font-size="10.00">+ fill_queue_changes()</text>
<text text-anchor="start" x="279" y="-874" font-family="Helvetica,sans-Serif" font-size="10.00">+ fill_playlists()</text>
<text text-anchor="start" x="279" y="-863" font-family="Helvetica,sans-Serif" font-size="10.00">+ fill_outputs()</text>
<text text-anchor="start" x="279" y="-852" font-family="Helvetica,sans-Serif" font-size="10.00">+ fill_filelist()</text>
<text text-anchor="start" x="279" y="-841" font-family="Helvetica,sans-Serif" font-size="10.00">+ ~AbstractItemGenerator()</text>
</a>
</g>
<!-- Node9&#45;&gt;Node4 -->
<g id="edge16" class="edge"><title>Node9&#45;&gt;Node4</title>
<path fill="none" stroke="midnightblue" d="M335.837,-823.484C333.34,-800.644 330.376,-773.537 327.257,-745.008"/>
<polygon fill="none" stroke="midnightblue" points="332.384,-824.107 336.95,-833.667 339.343,-823.346 332.384,-824.107"/>
</g>
</g>
</svg>
