<?xml version="1.0" encoding="UTF-8" standalone="no"?>
<!DOCTYPE svg PUBLIC "-//W3C//DTD SVG 1.1//EN"
 "http://www.w3.org/Graphics/SVG/1.1/DTD/svg11.dtd">
<!-- Generated by graphviz version 2.28.0 (20111204.1018)
 -->
<!-- Title: G Pages: 1 -->
<svg width="287pt" height="248pt"
 viewBox="0.00 0.00 287.00 248.00" xmlns="http://www.w3.org/2000/svg" xmlns:xlink="http://www.w3.org/1999/xlink">
<g id="graph1" class="graph" transform="scale(1 1) rotate(0) translate(4 244)">
<title>G</title>
<polygon fill="white" stroke="white" points="-4,5 -4,-244 284,-244 284,5 -4,5"/>
<!-- Node1 -->
<g id="node1" class="node"><title>Node1</title>
<polygon fill="#bfbfbf" stroke="black" points="71.5,-0.5 71.5,-101.5 206.5,-101.5 206.5,-0.5 71.5,-0.5"/>
<text text-anchor="middle" x="139" y="-89.5" font-family="Helvetica,sans-Serif" font-size="10.00">Browser::SettingsPlayback</text>
<polyline fill="none" stroke="black" points="71.5,-82.5 206.5,-82.5 "/>
<text text-anchor="middle" x="139" y="-70.5" font-family="Helvetica,sans-Serif" font-size="10.00"> </text>
<polyline fill="none" stroke="black" points="71.5,-63.5 206.5,-63.5 "/>
<text text-anchor="start" x="79.5" y="-51.5" font-family="Helvetica,sans-Serif" font-size="10.00">+ SettingsPlayback()</text>
<text text-anchor="start" x="79.5" y="-40.5" font-family="Helvetica,sans-Serif" font-size="10.00">+ ~SettingsPlayback()</text>
<text text-anchor="start" x="79.5" y="-29.5" font-family="Helvetica,sans-Serif" font-size="10.00">+ accept_new_settings()</text>
<text text-anchor="start" x="79.5" y="-18.5" font-family="Helvetica,sans-Serif" font-size="10.00">+ decline_new_settings()</text>
<text text-anchor="start" x="79.5" y="-7.5" font-family="Helvetica,sans-Serif" font-size="10.00">+ reset_settings()</text>
</g>
<!-- Node2 -->
<g id="node2" class="node"><title>Node2</title>
<a xlink:href="classBrowser_1_1AbstractSettings.html" target="_top" xlink:title="Abstract base class for every Tab in the Settingsbrowser.">
<polygon fill="white" stroke="black" points="-0.5,-138.5 -0.5,-239.5 130.5,-239.5 130.5,-138.5 -0.5,-138.5"/>
<text text-anchor="middle" x="65" y="-227.5" font-family="Helvetica,sans-Serif" font-size="10.00">Browser::AbstractSettings</text>
<polyline fill="none" stroke="black" points="-0.5,-220.5 130.5,-220.5 "/>
<text text-anchor="middle" x="65" y="-208.5" font-family="Helvetica,sans-Serif" font-size="10.00"> </text>
<polyline fill="none" stroke="black" points="-0.5,-201.5 130.5,-201.5 "/>
<text text-anchor="start" x="7.5" y="-189.5" font-family="Helvetica,sans-Serif" font-size="10.00">+ AbstractSettings()</text>
<text text-anchor="start" x="7.5" y="-178.5" font-family="Helvetica,sans-Serif" font-size="10.00">+ ~AbstractSettings()</text>
<text text-anchor="start" x="7.5" y="-167.5" font-family="Helvetica,sans-Serif" font-size="10.00">+ accept_new_settings()</text>
<text text-anchor="start" x="7.5" y="-156.5" font-family="Helvetica,sans-Serif" font-size="10.00">+ decline_new_settings()</text>
<text text-anchor="start" x="7.5" y="-145.5" font-family="Helvetica,sans-Serif" font-size="10.00">+ reset_settings()</text>
</a>
</g>
<!-- Node2&#45;&gt;Node1 -->
<g id="edge2" class="edge"><title>Node2&#45;&gt;Node1</title>
<path fill="none" stroke="midnightblue" d="M97.0279,-129.138C101.975,-120.046 107.043,-110.733 111.869,-101.863"/>
<polygon fill="none" stroke="midnightblue" points="93.8398,-127.674 92.1347,-138.131 99.9886,-131.02 93.8398,-127.674"/>
</g>
<!-- Node3 -->
<g id="node4" class="node"><title>Node3</title>
<a xlink:href="classMPD_1_1AbstractClientUser.html" target="_top" xlink:title="{MPD::AbstractClientUser\n|# mp_Client\l|+ AbstractClientUser()\l# on_client_update()\l# on_connection_change()\l}">
<polygon fill="white" stroke="black" points="148.5,-149.5 148.5,-228.5 279.5,-228.5 279.5,-149.5 148.5,-149.5"/>
<text text-anchor="middle" x="214" y="-216.5" font-family="Helvetica,sans-Serif" font-size="10.00">MPD::AbstractClientUser</text>
<polyline fill="none" stroke="black" points="148.5,-209.5 279.5,-209.5 "/>
<text text-anchor="start" x="156.5" y="-197.5" font-family="Helvetica,sans-Serif" font-size="10.00"># mp_Client</text>
<polyline fill="none" stroke="black" points="148.5,-190.5 279.5,-190.5 "/>
<text text-anchor="start" x="156.5" y="-178.5" font-family="Helvetica,sans-Serif" font-size="10.00">+ AbstractClientUser()</text>
<text text-anchor="start" x="156.5" y="-167.5" font-family="Helvetica,sans-Serif" font-size="10.00"># on_client_update()</text>
<text text-anchor="start" x="156.5" y="-156.5" font-family="Helvetica,sans-Serif" font-size="10.00"># on_connection_change()</text>
</a>
</g>
<!-- Node3&#45;&gt;Node1 -->
<g id="edge4" class="edge"><title>Node3&#45;&gt;Node1</title>
<path fill="none" stroke="midnightblue" d="M187.809,-140.506C180.923,-128.019 173.475,-114.515 166.521,-101.905"/>
<polygon fill="none" stroke="midnightblue" points="184.815,-142.325 192.709,-149.392 190.944,-138.945 184.815,-142.325"/>
</g>
</g>
</svg>
