<?xml version="1.0" encoding="UTF-8" standalone="no"?>
<!DOCTYPE svg PUBLIC "-//W3C//DTD SVG 1.1//EN"
 "http://www.w3.org/Graphics/SVG/1.1/DTD/svg11.dtd">
<!-- Generated by graphviz version 2.28.0 (20120217.0315)
 -->
<!-- Title: G Pages: 1 -->
<svg width="367pt" height="1198pt"
 viewBox="0.00 0.00 367.00 1198.00" xmlns="http://www.w3.org/2000/svg" xmlns:xlink="http://www.w3.org/1999/xlink">
<g id="graph1" class="graph" transform="scale(1 1) rotate(0) translate(4 1194)">
<title>G</title>
<polygon fill="white" stroke="white" points="-4,5 -4,-1194 364,-1194 364,5 -4,5"/>
<!-- Node1 -->
<g id="node1" class="node"><title>Node1</title>
<polygon fill="#bfbfbf" stroke="black" points="84.5,-1 84.5,-91 207.5,-91 207.5,-1 84.5,-1"/>
<text text-anchor="middle" x="146" y="-79" font-family="Helvetica,sans-Serif" font-size="10.00">Browser::QueueMerger</text>
<polyline fill="none" stroke="black" points="84.5,-72 207.5,-72 "/>
<text text-anchor="middle" x="146" y="-60" font-family="Helvetica,sans-Serif" font-size="10.00"> </text>
<polyline fill="none" stroke="black" points="84.5,-53 207.5,-53 "/>
<text text-anchor="start" x="92.5" y="-41" font-family="Helvetica,sans-Serif" font-size="10.00">+ QueueMerger()</text>
<text text-anchor="start" x="92.5" y="-30" font-family="Helvetica,sans-Serif" font-size="10.00">+ add_item()</text>
<text text-anchor="start" x="92.5" y="-19" font-family="Helvetica,sans-Serif" font-size="10.00">+ disable_merge_once()</text>
<text text-anchor="start" x="92.5" y="-8" font-family="Helvetica,sans-Serif" font-size="10.00">+ recalculate_positions()</text>
</g>
<!-- Node2 -->
<g id="node2" class="node"><title>Node2</title>
<a xlink:href="classMPD_1_1AbstractItemlist.html" target="_top" xlink:title="Inhertit from this class to use MPD::Client&#39;s fill_* methods.">
<polygon fill="white" stroke="black" points="48,-136 48,-204 162,-204 162,-136 48,-136"/>
<text text-anchor="middle" x="105" y="-192" font-family="Helvetica,sans-Serif" font-size="10.00">MPD::AbstractItemlist</text>
<polyline fill="none" stroke="black" points="48,-185 162,-185 "/>
<text text-anchor="middle" x="105" y="-173" font-family="Helvetica,sans-Serif" font-size="10.00"> </text>
<polyline fill="none" stroke="black" points="48,-166 162,-166 "/>
<text text-anchor="start" x="56" y="-154" font-family="Helvetica,sans-Serif" font-size="10.00">+ add_item()</text>
<text text-anchor="start" x="56" y="-143" font-family="Helvetica,sans-Serif" font-size="10.00">+ ~AbstractItemlist()</text>
</a>
</g>
<!-- Node2&#45;&gt;Node1 -->
<g id="edge2" class="edge"><title>Node2&#45;&gt;Node1</title>
<path fill="none" stroke="midnightblue" d="M119.366,-126.252C123.198,-114.85 127.344,-102.512 131.199,-91.0421"/>
<polygon fill="none" stroke="midnightblue" points="115.963,-125.391 116.095,-135.985 122.598,-127.621 115.963,-125.391"/>
</g>
<!-- Node3 -->
<g id="node4" class="node"><title>Node3</title>
<a xlink:href="classMPD_1_1AbstractClientUser.html" target="_top" xlink:title="{MPD::AbstractClientUser\n||+ AbstractClientUser()\l# on_client_update()\l# on_connection_change()\l}">
<polygon fill="white" stroke="black" points="180.5,-130.5 180.5,-209.5 311.5,-209.5 311.5,-130.5 180.5,-130.5"/>
<text text-anchor="middle" x="246" y="-197.5" font-family="Helvetica,sans-Serif" font-size="10.00">MPD::AbstractClientUser</text>
<polyline fill="none" stroke="black" points="180.5,-190.5 311.5,-190.5 "/>
<text text-anchor="middle" x="246" y="-178.5" font-family="Helvetica,sans-Serif" font-size="10.00"> </text>
<polyline fill="none" stroke="black" points="180.5,-171.5 311.5,-171.5 "/>
<text text-anchor="start" x="188.5" y="-159.5" font-family="Helvetica,sans-Serif" font-size="10.00">+ AbstractClientUser()</text>
<text text-anchor="start" x="188.5" y="-148.5" font-family="Helvetica,sans-Serif" font-size="10.00"># on_client_update()</text>
<text text-anchor="start" x="188.5" y="-137.5" font-family="Helvetica,sans-Serif" font-size="10.00"># on_connection_change()</text>
</a>
</g>
<!-- Node3&#45;&gt;Node1 -->
<g id="edge4" class="edge"><title>Node3&#45;&gt;Node1</title>
<path fill="none" stroke="midnightblue" d="M207.776,-122.366C199.418,-112.17 190.595,-101.406 182.314,-91.3036"/>
<polygon fill="none" stroke="midnightblue" points="205.313,-124.883 214.359,-130.398 210.727,-120.446 205.313,-124.883"/>
</g>
<!-- Node4 -->
<g id="node6" class="node"><title>Node4</title>
<a xlink:href="classMPD_1_1Client.html" target="_top" xlink:title="The client implements concrete commands of the MPD Protocol.">
<polygon fill="white" stroke="black" points="173,-259 173,-723 319,-723 319,-259 173,-259"/>
<text text-anchor="middle" x="246" y="-711" font-family="Helvetica,sans-Serif" font-size="10.00">MPD::Client</text>
<polyline fill="none" stroke="black" points="173,-704 319,-704 "/>
<text text-anchor="middle" x="246" y="-692" font-family="Helvetica,sans-Serif" font-size="10.00"> </text>
<polyline fill="none" stroke="black" points="173,-685 319,-685 "/>
<text text-anchor="start" x="181" y="-673" font-family="Helvetica,sans-Serif" font-size="10.00">+ Client()</text>
<text text-anchor="start" x="181" y="-662" font-family="Helvetica,sans-Serif" font-size="10.00">+ ~Client()</text>
<text text-anchor="start" x="181" y="-651" font-family="Helvetica,sans-Serif" font-size="10.00">+ connect()</text>
<text text-anchor="start" x="181" y="-640" font-family="Helvetica,sans-Serif" font-size="10.00">+ disconnect()</text>
<text text-anchor="start" x="181" y="-629" font-family="Helvetica,sans-Serif" font-size="10.00">+ playback_next()</text>
<text text-anchor="start" x="181" y="-618" font-family="Helvetica,sans-Serif" font-size="10.00">+ playback_prev()</text>
<text text-anchor="start" x="181" y="-607" font-family="Helvetica,sans-Serif" font-size="10.00">+ playback_stop()</text>
<text text-anchor="start" x="181" y="-596" font-family="Helvetica,sans-Serif" font-size="10.00">+ playback_play()</text>
<text text-anchor="start" x="181" y="-585" font-family="Helvetica,sans-Serif" font-size="10.00">+ playback_pause()</text>
<text text-anchor="start" x="181" y="-574" font-family="Helvetica,sans-Serif" font-size="10.00">+ playback_seek()</text>
<text text-anchor="start" x="181" y="-563" font-family="Helvetica,sans-Serif" font-size="10.00">and 5 more...+ playlist_save()</text>
<text text-anchor="start" x="181" y="-552" font-family="Helvetica,sans-Serif" font-size="10.00">+ queue_add()</text>
<text text-anchor="start" x="181" y="-541" font-family="Helvetica,sans-Serif" font-size="10.00">+ queue_clear()</text>
<text text-anchor="start" x="181" y="-530" font-family="Helvetica,sans-Serif" font-size="10.00">+ queue_delete()</text>
<text text-anchor="start" x="181" y="-519" font-family="Helvetica,sans-Serif" font-size="10.00">+ database_update()</text>
<text text-anchor="start" x="181" y="-508" font-family="Helvetica,sans-Serif" font-size="10.00">+ database_rescan()</text>
<text text-anchor="start" x="181" y="-497" font-family="Helvetica,sans-Serif" font-size="10.00">+ set_volume()</text>
<text text-anchor="start" x="181" y="-486" font-family="Helvetica,sans-Serif" font-size="10.00">+ fill_queue()</text>
<text text-anchor="start" x="181" y="-475" font-family="Helvetica,sans-Serif" font-size="10.00">+ fill_queue_changes()</text>
<text text-anchor="start" x="181" y="-464" font-family="Helvetica,sans-Serif" font-size="10.00">+ fill_playlists()</text>
<text text-anchor="start" x="181" y="-453" font-family="Helvetica,sans-Serif" font-size="10.00">+ fill_outputs()</text>
<text text-anchor="start" x="181" y="-442" font-family="Helvetica,sans-Serif" font-size="10.00">+ fill_filelist()</text>
<text text-anchor="start" x="181" y="-431" font-family="Helvetica,sans-Serif" font-size="10.00">+ send_command()</text>
<text text-anchor="start" x="181" y="-420" font-family="Helvetica,sans-Serif" font-size="10.00">+ ping()</text>
<text text-anchor="start" x="181" y="-409" font-family="Helvetica,sans-Serif" font-size="10.00">* playlist_save()</text>
<text text-anchor="start" x="181" y="-398" font-family="Helvetica,sans-Serif" font-size="10.00">* queue_add()</text>
<text text-anchor="start" x="181" y="-387" font-family="Helvetica,sans-Serif" font-size="10.00">* queue_clear()</text>
<text text-anchor="start" x="181" y="-376" font-family="Helvetica,sans-Serif" font-size="10.00">* queue_delete()</text>
<text text-anchor="start" x="181" y="-365" font-family="Helvetica,sans-Serif" font-size="10.00">* database_update()</text>
<text text-anchor="start" x="181" y="-354" font-family="Helvetica,sans-Serif" font-size="10.00">* database_rescan()</text>
<text text-anchor="start" x="181" y="-343" font-family="Helvetica,sans-Serif" font-size="10.00">* set_volume()</text>
<text text-anchor="start" x="181" y="-332" font-family="Helvetica,sans-Serif" font-size="10.00">* fill_queue()</text>
<text text-anchor="start" x="181" y="-321" font-family="Helvetica,sans-Serif" font-size="10.00">* fill_queue_changes()</text>
<text text-anchor="start" x="181" y="-310" font-family="Helvetica,sans-Serif" font-size="10.00">* fill_playlists()</text>
<text text-anchor="start" x="181" y="-299" font-family="Helvetica,sans-Serif" font-size="10.00">* fill_outputs()</text>
<text text-anchor="start" x="181" y="-288" font-family="Helvetica,sans-Serif" font-size="10.00">* fill_filelist()</text>
<text text-anchor="start" x="181" y="-277" font-family="Helvetica,sans-Serif" font-size="10.00">* send_command()</text>
<text text-anchor="start" x="181" y="-266" font-family="Helvetica,sans-Serif" font-size="10.00">* ping()</text>
</a>
</g>
<!-- Node4&#45;&gt;Node3 -->
<g id="edge6" class="edge"><title>Node4&#45;&gt;Node3</title>
<path fill="none" stroke="#404040" d="M246,-258.59C246,-245.478 246,-233.187 246,-222.195"/>
<polygon fill="none" stroke="#404040" points="246,-221.919 242,-215.919 246,-209.919 250,-215.919 246,-221.919"/>
<text text-anchor="middle" x="270" y="-231.5" font-family="Helvetica,sans-Serif" font-size="10.00"> mp_Client</text>
</g>
<!-- Node5 -->
<g id="node8" class="node"><title>Node5</title>
<a xlink:href="classMPD_1_1BaseClient.html" target="_top" xlink:title="The Base to MPD::Client.">
<polygon fill="white" stroke="black" points="51,-762.5 51,-973.5 197,-973.5 197,-762.5 51,-762.5"/>
<text text-anchor="middle" x="124" y="-961.5" font-family="Helvetica,sans-Serif" font-size="10.00">MPD::BaseClient</text>
<polyline fill="none" stroke="black" points="51,-954.5 197,-954.5 "/>
<text text-anchor="middle" x="124" y="-942.5" font-family="Helvetica,sans-Serif" font-size="10.00"> </text>
<polyline fill="none" stroke="black" points="51,-935.5 197,-935.5 "/>
<text text-anchor="start" x="59" y="-923.5" font-family="Helvetica,sans-Serif" font-size="10.00">+ go_idle()</text>
<text text-anchor="start" x="59" y="-912.5" font-family="Helvetica,sans-Serif" font-size="10.00">+ go_busy()</text>
<text text-anchor="start" x="59" y="-901.5" font-family="Helvetica,sans-Serif" font-size="10.00">+ get_connection()</text>
<text text-anchor="start" x="59" y="-890.5" font-family="Helvetica,sans-Serif" font-size="10.00">+ is_connected()</text>
<text text-anchor="start" x="59" y="-879.5" font-family="Helvetica,sans-Serif" font-size="10.00">+ begin()</text>
<text text-anchor="start" x="59" y="-868.5" font-family="Helvetica,sans-Serif" font-size="10.00">+ commit()</text>
<text text-anchor="start" x="59" y="-857.5" font-family="Helvetica,sans-Serif" font-size="10.00">+ get_status()</text>
<text text-anchor="start" x="59" y="-846.5" font-family="Helvetica,sans-Serif" font-size="10.00">+ signal_client_update()</text>
<text text-anchor="start" x="59" y="-835.5" font-family="Helvetica,sans-Serif" font-size="10.00">+ signal_connection_change()</text>
<text text-anchor="start" x="59" y="-824.5" font-family="Helvetica,sans-Serif" font-size="10.00">+ force_update()</text>
<text text-anchor="start" x="59" y="-813.5" font-family="Helvetica,sans-Serif" font-size="10.00">+ create_db_songs_query()</text>
<text text-anchor="start" x="59" y="-802.5" font-family="Helvetica,sans-Serif" font-size="10.00">+ create_db_tag_query()</text>
<text text-anchor="start" x="59" y="-791.5" font-family="Helvetica,sans-Serif" font-size="10.00"># BaseClient()</text>
<text text-anchor="start" x="59" y="-780.5" font-family="Helvetica,sans-Serif" font-size="10.00"># __connect()</text>
<text text-anchor="start" x="59" y="-769.5" font-family="Helvetica,sans-Serif" font-size="10.00"># __disconnect()</text>
</a>
</g>
<!-- Node5&#45;&gt;Node4 -->
<g id="edge8" class="edge"><title>Node5&#45;&gt;Node4</title>
<path fill="none" stroke="midnightblue" d="M161.282,-752.402C165.058,-740.796 168.978,-728.749 172.969,-716.481"/>
<polygon fill="none" stroke="midnightblue" points="157.912,-751.451 158.146,-762.043 164.568,-753.616 157.912,-751.451"/>
</g>
<!-- Node6 -->
<g id="node10" class="node"><title>Node6</title>
<a xlink:href="classMPD_1_1Listener.html" target="_top" xlink:title="Listener for Server events, Freya&#39;s actual core.">
<polygon fill="white" stroke="black" points="0,-1044.5 0,-1167.5 88,-1167.5 88,-1044.5 0,-1044.5"/>
<text text-anchor="middle" x="44" y="-1155.5" font-family="Helvetica,sans-Serif" font-size="10.00">MPD::Listener</text>
<polyline fill="none" stroke="black" points="0,-1148.5 88,-1148.5 "/>
<text text-anchor="middle" x="44" y="-1136.5" font-family="Helvetica,sans-Serif" font-size="10.00"> </text>
<polyline fill="none" stroke="black" points="0,-1129.5 88,-1129.5 "/>
<text text-anchor="start" x="8" y="-1117.5" font-family="Helvetica,sans-Serif" font-size="10.00">+ Listener()</text>
<text text-anchor="start" x="8" y="-1106.5" font-family="Helvetica,sans-Serif" font-size="10.00">+ ~Listener()</text>
<text text-anchor="start" x="8" y="-1095.5" font-family="Helvetica,sans-Serif" font-size="10.00">+ enter()</text>
<text text-anchor="start" x="8" y="-1084.5" font-family="Helvetica,sans-Serif" font-size="10.00">+ leave()</text>
<text text-anchor="start" x="8" y="-1073.5" font-family="Helvetica,sans-Serif" font-size="10.00">+ is_idling()</text>
<text text-anchor="start" x="8" y="-1062.5" font-family="Helvetica,sans-Serif" font-size="10.00">+ get_data()</text>
<text text-anchor="start" x="8" y="-1051.5" font-family="Helvetica,sans-Serif" font-size="10.00">+ force_update()</text>
</a>
</g>
<!-- Node6&#45;&gt;Node5 -->
<g id="edge10" class="edge"><title>Node6&#45;&gt;Node5</title>
<path fill="none" stroke="#404040" d="M50.8333,-1044.39C53.6693,-1027.21 57.6015,-1008.65 63,-992 63.7305,-989.747 64.4961,-987.483 65.2932,-985.213"/>
<polygon fill="none" stroke="#404040" points="65.3425,-985.08 63.6827,-978.063 69.522,-973.832 71.1818,-980.849 65.3425,-985.08"/>
<text text-anchor="middle" x="91.5" y="-995.5" font-family="Helvetica,sans-Serif" font-size="10.00"> mp_Listener</text>
</g>
<!-- Node7 -->
<g id="node12" class="node"><title>Node7</title>
<polygon fill="white" stroke="#bfbfbf" points="106.5,-1077.5 106.5,-1134.5 141.5,-1134.5 141.5,-1077.5 106.5,-1077.5"/>
<text text-anchor="middle" x="124" y="-1122.5" font-family="Helvetica,sans-Serif" font-size="10.00">bool</text>
<polyline fill="none" stroke="#bfbfbf" points="106.5,-1115.5 141.5,-1115.5 "/>
<text text-anchor="middle" x="124" y="-1103.5" font-family="Helvetica,sans-Serif" font-size="10.00"> </text>
<polyline fill="none" stroke="#bfbfbf" points="106.5,-1096.5 141.5,-1096.5 "/>
<text text-anchor="middle" x="124" y="-1084.5" font-family="Helvetica,sans-Serif" font-size="10.00"> </text>
</g>
<!-- Node7&#45;&gt;Node5 -->
<g id="edge12" class="edge"><title>Node7&#45;&gt;Node5</title>
<path fill="none" stroke="#404040" d="M124,-1077.47C124,-1054.46 124,-1019.99 124,-985.675"/>
<polygon fill="none" stroke="#404040" points="124,-985.562 120,-979.562 124,-973.562 128,-979.562 124,-985.562"/>
<text text-anchor="middle" x="154.5" y="-995.5" font-family="Helvetica,sans-Serif" font-size="10.00"> m_ListBegun</text>
</g>
<!-- Node8 -->
<g id="node14" class="node"><title>Node8</title>
<a xlink:href="classMPD_1_1Connection.html" target="_top" xlink:title="A convinience Wrapper around mpd_connection*.">
<polygon fill="white" stroke="black" points="160,-1022.5 160,-1189.5 306,-1189.5 306,-1022.5 160,-1022.5"/>
<text text-anchor="middle" x="233" y="-1177.5" font-family="Helvetica,sans-Serif" font-size="10.00">MPD::Connection</text>
<polyline fill="none" stroke="black" points="160,-1170.5 306,-1170.5 "/>
<text text-anchor="middle" x="233" y="-1158.5" font-family="Helvetica,sans-Serif" font-size="10.00"> </text>
<polyline fill="none" stroke="black" points="160,-1151.5 306,-1151.5 "/>
<text text-anchor="start" x="168" y="-1139.5" font-family="Helvetica,sans-Serif" font-size="10.00">+ Connection()</text>
<text text-anchor="start" x="168" y="-1128.5" font-family="Helvetica,sans-Serif" font-size="10.00">+ ~Connection()</text>
<text text-anchor="start" x="168" y="-1117.5" font-family="Helvetica,sans-Serif" font-size="10.00">+ is_connected()</text>
<text text-anchor="start" x="168" y="-1106.5" font-family="Helvetica,sans-Serif" font-size="10.00">+ connect()</text>
<text text-anchor="start" x="168" y="-1095.5" font-family="Helvetica,sans-Serif" font-size="10.00">+ disconnect()</text>
<text text-anchor="start" x="168" y="-1084.5" font-family="Helvetica,sans-Serif" font-size="10.00">+ clear_error()</text>
<text text-anchor="start" x="168" y="-1073.5" font-family="Helvetica,sans-Serif" font-size="10.00">+ check_error()</text>
<text text-anchor="start" x="168" y="-1062.5" font-family="Helvetica,sans-Serif" font-size="10.00">+ signal_error()</text>
<text text-anchor="start" x="168" y="-1051.5" font-family="Helvetica,sans-Serif" font-size="10.00">+ signal_connection_change()</text>
<text text-anchor="start" x="168" y="-1040.5" font-family="Helvetica,sans-Serif" font-size="10.00">+ emit_connection_change()</text>
<text text-anchor="start" x="168" y="-1029.5" font-family="Helvetica,sans-Serif" font-size="10.00">+ get_connection()</text>
</a>
</g>
<!-- Node8&#45;&gt;Node5 -->
<g id="edge14" class="edge"><title>Node8&#45;&gt;Node5</title>
<path fill="none" stroke="#404040" d="M202.13,-1022.45C197.895,-1012.12 193.464,-1001.77 189,-992 187.878,-989.546 186.731,-987.072 185.562,-984.584"/>
<polygon fill="none" stroke="#404040" points="185.49,-984.434 179.292,-980.748 180.311,-973.609 186.509,-977.295 185.49,-984.434"/>
<text text-anchor="middle" x="213" y="-995.5" font-family="Helvetica,sans-Serif" font-size="10.00"> m_Conn</text>
</g>
<!-- Node9 -->
<g id="node16" class="node"><title>Node9</title>
<a xlink:href="classMPD_1_1AbstractItemGenerator.html" target="_top" xlink:title="{MPD::AbstractItemGenerator\n||+ fill_queue()\l+ fill_queue_changes()\l+ fill_playlists()\l+ fill_outputs()\l+ fill_filelist()\l+ ~AbstractItemGenerator()\l}">
<polygon fill="white" stroke="black" points="215,-812 215,-924 359,-924 359,-812 215,-812"/>
<text text-anchor="middle" x="287" y="-912" font-family="Helvetica,sans-Serif" font-size="10.00">MPD::AbstractItemGenerator</text>
<polyline fill="none" stroke="black" points="215,-905 359,-905 "/>
<text text-anchor="middle" x="287" y="-893" font-family="Helvetica,sans-Serif" font-size="10.00"> </text>
<polyline fill="none" stroke="black" points="215,-886 359,-886 "/>
<text text-anchor="start" x="223" y="-874" font-family="Helvetica,sans-Serif" font-size="10.00">+ fill_queue()</text>
<text text-anchor="start" x="223" y="-863" font-family="Helvetica,sans-Serif" font-size="10.00">+ fill_queue_changes()</text>
<text text-anchor="start" x="223" y="-852" font-family="Helvetica,sans-Serif" font-size="10.00">+ fill_playlists()</text>
<text text-anchor="start" x="223" y="-841" font-family="Helvetica,sans-Serif" font-size="10.00">+ fill_outputs()</text>
<text text-anchor="start" x="223" y="-830" font-family="Helvetica,sans-Serif" font-size="10.00">+ fill_filelist()</text>
<text text-anchor="start" x="223" y="-819" font-family="Helvetica,sans-Serif" font-size="10.00">+ ~AbstractItemGenerator()</text>
</a>
</g>
<!-- Node9&#45;&gt;Node4 -->
<g id="edge16" class="edge"><title>Node9&#45;&gt;Node4</title>
<path fill="none" stroke="midnightblue" d="M279.837,-801.484C277.34,-778.644 274.376,-751.537 271.257,-723.008"/>
<polygon fill="none" stroke="midnightblue" points="276.384,-802.107 280.95,-811.667 283.343,-801.346 276.384,-802.107"/>
</g>
</g>
</svg>
