<?xml version="1.0" encoding="UTF-8" standalone="no"?>
<!DOCTYPE svg PUBLIC "-//W3C//DTD SVG 1.1//EN"
 "http://www.w3.org/Graphics/SVG/1.1/DTD/svg11.dtd">
<!-- Generated by graphviz version 2.28.0 (20120217.0315)
 -->
<!-- Title: G Pages: 1 -->
<svg width="367pt" height="1232pt"
 viewBox="0.00 0.00 367.00 1232.00" xmlns="http://www.w3.org/2000/svg" xmlns:xlink="http://www.w3.org/1999/xlink">
<g id="graph1" class="graph" transform="scale(1 1) rotate(0) translate(4 1228)">
<title>G</title>
<polygon fill="white" stroke="white" points="-4,5 -4,-1228 364,-1228 364,5 -4,5"/>
<!-- Node1 -->
<g id="node1" class="node"><title>Node1</title>
<polygon fill="#bfbfbf" stroke="black" points="92.5,-1 92.5,-69 203.5,-69 203.5,-1 92.5,-1"/>
<text text-anchor="middle" x="148" y="-57" font-family="Helvetica,sans-Serif" font-size="10.00">Browser::NowPlaying</text>
<polyline fill="none" stroke="black" points="92.5,-50 203.5,-50 "/>
<text text-anchor="middle" x="148" y="-38" font-family="Helvetica,sans-Serif" font-size="10.00"> </text>
<polyline fill="none" stroke="black" points="92.5,-31 203.5,-31 "/>
<text text-anchor="start" x="100.5" y="-19" font-family="Helvetica,sans-Serif" font-size="10.00">+ NowPlaying()</text>
<text text-anchor="start" x="100.5" y="-8" font-family="Helvetica,sans-Serif" font-size="10.00">+ get_container()</text>
</g>
<!-- Node2 -->
<g id="node2" class="node"><title>Node2</title>
<a xlink:href="classAbstractBrowser.html" target="_top" xlink:title="Inherit from this class in order to be able to add the browser to the browserlist.">
<polygon fill="white" stroke="black" points="52,-109 52,-243 162,-243 162,-109 52,-109"/>
<text text-anchor="middle" x="107" y="-231" font-family="Helvetica,sans-Serif" font-size="10.00">AbstractBrowser</text>
<polyline fill="none" stroke="black" points="52,-224 162,-224 "/>
<text text-anchor="middle" x="107" y="-212" font-family="Helvetica,sans-Serif" font-size="10.00"> </text>
<polyline fill="none" stroke="black" points="52,-205 162,-205 "/>
<text text-anchor="start" x="60" y="-193" font-family="Helvetica,sans-Serif" font-size="10.00">+ AbstractBrowser()</text>
<text text-anchor="start" x="60" y="-182" font-family="Helvetica,sans-Serif" font-size="10.00">+ get_container()</text>
<text text-anchor="start" x="60" y="-171" font-family="Helvetica,sans-Serif" font-size="10.00">+ get_name()</text>
<text text-anchor="start" x="60" y="-160" font-family="Helvetica,sans-Serif" font-size="10.00">+ get_icon_stock_id()</text>
<text text-anchor="start" x="60" y="-149" font-family="Helvetica,sans-Serif" font-size="10.00">+ is_visible()</text>
<text text-anchor="start" x="60" y="-138" font-family="Helvetica,sans-Serif" font-size="10.00">+ needs_connection()</text>
<text text-anchor="start" x="60" y="-127" font-family="Helvetica,sans-Serif" font-size="10.00">+ is_active()</text>
<text text-anchor="start" x="60" y="-116" font-family="Helvetica,sans-Serif" font-size="10.00">+ on_getting_active()</text>
</a>
</g>
<!-- Node2&#45;&gt;Node1 -->
<g id="edge2" class="edge"><title>Node2&#45;&gt;Node1</title>
<path fill="none" stroke="midnightblue" d="M129.382,-99.12C132.468,-88.6563 135.497,-78.3871 138.186,-69.2719"/>
<polygon fill="none" stroke="midnightblue" points="126.012,-98.1751 126.539,-108.757 132.726,-100.156 126.012,-98.1751"/>
</g>
<!-- Node3 -->
<g id="node4" class="node"><title>Node3</title>
<a xlink:href="classMPD_1_1AbstractClientUser.html" target="_top" xlink:title="{MPD::AbstractClientUser\n||+ AbstractClientUser()\l# on_client_update()\l# on_connection_change()\l}">
<polygon fill="white" stroke="black" points="180.5,-136.5 180.5,-215.5 311.5,-215.5 311.5,-136.5 180.5,-136.5"/>
<text text-anchor="middle" x="246" y="-203.5" font-family="Helvetica,sans-Serif" font-size="10.00">MPD::AbstractClientUser</text>
<polyline fill="none" stroke="black" points="180.5,-196.5 311.5,-196.5 "/>
<text text-anchor="middle" x="246" y="-184.5" font-family="Helvetica,sans-Serif" font-size="10.00"> </text>
<polyline fill="none" stroke="black" points="180.5,-177.5 311.5,-177.5 "/>
<text text-anchor="start" x="188.5" y="-165.5" font-family="Helvetica,sans-Serif" font-size="10.00">+ AbstractClientUser()</text>
<text text-anchor="start" x="188.5" y="-154.5" font-family="Helvetica,sans-Serif" font-size="10.00"># on_client_update()</text>
<text text-anchor="start" x="188.5" y="-143.5" font-family="Helvetica,sans-Serif" font-size="10.00"># on_connection_change()</text>
</a>
</g>
<!-- Node3&#45;&gt;Node1 -->
<g id="edge4" class="edge"><title>Node3&#45;&gt;Node1</title>
<path fill="none" stroke="midnightblue" d="M212.813,-127.929C199.245,-108.685 183.866,-86.8717 171.495,-69.3243"/>
<polygon fill="none" stroke="midnightblue" points="210.079,-130.125 218.702,-136.281 215.8,-126.091 210.079,-130.125"/>
</g>
<!-- Node4 -->
<g id="node6" class="node"><title>Node4</title>
<a xlink:href="classMPD_1_1Client.html" target="_top" xlink:title="The client implements concrete commands of the MPD Protocol.">
<polygon fill="white" stroke="black" points="173,-293 173,-757 319,-757 319,-293 173,-293"/>
<text text-anchor="middle" x="246" y="-745" font-family="Helvetica,sans-Serif" font-size="10.00">MPD::Client</text>
<polyline fill="none" stroke="black" points="173,-738 319,-738 "/>
<text text-anchor="middle" x="246" y="-726" font-family="Helvetica,sans-Serif" font-size="10.00"> </text>
<polyline fill="none" stroke="black" points="173,-719 319,-719 "/>
<text text-anchor="start" x="181" y="-707" font-family="Helvetica,sans-Serif" font-size="10.00">+ Client()</text>
<text text-anchor="start" x="181" y="-696" font-family="Helvetica,sans-Serif" font-size="10.00">+ ~Client()</text>
<text text-anchor="start" x="181" y="-685" font-family="Helvetica,sans-Serif" font-size="10.00">+ connect()</text>
<text text-anchor="start" x="181" y="-674" font-family="Helvetica,sans-Serif" font-size="10.00">+ disconnect()</text>
<text text-anchor="start" x="181" y="-663" font-family="Helvetica,sans-Serif" font-size="10.00">+ playback_next()</text>
<text text-anchor="start" x="181" y="-652" font-family="Helvetica,sans-Serif" font-size="10.00">+ playback_prev()</text>
<text text-anchor="start" x="181" y="-641" font-family="Helvetica,sans-Serif" font-size="10.00">+ playback_stop()</text>
<text text-anchor="start" x="181" y="-630" font-family="Helvetica,sans-Serif" font-size="10.00">+ playback_play()</text>
<text text-anchor="start" x="181" y="-619" font-family="Helvetica,sans-Serif" font-size="10.00">+ playback_pause()</text>
<text text-anchor="start" x="181" y="-608" font-family="Helvetica,sans-Serif" font-size="10.00">+ playback_seek()</text>
<text text-anchor="start" x="181" y="-597" font-family="Helvetica,sans-Serif" font-size="10.00">and 5 more...+ playlist_save()</text>
<text text-anchor="start" x="181" y="-586" font-family="Helvetica,sans-Serif" font-size="10.00">+ queue_add()</text>
<text text-anchor="start" x="181" y="-575" font-family="Helvetica,sans-Serif" font-size="10.00">+ queue_clear()</text>
<text text-anchor="start" x="181" y="-564" font-family="Helvetica,sans-Serif" font-size="10.00">+ queue_delete()</text>
<text text-anchor="start" x="181" y="-553" font-family="Helvetica,sans-Serif" font-size="10.00">+ database_update()</text>
<text text-anchor="start" x="181" y="-542" font-family="Helvetica,sans-Serif" font-size="10.00">+ database_rescan()</text>
<text text-anchor="start" x="181" y="-531" font-family="Helvetica,sans-Serif" font-size="10.00">+ set_volume()</text>
<text text-anchor="start" x="181" y="-520" font-family="Helvetica,sans-Serif" font-size="10.00">+ fill_queue()</text>
<text text-anchor="start" x="181" y="-509" font-family="Helvetica,sans-Serif" font-size="10.00">+ fill_queue_changes()</text>
<text text-anchor="start" x="181" y="-498" font-family="Helvetica,sans-Serif" font-size="10.00">+ fill_playlists()</text>
<text text-anchor="start" x="181" y="-487" font-family="Helvetica,sans-Serif" font-size="10.00">+ fill_outputs()</text>
<text text-anchor="start" x="181" y="-476" font-family="Helvetica,sans-Serif" font-size="10.00">+ fill_filelist()</text>
<text text-anchor="start" x="181" y="-465" font-family="Helvetica,sans-Serif" font-size="10.00">+ send_command()</text>
<text text-anchor="start" x="181" y="-454" font-family="Helvetica,sans-Serif" font-size="10.00">+ ping()</text>
<text text-anchor="start" x="181" y="-443" font-family="Helvetica,sans-Serif" font-size="10.00">* playlist_save()</text>
<text text-anchor="start" x="181" y="-432" font-family="Helvetica,sans-Serif" font-size="10.00">* queue_add()</text>
<text text-anchor="start" x="181" y="-421" font-family="Helvetica,sans-Serif" font-size="10.00">* queue_clear()</text>
<text text-anchor="start" x="181" y="-410" font-family="Helvetica,sans-Serif" font-size="10.00">* queue_delete()</text>
<text text-anchor="start" x="181" y="-399" font-family="Helvetica,sans-Serif" font-size="10.00">* database_update()</text>
<text text-anchor="start" x="181" y="-388" font-family="Helvetica,sans-Serif" font-size="10.00">* database_rescan()</text>
<text text-anchor="start" x="181" y="-377" font-family="Helvetica,sans-Serif" font-size="10.00">* set_volume()</text>
<text text-anchor="start" x="181" y="-366" font-family="Helvetica,sans-Serif" font-size="10.00">* fill_queue()</text>
<text text-anchor="start" x="181" y="-355" font-family="Helvetica,sans-Serif" font-size="10.00">* fill_queue_changes()</text>
<text text-anchor="start" x="181" y="-344" font-family="Helvetica,sans-Serif" font-size="10.00">* fill_playlists()</text>
<text text-anchor="start" x="181" y="-333" font-family="Helvetica,sans-Serif" font-size="10.00">* fill_outputs()</text>
<text text-anchor="start" x="181" y="-322" font-family="Helvetica,sans-Serif" font-size="10.00">* fill_filelist()</text>
<text text-anchor="start" x="181" y="-311" font-family="Helvetica,sans-Serif" font-size="10.00">* send_command()</text>
<text text-anchor="start" x="181" y="-300" font-family="Helvetica,sans-Serif" font-size="10.00">* ping()</text>
</a>
</g>
<!-- Node4&#45;&gt;Node3 -->
<g id="edge6" class="edge"><title>Node4&#45;&gt;Node3</title>
<path fill="none" stroke="#404040" d="M246,-292.546C246,-268.607 246,-246.33 246,-227.853"/>
<polygon fill="none" stroke="#404040" points="246,-227.693 242,-221.693 246,-215.693 250,-221.693 246,-227.693"/>
<text text-anchor="middle" x="270" y="-265.5" font-family="Helvetica,sans-Serif" font-size="10.00"> mp_Client</text>
</g>
<!-- Node5 -->
<g id="node8" class="node"><title>Node5</title>
<a xlink:href="classMPD_1_1BaseClient.html" target="_top" xlink:title="The Base to MPD::Client.">
<polygon fill="white" stroke="black" points="51,-796.5 51,-1007.5 197,-1007.5 197,-796.5 51,-796.5"/>
<text text-anchor="middle" x="124" y="-995.5" font-family="Helvetica,sans-Serif" font-size="10.00">MPD::BaseClient</text>
<polyline fill="none" stroke="black" points="51,-988.5 197,-988.5 "/>
<text text-anchor="middle" x="124" y="-976.5" font-family="Helvetica,sans-Serif" font-size="10.00"> </text>
<polyline fill="none" stroke="black" points="51,-969.5 197,-969.5 "/>
<text text-anchor="start" x="59" y="-957.5" font-family="Helvetica,sans-Serif" font-size="10.00">+ go_idle()</text>
<text text-anchor="start" x="59" y="-946.5" font-family="Helvetica,sans-Serif" font-size="10.00">+ go_busy()</text>
<text text-anchor="start" x="59" y="-935.5" font-family="Helvetica,sans-Serif" font-size="10.00">+ get_connection()</text>
<text text-anchor="start" x="59" y="-924.5" font-family="Helvetica,sans-Serif" font-size="10.00">+ is_connected()</text>
<text text-anchor="start" x="59" y="-913.5" font-family="Helvetica,sans-Serif" font-size="10.00">+ begin()</text>
<text text-anchor="start" x="59" y="-902.5" font-family="Helvetica,sans-Serif" font-size="10.00">+ commit()</text>
<text text-anchor="start" x="59" y="-891.5" font-family="Helvetica,sans-Serif" font-size="10.00">+ get_status()</text>
<text text-anchor="start" x="59" y="-880.5" font-family="Helvetica,sans-Serif" font-size="10.00">+ signal_client_update()</text>
<text text-anchor="start" x="59" y="-869.5" font-family="Helvetica,sans-Serif" font-size="10.00">+ signal_connection_change()</text>
<text text-anchor="start" x="59" y="-858.5" font-family="Helvetica,sans-Serif" font-size="10.00">+ force_update()</text>
<text text-anchor="start" x="59" y="-847.5" font-family="Helvetica,sans-Serif" font-size="10.00">+ create_db_songs_query()</text>
<text text-anchor="start" x="59" y="-836.5" font-family="Helvetica,sans-Serif" font-size="10.00">+ create_db_tag_query()</text>
<text text-anchor="start" x="59" y="-825.5" font-family="Helvetica,sans-Serif" font-size="10.00"># BaseClient()</text>
<text text-anchor="start" x="59" y="-814.5" font-family="Helvetica,sans-Serif" font-size="10.00"># __connect()</text>
<text text-anchor="start" x="59" y="-803.5" font-family="Helvetica,sans-Serif" font-size="10.00"># __disconnect()</text>
</a>
</g>
<!-- Node5&#45;&gt;Node4 -->
<g id="edge8" class="edge"><title>Node5&#45;&gt;Node4</title>
<path fill="none" stroke="midnightblue" d="M161.282,-786.402C165.058,-774.796 168.978,-762.749 172.969,-750.481"/>
<polygon fill="none" stroke="midnightblue" points="157.912,-785.451 158.146,-796.043 164.568,-787.616 157.912,-785.451"/>
</g>
<!-- Node6 -->
<g id="node10" class="node"><title>Node6</title>
<a xlink:href="classMPD_1_1Listener.html" target="_top" xlink:title="Listener for Server events, Freya&#39;s actual core.">
<polygon fill="white" stroke="black" points="0,-1078.5 0,-1201.5 88,-1201.5 88,-1078.5 0,-1078.5"/>
<text text-anchor="middle" x="44" y="-1189.5" font-family="Helvetica,sans-Serif" font-size="10.00">MPD::Listener</text>
<polyline fill="none" stroke="black" points="0,-1182.5 88,-1182.5 "/>
<text text-anchor="middle" x="44" y="-1170.5" font-family="Helvetica,sans-Serif" font-size="10.00"> </text>
<polyline fill="none" stroke="black" points="0,-1163.5 88,-1163.5 "/>
<text text-anchor="start" x="8" y="-1151.5" font-family="Helvetica,sans-Serif" font-size="10.00">+ Listener()</text>
<text text-anchor="start" x="8" y="-1140.5" font-family="Helvetica,sans-Serif" font-size="10.00">+ ~Listener()</text>
<text text-anchor="start" x="8" y="-1129.5" font-family="Helvetica,sans-Serif" font-size="10.00">+ enter()</text>
<text text-anchor="start" x="8" y="-1118.5" font-family="Helvetica,sans-Serif" font-size="10.00">+ leave()</text>
<text text-anchor="start" x="8" y="-1107.5" font-family="Helvetica,sans-Serif" font-size="10.00">+ is_idling()</text>
<text text-anchor="start" x="8" y="-1096.5" font-family="Helvetica,sans-Serif" font-size="10.00">+ get_data()</text>
<text text-anchor="start" x="8" y="-1085.5" font-family="Helvetica,sans-Serif" font-size="10.00">+ force_update()</text>
</a>
</g>
<!-- Node6&#45;&gt;Node5 -->
<g id="edge10" class="edge"><title>Node6&#45;&gt;Node5</title>
<path fill="none" stroke="#404040" d="M50.8333,-1078.39C53.6693,-1061.21 57.6015,-1042.65 63,-1026 63.7305,-1023.75 64.4961,-1021.48 65.2932,-1019.21"/>
<polygon fill="none" stroke="#404040" points="65.3425,-1019.08 63.6827,-1012.06 69.522,-1007.83 71.1818,-1014.85 65.3425,-1019.08"/>
<text text-anchor="middle" x="91.5" y="-1029.5" font-family="Helvetica,sans-Serif" font-size="10.00"> mp_Listener</text>
</g>
<!-- Node7 -->
<g id="node12" class="node"><title>Node7</title>
<polygon fill="white" stroke="#bfbfbf" points="106.5,-1111.5 106.5,-1168.5 141.5,-1168.5 141.5,-1111.5 106.5,-1111.5"/>
<text text-anchor="middle" x="124" y="-1156.5" font-family="Helvetica,sans-Serif" font-size="10.00">bool</text>
<polyline fill="none" stroke="#bfbfbf" points="106.5,-1149.5 141.5,-1149.5 "/>
<text text-anchor="middle" x="124" y="-1137.5" font-family="Helvetica,sans-Serif" font-size="10.00"> </text>
<polyline fill="none" stroke="#bfbfbf" points="106.5,-1130.5 141.5,-1130.5 "/>
<text text-anchor="middle" x="124" y="-1118.5" font-family="Helvetica,sans-Serif" font-size="10.00"> </text>
</g>
<!-- Node7&#45;&gt;Node5 -->
<g id="edge12" class="edge"><title>Node7&#45;&gt;Node5</title>
<path fill="none" stroke="#404040" d="M124,-1111.47C124,-1088.46 124,-1053.99 124,-1019.68"/>
<polygon fill="none" stroke="#404040" points="124,-1019.56 120,-1013.56 124,-1007.56 128,-1013.56 124,-1019.56"/>
<text text-anchor="middle" x="154.5" y="-1029.5" font-family="Helvetica,sans-Serif" font-size="10.00"> m_ListBegun</text>
</g>
<!-- Node8 -->
<g id="node14" class="node"><title>Node8</title>
<a xlink:href="classMPD_1_1Connection.html" target="_top" xlink:title="A convinience Wrapper around mpd_connection*.">
<polygon fill="white" stroke="black" points="160,-1056.5 160,-1223.5 306,-1223.5 306,-1056.5 160,-1056.5"/>
<text text-anchor="middle" x="233" y="-1211.5" font-family="Helvetica,sans-Serif" font-size="10.00">MPD::Connection</text>
<polyline fill="none" stroke="black" points="160,-1204.5 306,-1204.5 "/>
<text text-anchor="middle" x="233" y="-1192.5" font-family="Helvetica,sans-Serif" font-size="10.00"> </text>
<polyline fill="none" stroke="black" points="160,-1185.5 306,-1185.5 "/>
<text text-anchor="start" x="168" y="-1173.5" font-family="Helvetica,sans-Serif" font-size="10.00">+ Connection()</text>
<text text-anchor="start" x="168" y="-1162.5" font-family="Helvetica,sans-Serif" font-size="10.00">+ ~Connection()</text>
<text text-anchor="start" x="168" y="-1151.5" font-family="Helvetica,sans-Serif" font-size="10.00">+ is_connected()</text>
<text text-anchor="start" x="168" y="-1140.5" font-family="Helvetica,sans-Serif" font-size="10.00">+ connect()</text>
<text text-anchor="start" x="168" y="-1129.5" font-family="Helvetica,sans-Serif" font-size="10.00">+ disconnect()</text>
<text text-anchor="start" x="168" y="-1118.5" font-family="Helvetica,sans-Serif" font-size="10.00">+ clear_error()</text>
<text text-anchor="start" x="168" y="-1107.5" font-family="Helvetica,sans-Serif" font-size="10.00">+ check_error()</text>
<text text-anchor="start" x="168" y="-1096.5" font-family="Helvetica,sans-Serif" font-size="10.00">+ signal_error()</text>
<text text-anchor="start" x="168" y="-1085.5" font-family="Helvetica,sans-Serif" font-size="10.00">+ signal_connection_change()</text>
<text text-anchor="start" x="168" y="-1074.5" font-family="Helvetica,sans-Serif" font-size="10.00">+ emit_connection_change()</text>
<text text-anchor="start" x="168" y="-1063.5" font-family="Helvetica,sans-Serif" font-size="10.00">+ get_connection()</text>
</a>
</g>
<!-- Node8&#45;&gt;Node5 -->
<g id="edge14" class="edge"><title>Node8&#45;&gt;Node5</title>
<path fill="none" stroke="#404040" d="M202.13,-1056.45C197.895,-1046.12 193.464,-1035.77 189,-1026 187.878,-1023.55 186.731,-1021.07 185.562,-1018.58"/>
<polygon fill="none" stroke="#404040" points="185.49,-1018.43 179.292,-1014.75 180.311,-1007.61 186.509,-1011.3 185.49,-1018.43"/>
<text text-anchor="middle" x="213" y="-1029.5" font-family="Helvetica,sans-Serif" font-size="10.00"> m_Conn</text>
</g>
<!-- Node9 -->
<g id="node16" class="node"><title>Node9</title>
<a xlink:href="classMPD_1_1AbstractItemGenerator.html" target="_top" xlink:title="{MPD::AbstractItemGenerator\n||+ fill_queue()\l+ fill_queue_changes()\l+ fill_playlists()\l+ fill_outputs()\l+ fill_filelist()\l+ ~AbstractItemGenerator()\l}">
<polygon fill="white" stroke="black" points="215,-846 215,-958 359,-958 359,-846 215,-846"/>
<text text-anchor="middle" x="287" y="-946" font-family="Helvetica,sans-Serif" font-size="10.00">MPD::AbstractItemGenerator</text>
<polyline fill="none" stroke="black" points="215,-939 359,-939 "/>
<text text-anchor="middle" x="287" y="-927" font-family="Helvetica,sans-Serif" font-size="10.00"> </text>
<polyline fill="none" stroke="black" points="215,-920 359,-920 "/>
<text text-anchor="start" x="223" y="-908" font-family="Helvetica,sans-Serif" font-size="10.00">+ fill_queue()</text>
<text text-anchor="start" x="223" y="-897" font-family="Helvetica,sans-Serif" font-size="10.00">+ fill_queue_changes()</text>
<text text-anchor="start" x="223" y="-886" font-family="Helvetica,sans-Serif" font-size="10.00">+ fill_playlists()</text>
<text text-anchor="start" x="223" y="-875" font-family="Helvetica,sans-Serif" font-size="10.00">+ fill_outputs()</text>
<text text-anchor="start" x="223" y="-864" font-family="Helvetica,sans-Serif" font-size="10.00">+ fill_filelist()</text>
<text text-anchor="start" x="223" y="-853" font-family="Helvetica,sans-Serif" font-size="10.00">+ ~AbstractItemGenerator()</text>
</a>
</g>
<!-- Node9&#45;&gt;Node4 -->
<g id="edge16" class="edge"><title>Node9&#45;&gt;Node4</title>
<path fill="none" stroke="midnightblue" d="M279.837,-835.484C277.34,-812.644 274.376,-785.537 271.257,-757.008"/>
<polygon fill="none" stroke="midnightblue" points="276.384,-836.107 280.95,-845.667 283.343,-835.346 276.384,-836.107"/>
</g>
</g>
</svg>
