<?xml version="1.0" encoding="UTF-8" standalone="no"?>
<!DOCTYPE svg PUBLIC "-//W3C//DTD SVG 1.1//EN"
 "http://www.w3.org/Graphics/SVG/1.1/DTD/svg11.dtd">
<!-- Generated by graphviz version 2.28.0 (20111204.1018)
 -->
<!-- Title: G Pages: 1 -->
<svg width="468pt" height="1296pt"
 viewBox="0.00 0.00 468.00 1296.00" xmlns="http://www.w3.org/2000/svg" xmlns:xlink="http://www.w3.org/1999/xlink">
<g id="graph1" class="graph" transform="scale(1 1) rotate(0) translate(4 1292)">
<title>G</title>
<polygon fill="white" stroke="white" points="-4,5 -4,-1292 465,-1292 465,5 -4,5"/>
<!-- Node1 -->
<g id="node1" class="node"><title>Node1</title>
<polygon fill="#bfbfbf" stroke="black" points="140.5,-0.5 140.5,-167.5 271.5,-167.5 271.5,-0.5 140.5,-0.5"/>
<text text-anchor="middle" x="206" y="-155.5" font-family="Helvetica,sans-Serif" font-size="10.00">Browser::SettingsOutputs</text>
<polyline fill="none" stroke="black" points="140.5,-148.5 271.5,-148.5 "/>
<text text-anchor="middle" x="206" y="-136.5" font-family="Helvetica,sans-Serif" font-size="10.00"> </text>
<polyline fill="none" stroke="black" points="140.5,-129.5 271.5,-129.5 "/>
<text text-anchor="start" x="148.5" y="-117.5" font-family="Helvetica,sans-Serif" font-size="10.00">+ SettingsOutputs()</text>
<text text-anchor="start" x="148.5" y="-106.5" font-family="Helvetica,sans-Serif" font-size="10.00">+ ~SettingsOutputs()</text>
<text text-anchor="start" x="148.5" y="-95.5" font-family="Helvetica,sans-Serif" font-size="10.00">+ accept_new_settings()</text>
<text text-anchor="start" x="148.5" y="-84.5" font-family="Helvetica,sans-Serif" font-size="10.00">+ decline_new_settings()</text>
<text text-anchor="start" x="148.5" y="-73.5" font-family="Helvetica,sans-Serif" font-size="10.00">+ reset_settings()</text>
<text text-anchor="start" x="148.5" y="-62.5" font-family="Helvetica,sans-Serif" font-size="10.00">+ add_item()</text>
<text text-anchor="start" x="148.5" y="-51.5" font-family="Helvetica,sans-Serif" font-size="10.00"># on_client_update()</text>
<text text-anchor="start" x="148.5" y="-40.5" font-family="Helvetica,sans-Serif" font-size="10.00"># on_connection_change()</text>
<text text-anchor="start" x="148.5" y="-29.5" font-family="Helvetica,sans-Serif" font-size="10.00"># on_toggle()</text>
<text text-anchor="start" x="148.5" y="-18.5" font-family="Helvetica,sans-Serif" font-size="10.00"># on_select()</text>
<text text-anchor="start" x="148.5" y="-7.5" font-family="Helvetica,sans-Serif" font-size="10.00"># clear()</text>
</g>
<!-- Node2 -->
<g id="node2" class="node"><title>Node2</title>
<a xlink:href="classBrowser_1_1AbstractSettings.html" target="_top" xlink:title="Abstract base class for every Tab in the Settingsbrowser.">
<polygon fill="white" stroke="black" points="-0.5,-206.5 -0.5,-307.5 130.5,-307.5 130.5,-206.5 -0.5,-206.5"/>
<text text-anchor="middle" x="65" y="-295.5" font-family="Helvetica,sans-Serif" font-size="10.00">Browser::AbstractSettings</text>
<polyline fill="none" stroke="black" points="-0.5,-288.5 130.5,-288.5 "/>
<text text-anchor="middle" x="65" y="-276.5" font-family="Helvetica,sans-Serif" font-size="10.00"> </text>
<polyline fill="none" stroke="black" points="-0.5,-269.5 130.5,-269.5 "/>
<text text-anchor="start" x="7.5" y="-257.5" font-family="Helvetica,sans-Serif" font-size="10.00">+ AbstractSettings()</text>
<text text-anchor="start" x="7.5" y="-246.5" font-family="Helvetica,sans-Serif" font-size="10.00">+ ~AbstractSettings()</text>
<text text-anchor="start" x="7.5" y="-235.5" font-family="Helvetica,sans-Serif" font-size="10.00">+ accept_new_settings()</text>
<text text-anchor="start" x="7.5" y="-224.5" font-family="Helvetica,sans-Serif" font-size="10.00">+ decline_new_settings()</text>
<text text-anchor="start" x="7.5" y="-213.5" font-family="Helvetica,sans-Serif" font-size="10.00">+ reset_settings()</text>
</a>
</g>
<!-- Node2&#45;&gt;Node1 -->
<g id="edge2" class="edge"><title>Node2&#45;&gt;Node1</title>
<path fill="none" stroke="midnightblue" d="M112.566,-198.314C121.507,-187.47 131.001,-175.956 140.379,-164.583"/>
<polygon fill="none" stroke="midnightblue" points="109.824,-196.138 106.162,-206.08 115.224,-200.591 109.824,-196.138"/>
</g>
<!-- Node3 -->
<g id="node4" class="node"><title>Node3</title>
<a xlink:href="classMPD_1_1AbstractItemlist.html" target="_top" xlink:title="Inhertit from this class to use MPD::Client&#39;s fill_* methods.">
<polygon fill="white" stroke="black" points="149,-223 149,-291 263,-291 263,-223 149,-223"/>
<text text-anchor="middle" x="206" y="-279" font-family="Helvetica,sans-Serif" font-size="10.00">MPD::AbstractItemlist</text>
<polyline fill="none" stroke="black" points="149,-272 263,-272 "/>
<text text-anchor="middle" x="206" y="-260" font-family="Helvetica,sans-Serif" font-size="10.00"> </text>
<polyline fill="none" stroke="black" points="149,-253 263,-253 "/>
<text text-anchor="start" x="157" y="-241" font-family="Helvetica,sans-Serif" font-size="10.00">+ add_item()</text>
<text text-anchor="start" x="157" y="-230" font-family="Helvetica,sans-Serif" font-size="10.00">+ ~AbstractItemlist()</text>
</a>
</g>
<!-- Node3&#45;&gt;Node1 -->
<g id="edge4" class="edge"><title>Node3&#45;&gt;Node1</title>
<path fill="none" stroke="midnightblue" d="M206,-212.525C206,-198.784 206,-183.116 206,-167.576"/>
<polygon fill="none" stroke="midnightblue" points="202.5,-212.624 206,-222.624 209.5,-212.624 202.5,-212.624"/>
</g>
<!-- Node4 -->
<g id="node6" class="node"><title>Node4</title>
<a xlink:href="classMPD_1_1AbstractClientUser.html" target="_top" xlink:title="{MPD::AbstractClientUser\n|# mp_Client\l|+ AbstractClientUser()\l# on_client_update()\l# on_connection_change()\l}">
<polygon fill="white" stroke="black" points="281.5,-217.5 281.5,-296.5 412.5,-296.5 412.5,-217.5 281.5,-217.5"/>
<text text-anchor="middle" x="347" y="-284.5" font-family="Helvetica,sans-Serif" font-size="10.00">MPD::AbstractClientUser</text>
<polyline fill="none" stroke="black" points="281.5,-277.5 412.5,-277.5 "/>
<text text-anchor="start" x="289.5" y="-265.5" font-family="Helvetica,sans-Serif" font-size="10.00"># mp_Client</text>
<polyline fill="none" stroke="black" points="281.5,-258.5 412.5,-258.5 "/>
<text text-anchor="start" x="289.5" y="-246.5" font-family="Helvetica,sans-Serif" font-size="10.00">+ AbstractClientUser()</text>
<text text-anchor="start" x="289.5" y="-235.5" font-family="Helvetica,sans-Serif" font-size="10.00"># on_client_update()</text>
<text text-anchor="start" x="289.5" y="-224.5" font-family="Helvetica,sans-Serif" font-size="10.00"># on_connection_change()</text>
</a>
</g>
<!-- Node4&#45;&gt;Node1 -->
<g id="edge6" class="edge"><title>Node4&#45;&gt;Node1</title>
<path fill="none" stroke="midnightblue" d="M308.458,-209.257C297.038,-195.408 284.2,-179.839 271.574,-164.526"/>
<polygon fill="none" stroke="midnightblue" points="305.943,-211.709 315.005,-217.197 311.343,-207.255 305.943,-211.709"/>
</g>
<!-- Node5 -->
<g id="node8" class="node"><title>Node5</title>
<a xlink:href="classMPD_1_1Client.html" target="_top" xlink:title="The client implements concrete commands of the MPD Protocol.">
<polygon fill="white" stroke="black" points="274,-357 274,-821 420,-821 420,-357 274,-357"/>
<text text-anchor="middle" x="347" y="-809" font-family="Helvetica,sans-Serif" font-size="10.00">MPD::Client</text>
<polyline fill="none" stroke="black" points="274,-802 420,-802 "/>
<text text-anchor="middle" x="347" y="-790" font-family="Helvetica,sans-Serif" font-size="10.00"> </text>
<polyline fill="none" stroke="black" points="274,-783 420,-783 "/>
<text text-anchor="start" x="282" y="-771" font-family="Helvetica,sans-Serif" font-size="10.00">+ Client()</text>
<text text-anchor="start" x="282" y="-760" font-family="Helvetica,sans-Serif" font-size="10.00">+ ~Client()</text>
<text text-anchor="start" x="282" y="-749" font-family="Helvetica,sans-Serif" font-size="10.00">+ connect()</text>
<text text-anchor="start" x="282" y="-738" font-family="Helvetica,sans-Serif" font-size="10.00">+ disconnect()</text>
<text text-anchor="start" x="282" y="-727" font-family="Helvetica,sans-Serif" font-size="10.00">+ playback_next()</text>
<text text-anchor="start" x="282" y="-716" font-family="Helvetica,sans-Serif" font-size="10.00">+ playback_prev()</text>
<text text-anchor="start" x="282" y="-705" font-family="Helvetica,sans-Serif" font-size="10.00">+ playback_stop()</text>
<text text-anchor="start" x="282" y="-694" font-family="Helvetica,sans-Serif" font-size="10.00">+ playback_play()</text>
<text text-anchor="start" x="282" y="-683" font-family="Helvetica,sans-Serif" font-size="10.00">+ playback_pause()</text>
<text text-anchor="start" x="282" y="-672" font-family="Helvetica,sans-Serif" font-size="10.00">+ playback_seek()</text>
<text text-anchor="start" x="282" y="-661" font-family="Helvetica,sans-Serif" font-size="10.00">and 5 more...+ playlist_save()</text>
<text text-anchor="start" x="282" y="-650" font-family="Helvetica,sans-Serif" font-size="10.00">+ queue_add()</text>
<text text-anchor="start" x="282" y="-639" font-family="Helvetica,sans-Serif" font-size="10.00">+ queue_clear()</text>
<text text-anchor="start" x="282" y="-628" font-family="Helvetica,sans-Serif" font-size="10.00">+ queue_delete()</text>
<text text-anchor="start" x="282" y="-617" font-family="Helvetica,sans-Serif" font-size="10.00">+ database_update()</text>
<text text-anchor="start" x="282" y="-606" font-family="Helvetica,sans-Serif" font-size="10.00">+ database_rescan()</text>
<text text-anchor="start" x="282" y="-595" font-family="Helvetica,sans-Serif" font-size="10.00">+ set_volume()</text>
<text text-anchor="start" x="282" y="-584" font-family="Helvetica,sans-Serif" font-size="10.00">+ fill_queue()</text>
<text text-anchor="start" x="282" y="-573" font-family="Helvetica,sans-Serif" font-size="10.00">+ fill_queue_changes()</text>
<text text-anchor="start" x="282" y="-562" font-family="Helvetica,sans-Serif" font-size="10.00">+ fill_playlists()</text>
<text text-anchor="start" x="282" y="-551" font-family="Helvetica,sans-Serif" font-size="10.00">+ fill_outputs()</text>
<text text-anchor="start" x="282" y="-540" font-family="Helvetica,sans-Serif" font-size="10.00">+ fill_filelist()</text>
<text text-anchor="start" x="282" y="-529" font-family="Helvetica,sans-Serif" font-size="10.00">+ send_command()</text>
<text text-anchor="start" x="282" y="-518" font-family="Helvetica,sans-Serif" font-size="10.00">+ ping()</text>
<text text-anchor="start" x="282" y="-507" font-family="Helvetica,sans-Serif" font-size="10.00">* playlist_save()</text>
<text text-anchor="start" x="282" y="-496" font-family="Helvetica,sans-Serif" font-size="10.00">* queue_add()</text>
<text text-anchor="start" x="282" y="-485" font-family="Helvetica,sans-Serif" font-size="10.00">* queue_clear()</text>
<text text-anchor="start" x="282" y="-474" font-family="Helvetica,sans-Serif" font-size="10.00">* queue_delete()</text>
<text text-anchor="start" x="282" y="-463" font-family="Helvetica,sans-Serif" font-size="10.00">* database_update()</text>
<text text-anchor="start" x="282" y="-452" font-family="Helvetica,sans-Serif" font-size="10.00">* database_rescan()</text>
<text text-anchor="start" x="282" y="-441" font-family="Helvetica,sans-Serif" font-size="10.00">* set_volume()</text>
<text text-anchor="start" x="282" y="-430" font-family="Helvetica,sans-Serif" font-size="10.00">* fill_queue()</text>
<text text-anchor="start" x="282" y="-419" font-family="Helvetica,sans-Serif" font-size="10.00">* fill_queue_changes()</text>
<text text-anchor="start" x="282" y="-408" font-family="Helvetica,sans-Serif" font-size="10.00">* fill_playlists()</text>
<text text-anchor="start" x="282" y="-397" font-family="Helvetica,sans-Serif" font-size="10.00">* fill_outputs()</text>
<text text-anchor="start" x="282" y="-386" font-family="Helvetica,sans-Serif" font-size="10.00">* fill_filelist()</text>
<text text-anchor="start" x="282" y="-375" font-family="Helvetica,sans-Serif" font-size="10.00">* send_command()</text>
<text text-anchor="start" x="282" y="-364" font-family="Helvetica,sans-Serif" font-size="10.00">* ping()</text>
</a>
</g>
<!-- Node5&#45;&gt;Node4 -->
<g id="edge8" class="edge"><title>Node5&#45;&gt;Node4</title>
<path fill="none" stroke="#404040" d="M347,-356.564C347,-339.215 347,-323.043 347,-309.018"/>
<polygon fill="none" stroke="#404040" points="347,-308.771 343,-302.771 347,-296.771 351,-302.771 347,-308.771"/>
<text text-anchor="middle" x="371" y="-329.5" font-family="Helvetica,sans-Serif" font-size="10.00"> mp_Client</text>
</g>
<!-- Node6 -->
<g id="node10" class="node"><title>Node6</title>
<a xlink:href="classMPD_1_1BaseClient.html" target="_top" xlink:title="The Base to MPD::Client.">
<polygon fill="white" stroke="black" points="152,-860.5 152,-1071.5 298,-1071.5 298,-860.5 152,-860.5"/>
<text text-anchor="middle" x="225" y="-1059.5" font-family="Helvetica,sans-Serif" font-size="10.00">MPD::BaseClient</text>
<polyline fill="none" stroke="black" points="152,-1052.5 298,-1052.5 "/>
<text text-anchor="start" x="160" y="-1040.5" font-family="Helvetica,sans-Serif" font-size="10.00"># m_Conn</text>
<text text-anchor="start" x="160" y="-1029.5" font-family="Helvetica,sans-Serif" font-size="10.00"># mp_Listener</text>
<text text-anchor="start" x="160" y="-1018.5" font-family="Helvetica,sans-Serif" font-size="10.00"># m_ListBegun</text>
<polyline fill="none" stroke="black" points="152,-1011.5 298,-1011.5 "/>
<text text-anchor="start" x="160" y="-999.5" font-family="Helvetica,sans-Serif" font-size="10.00">+ go_idle()</text>
<text text-anchor="start" x="160" y="-988.5" font-family="Helvetica,sans-Serif" font-size="10.00">+ go_busy()</text>
<text text-anchor="start" x="160" y="-977.5" font-family="Helvetica,sans-Serif" font-size="10.00">+ get_connection()</text>
<text text-anchor="start" x="160" y="-966.5" font-family="Helvetica,sans-Serif" font-size="10.00">+ is_connected()</text>
<text text-anchor="start" x="160" y="-955.5" font-family="Helvetica,sans-Serif" font-size="10.00">+ begin()</text>
<text text-anchor="start" x="160" y="-944.5" font-family="Helvetica,sans-Serif" font-size="10.00">+ commit()</text>
<text text-anchor="start" x="160" y="-933.5" font-family="Helvetica,sans-Serif" font-size="10.00">+ get_status()</text>
<text text-anchor="start" x="160" y="-922.5" font-family="Helvetica,sans-Serif" font-size="10.00">+ signal_client_update()</text>
<text text-anchor="start" x="160" y="-911.5" font-family="Helvetica,sans-Serif" font-size="10.00">+ signal_connection_change()</text>
<text text-anchor="start" x="160" y="-900.5" font-family="Helvetica,sans-Serif" font-size="10.00">+ force_update()</text>
<text text-anchor="start" x="160" y="-889.5" font-family="Helvetica,sans-Serif" font-size="10.00"># BaseClient()</text>
<text text-anchor="start" x="160" y="-878.5" font-family="Helvetica,sans-Serif" font-size="10.00"># __connect()</text>
<text text-anchor="start" x="160" y="-867.5" font-family="Helvetica,sans-Serif" font-size="10.00"># __disconnect()</text>
</a>
</g>
<!-- Node6&#45;&gt;Node5 -->
<g id="edge10" class="edge"><title>Node6&#45;&gt;Node5</title>
<path fill="none" stroke="midnightblue" d="M262.282,-850.402C266.058,-838.796 269.978,-826.749 273.969,-814.481"/>
<polygon fill="none" stroke="midnightblue" points="258.912,-849.451 259.146,-860.043 265.568,-851.616 258.912,-849.451"/>
</g>
<!-- Node7 -->
<g id="node12" class="node"><title>Node7</title>
<a xlink:href="classMPD_1_1Listener.html" target="_top" xlink:title="Listener for Server events, Freya&#39;s actual core.">
<polygon fill="white" stroke="black" points="45,-1142.5 45,-1265.5 189,-1265.5 189,-1142.5 45,-1142.5"/>
<text text-anchor="middle" x="117" y="-1253.5" font-family="Helvetica,sans-Serif" font-size="10.00">MPD::Listener</text>
<polyline fill="none" stroke="black" points="45,-1246.5 189,-1246.5 "/>
<text text-anchor="middle" x="117" y="-1234.5" font-family="Helvetica,sans-Serif" font-size="10.00"> </text>
<polyline fill="none" stroke="black" points="45,-1227.5 189,-1227.5 "/>
<text text-anchor="start" x="53" y="-1215.5" font-family="Helvetica,sans-Serif" font-size="10.00">+ Listener()</text>
<text text-anchor="start" x="53" y="-1204.5" font-family="Helvetica,sans-Serif" font-size="10.00">+ ~Listener()</text>
<text text-anchor="start" x="53" y="-1193.5" font-family="Helvetica,sans-Serif" font-size="10.00">+ enter()</text>
<text text-anchor="start" x="53" y="-1182.5" font-family="Helvetica,sans-Serif" font-size="10.00">+ leave()</text>
<text text-anchor="start" x="53" y="-1171.5" font-family="Helvetica,sans-Serif" font-size="10.00">+ is_idling()</text>
<text text-anchor="start" x="53" y="-1160.5" font-family="Helvetica,sans-Serif" font-size="10.00">+ signal_client_update_data()</text>
<text text-anchor="start" x="53" y="-1149.5" font-family="Helvetica,sans-Serif" font-size="10.00">+ force_update()</text>
</a>
</g>
<!-- Node7&#45;&gt;Node6 -->
<g id="edge12" class="edge"><title>Node7&#45;&gt;Node6</title>
<path fill="none" stroke="#404040" d="M141.39,-1142.28C148.458,-1125.26 156.34,-1106.82 164,-1090 165.103,-1087.58 166.227,-1085.13 167.366,-1082.67"/>
<polygon fill="none" stroke="#404040" points="167.37,-1082.66 166.288,-1075.53 172.453,-1071.79 173.535,-1078.92 167.37,-1082.66"/>
<text text-anchor="middle" x="192.5" y="-1093.5" font-family="Helvetica,sans-Serif" font-size="10.00"> mp_Listener</text>
</g>
<!-- Node8 -->
<g id="node14" class="node"><title>Node8</title>
<polygon fill="white" stroke="#bfbfbf" points="207.5,-1175.5 207.5,-1232.5 242.5,-1232.5 242.5,-1175.5 207.5,-1175.5"/>
<text text-anchor="middle" x="225" y="-1220.5" font-family="Helvetica,sans-Serif" font-size="10.00">bool</text>
<polyline fill="none" stroke="#bfbfbf" points="207.5,-1213.5 242.5,-1213.5 "/>
<text text-anchor="middle" x="225" y="-1201.5" font-family="Helvetica,sans-Serif" font-size="10.00"> </text>
<polyline fill="none" stroke="#bfbfbf" points="207.5,-1194.5 242.5,-1194.5 "/>
<text text-anchor="middle" x="225" y="-1182.5" font-family="Helvetica,sans-Serif" font-size="10.00"> </text>
</g>
<!-- Node8&#45;&gt;Node6 -->
<g id="edge14" class="edge"><title>Node8&#45;&gt;Node6</title>
<path fill="none" stroke="#404040" d="M225,-1175.47C225,-1152.46 225,-1117.99 225,-1083.68"/>
<polygon fill="none" stroke="#404040" points="225,-1083.56 221,-1077.56 225,-1071.56 229,-1077.56 225,-1083.56"/>
<text text-anchor="middle" x="255.5" y="-1093.5" font-family="Helvetica,sans-Serif" font-size="10.00"> m_ListBegun</text>
</g>
<!-- Node9 -->
<g id="node16" class="node"><title>Node9</title>
<a xlink:href="classMPD_1_1Connection.html" target="_top" xlink:title="A convinience Wrapper around mpd_connection*.">
<polygon fill="white" stroke="black" points="261,-1120.5 261,-1287.5 407,-1287.5 407,-1120.5 261,-1120.5"/>
<text text-anchor="middle" x="334" y="-1275.5" font-family="Helvetica,sans-Serif" font-size="10.00">MPD::Connection</text>
<polyline fill="none" stroke="black" points="261,-1268.5 407,-1268.5 "/>
<text text-anchor="middle" x="334" y="-1256.5" font-family="Helvetica,sans-Serif" font-size="10.00"> </text>
<polyline fill="none" stroke="black" points="261,-1249.5 407,-1249.5 "/>
<text text-anchor="start" x="269" y="-1237.5" font-family="Helvetica,sans-Serif" font-size="10.00">+ Connection()</text>
<text text-anchor="start" x="269" y="-1226.5" font-family="Helvetica,sans-Serif" font-size="10.00">+ ~Connection()</text>
<text text-anchor="start" x="269" y="-1215.5" font-family="Helvetica,sans-Serif" font-size="10.00">+ is_connected()</text>
<text text-anchor="start" x="269" y="-1204.5" font-family="Helvetica,sans-Serif" font-size="10.00">+ connect()</text>
<text text-anchor="start" x="269" y="-1193.5" font-family="Helvetica,sans-Serif" font-size="10.00">+ disconnect()</text>
<text text-anchor="start" x="269" y="-1182.5" font-family="Helvetica,sans-Serif" font-size="10.00">+ clear_error()</text>
<text text-anchor="start" x="269" y="-1171.5" font-family="Helvetica,sans-Serif" font-size="10.00">+ check_error()</text>
<text text-anchor="start" x="269" y="-1160.5" font-family="Helvetica,sans-Serif" font-size="10.00">+ signal_error()</text>
<text text-anchor="start" x="269" y="-1149.5" font-family="Helvetica,sans-Serif" font-size="10.00">+ signal_connection_change()</text>
<text text-anchor="start" x="269" y="-1138.5" font-family="Helvetica,sans-Serif" font-size="10.00">+ emit_connection_change()</text>
<text text-anchor="start" x="269" y="-1127.5" font-family="Helvetica,sans-Serif" font-size="10.00">+ get_connection()</text>
</a>
</g>
<!-- Node9&#45;&gt;Node6 -->
<g id="edge16" class="edge"><title>Node9&#45;&gt;Node6</title>
<path fill="none" stroke="#404040" d="M303.13,-1120.45C298.895,-1110.12 294.464,-1099.77 290,-1090 288.878,-1087.55 287.731,-1085.07 286.562,-1082.58"/>
<polygon fill="none" stroke="#404040" points="286.49,-1082.43 280.292,-1078.75 281.311,-1071.61 287.509,-1075.3 286.49,-1082.43"/>
<text text-anchor="middle" x="314" y="-1093.5" font-family="Helvetica,sans-Serif" font-size="10.00"> m_Conn</text>
</g>
<!-- Node10 -->
<g id="node18" class="node"><title>Node10</title>
<a xlink:href="classMPD_1_1AbstractItemGenerator.html" target="_top" xlink:title="{MPD::AbstractItemGenerator\n||+ fill_queue()\l+ fill_queue_changes()\l+ fill_playlists()\l+ fill_outputs()\l+ fill_filelist()\l+ ~AbstractItemGenerator()\l}">
<polygon fill="white" stroke="black" points="316,-910 316,-1022 460,-1022 460,-910 316,-910"/>
<text text-anchor="middle" x="388" y="-1010" font-family="Helvetica,sans-Serif" font-size="10.00">MPD::AbstractItemGenerator</text>
<polyline fill="none" stroke="black" points="316,-1003 460,-1003 "/>
<text text-anchor="middle" x="388" y="-991" font-family="Helvetica,sans-Serif" font-size="10.00"> </text>
<polyline fill="none" stroke="black" points="316,-984 460,-984 "/>
<text text-anchor="start" x="324" y="-972" font-family="Helvetica,sans-Serif" font-size="10.00">+ fill_queue()</text>
<text text-anchor="start" x="324" y="-961" font-family="Helvetica,sans-Serif" font-size="10.00">+ fill_queue_changes()</text>
<text text-anchor="start" x="324" y="-950" font-family="Helvetica,sans-Serif" font-size="10.00">+ fill_playlists()</text>
<text text-anchor="start" x="324" y="-939" font-family="Helvetica,sans-Serif" font-size="10.00">+ fill_outputs()</text>
<text text-anchor="start" x="324" y="-928" font-family="Helvetica,sans-Serif" font-size="10.00">+ fill_filelist()</text>
<text text-anchor="start" x="324" y="-917" font-family="Helvetica,sans-Serif" font-size="10.00">+ ~AbstractItemGenerator()</text>
</a>
</g>
<!-- Node10&#45;&gt;Node5 -->
<g id="edge18" class="edge"><title>Node10&#45;&gt;Node5</title>
<path fill="none" stroke="midnightblue" d="M380.837,-899.484C378.34,-876.644 375.376,-849.537 372.257,-821.008"/>
<polygon fill="none" stroke="midnightblue" points="377.384,-900.107 381.95,-909.667 384.343,-899.346 377.384,-900.107"/>
</g>
</g>
</svg>
