<?xml version="1.0" encoding="UTF-8" standalone="no"?>
<!DOCTYPE svg PUBLIC "-//W3C//DTD SVG 1.1//EN"
 "http://www.w3.org/Graphics/SVG/1.1/DTD/svg11.dtd">
<!-- Generated by graphviz version 2.28.0 (20120217.0315)
 -->
<!-- Title: G Pages: 1 -->
<svg width="305pt" height="294pt"
 viewBox="0.00 0.00 305.00 294.00" xmlns="http://www.w3.org/2000/svg" xmlns:xlink="http://www.w3.org/1999/xlink">
<g id="graph1" class="graph" transform="scale(1 1) rotate(0) translate(4 290)">
<title>G</title>
<polygon fill="white" stroke="white" points="-4,5 -4,-290 302,-290 302,5 -4,5"/>
<!-- Node1 -->
<g id="node1" class="node"><title>Node1</title>
<polygon fill="#bfbfbf" stroke="black" points="100,-1 100,-157 208,-157 208,-1 100,-1"/>
<text text-anchor="middle" x="154" y="-145" font-family="Helvetica,sans-Serif" font-size="10.00">MPD::Playlist</text>
<polyline fill="none" stroke="black" points="100,-138 208,-138 "/>
<text text-anchor="middle" x="154" y="-126" font-family="Helvetica,sans-Serif" font-size="10.00"> </text>
<polyline fill="none" stroke="black" points="100,-119 208,-119 "/>
<text text-anchor="start" x="108" y="-107" font-family="Helvetica,sans-Serif" font-size="10.00">+ Playlist()</text>
<text text-anchor="start" x="108" y="-96" font-family="Helvetica,sans-Serif" font-size="10.00">+ Playlist()</text>
<text text-anchor="start" x="108" y="-85" font-family="Helvetica,sans-Serif" font-size="10.00">+ ~Playlist()</text>
<text text-anchor="start" x="108" y="-74" font-family="Helvetica,sans-Serif" font-size="10.00">+ get_path()</text>
<text text-anchor="start" x="108" y="-63" font-family="Helvetica,sans-Serif" font-size="10.00">+ get_last_modified()</text>
<text text-anchor="start" x="108" y="-52" font-family="Helvetica,sans-Serif" font-size="10.00">+ remove()</text>
<text text-anchor="start" x="108" y="-41" font-family="Helvetica,sans-Serif" font-size="10.00">+ load()</text>
<text text-anchor="start" x="108" y="-30" font-family="Helvetica,sans-Serif" font-size="10.00">+ rename()</text>
<text text-anchor="start" x="108" y="-19" font-family="Helvetica,sans-Serif" font-size="10.00">+ add_song()</text>
<text text-anchor="start" x="108" y="-8" font-family="Helvetica,sans-Serif" font-size="10.00">+ add_song()</text>
</g>
<!-- Node2 -->
<g id="node2" class="node"><title>Node2</title>
<a xlink:href="classMPD_1_1AbstractClientExtension.html" target="_top" xlink:title="Abstract base class for classes that want to implement spefic MPD Commands.">
<polygon fill="white" stroke="black" points="-0.5,-211.5 -0.5,-268.5 150.5,-268.5 150.5,-211.5 -0.5,-211.5"/>
<text text-anchor="middle" x="75" y="-256.5" font-family="Helvetica,sans-Serif" font-size="10.00">MPD::AbstractClientExtension</text>
<polyline fill="none" stroke="black" points="-0.5,-249.5 150.5,-249.5 "/>
<text text-anchor="start" x="7.5" y="-237.5" font-family="Helvetica,sans-Serif" font-size="10.00"># mp_BaseClient</text>
<polyline fill="none" stroke="black" points="-0.5,-230.5 150.5,-230.5 "/>
<text text-anchor="start" x="7.5" y="-218.5" font-family="Helvetica,sans-Serif" font-size="10.00">+ AbstractClientExtension()</text>
</a>
</g>
<!-- Node2&#45;&gt;Node1 -->
<g id="edge2" class="edge"><title>Node2&#45;&gt;Node1</title>
<path fill="none" stroke="midnightblue" d="M93.3991,-201.969C100.068,-188.546 107.873,-172.837 115.621,-157.244"/>
<polygon fill="none" stroke="midnightblue" points="90.076,-200.791 88.7607,-211.304 96.3448,-203.906 90.076,-200.791"/>
</g>
<!-- Node3 -->
<g id="node4" class="node"><title>Node3</title>
<a xlink:href="classMPD_1_1AbstractComposite.html" target="_top" xlink:title="{MPD::AbstractComposite\n||+ AbstractComposite()\l+ ~AbstractComposite()\l+ is_leaf()\l+ get_path()\l}">
<polygon fill="white" stroke="black" points="168.5,-195 168.5,-285 297.5,-285 297.5,-195 168.5,-195"/>
<text text-anchor="middle" x="233" y="-273" font-family="Helvetica,sans-Serif" font-size="10.00">MPD::AbstractComposite</text>
<polyline fill="none" stroke="black" points="168.5,-266 297.5,-266 "/>
<text text-anchor="middle" x="233" y="-254" font-family="Helvetica,sans-Serif" font-size="10.00"> </text>
<polyline fill="none" stroke="black" points="168.5,-247 297.5,-247 "/>
<text text-anchor="start" x="176.5" y="-235" font-family="Helvetica,sans-Serif" font-size="10.00">+ AbstractComposite()</text>
<text text-anchor="start" x="176.5" y="-224" font-family="Helvetica,sans-Serif" font-size="10.00">+ ~AbstractComposite()</text>
<text text-anchor="start" x="176.5" y="-213" font-family="Helvetica,sans-Serif" font-size="10.00">+ is_leaf()</text>
<text text-anchor="start" x="176.5" y="-202" font-family="Helvetica,sans-Serif" font-size="10.00">+ get_path()</text>
</a>
</g>
<!-- Node3&#45;&gt;Node1 -->
<g id="edge4" class="edge"><title>Node3&#45;&gt;Node1</title>
<path fill="none" stroke="midnightblue" d="M206.538,-185.74C201.984,-176.576 197.17,-166.887 192.378,-157.242"/>
<polygon fill="none" stroke="midnightblue" points="203.41,-187.311 210.994,-194.71 209.679,-184.197 203.41,-187.311"/>
</g>
</g>
</svg>
