<?xml version="1.0" encoding="UTF-8" standalone="no"?>
<!DOCTYPE svg PUBLIC "-//W3C//DTD SVG 1.1//EN"
 "http://www.w3.org/Graphics/SVG/1.1/DTD/svg11.dtd">
<!-- Generated by graphviz version 2.28.0 (20111204.1018)
 -->
<!-- Title: G Pages: 1 -->
<svg width="420pt" height="314pt"
 viewBox="0.00 0.00 420.00 314.00" xmlns="http://www.w3.org/2000/svg" xmlns:xlink="http://www.w3.org/1999/xlink">
<g id="graph1" class="graph" transform="scale(1 1) rotate(0) translate(4 310)">
<title>G</title>
<polygon fill="white" stroke="white" points="-4,5 -4,-310 417,-310 417,5 -4,5"/>
<!-- Node1 -->
<g id="node1" class="node"><title>Node1</title>
<polygon fill="#bfbfbf" stroke="black" points="140.5,-0.5 140.5,-167.5 271.5,-167.5 271.5,-0.5 140.5,-0.5"/>
<text text-anchor="middle" x="206" y="-155.5" font-family="Helvetica,sans-Serif" font-size="10.00">Browser::SettingsOutputs</text>
<polyline fill="none" stroke="black" points="140.5,-148.5 271.5,-148.5 "/>
<text text-anchor="middle" x="206" y="-136.5" font-family="Helvetica,sans-Serif" font-size="10.00"> </text>
<polyline fill="none" stroke="black" points="140.5,-129.5 271.5,-129.5 "/>
<text text-anchor="start" x="148.5" y="-117.5" font-family="Helvetica,sans-Serif" font-size="10.00">+ SettingsOutputs()</text>
<text text-anchor="start" x="148.5" y="-106.5" font-family="Helvetica,sans-Serif" font-size="10.00">+ ~SettingsOutputs()</text>
<text text-anchor="start" x="148.5" y="-95.5" font-family="Helvetica,sans-Serif" font-size="10.00">+ accept_new_settings()</text>
<text text-anchor="start" x="148.5" y="-84.5" font-family="Helvetica,sans-Serif" font-size="10.00">+ decline_new_settings()</text>
<text text-anchor="start" x="148.5" y="-73.5" font-family="Helvetica,sans-Serif" font-size="10.00">+ reset_settings()</text>
<text text-anchor="start" x="148.5" y="-62.5" font-family="Helvetica,sans-Serif" font-size="10.00">+ add_item()</text>
<text text-anchor="start" x="148.5" y="-51.5" font-family="Helvetica,sans-Serif" font-size="10.00"># on_client_update()</text>
<text text-anchor="start" x="148.5" y="-40.5" font-family="Helvetica,sans-Serif" font-size="10.00"># on_connection_change()</text>
<text text-anchor="start" x="148.5" y="-29.5" font-family="Helvetica,sans-Serif" font-size="10.00"># on_toggle()</text>
<text text-anchor="start" x="148.5" y="-18.5" font-family="Helvetica,sans-Serif" font-size="10.00"># on_select()</text>
<text text-anchor="start" x="148.5" y="-7.5" font-family="Helvetica,sans-Serif" font-size="10.00"># clear()</text>
</g>
<!-- Node2 -->
<g id="node2" class="node"><title>Node2</title>
<a xlink:href="classBrowser_1_1AbstractSettings.html" target="_top" xlink:title="Abstract base class for every Tab in the Settingsbrowser.">
<polygon fill="white" stroke="black" points="-0.5,-204.5 -0.5,-305.5 130.5,-305.5 130.5,-204.5 -0.5,-204.5"/>
<text text-anchor="middle" x="65" y="-293.5" font-family="Helvetica,sans-Serif" font-size="10.00">Browser::AbstractSettings</text>
<polyline fill="none" stroke="black" points="-0.5,-286.5 130.5,-286.5 "/>
<text text-anchor="middle" x="65" y="-274.5" font-family="Helvetica,sans-Serif" font-size="10.00"> </text>
<polyline fill="none" stroke="black" points="-0.5,-267.5 130.5,-267.5 "/>
<text text-anchor="start" x="7.5" y="-255.5" font-family="Helvetica,sans-Serif" font-size="10.00">+ AbstractSettings()</text>
<text text-anchor="start" x="7.5" y="-244.5" font-family="Helvetica,sans-Serif" font-size="10.00">+ ~AbstractSettings()</text>
<text text-anchor="start" x="7.5" y="-233.5" font-family="Helvetica,sans-Serif" font-size="10.00">+ accept_new_settings()</text>
<text text-anchor="start" x="7.5" y="-222.5" font-family="Helvetica,sans-Serif" font-size="10.00">+ decline_new_settings()</text>
<text text-anchor="start" x="7.5" y="-211.5" font-family="Helvetica,sans-Serif" font-size="10.00">+ reset_settings()</text>
</a>
</g>
<!-- Node2&#45;&gt;Node1 -->
<g id="edge2" class="edge"><title>Node2&#45;&gt;Node1</title>
<path fill="none" stroke="midnightblue" d="M113.148,-196.29C121.932,-185.762 131.233,-174.615 140.421,-163.602"/>
<polygon fill="none" stroke="midnightblue" points="110.261,-194.288 106.542,-204.208 115.636,-198.772 110.261,-194.288"/>
</g>
<!-- Node3 -->
<g id="node4" class="node"><title>Node3</title>
<a xlink:href="classMPD_1_1AbstractItemlist.html" target="_top" xlink:title="Inhertit from this class to use MPD::Client&#39;s fill_* methods.">
<polygon fill="white" stroke="black" points="149,-221 149,-289 263,-289 263,-221 149,-221"/>
<text text-anchor="middle" x="206" y="-277" font-family="Helvetica,sans-Serif" font-size="10.00">MPD::AbstractItemlist</text>
<polyline fill="none" stroke="black" points="149,-270 263,-270 "/>
<text text-anchor="middle" x="206" y="-258" font-family="Helvetica,sans-Serif" font-size="10.00"> </text>
<polyline fill="none" stroke="black" points="149,-251 263,-251 "/>
<text text-anchor="start" x="157" y="-239" font-family="Helvetica,sans-Serif" font-size="10.00">+ add_item()</text>
<text text-anchor="start" x="157" y="-228" font-family="Helvetica,sans-Serif" font-size="10.00">+ ~AbstractItemlist()</text>
</a>
</g>
<!-- Node3&#45;&gt;Node1 -->
<g id="edge4" class="edge"><title>Node3&#45;&gt;Node1</title>
<path fill="none" stroke="midnightblue" d="M206,-210.489C206,-197.359 206,-182.486 206,-167.688"/>
<polygon fill="none" stroke="midnightblue" points="202.5,-210.611 206,-220.611 209.5,-210.611 202.5,-210.611"/>
</g>
<!-- Node4 -->
<g id="node6" class="node"><title>Node4</title>
<a xlink:href="classMPD_1_1AbstractClientUser.html" target="_top" xlink:title="{MPD::AbstractClientUser\n|# mp_Client\l|+ AbstractClientUser()\l# on_client_update()\l# on_connection_change()\l}">
<polygon fill="white" stroke="black" points="281.5,-215.5 281.5,-294.5 412.5,-294.5 412.5,-215.5 281.5,-215.5"/>
<text text-anchor="middle" x="347" y="-282.5" font-family="Helvetica,sans-Serif" font-size="10.00">MPD::AbstractClientUser</text>
<polyline fill="none" stroke="black" points="281.5,-275.5 412.5,-275.5 "/>
<text text-anchor="start" x="289.5" y="-263.5" font-family="Helvetica,sans-Serif" font-size="10.00"># mp_Client</text>
<polyline fill="none" stroke="black" points="281.5,-256.5 412.5,-256.5 "/>
<text text-anchor="start" x="289.5" y="-244.5" font-family="Helvetica,sans-Serif" font-size="10.00">+ AbstractClientUser()</text>
<text text-anchor="start" x="289.5" y="-233.5" font-family="Helvetica,sans-Serif" font-size="10.00"># on_client_update()</text>
<text text-anchor="start" x="289.5" y="-222.5" font-family="Helvetica,sans-Serif" font-size="10.00"># on_connection_change()</text>
</a>
</g>
<!-- Node4&#45;&gt;Node1 -->
<g id="edge6" class="edge"><title>Node4&#45;&gt;Node1</title>
<path fill="none" stroke="midnightblue" d="M308.146,-207.43C296.805,-193.837 284.085,-178.592 271.574,-163.596"/>
<polygon fill="none" stroke="midnightblue" points="305.558,-209.792 314.652,-215.228 310.933,-205.307 305.558,-209.792"/>
</g>
</g>
</svg>
