<?xml version="1.0" encoding="UTF-8" standalone="no"?>
<!DOCTYPE svg PUBLIC "-//W3C//DTD SVG 1.1//EN"
 "http://www.w3.org/Graphics/SVG/1.1/DTD/svg11.dtd">
<!-- Generated by graphviz version 2.28.0 (20111204.1018)
 -->
<!-- Title: G Pages: 1 -->
<svg width="392pt" height="66pt"
 viewBox="0.00 0.00 392.00 66.00" xmlns="http://www.w3.org/2000/svg" xmlns:xlink="http://www.w3.org/1999/xlink">
<g id="graph1" class="graph" transform="scale(1 1) rotate(0) translate(4 62)">
<title>G</title>
<polygon fill="white" stroke="white" points="-4,5 -4,-62 389,-62 389,5 -4,5"/>
<!-- Node1 -->
<g id="node1" class="node"><title>Node1</title>
<polygon fill="#bfbfbf" stroke="black" points="0.5,-19.5 0.5,-38.5 125.5,-38.5 125.5,-19.5 0.5,-19.5"/>
<text text-anchor="middle" x="63" y="-26.5" font-family="Helvetica,sans-Serif" font-size="10.00">MPD::Status::get_repeat</text>
</g>
<!-- Node2 -->
<g id="node3" class="node"><title>Node2</title>
<a xlink:href="classMPDTestSuite.html#ad7ec644d8d87f5c1d920b402db652b82" target="_top" xlink:title="MPDTestSuite::toggleCommandsClientUpdate">
<polygon fill="white" stroke="black" points="162.5,-38.5 162.5,-57.5 383.5,-57.5 383.5,-38.5 162.5,-38.5"/>
<text text-anchor="middle" x="273" y="-45.5" font-family="Helvetica,sans-Serif" font-size="10.00">MPDTestSuite::toggleCommandsClientUpdate</text>
</a>
</g>
<!-- Node1&#45;&gt;Node2 -->
<g id="edge2" class="edge"><title>Node1&#45;&gt;Node2</title>
<path fill="none" stroke="midnightblue" d="M135.728,-35.552C146.067,-36.4965 156.879,-37.4842 167.696,-38.4722"/>
<polygon fill="midnightblue" stroke="midnightblue" points="135.84,-32.0478 125.563,-34.6235 135.203,-39.0188 135.84,-32.0478"/>
</g>
<!-- Node3 -->
<g id="node5" class="node"><title>Node3</title>
<a xlink:href="classMPDTestSuite.html#a90a666e3c6a7a3dcad8580962dae5274" target="_top" xlink:title="MPDTestSuite::testToggleCommands">
<polygon fill="white" stroke="black" points="181.5,-0.5 181.5,-19.5 364.5,-19.5 364.5,-0.5 181.5,-0.5"/>
<text text-anchor="middle" x="273" y="-7.5" font-family="Helvetica,sans-Serif" font-size="10.00">MPDTestSuite::testToggleCommands</text>
</a>
</g>
<!-- Node1&#45;&gt;Node3 -->
<g id="edge4" class="edge"><title>Node1&#45;&gt;Node3</title>
<path fill="none" stroke="midnightblue" d="M135.588,-22.4607C150.315,-21.1154 166.006,-19.6822 181.306,-18.2846"/>
<polygon fill="midnightblue" stroke="midnightblue" points="135.203,-18.9812 125.563,-23.3765 135.84,-25.9522 135.203,-18.9812"/>
</g>
</g>
</svg>
