<?xml version="1.0" encoding="UTF-8" standalone="no"?>
<!DOCTYPE svg PUBLIC "-//W3C//DTD SVG 1.1//EN"
 "http://www.w3.org/Graphics/SVG/1.1/DTD/svg11.dtd">
<!-- Generated by graphviz version 2.28.0 (20111204.1018)
 -->
<!-- Title: G Pages: 1 -->
<svg width="370pt" height="226pt"
 viewBox="0.00 0.00 370.00 226.00" xmlns="http://www.w3.org/2000/svg" xmlns:xlink="http://www.w3.org/1999/xlink">
<g id="graph1" class="graph" transform="scale(1 1) rotate(0) translate(4 222)">
<title>G</title>
<polygon fill="white" stroke="white" points="-4,5 -4,-222 367,-222 367,5 -4,5"/>
<!-- Node1 -->
<g id="node1" class="node"><title>Node1</title>
<polygon fill="#bfbfbf" stroke="black" points="106.5,-0.5 106.5,-57.5 211.5,-57.5 211.5,-0.5 106.5,-0.5"/>
<text text-anchor="middle" x="159" y="-45.5" font-family="Helvetica,sans-Serif" font-size="10.00">GManager::Trayicon</text>
<polyline fill="none" stroke="black" points="106.5,-38.5 211.5,-38.5 "/>
<text text-anchor="middle" x="159" y="-26.5" font-family="Helvetica,sans-Serif" font-size="10.00"> </text>
<polyline fill="none" stroke="black" points="106.5,-19.5 211.5,-19.5 "/>
<text text-anchor="start" x="114.5" y="-7.5" font-family="Helvetica,sans-Serif" font-size="10.00">+ Trayicon()</text>
</g>
<!-- Node2 -->
<g id="node2" class="node"><title>Node2</title>
<a xlink:href="classGtk_1_1StatusIcon.html" target="_top" xlink:title="{Gtk::StatusIcon\n||}">
<polygon fill="white" stroke="black" points="0,-127.5 0,-184.5 86,-184.5 86,-127.5 0,-127.5"/>
<text text-anchor="middle" x="43" y="-172.5" font-family="Helvetica,sans-Serif" font-size="10.00">Gtk::StatusIcon</text>
<polyline fill="none" stroke="black" points="0,-165.5 86,-165.5 "/>
<text text-anchor="middle" x="43" y="-153.5" font-family="Helvetica,sans-Serif" font-size="10.00"> </text>
<polyline fill="none" stroke="black" points="0,-146.5 86,-146.5 "/>
<text text-anchor="middle" x="43" y="-134.5" font-family="Helvetica,sans-Serif" font-size="10.00"> </text>
</a>
</g>
<!-- Node2&#45;&gt;Node1 -->
<g id="edge2" class="edge"><title>Node2&#45;&gt;Node1</title>
<path fill="none" stroke="midnightblue" d="M72.3322,-119.625C79.6105,-111.118 87.4823,-102.14 95,-94 106.301,-81.7636 119.216,-68.6878 130.47,-57.5657"/>
<polygon fill="none" stroke="midnightblue" points="69.6473,-117.379 65.842,-127.267 74.9829,-121.91 69.6473,-117.379"/>
</g>
<!-- Node3 -->
<g id="node4" class="node"><title>Node3</title>
<a xlink:href="classBrowser_1_1BasePopup.html" target="_top" xlink:title="A Baseclass for Widgets that want to implement easily popup widgets.">
<polygon fill="white" stroke="black" points="104.5,-94.5 104.5,-217.5 213.5,-217.5 213.5,-94.5 104.5,-94.5"/>
<text text-anchor="middle" x="159" y="-205.5" font-family="Helvetica,sans-Serif" font-size="10.00">Browser::BasePopup</text>
<polyline fill="none" stroke="black" points="104.5,-198.5 213.5,-198.5 "/>
<text text-anchor="start" x="112.5" y="-186.5" font-family="Helvetica,sans-Serif" font-size="10.00"># m_refUIManager</text>
<text text-anchor="start" x="112.5" y="-175.5" font-family="Helvetica,sans-Serif" font-size="10.00"># m_refActionGroup</text>
<text text-anchor="start" x="112.5" y="-164.5" font-family="Helvetica,sans-Serif" font-size="10.00"># m_UiDefinition</text>
<text text-anchor="start" x="112.5" y="-153.5" font-family="Helvetica,sans-Serif" font-size="10.00"># mp_Popup</text>
<polyline fill="none" stroke="black" points="104.5,-146.5 213.5,-146.5 "/>
<text text-anchor="start" x="112.5" y="-134.5" font-family="Helvetica,sans-Serif" font-size="10.00">+ BasePopup()</text>
<text text-anchor="start" x="112.5" y="-123.5" font-family="Helvetica,sans-Serif" font-size="10.00">+ get_action()</text>
<text text-anchor="start" x="112.5" y="-112.5" font-family="Helvetica,sans-Serif" font-size="10.00"># menu_add_item()</text>
<text text-anchor="start" x="112.5" y="-101.5" font-family="Helvetica,sans-Serif" font-size="10.00"># menu_construct()</text>
</a>
</g>
<!-- Node3&#45;&gt;Node1 -->
<g id="edge4" class="edge"><title>Node3&#45;&gt;Node1</title>
<path fill="none" stroke="midnightblue" d="M159,-84.1384C159,-74.7999 159,-65.715 159,-57.7379"/>
<polygon fill="none" stroke="midnightblue" points="155.5,-84.3308 159,-94.3308 162.5,-84.3309 155.5,-84.3308"/>
</g>
<!-- Node4 -->
<g id="node6" class="node"><title>Node4</title>
<a xlink:href="classMPD_1_1AbstractClientUser.html" target="_top" xlink:title="{MPD::AbstractClientUser\n|# mp_Client\l|+ AbstractClientUser()\l# on_client_update()\l# on_connection_change()\l}">
<polygon fill="white" stroke="black" points="231.5,-116.5 231.5,-195.5 362.5,-195.5 362.5,-116.5 231.5,-116.5"/>
<text text-anchor="middle" x="297" y="-183.5" font-family="Helvetica,sans-Serif" font-size="10.00">MPD::AbstractClientUser</text>
<polyline fill="none" stroke="black" points="231.5,-176.5 362.5,-176.5 "/>
<text text-anchor="start" x="239.5" y="-164.5" font-family="Helvetica,sans-Serif" font-size="10.00"># mp_Client</text>
<polyline fill="none" stroke="black" points="231.5,-157.5 362.5,-157.5 "/>
<text text-anchor="start" x="239.5" y="-145.5" font-family="Helvetica,sans-Serif" font-size="10.00">+ AbstractClientUser()</text>
<text text-anchor="start" x="239.5" y="-134.5" font-family="Helvetica,sans-Serif" font-size="10.00"># on_client_update()</text>
<text text-anchor="start" x="239.5" y="-123.5" font-family="Helvetica,sans-Serif" font-size="10.00"># on_connection_change()</text>
</a>
</g>
<!-- Node4&#45;&gt;Node1 -->
<g id="edge6" class="edge"><title>Node4&#45;&gt;Node1</title>
<path fill="none" stroke="midnightblue" d="M246.977,-109.689C227.844,-92.3588 206.6,-73.1164 189.782,-57.8823"/>
<polygon fill="none" stroke="midnightblue" points="244.708,-112.357 254.469,-116.476 249.408,-107.168 244.708,-112.357"/>
</g>
</g>
</svg>
