<?xml version="1.0" encoding="UTF-8" standalone="no"?>
<!DOCTYPE svg PUBLIC "-//W3C//DTD SVG 1.1//EN"
 "http://www.w3.org/Graphics/SVG/1.1/DTD/svg11.dtd">
<!-- Generated by graphviz version 2.28.0 (20120217.0315)
 -->
<!-- Title: G Pages: 1 -->
<svg width="860pt" height="194pt"
 viewBox="0.00 0.00 860.00 194.00" xmlns="http://www.w3.org/2000/svg" xmlns:xlink="http://www.w3.org/1999/xlink">
<g id="graph1" class="graph" transform="scale(1 1) rotate(0) translate(4 190)">
<title>G</title>
<polygon fill="white" stroke="white" points="-4,5 -4,-190 857,-190 857,5 -4,5"/>
<!-- Node1 -->
<g id="node1" class="node"><title>Node1</title>
<polygon fill="#bfbfbf" stroke="black" points="391,-128.5 391,-185.5 449,-185.5 449,-128.5 391,-128.5"/>
<text text-anchor="middle" x="420" y="-173.5" font-family="Helvetica,sans-Serif" font-size="10.00">Expander</text>
<polyline fill="none" stroke="black" points="391,-166.5 449,-166.5 "/>
<text text-anchor="middle" x="420" y="-154.5" font-family="Helvetica,sans-Serif" font-size="10.00"> </text>
<polyline fill="none" stroke="black" points="391,-147.5 449,-147.5 "/>
<text text-anchor="middle" x="420" y="-135.5" font-family="Helvetica,sans-Serif" font-size="10.00"> </text>
</g>
<!-- Node2 -->
<g id="node3" class="node"><title>Node2</title>
<a xlink:href="classBrowser_1_1ArtistPhotosMgr.html" target="_top" xlink:title="{Browser::ArtistPhotosMgr\n||+ ArtistPhotosMgr()\l+ update()\l+ on_deliver()\l}">
<polygon fill="white" stroke="black" points="-0.5,-6.5 -0.5,-85.5 128.5,-85.5 128.5,-6.5 -0.5,-6.5"/>
<text text-anchor="middle" x="64" y="-73.5" font-family="Helvetica,sans-Serif" font-size="10.00">Browser::ArtistPhotosMgr</text>
<polyline fill="none" stroke="black" points="-0.5,-66.5 128.5,-66.5 "/>
<text text-anchor="middle" x="64" y="-54.5" font-family="Helvetica,sans-Serif" font-size="10.00"> </text>
<polyline fill="none" stroke="black" points="-0.5,-47.5 128.5,-47.5 "/>
<text text-anchor="start" x="7.5" y="-35.5" font-family="Helvetica,sans-Serif" font-size="10.00">+ ArtistPhotosMgr()</text>
<text text-anchor="start" x="7.5" y="-24.5" font-family="Helvetica,sans-Serif" font-size="10.00">+ update()</text>
<text text-anchor="start" x="7.5" y="-13.5" font-family="Helvetica,sans-Serif" font-size="10.00">+ on_deliver()</text>
</a>
</g>
<!-- Node1&#45;&gt;Node2 -->
<g id="edge2" class="edge"><title>Node1&#45;&gt;Node2</title>
<path fill="none" stroke="midnightblue" d="M380.508,-151.141C324.84,-143.386 220.841,-125.546 138,-92 133.261,-90.0811 128.476,-87.8782 123.741,-85.5005"/>
<polygon fill="none" stroke="midnightblue" points="380.271,-154.641 390.65,-152.516 381.211,-147.704 380.271,-154.641"/>
</g>
<!-- Node3 -->
<g id="node5" class="node"><title>Node3</title>
<a xlink:href="classBrowser_1_1CoverArtMgr.html" target="_top" xlink:title="{Browser::CoverArtMgr\n||+ CoverArtMgr()\l+ ~CoverArtMgr()\l# update()\l# on_deliver()\l}">
<polygon fill="white" stroke="black" points="147,-1 147,-91 261,-91 261,-1 147,-1"/>
<text text-anchor="middle" x="204" y="-79" font-family="Helvetica,sans-Serif" font-size="10.00">Browser::CoverArtMgr</text>
<polyline fill="none" stroke="black" points="147,-72 261,-72 "/>
<text text-anchor="middle" x="204" y="-60" font-family="Helvetica,sans-Serif" font-size="10.00"> </text>
<polyline fill="none" stroke="black" points="147,-53 261,-53 "/>
<text text-anchor="start" x="155" y="-41" font-family="Helvetica,sans-Serif" font-size="10.00">+ CoverArtMgr()</text>
<text text-anchor="start" x="155" y="-30" font-family="Helvetica,sans-Serif" font-size="10.00">+ ~CoverArtMgr()</text>
<text text-anchor="start" x="155" y="-19" font-family="Helvetica,sans-Serif" font-size="10.00"># update()</text>
<text text-anchor="start" x="155" y="-8" font-family="Helvetica,sans-Serif" font-size="10.00"># on_deliver()</text>
</a>
</g>
<!-- Node1&#45;&gt;Node3 -->
<g id="edge4" class="edge"><title>Node1&#45;&gt;Node3</title>
<path fill="none" stroke="midnightblue" d="M381.199,-141.853C350.327,-130.03 306.416,-111.935 270,-92 267.08,-90.4018 264.128,-88.7078 261.175,-86.9499"/>
<polygon fill="none" stroke="midnightblue" points="380.147,-145.197 390.739,-145.465 382.626,-138.65 380.147,-145.197"/>
</g>
<!-- Node4 -->
<g id="node7" class="node"><title>Node4</title>
<a xlink:href="classBrowser_1_1OtherAlbumsMgr.html" target="_top" xlink:title="{Browser::OtherAlbumsMgr\n||+ OtherAlbumsMgr()\l+ update()\l+ on_deliver()\l}">
<polygon fill="white" stroke="black" points="279,-6.5 279,-85.5 411,-85.5 411,-6.5 279,-6.5"/>
<text text-anchor="middle" x="345" y="-73.5" font-family="Helvetica,sans-Serif" font-size="10.00">Browser::OtherAlbumsMgr</text>
<polyline fill="none" stroke="black" points="279,-66.5 411,-66.5 "/>
<text text-anchor="middle" x="345" y="-54.5" font-family="Helvetica,sans-Serif" font-size="10.00"> </text>
<polyline fill="none" stroke="black" points="279,-47.5 411,-47.5 "/>
<text text-anchor="start" x="287" y="-35.5" font-family="Helvetica,sans-Serif" font-size="10.00">+ OtherAlbumsMgr()</text>
<text text-anchor="start" x="287" y="-24.5" font-family="Helvetica,sans-Serif" font-size="10.00">+ update()</text>
<text text-anchor="start" x="287" y="-13.5" font-family="Helvetica,sans-Serif" font-size="10.00">+ on_deliver()</text>
</a>
</g>
<!-- Node1&#45;&gt;Node4 -->
<g id="edge6" class="edge"><title>Node1&#45;&gt;Node4</title>
<path fill="none" stroke="midnightblue" d="M395.194,-119.948C387.617,-108.937 379.256,-96.7858 371.568,-85.6115"/>
<polygon fill="none" stroke="midnightblue" points="392.522,-122.24 401.074,-128.495 398.289,-118.272 392.522,-122.24"/>
</g>
<!-- Node5 -->
<g id="node9" class="node"><title>Node5</title>
<a xlink:href="classBrowser_1_1RelatedLinksMgr.html" target="_top" xlink:title="{Browser::RelatedLinksMgr\n||+ RelatedLinksMgr()\l+ update()\l+ on_deliver()\l}">
<polygon fill="white" stroke="black" points="429,-6.5 429,-85.5 561,-85.5 561,-6.5 429,-6.5"/>
<text text-anchor="middle" x="495" y="-73.5" font-family="Helvetica,sans-Serif" font-size="10.00">Browser::RelatedLinksMgr</text>
<polyline fill="none" stroke="black" points="429,-66.5 561,-66.5 "/>
<text text-anchor="middle" x="495" y="-54.5" font-family="Helvetica,sans-Serif" font-size="10.00"> </text>
<polyline fill="none" stroke="black" points="429,-47.5 561,-47.5 "/>
<text text-anchor="start" x="437" y="-35.5" font-family="Helvetica,sans-Serif" font-size="10.00">+ RelatedLinksMgr()</text>
<text text-anchor="start" x="437" y="-24.5" font-family="Helvetica,sans-Serif" font-size="10.00">+ update()</text>
<text text-anchor="start" x="437" y="-13.5" font-family="Helvetica,sans-Serif" font-size="10.00">+ on_deliver()</text>
</a>
</g>
<!-- Node1&#45;&gt;Node5 -->
<g id="edge8" class="edge"><title>Node1&#45;&gt;Node5</title>
<path fill="none" stroke="midnightblue" d="M444.806,-119.948C452.383,-108.937 460.744,-96.7858 468.432,-85.6115"/>
<polygon fill="none" stroke="midnightblue" points="441.711,-118.272 438.926,-128.495 447.478,-122.24 441.711,-118.272"/>
</g>
<!-- Node6 -->
<g id="node11" class="node"><title>Node6</title>
<a xlink:href="classBrowser_1_1TextItemsMgr.html" target="_top" xlink:title="{Browser::TextItemsMgr\n||+ TextItemsMgr()\l+ update()\l# on_type_combo_changed()\l# add_txtview_page()\l}">
<polygon fill="white" stroke="black" points="579,-1 579,-91 721,-91 721,-1 579,-1"/>
<text text-anchor="middle" x="650" y="-79" font-family="Helvetica,sans-Serif" font-size="10.00">Browser::TextItemsMgr</text>
<polyline fill="none" stroke="black" points="579,-72 721,-72 "/>
<text text-anchor="middle" x="650" y="-60" font-family="Helvetica,sans-Serif" font-size="10.00"> </text>
<polyline fill="none" stroke="black" points="579,-53 721,-53 "/>
<text text-anchor="start" x="587" y="-41" font-family="Helvetica,sans-Serif" font-size="10.00">+ TextItemsMgr()</text>
<text text-anchor="start" x="587" y="-30" font-family="Helvetica,sans-Serif" font-size="10.00">+ update()</text>
<text text-anchor="start" x="587" y="-19" font-family="Helvetica,sans-Serif" font-size="10.00"># on_type_combo_changed()</text>
<text text-anchor="start" x="587" y="-8" font-family="Helvetica,sans-Serif" font-size="10.00"># add_txtview_page()</text>
</a>
</g>
<!-- Node1&#45;&gt;Node6 -->
<g id="edge10" class="edge"><title>Node1&#45;&gt;Node6</title>
<path fill="none" stroke="midnightblue" d="M458.633,-140.871C489.239,-128.563 532.875,-110.294 570,-92 572.859,-90.5913 575.759,-89.128 578.677,-87.6273"/>
<polygon fill="none" stroke="midnightblue" points="457.165,-137.689 449.178,-144.65 459.763,-144.189 457.165,-137.689"/>
</g>
<!-- Node7 -->
<g id="node13" class="node"><title>Node7</title>
<a xlink:href="classBrowser_1_1TracklistMgr.html" target="_top" xlink:title="{Browser::TracklistMgr\n||+ TracklistMgr()\l+ update()\l}">
<polygon fill="white" stroke="black" points="739.5,-12 739.5,-80 852.5,-80 852.5,-12 739.5,-12"/>
<text text-anchor="middle" x="796" y="-68" font-family="Helvetica,sans-Serif" font-size="10.00">Browser::TracklistMgr</text>
<polyline fill="none" stroke="black" points="739.5,-61 852.5,-61 "/>
<text text-anchor="middle" x="796" y="-49" font-family="Helvetica,sans-Serif" font-size="10.00"> </text>
<polyline fill="none" stroke="black" points="739.5,-42 852.5,-42 "/>
<text text-anchor="start" x="747.5" y="-30" font-family="Helvetica,sans-Serif" font-size="10.00">+ TracklistMgr()</text>
<text text-anchor="start" x="747.5" y="-19" font-family="Helvetica,sans-Serif" font-size="10.00">+ update()</text>
</a>
</g>
<!-- Node1&#45;&gt;Node7 -->
<g id="edge12" class="edge"><title>Node1&#45;&gt;Node7</title>
<path fill="none" stroke="midnightblue" d="M459.583,-152.842C519.992,-146.93 637.883,-131.056 730,-92 737.661,-88.752 745.356,-84.5545 752.649,-80.0311"/>
<polygon fill="none" stroke="midnightblue" points="458.971,-149.384 449.341,-153.802 459.624,-156.353 458.971,-149.384"/>
</g>
</g>
</svg>
