<?xml version="1.0" encoding="UTF-8" standalone="no"?>
<!DOCTYPE svg PUBLIC "-//W3C//DTD SVG 1.1//EN"
 "http://www.w3.org/Graphics/SVG/1.1/DTD/svg11.dtd">
<!-- Generated by graphviz version 2.28.0 (20111204.1018)
 -->
<!-- Title: G Pages: 1 -->
<svg width="446pt" height="104pt"
 viewBox="0.00 0.00 446.00 104.00" xmlns="http://www.w3.org/2000/svg" xmlns:xlink="http://www.w3.org/1999/xlink">
<g id="graph1" class="graph" transform="scale(1 1) rotate(0) translate(4 100)">
<title>G</title>
<polygon fill="white" stroke="white" points="-4,5 -4,-100 443,-100 443,5 -4,5"/>
<!-- Node1 -->
<g id="node1" class="node"><title>Node1</title>
<polygon fill="#bfbfbf" stroke="black" points="0.5,-38.5 0.5,-57.5 233.5,-57.5 233.5,-38.5 0.5,-38.5"/>
<text text-anchor="middle" x="117" y="-45.5" font-family="Helvetica,sans-Serif" font-size="10.00">MPD::AbstractClientExtension::get_c_connection</text>
</g>
<!-- Node2 -->
<g id="node3" class="node"><title>Node2</title>
<a xlink:href="classMPD_1_1BaseClient.html#a7f307f2b57a8556fe60973b606626d85" target="_top" xlink:title="true if connected">
<polygon fill="white" stroke="black" points="275.5,-76.5 275.5,-95.5 432.5,-95.5 432.5,-76.5 275.5,-76.5"/>
<text text-anchor="middle" x="354" y="-83.5" font-family="Helvetica,sans-Serif" font-size="10.00">MPD::BaseClient::is_connected</text>
</a>
</g>
<!-- Node1&#45;&gt;Node2 -->
<g id="edge2" class="edge"><title>Node1&#45;&gt;Node2</title>
<path fill="none" stroke="midnightblue" d="M176.997,-57.54C209.402,-62.7799 249.778,-69.3088 283.681,-74.7909"/>
<polygon fill="midnightblue" stroke="midnightblue" points="283.548,-78.3149 293.979,-76.4561 284.666,-71.4046 283.548,-78.3149"/>
</g>
<!-- Node3 -->
<g id="node5" class="node"><title>Node3</title>
<a xlink:href="classMPD_1_1BaseClient.html#a73be7dfed2693bea6deb4cd53d3aab7c" target="_top" xlink:title="Returns the underlying connection.">
<polygon fill="white" stroke="black" points="271.5,-38.5 271.5,-57.5 436.5,-57.5 436.5,-38.5 271.5,-38.5"/>
<text text-anchor="middle" x="354" y="-45.5" font-family="Helvetica,sans-Serif" font-size="10.00">MPD::BaseClient::get_connection</text>
</a>
</g>
<!-- Node1&#45;&gt;Node3 -->
<g id="edge4" class="edge"><title>Node1&#45;&gt;Node3</title>
<path fill="none" stroke="midnightblue" d="M233.779,-48C243.038,-48 252.312,-48 261.37,-48"/>
<polygon fill="midnightblue" stroke="midnightblue" points="261.492,-51.5001 271.492,-48 261.492,-44.5001 261.492,-51.5001"/>
</g>
<!-- Node4 -->
<g id="node7" class="node"><title>Node4</title>
<a xlink:href="classMPD_1_1Connection.html#a7863b348d3496a85aa97fe3957c755ff" target="_top" xlink:title="Returns the underlying C structure.">
<polygon fill="white" stroke="black" points="270.5,-0.5 270.5,-19.5 437.5,-19.5 437.5,-0.5 270.5,-0.5"/>
<text text-anchor="middle" x="354" y="-7.5" font-family="Helvetica,sans-Serif" font-size="10.00">MPD::Connection::get_connection</text>
</a>
</g>
<!-- Node1&#45;&gt;Node4 -->
<g id="edge6" class="edge"><title>Node1&#45;&gt;Node4</title>
<path fill="none" stroke="midnightblue" d="M176.997,-38.46C209.402,-33.2201 249.778,-26.6912 283.681,-21.2091"/>
<polygon fill="midnightblue" stroke="midnightblue" points="284.666,-24.5954 293.979,-19.5439 283.548,-17.6851 284.666,-24.5954"/>
</g>
</g>
</svg>
