<?xml version="1.0" encoding="UTF-8" standalone="no"?>
<!DOCTYPE svg PUBLIC "-//W3C//DTD SVG 1.1//EN"
 "http://www.w3.org/Graphics/SVG/1.1/DTD/svg11.dtd">
<!-- Generated by graphviz version 2.28.0 (20111204.1018)
 -->
<!-- Title: G Pages: 1 -->
<svg width="566pt" height="226pt"
 viewBox="0.00 0.00 566.00 226.00" xmlns="http://www.w3.org/2000/svg" xmlns:xlink="http://www.w3.org/1999/xlink">
<g id="graph1" class="graph" transform="scale(1 1) rotate(0) translate(4 222)">
<title>G</title>
<polygon fill="white" stroke="white" points="-4,5 -4,-222 563,-222 563,5 -4,5"/>
<!-- Node1 -->
<g id="node1" class="node"><title>Node1</title>
<polygon fill="#bfbfbf" stroke="black" points="246.5,-94.5 246.5,-217.5 355.5,-217.5 355.5,-94.5 246.5,-94.5"/>
<text text-anchor="middle" x="301" y="-205.5" font-family="Helvetica,sans-Serif" font-size="10.00">Browser::BasePopup</text>
<polyline fill="none" stroke="black" points="246.5,-198.5 355.5,-198.5 "/>
<text text-anchor="start" x="254.5" y="-186.5" font-family="Helvetica,sans-Serif" font-size="10.00"># m_refUIManager</text>
<text text-anchor="start" x="254.5" y="-175.5" font-family="Helvetica,sans-Serif" font-size="10.00"># m_refActionGroup</text>
<text text-anchor="start" x="254.5" y="-164.5" font-family="Helvetica,sans-Serif" font-size="10.00"># m_UiDefinition</text>
<text text-anchor="start" x="254.5" y="-153.5" font-family="Helvetica,sans-Serif" font-size="10.00"># mp_Popup</text>
<polyline fill="none" stroke="black" points="246.5,-146.5 355.5,-146.5 "/>
<text text-anchor="start" x="254.5" y="-134.5" font-family="Helvetica,sans-Serif" font-size="10.00">+ BasePopup()</text>
<text text-anchor="start" x="254.5" y="-123.5" font-family="Helvetica,sans-Serif" font-size="10.00">+ get_action()</text>
<text text-anchor="start" x="254.5" y="-112.5" font-family="Helvetica,sans-Serif" font-size="10.00"># menu_add_item()</text>
<text text-anchor="start" x="254.5" y="-101.5" font-family="Helvetica,sans-Serif" font-size="10.00"># menu_construct()</text>
</g>
<!-- Node2 -->
<g id="node3" class="node"><title>Node2</title>
<a xlink:href="classBrowser_1_1DatabasePopup.html" target="_top" xlink:title="The popup that shows up when rightclickin an icon.">
<polygon fill="white" stroke="black" points="0,-0.5 0,-57.5 128,-57.5 128,-0.5 0,-0.5"/>
<text text-anchor="middle" x="64" y="-45.5" font-family="Helvetica,sans-Serif" font-size="10.00">Browser::DatabasePopup</text>
<polyline fill="none" stroke="black" points="0,-38.5 128,-38.5 "/>
<text text-anchor="middle" x="64" y="-26.5" font-family="Helvetica,sans-Serif" font-size="10.00"> </text>
<polyline fill="none" stroke="black" points="0,-19.5 128,-19.5 "/>
<text text-anchor="start" x="8" y="-7.5" font-family="Helvetica,sans-Serif" font-size="10.00">+ DatabasePopup()</text>
</a>
</g>
<!-- Node1&#45;&gt;Node2 -->
<g id="edge2" class="edge"><title>Node1&#45;&gt;Node2</title>
<path fill="none" stroke="midnightblue" d="M237.417,-121.465C199.544,-101.489 152.061,-76.4455 116.36,-57.6162"/>
<polygon fill="none" stroke="midnightblue" points="235.852,-124.596 246.33,-126.166 239.118,-118.405 235.852,-124.596"/>
</g>
<!-- Node3 -->
<g id="node5" class="node"><title>Node3</title>
<a xlink:href="classBrowser_1_1PlaylistManagerPopup.html" target="_top" xlink:title="The Popup for Browser::PlaylistManager.">
<polygon fill="white" stroke="black" points="146,-0.5 146,-57.5 302,-57.5 302,-0.5 146,-0.5"/>
<text text-anchor="middle" x="224" y="-45.5" font-family="Helvetica,sans-Serif" font-size="10.00">Browser::PlaylistManagerPopup</text>
<polyline fill="none" stroke="black" points="146,-38.5 302,-38.5 "/>
<text text-anchor="middle" x="224" y="-26.5" font-family="Helvetica,sans-Serif" font-size="10.00"> </text>
<polyline fill="none" stroke="black" points="146,-19.5 302,-19.5 "/>
<text text-anchor="start" x="154" y="-7.5" font-family="Helvetica,sans-Serif" font-size="10.00">+ PlaylistManagerPopup()</text>
</a>
</g>
<!-- Node1&#45;&gt;Node3 -->
<g id="edge4" class="edge"><title>Node1&#45;&gt;Node3</title>
<path fill="none" stroke="midnightblue" d="M258.268,-85.6306C252.194,-75.7695 246.262,-66.1393 241.087,-57.7379"/>
<polygon fill="none" stroke="midnightblue" points="255.403,-87.6523 263.628,-94.3308 261.363,-83.9809 255.403,-87.6523"/>
</g>
<!-- Node4 -->
<g id="node7" class="node"><title>Node4</title>
<a xlink:href="classBrowser_1_1QueuePopup.html" target="_top" xlink:title="The Popup for Browser::Queue.">
<polygon fill="white" stroke="black" points="320.5,-0.5 320.5,-57.5 435.5,-57.5 435.5,-0.5 320.5,-0.5"/>
<text text-anchor="middle" x="378" y="-45.5" font-family="Helvetica,sans-Serif" font-size="10.00">Browser::QueuePopup</text>
<polyline fill="none" stroke="black" points="320.5,-38.5 435.5,-38.5 "/>
<text text-anchor="middle" x="378" y="-26.5" font-family="Helvetica,sans-Serif" font-size="10.00"> </text>
<polyline fill="none" stroke="black" points="320.5,-19.5 435.5,-19.5 "/>
<text text-anchor="start" x="328.5" y="-7.5" font-family="Helvetica,sans-Serif" font-size="10.00">+ QueuePopup()</text>
</a>
</g>
<!-- Node1&#45;&gt;Node4 -->
<g id="edge6" class="edge"><title>Node1&#45;&gt;Node4</title>
<path fill="none" stroke="midnightblue" d="M343.732,-85.6306C349.806,-75.7695 355.738,-66.1393 360.913,-57.7379"/>
<polygon fill="none" stroke="midnightblue" points="340.637,-83.9809 338.372,-94.3308 346.597,-87.6523 340.637,-83.9809"/>
</g>
<!-- Node5 -->
<g id="node9" class="node"><title>Node5</title>
<a xlink:href="classGManager_1_1Trayicon.html" target="_top" xlink:title="Manager for the trayicon.">
<polygon fill="white" stroke="black" points="453.5,-0.5 453.5,-57.5 558.5,-57.5 558.5,-0.5 453.5,-0.5"/>
<text text-anchor="middle" x="506" y="-45.5" font-family="Helvetica,sans-Serif" font-size="10.00">GManager::Trayicon</text>
<polyline fill="none" stroke="black" points="453.5,-38.5 558.5,-38.5 "/>
<text text-anchor="middle" x="506" y="-26.5" font-family="Helvetica,sans-Serif" font-size="10.00"> </text>
<polyline fill="none" stroke="black" points="453.5,-19.5 558.5,-19.5 "/>
<text text-anchor="start" x="461.5" y="-7.5" font-family="Helvetica,sans-Serif" font-size="10.00">+ Trayicon()</text>
</a>
</g>
<!-- Node1&#45;&gt;Node5 -->
<g id="edge8" class="edge"><title>Node1&#45;&gt;Node5</title>
<path fill="none" stroke="midnightblue" d="M364.313,-116.395C395.545,-97.3504 432.493,-74.8215 460.826,-57.5451"/>
<polygon fill="none" stroke="midnightblue" points="362.383,-113.472 355.667,-121.666 366.027,-119.449 362.383,-113.472"/>
</g>
</g>
</svg>
