<?xml version="1.0" encoding="UTF-8" standalone="no"?>
<!DOCTYPE svg PUBLIC "-//W3C//DTD SVG 1.1//EN"
 "http://www.w3.org/Graphics/SVG/1.1/DTD/svg11.dtd">
<!-- Generated by graphviz version 2.28.0 (20120217.0315)
 -->
<!-- Title: G Pages: 1 -->
<svg width="646pt" height="172pt"
 viewBox="0.00 0.00 646.00 172.00" xmlns="http://www.w3.org/2000/svg" xmlns:xlink="http://www.w3.org/1999/xlink">
<g id="graph1" class="graph" transform="scale(1 1) rotate(0) translate(4 168)">
<title>G</title>
<polygon fill="white" stroke="white" points="-4,5 -4,-168 643,-168 643,5 -4,5"/>
<!-- Node1 -->
<g id="node1" class="node"><title>Node1</title>
<polygon fill="#bfbfbf" stroke="black" points="180,-0.5 180,-57.5 338,-57.5 338,-0.5 180,-0.5"/>
<text text-anchor="middle" x="259" y="-45.5" font-family="Helvetica,sans-Serif" font-size="10.00">Browser::OutputsModelColumns</text>
<polyline fill="none" stroke="black" points="180,-38.5 338,-38.5 "/>
<text text-anchor="middle" x="259" y="-26.5" font-family="Helvetica,sans-Serif" font-size="10.00"> </text>
<polyline fill="none" stroke="black" points="180,-19.5 338,-19.5 "/>
<text text-anchor="start" x="188" y="-7.5" font-family="Helvetica,sans-Serif" font-size="10.00">+ OutputsModelColumns()</text>
</g>
<!-- Node2 -->
<g id="node2" class="node"><title>Node2</title>
<a xlink:href="classGtk_1_1TreeModel_1_1ColumnRecord.html" target="_top" xlink:title="{ColumnRecord\n||}">
<polygon fill="white" stroke="black" points="0,-106.5 0,-163.5 82,-163.5 82,-106.5 0,-106.5"/>
<text text-anchor="middle" x="41" y="-151.5" font-family="Helvetica,sans-Serif" font-size="10.00">ColumnRecord</text>
<polyline fill="none" stroke="black" points="0,-144.5 82,-144.5 "/>
<text text-anchor="middle" x="41" y="-132.5" font-family="Helvetica,sans-Serif" font-size="10.00"> </text>
<polyline fill="none" stroke="black" points="0,-125.5 82,-125.5 "/>
<text text-anchor="middle" x="41" y="-113.5" font-family="Helvetica,sans-Serif" font-size="10.00"> </text>
</a>
</g>
<!-- Node2&#45;&gt;Node1 -->
<g id="edge2" class="edge"><title>Node2&#45;&gt;Node1</title>
<path fill="none" stroke="midnightblue" d="M90.725,-106.139C90.8168,-106.093 90.9084,-106.046 91,-106 124.719,-88.9713 163.047,-71.4937 194.571,-57.599"/>
<polygon fill="none" stroke="midnightblue" points="89.3111,-102.929 82.0503,-110.645 92.5379,-109.141 89.3111,-102.929"/>
</g>
<!-- Node3 -->
<g id="node4" class="node"><title>Node3</title>
<polygon fill="white" stroke="#bfbfbf" points="100,-106.5 100,-163.5 232,-163.5 232,-106.5 100,-106.5"/>
<text text-anchor="middle" x="166" y="-151.5" font-family="Helvetica,sans-Serif" font-size="10.00">TreeModelColumn&lt; bool &gt;</text>
<polyline fill="none" stroke="#bfbfbf" points="100,-144.5 232,-144.5 "/>
<text text-anchor="middle" x="166" y="-132.5" font-family="Helvetica,sans-Serif" font-size="10.00"> </text>
<polyline fill="none" stroke="#bfbfbf" points="100,-125.5 232,-125.5 "/>
<text text-anchor="middle" x="166" y="-113.5" font-family="Helvetica,sans-Serif" font-size="10.00"> </text>
</g>
<!-- Node3&#45;&gt;Node1 -->
<g id="edge4" class="edge"><title>Node3&#45;&gt;Node1</title>
<path fill="none" stroke="#404040" d="M190.678,-106.403C201.504,-94.2971 214.37,-79.9091 226.002,-66.9014"/>
<polygon fill="none" stroke="#404040" points="226.207,-66.6712 227.225,-59.5322 234.207,-57.726 233.189,-64.8649 226.207,-66.6712"/>
<text text-anchor="middle" x="238" y="-79.5" font-family="Helvetica,sans-Serif" font-size="10.00"> colActive</text>
</g>
<!-- Node4 -->
<g id="node6" class="node"><title>Node4</title>
<polygon fill="white" stroke="#bfbfbf" points="250.5,-106.5 250.5,-163.5 453.5,-163.5 453.5,-106.5 250.5,-106.5"/>
<text text-anchor="middle" x="352" y="-151.5" font-family="Helvetica,sans-Serif" font-size="10.00">TreeModelColumn&lt; MPD::AudioOutput * &gt;</text>
<polyline fill="none" stroke="#bfbfbf" points="250.5,-144.5 453.5,-144.5 "/>
<text text-anchor="middle" x="352" y="-132.5" font-family="Helvetica,sans-Serif" font-size="10.00"> </text>
<polyline fill="none" stroke="#bfbfbf" points="250.5,-125.5 453.5,-125.5 "/>
<text text-anchor="middle" x="352" y="-113.5" font-family="Helvetica,sans-Serif" font-size="10.00"> </text>
</g>
<!-- Node4&#45;&gt;Node1 -->
<g id="edge6" class="edge"><title>Node4&#45;&gt;Node1</title>
<path fill="none" stroke="#404040" d="M327.322,-106.403C316.496,-94.2971 303.63,-79.9091 291.998,-66.9014"/>
<polygon fill="none" stroke="#404040" points="291.793,-66.6712 284.811,-64.8649 283.793,-57.726 290.775,-59.5322 291.793,-66.6712"/>
<text text-anchor="middle" x="332" y="-79.5" font-family="Helvetica,sans-Serif" font-size="10.00"> colOutput</text>
</g>
<!-- Node5 -->
<g id="node8" class="node"><title>Node5</title>
<polygon fill="white" stroke="#bfbfbf" points="471.5,-106.5 471.5,-163.5 638.5,-163.5 638.5,-106.5 471.5,-106.5"/>
<text text-anchor="middle" x="555" y="-151.5" font-family="Helvetica,sans-Serif" font-size="10.00">TreeModelColumn&lt; Glib::ustring &gt;</text>
<polyline fill="none" stroke="#bfbfbf" points="471.5,-144.5 638.5,-144.5 "/>
<text text-anchor="middle" x="555" y="-132.5" font-family="Helvetica,sans-Serif" font-size="10.00"> </text>
<polyline fill="none" stroke="#bfbfbf" points="471.5,-125.5 638.5,-125.5 "/>
<text text-anchor="middle" x="555" y="-113.5" font-family="Helvetica,sans-Serif" font-size="10.00"> </text>
</g>
<!-- Node5&#45;&gt;Node1 -->
<g id="edge8" class="edge"><title>Node5&#45;&gt;Node1</title>
<path fill="none" stroke="#404040" d="M476.455,-106.403C437.244,-92.6261 389.621,-75.8938 348.949,-61.6036"/>
<polygon fill="none" stroke="#404040" points="348.72,-61.5233 341.733,-63.3082 337.398,-57.5454 344.385,-55.7605 348.72,-61.5233"/>
<text text-anchor="middle" x="437.5" y="-79.5" font-family="Helvetica,sans-Serif" font-size="10.00"> colName</text>
</g>
</g>
</svg>
