<?xml version="1.0" encoding="UTF-8" standalone="no"?>
<!DOCTYPE svg PUBLIC "-//W3C//DTD SVG 1.1//EN"
 "http://www.w3.org/Graphics/SVG/1.1/DTD/svg11.dtd">
<!-- Generated by graphviz version 2.28.0 (20111204.1018)
 -->
<!-- Title: G Pages: 1 -->
<svg width="138pt" height="260pt"
 viewBox="0.00 0.00 138.00 260.00" xmlns="http://www.w3.org/2000/svg" xmlns:xlink="http://www.w3.org/1999/xlink">
<g id="graph1" class="graph" transform="scale(1 1) rotate(0) translate(4 256)">
<title>G</title>
<polygon fill="white" stroke="white" points="-4,5 -4,-256 135,-256 135,5 -4,5"/>
<!-- Node1 -->
<g id="node1" class="node"><title>Node1</title>
<polygon fill="#bfbfbf" stroke="black" points="5,-1 5,-135 125,-135 125,-1 5,-1"/>
<text text-anchor="middle" x="65" y="-123" font-family="Helvetica,sans-Serif" font-size="10.00">GManager::Heartbeat</text>
<polyline fill="none" stroke="black" points="5,-116 125,-116 "/>
<text text-anchor="middle" x="65" y="-104" font-family="Helvetica,sans-Serif" font-size="10.00"> </text>
<polyline fill="none" stroke="black" points="5,-97 125,-97 "/>
<text text-anchor="start" x="13" y="-85" font-family="Helvetica,sans-Serif" font-size="10.00">+ Heartbeat()</text>
<text text-anchor="start" x="13" y="-74" font-family="Helvetica,sans-Serif" font-size="10.00">+ ~Heartbeat()</text>
<text text-anchor="start" x="13" y="-63" font-family="Helvetica,sans-Serif" font-size="10.00">+ signal_client_update()</text>
<text text-anchor="start" x="13" y="-52" font-family="Helvetica,sans-Serif" font-size="10.00">+ play()</text>
<text text-anchor="start" x="13" y="-41" font-family="Helvetica,sans-Serif" font-size="10.00">+ pause()</text>
<text text-anchor="start" x="13" y="-30" font-family="Helvetica,sans-Serif" font-size="10.00">+ reset()</text>
<text text-anchor="start" x="13" y="-19" font-family="Helvetica,sans-Serif" font-size="10.00">+ set()</text>
<text text-anchor="start" x="13" y="-8" font-family="Helvetica,sans-Serif" font-size="10.00">+ get()</text>
</g>
<!-- Node2 -->
<g id="node2" class="node"><title>Node2</title>
<a xlink:href="classMPD_1_1AbstractClientUser.html" target="_top" xlink:title="{MPD::AbstractClientUser\n|# mp_Client\l|+ AbstractClientUser()\l# on_client_update()\l# on_connection_change()\l}">
<polygon fill="white" stroke="black" points="-0.5,-172.5 -0.5,-251.5 130.5,-251.5 130.5,-172.5 -0.5,-172.5"/>
<text text-anchor="middle" x="65" y="-239.5" font-family="Helvetica,sans-Serif" font-size="10.00">MPD::AbstractClientUser</text>
<polyline fill="none" stroke="black" points="-0.5,-232.5 130.5,-232.5 "/>
<text text-anchor="start" x="7.5" y="-220.5" font-family="Helvetica,sans-Serif" font-size="10.00"># mp_Client</text>
<polyline fill="none" stroke="black" points="-0.5,-213.5 130.5,-213.5 "/>
<text text-anchor="start" x="7.5" y="-201.5" font-family="Helvetica,sans-Serif" font-size="10.00">+ AbstractClientUser()</text>
<text text-anchor="start" x="7.5" y="-190.5" font-family="Helvetica,sans-Serif" font-size="10.00"># on_client_update()</text>
<text text-anchor="start" x="7.5" y="-179.5" font-family="Helvetica,sans-Serif" font-size="10.00"># on_connection_change()</text>
</a>
</g>
<!-- Node2&#45;&gt;Node1 -->
<g id="edge2" class="edge"><title>Node2&#45;&gt;Node1</title>
<path fill="none" stroke="midnightblue" d="M65,-162.195C65,-153.448 65,-144.201 65,-135.063"/>
<polygon fill="none" stroke="midnightblue" points="61.5001,-162.198 65,-172.198 68.5001,-162.198 61.5001,-162.198"/>
</g>
</g>
</svg>
