<?xml version="1.0" encoding="UTF-8" standalone="no"?>
<!DOCTYPE svg PUBLIC "-//W3C//DTD SVG 1.1//EN"
 "http://www.w3.org/Graphics/SVG/1.1/DTD/svg11.dtd">
<!-- Generated by graphviz version 2.28.0 (20120217.0315)
 -->
<!-- Title: G Pages: 1 -->
<svg width="435pt" height="302pt"
 viewBox="0.00 0.00 435.00 302.00" xmlns="http://www.w3.org/2000/svg" xmlns:xlink="http://www.w3.org/1999/xlink">
<g id="graph1" class="graph" transform="scale(1 1) rotate(0) translate(4 298)">
<title>G</title>
<polygon fill="white" stroke="white" points="-4,5 -4,-298 432,-298 432,5 -4,5"/>
<!-- Node1 -->
<g id="node1" class="node"><title>Node1</title>
<polygon fill="#bfbfbf" stroke="black" points="86,-0.5 86,-57.5 214,-57.5 214,-0.5 86,-0.5"/>
<text text-anchor="middle" x="150" y="-45.5" font-family="Helvetica,sans-Serif" font-size="10.00">Browser::DatabasePopup</text>
<polyline fill="none" stroke="black" points="86,-38.5 214,-38.5 "/>
<text text-anchor="middle" x="150" y="-26.5" font-family="Helvetica,sans-Serif" font-size="10.00"> </text>
<polyline fill="none" stroke="black" points="86,-19.5 214,-19.5 "/>
<text text-anchor="start" x="94" y="-7.5" font-family="Helvetica,sans-Serif" font-size="10.00">+ DatabasePopup()</text>
</g>
<!-- Node2 -->
<g id="node2" class="node"><title>Node2</title>
<a xlink:href="classBrowser_1_1BasePopup.html" target="_top" xlink:title="A Baseclass for Widgets that want to implement easily popup widgets.">
<polygon fill="white" stroke="black" points="95.5,-97 95.5,-187 204.5,-187 204.5,-97 95.5,-97"/>
<text text-anchor="middle" x="150" y="-175" font-family="Helvetica,sans-Serif" font-size="10.00">Browser::BasePopup</text>
<polyline fill="none" stroke="black" points="95.5,-168 204.5,-168 "/>
<text text-anchor="middle" x="150" y="-156" font-family="Helvetica,sans-Serif" font-size="10.00"> </text>
<polyline fill="none" stroke="black" points="95.5,-149 204.5,-149 "/>
<text text-anchor="start" x="103.5" y="-137" font-family="Helvetica,sans-Serif" font-size="10.00">+ BasePopup()</text>
<text text-anchor="start" x="103.5" y="-126" font-family="Helvetica,sans-Serif" font-size="10.00">+ get_action()</text>
<text text-anchor="start" x="103.5" y="-115" font-family="Helvetica,sans-Serif" font-size="10.00"># menu_add_item()</text>
<text text-anchor="start" x="103.5" y="-104" font-family="Helvetica,sans-Serif" font-size="10.00"># menu_construct()</text>
</a>
</g>
<!-- Node2&#45;&gt;Node1 -->
<g id="edge2" class="edge"><title>Node2&#45;&gt;Node1</title>
<path fill="none" stroke="midnightblue" d="M150,-86.8086C150,-76.738 150,-66.6099 150,-57.7516"/>
<polygon fill="none" stroke="midnightblue" points="146.5,-86.8109 150,-96.8109 153.5,-86.811 146.5,-86.8109"/>
</g>
<!-- Node3 -->
<g id="node4" class="node"><title>Node3</title>
<polygon fill="white" stroke="#bfbfbf" points="-0.5,-236.5 -0.5,-293.5 46.5,-293.5 46.5,-236.5 -0.5,-236.5"/>
<text text-anchor="middle" x="23" y="-281.5" font-family="Helvetica,sans-Serif" font-size="10.00">Menu *</text>
<polyline fill="none" stroke="#bfbfbf" points="-0.5,-274.5 46.5,-274.5 "/>
<text text-anchor="middle" x="23" y="-262.5" font-family="Helvetica,sans-Serif" font-size="10.00"> </text>
<polyline fill="none" stroke="#bfbfbf" points="-0.5,-255.5 46.5,-255.5 "/>
<text text-anchor="middle" x="23" y="-243.5" font-family="Helvetica,sans-Serif" font-size="10.00"> </text>
</g>
<!-- Node3&#45;&gt;Node2 -->
<g id="edge4" class="edge"><title>Node3&#45;&gt;Node2</title>
<path fill="none" stroke="#404040" d="M36.4838,-236.346C42.2526,-226.134 49.6034,-214.894 58,-206 66.1729,-197.343 75.7285,-189.21 85.5309,-181.848"/>
<polygon fill="none" stroke="#404040" points="85.6391,-181.77 88.167,-175.017 95.3733,-174.753 92.8454,-181.506 85.6391,-181.77"/>
<text text-anchor="middle" x="83" y="-209.5" font-family="Helvetica,sans-Serif" font-size="10.00"> mp_Popup</text>
</g>
<!-- Node4 -->
<g id="node6" class="node"><title>Node4</title>
<polygon fill="white" stroke="#bfbfbf" points="66.5,-236.5 66.5,-293.5 119.5,-293.5 119.5,-236.5 66.5,-236.5"/>
<text text-anchor="middle" x="93" y="-281.5" font-family="Helvetica,sans-Serif" font-size="10.00">ustring *</text>
<polyline fill="none" stroke="#bfbfbf" points="66.5,-274.5 119.5,-274.5 "/>
<text text-anchor="middle" x="93" y="-262.5" font-family="Helvetica,sans-Serif" font-size="10.00"> </text>
<polyline fill="none" stroke="#bfbfbf" points="66.5,-255.5 119.5,-255.5 "/>
<text text-anchor="middle" x="93" y="-243.5" font-family="Helvetica,sans-Serif" font-size="10.00"> </text>
</g>
<!-- Node4&#45;&gt;Node2 -->
<g id="edge6" class="edge"><title>Node4&#45;&gt;Node2</title>
<path fill="none" stroke="#404040" d="M103.852,-236.34C107.805,-226.661 112.43,-215.773 117,-206 118.214,-203.405 119.478,-200.763 120.775,-198.103"/>
<polygon fill="none" stroke="#404040" points="120.882,-197.889 119.979,-190.734 126.235,-187.149 127.138,-194.303 120.882,-197.889"/>
<text text-anchor="middle" x="151" y="-209.5" font-family="Helvetica,sans-Serif" font-size="10.00"> m_UiDefinition</text>
</g>
<!-- Node5 -->
<g id="node8" class="node"><title>Node5</title>
<polygon fill="white" stroke="#bfbfbf" points="137.5,-236.5 137.5,-293.5 276.5,-293.5 276.5,-236.5 137.5,-236.5"/>
<text text-anchor="middle" x="207" y="-281.5" font-family="Helvetica,sans-Serif" font-size="10.00">RefPtr&lt; Gtk::ActionGroup &gt;</text>
<polyline fill="none" stroke="#bfbfbf" points="137.5,-274.5 276.5,-274.5 "/>
<text text-anchor="middle" x="207" y="-262.5" font-family="Helvetica,sans-Serif" font-size="10.00"> </text>
<polyline fill="none" stroke="#bfbfbf" points="137.5,-255.5 276.5,-255.5 "/>
<text text-anchor="middle" x="207" y="-243.5" font-family="Helvetica,sans-Serif" font-size="10.00"> </text>
</g>
<!-- Node5&#45;&gt;Node2 -->
<g id="edge8" class="edge"><title>Node5&#45;&gt;Node2</title>
<path fill="none" stroke="#404040" d="M197.393,-236.224C193.799,-226.534 189.491,-215.67 185,-206 183.799,-203.415 182.535,-200.791 181.228,-198.156"/>
<polygon fill="none" stroke="#404040" points="181.15,-198.002 174.851,-194.492 175.669,-187.327 181.968,-190.838 181.15,-198.002"/>
<text text-anchor="middle" x="230" y="-209.5" font-family="Helvetica,sans-Serif" font-size="10.00"> m_refActionGroup</text>
</g>
<!-- Node6 -->
<g id="node10" class="node"><title>Node6</title>
<polygon fill="white" stroke="#bfbfbf" points="294.5,-236.5 294.5,-293.5 427.5,-293.5 427.5,-236.5 294.5,-236.5"/>
<text text-anchor="middle" x="361" y="-281.5" font-family="Helvetica,sans-Serif" font-size="10.00">RefPtr&lt; Gtk::UIManager &gt;</text>
<polyline fill="none" stroke="#bfbfbf" points="294.5,-274.5 427.5,-274.5 "/>
<text text-anchor="middle" x="361" y="-262.5" font-family="Helvetica,sans-Serif" font-size="10.00"> </text>
<polyline fill="none" stroke="#bfbfbf" points="294.5,-255.5 427.5,-255.5 "/>
<text text-anchor="middle" x="361" y="-243.5" font-family="Helvetica,sans-Serif" font-size="10.00"> </text>
</g>
<!-- Node6&#45;&gt;Node2 -->
<g id="edge10" class="edge"><title>Node6&#45;&gt;Node2</title>
<path fill="none" stroke="#404040" d="M322.284,-236.369C307.72,-226.382 290.848,-215.288 275,-206 256.071,-194.907 234.946,-183.802 215.529,-174.074"/>
<polygon fill="none" stroke="#404040" points="215.383,-174.002 208.231,-174.919 204.634,-168.669 211.786,-167.752 215.383,-174.002"/>
<text text-anchor="middle" x="332" y="-209.5" font-family="Helvetica,sans-Serif" font-size="10.00"> m_refUIManager</text>
</g>
</g>
</svg>
