<?xml version="1.0" encoding="UTF-8" standalone="no"?>
<!DOCTYPE svg PUBLIC "-//W3C//DTD SVG 1.1//EN"
 "http://www.w3.org/Graphics/SVG/1.1/DTD/svg11.dtd">
<!-- Generated by graphviz version 2.28.0 (20111204.1018)
 -->
<!-- Title: G Pages: 1 -->
<svg width="172pt" height="248pt"
 viewBox="0.00 0.00 172.00 248.00" xmlns="http://www.w3.org/2000/svg" xmlns:xlink="http://www.w3.org/1999/xlink">
<g id="graph1" class="graph" transform="scale(1 1) rotate(0) translate(4 244)">
<title>G</title>
<polygon fill="white" stroke="white" points="-4,5 -4,-244 169,-244 169,5 -4,5"/>
<!-- Node1 -->
<g id="node1" class="node"><title>Node1</title>
<polygon fill="#bfbfbf" stroke="black" points="-0.5,-0.5 -0.5,-145.5 164.5,-145.5 164.5,-0.5 -0.5,-0.5"/>
<text text-anchor="middle" x="82" y="-133.5" font-family="Helvetica,sans-Serif" font-size="10.00">MPDTestSuite</text>
<polyline fill="none" stroke="black" points="-0.5,-126.5 164.5,-126.5 "/>
<text text-anchor="start" x="7.5" y="-114.5" font-family="Helvetica,sans-Serif" font-size="10.00">+ toggleStates</text>
<polyline fill="none" stroke="black" points="-0.5,-107.5 164.5,-107.5 "/>
<text text-anchor="start" x="7.5" y="-95.5" font-family="Helvetica,sans-Serif" font-size="10.00">+ setUp()</text>
<text text-anchor="start" x="7.5" y="-84.5" font-family="Helvetica,sans-Serif" font-size="10.00">+ tearDown()</text>
<text text-anchor="start" x="7.5" y="-73.5" font-family="Helvetica,sans-Serif" font-size="10.00">+ connectionChange()</text>
<text text-anchor="start" x="7.5" y="-62.5" font-family="Helvetica,sans-Serif" font-size="10.00">+ clientUpdate()</text>
<text text-anchor="start" x="7.5" y="-51.5" font-family="Helvetica,sans-Serif" font-size="10.00">+ testConnect()</text>
<text text-anchor="start" x="7.5" y="-40.5" font-family="Helvetica,sans-Serif" font-size="10.00">+ testDisconnect()</text>
<text text-anchor="start" x="7.5" y="-29.5" font-family="Helvetica,sans-Serif" font-size="10.00">+ testSignalClientUpdate()</text>
<text text-anchor="start" x="7.5" y="-18.5" font-family="Helvetica,sans-Serif" font-size="10.00">+ toggleCommandsClientUpdate()</text>
<text text-anchor="start" x="7.5" y="-7.5" font-family="Helvetica,sans-Serif" font-size="10.00">+ testToggleCommands()</text>
</g>
<!-- Node2 -->
<g id="node2" class="node"><title>Node2</title>
<a xlink:href="classCxxTest_1_1TestSuite.html" target="_top" xlink:title="{CxxTest::TestSuite\n||}">
<polygon fill="white" stroke="black" points="31,-182.5 31,-239.5 133,-239.5 133,-182.5 31,-182.5"/>
<text text-anchor="middle" x="82" y="-227.5" font-family="Helvetica,sans-Serif" font-size="10.00">CxxTest::TestSuite</text>
<polyline fill="none" stroke="black" points="31,-220.5 133,-220.5 "/>
<text text-anchor="middle" x="82" y="-208.5" font-family="Helvetica,sans-Serif" font-size="10.00"> </text>
<polyline fill="none" stroke="black" points="31,-201.5 133,-201.5 "/>
<text text-anchor="middle" x="82" y="-189.5" font-family="Helvetica,sans-Serif" font-size="10.00"> </text>
</a>
</g>
<!-- Node2&#45;&gt;Node1 -->
<g id="edge2" class="edge"><title>Node2&#45;&gt;Node1</title>
<path fill="none" stroke="midnightblue" d="M82,-172.356C82,-163.999 82,-154.872 82,-145.656"/>
<polygon fill="none" stroke="midnightblue" points="78.5001,-172.478 82,-182.478 85.5001,-172.478 78.5001,-172.478"/>
</g>
</g>
</svg>
