<?xml version="1.0" encoding="UTF-8" standalone="no"?>
<!DOCTYPE svg PUBLIC "-//W3C//DTD SVG 1.1//EN"
 "http://www.w3.org/Graphics/SVG/1.1/DTD/svg11.dtd">
<!-- Generated by graphviz version 2.28.0 (20120217.0315)
 -->
<!-- Title: G Pages: 1 -->
<svg width="410pt" height="180pt"
 viewBox="0.00 0.00 410.00 180.00" xmlns="http://www.w3.org/2000/svg" xmlns:xlink="http://www.w3.org/1999/xlink">
<g id="graph1" class="graph" transform="scale(1 1) rotate(0) translate(4 176)">
<title>G</title>
<polygon fill="white" stroke="white" points="-4,5 -4,-176 407,-176 407,5 -4,5"/>
<!-- Node1 -->
<g id="node1" class="node"><title>Node1</title>
<polygon fill="#bfbfbf" stroke="black" points="0.5,-76.5 0.5,-95.5 221.5,-95.5 221.5,-76.5 0.5,-76.5"/>
<text text-anchor="middle" x="111" y="-83.5" font-family="Helvetica,sans-Serif" font-size="10.00">MPDTestSuite::toggleCommandsClientUpdate</text>
</g>
<!-- Node2 -->
<g id="node3" class="node"><title>Node2</title>
<a xlink:href="classMPD_1_1NotifyData.html#a191d90b5e33902caf9534262bb68c708" target="_top" xlink:title="Get the current MPD::Status.">
<polygon fill="white" stroke="black" points="258,-152.5 258,-171.5 402,-171.5 402,-152.5 258,-152.5"/>
<text text-anchor="middle" x="330" y="-159.5" font-family="Helvetica,sans-Serif" font-size="10.00">MPD::NotifyData::get_status</text>
</a>
</g>
<!-- Node1&#45;&gt;Node2 -->
<g id="edge2" class="edge"><title>Node1&#45;&gt;Node2</title>
<path fill="none" stroke="midnightblue" d="M134.477,-95.6735C162.908,-107.7 213.528,-128.418 258,-143 265.166,-145.35 272.808,-147.627 280.323,-149.74"/>
<polygon fill="midnightblue" stroke="midnightblue" points="279.51,-153.147 290.08,-152.416 281.362,-146.396 279.51,-153.147"/>
</g>
<!-- Node3 -->
<g id="node5" class="node"><title>Node3</title>
<a xlink:href="classMPD_1_1Status.html#a81fdec61b201d82dc7d74cc793e9887d" target="_top" xlink:title="True if on random mode.">
<polygon fill="white" stroke="black" points="264.5,-114.5 264.5,-133.5 395.5,-133.5 395.5,-114.5 264.5,-114.5"/>
<text text-anchor="middle" x="330" y="-121.5" font-family="Helvetica,sans-Serif" font-size="10.00">MPD::Status::get_random</text>
</a>
</g>
<!-- Node1&#45;&gt;Node3 -->
<g id="edge4" class="edge"><title>Node1&#45;&gt;Node3</title>
<path fill="none" stroke="midnightblue" d="M166.478,-95.54C196.272,-100.757 233.363,-107.253 264.585,-112.72"/>
<polygon fill="midnightblue" stroke="midnightblue" points="264.046,-116.179 274.499,-114.456 265.253,-109.284 264.046,-116.179"/>
</g>
<!-- Node4 -->
<g id="node7" class="node"><title>Node4</title>
<a xlink:href="classMPD_1_1Status.html#a4c9f8dae160fe747ec381ba08a253d8e" target="_top" xlink:title="True if on consume mode.">
<polygon fill="white" stroke="black" points="261,-76.5 261,-95.5 399,-95.5 399,-76.5 261,-76.5"/>
<text text-anchor="middle" x="330" y="-83.5" font-family="Helvetica,sans-Serif" font-size="10.00">MPD::Status::get_consume</text>
</a>
</g>
<!-- Node1&#45;&gt;Node4 -->
<g id="edge6" class="edge"><title>Node1&#45;&gt;Node4</title>
<path fill="none" stroke="midnightblue" d="M221.771,-86C231.576,-86 241.366,-86 250.823,-86"/>
<polygon fill="midnightblue" stroke="midnightblue" points="250.938,-89.5001 260.938,-86 250.938,-82.5001 250.938,-89.5001"/>
</g>
<!-- Node5 -->
<g id="node9" class="node"><title>Node5</title>
<a xlink:href="classMPD_1_1Status.html#a96e738c0b47d883a216fdbe49bf8f849" target="_top" xlink:title="True if on single mode.">
<polygon fill="white" stroke="black" points="268,-38.5 268,-57.5 392,-57.5 392,-38.5 268,-38.5"/>
<text text-anchor="middle" x="330" y="-45.5" font-family="Helvetica,sans-Serif" font-size="10.00">MPD::Status::get_single</text>
</a>
</g>
<!-- Node1&#45;&gt;Node5 -->
<g id="edge8" class="edge"><title>Node1&#45;&gt;Node5</title>
<path fill="none" stroke="midnightblue" d="M166.478,-76.46C196.272,-71.2426 233.363,-64.7475 264.585,-59.28"/>
<polygon fill="midnightblue" stroke="midnightblue" points="265.253,-62.7164 274.499,-57.5439 264.046,-55.8213 265.253,-62.7164"/>
</g>
<!-- Node6 -->
<g id="node11" class="node"><title>Node6</title>
<a xlink:href="classMPD_1_1Status.html#adcfe90f2caa6d8d56508aef5d54f50b1" target="_top" xlink:title="True if on repeat mode.">
<polygon fill="white" stroke="black" points="267.5,-0.5 267.5,-19.5 392.5,-19.5 392.5,-0.5 267.5,-0.5"/>
<text text-anchor="middle" x="330" y="-7.5" font-family="Helvetica,sans-Serif" font-size="10.00">MPD::Status::get_repeat</text>
</a>
</g>
<!-- Node1&#45;&gt;Node6 -->
<g id="edge10" class="edge"><title>Node1&#45;&gt;Node6</title>
<path fill="none" stroke="midnightblue" d="M134.477,-76.3265C162.908,-64.3002 213.528,-43.5821 258,-29 265.166,-26.6503 272.808,-24.3729 280.323,-22.2595"/>
<polygon fill="midnightblue" stroke="midnightblue" points="281.362,-25.604 290.08,-19.5836 279.51,-18.8533 281.362,-25.604"/>
</g>
</g>
</svg>
