<?xml version="1.0" encoding="UTF-8" standalone="no"?>
<!DOCTYPE svg PUBLIC "-//W3C//DTD SVG 1.1//EN"
 "http://www.w3.org/Graphics/SVG/1.1/DTD/svg11.dtd">
<!-- Generated by graphviz version 2.28.0 (20120217.0315)
 -->
<!-- Title: G Pages: 1 -->
<svg width="273pt" height="376pt"
 viewBox="0.00 0.00 273.00 376.00" xmlns="http://www.w3.org/2000/svg" xmlns:xlink="http://www.w3.org/1999/xlink">
<g id="graph1" class="graph" transform="scale(1 1) rotate(0) translate(4 372)">
<title>G</title>
<polygon fill="white" stroke="white" points="-4,5 -4,-372 270,-372 270,5 -4,5"/>
<!-- Node1 -->
<g id="node1" class="node"><title>Node1</title>
<polygon fill="#bfbfbf" stroke="black" points="73.5,-0.5 73.5,-79.5 198.5,-79.5 198.5,-0.5 73.5,-0.5"/>
<text text-anchor="middle" x="136" y="-67.5" font-family="Helvetica,sans-Serif" font-size="10.00">GManager::VolumeSlider</text>
<polyline fill="none" stroke="black" points="73.5,-60.5 198.5,-60.5 "/>
<text text-anchor="middle" x="136" y="-48.5" font-family="Helvetica,sans-Serif" font-size="10.00"> </text>
<polyline fill="none" stroke="black" points="73.5,-41.5 198.5,-41.5 "/>
<text text-anchor="start" x="81.5" y="-29.5" font-family="Helvetica,sans-Serif" font-size="10.00">+ VolumeSlider()</text>
<text text-anchor="start" x="81.5" y="-18.5" font-family="Helvetica,sans-Serif" font-size="10.00"># on_draw()</text>
<text text-anchor="start" x="81.5" y="-7.5" font-family="Helvetica,sans-Serif" font-size="10.00"># on_percent_change()</text>
</g>
<!-- Node2 -->
<g id="node2" class="node"><title>Node2</title>
<a xlink:href="classMPD_1_1AbstractClientUser.html" target="_top" xlink:title="{MPD::AbstractClientUser\n|# mp_Client\l|+ AbstractClientUser()\l# on_client_update()\l# on_connection_change()\l}">
<polygon fill="white" stroke="black" points="-0.5,-155.5 -0.5,-234.5 130.5,-234.5 130.5,-155.5 -0.5,-155.5"/>
<text text-anchor="middle" x="65" y="-222.5" font-family="Helvetica,sans-Serif" font-size="10.00">MPD::AbstractClientUser</text>
<polyline fill="none" stroke="black" points="-0.5,-215.5 130.5,-215.5 "/>
<text text-anchor="start" x="7.5" y="-203.5" font-family="Helvetica,sans-Serif" font-size="10.00"># mp_Client</text>
<polyline fill="none" stroke="black" points="-0.5,-196.5 130.5,-196.5 "/>
<text text-anchor="start" x="7.5" y="-184.5" font-family="Helvetica,sans-Serif" font-size="10.00">+ AbstractClientUser()</text>
<text text-anchor="start" x="7.5" y="-173.5" font-family="Helvetica,sans-Serif" font-size="10.00"># on_client_update()</text>
<text text-anchor="start" x="7.5" y="-162.5" font-family="Helvetica,sans-Serif" font-size="10.00"># on_connection_change()</text>
</a>
</g>
<!-- Node2&#45;&gt;Node1 -->
<g id="edge2" class="edge"><title>Node2&#45;&gt;Node1</title>
<path fill="none" stroke="midnightblue" d="M87.21,-146.139C97.15,-124.719 108.715,-99.7979 118.089,-79.596"/>
<polygon fill="none" stroke="midnightblue" points="83.9509,-144.847 82.9163,-155.392 90.3005,-147.794 83.9509,-144.847"/>
</g>
<!-- Node3 -->
<g id="node4" class="node"><title>Node3</title>
<a xlink:href="classCairoSlider.html" target="_top" xlink:title="{CairoSlider\n||+ CairoSlider()\l+ ~CairoSlider()\l# on_draw()\l# get_border()\l# get_percentage()\l# set_percentage()\l# on_percent_change()\l# get_update_timeout()\l# get_active_color()\l# get_inactive_color()\l}">
<polygon fill="white" stroke="black" points="149,-117 149,-273 265,-273 265,-117 149,-117"/>
<text text-anchor="middle" x="207" y="-261" font-family="Helvetica,sans-Serif" font-size="10.00">CairoSlider</text>
<polyline fill="none" stroke="black" points="149,-254 265,-254 "/>
<text text-anchor="middle" x="207" y="-242" font-family="Helvetica,sans-Serif" font-size="10.00"> </text>
<polyline fill="none" stroke="black" points="149,-235 265,-235 "/>
<text text-anchor="start" x="157" y="-223" font-family="Helvetica,sans-Serif" font-size="10.00">+ CairoSlider()</text>
<text text-anchor="start" x="157" y="-212" font-family="Helvetica,sans-Serif" font-size="10.00">+ ~CairoSlider()</text>
<text text-anchor="start" x="157" y="-201" font-family="Helvetica,sans-Serif" font-size="10.00"># on_draw()</text>
<text text-anchor="start" x="157" y="-190" font-family="Helvetica,sans-Serif" font-size="10.00"># get_border()</text>
<text text-anchor="start" x="157" y="-179" font-family="Helvetica,sans-Serif" font-size="10.00"># get_percentage()</text>
<text text-anchor="start" x="157" y="-168" font-family="Helvetica,sans-Serif" font-size="10.00"># set_percentage()</text>
<text text-anchor="start" x="157" y="-157" font-family="Helvetica,sans-Serif" font-size="10.00"># on_percent_change()</text>
<text text-anchor="start" x="157" y="-146" font-family="Helvetica,sans-Serif" font-size="10.00"># get_update_timeout()</text>
<text text-anchor="start" x="157" y="-135" font-family="Helvetica,sans-Serif" font-size="10.00"># get_active_color()</text>
<text text-anchor="start" x="157" y="-124" font-family="Helvetica,sans-Serif" font-size="10.00"># get_inactive_color()</text>
</a>
</g>
<!-- Node3&#45;&gt;Node1 -->
<g id="edge4" class="edge"><title>Node3&#45;&gt;Node1</title>
<path fill="none" stroke="midnightblue" d="M166.798,-107.367C162.349,-97.7812 158.001,-88.4114 154.04,-79.8742"/>
<polygon fill="none" stroke="midnightblue" points="163.7,-109.006 171.084,-116.604 170.049,-106.059 163.7,-109.006"/>
</g>
<!-- Node4 -->
<g id="node6" class="node"><title>Node4</title>
<a xlink:href="classGtk_1_1DrawingArea.html" target="_top" xlink:title="{Gtk::DrawingArea\n||}">
<polygon fill="white" stroke="black" points="159.5,-310.5 159.5,-367.5 254.5,-367.5 254.5,-310.5 159.5,-310.5"/>
<text text-anchor="middle" x="207" y="-355.5" font-family="Helvetica,sans-Serif" font-size="10.00">Gtk::DrawingArea</text>
<polyline fill="none" stroke="black" points="159.5,-348.5 254.5,-348.5 "/>
<text text-anchor="middle" x="207" y="-336.5" font-family="Helvetica,sans-Serif" font-size="10.00"> </text>
<polyline fill="none" stroke="black" points="159.5,-329.5 254.5,-329.5 "/>
<text text-anchor="middle" x="207" y="-317.5" font-family="Helvetica,sans-Serif" font-size="10.00"> </text>
</a>
</g>
<!-- Node4&#45;&gt;Node3 -->
<g id="edge6" class="edge"><title>Node4&#45;&gt;Node3</title>
<path fill="none" stroke="midnightblue" d="M207,-300.128C207,-291.734 207,-282.545 207,-273.212"/>
<polygon fill="none" stroke="midnightblue" points="203.5,-300.284 207,-310.284 210.5,-300.284 203.5,-300.284"/>
</g>
</g>
</svg>
