<?xml version="1.0" encoding="UTF-8" standalone="no"?>
<!DOCTYPE svg PUBLIC "-//W3C//DTD SVG 1.1//EN"
 "http://www.w3.org/Graphics/SVG/1.1/DTD/svg11.dtd">
<!-- Generated by graphviz version 2.28.0 (20111204.1018)
 -->
<!-- Title: G Pages: 1 -->
<svg width="314pt" height="564pt"
 viewBox="0.00 0.00 314.00 564.00" xmlns="http://www.w3.org/2000/svg" xmlns:xlink="http://www.w3.org/1999/xlink">
<g id="graph1" class="graph" transform="scale(1 1) rotate(0) translate(4 560)">
<title>G</title>
<polygon fill="white" stroke="white" points="-4,5 -4,-560 311,-560 311,5 -4,5"/>
<!-- Node1 -->
<g id="node1" class="node"><title>Node1</title>
<polygon fill="#bfbfbf" stroke="black" points="48.5,-0.5 48.5,-79.5 199.5,-79.5 199.5,-0.5 48.5,-0.5"/>
<text text-anchor="middle" x="124" y="-67.5" font-family="Helvetica,sans-Serif" font-size="10.00">MPD::AbstractClientExtension</text>
<polyline fill="none" stroke="black" points="48.5,-60.5 199.5,-60.5 "/>
<text text-anchor="start" x="56.5" y="-48.5" font-family="Helvetica,sans-Serif" font-size="10.00"># mp_BaseClient</text>
<polyline fill="none" stroke="black" points="48.5,-41.5 199.5,-41.5 "/>
<text text-anchor="start" x="56.5" y="-29.5" font-family="Helvetica,sans-Serif" font-size="10.00">+ AbstractClientExtension()</text>
<text text-anchor="start" x="56.5" y="-18.5" font-family="Helvetica,sans-Serif" font-size="10.00">+ ~AbstractClientExtension()</text>
<text text-anchor="start" x="56.5" y="-7.5" font-family="Helvetica,sans-Serif" font-size="10.00"># get_c_connection()</text>
</g>
<!-- Node2 -->
<g id="node2" class="node"><title>Node2</title>
<a xlink:href="classMPD_1_1BaseClient.html" target="_top" xlink:title="The Base to MPD::Client.">
<polygon fill="white" stroke="black" points="51,-128.5 51,-339.5 197,-339.5 197,-128.5 51,-128.5"/>
<text text-anchor="middle" x="124" y="-327.5" font-family="Helvetica,sans-Serif" font-size="10.00">MPD::BaseClient</text>
<polyline fill="none" stroke="black" points="51,-320.5 197,-320.5 "/>
<text text-anchor="start" x="59" y="-308.5" font-family="Helvetica,sans-Serif" font-size="10.00"># m_Conn</text>
<text text-anchor="start" x="59" y="-297.5" font-family="Helvetica,sans-Serif" font-size="10.00"># mp_Listener</text>
<text text-anchor="start" x="59" y="-286.5" font-family="Helvetica,sans-Serif" font-size="10.00"># m_ListBegun</text>
<polyline fill="none" stroke="black" points="51,-279.5 197,-279.5 "/>
<text text-anchor="start" x="59" y="-267.5" font-family="Helvetica,sans-Serif" font-size="10.00">+ go_idle()</text>
<text text-anchor="start" x="59" y="-256.5" font-family="Helvetica,sans-Serif" font-size="10.00">+ go_busy()</text>
<text text-anchor="start" x="59" y="-245.5" font-family="Helvetica,sans-Serif" font-size="10.00">+ get_connection()</text>
<text text-anchor="start" x="59" y="-234.5" font-family="Helvetica,sans-Serif" font-size="10.00">+ is_connected()</text>
<text text-anchor="start" x="59" y="-223.5" font-family="Helvetica,sans-Serif" font-size="10.00">+ begin()</text>
<text text-anchor="start" x="59" y="-212.5" font-family="Helvetica,sans-Serif" font-size="10.00">+ commit()</text>
<text text-anchor="start" x="59" y="-201.5" font-family="Helvetica,sans-Serif" font-size="10.00">+ get_status()</text>
<text text-anchor="start" x="59" y="-190.5" font-family="Helvetica,sans-Serif" font-size="10.00">+ signal_client_update()</text>
<text text-anchor="start" x="59" y="-179.5" font-family="Helvetica,sans-Serif" font-size="10.00">+ signal_connection_change()</text>
<text text-anchor="start" x="59" y="-168.5" font-family="Helvetica,sans-Serif" font-size="10.00">+ force_update()</text>
<text text-anchor="start" x="59" y="-157.5" font-family="Helvetica,sans-Serif" font-size="10.00"># BaseClient()</text>
<text text-anchor="start" x="59" y="-146.5" font-family="Helvetica,sans-Serif" font-size="10.00"># __connect()</text>
<text text-anchor="start" x="59" y="-135.5" font-family="Helvetica,sans-Serif" font-size="10.00"># __disconnect()</text>
</a>
</g>
<!-- Node2&#45;&gt;Node1 -->
<g id="edge2" class="edge"><title>Node2&#45;&gt;Node1</title>
<path fill="none" stroke="#404040" d="M124,-128.292C124,-115.668 124,-103.247 124,-91.9109"/>
<polygon fill="none" stroke="#404040" points="124,-91.6204 120,-85.6204 124,-79.6204 128,-85.6204 124,-91.6204"/>
<text text-anchor="middle" x="159" y="-101.5" font-family="Helvetica,sans-Serif" font-size="10.00"> mp_BaseClient</text>
</g>
<!-- Node3 -->
<g id="node4" class="node"><title>Node3</title>
<a xlink:href="classMPD_1_1Listener.html" target="_top" xlink:title="Listener for Server events, Freya&#39;s actual core.">
<polygon fill="white" stroke="black" points="0,-410.5 0,-533.5 88,-533.5 88,-410.5 0,-410.5"/>
<text text-anchor="middle" x="44" y="-521.5" font-family="Helvetica,sans-Serif" font-size="10.00">MPD::Listener</text>
<polyline fill="none" stroke="black" points="0,-514.5 88,-514.5 "/>
<text text-anchor="middle" x="44" y="-502.5" font-family="Helvetica,sans-Serif" font-size="10.00"> </text>
<polyline fill="none" stroke="black" points="0,-495.5 88,-495.5 "/>
<text text-anchor="start" x="8" y="-483.5" font-family="Helvetica,sans-Serif" font-size="10.00">+ Listener()</text>
<text text-anchor="start" x="8" y="-472.5" font-family="Helvetica,sans-Serif" font-size="10.00">+ ~Listener()</text>
<text text-anchor="start" x="8" y="-461.5" font-family="Helvetica,sans-Serif" font-size="10.00">+ enter()</text>
<text text-anchor="start" x="8" y="-450.5" font-family="Helvetica,sans-Serif" font-size="10.00">+ leave()</text>
<text text-anchor="start" x="8" y="-439.5" font-family="Helvetica,sans-Serif" font-size="10.00">+ is_idling()</text>
<text text-anchor="start" x="8" y="-428.5" font-family="Helvetica,sans-Serif" font-size="10.00">+ get_data()</text>
<text text-anchor="start" x="8" y="-417.5" font-family="Helvetica,sans-Serif" font-size="10.00">+ force_update()</text>
</a>
</g>
<!-- Node3&#45;&gt;Node2 -->
<g id="edge4" class="edge"><title>Node3&#45;&gt;Node2</title>
<path fill="none" stroke="#404040" d="M50.8333,-410.393C53.6693,-393.21 57.6015,-374.653 63,-358 63.7305,-355.747 64.4961,-353.483 65.2932,-351.213"/>
<polygon fill="none" stroke="#404040" points="65.3425,-351.08 63.6827,-344.063 69.522,-339.832 71.1818,-346.849 65.3425,-351.08"/>
<text text-anchor="middle" x="91.5" y="-361.5" font-family="Helvetica,sans-Serif" font-size="10.00"> mp_Listener</text>
</g>
<!-- Node4 -->
<g id="node6" class="node"><title>Node4</title>
<polygon fill="white" stroke="#bfbfbf" points="106.5,-443.5 106.5,-500.5 141.5,-500.5 141.5,-443.5 106.5,-443.5"/>
<text text-anchor="middle" x="124" y="-488.5" font-family="Helvetica,sans-Serif" font-size="10.00">bool</text>
<polyline fill="none" stroke="#bfbfbf" points="106.5,-481.5 141.5,-481.5 "/>
<text text-anchor="middle" x="124" y="-469.5" font-family="Helvetica,sans-Serif" font-size="10.00"> </text>
<polyline fill="none" stroke="#bfbfbf" points="106.5,-462.5 141.5,-462.5 "/>
<text text-anchor="middle" x="124" y="-450.5" font-family="Helvetica,sans-Serif" font-size="10.00"> </text>
</g>
<!-- Node4&#45;&gt;Node2 -->
<g id="edge6" class="edge"><title>Node4&#45;&gt;Node2</title>
<path fill="none" stroke="#404040" d="M124,-443.466C124,-420.462 124,-385.994 124,-351.675"/>
<polygon fill="none" stroke="#404040" points="124,-351.562 120,-345.562 124,-339.562 128,-345.562 124,-351.562"/>
<text text-anchor="middle" x="154.5" y="-361.5" font-family="Helvetica,sans-Serif" font-size="10.00"> m_ListBegun</text>
</g>
<!-- Node5 -->
<g id="node8" class="node"><title>Node5</title>
<a xlink:href="classMPD_1_1Connection.html" target="_top" xlink:title="A convinience Wrapper around mpd_connection*.">
<polygon fill="white" stroke="black" points="160,-388.5 160,-555.5 306,-555.5 306,-388.5 160,-388.5"/>
<text text-anchor="middle" x="233" y="-543.5" font-family="Helvetica,sans-Serif" font-size="10.00">MPD::Connection</text>
<polyline fill="none" stroke="black" points="160,-536.5 306,-536.5 "/>
<text text-anchor="middle" x="233" y="-524.5" font-family="Helvetica,sans-Serif" font-size="10.00"> </text>
<polyline fill="none" stroke="black" points="160,-517.5 306,-517.5 "/>
<text text-anchor="start" x="168" y="-505.5" font-family="Helvetica,sans-Serif" font-size="10.00">+ Connection()</text>
<text text-anchor="start" x="168" y="-494.5" font-family="Helvetica,sans-Serif" font-size="10.00">+ ~Connection()</text>
<text text-anchor="start" x="168" y="-483.5" font-family="Helvetica,sans-Serif" font-size="10.00">+ is_connected()</text>
<text text-anchor="start" x="168" y="-472.5" font-family="Helvetica,sans-Serif" font-size="10.00">+ connect()</text>
<text text-anchor="start" x="168" y="-461.5" font-family="Helvetica,sans-Serif" font-size="10.00">+ disconnect()</text>
<text text-anchor="start" x="168" y="-450.5" font-family="Helvetica,sans-Serif" font-size="10.00">+ clear_error()</text>
<text text-anchor="start" x="168" y="-439.5" font-family="Helvetica,sans-Serif" font-size="10.00">+ check_error()</text>
<text text-anchor="start" x="168" y="-428.5" font-family="Helvetica,sans-Serif" font-size="10.00">+ signal_error()</text>
<text text-anchor="start" x="168" y="-417.5" font-family="Helvetica,sans-Serif" font-size="10.00">+ signal_connection_change()</text>
<text text-anchor="start" x="168" y="-406.5" font-family="Helvetica,sans-Serif" font-size="10.00">+ emit_connection_change()</text>
<text text-anchor="start" x="168" y="-395.5" font-family="Helvetica,sans-Serif" font-size="10.00">+ get_connection()</text>
</a>
</g>
<!-- Node5&#45;&gt;Node2 -->
<g id="edge8" class="edge"><title>Node5&#45;&gt;Node2</title>
<path fill="none" stroke="#404040" d="M202.13,-388.453C197.895,-378.124 193.464,-367.765 189,-358 187.878,-355.546 186.731,-353.072 185.562,-350.584"/>
<polygon fill="none" stroke="#404040" points="185.49,-350.434 179.292,-346.748 180.311,-339.609 186.509,-343.295 185.49,-350.434"/>
<text text-anchor="middle" x="214" y="-361.5" font-family="Helvetica,sans-Serif" font-size="10.00"> m_Conn</text>
</g>
</g>
</svg>
