<?xml version="1.0" encoding="UTF-8" standalone="no"?>
<!DOCTYPE svg PUBLIC "-//W3C//DTD SVG 1.1//EN"
 "http://www.w3.org/Graphics/SVG/1.1/DTD/svg11.dtd">
<!-- Generated by graphviz version 2.28.0 (20120217.0315)
 -->
<!-- Title: G Pages: 1 -->
<svg width="532pt" height="47pt"
 viewBox="0.00 0.00 532.00 47.00" xmlns="http://www.w3.org/2000/svg" xmlns:xlink="http://www.w3.org/1999/xlink">
<g id="graph1" class="graph" transform="scale(1 1) rotate(0) translate(4 43)">
<title>G</title>
<polygon fill="white" stroke="white" points="-4,5 -4,-43 529,-43 529,5 -4,5"/>
<!-- Node1 -->
<g id="node1" class="node"><title>Node1</title>
<polygon fill="#bfbfbf" stroke="black" points="0.5,-0.5 0.5,-19.5 157.5,-19.5 157.5,-0.5 0.5,-0.5"/>
<text text-anchor="middle" x="79" y="-7.5" font-family="Helvetica,sans-Serif" font-size="10.00">MPD::BaseClient::is_connected</text>
</g>
<!-- Node2 -->
<g id="node3" class="node"><title>Node2</title>
<a xlink:href="classMPDTestSuite.html#a9fc5c8372ab10da7a6a44bafb9c26e3d" target="_top" xlink:title="MPDTestSuite::testConnect">
<polygon fill="white" stroke="black" points="194,-19.5 194,-38.5 334,-38.5 334,-19.5 194,-19.5"/>
<text text-anchor="middle" x="264" y="-26.5" font-family="Helvetica,sans-Serif" font-size="10.00">MPDTestSuite::testConnect</text>
</a>
</g>
<!-- Node1&#45;&gt;Node2 -->
<g id="edge2" class="edge"><title>Node1&#45;&gt;Node2</title>
<path fill="none" stroke="midnightblue" d="M167.574,-19.0924C176.435,-20.0123 185.344,-20.9374 193.97,-21.833"/>
<polygon fill="midnightblue" stroke="midnightblue" points="167.916,-15.6092 157.608,-18.0577 167.194,-22.5718 167.916,-15.6092"/>
</g>
<!-- Node3 -->
<g id="node5" class="node"><title>Node3</title>
<a xlink:href="classMPDTestSuite.html#adb0271089e0d05bf8389787dd2f10539" target="_top" xlink:title="MPDTestSuite::testDisconnect">
<polygon fill="white" stroke="black" points="370.5,-0.5 370.5,-19.5 523.5,-19.5 523.5,-0.5 370.5,-0.5"/>
<text text-anchor="middle" x="447" y="-7.5" font-family="Helvetica,sans-Serif" font-size="10.00">MPDTestSuite::testDisconnect</text>
</a>
</g>
<!-- Node1&#45;&gt;Node3 -->
<g id="edge6" class="edge"><title>Node1&#45;&gt;Node3</title>
<path fill="none" stroke="midnightblue" d="M167.747,-10C229.55,-10 311.451,-10 370.373,-10"/>
<polygon fill="midnightblue" stroke="midnightblue" points="167.619,-6.5001 157.619,-10 167.619,-13.5001 167.619,-6.5001"/>
</g>
<!-- Node2&#45;&gt;Node3 -->
<g id="edge4" class="edge"><title>Node2&#45;&gt;Node3</title>
<path fill="none" stroke="midnightblue" d="M344.241,-20.6819C352.863,-19.7768 361.623,-18.8573 370.201,-17.9568"/>
<polygon fill="midnightblue" stroke="midnightblue" points="343.783,-17.2106 334.203,-21.7356 344.514,-24.1724 343.783,-17.2106"/>
</g>
</g>
</svg>
