<?xml version="1.0" encoding="UTF-8" standalone="no"?>
<!DOCTYPE svg PUBLIC "-//W3C//DTD SVG 1.1//EN"
 "http://www.w3.org/Graphics/SVG/1.1/DTD/svg11.dtd">
<!-- Generated by graphviz version 2.28.0 (20120217.0315)
 -->
<!-- Title: G Pages: 1 -->
<svg width="860pt" height="272pt"
 viewBox="0.00 0.00 860.00 272.00" xmlns="http://www.w3.org/2000/svg" xmlns:xlink="http://www.w3.org/1999/xlink">
<g id="graph1" class="graph" transform="scale(1 1) rotate(0) translate(4 268)">
<title>G</title>
<polygon fill="white" stroke="white" points="-4,5 -4,-268 857,-268 857,5 -4,5"/>
<!-- Node1 -->
<g id="node1" class="node"><title>Node1</title>
<polygon fill="#bfbfbf" stroke="black" points="368,-129 368,-263 478,-263 478,-129 368,-129"/>
<text text-anchor="middle" x="423" y="-251" font-family="Helvetica,sans-Serif" font-size="10.00">AbstractBrowser</text>
<polyline fill="none" stroke="black" points="368,-244 478,-244 "/>
<text text-anchor="middle" x="423" y="-232" font-family="Helvetica,sans-Serif" font-size="10.00"> </text>
<polyline fill="none" stroke="black" points="368,-225 478,-225 "/>
<text text-anchor="start" x="376" y="-213" font-family="Helvetica,sans-Serif" font-size="10.00">+ AbstractBrowser()</text>
<text text-anchor="start" x="376" y="-202" font-family="Helvetica,sans-Serif" font-size="10.00">+ get_container()</text>
<text text-anchor="start" x="376" y="-191" font-family="Helvetica,sans-Serif" font-size="10.00">+ get_name()</text>
<text text-anchor="start" x="376" y="-180" font-family="Helvetica,sans-Serif" font-size="10.00">+ get_icon_stock_id()</text>
<text text-anchor="start" x="376" y="-169" font-family="Helvetica,sans-Serif" font-size="10.00">+ is_visible()</text>
<text text-anchor="start" x="376" y="-158" font-family="Helvetica,sans-Serif" font-size="10.00">+ needs_connection()</text>
<text text-anchor="start" x="376" y="-147" font-family="Helvetica,sans-Serif" font-size="10.00">+ is_active()</text>
<text text-anchor="start" x="376" y="-136" font-family="Helvetica,sans-Serif" font-size="10.00">+ on_getting_active()</text>
</g>
<!-- Node2 -->
<g id="node3" class="node"><title>Node2</title>
<a xlink:href="classBrowser_1_1Database.html" target="_top" xlink:title="The Database Browser.">
<polygon fill="white" stroke="black" points="-0.5,-1 -0.5,-91 100.5,-91 100.5,-1 -0.5,-1"/>
<text text-anchor="middle" x="50" y="-79" font-family="Helvetica,sans-Serif" font-size="10.00">Browser::Database</text>
<polyline fill="none" stroke="black" points="-0.5,-72 100.5,-72 "/>
<text text-anchor="middle" x="50" y="-60" font-family="Helvetica,sans-Serif" font-size="10.00"> </text>
<polyline fill="none" stroke="black" points="-0.5,-53 100.5,-53 "/>
<text text-anchor="start" x="7.5" y="-41" font-family="Helvetica,sans-Serif" font-size="10.00">+ Database()</text>
<text text-anchor="start" x="7.5" y="-30" font-family="Helvetica,sans-Serif" font-size="10.00">+ ~Database()</text>
<text text-anchor="start" x="7.5" y="-19" font-family="Helvetica,sans-Serif" font-size="10.00">+ get_container()</text>
<text text-anchor="start" x="7.5" y="-8" font-family="Helvetica,sans-Serif" font-size="10.00">+ add_item()</text>
</a>
</g>
<!-- Node1&#45;&gt;Node2 -->
<g id="edge2" class="edge"><title>Node1&#45;&gt;Node2</title>
<path fill="none" stroke="midnightblue" d="M358.246,-180.276C293.178,-163.991 191.175,-134.334 110,-92 106.883,-90.3744 103.756,-88.5911 100.656,-86.7014"/>
<polygon fill="none" stroke="midnightblue" points="357.419,-183.677 367.966,-182.679 359.098,-176.882 357.419,-183.677"/>
</g>
<!-- Node3 -->
<g id="node5" class="node"><title>Node3</title>
<a xlink:href="classBrowser_1_1Fortuna.html" target="_top" xlink:title="A little easteregg browser.">
<polygon fill="white" stroke="black" points="119,-12 119,-80 211,-80 211,-12 119,-12"/>
<text text-anchor="middle" x="165" y="-68" font-family="Helvetica,sans-Serif" font-size="10.00">Browser::Fortuna</text>
<polyline fill="none" stroke="black" points="119,-61 211,-61 "/>
<text text-anchor="middle" x="165" y="-49" font-family="Helvetica,sans-Serif" font-size="10.00"> </text>
<polyline fill="none" stroke="black" points="119,-42 211,-42 "/>
<text text-anchor="start" x="127" y="-30" font-family="Helvetica,sans-Serif" font-size="10.00">+ Fortuna()</text>
<text text-anchor="start" x="127" y="-19" font-family="Helvetica,sans-Serif" font-size="10.00">+ get_container()</text>
</a>
</g>
<!-- Node1&#45;&gt;Node3 -->
<g id="edge4" class="edge"><title>Node1&#45;&gt;Node3</title>
<path fill="none" stroke="midnightblue" d="M358.486,-166.647C317.58,-147.619 264.23,-120.829 220,-92 214.419,-88.3621 208.745,-84.2568 203.266,-80.0429"/>
<polygon fill="none" stroke="midnightblue" points="357.262,-169.937 367.808,-170.95 360.196,-163.581 357.262,-169.937"/>
</g>
<!-- Node4 -->
<g id="node7" class="node"><title>Node4</title>
<a xlink:href="classBrowser_1_1NowPlaying.html" target="_top" xlink:title="{Browser::NowPlaying\n||+ NowPlaying()\l+ get_container()\l}">
<polygon fill="white" stroke="black" points="229.5,-12 229.5,-80 340.5,-80 340.5,-12 229.5,-12"/>
<text text-anchor="middle" x="285" y="-68" font-family="Helvetica,sans-Serif" font-size="10.00">Browser::NowPlaying</text>
<polyline fill="none" stroke="black" points="229.5,-61 340.5,-61 "/>
<text text-anchor="middle" x="285" y="-49" font-family="Helvetica,sans-Serif" font-size="10.00"> </text>
<polyline fill="none" stroke="black" points="229.5,-42 340.5,-42 "/>
<text text-anchor="start" x="237.5" y="-30" font-family="Helvetica,sans-Serif" font-size="10.00">+ NowPlaying()</text>
<text text-anchor="start" x="237.5" y="-19" font-family="Helvetica,sans-Serif" font-size="10.00">+ get_container()</text>
</a>
</g>
<!-- Node1&#45;&gt;Node4 -->
<g id="edge6" class="edge"><title>Node1&#45;&gt;Node4</title>
<path fill="none" stroke="midnightblue" d="M360.62,-128.1C345.194,-111.556 329.323,-94.5348 316.129,-80.3842"/>
<polygon fill="none" stroke="midnightblue" points="358.286,-130.729 367.665,-135.656 363.405,-125.955 358.286,-130.729"/>
</g>
<!-- Node5 -->
<g id="node9" class="node"><title>Node5</title>
<a xlink:href="classBrowser_1_1PlaylistManager.html" target="_top" xlink:title="Shows a list of stored playlists.">
<polygon fill="white" stroke="black" points="359,-6.5 359,-85.5 487,-85.5 487,-6.5 359,-6.5"/>
<text text-anchor="middle" x="423" y="-73.5" font-family="Helvetica,sans-Serif" font-size="10.00">Browser::PlaylistManager</text>
<polyline fill="none" stroke="black" points="359,-66.5 487,-66.5 "/>
<text text-anchor="middle" x="423" y="-54.5" font-family="Helvetica,sans-Serif" font-size="10.00"> </text>
<polyline fill="none" stroke="black" points="359,-47.5 487,-47.5 "/>
<text text-anchor="start" x="367" y="-35.5" font-family="Helvetica,sans-Serif" font-size="10.00">+ PlaylistManager()</text>
<text text-anchor="start" x="367" y="-24.5" font-family="Helvetica,sans-Serif" font-size="10.00">+ ~PlaylistManager()</text>
<text text-anchor="start" x="367" y="-13.5" font-family="Helvetica,sans-Serif" font-size="10.00">+ get_container()</text>
</a>
</g>
<!-- Node1&#45;&gt;Node5 -->
<g id="edge8" class="edge"><title>Node1&#45;&gt;Node5</title>
<path fill="none" stroke="midnightblue" d="M423,-118.711C423,-107.23 423,-95.8226 423,-85.5954"/>
<polygon fill="none" stroke="midnightblue" points="419.5,-118.792 423,-128.792 426.5,-118.792 419.5,-118.792"/>
</g>
<!-- Node6 -->
<g id="node11" class="node"><title>Node6</title>
<a xlink:href="classBrowser_1_1Queue.html" target="_top" xlink:title="Shows a list of songs in the current playlist.">
<polygon fill="white" stroke="black" points="505,-6.5 505,-85.5 595,-85.5 595,-6.5 505,-6.5"/>
<text text-anchor="middle" x="550" y="-73.5" font-family="Helvetica,sans-Serif" font-size="10.00">Browser::Queue</text>
<polyline fill="none" stroke="black" points="505,-66.5 595,-66.5 "/>
<text text-anchor="middle" x="550" y="-54.5" font-family="Helvetica,sans-Serif" font-size="10.00"> </text>
<polyline fill="none" stroke="black" points="505,-47.5 595,-47.5 "/>
<text text-anchor="start" x="513" y="-35.5" font-family="Helvetica,sans-Serif" font-size="10.00">+ Queue()</text>
<text text-anchor="start" x="513" y="-24.5" font-family="Helvetica,sans-Serif" font-size="10.00">+ ~Queue()</text>
<text text-anchor="start" x="513" y="-13.5" font-family="Helvetica,sans-Serif" font-size="10.00">+ get_container()</text>
</a>
</g>
<!-- Node1&#45;&gt;Node6 -->
<g id="edge10" class="edge"><title>Node1&#45;&gt;Node6</title>
<path fill="none" stroke="midnightblue" d="M485.12,-122.608C496.048,-109.873 507.031,-97.0745 516.772,-85.7221"/>
<polygon fill="none" stroke="midnightblue" points="482.191,-120.647 478.335,-130.516 487.503,-125.206 482.191,-120.647"/>
</g>
<!-- Node7 -->
<g id="node13" class="node"><title>Node7</title>
<a xlink:href="classBrowser_1_1Settings.html" target="_top" xlink:title="The Settingsbrowser shown in the sidebar.">
<polygon fill="white" stroke="black" points="613,-1 613,-91 721,-91 721,-1 613,-1"/>
<text text-anchor="middle" x="667" y="-79" font-family="Helvetica,sans-Serif" font-size="10.00">Browser::Settings</text>
<polyline fill="none" stroke="black" points="613,-72 721,-72 "/>
<text text-anchor="middle" x="667" y="-60" font-family="Helvetica,sans-Serif" font-size="10.00"> </text>
<polyline fill="none" stroke="black" points="613,-53 721,-53 "/>
<text text-anchor="start" x="621" y="-41" font-family="Helvetica,sans-Serif" font-size="10.00">+ Settings()</text>
<text text-anchor="start" x="621" y="-30" font-family="Helvetica,sans-Serif" font-size="10.00">+ ~Settings()</text>
<text text-anchor="start" x="621" y="-19" font-family="Helvetica,sans-Serif" font-size="10.00">+ get_container()</text>
<text text-anchor="start" x="621" y="-8" font-family="Helvetica,sans-Serif" font-size="10.00">+ settings_changed()</text>
</a>
</g>
<!-- Node1&#45;&gt;Node7 -->
<g id="edge12" class="edge"><title>Node1&#45;&gt;Node7</title>
<path fill="none" stroke="midnightblue" d="M487.287,-160.527C522.309,-141.223 566.109,-116.223 604,-92 606.944,-90.1177 609.941,-88.1535 612.948,-86.1436"/>
<polygon fill="none" stroke="midnightblue" points="485.2,-157.68 478.119,-165.561 488.569,-163.816 485.2,-157.68"/>
</g>
<!-- Node8 -->
<g id="node15" class="node"><title>Node8</title>
<a xlink:href="classBrowser_1_1StatBrowser.html" target="_top" xlink:title="A simple representation of the current MPD::Statistics.">
<polygon fill="white" stroke="black" points="739.5,-6.5 739.5,-85.5 852.5,-85.5 852.5,-6.5 739.5,-6.5"/>
<text text-anchor="middle" x="796" y="-73.5" font-family="Helvetica,sans-Serif" font-size="10.00">Browser::StatBrowser</text>
<polyline fill="none" stroke="black" points="739.5,-66.5 852.5,-66.5 "/>
<text text-anchor="middle" x="796" y="-54.5" font-family="Helvetica,sans-Serif" font-size="10.00"> </text>
<polyline fill="none" stroke="black" points="739.5,-47.5 852.5,-47.5 "/>
<text text-anchor="start" x="747.5" y="-35.5" font-family="Helvetica,sans-Serif" font-size="10.00">+ StatBrowser()</text>
<text text-anchor="start" x="747.5" y="-24.5" font-family="Helvetica,sans-Serif" font-size="10.00">+ ~StatBrowser()</text>
<text text-anchor="start" x="747.5" y="-13.5" font-family="Helvetica,sans-Serif" font-size="10.00">+ get_container()</text>
</a>
</g>
<!-- Node1&#45;&gt;Node8 -->
<g id="edge14" class="edge"><title>Node1&#45;&gt;Node8</title>
<path fill="none" stroke="midnightblue" d="M487.924,-178.816C551.505,-161.688 650.188,-131.648 730,-92 733.974,-90.0256 737.987,-87.8417 741.965,-85.5315"/>
<polygon fill="none" stroke="midnightblue" points="486.79,-175.496 478.029,-181.454 488.593,-182.26 486.79,-175.496"/>
</g>
</g>
</svg>
