<?xml version="1.0" encoding="UTF-8" standalone="no"?>
<!DOCTYPE svg PUBLIC "-//W3C//DTD SVG 1.1//EN"
 "http://www.w3.org/Graphics/SVG/1.1/DTD/svg11.dtd">
<!-- Generated by graphviz version 2.28.0 (20111204.1018)
 -->
<!-- Title: G Pages: 1 -->
<svg width="190pt" height="260pt"
 viewBox="0.00 0.00 190.00 260.00" xmlns="http://www.w3.org/2000/svg" xmlns:xlink="http://www.w3.org/1999/xlink">
<g id="graph1" class="graph" transform="scale(1 1) rotate(0) translate(4 256)">
<title>G</title>
<polygon fill="white" stroke="white" points="-4,5 -4,-256 187,-256 187,5 -4,5"/>
<!-- Node1 -->
<g id="node1" class="node"><title>Node1</title>
<polygon fill="#bfbfbf" stroke="black" points="11.5,-0.5 11.5,-145.5 176.5,-145.5 176.5,-0.5 11.5,-0.5"/>
<text text-anchor="middle" x="94" y="-133.5" font-family="Helvetica,sans-Serif" font-size="10.00">MPDTestSuite</text>
<polyline fill="none" stroke="black" points="11.5,-126.5 176.5,-126.5 "/>
<text text-anchor="start" x="19.5" y="-114.5" font-family="Helvetica,sans-Serif" font-size="10.00">+ toggleStates</text>
<polyline fill="none" stroke="black" points="11.5,-107.5 176.5,-107.5 "/>
<text text-anchor="start" x="19.5" y="-95.5" font-family="Helvetica,sans-Serif" font-size="10.00">+ setUp()</text>
<text text-anchor="start" x="19.5" y="-84.5" font-family="Helvetica,sans-Serif" font-size="10.00">+ tearDown()</text>
<text text-anchor="start" x="19.5" y="-73.5" font-family="Helvetica,sans-Serif" font-size="10.00">+ connectionChange()</text>
<text text-anchor="start" x="19.5" y="-62.5" font-family="Helvetica,sans-Serif" font-size="10.00">+ clientUpdate()</text>
<text text-anchor="start" x="19.5" y="-51.5" font-family="Helvetica,sans-Serif" font-size="10.00">+ testConnect()</text>
<text text-anchor="start" x="19.5" y="-40.5" font-family="Helvetica,sans-Serif" font-size="10.00">+ testDisconnect()</text>
<text text-anchor="start" x="19.5" y="-29.5" font-family="Helvetica,sans-Serif" font-size="10.00">+ testSignalClientUpdate()</text>
<text text-anchor="start" x="19.5" y="-18.5" font-family="Helvetica,sans-Serif" font-size="10.00">+ toggleCommandsClientUpdate()</text>
<text text-anchor="start" x="19.5" y="-7.5" font-family="Helvetica,sans-Serif" font-size="10.00">+ testToggleCommands()</text>
</g>
<!-- Node2 -->
<g id="node2" class="node"><title>Node2</title>
<a xlink:href="classCxxTest_1_1TestSuite.html" target="_top" xlink:title="{CxxTest::TestSuite\n||}">
<polygon fill="white" stroke="black" points="0,-194.5 0,-251.5 102,-251.5 102,-194.5 0,-194.5"/>
<text text-anchor="middle" x="51" y="-239.5" font-family="Helvetica,sans-Serif" font-size="10.00">CxxTest::TestSuite</text>
<polyline fill="none" stroke="black" points="0,-232.5 102,-232.5 "/>
<text text-anchor="middle" x="51" y="-220.5" font-family="Helvetica,sans-Serif" font-size="10.00"> </text>
<polyline fill="none" stroke="black" points="0,-213.5 102,-213.5 "/>
<text text-anchor="middle" x="51" y="-201.5" font-family="Helvetica,sans-Serif" font-size="10.00"> </text>
</a>
</g>
<!-- Node2&#45;&gt;Node1 -->
<g id="edge2" class="edge"><title>Node2&#45;&gt;Node1</title>
<path fill="none" stroke="midnightblue" d="M61.9636,-184.265C65.3892,-172.474 69.2888,-159.053 73.1598,-145.729"/>
<polygon fill="none" stroke="midnightblue" points="58.5171,-183.583 59.088,-194.162 65.2391,-185.536 58.5171,-183.583"/>
</g>
<!-- Node3 -->
<g id="node4" class="node"><title>Node3</title>
<polygon fill="white" stroke="#bfbfbf" points="120.5,-194.5 120.5,-251.5 155.5,-251.5 155.5,-194.5 120.5,-194.5"/>
<text text-anchor="middle" x="138" y="-239.5" font-family="Helvetica,sans-Serif" font-size="10.00">bool</text>
<polyline fill="none" stroke="#bfbfbf" points="120.5,-232.5 155.5,-232.5 "/>
<text text-anchor="middle" x="138" y="-220.5" font-family="Helvetica,sans-Serif" font-size="10.00"> </text>
<polyline fill="none" stroke="#bfbfbf" points="120.5,-213.5 155.5,-213.5 "/>
<text text-anchor="middle" x="138" y="-201.5" font-family="Helvetica,sans-Serif" font-size="10.00"> </text>
</g>
<!-- Node3&#45;&gt;Node1 -->
<g id="edge4" class="edge"><title>Node3&#45;&gt;Node1</title>
<path fill="none" stroke="#404040" d="M129.724,-194.162C126.547,-183.476 122.734,-170.652 118.8,-157.419"/>
<polygon fill="none" stroke="#404040" points="118.745,-157.231 113.201,-152.62 115.325,-145.729 120.869,-150.34 118.745,-157.231"/>
<text text-anchor="middle" x="153" y="-167.5" font-family="Helvetica,sans-Serif" font-size="10.00"> toggleStates</text>
</g>
</g>
</svg>
