<?xml version="1.0" encoding="UTF-8" standalone="no"?>
<!DOCTYPE svg PUBLIC "-//W3C//DTD SVG 1.1//EN"
 "http://www.w3.org/Graphics/SVG/1.1/DTD/svg11.dtd">
<!-- Generated by graphviz version 2.28.0 (20111204.1018)
 -->
<!-- Title: G Pages: 1 -->
<svg width="1111pt" height="204pt"
 viewBox="0.00 0.00 1111.00 204.00" xmlns="http://www.w3.org/2000/svg" xmlns:xlink="http://www.w3.org/1999/xlink">
<g id="graph1" class="graph" transform="scale(1 1) rotate(0) translate(4 200)">
<title>G</title>
<polygon fill="white" stroke="white" points="-4,5 -4,-200 1108,-200 1108,5 -4,5"/>
<!-- Node1 -->
<g id="node1" class="node"><title>Node1</title>
<polygon fill="#bfbfbf" stroke="black" points="484,-138.5 484,-195.5 566,-195.5 566,-138.5 484,-138.5"/>
<text text-anchor="middle" x="525" y="-183.5" font-family="Helvetica,sans-Serif" font-size="10.00">ColumnRecord</text>
<polyline fill="none" stroke="black" points="484,-176.5 566,-176.5 "/>
<text text-anchor="middle" x="525" y="-164.5" font-family="Helvetica,sans-Serif" font-size="10.00"> </text>
<polyline fill="none" stroke="black" points="484,-157.5 566,-157.5 "/>
<text text-anchor="middle" x="525" y="-145.5" font-family="Helvetica,sans-Serif" font-size="10.00"> </text>
</g>
<!-- Node2 -->
<g id="node3" class="node"><title>Node2</title>
<a xlink:href="classAvahi_1_1View_1_1ModelColumns.html" target="_top" xlink:title="{Avahi::View::ModelColumns\n|+ m_col_ip\l+ m_col_hostname\l+ m_col_name\l+ m_col_port\l|+ ModelColumns()\l}">
<polygon fill="white" stroke="black" points="0,-6 0,-96 140,-96 140,-6 0,-6"/>
<text text-anchor="middle" x="70" y="-84" font-family="Helvetica,sans-Serif" font-size="10.00">Avahi::View::ModelColumns</text>
<polyline fill="none" stroke="black" points="0,-77 140,-77 "/>
<text text-anchor="start" x="8" y="-65" font-family="Helvetica,sans-Serif" font-size="10.00">+ m_col_ip</text>
<text text-anchor="start" x="8" y="-54" font-family="Helvetica,sans-Serif" font-size="10.00">+ m_col_hostname</text>
<text text-anchor="start" x="8" y="-43" font-family="Helvetica,sans-Serif" font-size="10.00">+ m_col_name</text>
<text text-anchor="start" x="8" y="-32" font-family="Helvetica,sans-Serif" font-size="10.00">+ m_col_port</text>
<polyline fill="none" stroke="black" points="0,-25 140,-25 "/>
<text text-anchor="start" x="8" y="-13" font-family="Helvetica,sans-Serif" font-size="10.00">+ ModelColumns()</text>
</a>
</g>
<!-- Node1&#45;&gt;Node2 -->
<g id="edge2" class="edge"><title>Node1&#45;&gt;Node2</title>
<path fill="none" stroke="midnightblue" d="M473.839,-163.664C399.891,-158.887 259.854,-144.542 149,-102 144.454,-100.255 139.888,-98.2329 135.37,-96.0219"/>
<polygon fill="none" stroke="midnightblue" points="473.629,-167.158 483.825,-164.277 474.058,-160.171 473.629,-167.158"/>
</g>
<!-- Node3 -->
<g id="node5" class="node"><title>Node3</title>
<a xlink:title="The column definition.">
<polygon fill="white" stroke="#bfbfbf" points="158,-6 158,-96 330,-96 330,-6 158,-6"/>
<text text-anchor="middle" x="244" y="-84" font-family="Helvetica,sans-Serif" font-size="10.00">Browser::Database::ModelColumns</text>
<polyline fill="none" stroke="#bfbfbf" points="158,-77 330,-77 "/>
<text text-anchor="start" x="166" y="-65" font-family="Helvetica,sans-Serif" font-size="10.00">+ m_col_name</text>
<text text-anchor="start" x="166" y="-54" font-family="Helvetica,sans-Serif" font-size="10.00">+ m_col_path</text>
<text text-anchor="start" x="166" y="-43" font-family="Helvetica,sans-Serif" font-size="10.00">+ m_col_icon</text>
<text text-anchor="start" x="166" y="-32" font-family="Helvetica,sans-Serif" font-size="10.00">+ m_col_is_file</text>
<polyline fill="none" stroke="#bfbfbf" points="158,-25 330,-25 "/>
<text text-anchor="start" x="166" y="-13" font-family="Helvetica,sans-Serif" font-size="10.00">+ ModelColumns()</text>
</a>
</g>
<!-- Node1&#45;&gt;Node3 -->
<g id="edge4" class="edge"><title>Node1&#45;&gt;Node3</title>
<path fill="none" stroke="midnightblue" d="M473.906,-150.745C436.083,-138.896 383.603,-121.276 339,-102 334.637,-100.115 330.201,-98.1086 325.749,-96.0249"/>
<polygon fill="none" stroke="midnightblue" points="473.09,-154.157 483.679,-153.781 475.167,-147.472 473.09,-154.157"/>
</g>
<!-- Node4 -->
<g id="node7" class="node"><title>Node4</title>
<a xlink:href="classBrowser_1_1OutputsModelColumns.html" target="_top" xlink:title="The Column Definition of the Outputlist inside of the Settingsbrowser.">
<polygon fill="white" stroke="black" points="348,-11.5 348,-90.5 506,-90.5 506,-11.5 348,-11.5"/>
<text text-anchor="middle" x="427" y="-78.5" font-family="Helvetica,sans-Serif" font-size="10.00">Browser::OutputsModelColumns</text>
<polyline fill="none" stroke="black" points="348,-71.5 506,-71.5 "/>
<text text-anchor="start" x="356" y="-59.5" font-family="Helvetica,sans-Serif" font-size="10.00">+ colName</text>
<text text-anchor="start" x="356" y="-48.5" font-family="Helvetica,sans-Serif" font-size="10.00">+ colActive</text>
<text text-anchor="start" x="356" y="-37.5" font-family="Helvetica,sans-Serif" font-size="10.00">+ colOutput</text>
<polyline fill="none" stroke="black" points="348,-30.5 506,-30.5 "/>
<text text-anchor="start" x="356" y="-18.5" font-family="Helvetica,sans-Serif" font-size="10.00">+ OutputsModelColumns()</text>
</a>
</g>
<!-- Node1&#45;&gt;Node4 -->
<g id="edge6" class="edge"><title>Node1&#45;&gt;Node4</title>
<path fill="none" stroke="midnightblue" d="M494.672,-130.721C483.722,-117.983 471.309,-103.543 460.131,-90.5406"/>
<polygon fill="none" stroke="midnightblue" points="492.104,-133.102 501.277,-138.404 497.412,-128.539 492.104,-133.102"/>
</g>
<!-- Node5 -->
<g id="node9" class="node"><title>Node5</title>
<polygon fill="white" stroke="#bfbfbf" points="524,-6 524,-96 724,-96 724,-6 524,-6"/>
<text text-anchor="middle" x="624" y="-84" font-family="Helvetica,sans-Serif" font-size="10.00">Browser::PlaylistManager::ModelColumns</text>
<polyline fill="none" stroke="#bfbfbf" points="524,-77 724,-77 "/>
<text text-anchor="start" x="532" y="-65" font-family="Helvetica,sans-Serif" font-size="10.00">+ m_col_icon</text>
<text text-anchor="start" x="532" y="-54" font-family="Helvetica,sans-Serif" font-size="10.00">+ m_col_plist</text>
<text text-anchor="start" x="532" y="-43" font-family="Helvetica,sans-Serif" font-size="10.00">+ m_col_name</text>
<text text-anchor="start" x="532" y="-32" font-family="Helvetica,sans-Serif" font-size="10.00">+ m_col_last_modfied</text>
<polyline fill="none" stroke="#bfbfbf" points="524,-25 724,-25 "/>
<text text-anchor="start" x="532" y="-13" font-family="Helvetica,sans-Serif" font-size="10.00">+ ModelColumns()</text>
</g>
<!-- Node1&#45;&gt;Node5 -->
<g id="edge8" class="edge"><title>Node1&#45;&gt;Node5</title>
<path fill="none" stroke="midnightblue" d="M555.643,-130.714C565.11,-119.812 575.659,-107.665 585.582,-96.2385"/>
<polygon fill="none" stroke="midnightblue" points="552.879,-128.559 548.965,-138.404 558.165,-133.148 552.879,-128.559"/>
</g>
<!-- Node6 -->
<g id="node11" class="node"><title>Node6</title>
<a xlink:href="classBrowser_1_1QueueModelColumns.html" target="_top" xlink:title="The Column Definition of Browser::Queue.">
<polygon fill="white" stroke="black" points="742,-0.5 742,-101.5 894,-101.5 894,-0.5 742,-0.5"/>
<text text-anchor="middle" x="818" y="-89.5" font-family="Helvetica,sans-Serif" font-size="10.00">Browser::QueueModelColumns</text>
<polyline fill="none" stroke="black" points="742,-82.5 894,-82.5 "/>
<text text-anchor="start" x="750" y="-70.5" font-family="Helvetica,sans-Serif" font-size="10.00">+ m_col_id</text>
<text text-anchor="start" x="750" y="-59.5" font-family="Helvetica,sans-Serif" font-size="10.00">+ m_col_pos</text>
<text text-anchor="start" x="750" y="-48.5" font-family="Helvetica,sans-Serif" font-size="10.00">+ m_col_title</text>
<text text-anchor="start" x="750" y="-37.5" font-family="Helvetica,sans-Serif" font-size="10.00">+ m_col_album</text>
<text text-anchor="start" x="750" y="-26.5" font-family="Helvetica,sans-Serif" font-size="10.00">+ m_col_artist</text>
<polyline fill="none" stroke="black" points="742,-19.5 894,-19.5 "/>
<text text-anchor="start" x="750" y="-7.5" font-family="Helvetica,sans-Serif" font-size="10.00">+ QueueModelColumns()</text>
</a>
</g>
<!-- Node1&#45;&gt;Node6 -->
<g id="edge10" class="edge"><title>Node1&#45;&gt;Node6</title>
<path fill="none" stroke="midnightblue" d="M576.195,-153.817C619.048,-142.783 681.308,-124.782 733,-102 735.977,-100.688 738.98,-99.2955 741.989,-97.8415"/>
<polygon fill="none" stroke="midnightblue" points="575.11,-150.482 566.279,-156.335 576.833,-157.266 575.11,-150.482"/>
</g>
<!-- Node7 -->
<g id="node13" class="node"><title>Node7</title>
<polygon fill="white" stroke="#bfbfbf" points="912.5,-11.5 912.5,-90.5 1103.5,-90.5 1103.5,-11.5 912.5,-11.5"/>
<text text-anchor="middle" x="1008" y="-78.5" font-family="Helvetica,sans-Serif" font-size="10.00">GManager::BrowserList::ModelColumns</text>
<polyline fill="none" stroke="#bfbfbf" points="912.5,-71.5 1103.5,-71.5 "/>
<text text-anchor="start" x="920.5" y="-59.5" font-family="Helvetica,sans-Serif" font-size="10.00">+ m_col_name</text>
<text text-anchor="start" x="920.5" y="-48.5" font-family="Helvetica,sans-Serif" font-size="10.00">+ m_col_icon</text>
<text text-anchor="start" x="920.5" y="-37.5" font-family="Helvetica,sans-Serif" font-size="10.00">+ m_col_browser</text>
<polyline fill="none" stroke="#bfbfbf" points="912.5,-30.5 1103.5,-30.5 "/>
<text text-anchor="start" x="920.5" y="-18.5" font-family="Helvetica,sans-Serif" font-size="10.00">+ ModelColumns()</text>
</g>
<!-- Node1&#45;&gt;Node7 -->
<g id="edge12" class="edge"><title>Node1&#45;&gt;Node7</title>
<path fill="none" stroke="midnightblue" d="M576.545,-161.822C650.304,-154.83 789.58,-137.841 903,-102 913.011,-98.8365 923.287,-94.8952 933.308,-90.6226"/>
<polygon fill="none" stroke="midnightblue" points="575.784,-158.378 566.149,-162.782 576.428,-165.348 575.784,-158.378"/>
</g>
</g>
</svg>
