<?xml version="1.0" encoding="UTF-8" standalone="no"?>
<!DOCTYPE svg PUBLIC "-//W3C//DTD SVG 1.1//EN"
 "http://www.w3.org/Graphics/SVG/1.1/DTD/svg11.dtd">
<!-- Generated by graphviz version 2.28.0 (20120217.0315)
 -->
<!-- Title: G Pages: 1 -->
<svg width="245pt" height="216pt"
 viewBox="0.00 0.00 245.00 216.00" xmlns="http://www.w3.org/2000/svg" xmlns:xlink="http://www.w3.org/1999/xlink">
<g id="graph1" class="graph" transform="scale(1 1) rotate(0) translate(4 212)">
<title>G</title>
<polygon fill="white" stroke="white" points="-4,5 -4,-212 242,-212 242,5 -4,5"/>
<!-- Node1 -->
<g id="node1" class="node"><title>Node1</title>
<polygon fill="#bfbfbf" stroke="black" points="59.5,-1 59.5,-91 176.5,-91 176.5,-1 59.5,-1"/>
<text text-anchor="middle" x="118" y="-79" font-family="Helvetica,sans-Serif" font-size="10.00">Browser::TextPageMgr</text>
<polyline fill="none" stroke="black" points="59.5,-72 176.5,-72 "/>
<text text-anchor="middle" x="118" y="-60" font-family="Helvetica,sans-Serif" font-size="10.00"> </text>
<polyline fill="none" stroke="black" points="59.5,-53 176.5,-53 "/>
<text text-anchor="start" x="67.5" y="-41" font-family="Helvetica,sans-Serif" font-size="10.00">+ TextPageMgr()</text>
<text text-anchor="start" x="67.5" y="-30" font-family="Helvetica,sans-Serif" font-size="10.00">+ update()</text>
<text text-anchor="start" x="67.5" y="-19" font-family="Helvetica,sans-Serif" font-size="10.00">+ set_request_type()</text>
<text text-anchor="start" x="67.5" y="-8" font-family="Helvetica,sans-Serif" font-size="10.00">+ on_deliver()</text>
</g>
<!-- Node2 -->
<g id="node2" class="node"><title>Node2</title>
<a xlink:href="classGtk_1_1ScrolledWindow.html" target="_top" xlink:title="{Gtk::ScrolledWindow\n||}">
<polygon fill="white" stroke="black" points="-0.5,-139.5 -0.5,-196.5 108.5,-196.5 108.5,-139.5 -0.5,-139.5"/>
<text text-anchor="middle" x="54" y="-184.5" font-family="Helvetica,sans-Serif" font-size="10.00">Gtk::ScrolledWindow</text>
<polyline fill="none" stroke="black" points="-0.5,-177.5 108.5,-177.5 "/>
<text text-anchor="middle" x="54" y="-165.5" font-family="Helvetica,sans-Serif" font-size="10.00"> </text>
<polyline fill="none" stroke="black" points="-0.5,-158.5 108.5,-158.5 "/>
<text text-anchor="middle" x="54" y="-146.5" font-family="Helvetica,sans-Serif" font-size="10.00"> </text>
</a>
</g>
<!-- Node2&#45;&gt;Node1 -->
<g id="edge2" class="edge"><title>Node2&#45;&gt;Node1</title>
<path fill="none" stroke="midnightblue" d="M73.5236,-130.393C80.0959,-118.07 87.5008,-104.186 94.3556,-91.3333"/>
<polygon fill="none" stroke="midnightblue" points="70.3006,-128.999 68.6829,-139.47 76.4771,-132.293 70.3006,-128.999"/>
</g>
<!-- Node3 -->
<g id="node4" class="node"><title>Node3</title>
<a xlink:href="classGlyr_1_1UpdateInterface.html" target="_top" xlink:title="Very similar to AbstractClientUser, but doesnt take a Client instance.">
<polygon fill="white" stroke="black" points="127,-128.5 127,-207.5 237,-207.5 237,-128.5 127,-128.5"/>
<text text-anchor="middle" x="182" y="-195.5" font-family="Helvetica,sans-Serif" font-size="10.00">Glyr::UpdateInterface</text>
<polyline fill="none" stroke="black" points="127,-188.5 237,-188.5 "/>
<text text-anchor="middle" x="182" y="-176.5" font-family="Helvetica,sans-Serif" font-size="10.00"> </text>
<polyline fill="none" stroke="black" points="127,-169.5 237,-169.5 "/>
<text text-anchor="start" x="135" y="-157.5" font-family="Helvetica,sans-Serif" font-size="10.00">+ UpdateInterface()</text>
<text text-anchor="start" x="135" y="-146.5" font-family="Helvetica,sans-Serif" font-size="10.00">+ update()</text>
<text text-anchor="start" x="135" y="-135.5" font-family="Helvetica,sans-Serif" font-size="10.00">+ on_deliver()</text>
</a>
</g>
<!-- Node3&#45;&gt;Node1 -->
<g id="edge4" class="edge"><title>Node3&#45;&gt;Node1</title>
<path fill="none" stroke="midnightblue" d="M156.576,-119.329C151.663,-110.118 146.535,-100.502 141.681,-91.4012"/>
<polygon fill="none" stroke="midnightblue" points="153.604,-121.194 161.398,-128.371 159.78,-117.9 153.604,-121.194"/>
</g>
</g>
</svg>
