<?xml version="1.0" encoding="UTF-8" standalone="no"?>
<!DOCTYPE svg PUBLIC "-//W3C//DTD SVG 1.1//EN"
 "http://www.w3.org/Graphics/SVG/1.1/DTD/svg11.dtd">
<!-- Generated by graphviz version 2.28.0 (20120217.0315)
 -->
<!-- Title: G Pages: 1 -->
<svg width="435pt" height="206pt"
 viewBox="0.00 0.00 435.00 206.00" xmlns="http://www.w3.org/2000/svg" xmlns:xlink="http://www.w3.org/1999/xlink">
<g id="graph1" class="graph" transform="scale(1 1) rotate(0) translate(4 202)">
<title>G</title>
<polygon fill="white" stroke="white" points="-4,5 -4,-202 432,-202 432,5 -4,5"/>
<!-- Node1 -->
<g id="node1" class="node"><title>Node1</title>
<polygon fill="#bfbfbf" stroke="black" points="95.5,-1 95.5,-91 204.5,-91 204.5,-1 95.5,-1"/>
<text text-anchor="middle" x="150" y="-79" font-family="Helvetica,sans-Serif" font-size="10.00">Browser::BasePopup</text>
<polyline fill="none" stroke="black" points="95.5,-72 204.5,-72 "/>
<text text-anchor="middle" x="150" y="-60" font-family="Helvetica,sans-Serif" font-size="10.00"> </text>
<polyline fill="none" stroke="black" points="95.5,-53 204.5,-53 "/>
<text text-anchor="start" x="103.5" y="-41" font-family="Helvetica,sans-Serif" font-size="10.00">+ BasePopup()</text>
<text text-anchor="start" x="103.5" y="-30" font-family="Helvetica,sans-Serif" font-size="10.00">+ get_action()</text>
<text text-anchor="start" x="103.5" y="-19" font-family="Helvetica,sans-Serif" font-size="10.00"># menu_add_item()</text>
<text text-anchor="start" x="103.5" y="-8" font-family="Helvetica,sans-Serif" font-size="10.00"># menu_construct()</text>
</g>
<!-- Node2 -->
<g id="node2" class="node"><title>Node2</title>
<polygon fill="white" stroke="#bfbfbf" points="-0.5,-140.5 -0.5,-197.5 46.5,-197.5 46.5,-140.5 -0.5,-140.5"/>
<text text-anchor="middle" x="23" y="-185.5" font-family="Helvetica,sans-Serif" font-size="10.00">Menu *</text>
<polyline fill="none" stroke="#bfbfbf" points="-0.5,-178.5 46.5,-178.5 "/>
<text text-anchor="middle" x="23" y="-166.5" font-family="Helvetica,sans-Serif" font-size="10.00"> </text>
<polyline fill="none" stroke="#bfbfbf" points="-0.5,-159.5 46.5,-159.5 "/>
<text text-anchor="middle" x="23" y="-147.5" font-family="Helvetica,sans-Serif" font-size="10.00"> </text>
</g>
<!-- Node2&#45;&gt;Node1 -->
<g id="edge2" class="edge"><title>Node2&#45;&gt;Node1</title>
<path fill="none" stroke="#404040" d="M36.4838,-140.346C42.2526,-130.134 49.6034,-118.894 58,-110 66.1729,-101.343 75.7285,-93.2098 85.5309,-85.848"/>
<polygon fill="none" stroke="#404040" points="85.6391,-85.77 88.167,-79.0165 95.3733,-78.7526 92.8454,-85.5061 85.6391,-85.77"/>
<text text-anchor="middle" x="83" y="-113.5" font-family="Helvetica,sans-Serif" font-size="10.00"> mp_Popup</text>
</g>
<!-- Node3 -->
<g id="node4" class="node"><title>Node3</title>
<polygon fill="white" stroke="#bfbfbf" points="66.5,-140.5 66.5,-197.5 119.5,-197.5 119.5,-140.5 66.5,-140.5"/>
<text text-anchor="middle" x="93" y="-185.5" font-family="Helvetica,sans-Serif" font-size="10.00">ustring *</text>
<polyline fill="none" stroke="#bfbfbf" points="66.5,-178.5 119.5,-178.5 "/>
<text text-anchor="middle" x="93" y="-166.5" font-family="Helvetica,sans-Serif" font-size="10.00"> </text>
<polyline fill="none" stroke="#bfbfbf" points="66.5,-159.5 119.5,-159.5 "/>
<text text-anchor="middle" x="93" y="-147.5" font-family="Helvetica,sans-Serif" font-size="10.00"> </text>
</g>
<!-- Node3&#45;&gt;Node1 -->
<g id="edge4" class="edge"><title>Node3&#45;&gt;Node1</title>
<path fill="none" stroke="#404040" d="M103.852,-140.34C107.805,-130.661 112.43,-119.773 117,-110 118.214,-107.405 119.478,-104.763 120.775,-102.103"/>
<polygon fill="none" stroke="#404040" points="120.882,-101.889 119.979,-94.7342 126.235,-91.149 127.138,-98.3033 120.882,-101.889"/>
<text text-anchor="middle" x="151" y="-113.5" font-family="Helvetica,sans-Serif" font-size="10.00"> m_UiDefinition</text>
</g>
<!-- Node4 -->
<g id="node6" class="node"><title>Node4</title>
<polygon fill="white" stroke="#bfbfbf" points="137.5,-140.5 137.5,-197.5 276.5,-197.5 276.5,-140.5 137.5,-140.5"/>
<text text-anchor="middle" x="207" y="-185.5" font-family="Helvetica,sans-Serif" font-size="10.00">RefPtr&lt; Gtk::ActionGroup &gt;</text>
<polyline fill="none" stroke="#bfbfbf" points="137.5,-178.5 276.5,-178.5 "/>
<text text-anchor="middle" x="207" y="-166.5" font-family="Helvetica,sans-Serif" font-size="10.00"> </text>
<polyline fill="none" stroke="#bfbfbf" points="137.5,-159.5 276.5,-159.5 "/>
<text text-anchor="middle" x="207" y="-147.5" font-family="Helvetica,sans-Serif" font-size="10.00"> </text>
</g>
<!-- Node4&#45;&gt;Node1 -->
<g id="edge6" class="edge"><title>Node4&#45;&gt;Node1</title>
<path fill="none" stroke="#404040" d="M197.393,-140.224C193.799,-130.534 189.491,-119.67 185,-110 183.799,-107.415 182.535,-104.791 181.228,-102.156"/>
<polygon fill="none" stroke="#404040" points="181.15,-102.002 174.851,-98.4918 175.669,-91.3273 181.968,-94.8379 181.15,-102.002"/>
<text text-anchor="middle" x="230" y="-113.5" font-family="Helvetica,sans-Serif" font-size="10.00"> m_refActionGroup</text>
</g>
<!-- Node5 -->
<g id="node8" class="node"><title>Node5</title>
<polygon fill="white" stroke="#bfbfbf" points="294.5,-140.5 294.5,-197.5 427.5,-197.5 427.5,-140.5 294.5,-140.5"/>
<text text-anchor="middle" x="361" y="-185.5" font-family="Helvetica,sans-Serif" font-size="10.00">RefPtr&lt; Gtk::UIManager &gt;</text>
<polyline fill="none" stroke="#bfbfbf" points="294.5,-178.5 427.5,-178.5 "/>
<text text-anchor="middle" x="361" y="-166.5" font-family="Helvetica,sans-Serif" font-size="10.00"> </text>
<polyline fill="none" stroke="#bfbfbf" points="294.5,-159.5 427.5,-159.5 "/>
<text text-anchor="middle" x="361" y="-147.5" font-family="Helvetica,sans-Serif" font-size="10.00"> </text>
</g>
<!-- Node5&#45;&gt;Node1 -->
<g id="edge8" class="edge"><title>Node5&#45;&gt;Node1</title>
<path fill="none" stroke="#404040" d="M322.284,-140.369C307.72,-130.382 290.848,-119.288 275,-110 256.071,-98.9065 234.946,-87.8021 215.529,-78.0741"/>
<polygon fill="none" stroke="#404040" points="215.383,-78.002 208.231,-78.9185 204.634,-72.6686 211.786,-71.7521 215.383,-78.002"/>
<text text-anchor="middle" x="332" y="-113.5" font-family="Helvetica,sans-Serif" font-size="10.00"> m_refUIManager</text>
</g>
</g>
</svg>
