<?xml version="1.0" encoding="UTF-8" standalone="no"?>
<!DOCTYPE svg PUBLIC "-//W3C//DTD SVG 1.1//EN"
 "http://www.w3.org/Graphics/SVG/1.1/DTD/svg11.dtd">
<!-- Generated by graphviz version 2.28.0 (20111204.1018)
 -->
<!-- Title: G Pages: 1 -->
<svg width="164pt" height="182pt"
 viewBox="0.00 0.00 164.00 182.00" xmlns="http://www.w3.org/2000/svg" xmlns:xlink="http://www.w3.org/1999/xlink">
<g id="graph1" class="graph" transform="scale(1 1) rotate(0) translate(4 178)">
<title>G</title>
<polygon fill="white" stroke="white" points="-4,5 -4,-178 161,-178 161,5 -4,5"/>
<!-- Node1 -->
<g id="node1" class="node"><title>Node1</title>
<polygon fill="#bfbfbf" stroke="black" points="-1,-0.5 -1,-79.5 157,-79.5 157,-0.5 -1,-0.5"/>
<text text-anchor="middle" x="78" y="-67.5" font-family="Helvetica,sans-Serif" font-size="10.00">Browser::OutputsModelColumns</text>
<polyline fill="none" stroke="black" points="-1,-60.5 157,-60.5 "/>
<text text-anchor="start" x="7" y="-48.5" font-family="Helvetica,sans-Serif" font-size="10.00">+ colName</text>
<text text-anchor="start" x="7" y="-37.5" font-family="Helvetica,sans-Serif" font-size="10.00">+ colActive</text>
<text text-anchor="start" x="7" y="-26.5" font-family="Helvetica,sans-Serif" font-size="10.00">+ colOutput</text>
<polyline fill="none" stroke="black" points="-1,-19.5 157,-19.5 "/>
<text text-anchor="start" x="7" y="-7.5" font-family="Helvetica,sans-Serif" font-size="10.00">+ OutputsModelColumns()</text>
</g>
<!-- Node2 -->
<g id="node2" class="node"><title>Node2</title>
<a xlink:href="classGtk_1_1TreeModel_1_1ColumnRecord.html" target="_top" xlink:title="{ColumnRecord\n||}">
<polygon fill="white" stroke="black" points="37,-116.5 37,-173.5 119,-173.5 119,-116.5 37,-116.5"/>
<text text-anchor="middle" x="78" y="-161.5" font-family="Helvetica,sans-Serif" font-size="10.00">ColumnRecord</text>
<polyline fill="none" stroke="black" points="37,-154.5 119,-154.5 "/>
<text text-anchor="middle" x="78" y="-142.5" font-family="Helvetica,sans-Serif" font-size="10.00"> </text>
<polyline fill="none" stroke="black" points="37,-135.5 119,-135.5 "/>
<text text-anchor="middle" x="78" y="-123.5" font-family="Helvetica,sans-Serif" font-size="10.00"> </text>
</a>
</g>
<!-- Node2&#45;&gt;Node1 -->
<g id="edge2" class="edge"><title>Node2&#45;&gt;Node1</title>
<path fill="none" stroke="midnightblue" d="M78,-106.156C78,-97.4733 78,-88.2318 78,-79.5205"/>
<polygon fill="none" stroke="midnightblue" points="74.5001,-106.398 78,-116.398 81.5001,-106.398 74.5001,-106.398"/>
</g>
</g>
</svg>
