<?xml version="1.0" encoding="UTF-8" standalone="no"?>
<!DOCTYPE svg PUBLIC "-//W3C//DTD SVG 1.1//EN"
 "http://www.w3.org/Graphics/SVG/1.1/DTD/svg11.dtd">
<!-- Generated by graphviz version 2.28.0 (20120217.0315)
 -->
<!-- Title: G Pages: 1 -->
<svg width="365pt" height="260pt"
 viewBox="0.00 0.00 365.00 260.00" xmlns="http://www.w3.org/2000/svg" xmlns:xlink="http://www.w3.org/1999/xlink">
<g id="graph1" class="graph" transform="scale(1 1) rotate(0) translate(4 256)">
<title>G</title>
<polygon fill="white" stroke="white" points="-4,5 -4,-256 362,-256 362,5 -4,5"/>
<!-- Node1 -->
<g id="node1" class="node"><title>Node1</title>
<polygon fill="#bfbfbf" stroke="black" points="95.5,-194.5 95.5,-251.5 246.5,-251.5 246.5,-194.5 95.5,-194.5"/>
<text text-anchor="middle" x="171" y="-239.5" font-family="Helvetica,sans-Serif" font-size="10.00">MPD::AbstractClientExtension</text>
<polyline fill="none" stroke="black" points="95.5,-232.5 246.5,-232.5 "/>
<text text-anchor="start" x="103.5" y="-220.5" font-family="Helvetica,sans-Serif" font-size="10.00"># mp_BaseClient</text>
<polyline fill="none" stroke="black" points="95.5,-213.5 246.5,-213.5 "/>
<text text-anchor="start" x="103.5" y="-201.5" font-family="Helvetica,sans-Serif" font-size="10.00">+ AbstractClientExtension()</text>
</g>
<!-- Node2 -->
<g id="node3" class="node"><title>Node2</title>
<a xlink:href="classMPD_1_1AudioOutput.html" target="_top" xlink:title="Wrapper for mpd_output, implements also two client commands: enable() and disable()">
<polygon fill="white" stroke="black" points="-0.5,-17.5 -0.5,-140.5 98.5,-140.5 98.5,-17.5 -0.5,-17.5"/>
<text text-anchor="middle" x="49" y="-128.5" font-family="Helvetica,sans-Serif" font-size="10.00">MPD::AudioOutput</text>
<polyline fill="none" stroke="black" points="-0.5,-121.5 98.5,-121.5 "/>
<text text-anchor="middle" x="49" y="-109.5" font-family="Helvetica,sans-Serif" font-size="10.00"> </text>
<polyline fill="none" stroke="black" points="-0.5,-102.5 98.5,-102.5 "/>
<text text-anchor="start" x="7.5" y="-90.5" font-family="Helvetica,sans-Serif" font-size="10.00">+ AudioOutput()</text>
<text text-anchor="start" x="7.5" y="-79.5" font-family="Helvetica,sans-Serif" font-size="10.00">+ get_id()</text>
<text text-anchor="start" x="7.5" y="-68.5" font-family="Helvetica,sans-Serif" font-size="10.00">+ get_name()</text>
<text text-anchor="start" x="7.5" y="-57.5" font-family="Helvetica,sans-Serif" font-size="10.00">+ get_enabled()</text>
<text text-anchor="start" x="7.5" y="-46.5" font-family="Helvetica,sans-Serif" font-size="10.00">+ enable()</text>
<text text-anchor="start" x="7.5" y="-35.5" font-family="Helvetica,sans-Serif" font-size="10.00">+ disable()</text>
<text text-anchor="start" x="7.5" y="-24.5" font-family="Helvetica,sans-Serif" font-size="10.00">+ get_path()</text>
</a>
</g>
<!-- Node1&#45;&gt;Node2 -->
<g id="edge2" class="edge"><title>Node1&#45;&gt;Node2</title>
<path fill="none" stroke="midnightblue" d="M135.115,-187.186C126.023,-177.926 116.445,-167.775 108,-158 103.227,-152.475 98.3924,-146.606 93.6522,-140.663"/>
<polygon fill="none" stroke="midnightblue" points="132.744,-189.765 142.272,-194.397 137.712,-184.834 132.744,-189.765"/>
</g>
<!-- Node3 -->
<g id="node5" class="node"><title>Node3</title>
<a xlink:href="classMPD_1_1Playlist.html" target="_top" xlink:title="A Wrapper for mpd_playlist, also implements own client commands.">
<polygon fill="white" stroke="black" points="117,-1 117,-157 225,-157 225,-1 117,-1"/>
<text text-anchor="middle" x="171" y="-145" font-family="Helvetica,sans-Serif" font-size="10.00">MPD::Playlist</text>
<polyline fill="none" stroke="black" points="117,-138 225,-138 "/>
<text text-anchor="middle" x="171" y="-126" font-family="Helvetica,sans-Serif" font-size="10.00"> </text>
<polyline fill="none" stroke="black" points="117,-119 225,-119 "/>
<text text-anchor="start" x="125" y="-107" font-family="Helvetica,sans-Serif" font-size="10.00">+ Playlist()</text>
<text text-anchor="start" x="125" y="-96" font-family="Helvetica,sans-Serif" font-size="10.00">+ Playlist()</text>
<text text-anchor="start" x="125" y="-85" font-family="Helvetica,sans-Serif" font-size="10.00">+ ~Playlist()</text>
<text text-anchor="start" x="125" y="-74" font-family="Helvetica,sans-Serif" font-size="10.00">+ get_path()</text>
<text text-anchor="start" x="125" y="-63" font-family="Helvetica,sans-Serif" font-size="10.00">+ get_last_modified()</text>
<text text-anchor="start" x="125" y="-52" font-family="Helvetica,sans-Serif" font-size="10.00">+ remove()</text>
<text text-anchor="start" x="125" y="-41" font-family="Helvetica,sans-Serif" font-size="10.00">+ load()</text>
<text text-anchor="start" x="125" y="-30" font-family="Helvetica,sans-Serif" font-size="10.00">+ rename()</text>
<text text-anchor="start" x="125" y="-19" font-family="Helvetica,sans-Serif" font-size="10.00">+ add_song()</text>
<text text-anchor="start" x="125" y="-8" font-family="Helvetica,sans-Serif" font-size="10.00">+ add_song()</text>
</a>
</g>
<!-- Node1&#45;&gt;Node3 -->
<g id="edge4" class="edge"><title>Node1&#45;&gt;Node3</title>
<path fill="none" stroke="midnightblue" d="M171,-184.128C171,-175.734 171,-166.545 171,-157.212"/>
<polygon fill="none" stroke="midnightblue" points="167.5,-184.284 171,-194.284 174.5,-184.284 167.5,-184.284"/>
</g>
<!-- Node4 -->
<g id="node7" class="node"><title>Node4</title>
<a xlink:href="classMPD_1_1Query.html" target="_top" xlink:title="{MPD::Query\n||+ add_tag_constraint()\l+ add_tag_constraint()\l+ commit()\l+ commit()\l+ cancel()\l}">
<polygon fill="white" stroke="black" points="243,-28.5 243,-129.5 357,-129.5 357,-28.5 243,-28.5"/>
<text text-anchor="middle" x="300" y="-117.5" font-family="Helvetica,sans-Serif" font-size="10.00">MPD::Query</text>
<polyline fill="none" stroke="black" points="243,-110.5 357,-110.5 "/>
<text text-anchor="middle" x="300" y="-98.5" font-family="Helvetica,sans-Serif" font-size="10.00"> </text>
<polyline fill="none" stroke="black" points="243,-91.5 357,-91.5 "/>
<text text-anchor="start" x="251" y="-79.5" font-family="Helvetica,sans-Serif" font-size="10.00">+ add_tag_constraint()</text>
<text text-anchor="start" x="251" y="-68.5" font-family="Helvetica,sans-Serif" font-size="10.00">+ add_tag_constraint()</text>
<text text-anchor="start" x="251" y="-57.5" font-family="Helvetica,sans-Serif" font-size="10.00">+ commit()</text>
<text text-anchor="start" x="251" y="-46.5" font-family="Helvetica,sans-Serif" font-size="10.00">+ commit()</text>
<text text-anchor="start" x="251" y="-35.5" font-family="Helvetica,sans-Serif" font-size="10.00">+ cancel()</text>
</a>
</g>
<!-- Node1&#45;&gt;Node4 -->
<g id="edge6" class="edge"><title>Node1&#45;&gt;Node4</title>
<path fill="none" stroke="midnightblue" d="M206.263,-187.129C215.436,-177.801 225.208,-167.631 234,-158 242.252,-148.96 250.851,-139.127 259.009,-129.585"/>
<polygon fill="none" stroke="midnightblue" points="203.611,-184.833 199.065,-194.403 208.586,-189.756 203.611,-184.833"/>
</g>
</g>
</svg>
