<?xml version="1.0" encoding="UTF-8" standalone="no"?>
<!DOCTYPE svg PUBLIC "-//W3C//DTD SVG 1.1//EN"
 "http://www.w3.org/Graphics/SVG/1.1/DTD/svg11.dtd">
<!-- Generated by graphviz version 2.28.0 (20120217.0315)
 -->
<!-- Title: G Pages: 1 -->
<svg width="1341pt" height="204pt"
 viewBox="0.00 0.00 1341.00 204.00" xmlns="http://www.w3.org/2000/svg" xmlns:xlink="http://www.w3.org/1999/xlink">
<g id="graph1" class="graph" transform="scale(1 1) rotate(0) translate(4 200)">
<title>G</title>
<polygon fill="white" stroke="white" points="-4,5 -4,-200 1338,-200 1338,5 -4,5"/>
<!-- Node1 -->
<g id="node1" class="node"><title>Node1</title>
<polygon fill="#bfbfbf" stroke="black" points="583,-138.5 583,-195.5 665,-195.5 665,-138.5 583,-138.5"/>
<text text-anchor="middle" x="624" y="-183.5" font-family="Helvetica,sans-Serif" font-size="10.00">ColumnRecord</text>
<polyline fill="none" stroke="black" points="583,-176.5 665,-176.5 "/>
<text text-anchor="middle" x="624" y="-164.5" font-family="Helvetica,sans-Serif" font-size="10.00"> </text>
<polyline fill="none" stroke="black" points="583,-157.5 665,-157.5 "/>
<text text-anchor="middle" x="624" y="-145.5" font-family="Helvetica,sans-Serif" font-size="10.00"> </text>
</g>
<!-- Node2 -->
<g id="node3" class="node"><title>Node2</title>
<a xlink:href="classAvahi_1_1View_1_1ModelColumns.html" target="_top" xlink:title="{Avahi::View::ModelColumns\n|+ m_col_ip\l+ m_col_hostname\l+ m_col_name\l+ m_col_port\l|+ ModelColumns()\l}">
<polygon fill="white" stroke="black" points="0,-6 0,-96 140,-96 140,-6 0,-6"/>
<text text-anchor="middle" x="70" y="-84" font-family="Helvetica,sans-Serif" font-size="10.00">Avahi::View::ModelColumns</text>
<polyline fill="none" stroke="black" points="0,-77 140,-77 "/>
<text text-anchor="start" x="8" y="-65" font-family="Helvetica,sans-Serif" font-size="10.00">+ m_col_ip</text>
<text text-anchor="start" x="8" y="-54" font-family="Helvetica,sans-Serif" font-size="10.00">+ m_col_hostname</text>
<text text-anchor="start" x="8" y="-43" font-family="Helvetica,sans-Serif" font-size="10.00">+ m_col_name</text>
<text text-anchor="start" x="8" y="-32" font-family="Helvetica,sans-Serif" font-size="10.00">+ m_col_port</text>
<polyline fill="none" stroke="black" points="0,-25 140,-25 "/>
<text text-anchor="start" x="8" y="-13" font-family="Helvetica,sans-Serif" font-size="10.00">+ ModelColumns()</text>
</a>
</g>
<!-- Node1&#45;&gt;Node2 -->
<g id="edge2" class="edge"><title>Node1&#45;&gt;Node2</title>
<path fill="none" stroke="midnightblue" d="M572.795,-166.184C483.851,-164.972 296.23,-155.593 149,-102 144.424,-100.334 139.836,-98.3725 135.301,-96.2067"/>
<polygon fill="none" stroke="midnightblue" points="572.85,-169.685 582.887,-166.292 572.925,-162.685 572.85,-169.685"/>
</g>
<!-- Node3 -->
<g id="node5" class="node"><title>Node3</title>
<a xlink:title="The column definition.">
<polygon fill="white" stroke="#bfbfbf" points="158,-6 158,-96 330,-96 330,-6 158,-6"/>
<text text-anchor="middle" x="244" y="-84" font-family="Helvetica,sans-Serif" font-size="10.00">Browser::Database::ModelColumns</text>
<polyline fill="none" stroke="#bfbfbf" points="158,-77 330,-77 "/>
<text text-anchor="start" x="166" y="-65" font-family="Helvetica,sans-Serif" font-size="10.00">+ m_col_name</text>
<text text-anchor="start" x="166" y="-54" font-family="Helvetica,sans-Serif" font-size="10.00">+ m_col_path</text>
<text text-anchor="start" x="166" y="-43" font-family="Helvetica,sans-Serif" font-size="10.00">+ m_col_icon</text>
<text text-anchor="start" x="166" y="-32" font-family="Helvetica,sans-Serif" font-size="10.00">+ m_col_is_file</text>
<polyline fill="none" stroke="#bfbfbf" points="158,-25 330,-25 "/>
<text text-anchor="start" x="166" y="-13" font-family="Helvetica,sans-Serif" font-size="10.00">+ ModelColumns()</text>
</a>
</g>
<!-- Node1&#45;&gt;Node3 -->
<g id="edge4" class="edge"><title>Node1&#45;&gt;Node3</title>
<path fill="none" stroke="midnightblue" d="M572.911,-158.697C514.965,-149.466 418.239,-131.166 339,-102 334.103,-100.197 329.14,-98.1909 324.185,-96.0468"/>
<polygon fill="none" stroke="midnightblue" points="572.496,-162.175 582.917,-160.262 573.578,-155.259 572.496,-162.175"/>
</g>
<!-- Node4 -->
<g id="node7" class="node"><title>Node4</title>
<a xlink:href="classBrowser_1_1OutputsModelColumns.html" target="_top" xlink:title="The Column Definition of the Outputlist inside of the Settingsbrowser.">
<polygon fill="white" stroke="black" points="348,-11.5 348,-90.5 506,-90.5 506,-11.5 348,-11.5"/>
<text text-anchor="middle" x="427" y="-78.5" font-family="Helvetica,sans-Serif" font-size="10.00">Browser::OutputsModelColumns</text>
<polyline fill="none" stroke="black" points="348,-71.5 506,-71.5 "/>
<text text-anchor="start" x="356" y="-59.5" font-family="Helvetica,sans-Serif" font-size="10.00">+ colName</text>
<text text-anchor="start" x="356" y="-48.5" font-family="Helvetica,sans-Serif" font-size="10.00">+ colActive</text>
<text text-anchor="start" x="356" y="-37.5" font-family="Helvetica,sans-Serif" font-size="10.00">+ colOutput</text>
<polyline fill="none" stroke="black" points="348,-30.5 506,-30.5 "/>
<text text-anchor="start" x="356" y="-18.5" font-family="Helvetica,sans-Serif" font-size="10.00">+ OutputsModelColumns()</text>
</a>
</g>
<!-- Node1&#45;&gt;Node4 -->
<g id="edge6" class="edge"><title>Node1&#45;&gt;Node4</title>
<path fill="none" stroke="midnightblue" d="M573.992,-137.061C549.659,-122.98 520.066,-105.855 493.828,-90.6722"/>
<polygon fill="none" stroke="midnightblue" points="572.294,-140.123 582.702,-142.102 575.8,-134.064 572.294,-140.123"/>
</g>
<!-- Node5 -->
<g id="node9" class="node"><title>Node5</title>
<polygon fill="white" stroke="#bfbfbf" points="524,-6 524,-96 724,-96 724,-6 524,-6"/>
<text text-anchor="middle" x="624" y="-84" font-family="Helvetica,sans-Serif" font-size="10.00">Browser::PlaylistManager::ModelColumns</text>
<polyline fill="none" stroke="#bfbfbf" points="524,-77 724,-77 "/>
<text text-anchor="start" x="532" y="-65" font-family="Helvetica,sans-Serif" font-size="10.00">+ m_col_icon</text>
<text text-anchor="start" x="532" y="-54" font-family="Helvetica,sans-Serif" font-size="10.00">+ m_col_plist</text>
<text text-anchor="start" x="532" y="-43" font-family="Helvetica,sans-Serif" font-size="10.00">+ m_col_name</text>
<text text-anchor="start" x="532" y="-32" font-family="Helvetica,sans-Serif" font-size="10.00">+ m_col_last_modfied</text>
<polyline fill="none" stroke="#bfbfbf" points="524,-25 724,-25 "/>
<text text-anchor="start" x="532" y="-13" font-family="Helvetica,sans-Serif" font-size="10.00">+ ModelColumns()</text>
</g>
<!-- Node1&#45;&gt;Node5 -->
<g id="edge8" class="edge"><title>Node1&#45;&gt;Node5</title>
<path fill="none" stroke="midnightblue" d="M624,-128.152C624,-117.93 624,-106.777 624,-96.2385"/>
<polygon fill="none" stroke="midnightblue" points="620.5,-128.404 624,-138.404 627.5,-128.404 620.5,-128.404"/>
</g>
<!-- Node6 -->
<g id="node11" class="node"><title>Node6</title>
<a xlink:href="classBrowser_1_1QueueModelColumns.html" target="_top" xlink:title="The Column Definition of Browser::Queue.">
<polygon fill="white" stroke="black" points="742,-0.5 742,-101.5 894,-101.5 894,-0.5 742,-0.5"/>
<text text-anchor="middle" x="818" y="-89.5" font-family="Helvetica,sans-Serif" font-size="10.00">Browser::QueueModelColumns</text>
<polyline fill="none" stroke="black" points="742,-82.5 894,-82.5 "/>
<text text-anchor="start" x="750" y="-70.5" font-family="Helvetica,sans-Serif" font-size="10.00">+ m_col_id</text>
<text text-anchor="start" x="750" y="-59.5" font-family="Helvetica,sans-Serif" font-size="10.00">+ m_col_pos</text>
<text text-anchor="start" x="750" y="-48.5" font-family="Helvetica,sans-Serif" font-size="10.00">+ m_col_title</text>
<text text-anchor="start" x="750" y="-37.5" font-family="Helvetica,sans-Serif" font-size="10.00">+ m_col_album</text>
<text text-anchor="start" x="750" y="-26.5" font-family="Helvetica,sans-Serif" font-size="10.00">+ m_col_artist</text>
<polyline fill="none" stroke="black" points="742,-19.5 894,-19.5 "/>
<text text-anchor="start" x="750" y="-7.5" font-family="Helvetica,sans-Serif" font-size="10.00">+ QueueModelColumns()</text>
</a>
</g>
<!-- Node1&#45;&gt;Node6 -->
<g id="edge10" class="edge"><title>Node1&#45;&gt;Node6</title>
<path fill="none" stroke="midnightblue" d="M674.017,-136.644C692.547,-125.765 713.734,-113.323 733,-102 735.804,-100.352 738.661,-98.6729 741.546,-96.9768"/>
<polygon fill="none" stroke="midnightblue" points="672.005,-133.766 665.153,-141.847 675.549,-139.803 672.005,-133.766"/>
</g>
<!-- Node7 -->
<g id="node13" class="node"><title>Node7</title>
<polygon fill="white" stroke="#bfbfbf" points="912,-17 912,-85 1124,-85 1124,-17 912,-17"/>
<text text-anchor="middle" x="1018" y="-73" font-family="Helvetica,sans-Serif" font-size="10.00">Browser::TextItemsMgr::TypeModelColumns</text>
<polyline fill="none" stroke="#bfbfbf" points="912,-66 1124,-66 "/>
<text text-anchor="start" x="920" y="-54" font-family="Helvetica,sans-Serif" font-size="10.00">+ m_col_id</text>
<text text-anchor="start" x="920" y="-43" font-family="Helvetica,sans-Serif" font-size="10.00">+ m_col_icon</text>
<polyline fill="none" stroke="#bfbfbf" points="912,-36 1124,-36 "/>
<text text-anchor="start" x="920" y="-24" font-family="Helvetica,sans-Serif" font-size="10.00">+ TypeModelColumns()</text>
</g>
<!-- Node1&#45;&gt;Node7 -->
<g id="edge12" class="edge"><title>Node1&#45;&gt;Node7</title>
<path fill="none" stroke="midnightblue" d="M675.433,-157.154C732.009,-146.744 825.228,-127.584 903,-102 917.683,-97.1698 933.067,-91.1729 947.635,-85.028"/>
<polygon fill="none" stroke="midnightblue" points="674.52,-153.762 665.307,-158.995 675.772,-160.649 674.52,-153.762"/>
</g>
<!-- Node8 -->
<g id="node15" class="node"><title>Node8</title>
<polygon fill="white" stroke="#bfbfbf" points="1142.5,-11.5 1142.5,-90.5 1333.5,-90.5 1333.5,-11.5 1142.5,-11.5"/>
<text text-anchor="middle" x="1238" y="-78.5" font-family="Helvetica,sans-Serif" font-size="10.00">GManager::BrowserList::ModelColumns</text>
<polyline fill="none" stroke="#bfbfbf" points="1142.5,-71.5 1333.5,-71.5 "/>
<text text-anchor="start" x="1150.5" y="-59.5" font-family="Helvetica,sans-Serif" font-size="10.00">+ m_col_name</text>
<text text-anchor="start" x="1150.5" y="-48.5" font-family="Helvetica,sans-Serif" font-size="10.00">+ m_col_icon</text>
<text text-anchor="start" x="1150.5" y="-37.5" font-family="Helvetica,sans-Serif" font-size="10.00">+ m_col_browser</text>
<polyline fill="none" stroke="#bfbfbf" points="1142.5,-30.5 1333.5,-30.5 "/>
<text text-anchor="start" x="1150.5" y="-18.5" font-family="Helvetica,sans-Serif" font-size="10.00">+ ModelColumns()</text>
</g>
<!-- Node1&#45;&gt;Node8 -->
<g id="edge14" class="edge"><title>Node1&#45;&gt;Node8</title>
<path fill="none" stroke="midnightblue" d="M675.297,-164.846C768.189,-161.597 969.68,-149.21 1132,-102 1142.55,-98.9315 1153.37,-94.9327 1163.87,-90.5328"/>
<polygon fill="none" stroke="midnightblue" points="674.929,-161.356 665.05,-165.182 675.159,-168.352 674.929,-161.356"/>
</g>
</g>
</svg>
