<?xml version="1.0" encoding="UTF-8" standalone="no"?>
<!DOCTYPE svg PUBLIC "-//W3C//DTD SVG 1.1//EN"
 "http://www.w3.org/Graphics/SVG/1.1/DTD/svg11.dtd">
<!-- Generated by graphviz version 2.28.0 (20120217.0315)
 -->
<!-- Title: G Pages: 1 -->
<svg width="470pt" height="47pt"
 viewBox="0.00 0.00 470.00 47.00" xmlns="http://www.w3.org/2000/svg" xmlns:xlink="http://www.w3.org/1999/xlink">
<g id="graph1" class="graph" transform="scale(1 1) rotate(0) translate(4 43)">
<title>G</title>
<polygon fill="white" stroke="white" points="-4,5 -4,-43 467,-43 467,5 -4,5"/>
<!-- Node1 -->
<g id="node1" class="node"><title>Node1</title>
<polygon fill="#bfbfbf" stroke="black" points="0.5,-0.5 0.5,-19.5 95.5,-19.5 95.5,-0.5 0.5,-0.5"/>
<text text-anchor="middle" x="48" y="-7.5" font-family="Helvetica,sans-Serif" font-size="10.00">MPD::Client::ping</text>
</g>
<!-- Node2 -->
<g id="node3" class="node"><title>Node2</title>
<a xlink:href="classMPDTestSuite.html#a9fc5c8372ab10da7a6a44bafb9c26e3d" target="_top" xlink:title="MPDTestSuite::testConnect">
<polygon fill="white" stroke="black" points="132,-19.5 132,-38.5 272,-38.5 272,-19.5 132,-19.5"/>
<text text-anchor="middle" x="202" y="-26.5" font-family="Helvetica,sans-Serif" font-size="10.00">MPDTestSuite::testConnect</text>
</a>
</g>
<!-- Node1&#45;&gt;Node2 -->
<g id="edge2" class="edge"><title>Node1&#45;&gt;Node2</title>
<path fill="none" stroke="midnightblue" d="M105.984,-17.1229C114.457,-18.1822 123.268,-19.2836 131.957,-20.3696"/>
<polygon fill="midnightblue" stroke="midnightblue" points="106.202,-13.6231 95.8453,-15.8557 105.334,-20.5691 106.202,-13.6231"/>
</g>
<!-- Node3 -->
<g id="node5" class="node"><title>Node3</title>
<a xlink:href="classMPDTestSuite.html#adb0271089e0d05bf8389787dd2f10539" target="_top" xlink:title="MPDTestSuite::testDisconnect">
<polygon fill="white" stroke="black" points="308.5,-0.5 308.5,-19.5 461.5,-19.5 461.5,-0.5 308.5,-0.5"/>
<text text-anchor="middle" x="385" y="-7.5" font-family="Helvetica,sans-Serif" font-size="10.00">MPDTestSuite::testDisconnect</text>
</a>
</g>
<!-- Node1&#45;&gt;Node3 -->
<g id="edge6" class="edge"><title>Node1&#45;&gt;Node3</title>
<path fill="none" stroke="midnightblue" d="M105.622,-10C161.315,-10 246.7,-10 308.219,-10"/>
<polygon fill="midnightblue" stroke="midnightblue" points="105.58,-6.5001 95.5803,-10 105.58,-13.5001 105.58,-6.5001"/>
</g>
<!-- Node2&#45;&gt;Node3 -->
<g id="edge4" class="edge"><title>Node2&#45;&gt;Node3</title>
<path fill="none" stroke="midnightblue" d="M282.241,-20.6819C290.863,-19.7768 299.623,-18.8573 308.201,-17.9568"/>
<polygon fill="midnightblue" stroke="midnightblue" points="281.783,-17.2106 272.203,-21.7356 282.514,-24.1724 281.783,-17.2106"/>
</g>
</g>
</svg>
