<?xml version="1.0" encoding="UTF-8" standalone="no"?>
<!DOCTYPE svg PUBLIC "-//W3C//DTD SVG 1.1//EN"
 "http://www.w3.org/Graphics/SVG/1.1/DTD/svg11.dtd">
<!-- Generated by graphviz version 2.28.0 (20120217.0315)
 -->
<!-- Title: G Pages: 1 -->
<svg width="124pt" height="194pt"
 viewBox="0.00 0.00 124.00 194.00" xmlns="http://www.w3.org/2000/svg" xmlns:xlink="http://www.w3.org/1999/xlink">
<g id="graph1" class="graph" transform="scale(1 1) rotate(0) translate(4 190)">
<title>G</title>
<polygon fill="white" stroke="white" points="-4,5 -4,-190 121,-190 121,5 -4,5"/>
<!-- Node1 -->
<g id="node1" class="node"><title>Node1</title>
<polygon fill="#bfbfbf" stroke="black" points="14.5,-128.5 14.5,-185.5 101.5,-185.5 101.5,-128.5 14.5,-128.5"/>
<text text-anchor="middle" x="58" y="-173.5" font-family="Helvetica,sans-Serif" font-size="10.00">ScrolledWindow</text>
<polyline fill="none" stroke="black" points="14.5,-166.5 101.5,-166.5 "/>
<text text-anchor="middle" x="58" y="-154.5" font-family="Helvetica,sans-Serif" font-size="10.00"> </text>
<polyline fill="none" stroke="black" points="14.5,-147.5 101.5,-147.5 "/>
<text text-anchor="middle" x="58" y="-135.5" font-family="Helvetica,sans-Serif" font-size="10.00"> </text>
</g>
<!-- Node2 -->
<g id="node3" class="node"><title>Node2</title>
<a xlink:href="classBrowser_1_1TextPageMgr.html" target="_top" xlink:title="{Browser::TextPageMgr\n||+ TextPageMgr()\l+ update()\l+ set_request_type()\l+ on_deliver()\l}">
<polygon fill="white" stroke="black" points="-0.5,-1 -0.5,-91 116.5,-91 116.5,-1 -0.5,-1"/>
<text text-anchor="middle" x="58" y="-79" font-family="Helvetica,sans-Serif" font-size="10.00">Browser::TextPageMgr</text>
<polyline fill="none" stroke="black" points="-0.5,-72 116.5,-72 "/>
<text text-anchor="middle" x="58" y="-60" font-family="Helvetica,sans-Serif" font-size="10.00"> </text>
<polyline fill="none" stroke="black" points="-0.5,-53 116.5,-53 "/>
<text text-anchor="start" x="7.5" y="-41" font-family="Helvetica,sans-Serif" font-size="10.00">+ TextPageMgr()</text>
<text text-anchor="start" x="7.5" y="-30" font-family="Helvetica,sans-Serif" font-size="10.00">+ update()</text>
<text text-anchor="start" x="7.5" y="-19" font-family="Helvetica,sans-Serif" font-size="10.00">+ set_request_type()</text>
<text text-anchor="start" x="7.5" y="-8" font-family="Helvetica,sans-Serif" font-size="10.00">+ on_deliver()</text>
</a>
</g>
<!-- Node1&#45;&gt;Node2 -->
<g id="edge2" class="edge"><title>Node1&#45;&gt;Node2</title>
<path fill="none" stroke="midnightblue" d="M58,-118.484C58,-109.643 58,-100.139 58,-91.0399"/>
<polygon fill="none" stroke="midnightblue" points="54.5001,-118.495 58,-128.495 61.5001,-118.495 54.5001,-118.495"/>
</g>
</g>
</svg>
