<?xml version="1.0" encoding="UTF-8" standalone="no"?>
<!DOCTYPE svg PUBLIC "-//W3C//DTD SVG 1.1//EN"
 "http://www.w3.org/Graphics/SVG/1.1/DTD/svg11.dtd">
<!-- Generated by graphviz version 2.28.0 (20120217.0315)
 -->
<!-- Title: G Pages: 1 -->
<svg width="194pt" height="204pt"
 viewBox="0.00 0.00 194.00 204.00" xmlns="http://www.w3.org/2000/svg" xmlns:xlink="http://www.w3.org/1999/xlink">
<g id="graph1" class="graph" transform="scale(1 1) rotate(0) translate(4 200)">
<title>G</title>
<polygon fill="white" stroke="white" points="-4,5 -4,-200 191,-200 191,5 -4,5"/>
<!-- Node1 -->
<g id="node1" class="node"><title>Node1</title>
<polygon fill="#bfbfbf" stroke="black" points="14,-0.5 14,-79.5 146,-79.5 146,-0.5 14,-0.5"/>
<text text-anchor="middle" x="80" y="-67.5" font-family="Helvetica,sans-Serif" font-size="10.00">Browser::RelatedLinksMgr</text>
<polyline fill="none" stroke="black" points="14,-60.5 146,-60.5 "/>
<text text-anchor="middle" x="80" y="-48.5" font-family="Helvetica,sans-Serif" font-size="10.00"> </text>
<polyline fill="none" stroke="black" points="14,-41.5 146,-41.5 "/>
<text text-anchor="start" x="22" y="-29.5" font-family="Helvetica,sans-Serif" font-size="10.00">+ RelatedLinksMgr()</text>
<text text-anchor="start" x="22" y="-18.5" font-family="Helvetica,sans-Serif" font-size="10.00">+ update()</text>
<text text-anchor="start" x="22" y="-7.5" font-family="Helvetica,sans-Serif" font-size="10.00">+ on_deliver()</text>
</g>
<!-- Node2 -->
<g id="node2" class="node"><title>Node2</title>
<a xlink:href="classGtk_1_1Expander.html" target="_top" xlink:title="{Expander\n||}">
<polygon fill="white" stroke="black" points="0,-127.5 0,-184.5 58,-184.5 58,-127.5 0,-127.5"/>
<text text-anchor="middle" x="29" y="-172.5" font-family="Helvetica,sans-Serif" font-size="10.00">Expander</text>
<polyline fill="none" stroke="black" points="0,-165.5 58,-165.5 "/>
<text text-anchor="middle" x="29" y="-153.5" font-family="Helvetica,sans-Serif" font-size="10.00"> </text>
<polyline fill="none" stroke="black" points="0,-146.5 58,-146.5 "/>
<text text-anchor="middle" x="29" y="-134.5" font-family="Helvetica,sans-Serif" font-size="10.00"> </text>
</a>
</g>
<!-- Node2&#45;&gt;Node1 -->
<g id="edge2" class="edge"><title>Node2&#45;&gt;Node1</title>
<path fill="none" stroke="midnightblue" d="M45.4312,-118.272C50.968,-105.895 57.1606,-92.0527 62.7582,-79.5406"/>
<polygon fill="none" stroke="midnightblue" points="42.2345,-116.846 41.3457,-127.404 48.6243,-119.705 42.2345,-116.846"/>
</g>
<!-- Node3 -->
<g id="node4" class="node"><title>Node3</title>
<a xlink:href="classGlyr_1_1UpdateInterface.html" target="_top" xlink:title="Very similar to AbstractClientUser, but doesnt take a Client instance.">
<polygon fill="white" stroke="black" points="76,-116.5 76,-195.5 186,-195.5 186,-116.5 76,-116.5"/>
<text text-anchor="middle" x="131" y="-183.5" font-family="Helvetica,sans-Serif" font-size="10.00">Glyr::UpdateInterface</text>
<polyline fill="none" stroke="black" points="76,-176.5 186,-176.5 "/>
<text text-anchor="middle" x="131" y="-164.5" font-family="Helvetica,sans-Serif" font-size="10.00"> </text>
<polyline fill="none" stroke="black" points="76,-157.5 186,-157.5 "/>
<text text-anchor="start" x="84" y="-145.5" font-family="Helvetica,sans-Serif" font-size="10.00">+ UpdateInterface()</text>
<text text-anchor="start" x="84" y="-134.5" font-family="Helvetica,sans-Serif" font-size="10.00">+ update()</text>
<text text-anchor="start" x="84" y="-123.5" font-family="Helvetica,sans-Serif" font-size="10.00">+ on_deliver()</text>
</a>
</g>
<!-- Node3&#45;&gt;Node1 -->
<g id="edge4" class="edge"><title>Node3&#45;&gt;Node1</title>
<path fill="none" stroke="midnightblue" d="M109.533,-107.015C105.435,-97.8541 101.194,-88.3746 97.2485,-79.5555"/>
<polygon fill="none" stroke="midnightblue" points="106.455,-108.706 113.734,-116.405 112.845,-105.847 106.455,-108.706"/>
</g>
</g>
</svg>
