<?xml version="1.0" encoding="UTF-8" standalone="no"?>
<!DOCTYPE svg PUBLIC "-//W3C//DTD SVG 1.1//EN"
 "http://www.w3.org/Graphics/SVG/1.1/DTD/svg11.dtd">
<!-- Generated by graphviz version 2.28.0 (20111204.1018)
 -->
<!-- Title: G Pages: 1 -->
<svg width="310pt" height="66pt"
 viewBox="0.00 0.00 310.00 66.00" xmlns="http://www.w3.org/2000/svg" xmlns:xlink="http://www.w3.org/1999/xlink">
<g id="graph1" class="graph" transform="scale(1 1) rotate(0) translate(4 62)">
<title>G</title>
<polygon fill="white" stroke="white" points="-4,5 -4,-62 307,-62 307,5 -4,5"/>
<!-- Node1 -->
<g id="node1" class="node"><title>Node1</title>
<polygon fill="#bfbfbf" stroke="black" points="0.5,-19.5 0.5,-38.5 111.5,-38.5 111.5,-19.5 0.5,-19.5"/>
<text text-anchor="middle" x="56" y="-26.5" font-family="Helvetica,sans-Serif" font-size="10.00">MPD::Client::connect</text>
</g>
<!-- Node2 -->
<g id="node3" class="node"><title>Node2</title>
<a xlink:href="classMPDTestSuite.html#a0cf8c1358093b146bd4960fcbfa4bb6c" target="_top" xlink:title="MPDTestSuite::setUp">
<polygon fill="white" stroke="black" points="168.5,-38.5 168.5,-57.5 281.5,-57.5 281.5,-38.5 168.5,-38.5"/>
<text text-anchor="middle" x="225" y="-45.5" font-family="Helvetica,sans-Serif" font-size="10.00">MPDTestSuite::setUp</text>
</a>
</g>
<!-- Node1&#45;&gt;Node2 -->
<g id="edge2" class="edge"><title>Node1&#45;&gt;Node2</title>
<path fill="none" stroke="midnightblue" d="M121.654,-36.3558C137.062,-38.1088 153.373,-39.9646 168.337,-41.6671"/>
<polygon fill="midnightblue" stroke="midnightblue" points="122.014,-32.8743 111.682,-35.2213 121.222,-39.8294 122.014,-32.8743"/>
</g>
<!-- Node3 -->
<g id="node5" class="node"><title>Node3</title>
<a xlink:href="classMPDTestSuite.html#a07b97bc2d75537a342505869c213943b" target="_top" xlink:title="MPDTestSuite::testDisconnect">
<polygon fill="white" stroke="black" points="148.5,-0.5 148.5,-19.5 301.5,-19.5 301.5,-0.5 148.5,-0.5"/>
<text text-anchor="middle" x="225" y="-7.5" font-family="Helvetica,sans-Serif" font-size="10.00">MPDTestSuite::testDisconnect</text>
</a>
</g>
<!-- Node1&#45;&gt;Node3 -->
<g id="edge4" class="edge"><title>Node1&#45;&gt;Node3</title>
<path fill="none" stroke="midnightblue" d="M121.734,-21.635C130.43,-20.6457 139.412,-19.6238 148.276,-18.6153"/>
<polygon fill="midnightblue" stroke="midnightblue" points="121.222,-18.1706 111.682,-22.7787 122.014,-25.1257 121.222,-18.1706"/>
</g>
</g>
</svg>
