<?xml version="1.0" encoding="UTF-8" standalone="no"?>
<!DOCTYPE svg PUBLIC "-//W3C//DTD SVG 1.1//EN"
 "http://www.w3.org/Graphics/SVG/1.1/DTD/svg11.dtd">
<!-- Generated by graphviz version 2.28.0 (20111204.1018)
 -->
<!-- Title: G Pages: 1 -->
<svg width="112pt" height="160pt"
 viewBox="0.00 0.00 112.00 160.00" xmlns="http://www.w3.org/2000/svg" xmlns:xlink="http://www.w3.org/1999/xlink">
<g id="graph1" class="graph" transform="scale(1 1) rotate(0) translate(4 156)">
<title>G</title>
<polygon fill="white" stroke="white" points="-4,5 -4,-156 109,-156 109,5 -4,5"/>
<!-- Node1 -->
<g id="node1" class="node"><title>Node1</title>
<polygon fill="#bfbfbf" stroke="black" points="20,-94.5 20,-151.5 84,-151.5 84,-94.5 20,-94.5"/>
<text text-anchor="middle" x="52" y="-139.5" font-family="Helvetica,sans-Serif" font-size="10.00">StatusIcon</text>
<polyline fill="none" stroke="black" points="20,-132.5 84,-132.5 "/>
<text text-anchor="middle" x="52" y="-120.5" font-family="Helvetica,sans-Serif" font-size="10.00"> </text>
<polyline fill="none" stroke="black" points="20,-113.5 84,-113.5 "/>
<text text-anchor="middle" x="52" y="-101.5" font-family="Helvetica,sans-Serif" font-size="10.00"> </text>
</g>
<!-- Node2 -->
<g id="node3" class="node"><title>Node2</title>
<a xlink:href="classGManager_1_1Trayicon.html" target="_top" xlink:title="Manager for the trayicon.">
<polygon fill="white" stroke="black" points="-0.5,-0.5 -0.5,-57.5 104.5,-57.5 104.5,-0.5 -0.5,-0.5"/>
<text text-anchor="middle" x="52" y="-45.5" font-family="Helvetica,sans-Serif" font-size="10.00">GManager::Trayicon</text>
<polyline fill="none" stroke="black" points="-0.5,-38.5 104.5,-38.5 "/>
<text text-anchor="middle" x="52" y="-26.5" font-family="Helvetica,sans-Serif" font-size="10.00"> </text>
<polyline fill="none" stroke="black" points="-0.5,-19.5 104.5,-19.5 "/>
<text text-anchor="start" x="7.5" y="-7.5" font-family="Helvetica,sans-Serif" font-size="10.00">+ Trayicon()</text>
</a>
</g>
<!-- Node1&#45;&gt;Node2 -->
<g id="edge2" class="edge"><title>Node1&#45;&gt;Node2</title>
<path fill="none" stroke="midnightblue" d="M52,-84.2092C52,-75.2929 52,-65.9513 52,-57.5836"/>
<polygon fill="none" stroke="midnightblue" points="48.5001,-84.3969 52,-94.397 55.5001,-84.397 48.5001,-84.3969"/>
</g>
</g>
</svg>
