<?xml version="1.0" encoding="UTF-8" standalone="no"?>
<!DOCTYPE svg PUBLIC "-//W3C//DTD SVG 1.1//EN"
 "http://www.w3.org/Graphics/SVG/1.1/DTD/svg11.dtd">
<!-- Generated by graphviz version 2.28.0 (20111204.1018)
 -->
<!-- Title: G Pages: 1 -->
<svg width="140pt" height="226pt"
 viewBox="0.00 0.00 140.00 226.00" xmlns="http://www.w3.org/2000/svg" xmlns:xlink="http://www.w3.org/1999/xlink">
<g id="graph1" class="graph" transform="scale(1 1) rotate(0) translate(4 222)">
<title>G</title>
<polygon fill="white" stroke="white" points="-4,5 -4,-222 137,-222 137,5 -4,5"/>
<!-- Node1 -->
<g id="node1" class="node"><title>Node1</title>
<polygon fill="#bfbfbf" stroke="black" points="0,-0.5 0,-123.5 132,-123.5 132,-0.5 0,-0.5"/>
<text text-anchor="middle" x="66" y="-111.5" font-family="Helvetica,sans-Serif" font-size="10.00">MPDTestSuite</text>
<polyline fill="none" stroke="black" points="0,-104.5 132,-104.5 "/>
<text text-anchor="middle" x="66" y="-92.5" font-family="Helvetica,sans-Serif" font-size="10.00"> </text>
<polyline fill="none" stroke="black" points="0,-85.5 132,-85.5 "/>
<text text-anchor="start" x="8" y="-73.5" font-family="Helvetica,sans-Serif" font-size="10.00">+ setUp()</text>
<text text-anchor="start" x="8" y="-62.5" font-family="Helvetica,sans-Serif" font-size="10.00">+ tearDown()</text>
<text text-anchor="start" x="8" y="-51.5" font-family="Helvetica,sans-Serif" font-size="10.00">+ connectionChange()</text>
<text text-anchor="start" x="8" y="-40.5" font-family="Helvetica,sans-Serif" font-size="10.00">+ clientUpdate()</text>
<text text-anchor="start" x="8" y="-29.5" font-family="Helvetica,sans-Serif" font-size="10.00">+ testConnect()</text>
<text text-anchor="start" x="8" y="-18.5" font-family="Helvetica,sans-Serif" font-size="10.00">+ testDisconnect()</text>
<text text-anchor="start" x="8" y="-7.5" font-family="Helvetica,sans-Serif" font-size="10.00">+ testSignalClientUpdate()</text>
</g>
<!-- Node2 -->
<g id="node2" class="node"><title>Node2</title>
<a xlink:href="classCxxTest_1_1TestSuite.html" target="_top" xlink:title="{CxxTest::TestSuite\n||}">
<polygon fill="white" stroke="black" points="15,-160.5 15,-217.5 117,-217.5 117,-160.5 15,-160.5"/>
<text text-anchor="middle" x="66" y="-205.5" font-family="Helvetica,sans-Serif" font-size="10.00">CxxTest::TestSuite</text>
<polyline fill="none" stroke="black" points="15,-198.5 117,-198.5 "/>
<text text-anchor="middle" x="66" y="-186.5" font-family="Helvetica,sans-Serif" font-size="10.00"> </text>
<polyline fill="none" stroke="black" points="15,-179.5 117,-179.5 "/>
<text text-anchor="middle" x="66" y="-167.5" font-family="Helvetica,sans-Serif" font-size="10.00"> </text>
</a>
</g>
<!-- Node2&#45;&gt;Node1 -->
<g id="edge2" class="edge"><title>Node2&#45;&gt;Node1</title>
<path fill="none" stroke="midnightblue" d="M66,-150.099C66,-141.739 66,-132.68 66,-123.672"/>
<polygon fill="none" stroke="midnightblue" points="62.5001,-150.258 66,-160.258 69.5001,-150.258 62.5001,-150.258"/>
</g>
</g>
</svg>
