<?xml version="1.0" encoding="UTF-8" standalone="no"?>
<!DOCTYPE svg PUBLIC "-//W3C//DTD SVG 1.1//EN"
 "http://www.w3.org/Graphics/SVG/1.1/DTD/svg11.dtd">
<!-- Generated by graphviz version 2.28.0 (20111204.1018)
 -->
<!-- Title: G Pages: 1 -->
<svg width="2610pt" height="292pt"
 viewBox="0.00 0.00 2610.00 292.00" xmlns="http://www.w3.org/2000/svg" xmlns:xlink="http://www.w3.org/1999/xlink">
<g id="graph1" class="graph" transform="scale(1 1) rotate(0) translate(4 288)">
<title>G</title>
<polygon fill="white" stroke="white" points="-4,5 -4,-288 2607,-288 2607,5 -4,5"/>
<!-- Node1 -->
<g id="node1" class="node"><title>Node1</title>
<polygon fill="#bfbfbf" stroke="black" points="1249.5,-204.5 1249.5,-283.5 1380.5,-283.5 1380.5,-204.5 1249.5,-204.5"/>
<text text-anchor="middle" x="1315" y="-271.5" font-family="Helvetica,sans-Serif" font-size="10.00">MPD::AbstractClientUser</text>
<polyline fill="none" stroke="black" points="1249.5,-264.5 1380.5,-264.5 "/>
<text text-anchor="start" x="1257.5" y="-252.5" font-family="Helvetica,sans-Serif" font-size="10.00"># mp_Client</text>
<polyline fill="none" stroke="black" points="1249.5,-245.5 1380.5,-245.5 "/>
<text text-anchor="start" x="1257.5" y="-233.5" font-family="Helvetica,sans-Serif" font-size="10.00">+ AbstractClientUser()</text>
<text text-anchor="start" x="1257.5" y="-222.5" font-family="Helvetica,sans-Serif" font-size="10.00"># on_client_update()</text>
<text text-anchor="start" x="1257.5" y="-211.5" font-family="Helvetica,sans-Serif" font-size="10.00"># on_connection_change()</text>
</g>
<!-- Node2 -->
<g id="node3" class="node"><title>Node2</title>
<a xlink:href="classBrowser_1_1Database.html" target="_top" xlink:title="The Database Browser.">
<polygon fill="white" stroke="black" points="-0.5,-39 -0.5,-129 100.5,-129 100.5,-39 -0.5,-39"/>
<text text-anchor="middle" x="50" y="-117" font-family="Helvetica,sans-Serif" font-size="10.00">Browser::Database</text>
<polyline fill="none" stroke="black" points="-0.5,-110 100.5,-110 "/>
<text text-anchor="middle" x="50" y="-98" font-family="Helvetica,sans-Serif" font-size="10.00"> </text>
<polyline fill="none" stroke="black" points="-0.5,-91 100.5,-91 "/>
<text text-anchor="start" x="7.5" y="-79" font-family="Helvetica,sans-Serif" font-size="10.00">+ Database()</text>
<text text-anchor="start" x="7.5" y="-68" font-family="Helvetica,sans-Serif" font-size="10.00">+ ~Database()</text>
<text text-anchor="start" x="7.5" y="-57" font-family="Helvetica,sans-Serif" font-size="10.00">+ get_container()</text>
<text text-anchor="start" x="7.5" y="-46" font-family="Helvetica,sans-Serif" font-size="10.00">+ add_item()</text>
</a>
</g>
<!-- Node1&#45;&gt;Node2 -->
<g id="edge2" class="edge"><title>Node1&#45;&gt;Node2</title>
<path fill="none" stroke="midnightblue" d="M1239.33,-242.056C990.447,-238.437 207.499,-222.77 109,-168 93.0851,-159.151 80.4258,-143.986 70.9786,-129.021"/>
<polygon fill="none" stroke="midnightblue" points="1239.32,-245.556 1249.37,-242.2 1239.42,-238.557 1239.32,-245.556"/>
</g>
<!-- Node3 -->
<g id="node5" class="node"><title>Node3</title>
<a xlink:href="classBrowser_1_1DatabaseCache.html" target="_top" xlink:title="Acts as a Proxy betwenn Browser::Database and MPD::Client, but caches requested data.">
<polygon fill="white" stroke="black" points="118.5,-17 118.5,-151 247.5,-151 247.5,-17 118.5,-17"/>
<text text-anchor="middle" x="183" y="-139" font-family="Helvetica,sans-Serif" font-size="10.00">Browser::DatabaseCache</text>
<polyline fill="none" stroke="black" points="118.5,-132 247.5,-132 "/>
<text text-anchor="middle" x="183" y="-120" font-family="Helvetica,sans-Serif" font-size="10.00"> </text>
<polyline fill="none" stroke="black" points="118.5,-113 247.5,-113 "/>
<text text-anchor="start" x="126.5" y="-101" font-family="Helvetica,sans-Serif" font-size="10.00">+ DatabaseCache()</text>
<text text-anchor="start" x="126.5" y="-90" font-family="Helvetica,sans-Serif" font-size="10.00">+ ~DatabaseCache()</text>
<text text-anchor="start" x="126.5" y="-79" font-family="Helvetica,sans-Serif" font-size="10.00">+ fill_filelist()</text>
<text text-anchor="start" x="126.5" y="-68" font-family="Helvetica,sans-Serif" font-size="10.00">+ add_item()</text>
<text text-anchor="start" x="126.5" y="-57" font-family="Helvetica,sans-Serif" font-size="10.00">+ fill_queue()</text>
<text text-anchor="start" x="126.5" y="-46" font-family="Helvetica,sans-Serif" font-size="10.00">+ fill_queue_changes()</text>
<text text-anchor="start" x="126.5" y="-35" font-family="Helvetica,sans-Serif" font-size="10.00">+ fill_playlists()</text>
<text text-anchor="start" x="126.5" y="-24" font-family="Helvetica,sans-Serif" font-size="10.00">+ fill_outputs()</text>
</a>
</g>
<!-- Node1&#45;&gt;Node3 -->
<g id="edge4" class="edge"><title>Node1&#45;&gt;Node3</title>
<path fill="none" stroke="midnightblue" d="M1239.32,-240.917C1011.85,-234.2 344.538,-211.013 257,-168 248.163,-163.658 239.911,-157.752 232.36,-151.077"/>
<polygon fill="none" stroke="midnightblue" points="1239.4,-244.42 1249.49,-241.215 1239.6,-237.423 1239.4,-244.42"/>
</g>
<!-- Node4 -->
<g id="node7" class="node"><title>Node4</title>
<a xlink:href="classBrowser_1_1PlaylistAddDialog.html" target="_top" xlink:title="Shows a simple dialog when a new playlist needs to be saved.">
<polygon fill="white" stroke="black" points="266,-44.5 266,-123.5 402,-123.5 402,-44.5 266,-44.5"/>
<text text-anchor="middle" x="334" y="-111.5" font-family="Helvetica,sans-Serif" font-size="10.00">Browser::PlaylistAddDialog</text>
<polyline fill="none" stroke="black" points="266,-104.5 402,-104.5 "/>
<text text-anchor="middle" x="334" y="-92.5" font-family="Helvetica,sans-Serif" font-size="10.00"> </text>
<polyline fill="none" stroke="black" points="266,-85.5 402,-85.5 "/>
<text text-anchor="start" x="274" y="-73.5" font-family="Helvetica,sans-Serif" font-size="10.00">+ PlaylistAddDialog()</text>
<text text-anchor="start" x="274" y="-62.5" font-family="Helvetica,sans-Serif" font-size="10.00">+ ~PlaylistAddDialog()</text>
<text text-anchor="start" x="274" y="-51.5" font-family="Helvetica,sans-Serif" font-size="10.00">+ run()</text>
</a>
</g>
<!-- Node1&#45;&gt;Node4 -->
<g id="edge6" class="edge"><title>Node1&#45;&gt;Node4</title>
<path fill="none" stroke="midnightblue" d="M1239.23,-243.664C1049.01,-244.238 556.223,-238.658 411,-168 390.674,-158.111 373.071,-140.357 359.847,-123.8"/>
<polygon fill="none" stroke="midnightblue" points="1239.43,-247.163 1249.41,-243.626 1239.4,-240.163 1239.43,-247.163"/>
</g>
<!-- Node5 -->
<g id="node9" class="node"><title>Node5</title>
<a xlink:href="classBrowser_1_1PlaylistManager.html" target="_top" xlink:title="Shows a list of stored playlists.">
<polygon fill="white" stroke="black" points="420,-44.5 420,-123.5 548,-123.5 548,-44.5 420,-44.5"/>
<text text-anchor="middle" x="484" y="-111.5" font-family="Helvetica,sans-Serif" font-size="10.00">Browser::PlaylistManager</text>
<polyline fill="none" stroke="black" points="420,-104.5 548,-104.5 "/>
<text text-anchor="middle" x="484" y="-92.5" font-family="Helvetica,sans-Serif" font-size="10.00"> </text>
<polyline fill="none" stroke="black" points="420,-85.5 548,-85.5 "/>
<text text-anchor="start" x="428" y="-73.5" font-family="Helvetica,sans-Serif" font-size="10.00">+ PlaylistManager()</text>
<text text-anchor="start" x="428" y="-62.5" font-family="Helvetica,sans-Serif" font-size="10.00">+ ~PlaylistManager()</text>
<text text-anchor="start" x="428" y="-51.5" font-family="Helvetica,sans-Serif" font-size="10.00">+ get_container()</text>
</a>
</g>
<!-- Node1&#45;&gt;Node5 -->
<g id="edge8" class="edge"><title>Node1&#45;&gt;Node5</title>
<path fill="none" stroke="midnightblue" d="M1239.1,-242.471C1071.37,-240.192 674.695,-228.381 557,-168 537.365,-157.926 520.639,-140.154 508.172,-123.633"/>
<polygon fill="none" stroke="midnightblue" points="1239.28,-245.974 1249.33,-242.602 1239.37,-238.974 1239.28,-245.974"/>
</g>
<!-- Node6 -->
<g id="node11" class="node"><title>Node6</title>
<a xlink:href="classBrowser_1_1Queue.html" target="_top" xlink:title="Shows a list of songs in the current playlist.">
<polygon fill="white" stroke="black" points="566,-44.5 566,-123.5 656,-123.5 656,-44.5 566,-44.5"/>
<text text-anchor="middle" x="611" y="-111.5" font-family="Helvetica,sans-Serif" font-size="10.00">Browser::Queue</text>
<polyline fill="none" stroke="black" points="566,-104.5 656,-104.5 "/>
<text text-anchor="middle" x="611" y="-92.5" font-family="Helvetica,sans-Serif" font-size="10.00"> </text>
<polyline fill="none" stroke="black" points="566,-85.5 656,-85.5 "/>
<text text-anchor="start" x="574" y="-73.5" font-family="Helvetica,sans-Serif" font-size="10.00">+ Queue()</text>
<text text-anchor="start" x="574" y="-62.5" font-family="Helvetica,sans-Serif" font-size="10.00">+ ~Queue()</text>
<text text-anchor="start" x="574" y="-51.5" font-family="Helvetica,sans-Serif" font-size="10.00">+ get_container()</text>
</a>
</g>
<!-- Node1&#45;&gt;Node6 -->
<g id="edge10" class="edge"><title>Node1&#45;&gt;Node6</title>
<path fill="none" stroke="midnightblue" d="M1239.37,-242.214C1089.14,-239.388 759.469,-226.498 665,-168 648.338,-157.682 635.807,-140.095 627.032,-123.758"/>
<polygon fill="none" stroke="midnightblue" points="1239.37,-245.715 1249.43,-242.393 1239.5,-238.716 1239.37,-245.715"/>
</g>
<!-- Node7 -->
<g id="node13" class="node"><title>Node7</title>
<a xlink:href="classBrowser_1_1QueueMerger.html" target="_top" xlink:title="This class manages the updating and merging of the Queue.">
<polygon fill="white" stroke="black" points="674.5,-39 674.5,-129 797.5,-129 797.5,-39 674.5,-39"/>
<text text-anchor="middle" x="736" y="-117" font-family="Helvetica,sans-Serif" font-size="10.00">Browser::QueueMerger</text>
<polyline fill="none" stroke="black" points="674.5,-110 797.5,-110 "/>
<text text-anchor="middle" x="736" y="-98" font-family="Helvetica,sans-Serif" font-size="10.00"> </text>
<polyline fill="none" stroke="black" points="674.5,-91 797.5,-91 "/>
<text text-anchor="start" x="682.5" y="-79" font-family="Helvetica,sans-Serif" font-size="10.00">+ QueueMerger()</text>
<text text-anchor="start" x="682.5" y="-68" font-family="Helvetica,sans-Serif" font-size="10.00">+ add_item()</text>
<text text-anchor="start" x="682.5" y="-57" font-family="Helvetica,sans-Serif" font-size="10.00">+ disable_merge_once()</text>
<text text-anchor="start" x="682.5" y="-46" font-family="Helvetica,sans-Serif" font-size="10.00">+ recalculate_positions()</text>
</a>
</g>
<!-- Node1&#45;&gt;Node7 -->
<g id="edge12" class="edge"><title>Node1&#45;&gt;Node7</title>
<path fill="none" stroke="midnightblue" d="M1238.93,-238.381C1115.67,-229.815 878.768,-208.534 806,-168 789.368,-158.735 774.963,-143.862 763.618,-129.247"/>
<polygon fill="none" stroke="midnightblue" points="1238.83,-241.883 1249.05,-239.074 1239.31,-234.899 1238.83,-241.883"/>
</g>
<!-- Node8 -->
<g id="node15" class="node"><title>Node8</title>
<a xlink:href="classBrowser_1_1SettingsOutputs.html" target="_top" xlink:title="Outputlist Tab.">
<polygon fill="white" stroke="black" points="815.5,-0.5 815.5,-167.5 946.5,-167.5 946.5,-0.5 815.5,-0.5"/>
<text text-anchor="middle" x="881" y="-155.5" font-family="Helvetica,sans-Serif" font-size="10.00">Browser::SettingsOutputs</text>
<polyline fill="none" stroke="black" points="815.5,-148.5 946.5,-148.5 "/>
<text text-anchor="middle" x="881" y="-136.5" font-family="Helvetica,sans-Serif" font-size="10.00"> </text>
<polyline fill="none" stroke="black" points="815.5,-129.5 946.5,-129.5 "/>
<text text-anchor="start" x="823.5" y="-117.5" font-family="Helvetica,sans-Serif" font-size="10.00">+ SettingsOutputs()</text>
<text text-anchor="start" x="823.5" y="-106.5" font-family="Helvetica,sans-Serif" font-size="10.00">+ ~SettingsOutputs()</text>
<text text-anchor="start" x="823.5" y="-95.5" font-family="Helvetica,sans-Serif" font-size="10.00">+ accept_new_settings()</text>
<text text-anchor="start" x="823.5" y="-84.5" font-family="Helvetica,sans-Serif" font-size="10.00">+ decline_new_settings()</text>
<text text-anchor="start" x="823.5" y="-73.5" font-family="Helvetica,sans-Serif" font-size="10.00">+ reset_settings()</text>
<text text-anchor="start" x="823.5" y="-62.5" font-family="Helvetica,sans-Serif" font-size="10.00">+ add_item()</text>
<text text-anchor="start" x="823.5" y="-51.5" font-family="Helvetica,sans-Serif" font-size="10.00"># on_client_update()</text>
<text text-anchor="start" x="823.5" y="-40.5" font-family="Helvetica,sans-Serif" font-size="10.00"># on_connection_change()</text>
<text text-anchor="start" x="823.5" y="-29.5" font-family="Helvetica,sans-Serif" font-size="10.00"># on_toggle()</text>
<text text-anchor="start" x="823.5" y="-18.5" font-family="Helvetica,sans-Serif" font-size="10.00"># on_select()</text>
<text text-anchor="start" x="823.5" y="-7.5" font-family="Helvetica,sans-Serif" font-size="10.00"># clear()</text>
</a>
</g>
<!-- Node1&#45;&gt;Node8 -->
<g id="edge14" class="edge"><title>Node1&#45;&gt;Node8</title>
<path fill="none" stroke="midnightblue" d="M1239.18,-240.885C1162.76,-235.742 1043.74,-219.285 955,-168 952.159,-166.358 949.368,-164.568 946.634,-162.657"/>
<polygon fill="none" stroke="midnightblue" points="1239.01,-244.381 1249.21,-241.511 1239.45,-237.394 1239.01,-244.381"/>
</g>
<!-- Node9 -->
<g id="node17" class="node"><title>Node9</title>
<a xlink:href="classBrowser_1_1SettingsPlayback.html" target="_top" xlink:title="Playback Settings Tab.">
<polygon fill="white" stroke="black" points="964.5,-33.5 964.5,-134.5 1099.5,-134.5 1099.5,-33.5 964.5,-33.5"/>
<text text-anchor="middle" x="1032" y="-122.5" font-family="Helvetica,sans-Serif" font-size="10.00">Browser::SettingsPlayback</text>
<polyline fill="none" stroke="black" points="964.5,-115.5 1099.5,-115.5 "/>
<text text-anchor="middle" x="1032" y="-103.5" font-family="Helvetica,sans-Serif" font-size="10.00"> </text>
<polyline fill="none" stroke="black" points="964.5,-96.5 1099.5,-96.5 "/>
<text text-anchor="start" x="972.5" y="-84.5" font-family="Helvetica,sans-Serif" font-size="10.00">+ SettingsPlayback()</text>
<text text-anchor="start" x="972.5" y="-73.5" font-family="Helvetica,sans-Serif" font-size="10.00">+ ~SettingsPlayback()</text>
<text text-anchor="start" x="972.5" y="-62.5" font-family="Helvetica,sans-Serif" font-size="10.00">+ accept_new_settings()</text>
<text text-anchor="start" x="972.5" y="-51.5" font-family="Helvetica,sans-Serif" font-size="10.00">+ decline_new_settings()</text>
<text text-anchor="start" x="972.5" y="-40.5" font-family="Helvetica,sans-Serif" font-size="10.00">+ reset_settings()</text>
</a>
</g>
<!-- Node1&#45;&gt;Node9 -->
<g id="edge16" class="edge"><title>Node1&#45;&gt;Node9</title>
<path fill="none" stroke="midnightblue" d="M1239.52,-225.145C1198.38,-213.157 1147.88,-194.617 1108,-168 1094.35,-158.89 1081.47,-146.821 1070.34,-134.718"/>
<polygon fill="none" stroke="midnightblue" points="1238.64,-228.535 1249.22,-227.903 1240.56,-221.802 1238.64,-228.535"/>
</g>
<!-- Node10 -->
<g id="node19" class="node"><title>Node10</title>
<a xlink:href="classGManager_1_1BrowserList.html" target="_top" xlink:title="List of Browsers in sidebar.">
<polygon fill="white" stroke="black" points="1117.5,-44.5 1117.5,-123.5 1236.5,-123.5 1236.5,-44.5 1117.5,-44.5"/>
<text text-anchor="middle" x="1177" y="-111.5" font-family="Helvetica,sans-Serif" font-size="10.00">GManager::BrowserList</text>
<polyline fill="none" stroke="black" points="1117.5,-104.5 1236.5,-104.5 "/>
<text text-anchor="middle" x="1177" y="-92.5" font-family="Helvetica,sans-Serif" font-size="10.00"> </text>
<polyline fill="none" stroke="black" points="1117.5,-85.5 1236.5,-85.5 "/>
<text text-anchor="start" x="1125.5" y="-73.5" font-family="Helvetica,sans-Serif" font-size="10.00">+ BrowserList()</text>
<text text-anchor="start" x="1125.5" y="-62.5" font-family="Helvetica,sans-Serif" font-size="10.00">+ add()</text>
<text text-anchor="start" x="1125.5" y="-51.5" font-family="Helvetica,sans-Serif" font-size="10.00">+ set()</text>
</a>
</g>
<!-- Node1&#45;&gt;Node10 -->
<g id="edge18" class="edge"><title>Node1&#45;&gt;Node10</title>
<path fill="none" stroke="midnightblue" d="M1271.94,-196.927C1263.26,-187.439 1254.27,-177.457 1246,-168 1233.54,-153.754 1220.17,-137.83 1208.55,-123.769"/>
<polygon fill="none" stroke="midnightblue" points="1269.47,-199.411 1278.81,-204.41 1274.63,-194.677 1269.47,-199.411"/>
</g>
<!-- Node11 -->
<g id="node21" class="node"><title>Node11</title>
<a xlink:href="classGManager_1_1Heartbeat.html" target="_top" xlink:title="A software clock that emits a signal every 500ms.">
<polygon fill="white" stroke="black" points="1255,-17 1255,-151 1375,-151 1375,-17 1255,-17"/>
<text text-anchor="middle" x="1315" y="-139" font-family="Helvetica,sans-Serif" font-size="10.00">GManager::Heartbeat</text>
<polyline fill="none" stroke="black" points="1255,-132 1375,-132 "/>
<text text-anchor="middle" x="1315" y="-120" font-family="Helvetica,sans-Serif" font-size="10.00"> </text>
<polyline fill="none" stroke="black" points="1255,-113 1375,-113 "/>
<text text-anchor="start" x="1263" y="-101" font-family="Helvetica,sans-Serif" font-size="10.00">+ Heartbeat()</text>
<text text-anchor="start" x="1263" y="-90" font-family="Helvetica,sans-Serif" font-size="10.00">+ ~Heartbeat()</text>
<text text-anchor="start" x="1263" y="-79" font-family="Helvetica,sans-Serif" font-size="10.00">+ signal_client_update()</text>
<text text-anchor="start" x="1263" y="-68" font-family="Helvetica,sans-Serif" font-size="10.00">+ play()</text>
<text text-anchor="start" x="1263" y="-57" font-family="Helvetica,sans-Serif" font-size="10.00">+ pause()</text>
<text text-anchor="start" x="1263" y="-46" font-family="Helvetica,sans-Serif" font-size="10.00">+ reset()</text>
<text text-anchor="start" x="1263" y="-35" font-family="Helvetica,sans-Serif" font-size="10.00">+ set()</text>
<text text-anchor="start" x="1263" y="-24" font-family="Helvetica,sans-Serif" font-size="10.00">+ get()</text>
</a>
</g>
<!-- Node1&#45;&gt;Node11 -->
<g id="edge20" class="edge"><title>Node1&#45;&gt;Node11</title>
<path fill="none" stroke="midnightblue" d="M1315,-194.266C1315,-180.679 1315,-165.685 1315,-151.272"/>
<polygon fill="none" stroke="midnightblue" points="1311.5,-194.349 1315,-204.349 1318.5,-194.349 1311.5,-194.349"/>
</g>
<!-- Node12 -->
<g id="node23" class="node"><title>Node12</title>
<a xlink:href="classGManager_1_1MenuList.html" target="_top" xlink:title="The Manager for the Topmenus.">
<polygon fill="white" stroke="black" points="1393.5,-50 1393.5,-118 1500.5,-118 1500.5,-50 1393.5,-50"/>
<text text-anchor="middle" x="1447" y="-106" font-family="Helvetica,sans-Serif" font-size="10.00">GManager::MenuList</text>
<polyline fill="none" stroke="black" points="1393.5,-99 1500.5,-99 "/>
<text text-anchor="middle" x="1447" y="-87" font-family="Helvetica,sans-Serif" font-size="10.00"> </text>
<polyline fill="none" stroke="black" points="1393.5,-80 1500.5,-80 "/>
<text text-anchor="start" x="1401.5" y="-68" font-family="Helvetica,sans-Serif" font-size="10.00">+ MenuList()</text>
<text text-anchor="start" x="1401.5" y="-57" font-family="Helvetica,sans-Serif" font-size="10.00">+ ~MenuList()</text>
</a>
</g>
<!-- Node1&#45;&gt;Node12 -->
<g id="edge22" class="edge"><title>Node1&#45;&gt;Node12</title>
<path fill="none" stroke="midnightblue" d="M1358.19,-196.512C1366.56,-187.187 1375.16,-177.373 1383,-168 1396.43,-151.951 1410.71,-133.571 1422.36,-118.194"/>
<polygon fill="none" stroke="midnightblue" points="1355.35,-194.441 1351.24,-204.208 1360.54,-199.132 1355.35,-194.441"/>
</g>
<!-- Node13 -->
<g id="node25" class="node"><title>Node13</title>
<a xlink:href="classGManager_1_1NotifyManager.html" target="_top" xlink:title="Manages Notifications that are triggered on player events.">
<polygon fill="white" stroke="black" points="1518.5,-55.5 1518.5,-112.5 1649.5,-112.5 1649.5,-55.5 1518.5,-55.5"/>
<text text-anchor="middle" x="1584" y="-100.5" font-family="Helvetica,sans-Serif" font-size="10.00">GManager::NotifyManager</text>
<polyline fill="none" stroke="black" points="1518.5,-93.5 1649.5,-93.5 "/>
<text text-anchor="middle" x="1584" y="-81.5" font-family="Helvetica,sans-Serif" font-size="10.00"> </text>
<polyline fill="none" stroke="black" points="1518.5,-74.5 1649.5,-74.5 "/>
<text text-anchor="start" x="1526.5" y="-62.5" font-family="Helvetica,sans-Serif" font-size="10.00">+ NotifyManager()</text>
</a>
</g>
<!-- Node1&#45;&gt;Node13 -->
<g id="edge24" class="edge"><title>Node1&#45;&gt;Node13</title>
<path fill="none" stroke="midnightblue" d="M1390.61,-222.856C1428.25,-210.645 1473.22,-192.606 1509,-168 1530.76,-153.033 1550.57,-130.544 1564.36,-112.748"/>
<polygon fill="none" stroke="midnightblue" points="1389.19,-219.636 1380.71,-225.991 1391.3,-226.309 1389.19,-219.636"/>
</g>
<!-- Node14 -->
<g id="node27" class="node"><title>Node14</title>
<a xlink:href="classGManager_1_1PlaybackButtons.html" target="_top" xlink:title="Manages the Playbackbuttons.">
<polygon fill="white" stroke="black" points="1668,-55.5 1668,-112.5 1810,-112.5 1810,-55.5 1668,-55.5"/>
<text text-anchor="middle" x="1739" y="-100.5" font-family="Helvetica,sans-Serif" font-size="10.00">GManager::PlaybackButtons</text>
<polyline fill="none" stroke="black" points="1668,-93.5 1810,-93.5 "/>
<text text-anchor="middle" x="1739" y="-81.5" font-family="Helvetica,sans-Serif" font-size="10.00"> </text>
<polyline fill="none" stroke="black" points="1668,-74.5 1810,-74.5 "/>
<text text-anchor="start" x="1676" y="-62.5" font-family="Helvetica,sans-Serif" font-size="10.00">+ PlaybackButtons()</text>
</a>
</g>
<!-- Node1&#45;&gt;Node14 -->
<g id="edge26" class="edge"><title>Node1&#45;&gt;Node14</title>
<path fill="none" stroke="midnightblue" d="M1390.52,-238.958C1463.11,-232.297 1573.87,-214.665 1658,-168 1682.47,-154.425 1704.25,-131.122 1719.04,-112.657"/>
<polygon fill="none" stroke="midnightblue" points="1390.2,-235.473 1380.54,-239.827 1390.81,-242.447 1390.2,-235.473"/>
</g>
<!-- Node15 -->
<g id="node29" class="node"><title>Node15</title>
<a xlink:href="classGManager_1_1Statusbar.html" target="_top" xlink:title="Manager for the statusbar.">
<polygon fill="white" stroke="black" points="1828,-50 1828,-118 1938,-118 1938,-50 1828,-50"/>
<text text-anchor="middle" x="1883" y="-106" font-family="Helvetica,sans-Serif" font-size="10.00">GManager::Statusbar</text>
<polyline fill="none" stroke="black" points="1828,-99 1938,-99 "/>
<text text-anchor="middle" x="1883" y="-87" font-family="Helvetica,sans-Serif" font-size="10.00"> </text>
<polyline fill="none" stroke="black" points="1828,-80 1938,-80 "/>
<text text-anchor="start" x="1836" y="-68" font-family="Helvetica,sans-Serif" font-size="10.00">+ Statusbar()</text>
<text text-anchor="start" x="1836" y="-57" font-family="Helvetica,sans-Serif" font-size="10.00">+ ~Statusbar()</text>
</a>
</g>
<!-- Node1&#45;&gt;Node15 -->
<g id="edge28" class="edge"><title>Node1&#45;&gt;Node15</title>
<path fill="none" stroke="midnightblue" d="M1391.01,-238.621C1513.48,-230.428 1747.95,-209.709 1819,-168 1838.93,-156.301 1854.84,-135.783 1865.81,-118.074"/>
<polygon fill="none" stroke="midnightblue" points="1390.7,-235.134 1380.95,-239.282 1391.16,-242.118 1390.7,-235.134"/>
</g>
<!-- Node16 -->
<g id="node31" class="node"><title>Node16</title>
<a xlink:href="classGManager_1_1Statusicons.html" target="_top" xlink:title="Manager for the status icons in the down sidebar.">
<polygon fill="white" stroke="black" points="1956.5,-55.5 1956.5,-112.5 2075.5,-112.5 2075.5,-55.5 1956.5,-55.5"/>
<text text-anchor="middle" x="2016" y="-100.5" font-family="Helvetica,sans-Serif" font-size="10.00">GManager::Statusicons</text>
<polyline fill="none" stroke="black" points="1956.5,-93.5 2075.5,-93.5 "/>
<text text-anchor="middle" x="2016" y="-81.5" font-family="Helvetica,sans-Serif" font-size="10.00"> </text>
<polyline fill="none" stroke="black" points="1956.5,-74.5 2075.5,-74.5 "/>
<text text-anchor="start" x="1964.5" y="-62.5" font-family="Helvetica,sans-Serif" font-size="10.00">+ Statusicons()</text>
</a>
</g>
<!-- Node1&#45;&gt;Node16 -->
<g id="edge30" class="edge"><title>Node1&#45;&gt;Node16</title>
<path fill="none" stroke="midnightblue" d="M1390.92,-240.963C1537.35,-235.912 1852.66,-219.254 1947,-168 1970.22,-155.387 1988.79,-131.489 2000.79,-112.563"/>
<polygon fill="none" stroke="midnightblue" points="1390.55,-237.473 1380.68,-241.307 1390.79,-244.469 1390.55,-237.473"/>
</g>
<!-- Node17 -->
<g id="node33" class="node"><title>Node17</title>
<a xlink:href="classGManager_1_1Timeslide.html" target="_top" xlink:title="Manager for the Timeslide in the topbar.">
<polygon fill="white" stroke="black" points="2094,-55.5 2094,-112.5 2204,-112.5 2204,-55.5 2094,-55.5"/>
<text text-anchor="middle" x="2149" y="-100.5" font-family="Helvetica,sans-Serif" font-size="10.00">GManager::Timeslide</text>
<polyline fill="none" stroke="black" points="2094,-93.5 2204,-93.5 "/>
<text text-anchor="middle" x="2149" y="-81.5" font-family="Helvetica,sans-Serif" font-size="10.00"> </text>
<polyline fill="none" stroke="black" points="2094,-74.5 2204,-74.5 "/>
<text text-anchor="start" x="2102" y="-62.5" font-family="Helvetica,sans-Serif" font-size="10.00">+ Timeslide()</text>
</a>
</g>
<!-- Node1&#45;&gt;Node17 -->
<g id="edge32" class="edge"><title>Node1&#45;&gt;Node17</title>
<path fill="none" stroke="midnightblue" d="M1390.75,-243.076C1560.56,-242.067 1966.02,-232.735 2084,-168 2106.62,-155.586 2124.05,-131.668 2135.13,-112.684"/>
<polygon fill="none" stroke="midnightblue" points="1390.63,-239.577 1380.64,-243.128 1390.66,-246.577 1390.63,-239.577"/>
</g>
<!-- Node18 -->
<g id="node35" class="node"><title>Node18</title>
<a xlink:href="classGManager_1_1TitleLabel.html" target="_top" xlink:title="Updates the top titlelabel, and the down nextsong label in the sidebar.">
<polygon fill="white" stroke="black" points="2222,-55.5 2222,-112.5 2332,-112.5 2332,-55.5 2222,-55.5"/>
<text text-anchor="middle" x="2277" y="-100.5" font-family="Helvetica,sans-Serif" font-size="10.00">GManager::TitleLabel</text>
<polyline fill="none" stroke="black" points="2222,-93.5 2332,-93.5 "/>
<text text-anchor="middle" x="2277" y="-81.5" font-family="Helvetica,sans-Serif" font-size="10.00"> </text>
<polyline fill="none" stroke="black" points="2222,-74.5 2332,-74.5 "/>
<text text-anchor="start" x="2230" y="-62.5" font-family="Helvetica,sans-Serif" font-size="10.00">+ TitleLabel()</text>
</a>
</g>
<!-- Node1&#45;&gt;Node18 -->
<g id="edge34" class="edge"><title>Node1&#45;&gt;Node18</title>
<path fill="none" stroke="midnightblue" d="M1390.73,-240.166C1594.09,-232.068 2141.6,-206.879 2213,-168 2235.53,-155.73 2252.66,-131.798 2263.5,-112.772"/>
<polygon fill="none" stroke="midnightblue" points="1390.58,-236.669 1380.73,-240.562 1390.86,-243.664 1390.58,-236.669"/>
</g>
<!-- Node19 -->
<g id="node37" class="node"><title>Node19</title>
<a xlink:href="classGManager_1_1Trayicon.html" target="_top" xlink:title="Manager for the trayicon.">
<polygon fill="white" stroke="black" points="2350.5,-55.5 2350.5,-112.5 2455.5,-112.5 2455.5,-55.5 2350.5,-55.5"/>
<text text-anchor="middle" x="2403" y="-100.5" font-family="Helvetica,sans-Serif" font-size="10.00">GManager::Trayicon</text>
<polyline fill="none" stroke="black" points="2350.5,-93.5 2455.5,-93.5 "/>
<text text-anchor="middle" x="2403" y="-81.5" font-family="Helvetica,sans-Serif" font-size="10.00"> </text>
<polyline fill="none" stroke="black" points="2350.5,-74.5 2455.5,-74.5 "/>
<text text-anchor="start" x="2358.5" y="-62.5" font-family="Helvetica,sans-Serif" font-size="10.00">+ Trayicon()</text>
</a>
</g>
<!-- Node1&#45;&gt;Node19 -->
<g id="edge36" class="edge"><title>Node1&#45;&gt;Node19</title>
<path fill="none" stroke="midnightblue" d="M1390.83,-241.071C1614.05,-234.892 2258.31,-213.29 2341,-168 2363.24,-155.817 2379.79,-131.876 2390.17,-112.824"/>
<polygon fill="none" stroke="midnightblue" points="1390.42,-237.581 1380.52,-241.353 1390.62,-244.578 1390.42,-237.581"/>
</g>
<!-- Node20 -->
<g id="node39" class="node"><title>Node20</title>
<a xlink:href="classGManager_1_1Volumebutton.html" target="_top" xlink:title="Manages the Volumebutton.">
<polygon fill="white" stroke="black" points="2474,-55.5 2474,-112.5 2602,-112.5 2602,-55.5 2474,-55.5"/>
<text text-anchor="middle" x="2538" y="-100.5" font-family="Helvetica,sans-Serif" font-size="10.00">GManager::Volumebutton</text>
<polyline fill="none" stroke="black" points="2474,-93.5 2602,-93.5 "/>
<text text-anchor="middle" x="2538" y="-81.5" font-family="Helvetica,sans-Serif" font-size="10.00"> </text>
<polyline fill="none" stroke="black" points="2474,-74.5 2602,-74.5 "/>
<text text-anchor="start" x="2482" y="-62.5" font-family="Helvetica,sans-Serif" font-size="10.00">+ Volumebutton()</text>
</a>
</g>
<!-- Node1&#45;&gt;Node20 -->
<g id="edge38" class="edge"><title>Node1&#45;&gt;Node20</title>
<path fill="none" stroke="midnightblue" d="M1390.95,-241.368C1631.75,-235.735 2368.03,-214.826 2464,-168 2488.64,-155.979 2508.71,-131.757 2521.7,-112.567"/>
<polygon fill="none" stroke="midnightblue" points="1390.8,-237.87 1380.88,-241.601 1390.96,-244.868 1390.8,-237.87"/>
</g>
</g>
</svg>
