<?xml version="1.0" encoding="UTF-8" standalone="no"?>
<!DOCTYPE svg PUBLIC "-//W3C//DTD SVG 1.1//EN"
 "http://www.w3.org/Graphics/SVG/1.1/DTD/svg11.dtd">
<!-- Generated by graphviz version 2.28.0 (20120217.0315)
 -->
<!-- Title: G Pages: 1 -->
<svg width="390pt" height="66pt"
 viewBox="0.00 0.00 390.00 66.00" xmlns="http://www.w3.org/2000/svg" xmlns:xlink="http://www.w3.org/1999/xlink">
<g id="graph1" class="graph" transform="scale(1 1) rotate(0) translate(4 62)">
<title>G</title>
<polygon fill="white" stroke="white" points="-4,5 -4,-62 387,-62 387,5 -4,5"/>
<!-- Node1 -->
<g id="node1" class="node"><title>Node1</title>
<polygon fill="#bfbfbf" stroke="black" points="0,-19.5 0,-38.5 124,-38.5 124,-19.5 0,-19.5"/>
<text text-anchor="middle" x="62" y="-26.5" font-family="Helvetica,sans-Serif" font-size="10.00">MPD::Status::get_single</text>
</g>
<!-- Node2 -->
<g id="node3" class="node"><title>Node2</title>
<a xlink:href="classMPDTestSuite.html#ad7ec644d8d87f5c1d920b402db652b82" target="_top" xlink:title="MPDTestSuite::toggleCommandsClientUpdate">
<polygon fill="white" stroke="black" points="160.5,-38.5 160.5,-57.5 381.5,-57.5 381.5,-38.5 160.5,-38.5"/>
<text text-anchor="middle" x="271" y="-45.5" font-family="Helvetica,sans-Serif" font-size="10.00">MPDTestSuite::toggleCommandsClientUpdate</text>
</a>
</g>
<!-- Node1&#45;&gt;Node2 -->
<g id="edge2" class="edge"><title>Node1&#45;&gt;Node2</title>
<path fill="none" stroke="midnightblue" d="M134.383,-35.552C144.673,-36.4965 155.433,-37.4842 166.197,-38.4722"/>
<polygon fill="midnightblue" stroke="midnightblue" points="134.545,-32.0523 124.267,-34.6235 133.905,-39.023 134.545,-32.0523"/>
</g>
<!-- Node3 -->
<g id="node5" class="node"><title>Node3</title>
<a xlink:href="classMPDTestSuite.html#a31339f9f36aa7325309729bec095002e" target="_top" xlink:title="MPDTestSuite::testToggleCommands">
<polygon fill="white" stroke="black" points="179.5,-0.5 179.5,-19.5 362.5,-19.5 362.5,-0.5 179.5,-0.5"/>
<text text-anchor="middle" x="271" y="-7.5" font-family="Helvetica,sans-Serif" font-size="10.00">MPDTestSuite::testToggleCommands</text>
</a>
</g>
<!-- Node1&#45;&gt;Node3 -->
<g id="edge4" class="edge"><title>Node1&#45;&gt;Node3</title>
<path fill="none" stroke="midnightblue" d="M134.594,-22.4285C149.025,-21.104 164.374,-19.6952 179.357,-18.3199"/>
<polygon fill="midnightblue" stroke="midnightblue" points="133.905,-18.977 124.267,-23.3765 134.545,-25.9477 133.905,-18.977"/>
</g>
</g>
</svg>
