<?xml version="1.0" encoding="UTF-8" standalone="no"?>
<!DOCTYPE svg PUBLIC "-//W3C//DTD SVG 1.1//EN"
 "http://www.w3.org/Graphics/SVG/1.1/DTD/svg11.dtd">
<!-- Generated by graphviz version 2.28.0 (20111204.1018)
 -->
<!-- Title: G Pages: 1 -->
<svg width="138pt" height="248pt"
 viewBox="0.00 0.00 138.00 248.00" xmlns="http://www.w3.org/2000/svg" xmlns:xlink="http://www.w3.org/1999/xlink">
<g id="graph1" class="graph" transform="scale(1 1) rotate(0) translate(4 244)">
<title>G</title>
<polygon fill="white" stroke="white" points="-4,5 -4,-244 135,-244 135,5 -4,5"/>
<!-- Node1 -->
<g id="node1" class="node"><title>Node1</title>
<polygon fill="#bfbfbf" stroke="black" points="-0.5,-0.5 -0.5,-101.5 130.5,-101.5 130.5,-0.5 -0.5,-0.5"/>
<text text-anchor="middle" x="65" y="-89.5" font-family="Helvetica,sans-Serif" font-size="10.00">Browser::SettingsNetwork</text>
<polyline fill="none" stroke="black" points="-0.5,-82.5 130.5,-82.5 "/>
<text text-anchor="middle" x="65" y="-70.5" font-family="Helvetica,sans-Serif" font-size="10.00"> </text>
<polyline fill="none" stroke="black" points="-0.5,-63.5 130.5,-63.5 "/>
<text text-anchor="start" x="7.5" y="-51.5" font-family="Helvetica,sans-Serif" font-size="10.00">+ SettingsNetwork()</text>
<text text-anchor="start" x="7.5" y="-40.5" font-family="Helvetica,sans-Serif" font-size="10.00">+ ~SettingsNetwork()</text>
<text text-anchor="start" x="7.5" y="-29.5" font-family="Helvetica,sans-Serif" font-size="10.00">+ accept_new_settings()</text>
<text text-anchor="start" x="7.5" y="-18.5" font-family="Helvetica,sans-Serif" font-size="10.00">+ decline_new_settings()</text>
<text text-anchor="start" x="7.5" y="-7.5" font-family="Helvetica,sans-Serif" font-size="10.00">+ reset_settings()</text>
</g>
<!-- Node2 -->
<g id="node2" class="node"><title>Node2</title>
<a xlink:href="classBrowser_1_1AbstractSettings.html" target="_top" xlink:title="Abstract base class for every Tab in the Settingsbrowser.">
<polygon fill="white" stroke="black" points="-0.5,-138.5 -0.5,-239.5 130.5,-239.5 130.5,-138.5 -0.5,-138.5"/>
<text text-anchor="middle" x="65" y="-227.5" font-family="Helvetica,sans-Serif" font-size="10.00">Browser::AbstractSettings</text>
<polyline fill="none" stroke="black" points="-0.5,-220.5 130.5,-220.5 "/>
<text text-anchor="middle" x="65" y="-208.5" font-family="Helvetica,sans-Serif" font-size="10.00"> </text>
<polyline fill="none" stroke="black" points="-0.5,-201.5 130.5,-201.5 "/>
<text text-anchor="start" x="7.5" y="-189.5" font-family="Helvetica,sans-Serif" font-size="10.00">+ AbstractSettings()</text>
<text text-anchor="start" x="7.5" y="-178.5" font-family="Helvetica,sans-Serif" font-size="10.00">+ ~AbstractSettings()</text>
<text text-anchor="start" x="7.5" y="-167.5" font-family="Helvetica,sans-Serif" font-size="10.00">+ accept_new_settings()</text>
<text text-anchor="start" x="7.5" y="-156.5" font-family="Helvetica,sans-Serif" font-size="10.00">+ decline_new_settings()</text>
<text text-anchor="start" x="7.5" y="-145.5" font-family="Helvetica,sans-Serif" font-size="10.00">+ reset_settings()</text>
</a>
</g>
<!-- Node2&#45;&gt;Node1 -->
<g id="edge2" class="edge"><title>Node2&#45;&gt;Node1</title>
<path fill="none" stroke="midnightblue" d="M65,-128C65,-119.271 65,-110.363 65,-101.863"/>
<polygon fill="none" stroke="midnightblue" points="61.5001,-128.131 65,-138.131 68.5001,-128.131 61.5001,-128.131"/>
</g>
</g>
</svg>
