<?xml version="1.0" encoding="UTF-8" standalone="no"?>
<!DOCTYPE svg PUBLIC "-//W3C//DTD SVG 1.1//EN"
 "http://www.w3.org/Graphics/SVG/1.1/DTD/svg11.dtd">
<!-- Generated by graphviz version 2.28.0 (20120217.0315)
 -->
<!-- Title: G Pages: 1 -->
<svg width="454pt" height="1264pt"
 viewBox="0.00 0.00 454.00 1264.00" xmlns="http://www.w3.org/2000/svg" xmlns:xlink="http://www.w3.org/1999/xlink">
<g id="graph1" class="graph" transform="scale(1 1) rotate(0) translate(4 1260)">
<title>G</title>
<polygon fill="white" stroke="white" points="-4,5 -4,-1260 451,-1260 451,5 -4,5"/>
<!-- Node1 -->
<g id="node1" class="node"><title>Node1</title>
<polygon fill="#bfbfbf" stroke="black" points="268.5,-0.5 268.5,-79.5 393.5,-79.5 393.5,-0.5 268.5,-0.5"/>
<text text-anchor="middle" x="331" y="-67.5" font-family="Helvetica,sans-Serif" font-size="10.00">GManager::VolumeSlider</text>
<polyline fill="none" stroke="black" points="268.5,-60.5 393.5,-60.5 "/>
<text text-anchor="middle" x="331" y="-48.5" font-family="Helvetica,sans-Serif" font-size="10.00"> </text>
<polyline fill="none" stroke="black" points="268.5,-41.5 393.5,-41.5 "/>
<text text-anchor="start" x="276.5" y="-29.5" font-family="Helvetica,sans-Serif" font-size="10.00">+ VolumeSlider()</text>
<text text-anchor="start" x="276.5" y="-18.5" font-family="Helvetica,sans-Serif" font-size="10.00"># on_draw()</text>
<text text-anchor="start" x="276.5" y="-7.5" font-family="Helvetica,sans-Serif" font-size="10.00"># on_percent_change()</text>
</g>
<!-- Node2 -->
<g id="node2" class="node"><title>Node2</title>
<a xlink:href="classMPD_1_1AbstractClientUser.html" target="_top" xlink:title="{MPD::AbstractClientUser\n||+ AbstractClientUser()\l# on_client_update()\l# on_connection_change()\l}">
<polygon fill="white" stroke="black" points="180.5,-157.5 180.5,-236.5 311.5,-236.5 311.5,-157.5 180.5,-157.5"/>
<text text-anchor="middle" x="246" y="-224.5" font-family="Helvetica,sans-Serif" font-size="10.00">MPD::AbstractClientUser</text>
<polyline fill="none" stroke="black" points="180.5,-217.5 311.5,-217.5 "/>
<text text-anchor="middle" x="246" y="-205.5" font-family="Helvetica,sans-Serif" font-size="10.00"> </text>
<polyline fill="none" stroke="black" points="180.5,-198.5 311.5,-198.5 "/>
<text text-anchor="start" x="188.5" y="-186.5" font-family="Helvetica,sans-Serif" font-size="10.00">+ AbstractClientUser()</text>
<text text-anchor="start" x="188.5" y="-175.5" font-family="Helvetica,sans-Serif" font-size="10.00"># on_client_update()</text>
<text text-anchor="start" x="188.5" y="-164.5" font-family="Helvetica,sans-Serif" font-size="10.00"># on_connection_change()</text>
</a>
</g>
<!-- Node2&#45;&gt;Node1 -->
<g id="edge2" class="edge"><title>Node2&#45;&gt;Node1</title>
<path fill="none" stroke="midnightblue" d="M272.09,-148.424C284.167,-126.401 298.333,-100.57 309.746,-79.7569"/>
<polygon fill="none" stroke="midnightblue" points="268.969,-146.836 267.23,-157.287 275.107,-150.202 268.969,-146.836"/>
</g>
<!-- Node3 -->
<g id="node4" class="node"><title>Node3</title>
<a xlink:href="classMPD_1_1Client.html" target="_top" xlink:title="The client implements concrete commands of the MPD Protocol.">
<polygon fill="white" stroke="black" points="173,-325 173,-789 319,-789 319,-325 173,-325"/>
<text text-anchor="middle" x="246" y="-777" font-family="Helvetica,sans-Serif" font-size="10.00">MPD::Client</text>
<polyline fill="none" stroke="black" points="173,-770 319,-770 "/>
<text text-anchor="middle" x="246" y="-758" font-family="Helvetica,sans-Serif" font-size="10.00"> </text>
<polyline fill="none" stroke="black" points="173,-751 319,-751 "/>
<text text-anchor="start" x="181" y="-739" font-family="Helvetica,sans-Serif" font-size="10.00">+ Client()</text>
<text text-anchor="start" x="181" y="-728" font-family="Helvetica,sans-Serif" font-size="10.00">+ ~Client()</text>
<text text-anchor="start" x="181" y="-717" font-family="Helvetica,sans-Serif" font-size="10.00">+ connect()</text>
<text text-anchor="start" x="181" y="-706" font-family="Helvetica,sans-Serif" font-size="10.00">+ disconnect()</text>
<text text-anchor="start" x="181" y="-695" font-family="Helvetica,sans-Serif" font-size="10.00">+ playback_next()</text>
<text text-anchor="start" x="181" y="-684" font-family="Helvetica,sans-Serif" font-size="10.00">+ playback_prev()</text>
<text text-anchor="start" x="181" y="-673" font-family="Helvetica,sans-Serif" font-size="10.00">+ playback_stop()</text>
<text text-anchor="start" x="181" y="-662" font-family="Helvetica,sans-Serif" font-size="10.00">+ playback_play()</text>
<text text-anchor="start" x="181" y="-651" font-family="Helvetica,sans-Serif" font-size="10.00">+ playback_pause()</text>
<text text-anchor="start" x="181" y="-640" font-family="Helvetica,sans-Serif" font-size="10.00">+ playback_seek()</text>
<text text-anchor="start" x="181" y="-629" font-family="Helvetica,sans-Serif" font-size="10.00">and 5 more...+ playlist_save()</text>
<text text-anchor="start" x="181" y="-618" font-family="Helvetica,sans-Serif" font-size="10.00">+ queue_add()</text>
<text text-anchor="start" x="181" y="-607" font-family="Helvetica,sans-Serif" font-size="10.00">+ queue_clear()</text>
<text text-anchor="start" x="181" y="-596" font-family="Helvetica,sans-Serif" font-size="10.00">+ queue_delete()</text>
<text text-anchor="start" x="181" y="-585" font-family="Helvetica,sans-Serif" font-size="10.00">+ database_update()</text>
<text text-anchor="start" x="181" y="-574" font-family="Helvetica,sans-Serif" font-size="10.00">+ database_rescan()</text>
<text text-anchor="start" x="181" y="-563" font-family="Helvetica,sans-Serif" font-size="10.00">+ set_volume()</text>
<text text-anchor="start" x="181" y="-552" font-family="Helvetica,sans-Serif" font-size="10.00">+ fill_queue()</text>
<text text-anchor="start" x="181" y="-541" font-family="Helvetica,sans-Serif" font-size="10.00">+ fill_queue_changes()</text>
<text text-anchor="start" x="181" y="-530" font-family="Helvetica,sans-Serif" font-size="10.00">+ fill_playlists()</text>
<text text-anchor="start" x="181" y="-519" font-family="Helvetica,sans-Serif" font-size="10.00">+ fill_outputs()</text>
<text text-anchor="start" x="181" y="-508" font-family="Helvetica,sans-Serif" font-size="10.00">+ fill_filelist()</text>
<text text-anchor="start" x="181" y="-497" font-family="Helvetica,sans-Serif" font-size="10.00">+ send_command()</text>
<text text-anchor="start" x="181" y="-486" font-family="Helvetica,sans-Serif" font-size="10.00">+ ping()</text>
<text text-anchor="start" x="181" y="-475" font-family="Helvetica,sans-Serif" font-size="10.00">* playlist_save()</text>
<text text-anchor="start" x="181" y="-464" font-family="Helvetica,sans-Serif" font-size="10.00">* queue_add()</text>
<text text-anchor="start" x="181" y="-453" font-family="Helvetica,sans-Serif" font-size="10.00">* queue_clear()</text>
<text text-anchor="start" x="181" y="-442" font-family="Helvetica,sans-Serif" font-size="10.00">* queue_delete()</text>
<text text-anchor="start" x="181" y="-431" font-family="Helvetica,sans-Serif" font-size="10.00">* database_update()</text>
<text text-anchor="start" x="181" y="-420" font-family="Helvetica,sans-Serif" font-size="10.00">* database_rescan()</text>
<text text-anchor="start" x="181" y="-409" font-family="Helvetica,sans-Serif" font-size="10.00">* set_volume()</text>
<text text-anchor="start" x="181" y="-398" font-family="Helvetica,sans-Serif" font-size="10.00">* fill_queue()</text>
<text text-anchor="start" x="181" y="-387" font-family="Helvetica,sans-Serif" font-size="10.00">* fill_queue_changes()</text>
<text text-anchor="start" x="181" y="-376" font-family="Helvetica,sans-Serif" font-size="10.00">* fill_playlists()</text>
<text text-anchor="start" x="181" y="-365" font-family="Helvetica,sans-Serif" font-size="10.00">* fill_outputs()</text>
<text text-anchor="start" x="181" y="-354" font-family="Helvetica,sans-Serif" font-size="10.00">* fill_filelist()</text>
<text text-anchor="start" x="181" y="-343" font-family="Helvetica,sans-Serif" font-size="10.00">* send_command()</text>
<text text-anchor="start" x="181" y="-332" font-family="Helvetica,sans-Serif" font-size="10.00">* ping()</text>
</a>
</g>
<!-- Node3&#45;&gt;Node2 -->
<g id="edge4" class="edge"><title>Node3&#45;&gt;Node2</title>
<path fill="none" stroke="#404040" d="M246,-324.973C246,-296.651 246,-270.232 246,-248.907"/>
<polygon fill="none" stroke="#404040" points="246,-248.64 242,-242.64 246,-236.64 250,-242.64 246,-248.64"/>
<text text-anchor="middle" x="270" y="-297.5" font-family="Helvetica,sans-Serif" font-size="10.00"> mp_Client</text>
</g>
<!-- Node4 -->
<g id="node6" class="node"><title>Node4</title>
<a xlink:href="classMPD_1_1BaseClient.html" target="_top" xlink:title="The Base to MPD::Client.">
<polygon fill="white" stroke="black" points="51,-828.5 51,-1039.5 197,-1039.5 197,-828.5 51,-828.5"/>
<text text-anchor="middle" x="124" y="-1027.5" font-family="Helvetica,sans-Serif" font-size="10.00">MPD::BaseClient</text>
<polyline fill="none" stroke="black" points="51,-1020.5 197,-1020.5 "/>
<text text-anchor="middle" x="124" y="-1008.5" font-family="Helvetica,sans-Serif" font-size="10.00"> </text>
<polyline fill="none" stroke="black" points="51,-1001.5 197,-1001.5 "/>
<text text-anchor="start" x="59" y="-989.5" font-family="Helvetica,sans-Serif" font-size="10.00">+ go_idle()</text>
<text text-anchor="start" x="59" y="-978.5" font-family="Helvetica,sans-Serif" font-size="10.00">+ go_busy()</text>
<text text-anchor="start" x="59" y="-967.5" font-family="Helvetica,sans-Serif" font-size="10.00">+ get_connection()</text>
<text text-anchor="start" x="59" y="-956.5" font-family="Helvetica,sans-Serif" font-size="10.00">+ is_connected()</text>
<text text-anchor="start" x="59" y="-945.5" font-family="Helvetica,sans-Serif" font-size="10.00">+ begin()</text>
<text text-anchor="start" x="59" y="-934.5" font-family="Helvetica,sans-Serif" font-size="10.00">+ commit()</text>
<text text-anchor="start" x="59" y="-923.5" font-family="Helvetica,sans-Serif" font-size="10.00">+ get_status()</text>
<text text-anchor="start" x="59" y="-912.5" font-family="Helvetica,sans-Serif" font-size="10.00">+ signal_client_update()</text>
<text text-anchor="start" x="59" y="-901.5" font-family="Helvetica,sans-Serif" font-size="10.00">+ signal_connection_change()</text>
<text text-anchor="start" x="59" y="-890.5" font-family="Helvetica,sans-Serif" font-size="10.00">+ force_update()</text>
<text text-anchor="start" x="59" y="-879.5" font-family="Helvetica,sans-Serif" font-size="10.00">+ create_db_songs_query()</text>
<text text-anchor="start" x="59" y="-868.5" font-family="Helvetica,sans-Serif" font-size="10.00">+ create_db_tag_query()</text>
<text text-anchor="start" x="59" y="-857.5" font-family="Helvetica,sans-Serif" font-size="10.00"># BaseClient()</text>
<text text-anchor="start" x="59" y="-846.5" font-family="Helvetica,sans-Serif" font-size="10.00"># __connect()</text>
<text text-anchor="start" x="59" y="-835.5" font-family="Helvetica,sans-Serif" font-size="10.00"># __disconnect()</text>
</a>
</g>
<!-- Node4&#45;&gt;Node3 -->
<g id="edge6" class="edge"><title>Node4&#45;&gt;Node3</title>
<path fill="none" stroke="midnightblue" d="M161.282,-818.402C165.058,-806.796 168.978,-794.749 172.969,-782.481"/>
<polygon fill="none" stroke="midnightblue" points="157.912,-817.451 158.146,-828.043 164.568,-819.616 157.912,-817.451"/>
</g>
<!-- Node5 -->
<g id="node8" class="node"><title>Node5</title>
<a xlink:href="classMPD_1_1Listener.html" target="_top" xlink:title="Listener for Server events, Freya&#39;s actual core.">
<polygon fill="white" stroke="black" points="0,-1110.5 0,-1233.5 88,-1233.5 88,-1110.5 0,-1110.5"/>
<text text-anchor="middle" x="44" y="-1221.5" font-family="Helvetica,sans-Serif" font-size="10.00">MPD::Listener</text>
<polyline fill="none" stroke="black" points="0,-1214.5 88,-1214.5 "/>
<text text-anchor="middle" x="44" y="-1202.5" font-family="Helvetica,sans-Serif" font-size="10.00"> </text>
<polyline fill="none" stroke="black" points="0,-1195.5 88,-1195.5 "/>
<text text-anchor="start" x="8" y="-1183.5" font-family="Helvetica,sans-Serif" font-size="10.00">+ Listener()</text>
<text text-anchor="start" x="8" y="-1172.5" font-family="Helvetica,sans-Serif" font-size="10.00">+ ~Listener()</text>
<text text-anchor="start" x="8" y="-1161.5" font-family="Helvetica,sans-Serif" font-size="10.00">+ enter()</text>
<text text-anchor="start" x="8" y="-1150.5" font-family="Helvetica,sans-Serif" font-size="10.00">+ leave()</text>
<text text-anchor="start" x="8" y="-1139.5" font-family="Helvetica,sans-Serif" font-size="10.00">+ is_idling()</text>
<text text-anchor="start" x="8" y="-1128.5" font-family="Helvetica,sans-Serif" font-size="10.00">+ get_data()</text>
<text text-anchor="start" x="8" y="-1117.5" font-family="Helvetica,sans-Serif" font-size="10.00">+ force_update()</text>
</a>
</g>
<!-- Node5&#45;&gt;Node4 -->
<g id="edge8" class="edge"><title>Node5&#45;&gt;Node4</title>
<path fill="none" stroke="#404040" d="M50.8333,-1110.39C53.6693,-1093.21 57.6015,-1074.65 63,-1058 63.7305,-1055.75 64.4961,-1053.48 65.2932,-1051.21"/>
<polygon fill="none" stroke="#404040" points="65.3425,-1051.08 63.6827,-1044.06 69.522,-1039.83 71.1818,-1046.85 65.3425,-1051.08"/>
<text text-anchor="middle" x="91.5" y="-1061.5" font-family="Helvetica,sans-Serif" font-size="10.00"> mp_Listener</text>
</g>
<!-- Node6 -->
<g id="node10" class="node"><title>Node6</title>
<polygon fill="white" stroke="#bfbfbf" points="106.5,-1143.5 106.5,-1200.5 141.5,-1200.5 141.5,-1143.5 106.5,-1143.5"/>
<text text-anchor="middle" x="124" y="-1188.5" font-family="Helvetica,sans-Serif" font-size="10.00">bool</text>
<polyline fill="none" stroke="#bfbfbf" points="106.5,-1181.5 141.5,-1181.5 "/>
<text text-anchor="middle" x="124" y="-1169.5" font-family="Helvetica,sans-Serif" font-size="10.00"> </text>
<polyline fill="none" stroke="#bfbfbf" points="106.5,-1162.5 141.5,-1162.5 "/>
<text text-anchor="middle" x="124" y="-1150.5" font-family="Helvetica,sans-Serif" font-size="10.00"> </text>
</g>
<!-- Node6&#45;&gt;Node4 -->
<g id="edge10" class="edge"><title>Node6&#45;&gt;Node4</title>
<path fill="none" stroke="#404040" d="M124,-1143.47C124,-1120.46 124,-1085.99 124,-1051.68"/>
<polygon fill="none" stroke="#404040" points="124,-1051.56 120,-1045.56 124,-1039.56 128,-1045.56 124,-1051.56"/>
<text text-anchor="middle" x="154.5" y="-1061.5" font-family="Helvetica,sans-Serif" font-size="10.00"> m_ListBegun</text>
</g>
<!-- Node7 -->
<g id="node12" class="node"><title>Node7</title>
<a xlink:href="classMPD_1_1Connection.html" target="_top" xlink:title="A convinience Wrapper around mpd_connection*.">
<polygon fill="white" stroke="black" points="160,-1088.5 160,-1255.5 306,-1255.5 306,-1088.5 160,-1088.5"/>
<text text-anchor="middle" x="233" y="-1243.5" font-family="Helvetica,sans-Serif" font-size="10.00">MPD::Connection</text>
<polyline fill="none" stroke="black" points="160,-1236.5 306,-1236.5 "/>
<text text-anchor="middle" x="233" y="-1224.5" font-family="Helvetica,sans-Serif" font-size="10.00"> </text>
<polyline fill="none" stroke="black" points="160,-1217.5 306,-1217.5 "/>
<text text-anchor="start" x="168" y="-1205.5" font-family="Helvetica,sans-Serif" font-size="10.00">+ Connection()</text>
<text text-anchor="start" x="168" y="-1194.5" font-family="Helvetica,sans-Serif" font-size="10.00">+ ~Connection()</text>
<text text-anchor="start" x="168" y="-1183.5" font-family="Helvetica,sans-Serif" font-size="10.00">+ is_connected()</text>
<text text-anchor="start" x="168" y="-1172.5" font-family="Helvetica,sans-Serif" font-size="10.00">+ connect()</text>
<text text-anchor="start" x="168" y="-1161.5" font-family="Helvetica,sans-Serif" font-size="10.00">+ disconnect()</text>
<text text-anchor="start" x="168" y="-1150.5" font-family="Helvetica,sans-Serif" font-size="10.00">+ clear_error()</text>
<text text-anchor="start" x="168" y="-1139.5" font-family="Helvetica,sans-Serif" font-size="10.00">+ check_error()</text>
<text text-anchor="start" x="168" y="-1128.5" font-family="Helvetica,sans-Serif" font-size="10.00">+ signal_error()</text>
<text text-anchor="start" x="168" y="-1117.5" font-family="Helvetica,sans-Serif" font-size="10.00">+ signal_connection_change()</text>
<text text-anchor="start" x="168" y="-1106.5" font-family="Helvetica,sans-Serif" font-size="10.00">+ emit_connection_change()</text>
<text text-anchor="start" x="168" y="-1095.5" font-family="Helvetica,sans-Serif" font-size="10.00">+ get_connection()</text>
</a>
</g>
<!-- Node7&#45;&gt;Node4 -->
<g id="edge12" class="edge"><title>Node7&#45;&gt;Node4</title>
<path fill="none" stroke="#404040" d="M202.13,-1088.45C197.895,-1078.12 193.464,-1067.77 189,-1058 187.878,-1055.55 186.731,-1053.07 185.562,-1050.58"/>
<polygon fill="none" stroke="#404040" points="185.49,-1050.43 179.292,-1046.75 180.311,-1039.61 186.509,-1043.3 185.49,-1050.43"/>
<text text-anchor="middle" x="214" y="-1061.5" font-family="Helvetica,sans-Serif" font-size="10.00"> m_Conn</text>
</g>
<!-- Node8 -->
<g id="node14" class="node"><title>Node8</title>
<a xlink:href="classMPD_1_1AbstractItemGenerator.html" target="_top" xlink:title="{MPD::AbstractItemGenerator\n||+ fill_queue()\l+ fill_queue_changes()\l+ fill_playlists()\l+ fill_outputs()\l+ fill_filelist()\l+ ~AbstractItemGenerator()\l}">
<polygon fill="white" stroke="black" points="215,-878 215,-990 359,-990 359,-878 215,-878"/>
<text text-anchor="middle" x="287" y="-978" font-family="Helvetica,sans-Serif" font-size="10.00">MPD::AbstractItemGenerator</text>
<polyline fill="none" stroke="black" points="215,-971 359,-971 "/>
<text text-anchor="middle" x="287" y="-959" font-family="Helvetica,sans-Serif" font-size="10.00"> </text>
<polyline fill="none" stroke="black" points="215,-952 359,-952 "/>
<text text-anchor="start" x="223" y="-940" font-family="Helvetica,sans-Serif" font-size="10.00">+ fill_queue()</text>
<text text-anchor="start" x="223" y="-929" font-family="Helvetica,sans-Serif" font-size="10.00">+ fill_queue_changes()</text>
<text text-anchor="start" x="223" y="-918" font-family="Helvetica,sans-Serif" font-size="10.00">+ fill_playlists()</text>
<text text-anchor="start" x="223" y="-907" font-family="Helvetica,sans-Serif" font-size="10.00">+ fill_outputs()</text>
<text text-anchor="start" x="223" y="-896" font-family="Helvetica,sans-Serif" font-size="10.00">+ fill_filelist()</text>
<text text-anchor="start" x="223" y="-885" font-family="Helvetica,sans-Serif" font-size="10.00">+ ~AbstractItemGenerator()</text>
</a>
</g>
<!-- Node8&#45;&gt;Node3 -->
<g id="edge14" class="edge"><title>Node8&#45;&gt;Node3</title>
<path fill="none" stroke="midnightblue" d="M279.837,-867.484C277.34,-844.644 274.376,-817.537 271.257,-789.008"/>
<polygon fill="none" stroke="midnightblue" points="276.384,-868.107 280.95,-877.667 283.343,-867.346 276.384,-868.107"/>
</g>
<!-- Node9 -->
<g id="node16" class="node"><title>Node9</title>
<a xlink:href="classCairoSlider.html" target="_top" xlink:title="{CairoSlider\n||+ CairoSlider()\l+ ~CairoSlider()\l# on_draw()\l# get_border()\l# get_percentage()\l# set_percentage()\l# on_percent_change()\l# get_update_timeout()\l# get_active_color()\l# get_inactive_color()\l}">
<polygon fill="white" stroke="black" points="330,-119 330,-275 446,-275 446,-119 330,-119"/>
<text text-anchor="middle" x="388" y="-263" font-family="Helvetica,sans-Serif" font-size="10.00">CairoSlider</text>
<polyline fill="none" stroke="black" points="330,-256 446,-256 "/>
<text text-anchor="middle" x="388" y="-244" font-family="Helvetica,sans-Serif" font-size="10.00"> </text>
<polyline fill="none" stroke="black" points="330,-237 446,-237 "/>
<text text-anchor="start" x="338" y="-225" font-family="Helvetica,sans-Serif" font-size="10.00">+ CairoSlider()</text>
<text text-anchor="start" x="338" y="-214" font-family="Helvetica,sans-Serif" font-size="10.00">+ ~CairoSlider()</text>
<text text-anchor="start" x="338" y="-203" font-family="Helvetica,sans-Serif" font-size="10.00"># on_draw()</text>
<text text-anchor="start" x="338" y="-192" font-family="Helvetica,sans-Serif" font-size="10.00"># get_border()</text>
<text text-anchor="start" x="338" y="-181" font-family="Helvetica,sans-Serif" font-size="10.00"># get_percentage()</text>
<text text-anchor="start" x="338" y="-170" font-family="Helvetica,sans-Serif" font-size="10.00"># set_percentage()</text>
<text text-anchor="start" x="338" y="-159" font-family="Helvetica,sans-Serif" font-size="10.00"># on_percent_change()</text>
<text text-anchor="start" x="338" y="-148" font-family="Helvetica,sans-Serif" font-size="10.00"># get_update_timeout()</text>
<text text-anchor="start" x="338" y="-137" font-family="Helvetica,sans-Serif" font-size="10.00"># get_active_color()</text>
<text text-anchor="start" x="338" y="-126" font-family="Helvetica,sans-Serif" font-size="10.00"># get_inactive_color()</text>
</a>
</g>
<!-- Node9&#45;&gt;Node1 -->
<g id="edge16" class="edge"><title>Node9&#45;&gt;Node1</title>
<path fill="none" stroke="midnightblue" d="M356.138,-109.357C352.311,-98.9511 348.566,-88.7682 345.185,-79.5729"/>
<polygon fill="none" stroke="midnightblue" points="352.931,-110.777 359.667,-118.954 359.5,-108.361 352.931,-110.777"/>
</g>
<!-- Node10 -->
<g id="node18" class="node"><title>Node10</title>
<a xlink:href="classGtk_1_1DrawingArea.html" target="_top" xlink:title="{Gtk::DrawingArea\n||}">
<polygon fill="white" stroke="black" points="340.5,-528.5 340.5,-585.5 435.5,-585.5 435.5,-528.5 340.5,-528.5"/>
<text text-anchor="middle" x="388" y="-573.5" font-family="Helvetica,sans-Serif" font-size="10.00">Gtk::DrawingArea</text>
<polyline fill="none" stroke="black" points="340.5,-566.5 435.5,-566.5 "/>
<text text-anchor="middle" x="388" y="-554.5" font-family="Helvetica,sans-Serif" font-size="10.00"> </text>
<polyline fill="none" stroke="black" points="340.5,-547.5 435.5,-547.5 "/>
<text text-anchor="middle" x="388" y="-535.5" font-family="Helvetica,sans-Serif" font-size="10.00"> </text>
</a>
</g>
<!-- Node10&#45;&gt;Node9 -->
<g id="edge18" class="edge"><title>Node10&#45;&gt;Node9</title>
<path fill="none" stroke="midnightblue" d="M388,-518.104C388,-460.585 388,-350.031 388,-275.138"/>
<polygon fill="none" stroke="midnightblue" points="384.5,-518.206 388,-528.206 391.5,-518.206 384.5,-518.206"/>
</g>
</g>
</svg>
