<?xml version="1.0" encoding="UTF-8" standalone="no"?>
<!DOCTYPE svg PUBLIC "-//W3C//DTD SVG 1.1//EN"
 "http://www.w3.org/Graphics/SVG/1.1/DTD/svg11.dtd">
<!-- Generated by graphviz version 2.28.0 (20111204.1018)
 -->
<!-- Title: G Pages: 1 -->
<svg width="423pt" height="1046pt"
 viewBox="0.00 0.00 423.00 1046.00" xmlns="http://www.w3.org/2000/svg" xmlns:xlink="http://www.w3.org/1999/xlink">
<g id="graph1" class="graph" transform="scale(1 1) rotate(0) translate(4 1042)">
<title>G</title>
<polygon fill="white" stroke="white" points="-4,5 -4,-1042 420,-1042 420,5 -4,5"/>
<!-- Node1 -->
<g id="node1" class="node"><title>Node1</title>
<polygon fill="#bfbfbf" stroke="black" points="236.5,-0.5 236.5,-79.5 367.5,-79.5 367.5,-0.5 236.5,-0.5"/>
<text text-anchor="middle" x="302" y="-67.5" font-family="Helvetica,sans-Serif" font-size="10.00">MPD::AbstractClientUser</text>
<polyline fill="none" stroke="black" points="236.5,-60.5 367.5,-60.5 "/>
<text text-anchor="start" x="244.5" y="-48.5" font-family="Helvetica,sans-Serif" font-size="10.00"># mp_Client</text>
<polyline fill="none" stroke="black" points="236.5,-41.5 367.5,-41.5 "/>
<text text-anchor="start" x="244.5" y="-29.5" font-family="Helvetica,sans-Serif" font-size="10.00">+ AbstractClientUser()</text>
<text text-anchor="start" x="244.5" y="-18.5" font-family="Helvetica,sans-Serif" font-size="10.00"># on_client_update()</text>
<text text-anchor="start" x="244.5" y="-7.5" font-family="Helvetica,sans-Serif" font-size="10.00"># on_connection_change()</text>
</g>
<!-- Node2 -->
<g id="node2" class="node"><title>Node2</title>
<a xlink:href="classMPD_1_1Client.html" target="_top" xlink:title="The client implements concrete commands of the MPD Protocol.">
<polygon fill="white" stroke="black" points="229,-129 229,-571 375,-571 375,-129 229,-129"/>
<text text-anchor="middle" x="302" y="-559" font-family="Helvetica,sans-Serif" font-size="10.00">MPD::Client</text>
<polyline fill="none" stroke="black" points="229,-552 375,-552 "/>
<text text-anchor="middle" x="302" y="-540" font-family="Helvetica,sans-Serif" font-size="10.00"> </text>
<polyline fill="none" stroke="black" points="229,-533 375,-533 "/>
<text text-anchor="start" x="237" y="-521" font-family="Helvetica,sans-Serif" font-size="10.00">+ Client()</text>
<text text-anchor="start" x="237" y="-510" font-family="Helvetica,sans-Serif" font-size="10.00">+ ~Client()</text>
<text text-anchor="start" x="237" y="-499" font-family="Helvetica,sans-Serif" font-size="10.00">+ connect()</text>
<text text-anchor="start" x="237" y="-488" font-family="Helvetica,sans-Serif" font-size="10.00">+ disconnect()</text>
<text text-anchor="start" x="237" y="-477" font-family="Helvetica,sans-Serif" font-size="10.00">+ playback_next()</text>
<text text-anchor="start" x="237" y="-466" font-family="Helvetica,sans-Serif" font-size="10.00">+ playback_prev()</text>
<text text-anchor="start" x="237" y="-455" font-family="Helvetica,sans-Serif" font-size="10.00">+ playback_stop()</text>
<text text-anchor="start" x="237" y="-444" font-family="Helvetica,sans-Serif" font-size="10.00">+ playback_play()</text>
<text text-anchor="start" x="237" y="-433" font-family="Helvetica,sans-Serif" font-size="10.00">+ playback_pause()</text>
<text text-anchor="start" x="237" y="-422" font-family="Helvetica,sans-Serif" font-size="10.00">+ playback_seek()</text>
<text text-anchor="start" x="237" y="-411" font-family="Helvetica,sans-Serif" font-size="10.00">and 5 more...+ playlist_save()</text>
<text text-anchor="start" x="237" y="-400" font-family="Helvetica,sans-Serif" font-size="10.00">+ queue_add()</text>
<text text-anchor="start" x="237" y="-389" font-family="Helvetica,sans-Serif" font-size="10.00">+ queue_clear()</text>
<text text-anchor="start" x="237" y="-378" font-family="Helvetica,sans-Serif" font-size="10.00">+ queue_delete()</text>
<text text-anchor="start" x="237" y="-367" font-family="Helvetica,sans-Serif" font-size="10.00">+ database_update()</text>
<text text-anchor="start" x="237" y="-356" font-family="Helvetica,sans-Serif" font-size="10.00">+ database_rescan()</text>
<text text-anchor="start" x="237" y="-345" font-family="Helvetica,sans-Serif" font-size="10.00">+ set_volume()</text>
<text text-anchor="start" x="237" y="-334" font-family="Helvetica,sans-Serif" font-size="10.00">+ fill_queue()</text>
<text text-anchor="start" x="237" y="-323" font-family="Helvetica,sans-Serif" font-size="10.00">+ fill_queue_changes()</text>
<text text-anchor="start" x="237" y="-312" font-family="Helvetica,sans-Serif" font-size="10.00">+ fill_playlists()</text>
<text text-anchor="start" x="237" y="-301" font-family="Helvetica,sans-Serif" font-size="10.00">+ fill_outputs()</text>
<text text-anchor="start" x="237" y="-290" font-family="Helvetica,sans-Serif" font-size="10.00">+ fill_filelist()</text>
<text text-anchor="start" x="237" y="-279" font-family="Helvetica,sans-Serif" font-size="10.00">+ send_command()</text>
<text text-anchor="start" x="237" y="-268" font-family="Helvetica,sans-Serif" font-size="10.00">* playlist_save()</text>
<text text-anchor="start" x="237" y="-257" font-family="Helvetica,sans-Serif" font-size="10.00">* queue_add()</text>
<text text-anchor="start" x="237" y="-246" font-family="Helvetica,sans-Serif" font-size="10.00">* queue_clear()</text>
<text text-anchor="start" x="237" y="-235" font-family="Helvetica,sans-Serif" font-size="10.00">* queue_delete()</text>
<text text-anchor="start" x="237" y="-224" font-family="Helvetica,sans-Serif" font-size="10.00">* database_update()</text>
<text text-anchor="start" x="237" y="-213" font-family="Helvetica,sans-Serif" font-size="10.00">* database_rescan()</text>
<text text-anchor="start" x="237" y="-202" font-family="Helvetica,sans-Serif" font-size="10.00">* set_volume()</text>
<text text-anchor="start" x="237" y="-191" font-family="Helvetica,sans-Serif" font-size="10.00">* fill_queue()</text>
<text text-anchor="start" x="237" y="-180" font-family="Helvetica,sans-Serif" font-size="10.00">* fill_queue_changes()</text>
<text text-anchor="start" x="237" y="-169" font-family="Helvetica,sans-Serif" font-size="10.00">* fill_playlists()</text>
<text text-anchor="start" x="237" y="-158" font-family="Helvetica,sans-Serif" font-size="10.00">* fill_outputs()</text>
<text text-anchor="start" x="237" y="-147" font-family="Helvetica,sans-Serif" font-size="10.00">* fill_filelist()</text>
<text text-anchor="start" x="237" y="-136" font-family="Helvetica,sans-Serif" font-size="10.00">* send_command()</text>
</a>
</g>
<!-- Node2&#45;&gt;Node1 -->
<g id="edge2" class="edge"><title>Node2&#45;&gt;Node1</title>
<path fill="none" stroke="#404040" d="M302,-128.848C302,-115.483 302,-102.939 302,-91.7447"/>
<polygon fill="none" stroke="#404040" points="302,-91.7075 298,-85.7075 302,-79.7075 306,-85.7075 302,-91.7075"/>
<text text-anchor="middle" x="326" y="-101.5" font-family="Helvetica,sans-Serif" font-size="10.00"> mp_Client</text>
</g>
<!-- Node3 -->
<g id="node4" class="node"><title>Node3</title>
<a xlink:href="classMPD_1_1BaseClient.html" target="_top" xlink:title="The Base to MPD::Client.">
<polygon fill="white" stroke="black" points="107,-610.5 107,-821.5 253,-821.5 253,-610.5 107,-610.5"/>
<text text-anchor="middle" x="180" y="-809.5" font-family="Helvetica,sans-Serif" font-size="10.00">MPD::BaseClient</text>
<polyline fill="none" stroke="black" points="107,-802.5 253,-802.5 "/>
<text text-anchor="start" x="115" y="-790.5" font-family="Helvetica,sans-Serif" font-size="10.00"># m_Conn</text>
<text text-anchor="start" x="115" y="-779.5" font-family="Helvetica,sans-Serif" font-size="10.00"># mp_Listener</text>
<text text-anchor="start" x="115" y="-768.5" font-family="Helvetica,sans-Serif" font-size="10.00"># m_ListBegun</text>
<polyline fill="none" stroke="black" points="107,-761.5 253,-761.5 "/>
<text text-anchor="start" x="115" y="-749.5" font-family="Helvetica,sans-Serif" font-size="10.00">+ go_idle()</text>
<text text-anchor="start" x="115" y="-738.5" font-family="Helvetica,sans-Serif" font-size="10.00">+ go_busy()</text>
<text text-anchor="start" x="115" y="-727.5" font-family="Helvetica,sans-Serif" font-size="10.00">+ get_connection()</text>
<text text-anchor="start" x="115" y="-716.5" font-family="Helvetica,sans-Serif" font-size="10.00">+ is_connected()</text>
<text text-anchor="start" x="115" y="-705.5" font-family="Helvetica,sans-Serif" font-size="10.00">+ begin()</text>
<text text-anchor="start" x="115" y="-694.5" font-family="Helvetica,sans-Serif" font-size="10.00">+ commit()</text>
<text text-anchor="start" x="115" y="-683.5" font-family="Helvetica,sans-Serif" font-size="10.00">+ get_status()</text>
<text text-anchor="start" x="115" y="-672.5" font-family="Helvetica,sans-Serif" font-size="10.00">+ signal_client_update()</text>
<text text-anchor="start" x="115" y="-661.5" font-family="Helvetica,sans-Serif" font-size="10.00">+ signal_connection_change()</text>
<text text-anchor="start" x="115" y="-650.5" font-family="Helvetica,sans-Serif" font-size="10.00">+ force_update()</text>
<text text-anchor="start" x="115" y="-639.5" font-family="Helvetica,sans-Serif" font-size="10.00"># BaseClient()</text>
<text text-anchor="start" x="115" y="-628.5" font-family="Helvetica,sans-Serif" font-size="10.00"># __connect()</text>
<text text-anchor="start" x="115" y="-617.5" font-family="Helvetica,sans-Serif" font-size="10.00"># __disconnect()</text>
</a>
</g>
<!-- Node3&#45;&gt;Node2 -->
<g id="edge4" class="edge"><title>Node3&#45;&gt;Node2</title>
<path fill="none" stroke="midnightblue" d="M218.384,-600.478C221.821,-590.222 225.37,-579.633 228.978,-568.87"/>
<polygon fill="none" stroke="midnightblue" points="214.983,-599.611 215.124,-610.204 221.62,-601.835 214.983,-599.611"/>
</g>
<!-- Node4 -->
<g id="node6" class="node"><title>Node4</title>
<a xlink:href="classMPD_1_1Listener.html" target="_top" xlink:title="Listener for Server events, Freya&#39;s actual core.">
<polygon fill="white" stroke="black" points="0,-892.5 0,-1015.5 144,-1015.5 144,-892.5 0,-892.5"/>
<text text-anchor="middle" x="72" y="-1003.5" font-family="Helvetica,sans-Serif" font-size="10.00">MPD::Listener</text>
<polyline fill="none" stroke="black" points="0,-996.5 144,-996.5 "/>
<text text-anchor="middle" x="72" y="-984.5" font-family="Helvetica,sans-Serif" font-size="10.00"> </text>
<polyline fill="none" stroke="black" points="0,-977.5 144,-977.5 "/>
<text text-anchor="start" x="8" y="-965.5" font-family="Helvetica,sans-Serif" font-size="10.00">+ Listener()</text>
<text text-anchor="start" x="8" y="-954.5" font-family="Helvetica,sans-Serif" font-size="10.00">+ ~Listener()</text>
<text text-anchor="start" x="8" y="-943.5" font-family="Helvetica,sans-Serif" font-size="10.00">+ enter()</text>
<text text-anchor="start" x="8" y="-932.5" font-family="Helvetica,sans-Serif" font-size="10.00">+ leave()</text>
<text text-anchor="start" x="8" y="-921.5" font-family="Helvetica,sans-Serif" font-size="10.00">+ is_idling()</text>
<text text-anchor="start" x="8" y="-910.5" font-family="Helvetica,sans-Serif" font-size="10.00">+ signal_client_update_data()</text>
<text text-anchor="start" x="8" y="-899.5" font-family="Helvetica,sans-Serif" font-size="10.00">+ force_update()</text>
</a>
</g>
<!-- Node4&#45;&gt;Node3 -->
<g id="edge6" class="edge"><title>Node4&#45;&gt;Node3</title>
<path fill="none" stroke="#404040" d="M96.3899,-892.277C103.458,-875.263 111.34,-856.823 119,-840 120.103,-837.576 121.227,-835.13 122.366,-832.668"/>
<polygon fill="none" stroke="#404040" points="122.37,-832.659 121.288,-825.53 127.453,-821.789 128.535,-828.918 122.37,-832.659"/>
<text text-anchor="middle" x="147.5" y="-843.5" font-family="Helvetica,sans-Serif" font-size="10.00"> mp_Listener</text>
</g>
<!-- Node5 -->
<g id="node8" class="node"><title>Node5</title>
<polygon fill="white" stroke="#bfbfbf" points="162.5,-925.5 162.5,-982.5 197.5,-982.5 197.5,-925.5 162.5,-925.5"/>
<text text-anchor="middle" x="180" y="-970.5" font-family="Helvetica,sans-Serif" font-size="10.00">bool</text>
<polyline fill="none" stroke="#bfbfbf" points="162.5,-963.5 197.5,-963.5 "/>
<text text-anchor="middle" x="180" y="-951.5" font-family="Helvetica,sans-Serif" font-size="10.00"> </text>
<polyline fill="none" stroke="#bfbfbf" points="162.5,-944.5 197.5,-944.5 "/>
<text text-anchor="middle" x="180" y="-932.5" font-family="Helvetica,sans-Serif" font-size="10.00"> </text>
</g>
<!-- Node5&#45;&gt;Node3 -->
<g id="edge8" class="edge"><title>Node5&#45;&gt;Node3</title>
<path fill="none" stroke="#404040" d="M180,-925.466C180,-902.462 180,-867.994 180,-833.675"/>
<polygon fill="none" stroke="#404040" points="180,-833.562 176,-827.562 180,-821.562 184,-827.562 180,-833.562"/>
<text text-anchor="middle" x="210.5" y="-843.5" font-family="Helvetica,sans-Serif" font-size="10.00"> m_ListBegun</text>
</g>
<!-- Node6 -->
<g id="node10" class="node"><title>Node6</title>
<a xlink:href="classMPD_1_1Connection.html" target="_top" xlink:title="A convinience Wrapper around mpd_connection*.">
<polygon fill="white" stroke="black" points="216,-870.5 216,-1037.5 362,-1037.5 362,-870.5 216,-870.5"/>
<text text-anchor="middle" x="289" y="-1025.5" font-family="Helvetica,sans-Serif" font-size="10.00">MPD::Connection</text>
<polyline fill="none" stroke="black" points="216,-1018.5 362,-1018.5 "/>
<text text-anchor="middle" x="289" y="-1006.5" font-family="Helvetica,sans-Serif" font-size="10.00"> </text>
<polyline fill="none" stroke="black" points="216,-999.5 362,-999.5 "/>
<text text-anchor="start" x="224" y="-987.5" font-family="Helvetica,sans-Serif" font-size="10.00">+ Connection()</text>
<text text-anchor="start" x="224" y="-976.5" font-family="Helvetica,sans-Serif" font-size="10.00">+ ~Connection()</text>
<text text-anchor="start" x="224" y="-965.5" font-family="Helvetica,sans-Serif" font-size="10.00">+ is_connected()</text>
<text text-anchor="start" x="224" y="-954.5" font-family="Helvetica,sans-Serif" font-size="10.00">+ connect()</text>
<text text-anchor="start" x="224" y="-943.5" font-family="Helvetica,sans-Serif" font-size="10.00">+ disconnect()</text>
<text text-anchor="start" x="224" y="-932.5" font-family="Helvetica,sans-Serif" font-size="10.00">+ clear_error()</text>
<text text-anchor="start" x="224" y="-921.5" font-family="Helvetica,sans-Serif" font-size="10.00">+ check_error()</text>
<text text-anchor="start" x="224" y="-910.5" font-family="Helvetica,sans-Serif" font-size="10.00">+ signal_error()</text>
<text text-anchor="start" x="224" y="-899.5" font-family="Helvetica,sans-Serif" font-size="10.00">+ signal_connection_change()</text>
<text text-anchor="start" x="224" y="-888.5" font-family="Helvetica,sans-Serif" font-size="10.00">+ emit_connection_change()</text>
<text text-anchor="start" x="224" y="-877.5" font-family="Helvetica,sans-Serif" font-size="10.00">+ get_connection()</text>
</a>
</g>
<!-- Node6&#45;&gt;Node3 -->
<g id="edge10" class="edge"><title>Node6&#45;&gt;Node3</title>
<path fill="none" stroke="#404040" d="M258.13,-870.453C253.895,-860.124 249.464,-849.765 245,-840 243.878,-837.546 242.731,-835.072 241.562,-832.584"/>
<polygon fill="none" stroke="#404040" points="241.49,-832.434 235.292,-828.748 236.311,-821.609 242.509,-825.295 241.49,-832.434"/>
<text text-anchor="middle" x="270" y="-843.5" font-family="Helvetica,sans-Serif" font-size="10.00"> m_Conn</text>
</g>
<!-- Node7 -->
<g id="node12" class="node"><title>Node7</title>
<a xlink:href="classMPD_1_1AbstractItemGenerator.html" target="_top" xlink:title="{MPD::AbstractItemGenerator\n||+ fill_queue()\l+ fill_queue_changes()\l+ fill_playlists()\l+ fill_outputs()\l+ fill_filelist()\l+ ~AbstractItemGenerator()\l}">
<polygon fill="white" stroke="black" points="271,-660 271,-772 415,-772 415,-660 271,-660"/>
<text text-anchor="middle" x="343" y="-760" font-family="Helvetica,sans-Serif" font-size="10.00">MPD::AbstractItemGenerator</text>
<polyline fill="none" stroke="black" points="271,-753 415,-753 "/>
<text text-anchor="middle" x="343" y="-741" font-family="Helvetica,sans-Serif" font-size="10.00"> </text>
<polyline fill="none" stroke="black" points="271,-734 415,-734 "/>
<text text-anchor="start" x="279" y="-722" font-family="Helvetica,sans-Serif" font-size="10.00">+ fill_queue()</text>
<text text-anchor="start" x="279" y="-711" font-family="Helvetica,sans-Serif" font-size="10.00">+ fill_queue_changes()</text>
<text text-anchor="start" x="279" y="-700" font-family="Helvetica,sans-Serif" font-size="10.00">+ fill_playlists()</text>
<text text-anchor="start" x="279" y="-689" font-family="Helvetica,sans-Serif" font-size="10.00">+ fill_outputs()</text>
<text text-anchor="start" x="279" y="-678" font-family="Helvetica,sans-Serif" font-size="10.00">+ fill_filelist()</text>
<text text-anchor="start" x="279" y="-667" font-family="Helvetica,sans-Serif" font-size="10.00">+ ~AbstractItemGenerator()</text>
</a>
</g>
<!-- Node7&#45;&gt;Node2 -->
<g id="edge12" class="edge"><title>Node7&#45;&gt;Node2</title>
<path fill="none" stroke="midnightblue" d="M335.626,-649.532C333.054,-626.698 330.006,-599.639 326.812,-571.283"/>
<polygon fill="none" stroke="midnightblue" points="332.176,-650.171 336.773,-659.716 339.132,-649.387 332.176,-650.171"/>
</g>
</g>
</svg>
