<?xml version="1.0" encoding="UTF-8" standalone="no"?>
<!DOCTYPE svg PUBLIC "-//W3C//DTD SVG 1.1//EN"
 "http://www.w3.org/Graphics/SVG/1.1/DTD/svg11.dtd">
<!-- Generated by graphviz version 2.28.0 (20111204.1018)
 -->
<!-- Title: G Pages: 1 -->
<svg width="461pt" height="238pt"
 viewBox="0.00 0.00 461.00 238.00" xmlns="http://www.w3.org/2000/svg" xmlns:xlink="http://www.w3.org/1999/xlink">
<g id="graph1" class="graph" transform="scale(1 1) rotate(0) translate(4 234)">
<title>G</title>
<polygon fill="white" stroke="white" points="-4,5 -4,-234 458,-234 458,5 -4,5"/>
<!-- Node1 -->
<g id="node1" class="node"><title>Node1</title>
<polygon fill="#bfbfbf" stroke="black" points="118,-0.5 118,-79.5 246,-79.5 246,-0.5 118,-0.5"/>
<text text-anchor="middle" x="182" y="-67.5" font-family="Helvetica,sans-Serif" font-size="10.00">Browser::PlaylistManager</text>
<polyline fill="none" stroke="black" points="118,-60.5 246,-60.5 "/>
<text text-anchor="middle" x="182" y="-48.5" font-family="Helvetica,sans-Serif" font-size="10.00"> </text>
<polyline fill="none" stroke="black" points="118,-41.5 246,-41.5 "/>
<text text-anchor="start" x="126" y="-29.5" font-family="Helvetica,sans-Serif" font-size="10.00">+ PlaylistManager()</text>
<text text-anchor="start" x="126" y="-18.5" font-family="Helvetica,sans-Serif" font-size="10.00">+ ~PlaylistManager()</text>
<text text-anchor="start" x="126" y="-7.5" font-family="Helvetica,sans-Serif" font-size="10.00">+ get_container()</text>
</g>
<!-- Node2 -->
<g id="node2" class="node"><title>Node2</title>
<a xlink:href="classGtk_1_1Frame.html" target="_top" xlink:title="{Frame\n||}">
<polygon fill="white" stroke="black" points="0,-144.5 0,-201.5 44,-201.5 44,-144.5 0,-144.5"/>
<text text-anchor="middle" x="22" y="-189.5" font-family="Helvetica,sans-Serif" font-size="10.00">Frame</text>
<polyline fill="none" stroke="black" points="0,-182.5 44,-182.5 "/>
<text text-anchor="middle" x="22" y="-170.5" font-family="Helvetica,sans-Serif" font-size="10.00"> </text>
<polyline fill="none" stroke="black" points="0,-163.5 44,-163.5 "/>
<text text-anchor="middle" x="22" y="-151.5" font-family="Helvetica,sans-Serif" font-size="10.00"> </text>
</a>
</g>
<!-- Node2&#45;&gt;Node1 -->
<g id="edge2" class="edge"><title>Node2&#45;&gt;Node1</title>
<path fill="none" stroke="midnightblue" d="M38.3963,-135.575C42.5395,-128.593 47.4242,-121.694 53,-116 71.3963,-97.2124 95.4837,-81.5328 117.857,-69.45"/>
<polygon fill="none" stroke="midnightblue" points="35.3064,-133.93 33.5486,-144.378 41.4382,-137.307 35.3064,-133.93"/>
</g>
<!-- Node3 -->
<g id="node4" class="node"><title>Node3</title>
<a xlink:href="classAbstractBrowser.html" target="_top" xlink:title="Inherit from this class in order to be able to add the browser to the browserlist.">
<polygon fill="white" stroke="black" points="62,-117 62,-229 172,-229 172,-117 62,-117"/>
<text text-anchor="middle" x="117" y="-217" font-family="Helvetica,sans-Serif" font-size="10.00">AbstractBrowser</text>
<polyline fill="none" stroke="black" points="62,-210 172,-210 "/>
<text text-anchor="middle" x="117" y="-198" font-family="Helvetica,sans-Serif" font-size="10.00"> </text>
<polyline fill="none" stroke="black" points="62,-191 172,-191 "/>
<text text-anchor="start" x="70" y="-179" font-family="Helvetica,sans-Serif" font-size="10.00">+ AbstractBrowser()</text>
<text text-anchor="start" x="70" y="-168" font-family="Helvetica,sans-Serif" font-size="10.00">+ get_container()</text>
<text text-anchor="start" x="70" y="-157" font-family="Helvetica,sans-Serif" font-size="10.00">+ get_name()</text>
<text text-anchor="start" x="70" y="-146" font-family="Helvetica,sans-Serif" font-size="10.00">+ get_icon_stock_id()</text>
<text text-anchor="start" x="70" y="-135" font-family="Helvetica,sans-Serif" font-size="10.00">+ is_visible()</text>
<text text-anchor="start" x="70" y="-124" font-family="Helvetica,sans-Serif" font-size="10.00">+ needs_connection()</text>
</a>
</g>
<!-- Node3&#45;&gt;Node1 -->
<g id="edge4" class="edge"><title>Node3&#45;&gt;Node1</title>
<path fill="none" stroke="midnightblue" d="M148.896,-107.717C153.628,-98.1805 158.377,-88.6093 162.742,-79.8127"/>
<polygon fill="none" stroke="midnightblue" points="145.687,-106.31 144.377,-116.824 151.958,-109.422 145.687,-106.31"/>
</g>
<!-- Node4 -->
<g id="node6" class="node"><title>Node4</title>
<a xlink:href="classMPD_1_1AbstractItemlist.html" target="_top" xlink:title="Inhertit from this class to use MPD::Client&#39;s fill_* methods.">
<polygon fill="white" stroke="black" points="190,-139 190,-207 304,-207 304,-139 190,-139"/>
<text text-anchor="middle" x="247" y="-195" font-family="Helvetica,sans-Serif" font-size="10.00">MPD::AbstractItemlist</text>
<polyline fill="none" stroke="black" points="190,-188 304,-188 "/>
<text text-anchor="middle" x="247" y="-176" font-family="Helvetica,sans-Serif" font-size="10.00"> </text>
<polyline fill="none" stroke="black" points="190,-169 304,-169 "/>
<text text-anchor="start" x="198" y="-157" font-family="Helvetica,sans-Serif" font-size="10.00">+ add_item()</text>
<text text-anchor="start" x="198" y="-146" font-family="Helvetica,sans-Serif" font-size="10.00">+ ~AbstractItemlist()</text>
</a>
</g>
<!-- Node4&#45;&gt;Node1 -->
<g id="edge6" class="edge"><title>Node4&#45;&gt;Node1</title>
<path fill="none" stroke="midnightblue" d="M226.034,-129.745C218.043,-113.64 208.983,-95.3803 201.167,-79.6289"/>
<polygon fill="none" stroke="midnightblue" points="223.018,-131.541 230.598,-138.943 229.288,-128.43 223.018,-131.541"/>
</g>
<!-- Node5 -->
<g id="node8" class="node"><title>Node5</title>
<a xlink:href="classMPD_1_1AbstractClientUser.html" target="_top" xlink:title="{MPD::AbstractClientUser\n|# mp_Client\l|+ AbstractClientUser()\l# on_client_update()\l# on_connection_change()\l}">
<polygon fill="white" stroke="black" points="322.5,-133.5 322.5,-212.5 453.5,-212.5 453.5,-133.5 322.5,-133.5"/>
<text text-anchor="middle" x="388" y="-200.5" font-family="Helvetica,sans-Serif" font-size="10.00">MPD::AbstractClientUser</text>
<polyline fill="none" stroke="black" points="322.5,-193.5 453.5,-193.5 "/>
<text text-anchor="start" x="330.5" y="-181.5" font-family="Helvetica,sans-Serif" font-size="10.00"># mp_Client</text>
<polyline fill="none" stroke="black" points="322.5,-174.5 453.5,-174.5 "/>
<text text-anchor="start" x="330.5" y="-162.5" font-family="Helvetica,sans-Serif" font-size="10.00">+ AbstractClientUser()</text>
<text text-anchor="start" x="330.5" y="-151.5" font-family="Helvetica,sans-Serif" font-size="10.00"># on_client_update()</text>
<text text-anchor="start" x="330.5" y="-140.5" font-family="Helvetica,sans-Serif" font-size="10.00"># on_connection_change()</text>
</a>
</g>
<!-- Node5&#45;&gt;Node1 -->
<g id="edge8" class="edge"><title>Node5&#45;&gt;Node1</title>
<path fill="none" stroke="midnightblue" d="M329.936,-127.578C324.276,-123.573 318.568,-119.654 313,-116 291.746,-102.055 267.791,-87.9097 246.233,-75.7183"/>
<polygon fill="none" stroke="midnightblue" points="328.007,-130.502 338.172,-133.489 332.088,-124.815 328.007,-130.502"/>
</g>
</g>
</svg>
