<?xml version="1.0" encoding="UTF-8" standalone="no"?>
<!DOCTYPE svg PUBLIC "-//W3C//DTD SVG 1.1//EN"
 "http://www.w3.org/Graphics/SVG/1.1/DTD/svg11.dtd">
<!-- Generated by graphviz version 2.28.0 (20111204.1018)
 -->
<!-- Title: G Pages: 1 -->
<svg width="3357pt" height="252pt"
 viewBox="0.00 0.00 3357.00 252.00" xmlns="http://www.w3.org/2000/svg" xmlns:xlink="http://www.w3.org/1999/xlink">
<g id="graph1" class="graph" transform="scale(1 1) rotate(0) translate(4 248)">
<title>G</title>
<polygon fill="white" stroke="white" points="-4,5 -4,-248 3354,-248 3354,5 -4,5"/>
<!-- Node1 -->
<g id="node1" class="node"><title>Node1</title>
<polygon fill="#bfbfbf" stroke="black" points="1770,-224.5 1770,-243.5 1868,-243.5 1868,-224.5 1770,-224.5"/>
<text text-anchor="middle" x="1819" y="-231.5" font-family="Helvetica,sans-Serif" font-size="10.00">src/MPD/Client.hh</text>
</g>
<!-- Node2 -->
<g id="node3" class="node"><title>Node2</title>
<a xlink:href="AbstractClientUser_8hh.html" target="_top" xlink:title="src/MPD/AbstractClientUser.hh">
<polygon fill="white" stroke="black" points="1681.5,-168.5 1681.5,-187.5 1836.5,-187.5 1836.5,-168.5 1681.5,-168.5"/>
<text text-anchor="middle" x="1759" y="-175.5" font-family="Helvetica,sans-Serif" font-size="10.00">src/MPD/AbstractClientUser.hh</text>
</a>
</g>
<!-- Node1&#45;&gt;Node2 -->
<g id="edge2" class="edge"><title>Node1&#45;&gt;Node2</title>
<path fill="none" stroke="midnightblue" d="M1801.82,-217.537C1791.12,-207.909 1777.74,-195.869 1768.82,-187.834"/>
<polygon fill="midnightblue" stroke="midnightblue" points="1799.59,-220.236 1809.36,-224.324 1804.27,-215.033 1799.59,-220.236"/>
</g>
<!-- Node3 -->
<g id="node5" class="node"><title>Node3</title>
<a xlink:href="Database_8hh.html" target="_top" xlink:title="src/Browser/Database/Database.hh">
<polygon fill="white" stroke="black" points="218.5,-112.5 218.5,-131.5 391.5,-131.5 391.5,-112.5 218.5,-112.5"/>
<text text-anchor="middle" x="305" y="-119.5" font-family="Helvetica,sans-Serif" font-size="10.00">src/Browser/Database/Database.hh</text>
</a>
</g>
<!-- Node1&#45;&gt;Node3 -->
<g id="edge60" class="edge"><title>Node1&#45;&gt;Node3</title>
<path fill="none" stroke="midnightblue" d="M1759.56,-232.602C1597.77,-231.063 1136.02,-223.629 754,-188 606.956,-174.286 434.446,-145.792 352.654,-131.525"/>
<polygon fill="midnightblue" stroke="midnightblue" points="1759.75,-236.104 1769.78,-232.695 1759.81,-229.104 1759.75,-236.104"/>
</g>
<!-- Node5 -->
<g id="node9" class="node"><title>Node5</title>
<a xlink:href="PlaylistManager_8hh.html" target="_top" xlink:title="src/Browser/PlaylistManager/PlaylistManager.hh">
<polygon fill="white" stroke="black" points="410,-112.5 410,-131.5 638,-131.5 638,-112.5 410,-112.5"/>
<text text-anchor="middle" x="524" y="-119.5" font-family="Helvetica,sans-Serif" font-size="10.00">src/Browser/PlaylistManager/PlaylistManager.hh</text>
</a>
</g>
<!-- Node1&#45;&gt;Node5 -->
<g id="edge62" class="edge"><title>Node1&#45;&gt;Node5</title>
<path fill="none" stroke="midnightblue" d="M1759.66,-232.769C1611.9,-231.622 1215.8,-225.035 888,-188 768.238,-174.469 628.356,-145.824 562.284,-131.511"/>
<polygon fill="midnightblue" stroke="midnightblue" points="1759.84,-236.27 1769.87,-232.843 1759.89,-229.271 1759.84,-236.27"/>
</g>
<!-- Node6 -->
<g id="node11" class="node"><title>Node6</title>
<a xlink:href="PlaylistAddDialog_8hh.html" target="_top" xlink:title="src/Browser/Queue/PlaylistAddDialog.hh">
<polygon fill="white" stroke="black" points="1058,-112.5 1058,-131.5 1252,-131.5 1252,-112.5 1058,-112.5"/>
<text text-anchor="middle" x="1155" y="-119.5" font-family="Helvetica,sans-Serif" font-size="10.00">src/Browser/Queue/PlaylistAddDialog.hh</text>
</a>
</g>
<!-- Node1&#45;&gt;Node6 -->
<g id="edge64" class="edge"><title>Node1&#45;&gt;Node6</title>
<path fill="none" stroke="midnightblue" d="M1759.85,-223.201C1631.24,-201.894 1327.97,-151.655 1206.57,-131.543"/>
<polygon fill="midnightblue" stroke="midnightblue" points="1759.47,-226.685 1769.9,-224.867 1760.61,-219.779 1759.47,-226.685"/>
</g>
<!-- Node7 -->
<g id="node13" class="node"><title>Node7</title>
<a xlink:href="Queue_8hh.html" target="_top" xlink:title="src/Browser/Queue/Queue.hh">
<polygon fill="white" stroke="black" points="1144,-56.5 1144,-75.5 1290,-75.5 1290,-56.5 1144,-56.5"/>
<text text-anchor="middle" x="1217" y="-63.5" font-family="Helvetica,sans-Serif" font-size="10.00">src/Browser/Queue/Queue.hh</text>
</a>
</g>
<!-- Node1&#45;&gt;Node7 -->
<g id="edge66" class="edge"><title>Node1&#45;&gt;Node7</title>
<path fill="none" stroke="midnightblue" d="M1759.85,-229.703C1587.56,-219.496 1095.39,-185.829 1049,-132 1017.46,-95.398 1085.18,-79.3007 1143.84,-72.2899"/>
<polygon fill="midnightblue" stroke="midnightblue" points="1759.81,-233.206 1770,-230.299 1760.22,-226.218 1759.81,-233.206"/>
</g>
<!-- Node9 -->
<g id="node19" class="node"><title>Node9</title>
<a xlink:href="SettingsPlayback_8hh.html" target="_top" xlink:title="src/Browser/Settings/SettingsPlayback.hh">
<polygon fill="white" stroke="black" points="-0.5,-112.5 -0.5,-131.5 200.5,-131.5 200.5,-112.5 -0.5,-112.5"/>
<text text-anchor="middle" x="100" y="-119.5" font-family="Helvetica,sans-Serif" font-size="10.00">src/Browser/Settings/SettingsPlayback.hh</text>
</a>
</g>
<!-- Node1&#45;&gt;Node9 -->
<g id="edge68" class="edge"><title>Node1&#45;&gt;Node9</title>
<path fill="none" stroke="midnightblue" d="M1759.8,-232.838C1582.14,-231.922 1038.11,-225.977 589,-188 428.778,-174.452 240.549,-145.814 151.573,-131.508"/>
<polygon fill="midnightblue" stroke="midnightblue" points="1759.96,-236.339 1769.97,-232.887 1759.99,-229.339 1759.96,-236.339"/>
</g>
<!-- Node11 -->
<g id="node23" class="node"><title>Node11</title>
<a xlink:href="Trayicon_8hh.html" target="_top" xlink:title="src/GManager/Trayicon.hh">
<polygon fill="white" stroke="black" points="870,-112.5 870,-131.5 1002,-131.5 1002,-112.5 870,-112.5"/>
<text text-anchor="middle" x="936" y="-119.5" font-family="Helvetica,sans-Serif" font-size="10.00">src/GManager/Trayicon.hh</text>
</a>
</g>
<!-- Node1&#45;&gt;Node11 -->
<g id="edge70" class="edge"><title>Node1&#45;&gt;Node11</title>
<path fill="none" stroke="midnightblue" d="M1759.51,-231.778C1585.38,-227.906 1084.67,-214.569 1016,-188 984.623,-175.861 956.186,-146.496 943.293,-131.753"/>
<polygon fill="midnightblue" stroke="midnightblue" points="1759.69,-235.282 1769.76,-232.003 1759.84,-228.284 1759.69,-235.282"/>
</g>
<!-- Node13 -->
<g id="node29" class="node"><title>Node13</title>
<a xlink:href="SettingsOutputs_8hh.html" target="_top" xlink:title="src/Browser/Settings/SettingsOutputs.hh">
<polygon fill="white" stroke="black" points="656.5,-112.5 656.5,-131.5 851.5,-131.5 851.5,-112.5 656.5,-112.5"/>
<text text-anchor="middle" x="754" y="-119.5" font-family="Helvetica,sans-Serif" font-size="10.00">src/Browser/Settings/SettingsOutputs.hh</text>
</a>
</g>
<!-- Node1&#45;&gt;Node13 -->
<g id="edge72" class="edge"><title>Node1&#45;&gt;Node13</title>
<path fill="none" stroke="midnightblue" d="M1759.47,-231.572C1593.74,-227.318 1129.42,-213.414 979,-188 903.427,-175.231 817.157,-146.025 776.917,-131.511"/>
<polygon fill="midnightblue" stroke="midnightblue" points="1759.86,-235.083 1769.94,-231.839 1760.04,-228.085 1759.86,-235.083"/>
</g>
<!-- Node15 -->
<g id="node34" class="node"><title>Node15</title>
<a xlink:href="Heartbeat_8hh.html" target="_top" xlink:title="src/GManager/Heartbeat.hh">
<polygon fill="white" stroke="black" points="2138.5,-112.5 2138.5,-131.5 2275.5,-131.5 2275.5,-112.5 2138.5,-112.5"/>
<text text-anchor="middle" x="2207" y="-119.5" font-family="Helvetica,sans-Serif" font-size="10.00">src/GManager/Heartbeat.hh</text>
</a>
</g>
<!-- Node1&#45;&gt;Node15 -->
<g id="edge76" class="edge"><title>Node1&#45;&gt;Node15</title>
<path fill="none" stroke="midnightblue" d="M1839.19,-218.802C1861.55,-203.783 1899.2,-180.558 1935,-168 1971.64,-155.148 2071.1,-140.511 2139.03,-131.514"/>
<polygon fill="midnightblue" stroke="midnightblue" points="1837.14,-215.962 1830.86,-224.493 1841.09,-221.741 1837.14,-215.962"/>
</g>
<!-- Node16 -->
<g id="node36" class="node"><title>Node16</title>
<a xlink:href="Statusbar_8hh.html" target="_top" xlink:title="src/GManager/Statusbar.hh">
<polygon fill="white" stroke="black" points="2138.5,-56.5 2138.5,-75.5 2275.5,-75.5 2275.5,-56.5 2138.5,-56.5"/>
<text text-anchor="middle" x="2207" y="-63.5" font-family="Helvetica,sans-Serif" font-size="10.00">src/GManager/Statusbar.hh</text>
</a>
</g>
<!-- Node1&#45;&gt;Node16 -->
<g id="edge82" class="edge"><title>Node1&#45;&gt;Node16</title>
<path fill="none" stroke="midnightblue" d="M1878.14,-233.028C2120.96,-232.537 3032.52,-224.503 3117,-132 3122.99,-125.436 3123.13,-118.439 3117,-112 3088.1,-81.6367 2483,-70.702 2275.85,-67.8402"/>
<polygon fill="midnightblue" stroke="midnightblue" points="1878.09,-229.528 1868.1,-233.045 1878.1,-236.528 1878.09,-229.528"/>
</g>
<!-- Node18 -->
<g id="node40" class="node"><title>Node18</title>
<a xlink:href="MenuList_8hh.html" target="_top" xlink:title="src/GManager/MenuList.hh">
<polygon fill="white" stroke="black" points="2294,-112.5 2294,-131.5 2428,-131.5 2428,-112.5 2294,-112.5"/>
<text text-anchor="middle" x="2361" y="-119.5" font-family="Helvetica,sans-Serif" font-size="10.00">src/GManager/MenuList.hh</text>
</a>
</g>
<!-- Node1&#45;&gt;Node18 -->
<g id="edge78" class="edge"><title>Node1&#45;&gt;Node18</title>
<path fill="none" stroke="midnightblue" d="M1852.55,-221.064C1894.49,-206.561 1968.72,-182.268 2034,-168 2082.08,-157.493 2212.83,-140.829 2293.68,-130.999"/>
<polygon fill="midnightblue" stroke="midnightblue" points="1851.15,-217.845 1842.86,-224.44 1853.45,-224.456 1851.15,-217.845"/>
</g>
<!-- Node20 -->
<g id="node44" class="node"><title>Node20</title>
<a xlink:href="PlaybackButtons_8hh.html" target="_top" xlink:title="src/GManager/PlaybackButtons.hh">
<polygon fill="white" stroke="black" points="2446.5,-112.5 2446.5,-131.5 2615.5,-131.5 2615.5,-112.5 2446.5,-112.5"/>
<text text-anchor="middle" x="2531" y="-119.5" font-family="Helvetica,sans-Serif" font-size="10.00">src/GManager/PlaybackButtons.hh</text>
</a>
</g>
<!-- Node1&#45;&gt;Node20 -->
<g id="edge80" class="edge"><title>Node1&#45;&gt;Node20</title>
<path fill="none" stroke="midnightblue" d="M1874.87,-222.658C1948.21,-209.238 2081.02,-185.478 2195,-168 2286.92,-153.905 2393.36,-140.067 2461.39,-131.538"/>
<polygon fill="midnightblue" stroke="midnightblue" points="1874.13,-219.235 1864.92,-224.481 1875.39,-226.12 1874.13,-219.235"/>
</g>
<!-- Node21 -->
<g id="node47" class="node"><title>Node21</title>
<a xlink:href="StatusIcons_8hh.html" target="_top" xlink:title="src/GManager/StatusIcons.hh">
<polygon fill="white" stroke="black" points="2633.5,-112.5 2633.5,-131.5 2780.5,-131.5 2780.5,-112.5 2633.5,-112.5"/>
<text text-anchor="middle" x="2707" y="-119.5" font-family="Helvetica,sans-Serif" font-size="10.00">src/GManager/StatusIcons.hh</text>
</a>
</g>
<!-- Node1&#45;&gt;Node21 -->
<g id="edge84" class="edge"><title>Node1&#45;&gt;Node21</title>
<path fill="none" stroke="midnightblue" d="M1878.02,-225.688C2036.22,-206.092 2469.12,-152.467 2638.12,-131.532"/>
<polygon fill="midnightblue" stroke="midnightblue" points="1877.5,-222.226 1868.01,-226.929 1878.36,-229.173 1877.5,-222.226"/>
</g>
<!-- Node22 -->
<g id="node50" class="node"><title>Node22</title>
<a xlink:href="TitleLabel_8hh.html" target="_top" xlink:title="src/GManager/TitleLabel.hh">
<polygon fill="white" stroke="black" points="2798.5,-112.5 2798.5,-131.5 2935.5,-131.5 2935.5,-112.5 2798.5,-112.5"/>
<text text-anchor="middle" x="2867" y="-119.5" font-family="Helvetica,sans-Serif" font-size="10.00">src/GManager/TitleLabel.hh</text>
</a>
</g>
<!-- Node1&#45;&gt;Node22 -->
<g id="edge86" class="edge"><title>Node1&#45;&gt;Node22</title>
<path fill="none" stroke="midnightblue" d="M1878.14,-227.399C1965.42,-219.086 2133.86,-202.859 2277,-188 2504.69,-164.363 2561.52,-157.564 2789,-132 2791.98,-131.665 2795.02,-131.321 2798.1,-130.973"/>
<polygon fill="midnightblue" stroke="midnightblue" points="1877.78,-223.917 1868.16,-228.349 1878.44,-230.886 1877.78,-223.917"/>
</g>
<!-- Node23 -->
<g id="node52" class="node"><title>Node23</title>
<a xlink:href="Volumebutton_8hh.html" target="_top" xlink:title="src/GManager/Volumebutton.hh">
<polygon fill="white" stroke="black" points="2953.5,-112.5 2953.5,-131.5 3108.5,-131.5 3108.5,-112.5 2953.5,-112.5"/>
<text text-anchor="middle" x="3031" y="-119.5" font-family="Helvetica,sans-Serif" font-size="10.00">src/GManager/Volumebutton.hh</text>
</a>
</g>
<!-- Node1&#45;&gt;Node23 -->
<g id="edge88" class="edge"><title>Node1&#45;&gt;Node23</title>
<path fill="none" stroke="midnightblue" d="M1878.45,-228.676C1981.6,-221.085 2200.38,-204.585 2385,-188 2633.69,-165.66 2695.6,-157.291 2944,-132 2947.02,-131.692 2950.1,-131.378 2953.21,-131.06"/>
<polygon fill="midnightblue" stroke="midnightblue" points="1877.96,-225.203 1868.24,-229.427 1878.47,-232.184 1877.96,-225.203"/>
</g>
<!-- Node24 -->
<g id="node61" class="node"><title>Node24</title>
<a xlink:href="StatBrowser_8hh.html" target="_top" xlink:title="src/Browser/Statistics/StatBrowser.hh">
<polygon fill="white" stroke="black" points="3165,-168.5 3165,-187.5 3349,-187.5 3349,-168.5 3165,-168.5"/>
<text text-anchor="middle" x="3257" y="-175.5" font-family="Helvetica,sans-Serif" font-size="10.00">src/Browser/Statistics/StatBrowser.hh</text>
</a>
</g>
<!-- Node1&#45;&gt;Node24 -->
<g id="edge74" class="edge"><title>Node1&#45;&gt;Node24</title>
<path fill="none" stroke="midnightblue" d="M1878.19,-232.075C2065.13,-228.924 2659.65,-217.14 3151,-188 3155.52,-187.732 3160.14,-187.433 3164.81,-187.111"/>
<polygon fill="midnightblue" stroke="midnightblue" points="1877.97,-228.578 1868.03,-232.245 1878.08,-235.577 1877.97,-228.578"/>
</g>
<!-- Node2&#45;&gt;Node3 -->
<g id="edge4" class="edge"><title>Node2&#45;&gt;Node3</title>
<path fill="none" stroke="midnightblue" d="M1671.2,-175.925C1455.03,-172.88 879.838,-162.351 401,-132 397.909,-131.804 394.764,-131.59 391.588,-131.36"/>
<polygon fill="midnightblue" stroke="midnightblue" points="1671.17,-179.425 1681.22,-176.065 1671.27,-172.426 1671.17,-179.425"/>
</g>
<!-- Node4 -->
<g id="node7" class="node"><title>Node4</title>
<a xlink:href="DatabaseCache_8hh.html" target="_top" xlink:title="src/Browser/Database/DatabaseCache.hh">
<polygon fill="white" stroke="black" points="1880.5,-112.5 1880.5,-131.5 2081.5,-131.5 2081.5,-112.5 1880.5,-112.5"/>
<text text-anchor="middle" x="1981" y="-119.5" font-family="Helvetica,sans-Serif" font-size="10.00">src/Browser/Database/DatabaseCache.hh</text>
</a>
</g>
<!-- Node2&#45;&gt;Node4 -->
<g id="edge6" class="edge"><title>Node2&#45;&gt;Node4</title>
<path fill="none" stroke="midnightblue" d="M1804.12,-166.024C1846.06,-155.823 1907.65,-140.841 1945.99,-131.516"/>
<polygon fill="midnightblue" stroke="midnightblue" points="1803.07,-162.679 1794.18,-168.444 1804.72,-169.481 1803.07,-162.679"/>
</g>
<!-- Node2&#45;&gt;Node5 -->
<g id="edge8" class="edge"><title>Node2&#45;&gt;Node5</title>
<path fill="none" stroke="midnightblue" d="M1671.34,-174.425C1483.5,-168.692 1028.2,-153.654 647,-132 644.114,-131.836 641.191,-131.664 638.241,-131.486"/>
<polygon fill="midnightblue" stroke="midnightblue" points="1671.34,-177.926 1681.44,-174.732 1671.55,-170.929 1671.34,-177.926"/>
</g>
<!-- Node2&#45;&gt;Node6 -->
<g id="edge10" class="edge"><title>Node2&#45;&gt;Node6</title>
<path fill="none" stroke="midnightblue" d="M1671.02,-169.134C1558.9,-159.111 1365.84,-141.85 1250.33,-131.522"/>
<polygon fill="midnightblue" stroke="midnightblue" points="1671,-172.647 1681.27,-170.051 1671.63,-165.674 1671,-172.647"/>
</g>
<!-- Node2&#45;&gt;Node7 -->
<g id="edge14" class="edge"><title>Node2&#45;&gt;Node7</title>
<path fill="none" stroke="midnightblue" d="M1671.38,-174.306C1557.21,-169.791 1364.45,-158.438 1299,-132 1267.33,-119.209 1237.95,-90.1498 1224.58,-75.6146"/>
<polygon fill="midnightblue" stroke="midnightblue" points="1671.36,-177.809 1681.49,-174.697 1671.63,-170.814 1671.36,-177.809"/>
</g>
<!-- Node8 -->
<g id="node16" class="node"><title>Node8</title>
<a xlink:href="QueueMerger_8hh.html" target="_top" xlink:title="src/Browser/Queue/QueueMerger.hh">
<polygon fill="white" stroke="black" points="1308,-112.5 1308,-131.5 1484,-131.5 1484,-112.5 1308,-112.5"/>
<text text-anchor="middle" x="1396" y="-119.5" font-family="Helvetica,sans-Serif" font-size="10.00">src/Browser/Queue/QueueMerger.hh</text>
</a>
</g>
<!-- Node2&#45;&gt;Node8 -->
<g id="edge16" class="edge"><title>Node2&#45;&gt;Node8</title>
<path fill="none" stroke="midnightblue" d="M1691.22,-166.917C1622.64,-156.715 1517.79,-141.117 1453.25,-131.516"/>
<polygon fill="midnightblue" stroke="midnightblue" points="1691.08,-170.434 1701.48,-168.444 1692.11,-163.51 1691.08,-170.434"/>
</g>
<!-- Node2&#45;&gt;Node9 -->
<g id="edge20" class="edge"><title>Node2&#45;&gt;Node9</title>
<path fill="none" stroke="midnightblue" d="M1670.85,-176.087C1434.13,-173.279 764.866,-162.995 209,-132 206.251,-131.847 203.464,-131.682 200.651,-131.507"/>
<polygon fill="midnightblue" stroke="midnightblue" points="1671.08,-179.59 1681.12,-176.207 1671.16,-172.59 1671.08,-179.59"/>
</g>
<!-- Node2&#45;&gt;Node11 -->
<g id="edge24" class="edge"><title>Node2&#45;&gt;Node11</title>
<path fill="none" stroke="midnightblue" d="M1671.27,-171.898C1537.15,-163.994 1273.08,-148.023 1049,-132 1033.79,-130.912 1017.43,-129.658 1002.01,-128.438"/>
<polygon fill="midnightblue" stroke="midnightblue" points="1671.3,-175.405 1681.49,-172.499 1671.71,-168.418 1671.3,-175.405"/>
</g>
<!-- Node2&#45;&gt;Node13 -->
<g id="edge32" class="edge"><title>Node2&#45;&gt;Node13</title>
<path fill="none" stroke="midnightblue" d="M1671.16,-173.586C1510.33,-167.116 1157.8,-151.913 861,-132 857.931,-131.794 854.813,-131.577 851.665,-131.352"/>
<polygon fill="midnightblue" stroke="midnightblue" points="1671.34,-177.096 1681.47,-174 1671.62,-170.102 1671.34,-177.096"/>
</g>
<!-- Node14 -->
<g id="node32" class="node"><title>Node14</title>
<a xlink:href="BrowserList_8hh.html" target="_top" xlink:title="src/GManager/BrowserList.hh">
<polygon fill="white" stroke="black" points="1678,-112.5 1678,-131.5 1824,-131.5 1824,-112.5 1678,-112.5"/>
<text text-anchor="middle" x="1751" y="-119.5" font-family="Helvetica,sans-Serif" font-size="10.00">src/GManager/BrowserList.hh</text>
</a>
</g>
<!-- Node2&#45;&gt;Node14 -->
<g id="edge36" class="edge"><title>Node2&#45;&gt;Node14</title>
<path fill="none" stroke="midnightblue" d="M1756.2,-158.101C1754.87,-149.136 1753.35,-138.858 1752.3,-131.751"/>
<polygon fill="midnightblue" stroke="midnightblue" points="1752.75,-158.704 1757.68,-168.083 1759.68,-157.678 1752.75,-158.704"/>
</g>
<!-- Node2&#45;&gt;Node15 -->
<g id="edge38" class="edge"><title>Node2&#45;&gt;Node15</title>
<path fill="none" stroke="midnightblue" d="M1840.14,-167.22C1925.35,-156.948 2057.91,-140.971 2138.18,-131.295"/>
<polygon fill="midnightblue" stroke="midnightblue" points="1839.5,-163.772 1829.99,-168.444 1840.33,-170.722 1839.5,-163.772"/>
</g>
<!-- Node2&#45;&gt;Node16 -->
<g id="edge50" class="edge"><title>Node2&#45;&gt;Node16</title>
<path fill="none" stroke="midnightblue" d="M1846.91,-168.762C1929.35,-160.365 2046.29,-146.54 2090,-132 2100.75,-128.425 2163.01,-92.5821 2192.07,-75.7039"/>
<polygon fill="midnightblue" stroke="midnightblue" points="1846.38,-165.297 1836.78,-169.784 1847.08,-172.262 1846.38,-165.297"/>
</g>
<!-- Node17 -->
<g id="node38" class="node"><title>Node17</title>
<a xlink:href="Timeslide_8hh.html" target="_top" xlink:title="src/GManager/Timeslide.hh">
<polygon fill="white" stroke="black" points="1883.5,-56.5 1883.5,-75.5 2020.5,-75.5 2020.5,-56.5 1883.5,-56.5"/>
<text text-anchor="middle" x="1952" y="-63.5" font-family="Helvetica,sans-Serif" font-size="10.00">src/GManager/Timeslide.hh</text>
</a>
</g>
<!-- Node2&#45;&gt;Node17 -->
<g id="edge54" class="edge"><title>Node2&#45;&gt;Node17</title>
<path fill="none" stroke="midnightblue" d="M1782.31,-163.302C1804.91,-150.059 1840.21,-129.486 1871,-112 1893.66,-99.1307 1920.08,-84.5288 1936.42,-75.5406"/>
<polygon fill="midnightblue" stroke="midnightblue" points="1780.3,-160.421 1773.45,-168.499 1783.84,-166.459 1780.3,-160.421"/>
</g>
<!-- Node2&#45;&gt;Node18 -->
<g id="edge44" class="edge"><title>Node2&#45;&gt;Node18</title>
<path fill="none" stroke="midnightblue" d="M1847.07,-170.285C1951.43,-162.136 2130.52,-147.544 2284,-132 2287.21,-131.675 2290.5,-131.331 2293.82,-130.976"/>
<polygon fill="midnightblue" stroke="midnightblue" points="1846.6,-166.812 1836.9,-171.078 1847.14,-173.79 1846.6,-166.812"/>
</g>
<!-- Node19 -->
<g id="node42" class="node"><title>Node19</title>
<a xlink:href="NotifyManager_8hh.html" target="_top" xlink:title="src/GManager/NotifyManager.hh">
<polygon fill="white" stroke="black" points="1502,-112.5 1502,-131.5 1660,-131.5 1660,-112.5 1502,-112.5"/>
<text text-anchor="middle" x="1581" y="-119.5" font-family="Helvetica,sans-Serif" font-size="10.00">src/GManager/NotifyManager.hh</text>
</a>
</g>
<!-- Node2&#45;&gt;Node19 -->
<g id="edge46" class="edge"><title>Node2&#45;&gt;Node19</title>
<path fill="none" stroke="midnightblue" d="M1720.88,-165.436C1687.32,-155.255 1639.23,-140.664 1609.07,-131.516"/>
<polygon fill="midnightblue" stroke="midnightblue" points="1720.21,-168.89 1730.8,-168.444 1722.24,-162.191 1720.21,-168.89"/>
</g>
<!-- Node2&#45;&gt;Node20 -->
<g id="edge48" class="edge"><title>Node2&#45;&gt;Node20</title>
<path fill="none" stroke="midnightblue" d="M1846.83,-171.992C1976.14,-164.431 2225.35,-149.152 2437,-132 2440.1,-131.748 2443.27,-131.485 2446.46,-131.212"/>
<polygon fill="midnightblue" stroke="midnightblue" points="1846.37,-168.513 1836.59,-172.589 1846.77,-175.501 1846.37,-168.513"/>
</g>
<!-- Node2&#45;&gt;Node21 -->
<g id="edge52" class="edge"><title>Node2&#45;&gt;Node21</title>
<path fill="none" stroke="midnightblue" d="M1846.67,-174.064C2003.01,-168.465 2340.18,-154.752 2624,-132 2627.03,-131.757 2630.13,-131.493 2633.25,-131.213"/>
<polygon fill="midnightblue" stroke="midnightblue" points="1846.5,-170.567 1836.63,-174.421 1846.75,-177.563 1846.5,-170.567"/>
</g>
<!-- Node2&#45;&gt;Node22 -->
<g id="edge56" class="edge"><title>Node2&#45;&gt;Node22</title>
<path fill="none" stroke="midnightblue" d="M1846.73,-175.273C2024.67,-171.306 2440.69,-159.668 2789,-132 2791.99,-131.763 2795.04,-131.499 2798.12,-131.217"/>
<polygon fill="midnightblue" stroke="midnightblue" points="1846.56,-171.776 1836.64,-175.496 1846.72,-178.774 1846.56,-171.776"/>
</g>
<!-- Node2&#45;&gt;Node23 -->
<g id="edge58" class="edge"><title>Node2&#45;&gt;Node23</title>
<path fill="none" stroke="midnightblue" d="M1847.02,-175.617C2043.84,-172.095 2534.44,-160.93 2944,-132 2947.03,-131.786 2950.12,-131.551 2953.23,-131.298"/>
<polygon fill="midnightblue" stroke="midnightblue" points="1846.67,-172.123 1836.74,-175.799 1846.8,-179.121 1846.67,-172.123"/>
</g>
<!-- Node6&#45;&gt;Node7 -->
<g id="edge12" class="edge"><title>Node6&#45;&gt;Node7</title>
<path fill="none" stroke="midnightblue" d="M1172.75,-105.537C1183.81,-95.9087 1197.63,-83.8694 1206.86,-75.8339"/>
<polygon fill="midnightblue" stroke="midnightblue" points="1170.2,-103.117 1164.96,-112.324 1174.8,-108.395 1170.2,-103.117"/>
</g>
<!-- Node8&#45;&gt;Node7 -->
<g id="edge18" class="edge"><title>Node8&#45;&gt;Node7</title>
<path fill="none" stroke="midnightblue" d="M1357.67,-109.436C1323.92,-99.2551 1275.55,-84.664 1245.23,-75.5164"/>
<polygon fill="midnightblue" stroke="midnightblue" points="1357.05,-112.906 1367.64,-112.444 1359.07,-106.204 1357.05,-112.906"/>
</g>
<!-- Node10 -->
<g id="node21" class="node"><title>Node10</title>
<a xlink:href="Settings_8hh.html" target="_top" xlink:title="src/Browser/Settings/Settings.hh">
<polygon fill="white" stroke="black" points="701.5,-0.5 701.5,-19.5 862.5,-19.5 862.5,-0.5 701.5,-0.5"/>
<text text-anchor="middle" x="782" y="-7.5" font-family="Helvetica,sans-Serif" font-size="10.00">src/Browser/Settings/Settings.hh</text>
</a>
</g>
<!-- Node9&#45;&gt;Node10 -->
<g id="edge22" class="edge"><title>Node9&#45;&gt;Node10</title>
<path fill="none" stroke="midnightblue" d="M163.008,-110.837C296.381,-89.3256 605.129,-39.5276 729.086,-19.5345"/>
<polygon fill="midnightblue" stroke="midnightblue" points="162.263,-107.412 152.948,-112.46 163.378,-114.323 162.263,-107.412"/>
</g>
<!-- Node11&#45;&gt;Node10 -->
<g id="edge30" class="edge"><title>Node11&#45;&gt;Node10</title>
<path fill="none" stroke="midnightblue" d="M946.708,-103.72C953.967,-89.5587 960.506,-69.6909 950,-56 936.857,-38.8726 885.976,-26.8385 843.619,-19.5517"/>
<polygon fill="midnightblue" stroke="midnightblue" points="943.638,-102.038 941.768,-112.466 949.733,-105.48 943.638,-102.038"/>
</g>
<!-- Node12 -->
<g id="node25" class="node"><title>Node12</title>
<a xlink:href="SettingsGeneral_8hh.html" target="_top" xlink:title="src/Browser/Settings/SettingsGeneral.hh">
<polygon fill="white" stroke="black" points="748,-56.5 748,-75.5 942,-75.5 942,-56.5 748,-56.5"/>
<text text-anchor="middle" x="845" y="-63.5" font-family="Helvetica,sans-Serif" font-size="10.00">src/Browser/Settings/SettingsGeneral.hh</text>
</a>
</g>
<!-- Node11&#45;&gt;Node12 -->
<g id="edge26" class="edge"><title>Node11&#45;&gt;Node12</title>
<path fill="none" stroke="midnightblue" d="M912.706,-107.177C895.961,-97.2407 873.9,-84.1492 859.584,-75.6545"/>
<polygon fill="midnightblue" stroke="midnightblue" points="910.993,-110.231 921.379,-112.324 914.566,-104.211 910.993,-110.231"/>
</g>
<!-- Node12&#45;&gt;Node10 -->
<g id="edge28" class="edge"><title>Node12&#45;&gt;Node10</title>
<path fill="none" stroke="midnightblue" d="M826.96,-49.5372C815.727,-39.9087 801.681,-27.8694 792.306,-19.8339"/>
<polygon fill="midnightblue" stroke="midnightblue" points="825.008,-52.4734 834.878,-56.324 829.563,-47.1586 825.008,-52.4734"/>
</g>
<!-- Node13&#45;&gt;Node10 -->
<g id="edge34" class="edge"><title>Node13&#45;&gt;Node10</title>
<path fill="none" stroke="midnightblue" d="M744.264,-103.294C738.272,-89.9651 732.818,-71.4187 739,-56 745.113,-40.755 759.126,-27.7492 769.503,-19.698"/>
<polygon fill="midnightblue" stroke="midnightblue" points="741.175,-104.942 748.768,-112.331 747.44,-101.82 741.175,-104.942"/>
</g>
<!-- Node15&#45;&gt;Node16 -->
<g id="edge40" class="edge"><title>Node15&#45;&gt;Node16</title>
<path fill="none" stroke="midnightblue" d="M2207,-101.805C2207,-92.9102 2207,-82.7798 2207,-75.7511"/>
<polygon fill="midnightblue" stroke="midnightblue" points="2203.5,-102.083 2207,-112.083 2210.5,-102.083 2203.5,-102.083"/>
</g>
<!-- Node15&#45;&gt;Node17 -->
<g id="edge42" class="edge"><title>Node15&#45;&gt;Node17</title>
<path fill="none" stroke="midnightblue" d="M2156.69,-110.346C2108.5,-100.141 2036.72,-84.94 1992.22,-75.5164"/>
<polygon fill="midnightblue" stroke="midnightblue" points="2156.09,-113.796 2166.59,-112.444 2157.54,-106.948 2156.09,-113.796"/>
</g>
</g>
</svg>
