<?xml version="1.0" encoding="UTF-8" standalone="no"?>
<!DOCTYPE svg PUBLIC "-//W3C//DTD SVG 1.1//EN"
 "http://www.w3.org/Graphics/SVG/1.1/DTD/svg11.dtd">
<!-- Generated by graphviz version 2.28.0 (20111204.1018)
 -->
<!-- Title: G Pages: 1 -->
<svg width="208pt" height="140pt"
 viewBox="0.00 0.00 208.00 140.00" xmlns="http://www.w3.org/2000/svg" xmlns:xlink="http://www.w3.org/1999/xlink">
<g id="graph1" class="graph" transform="scale(1 1) rotate(0) translate(4 136)">
<title>G</title>
<polygon fill="white" stroke="white" points="-4,5 -4,-136 205,-136 205,5 -4,5"/>
<!-- Node1 -->
<g id="node1" class="node"><title>Node1</title>
<polygon fill="#bfbfbf" stroke="black" points="0,-112.5 0,-131.5 200,-131.5 200,-112.5 0,-112.5"/>
<text text-anchor="middle" x="100" y="-119.5" font-family="Helvetica,sans-Serif" font-size="10.00">src/Browser/Database/DatabasePopup.hh</text>
</g>
<!-- Node2 -->
<g id="node3" class="node"><title>Node2</title>
<polygon fill="white" stroke="#bfbfbf" points="72.5,-0.5 72.5,-19.5 127.5,-19.5 127.5,-0.5 72.5,-0.5"/>
<text text-anchor="middle" x="100" y="-7.5" font-family="Helvetica,sans-Serif" font-size="10.00">gtkmm.h</text>
</g>
<!-- Node1&#45;&gt;Node2 -->
<g id="edge2" class="edge"><title>Node1&#45;&gt;Node2</title>
<path fill="none" stroke="midnightblue" d="M95.8888,-112.277C91.9413,-103.383 86.255,-89.0736 84,-76 81.2255,-59.9147 86.3116,-41.9139 91.4681,-28.9413"/>
<polygon fill="midnightblue" stroke="midnightblue" points="94.6877,-30.3141 95.4698,-19.7482 88.2694,-27.5203 94.6877,-30.3141"/>
</g>
<!-- Node3 -->
<g id="node5" class="node"><title>Node3</title>
<a xlink:href="BasePopup_8hh.html" target="_top" xlink:title="../BasePopup.hh">
<polygon fill="white" stroke="black" points="92.5,-56.5 92.5,-75.5 181.5,-75.5 181.5,-56.5 92.5,-56.5"/>
<text text-anchor="middle" x="137" y="-63.5" font-family="Helvetica,sans-Serif" font-size="10.00">../BasePopup.hh</text>
</a>
</g>
<!-- Node1&#45;&gt;Node3 -->
<g id="edge4" class="edge"><title>Node1&#45;&gt;Node3</title>
<path fill="none" stroke="midnightblue" d="M106.11,-112.083C111.282,-104.534 118.846,-93.4948 125.194,-84.2298"/>
<polygon fill="midnightblue" stroke="midnightblue" points="128.239,-85.9787 131.004,-75.7511 122.464,-82.0221 128.239,-85.9787"/>
</g>
<!-- Node3&#45;&gt;Node2 -->
<g id="edge6" class="edge"><title>Node3&#45;&gt;Node2</title>
<path fill="none" stroke="midnightblue" d="M130.89,-56.083C125.718,-48.5341 118.154,-37.4948 111.806,-28.2298"/>
<polygon fill="midnightblue" stroke="midnightblue" points="114.536,-26.0221 105.996,-19.7511 108.761,-29.9787 114.536,-26.0221"/>
</g>
</g>
</svg>
