<?xml version="1.0" encoding="UTF-8" standalone="no"?>
<!DOCTYPE svg PUBLIC "-//W3C//DTD SVG 1.1//EN"
 "http://www.w3.org/Graphics/SVG/1.1/DTD/svg11.dtd">
<!-- Generated by graphviz version 2.28.0 (20111204.1018)
 -->
<!-- Title: G Pages: 1 -->
<svg width="728pt" height="476pt"
 viewBox="0.00 0.00 727.91 476.00" xmlns="http://www.w3.org/2000/svg" xmlns:xlink="http://www.w3.org/1999/xlink">
<g id="graph1" class="graph" transform="scale(1 1) rotate(0) translate(4 472)">
<title>G</title>
<polygon fill="white" stroke="white" points="-4,5 -4,-472 724.914,-472 724.914,5 -4,5"/>
<!-- Node1 -->
<g id="node1" class="node"><title>Node1</title>
<polygon fill="#bfbfbf" stroke="black" points="388.449,-448.5 388.449,-467.5 561.449,-467.5 561.449,-448.5 388.449,-448.5"/>
<text text-anchor="middle" x="474.949" y="-455.5" font-family="Helvetica,sans-Serif" font-size="10.00">src/Browser/Database/Database.hh</text>
</g>
<!-- Node2 -->
<g id="node3" class="node"><title>Node2</title>
<polygon fill="white" stroke="#bfbfbf" points="178.449,-280.5 178.449,-299.5 233.449,-299.5 233.449,-280.5 178.449,-280.5"/>
<text text-anchor="middle" x="205.949" y="-287.5" font-family="Helvetica,sans-Serif" font-size="10.00">gtkmm.h</text>
</g>
<!-- Node1&#45;&gt;Node2 -->
<g id="edge2" class="edge"><title>Node1&#45;&gt;Node2</title>
<path fill="none" stroke="midnightblue" d="M388.38,-454.059C319.53,-449.696 231.05,-438.866 207.949,-412 183.379,-383.424 192.259,-335.488 199.776,-309.352"/>
<polygon fill="midnightblue" stroke="midnightblue" points="203.179,-310.193 202.812,-299.605 196.496,-308.111 203.179,-310.193"/>
</g>
<!-- Node3 -->
<g id="node5" class="node"><title>Node3</title>
<a xlink:href="AbstractItemlist_8hh.html" target="_top" xlink:title="../../MPD/AbstractItemlist.hh">
<polygon fill="white" stroke="black" points="503.449,-224.5 503.449,-243.5 646.449,-243.5 646.449,-224.5 503.449,-224.5"/>
<text text-anchor="middle" x="574.949" y="-231.5" font-family="Helvetica,sans-Serif" font-size="10.00">../../MPD/AbstractItemlist.hh</text>
</a>
</g>
<!-- Node1&#45;&gt;Node3 -->
<g id="edge4" class="edge"><title>Node1&#45;&gt;Node3</title>
<path fill="none" stroke="midnightblue" d="M561.582,-451.486C619.549,-445.781 688.481,-434.395 706.949,-412 755.409,-353.238 649.127,-279.066 599.116,-248.804"/>
<polygon fill="midnightblue" stroke="midnightblue" points="600.59,-245.609 590.204,-243.515 597.018,-251.629 600.59,-245.609"/>
</g>
<!-- Node6 -->
<g id="node11" class="node"><title>Node6</title>
<a xlink:href="AbstractClientUser_8hh.html" target="_top" xlink:title="../../MPD/AbstractClientUser.hh">
<polygon fill="white" stroke="black" points="541.449,-392.5 541.449,-411.5 698.449,-411.5 698.449,-392.5 541.449,-392.5"/>
<text text-anchor="middle" x="619.949" y="-399.5" font-family="Helvetica,sans-Serif" font-size="10.00">../../MPD/AbstractClientUser.hh</text>
</a>
</g>
<!-- Node1&#45;&gt;Node6 -->
<g id="edge10" class="edge"><title>Node1&#45;&gt;Node6</title>
<path fill="none" stroke="midnightblue" d="M497.925,-448.444C522.106,-439.438 560.367,-425.189 587.595,-415.049"/>
<polygon fill="midnightblue" stroke="midnightblue" points="588.931,-418.286 597.081,-411.516 586.488,-411.727 588.931,-418.286"/>
</g>
<!-- Node7 -->
<g id="node13" class="node"><title>Node7</title>
<a xlink:href="Client_8hh.html" target="_top" xlink:title="Client.hh">
<polygon fill="white" stroke="black" points="521.949,-336.5 521.949,-355.5 577.949,-355.5 577.949,-336.5 521.949,-336.5"/>
<text text-anchor="middle" x="549.949" y="-343.5" font-family="Helvetica,sans-Serif" font-size="10.00">Client.hh</text>
</a>
</g>
<!-- Node1&#45;&gt;Node7 -->
<g id="edge60" class="edge"><title>Node1&#45;&gt;Node7</title>
<path fill="none" stroke="midnightblue" d="M480.834,-448.368C493.211,-430.215 522.13,-387.802 538.365,-363.99"/>
<polygon fill="midnightblue" stroke="midnightblue" points="541.35,-365.825 544.091,-355.591 535.566,-361.882 541.35,-365.825"/>
</g>
<!-- Node20 -->
<g id="node51" class="node"><title>Node20</title>
<a xlink:href="Directory_8hh.html" target="_top" xlink:title="../../MPD/Directory.hh">
<polygon fill="white" stroke="black" points="402.449,-112.5 402.449,-131.5 515.449,-131.5 515.449,-112.5 402.449,-112.5"/>
<text text-anchor="middle" x="458.949" y="-119.5" font-family="Helvetica,sans-Serif" font-size="10.00">../../MPD/Directory.hh</text>
</a>
</g>
<!-- Node1&#45;&gt;Node20 -->
<g id="edge62" class="edge"><title>Node1&#45;&gt;Node20</title>
<path fill="none" stroke="midnightblue" d="M474.949,-448.442C474.949,-429.936 474.949,-384.812 474.949,-347 474.949,-347 474.949,-347 474.949,-233 474.949,-200.626 468.078,-163.445 463.342,-141.659"/>
<polygon fill="midnightblue" stroke="midnightblue" points="466.727,-140.759 461.107,-131.777 459.899,-142.303 466.727,-140.759"/>
</g>
<!-- Node21 -->
<g id="node55" class="node"><title>Node21</title>
<a xlink:href="DatabasePopup_8hh.html" target="_top" xlink:title="DatabasePopup.hh">
<polygon fill="white" stroke="black" points="216.949,-392.5 216.949,-411.5 316.949,-411.5 316.949,-392.5 216.949,-392.5"/>
<text text-anchor="middle" x="266.949" y="-399.5" font-family="Helvetica,sans-Serif" font-size="10.00">DatabasePopup.hh</text>
</a>
</g>
<!-- Node1&#45;&gt;Node21 -->
<g id="edge68" class="edge"><title>Node1&#45;&gt;Node21</title>
<path fill="none" stroke="midnightblue" d="M441.991,-448.444C406.162,-439.142 348.786,-424.246 309.559,-414.062"/>
<polygon fill="midnightblue" stroke="midnightblue" points="310.312,-410.642 299.753,-411.516 308.553,-417.417 310.312,-410.642"/>
</g>
<!-- Node23 -->
<g id="node61" class="node"><title>Node23</title>
<a xlink:href="AbstractBrowser_8hh.html" target="_top" xlink:title="../AbstractBrowser.hh">
<polygon fill="white" stroke="black" points="334.949,-392.5 334.949,-411.5 446.949,-411.5 446.949,-392.5 334.949,-392.5"/>
<text text-anchor="middle" x="390.949" y="-399.5" font-family="Helvetica,sans-Serif" font-size="10.00">../AbstractBrowser.hh</text>
</a>
</g>
<!-- Node1&#45;&gt;Node23 -->
<g id="edge76" class="edge"><title>Node1&#45;&gt;Node23</title>
<path fill="none" stroke="midnightblue" d="M461.453,-448.324C448.35,-439.9 428.237,-426.971 412.842,-417.074"/>
<polygon fill="midnightblue" stroke="midnightblue" points="414.716,-414.118 404.412,-411.655 410.931,-420.006 414.716,-414.118"/>
</g>
<!-- Node4 -->
<g id="node7" class="node"><title>Node4</title>
<a xlink:href="AbstractComposite_8hh.html" target="_top" xlink:title="AbstractComposite.hh">
<polygon fill="white" stroke="black" points="401.949,-56.5 401.949,-75.5 515.949,-75.5 515.949,-56.5 401.949,-56.5"/>
<text text-anchor="middle" x="458.949" y="-63.5" font-family="Helvetica,sans-Serif" font-size="10.00">AbstractComposite.hh</text>
</a>
</g>
<!-- Node3&#45;&gt;Node4 -->
<g id="edge6" class="edge"><title>Node3&#45;&gt;Node4</title>
<path fill="none" stroke="midnightblue" d="M573.048,-224.208C568.098,-202.959 553.122,-147.924 523.949,-112 513.506,-99.1398 498.46,-88.4028 485.474,-80.6457"/>
<polygon fill="midnightblue" stroke="midnightblue" points="486.901,-77.4313 476.477,-75.5363 483.444,-83.5182 486.901,-77.4313"/>
</g>
<!-- Node5 -->
<g id="node9" class="node"><title>Node5</title>
<polygon fill="white" stroke="#bfbfbf" points="436.949,-0.5 436.949,-19.5 480.949,-19.5 480.949,-0.5 436.949,-0.5"/>
<text text-anchor="middle" x="458.949" y="-7.5" font-family="Helvetica,sans-Serif" font-size="10.00">vector</text>
</g>
<!-- Node4&#45;&gt;Node5 -->
<g id="edge8" class="edge"><title>Node4&#45;&gt;Node5</title>
<path fill="none" stroke="midnightblue" d="M458.949,-56.083C458.949,-49.0059 458.949,-38.8611 458.949,-29.9865"/>
<polygon fill="midnightblue" stroke="midnightblue" points="462.449,-29.751 458.949,-19.7511 455.449,-29.7511 462.449,-29.751"/>
</g>
<!-- Node6&#45;&gt;Node7 -->
<g id="edge12" class="edge"><title>Node6&#45;&gt;Node7</title>
<path fill="none" stroke="midnightblue" d="M608.702,-392.324C598.152,-384.185 582.149,-371.839 569.507,-362.087"/>
<polygon fill="midnightblue" stroke="midnightblue" points="571.456,-359.171 561.401,-355.834 567.181,-364.713 571.456,-359.171"/>
</g>
<!-- Node8 -->
<g id="node15" class="node"><title>Node8</title>
<a xlink:href="BaseClient_8hh.html" target="_top" xlink:title="BaseClient.hh">
<polygon fill="white" stroke="black" points="251.949,-280.5 251.949,-299.5 329.949,-299.5 329.949,-280.5 251.949,-280.5"/>
<text text-anchor="middle" x="290.949" y="-287.5" font-family="Helvetica,sans-Serif" font-size="10.00">BaseClient.hh</text>
</a>
</g>
<!-- Node7&#45;&gt;Node8 -->
<g id="edge14" class="edge"><title>Node7&#45;&gt;Node8</title>
<path fill="none" stroke="midnightblue" d="M521.739,-339.118C478.137,-330.027 393.806,-312.445 340.052,-301.238"/>
<polygon fill="midnightblue" stroke="midnightblue" points="340.563,-297.769 330.059,-299.154 339.135,-304.622 340.563,-297.769"/>
</g>
<!-- Node19 -->
<g id="node47" class="node"><title>Node19</title>
<a xlink:href="AbstractItemGenerator_8hh.html" target="_top" xlink:title="AbstractItemGenerator.hh">
<polygon fill="white" stroke="black" points="507.449,-280.5 507.449,-299.5 636.449,-299.5 636.449,-280.5 507.449,-280.5"/>
<text text-anchor="middle" x="571.949" y="-287.5" font-family="Helvetica,sans-Serif" font-size="10.00">AbstractItemGenerator.hh</text>
</a>
</g>
<!-- Node7&#45;&gt;Node19 -->
<g id="edge56" class="edge"><title>Node7&#45;&gt;Node19</title>
<path fill="none" stroke="midnightblue" d="M553.582,-336.083C556.561,-328.77 560.875,-318.181 564.574,-309.103"/>
<polygon fill="midnightblue" stroke="midnightblue" points="567.852,-310.333 568.384,-299.751 561.37,-307.691 567.852,-310.333"/>
</g>
<!-- Node9 -->
<g id="node17" class="node"><title>Node9</title>
<a xlink:href="Listener_8hh.html" target="_top" xlink:title="Listener.hh">
<polygon fill="white" stroke="black" points="233.449,-224.5 233.449,-243.5 298.449,-243.5 298.449,-224.5 233.449,-224.5"/>
<text text-anchor="middle" x="265.949" y="-231.5" font-family="Helvetica,sans-Serif" font-size="10.00">Listener.hh</text>
</a>
</g>
<!-- Node8&#45;&gt;Node9 -->
<g id="edge16" class="edge"><title>Node8&#45;&gt;Node9</title>
<path fill="none" stroke="midnightblue" d="M286.821,-280.083C283.435,-272.77 278.533,-262.181 274.33,-253.103"/>
<polygon fill="midnightblue" stroke="midnightblue" points="277.378,-251.355 270.001,-243.751 271.026,-254.296 277.378,-251.355"/>
</g>
<!-- Node16 -->
<g id="node32" class="node"><title>Node16</title>
<a xlink:href="Connection_8hh.html" target="_top" xlink:title="Connection.hh">
<polygon fill="white" stroke="black" points="11.9492,-112.5 11.9492,-131.5 91.9492,-131.5 91.9492,-112.5 11.9492,-112.5"/>
<text text-anchor="middle" x="51.9492" y="-119.5" font-family="Helvetica,sans-Serif" font-size="10.00">Connection.hh</text>
</a>
</g>
<!-- Node8&#45;&gt;Node16 -->
<g id="edge54" class="edge"><title>Node8&#45;&gt;Node16</title>
<path fill="none" stroke="midnightblue" d="M252.189,-280.391C204.483,-267.885 123.918,-240.254 75.9492,-188 64.1383,-175.134 58.0048,-155.955 54.9078,-141.761"/>
<polygon fill="midnightblue" stroke="midnightblue" points="58.2987,-140.852 53.0246,-131.663 51.4173,-142.135 58.2987,-140.852"/>
</g>
<!-- Node10 -->
<g id="node19" class="node"><title>Node10</title>
<polygon fill="white" stroke="#bfbfbf" points="222.949,-56.5 222.949,-75.5 292.949,-75.5 292.949,-56.5 222.949,-56.5"/>
<text text-anchor="middle" x="257.949" y="-63.5" font-family="Helvetica,sans-Serif" font-size="10.00">mpd/client.h</text>
</g>
<!-- Node9&#45;&gt;Node10 -->
<g id="edge18" class="edge"><title>Node9&#45;&gt;Node10</title>
<path fill="none" stroke="midnightblue" d="M278.321,-224.221C304.802,-204.316 362.631,-154.202 337.949,-112 329.088,-96.8495 313.044,-86.406 297.637,-79.4236"/>
<polygon fill="midnightblue" stroke="midnightblue" points="298.775,-76.1064 288.197,-75.5122 296.095,-82.5733 298.775,-76.1064"/>
</g>
<!-- Node11 -->
<g id="node21" class="node"><title>Node11</title>
<polygon fill="white" stroke="#bfbfbf" points="205.449,-168.5 205.449,-187.5 278.449,-187.5 278.449,-168.5 205.449,-168.5"/>
<text text-anchor="middle" x="241.949" y="-175.5" font-family="Helvetica,sans-Serif" font-size="10.00">mpd/async.h</text>
</g>
<!-- Node9&#45;&gt;Node11 -->
<g id="edge20" class="edge"><title>Node9&#45;&gt;Node11</title>
<path fill="none" stroke="midnightblue" d="M261.986,-224.083C258.736,-216.77 254.03,-206.181 249.995,-197.103"/>
<polygon fill="midnightblue" stroke="midnightblue" points="253.098,-195.468 245.839,-187.751 246.702,-198.311 253.098,-195.468"/>
</g>
<!-- Node12 -->
<g id="node23" class="node"><title>Node12</title>
<polygon fill="white" stroke="#bfbfbf" points="372.949,-168.5 372.949,-187.5 446.949,-187.5 446.949,-168.5 372.949,-168.5"/>
<text text-anchor="middle" x="409.949" y="-175.5" font-family="Helvetica,sans-Serif" font-size="10.00">mpd/parser.h</text>
</g>
<!-- Node9&#45;&gt;Node12 -->
<g id="edge22" class="edge"><title>Node9&#45;&gt;Node12</title>
<path fill="none" stroke="midnightblue" d="M288.766,-224.444C312.781,-215.438 350.778,-201.189 377.818,-191.049"/>
<polygon fill="midnightblue" stroke="midnightblue" points="379.104,-194.305 387.239,-187.516 376.646,-187.751 379.104,-194.305"/>
</g>
<!-- Node13 -->
<g id="node25" class="node"><title>Node13</title>
<polygon fill="white" stroke="#bfbfbf" points="23.9492,-56.5 23.9492,-75.5 79.9492,-75.5 79.9492,-56.5 23.9492,-56.5"/>
<text text-anchor="middle" x="51.9492" y="-63.5" font-family="Helvetica,sans-Serif" font-size="10.00">glibmm.h</text>
</g>
<!-- Node9&#45;&gt;Node13 -->
<g id="edge24" class="edge"><title>Node9&#45;&gt;Node13</title>
<path fill="none" stroke="midnightblue" d="M233.119,-233.026C172.32,-230.999 44.5976,-216.441 2.94921,-132 -6.41983,-113.005 11.9761,-93.972 28.8383,-81.4566"/>
<polygon fill="midnightblue" stroke="midnightblue" points="31.1421,-84.1181 37.3612,-75.5406 27.1505,-78.3676 31.1421,-84.1181"/>
</g>
<!-- Node14 -->
<g id="node27" class="node"><title>Node14</title>
<a xlink:href="Status_8hh.html" target="_top" xlink:title="Status.hh">
<polygon fill="white" stroke="black" points="270.449,-112.5 270.449,-131.5 329.449,-131.5 329.449,-112.5 270.449,-112.5"/>
<text text-anchor="middle" x="299.949" y="-119.5" font-family="Helvetica,sans-Serif" font-size="10.00">Status.hh</text>
</a>
</g>
<!-- Node9&#45;&gt;Node14 -->
<g id="edge26" class="edge"><title>Node9&#45;&gt;Node14</title>
<path fill="none" stroke="midnightblue" d="M270.78,-224.291C275.521,-215.408 282.649,-201.107 286.949,-188 291.944,-172.777 295.351,-154.888 297.42,-141.734"/>
<polygon fill="midnightblue" stroke="midnightblue" points="300.92,-141.981 298.9,-131.581 293.994,-140.971 300.92,-141.981"/>
</g>
<!-- Node15 -->
<g id="node30" class="node"><title>Node15</title>
<a xlink:href="NotifyData_8hh.html" target="_top" xlink:title="NotifyData.hh">
<polygon fill="white" stroke="black" points="110.449,-168.5 110.449,-187.5 187.449,-187.5 187.449,-168.5 110.449,-168.5"/>
<text text-anchor="middle" x="148.949" y="-175.5" font-family="Helvetica,sans-Serif" font-size="10.00">NotifyData.hh</text>
</a>
</g>
<!-- Node9&#45;&gt;Node15 -->
<g id="edge30" class="edge"><title>Node9&#45;&gt;Node15</title>
<path fill="none" stroke="midnightblue" d="M247.41,-224.444C228.326,-215.636 198.374,-201.812 176.513,-191.722"/>
<polygon fill="midnightblue" stroke="midnightblue" points="177.948,-188.529 167.401,-187.516 175.014,-194.885 177.948,-188.529"/>
</g>
<!-- Node9&#45;&gt;Node16 -->
<g id="edge52" class="edge"><title>Node9&#45;&gt;Node16</title>
<path fill="none" stroke="midnightblue" d="M233.277,-230.364C197.983,-226.167 141.384,-215.399 100.949,-188 83.269,-176.02 69.3871,-155.532 60.9803,-140.757"/>
<polygon fill="midnightblue" stroke="midnightblue" points="63.8796,-138.759 56.0556,-131.615 57.7169,-142.078 63.8796,-138.759"/>
</g>
<!-- Node14&#45;&gt;Node10 -->
<g id="edge28" class="edge"><title>Node14&#45;&gt;Node10</title>
<path fill="none" stroke="midnightblue" d="M293.014,-112.083C287.02,-104.377 278.197,-93.0333 270.902,-83.6531"/>
<polygon fill="midnightblue" stroke="midnightblue" points="273.658,-81.4958 264.756,-75.7511 268.132,-85.7934 273.658,-81.4958"/>
</g>
<!-- Node15&#45;&gt;Node14 -->
<g id="edge42" class="edge"><title>Node15&#45;&gt;Node14</title>
<path fill="none" stroke="midnightblue" d="M172.876,-168.444C198.168,-159.399 238.252,-145.064 266.629,-134.916"/>
<polygon fill="midnightblue" stroke="midnightblue" points="267.897,-138.179 276.135,-131.516 265.54,-131.588 267.897,-138.179"/>
</g>
<!-- Node15&#45;&gt;Node16 -->
<g id="edge32" class="edge"><title>Node15&#45;&gt;Node16</title>
<path fill="none" stroke="midnightblue" d="M133.364,-168.324C117.95,-159.743 94.137,-146.486 76.2395,-136.522"/>
<polygon fill="midnightblue" stroke="midnightblue" points="77.935,-133.461 67.4953,-131.655 74.5301,-139.577 77.935,-133.461"/>
</g>
<!-- Node17 -->
<g id="node36" class="node"><title>Node17</title>
<a xlink:href="Statistics_8hh.html" target="_top" xlink:title="Statistics.hh">
<polygon fill="white" stroke="black" points="181.449,-112.5 181.449,-131.5 252.449,-131.5 252.449,-112.5 181.449,-112.5"/>
<text text-anchor="middle" x="216.949" y="-119.5" font-family="Helvetica,sans-Serif" font-size="10.00">Statistics.hh</text>
</a>
</g>
<!-- Node15&#45;&gt;Node17 -->
<g id="edge38" class="edge"><title>Node15&#45;&gt;Node17</title>
<path fill="none" stroke="midnightblue" d="M159.875,-168.324C170.124,-160.185 185.67,-147.839 197.95,-138.087"/>
<polygon fill="midnightblue" stroke="midnightblue" points="200.171,-140.794 205.825,-131.834 195.817,-135.312 200.171,-140.794"/>
</g>
<!-- Node18 -->
<g id="node40" class="node"><title>Node18</title>
<a xlink:href="Song_8hh.html" target="_top" xlink:title="Song.hh">
<polygon fill="white" stroke="black" points="110.449,-112.5 110.449,-131.5 163.449,-131.5 163.449,-112.5 110.449,-112.5"/>
<text text-anchor="middle" x="136.949" y="-119.5" font-family="Helvetica,sans-Serif" font-size="10.00">Song.hh</text>
</a>
</g>
<!-- Node15&#45;&gt;Node18 -->
<g id="edge44" class="edge"><title>Node15&#45;&gt;Node18</title>
<path fill="none" stroke="midnightblue" d="M146.968,-168.083C145.377,-160.927 143.09,-150.635 141.103,-141.691"/>
<polygon fill="midnightblue" stroke="midnightblue" points="144.48,-140.754 138.894,-131.751 137.647,-142.272 144.48,-140.754"/>
</g>
<!-- Node16&#45;&gt;Node10 -->
<g id="edge34" class="edge"><title>Node16&#45;&gt;Node10</title>
<path fill="none" stroke="midnightblue" d="M84.5905,-112.444C119.999,-103.162 176.658,-88.3093 215.502,-78.127"/>
<polygon fill="midnightblue" stroke="midnightblue" points="216.675,-81.4378 225.461,-75.5164 214.9,-74.6666 216.675,-81.4378"/>
</g>
<!-- Node16&#45;&gt;Node13 -->
<g id="edge36" class="edge"><title>Node16&#45;&gt;Node13</title>
<path fill="none" stroke="midnightblue" d="M51.9492,-112.083C51.9492,-105.006 51.9492,-94.8611 51.9492,-85.9865"/>
<polygon fill="midnightblue" stroke="midnightblue" points="55.4493,-85.751 51.9492,-75.7511 48.4493,-85.7511 55.4493,-85.751"/>
</g>
<!-- Node17&#45;&gt;Node10 -->
<g id="edge40" class="edge"><title>Node17&#45;&gt;Node10</title>
<path fill="none" stroke="midnightblue" d="M223.72,-112.083C229.511,-104.455 238.008,-93.2645 245.087,-83.9408"/>
<polygon fill="midnightblue" stroke="midnightblue" points="248.045,-85.8321 251.305,-75.7511 242.47,-81.5991 248.045,-85.8321"/>
</g>
<!-- Node18&#45;&gt;Node4 -->
<g id="edge48" class="edge"><title>Node18&#45;&gt;Node4</title>
<path fill="none" stroke="midnightblue" d="M163.641,-113.855C166.437,-113.19 169.246,-112.558 171.949,-112 246.619,-96.583 333.182,-83.6819 391.553,-75.7015"/>
<polygon fill="midnightblue" stroke="midnightblue" points="392.315,-79.1303 401.753,-74.3178 391.374,-72.1939 392.315,-79.1303"/>
</g>
<!-- Node18&#45;&gt;Node10 -->
<g id="edge46" class="edge"><title>Node18&#45;&gt;Node10</title>
<path fill="none" stroke="midnightblue" d="M156.122,-112.444C175.858,-103.636 206.834,-89.8116 229.443,-79.722"/>
<polygon fill="midnightblue" stroke="midnightblue" points="231.161,-82.788 238.866,-75.5164 228.308,-76.3957 231.161,-82.788"/>
</g>
<!-- Node18&#45;&gt;Node13 -->
<g id="edge50" class="edge"><title>Node18&#45;&gt;Node13</title>
<path fill="none" stroke="midnightblue" d="M123.292,-112.324C110.033,-103.9 89.6812,-90.9709 74.103,-81.0741"/>
<polygon fill="midnightblue" stroke="midnightblue" points="75.8896,-78.0626 65.572,-75.6545 72.1359,-83.9711 75.8896,-78.0626"/>
</g>
<!-- Node19&#45;&gt;Node3 -->
<g id="edge58" class="edge"><title>Node19&#45;&gt;Node3</title>
<path fill="none" stroke="midnightblue" d="M572.445,-280.083C572.838,-273.006 573.401,-262.861 573.894,-253.986"/>
<polygon fill="midnightblue" stroke="midnightblue" points="577.403,-253.93 574.463,-243.751 570.414,-253.542 577.403,-253.93"/>
</g>
<!-- Node20&#45;&gt;Node4 -->
<g id="edge66" class="edge"><title>Node20&#45;&gt;Node4</title>
<path fill="none" stroke="midnightblue" d="M458.949,-112.083C458.949,-105.006 458.949,-94.8611 458.949,-85.9865"/>
<polygon fill="midnightblue" stroke="midnightblue" points="462.449,-85.751 458.949,-75.7511 455.449,-85.7511 462.449,-85.751"/>
</g>
<!-- Node20&#45;&gt;Node10 -->
<g id="edge64" class="edge"><title>Node20&#45;&gt;Node10</title>
<path fill="none" stroke="midnightblue" d="M427.1,-112.444C392.551,-103.162 337.267,-88.3093 299.366,-78.127"/>
<polygon fill="midnightblue" stroke="midnightblue" points="300.215,-74.7309 289.649,-75.5164 298.399,-81.4912 300.215,-74.7309"/>
</g>
<!-- Node21&#45;&gt;Node2 -->
<g id="edge70" class="edge"><title>Node21&#45;&gt;Node2</title>
<path fill="none" stroke="midnightblue" d="M256.506,-392.397C246.99,-384.028 233.199,-370.487 224.949,-356 216.768,-341.633 211.842,-323.436 209.063,-309.953"/>
<polygon fill="midnightblue" stroke="midnightblue" points="212.468,-309.12 207.21,-299.922 205.585,-310.392 212.468,-309.12"/>
</g>
<!-- Node22 -->
<g id="node58" class="node"><title>Node22</title>
<a xlink:href="BasePopup_8hh.html" target="_top" xlink:title="../BasePopup.hh">
<polygon fill="white" stroke="black" points="234.449,-336.5 234.449,-355.5 323.449,-355.5 323.449,-336.5 234.449,-336.5"/>
<text text-anchor="middle" x="278.949" y="-343.5" font-family="Helvetica,sans-Serif" font-size="10.00">../BasePopup.hh</text>
</a>
</g>
<!-- Node21&#45;&gt;Node22 -->
<g id="edge72" class="edge"><title>Node21&#45;&gt;Node22</title>
<path fill="none" stroke="midnightblue" d="M268.931,-392.083C270.521,-384.927 272.808,-374.635 274.796,-365.691"/>
<polygon fill="midnightblue" stroke="midnightblue" points="278.252,-366.272 277.005,-355.751 271.418,-364.754 278.252,-366.272"/>
</g>
<!-- Node22&#45;&gt;Node2 -->
<g id="edge74" class="edge"><title>Node22&#45;&gt;Node2</title>
<path fill="none" stroke="midnightblue" d="M267.22,-336.324C256.112,-328.107 239.207,-315.602 225.966,-305.807"/>
<polygon fill="midnightblue" stroke="midnightblue" points="228.012,-302.967 217.891,-299.834 223.849,-308.595 228.012,-302.967"/>
</g>
<!-- Node23&#45;&gt;Node2 -->
<g id="edge78" class="edge"><title>Node23&#45;&gt;Node2</title>
<path fill="none" stroke="midnightblue" d="M385.109,-392.161C375.55,-378.334 355.276,-351.564 331.949,-336 317.129,-326.112 274.829,-311.916 243.303,-302.126"/>
<polygon fill="midnightblue" stroke="midnightblue" points="244.081,-298.704 233.494,-299.113 242.025,-305.395 244.081,-298.704"/>
</g>
<!-- Node24 -->
<g id="node64" class="node"><title>Node24</title>
<polygon fill="white" stroke="#bfbfbf" points="379.949,-336.5 379.949,-355.5 433.949,-355.5 433.949,-336.5 379.949,-336.5"/>
<text text-anchor="middle" x="406.949" y="-343.5" font-family="Helvetica,sans-Serif" font-size="10.00">iostream</text>
</g>
<!-- Node23&#45;&gt;Node24 -->
<g id="edge80" class="edge"><title>Node23&#45;&gt;Node24</title>
<path fill="none" stroke="midnightblue" d="M393.591,-392.083C395.735,-384.849 398.828,-374.409 401.498,-365.397"/>
<polygon fill="midnightblue" stroke="midnightblue" points="404.871,-366.333 404.356,-355.751 398.16,-364.345 404.871,-366.333"/>
</g>
</g>
</svg>
