<?xml version="1.0" encoding="UTF-8" standalone="no"?>
<!DOCTYPE svg PUBLIC "-//W3C//DTD SVG 1.1//EN"
 "http://www.w3.org/Graphics/SVG/1.1/DTD/svg11.dtd">
<!-- Generated by graphviz version 2.28.0 (20120217.0315)
 -->
<!-- Title: G Pages: 1 -->
<svg width="705pt" height="476pt"
 viewBox="0.00 0.00 704.55 476.00" xmlns="http://www.w3.org/2000/svg" xmlns:xlink="http://www.w3.org/1999/xlink">
<g id="graph1" class="graph" transform="scale(1 1) rotate(0) translate(4 472)">
<title>G</title>
<polygon fill="white" stroke="white" points="-4,5 -4,-472 701.554,-472 701.554,5 -4,5"/>
<!-- Node1 -->
<g id="node1" class="node"><title>Node1</title>
<polygon fill="#bfbfbf" stroke="black" points="370.054,-448.5 370.054,-467.5 571.054,-467.5 571.054,-448.5 370.054,-448.5"/>
<text text-anchor="middle" x="470.554" y="-455.5" font-family="Helvetica,sans-Serif" font-size="10.00">src/Browser/Database/DatabaseCache.hh</text>
</g>
<!-- Node2 -->
<g id="node3" class="node"><title>Node2</title>
<a xlink:href="AbstractClientUser_8hh.html" target="_top" xlink:title="../../MPD/AbstractClientUser.hh">
<polygon fill="white" stroke="black" points="339.054,-392.5 339.054,-411.5 496.054,-411.5 496.054,-392.5 339.054,-392.5"/>
<text text-anchor="middle" x="417.554" y="-399.5" font-family="Helvetica,sans-Serif" font-size="10.00">../../MPD/AbstractClientUser.hh</text>
</a>
</g>
<!-- Node1&#45;&gt;Node2 -->
<g id="edge2" class="edge"><title>Node1&#45;&gt;Node2</title>
<path fill="none" stroke="midnightblue" d="M461.802,-448.083C454.084,-440.22 442.649,-428.569 433.337,-419.081"/>
<polygon fill="midnightblue" stroke="midnightblue" points="435.646,-416.436 426.143,-411.751 430.65,-421.34 435.646,-416.436"/>
</g>
<!-- Node20 -->
<g id="node50" class="node"><title>Node20</title>
<a xlink:href="AbstractItemlist_8hh.html" target="_top" xlink:title="AbstractItemlist.hh">
<polygon fill="white" stroke="black" points="475.054,-224.5 475.054,-243.5 574.054,-243.5 574.054,-224.5 475.054,-224.5"/>
<text text-anchor="middle" x="524.554" y="-231.5" font-family="Helvetica,sans-Serif" font-size="10.00">AbstractItemlist.hh</text>
</a>
</g>
<!-- Node1&#45;&gt;Node20 -->
<g id="edge64" class="edge"><title>Node1&#45;&gt;Node20</title>
<path fill="none" stroke="midnightblue" d="M479.473,-448.259C487.504,-439.794 498.891,-426.187 504.554,-412 526.192,-357.79 526.795,-287.3 525.618,-254.005"/>
<polygon fill="midnightblue" stroke="midnightblue" points="529.108,-253.699 525.16,-243.867 522.115,-254.015 529.108,-253.699"/>
</g>
<!-- Node3 -->
<g id="node5" class="node"><title>Node3</title>
<a xlink:href="Client_8hh.html" target="_top" xlink:title="Client.hh">
<polygon fill="white" stroke="black" points="389.554,-336.5 389.554,-355.5 445.554,-355.5 445.554,-336.5 389.554,-336.5"/>
<text text-anchor="middle" x="417.554" y="-343.5" font-family="Helvetica,sans-Serif" font-size="10.00">Client.hh</text>
</a>
</g>
<!-- Node2&#45;&gt;Node3 -->
<g id="edge4" class="edge"><title>Node2&#45;&gt;Node3</title>
<path fill="none" stroke="midnightblue" d="M417.554,-392.083C417.554,-385.006 417.554,-374.861 417.554,-365.986"/>
<polygon fill="midnightblue" stroke="midnightblue" points="421.054,-365.751 417.554,-355.751 414.054,-365.751 421.054,-365.751"/>
</g>
<!-- Node4 -->
<g id="node7" class="node"><title>Node4</title>
<a xlink:href="BaseClient_8hh.html" target="_top" xlink:title="BaseClient.hh">
<polygon fill="white" stroke="black" points="241.554,-280.5 241.554,-299.5 319.554,-299.5 319.554,-280.5 241.554,-280.5"/>
<text text-anchor="middle" x="280.554" y="-287.5" font-family="Helvetica,sans-Serif" font-size="10.00">BaseClient.hh</text>
</a>
</g>
<!-- Node3&#45;&gt;Node4 -->
<g id="edge6" class="edge"><title>Node3&#45;&gt;Node4</title>
<path fill="none" stroke="midnightblue" d="M395.846,-336.444C373.199,-327.517 337.482,-313.439 311.802,-303.317"/>
<polygon fill="midnightblue" stroke="midnightblue" points="312.747,-299.927 302.16,-299.516 310.18,-306.44 312.747,-299.927"/>
</g>
<!-- Node19 -->
<g id="node48" class="node"><title>Node19</title>
<a xlink:href="AbstractItemGenerator_8hh.html" target="_top" xlink:title="AbstractItemGenerator.hh">
<polygon fill="white" stroke="black" points="360.054,-280.5 360.054,-299.5 489.054,-299.5 489.054,-280.5 360.054,-280.5"/>
<text text-anchor="middle" x="424.554" y="-287.5" font-family="Helvetica,sans-Serif" font-size="10.00">AbstractItemGenerator.hh</text>
</a>
</g>
<!-- Node3&#45;&gt;Node19 -->
<g id="edge58" class="edge"><title>Node3&#45;&gt;Node19</title>
<path fill="none" stroke="midnightblue" d="M418.71,-336.083C419.637,-328.927 420.972,-318.635 422.131,-309.691"/>
<polygon fill="midnightblue" stroke="midnightblue" points="425.605,-310.118 423.42,-299.751 418.663,-309.218 425.605,-310.118"/>
</g>
<!-- Node5 -->
<g id="node9" class="node"><title>Node5</title>
<a xlink:href="Listener_8hh.html" target="_top" xlink:title="Listener.hh">
<polygon fill="white" stroke="black" points="227.054,-224.5 227.054,-243.5 292.054,-243.5 292.054,-224.5 227.054,-224.5"/>
<text text-anchor="middle" x="259.554" y="-231.5" font-family="Helvetica,sans-Serif" font-size="10.00">Listener.hh</text>
</a>
</g>
<!-- Node4&#45;&gt;Node5 -->
<g id="edge8" class="edge"><title>Node4&#45;&gt;Node5</title>
<path fill="none" stroke="midnightblue" d="M277.086,-280.083C274.242,-272.77 270.124,-262.181 266.594,-253.103"/>
<polygon fill="midnightblue" stroke="midnightblue" points="269.844,-251.803 262.957,-243.751 263.32,-254.34 269.844,-251.803"/>
</g>
<!-- Node12 -->
<g id="node24" class="node"><title>Node12</title>
<a xlink:href="Connection_8hh.html" target="_top" xlink:title="Connection.hh">
<polygon fill="white" stroke="black" points="13.5539,-112.5 13.5539,-131.5 93.5539,-131.5 93.5539,-112.5 13.5539,-112.5"/>
<text text-anchor="middle" x="53.5539" y="-119.5" font-family="Helvetica,sans-Serif" font-size="10.00">Connection.hh</text>
</a>
</g>
<!-- Node4&#45;&gt;Node12 -->
<g id="edge48" class="edge"><title>Node4&#45;&gt;Node12</title>
<path fill="none" stroke="midnightblue" d="M241.404,-283.848C189.307,-274.694 98.8601,-250.284 56.5539,-188 47.4384,-174.58 47.606,-155.762 49.51,-141.825"/>
<polygon fill="midnightblue" stroke="midnightblue" points="52.9719,-142.347 51.2652,-131.89 46.0787,-141.129 52.9719,-142.347"/>
</g>
<!-- Node17 -->
<g id="node42" class="node"><title>Node17</title>
<a xlink:href="Query_8hh.html" target="_top" xlink:title="Query.hh">
<polygon fill="white" stroke="black" points="436.554,-112.5 436.554,-131.5 492.554,-131.5 492.554,-112.5 436.554,-112.5"/>
<text text-anchor="middle" x="464.554" y="-119.5" font-family="Helvetica,sans-Serif" font-size="10.00">Query.hh</text>
</a>
</g>
<!-- Node4&#45;&gt;Node17 -->
<g id="edge50" class="edge"><title>Node4&#45;&gt;Node17</title>
<path fill="none" stroke="midnightblue" d="M290.188,-280.309C319.748,-253.64 409.447,-172.716 447.353,-138.519"/>
<polygon fill="midnightblue" stroke="midnightblue" points="449.935,-140.902 455.016,-131.605 445.246,-135.705 449.935,-140.902"/>
</g>
<!-- Node6 -->
<g id="node11" class="node"><title>Node6</title>
<polygon fill="white" stroke="#bfbfbf" points="228.554,-56.5 228.554,-75.5 298.554,-75.5 298.554,-56.5 228.554,-56.5"/>
<text text-anchor="middle" x="263.554" y="-63.5" font-family="Helvetica,sans-Serif" font-size="10.00">mpd/client.h</text>
</g>
<!-- Node5&#45;&gt;Node6 -->
<g id="edge10" class="edge"><title>Node5&#45;&gt;Node6</title>
<path fill="none" stroke="midnightblue" d="M292.097,-229.086C317.387,-224.145 350.878,-213.014 367.554,-188 383.978,-163.364 349.661,-122.851 339.554,-112 326.831,-98.3409 309.023,-87.4967 293.843,-79.8789"/>
<polygon fill="midnightblue" stroke="midnightblue" points="295.331,-76.7112 284.799,-75.5564 292.312,-83.0268 295.331,-76.7112"/>
</g>
<!-- Node7 -->
<g id="node13" class="node"><title>Node7</title>
<polygon fill="white" stroke="#bfbfbf" points="177.054,-168.5 177.054,-187.5 250.054,-187.5 250.054,-168.5 177.054,-168.5"/>
<text text-anchor="middle" x="213.554" y="-175.5" font-family="Helvetica,sans-Serif" font-size="10.00">mpd/async.h</text>
</g>
<!-- Node5&#45;&gt;Node7 -->
<g id="edge12" class="edge"><title>Node5&#45;&gt;Node7</title>
<path fill="none" stroke="midnightblue" d="M251.958,-224.083C245.326,-216.298 235.533,-204.801 227.496,-195.367"/>
<polygon fill="midnightblue" stroke="midnightblue" points="230.158,-193.094 221.009,-187.751 224.829,-197.633 230.158,-193.094"/>
</g>
<!-- Node8 -->
<g id="node15" class="node"><title>Node8</title>
<polygon fill="white" stroke="#bfbfbf" points="268.554,-168.5 268.554,-187.5 342.554,-187.5 342.554,-168.5 268.554,-168.5"/>
<text text-anchor="middle" x="305.554" y="-175.5" font-family="Helvetica,sans-Serif" font-size="10.00">mpd/parser.h</text>
</g>
<!-- Node5&#45;&gt;Node8 -->
<g id="edge14" class="edge"><title>Node5&#45;&gt;Node8</title>
<path fill="none" stroke="midnightblue" d="M267.15,-224.083C273.781,-216.298 283.575,-204.801 291.612,-195.367"/>
<polygon fill="midnightblue" stroke="midnightblue" points="294.279,-197.633 298.099,-187.751 288.95,-193.094 294.279,-197.633"/>
</g>
<!-- Node9 -->
<g id="node17" class="node"><title>Node9</title>
<polygon fill="white" stroke="#bfbfbf" points="25.5539,-56.5 25.5539,-75.5 81.5539,-75.5 81.5539,-56.5 25.5539,-56.5"/>
<text text-anchor="middle" x="53.5539" y="-63.5" font-family="Helvetica,sans-Serif" font-size="10.00">glibmm.h</text>
</g>
<!-- Node5&#45;&gt;Node9 -->
<g id="edge16" class="edge"><title>Node5&#45;&gt;Node9</title>
<path fill="none" stroke="midnightblue" d="M226.826,-231.693C184.823,-228.737 110.898,-219.135 56.5539,-188 21.042,-167.654 -11.9088,-149.471 4.55394,-112 9.9439,-99.732 20.5121,-89.3414 30.4581,-81.6461"/>
<polygon fill="midnightblue" stroke="midnightblue" points="32.8055,-84.2697 38.8925,-75.598 28.7263,-78.5811 32.8055,-84.2697"/>
</g>
<!-- Node10 -->
<g id="node19" class="node"><title>Node10</title>
<a xlink:href="Status_8hh.html" target="_top" xlink:title="Status.hh">
<polygon fill="white" stroke="black" points="272.054,-112.5 272.054,-131.5 331.054,-131.5 331.054,-112.5 272.054,-112.5"/>
<text text-anchor="middle" x="301.554" y="-119.5" font-family="Helvetica,sans-Serif" font-size="10.00">Status.hh</text>
</a>
</g>
<!-- Node5&#45;&gt;Node10 -->
<g id="edge18" class="edge"><title>Node5&#45;&gt;Node10</title>
<path fill="none" stroke="midnightblue" d="M292.35,-226.265C313.216,-220.1 338.657,-208.665 351.554,-188 363.02,-169.628 343.208,-150.141 325.239,-137.349"/>
<polygon fill="midnightblue" stroke="midnightblue" points="326.969,-134.295 316.711,-131.642 323.075,-140.113 326.969,-134.295"/>
</g>
<!-- Node11 -->
<g id="node22" class="node"><title>Node11</title>
<a xlink:href="NotifyData_8hh.html" target="_top" xlink:title="NotifyData.hh">
<polygon fill="white" stroke="black" points="82.0539,-168.5 82.0539,-187.5 159.054,-187.5 159.054,-168.5 82.0539,-168.5"/>
<text text-anchor="middle" x="120.554" y="-175.5" font-family="Helvetica,sans-Serif" font-size="10.00">NotifyData.hh</text>
</a>
</g>
<!-- Node5&#45;&gt;Node11 -->
<g id="edge22" class="edge"><title>Node5&#45;&gt;Node11</title>
<path fill="none" stroke="midnightblue" d="M237.529,-224.444C214.45,-215.478 177.992,-201.314 151.913,-191.183"/>
<polygon fill="midnightblue" stroke="midnightblue" points="153.065,-187.875 142.476,-187.516 150.53,-194.4 153.065,-187.875"/>
</g>
<!-- Node5&#45;&gt;Node12 -->
<g id="edge46" class="edge"><title>Node5&#45;&gt;Node12</title>
<path fill="none" stroke="midnightblue" d="M226.834,-229.096C179.32,-222.787 94.4921,-208.905 72.5539,-188 60.062,-176.097 55.6486,-156.478 54.1566,-141.902"/>
<polygon fill="midnightblue" stroke="midnightblue" points="57.6245,-141.292 53.4878,-131.538 50.6391,-141.743 57.6245,-141.292"/>
</g>
<!-- Node10&#45;&gt;Node6 -->
<g id="edge20" class="edge"><title>Node10&#45;&gt;Node6</title>
<path fill="none" stroke="midnightblue" d="M295.279,-112.083C289.911,-104.455 282.036,-93.2645 275.475,-83.9408"/>
<polygon fill="midnightblue" stroke="midnightblue" points="278.329,-81.9149 269.712,-75.7511 272.605,-85.9434 278.329,-81.9149"/>
</g>
<!-- Node11&#45;&gt;Node10 -->
<g id="edge34" class="edge"><title>Node11&#45;&gt;Node10</title>
<path fill="none" stroke="midnightblue" d="M149.234,-168.444C180.081,-159.241 229.282,-144.562 263.383,-134.388"/>
<polygon fill="midnightblue" stroke="midnightblue" points="264.426,-137.729 273.008,-131.516 262.425,-131.021 264.426,-137.729"/>
</g>
<!-- Node11&#45;&gt;Node12 -->
<g id="edge24" class="edge"><title>Node11&#45;&gt;Node12</title>
<path fill="none" stroke="midnightblue" d="M109.789,-168.324C99.7878,-160.263 84.6674,-148.077 72.6235,-138.369"/>
<polygon fill="midnightblue" stroke="midnightblue" points="74.4969,-135.384 64.5145,-131.834 70.1042,-140.834 74.4969,-135.384"/>
</g>
<!-- Node13 -->
<g id="node28" class="node"><title>Node13</title>
<a xlink:href="Statistics_8hh.html" target="_top" xlink:title="Statistics.hh">
<polygon fill="white" stroke="black" points="112.054,-112.5 112.054,-131.5 183.054,-131.5 183.054,-112.5 112.054,-112.5"/>
<text text-anchor="middle" x="147.554" y="-119.5" font-family="Helvetica,sans-Serif" font-size="10.00">Statistics.hh</text>
</a>
</g>
<!-- Node11&#45;&gt;Node13 -->
<g id="edge30" class="edge"><title>Node11&#45;&gt;Node13</title>
<path fill="none" stroke="midnightblue" d="M125.012,-168.083C128.708,-160.691 134.077,-149.953 138.648,-140.811"/>
<polygon fill="midnightblue" stroke="midnightblue" points="141.837,-142.261 143.178,-131.751 135.576,-139.13 141.837,-142.261"/>
</g>
<!-- Node14 -->
<g id="node32" class="node"><title>Node14</title>
<a xlink:href="Song_8hh.html" target="_top" xlink:title="Song.hh">
<polygon fill="white" stroke="black" points="201.054,-112.5 201.054,-131.5 254.054,-131.5 254.054,-112.5 201.054,-112.5"/>
<text text-anchor="middle" x="227.554" y="-119.5" font-family="Helvetica,sans-Serif" font-size="10.00">Song.hh</text>
</a>
</g>
<!-- Node11&#45;&gt;Node14 -->
<g id="edge36" class="edge"><title>Node11&#45;&gt;Node14</title>
<path fill="none" stroke="midnightblue" d="M137.745,-168.324C154.905,-159.664 181.5,-146.242 201.301,-136.249"/>
<polygon fill="midnightblue" stroke="midnightblue" points="203.055,-139.285 210.405,-131.655 199.901,-133.035 203.055,-139.285"/>
</g>
<!-- Node12&#45;&gt;Node6 -->
<g id="edge26" class="edge"><title>Node12&#45;&gt;Node6</title>
<path fill="none" stroke="midnightblue" d="M86.8291,-112.444C123.002,-103.142 180.93,-88.246 220.535,-78.062"/>
<polygon fill="midnightblue" stroke="midnightblue" points="221.621,-81.3966 230.434,-75.5164 219.878,-74.6172 221.621,-81.3966"/>
</g>
<!-- Node12&#45;&gt;Node9 -->
<g id="edge28" class="edge"><title>Node12&#45;&gt;Node9</title>
<path fill="none" stroke="midnightblue" d="M53.5539,-112.083C53.5539,-105.006 53.5539,-94.8611 53.5539,-85.9865"/>
<polygon fill="midnightblue" stroke="midnightblue" points="57.054,-85.751 53.5539,-75.7511 50.054,-85.7511 57.054,-85.751"/>
</g>
<!-- Node13&#45;&gt;Node6 -->
<g id="edge32" class="edge"><title>Node13&#45;&gt;Node6</title>
<path fill="none" stroke="midnightblue" d="M165.934,-112.444C184.77,-103.675 214.285,-89.9355 235.933,-79.8579"/>
<polygon fill="midnightblue" stroke="midnightblue" points="237.671,-82.9098 245.259,-75.5164 234.716,-76.5637 237.671,-82.9098"/>
</g>
<!-- Node14&#45;&gt;Node6 -->
<g id="edge38" class="edge"><title>Node14&#45;&gt;Node6</title>
<path fill="none" stroke="midnightblue" d="M233.499,-112.083C238.531,-104.534 245.891,-93.4948 252.067,-84.2298"/>
<polygon fill="midnightblue" stroke="midnightblue" points="255.085,-86.0131 257.72,-75.7511 249.261,-82.1301 255.085,-86.0131"/>
</g>
<!-- Node14&#45;&gt;Node9 -->
<g id="edge44" class="edge"><title>Node14&#45;&gt;Node9</title>
<path fill="none" stroke="midnightblue" d="M200.748,-112.681C171.288,-103.538 123.767,-88.7904 90.7203,-78.5344"/>
<polygon fill="midnightblue" stroke="midnightblue" points="91.5531,-75.1282 80.9651,-75.5069 89.4783,-81.8137 91.5531,-75.1282"/>
</g>
<!-- Node15 -->
<g id="node35" class="node"><title>Node15</title>
<a xlink:href="AbstractComposite_8hh.html" target="_top" xlink:title="AbstractComposite.hh">
<polygon fill="white" stroke="black" points="428.554,-56.5 428.554,-75.5 542.554,-75.5 542.554,-56.5 428.554,-56.5"/>
<text text-anchor="middle" x="485.554" y="-63.5" font-family="Helvetica,sans-Serif" font-size="10.00">AbstractComposite.hh</text>
</a>
</g>
<!-- Node14&#45;&gt;Node15 -->
<g id="edge40" class="edge"><title>Node14&#45;&gt;Node15</title>
<path fill="none" stroke="midnightblue" d="M254.272,-113.976C257.063,-113.288 259.863,-112.617 262.554,-112 319.281,-98.9925 384.588,-86.0498 429.803,-77.4071"/>
<polygon fill="midnightblue" stroke="midnightblue" points="430.536,-80.8305 439.705,-75.5217 429.226,-73.954 430.536,-80.8305"/>
</g>
<!-- Node16 -->
<g id="node37" class="node"><title>Node16</title>
<polygon fill="white" stroke="#bfbfbf" points="420.554,-0.5 420.554,-19.5 464.554,-19.5 464.554,-0.5 420.554,-0.5"/>
<text text-anchor="middle" x="442.554" y="-7.5" font-family="Helvetica,sans-Serif" font-size="10.00">vector</text>
</g>
<!-- Node15&#45;&gt;Node16 -->
<g id="edge42" class="edge"><title>Node15&#45;&gt;Node16</title>
<path fill="none" stroke="midnightblue" d="M478.453,-56.083C472.317,-48.3768 463.284,-37.0333 455.815,-27.6531"/>
<polygon fill="midnightblue" stroke="midnightblue" points="458.49,-25.3936 449.522,-19.7511 453.014,-29.7542 458.49,-25.3936"/>
</g>
<!-- Node17&#45;&gt;Node6 -->
<g id="edge52" class="edge"><title>Node17&#45;&gt;Node6</title>
<path fill="none" stroke="midnightblue" d="M436.182,-113.378C402.037,-104.204 344.414,-88.7235 305.219,-78.1936"/>
<polygon fill="midnightblue" stroke="midnightblue" points="305.996,-74.7782 295.43,-75.5637 304.179,-81.5385 305.996,-74.7782"/>
</g>
<!-- Node17&#45;&gt;Node16 -->
<g id="edge54" class="edge"><title>Node17&#45;&gt;Node16</title>
<path fill="none" stroke="midnightblue" d="M451.49,-112.436C440.64,-104.471 425.981,-91.5154 419.554,-76 412.919,-59.9815 421.155,-41.2813 429.558,-28.0619"/>
<polygon fill="midnightblue" stroke="midnightblue" points="432.661,-29.73 435.496,-19.5215 426.914,-25.7339 432.661,-29.73"/>
</g>
<!-- Node18 -->
<g id="node46" class="node"><title>Node18</title>
<a xlink:href="AbstractClientExtension_8hh.html" target="_top" xlink:title="AbstractClientExtension.hh">
<polygon fill="white" stroke="black" points="560.554,-56.5 560.554,-75.5 696.554,-75.5 696.554,-56.5 560.554,-56.5"/>
<text text-anchor="middle" x="628.554" y="-63.5" font-family="Helvetica,sans-Serif" font-size="10.00">AbstractClientExtension.hh</text>
</a>
</g>
<!-- Node17&#45;&gt;Node18 -->
<g id="edge56" class="edge"><title>Node17&#45;&gt;Node18</title>
<path fill="none" stroke="midnightblue" d="M490.54,-112.444C518.25,-103.32 562.306,-88.8133 593.17,-78.6509"/>
<polygon fill="midnightblue" stroke="midnightblue" points="594.286,-81.9684 602.689,-75.5164 592.096,-75.3196 594.286,-81.9684"/>
</g>
<!-- Node19&#45;&gt;Node20 -->
<g id="edge60" class="edge"><title>Node19&#45;&gt;Node20</title>
<path fill="none" stroke="midnightblue" d="M440.621,-280.324C456.512,-271.743 481.061,-258.486 499.512,-248.522"/>
<polygon fill="midnightblue" stroke="midnightblue" points="501.391,-251.486 508.527,-243.655 498.065,-245.326 501.391,-251.486"/>
</g>
<!-- Node20&#45;&gt;Node15 -->
<g id="edge62" class="edge"><title>Node20&#45;&gt;Node15</title>
<path fill="none" stroke="midnightblue" d="M523.232,-224.407C520.082,-204.474 511.57,-153.613 500.554,-112 498.18,-103.033 494.991,-93.2447 492.164,-85.0941"/>
<polygon fill="midnightblue" stroke="midnightblue" points="495.409,-83.774 488.755,-75.5296 488.816,-86.1242 495.409,-83.774"/>
</g>
</g>
</svg>
