<?xml version="1.0" encoding="UTF-8" standalone="no"?>
<!DOCTYPE svg PUBLIC "-//W3C//DTD SVG 1.1//EN"
 "http://www.w3.org/Graphics/SVG/1.1/DTD/svg11.dtd">
<!-- Generated by graphviz version 2.28.0 (20120217.0315)
 -->
<!-- Title: G Pages: 1 -->
<svg width="208pt" height="196pt"
 viewBox="0.00 0.00 208.00 196.00" xmlns="http://www.w3.org/2000/svg" xmlns:xlink="http://www.w3.org/1999/xlink">
<g id="graph1" class="graph" transform="scale(1 1) rotate(0) translate(4 192)">
<title>G</title>
<polygon fill="white" stroke="white" points="-4,5 -4,-192 205,-192 205,5 -4,5"/>
<!-- Node1 -->
<g id="node1" class="node"><title>Node1</title>
<polygon fill="#bfbfbf" stroke="black" points="0,-168.5 0,-187.5 200,-187.5 200,-168.5 0,-168.5"/>
<text text-anchor="middle" x="100" y="-175.5" font-family="Helvetica,sans-Serif" font-size="10.00">src/Browser/Database/DatabasePopup.hh</text>
</g>
<!-- Node2 -->
<g id="node3" class="node"><title>Node2</title>
<polygon fill="white" stroke="#bfbfbf" points="72.5,-0.5 72.5,-19.5 127.5,-19.5 127.5,-0.5 72.5,-0.5"/>
<text text-anchor="middle" x="100" y="-7.5" font-family="Helvetica,sans-Serif" font-size="10.00">gtkmm.h</text>
</g>
<!-- Node1&#45;&gt;Node2 -->
<g id="edge2" class="edge"><title>Node1&#45;&gt;Node2</title>
<path fill="none" stroke="midnightblue" d="M95.938,-168.268C92.0287,-159.368 86.3717,-145.053 84,-132 77.9611,-98.7635 76.9323,-89.2313 83,-56 84.6876,-46.7575 88.175,-36.9479 91.5544,-28.8546"/>
<polygon fill="midnightblue" stroke="midnightblue" points="94.7635,-30.2518 95.6337,-19.6928 88.3687,-27.4045 94.7635,-30.2518"/>
</g>
<!-- Node3 -->
<g id="node5" class="node"><title>Node3</title>
<a xlink:href="BasePopup_8hh.html" target="_top" xlink:title="../BasePopup.hh">
<polygon fill="white" stroke="black" points="92.5,-112.5 92.5,-131.5 181.5,-131.5 181.5,-112.5 92.5,-112.5"/>
<text text-anchor="middle" x="137" y="-119.5" font-family="Helvetica,sans-Serif" font-size="10.00">../BasePopup.hh</text>
</a>
</g>
<!-- Node1&#45;&gt;Node3 -->
<g id="edge4" class="edge"><title>Node1&#45;&gt;Node3</title>
<path fill="none" stroke="midnightblue" d="M106.11,-168.083C111.282,-160.534 118.846,-149.495 125.194,-140.23"/>
<polygon fill="midnightblue" stroke="midnightblue" points="128.239,-141.979 131.004,-131.751 122.464,-138.022 128.239,-141.979"/>
</g>
<!-- Node4 -->
<g id="node7" class="node"><title>Node4</title>
<a xlink:href="ui__includes_8hh.html" target="_top" xlink:title="../ui_includes.hh">
<polygon fill="white" stroke="black" points="92,-56.5 92,-75.5 180,-75.5 180,-56.5 92,-56.5"/>
<text text-anchor="middle" x="136" y="-63.5" font-family="Helvetica,sans-Serif" font-size="10.00">../ui_includes.hh</text>
</a>
</g>
<!-- Node3&#45;&gt;Node4 -->
<g id="edge6" class="edge"><title>Node3&#45;&gt;Node4</title>
<path fill="none" stroke="midnightblue" d="M136.835,-112.083C136.704,-105.006 136.516,-94.8611 136.352,-85.9865"/>
<polygon fill="midnightblue" stroke="midnightblue" points="139.847,-85.6845 136.162,-75.7511 132.848,-85.8142 139.847,-85.6845"/>
</g>
<!-- Node4&#45;&gt;Node2 -->
<g id="edge8" class="edge"><title>Node4&#45;&gt;Node2</title>
<path fill="none" stroke="midnightblue" d="M130.055,-56.083C125.023,-48.5341 117.663,-37.4948 111.487,-28.2298"/>
<polygon fill="midnightblue" stroke="midnightblue" points="114.293,-26.1301 105.834,-19.7511 108.469,-30.0131 114.293,-26.1301"/>
</g>
</g>
</svg>
