<?xml version="1.0" encoding="UTF-8" standalone="no"?>
<!DOCTYPE svg PUBLIC "-//W3C//DTD SVG 1.1//EN"
 "http://www.w3.org/Graphics/SVG/1.1/DTD/svg11.dtd">
<!-- Generated by graphviz version 2.28.0 (20111204.1018)
 -->
<!-- Title: G Pages: 1 -->
<svg width="583pt" height="476pt"
 viewBox="0.00 0.00 583.39 476.00" xmlns="http://www.w3.org/2000/svg" xmlns:xlink="http://www.w3.org/1999/xlink">
<g id="graph1" class="graph" transform="scale(1 1) rotate(0) translate(4 472)">
<title>G</title>
<polygon fill="white" stroke="white" points="-4,5 -4,-472 580.388,-472 580.388,5 -4,5"/>
<!-- Node1 -->
<g id="node1" class="node"><title>Node1</title>
<polygon fill="#bfbfbf" stroke="black" points="374.888,-448.5 374.888,-467.5 575.888,-467.5 575.888,-448.5 374.888,-448.5"/>
<text text-anchor="middle" x="475.388" y="-455.5" font-family="Helvetica,sans-Serif" font-size="10.00">src/Browser/Database/DatabaseCache.hh</text>
</g>
<!-- Node2 -->
<g id="node3" class="node"><title>Node2</title>
<a xlink:href="AbstractClientUser_8hh.html" target="_top" xlink:title="../../MPD/AbstractClientUser.hh">
<polygon fill="white" stroke="black" points="343.888,-392.5 343.888,-411.5 500.888,-411.5 500.888,-392.5 343.888,-392.5"/>
<text text-anchor="middle" x="422.388" y="-399.5" font-family="Helvetica,sans-Serif" font-size="10.00">../../MPD/AbstractClientUser.hh</text>
</a>
</g>
<!-- Node1&#45;&gt;Node2 -->
<g id="edge2" class="edge"><title>Node1&#45;&gt;Node2</title>
<path fill="none" stroke="midnightblue" d="M466.636,-448.083C458.918,-440.22 447.483,-428.569 438.172,-419.081"/>
<polygon fill="midnightblue" stroke="midnightblue" points="440.48,-416.436 430.977,-411.751 435.484,-421.34 440.48,-416.436"/>
</g>
<!-- Node18 -->
<g id="node44" class="node"><title>Node18</title>
<a xlink:href="AbstractItemlist_8hh.html" target="_top" xlink:title="AbstractItemlist.hh">
<polygon fill="white" stroke="black" points="433.888,-224.5 433.888,-243.5 532.888,-243.5 532.888,-224.5 433.888,-224.5"/>
<text text-anchor="middle" x="483.388" y="-231.5" font-family="Helvetica,sans-Serif" font-size="10.00">AbstractItemlist.hh</text>
</a>
</g>
<!-- Node1&#45;&gt;Node18 -->
<g id="edge56" class="edge"><title>Node1&#45;&gt;Node18</title>
<path fill="none" stroke="midnightblue" d="M484.676,-448.395C492.969,-440.025 504.532,-426.483 509.388,-412 528.039,-356.377 524.581,-336.665 509.388,-280 506.735,-270.103 501.319,-260.131 496.114,-252.099"/>
<polygon fill="midnightblue" stroke="midnightblue" points="498.852,-249.906 490.278,-243.681 493.099,-253.894 498.852,-249.906"/>
</g>
<!-- Node3 -->
<g id="node5" class="node"><title>Node3</title>
<a xlink:href="Client_8hh.html" target="_top" xlink:title="Client.hh">
<polygon fill="white" stroke="black" points="394.388,-336.5 394.388,-355.5 450.388,-355.5 450.388,-336.5 394.388,-336.5"/>
<text text-anchor="middle" x="422.388" y="-343.5" font-family="Helvetica,sans-Serif" font-size="10.00">Client.hh</text>
</a>
</g>
<!-- Node2&#45;&gt;Node3 -->
<g id="edge4" class="edge"><title>Node2&#45;&gt;Node3</title>
<path fill="none" stroke="midnightblue" d="M422.388,-392.083C422.388,-385.006 422.388,-374.861 422.388,-365.986"/>
<polygon fill="midnightblue" stroke="midnightblue" points="425.888,-365.751 422.388,-355.751 418.888,-365.751 425.888,-365.751"/>
</g>
<!-- Node4 -->
<g id="node7" class="node"><title>Node4</title>
<a xlink:href="BaseClient_8hh.html" target="_top" xlink:title="BaseClient.hh">
<polygon fill="white" stroke="black" points="275.388,-280.5 275.388,-299.5 353.388,-299.5 353.388,-280.5 275.388,-280.5"/>
<text text-anchor="middle" x="314.388" y="-287.5" font-family="Helvetica,sans-Serif" font-size="10.00">BaseClient.hh</text>
</a>
</g>
<!-- Node3&#45;&gt;Node4 -->
<g id="edge6" class="edge"><title>Node3&#45;&gt;Node4</title>
<path fill="none" stroke="midnightblue" d="M405.036,-336.324C387.716,-327.664 360.873,-314.242 340.886,-304.249"/>
<polygon fill="midnightblue" stroke="midnightblue" points="342.207,-300.996 331.697,-299.655 339.076,-307.257 342.207,-300.996"/>
</g>
<!-- Node17 -->
<g id="node42" class="node"><title>Node17</title>
<a xlink:href="AbstractItemGenerator_8hh.html" target="_top" xlink:title="AbstractItemGenerator.hh">
<polygon fill="white" stroke="black" points="371.888,-280.5 371.888,-299.5 500.888,-299.5 500.888,-280.5 371.888,-280.5"/>
<text text-anchor="middle" x="436.388" y="-287.5" font-family="Helvetica,sans-Serif" font-size="10.00">AbstractItemGenerator.hh</text>
</a>
</g>
<!-- Node3&#45;&gt;Node17 -->
<g id="edge50" class="edge"><title>Node3&#45;&gt;Node17</title>
<path fill="none" stroke="midnightblue" d="M424.7,-336.083C426.555,-328.927 429.223,-318.635 431.542,-309.691"/>
<polygon fill="midnightblue" stroke="midnightblue" points="434.998,-310.309 434.119,-299.751 428.222,-308.553 434.998,-310.309"/>
</g>
<!-- Node5 -->
<g id="node9" class="node"><title>Node5</title>
<a xlink:href="Listener_8hh.html" target="_top" xlink:title="Listener.hh">
<polygon fill="white" stroke="black" points="182.888,-224.5 182.888,-243.5 247.888,-243.5 247.888,-224.5 182.888,-224.5"/>
<text text-anchor="middle" x="215.388" y="-231.5" font-family="Helvetica,sans-Serif" font-size="10.00">Listener.hh</text>
</a>
</g>
<!-- Node4&#45;&gt;Node5 -->
<g id="edge8" class="edge"><title>Node4&#45;&gt;Node5</title>
<path fill="none" stroke="midnightblue" d="M298.482,-280.324C282.75,-271.743 258.446,-258.486 240.179,-248.522"/>
<polygon fill="midnightblue" stroke="midnightblue" points="241.71,-245.37 231.255,-243.655 238.358,-251.516 241.71,-245.37"/>
</g>
<!-- Node12 -->
<g id="node24" class="node"><title>Node12</title>
<a xlink:href="Connection_8hh.html" target="_top" xlink:title="Connection.hh">
<polygon fill="white" stroke="black" points="259.388,-112.5 259.388,-131.5 339.388,-131.5 339.388,-112.5 259.388,-112.5"/>
<text text-anchor="middle" x="299.388" y="-119.5" font-family="Helvetica,sans-Serif" font-size="10.00">Connection.hh</text>
</a>
</g>
<!-- Node4&#45;&gt;Node12 -->
<g id="edge48" class="edge"><title>Node4&#45;&gt;Node12</title>
<path fill="none" stroke="midnightblue" d="M317.38,-280.307C323.857,-260.163 337.714,-208.891 326.388,-168 323.596,-157.921 317.879,-147.832 312.421,-139.769"/>
<polygon fill="midnightblue" stroke="midnightblue" points="315.236,-137.688 306.54,-131.636 309.563,-141.79 315.236,-137.688"/>
</g>
<!-- Node6 -->
<g id="node11" class="node"><title>Node6</title>
<polygon fill="white" stroke="#bfbfbf" points="99.3881,-56.5 99.3881,-75.5 169.388,-75.5 169.388,-56.5 99.3881,-56.5"/>
<text text-anchor="middle" x="134.388" y="-63.5" font-family="Helvetica,sans-Serif" font-size="10.00">mpd/client.h</text>
</g>
<!-- Node5&#45;&gt;Node6 -->
<g id="edge10" class="edge"><title>Node5&#45;&gt;Node6</title>
<path fill="none" stroke="midnightblue" d="M182.731,-229.796C133.327,-224.254 43.0371,-211.187 21.3881,-188 -1.8246,-163.138 -7.06137,-139.904 12.3881,-112 29.6152,-87.2841 62.0347,-76.1081 89.1258,-71.0719"/>
<polygon fill="midnightblue" stroke="midnightblue" points="89.8994,-74.492 99.205,-69.4269 88.7718,-67.5834 89.8994,-74.492"/>
</g>
<!-- Node7 -->
<g id="node13" class="node"><title>Node7</title>
<polygon fill="white" stroke="#bfbfbf" points="39.8881,-168.5 39.8881,-187.5 112.888,-187.5 112.888,-168.5 39.8881,-168.5"/>
<text text-anchor="middle" x="76.3881" y="-175.5" font-family="Helvetica,sans-Serif" font-size="10.00">mpd/async.h</text>
</g>
<!-- Node5&#45;&gt;Node7 -->
<g id="edge12" class="edge"><title>Node5&#45;&gt;Node7</title>
<path fill="none" stroke="midnightblue" d="M193.363,-224.444C170.284,-215.478 133.826,-201.314 107.747,-191.183"/>
<polygon fill="midnightblue" stroke="midnightblue" points="108.899,-187.875 98.3101,-187.516 106.364,-194.4 108.899,-187.875"/>
</g>
<!-- Node8 -->
<g id="node15" class="node"><title>Node8</title>
<polygon fill="white" stroke="#bfbfbf" points="131.388,-168.5 131.388,-187.5 205.388,-187.5 205.388,-168.5 131.388,-168.5"/>
<text text-anchor="middle" x="168.388" y="-175.5" font-family="Helvetica,sans-Serif" font-size="10.00">mpd/parser.h</text>
</g>
<!-- Node5&#45;&gt;Node8 -->
<g id="edge14" class="edge"><title>Node5&#45;&gt;Node8</title>
<path fill="none" stroke="midnightblue" d="M207.627,-224.083C200.851,-216.298 190.845,-204.801 182.633,-195.367"/>
<polygon fill="midnightblue" stroke="midnightblue" points="185.21,-192.996 176.005,-187.751 179.93,-197.592 185.21,-192.996"/>
</g>
<!-- Node9 -->
<g id="node17" class="node"><title>Node9</title>
<polygon fill="white" stroke="#bfbfbf" points="271.388,-56.5 271.388,-75.5 327.388,-75.5 327.388,-56.5 271.388,-56.5"/>
<text text-anchor="middle" x="299.388" y="-63.5" font-family="Helvetica,sans-Serif" font-size="10.00">glibmm.h</text>
</g>
<!-- Node5&#45;&gt;Node9 -->
<g id="edge16" class="edge"><title>Node5&#45;&gt;Node9</title>
<path fill="none" stroke="midnightblue" d="M247.937,-227.046C272.389,-221.025 305.183,-209.436 326.388,-188 351.118,-163.001 362.533,-144.194 348.388,-112 342.998,-99.732 332.43,-89.3414 322.484,-81.6461"/>
<polygon fill="midnightblue" stroke="midnightblue" points="324.216,-78.5811 314.05,-75.598 320.137,-84.2697 324.216,-78.5811"/>
</g>
<!-- Node10 -->
<g id="node19" class="node"><title>Node10</title>
<a xlink:href="Status_8hh.html" target="_top" xlink:title="Status.hh">
<polygon fill="white" stroke="black" points="21.8881,-112.5 21.8881,-131.5 80.8881,-131.5 80.8881,-112.5 21.8881,-112.5"/>
<text text-anchor="middle" x="51.3881" y="-119.5" font-family="Helvetica,sans-Serif" font-size="10.00">Status.hh</text>
</a>
</g>
<!-- Node5&#45;&gt;Node10 -->
<g id="edge18" class="edge"><title>Node5&#45;&gt;Node10</title>
<path fill="none" stroke="midnightblue" d="M182.61,-229.822C134.639,-224.417 48.9749,-211.65 30.3881,-188 19.4478,-174.079 28.4104,-154.288 37.7825,-140.208"/>
<polygon fill="midnightblue" stroke="midnightblue" points="40.768,-142.053 43.7953,-131.9 35.0971,-137.949 40.768,-142.053"/>
</g>
<!-- Node11 -->
<g id="node22" class="node"><title>Node11</title>
<a xlink:href="NotifyData_8hh.html" target="_top" xlink:title="NotifyData.hh">
<polygon fill="white" stroke="black" points="223.888,-168.5 223.888,-187.5 300.888,-187.5 300.888,-168.5 223.888,-168.5"/>
<text text-anchor="middle" x="262.388" y="-175.5" font-family="Helvetica,sans-Serif" font-size="10.00">NotifyData.hh</text>
</a>
</g>
<!-- Node5&#45;&gt;Node11 -->
<g id="edge22" class="edge"><title>Node5&#45;&gt;Node11</title>
<path fill="none" stroke="midnightblue" d="M223.149,-224.083C229.925,-216.298 239.931,-204.801 248.143,-195.367"/>
<polygon fill="midnightblue" stroke="midnightblue" points="250.846,-197.592 254.771,-187.751 245.566,-192.996 250.846,-197.592"/>
</g>
<!-- Node5&#45;&gt;Node12 -->
<g id="edge46" class="edge"><title>Node5&#45;&gt;Node12</title>
<path fill="none" stroke="midnightblue" d="M247.944,-226.727C269.423,-220.717 295.983,-209.279 309.388,-188 318.214,-173.989 313.83,-154.992 308.371,-141.154"/>
<polygon fill="midnightblue" stroke="midnightblue" points="311.449,-139.462 304.188,-131.746 305.053,-142.306 311.449,-139.462"/>
</g>
<!-- Node10&#45;&gt;Node6 -->
<g id="edge20" class="edge"><title>Node10&#45;&gt;Node6</title>
<path fill="none" stroke="midnightblue" d="M64.7235,-112.324C77.5501,-103.979 97.1731,-91.2122 112.328,-81.3524"/>
<polygon fill="midnightblue" stroke="midnightblue" points="114.612,-84.0417 121.086,-75.6545 110.795,-78.1742 114.612,-84.0417"/>
</g>
<!-- Node11&#45;&gt;Node10 -->
<g id="edge34" class="edge"><title>Node11&#45;&gt;Node10</title>
<path fill="none" stroke="midnightblue" d="M228.955,-168.444C191.433,-158.841 130.616,-143.276 90.8089,-133.089"/>
<polygon fill="midnightblue" stroke="midnightblue" points="91.4758,-129.647 80.9203,-130.558 89.7403,-136.428 91.4758,-129.647"/>
</g>
<!-- Node11&#45;&gt;Node12 -->
<g id="edge24" class="edge"><title>Node11&#45;&gt;Node12</title>
<path fill="none" stroke="midnightblue" d="M268.498,-168.083C273.67,-160.534 281.234,-149.495 287.583,-140.23"/>
<polygon fill="midnightblue" stroke="midnightblue" points="290.627,-141.979 293.392,-131.751 284.852,-138.022 290.627,-141.979"/>
</g>
<!-- Node13 -->
<g id="node28" class="node"><title>Node13</title>
<a xlink:href="Statistics_8hh.html" target="_top" xlink:title="Statistics.hh">
<polygon fill="white" stroke="black" points="98.8881,-112.5 98.8881,-131.5 169.888,-131.5 169.888,-112.5 98.8881,-112.5"/>
<text text-anchor="middle" x="134.388" y="-119.5" font-family="Helvetica,sans-Serif" font-size="10.00">Statistics.hh</text>
</a>
</g>
<!-- Node11&#45;&gt;Node13 -->
<g id="edge30" class="edge"><title>Node11&#45;&gt;Node13</title>
<path fill="none" stroke="midnightblue" d="M242.106,-168.444C221.041,-159.557 187.871,-145.563 163.903,-135.451"/>
<polygon fill="midnightblue" stroke="midnightblue" points="165.149,-132.179 154.575,-131.516 162.428,-138.628 165.149,-132.179"/>
</g>
<!-- Node14 -->
<g id="node32" class="node"><title>Node14</title>
<a xlink:href="Song_8hh.html" target="_top" xlink:title="Song.hh">
<polygon fill="white" stroke="black" points="187.888,-112.5 187.888,-131.5 240.888,-131.5 240.888,-112.5 187.888,-112.5"/>
<text text-anchor="middle" x="214.388" y="-119.5" font-family="Helvetica,sans-Serif" font-size="10.00">Song.hh</text>
</a>
</g>
<!-- Node11&#45;&gt;Node14 -->
<g id="edge36" class="edge"><title>Node11&#45;&gt;Node14</title>
<path fill="none" stroke="midnightblue" d="M254.462,-168.083C247.542,-160.298 237.323,-148.801 228.936,-139.367"/>
<polygon fill="midnightblue" stroke="midnightblue" points="231.426,-136.9 222.167,-131.751 226.195,-141.55 231.426,-136.9"/>
</g>
<!-- Node12&#45;&gt;Node6 -->
<g id="edge26" class="edge"><title>Node12&#45;&gt;Node6</title>
<path fill="none" stroke="midnightblue" d="M273.243,-112.444C245.365,-103.32 201.04,-88.8133 169.988,-78.6509"/>
<polygon fill="midnightblue" stroke="midnightblue" points="171.003,-75.3005 160.411,-75.5164 168.826,-81.9533 171.003,-75.3005"/>
</g>
<!-- Node12&#45;&gt;Node9 -->
<g id="edge28" class="edge"><title>Node12&#45;&gt;Node9</title>
<path fill="none" stroke="midnightblue" d="M299.388,-112.083C299.388,-105.006 299.388,-94.8611 299.388,-85.9865"/>
<polygon fill="midnightblue" stroke="midnightblue" points="302.888,-85.751 299.388,-75.7511 295.888,-85.7511 302.888,-85.751"/>
</g>
<!-- Node13&#45;&gt;Node6 -->
<g id="edge32" class="edge"><title>Node13&#45;&gt;Node6</title>
<path fill="none" stroke="midnightblue" d="M134.388,-112.083C134.388,-105.006 134.388,-94.8611 134.388,-85.9865"/>
<polygon fill="midnightblue" stroke="midnightblue" points="137.888,-85.751 134.388,-75.7511 130.888,-85.7511 137.888,-85.751"/>
</g>
<!-- Node14&#45;&gt;Node6 -->
<g id="edge38" class="edge"><title>Node14&#45;&gt;Node6</title>
<path fill="none" stroke="midnightblue" d="M201.535,-112.324C189.172,-103.979 170.258,-91.2122 155.651,-81.3524"/>
<polygon fill="midnightblue" stroke="midnightblue" points="157.456,-78.3483 147.21,-75.6545 153.54,-84.1503 157.456,-78.3483"/>
</g>
<!-- Node14&#45;&gt;Node9 -->
<g id="edge44" class="edge"><title>Node14&#45;&gt;Node9</title>
<path fill="none" stroke="midnightblue" d="M228.045,-112.324C241.304,-103.9 261.656,-90.9709 277.234,-81.0741"/>
<polygon fill="midnightblue" stroke="midnightblue" points="279.201,-83.9711 285.765,-75.6545 275.448,-78.0626 279.201,-83.9711"/>
</g>
<!-- Node15 -->
<g id="node35" class="node"><title>Node15</title>
<a xlink:href="AbstractComposite_8hh.html" target="_top" xlink:title="AbstractComposite.hh">
<polygon fill="white" stroke="black" points="385.388,-56.5 385.388,-75.5 499.388,-75.5 499.388,-56.5 385.388,-56.5"/>
<text text-anchor="middle" x="442.388" y="-63.5" font-family="Helvetica,sans-Serif" font-size="10.00">AbstractComposite.hh</text>
</a>
</g>
<!-- Node14&#45;&gt;Node15 -->
<g id="edge40" class="edge"><title>Node14&#45;&gt;Node15</title>
<path fill="none" stroke="midnightblue" d="M241.114,-114.272C244.239,-113.499 247.383,-112.728 250.388,-112 299.719,-100.053 356.304,-86.8521 395.198,-77.8557"/>
<polygon fill="midnightblue" stroke="midnightblue" points="396.228,-81.2101 405.183,-75.5486 394.652,-74.3898 396.228,-81.2101"/>
</g>
<!-- Node16 -->
<g id="node37" class="node"><title>Node16</title>
<polygon fill="white" stroke="#bfbfbf" points="420.388,-0.5 420.388,-19.5 464.388,-19.5 464.388,-0.5 420.388,-0.5"/>
<text text-anchor="middle" x="442.388" y="-7.5" font-family="Helvetica,sans-Serif" font-size="10.00">vector</text>
</g>
<!-- Node15&#45;&gt;Node16 -->
<g id="edge42" class="edge"><title>Node15&#45;&gt;Node16</title>
<path fill="none" stroke="midnightblue" d="M442.388,-56.083C442.388,-49.0059 442.388,-38.8611 442.388,-29.9865"/>
<polygon fill="midnightblue" stroke="midnightblue" points="445.888,-29.751 442.388,-19.7511 438.888,-29.7511 445.888,-29.751"/>
</g>
<!-- Node17&#45;&gt;Node18 -->
<g id="edge52" class="edge"><title>Node17&#45;&gt;Node18</title>
<path fill="none" stroke="midnightblue" d="M444.149,-280.083C450.925,-272.298 460.931,-260.801 469.143,-251.367"/>
<polygon fill="midnightblue" stroke="midnightblue" points="471.846,-253.592 475.771,-243.751 466.566,-248.996 471.846,-253.592"/>
</g>
<!-- Node18&#45;&gt;Node15 -->
<g id="edge54" class="edge"><title>Node18&#45;&gt;Node15</title>
<path fill="none" stroke="midnightblue" d="M481.184,-224.075C474.73,-197.945 455.777,-121.211 446.976,-85.577"/>
<polygon fill="midnightblue" stroke="midnightblue" points="450.3,-84.4371 444.504,-75.5681 443.504,-86.1156 450.3,-84.4371"/>
</g>
</g>
</svg>
