<?xml version="1.0" encoding="UTF-8" standalone="no"?>
<!DOCTYPE svg PUBLIC "-//W3C//DTD SVG 1.1//EN"
 "http://www.w3.org/Graphics/SVG/1.1/DTD/svg11.dtd">
<!-- Generated by graphviz version 2.28.0 (20120217.0315)
 -->
<!-- Title: G Pages: 1 -->
<svg width="999pt" height="588pt"
 viewBox="0.00 0.00 999.00 588.00" xmlns="http://www.w3.org/2000/svg" xmlns:xlink="http://www.w3.org/1999/xlink">
<g id="graph1" class="graph" transform="scale(1 1) rotate(0) translate(4 584)">
<title>G</title>
<polygon fill="white" stroke="white" points="-4,5 -4,-584 996,-584 996,5 -4,5"/>
<!-- Node1 -->
<g id="node1" class="node"><title>Node1</title>
<polygon fill="#bfbfbf" stroke="black" points="354.5,-560.5 354.5,-579.5 527.5,-579.5 527.5,-560.5 354.5,-560.5"/>
<text text-anchor="middle" x="441" y="-567.5" font-family="Helvetica,sans-Serif" font-size="10.00">src/Browser/Database/Database.hh</text>
</g>
<!-- Node2 -->
<g id="node3" class="node"><title>Node2</title>
<polygon fill="white" stroke="#bfbfbf" points="-0.5,-336.5 -0.5,-355.5 54.5,-355.5 54.5,-336.5 -0.5,-336.5"/>
<text text-anchor="middle" x="27" y="-343.5" font-family="Helvetica,sans-Serif" font-size="10.00">gtkmm.h</text>
</g>
<!-- Node1&#45;&gt;Node2 -->
<g id="edge2" class="edge"><title>Node1&#45;&gt;Node2</title>
<path fill="none" stroke="midnightblue" d="M354.273,-564.754C243.456,-558.495 63.219,-545.192 41,-524 -2.46234,-482.547 12.1244,-401.661 21.5741,-365.381"/>
<polygon fill="midnightblue" stroke="midnightblue" points="24.9739,-366.218 24.2719,-355.646 18.2282,-364.348 24.9739,-366.218"/>
</g>
<!-- Node3 -->
<g id="node5" class="node"><title>Node3</title>
<a xlink:href="AbstractItemlist_8hh.html" target="_top" xlink:title="../../MPD/AbstractItemlist.hh">
<polygon fill="white" stroke="black" points="351.5,-224.5 351.5,-243.5 494.5,-243.5 494.5,-224.5 351.5,-224.5"/>
<text text-anchor="middle" x="423" y="-231.5" font-family="Helvetica,sans-Serif" font-size="10.00">../../MPD/AbstractItemlist.hh</text>
</a>
</g>
<!-- Node1&#45;&gt;Node3 -->
<g id="edge4" class="edge"><title>Node1&#45;&gt;Node3</title>
<path fill="none" stroke="midnightblue" d="M440.537,-560.408C438.169,-516.475 427.396,-316.572 424.017,-253.87"/>
<polygon fill="midnightblue" stroke="midnightblue" points="427.493,-253.332 423.46,-243.535 420.503,-253.709 427.493,-253.332"/>
</g>
<!-- Node6 -->
<g id="node11" class="node"><title>Node6</title>
<a xlink:href="AbstractClientUser_8hh.html" target="_top" xlink:title="../../MPD/AbstractClientUser.hh">
<polygon fill="white" stroke="black" points="451.5,-392.5 451.5,-411.5 608.5,-411.5 608.5,-392.5 451.5,-392.5"/>
<text text-anchor="middle" x="530" y="-399.5" font-family="Helvetica,sans-Serif" font-size="10.00">../../MPD/AbstractClientUser.hh</text>
</a>
</g>
<!-- Node1&#45;&gt;Node6 -->
<g id="edge10" class="edge"><title>Node1&#45;&gt;Node6</title>
<path fill="none" stroke="midnightblue" d="M445.785,-560.075C459.916,-533.719 501.65,-455.878 520.531,-420.661"/>
<polygon fill="midnightblue" stroke="midnightblue" points="523.766,-422.035 525.406,-411.568 517.596,-418.728 523.766,-422.035"/>
</g>
<!-- Node7 -->
<g id="node13" class="node"><title>Node7</title>
<a xlink:href="Client_8hh.html" target="_top" xlink:title="Client.hh">
<polygon fill="white" stroke="black" points="555,-336.5 555,-355.5 611,-355.5 611,-336.5 555,-336.5"/>
<text text-anchor="middle" x="583" y="-343.5" font-family="Helvetica,sans-Serif" font-size="10.00">Client.hh</text>
</a>
</g>
<!-- Node1&#45;&gt;Node7 -->
<g id="edge68" class="edge"><title>Node1&#45;&gt;Node7</title>
<path fill="none" stroke="midnightblue" d="M457.775,-560.477C494.93,-540.522 583.518,-486.735 617,-412 624.675,-394.868 612.239,-375.915 600.307,-362.917"/>
<polygon fill="midnightblue" stroke="midnightblue" points="602.649,-360.309 593.127,-355.664 597.674,-365.233 602.649,-360.309"/>
</g>
<!-- Node22 -->
<g id="node57" class="node"><title>Node22</title>
<a xlink:href="Directory_8hh.html" target="_top" xlink:title="../../MPD/Directory.hh">
<polygon fill="white" stroke="black" points="765.5,-112.5 765.5,-131.5 878.5,-131.5 878.5,-112.5 765.5,-112.5"/>
<text text-anchor="middle" x="822" y="-119.5" font-family="Helvetica,sans-Serif" font-size="10.00">../../MPD/Directory.hh</text>
</a>
</g>
<!-- Node1&#45;&gt;Node22 -->
<g id="edge70" class="edge"><title>Node1&#45;&gt;Node22</title>
<path fill="none" stroke="midnightblue" d="M527.53,-566.894C666.745,-561.126 925,-539.57 925,-459 925,-459 925,-459 925,-233 925,-188.426 879.379,-154.46 848.86,-136.726"/>
<polygon fill="midnightblue" stroke="midnightblue" points="850.379,-133.566 839.941,-131.75 846.969,-139.678 850.379,-133.566"/>
</g>
<!-- Node23 -->
<g id="node61" class="node"><title>Node23</title>
<a xlink:href="DatabasePopup_8hh.html" target="_top" xlink:title="DatabasePopup.hh">
<polygon fill="white" stroke="black" points="50,-504.5 50,-523.5 150,-523.5 150,-504.5 50,-504.5"/>
<text text-anchor="middle" x="100" y="-511.5" font-family="Helvetica,sans-Serif" font-size="10.00">DatabasePopup.hh</text>
</a>
</g>
<!-- Node1&#45;&gt;Node23 -->
<g id="edge76" class="edge"><title>Node1&#45;&gt;Node23</title>
<path fill="none" stroke="midnightblue" d="M386.968,-560.444C325.2,-550.662 224.368,-534.695 160.151,-524.525"/>
<polygon fill="midnightblue" stroke="midnightblue" points="160.595,-521.052 150.17,-522.945 159.5,-527.966 160.595,-521.052"/>
</g>
<!-- Node26 -->
<g id="node69" class="node"><title>Node26</title>
<a xlink:href="AbstractBrowser_8hh.html" target="_top" xlink:title="../AbstractBrowser.hh">
<polygon fill="white" stroke="black" points="230,-504.5 230,-523.5 342,-523.5 342,-504.5 230,-504.5"/>
<text text-anchor="middle" x="286" y="-511.5" font-family="Helvetica,sans-Serif" font-size="10.00">../AbstractBrowser.hh</text>
</a>
</g>
<!-- Node1&#45;&gt;Node26 -->
<g id="edge86" class="edge"><title>Node1&#45;&gt;Node26</title>
<path fill="none" stroke="midnightblue" d="M416.44,-560.444C390.477,-551.399 349.332,-537.064 320.203,-526.916"/>
<polygon fill="midnightblue" stroke="midnightblue" points="321.04,-523.501 310.445,-523.516 318.737,-530.112 321.04,-523.501"/>
</g>
<!-- Node4 -->
<g id="node7" class="node"><title>Node4</title>
<a xlink:href="AbstractComposite_8hh.html" target="_top" xlink:title="AbstractComposite.hh">
<polygon fill="white" stroke="black" points="534,-56.5 534,-75.5 648,-75.5 648,-56.5 534,-56.5"/>
<text text-anchor="middle" x="591" y="-63.5" font-family="Helvetica,sans-Serif" font-size="10.00">AbstractComposite.hh</text>
</a>
</g>
<!-- Node3&#45;&gt;Node4 -->
<g id="edge6" class="edge"><title>Node3&#45;&gt;Node4</title>
<path fill="none" stroke="midnightblue" d="M419.55,-224.255C411.649,-202.634 394.857,-145.964 421,-112 433.801,-95.3698 481.88,-83.6234 523.656,-76.3115"/>
<polygon fill="midnightblue" stroke="midnightblue" points="524.283,-79.7553 533.56,-74.6382 523.117,-72.8531 524.283,-79.7553"/>
</g>
<!-- Node5 -->
<g id="node9" class="node"><title>Node5</title>
<polygon fill="white" stroke="#bfbfbf" points="755,-0.5 755,-19.5 799,-19.5 799,-0.5 755,-0.5"/>
<text text-anchor="middle" x="777" y="-7.5" font-family="Helvetica,sans-Serif" font-size="10.00">vector</text>
</g>
<!-- Node4&#45;&gt;Node5 -->
<g id="edge8" class="edge"><title>Node4&#45;&gt;Node5</title>
<path fill="none" stroke="midnightblue" d="M620.472,-56.4435C654.502,-46.5639 710.269,-30.3734 745.24,-20.2208"/>
<polygon fill="midnightblue" stroke="midnightblue" points="746.319,-23.552 754.947,-17.4026 744.367,-16.8296 746.319,-23.552"/>
</g>
<!-- Node6&#45;&gt;Node7 -->
<g id="edge12" class="edge"><title>Node6&#45;&gt;Node7</title>
<path fill="none" stroke="midnightblue" d="M538.752,-392.083C546.47,-384.22 557.905,-372.569 567.217,-363.081"/>
<polygon fill="midnightblue" stroke="midnightblue" points="569.904,-365.34 574.411,-355.751 564.908,-360.436 569.904,-365.34"/>
</g>
<!-- Node8 -->
<g id="node15" class="node"><title>Node8</title>
<a xlink:href="BaseClient_8hh.html" target="_top" xlink:title="BaseClient.hh">
<polygon fill="white" stroke="black" points="599,-280.5 599,-299.5 677,-299.5 677,-280.5 599,-280.5"/>
<text text-anchor="middle" x="638" y="-287.5" font-family="Helvetica,sans-Serif" font-size="10.00">BaseClient.hh</text>
</a>
</g>
<!-- Node7&#45;&gt;Node8 -->
<g id="edge14" class="edge"><title>Node7&#45;&gt;Node8</title>
<path fill="none" stroke="midnightblue" d="M592.082,-336.083C600.171,-328.141 612.195,-316.335 621.91,-306.797"/>
<polygon fill="midnightblue" stroke="midnightblue" points="624.403,-309.254 629.087,-299.751 619.499,-304.26 624.403,-309.254"/>
</g>
<!-- Node21 -->
<g id="node53" class="node"><title>Node21</title>
<a xlink:href="AbstractItemGenerator_8hh.html" target="_top" xlink:title="AbstractItemGenerator.hh">
<polygon fill="white" stroke="black" points="451.5,-280.5 451.5,-299.5 580.5,-299.5 580.5,-280.5 451.5,-280.5"/>
<text text-anchor="middle" x="516" y="-287.5" font-family="Helvetica,sans-Serif" font-size="10.00">AbstractItemGenerator.hh</text>
</a>
</g>
<!-- Node7&#45;&gt;Node21 -->
<g id="edge64" class="edge"><title>Node7&#45;&gt;Node21</title>
<path fill="none" stroke="midnightblue" d="M572.235,-336.324C562.234,-328.263 547.113,-316.077 535.07,-306.369"/>
<polygon fill="midnightblue" stroke="midnightblue" points="536.943,-303.384 526.961,-299.834 532.55,-308.834 536.943,-303.384"/>
</g>
<!-- Node9 -->
<g id="node17" class="node"><title>Node9</title>
<a xlink:href="Listener_8hh.html" target="_top" xlink:title="Listener.hh">
<polygon fill="white" stroke="black" points="542.5,-224.5 542.5,-243.5 607.5,-243.5 607.5,-224.5 542.5,-224.5"/>
<text text-anchor="middle" x="575" y="-231.5" font-family="Helvetica,sans-Serif" font-size="10.00">Listener.hh</text>
</a>
</g>
<!-- Node8&#45;&gt;Node9 -->
<g id="edge16" class="edge"><title>Node8&#45;&gt;Node9</title>
<path fill="none" stroke="midnightblue" d="M627.878,-280.324C618.474,-272.263 604.256,-260.077 592.931,-250.369"/>
<polygon fill="midnightblue" stroke="midnightblue" points="595.177,-247.684 585.306,-243.834 590.621,-252.999 595.177,-247.684"/>
</g>
<!-- Node16 -->
<g id="node32" class="node"><title>Node16</title>
<a xlink:href="Connection_8hh.html" target="_top" xlink:title="Connection.hh">
<polygon fill="white" stroke="black" points="430,-112.5 430,-131.5 510,-131.5 510,-112.5 430,-112.5"/>
<text text-anchor="middle" x="470" y="-119.5" font-family="Helvetica,sans-Serif" font-size="10.00">Connection.hh</text>
</a>
</g>
<!-- Node8&#45;&gt;Node16 -->
<g id="edge54" class="edge"><title>Node8&#45;&gt;Node16</title>
<path fill="none" stroke="midnightblue" d="M639.447,-280.42C642.592,-258.688 647.633,-200.87 619,-168 611.949,-159.906 556.247,-144.523 515.005,-134.018"/>
<polygon fill="midnightblue" stroke="midnightblue" points="515.686,-130.58 505.134,-131.525 513.973,-137.367 515.686,-130.58"/>
</g>
<!-- Node19 -->
<g id="node47" class="node"><title>Node19</title>
<a xlink:href="Query_8hh.html" target="_top" xlink:title="Query.hh">
<polygon fill="white" stroke="black" points="935,-112.5 935,-131.5 991,-131.5 991,-112.5 935,-112.5"/>
<text text-anchor="middle" x="963" y="-119.5" font-family="Helvetica,sans-Serif" font-size="10.00">Query.hh</text>
</a>
</g>
<!-- Node8&#45;&gt;Node19 -->
<g id="edge56" class="edge"><title>Node8&#45;&gt;Node19</title>
<path fill="none" stroke="midnightblue" d="M655.016,-280.309C708.435,-253.024 873.044,-168.947 937.11,-136.224"/>
<polygon fill="midnightblue" stroke="midnightblue" points="938.839,-139.271 946.153,-131.605 935.655,-133.037 938.839,-139.271"/>
</g>
<!-- Node10 -->
<g id="node19" class="node"><title>Node10</title>
<polygon fill="white" stroke="#bfbfbf" points="683,-56.5 683,-75.5 753,-75.5 753,-56.5 683,-56.5"/>
<text text-anchor="middle" x="718" y="-63.5" font-family="Helvetica,sans-Serif" font-size="10.00">mpd/client.h</text>
</g>
<!-- Node9&#45;&gt;Node10 -->
<g id="edge18" class="edge"><title>Node9&#45;&gt;Node10</title>
<path fill="none" stroke="midnightblue" d="M607.506,-227.761C681.086,-215.13 856.382,-180.422 887,-132 891.751,-124.487 892.417,-119.048 887,-112 871.98,-92.4577 808.039,-79.6035 763.269,-72.8143"/>
<polygon fill="midnightblue" stroke="midnightblue" points="763.59,-69.324 753.188,-71.3379 762.575,-76.2501 763.59,-69.324"/>
</g>
<!-- Node11 -->
<g id="node21" class="node"><title>Node11</title>
<polygon fill="white" stroke="#bfbfbf" points="444.5,-168.5 444.5,-187.5 517.5,-187.5 517.5,-168.5 444.5,-168.5"/>
<text text-anchor="middle" x="481" y="-175.5" font-family="Helvetica,sans-Serif" font-size="10.00">mpd/async.h</text>
</g>
<!-- Node9&#45;&gt;Node11 -->
<g id="edge20" class="edge"><title>Node9&#45;&gt;Node11</title>
<path fill="none" stroke="midnightblue" d="M559.897,-224.324C545.097,-215.822 522.306,-202.729 505.018,-192.797"/>
<polygon fill="midnightblue" stroke="midnightblue" points="506.48,-189.601 496.065,-187.655 502.993,-195.671 506.48,-189.601"/>
</g>
<!-- Node12 -->
<g id="node23" class="node"><title>Node12</title>
<polygon fill="white" stroke="#bfbfbf" points="536,-168.5 536,-187.5 610,-187.5 610,-168.5 536,-168.5"/>
<text text-anchor="middle" x="573" y="-175.5" font-family="Helvetica,sans-Serif" font-size="10.00">mpd/parser.h</text>
</g>
<!-- Node9&#45;&gt;Node12 -->
<g id="edge22" class="edge"><title>Node9&#45;&gt;Node12</title>
<path fill="none" stroke="midnightblue" d="M574.67,-224.083C574.408,-217.006 574.032,-206.861 573.703,-197.986"/>
<polygon fill="midnightblue" stroke="midnightblue" points="577.192,-197.615 573.324,-187.751 570.197,-197.874 577.192,-197.615"/>
</g>
<!-- Node13 -->
<g id="node25" class="node"><title>Node13</title>
<polygon fill="white" stroke="#bfbfbf" points="442,-56.5 442,-75.5 498,-75.5 498,-56.5 442,-56.5"/>
<text text-anchor="middle" x="470" y="-63.5" font-family="Helvetica,sans-Serif" font-size="10.00">glibmm.h</text>
</g>
<!-- Node9&#45;&gt;Node13 -->
<g id="edge24" class="edge"><title>Node9&#45;&gt;Node13</title>
<path fill="none" stroke="midnightblue" d="M542.409,-227.392C503.471,-219.992 441.723,-205.795 427,-188 405.401,-161.893 407.371,-143.021 421,-112 426.39,-99.732 436.958,-89.3414 446.904,-81.6461"/>
<polygon fill="midnightblue" stroke="midnightblue" points="449.252,-84.2697 455.339,-75.598 445.172,-78.5811 449.252,-84.2697"/>
</g>
<!-- Node14 -->
<g id="node27" class="node"><title>Node14</title>
<a xlink:href="Status_8hh.html" target="_top" xlink:title="Status.hh">
<polygon fill="white" stroke="black" points="688.5,-112.5 688.5,-131.5 747.5,-131.5 747.5,-112.5 688.5,-112.5"/>
<text text-anchor="middle" x="718" y="-119.5" font-family="Helvetica,sans-Serif" font-size="10.00">Status.hh</text>
</a>
</g>
<!-- Node9&#45;&gt;Node14 -->
<g id="edge26" class="edge"><title>Node9&#45;&gt;Node14</title>
<path fill="none" stroke="midnightblue" d="M607.522,-229.461C653.646,-223.696 734.435,-210.59 752,-188 764.005,-172.561 749.373,-152.256 735.742,-138.478"/>
<polygon fill="midnightblue" stroke="midnightblue" points="738.114,-135.904 728.447,-131.567 733.299,-140.985 738.114,-135.904"/>
</g>
<!-- Node15 -->
<g id="node30" class="node"><title>Node15</title>
<a xlink:href="NotifyData_8hh.html" target="_top" xlink:title="NotifyData.hh">
<polygon fill="white" stroke="black" points="666.5,-168.5 666.5,-187.5 743.5,-187.5 743.5,-168.5 666.5,-168.5"/>
<text text-anchor="middle" x="705" y="-175.5" font-family="Helvetica,sans-Serif" font-size="10.00">NotifyData.hh</text>
</a>
</g>
<!-- Node9&#45;&gt;Node15 -->
<g id="edge30" class="edge"><title>Node9&#45;&gt;Node15</title>
<path fill="none" stroke="midnightblue" d="M595.599,-224.444C616.993,-215.557 650.681,-201.563 675.024,-191.451"/>
<polygon fill="midnightblue" stroke="midnightblue" points="676.605,-194.585 684.497,-187.516 673.92,-188.12 676.605,-194.585"/>
</g>
<!-- Node9&#45;&gt;Node16 -->
<g id="edge52" class="edge"><title>Node9&#45;&gt;Node16</title>
<path fill="none" stroke="midnightblue" d="M542.216,-227.048C504.988,-219.543 447.746,-205.485 435,-188 423.534,-172.27 437.991,-152.327 451.649,-138.706"/>
<polygon fill="midnightblue" stroke="midnightblue" points="454.064,-141.239 458.984,-131.856 449.287,-136.123 454.064,-141.239"/>
</g>
<!-- Node14&#45;&gt;Node10 -->
<g id="edge28" class="edge"><title>Node14&#45;&gt;Node10</title>
<path fill="none" stroke="midnightblue" d="M718,-112.083C718,-105.006 718,-94.8611 718,-85.9865"/>
<polygon fill="midnightblue" stroke="midnightblue" points="721.5,-85.751 718,-75.7511 714.5,-85.7511 721.5,-85.751"/>
</g>
<!-- Node15&#45;&gt;Node14 -->
<g id="edge42" class="edge"><title>Node15&#45;&gt;Node14</title>
<path fill="none" stroke="midnightblue" d="M707.147,-168.083C708.869,-160.927 711.347,-150.635 713.5,-141.691"/>
<polygon fill="midnightblue" stroke="midnightblue" points="716.955,-142.293 715.893,-131.751 710.15,-140.654 716.955,-142.293"/>
</g>
<!-- Node15&#45;&gt;Node16 -->
<g id="edge32" class="edge"><title>Node15&#45;&gt;Node16</title>
<path fill="none" stroke="midnightblue" d="M667.764,-168.444C626.94,-159.063 561.357,-143.993 517.016,-133.804"/>
<polygon fill="midnightblue" stroke="midnightblue" points="517.592,-130.345 507.062,-131.516 516.024,-137.167 517.592,-130.345"/>
</g>
<!-- Node17 -->
<g id="node36" class="node"><title>Node17</title>
<a xlink:href="Statistics_8hh.html" target="_top" xlink:title="Statistics.hh">
<polygon fill="white" stroke="black" points="599.5,-112.5 599.5,-131.5 670.5,-131.5 670.5,-112.5 599.5,-112.5"/>
<text text-anchor="middle" x="635" y="-119.5" font-family="Helvetica,sans-Serif" font-size="10.00">Statistics.hh</text>
</a>
</g>
<!-- Node15&#45;&gt;Node17 -->
<g id="edge38" class="edge"><title>Node15&#45;&gt;Node17</title>
<path fill="none" stroke="midnightblue" d="M693.753,-168.324C683.203,-160.185 667.199,-147.839 654.558,-138.087"/>
<polygon fill="midnightblue" stroke="midnightblue" points="656.507,-135.171 646.451,-131.834 652.231,-140.713 656.507,-135.171"/>
</g>
<!-- Node18 -->
<g id="node40" class="node"><title>Node18</title>
<a xlink:href="Song_8hh.html" target="_top" xlink:title="Song.hh">
<polygon fill="white" stroke="black" points="528.5,-112.5 528.5,-131.5 581.5,-131.5 581.5,-112.5 528.5,-112.5"/>
<text text-anchor="middle" x="555" y="-119.5" font-family="Helvetica,sans-Serif" font-size="10.00">Song.hh</text>
</a>
</g>
<!-- Node15&#45;&gt;Node18 -->
<g id="edge44" class="edge"><title>Node15&#45;&gt;Node18</title>
<path fill="none" stroke="midnightblue" d="M681.232,-168.444C656.107,-159.399 616.289,-145.064 588.1,-134.916"/>
<polygon fill="midnightblue" stroke="midnightblue" points="589.251,-131.611 578.657,-131.516 586.88,-138.197 589.251,-131.611"/>
</g>
<!-- Node16&#45;&gt;Node10 -->
<g id="edge34" class="edge"><title>Node16&#45;&gt;Node10</title>
<path fill="none" stroke="midnightblue" d="M509.296,-112.444C553.832,-102.746 626.29,-86.969 673.042,-76.7892"/>
<polygon fill="midnightblue" stroke="midnightblue" points="673.871,-80.1908 682.897,-74.6433 672.382,-73.3511 673.871,-80.1908"/>
</g>
<!-- Node16&#45;&gt;Node13 -->
<g id="edge36" class="edge"><title>Node16&#45;&gt;Node13</title>
<path fill="none" stroke="midnightblue" d="M470,-112.083C470,-105.006 470,-94.8611 470,-85.9865"/>
<polygon fill="midnightblue" stroke="midnightblue" points="473.5,-85.751 470,-75.7511 466.5,-85.7511 473.5,-85.751"/>
</g>
<!-- Node17&#45;&gt;Node10 -->
<g id="edge40" class="edge"><title>Node17&#45;&gt;Node10</title>
<path fill="none" stroke="midnightblue" d="M648.335,-112.324C661.162,-103.979 680.785,-91.2122 695.94,-81.3524"/>
<polygon fill="midnightblue" stroke="midnightblue" points="698.224,-84.0417 704.698,-75.6545 694.407,-78.1742 698.224,-84.0417"/>
</g>
<!-- Node18&#45;&gt;Node4 -->
<g id="edge48" class="edge"><title>Node18&#45;&gt;Node4</title>
<path fill="none" stroke="midnightblue" d="M560.945,-112.083C565.977,-104.534 573.337,-93.4948 579.513,-84.2298"/>
<polygon fill="midnightblue" stroke="midnightblue" points="582.531,-86.0131 585.166,-75.7511 576.707,-82.1301 582.531,-86.0131"/>
</g>
<!-- Node18&#45;&gt;Node10 -->
<g id="edge46" class="edge"><title>Node18&#45;&gt;Node10</title>
<path fill="none" stroke="midnightblue" d="M580.828,-112.444C608.249,-103.359 651.777,-88.9388 682.432,-78.7831"/>
<polygon fill="midnightblue" stroke="midnightblue" points="683.901,-81.9837 692.293,-75.5164 681.7,-75.3389 683.901,-81.9837"/>
</g>
<!-- Node18&#45;&gt;Node13 -->
<g id="edge50" class="edge"><title>Node18&#45;&gt;Node13</title>
<path fill="none" stroke="midnightblue" d="M541.343,-112.324C528.084,-103.9 507.732,-90.9709 492.154,-81.0741"/>
<polygon fill="midnightblue" stroke="midnightblue" points="493.94,-78.0626 483.623,-75.6545 490.187,-83.9711 493.94,-78.0626"/>
</g>
<!-- Node19&#45;&gt;Node5 -->
<g id="edge60" class="edge"><title>Node19&#45;&gt;Node5</title>
<path fill="none" stroke="midnightblue" d="M963.005,-112.059C962.51,-98.0919 959.458,-71.1339 944,-56 907.873,-20.6296 847.024,-12.3201 809.602,-10.7756"/>
<polygon fill="midnightblue" stroke="midnightblue" points="809.343,-7.26741 799.252,-10.4964 809.154,-14.2649 809.343,-7.26741"/>
</g>
<!-- Node19&#45;&gt;Node10 -->
<g id="edge58" class="edge"><title>Node19&#45;&gt;Node10</title>
<path fill="none" stroke="midnightblue" d="M934.895,-114.806C892.916,-105.553 813.41,-88.0291 763.2,-76.9624"/>
<polygon fill="midnightblue" stroke="midnightblue" points="763.78,-73.5064 753.261,-74.7719 762.274,-80.3424 763.78,-73.5064"/>
</g>
<!-- Node20 -->
<g id="node51" class="node"><title>Node20</title>
<a xlink:href="AbstractClientExtension_8hh.html" target="_top" xlink:title="AbstractClientExtension.hh">
<polygon fill="white" stroke="black" points="799,-56.5 799,-75.5 935,-75.5 935,-56.5 799,-56.5"/>
<text text-anchor="middle" x="867" y="-63.5" font-family="Helvetica,sans-Serif" font-size="10.00">AbstractClientExtension.hh</text>
</a>
</g>
<!-- Node19&#45;&gt;Node20 -->
<g id="edge62" class="edge"><title>Node19&#45;&gt;Node20</title>
<path fill="none" stroke="midnightblue" d="M947.576,-112.324C932.46,-103.822 909.185,-90.7288 891.529,-80.7975"/>
<polygon fill="midnightblue" stroke="midnightblue" points="892.817,-77.5066 882.386,-75.6545 889.386,-83.6077 892.817,-77.5066"/>
</g>
<!-- Node21&#45;&gt;Node3 -->
<g id="edge66" class="edge"><title>Node21&#45;&gt;Node3</title>
<path fill="none" stroke="midnightblue" d="M501.058,-280.324C486.415,-271.822 463.866,-258.729 446.762,-248.797"/>
<polygon fill="midnightblue" stroke="midnightblue" points="448.31,-245.649 437.905,-243.655 444.795,-251.703 448.31,-245.649"/>
</g>
<!-- Node22&#45;&gt;Node4 -->
<g id="edge74" class="edge"><title>Node22&#45;&gt;Node4</title>
<path fill="none" stroke="midnightblue" d="M785.397,-112.444C745.269,-103.063 680.802,-87.9926 637.215,-77.8036"/>
<polygon fill="midnightblue" stroke="midnightblue" points="637.966,-74.3847 627.431,-75.5164 636.372,-81.2009 637.966,-74.3847"/>
</g>
<!-- Node22&#45;&gt;Node10 -->
<g id="edge72" class="edge"><title>Node22&#45;&gt;Node10</title>
<path fill="none" stroke="midnightblue" d="M805.291,-112.324C788.688,-103.703 762.998,-90.3643 743.78,-80.3855"/>
<polygon fill="midnightblue" stroke="midnightblue" points="745.156,-77.1565 734.668,-75.6545 741.93,-83.3689 745.156,-77.1565"/>
</g>
<!-- Node23&#45;&gt;Node2 -->
<g id="edge78" class="edge"><title>Node23&#45;&gt;Node2</title>
<path fill="none" stroke="midnightblue" d="M84.5371,-504.433C72.0177,-496.636 55.0304,-483.923 46,-468 27.6164,-435.585 25.4982,-390.847 25.9912,-365.848"/>
<polygon fill="midnightblue" stroke="midnightblue" points="29.4987,-365.705 26.3677,-355.583 22.5034,-365.448 29.4987,-365.705"/>
</g>
<!-- Node24 -->
<g id="node64" class="node"><title>Node24</title>
<a xlink:href="BasePopup_8hh.html" target="_top" xlink:title="../BasePopup.hh">
<polygon fill="white" stroke="black" points="55.5,-448.5 55.5,-467.5 144.5,-467.5 144.5,-448.5 55.5,-448.5"/>
<text text-anchor="middle" x="100" y="-455.5" font-family="Helvetica,sans-Serif" font-size="10.00">../BasePopup.hh</text>
</a>
</g>
<!-- Node23&#45;&gt;Node24 -->
<g id="edge80" class="edge"><title>Node23&#45;&gt;Node24</title>
<path fill="none" stroke="midnightblue" d="M100,-504.083C100,-497.006 100,-486.861 100,-477.986"/>
<polygon fill="midnightblue" stroke="midnightblue" points="103.5,-477.751 100,-467.751 96.5001,-477.751 103.5,-477.751"/>
</g>
<!-- Node25 -->
<g id="node66" class="node"><title>Node25</title>
<a xlink:href="ui__includes_8hh.html" target="_top" xlink:title="../ui_includes.hh">
<polygon fill="white" stroke="black" points="92,-392.5 92,-411.5 180,-411.5 180,-392.5 92,-392.5"/>
<text text-anchor="middle" x="136" y="-399.5" font-family="Helvetica,sans-Serif" font-size="10.00">../ui_includes.hh</text>
</a>
</g>
<!-- Node24&#45;&gt;Node25 -->
<g id="edge82" class="edge"><title>Node24&#45;&gt;Node25</title>
<path fill="none" stroke="midnightblue" d="M105.945,-448.083C110.977,-440.534 118.337,-429.495 124.513,-420.23"/>
<polygon fill="midnightblue" stroke="midnightblue" points="127.531,-422.013 130.166,-411.751 121.707,-418.13 127.531,-422.013"/>
</g>
<!-- Node25&#45;&gt;Node2 -->
<g id="edge84" class="edge"><title>Node25&#45;&gt;Node2</title>
<path fill="none" stroke="midnightblue" d="M118.487,-392.324C100.928,-383.625 73.6686,-370.12 53.4688,-360.113"/>
<polygon fill="midnightblue" stroke="midnightblue" points="54.9837,-356.958 44.4693,-355.655 51.8762,-363.23 54.9837,-356.958"/>
</g>
<!-- Node26&#45;&gt;Node25 -->
<g id="edge88" class="edge"><title>Node26&#45;&gt;Node25</title>
<path fill="none" stroke="midnightblue" d="M261.282,-504.418C241.362,-496.769 213.268,-484.271 192,-468 174.144,-454.339 157.877,-434.191 147.532,-419.955"/>
<polygon fill="midnightblue" stroke="midnightblue" points="150.253,-417.74 141.632,-411.581 144.53,-421.771 150.253,-417.74"/>
</g>
<!-- Node27 -->
<g id="node72" class="node"><title>Node27</title>
<polygon fill="white" stroke="#bfbfbf" points="201,-448.5 201,-467.5 255,-467.5 255,-448.5 201,-448.5"/>
<text text-anchor="middle" x="228" y="-455.5" font-family="Helvetica,sans-Serif" font-size="10.00">iostream</text>
</g>
<!-- Node26&#45;&gt;Node27 -->
<g id="edge90" class="edge"><title>Node26&#45;&gt;Node27</title>
<path fill="none" stroke="midnightblue" d="M276.681,-504.324C268.107,-496.341 255.188,-484.313 244.812,-474.653"/>
<polygon fill="midnightblue" stroke="midnightblue" points="247.192,-472.086 237.488,-467.834 242.422,-477.21 247.192,-472.086"/>
</g>
<!-- Node28 -->
<g id="node74" class="node"><title>Node28</title>
<a xlink:href="BrowserList_8hh.html" target="_top" xlink:title="../GManager/BrowserList.hh">
<polygon fill="white" stroke="black" points="273.5,-448.5 273.5,-467.5 412.5,-467.5 412.5,-448.5 273.5,-448.5"/>
<text text-anchor="middle" x="343" y="-455.5" font-family="Helvetica,sans-Serif" font-size="10.00">../GManager/BrowserList.hh</text>
</a>
</g>
<!-- Node26&#45;&gt;Node28 -->
<g id="edge92" class="edge"><title>Node26&#45;&gt;Node28</title>
<path fill="none" stroke="midnightblue" d="M295.158,-504.324C303.501,-496.42 316.032,-484.548 326.177,-474.938"/>
<polygon fill="midnightblue" stroke="midnightblue" points="328.823,-477.252 333.675,-467.834 324.009,-472.171 328.823,-477.252"/>
</g>
<!-- Node28&#45;&gt;Node6 -->
<g id="edge96" class="edge"><title>Node28&#45;&gt;Node6</title>
<path fill="none" stroke="midnightblue" d="M372.631,-448.444C404.5,-439.241 455.333,-424.562 490.564,-414.388"/>
<polygon fill="midnightblue" stroke="midnightblue" points="491.872,-417.653 500.508,-411.516 489.929,-410.928 491.872,-417.653"/>
</g>
<!-- Node28&#45;&gt;Node25 -->
<g id="edge94" class="edge"><title>Node28&#45;&gt;Node25</title>
<path fill="none" stroke="midnightblue" d="M310.2,-448.444C274.62,-439.162 217.686,-424.309 178.653,-414.127"/>
<polygon fill="midnightblue" stroke="midnightblue" points="179.206,-410.654 168.646,-411.516 177.439,-417.427 179.206,-410.654"/>
</g>
</g>
</svg>
