<?xml version="1.0" encoding="UTF-8" standalone="no"?>
<!DOCTYPE svg PUBLIC "-//W3C//DTD SVG 1.1//EN"
 "http://www.w3.org/Graphics/SVG/1.1/DTD/svg11.dtd">
<!-- Generated by graphviz version 2.28.0 (20111204.1018)
 -->
<!-- Title: G Pages: 1 -->
<svg width="183pt" height="140pt"
 viewBox="0.00 0.00 183.00 140.00" xmlns="http://www.w3.org/2000/svg" xmlns:xlink="http://www.w3.org/1999/xlink">
<g id="graph1" class="graph" transform="scale(1 1) rotate(0) translate(4 136)">
<title>G</title>
<polygon fill="white" stroke="white" points="-4,5 -4,-136 180,-136 180,5 -4,5"/>
<!-- Node1 -->
<g id="node1" class="node"><title>Node1</title>
<polygon fill="#bfbfbf" stroke="black" points="-0.5,-112.5 -0.5,-131.5 154.5,-131.5 154.5,-112.5 -0.5,-112.5"/>
<text text-anchor="middle" x="77" y="-119.5" font-family="Helvetica,sans-Serif" font-size="10.00">src/Browser/Fortuna/Fortuna.hh</text>
</g>
<!-- Node2 -->
<g id="node3" class="node"><title>Node2</title>
<a xlink:href="AbstractBrowser_8hh.html" target="_top" xlink:title="../AbstractBrowser.hh">
<polygon fill="white" stroke="black" points="63,-56.5 63,-75.5 175,-75.5 175,-56.5 63,-56.5"/>
<text text-anchor="middle" x="119" y="-63.5" font-family="Helvetica,sans-Serif" font-size="10.00">../AbstractBrowser.hh</text>
</a>
</g>
<!-- Node1&#45;&gt;Node2 -->
<g id="edge2" class="edge"><title>Node1&#45;&gt;Node2</title>
<path fill="none" stroke="midnightblue" d="M83.9354,-112.083C89.9292,-104.377 98.7518,-93.0333 106.048,-83.6531"/>
<polygon fill="midnightblue" stroke="midnightblue" points="108.817,-85.7934 112.194,-75.7511 103.291,-81.4958 108.817,-85.7934"/>
</g>
<!-- Node3 -->
<g id="node5" class="node"><title>Node3</title>
<polygon fill="white" stroke="#bfbfbf" points="13.5,-0.5 13.5,-19.5 68.5,-19.5 68.5,-0.5 13.5,-0.5"/>
<text text-anchor="middle" x="41" y="-7.5" font-family="Helvetica,sans-Serif" font-size="10.00">gtkmm.h</text>
</g>
<!-- Node1&#45;&gt;Node3 -->
<g id="edge8" class="edge"><title>Node1&#45;&gt;Node3</title>
<path fill="none" stroke="midnightblue" d="M71.6694,-112.355C66.4453,-103.522 58.6146,-89.258 54,-76 48.7334,-60.8688 45.3503,-42.9716 43.3597,-29.7919"/>
<polygon fill="midnightblue" stroke="midnightblue" points="46.7894,-29.0405 41.9566,-19.6121 39.8549,-29.9964 46.7894,-29.0405"/>
</g>
<!-- Node2&#45;&gt;Node3 -->
<g id="edge4" class="edge"><title>Node2&#45;&gt;Node3</title>
<path fill="none" stroke="midnightblue" d="M106.468,-56.324C94.4141,-47.979 75.9732,-35.2122 61.7313,-25.3524"/>
<polygon fill="midnightblue" stroke="midnightblue" points="63.7151,-22.469 53.5009,-19.6545 59.7306,-28.2243 63.7151,-22.469"/>
</g>
<!-- Node4 -->
<g id="node7" class="node"><title>Node4</title>
<polygon fill="white" stroke="#bfbfbf" points="92,-0.5 92,-19.5 146,-19.5 146,-0.5 92,-0.5"/>
<text text-anchor="middle" x="119" y="-7.5" font-family="Helvetica,sans-Serif" font-size="10.00">iostream</text>
</g>
<!-- Node2&#45;&gt;Node4 -->
<g id="edge6" class="edge"><title>Node2&#45;&gt;Node4</title>
<path fill="none" stroke="midnightblue" d="M119,-56.083C119,-49.0059 119,-38.8611 119,-29.9865"/>
<polygon fill="midnightblue" stroke="midnightblue" points="122.5,-29.751 119,-19.7511 115.5,-29.7511 122.5,-29.751"/>
</g>
</g>
</svg>
