<?xml version="1.0" encoding="UTF-8" standalone="no"?>
<!DOCTYPE svg PUBLIC "-//W3C//DTD SVG 1.1//EN"
 "http://www.w3.org/Graphics/SVG/1.1/DTD/svg11.dtd">
<!-- Generated by graphviz version 2.28.0 (20111204.1018)
 -->
<!-- Title: G Pages: 1 -->
<svg width="322pt" height="196pt"
 viewBox="0.00 0.00 322.00 196.00" xmlns="http://www.w3.org/2000/svg" xmlns:xlink="http://www.w3.org/1999/xlink">
<g id="graph1" class="graph" transform="scale(1 1) rotate(0) translate(4 192)">
<title>G</title>
<polygon fill="white" stroke="white" points="-4,5 -4,-192 319,-192 319,5 -4,5"/>
<!-- Node1 -->
<g id="node1" class="node"><title>Node1</title>
<polygon fill="#bfbfbf" stroke="black" points="40,-168.5 40,-187.5 152,-187.5 152,-168.5 40,-168.5"/>
<text text-anchor="middle" x="96" y="-175.5" font-family="Helvetica,sans-Serif" font-size="10.00">src/Config/Handler.hh</text>
</g>
<!-- Node2 -->
<g id="node3" class="node"><title>Node2</title>
<polygon fill="white" stroke="#bfbfbf" points="0,-112.5 0,-131.5 40,-131.5 40,-112.5 0,-112.5"/>
<text text-anchor="middle" x="20" y="-119.5" font-family="Helvetica,sans-Serif" font-size="10.00">glib.h</text>
</g>
<!-- Node1&#45;&gt;Node2 -->
<g id="edge2" class="edge"><title>Node1&#45;&gt;Node2</title>
<path fill="none" stroke="midnightblue" d="M83.7893,-168.324C72.2241,-160.107 54.6246,-147.602 40.8393,-137.807"/>
<polygon fill="midnightblue" stroke="midnightblue" points="42.612,-134.773 32.4329,-131.834 38.5575,-140.479 42.612,-134.773"/>
</g>
<!-- Node3 -->
<g id="node5" class="node"><title>Node3</title>
<polygon fill="white" stroke="#bfbfbf" points="8,-56.5 8,-75.5 88,-75.5 88,-56.5 8,-56.5"/>
<text text-anchor="middle" x="48" y="-63.5" font-family="Helvetica,sans-Serif" font-size="10.00">libxml/parser.h</text>
</g>
<!-- Node1&#45;&gt;Node3 -->
<g id="edge4" class="edge"><title>Node1&#45;&gt;Node3</title>
<path fill="none" stroke="midnightblue" d="M92.2335,-168.368C84.4173,-150.456 66.2938,-108.923 55.8319,-84.9482"/>
<polygon fill="midnightblue" stroke="midnightblue" points="58.9564,-83.357 51.749,-75.5914 52.5406,-86.1566 58.9564,-83.357"/>
</g>
<!-- Node4 -->
<g id="node7" class="node"><title>Node4</title>
<a xlink:href="Model_8hh.html" target="_top" xlink:title="Model.hh">
<polygon fill="white" stroke="black" points="96,-112.5 96,-131.5 152,-131.5 152,-112.5 96,-112.5"/>
<text text-anchor="middle" x="124" y="-119.5" font-family="Helvetica,sans-Serif" font-size="10.00">Model.hh</text>
</a>
</g>
<!-- Node1&#45;&gt;Node4 -->
<g id="edge6" class="edge"><title>Node1&#45;&gt;Node4</title>
<path fill="none" stroke="midnightblue" d="M100.624,-168.083C104.456,-160.691 110.024,-149.953 114.765,-140.811"/>
<polygon fill="midnightblue" stroke="midnightblue" points="117.966,-142.24 119.462,-131.751 111.752,-139.018 117.966,-142.24"/>
</g>
<!-- Node9 -->
<g id="node18" class="node"><title>Node9</title>
<a xlink:href="Singleton_8hh.html" target="_top" xlink:title="../Utils/Singleton.hh">
<polygon fill="white" stroke="black" points="170.5,-112.5 170.5,-131.5 273.5,-131.5 273.5,-112.5 170.5,-112.5"/>
<text text-anchor="middle" x="222" y="-119.5" font-family="Helvetica,sans-Serif" font-size="10.00">../Utils/Singleton.hh</text>
</a>
</g>
<!-- Node1&#45;&gt;Node9 -->
<g id="edge18" class="edge"><title>Node1&#45;&gt;Node9</title>
<path fill="none" stroke="midnightblue" d="M115.965,-168.444C136.609,-159.596 169.063,-145.687 192.632,-135.586"/>
<polygon fill="midnightblue" stroke="midnightblue" points="194.316,-138.673 202.128,-131.516 191.558,-132.239 194.316,-138.673"/>
</g>
<!-- Node4&#45;&gt;Node3 -->
<g id="edge8" class="edge"><title>Node4&#45;&gt;Node3</title>
<path fill="none" stroke="midnightblue" d="M111.789,-112.324C100.224,-104.107 82.6246,-91.6017 68.8393,-81.8069"/>
<polygon fill="midnightblue" stroke="midnightblue" points="70.612,-78.7729 60.4329,-75.8339 66.5575,-84.4791 70.612,-78.7729"/>
</g>
<!-- Node5 -->
<g id="node10" class="node"><title>Node5</title>
<polygon fill="white" stroke="#bfbfbf" points="106,-56.5 106,-75.5 184,-75.5 184,-56.5 106,-56.5"/>
<text text-anchor="middle" x="145" y="-63.5" font-family="Helvetica,sans-Serif" font-size="10.00">./defaultcfg.inl</text>
</g>
<!-- Node4&#45;&gt;Node5 -->
<g id="edge10" class="edge"><title>Node4&#45;&gt;Node5</title>
<path fill="none" stroke="midnightblue" d="M127.468,-112.083C130.312,-104.77 134.429,-94.1814 137.96,-85.1034"/>
<polygon fill="midnightblue" stroke="midnightblue" points="141.234,-86.3397 141.597,-75.7511 134.71,-83.8025 141.234,-86.3397"/>
</g>
<!-- Node6 -->
<g id="node12" class="node"><title>Node6</title>
<a xlink:href="Path_8hh.html" target="_top" xlink:title="../Init/Path.hh">
<polygon fill="white" stroke="black" points="202,-56.5 202,-75.5 278,-75.5 278,-56.5 202,-56.5"/>
<text text-anchor="middle" x="240" y="-63.5" font-family="Helvetica,sans-Serif" font-size="10.00">../Init/Path.hh</text>
</a>
</g>
<!-- Node4&#45;&gt;Node6 -->
<g id="edge12" class="edge"><title>Node4&#45;&gt;Node6</title>
<path fill="none" stroke="midnightblue" d="M142.381,-112.444C161.216,-103.675 190.731,-89.9355 212.379,-79.8579"/>
<polygon fill="midnightblue" stroke="midnightblue" points="214.117,-82.9098 221.705,-75.5164 211.162,-76.5637 214.117,-82.9098"/>
</g>
<!-- Node7 -->
<g id="node14" class="node"><title>Node7</title>
<polygon fill="white" stroke="#bfbfbf" points="171,-0.5 171,-19.5 227,-19.5 227,-0.5 171,-0.5"/>
<text text-anchor="middle" x="199" y="-7.5" font-family="Helvetica,sans-Serif" font-size="10.00">glibmm.h</text>
</g>
<!-- Node6&#45;&gt;Node7 -->
<g id="edge14" class="edge"><title>Node6&#45;&gt;Node7</title>
<path fill="none" stroke="midnightblue" d="M233.23,-56.083C227.438,-48.4554 218.942,-37.2645 211.862,-27.9408"/>
<polygon fill="midnightblue" stroke="midnightblue" points="214.479,-25.5991 205.644,-19.7511 208.904,-29.8321 214.479,-25.5991"/>
</g>
<!-- Node8 -->
<g id="node16" class="node"><title>Node8</title>
<polygon fill="white" stroke="#bfbfbf" points="245.5,-0.5 245.5,-19.5 314.5,-19.5 314.5,-0.5 245.5,-0.5"/>
<text text-anchor="middle" x="280" y="-7.5" font-family="Helvetica,sans-Serif" font-size="10.00">glib/gstdio.h</text>
</g>
<!-- Node6&#45;&gt;Node8 -->
<g id="edge16" class="edge"><title>Node6&#45;&gt;Node8</title>
<path fill="none" stroke="midnightblue" d="M246.605,-56.083C252.255,-48.4554 260.545,-37.2645 267.451,-27.9408"/>
<polygon fill="midnightblue" stroke="midnightblue" points="270.378,-29.87 273.518,-19.7511 264.753,-25.7034 270.378,-29.87"/>
</g>
</g>
</svg>
