<?xml version="1.0" encoding="UTF-8" standalone="no"?>
<!DOCTYPE svg PUBLIC "-//W3C//DTD SVG 1.1//EN"
 "http://www.w3.org/Graphics/SVG/1.1/DTD/svg11.dtd">
<!-- Generated by graphviz version 2.28.0 (20120217.0315)
 -->
<!-- Title: G Pages: 1 -->
<svg width="304pt" height="140pt"
 viewBox="0.00 0.00 303.66 140.00" xmlns="http://www.w3.org/2000/svg" xmlns:xlink="http://www.w3.org/1999/xlink">
<g id="graph1" class="graph" transform="scale(1 1) rotate(0) translate(4 136)">
<title>G</title>
<polygon fill="white" stroke="white" points="-4,5 -4,-136 300.665,-136 300.665,5 -4,5"/>
<!-- Node1 -->
<g id="node1" class="node"><title>Node1</title>
<polygon fill="#bfbfbf" stroke="black" points="45.6649,-112.5 45.6649,-131.5 157.665,-131.5 157.665,-112.5 45.6649,-112.5"/>
<text text-anchor="middle" x="101.665" y="-119.5" font-family="Helvetica,sans-Serif" font-size="10.00">src/Config/Handler.hh</text>
</g>
<!-- Node2 -->
<g id="node3" class="node"><title>Node2</title>
<polygon fill="white" stroke="#bfbfbf" points="24.6649,-0.5 24.6649,-19.5 104.665,-19.5 104.665,-0.5 24.6649,-0.5"/>
<text text-anchor="middle" x="64.6649" y="-7.5" font-family="Helvetica,sans-Serif" font-size="10.00">libxml/parser.h</text>
</g>
<!-- Node1&#45;&gt;Node2 -->
<g id="edge2" class="edge"><title>Node1&#45;&gt;Node2</title>
<path fill="none" stroke="midnightblue" d="M58.5977,-112.486C38.2686,-106.074 15.842,-94.9911 3.66489,-76 -9.12621,-56.0514 15.2089,-36.7116 36.833,-24.3894"/>
<polygon fill="midnightblue" stroke="midnightblue" points="38.6691,-27.3761 45.8183,-19.5568 35.3534,-21.2111 38.6691,-27.3761"/>
</g>
<!-- Node3 -->
<g id="node5" class="node"><title>Node3</title>
<polygon fill="white" stroke="#bfbfbf" points="12.1649,-56.5 12.1649,-75.5 101.165,-75.5 101.165,-56.5 12.1649,-56.5"/>
<text text-anchor="middle" x="56.6649" y="-63.5" font-family="Helvetica,sans-Serif" font-size="10.00">glibmm/ustring.h</text>
</g>
<!-- Node1&#45;&gt;Node3 -->
<g id="edge4" class="edge"><title>Node1&#45;&gt;Node3</title>
<path fill="none" stroke="midnightblue" d="M94.2341,-112.083C87.8122,-104.377 78.3593,-93.0333 70.5424,-83.6531"/>
<polygon fill="midnightblue" stroke="midnightblue" points="73.0481,-81.1927 63.9575,-75.7511 67.6705,-85.674 73.0481,-81.1927"/>
</g>
<!-- Node4 -->
<g id="node7" class="node"><title>Node4</title>
<a xlink:href="Model_8hh.html" target="_top" xlink:title="Model.hh">
<polygon fill="white" stroke="black" points="118.665,-56.5 118.665,-75.5 174.665,-75.5 174.665,-56.5 118.665,-56.5"/>
<text text-anchor="middle" x="146.665" y="-63.5" font-family="Helvetica,sans-Serif" font-size="10.00">Model.hh</text>
</a>
</g>
<!-- Node1&#45;&gt;Node4 -->
<g id="edge6" class="edge"><title>Node1&#45;&gt;Node4</title>
<path fill="none" stroke="midnightblue" d="M109.096,-112.083C115.518,-104.377 124.97,-93.0333 132.787,-83.6531"/>
<polygon fill="midnightblue" stroke="midnightblue" points="135.659,-85.674 139.372,-75.7511 130.282,-81.1927 135.659,-85.674"/>
</g>
<!-- Node5 -->
<g id="node10" class="node"><title>Node5</title>
<a xlink:href="Singleton_8hh.html" target="_top" xlink:title="../Utils/Singleton.hh">
<polygon fill="white" stroke="black" points="193.165,-56.5 193.165,-75.5 296.165,-75.5 296.165,-56.5 193.165,-56.5"/>
<text text-anchor="middle" x="244.665" y="-63.5" font-family="Helvetica,sans-Serif" font-size="10.00">../Utils/Singleton.hh</text>
</a>
</g>
<!-- Node1&#45;&gt;Node5 -->
<g id="edge10" class="edge"><title>Node1&#45;&gt;Node5</title>
<path fill="none" stroke="midnightblue" d="M124.324,-112.444C148.067,-103.478 185.574,-89.314 212.403,-79.1827"/>
<polygon fill="midnightblue" stroke="midnightblue" points="213.993,-82.3235 222.112,-75.5164 211.52,-75.7749 213.993,-82.3235"/>
</g>
<!-- Node4&#45;&gt;Node2 -->
<g id="edge8" class="edge"><title>Node4&#45;&gt;Node2</title>
<path fill="none" stroke="midnightblue" d="M133.49,-56.324C120.818,-47.979 101.432,-35.2122 86.4593,-25.3524"/>
<polygon fill="midnightblue" stroke="midnightblue" points="88.0836,-22.2313 77.8069,-19.6545 84.2337,-28.0776 88.0836,-22.2313"/>
</g>
</g>
</svg>
