<?xml version="1.0" encoding="UTF-8" standalone="no"?>
<!DOCTYPE svg PUBLIC "-//W3C//DTD SVG 1.1//EN"
 "http://www.w3.org/Graphics/SVG/1.1/DTD/svg11.dtd">
<!-- Generated by graphviz version 2.28.0 (20120217.0315)
 -->
<!-- Title: G Pages: 1 -->
<svg width="899pt" height="140pt"
 viewBox="0.00 0.00 899.00 140.00" xmlns="http://www.w3.org/2000/svg" xmlns:xlink="http://www.w3.org/1999/xlink">
<g id="graph1" class="graph" transform="scale(1 1) rotate(0) translate(4 136)">
<title>G</title>
<polygon fill="white" stroke="white" points="-4,5 -4,-136 896,-136 896,5 -4,5"/>
<!-- Node1 -->
<g id="node1" class="node"><title>Node1</title>
<polygon fill="#bfbfbf" stroke="black" points="355,-112.5 355,-131.5 543,-131.5 543,-112.5 355,-112.5"/>
<text text-anchor="middle" x="449" y="-119.5" font-family="Helvetica,sans-Serif" font-size="10.00">src/Browser/NowPlaying/ImageWall.hh</text>
</g>
<!-- Node2 -->
<g id="node3" class="node"><title>Node2</title>
<a xlink:href="ArtistPhotosMgr_8hh.html" target="_top" xlink:title="src/Browser/NowPlaying/ArtistPhotosMgr.hh">
<polygon fill="white" stroke="black" points="0,-56.5 0,-75.5 212,-75.5 212,-56.5 0,-56.5"/>
<text text-anchor="middle" x="106" y="-63.5" font-family="Helvetica,sans-Serif" font-size="10.00">src/Browser/NowPlaying/ArtistPhotosMgr.hh</text>
</a>
</g>
<!-- Node1&#45;&gt;Node2 -->
<g id="edge2" class="edge"><title>Node1&#45;&gt;Node2</title>
<path fill="none" stroke="midnightblue" d="M384.552,-110.854C319.746,-100.651 220.954,-85.0977 160.095,-75.5164"/>
<polygon fill="midnightblue" stroke="midnightblue" points="384.228,-114.346 394.651,-112.444 385.317,-107.431 384.228,-114.346"/>
</g>
<!-- Node4 -->
<g id="node7" class="node"><title>Node4</title>
<a xlink:href="OtherAlbumsMgr_8hh.html" target="_top" xlink:title="src/Browser/NowPlaying/OtherAlbumsMgr.hh">
<polygon fill="white" stroke="black" points="230.5,-56.5 230.5,-75.5 445.5,-75.5 445.5,-56.5 230.5,-56.5"/>
<text text-anchor="middle" x="338" y="-63.5" font-family="Helvetica,sans-Serif" font-size="10.00">src/Browser/NowPlaying/OtherAlbumsMgr.hh</text>
</a>
</g>
<!-- Node1&#45;&gt;Node4 -->
<g id="edge6" class="edge"><title>Node1&#45;&gt;Node4</title>
<path fill="none" stroke="midnightblue" d="M421.995,-107.862C401.412,-97.8492 373.655,-84.3458 355.79,-75.6545"/>
<polygon fill="midnightblue" stroke="midnightblue" points="420.642,-111.097 431.166,-112.324 423.705,-104.802 420.642,-111.097"/>
</g>
<!-- Node5 -->
<g id="node10" class="node"><title>Node5</title>
<a xlink:href="TracklistMgr_8hh.html" target="_top" xlink:title="src/Browser/NowPlaying/TracklistMgr.hh">
<polygon fill="white" stroke="black" points="463.5,-56.5 463.5,-75.5 658.5,-75.5 658.5,-56.5 463.5,-56.5"/>
<text text-anchor="middle" x="561" y="-63.5" font-family="Helvetica,sans-Serif" font-size="10.00">src/Browser/NowPlaying/TracklistMgr.hh</text>
</a>
</g>
<!-- Node1&#45;&gt;Node5 -->
<g id="edge10" class="edge"><title>Node1&#45;&gt;Node5</title>
<path fill="none" stroke="midnightblue" d="M476.249,-107.862C497.016,-97.8492 525.023,-84.3458 543.05,-75.6545"/>
<polygon fill="midnightblue" stroke="midnightblue" points="474.482,-104.828 466.995,-112.324 477.523,-111.134 474.482,-104.828"/>
</g>
<!-- Node6 -->
<g id="node13" class="node"><title>Node6</title>
<a xlink:href="RelatedLinksMgr_8hh.html" target="_top" xlink:title="src/Browser/NowPlaying/RelatedLinksMgr.hh">
<polygon fill="white" stroke="black" points="676.5,-56.5 676.5,-75.5 891.5,-75.5 891.5,-56.5 676.5,-56.5"/>
<text text-anchor="middle" x="784" y="-63.5" font-family="Helvetica,sans-Serif" font-size="10.00">src/Browser/NowPlaying/RelatedLinksMgr.hh</text>
</a>
</g>
<!-- Node1&#45;&gt;Node6 -->
<g id="edge14" class="edge"><title>Node1&#45;&gt;Node6</title>
<path fill="none" stroke="midnightblue" d="M512.336,-110.791C575.636,-100.587 671.849,-85.078 731.167,-75.5164"/>
<polygon fill="midnightblue" stroke="midnightblue" points="511.397,-107.397 502.082,-112.444 512.511,-114.307 511.397,-107.397"/>
</g>
<!-- Node3 -->
<g id="node5" class="node"><title>Node3</title>
<a xlink:href="NowPlaying_8hh.html" target="_top" xlink:title="src/Browser/NowPlaying/NowPlaying.hh">
<polygon fill="white" stroke="black" points="352,-0.5 352,-19.5 546,-19.5 546,-0.5 352,-0.5"/>
<text text-anchor="middle" x="449" y="-7.5" font-family="Helvetica,sans-Serif" font-size="10.00">src/Browser/NowPlaying/NowPlaying.hh</text>
</a>
</g>
<!-- Node2&#45;&gt;Node3 -->
<g id="edge4" class="edge"><title>Node2&#45;&gt;Node3</title>
<path fill="none" stroke="midnightblue" d="M170.448,-54.8537C235.254,-44.6509 334.046,-29.0977 394.905,-19.5164"/>
<polygon fill="midnightblue" stroke="midnightblue" points="169.683,-51.4309 160.349,-56.4435 170.772,-58.3457 169.683,-51.4309"/>
</g>
<!-- Node4&#45;&gt;Node3 -->
<g id="edge8" class="edge"><title>Node4&#45;&gt;Node3</title>
<path fill="none" stroke="midnightblue" d="M365.005,-51.8622C385.588,-41.8492 413.345,-28.3458 431.21,-19.6545"/>
<polygon fill="midnightblue" stroke="midnightblue" points="363.295,-48.8019 355.834,-56.324 366.358,-55.0966 363.295,-48.8019"/>
</g>
<!-- Node5&#45;&gt;Node3 -->
<g id="edge12" class="edge"><title>Node5&#45;&gt;Node3</title>
<path fill="none" stroke="midnightblue" d="M533.751,-51.8622C512.984,-41.8492 484.977,-28.3458 466.95,-19.6545"/>
<polygon fill="midnightblue" stroke="midnightblue" points="532.477,-55.1336 543.005,-56.324 535.518,-48.8282 532.477,-55.1336"/>
</g>
<!-- Node6&#45;&gt;Node3 -->
<g id="edge16" class="edge"><title>Node6&#45;&gt;Node3</title>
<path fill="none" stroke="midnightblue" d="M720.664,-54.7907C657.364,-44.587 561.151,-29.078 501.833,-19.5164"/>
<polygon fill="midnightblue" stroke="midnightblue" points="720.489,-58.3075 730.918,-56.4435 721.603,-51.3967 720.489,-58.3075"/>
</g>
</g>
</svg>
