<?xml version="1.0" encoding="UTF-8" standalone="no"?>
<!DOCTYPE svg PUBLIC "-//W3C//DTD SVG 1.1//EN"
 "http://www.w3.org/Graphics/SVG/1.1/DTD/svg11.dtd">
<!-- Generated by graphviz version 2.28.0 (20111204.1018)
 -->
<!-- Title: G Pages: 1 -->
<svg width="190pt" height="104pt"
 viewBox="0.00 0.00 190.00 104.00" xmlns="http://www.w3.org/2000/svg" xmlns:xlink="http://www.w3.org/1999/xlink">
<g id="graph1" class="graph" transform="scale(1 1) rotate(0) translate(4 100)">
<title>G</title>
<polygon fill="white" stroke="white" points="-4,5 -4,-100 187,-100 187,5 -4,5"/>
<!-- Node1 -->
<g id="node1" class="node"><title>Node1</title>
<a xlink:href="classCxxTest_1_1TestSuite.html" target="_top" xlink:title="TestSuite">
<polygon fill="white" stroke="black" points="0.5,-38.5 0.5,-57.5 59.5,-57.5 59.5,-38.5 0.5,-38.5"/>
<text text-anchor="middle" x="30" y="-45.5" font-family="Helvetica,sans-Serif" font-size="10.00">TestSuite</text>
</a>
</g>
<!-- Node2 -->
<g id="node3" class="node"><title>Node2</title>
<a xlink:href="classLogTestSuite.html" target="_top" xlink:title="LogTestSuite">
<polygon fill="white" stroke="black" points="102,-76.5 102,-95.5 176,-95.5 176,-76.5 102,-76.5"/>
<text text-anchor="middle" x="139" y="-83.5" font-family="Helvetica,sans-Serif" font-size="10.00">LogTestSuite</text>
</a>
</g>
<!-- Node1&#45;&gt;Node2 -->
<g id="edge2" class="edge"><title>Node1&#45;&gt;Node2</title>
<path fill="none" stroke="midnightblue" d="M67.5258,-60.9718C81.7812,-66.0344 97.8302,-71.7341 111.008,-76.4141"/>
<polygon fill="midnightblue" stroke="midnightblue" points="68.5953,-57.6375 58.0006,-57.589 66.2527,-64.2339 68.5953,-57.6375"/>
</g>
<!-- Node3 -->
<g id="node5" class="node"><title>Node3</title>
<a xlink:href="classNotifyTestSuite.html" target="_top" xlink:title="NotifyTestSuite">
<polygon fill="white" stroke="black" points="96.5,-38.5 96.5,-57.5 181.5,-57.5 181.5,-38.5 96.5,-38.5"/>
<text text-anchor="middle" x="139" y="-45.5" font-family="Helvetica,sans-Serif" font-size="10.00">NotifyTestSuite</text>
</a>
</g>
<!-- Node1&#45;&gt;Node3 -->
<g id="edge4" class="edge"><title>Node1&#45;&gt;Node3</title>
<path fill="none" stroke="midnightblue" d="M69.8505,-48C78.4717,-48 87.6428,-48 96.3701,-48"/>
<polygon fill="midnightblue" stroke="midnightblue" points="69.6741,-44.5001 59.674,-48 69.674,-51.5001 69.6741,-44.5001"/>
</g>
<!-- Node4 -->
<g id="node7" class="node"><title>Node4</title>
<a xlink:href="classUtilsTestSuite.html" target="_top" xlink:title="UtilsTestSuite">
<polygon fill="white" stroke="black" points="99.5,-0.5 99.5,-19.5 178.5,-19.5 178.5,-0.5 99.5,-0.5"/>
<text text-anchor="middle" x="139" y="-7.5" font-family="Helvetica,sans-Serif" font-size="10.00">UtilsTestSuite</text>
</a>
</g>
<!-- Node1&#45;&gt;Node4 -->
<g id="edge6" class="edge"><title>Node1&#45;&gt;Node4</title>
<path fill="none" stroke="midnightblue" d="M67.5258,-35.0282C81.7812,-29.9656 97.8302,-24.2659 111.008,-19.5859"/>
<polygon fill="midnightblue" stroke="midnightblue" points="66.2527,-31.7661 58.0006,-38.411 68.5953,-38.3625 66.2527,-31.7661"/>
</g>
</g>
</svg>
