<?xml version="1.0" encoding="UTF-8" standalone="no"?>
<!DOCTYPE svg PUBLIC "-//W3C//DTD SVG 1.1//EN"
 "http://www.w3.org/Graphics/SVG/1.1/DTD/svg11.dtd">
<!-- Generated by graphviz version 2.28.0 (20111204.1018)
 -->
<!-- Title: G Pages: 1 -->
<svg width="344pt" height="1054pt"
 viewBox="0.00 0.00 344.00 1054.00" xmlns="http://www.w3.org/2000/svg" xmlns:xlink="http://www.w3.org/1999/xlink">
<g id="graph1" class="graph" transform="scale(1 1) rotate(0) translate(4 1050)">
<title>G</title>
<polygon fill="white" stroke="white" points="-4,5 -4,-1050 341,-1050 341,5 -4,5"/>
<!-- Node1 -->
<g id="node1" class="node"><title>Node1</title>
<a xlink:href="classAbstractBrowser.html" target="_top" xlink:title="Inherit from this class in order to be able to add the browser to the browserlist.">
<polygon fill="white" stroke="black" points="27.5,-931.5 27.5,-950.5 116.5,-950.5 116.5,-931.5 27.5,-931.5"/>
<text text-anchor="middle" x="72" y="-938.5" font-family="Helvetica,sans-Serif" font-size="10.00">AbstractBrowser</text>
</a>
</g>
<!-- Node2 -->
<g id="node3" class="node"><title>Node2</title>
<a xlink:href="classBrowser_1_1Database.html" target="_top" xlink:title="The Database Browser.">
<polygon fill="white" stroke="black" points="207.5,-874.5 207.5,-893.5 308.5,-893.5 308.5,-874.5 207.5,-874.5"/>
<text text-anchor="middle" x="258" y="-881.5" font-family="Helvetica,sans-Serif" font-size="10.00">Browser::Database</text>
</a>
</g>
<!-- Node1&#45;&gt;Node2 -->
<g id="edge2" class="edge"><title>Node1&#45;&gt;Node2</title>
<path fill="none" stroke="midnightblue" d="M107.237,-927.863C128.097,-920.104 155.388,-910.387 180,-903 191.342,-899.596 203.753,-896.335 215.235,-893.505"/>
<polygon fill="midnightblue" stroke="midnightblue" points="105.981,-924.596 97.8466,-931.385 108.439,-931.15 105.981,-924.596"/>
</g>
<!-- Node3 -->
<g id="node5" class="node"><title>Node3</title>
<a xlink:href="classBrowser_1_1Fortuna.html" target="_top" xlink:title="A little easteregg browser.">
<polygon fill="white" stroke="black" points="212,-988.5 212,-1007.5 304,-1007.5 304,-988.5 212,-988.5"/>
<text text-anchor="middle" x="258" y="-995.5" font-family="Helvetica,sans-Serif" font-size="10.00">Browser::Fortuna</text>
</a>
</g>
<!-- Node1&#45;&gt;Node3 -->
<g id="edge4" class="edge"><title>Node1&#45;&gt;Node3</title>
<path fill="none" stroke="midnightblue" d="M107.237,-954.137C128.097,-961.896 155.388,-971.613 180,-979 191.342,-982.404 203.753,-985.665 215.235,-988.495"/>
<polygon fill="midnightblue" stroke="midnightblue" points="108.439,-950.85 97.8466,-950.615 105.981,-957.404 108.439,-950.85"/>
</g>
<!-- Node4 -->
<g id="node7" class="node"><title>Node4</title>
<a xlink:href="classBrowser_1_1PlaylistManager.html" target="_top" xlink:title="Shows a list of stored playlists.">
<polygon fill="white" stroke="black" points="194,-912.5 194,-931.5 322,-931.5 322,-912.5 194,-912.5"/>
<text text-anchor="middle" x="258" y="-919.5" font-family="Helvetica,sans-Serif" font-size="10.00">Browser::PlaylistManager</text>
</a>
</g>
<!-- Node1&#45;&gt;Node4 -->
<g id="edge6" class="edge"><title>Node1&#45;&gt;Node4</title>
<path fill="none" stroke="midnightblue" d="M126.646,-935.46C147.683,-933.288 171.978,-930.779 193.853,-928.521"/>
<polygon fill="midnightblue" stroke="midnightblue" points="126.193,-931.989 116.605,-936.497 126.912,-938.952 126.193,-931.989"/>
</g>
<!-- Node5 -->
<g id="node9" class="node"><title>Node5</title>
<a xlink:href="classBrowser_1_1Queue.html" target="_top" xlink:title="Shows a list of songs in the current playlist.">
<polygon fill="white" stroke="black" points="214.5,-836.5 214.5,-855.5 301.5,-855.5 301.5,-836.5 214.5,-836.5"/>
<text text-anchor="middle" x="258" y="-843.5" font-family="Helvetica,sans-Serif" font-size="10.00">Browser::Queue</text>
</a>
</g>
<!-- Node1&#45;&gt;Node5 -->
<g id="edge8" class="edge"><title>Node1&#45;&gt;Node5</title>
<path fill="none" stroke="midnightblue" d="M91.5026,-924.522C111.828,-907.258 146.108,-880.534 180,-865 190.765,-860.066 202.986,-856.303 214.472,-853.481"/>
<polygon fill="midnightblue" stroke="midnightblue" points="88.9614,-922.093 83.6877,-931.282 93.5407,-927.387 88.9614,-922.093"/>
</g>
<!-- Node6 -->
<g id="node11" class="node"><title>Node6</title>
<a xlink:href="classBrowser_1_1Settings.html" target="_top" xlink:title="The Settingsbrowser shown in the sidebar.">
<polygon fill="white" stroke="black" points="210.5,-950.5 210.5,-969.5 305.5,-969.5 305.5,-950.5 210.5,-950.5"/>
<text text-anchor="middle" x="258" y="-957.5" font-family="Helvetica,sans-Serif" font-size="10.00">Browser::Settings</text>
</a>
</g>
<!-- Node1&#45;&gt;Node6 -->
<g id="edge10" class="edge"><title>Node1&#45;&gt;Node6</title>
<path fill="none" stroke="midnightblue" d="M126.868,-946.562C153.387,-949.301 185.042,-952.57 210.491,-955.197"/>
<polygon fill="midnightblue" stroke="midnightblue" points="126.912,-943.048 116.605,-945.503 126.193,-950.011 126.912,-943.048"/>
</g>
<!-- Node7 -->
<g id="node13" class="node"><title>Node7</title>
<a xlink:href="classBrowser_1_1StatBrowser.html" target="_top" xlink:title="A simple representation of the current MPD::Statistics.">
<polygon fill="white" stroke="black" points="201.5,-1026.5 201.5,-1045.5 314.5,-1045.5 314.5,-1026.5 201.5,-1026.5"/>
<text text-anchor="middle" x="258" y="-1033.5" font-family="Helvetica,sans-Serif" font-size="10.00">Browser::StatBrowser</text>
</a>
</g>
<!-- Node1&#45;&gt;Node7 -->
<g id="edge12" class="edge"><title>Node1&#45;&gt;Node7</title>
<path fill="none" stroke="midnightblue" d="M91.5026,-957.478C111.828,-974.742 146.108,-1001.47 180,-1017 188.261,-1020.79 197.381,-1023.88 206.367,-1026.39"/>
<polygon fill="midnightblue" stroke="midnightblue" points="93.5407,-954.613 83.6877,-950.718 88.9614,-959.907 93.5407,-954.613"/>
</g>
<!-- Node8 -->
<g id="node14" class="node"><title>Node8</title>
<a xlink:href="classMPD_1_1AbstractClientUser.html" target="_top" xlink:title="MPD::AbstractClientUser">
<polygon fill="white" stroke="black" points="8,-570.5 8,-589.5 136,-589.5 136,-570.5 8,-570.5"/>
<text text-anchor="middle" x="72" y="-577.5" font-family="Helvetica,sans-Serif" font-size="10.00">MPD::AbstractClientUser</text>
</a>
</g>
<!-- Node8&#45;&gt;Node2 -->
<g id="edge14" class="edge"><title>Node8&#45;&gt;Node2</title>
<path fill="none" stroke="midnightblue" d="M79.0782,-599.26C98.482,-660.253 158.902,-846.241 180,-865 187.614,-871.77 197.261,-876.214 207.128,-879.111"/>
<polygon fill="midnightblue" stroke="midnightblue" points="82.4024,-598.164 76.0441,-589.689 75.7297,-600.279 82.4024,-598.164"/>
</g>
<!-- Node8&#45;&gt;Node4 -->
<g id="edge20" class="edge"><title>Node8&#45;&gt;Node4</title>
<path fill="none" stroke="midnightblue" d="M79.7726,-599.475C92.569,-636.371 121.072,-719.036 144,-789 160.546,-839.491 141.247,-866.65 180,-903 184.117,-906.862 188.891,-909.975 194.005,-912.478"/>
<polygon fill="midnightblue" stroke="midnightblue" points="82.9159,-597.857 76.3291,-589.558 76.3032,-600.153 82.9159,-597.857"/>
</g>
<!-- Node8&#45;&gt;Node5 -->
<g id="edge22" class="edge"><title>Node8&#45;&gt;Node5</title>
<path fill="none" stroke="midnightblue" d="M75.5685,-599.653C82.7782,-646.581 107.64,-765.809 180,-827 189.567,-835.091 202.063,-839.83 214.195,-842.579"/>
<polygon fill="midnightblue" stroke="midnightblue" points="79.0102,-598.995 74.1284,-589.592 72.0808,-599.987 79.0102,-598.995"/>
</g>
<!-- Node9 -->
<g id="node17" class="node"><title>Node9</title>
<a xlink:href="classBrowser_1_1DatabaseCache.html" target="_top" xlink:title="Acts as a Proxy betwenn Browser::Database and MPD::Client, but caches requested data.">
<polygon fill="white" stroke="black" points="193.5,-342.5 193.5,-361.5 322.5,-361.5 322.5,-342.5 193.5,-342.5"/>
<text text-anchor="middle" x="258" y="-349.5" font-family="Helvetica,sans-Serif" font-size="10.00">Browser::DatabaseCache</text>
</a>
</g>
<!-- Node8&#45;&gt;Node9 -->
<g id="edge16" class="edge"><title>Node8&#45;&gt;Node9</title>
<path fill="none" stroke="midnightblue" d="M77.2661,-560.304C87.3623,-518.591 116.77,-421.071 180,-371 184.857,-367.153 190.386,-364.072 196.201,-361.606"/>
<polygon fill="midnightblue" stroke="midnightblue" points="73.7998,-559.76 74.9649,-570.29 80.621,-561.332 73.7998,-559.76"/>
</g>
<!-- Node10 -->
<g id="node19" class="node"><title>Node10</title>
<a xlink:href="classBrowser_1_1PlaylistAddDialog.html" target="_top" xlink:title="Shows a simple dialog when a new playlist needs to be saved.">
<polygon fill="white" stroke="black" points="190,-380.5 190,-399.5 326,-399.5 326,-380.5 190,-380.5"/>
<text text-anchor="middle" x="258" y="-387.5" font-family="Helvetica,sans-Serif" font-size="10.00">Browser::PlaylistAddDialog</text>
</a>
</g>
<!-- Node8&#45;&gt;Node10 -->
<g id="edge18" class="edge"><title>Node8&#45;&gt;Node10</title>
<path fill="none" stroke="midnightblue" d="M79.4824,-560.746C92.5407,-525.007 125.507,-448.465 180,-409 185.353,-405.123 191.405,-402.033 197.707,-399.569"/>
<polygon fill="midnightblue" stroke="midnightblue" points="76.0885,-559.846 76.0672,-570.441 82.6909,-562.172 76.0885,-559.846"/>
</g>
<!-- Node11 -->
<g id="node23" class="node"><title>Node11</title>
<a xlink:href="classBrowser_1_1QueueMerger.html" target="_top" xlink:title="This class manages the updating and merging of the Queue.">
<polygon fill="white" stroke="black" points="199.5,-798.5 199.5,-817.5 316.5,-817.5 316.5,-798.5 199.5,-798.5"/>
<text text-anchor="middle" x="258" y="-805.5" font-family="Helvetica,sans-Serif" font-size="10.00">Browser::QueueMerger</text>
</a>
</g>
<!-- Node8&#45;&gt;Node11 -->
<g id="edge24" class="edge"><title>Node8&#45;&gt;Node11</title>
<path fill="none" stroke="midnightblue" d="M77.2661,-599.696C87.3623,-641.409 116.77,-738.929 180,-789 185.721,-793.53 192.374,-796.999 199.327,-799.652"/>
<polygon fill="midnightblue" stroke="midnightblue" points="80.621,-598.668 74.9649,-589.71 73.7998,-600.24 80.621,-598.668"/>
</g>
<!-- Node12 -->
<g id="node25" class="node"><title>Node12</title>
<a xlink:href="classBrowser_1_1SettingsOutputs.html" target="_top" xlink:title="Outputlist Tab.">
<polygon fill="white" stroke="black" points="193.5,-760.5 193.5,-779.5 322.5,-779.5 322.5,-760.5 193.5,-760.5"/>
<text text-anchor="middle" x="258" y="-767.5" font-family="Helvetica,sans-Serif" font-size="10.00">Browser::SettingsOutputs</text>
</a>
</g>
<!-- Node8&#45;&gt;Node12 -->
<g id="edge26" class="edge"><title>Node8&#45;&gt;Node12</title>
<path fill="none" stroke="midnightblue" d="M79.4824,-599.254C92.5407,-634.993 125.507,-711.535 180,-751 185.353,-754.877 191.405,-757.967 197.707,-760.431"/>
<polygon fill="midnightblue" stroke="midnightblue" points="82.6909,-597.828 76.0672,-589.559 76.0885,-600.154 82.6909,-597.828"/>
</g>
<!-- Node13 -->
<g id="node27" class="node"><title>Node13</title>
<a xlink:href="classBrowser_1_1SettingsPlayback.html" target="_top" xlink:title="Playback Settings Tab.">
<polygon fill="white" stroke="black" points="190.5,-266.5 190.5,-285.5 325.5,-285.5 325.5,-266.5 190.5,-266.5"/>
<text text-anchor="middle" x="258" y="-273.5" font-family="Helvetica,sans-Serif" font-size="10.00">Browser::SettingsPlayback</text>
</a>
</g>
<!-- Node8&#45;&gt;Node13 -->
<g id="edge28" class="edge"><title>Node8&#45;&gt;Node13</title>
<path fill="none" stroke="midnightblue" d="M74.3135,-560.206C78.8581,-508.336 98.4824,-367.48 180,-295 184.322,-291.157 189.298,-288.064 194.598,-285.578"/>
<polygon fill="midnightblue" stroke="midnightblue" points="70.8083,-560.138 73.5209,-570.379 77.7871,-560.682 70.8083,-560.138"/>
</g>
<!-- Node14 -->
<g id="node29" class="node"><title>Node14</title>
<a xlink:href="classGManager_1_1BrowserList.html" target="_top" xlink:title="List of Browsers in sidebar.">
<polygon fill="white" stroke="black" points="198.5,-304.5 198.5,-323.5 317.5,-323.5 317.5,-304.5 198.5,-304.5"/>
<text text-anchor="middle" x="258" y="-311.5" font-family="Helvetica,sans-Serif" font-size="10.00">GManager::BrowserList</text>
</a>
</g>
<!-- Node8&#45;&gt;Node14 -->
<g id="edge30" class="edge"><title>Node8&#45;&gt;Node14</title>
<path fill="none" stroke="midnightblue" d="M75.5685,-560.347C82.7782,-513.419 107.64,-394.191 180,-333 185.362,-328.466 191.644,-324.984 198.265,-322.315"/>
<polygon fill="midnightblue" stroke="midnightblue" points="72.0808,-560.013 74.1284,-570.408 79.0102,-561.005 72.0808,-560.013"/>
</g>
<!-- Node15 -->
<g id="node31" class="node"><title>Node15</title>
<a xlink:href="classGManager_1_1Heartbeat.html" target="_top" xlink:title="A software clock that emits a signal every 500ms.">
<polygon fill="white" stroke="black" points="203,-722.5 203,-741.5 313,-741.5 313,-722.5 203,-722.5"/>
<text text-anchor="middle" x="258" y="-729.5" font-family="Helvetica,sans-Serif" font-size="10.00">GManager::Heartbeat</text>
</a>
</g>
<!-- Node8&#45;&gt;Node15 -->
<g id="edge32" class="edge"><title>Node8&#45;&gt;Node15</title>
<path fill="none" stroke="midnightblue" d="M82.884,-598.983C99.0986,-628.179 134.177,-683.783 180,-713 186.966,-717.442 194.896,-720.845 202.956,-723.452"/>
<polygon fill="midnightblue" stroke="midnightblue" points="85.7801,-596.979 77.9488,-589.844 79.6208,-600.306 85.7801,-596.979"/>
</g>
<!-- Node16 -->
<g id="node33" class="node"><title>Node16</title>
<a xlink:href="classGManager_1_1MenuList.html" target="_top" xlink:title="The Manager for the Topmenus.">
<polygon fill="white" stroke="black" points="204.5,-684.5 204.5,-703.5 311.5,-703.5 311.5,-684.5 204.5,-684.5"/>
<text text-anchor="middle" x="258" y="-691.5" font-family="Helvetica,sans-Serif" font-size="10.00">GManager::MenuList</text>
</a>
</g>
<!-- Node8&#45;&gt;Node16 -->
<g id="edge34" class="edge"><title>Node8&#45;&gt;Node16</title>
<path fill="none" stroke="midnightblue" d="M87.7354,-597.495C106.818,-619.006 142.147,-655.101 180,-675 187.556,-678.972 195.969,-682.135 204.38,-684.647"/>
<polygon fill="midnightblue" stroke="midnightblue" points="90.2271,-595.026 81.027,-589.772 84.9423,-599.617 90.2271,-595.026"/>
</g>
<!-- Node17 -->
<g id="node35" class="node"><title>Node17</title>
<a xlink:href="classGManager_1_1NotifyManager.html" target="_top" xlink:title="Manages Notifications that are triggered on player events.">
<polygon fill="white" stroke="black" points="192.5,-646.5 192.5,-665.5 323.5,-665.5 323.5,-646.5 192.5,-646.5"/>
<text text-anchor="middle" x="258" y="-653.5" font-family="Helvetica,sans-Serif" font-size="10.00">GManager::NotifyManager</text>
</a>
</g>
<!-- Node8&#45;&gt;Node17 -->
<g id="edge36" class="edge"><title>Node8&#45;&gt;Node17</title>
<path fill="none" stroke="midnightblue" d="M96.6526,-594.803C117.817,-607.506 150.036,-625.526 180,-637 189.644,-640.693 200.246,-643.853 210.417,-646.475"/>
<polygon fill="midnightblue" stroke="midnightblue" points="98.3882,-591.762 88.0264,-589.552 94.7483,-597.742 98.3882,-591.762"/>
</g>
<!-- Node18 -->
<g id="node37" class="node"><title>Node18</title>
<a xlink:href="classGManager_1_1PlaybackButtons.html" target="_top" xlink:title="Manages the Playbackbuttons.">
<polygon fill="white" stroke="black" points="187,-608.5 187,-627.5 329,-627.5 329,-608.5 187,-608.5"/>
<text text-anchor="middle" x="258" y="-615.5" font-family="Helvetica,sans-Serif" font-size="10.00">GManager::PlaybackButtons</text>
</a>
</g>
<!-- Node8&#45;&gt;Node18 -->
<g id="edge38" class="edge"><title>Node8&#45;&gt;Node18</title>
<path fill="none" stroke="midnightblue" d="M129.561,-591.681C155.654,-597.07 186.238,-603.386 210.903,-608.48"/>
<polygon fill="midnightblue" stroke="midnightblue" points="129.932,-588.184 119.431,-589.589 128.516,-595.039 129.932,-588.184"/>
</g>
<!-- Node19 -->
<g id="node39" class="node"><title>Node19</title>
<a xlink:href="classGManager_1_1Statusbar.html" target="_top" xlink:title="Manager for the statusbar.">
<polygon fill="white" stroke="black" points="203,-570.5 203,-589.5 313,-589.5 313,-570.5 203,-570.5"/>
<text text-anchor="middle" x="258" y="-577.5" font-family="Helvetica,sans-Serif" font-size="10.00">GManager::Statusbar</text>
</a>
</g>
<!-- Node8&#45;&gt;Node19 -->
<g id="edge40" class="edge"><title>Node8&#45;&gt;Node19</title>
<path fill="none" stroke="midnightblue" d="M146.149,-580C165.09,-580 185.144,-580 202.912,-580"/>
<polygon fill="midnightblue" stroke="midnightblue" points="146.065,-576.5 136.065,-580 146.065,-583.5 146.065,-576.5"/>
</g>
<!-- Node20 -->
<g id="node41" class="node"><title>Node20</title>
<a xlink:href="classGManager_1_1Statusicons.html" target="_top" xlink:title="Manager for the status icons in the down sidebar.">
<polygon fill="white" stroke="black" points="198.5,-532.5 198.5,-551.5 317.5,-551.5 317.5,-532.5 198.5,-532.5"/>
<text text-anchor="middle" x="258" y="-539.5" font-family="Helvetica,sans-Serif" font-size="10.00">GManager::Statusicons</text>
</a>
</g>
<!-- Node8&#45;&gt;Node20 -->
<g id="edge42" class="edge"><title>Node8&#45;&gt;Node20</title>
<path fill="none" stroke="midnightblue" d="M129.561,-568.319C155.654,-562.93 186.238,-556.614 210.903,-551.52"/>
<polygon fill="midnightblue" stroke="midnightblue" points="128.516,-564.961 119.431,-570.411 129.932,-571.816 128.516,-564.961"/>
</g>
<!-- Node21 -->
<g id="node43" class="node"><title>Node21</title>
<a xlink:href="classGManager_1_1Timeslide.html" target="_top" xlink:title="Manager for the Timeslide in the topbar.">
<polygon fill="white" stroke="black" points="203,-494.5 203,-513.5 313,-513.5 313,-494.5 203,-494.5"/>
<text text-anchor="middle" x="258" y="-501.5" font-family="Helvetica,sans-Serif" font-size="10.00">GManager::Timeslide</text>
</a>
</g>
<!-- Node8&#45;&gt;Node21 -->
<g id="edge44" class="edge"><title>Node8&#45;&gt;Node21</title>
<path fill="none" stroke="midnightblue" d="M96.6526,-565.197C117.817,-552.494 150.036,-534.474 180,-523 189.644,-519.307 200.246,-516.147 210.417,-513.525"/>
<polygon fill="midnightblue" stroke="midnightblue" points="94.7483,-562.258 88.0264,-570.448 98.3882,-568.238 94.7483,-562.258"/>
</g>
<!-- Node22 -->
<g id="node45" class="node"><title>Node22</title>
<a xlink:href="classGManager_1_1TitleLabel.html" target="_top" xlink:title="Updates the top titlelabel, and the down nextsong label in the sidebar.">
<polygon fill="white" stroke="black" points="203,-456.5 203,-475.5 313,-475.5 313,-456.5 203,-456.5"/>
<text text-anchor="middle" x="258" y="-463.5" font-family="Helvetica,sans-Serif" font-size="10.00">GManager::TitleLabel</text>
</a>
</g>
<!-- Node8&#45;&gt;Node22 -->
<g id="edge46" class="edge"><title>Node8&#45;&gt;Node22</title>
<path fill="none" stroke="midnightblue" d="M87.7354,-562.505C106.818,-540.994 142.147,-504.899 180,-485 187.313,-481.156 195.427,-478.07 203.566,-475.598"/>
<polygon fill="midnightblue" stroke="midnightblue" points="84.9423,-560.383 81.027,-570.228 90.2271,-564.974 84.9423,-560.383"/>
</g>
<!-- Node23 -->
<g id="node47" class="node"><title>Node23</title>
<a xlink:href="classGManager_1_1Trayicon.html" target="_top" xlink:title="Manager for the trayicon.">
<polygon fill="white" stroke="black" points="205.5,-114.5 205.5,-133.5 310.5,-133.5 310.5,-114.5 205.5,-114.5"/>
<text text-anchor="middle" x="258" y="-121.5" font-family="Helvetica,sans-Serif" font-size="10.00">GManager::Trayicon</text>
</a>
</g>
<!-- Node8&#45;&gt;Node23 -->
<g id="edge48" class="edge"><title>Node8&#45;&gt;Node23</title>
<path fill="none" stroke="midnightblue" d="M77.4953,-560.458C96.833,-476.55 172.309,-150.704 180,-143 186.906,-136.081 195.905,-131.539 205.303,-128.586"/>
<polygon fill="midnightblue" stroke="midnightblue" points="74.0746,-559.716 75.2413,-570.247 80.8961,-561.287 74.0746,-559.716"/>
</g>
<!-- Node24 -->
<g id="node49" class="node"><title>Node24</title>
<a xlink:href="classGManager_1_1Volumebutton.html" target="_top" xlink:title="Manages the Volumebutton.">
<polygon fill="white" stroke="black" points="194,-418.5 194,-437.5 322,-437.5 322,-418.5 194,-418.5"/>
<text text-anchor="middle" x="258" y="-425.5" font-family="Helvetica,sans-Serif" font-size="10.00">GManager::Volumebutton</text>
</a>
</g>
<!-- Node8&#45;&gt;Node24 -->
<g id="edge50" class="edge"><title>Node8&#45;&gt;Node24</title>
<path fill="none" stroke="midnightblue" d="M82.884,-561.017C99.0986,-531.821 134.177,-476.217 180,-447 186.037,-443.151 192.799,-440.081 199.741,-437.634"/>
<polygon fill="midnightblue" stroke="midnightblue" points="79.6208,-559.694 77.9488,-570.156 85.7801,-563.021 79.6208,-559.694"/>
</g>
<!-- Node25 -->
<g id="node50" class="node"><title>Node25</title>
<a xlink:href="classMPD_1_1AbstractItemGenerator.html" target="_top" xlink:title="MPD::AbstractItemGenerator">
<polygon fill="white" stroke="black" points="0,-209.5 0,-228.5 144,-228.5 144,-209.5 0,-209.5"/>
<text text-anchor="middle" x="72" y="-216.5" font-family="Helvetica,sans-Serif" font-size="10.00">MPD::AbstractItemGenerator</text>
</a>
</g>
<!-- Node25&#45;&gt;Node9 -->
<g id="edge52" class="edge"><title>Node25&#45;&gt;Node9</title>
<path fill="none" stroke="midnightblue" d="M138.489,-233.677C140.424,-234.998 142.27,-236.436 144,-238 177.495,-268.279 146.211,-303.05 180,-333 184.328,-336.836 189.308,-339.925 194.61,-342.408"/>
<polygon fill="midnightblue" stroke="midnightblue" points="139.936,-230.474 129.509,-228.597 136.49,-236.567 139.936,-230.474"/>
</g>
<!-- Node26 -->
<g id="node53" class="node"><title>Node26</title>
<a xlink:href="classMPD_1_1Client.html" target="_top" xlink:title="The client implements concrete commands of the MPD Protocol.">
<polygon fill="white" stroke="black" points="222.5,-152.5 222.5,-171.5 293.5,-171.5 293.5,-152.5 222.5,-152.5"/>
<text text-anchor="middle" x="258" y="-159.5" font-family="Helvetica,sans-Serif" font-size="10.00">MPD::Client</text>
</a>
</g>
<!-- Node25&#45;&gt;Node26 -->
<g id="edge54" class="edge"><title>Node25&#45;&gt;Node26</title>
<path fill="none" stroke="midnightblue" d="M107.237,-205.863C128.097,-198.104 155.388,-188.387 180,-181 193.715,-176.884 208.995,-172.976 222.304,-169.787"/>
<polygon fill="midnightblue" stroke="midnightblue" points="105.981,-202.596 97.8466,-209.385 108.439,-209.15 105.981,-202.596"/>
</g>
<!-- Node27 -->
<g id="node54" class="node"><title>Node27</title>
<a xlink:href="classMPD_1_1AbstractItemlist.html" target="_top" xlink:title="Inhertit from this class to use MPD::Client&#39;s fill_* methods.">
<polygon fill="white" stroke="black" points="15,-798.5 15,-817.5 129,-817.5 129,-798.5 15,-798.5"/>
<text text-anchor="middle" x="72" y="-805.5" font-family="Helvetica,sans-Serif" font-size="10.00">MPD::AbstractItemlist</text>
</a>
</g>
<!-- Node27&#45;&gt;Node2 -->
<g id="edge56" class="edge"><title>Node27&#45;&gt;Node2</title>
<path fill="none" stroke="midnightblue" d="M96.6526,-822.803C117.817,-835.506 150.036,-853.526 180,-865 189.644,-868.693 200.246,-871.853 210.417,-874.475"/>
<polygon fill="midnightblue" stroke="midnightblue" points="98.3882,-819.762 88.0264,-817.552 94.7483,-825.742 98.3882,-819.762"/>
</g>
<!-- Node27&#45;&gt;Node4 -->
<g id="edge60" class="edge"><title>Node27&#45;&gt;Node4</title>
<path fill="none" stroke="midnightblue" d="M87.7354,-825.495C106.818,-847.006 142.147,-883.101 180,-903 187.313,-906.844 195.427,-909.93 203.566,-912.402"/>
<polygon fill="midnightblue" stroke="midnightblue" points="90.2271,-823.026 81.027,-817.772 84.9423,-827.617 90.2271,-823.026"/>
</g>
<!-- Node27&#45;&gt;Node9 -->
<g id="edge58" class="edge"><title>Node27&#45;&gt;Node9</title>
<path fill="none" stroke="midnightblue" d="M80.7774,-788.762C95.2309,-752.315 126.361,-670.448 144,-599 168.589,-499.402 110.618,-446.569 180,-371 183.818,-366.842 188.388,-363.528 193.371,-360.895"/>
<polygon fill="midnightblue" stroke="midnightblue" points="77.4771,-787.589 77.0137,-798.173 83.9766,-790.188 77.4771,-787.589"/>
</g>
<!-- Node27&#45;&gt;Node11 -->
<g id="edge62" class="edge"><title>Node27&#45;&gt;Node11</title>
<path fill="none" stroke="midnightblue" d="M139.286,-808C158.897,-808 180.203,-808 199.231,-808"/>
<polygon fill="midnightblue" stroke="midnightblue" points="139.206,-804.5 129.206,-808 139.206,-811.5 139.206,-804.5"/>
</g>
<!-- Node27&#45;&gt;Node12 -->
<g id="edge64" class="edge"><title>Node27&#45;&gt;Node12</title>
<path fill="none" stroke="midnightblue" d="M129.561,-796.319C155.654,-790.93 186.238,-784.614 210.903,-779.52"/>
<polygon fill="midnightblue" stroke="midnightblue" points="128.516,-792.961 119.431,-798.411 129.932,-799.816 128.516,-792.961"/>
</g>
<!-- Node28 -->
<g id="node60" class="node"><title>Node28</title>
<a xlink:href="classBrowser_1_1AbstractSettings.html" target="_top" xlink:title="Abstract base class for every Tab in the Settingsbrowser.">
<polygon fill="white" stroke="black" points="6.5,-247.5 6.5,-266.5 137.5,-266.5 137.5,-247.5 6.5,-247.5"/>
<text text-anchor="middle" x="72" y="-254.5" font-family="Helvetica,sans-Serif" font-size="10.00">Browser::AbstractSettings</text>
</a>
</g>
<!-- Node28&#45;&gt;Node12 -->
<g id="edge70" class="edge"><title>Node28&#45;&gt;Node12</title>
<path fill="none" stroke="midnightblue" d="M77.8308,-276.4C89.7355,-324.469 121.171,-453.019 144,-561 161.777,-645.088 120.91,-688.588 180,-751 183.787,-754.999 188.27,-758.213 193.139,-760.788"/>
<polygon fill="midnightblue" stroke="midnightblue" points="81.2241,-275.541 75.4177,-266.679 74.4303,-277.228 81.2241,-275.541"/>
</g>
<!-- Node28&#45;&gt;Node13 -->
<g id="edge72" class="edge"><title>Node28&#45;&gt;Node13</title>
<path fill="none" stroke="midnightblue" d="M147.763,-264.72C161.866,-266.176 176.529,-267.69 190.362,-269.119"/>
<polygon fill="midnightblue" stroke="midnightblue" points="147.919,-261.218 137.613,-263.672 147.2,-268.181 147.919,-261.218"/>
</g>
<!-- Node29 -->
<g id="node62" class="node"><title>Node29</title>
<a xlink:href="classBrowser_1_1SettingsGeneral.html" target="_top" xlink:title="General Settings Tab.">
<polygon fill="white" stroke="black" points="194,-228.5 194,-247.5 322,-247.5 322,-228.5 194,-228.5"/>
<text text-anchor="middle" x="258" y="-235.5" font-family="Helvetica,sans-Serif" font-size="10.00">Browser::SettingsGeneral</text>
</a>
</g>
<!-- Node28&#45;&gt;Node29 -->
<g id="edge66" class="edge"><title>Node28&#45;&gt;Node29</title>
<path fill="none" stroke="midnightblue" d="M147.571,-249.3C162.901,-247.717 178.9,-246.065 193.782,-244.528"/>
<polygon fill="midnightblue" stroke="midnightblue" points="147.2,-245.819 137.613,-250.328 147.919,-252.782 147.2,-245.819"/>
</g>
<!-- Node30 -->
<g id="node64" class="node"><title>Node30</title>
<a xlink:href="classBrowser_1_1SettingsNetwork.html" target="_top" xlink:title="Network Settings Tab.">
<polygon fill="white" stroke="black" points="192.5,-190.5 192.5,-209.5 323.5,-209.5 323.5,-190.5 192.5,-190.5"/>
<text text-anchor="middle" x="258" y="-197.5" font-family="Helvetica,sans-Serif" font-size="10.00">Browser::SettingsNetwork</text>
</a>
</g>
<!-- Node28&#45;&gt;Node30 -->
<g id="edge68" class="edge"><title>Node28&#45;&gt;Node30</title>
<path fill="none" stroke="midnightblue" d="M124.479,-244.693C131.122,-242.678 137.774,-240.44 144,-238 160.844,-231.398 163.092,-225.437 180,-219 189.651,-215.326 200.256,-212.174 210.428,-209.553"/>
<polygon fill="midnightblue" stroke="midnightblue" points="123.441,-241.35 114.803,-247.485 125.381,-248.075 123.441,-241.35"/>
</g>
<!-- Node31 -->
<g id="node67" class="node"><title>Node31</title>
<a xlink:href="classMPD_1_1BaseClient.html" target="_top" xlink:title="The Base to MPD::Client.">
<polygon fill="white" stroke="black" points="25.5,-152.5 25.5,-171.5 118.5,-171.5 118.5,-152.5 25.5,-152.5"/>
<text text-anchor="middle" x="72" y="-159.5" font-family="Helvetica,sans-Serif" font-size="10.00">MPD::BaseClient</text>
</a>
</g>
<!-- Node31&#45;&gt;Node26 -->
<g id="edge74" class="edge"><title>Node31&#45;&gt;Node26</title>
<path fill="none" stroke="midnightblue" d="M129.005,-162C159.411,-162 196.044,-162 222.314,-162"/>
<polygon fill="midnightblue" stroke="midnightblue" points="128.956,-158.5 118.956,-162 128.956,-165.5 128.956,-158.5"/>
</g>
<!-- Node32 -->
<g id="node69" class="node"><title>Node32</title>
<a xlink:href="classBrowser_1_1BasePopup.html" target="_top" xlink:title="A Baseclass for Widgets that want to implement easily popup widgets.">
<polygon fill="white" stroke="black" points="17.5,-57.5 17.5,-76.5 126.5,-76.5 126.5,-57.5 17.5,-57.5"/>
<text text-anchor="middle" x="72" y="-64.5" font-family="Helvetica,sans-Serif" font-size="10.00">Browser::BasePopup</text>
</a>
</g>
<!-- Node32&#45;&gt;Node23 -->
<g id="edge82" class="edge"><title>Node32&#45;&gt;Node23</title>
<path fill="none" stroke="midnightblue" d="M107.237,-80.1373C128.097,-87.896 155.388,-97.6129 180,-105 191.342,-108.404 203.753,-111.665 215.235,-114.495"/>
<polygon fill="midnightblue" stroke="midnightblue" points="108.439,-76.8499 97.8466,-76.6154 105.981,-83.4042 108.439,-76.8499"/>
</g>
<!-- Node33 -->
<g id="node71" class="node"><title>Node33</title>
<a xlink:href="classBrowser_1_1DatabasePopup.html" target="_top" xlink:title="The popup that shows up when rightclickin an icon.">
<polygon fill="white" stroke="black" points="194,-0.5 194,-19.5 322,-19.5 322,-0.5 194,-0.5"/>
<text text-anchor="middle" x="258" y="-7.5" font-family="Helvetica,sans-Serif" font-size="10.00">Browser::DatabasePopup</text>
</a>
</g>
<!-- Node32&#45;&gt;Node33 -->
<g id="edge76" class="edge"><title>Node32&#45;&gt;Node33</title>
<path fill="none" stroke="midnightblue" d="M107.237,-53.8627C128.097,-46.104 155.388,-36.3871 180,-29 191.342,-25.596 203.753,-22.3348 215.235,-19.5047"/>
<polygon fill="midnightblue" stroke="midnightblue" points="105.981,-50.5958 97.8466,-57.3846 108.439,-57.1501 105.981,-50.5958"/>
</g>
<!-- Node34 -->
<g id="node73" class="node"><title>Node34</title>
<a xlink:href="classBrowser_1_1PlaylistManagerPopup.html" target="_top" xlink:title="The Popup for Browser::PlaylistManager.">
<polygon fill="white" stroke="black" points="180,-76.5 180,-95.5 336,-95.5 336,-76.5 180,-76.5"/>
<text text-anchor="middle" x="258" y="-83.5" font-family="Helvetica,sans-Serif" font-size="10.00">Browser::PlaylistManagerPopup</text>
</a>
</g>
<!-- Node32&#45;&gt;Node34 -->
<g id="edge78" class="edge"><title>Node32&#45;&gt;Node34</title>
<path fill="none" stroke="midnightblue" d="M136.685,-73.5762C150.64,-75.0172 165.558,-76.5576 179.972,-78.046"/>
<polygon fill="midnightblue" stroke="midnightblue" points="137.022,-70.0924 126.715,-72.5467 136.303,-77.0554 137.022,-70.0924"/>
</g>
<!-- Node35 -->
<g id="node75" class="node"><title>Node35</title>
<a xlink:href="classBrowser_1_1QueuePopup.html" target="_top" xlink:title="The Popup for Browser::Queue.">
<polygon fill="white" stroke="black" points="200.5,-38.5 200.5,-57.5 315.5,-57.5 315.5,-38.5 200.5,-38.5"/>
<text text-anchor="middle" x="258" y="-45.5" font-family="Helvetica,sans-Serif" font-size="10.00">Browser::QueuePopup</text>
</a>
</g>
<!-- Node32&#45;&gt;Node35 -->
<g id="edge80" class="edge"><title>Node32&#45;&gt;Node35</title>
<path fill="none" stroke="midnightblue" d="M136.683,-60.4241C157.376,-58.2872 180.188,-55.9317 200.334,-53.8514"/>
<polygon fill="midnightblue" stroke="midnightblue" points="136.303,-56.9446 126.715,-61.4533 137.022,-63.9076 136.303,-56.9446"/>
</g>
<!-- Node36 -->
<g id="node77" class="node"><title>Node36</title>
<a xlink:href="classGtk_1_1Frame.html" target="_top" xlink:title="Frame">
<polygon fill="white" stroke="black" points="50,-1007.5 50,-1026.5 94,-1026.5 94,-1007.5 50,-1007.5"/>
<text text-anchor="middle" x="72" y="-1014.5" font-family="Helvetica,sans-Serif" font-size="10.00">Frame</text>
</a>
</g>
<!-- Node36&#45;&gt;Node4 -->
<g id="edge84" class="edge"><title>Node36&#45;&gt;Node4</title>
<path fill="none" stroke="midnightblue" d="M91.5026,-1000.52C111.828,-983.258 146.108,-956.534 180,-941 188.261,-937.214 197.381,-934.117 206.367,-931.606"/>
<polygon fill="midnightblue" stroke="midnightblue" points="88.9614,-998.093 83.6877,-1007.28 93.5407,-1003.39 88.9614,-998.093"/>
</g>
<!-- Node36&#45;&gt;Node7 -->
<g id="edge86" class="edge"><title>Node36&#45;&gt;Node7</title>
<path fill="none" stroke="midnightblue" d="M104.328,-1020.23C130.85,-1022.97 169.51,-1026.97 201.291,-1030.25"/>
<polygon fill="midnightblue" stroke="midnightblue" points="104.414,-1016.73 94.1071,-1019.18 103.695,-1023.69 104.414,-1016.73"/>
</g>
<!-- Node37 -->
<g id="node80" class="node"><title>Node37</title>
<a xlink:href="classGtk_1_1StatusIcon.html" target="_top" xlink:title="StatusIcon">
<polygon fill="white" stroke="black" points="40,-114.5 40,-133.5 104,-133.5 104,-114.5 40,-114.5"/>
<text text-anchor="middle" x="72" y="-121.5" font-family="Helvetica,sans-Serif" font-size="10.00">StatusIcon</text>
</a>
</g>
<!-- Node37&#45;&gt;Node23 -->
<g id="edge88" class="edge"><title>Node37&#45;&gt;Node23</title>
<path fill="none" stroke="midnightblue" d="M114.458,-124C141.384,-124 176.686,-124 205.421,-124"/>
<polygon fill="midnightblue" stroke="midnightblue" points="114.213,-120.5 104.213,-124 114.213,-127.5 114.213,-120.5"/>
</g>
</g>
</svg>
