<?xml version="1.0" encoding="UTF-8" standalone="no"?>
<!DOCTYPE svg PUBLIC "-//W3C//DTD SVG 1.1//EN"
 "http://www.w3.org/Graphics/SVG/1.1/DTD/svg11.dtd">
<!-- Generated by graphviz version 2.28.0 (20120217.0315)
 -->
<!-- Title: G Pages: 1 -->
<svg width="296pt" height="180pt"
 viewBox="0.00 0.00 296.00 180.00" xmlns="http://www.w3.org/2000/svg" xmlns:xlink="http://www.w3.org/1999/xlink">
<g id="graph1" class="graph" transform="scale(1 1) rotate(0) translate(4 176)">
<title>G</title>
<polygon fill="white" stroke="white" points="-4,5 -4,-176 293,-176 293,5 -4,5"/>
<!-- Node1 -->
<g id="node1" class="node"><title>Node1</title>
<a xlink:href="classMPD_1_1AbstractClientExtension.html" target="_top" xlink:title="Abstract base class for classes that want to implement spefic MPD Commands.">
<polygon fill="white" stroke="black" points="0.5,-114.5 0.5,-133.5 151.5,-133.5 151.5,-114.5 0.5,-114.5"/>
<text text-anchor="middle" x="76" y="-121.5" font-family="Helvetica,sans-Serif" font-size="10.00">MPD::AbstractClientExtension</text>
</a>
</g>
<!-- Node2 -->
<g id="node3" class="node"><title>Node2</title>
<a xlink:href="classMPD_1_1AudioOutput.html" target="_top" xlink:title="Wrapper for mpd_output, implements also two client commands: enable() and disable()">
<polygon fill="white" stroke="black" points="188.5,-76.5 188.5,-95.5 287.5,-95.5 287.5,-76.5 188.5,-76.5"/>
<text text-anchor="middle" x="238" y="-83.5" font-family="Helvetica,sans-Serif" font-size="10.00">MPD::AudioOutput</text>
</a>
</g>
<!-- Node1&#45;&gt;Node2 -->
<g id="edge2" class="edge"><title>Node1&#45;&gt;Node2</title>
<path fill="none" stroke="midnightblue" d="M127.392,-112.032C149.813,-106.707 175.847,-100.524 196.916,-95.5201"/>
<polygon fill="midnightblue" stroke="midnightblue" points="126.295,-108.695 117.375,-114.411 127.913,-115.505 126.295,-108.695"/>
</g>
<!-- Node3 -->
<g id="node5" class="node"><title>Node3</title>
<a xlink:href="classMPD_1_1Playlist.html" target="_top" xlink:title="A Wrapper for mpd_playlist, also implements own client commands.">
<polygon fill="white" stroke="black" points="199.5,-114.5 199.5,-133.5 276.5,-133.5 276.5,-114.5 199.5,-114.5"/>
<text text-anchor="middle" x="238" y="-121.5" font-family="Helvetica,sans-Serif" font-size="10.00">MPD::Playlist</text>
</a>
</g>
<!-- Node1&#45;&gt;Node3 -->
<g id="edge4" class="edge"><title>Node1&#45;&gt;Node3</title>
<path fill="none" stroke="midnightblue" d="M161.871,-124C174.965,-124 187.885,-124 199.22,-124"/>
<polygon fill="midnightblue" stroke="midnightblue" points="161.847,-120.5 151.847,-124 161.847,-127.5 161.847,-120.5"/>
</g>
<!-- Node4 -->
<g id="node7" class="node"><title>Node4</title>
<a xlink:href="classMPD_1_1Query.html" target="_top" xlink:title="MPD::Query">
<polygon fill="white" stroke="black" points="202.5,-152.5 202.5,-171.5 273.5,-171.5 273.5,-152.5 202.5,-152.5"/>
<text text-anchor="middle" x="238" y="-159.5" font-family="Helvetica,sans-Serif" font-size="10.00">MPD::Query</text>
</a>
</g>
<!-- Node1&#45;&gt;Node4 -->
<g id="edge6" class="edge"><title>Node1&#45;&gt;Node4</title>
<path fill="none" stroke="midnightblue" d="M127.197,-135.922C151.627,-141.724 180.383,-148.553 202.338,-153.768"/>
<polygon fill="midnightblue" stroke="midnightblue" points="127.913,-132.495 117.375,-133.589 126.295,-139.305 127.913,-132.495"/>
</g>
<!-- Node5 -->
<g id="node8" class="node"><title>Node5</title>
<a xlink:href="classMPD_1_1AbstractComposite.html" target="_top" xlink:title="MPD::AbstractComposite">
<polygon fill="white" stroke="black" points="11.5,-57.5 11.5,-76.5 140.5,-76.5 140.5,-57.5 11.5,-57.5"/>
<text text-anchor="middle" x="76" y="-64.5" font-family="Helvetica,sans-Serif" font-size="10.00">MPD::AbstractComposite</text>
</a>
</g>
<!-- Node5&#45;&gt;Node2 -->
<g id="edge8" class="edge"><title>Node5&#45;&gt;Node2</title>
<path fill="none" stroke="midnightblue" d="M150.827,-75.767C163.547,-77.2774 176.476,-78.8127 188.318,-80.219"/>
<polygon fill="midnightblue" stroke="midnightblue" points="151.039,-72.2676 140.696,-74.5639 150.213,-79.2188 151.039,-72.2676"/>
</g>
<!-- Node5&#45;&gt;Node3 -->
<g id="edge12" class="edge"><title>Node5&#45;&gt;Node3</title>
<path fill="none" stroke="midnightblue" d="M113.29,-79.9285C142.73,-90.4164 183.565,-104.964 210.132,-114.428"/>
<polygon fill="midnightblue" stroke="midnightblue" points="114.375,-76.5995 103.78,-76.5405 112.026,-83.1935 114.375,-76.5995"/>
</g>
<!-- Node6 -->
<g id="node11" class="node"><title>Node6</title>
<a xlink:href="classMPD_1_1Directory.html" target="_top" xlink:title="A wrapper for mpd_directory.">
<polygon fill="white" stroke="black" points="195.5,-0.5 195.5,-19.5 280.5,-19.5 280.5,-0.5 195.5,-0.5"/>
<text text-anchor="middle" x="238" y="-7.5" font-family="Helvetica,sans-Serif" font-size="10.00">MPD::Directory</text>
</a>
</g>
<!-- Node5&#45;&gt;Node6 -->
<g id="edge10" class="edge"><title>Node5&#45;&gt;Node6</title>
<path fill="none" stroke="midnightblue" d="M113.29,-54.0715C142.73,-43.5836 183.565,-29.0361 210.132,-19.5716"/>
<polygon fill="midnightblue" stroke="midnightblue" points="112.026,-50.8065 103.78,-57.4595 114.375,-57.4005 112.026,-50.8065"/>
</g>
<!-- Node7 -->
<g id="node14" class="node"><title>Node7</title>
<a xlink:href="classMPD_1_1Song.html" target="_top" xlink:title="A wrapper for mpd_song.">
<polygon fill="white" stroke="black" points="204,-38.5 204,-57.5 272,-57.5 272,-38.5 204,-38.5"/>
<text text-anchor="middle" x="238" y="-45.5" font-family="Helvetica,sans-Serif" font-size="10.00">MPD::Song</text>
</a>
</g>
<!-- Node5&#45;&gt;Node7 -->
<g id="edge14" class="edge"><title>Node5&#45;&gt;Node7</title>
<path fill="none" stroke="midnightblue" d="M150.665,-58.2522C169.282,-56.0415 188.359,-53.7761 203.83,-51.939"/>
<polygon fill="midnightblue" stroke="midnightblue" points="150.213,-54.7812 140.696,-59.4361 151.039,-61.7324 150.213,-54.7812"/>
</g>
</g>
</svg>
