<?xml version="1.0" encoding="UTF-8" standalone="no"?>
<!DOCTYPE svg PUBLIC "-//W3C//DTD SVG 1.1//EN"
 "http://www.w3.org/Graphics/SVG/1.1/DTD/svg11.dtd">
<!-- Generated by graphviz version 2.28.0 (20111204.1018)
 -->
<!-- Title: G Pages: 1 -->
<svg width="284pt" height="104pt"
 viewBox="0.00 0.00 284.00 104.00" xmlns="http://www.w3.org/2000/svg" xmlns:xlink="http://www.w3.org/1999/xlink">
<g id="graph1" class="graph" transform="scale(1 1) rotate(0) translate(4 100)">
<title>G</title>
<polygon fill="white" stroke="white" points="-4,5 -4,-100 281,-100 281,5 -4,5"/>
<!-- Node1 -->
<g id="node1" class="node"><title>Node1</title>
<a xlink:href="classGtk_1_1TreeModel_1_1ColumnRecord.html" target="_top" xlink:title="ColumnRecord">
<polygon fill="white" stroke="black" points="0,-38.5 0,-57.5 82,-57.5 82,-38.5 0,-38.5"/>
<text text-anchor="middle" x="41" y="-45.5" font-family="Helvetica,sans-Serif" font-size="10.00">ColumnRecord</text>
</a>
</g>
<!-- Node2 -->
<g id="node3" class="node"><title>Node2</title>
<a xlink:href="classAvahi_1_1View_1_1ModelColumns.html" target="_top" xlink:title="Avahi::View::ModelColumns">
<polygon fill="white" stroke="black" points="127,-76.5 127,-95.5 267,-95.5 267,-76.5 127,-76.5"/>
<text text-anchor="middle" x="197" y="-83.5" font-family="Helvetica,sans-Serif" font-size="10.00">Avahi::View::ModelColumns</text>
</a>
</g>
<!-- Node1&#45;&gt;Node2 -->
<g id="edge2" class="edge"><title>Node1&#45;&gt;Node2</title>
<path fill="none" stroke="midnightblue" d="M89.8156,-60.0007C99.1594,-62.3326 108.885,-64.7505 118,-67 130.584,-70.1057 144.319,-73.4625 156.708,-76.4779"/>
<polygon fill="midnightblue" stroke="midnightblue" points="90.4234,-56.545 79.8732,-57.5161 88.7263,-63.3362 90.4234,-56.545"/>
</g>
<!-- Node3 -->
<g id="node5" class="node"><title>Node3</title>
<a xlink:href="classBrowser_1_1OutputsModelColumns.html" target="_top" xlink:title="The Column Definition of the Outputlist inside of the Settingsbrowser.">
<polygon fill="white" stroke="black" points="118,-38.5 118,-57.5 276,-57.5 276,-38.5 118,-38.5"/>
<text text-anchor="middle" x="197" y="-45.5" font-family="Helvetica,sans-Serif" font-size="10.00">Browser::OutputsModelColumns</text>
</a>
</g>
<!-- Node1&#45;&gt;Node3 -->
<g id="edge4" class="edge"><title>Node1&#45;&gt;Node3</title>
<path fill="none" stroke="midnightblue" d="M92.2198,-48C100.465,-48 109.179,-48 117.911,-48"/>
<polygon fill="midnightblue" stroke="midnightblue" points="92.0597,-44.5001 82.0597,-48 92.0596,-51.5001 92.0597,-44.5001"/>
</g>
<!-- Node4 -->
<g id="node7" class="node"><title>Node4</title>
<a xlink:href="classBrowser_1_1QueueModelColumns.html" target="_top" xlink:title="The Column Definition of Browser::Queue.">
<polygon fill="white" stroke="black" points="121,-0.5 121,-19.5 273,-19.5 273,-0.5 121,-0.5"/>
<text text-anchor="middle" x="197" y="-7.5" font-family="Helvetica,sans-Serif" font-size="10.00">Browser::QueueModelColumns</text>
</a>
</g>
<!-- Node1&#45;&gt;Node4 -->
<g id="edge6" class="edge"><title>Node1&#45;&gt;Node4</title>
<path fill="none" stroke="midnightblue" d="M89.8156,-35.9993C99.1594,-33.6674 108.885,-31.2495 118,-29 130.584,-25.8943 144.319,-22.5375 156.708,-19.5221"/>
<polygon fill="midnightblue" stroke="midnightblue" points="88.7263,-32.6638 79.8732,-38.4839 90.4234,-39.455 88.7263,-32.6638"/>
</g>
</g>
</svg>
