<?xml version="1.0" encoding="UTF-8" standalone="no"?>
<!DOCTYPE svg PUBLIC "-//W3C//DTD SVG 1.1//EN"
 "http://www.w3.org/Graphics/SVG/1.1/DTD/svg11.dtd">
<!-- Generated by graphviz version 2.28.0 (20120217.0315)
 -->
<!-- Title: G Pages: 1 -->
<svg width="286pt" height="256pt"
 viewBox="0.00 0.00 286.00 256.00" xmlns="http://www.w3.org/2000/svg" xmlns:xlink="http://www.w3.org/1999/xlink">
<g id="graph1" class="graph" transform="scale(1 1) rotate(0) translate(4 252)">
<title>G</title>
<polygon fill="white" stroke="white" points="-4,5 -4,-252 283,-252 283,5 -4,5"/>
<!-- Node1 -->
<g id="node1" class="node"><title>Node1</title>
<a xlink:href="classGtk_1_1Expander.html" target="_top" xlink:title="Expander">
<polygon fill="white" stroke="black" points="26,-152.5 26,-171.5 84,-171.5 84,-152.5 26,-152.5"/>
<text text-anchor="middle" x="55" y="-159.5" font-family="Helvetica,sans-Serif" font-size="10.00">Expander</text>
</a>
</g>
<!-- Node2 -->
<g id="node3" class="node"><title>Node2</title>
<a xlink:href="classBrowser_1_1ArtistPhotosMgr.html" target="_top" xlink:title="Browser::ArtistPhotosMgr">
<polygon fill="white" stroke="black" points="147.5,-114.5 147.5,-133.5 276.5,-133.5 276.5,-114.5 147.5,-114.5"/>
<text text-anchor="middle" x="212" y="-121.5" font-family="Helvetica,sans-Serif" font-size="10.00">Browser::ArtistPhotosMgr</text>
</a>
</g>
<!-- Node1&#45;&gt;Node2 -->
<g id="edge2" class="edge"><title>Node1&#45;&gt;Node2</title>
<path fill="none" stroke="midnightblue" d="M93.7904,-152.735C117.538,-146.913 148.101,-139.42 172.064,-133.546"/>
<polygon fill="midnightblue" stroke="midnightblue" points="92.9483,-149.338 84.0693,-155.118 94.6151,-156.137 92.9483,-149.338"/>
</g>
<!-- Node3 -->
<g id="node5" class="node"><title>Node3</title>
<a xlink:href="classBrowser_1_1CoverArtMgr.html" target="_top" xlink:title="Browser::CoverArtMgr">
<polygon fill="white" stroke="black" points="155,-76.5 155,-95.5 269,-95.5 269,-76.5 155,-76.5"/>
<text text-anchor="middle" x="212" y="-83.5" font-family="Helvetica,sans-Serif" font-size="10.00">Browser::CoverArtMgr</text>
</a>
</g>
<!-- Node1&#45;&gt;Node3 -->
<g id="edge4" class="edge"><title>Node1&#45;&gt;Node3</title>
<path fill="none" stroke="midnightblue" d="M93.6315,-151.373C99.3319,-149.032 104.979,-146.257 110,-143 129.519,-130.341 126.147,-117.128 146,-105 152.321,-101.139 159.467,-98.0271 166.65,-95.5302"/>
<polygon fill="midnightblue" stroke="midnightblue" points="92.2487,-148.153 84.0887,-154.911 94.6817,-154.717 92.2487,-148.153"/>
</g>
<!-- Node4 -->
<g id="node7" class="node"><title>Node4</title>
<a xlink:href="classBrowser_1_1OtherAlbumsMgr.html" target="_top" xlink:title="Browser::OtherAlbumsMgr">
<polygon fill="white" stroke="black" points="146,-38.5 146,-57.5 278,-57.5 278,-38.5 146,-38.5"/>
<text text-anchor="middle" x="212" y="-45.5" font-family="Helvetica,sans-Serif" font-size="10.00">Browser::OtherAlbumsMgr</text>
</a>
</g>
<!-- Node1&#45;&gt;Node4 -->
<g id="edge6" class="edge"><title>Node1&#45;&gt;Node4</title>
<path fill="none" stroke="midnightblue" d="M93.5012,-153.191C99.4808,-150.606 105.252,-147.278 110,-143 137.767,-117.982 117.568,-91.2606 146,-67 150.561,-63.108 155.885,-60.0126 161.486,-57.5509"/>
<polygon fill="midnightblue" stroke="midnightblue" points="92.2242,-149.932 84.0496,-156.672 94.6431,-156.5 92.2242,-149.932"/>
</g>
<!-- Node5 -->
<g id="node9" class="node"><title>Node5</title>
<a xlink:href="classBrowser_1_1RelatedLinksMgr.html" target="_top" xlink:title="Browser::RelatedLinksMgr">
<polygon fill="white" stroke="black" points="146,-228.5 146,-247.5 278,-247.5 278,-228.5 146,-228.5"/>
<text text-anchor="middle" x="212" y="-235.5" font-family="Helvetica,sans-Serif" font-size="10.00">Browser::RelatedLinksMgr</text>
</a>
</g>
<!-- Node1&#45;&gt;Node5 -->
<g id="edge8" class="edge"><title>Node1&#45;&gt;Node5</title>
<path fill="none" stroke="midnightblue" d="M76.8557,-177.595C94.5112,-190.198 120.884,-207.649 146,-219 154.142,-222.68 163.179,-225.849 171.861,-228.487"/>
<polygon fill="midnightblue" stroke="midnightblue" points="78.6184,-174.55 68.4705,-171.505 74.5047,-180.213 78.6184,-174.55"/>
</g>
<!-- Node6 -->
<g id="node11" class="node"><title>Node6</title>
<a xlink:href="classBrowser_1_1TextItemsMgr.html" target="_top" xlink:title="Browser::TextItemsMgr">
<polygon fill="white" stroke="black" points="152.5,-190.5 152.5,-209.5 271.5,-209.5 271.5,-190.5 152.5,-190.5"/>
<text text-anchor="middle" x="212" y="-197.5" font-family="Helvetica,sans-Serif" font-size="10.00">Browser::TextItemsMgr</text>
</a>
</g>
<!-- Node1&#45;&gt;Node6 -->
<g id="edge10" class="edge"><title>Node1&#45;&gt;Node6</title>
<path fill="none" stroke="midnightblue" d="M93.7904,-171.265C117.538,-177.087 148.101,-184.58 172.064,-190.454"/>
<polygon fill="midnightblue" stroke="midnightblue" points="94.6151,-167.863 84.0693,-168.882 92.9483,-174.662 94.6151,-167.863"/>
</g>
<!-- Node7 -->
<g id="node13" class="node"><title>Node7</title>
<a xlink:href="classBrowser_1_1TracklistMgr.html" target="_top" xlink:title="Browser::TracklistMgr">
<polygon fill="white" stroke="black" points="155.5,-152.5 155.5,-171.5 268.5,-171.5 268.5,-152.5 155.5,-152.5"/>
<text text-anchor="middle" x="212" y="-159.5" font-family="Helvetica,sans-Serif" font-size="10.00">Browser::TracklistMgr</text>
</a>
</g>
<!-- Node1&#45;&gt;Node7 -->
<g id="edge12" class="edge"><title>Node1&#45;&gt;Node7</title>
<path fill="none" stroke="midnightblue" d="M94.11,-162C112.505,-162 134.932,-162 155.205,-162"/>
<polygon fill="midnightblue" stroke="midnightblue" points="94.0694,-158.5 84.0693,-162 94.0693,-165.5 94.0694,-158.5"/>
</g>
<!-- Node8 -->
<g id="node14" class="node"><title>Node8</title>
<a xlink:href="classGtk_1_1ScrolledWindow.html" target="_top" xlink:title="ScrolledWindow">
<polygon fill="white" stroke="black" points="11.5,-0.5 11.5,-19.5 98.5,-19.5 98.5,-0.5 11.5,-0.5"/>
<text text-anchor="middle" x="55" y="-7.5" font-family="Helvetica,sans-Serif" font-size="10.00">ScrolledWindow</text>
</a>
</g>
<!-- Node9 -->
<g id="node16" class="node"><title>Node9</title>
<a xlink:href="classBrowser_1_1TextPageMgr.html" target="_top" xlink:title="Browser::TextPageMgr">
<polygon fill="white" stroke="black" points="153.5,-0.5 153.5,-19.5 270.5,-19.5 270.5,-0.5 153.5,-0.5"/>
<text text-anchor="middle" x="212" y="-7.5" font-family="Helvetica,sans-Serif" font-size="10.00">Browser::TextPageMgr</text>
</a>
</g>
<!-- Node8&#45;&gt;Node9 -->
<g id="edge14" class="edge"><title>Node8&#45;&gt;Node9</title>
<path fill="none" stroke="midnightblue" d="M108.919,-10C123.211,-10 138.747,-10 153.287,-10"/>
<polygon fill="midnightblue" stroke="midnightblue" points="108.765,-6.5001 98.7647,-10 108.765,-13.5001 108.765,-6.5001"/>
</g>
<!-- Node10 -->
<g id="node17" class="node"><title>Node10</title>
<a xlink:href="classGlyr_1_1UpdateInterface.html" target="_top" xlink:title="Very similar to AbstractClientUser, but doesnt take a Client instance.">
<polygon fill="white" stroke="black" points="0,-114.5 0,-133.5 110,-133.5 110,-114.5 0,-114.5"/>
<text text-anchor="middle" x="55" y="-121.5" font-family="Helvetica,sans-Serif" font-size="10.00">Glyr::UpdateInterface</text>
</a>
</g>
<!-- Node10&#45;&gt;Node2 -->
<g id="edge16" class="edge"><title>Node10&#45;&gt;Node2</title>
<path fill="none" stroke="midnightblue" d="M120.468,-124C129.32,-124 138.406,-124 147.246,-124"/>
<polygon fill="midnightblue" stroke="midnightblue" points="120.212,-120.5 110.211,-124 120.211,-127.5 120.212,-120.5"/>
</g>
<!-- Node10&#45;&gt;Node3 -->
<g id="edge18" class="edge"><title>Node10&#45;&gt;Node3</title>
<path fill="none" stroke="midnightblue" d="M105.111,-111.96C126.765,-106.651 151.85,-100.501 172.168,-95.5201"/>
<polygon fill="midnightblue" stroke="midnightblue" points="103.992,-108.63 95.113,-114.411 105.659,-115.429 103.992,-108.63"/>
</g>
<!-- Node10&#45;&gt;Node4 -->
<g id="edge20" class="edge"><title>Node10&#45;&gt;Node4</title>
<path fill="none" stroke="midnightblue" d="M76.8557,-108.405C94.5112,-95.8023 120.884,-78.3513 146,-67 154.142,-63.3201 163.179,-60.1505 171.861,-57.5127"/>
<polygon fill="midnightblue" stroke="midnightblue" points="74.5047,-105.787 68.4705,-114.495 78.6184,-111.45 74.5047,-105.787"/>
</g>
<!-- Node10&#45;&gt;Node5 -->
<g id="edge22" class="edge"><title>Node10&#45;&gt;Node5</title>
<path fill="none" stroke="midnightblue" d="M104.409,-138.67C106.383,-139.993 108.26,-141.432 110,-143 137.767,-168.018 117.568,-194.739 146,-219 150.561,-222.892 155.885,-225.987 161.486,-228.449"/>
<polygon fill="midnightblue" stroke="midnightblue" points="105.698,-135.382 95.2552,-133.592 102.302,-141.503 105.698,-135.382"/>
</g>
<!-- Node10&#45;&gt;Node6 -->
<g id="edge24" class="edge"><title>Node10&#45;&gt;Node6</title>
<path fill="none" stroke="midnightblue" d="M100.117,-137.506C103.56,-139.161 106.899,-140.989 110,-143 129.519,-155.659 126.147,-168.872 146,-181 152.321,-184.861 159.467,-187.973 166.65,-190.47"/>
<polygon fill="midnightblue" stroke="midnightblue" points="101.421,-134.257 90.852,-133.52 98.6547,-140.687 101.421,-134.257"/>
</g>
<!-- Node10&#45;&gt;Node7 -->
<g id="edge28" class="edge"><title>Node10&#45;&gt;Node7</title>
<path fill="none" stroke="midnightblue" d="M105.111,-136.04C126.765,-141.349 151.85,-147.499 172.168,-152.48"/>
<polygon fill="midnightblue" stroke="midnightblue" points="105.659,-132.571 95.113,-133.589 103.992,-139.37 105.659,-132.571"/>
</g>
<!-- Node10&#45;&gt;Node9 -->
<g id="edge26" class="edge"><title>Node10&#45;&gt;Node9</title>
<path fill="none" stroke="midnightblue" d="M68.3154,-106.093C83.9553,-84.6808 112.92,-49.2089 146,-29 152.321,-25.1386 159.467,-22.0271 166.65,-19.5302"/>
<polygon fill="midnightblue" stroke="midnightblue" points="65.4044,-104.147 62.4552,-114.323 71.1066,-108.207 65.4044,-104.147"/>
</g>
</g>
</svg>
