<?xml version="1.0" encoding="UTF-8" standalone="no"?>
<!DOCTYPE svg PUBLIC "-//W3C//DTD SVG 1.1//EN"
 "http://www.w3.org/Graphics/SVG/1.1/DTD/svg11.dtd">
<!-- Generated by graphviz version 2.28.0 (20111204.1018)
 -->
<!-- Title: G Pages: 1 -->
<svg width="296pt" height="142pt"
 viewBox="0.00 0.00 296.00 142.00" xmlns="http://www.w3.org/2000/svg" xmlns:xlink="http://www.w3.org/1999/xlink">
<g id="graph1" class="graph" transform="scale(1 1) rotate(0) translate(4 138)">
<title>G</title>
<polygon fill="white" stroke="white" points="-4,5 -4,-138 293,-138 293,5 -4,5"/>
<!-- Node1 -->
<g id="node1" class="node"><title>Node1</title>
<a xlink:href="classMPD_1_1AbstractClientExtension.html" target="_top" xlink:title="Abstract base class for classes that want to implement spefic MPD Commands.">
<polygon fill="white" stroke="black" points="0.5,-104.5 0.5,-123.5 151.5,-123.5 151.5,-104.5 0.5,-104.5"/>
<text text-anchor="middle" x="76" y="-111.5" font-family="Helvetica,sans-Serif" font-size="10.00">MPD::AbstractClientExtension</text>
</a>
</g>
<!-- Node2 -->
<g id="node3" class="node"><title>Node2</title>
<a xlink:href="classMPD_1_1AudioOutput.html" target="_top" xlink:title="Wrapper for mpd_output, implements also two client commands: enable() and disable()">
<polygon fill="white" stroke="black" points="188.5,-114.5 188.5,-133.5 287.5,-133.5 287.5,-114.5 188.5,-114.5"/>
<text text-anchor="middle" x="238" y="-121.5" font-family="Helvetica,sans-Serif" font-size="10.00">MPD::AudioOutput</text>
</a>
</g>
<!-- Node1&#45;&gt;Node2 -->
<g id="edge2" class="edge"><title>Node1&#45;&gt;Node2</title>
<path fill="none" stroke="midnightblue" d="M162.001,-119.313C170.984,-119.874 179.882,-120.43 188.241,-120.953"/>
<polygon fill="midnightblue" stroke="midnightblue" points="162.046,-115.809 151.847,-118.678 161.609,-122.795 162.046,-115.809"/>
</g>
<!-- Node3 -->
<g id="node5" class="node"><title>Node3</title>
<a xlink:href="classMPD_1_1Playlist.html" target="_top" xlink:title="A Wrapper for mpd_playlist, also implements own client commands.">
<polygon fill="white" stroke="black" points="199.5,-76.5 199.5,-95.5 276.5,-95.5 276.5,-76.5 199.5,-76.5"/>
<text text-anchor="middle" x="238" y="-83.5" font-family="Helvetica,sans-Serif" font-size="10.00">MPD::Playlist</text>
</a>
</g>
<!-- Node1&#45;&gt;Node3 -->
<g id="edge4" class="edge"><title>Node1&#45;&gt;Node3</title>
<path fill="none" stroke="midnightblue" d="M141.7,-102.677C161.255,-99.2553 182.078,-95.6114 199.255,-92.6054"/>
<polygon fill="midnightblue" stroke="midnightblue" points="140.862,-99.2708 131.615,-104.442 142.069,-106.166 140.862,-99.2708"/>
</g>
<!-- Node4 -->
<g id="node6" class="node"><title>Node4</title>
<a xlink:href="classMPD_1_1AbstractComposite.html" target="_top" xlink:title="MPD::AbstractComposite">
<polygon fill="white" stroke="black" points="11.5,-47.5 11.5,-66.5 140.5,-66.5 140.5,-47.5 11.5,-47.5"/>
<text text-anchor="middle" x="76" y="-54.5" font-family="Helvetica,sans-Serif" font-size="10.00">MPD::AbstractComposite</text>
</a>
</g>
<!-- Node4&#45;&gt;Node2 -->
<g id="edge6" class="edge"><title>Node4&#45;&gt;Node2</title>
<path fill="none" stroke="midnightblue" d="M107.849,-70.7162C130.048,-80.4942 160.755,-93.8317 188,-105 195.683,-108.149 204.095,-111.46 211.747,-114.42"/>
<polygon fill="midnightblue" stroke="midnightblue" points="109.153,-67.466 98.5912,-66.6276 106.325,-73.8694 109.153,-67.466"/>
</g>
<!-- Node4&#45;&gt;Node3 -->
<g id="edge10" class="edge"><title>Node4&#45;&gt;Node3</title>
<path fill="none" stroke="midnightblue" d="M139.883,-68.3975C160.018,-72.0469 181.67,-75.9715 199.41,-79.1868"/>
<polygon fill="midnightblue" stroke="midnightblue" points="140.297,-64.9157 129.833,-66.5761 139.049,-71.8035 140.297,-64.9157"/>
</g>
<!-- Node5 -->
<g id="node9" class="node"><title>Node5</title>
<a xlink:href="classMPD_1_1Directory.html" target="_top" xlink:title="A wrapper for mpd_directory.">
<polygon fill="white" stroke="black" points="195.5,-38.5 195.5,-57.5 280.5,-57.5 280.5,-38.5 195.5,-38.5"/>
<text text-anchor="middle" x="238" y="-45.5" font-family="Helvetica,sans-Serif" font-size="10.00">MPD::Directory</text>
</a>
</g>
<!-- Node4&#45;&gt;Node5 -->
<g id="edge8" class="edge"><title>Node4&#45;&gt;Node5</title>
<path fill="none" stroke="midnightblue" d="M151.089,-52.8325C166.204,-51.9822 181.603,-51.1161 195.11,-50.3563"/>
<polygon fill="midnightblue" stroke="midnightblue" points="150.484,-49.3609 140.696,-53.4171 150.877,-56.3499 150.484,-49.3609"/>
</g>
<!-- Node6 -->
<g id="node12" class="node"><title>Node6</title>
<a xlink:href="classMPD_1_1Song.html" target="_top" xlink:title="A wrapper for mpd_song.">
<polygon fill="white" stroke="black" points="204,-0.5 204,-19.5 272,-19.5 272,-0.5 204,-0.5"/>
<text text-anchor="middle" x="238" y="-7.5" font-family="Helvetica,sans-Serif" font-size="10.00">MPD::Song</text>
</a>
</g>
<!-- Node4&#45;&gt;Node6 -->
<g id="edge12" class="edge"><title>Node4&#45;&gt;Node6</title>
<path fill="none" stroke="midnightblue" d="M119.207,-44.6018C145.869,-36.7696 179.804,-26.8012 204.396,-19.5776"/>
<polygon fill="midnightblue" stroke="midnightblue" points="117.987,-41.3122 109.378,-47.4888 119.959,-48.0285 117.987,-41.3122"/>
</g>
</g>
</svg>
