<?xml version="1.0" encoding="UTF-8" standalone="no"?>
<!DOCTYPE svg PUBLIC "-//W3C//DTD SVG 1.1//EN"
 "http://www.w3.org/Graphics/SVG/1.1/DTD/svg11.dtd">
<!-- Generated by graphviz version 2.28.0 (20120217.0315)
 -->
<!-- Title: G Pages: 1 -->
<svg width="190pt" height="142pt"
 viewBox="0.00 0.00 190.00 142.00" xmlns="http://www.w3.org/2000/svg" xmlns:xlink="http://www.w3.org/1999/xlink">
<g id="graph1" class="graph" transform="scale(1 1) rotate(0) translate(4 138)">
<title>G</title>
<polygon fill="white" stroke="white" points="-4,5 -4,-138 187,-138 187,5 -4,5"/>
<!-- Node1 -->
<g id="node1" class="node"><title>Node1</title>
<a xlink:href="classCxxTest_1_1TestSuite.html" target="_top" xlink:title="TestSuite">
<polygon fill="white" stroke="black" points="0.5,-57.5 0.5,-76.5 59.5,-76.5 59.5,-57.5 0.5,-57.5"/>
<text text-anchor="middle" x="30" y="-64.5" font-family="Helvetica,sans-Serif" font-size="10.00">TestSuite</text>
</a>
</g>
<!-- Node2 -->
<g id="node3" class="node"><title>Node2</title>
<a xlink:href="classLogTestSuite.html" target="_top" xlink:title="LogTestSuite">
<polygon fill="white" stroke="black" points="102,-114.5 102,-133.5 176,-133.5 176,-114.5 102,-114.5"/>
<text text-anchor="middle" x="139" y="-121.5" font-family="Helvetica,sans-Serif" font-size="10.00">LogTestSuite</text>
</a>
</g>
<!-- Node1&#45;&gt;Node2 -->
<g id="edge2" class="edge"><title>Node1&#45;&gt;Node2</title>
<path fill="none" stroke="midnightblue" d="M54.8867,-81.768C67.0296,-89.0683 82.1189,-97.8274 96,-105 102.257,-108.233 109.175,-111.488 115.56,-114.369"/>
<polygon fill="midnightblue" stroke="midnightblue" points="56.6083,-78.7187 46.244,-76.5202 52.9751,-84.7021 56.6083,-78.7187"/>
</g>
<!-- Node3 -->
<g id="node5" class="node"><title>Node3</title>
<a xlink:href="classMPDTestSuite.html" target="_top" xlink:title="MPDTestSuite">
<polygon fill="white" stroke="black" points="98.5,-76.5 98.5,-95.5 179.5,-95.5 179.5,-76.5 98.5,-76.5"/>
<text text-anchor="middle" x="139" y="-83.5" font-family="Helvetica,sans-Serif" font-size="10.00">MPDTestSuite</text>
</a>
</g>
<!-- Node1&#45;&gt;Node3 -->
<g id="edge4" class="edge"><title>Node1&#45;&gt;Node3</title>
<path fill="none" stroke="midnightblue" d="M69.5291,-73.8416C78.9087,-75.5072 88.9561,-77.2913 98.3852,-78.9656"/>
<polygon fill="midnightblue" stroke="midnightblue" points="70.132,-70.394 59.674,-72.0917 68.9081,-77.2862 70.132,-70.394"/>
</g>
<!-- Node4 -->
<g id="node7" class="node"><title>Node4</title>
<a xlink:href="classNotifyTestSuite.html" target="_top" xlink:title="NotifyTestSuite">
<polygon fill="white" stroke="black" points="96.5,-38.5 96.5,-57.5 181.5,-57.5 181.5,-38.5 96.5,-38.5"/>
<text text-anchor="middle" x="139" y="-45.5" font-family="Helvetica,sans-Serif" font-size="10.00">NotifyTestSuite</text>
</a>
</g>
<!-- Node1&#45;&gt;Node4 -->
<g id="edge6" class="edge"><title>Node1&#45;&gt;Node4</title>
<path fill="none" stroke="midnightblue" d="M69.5665,-60.1517C78.2701,-58.6062 87.5469,-56.959 96.3701,-55.3922"/>
<polygon fill="midnightblue" stroke="midnightblue" points="68.9081,-56.7138 59.674,-61.9083 70.132,-63.606 68.9081,-56.7138"/>
</g>
<!-- Node5 -->
<g id="node9" class="node"><title>Node5</title>
<a xlink:href="classUtilsTestSuite.html" target="_top" xlink:title="UtilsTestSuite">
<polygon fill="white" stroke="black" points="99.5,-0.5 99.5,-19.5 178.5,-19.5 178.5,-0.5 99.5,-0.5"/>
<text text-anchor="middle" x="139" y="-7.5" font-family="Helvetica,sans-Serif" font-size="10.00">UtilsTestSuite</text>
</a>
</g>
<!-- Node1&#45;&gt;Node5 -->
<g id="edge8" class="edge"><title>Node1&#45;&gt;Node5</title>
<path fill="none" stroke="midnightblue" d="M54.8867,-52.232C67.0296,-44.9317 82.1189,-36.1726 96,-29 102.257,-25.767 109.175,-22.5116 115.56,-19.6312"/>
<polygon fill="midnightblue" stroke="midnightblue" points="52.9751,-49.2979 46.244,-57.4798 56.6083,-55.2813 52.9751,-49.2979"/>
</g>
</g>
</svg>
