<?xml version="1.0" encoding="UTF-8" standalone="no"?>
<!DOCTYPE svg PUBLIC "-//W3C//DTD SVG 1.1//EN"
 "http://www.w3.org/Graphics/SVG/1.1/DTD/svg11.dtd">
<!-- Generated by graphviz version 2.28.0 (20120217.0315)
 -->
<!-- Title: G Pages: 1 -->
<svg width="454pt" height="1092pt"
 viewBox="0.00 0.00 454.00 1092.00" xmlns="http://www.w3.org/2000/svg" xmlns:xlink="http://www.w3.org/1999/xlink">
<g id="graph1" class="graph" transform="scale(1 1) rotate(0) translate(4 1088)">
<title>G</title>
<polygon fill="white" stroke="white" points="-4,5 -4,-1088 451,-1088 451,5 -4,5"/>
<!-- Node1 -->
<g id="node1" class="node"><title>Node1</title>
<a xlink:href="classAbstractBrowser.html" target="_top" xlink:title="Inherit from this class in order to be able to add the browser to the browserlist.">
<polygon fill="white" stroke="black" points="137.5,-950.5 137.5,-969.5 226.5,-969.5 226.5,-950.5 137.5,-950.5"/>
<text text-anchor="middle" x="182" y="-957.5" font-family="Helvetica,sans-Serif" font-size="10.00">AbstractBrowser</text>
</a>
</g>
<!-- Node2 -->
<g id="node3" class="node"><title>Node2</title>
<a xlink:href="classBrowser_1_1Database.html" target="_top" xlink:title="The Database Browser.">
<polygon fill="white" stroke="black" points="317.5,-874.5 317.5,-893.5 418.5,-893.5 418.5,-874.5 317.5,-874.5"/>
<text text-anchor="middle" x="368" y="-881.5" font-family="Helvetica,sans-Serif" font-size="10.00">Browser::Database</text>
</a>
</g>
<!-- Node1&#45;&gt;Node2 -->
<g id="edge2" class="edge"><title>Node1&#45;&gt;Node2</title>
<path fill="none" stroke="midnightblue" d="M206.653,-945.197C227.817,-932.494 260.036,-914.474 290,-903 299.644,-899.307 310.246,-896.147 320.417,-893.525"/>
<polygon fill="midnightblue" stroke="midnightblue" points="204.748,-942.258 198.026,-950.448 208.388,-948.238 204.748,-942.258"/>
</g>
<!-- Node3 -->
<g id="node5" class="node"><title>Node3</title>
<a xlink:href="classBrowser_1_1Fortuna.html" target="_top" xlink:title="A little easteregg browser.">
<polygon fill="white" stroke="black" points="322,-1026.5 322,-1045.5 414,-1045.5 414,-1026.5 322,-1026.5"/>
<text text-anchor="middle" x="368" y="-1033.5" font-family="Helvetica,sans-Serif" font-size="10.00">Browser::Fortuna</text>
</a>
</g>
<!-- Node1&#45;&gt;Node3 -->
<g id="edge4" class="edge"><title>Node1&#45;&gt;Node3</title>
<path fill="none" stroke="midnightblue" d="M206.653,-974.803C227.817,-987.506 260.036,-1005.53 290,-1017 300.03,-1020.84 311.096,-1024.1 321.636,-1026.79"/>
<polygon fill="midnightblue" stroke="midnightblue" points="208.388,-971.762 198.026,-969.552 204.748,-977.742 208.388,-971.762"/>
</g>
<!-- Node4 -->
<g id="node7" class="node"><title>Node4</title>
<a xlink:href="classBrowser_1_1NowPlaying.html" target="_top" xlink:title="Browser::NowPlaying">
<polygon fill="white" stroke="black" points="312.5,-912.5 312.5,-931.5 423.5,-931.5 423.5,-912.5 312.5,-912.5"/>
<text text-anchor="middle" x="368" y="-919.5" font-family="Helvetica,sans-Serif" font-size="10.00">Browser::NowPlaying</text>
</a>
</g>
<!-- Node1&#45;&gt;Node4 -->
<g id="edge6" class="edge"><title>Node1&#45;&gt;Node4</title>
<path fill="none" stroke="midnightblue" d="M236.555,-948.94C263.25,-943.427 295.212,-936.826 320.816,-931.538"/>
<polygon fill="midnightblue" stroke="midnightblue" points="235.691,-945.544 226.605,-950.995 237.107,-952.4 235.691,-945.544"/>
</g>
<!-- Node5 -->
<g id="node9" class="node"><title>Node5</title>
<a xlink:href="classBrowser_1_1PlaylistManager.html" target="_top" xlink:title="Shows a list of stored playlists.">
<polygon fill="white" stroke="black" points="304,-950.5 304,-969.5 432,-969.5 432,-950.5 304,-950.5"/>
<text text-anchor="middle" x="368" y="-957.5" font-family="Helvetica,sans-Serif" font-size="10.00">Browser::PlaylistManager</text>
</a>
</g>
<!-- Node1&#45;&gt;Node5 -->
<g id="edge8" class="edge"><title>Node1&#45;&gt;Node5</title>
<path fill="none" stroke="midnightblue" d="M236.646,-960C257.683,-960 281.978,-960 303.853,-960"/>
<polygon fill="midnightblue" stroke="midnightblue" points="236.605,-956.5 226.605,-960 236.605,-963.5 236.605,-956.5"/>
</g>
<!-- Node6 -->
<g id="node11" class="node"><title>Node6</title>
<a xlink:href="classBrowser_1_1Queue.html" target="_top" xlink:title="Shows a list of songs in the current playlist.">
<polygon fill="white" stroke="black" points="324.5,-836.5 324.5,-855.5 411.5,-855.5 411.5,-836.5 324.5,-836.5"/>
<text text-anchor="middle" x="368" y="-843.5" font-family="Helvetica,sans-Serif" font-size="10.00">Browser::Queue</text>
</a>
</g>
<!-- Node1&#45;&gt;Node6 -->
<g id="edge10" class="edge"><title>Node1&#45;&gt;Node6</title>
<path fill="none" stroke="midnightblue" d="M197.735,-942.505C216.818,-920.994 252.147,-884.899 290,-865 300.603,-859.426 312.893,-855.446 324.497,-852.621"/>
<polygon fill="midnightblue" stroke="midnightblue" points="194.942,-940.383 191.027,-950.228 200.227,-944.974 194.942,-940.383"/>
</g>
<!-- Node7 -->
<g id="node13" class="node"><title>Node7</title>
<a xlink:href="classBrowser_1_1Settings.html" target="_top" xlink:title="The Settingsbrowser shown in the sidebar.">
<polygon fill="white" stroke="black" points="320.5,-988.5 320.5,-1007.5 415.5,-1007.5 415.5,-988.5 320.5,-988.5"/>
<text text-anchor="middle" x="368" y="-995.5" font-family="Helvetica,sans-Serif" font-size="10.00">Browser::Settings</text>
</a>
</g>
<!-- Node1&#45;&gt;Node7 -->
<g id="edge12" class="edge"><title>Node1&#45;&gt;Node7</title>
<path fill="none" stroke="midnightblue" d="M236.555,-971.06C263.25,-976.573 295.212,-983.174 320.816,-988.462"/>
<polygon fill="midnightblue" stroke="midnightblue" points="237.107,-967.6 226.605,-969.005 235.691,-974.456 237.107,-967.6"/>
</g>
<!-- Node8 -->
<g id="node15" class="node"><title>Node8</title>
<a xlink:href="classBrowser_1_1StatBrowser.html" target="_top" xlink:title="A simple representation of the current MPD::Statistics.">
<polygon fill="white" stroke="black" points="311.5,-1064.5 311.5,-1083.5 424.5,-1083.5 424.5,-1064.5 311.5,-1064.5"/>
<text text-anchor="middle" x="368" y="-1071.5" font-family="Helvetica,sans-Serif" font-size="10.00">Browser::StatBrowser</text>
</a>
</g>
<!-- Node1&#45;&gt;Node8 -->
<g id="edge14" class="edge"><title>Node1&#45;&gt;Node8</title>
<path fill="none" stroke="midnightblue" d="M204.29,-975.874C218.727,-986.93 238.018,-1002.28 254,-1017 271.11,-1032.76 269.894,-1043.3 290,-1055 296.664,-1058.88 304.097,-1061.97 311.644,-1064.43"/>
<polygon fill="midnightblue" stroke="midnightblue" points="206.083,-972.842 196,-969.589 201.854,-978.42 206.083,-972.842"/>
</g>
<!-- Node9 -->
<g id="node16" class="node"><title>Node9</title>
<a xlink:href="classMPD_1_1AbstractClientUser.html" target="_top" xlink:title="MPD::AbstractClientUser">
<polygon fill="white" stroke="black" points="118,-589.5 118,-608.5 246,-608.5 246,-589.5 118,-589.5"/>
<text text-anchor="middle" x="182" y="-596.5" font-family="Helvetica,sans-Serif" font-size="10.00">MPD::AbstractClientUser</text>
</a>
</g>
<!-- Node9&#45;&gt;Node2 -->
<g id="edge16" class="edge"><title>Node9&#45;&gt;Node2</title>
<path fill="none" stroke="midnightblue" d="M190.133,-618.091C212.439,-677.601 279.985,-856.302 290,-865 297.693,-871.681 307.372,-876.087 317.247,-878.976"/>
<polygon fill="midnightblue" stroke="midnightblue" points="193.41,-616.861 186.626,-608.723 186.854,-619.315 193.41,-616.861"/>
</g>
<!-- Node9&#45;&gt;Node4 -->
<g id="edge20" class="edge"><title>Node9&#45;&gt;Node4</title>
<path fill="none" stroke="midnightblue" d="M190.677,-618.524C204.078,-652.82 232.371,-726.211 254,-789 271.305,-839.236 251.247,-866.65 290,-903 296.327,-908.935 304.203,-913.099 312.483,-916.005"/>
<polygon fill="midnightblue" stroke="midnightblue" points="193.784,-616.859 186.877,-608.825 187.266,-619.413 193.784,-616.859"/>
</g>
<!-- Node9&#45;&gt;Node5 -->
<g id="edge24" class="edge"><title>Node9&#45;&gt;Node5</title>
<path fill="none" stroke="midnightblue" d="M191.159,-618.367C205.297,-652.425 234.686,-725.46 254,-789 274.19,-855.424 241.14,-891.68 290,-941 293.973,-945.01 298.649,-948.224 303.7,-950.792"/>
<polygon fill="midnightblue" stroke="midnightblue" points="194.221,-616.618 187.136,-608.741 187.762,-619.317 194.221,-616.618"/>
</g>
<!-- Node9&#45;&gt;Node6 -->
<g id="edge26" class="edge"><title>Node9&#45;&gt;Node6</title>
<path fill="none" stroke="midnightblue" d="M186.343,-618.634C194.963,-662.989 222.202,-771.388 290,-827 299.688,-834.946 312.218,-839.644 324.345,-842.399"/>
<polygon fill="midnightblue" stroke="midnightblue" points="189.747,-617.789 184.501,-608.584 182.862,-619.051 189.747,-617.789"/>
</g>
<!-- Node10 -->
<g id="node19" class="node"><title>Node10</title>
<a xlink:href="classBrowser_1_1DatabaseCache.html" target="_top" xlink:title="Acts as a Proxy betwenn Browser::Database and MPD::Client, but caches requested data.">
<polygon fill="white" stroke="black" points="303.5,-532.5 303.5,-551.5 432.5,-551.5 432.5,-532.5 303.5,-532.5"/>
<text text-anchor="middle" x="368" y="-539.5" font-family="Helvetica,sans-Serif" font-size="10.00">Browser::DatabaseCache</text>
</a>
</g>
<!-- Node9&#45;&gt;Node10 -->
<g id="edge18" class="edge"><title>Node9&#45;&gt;Node10</title>
<path fill="none" stroke="midnightblue" d="M217.237,-585.863C238.097,-578.104 265.388,-568.387 290,-561 301.342,-557.596 313.753,-554.335 325.235,-551.505"/>
<polygon fill="midnightblue" stroke="midnightblue" points="215.981,-582.596 207.847,-589.385 218.439,-589.15 215.981,-582.596"/>
</g>
<!-- Node11 -->
<g id="node22" class="node"><title>Node11</title>
<a xlink:href="classBrowser_1_1PlaylistAddDialog.html" target="_top" xlink:title="Shows a simple dialog when a new playlist needs to be saved.">
<polygon fill="white" stroke="black" points="300,-418.5 300,-437.5 436,-437.5 436,-418.5 300,-418.5"/>
<text text-anchor="middle" x="368" y="-425.5" font-family="Helvetica,sans-Serif" font-size="10.00">Browser::PlaylistAddDialog</text>
</a>
</g>
<!-- Node9&#45;&gt;Node11 -->
<g id="edge22" class="edge"><title>Node9&#45;&gt;Node11</title>
<path fill="none" stroke="midnightblue" d="M190.899,-580.077C205.472,-547.579 239.758,-481.348 290,-447 295.683,-443.115 302.084,-440.022 308.705,-437.561"/>
<polygon fill="midnightblue" stroke="midnightblue" points="187.641,-578.794 186.865,-589.36 194.061,-581.584 187.641,-578.794"/>
</g>
<!-- Node12 -->
<g id="node26" class="node"><title>Node12</title>
<a xlink:href="classBrowser_1_1QueueMerger.html" target="_top" xlink:title="This class manages the updating and merging of the Queue.">
<polygon fill="white" stroke="black" points="309.5,-798.5 309.5,-817.5 426.5,-817.5 426.5,-798.5 309.5,-798.5"/>
<text text-anchor="middle" x="368" y="-805.5" font-family="Helvetica,sans-Serif" font-size="10.00">Browser::QueueMerger</text>
</a>
</g>
<!-- Node9&#45;&gt;Node12 -->
<g id="edge28" class="edge"><title>Node9&#45;&gt;Node12</title>
<path fill="none" stroke="midnightblue" d="M188.36,-618.749C199.981,-657.672 231.296,-744.381 290,-789 295.81,-793.416 302.514,-796.818 309.494,-799.436"/>
<polygon fill="midnightblue" stroke="midnightblue" points="191.602,-617.357 185.487,-608.706 184.872,-619.283 191.602,-617.357"/>
</g>
<!-- Node13 -->
<g id="node28" class="node"><title>Node13</title>
<a xlink:href="classBrowser_1_1SettingsOutputs.html" target="_top" xlink:title="Outputlist Tab.">
<polygon fill="white" stroke="black" points="303.5,-608.5 303.5,-627.5 432.5,-627.5 432.5,-608.5 303.5,-608.5"/>
<text text-anchor="middle" x="368" y="-615.5" font-family="Helvetica,sans-Serif" font-size="10.00">Browser::SettingsOutputs</text>
</a>
</g>
<!-- Node9&#45;&gt;Node13 -->
<g id="edge30" class="edge"><title>Node9&#45;&gt;Node13</title>
<path fill="none" stroke="midnightblue" d="M256.196,-606.558C271.808,-608.17 288.175,-609.86 303.393,-611.432"/>
<polygon fill="midnightblue" stroke="midnightblue" points="256.372,-603.058 246.065,-605.512 255.653,-610.021 256.372,-603.058"/>
</g>
<!-- Node14 -->
<g id="node30" class="node"><title>Node14</title>
<a xlink:href="classBrowser_1_1SettingsPlayback.html" target="_top" xlink:title="Playback Settings Tab.">
<polygon fill="white" stroke="black" points="300.5,-266.5 300.5,-285.5 435.5,-285.5 435.5,-266.5 300.5,-266.5"/>
<text text-anchor="middle" x="368" y="-273.5" font-family="Helvetica,sans-Serif" font-size="10.00">Browser::SettingsPlayback</text>
</a>
</g>
<!-- Node9&#45;&gt;Node14 -->
<g id="edge32" class="edge"><title>Node9&#45;&gt;Node14</title>
<path fill="none" stroke="midnightblue" d="M187.355,-579.333C201.207,-518.49 245.931,-335.008 290,-295 294.18,-291.205 298.996,-288.139 304.137,-285.665"/>
<polygon fill="midnightblue" stroke="midnightblue" points="183.915,-578.681 185.135,-589.205 190.744,-580.217 183.915,-578.681"/>
</g>
<!-- Node15 -->
<g id="node32" class="node"><title>Node15</title>
<a xlink:href="classGManager_1_1BrowserList.html" target="_top" xlink:title="List of Browsers in sidebar.">
<polygon fill="white" stroke="black" points="308.5,-380.5 308.5,-399.5 427.5,-399.5 427.5,-380.5 308.5,-380.5"/>
<text text-anchor="middle" x="368" y="-387.5" font-family="Helvetica,sans-Serif" font-size="10.00">GManager::BrowserList</text>
</a>
</g>
<!-- Node9&#45;&gt;Node15 -->
<g id="edge34" class="edge"><title>Node9&#45;&gt;Node15</title>
<path fill="none" stroke="midnightblue" d="M188.36,-579.251C199.981,-540.328 231.296,-453.619 290,-409 295.481,-404.834 301.758,-401.571 308.312,-399.016"/>
<polygon fill="midnightblue" stroke="midnightblue" points="184.872,-578.717 185.487,-589.294 191.602,-580.643 184.872,-578.717"/>
</g>
<!-- Node16 -->
<g id="node34" class="node"><title>Node16</title>
<a xlink:href="classGManager_1_1Heartbeat.html" target="_top" xlink:title="A software clock that emits a signal every 500ms.">
<polygon fill="white" stroke="black" points="313,-760.5 313,-779.5 423,-779.5 423,-760.5 313,-760.5"/>
<text text-anchor="middle" x="368" y="-767.5" font-family="Helvetica,sans-Serif" font-size="10.00">GManager::Heartbeat</text>
</a>
</g>
<!-- Node9&#45;&gt;Node16 -->
<g id="edge36" class="edge"><title>Node9&#45;&gt;Node16</title>
<path fill="none" stroke="midnightblue" d="M190.899,-617.923C205.472,-650.421 239.758,-716.652 290,-751 296.82,-755.663 304.673,-759.183 312.7,-761.841"/>
<polygon fill="midnightblue" stroke="midnightblue" points="194.061,-616.416 186.865,-608.64 187.641,-619.206 194.061,-616.416"/>
</g>
<!-- Node17 -->
<g id="node36" class="node"><title>Node17</title>
<a xlink:href="classGManager_1_1MenuList.html" target="_top" xlink:title="The Manager for the Topmenus.">
<polygon fill="white" stroke="black" points="314.5,-722.5 314.5,-741.5 421.5,-741.5 421.5,-722.5 314.5,-722.5"/>
<text text-anchor="middle" x="368" y="-729.5" font-family="Helvetica,sans-Serif" font-size="10.00">GManager::MenuList</text>
</a>
</g>
<!-- Node9&#45;&gt;Node17 -->
<g id="edge38" class="edge"><title>Node9&#45;&gt;Node17</title>
<path fill="none" stroke="midnightblue" d="M194.832,-617.069C212.455,-642.493 248.062,-688.457 290,-713 297.487,-717.381 305.952,-720.757 314.46,-723.357"/>
<polygon fill="midnightblue" stroke="midnightblue" points="197.677,-615.029 189.174,-608.709 191.88,-618.952 197.677,-615.029"/>
</g>
<!-- Node18 -->
<g id="node38" class="node"><title>Node18</title>
<a xlink:href="classGManager_1_1NotifyManager.html" target="_top" xlink:title="Manages Notifications that are triggered on player events.">
<polygon fill="white" stroke="black" points="302.5,-684.5 302.5,-703.5 433.5,-703.5 433.5,-684.5 302.5,-684.5"/>
<text text-anchor="middle" x="368" y="-691.5" font-family="Helvetica,sans-Serif" font-size="10.00">GManager::NotifyManager</text>
</a>
</g>
<!-- Node9&#45;&gt;Node18 -->
<g id="edge40" class="edge"><title>Node9&#45;&gt;Node18</title>
<path fill="none" stroke="midnightblue" d="M201.503,-615.478C221.828,-632.742 256.108,-659.466 290,-675 298.261,-678.786 307.381,-681.883 316.367,-684.394"/>
<polygon fill="midnightblue" stroke="midnightblue" points="203.541,-612.613 193.688,-608.718 198.961,-617.907 203.541,-612.613"/>
</g>
<!-- Node19 -->
<g id="node40" class="node"><title>Node19</title>
<a xlink:href="classGManager_1_1PlaybackButtons.html" target="_top" xlink:title="Manages the Playbackbuttons.">
<polygon fill="white" stroke="black" points="297,-646.5 297,-665.5 439,-665.5 439,-646.5 297,-646.5"/>
<text text-anchor="middle" x="368" y="-653.5" font-family="Helvetica,sans-Serif" font-size="10.00">GManager::PlaybackButtons</text>
</a>
</g>
<!-- Node9&#45;&gt;Node19 -->
<g id="edge42" class="edge"><title>Node9&#45;&gt;Node19</title>
<path fill="none" stroke="midnightblue" d="M217.237,-612.137C238.097,-619.896 265.388,-629.613 290,-637 301.342,-640.404 313.753,-643.665 325.235,-646.495"/>
<polygon fill="midnightblue" stroke="midnightblue" points="218.439,-608.85 207.847,-608.615 215.981,-615.404 218.439,-608.85"/>
</g>
<!-- Node20 -->
<g id="node42" class="node"><title>Node20</title>
<a xlink:href="classGManager_1_1Statusbar.html" target="_top" xlink:title="Manager for the statusbar.">
<polygon fill="white" stroke="black" points="313,-570.5 313,-589.5 423,-589.5 423,-570.5 313,-570.5"/>
<text text-anchor="middle" x="368" y="-577.5" font-family="Helvetica,sans-Serif" font-size="10.00">GManager::Statusbar</text>
</a>
</g>
<!-- Node9&#45;&gt;Node20 -->
<g id="edge44" class="edge"><title>Node9&#45;&gt;Node20</title>
<path fill="none" stroke="midnightblue" d="M256.149,-591.447C275.09,-589.491 295.144,-587.42 312.912,-585.585"/>
<polygon fill="midnightblue" stroke="midnightblue" points="255.653,-587.979 246.065,-592.488 256.372,-594.942 255.653,-587.979"/>
</g>
<!-- Node21 -->
<g id="node44" class="node"><title>Node21</title>
<a xlink:href="classGManager_1_1Statusicons.html" target="_top" xlink:title="Manager for the status icons in the down sidebar.">
<polygon fill="white" stroke="black" points="308.5,-494.5 308.5,-513.5 427.5,-513.5 427.5,-494.5 308.5,-494.5"/>
<text text-anchor="middle" x="368" y="-501.5" font-family="Helvetica,sans-Serif" font-size="10.00">GManager::Statusicons</text>
</a>
</g>
<!-- Node9&#45;&gt;Node21 -->
<g id="edge46" class="edge"><title>Node9&#45;&gt;Node21</title>
<path fill="none" stroke="midnightblue" d="M201.503,-582.522C221.828,-565.258 256.108,-538.534 290,-523 298.261,-519.214 307.381,-516.117 316.367,-513.606"/>
<polygon fill="midnightblue" stroke="midnightblue" points="198.961,-580.093 193.688,-589.282 203.541,-585.387 198.961,-580.093"/>
</g>
<!-- Node22 -->
<g id="node46" class="node"><title>Node22</title>
<a xlink:href="classGManager_1_1Timeslide.html" target="_top" xlink:title="Manager for the Timeslide in the topbar.">
<polygon fill="white" stroke="black" points="313,-304.5 313,-323.5 423,-323.5 423,-304.5 313,-304.5"/>
<text text-anchor="middle" x="368" y="-311.5" font-family="Helvetica,sans-Serif" font-size="10.00">GManager::Timeslide</text>
</a>
</g>
<!-- Node9&#45;&gt;Node22 -->
<g id="edge48" class="edge"><title>Node9&#45;&gt;Node22</title>
<path fill="none" stroke="midnightblue" d="M184.872,-579.523C190.683,-530.27 212.946,-399.921 290,-333 296.549,-327.312 304.538,-323.273 312.862,-320.416"/>
<polygon fill="midnightblue" stroke="midnightblue" points="181.39,-579.17 183.796,-589.488 188.35,-579.922 181.39,-579.17"/>
</g>
<!-- Node23 -->
<g id="node48" class="node"><title>Node23</title>
<a xlink:href="classGManager_1_1TitleLabel.html" target="_top" xlink:title="Updates the top titlelabel, and the down nextsong label in the sidebar.">
<polygon fill="white" stroke="black" points="313,-456.5 313,-475.5 423,-475.5 423,-456.5 313,-456.5"/>
<text text-anchor="middle" x="368" y="-463.5" font-family="Helvetica,sans-Serif" font-size="10.00">GManager::TitleLabel</text>
</a>
</g>
<!-- Node9&#45;&gt;Node23 -->
<g id="edge50" class="edge"><title>Node9&#45;&gt;Node23</title>
<path fill="none" stroke="midnightblue" d="M194.832,-580.931C212.455,-555.507 248.062,-509.543 290,-485 297.011,-480.897 304.881,-477.676 312.84,-475.148"/>
<polygon fill="midnightblue" stroke="midnightblue" points="191.88,-579.048 189.174,-589.291 197.677,-582.971 191.88,-579.048"/>
</g>
<!-- Node24 -->
<g id="node50" class="node"><title>Node24</title>
<a xlink:href="classGManager_1_1Trayicon.html" target="_top" xlink:title="Manager for the trayicon.">
<polygon fill="white" stroke="black" points="315.5,-114.5 315.5,-133.5 420.5,-133.5 420.5,-114.5 315.5,-114.5"/>
<text text-anchor="middle" x="368" y="-121.5" font-family="Helvetica,sans-Serif" font-size="10.00">GManager::Trayicon</text>
</a>
</g>
<!-- Node9&#45;&gt;Node24 -->
<g id="edge52" class="edge"><title>Node9&#45;&gt;Node24</title>
<path fill="none" stroke="midnightblue" d="M189.373,-579.57C202.791,-538.129 234.333,-437.836 254,-352 275.051,-260.124 225.77,-211.984 290,-143 296.756,-135.744 305.802,-131.067 315.316,-128.092"/>
<polygon fill="midnightblue" stroke="midnightblue" points="186,-578.626 186.231,-589.218 192.656,-580.793 186,-578.626"/>
</g>
<!-- Node25 -->
<g id="node52" class="node"><title>Node25</title>
<a xlink:href="classGManager_1_1VolumeSlider.html" target="_top" xlink:title="Manages the VolumeSlider.">
<polygon fill="white" stroke="black" points="305.5,-342.5 305.5,-361.5 430.5,-361.5 430.5,-342.5 305.5,-342.5"/>
<text text-anchor="middle" x="368" y="-349.5" font-family="Helvetica,sans-Serif" font-size="10.00">GManager::VolumeSlider</text>
</a>
</g>
<!-- Node9&#45;&gt;Node25 -->
<g id="edge54" class="edge"><title>Node9&#45;&gt;Node25</title>
<path fill="none" stroke="midnightblue" d="M186.343,-579.366C194.963,-535.011 222.202,-426.612 290,-371 294.684,-367.158 300.033,-364.075 305.679,-361.604"/>
<polygon fill="midnightblue" stroke="midnightblue" points="182.862,-578.949 184.501,-589.416 189.747,-580.211 182.862,-578.949"/>
</g>
<!-- Node26 -->
<g id="node53" class="node"><title>Node26</title>
<a xlink:href="classMPD_1_1AbstractItemGenerator.html" target="_top" xlink:title="MPD::AbstractItemGenerator">
<polygon fill="white" stroke="black" points="110,-209.5 110,-228.5 254,-228.5 254,-209.5 110,-209.5"/>
<text text-anchor="middle" x="182" y="-216.5" font-family="Helvetica,sans-Serif" font-size="10.00">MPD::AbstractItemGenerator</text>
</a>
</g>
<!-- Node26&#45;&gt;Node10 -->
<g id="edge56" class="edge"><title>Node26&#45;&gt;Node10</title>
<path fill="none" stroke="midnightblue" d="M250.662,-234.607C251.836,-235.668 252.951,-236.798 254,-238 337.944,-334.197 205.119,-427.629 290,-523 293.753,-527.217 298.279,-530.571 303.234,-533.229"/>
<polygon fill="midnightblue" stroke="midnightblue" points="252.345,-231.507 242.174,-228.54 248.275,-237.202 252.345,-231.507"/>
</g>
<!-- Node27 -->
<g id="node56" class="node"><title>Node27</title>
<a xlink:href="classMPD_1_1Client.html" target="_top" xlink:title="The client implements concrete commands of the MPD Protocol.">
<polygon fill="white" stroke="black" points="332.5,-152.5 332.5,-171.5 403.5,-171.5 403.5,-152.5 332.5,-152.5"/>
<text text-anchor="middle" x="368" y="-159.5" font-family="Helvetica,sans-Serif" font-size="10.00">MPD::Client</text>
</a>
</g>
<!-- Node26&#45;&gt;Node27 -->
<g id="edge58" class="edge"><title>Node26&#45;&gt;Node27</title>
<path fill="none" stroke="midnightblue" d="M217.237,-205.863C238.097,-198.104 265.388,-188.387 290,-181 303.715,-176.884 318.995,-172.976 332.304,-169.787"/>
<polygon fill="midnightblue" stroke="midnightblue" points="215.981,-202.596 207.847,-209.385 218.439,-209.15 215.981,-202.596"/>
</g>
<!-- Node28 -->
<g id="node57" class="node"><title>Node28</title>
<a xlink:href="classMPD_1_1AbstractItemlist.html" target="_top" xlink:title="Inhertit from this class to use MPD::Client&#39;s fill_* methods.">
<polygon fill="white" stroke="black" points="125,-798.5 125,-817.5 239,-817.5 239,-798.5 125,-798.5"/>
<text text-anchor="middle" x="182" y="-805.5" font-family="Helvetica,sans-Serif" font-size="10.00">MPD::AbstractItemlist</text>
</a>
</g>
<!-- Node28&#45;&gt;Node2 -->
<g id="edge60" class="edge"><title>Node28&#45;&gt;Node2</title>
<path fill="none" stroke="midnightblue" d="M206.653,-822.803C227.817,-835.506 260.036,-853.526 290,-865 299.644,-868.693 310.246,-871.853 320.417,-874.475"/>
<polygon fill="midnightblue" stroke="midnightblue" points="208.388,-819.762 198.026,-817.552 204.748,-825.742 208.388,-819.762"/>
</g>
<!-- Node28&#45;&gt;Node5 -->
<g id="edge64" class="edge"><title>Node28&#45;&gt;Node5</title>
<path fill="none" stroke="midnightblue" d="M192.884,-826.983C209.099,-856.179 244.177,-911.783 290,-941 296.037,-944.849 302.799,-947.919 309.741,-950.366"/>
<polygon fill="midnightblue" stroke="midnightblue" points="195.78,-824.979 187.949,-817.844 189.621,-828.306 195.78,-824.979"/>
</g>
<!-- Node28&#45;&gt;Node10 -->
<g id="edge62" class="edge"><title>Node28&#45;&gt;Node10</title>
<path fill="none" stroke="midnightblue" d="M190.168,-788.846C210.998,-733.6 271.224,-576.878 290,-561 294.521,-557.177 299.695,-554.102 305.177,-551.632"/>
<polygon fill="midnightblue" stroke="midnightblue" points="186.793,-787.878 186.552,-798.47 193.346,-790.341 186.793,-787.878"/>
</g>
<!-- Node28&#45;&gt;Node12 -->
<g id="edge66" class="edge"><title>Node28&#45;&gt;Node12</title>
<path fill="none" stroke="midnightblue" d="M249.286,-808C268.897,-808 290.203,-808 309.231,-808"/>
<polygon fill="midnightblue" stroke="midnightblue" points="249.206,-804.5 239.206,-808 249.206,-811.5 249.206,-804.5"/>
</g>
<!-- Node28&#45;&gt;Node13 -->
<g id="edge68" class="edge"><title>Node28&#45;&gt;Node13</title>
<path fill="none" stroke="midnightblue" d="M189.482,-788.746C202.541,-753.007 235.507,-676.465 290,-637 295.353,-633.123 301.405,-630.033 307.707,-627.569"/>
<polygon fill="midnightblue" stroke="midnightblue" points="186.089,-787.846 186.067,-798.441 192.691,-790.172 186.089,-787.846"/>
</g>
<!-- Node29 -->
<g id="node63" class="node"><title>Node29</title>
<a xlink:href="classBrowser_1_1AbstractSettings.html" target="_top" xlink:title="Abstract base class for every Tab in the Settingsbrowser.">
<polygon fill="white" stroke="black" points="116.5,-247.5 116.5,-266.5 247.5,-266.5 247.5,-247.5 116.5,-247.5"/>
<text text-anchor="middle" x="182" y="-254.5" font-family="Helvetica,sans-Serif" font-size="10.00">Browser::AbstractSettings</text>
</a>
</g>
<!-- Node29&#45;&gt;Node13 -->
<g id="edge74" class="edge"><title>Node29&#45;&gt;Node13</title>
<path fill="none" stroke="midnightblue" d="M210.531,-271.896C225.936,-281.742 244.002,-296.125 254,-314 316.327,-425.426 205.119,-503.629 290,-599 293.753,-603.217 298.279,-606.571 303.234,-609.229"/>
<polygon fill="midnightblue" stroke="midnightblue" points="212.214,-268.824 201.849,-266.631 208.584,-274.809 212.214,-268.824"/>
</g>
<!-- Node29&#45;&gt;Node14 -->
<g id="edge76" class="edge"><title>Node29&#45;&gt;Node14</title>
<path fill="none" stroke="midnightblue" d="M257.763,-264.72C271.866,-266.176 286.529,-267.69 300.362,-269.119"/>
<polygon fill="midnightblue" stroke="midnightblue" points="257.919,-261.218 247.613,-263.672 257.2,-268.181 257.919,-261.218"/>
</g>
<!-- Node30 -->
<g id="node65" class="node"><title>Node30</title>
<a xlink:href="classBrowser_1_1SettingsGeneral.html" target="_top" xlink:title="General Settings Tab.">
<polygon fill="white" stroke="black" points="304,-190.5 304,-209.5 432,-209.5 432,-190.5 304,-190.5"/>
<text text-anchor="middle" x="368" y="-197.5" font-family="Helvetica,sans-Serif" font-size="10.00">Browser::SettingsGeneral</text>
</a>
</g>
<!-- Node29&#45;&gt;Node30 -->
<g id="edge70" class="edge"><title>Node29&#45;&gt;Node30</title>
<path fill="none" stroke="midnightblue" d="M234.479,-244.693C241.122,-242.678 247.774,-240.44 254,-238 270.844,-231.398 273.092,-225.437 290,-219 299.651,-215.326 310.256,-212.174 320.428,-209.553"/>
<polygon fill="midnightblue" stroke="midnightblue" points="233.441,-241.35 224.803,-247.485 235.381,-248.075 233.441,-241.35"/>
</g>
<!-- Node31 -->
<g id="node67" class="node"><title>Node31</title>
<a xlink:href="classBrowser_1_1SettingsNetwork.html" target="_top" xlink:title="Network Settings Tab.">
<polygon fill="white" stroke="black" points="302.5,-228.5 302.5,-247.5 433.5,-247.5 433.5,-228.5 302.5,-228.5"/>
<text text-anchor="middle" x="368" y="-235.5" font-family="Helvetica,sans-Serif" font-size="10.00">Browser::SettingsNetwork</text>
</a>
</g>
<!-- Node29&#45;&gt;Node31 -->
<g id="edge72" class="edge"><title>Node29&#45;&gt;Node31</title>
<path fill="none" stroke="midnightblue" d="M257.711,-249.285C272.467,-247.762 287.838,-246.174 302.232,-244.688"/>
<polygon fill="midnightblue" stroke="midnightblue" points="257.2,-245.819 247.613,-250.328 257.919,-252.782 257.2,-245.819"/>
</g>
<!-- Node32 -->
<g id="node70" class="node"><title>Node32</title>
<a xlink:href="classMPD_1_1BaseClient.html" target="_top" xlink:title="The Base to MPD::Client.">
<polygon fill="white" stroke="black" points="135.5,-152.5 135.5,-171.5 228.5,-171.5 228.5,-152.5 135.5,-152.5"/>
<text text-anchor="middle" x="182" y="-159.5" font-family="Helvetica,sans-Serif" font-size="10.00">MPD::BaseClient</text>
</a>
</g>
<!-- Node32&#45;&gt;Node27 -->
<g id="edge78" class="edge"><title>Node32&#45;&gt;Node27</title>
<path fill="none" stroke="midnightblue" d="M239.005,-162C269.411,-162 306.044,-162 332.314,-162"/>
<polygon fill="midnightblue" stroke="midnightblue" points="238.956,-158.5 228.956,-162 238.956,-165.5 238.956,-158.5"/>
</g>
<!-- Node33 -->
<g id="node72" class="node"><title>Node33</title>
<a xlink:href="classBrowser_1_1BasePopup.html" target="_top" xlink:title="A Baseclass for Widgets that want to implement easily popup widgets.">
<polygon fill="white" stroke="black" points="127.5,-57.5 127.5,-76.5 236.5,-76.5 236.5,-57.5 127.5,-57.5"/>
<text text-anchor="middle" x="182" y="-64.5" font-family="Helvetica,sans-Serif" font-size="10.00">Browser::BasePopup</text>
</a>
</g>
<!-- Node33&#45;&gt;Node24 -->
<g id="edge86" class="edge"><title>Node33&#45;&gt;Node24</title>
<path fill="none" stroke="midnightblue" d="M217.237,-80.1373C238.097,-87.896 265.388,-97.6129 290,-105 301.342,-108.404 313.753,-111.665 325.235,-114.495"/>
<polygon fill="midnightblue" stroke="midnightblue" points="218.439,-76.8499 207.847,-76.6154 215.981,-83.4042 218.439,-76.8499"/>
</g>
<!-- Node34 -->
<g id="node74" class="node"><title>Node34</title>
<a xlink:href="classBrowser_1_1DatabasePopup.html" target="_top" xlink:title="The popup that shows up when rightclickin an icon.">
<polygon fill="white" stroke="black" points="304,-0.5 304,-19.5 432,-19.5 432,-0.5 304,-0.5"/>
<text text-anchor="middle" x="368" y="-7.5" font-family="Helvetica,sans-Serif" font-size="10.00">Browser::DatabasePopup</text>
</a>
</g>
<!-- Node33&#45;&gt;Node34 -->
<g id="edge80" class="edge"><title>Node33&#45;&gt;Node34</title>
<path fill="none" stroke="midnightblue" d="M217.237,-53.8627C238.097,-46.104 265.388,-36.3871 290,-29 301.342,-25.596 313.753,-22.3348 325.235,-19.5047"/>
<polygon fill="midnightblue" stroke="midnightblue" points="215.981,-50.5958 207.847,-57.3846 218.439,-57.1501 215.981,-50.5958"/>
</g>
<!-- Node35 -->
<g id="node76" class="node"><title>Node35</title>
<a xlink:href="classBrowser_1_1PlaylistManagerPopup.html" target="_top" xlink:title="The Popup for Browser::PlaylistManager.">
<polygon fill="white" stroke="black" points="290,-76.5 290,-95.5 446,-95.5 446,-76.5 290,-76.5"/>
<text text-anchor="middle" x="368" y="-83.5" font-family="Helvetica,sans-Serif" font-size="10.00">Browser::PlaylistManagerPopup</text>
</a>
</g>
<!-- Node33&#45;&gt;Node35 -->
<g id="edge82" class="edge"><title>Node33&#45;&gt;Node35</title>
<path fill="none" stroke="midnightblue" d="M246.685,-73.5762C260.64,-75.0172 275.558,-76.5576 289.972,-78.046"/>
<polygon fill="midnightblue" stroke="midnightblue" points="247.022,-70.0924 236.715,-72.5467 246.303,-77.0554 247.022,-70.0924"/>
</g>
<!-- Node36 -->
<g id="node78" class="node"><title>Node36</title>
<a xlink:href="classBrowser_1_1QueuePopup.html" target="_top" xlink:title="The Popup for Browser::Queue.">
<polygon fill="white" stroke="black" points="310.5,-38.5 310.5,-57.5 425.5,-57.5 425.5,-38.5 310.5,-38.5"/>
<text text-anchor="middle" x="368" y="-45.5" font-family="Helvetica,sans-Serif" font-size="10.00">Browser::QueuePopup</text>
</a>
</g>
<!-- Node33&#45;&gt;Node36 -->
<g id="edge84" class="edge"><title>Node33&#45;&gt;Node36</title>
<path fill="none" stroke="midnightblue" d="M246.683,-60.4241C267.376,-58.2872 290.188,-55.9317 310.334,-53.8514"/>
<polygon fill="midnightblue" stroke="midnightblue" points="246.303,-56.9446 236.715,-61.4533 247.022,-63.9076 246.303,-56.9446"/>
</g>
<!-- Node37 -->
<g id="node80" class="node"><title>Node37</title>
<a xlink:href="classGtk_1_1DrawingArea.html" target="_top" xlink:title="DrawingArea">
<polygon fill="white" stroke="black" points="0.5,-323.5 0.5,-342.5 73.5,-342.5 73.5,-323.5 0.5,-323.5"/>
<text text-anchor="middle" x="37" y="-330.5" font-family="Helvetica,sans-Serif" font-size="10.00">DrawingArea</text>
</a>
</g>
<!-- Node38 -->
<g id="node82" class="node"><title>Node38</title>
<a xlink:href="classCairoSlider.html" target="_top" xlink:title="CairoSlider">
<polygon fill="white" stroke="black" points="149.5,-323.5 149.5,-342.5 214.5,-342.5 214.5,-323.5 149.5,-323.5"/>
<text text-anchor="middle" x="182" y="-330.5" font-family="Helvetica,sans-Serif" font-size="10.00">CairoSlider</text>
</a>
</g>
<!-- Node37&#45;&gt;Node38 -->
<g id="edge88" class="edge"><title>Node37&#45;&gt;Node38</title>
<path fill="none" stroke="midnightblue" d="M83.8487,-333C105.143,-333 129.937,-333 149.147,-333"/>
<polygon fill="midnightblue" stroke="midnightblue" points="83.7161,-329.5 73.7161,-333 83.716,-336.5 83.7161,-329.5"/>
</g>
<!-- Node38&#45;&gt;Node22 -->
<g id="edge90" class="edge"><title>Node38&#45;&gt;Node22</title>
<path fill="none" stroke="midnightblue" d="M224.919,-328.671C250.954,-325.983 284.686,-322.5 312.748,-319.602"/>
<polygon fill="midnightblue" stroke="midnightblue" points="224.218,-325.225 214.631,-329.734 224.937,-332.188 224.218,-325.225"/>
</g>
<!-- Node38&#45;&gt;Node25 -->
<g id="edge92" class="edge"><title>Node38&#45;&gt;Node25</title>
<path fill="none" stroke="midnightblue" d="M224.739,-337.31C248.54,-339.768 278.818,-342.894 305.317,-345.631"/>
<polygon fill="midnightblue" stroke="midnightblue" points="224.937,-333.812 214.631,-336.266 224.218,-340.775 224.937,-333.812"/>
</g>
<!-- Node39 -->
<g id="node85" class="node"><title>Node39</title>
<a xlink:href="classGtk_1_1Frame.html" target="_top" xlink:title="Frame">
<polygon fill="white" stroke="black" points="160,-1026.5 160,-1045.5 204,-1045.5 204,-1026.5 160,-1026.5"/>
<text text-anchor="middle" x="182" y="-1033.5" font-family="Helvetica,sans-Serif" font-size="10.00">Frame</text>
</a>
</g>
<!-- Node39&#45;&gt;Node5 -->
<g id="edge94" class="edge"><title>Node39&#45;&gt;Node5</title>
<path fill="none" stroke="midnightblue" d="M206.653,-1021.2C227.817,-1008.49 260.036,-990.474 290,-979 299.644,-975.307 310.246,-972.147 320.417,-969.525"/>
<polygon fill="midnightblue" stroke="midnightblue" points="204.748,-1018.26 198.026,-1026.45 208.388,-1024.24 204.748,-1018.26"/>
</g>
<!-- Node39&#45;&gt;Node8 -->
<g id="edge96" class="edge"><title>Node39&#45;&gt;Node8</title>
<path fill="none" stroke="midnightblue" d="M214.168,-1042.44C243.432,-1048.48 287.577,-1057.6 320.91,-1064.48"/>
<polygon fill="midnightblue" stroke="midnightblue" points="214.608,-1038.95 204.107,-1040.36 213.193,-1045.81 214.608,-1038.95"/>
</g>
<!-- Node40 -->
<g id="node88" class="node"><title>Node40</title>
<a xlink:href="classGtk_1_1StatusIcon.html" target="_top" xlink:title="StatusIcon">
<polygon fill="white" stroke="black" points="150,-114.5 150,-133.5 214,-133.5 214,-114.5 150,-114.5"/>
<text text-anchor="middle" x="182" y="-121.5" font-family="Helvetica,sans-Serif" font-size="10.00">StatusIcon</text>
</a>
</g>
<!-- Node40&#45;&gt;Node24 -->
<g id="edge98" class="edge"><title>Node40&#45;&gt;Node24</title>
<path fill="none" stroke="midnightblue" d="M224.458,-124C251.384,-124 286.686,-124 315.421,-124"/>
<polygon fill="midnightblue" stroke="midnightblue" points="224.213,-120.5 214.213,-124 224.213,-127.5 224.213,-120.5"/>
</g>
</g>
</svg>
