<?xml version="1.0" encoding="UTF-8" standalone="no"?>
<!DOCTYPE svg PUBLIC "-//W3C//DTD SVG 1.1//EN"
 "http://www.w3.org/Graphics/SVG/1.1/DTD/svg11.dtd">
<!-- Generated by graphviz version 2.28.0 (20111204.1018)
 -->
<!-- Title: G Pages: 1 -->
<svg width="561pt" height="252pt"
 viewBox="0.00 0.00 561.03 252.00" xmlns="http://www.w3.org/2000/svg" xmlns:xlink="http://www.w3.org/1999/xlink">
<g id="graph1" class="graph" transform="scale(1 1) rotate(0) translate(4 248)">
<title>G</title>
<polygon fill="white" stroke="white" points="-4,5 -4,-248 558.03,-248 558.03,5 -4,5"/>
<!-- Node1 -->
<g id="node1" class="node"><title>Node1</title>
<polygon fill="#bfbfbf" stroke="black" points="237.53,-224.5 237.53,-243.5 344.53,-243.5 344.53,-224.5 237.53,-224.5"/>
<text text-anchor="middle" x="291.03" y="-231.5" font-family="Helvetica,sans-Serif" font-size="10.00">src/MPD/Listener.hh</text>
</g>
<!-- Node2 -->
<g id="node3" class="node"><title>Node2</title>
<polygon fill="white" stroke="#bfbfbf" points="61.0299,-56.5 61.0299,-75.5 131.03,-75.5 131.03,-56.5 61.0299,-56.5"/>
<text text-anchor="middle" x="96.0299" y="-63.5" font-family="Helvetica,sans-Serif" font-size="10.00">mpd/client.h</text>
</g>
<!-- Node1&#45;&gt;Node2 -->
<g id="edge2" class="edge"><title>Node1&#45;&gt;Node2</title>
<path fill="none" stroke="midnightblue" d="M237.316,-232.665C168.566,-228.904 52.558,-210.52 4.02988,-132 -11.1851,-107.382 21.9329,-89.505 52.589,-78.8022"/>
<polygon fill="midnightblue" stroke="midnightblue" points="53.9845,-82.0278 62.3914,-75.5799 51.7985,-75.3779 53.9845,-82.0278"/>
</g>
<!-- Node3 -->
<g id="node5" class="node"><title>Node3</title>
<polygon fill="white" stroke="#bfbfbf" points="387.53,-168.5 387.53,-187.5 460.53,-187.5 460.53,-168.5 387.53,-168.5"/>
<text text-anchor="middle" x="424.03" y="-175.5" font-family="Helvetica,sans-Serif" font-size="10.00">mpd/async.h</text>
</g>
<!-- Node1&#45;&gt;Node3 -->
<g id="edge4" class="edge"><title>Node1&#45;&gt;Node3</title>
<path fill="none" stroke="midnightblue" d="M312.104,-224.444C334.09,-215.517 368.764,-201.439 393.694,-191.317"/>
<polygon fill="midnightblue" stroke="midnightblue" points="395.105,-194.521 403.054,-187.516 392.472,-188.035 395.105,-194.521"/>
</g>
<!-- Node4 -->
<g id="node7" class="node"><title>Node4</title>
<polygon fill="white" stroke="#bfbfbf" points="479.03,-168.5 479.03,-187.5 553.03,-187.5 553.03,-168.5 479.03,-168.5"/>
<text text-anchor="middle" x="516.03" y="-175.5" font-family="Helvetica,sans-Serif" font-size="10.00">mpd/parser.h</text>
</g>
<!-- Node1&#45;&gt;Node4 -->
<g id="edge6" class="edge"><title>Node1&#45;&gt;Node4</title>
<path fill="none" stroke="midnightblue" d="M326.682,-224.444C365.686,-215.083 428.296,-200.056 470.746,-189.868"/>
<polygon fill="midnightblue" stroke="midnightblue" points="471.638,-193.254 480.545,-187.516 470.004,-186.447 471.638,-193.254"/>
</g>
<!-- Node5 -->
<g id="node9" class="node"><title>Node5</title>
<polygon fill="white" stroke="#bfbfbf" points="281.03,-56.5 281.03,-75.5 337.03,-75.5 337.03,-56.5 281.03,-56.5"/>
<text text-anchor="middle" x="309.03" y="-63.5" font-family="Helvetica,sans-Serif" font-size="10.00">glibmm.h</text>
</g>
<!-- Node1&#45;&gt;Node5 -->
<g id="edge8" class="edge"><title>Node1&#45;&gt;Node5</title>
<path fill="none" stroke="midnightblue" d="M296.942,-224.321C308.034,-207.449 331.607,-168.659 340.03,-132 342.02,-123.337 342.67,-120.488 340.03,-112 336.801,-101.622 330.254,-91.5209 324.005,-83.5268"/>
<polygon fill="midnightblue" stroke="midnightblue" points="326.614,-81.1902 317.513,-75.7661 321.245,-85.6818 326.614,-81.1902"/>
</g>
<!-- Node6 -->
<g id="node11" class="node"><title>Node6</title>
<a xlink:href="Status_8hh.html" target="_top" xlink:title="Status.hh">
<polygon fill="white" stroke="black" points="13.5299,-112.5 13.5299,-131.5 72.5299,-131.5 72.5299,-112.5 13.5299,-112.5"/>
<text text-anchor="middle" x="43.0299" y="-119.5" font-family="Helvetica,sans-Serif" font-size="10.00">Status.hh</text>
</a>
</g>
<!-- Node1&#45;&gt;Node6 -->
<g id="edge10" class="edge"><title>Node1&#45;&gt;Node6</title>
<path fill="none" stroke="midnightblue" d="M260.568,-224.478C233.202,-216.406 192.19,-203.269 158.03,-188 124.354,-172.947 87.5995,-151.151 64.9277,-137.027"/>
<polygon fill="midnightblue" stroke="midnightblue" points="66.7314,-134.027 56.4035,-131.664 63.0036,-139.952 66.7314,-134.027"/>
</g>
<!-- Node7 -->
<g id="node14" class="node"><title>Node7</title>
<a xlink:href="NotifyData_8hh.html" target="_top" xlink:title="NotifyData.hh">
<polygon fill="white" stroke="black" points="167.53,-168.5 167.53,-187.5 244.53,-187.5 244.53,-168.5 167.53,-168.5"/>
<text text-anchor="middle" x="206.03" y="-175.5" font-family="Helvetica,sans-Serif" font-size="10.00">NotifyData.hh</text>
</a>
</g>
<!-- Node1&#45;&gt;Node7 -->
<g id="edge14" class="edge"><title>Node1&#45;&gt;Node7</title>
<path fill="none" stroke="midnightblue" d="M277.373,-224.324C264.114,-215.9 243.762,-202.971 228.184,-193.074"/>
<polygon fill="midnightblue" stroke="midnightblue" points="229.97,-190.063 219.653,-187.655 226.217,-195.971 229.97,-190.063"/>
</g>
<!-- Node8 -->
<g id="node16" class="node"><title>Node8</title>
<a xlink:href="Connection_8hh.html" target="_top" xlink:title="Connection.hh">
<polygon fill="white" stroke="black" points="251.03,-112.5 251.03,-131.5 331.03,-131.5 331.03,-112.5 251.03,-112.5"/>
<text text-anchor="middle" x="291.03" y="-119.5" font-family="Helvetica,sans-Serif" font-size="10.00">Connection.hh</text>
</a>
</g>
<!-- Node1&#45;&gt;Node8 -->
<g id="edge38" class="edge"><title>Node1&#45;&gt;Node8</title>
<path fill="none" stroke="midnightblue" d="M291.03,-224.368C291.03,-206.617 291.03,-165.666 291.03,-141.597"/>
<polygon fill="midnightblue" stroke="midnightblue" points="294.53,-141.591 291.03,-131.591 287.53,-141.591 294.53,-141.591"/>
</g>
<!-- Node6&#45;&gt;Node2 -->
<g id="edge12" class="edge"><title>Node6&#45;&gt;Node2</title>
<path fill="none" stroke="midnightblue" d="M51.7818,-112.083C59.4996,-104.22 70.9346,-92.5688 80.2464,-83.0813"/>
<polygon fill="midnightblue" stroke="midnightblue" points="82.9341,-85.3396 87.4409,-75.7511 77.9383,-80.4363 82.9341,-85.3396"/>
</g>
<!-- Node7&#45;&gt;Node6 -->
<g id="edge26" class="edge"><title>Node7&#45;&gt;Node6</title>
<path fill="none" stroke="midnightblue" d="M180.202,-168.444C152.781,-159.359 109.252,-144.939 78.5975,-134.783"/>
<polygon fill="midnightblue" stroke="midnightblue" points="79.3302,-131.339 68.7369,-131.516 77.1288,-137.984 79.3302,-131.339"/>
</g>
<!-- Node7&#45;&gt;Node8 -->
<g id="edge16" class="edge"><title>Node7&#45;&gt;Node8</title>
<path fill="none" stroke="midnightblue" d="M219.687,-168.324C232.946,-159.9 253.298,-146.971 268.876,-137.074"/>
<polygon fill="midnightblue" stroke="midnightblue" points="270.843,-139.971 277.407,-131.655 267.09,-134.063 270.843,-139.971"/>
</g>
<!-- Node9 -->
<g id="node20" class="node"><title>Node9</title>
<a xlink:href="Statistics_8hh.html" target="_top" xlink:title="Statistics.hh">
<polygon fill="white" stroke="black" points="90.5299,-112.5 90.5299,-131.5 161.53,-131.5 161.53,-112.5 90.5299,-112.5"/>
<text text-anchor="middle" x="126.03" y="-119.5" font-family="Helvetica,sans-Serif" font-size="10.00">Statistics.hh</text>
</a>
</g>
<!-- Node7&#45;&gt;Node9 -->
<g id="edge22" class="edge"><title>Node7&#45;&gt;Node9</title>
<path fill="none" stroke="midnightblue" d="M193.176,-168.324C180.814,-159.979 161.9,-147.212 147.293,-137.352"/>
<polygon fill="midnightblue" stroke="midnightblue" points="149.098,-134.348 138.851,-131.655 145.182,-140.15 149.098,-134.348"/>
</g>
<!-- Node10 -->
<g id="node24" class="node"><title>Node10</title>
<a xlink:href="Song_8hh.html" target="_top" xlink:title="Song.hh">
<polygon fill="white" stroke="black" points="179.53,-112.5 179.53,-131.5 232.53,-131.5 232.53,-112.5 179.53,-112.5"/>
<text text-anchor="middle" x="206.03" y="-119.5" font-family="Helvetica,sans-Serif" font-size="10.00">Song.hh</text>
</a>
</g>
<!-- Node7&#45;&gt;Node10 -->
<g id="edge28" class="edge"><title>Node7&#45;&gt;Node10</title>
<path fill="none" stroke="midnightblue" d="M206.03,-168.083C206.03,-161.006 206.03,-150.861 206.03,-141.986"/>
<polygon fill="midnightblue" stroke="midnightblue" points="209.53,-141.751 206.03,-131.751 202.53,-141.751 209.53,-141.751"/>
</g>
<!-- Node8&#45;&gt;Node2 -->
<g id="edge18" class="edge"><title>Node8&#45;&gt;Node2</title>
<path fill="none" stroke="midnightblue" d="M260.132,-112.444C226.756,-103.201 173.436,-88.4356 136.681,-78.2572"/>
<polygon fill="midnightblue" stroke="midnightblue" points="137.355,-74.8122 126.784,-75.5164 135.487,-81.5583 137.355,-74.8122"/>
</g>
<!-- Node8&#45;&gt;Node5 -->
<g id="edge20" class="edge"><title>Node8&#45;&gt;Node5</title>
<path fill="none" stroke="midnightblue" d="M294.002,-112.083C296.414,-104.849 299.894,-94.4087 302.898,-85.3968"/>
<polygon fill="midnightblue" stroke="midnightblue" points="306.271,-86.3447 306.113,-75.7511 299.63,-84.1311 306.271,-86.3447"/>
</g>
<!-- Node9&#45;&gt;Node2 -->
<g id="edge24" class="edge"><title>Node9&#45;&gt;Node2</title>
<path fill="none" stroke="midnightblue" d="M121.076,-112.083C116.926,-104.613 110.877,-93.7244 105.763,-84.5199"/>
<polygon fill="midnightblue" stroke="midnightblue" points="108.808,-82.7929 100.892,-75.7511 102.689,-86.1924 108.808,-82.7929"/>
</g>
<!-- Node10&#45;&gt;Node2 -->
<g id="edge30" class="edge"><title>Node10&#45;&gt;Node2</title>
<path fill="none" stroke="midnightblue" d="M188.356,-112.324C170.636,-103.625 143.127,-90.1202 122.741,-80.113"/>
<polygon fill="midnightblue" stroke="midnightblue" points="124.178,-76.9195 113.659,-75.6545 121.094,-83.2031 124.178,-76.9195"/>
</g>
<!-- Node10&#45;&gt;Node5 -->
<g id="edge36" class="edge"><title>Node10&#45;&gt;Node5</title>
<path fill="none" stroke="midnightblue" d="M222.579,-112.324C239.022,-103.703 264.465,-90.3643 283.498,-80.3855"/>
<polygon fill="midnightblue" stroke="midnightblue" points="285.291,-83.3977 292.522,-75.6545 282.04,-77.198 285.291,-83.3977"/>
</g>
<!-- Node11 -->
<g id="node27" class="node"><title>Node11</title>
<a xlink:href="AbstractComposite_8hh.html" target="_top" xlink:title="AbstractComposite.hh">
<polygon fill="white" stroke="black" points="149.03,-56.5 149.03,-75.5 263.03,-75.5 263.03,-56.5 149.03,-56.5"/>
<text text-anchor="middle" x="206.03" y="-63.5" font-family="Helvetica,sans-Serif" font-size="10.00">AbstractComposite.hh</text>
</a>
</g>
<!-- Node10&#45;&gt;Node11 -->
<g id="edge32" class="edge"><title>Node10&#45;&gt;Node11</title>
<path fill="none" stroke="midnightblue" d="M206.03,-112.083C206.03,-105.006 206.03,-94.8611 206.03,-85.9865"/>
<polygon fill="midnightblue" stroke="midnightblue" points="209.53,-85.751 206.03,-75.7511 202.53,-85.7511 209.53,-85.751"/>
</g>
<!-- Node12 -->
<g id="node29" class="node"><title>Node12</title>
<polygon fill="white" stroke="#bfbfbf" points="184.03,-0.5 184.03,-19.5 228.03,-19.5 228.03,-0.5 184.03,-0.5"/>
<text text-anchor="middle" x="206.03" y="-7.5" font-family="Helvetica,sans-Serif" font-size="10.00">vector</text>
</g>
<!-- Node11&#45;&gt;Node12 -->
<g id="edge34" class="edge"><title>Node11&#45;&gt;Node12</title>
<path fill="none" stroke="midnightblue" d="M206.03,-56.083C206.03,-49.0059 206.03,-38.8611 206.03,-29.9865"/>
<polygon fill="midnightblue" stroke="midnightblue" points="209.53,-29.751 206.03,-19.7511 202.53,-29.7511 209.53,-29.751"/>
</g>
</g>
</svg>
