<?xml version="1.0" encoding="UTF-8" standalone="no"?>
<!DOCTYPE svg PUBLIC "-//W3C//DTD SVG 1.1//EN"
 "http://www.w3.org/Graphics/SVG/1.1/DTD/svg11.dtd">
<!-- Generated by graphviz version 2.28.0 (20111204.1018)
 -->
<!-- Title: G Pages: 1 -->
<svg width="3235pt" height="364pt"
 viewBox="0.00 0.00 3234.56 364.00" xmlns="http://www.w3.org/2000/svg" xmlns:xlink="http://www.w3.org/1999/xlink">
<g id="graph1" class="graph" transform="scale(1 1) rotate(0) translate(4 360)">
<title>G</title>
<polygon fill="white" stroke="white" points="-4,5 -4,-360 3231.56,-360 3231.56,5 -4,5"/>
<!-- Node1 -->
<g id="node1" class="node"><title>Node1</title>
<polygon fill="#bfbfbf" stroke="black" points="1169.5,-336.5 1169.5,-355.5 1276.5,-355.5 1276.5,-336.5 1169.5,-336.5"/>
<text text-anchor="middle" x="1223" y="-343.5" font-family="Helvetica,sans-Serif" font-size="10.00">src/MPD/Listener.hh</text>
</g>
<!-- Node2 -->
<g id="node3" class="node"><title>Node2</title>
<a xlink:href="BaseClient_8hh.html" target="_top" xlink:title="src/MPD/BaseClient.hh">
<polygon fill="white" stroke="black" points="1163,-280.5 1163,-299.5 1283,-299.5 1283,-280.5 1163,-280.5"/>
<text text-anchor="middle" x="1223" y="-287.5" font-family="Helvetica,sans-Serif" font-size="10.00">src/MPD/BaseClient.hh</text>
</a>
</g>
<!-- Node1&#45;&gt;Node2 -->
<g id="edge2" class="edge"><title>Node1&#45;&gt;Node2</title>
<path fill="none" stroke="midnightblue" d="M1223,-325.805C1223,-316.91 1223,-306.78 1223,-299.751"/>
<polygon fill="midnightblue" stroke="midnightblue" points="1219.5,-326.083 1223,-336.083 1226.5,-326.083 1219.5,-326.083"/>
</g>
<!-- Node3 -->
<g id="node5" class="node"><title>Node3</title>
<a xlink:href="Client_8hh.html" target="_top" xlink:title="src/MPD/Client.hh">
<polygon fill="white" stroke="black" points="2028,-224.5 2028,-243.5 2126,-243.5 2126,-224.5 2028,-224.5"/>
<text text-anchor="middle" x="2077" y="-231.5" font-family="Helvetica,sans-Serif" font-size="10.00">src/MPD/Client.hh</text>
</a>
</g>
<!-- Node2&#45;&gt;Node3 -->
<g id="edge4" class="edge"><title>Node2&#45;&gt;Node3</title>
<path fill="none" stroke="midnightblue" d="M1293.28,-284.556C1461.46,-273.922 1883.82,-247.215 2027.93,-238.103"/>
<polygon fill="midnightblue" stroke="midnightblue" points="1292.81,-281.079 1283.05,-285.203 1293.25,-288.065 1292.81,-281.079"/>
</g>
<!-- Node28 -->
<g id="node76" class="node"><title>Node28</title>
<a xlink:href="AbstractClientExtension_8hh.html" target="_top" xlink:title="src/MPD/AbstractClientExtension.hh">
<polygon fill="white" stroke="black" points="305,-224.5 305,-243.5 483,-243.5 483,-224.5 305,-224.5"/>
<text text-anchor="middle" x="394" y="-231.5" font-family="Helvetica,sans-Serif" font-size="10.00">src/MPD/AbstractClientExtension.hh</text>
</a>
</g>
<!-- Node2&#45;&gt;Node28 -->
<g id="edge96" class="edge"><title>Node2&#45;&gt;Node28</title>
<path fill="none" stroke="midnightblue" d="M1152.67,-284.419C1002.2,-274.618 649.308,-251.63 483.3,-240.817"/>
<polygon fill="midnightblue" stroke="midnightblue" points="1152.51,-287.915 1162.71,-285.073 1152.96,-280.93 1152.51,-287.915"/>
</g>
<!-- Node4 -->
<g id="node7" class="node"><title>Node4</title>
<a xlink:href="AbstractClientUser_8hh.html" target="_top" xlink:title="src/MPD/AbstractClientUser.hh">
<polygon fill="white" stroke="black" points="1825.5,-168.5 1825.5,-187.5 1980.5,-187.5 1980.5,-168.5 1825.5,-168.5"/>
<text text-anchor="middle" x="1903" y="-175.5" font-family="Helvetica,sans-Serif" font-size="10.00">src/MPD/AbstractClientUser.hh</text>
</a>
</g>
<!-- Node3&#45;&gt;Node4 -->
<g id="edge6" class="edge"><title>Node3&#45;&gt;Node4</title>
<path fill="none" stroke="midnightblue" d="M2039.74,-221.436C2006.93,-211.255 1959.92,-196.664 1930.44,-187.516"/>
<polygon fill="midnightblue" stroke="midnightblue" points="2038.84,-224.822 2049.43,-224.444 2040.92,-218.137 2038.84,-224.822"/>
</g>
<!-- Node5 -->
<g id="node9" class="node"><title>Node5</title>
<a xlink:href="Database_8hh.html" target="_top" xlink:title="src/Browser/Database/Database.hh">
<polygon fill="white" stroke="black" points="3040.5,-112.5 3040.5,-131.5 3213.5,-131.5 3213.5,-112.5 3040.5,-112.5"/>
<text text-anchor="middle" x="3127" y="-119.5" font-family="Helvetica,sans-Serif" font-size="10.00">src/Browser/Database/Database.hh</text>
</a>
</g>
<!-- Node3&#45;&gt;Node5 -->
<g id="edge64" class="edge"><title>Node3&#45;&gt;Node5</title>
<path fill="none" stroke="midnightblue" d="M2136.24,-228.775C2234.57,-221.587 2437.61,-205.994 2609,-188 2774.41,-170.634 2968.84,-144.767 3065.69,-131.508"/>
<polygon fill="midnightblue" stroke="midnightblue" points="2135.92,-225.289 2126.2,-229.506 2136.43,-232.27 2135.92,-225.289"/>
</g>
<!-- Node7 -->
<g id="node13" class="node"><title>Node7</title>
<a xlink:href="PlaylistManager_8hh.html" target="_top" xlink:title="src/Browser/PlaylistManager/PlaylistManager.hh">
<polygon fill="white" stroke="black" points="280,-112.5 280,-131.5 508,-131.5 508,-112.5 280,-112.5"/>
<text text-anchor="middle" x="394" y="-119.5" font-family="Helvetica,sans-Serif" font-size="10.00">src/Browser/PlaylistManager/PlaylistManager.hh</text>
</a>
</g>
<!-- Node3&#45;&gt;Node7 -->
<g id="edge66" class="edge"><title>Node3&#45;&gt;Node7</title>
<path fill="none" stroke="midnightblue" d="M2017.85,-231.993C1797.47,-228.077 1024.26,-212.844 779,-188 652.042,-175.139 503.616,-146.045 433.946,-131.546"/>
<polygon fill="midnightblue" stroke="midnightblue" points="2017.86,-235.493 2027.92,-232.17 2017.98,-228.494 2017.86,-235.493"/>
</g>
<!-- Node8 -->
<g id="node15" class="node"><title>Node8</title>
<a xlink:href="PlaylistAddDialog_8hh.html" target="_top" xlink:title="src/Browser/Queue/PlaylistAddDialog.hh">
<polygon fill="white" stroke="black" points="972,-112.5 972,-131.5 1166,-131.5 1166,-112.5 972,-112.5"/>
<text text-anchor="middle" x="1069" y="-119.5" font-family="Helvetica,sans-Serif" font-size="10.00">src/Browser/Queue/PlaylistAddDialog.hh</text>
</a>
</g>
<!-- Node3&#45;&gt;Node8 -->
<g id="edge68" class="edge"><title>Node3&#45;&gt;Node8</title>
<path fill="none" stroke="midnightblue" d="M2017.52,-226.509C1844.58,-207.636 1341.86,-152.777 1147.24,-131.538"/>
<polygon fill="midnightblue" stroke="midnightblue" points="2017.38,-230.014 2027.7,-227.62 2018.14,-223.056 2017.38,-230.014"/>
</g>
<!-- Node9 -->
<g id="node17" class="node"><title>Node9</title>
<a xlink:href="Queue_8hh.html" target="_top" xlink:title="src/Browser/Queue/Queue.hh">
<polygon fill="white" stroke="black" points="1140,-56.5 1140,-75.5 1286,-75.5 1286,-56.5 1140,-56.5"/>
<text text-anchor="middle" x="1213" y="-63.5" font-family="Helvetica,sans-Serif" font-size="10.00">src/Browser/Queue/Queue.hh</text>
</a>
</g>
<!-- Node3&#45;&gt;Node9 -->
<g id="edge70" class="edge"><title>Node3&#45;&gt;Node9</title>
<path fill="none" stroke="midnightblue" d="M2017.69,-232.229C1797.23,-228.753 1033.94,-211.053 963,-132 957.063,-125.384 957.298,-118.819 963,-112 985.205,-85.4409 1074.2,-74.5331 1139.72,-70.0685"/>
<polygon fill="midnightblue" stroke="midnightblue" points="2017.72,-235.73 2027.78,-232.384 2017.83,-228.731 2017.72,-235.73"/>
</g>
<!-- Node11 -->
<g id="node23" class="node"><title>Node11</title>
<a xlink:href="SettingsPlayback_8hh.html" target="_top" xlink:title="src/Browser/Settings/SettingsPlayback.hh">
<polygon fill="white" stroke="black" points="714.5,-112.5 714.5,-131.5 915.5,-131.5 915.5,-112.5 714.5,-112.5"/>
<text text-anchor="middle" x="815" y="-119.5" font-family="Helvetica,sans-Serif" font-size="10.00">src/Browser/Settings/SettingsPlayback.hh</text>
</a>
</g>
<!-- Node3&#45;&gt;Node11 -->
<g id="edge72" class="edge"><title>Node3&#45;&gt;Node11</title>
<path fill="none" stroke="midnightblue" d="M2017.58,-232.307C1797.33,-229.515 1034.79,-217.773 930,-188 888.306,-176.153 845.494,-146.37 825.94,-131.592"/>
<polygon fill="midnightblue" stroke="midnightblue" points="2017.61,-235.808 2027.66,-232.434 2017.7,-228.808 2017.61,-235.808"/>
</g>
<!-- Node13 -->
<g id="node27" class="node"><title>Node13</title>
<a xlink:href="Trayicon_8hh.html" target="_top" xlink:title="src/GManager/Trayicon.hh">
<polygon fill="white" stroke="black" points="564,-112.5 564,-131.5 696,-131.5 696,-112.5 564,-112.5"/>
<text text-anchor="middle" x="630" y="-119.5" font-family="Helvetica,sans-Serif" font-size="10.00">src/GManager/Trayicon.hh</text>
</a>
</g>
<!-- Node3&#45;&gt;Node13 -->
<g id="edge74" class="edge"><title>Node3&#45;&gt;Node13</title>
<path fill="none" stroke="midnightblue" d="M2017.56,-232.469C1807.84,-230.33 1103.2,-220.814 880,-188 796.365,-175.704 700.351,-146.274 655.533,-131.609"/>
<polygon fill="midnightblue" stroke="midnightblue" points="2017.71,-235.971 2027.75,-232.571 2017.78,-228.971 2017.71,-235.971"/>
</g>
<!-- Node15 -->
<g id="node33" class="node"><title>Node15</title>
<a xlink:href="SettingsOutputs_8hh.html" target="_top" xlink:title="src/Browser/Settings/SettingsOutputs.hh">
<polygon fill="white" stroke="black" points="233.5,-56.5 233.5,-75.5 428.5,-75.5 428.5,-56.5 233.5,-56.5"/>
<text text-anchor="middle" x="331" y="-63.5" font-family="Helvetica,sans-Serif" font-size="10.00">src/Browser/Settings/SettingsOutputs.hh</text>
</a>
</g>
<!-- Node3&#45;&gt;Node15 -->
<g id="edge76" class="edge"><title>Node3&#45;&gt;Node15</title>
<path fill="none" stroke="midnightblue" d="M2017.74,-232.624C1721.58,-230.602 412.782,-219.884 333,-188 292.521,-171.823 251.505,-150.99 271,-112 279.443,-95.113 297.571,-82.9191 311.704,-75.5195"/>
<polygon fill="midnightblue" stroke="midnightblue" points="2017.83,-236.125 2027.85,-232.693 2017.87,-229.125 2017.83,-236.125"/>
</g>
<!-- Node17 -->
<g id="node38" class="node"><title>Node17</title>
<a xlink:href="Heartbeat_8hh.html" target="_top" xlink:title="src/GManager/Heartbeat.hh">
<polygon fill="white" stroke="black" points="2014.5,-112.5 2014.5,-131.5 2151.5,-131.5 2151.5,-112.5 2014.5,-112.5"/>
<text text-anchor="middle" x="2083" y="-119.5" font-family="Helvetica,sans-Serif" font-size="10.00">src/GManager/Heartbeat.hh</text>
</a>
</g>
<!-- Node3&#45;&gt;Node17 -->
<g id="edge80" class="edge"><title>Node3&#45;&gt;Node17</title>
<path fill="none" stroke="midnightblue" d="M2078.02,-214.348C2079.33,-190.254 2081.57,-149.308 2082.53,-131.591"/>
<polygon fill="midnightblue" stroke="midnightblue" points="2074.52,-214.193 2077.47,-224.368 2081.51,-214.574 2074.52,-214.193"/>
</g>
<!-- Node18 -->
<g id="node40" class="node"><title>Node18</title>
<a xlink:href="Statusbar_8hh.html" target="_top" xlink:title="src/GManager/Statusbar.hh">
<polygon fill="white" stroke="black" points="2111.5,-56.5 2111.5,-75.5 2248.5,-75.5 2248.5,-56.5 2111.5,-56.5"/>
<text text-anchor="middle" x="2180" y="-63.5" font-family="Helvetica,sans-Serif" font-size="10.00">src/GManager/Statusbar.hh</text>
</a>
</g>
<!-- Node3&#45;&gt;Node18 -->
<g id="edge86" class="edge"><title>Node3&#45;&gt;Node18</title>
<path fill="none" stroke="midnightblue" d="M2136.44,-232.388C2361.03,-229.464 3148.96,-213.433 3222,-132 3227.94,-125.383 3228.15,-118.42 3222,-112 3188.32,-76.8352 2475.43,-68.9935 2248.63,-67.3859"/>
<polygon fill="midnightblue" stroke="midnightblue" points="2136.13,-228.892 2126.17,-232.518 2136.22,-235.891 2136.13,-228.892"/>
</g>
<!-- Node20 -->
<g id="node44" class="node"><title>Node20</title>
<a xlink:href="MenuList_8hh.html" target="_top" xlink:title="src/GManager/MenuList.hh">
<polygon fill="white" stroke="black" points="2208,-112.5 2208,-131.5 2342,-131.5 2342,-112.5 2208,-112.5"/>
<text text-anchor="middle" x="2275" y="-119.5" font-family="Helvetica,sans-Serif" font-size="10.00">src/GManager/MenuList.hh</text>
</a>
</g>
<!-- Node3&#45;&gt;Node20 -->
<g id="edge82" class="edge"><title>Node3&#45;&gt;Node20</title>
<path fill="none" stroke="midnightblue" d="M2084.65,-214.887C2091.75,-200.19 2103.69,-180.004 2120,-168 2145.95,-148.9 2179.87,-137.879 2209.35,-131.533"/>
<polygon fill="midnightblue" stroke="midnightblue" points="2081.27,-213.87 2080.34,-224.424 2087.65,-216.753 2081.27,-213.87"/>
</g>
<!-- Node22 -->
<g id="node48" class="node"><title>Node22</title>
<a xlink:href="PlaybackButtons_8hh.html" target="_top" xlink:title="src/GManager/PlaybackButtons.hh">
<polygon fill="white" stroke="black" points="2360.5,-112.5 2360.5,-131.5 2529.5,-131.5 2529.5,-112.5 2360.5,-112.5"/>
<text text-anchor="middle" x="2445" y="-119.5" font-family="Helvetica,sans-Serif" font-size="10.00">src/GManager/PlaybackButtons.hh</text>
</a>
</g>
<!-- Node3&#45;&gt;Node22 -->
<g id="edge84" class="edge"><title>Node3&#45;&gt;Node22</title>
<path fill="none" stroke="midnightblue" d="M2091.95,-216.889C2107.07,-201.681 2131.88,-179.538 2158,-168 2193.35,-152.387 2289.23,-139.341 2360.5,-131.383"/>
<polygon fill="midnightblue" stroke="midnightblue" points="2089.4,-214.492 2084.98,-224.117 2094.44,-219.354 2089.4,-214.492"/>
</g>
<!-- Node23 -->
<g id="node51" class="node"><title>Node23</title>
<a xlink:href="StatusIcons_8hh.html" target="_top" xlink:title="src/GManager/StatusIcons.hh">
<polygon fill="white" stroke="black" points="2547.5,-112.5 2547.5,-131.5 2694.5,-131.5 2694.5,-112.5 2547.5,-112.5"/>
<text text-anchor="middle" x="2621" y="-119.5" font-family="Helvetica,sans-Serif" font-size="10.00">src/GManager/StatusIcons.hh</text>
</a>
</g>
<!-- Node3&#45;&gt;Node23 -->
<g id="edge88" class="edge"><title>Node3&#45;&gt;Node23</title>
<path fill="none" stroke="midnightblue" d="M2101.8,-219.131C2135.18,-200.511 2190.99,-169.563 2196,-168 2341.9,-122.482 2386.03,-148.238 2538,-132 2541.03,-131.677 2544.12,-131.346 2547.24,-131.011"/>
<polygon fill="midnightblue" stroke="midnightblue" points="2099.66,-216.314 2092.64,-224.245 2103.08,-222.426 2099.66,-216.314"/>
</g>
<!-- Node24 -->
<g id="node54" class="node"><title>Node24</title>
<a xlink:href="TitleLabel_8hh.html" target="_top" xlink:title="src/GManager/TitleLabel.hh">
<polygon fill="white" stroke="black" points="2712.5,-112.5 2712.5,-131.5 2849.5,-131.5 2849.5,-112.5 2712.5,-112.5"/>
<text text-anchor="middle" x="2781" y="-119.5" font-family="Helvetica,sans-Serif" font-size="10.00">src/GManager/TitleLabel.hh</text>
</a>
</g>
<!-- Node3&#45;&gt;Node24 -->
<g id="edge90" class="edge"><title>Node3&#45;&gt;Node24</title>
<path fill="none" stroke="midnightblue" d="M2110.24,-220.95C2133.59,-212.278 2165.46,-200.033 2193,-188 2211.58,-179.882 2214.43,-173.315 2234,-168 2435.75,-113.2 2494.9,-151.985 2703,-132 2705.99,-131.713 2709.03,-131.409 2712.11,-131.093"/>
<polygon fill="midnightblue" stroke="midnightblue" points="2108.96,-217.692 2100.79,-224.437 2111.38,-224.26 2108.96,-217.692"/>
</g>
<!-- Node25 -->
<g id="node56" class="node"><title>Node25</title>
<a xlink:href="Volumebutton_8hh.html" target="_top" xlink:title="src/GManager/Volumebutton.hh">
<polygon fill="white" stroke="black" points="2867.5,-112.5 2867.5,-131.5 3022.5,-131.5 3022.5,-112.5 2867.5,-112.5"/>
<text text-anchor="middle" x="2945" y="-119.5" font-family="Helvetica,sans-Serif" font-size="10.00">src/GManager/Volumebutton.hh</text>
</a>
</g>
<!-- Node3&#45;&gt;Node25 -->
<g id="edge92" class="edge"><title>Node3&#45;&gt;Node25</title>
<path fill="none" stroke="midnightblue" d="M2122.3,-221.842C2152.68,-213.791 2193.33,-201.917 2228,-188 2246.08,-180.743 2248.21,-173.146 2267,-168 2393.9,-133.241 2726.86,-142.772 2858,-132 2861.03,-131.751 2864.11,-131.487 2867.23,-131.21"/>
<polygon fill="midnightblue" stroke="midnightblue" points="2121.2,-218.511 2112.41,-224.423 2122.97,-225.284 2121.2,-218.511"/>
</g>
<!-- Node26 -->
<g id="node65" class="node"><title>Node26</title>
<a xlink:href="StatBrowser_8hh.html" target="_top" xlink:title="src/Browser/Statistics/StatBrowser.hh">
<polygon fill="white" stroke="black" points="2276,-168.5 2276,-187.5 2460,-187.5 2460,-168.5 2276,-168.5"/>
<text text-anchor="middle" x="2368" y="-175.5" font-family="Helvetica,sans-Serif" font-size="10.00">src/Browser/Statistics/StatBrowser.hh</text>
</a>
</g>
<!-- Node3&#45;&gt;Node26 -->
<g id="edge78" class="edge"><title>Node3&#45;&gt;Node26</title>
<path fill="none" stroke="midnightblue" d="M2133.04,-222.601C2188.04,-212.395 2270.9,-197.019 2322.11,-187.516"/>
<polygon fill="midnightblue" stroke="midnightblue" points="2132.3,-219.178 2123.11,-224.444 2133.58,-226.06 2132.3,-219.178"/>
</g>
<!-- Node27 -->
<g id="node74" class="node"><title>Node27</title>
<a xlink:href="check__mpd_8hh.html" target="_top" xlink:title="src/MPD/check_mpd.hh">
<polygon fill="white" stroke="black" points="2478,-168.5 2478,-187.5 2600,-187.5 2600,-168.5 2478,-168.5"/>
<text text-anchor="middle" x="2539" y="-175.5" font-family="Helvetica,sans-Serif" font-size="10.00">src/MPD/check_mpd.hh</text>
</a>
</g>
<!-- Node3&#45;&gt;Node27 -->
<g id="edge94" class="edge"><title>Node3&#45;&gt;Node27</title>
<path fill="none" stroke="midnightblue" d="M2136.19,-226.459C2212.96,-217.915 2351.04,-202.353 2469,-188 2471.92,-187.645 2474.91,-187.277 2477.92,-186.902"/>
<polygon fill="midnightblue" stroke="midnightblue" points="2135.77,-222.983 2126.22,-227.566 2136.55,-229.94 2135.77,-222.983"/>
</g>
<!-- Node4&#45;&gt;Node5 -->
<g id="edge8" class="edge"><title>Node4&#45;&gt;Node5</title>
<path fill="none" stroke="midnightblue" d="M1990.89,-175.097C2180.86,-170.632 2643.84,-157.852 3031,-132 3034.09,-131.794 3037.23,-131.57 3040.41,-131.333"/>
<polygon fill="midnightblue" stroke="midnightblue" points="1990.6,-171.603 1980.69,-175.335 1990.76,-178.601 1990.6,-171.603"/>
</g>
<!-- Node6 -->
<g id="node11" class="node"><title>Node6</title>
<a xlink:href="DatabaseCache_8hh.html" target="_top" xlink:title="src/Browser/Database/DatabaseCache.hh">
<polygon fill="white" stroke="black" points="1386.5,-112.5 1386.5,-131.5 1587.5,-131.5 1587.5,-112.5 1386.5,-112.5"/>
<text text-anchor="middle" x="1487" y="-119.5" font-family="Helvetica,sans-Serif" font-size="10.00">src/Browser/Database/DatabaseCache.hh</text>
</a>
</g>
<!-- Node4&#45;&gt;Node6 -->
<g id="edge10" class="edge"><title>Node4&#45;&gt;Node6</title>
<path fill="none" stroke="midnightblue" d="M1826.77,-167.105C1748.21,-156.907 1627.03,-141.177 1552.61,-131.516"/>
<polygon fill="midnightblue" stroke="midnightblue" points="1826.72,-170.627 1837.08,-168.444 1827.62,-163.685 1826.72,-170.627"/>
</g>
<!-- Node4&#45;&gt;Node7 -->
<g id="edge12" class="edge"><title>Node4&#45;&gt;Node7</title>
<path fill="none" stroke="midnightblue" d="M1815.34,-175.288C1596.85,-170.772 1010.45,-157.121 522,-132 517.439,-131.765 512.788,-131.511 508.09,-131.241"/>
<polygon fill="midnightblue" stroke="midnightblue" points="1815.4,-178.79 1825.47,-175.496 1815.54,-171.791 1815.4,-178.79"/>
</g>
<!-- Node4&#45;&gt;Node8 -->
<g id="edge14" class="edge"><title>Node4&#45;&gt;Node8</title>
<path fill="none" stroke="midnightblue" d="M1815.37,-172.235C1678.58,-164.65 1406.01,-148.945 1175,-132 1172.05,-131.784 1169.06,-131.56 1166.04,-131.329"/>
<polygon fill="midnightblue" stroke="midnightblue" points="1815.21,-175.731 1825.39,-172.789 1815.59,-168.742 1815.21,-175.731"/>
</g>
<!-- Node4&#45;&gt;Node9 -->
<g id="edge18" class="edge"><title>Node4&#45;&gt;Node9</title>
<path fill="none" stroke="midnightblue" d="M1815.23,-173.71C1687.45,-168.204 1456.75,-155.357 1377,-132 1358.68,-126.636 1356.47,-119.673 1339,-112 1305.82,-97.4314 1266.29,-83.9081 1240.47,-75.566"/>
<polygon fill="midnightblue" stroke="midnightblue" points="1815.24,-177.214 1825.38,-174.141 1815.53,-170.22 1815.24,-177.214"/>
</g>
<!-- Node10 -->
<g id="node20" class="node"><title>Node10</title>
<a xlink:href="QueueMerger_8hh.html" target="_top" xlink:title="src/Browser/Queue/QueueMerger.hh">
<polygon fill="white" stroke="black" points="1606,-112.5 1606,-131.5 1782,-131.5 1782,-112.5 1606,-112.5"/>
<text text-anchor="middle" x="1694" y="-119.5" font-family="Helvetica,sans-Serif" font-size="10.00">src/Browser/Queue/QueueMerger.hh</text>
</a>
</g>
<!-- Node4&#45;&gt;Node10 -->
<g id="edge20" class="edge"><title>Node4&#45;&gt;Node10</title>
<path fill="none" stroke="midnightblue" d="M1860.02,-165.894C1820.55,-155.697 1762.9,-140.802 1726.96,-131.516"/>
<polygon fill="midnightblue" stroke="midnightblue" points="1859.33,-169.331 1869.88,-168.444 1861.08,-162.553 1859.33,-169.331"/>
</g>
<!-- Node4&#45;&gt;Node11 -->
<g id="edge24" class="edge"><title>Node4&#45;&gt;Node11</title>
<path fill="none" stroke="midnightblue" d="M1815.12,-173.172C1648.76,-165.841 1276.4,-149.03 963,-132 947.706,-131.169 931.527,-130.238 915.699,-129.299"/>
<polygon fill="midnightblue" stroke="midnightblue" points="1815.15,-176.677 1825.3,-173.62 1815.46,-169.683 1815.15,-176.677"/>
</g>
<!-- Node4&#45;&gt;Node13 -->
<g id="edge28" class="edge"><title>Node4&#45;&gt;Node13</title>
<path fill="none" stroke="midnightblue" d="M1815.38,-176.164C1617.26,-173.736 1119.78,-164.621 705,-132 702.124,-131.774 699.188,-131.52 696.224,-131.245"/>
<polygon fill="midnightblue" stroke="midnightblue" points="1815.39,-179.664 1825.44,-176.284 1815.48,-172.665 1815.39,-179.664"/>
</g>
<!-- Node4&#45;&gt;Node15 -->
<g id="edge36" class="edge"><title>Node4&#45;&gt;Node15</title>
<path fill="none" stroke="midnightblue" d="M1815.27,-176.349C1535.56,-173.957 676.018,-164.054 555,-132 536.551,-127.113 534.856,-118.74 517,-112 472.085,-95.0465 418.614,-82.8946 380.556,-75.5252"/>
<polygon fill="midnightblue" stroke="midnightblue" points="1815.35,-179.85 1825.38,-176.434 1815.41,-172.85 1815.35,-179.85"/>
</g>
<!-- Node16 -->
<g id="node36" class="node"><title>Node16</title>
<a xlink:href="BrowserList_8hh.html" target="_top" xlink:title="src/GManager/BrowserList.hh">
<polygon fill="white" stroke="black" points="1184,-112.5 1184,-131.5 1330,-131.5 1330,-112.5 1184,-112.5"/>
<text text-anchor="middle" x="1257" y="-119.5" font-family="Helvetica,sans-Serif" font-size="10.00">src/GManager/BrowserList.hh</text>
</a>
</g>
<!-- Node4&#45;&gt;Node16 -->
<g id="edge40" class="edge"><title>Node4&#45;&gt;Node16</title>
<path fill="none" stroke="midnightblue" d="M1815.11,-170.547C1704.97,-162.315 1510.41,-147.304 1344,-132 1339.46,-131.583 1334.8,-131.14 1330.09,-130.683"/>
<polygon fill="midnightblue" stroke="midnightblue" points="1814.95,-174.044 1825.18,-171.297 1815.47,-167.063 1814.95,-174.044"/>
</g>
<!-- Node4&#45;&gt;Node17 -->
<g id="edge42" class="edge"><title>Node4&#45;&gt;Node17</title>
<path fill="none" stroke="midnightblue" d="M1941.11,-165.568C1975.06,-155.381 2023.99,-140.703 2054.61,-131.516"/>
<polygon fill="midnightblue" stroke="midnightblue" points="1940.09,-162.218 1931.52,-168.444 1942.11,-168.922 1940.09,-162.218"/>
</g>
<!-- Node4&#45;&gt;Node18 -->
<g id="edge54" class="edge"><title>Node4&#45;&gt;Node18</title>
<path fill="none" stroke="midnightblue" d="M1990.91,-171.324C2055.16,-165.425 2135.21,-153.865 2160,-132 2176.47,-117.473 2179.56,-89.7425 2180.03,-75.6635"/>
<polygon fill="midnightblue" stroke="midnightblue" points="1990.4,-167.855 1980.75,-172.222 1991.02,-174.828 1990.4,-167.855"/>
</g>
<!-- Node19 -->
<g id="node42" class="node"><title>Node19</title>
<a xlink:href="Timeslide_8hh.html" target="_top" xlink:title="src/GManager/Timeslide.hh">
<polygon fill="white" stroke="black" points="1936.5,-56.5 1936.5,-75.5 2073.5,-75.5 2073.5,-56.5 1936.5,-56.5"/>
<text text-anchor="middle" x="2005" y="-63.5" font-family="Helvetica,sans-Serif" font-size="10.00">src/GManager/Timeslide.hh</text>
</a>
</g>
<!-- Node4&#45;&gt;Node19 -->
<g id="edge58" class="edge"><title>Node4&#45;&gt;Node19</title>
<path fill="none" stroke="midnightblue" d="M1927.23,-163.041C1939.78,-155.031 1954.77,-144.159 1966,-132 1982.25,-114.401 1995.1,-88.9727 2001.18,-75.7423"/>
<polygon fill="midnightblue" stroke="midnightblue" points="1925.29,-160.122 1918.61,-168.346 1928.96,-166.083 1925.29,-160.122"/>
</g>
<!-- Node4&#45;&gt;Node20 -->
<g id="edge48" class="edge"><title>Node4&#45;&gt;Node20</title>
<path fill="none" stroke="midnightblue" d="M1972.03,-166.979C2042.3,-156.779 2150.06,-141.137 2216.33,-131.516"/>
<polygon fill="midnightblue" stroke="midnightblue" points="1971.34,-163.543 1961.94,-168.444 1972.34,-170.471 1971.34,-163.543"/>
</g>
<!-- Node21 -->
<g id="node46" class="node"><title>Node21</title>
<a xlink:href="NotifyManager_8hh.html" target="_top" xlink:title="src/GManager/NotifyManager.hh">
<polygon fill="white" stroke="black" points="1800,-112.5 1800,-131.5 1958,-131.5 1958,-112.5 1800,-112.5"/>
<text text-anchor="middle" x="1879" y="-119.5" font-family="Helvetica,sans-Serif" font-size="10.00">src/GManager/NotifyManager.hh</text>
</a>
</g>
<!-- Node4&#45;&gt;Node21 -->
<g id="edge50" class="edge"><title>Node4&#45;&gt;Node21</title>
<path fill="none" stroke="midnightblue" d="M1894.86,-158.69C1890.82,-149.589 1886.12,-139.014 1882.89,-131.751"/>
<polygon fill="midnightblue" stroke="midnightblue" points="1891.78,-160.366 1899.04,-168.083 1898.17,-157.523 1891.78,-160.366"/>
</g>
<!-- Node4&#45;&gt;Node22 -->
<g id="edge52" class="edge"><title>Node4&#45;&gt;Node22</title>
<path fill="none" stroke="midnightblue" d="M1990.62,-168.271C2092.55,-158.115 2259.7,-141.462 2360.35,-131.434"/>
<polygon fill="midnightblue" stroke="midnightblue" points="1990.26,-164.789 1980.66,-169.263 1990.95,-171.754 1990.26,-164.789"/>
</g>
<!-- Node4&#45;&gt;Node23 -->
<g id="edge56" class="edge"><title>Node4&#45;&gt;Node23</title>
<path fill="none" stroke="midnightblue" d="M1990.87,-171.811C2113.5,-164.333 2342.87,-149.487 2538,-132 2541.03,-131.728 2544.12,-131.441 2547.25,-131.141"/>
<polygon fill="midnightblue" stroke="midnightblue" points="1990.56,-168.324 1980.79,-172.424 1990.98,-175.311 1990.56,-168.324"/>
</g>
<!-- Node4&#45;&gt;Node24 -->
<g id="edge60" class="edge"><title>Node4&#45;&gt;Node24</title>
<path fill="none" stroke="midnightblue" d="M1990.95,-173.742C2138.38,-167.903 2444.65,-154.152 2703,-132 2705.99,-131.744 2709.04,-131.465 2712.12,-131.17"/>
<polygon fill="midnightblue" stroke="midnightblue" points="1990.47,-170.258 1980.62,-174.149 1990.75,-177.253 1990.47,-170.258"/>
</g>
<!-- Node4&#45;&gt;Node25 -->
<g id="edge62" class="edge"><title>Node4&#45;&gt;Node25</title>
<path fill="none" stroke="midnightblue" d="M1990.82,-174.507C2159.2,-169.361 2539.07,-155.991 2858,-132 2861.03,-131.772 2864.11,-131.525 2867.23,-131.263"/>
<polygon fill="midnightblue" stroke="midnightblue" points="1990.66,-171.01 1980.77,-174.812 1990.87,-178.007 1990.66,-171.01"/>
</g>
<!-- Node8&#45;&gt;Node9 -->
<g id="edge16" class="edge"><title>Node8&#45;&gt;Node9</title>
<path fill="none" stroke="midnightblue" d="M1101.25,-108.906C1128.32,-98.7536 1166.32,-84.5063 1190.29,-75.5164"/>
<polygon fill="midnightblue" stroke="midnightblue" points="1099.95,-105.655 1091.82,-112.444 1102.41,-112.209 1099.95,-105.655"/>
</g>
<!-- Node10&#45;&gt;Node9 -->
<g id="edge22" class="edge"><title>Node10&#45;&gt;Node9</title>
<path fill="none" stroke="midnightblue" d="M1607.96,-111.341C1516.27,-101.046 1372.64,-84.9222 1286.19,-75.2165"/>
<polygon fill="midnightblue" stroke="midnightblue" points="1607.72,-114.836 1618.05,-112.473 1608.5,-107.879 1607.72,-114.836"/>
</g>
<!-- Node12 -->
<g id="node25" class="node"><title>Node12</title>
<a xlink:href="Settings_8hh.html" target="_top" xlink:title="src/Browser/Settings/Settings.hh">
<polygon fill="white" stroke="black" points="501.5,-0.5 501.5,-19.5 662.5,-19.5 662.5,-0.5 501.5,-0.5"/>
<text text-anchor="middle" x="582" y="-7.5" font-family="Helvetica,sans-Serif" font-size="10.00">src/Browser/Settings/Settings.hh</text>
</a>
</g>
<!-- Node11&#45;&gt;Node12 -->
<g id="edge26" class="edge"><title>Node11&#45;&gt;Node12</title>
<path fill="none" stroke="midnightblue" d="M802.41,-104.127C790.491,-89.3222 771.289,-68.29 750,-56 717.443,-37.2051 676.818,-26.048 643.673,-19.545"/>
<polygon fill="midnightblue" stroke="midnightblue" points="799.945,-106.658 808.844,-112.407 805.472,-102.363 799.945,-106.658"/>
</g>
<!-- Node13&#45;&gt;Node12 -->
<g id="edge34" class="edge"><title>Node13&#45;&gt;Node12</title>
<path fill="none" stroke="midnightblue" d="M582.316,-108.81C565.662,-102.015 548.717,-91.6446 539,-76 526.222,-55.4256 552.336,-31.8443 569.201,-19.52"/>
<polygon fill="midnightblue" stroke="midnightblue" points="581.439,-112.218 592.032,-112.411 583.871,-105.654 581.439,-112.218"/>
</g>
<!-- Node14 -->
<g id="node29" class="node"><title>Node14</title>
<a xlink:href="SettingsGeneral_8hh.html" target="_top" xlink:title="src/Browser/Settings/SettingsGeneral.hh">
<polygon fill="white" stroke="black" points="548,-56.5 548,-75.5 742,-75.5 742,-56.5 548,-56.5"/>
<text text-anchor="middle" x="645" y="-63.5" font-family="Helvetica,sans-Serif" font-size="10.00">src/Browser/Settings/SettingsGeneral.hh</text>
</a>
</g>
<!-- Node13&#45;&gt;Node14 -->
<g id="edge30" class="edge"><title>Node13&#45;&gt;Node14</title>
<path fill="none" stroke="midnightblue" d="M635.168,-102.396C637.677,-93.362 640.573,-82.936 642.569,-75.7511"/>
<polygon fill="midnightblue" stroke="midnightblue" points="631.781,-101.511 632.477,-112.083 638.526,-103.385 631.781,-101.511"/>
</g>
<!-- Node14&#45;&gt;Node12 -->
<g id="edge32" class="edge"><title>Node14&#45;&gt;Node12</title>
<path fill="none" stroke="midnightblue" d="M626.96,-49.5372C615.727,-39.9087 601.681,-27.8694 592.306,-19.8339"/>
<polygon fill="midnightblue" stroke="midnightblue" points="625.008,-52.4734 634.878,-56.324 629.563,-47.1586 625.008,-52.4734"/>
</g>
<!-- Node15&#45;&gt;Node12 -->
<g id="edge38" class="edge"><title>Node15&#45;&gt;Node12</title>
<path fill="none" stroke="midnightblue" d="M380.821,-54.2815C428.253,-44.0769 498.704,-28.9203 542.414,-19.5164"/>
<polygon fill="midnightblue" stroke="midnightblue" points="379.812,-50.9185 370.772,-56.4435 381.284,-57.7619 379.812,-50.9185"/>
</g>
<!-- Node17&#45;&gt;Node18 -->
<g id="edge44" class="edge"><title>Node17&#45;&gt;Node18</title>
<path fill="none" stroke="midnightblue" d="M2107.34,-107.453C2125.24,-97.4835 2149.05,-84.2279 2164.45,-75.6545"/>
<polygon fill="midnightblue" stroke="midnightblue" points="2105.62,-104.402 2098.58,-112.324 2109.02,-110.518 2105.62,-104.402"/>
</g>
<!-- Node17&#45;&gt;Node19 -->
<g id="edge46" class="edge"><title>Node17&#45;&gt;Node19</title>
<path fill="none" stroke="midnightblue" d="M2062.23,-106.622C2047.98,-96.7574 2029.54,-83.9919 2017.5,-75.6545"/>
<polygon fill="midnightblue" stroke="midnightblue" points="2060.25,-109.51 2070.47,-112.324 2064.24,-103.754 2060.25,-109.51"/>
</g>
<!-- Node29 -->
<g id="node78" class="node"><title>Node29</title>
<a xlink:href="Playlist_8hh.html" target="_top" xlink:title="src/MPD/Playlist.hh">
<polygon fill="white" stroke="black" points="342,-168.5 342,-187.5 446,-187.5 446,-168.5 342,-168.5"/>
<text text-anchor="middle" x="394" y="-175.5" font-family="Helvetica,sans-Serif" font-size="10.00">src/MPD/Playlist.hh</text>
</a>
</g>
<!-- Node28&#45;&gt;Node29 -->
<g id="edge98" class="edge"><title>Node28&#45;&gt;Node29</title>
<path fill="none" stroke="midnightblue" d="M394,-213.805C394,-204.91 394,-194.78 394,-187.751"/>
<polygon fill="midnightblue" stroke="midnightblue" points="390.5,-214.083 394,-224.083 397.5,-214.083 390.5,-214.083"/>
</g>
<!-- Node30 -->
<g id="node81" class="node"><title>Node30</title>
<a xlink:href="AudioOutput_8hh.html" target="_top" xlink:title="src/MPD/AudioOutput.hh">
<polygon fill="white" stroke="black" points="74,-168.5 74,-187.5 200,-187.5 200,-168.5 74,-168.5"/>
<text text-anchor="middle" x="137" y="-175.5" font-family="Helvetica,sans-Serif" font-size="10.00">src/MPD/AudioOutput.hh</text>
</a>
</g>
<!-- Node28&#45;&gt;Node30 -->
<g id="edge102" class="edge"><title>Node28&#45;&gt;Node30</title>
<path fill="none" stroke="midnightblue" d="M343.293,-222.346C294.724,-212.141 222.381,-196.94 177.532,-187.516"/>
<polygon fill="midnightblue" stroke="midnightblue" points="342.772,-225.812 353.278,-224.444 344.211,-218.962 342.772,-225.812"/>
</g>
<!-- Node29&#45;&gt;Node7 -->
<g id="edge100" class="edge"><title>Node29&#45;&gt;Node7</title>
<path fill="none" stroke="midnightblue" d="M394,-157.805C394,-148.91 394,-138.78 394,-131.751"/>
<polygon fill="midnightblue" stroke="midnightblue" points="390.5,-158.083 394,-168.083 397.5,-158.083 390.5,-158.083"/>
</g>
<!-- Node31 -->
<g id="node83" class="node"><title>Node31</title>
<a xlink:href="OutputsModelColumns_8hh.html" target="_top" xlink:title="src/Browser/Settings/OutputsModelColumns.hh">
<polygon fill="white" stroke="black" points="0,-112.5 0,-131.5 224,-131.5 224,-112.5 0,-112.5"/>
<text text-anchor="middle" x="112" y="-119.5" font-family="Helvetica,sans-Serif" font-size="10.00">src/Browser/Settings/OutputsModelColumns.hh</text>
</a>
</g>
<!-- Node30&#45;&gt;Node31 -->
<g id="edge104" class="edge"><title>Node30&#45;&gt;Node31</title>
<path fill="none" stroke="midnightblue" d="M128.659,-158.983C124.415,-149.817 119.45,-139.092 116.051,-131.751"/>
<polygon fill="midnightblue" stroke="midnightblue" points="125.494,-160.479 132.872,-168.083 131.847,-157.538 125.494,-160.479"/>
</g>
<!-- Node31&#45;&gt;Node15 -->
<g id="edge106" class="edge"><title>Node31&#45;&gt;Node15</title>
<path fill="none" stroke="midnightblue" d="M156.515,-110.024C197.884,-99.8232 258.643,-84.8414 296.461,-75.5164"/>
<polygon fill="midnightblue" stroke="midnightblue" points="155.572,-106.651 146.701,-112.444 157.248,-113.448 155.572,-106.651"/>
</g>
</g>
</svg>
