<?xml version="1.0" encoding="UTF-8" standalone="no"?>
<!DOCTYPE svg PUBLIC "-//W3C//DTD SVG 1.1//EN"
 "http://www.w3.org/Graphics/SVG/1.1/DTD/svg11.dtd">
<!-- Generated by graphviz version 2.28.0 (20111204.1018)
 -->
<!-- Title: G Pages: 1 -->
<svg width="314pt" height="140pt"
 viewBox="0.00 0.00 314.00 140.00" xmlns="http://www.w3.org/2000/svg" xmlns:xlink="http://www.w3.org/1999/xlink">
<g id="graph1" class="graph" transform="scale(1 1) rotate(0) translate(4 136)">
<title>G</title>
<polygon fill="white" stroke="white" points="-4,5 -4,-136 311,-136 311,5 -4,5"/>
<!-- Node1 -->
<g id="node1" class="node"><title>Node1</title>
<polygon fill="#bfbfbf" stroke="black" points="85,-112.5 85,-131.5 189,-131.5 189,-112.5 85,-112.5"/>
<text text-anchor="middle" x="137" y="-119.5" font-family="Helvetica,sans-Serif" font-size="10.00">src/Config/Model.hh</text>
</g>
<!-- Node2 -->
<g id="node3" class="node"><title>Node2</title>
<polygon fill="white" stroke="#bfbfbf" points="0,-56.5 0,-75.5 80,-75.5 80,-56.5 0,-56.5"/>
<text text-anchor="middle" x="40" y="-63.5" font-family="Helvetica,sans-Serif" font-size="10.00">libxml/parser.h</text>
</g>
<!-- Node1&#45;&gt;Node2 -->
<g id="edge2" class="edge"><title>Node1&#45;&gt;Node2</title>
<path fill="none" stroke="midnightblue" d="M121.415,-112.324C106.001,-103.743 82.1878,-90.486 64.2903,-80.5224"/>
<polygon fill="midnightblue" stroke="midnightblue" points="65.9858,-77.4606 55.5461,-75.6545 62.5809,-83.5767 65.9858,-77.4606"/>
</g>
<!-- Node3 -->
<g id="node5" class="node"><title>Node3</title>
<polygon fill="white" stroke="#bfbfbf" points="98,-56.5 98,-75.5 176,-75.5 176,-56.5 98,-56.5"/>
<text text-anchor="middle" x="137" y="-63.5" font-family="Helvetica,sans-Serif" font-size="10.00">./defaultcfg.inl</text>
</g>
<!-- Node1&#45;&gt;Node3 -->
<g id="edge4" class="edge"><title>Node1&#45;&gt;Node3</title>
<path fill="none" stroke="midnightblue" d="M137,-112.083C137,-105.006 137,-94.8611 137,-85.9865"/>
<polygon fill="midnightblue" stroke="midnightblue" points="140.5,-85.751 137,-75.7511 133.5,-85.7511 140.5,-85.751"/>
</g>
<!-- Node4 -->
<g id="node7" class="node"><title>Node4</title>
<a xlink:href="Path_8hh.html" target="_top" xlink:title="../Init/Path.hh">
<polygon fill="white" stroke="black" points="194,-56.5 194,-75.5 270,-75.5 270,-56.5 194,-56.5"/>
<text text-anchor="middle" x="232" y="-63.5" font-family="Helvetica,sans-Serif" font-size="10.00">../Init/Path.hh</text>
</a>
</g>
<!-- Node1&#45;&gt;Node4 -->
<g id="edge6" class="edge"><title>Node1&#45;&gt;Node4</title>
<path fill="none" stroke="midnightblue" d="M152.263,-112.324C167.221,-103.822 190.255,-90.7288 207.727,-80.7975"/>
<polygon fill="midnightblue" stroke="midnightblue" points="209.81,-83.639 216.774,-75.6545 206.351,-77.5534 209.81,-83.639"/>
</g>
<!-- Node5 -->
<g id="node9" class="node"><title>Node5</title>
<polygon fill="white" stroke="#bfbfbf" points="163,-0.5 163,-19.5 219,-19.5 219,-0.5 163,-0.5"/>
<text text-anchor="middle" x="191" y="-7.5" font-family="Helvetica,sans-Serif" font-size="10.00">glibmm.h</text>
</g>
<!-- Node4&#45;&gt;Node5 -->
<g id="edge8" class="edge"><title>Node4&#45;&gt;Node5</title>
<path fill="none" stroke="midnightblue" d="M225.23,-56.083C219.438,-48.4554 210.942,-37.2645 203.862,-27.9408"/>
<polygon fill="midnightblue" stroke="midnightblue" points="206.479,-25.5991 197.644,-19.7511 200.904,-29.8321 206.479,-25.5991"/>
</g>
<!-- Node6 -->
<g id="node11" class="node"><title>Node6</title>
<polygon fill="white" stroke="#bfbfbf" points="237.5,-0.5 237.5,-19.5 306.5,-19.5 306.5,-0.5 237.5,-0.5"/>
<text text-anchor="middle" x="272" y="-7.5" font-family="Helvetica,sans-Serif" font-size="10.00">glib/gstdio.h</text>
</g>
<!-- Node4&#45;&gt;Node6 -->
<g id="edge10" class="edge"><title>Node4&#45;&gt;Node6</title>
<path fill="none" stroke="midnightblue" d="M238.605,-56.083C244.255,-48.4554 252.545,-37.2645 259.451,-27.9408"/>
<polygon fill="midnightblue" stroke="midnightblue" points="262.378,-29.87 265.518,-19.7511 256.753,-25.7034 262.378,-29.87"/>
</g>
</g>
</svg>
