<?xml version="1.0" encoding="UTF-8" standalone="no"?>
<!DOCTYPE svg PUBLIC "-//W3C//DTD SVG 1.1//EN"
 "http://www.w3.org/Graphics/SVG/1.1/DTD/svg11.dtd">
<!-- Generated by graphviz version 2.28.0 (20120217.0315)
 -->
<!-- Title: G Pages: 1 -->
<svg width="496pt" height="408pt"
 viewBox="0.00 0.00 496.00 408.00" xmlns="http://www.w3.org/2000/svg" xmlns:xlink="http://www.w3.org/1999/xlink">
<g id="graph1" class="graph" transform="scale(1 1) rotate(0) translate(4 404)">
<title>G</title>
<polygon fill="white" stroke="white" points="-4,5 -4,-404 493,-404 493,5 -4,5"/>
<!-- Node1 -->
<g id="node1" class="node"><title>Node1</title>
<polygon fill="#bfbfbf" stroke="black" points="0.5,-190.5 0.5,-209.5 133.5,-209.5 133.5,-190.5 0.5,-190.5"/>
<text text-anchor="middle" x="67" y="-197.5" font-family="Helvetica,sans-Serif" font-size="10.00">Utils::seconds_to_duration</text>
</g>
<!-- Node2 -->
<g id="node3" class="node"><title>Node2</title>
<a xlink:href="classUtilsTestSuite.html#a801c759539deb10cfec2a1a8ac3715cd" target="_top" xlink:title="UtilsTestSuite::testseconds_to_duration_1_year">
<polygon fill="white" stroke="black" points="216,-380.5 216,-399.5 442,-399.5 442,-380.5 216,-380.5"/>
<text text-anchor="middle" x="329" y="-387.5" font-family="Helvetica,sans-Serif" font-size="10.00">UtilsTestSuite::testseconds_to_duration_1_year</text>
</a>
</g>
<!-- Node1&#45;&gt;Node2 -->
<g id="edge2" class="edge"><title>Node1&#45;&gt;Node2</title>
<path fill="none" stroke="midnightblue" d="M73.4811,-219.865C84.7617,-256.627 114.314,-334.809 170,-371 183.668,-379.883 199.428,-385.681 215.59,-389.343"/>
<polygon fill="midnightblue" stroke="midnightblue" points="76.7264,-218.493 70.5582,-209.879 70.0082,-220.459 76.7264,-218.493"/>
</g>
<!-- Node3 -->
<g id="node5" class="node"><title>Node3</title>
<a xlink:href="classUtilsTestSuite.html#acd259549a602afe46a0b877486b3b353" target="_top" xlink:title="UtilsTestSuite::testseconds_to_duration_check_if_always_the_same">
<polygon fill="white" stroke="black" points="170.5,-342.5 170.5,-361.5 487.5,-361.5 487.5,-342.5 170.5,-342.5"/>
<text text-anchor="middle" x="329" y="-349.5" font-family="Helvetica,sans-Serif" font-size="10.00">UtilsTestSuite::testseconds_to_duration_check_if_always_the_same</text>
</a>
</g>
<!-- Node1&#45;&gt;Node3 -->
<g id="edge4" class="edge"><title>Node1&#45;&gt;Node3</title>
<path fill="none" stroke="midnightblue" d="M76.5639,-219.218C91.046,-249.207 123.416,-306.444 170,-333 176.481,-336.694 183.352,-339.821 190.459,-342.458"/>
<polygon fill="midnightblue" stroke="midnightblue" points="79.5906,-217.426 72.1934,-209.841 73.246,-220.384 79.5906,-217.426"/>
</g>
<!-- Node4 -->
<g id="node7" class="node"><title>Node4</title>
<a xlink:href="classUtilsTestSuite.html#a49c0ac263c2326ed76cd1abe1fa99dd1" target="_top" xlink:title="UtilsTestSuite::testseconds_to_duration_1_second">
<polygon fill="white" stroke="black" points="209.5,-304.5 209.5,-323.5 448.5,-323.5 448.5,-304.5 209.5,-304.5"/>
<text text-anchor="middle" x="329" y="-311.5" font-family="Helvetica,sans-Serif" font-size="10.00">UtilsTestSuite::testseconds_to_duration_1_second</text>
</a>
</g>
<!-- Node1&#45;&gt;Node4 -->
<g id="edge6" class="edge"><title>Node1&#45;&gt;Node4</title>
<path fill="none" stroke="midnightblue" d="M80.9626,-217.571C98.4465,-239.787 131.83,-277.273 170,-295 182.278,-300.702 195.645,-304.918 209.233,-308.007"/>
<polygon fill="midnightblue" stroke="midnightblue" points="83.726,-215.423 74.8664,-209.612 78.169,-219.679 83.726,-215.423"/>
</g>
<!-- Node5 -->
<g id="node9" class="node"><title>Node5</title>
<a xlink:href="classUtilsTestSuite.html#ab2ad030e8dc3b65247785e5acd95106d" target="_top" xlink:title="UtilsTestSuite::testseconds_to_duration_0_seconds">
<polygon fill="white" stroke="black" points="207,-266.5 207,-285.5 451,-285.5 451,-266.5 207,-266.5"/>
<text text-anchor="middle" x="329" y="-273.5" font-family="Helvetica,sans-Serif" font-size="10.00">UtilsTestSuite::testseconds_to_duration_0_seconds</text>
</a>
</g>
<!-- Node1&#45;&gt;Node5 -->
<g id="edge8" class="edge"><title>Node1&#45;&gt;Node5</title>
<path fill="none" stroke="midnightblue" d="M89.3877,-215.238C109.272,-228.582 140.224,-247.31 170,-257 181.954,-260.89 194.649,-263.998 207.446,-266.478"/>
<polygon fill="midnightblue" stroke="midnightblue" points="91.3011,-212.306 81.0744,-209.538 87.3426,-218.08 91.3011,-212.306"/>
</g>
<!-- Node6 -->
<g id="node11" class="node"><title>Node6</title>
<a xlink:href="classUtilsTestSuite.html#afdca7e06e525b7ab89c5914f8278cd2a" target="_top" xlink:title="UtilsTestSuite::testseconds_to_duration_1_minutes">
<polygon fill="white" stroke="black" points="208,-228.5 208,-247.5 450,-247.5 450,-228.5 208,-228.5"/>
<text text-anchor="middle" x="329" y="-235.5" font-family="Helvetica,sans-Serif" font-size="10.00">UtilsTestSuite::testseconds_to_duration_1_minutes</text>
</a>
</g>
<!-- Node1&#45;&gt;Node6 -->
<g id="edge10" class="edge"><title>Node1&#45;&gt;Node6</title>
<path fill="none" stroke="midnightblue" d="M125.475,-211.377C139.975,-214.062 155.533,-216.785 170,-219 192.667,-222.47 217.245,-225.688 240.111,-228.451"/>
<polygon fill="midnightblue" stroke="midnightblue" points="126.106,-207.934 115.632,-209.531 124.815,-214.814 126.106,-207.934"/>
</g>
<!-- Node7 -->
<g id="node13" class="node"><title>Node7</title>
<a xlink:href="classUtilsTestSuite.html#a248dd19c4d610170ba4d7f2bca892893" target="_top" xlink:title="UtilsTestSuite::testseconds_to_duration_2_minutes">
<polygon fill="white" stroke="black" points="208,-190.5 208,-209.5 450,-209.5 450,-190.5 208,-190.5"/>
<text text-anchor="middle" x="329" y="-197.5" font-family="Helvetica,sans-Serif" font-size="10.00">UtilsTestSuite::testseconds_to_duration_2_minutes</text>
</a>
</g>
<!-- Node1&#45;&gt;Node7 -->
<g id="edge12" class="edge"><title>Node1&#45;&gt;Node7</title>
<path fill="none" stroke="midnightblue" d="M143.632,-200C163.791,-200 186.077,-200 207.983,-200"/>
<polygon fill="midnightblue" stroke="midnightblue" points="143.609,-196.5 133.609,-200 143.609,-203.5 143.609,-196.5"/>
</g>
<!-- Node8 -->
<g id="node15" class="node"><title>Node8</title>
<a xlink:href="classUtilsTestSuite.html#a4b06d1130c58958aba892f9b488a0357" target="_top" xlink:title="UtilsTestSuite::testseconds_to_duration_1_hour">
<polygon fill="white" stroke="black" points="216,-152.5 216,-171.5 442,-171.5 442,-152.5 216,-152.5"/>
<text text-anchor="middle" x="329" y="-159.5" font-family="Helvetica,sans-Serif" font-size="10.00">UtilsTestSuite::testseconds_to_duration_1_hour</text>
</a>
</g>
<!-- Node1&#45;&gt;Node8 -->
<g id="edge14" class="edge"><title>Node1&#45;&gt;Node8</title>
<path fill="none" stroke="midnightblue" d="M125.475,-188.623C139.975,-185.938 155.533,-183.215 170,-181 192.667,-177.53 217.245,-174.312 240.111,-171.549"/>
<polygon fill="midnightblue" stroke="midnightblue" points="124.815,-185.186 115.632,-190.469 126.106,-192.066 124.815,-185.186"/>
</g>
<!-- Node9 -->
<g id="node17" class="node"><title>Node9</title>
<a xlink:href="classUtilsTestSuite.html#a1d08d432e448c3454fe7ad7510190ce6" target="_top" xlink:title="UtilsTestSuite::testseconds_to_duration_2_hours">
<polygon fill="white" stroke="black" points="213.5,-114.5 213.5,-133.5 444.5,-133.5 444.5,-114.5 213.5,-114.5"/>
<text text-anchor="middle" x="329" y="-121.5" font-family="Helvetica,sans-Serif" font-size="10.00">UtilsTestSuite::testseconds_to_duration_2_hours</text>
</a>
</g>
<!-- Node1&#45;&gt;Node9 -->
<g id="edge16" class="edge"><title>Node1&#45;&gt;Node9</title>
<path fill="none" stroke="midnightblue" d="M89.3877,-184.762C109.272,-171.418 140.224,-152.69 170,-143 183.793,-138.511 198.573,-135.064 213.356,-132.421"/>
<polygon fill="midnightblue" stroke="midnightblue" points="87.3426,-181.92 81.0744,-190.462 91.3011,-187.694 87.3426,-181.92"/>
</g>
<!-- Node10 -->
<g id="node19" class="node"><title>Node10</title>
<a xlink:href="classUtilsTestSuite.html#a86e6e867e6b5c51e748ca422c6361d06" target="_top" xlink:title="UtilsTestSuite::testseconds_to_duration_1_day">
<polygon fill="white" stroke="black" points="217.5,-76.5 217.5,-95.5 440.5,-95.5 440.5,-76.5 217.5,-76.5"/>
<text text-anchor="middle" x="329" y="-83.5" font-family="Helvetica,sans-Serif" font-size="10.00">UtilsTestSuite::testseconds_to_duration_1_day</text>
</a>
</g>
<!-- Node1&#45;&gt;Node10 -->
<g id="edge18" class="edge"><title>Node1&#45;&gt;Node10</title>
<path fill="none" stroke="midnightblue" d="M80.9626,-182.429C98.4465,-160.213 131.83,-122.727 170,-105 184.659,-98.1922 200.869,-93.5036 217.155,-90.3212"/>
<polygon fill="midnightblue" stroke="midnightblue" points="78.169,-180.321 74.8664,-190.388 83.726,-184.577 78.169,-180.321"/>
</g>
<!-- Node11 -->
<g id="node21" class="node"><title>Node11</title>
<a xlink:href="classUtilsTestSuite.html#af35d0a3cb0657dd0b3dd451d60c43d41" target="_top" xlink:title="UtilsTestSuite::testseconds_to_duration_2_days">
<polygon fill="white" stroke="black" points="215,-38.5 215,-57.5 443,-57.5 443,-38.5 215,-38.5"/>
<text text-anchor="middle" x="329" y="-45.5" font-family="Helvetica,sans-Serif" font-size="10.00">UtilsTestSuite::testseconds_to_duration_2_days</text>
</a>
</g>
<!-- Node1&#45;&gt;Node11 -->
<g id="edge20" class="edge"><title>Node1&#45;&gt;Node11</title>
<path fill="none" stroke="midnightblue" d="M76.5639,-180.782C91.046,-150.793 123.416,-93.5558 170,-67 183.681,-59.2008 199.103,-53.9328 214.812,-50.4554"/>
<polygon fill="midnightblue" stroke="midnightblue" points="73.246,-179.616 72.1934,-190.159 79.5906,-182.574 73.246,-179.616"/>
</g>
<!-- Node12 -->
<g id="node23" class="node"><title>Node12</title>
<a xlink:href="classUtilsTestSuite.html#a0058477e12e234d41f5a2dcb8d39b1f6" target="_top" xlink:title="UtilsTestSuite::testseconds_to_duration_2_years">
<polygon fill="white" stroke="black" points="213.5,-0.5 213.5,-19.5 444.5,-19.5 444.5,-0.5 213.5,-0.5"/>
<text text-anchor="middle" x="329" y="-7.5" font-family="Helvetica,sans-Serif" font-size="10.00">UtilsTestSuite::testseconds_to_duration_2_years</text>
</a>
</g>
<!-- Node1&#45;&gt;Node12 -->
<g id="edge22" class="edge"><title>Node1&#45;&gt;Node12</title>
<path fill="none" stroke="midnightblue" d="M73.4811,-180.135C84.7617,-143.373 114.314,-65.1914 170,-29 182.973,-20.5688 197.83,-14.917 213.128,-11.2322"/>
<polygon fill="midnightblue" stroke="midnightblue" points="70.0082,-179.541 70.5582,-190.121 76.7264,-181.507 70.0082,-179.541"/>
</g>
</g>
</svg>
