<?xml version="1.0" encoding="UTF-8" standalone="no"?>
<!DOCTYPE svg PUBLIC "-//W3C//DTD SVG 1.1//EN"
 "http://www.w3.org/Graphics/SVG/1.1/DTD/svg11.dtd">
<!-- Generated by graphviz version 2.28.0 (20111204.1018)
 -->
<!-- Title: G Pages: 1 -->
<svg width="374pt" height="196pt"
 viewBox="0.00 0.00 374.00 196.00" xmlns="http://www.w3.org/2000/svg" xmlns:xlink="http://www.w3.org/1999/xlink">
<g id="graph1" class="graph" transform="scale(1 1) rotate(0) translate(4 192)">
<title>G</title>
<polygon fill="white" stroke="white" points="-4,5 -4,-192 371,-192 371,5 -4,5"/>
<!-- Node1 -->
<g id="node1" class="node"><title>Node1</title>
<polygon fill="#bfbfbf" stroke="black" points="102.5,-168.5 102.5,-187.5 221.5,-187.5 221.5,-168.5 102.5,-168.5"/>
<text text-anchor="middle" x="162" y="-175.5" font-family="Helvetica,sans-Serif" font-size="10.00">src/MPD/NotifyData.hh</text>
</g>
<!-- Node2 -->
<g id="node3" class="node"><title>Node2</title>
<a xlink:href="Connection_8hh.html" target="_top" xlink:title="Connection.hh">
<polygon fill="white" stroke="black" points="166,-112.5 166,-131.5 246,-131.5 246,-112.5 166,-112.5"/>
<text text-anchor="middle" x="206" y="-119.5" font-family="Helvetica,sans-Serif" font-size="10.00">Connection.hh</text>
</a>
</g>
<!-- Node1&#45;&gt;Node2 -->
<g id="edge2" class="edge"><title>Node1&#45;&gt;Node2</title>
<path fill="none" stroke="midnightblue" d="M169.266,-168.083C175.545,-160.377 184.788,-149.033 192.431,-139.653"/>
<polygon fill="midnightblue" stroke="midnightblue" points="195.266,-141.714 198.869,-131.751 189.839,-137.293 195.266,-141.714"/>
</g>
<!-- Node5 -->
<g id="node9" class="node"><title>Node5</title>
<a xlink:href="Statistics_8hh.html" target="_top" xlink:title="Statistics.hh">
<polygon fill="white" stroke="black" points="-0.5,-112.5 -0.5,-131.5 70.5,-131.5 70.5,-112.5 -0.5,-112.5"/>
<text text-anchor="middle" x="35" y="-119.5" font-family="Helvetica,sans-Serif" font-size="10.00">Statistics.hh</text>
</a>
</g>
<!-- Node1&#45;&gt;Node5 -->
<g id="edge8" class="edge"><title>Node1&#45;&gt;Node5</title>
<path fill="none" stroke="midnightblue" d="M141.876,-168.444C120.976,-159.557 88.0653,-145.563 64.2839,-135.451"/>
<polygon fill="midnightblue" stroke="midnightblue" points="65.6016,-132.208 55.0294,-131.516 62.8625,-138.65 65.6016,-132.208"/>
</g>
<!-- Node6 -->
<g id="node12" class="node"><title>Node6</title>
<a xlink:href="Status_8hh.html" target="_top" xlink:title="Status.hh">
<polygon fill="white" stroke="black" points="88.5,-112.5 88.5,-131.5 147.5,-131.5 147.5,-112.5 88.5,-112.5"/>
<text text-anchor="middle" x="118" y="-119.5" font-family="Helvetica,sans-Serif" font-size="10.00">Status.hh</text>
</a>
</g>
<!-- Node1&#45;&gt;Node6 -->
<g id="edge12" class="edge"><title>Node1&#45;&gt;Node6</title>
<path fill="none" stroke="midnightblue" d="M154.734,-168.083C148.455,-160.377 139.212,-149.033 131.569,-139.653"/>
<polygon fill="midnightblue" stroke="midnightblue" points="134.161,-137.293 125.131,-131.751 128.734,-141.714 134.161,-137.293"/>
</g>
<!-- Node7 -->
<g id="node15" class="node"><title>Node7</title>
<a xlink:href="Song_8hh.html" target="_top" xlink:title="Song.hh">
<polygon fill="white" stroke="black" points="264.5,-112.5 264.5,-131.5 317.5,-131.5 317.5,-112.5 264.5,-112.5"/>
<text text-anchor="middle" x="291" y="-119.5" font-family="Helvetica,sans-Serif" font-size="10.00">Song.hh</text>
</a>
</g>
<!-- Node1&#45;&gt;Node7 -->
<g id="edge16" class="edge"><title>Node1&#45;&gt;Node7</title>
<path fill="none" stroke="midnightblue" d="M182.44,-168.444C203.67,-159.557 237.099,-145.563 261.255,-135.451"/>
<polygon fill="midnightblue" stroke="midnightblue" points="262.782,-138.606 270.655,-131.516 260.079,-132.149 262.782,-138.606"/>
</g>
<!-- Node3 -->
<g id="node5" class="node"><title>Node3</title>
<polygon fill="white" stroke="#bfbfbf" points="86,-56.5 86,-75.5 156,-75.5 156,-56.5 86,-56.5"/>
<text text-anchor="middle" x="121" y="-63.5" font-family="Helvetica,sans-Serif" font-size="10.00">mpd/client.h</text>
</g>
<!-- Node2&#45;&gt;Node3 -->
<g id="edge4" class="edge"><title>Node2&#45;&gt;Node3</title>
<path fill="none" stroke="midnightblue" d="M192.343,-112.324C179.084,-103.9 158.732,-90.9709 143.154,-81.0741"/>
<polygon fill="midnightblue" stroke="midnightblue" points="144.94,-78.0626 134.623,-75.6545 141.187,-83.9711 144.94,-78.0626"/>
</g>
<!-- Node4 -->
<g id="node7" class="node"><title>Node4</title>
<polygon fill="white" stroke="#bfbfbf" points="178,-56.5 178,-75.5 234,-75.5 234,-56.5 178,-56.5"/>
<text text-anchor="middle" x="206" y="-63.5" font-family="Helvetica,sans-Serif" font-size="10.00">glibmm.h</text>
</g>
<!-- Node2&#45;&gt;Node4 -->
<g id="edge6" class="edge"><title>Node2&#45;&gt;Node4</title>
<path fill="none" stroke="midnightblue" d="M206,-112.083C206,-105.006 206,-94.8611 206,-85.9865"/>
<polygon fill="midnightblue" stroke="midnightblue" points="209.5,-85.751 206,-75.7511 202.5,-85.7511 209.5,-85.751"/>
</g>
<!-- Node5&#45;&gt;Node3 -->
<g id="edge10" class="edge"><title>Node5&#45;&gt;Node3</title>
<path fill="none" stroke="midnightblue" d="M48.8174,-112.324C62.233,-103.9 82.8241,-90.9709 98.5856,-81.0741"/>
<polygon fill="midnightblue" stroke="midnightblue" points="100.609,-83.9364 107.217,-75.6545 96.8868,-78.0081 100.609,-83.9364"/>
</g>
<!-- Node6&#45;&gt;Node3 -->
<g id="edge14" class="edge"><title>Node6&#45;&gt;Node3</title>
<path fill="none" stroke="midnightblue" d="M118.495,-112.083C118.889,-105.006 119.452,-94.8611 119.945,-85.9865"/>
<polygon fill="midnightblue" stroke="midnightblue" points="123.454,-85.9299 120.514,-75.7511 116.464,-85.5415 123.454,-85.9299"/>
</g>
<!-- Node7&#45;&gt;Node3 -->
<g id="edge18" class="edge"><title>Node7&#45;&gt;Node3</title>
<path fill="none" stroke="midnightblue" d="M264.438,-112.562C235.788,-103.462 189.97,-88.9083 157.847,-78.7042"/>
<polygon fill="midnightblue" stroke="midnightblue" points="158.527,-75.2482 147.937,-75.5565 156.408,-81.9197 158.527,-75.2482"/>
</g>
<!-- Node7&#45;&gt;Node4 -->
<g id="edge24" class="edge"><title>Node7&#45;&gt;Node4</title>
<path fill="none" stroke="midnightblue" d="M277.343,-112.324C264.084,-103.9 243.732,-90.9709 228.154,-81.0741"/>
<polygon fill="midnightblue" stroke="midnightblue" points="229.94,-78.0626 219.623,-75.6545 226.187,-83.9711 229.94,-78.0626"/>
</g>
<!-- Node8 -->
<g id="node18" class="node"><title>Node8</title>
<a xlink:href="AbstractComposite_8hh.html" target="_top" xlink:title="AbstractComposite.hh">
<polygon fill="white" stroke="black" points="252,-56.5 252,-75.5 366,-75.5 366,-56.5 252,-56.5"/>
<text text-anchor="middle" x="309" y="-63.5" font-family="Helvetica,sans-Serif" font-size="10.00">AbstractComposite.hh</text>
</a>
</g>
<!-- Node7&#45;&gt;Node8 -->
<g id="edge20" class="edge"><title>Node7&#45;&gt;Node8</title>
<path fill="none" stroke="midnightblue" d="M293.972,-112.083C296.384,-104.849 299.864,-94.4087 302.868,-85.3968"/>
<polygon fill="midnightblue" stroke="midnightblue" points="306.241,-86.3447 306.083,-75.7511 299.6,-84.1311 306.241,-86.3447"/>
</g>
<!-- Node9 -->
<g id="node20" class="node"><title>Node9</title>
<polygon fill="white" stroke="#bfbfbf" points="287,-0.5 287,-19.5 331,-19.5 331,-0.5 287,-0.5"/>
<text text-anchor="middle" x="309" y="-7.5" font-family="Helvetica,sans-Serif" font-size="10.00">vector</text>
</g>
<!-- Node8&#45;&gt;Node9 -->
<g id="edge22" class="edge"><title>Node8&#45;&gt;Node9</title>
<path fill="none" stroke="midnightblue" d="M309,-56.083C309,-49.0059 309,-38.8611 309,-29.9865"/>
<polygon fill="midnightblue" stroke="midnightblue" points="312.5,-29.751 309,-19.7511 305.5,-29.7511 312.5,-29.751"/>
</g>
</g>
</svg>
