<?xml version="1.0" encoding="UTF-8" standalone="no"?>
<!DOCTYPE svg PUBLIC "-//W3C//DTD SVG 1.1//EN"
 "http://www.w3.org/Graphics/SVG/1.1/DTD/svg11.dtd">
<!-- Generated by graphviz version 2.28.0 (20111204.1018)
 -->
<!-- Title: G Pages: 1 -->
<svg width="467pt" height="84pt"
 viewBox="0.00 0.00 467.00 84.00" xmlns="http://www.w3.org/2000/svg" xmlns:xlink="http://www.w3.org/1999/xlink">
<g id="graph1" class="graph" transform="scale(1 1) rotate(0) translate(4 80)">
<title>G</title>
<polygon fill="white" stroke="white" points="-4,5 -4,-80 464,-80 464,5 -4,5"/>
<!-- Node1 -->
<g id="node1" class="node"><title>Node1</title>
<polygon fill="#bfbfbf" stroke="black" points="180,-56.5 180,-75.5 282,-75.5 282,-56.5 180,-56.5"/>
<text text-anchor="middle" x="231" y="-63.5" font-family="Helvetica,sans-Serif" font-size="10.00">src/Notify/Notify.hh</text>
</g>
<!-- Node2 -->
<g id="node3" class="node"><title>Node2</title>
<a xlink:href="MenuList_8hh.html" target="_top" xlink:title="src/GManager/MenuList.hh">
<polygon fill="white" stroke="black" points="0,-0.5 0,-19.5 134,-19.5 134,-0.5 0,-0.5"/>
<text text-anchor="middle" x="67" y="-7.5" font-family="Helvetica,sans-Serif" font-size="10.00">src/GManager/MenuList.hh</text>
</a>
</g>
<!-- Node1&#45;&gt;Node2 -->
<g id="edge2" class="edge"><title>Node1&#45;&gt;Node2</title>
<path fill="none" stroke="midnightblue" d="M195.48,-53.3044C164.578,-43.1294 120.527,-28.6246 92.8647,-19.5164"/>
<polygon fill="midnightblue" stroke="midnightblue" points="194.421,-56.6404 205.014,-56.4435 196.61,-49.9915 194.421,-56.6404"/>
</g>
<!-- Node3 -->
<g id="node5" class="node"><title>Node3</title>
<a xlink:href="NotifyManager_8hh.html" target="_top" xlink:title="src/GManager/NotifyManager.hh">
<polygon fill="white" stroke="black" points="152,-0.5 152,-19.5 310,-19.5 310,-0.5 152,-0.5"/>
<text text-anchor="middle" x="231" y="-7.5" font-family="Helvetica,sans-Serif" font-size="10.00">src/GManager/NotifyManager.hh</text>
</a>
</g>
<!-- Node1&#45;&gt;Node3 -->
<g id="edge4" class="edge"><title>Node1&#45;&gt;Node3</title>
<path fill="none" stroke="midnightblue" d="M231,-45.8045C231,-36.9102 231,-26.7798 231,-19.7511"/>
<polygon fill="midnightblue" stroke="midnightblue" points="227.5,-46.083 231,-56.083 234.5,-46.083 227.5,-46.083"/>
</g>
<!-- Node4 -->
<g id="node7" class="node"><title>Node4</title>
<a xlink:href="check__notify_8hh.html" target="_top" xlink:title="src/Notify/check_notify.hh">
<polygon fill="white" stroke="black" points="328.5,-0.5 328.5,-19.5 459.5,-19.5 459.5,-0.5 328.5,-0.5"/>
<text text-anchor="middle" x="394" y="-7.5" font-family="Helvetica,sans-Serif" font-size="10.00">src/Notify/check_notify.hh</text>
</a>
</g>
<!-- Node1&#45;&gt;Node4 -->
<g id="edge6" class="edge"><title>Node1&#45;&gt;Node4</title>
<path fill="none" stroke="midnightblue" d="M266.703,-53.172C297.396,-43.0039 340.919,-28.5852 368.293,-19.5164"/>
<polygon fill="midnightblue" stroke="midnightblue" points="265.22,-49.9762 256.828,-56.4435 267.421,-56.6211 265.22,-49.9762"/>
</g>
</g>
</svg>
