<?xml version="1.0" encoding="UTF-8" standalone="no"?>
<!DOCTYPE svg PUBLIC "-//W3C//DTD SVG 1.1//EN"
 "http://www.w3.org/Graphics/SVG/1.1/DTD/svg11.dtd">
<!-- Generated by graphviz version 2.28.0 (20111204.1018)
 -->
<!-- Title: G Pages: 1 -->
<svg width="3235pt" height="420pt"
 viewBox="0.00 0.00 3234.57 420.00" xmlns="http://www.w3.org/2000/svg" xmlns:xlink="http://www.w3.org/1999/xlink">
<g id="graph1" class="graph" transform="scale(1 1) rotate(0) translate(4 416)">
<title>G</title>
<polygon fill="white" stroke="white" points="-4,5 -4,-416 3231.57,-416 3231.57,5 -4,5"/>
<!-- Node1 -->
<g id="node1" class="node"><title>Node1</title>
<polygon fill="#bfbfbf" stroke="black" points="1154.5,-392.5 1154.5,-411.5 1273.5,-411.5 1273.5,-392.5 1154.5,-392.5"/>
<text text-anchor="middle" x="1214" y="-399.5" font-family="Helvetica,sans-Serif" font-size="10.00">src/MPD/NotifyData.hh</text>
</g>
<!-- Node2 -->
<g id="node3" class="node"><title>Node2</title>
<a xlink:href="Listener_8hh.html" target="_top" xlink:title="src/MPD/Listener.hh">
<polygon fill="white" stroke="black" points="1160.5,-336.5 1160.5,-355.5 1267.5,-355.5 1267.5,-336.5 1160.5,-336.5"/>
<text text-anchor="middle" x="1214" y="-343.5" font-family="Helvetica,sans-Serif" font-size="10.00">src/MPD/Listener.hh</text>
</a>
</g>
<!-- Node1&#45;&gt;Node2 -->
<g id="edge2" class="edge"><title>Node1&#45;&gt;Node2</title>
<path fill="none" stroke="midnightblue" d="M1214,-381.805C1214,-372.91 1214,-362.78 1214,-355.751"/>
<polygon fill="midnightblue" stroke="midnightblue" points="1210.5,-382.083 1214,-392.083 1217.5,-382.083 1210.5,-382.083"/>
</g>
<!-- Node3 -->
<g id="node5" class="node"><title>Node3</title>
<a xlink:href="BaseClient_8hh.html" target="_top" xlink:title="src/MPD/BaseClient.hh">
<polygon fill="white" stroke="black" points="1154,-280.5 1154,-299.5 1274,-299.5 1274,-280.5 1154,-280.5"/>
<text text-anchor="middle" x="1214" y="-287.5" font-family="Helvetica,sans-Serif" font-size="10.00">src/MPD/BaseClient.hh</text>
</a>
</g>
<!-- Node2&#45;&gt;Node3 -->
<g id="edge4" class="edge"><title>Node2&#45;&gt;Node3</title>
<path fill="none" stroke="midnightblue" d="M1214,-325.805C1214,-316.91 1214,-306.78 1214,-299.751"/>
<polygon fill="midnightblue" stroke="midnightblue" points="1210.5,-326.083 1214,-336.083 1217.5,-326.083 1210.5,-326.083"/>
</g>
<!-- Node4 -->
<g id="node7" class="node"><title>Node4</title>
<a xlink:href="Client_8hh.html" target="_top" xlink:title="src/MPD/Client.hh">
<polygon fill="white" stroke="black" points="2009,-224.5 2009,-243.5 2107,-243.5 2107,-224.5 2009,-224.5"/>
<text text-anchor="middle" x="2058" y="-231.5" font-family="Helvetica,sans-Serif" font-size="10.00">src/MPD/Client.hh</text>
</a>
</g>
<!-- Node3&#45;&gt;Node4 -->
<g id="edge6" class="edge"><title>Node3&#45;&gt;Node4</title>
<path fill="none" stroke="midnightblue" d="M1284.14,-284.512C1450.56,-273.865 1865.98,-247.286 2008.84,-238.146"/>
<polygon fill="midnightblue" stroke="midnightblue" points="1283.78,-281.028 1274.02,-285.16 1284.22,-288.014 1283.78,-281.028"/>
</g>
<!-- Node28 -->
<g id="node76" class="node"><title>Node28</title>
<a xlink:href="AbstractClientExtension_8hh.html" target="_top" xlink:title="src/MPD/AbstractClientExtension.hh">
<polygon fill="white" stroke="black" points="305,-224.5 305,-243.5 483,-243.5 483,-224.5 305,-224.5"/>
<text text-anchor="middle" x="394" y="-231.5" font-family="Helvetica,sans-Serif" font-size="10.00">src/MPD/AbstractClientExtension.hh</text>
</a>
</g>
<!-- Node3&#45;&gt;Node28 -->
<g id="edge96" class="edge"><title>Node3&#45;&gt;Node28</title>
<path fill="none" stroke="midnightblue" d="M1143.31,-284.345C994.09,-274.518 647.235,-251.676 483.117,-240.869"/>
<polygon fill="midnightblue" stroke="midnightblue" points="1143.5,-287.864 1153.7,-285.029 1143.96,-280.88 1143.5,-287.864"/>
</g>
<!-- Node5 -->
<g id="node9" class="node"><title>Node5</title>
<a xlink:href="AbstractClientUser_8hh.html" target="_top" xlink:title="src/MPD/AbstractClientUser.hh">
<polygon fill="white" stroke="black" points="1825.5,-168.5 1825.5,-187.5 1980.5,-187.5 1980.5,-168.5 1825.5,-168.5"/>
<text text-anchor="middle" x="1903" y="-175.5" font-family="Helvetica,sans-Serif" font-size="10.00">src/MPD/AbstractClientUser.hh</text>
</a>
</g>
<!-- Node4&#45;&gt;Node5 -->
<g id="edge8" class="edge"><title>Node4&#45;&gt;Node5</title>
<path fill="none" stroke="midnightblue" d="M2023.67,-221.039C1994.5,-210.879 1953.36,-196.546 1927.45,-187.516"/>
<polygon fill="midnightblue" stroke="midnightblue" points="2022.84,-224.459 2033.44,-224.444 2025.15,-217.848 2022.84,-224.459"/>
</g>
<!-- Node6 -->
<g id="node11" class="node"><title>Node6</title>
<a xlink:href="Database_8hh.html" target="_top" xlink:title="src/Browser/Database/Database.hh">
<polygon fill="white" stroke="black" points="3040.5,-112.5 3040.5,-131.5 3213.5,-131.5 3213.5,-112.5 3040.5,-112.5"/>
<text text-anchor="middle" x="3127" y="-119.5" font-family="Helvetica,sans-Serif" font-size="10.00">src/Browser/Database/Database.hh</text>
</a>
</g>
<!-- Node4&#45;&gt;Node6 -->
<g id="edge66" class="edge"><title>Node4&#45;&gt;Node6</title>
<path fill="none" stroke="midnightblue" d="M2117.11,-226.918C2296.66,-208.442 2836.09,-152.935 3044.01,-131.539"/>
<polygon fill="midnightblue" stroke="midnightblue" points="2116.65,-223.446 2107.06,-227.951 2117.37,-230.409 2116.65,-223.446"/>
</g>
<!-- Node8 -->
<g id="node15" class="node"><title>Node8</title>
<a xlink:href="PlaylistManager_8hh.html" target="_top" xlink:title="src/Browser/PlaylistManager/PlaylistManager.hh">
<polygon fill="white" stroke="black" points="280,-112.5 280,-131.5 508,-131.5 508,-112.5 280,-112.5"/>
<text text-anchor="middle" x="394" y="-119.5" font-family="Helvetica,sans-Serif" font-size="10.00">src/Browser/PlaylistManager/PlaylistManager.hh</text>
</a>
</g>
<!-- Node4&#45;&gt;Node8 -->
<g id="edge68" class="edge"><title>Node4&#45;&gt;Node8</title>
<path fill="none" stroke="midnightblue" d="M1998.65,-231.954C1780.09,-227.939 1020.27,-212.504 779,-188 652.046,-175.107 503.618,-146.027 433.947,-131.539"/>
<polygon fill="midnightblue" stroke="midnightblue" points="1998.89,-235.459 2008.95,-232.142 1999.02,-228.46 1998.89,-235.459"/>
</g>
<!-- Node9 -->
<g id="node17" class="node"><title>Node9</title>
<a xlink:href="PlaylistAddDialog_8hh.html" target="_top" xlink:title="src/Browser/Queue/PlaylistAddDialog.hh">
<polygon fill="white" stroke="black" points="972,-112.5 972,-131.5 1166,-131.5 1166,-112.5 972,-112.5"/>
<text text-anchor="middle" x="1069" y="-119.5" font-family="Helvetica,sans-Serif" font-size="10.00">src/Browser/Queue/PlaylistAddDialog.hh</text>
</a>
</g>
<!-- Node4&#45;&gt;Node9 -->
<g id="edge70" class="edge"><title>Node4&#45;&gt;Node9</title>
<path fill="none" stroke="midnightblue" d="M1998.92,-226.429C1828.52,-207.476 1336.17,-152.716 1145.6,-131.52"/>
<polygon fill="midnightblue" stroke="midnightblue" points="1998.63,-229.918 2008.96,-227.545 1999.4,-222.961 1998.63,-229.918"/>
</g>
<!-- Node10 -->
<g id="node19" class="node"><title>Node10</title>
<a xlink:href="Queue_8hh.html" target="_top" xlink:title="src/Browser/Queue/Queue.hh">
<polygon fill="white" stroke="black" points="1140,-56.5 1140,-75.5 1286,-75.5 1286,-56.5 1140,-56.5"/>
<text text-anchor="middle" x="1213" y="-63.5" font-family="Helvetica,sans-Serif" font-size="10.00">src/Browser/Queue/Queue.hh</text>
</a>
</g>
<!-- Node4&#45;&gt;Node10 -->
<g id="edge72" class="edge"><title>Node4&#45;&gt;Node10</title>
<path fill="none" stroke="midnightblue" d="M1998.64,-232.129C1780.55,-228.321 1032.56,-209.648 963,-132 957.069,-125.379 957.298,-118.819 963,-112 985.205,-85.4409 1074.2,-74.5331 1139.72,-70.0685"/>
<polygon fill="midnightblue" stroke="midnightblue" points="1998.87,-235.634 2008.93,-232.305 1998.99,-228.635 1998.87,-235.634"/>
</g>
<!-- Node12 -->
<g id="node25" class="node"><title>Node12</title>
<a xlink:href="SettingsPlayback_8hh.html" target="_top" xlink:title="src/Browser/Settings/SettingsPlayback.hh">
<polygon fill="white" stroke="black" points="714.5,-112.5 714.5,-131.5 915.5,-131.5 915.5,-112.5 714.5,-112.5"/>
<text text-anchor="middle" x="815" y="-119.5" font-family="Helvetica,sans-Serif" font-size="10.00">src/Browser/Settings/SettingsPlayback.hh</text>
</a>
</g>
<!-- Node4&#45;&gt;Node12 -->
<g id="edge74" class="edge"><title>Node4&#45;&gt;Node12</title>
<path fill="none" stroke="midnightblue" d="M1998.51,-232.264C1780.53,-229.342 1032.88,-217.267 930,-188 888.309,-176.14 845.496,-146.363 825.941,-131.589"/>
<polygon fill="midnightblue" stroke="midnightblue" points="1998.74,-235.767 2008.79,-232.4 1998.83,-228.768 1998.74,-235.767"/>
</g>
<!-- Node14 -->
<g id="node29" class="node"><title>Node14</title>
<a xlink:href="Trayicon_8hh.html" target="_top" xlink:title="src/GManager/Trayicon.hh">
<polygon fill="white" stroke="black" points="564,-112.5 564,-131.5 696,-131.5 696,-112.5 564,-112.5"/>
<text text-anchor="middle" x="630" y="-119.5" font-family="Helvetica,sans-Serif" font-size="10.00">src/GManager/Trayicon.hh</text>
</a>
</g>
<!-- Node4&#45;&gt;Node14 -->
<g id="edge76" class="edge"><title>Node4&#45;&gt;Node14</title>
<path fill="none" stroke="midnightblue" d="M1998.8,-232.43C1791.54,-230.169 1099.4,-220.324 880,-188 796.368,-175.679 700.353,-146.261 655.534,-131.604"/>
<polygon fill="midnightblue" stroke="midnightblue" points="1998.84,-235.93 2008.87,-232.538 1998.91,-228.931 1998.84,-235.93"/>
</g>
<!-- Node16 -->
<g id="node35" class="node"><title>Node16</title>
<a xlink:href="SettingsOutputs_8hh.html" target="_top" xlink:title="src/Browser/Settings/SettingsOutputs.hh">
<polygon fill="white" stroke="black" points="233.5,-56.5 233.5,-75.5 428.5,-75.5 428.5,-56.5 233.5,-56.5"/>
<text text-anchor="middle" x="331" y="-63.5" font-family="Helvetica,sans-Serif" font-size="10.00">src/Browser/Settings/SettingsOutputs.hh</text>
</a>
</g>
<!-- Node4&#45;&gt;Node16 -->
<g id="edge78" class="edge"><title>Node4&#45;&gt;Node16</title>
<path fill="none" stroke="midnightblue" d="M1998.91,-232.608C1705.04,-230.513 411.866,-219.531 333,-188 292.523,-171.817 251.505,-150.99 271,-112 279.443,-95.113 297.571,-82.9191 311.704,-75.5195"/>
<polygon fill="midnightblue" stroke="midnightblue" points="1998.92,-236.108 2008.94,-232.679 1998.96,-229.108 1998.92,-236.108"/>
</g>
<!-- Node18 -->
<g id="node40" class="node"><title>Node18</title>
<a xlink:href="Heartbeat_8hh.html" target="_top" xlink:title="src/GManager/Heartbeat.hh">
<polygon fill="white" stroke="black" points="2014.5,-112.5 2014.5,-131.5 2151.5,-131.5 2151.5,-112.5 2014.5,-112.5"/>
<text text-anchor="middle" x="2083" y="-119.5" font-family="Helvetica,sans-Serif" font-size="10.00">src/GManager/Heartbeat.hh</text>
</a>
</g>
<!-- Node4&#45;&gt;Node18 -->
<g id="edge82" class="edge"><title>Node4&#45;&gt;Node18</title>
<path fill="none" stroke="midnightblue" d="M2062.24,-214.348C2067.72,-190.254 2077.02,-149.308 2081.05,-131.591"/>
<polygon fill="midnightblue" stroke="midnightblue" points="2058.77,-213.841 2059.96,-224.368 2065.59,-215.393 2058.77,-213.841"/>
</g>
<!-- Node19 -->
<g id="node42" class="node"><title>Node19</title>
<a xlink:href="Statusbar_8hh.html" target="_top" xlink:title="src/GManager/Statusbar.hh">
<polygon fill="white" stroke="black" points="2111.5,-56.5 2111.5,-75.5 2248.5,-75.5 2248.5,-56.5 2111.5,-56.5"/>
<text text-anchor="middle" x="2180" y="-63.5" font-family="Helvetica,sans-Serif" font-size="10.00">src/GManager/Statusbar.hh</text>
</a>
</g>
<!-- Node4&#45;&gt;Node19 -->
<g id="edge88" class="edge"><title>Node4&#45;&gt;Node19</title>
<path fill="none" stroke="midnightblue" d="M2117.28,-232.443C2343.95,-229.708 3146.9,-214.24 3222,-132 3227.99,-125.436 3228.15,-118.42 3222,-112 3188.32,-76.8352 2475.43,-68.9935 2248.63,-67.3859"/>
<polygon fill="midnightblue" stroke="midnightblue" points="2117.2,-228.944 2107.24,-232.561 2117.28,-235.943 2117.2,-228.944"/>
</g>
<!-- Node21 -->
<g id="node46" class="node"><title>Node21</title>
<a xlink:href="MenuList_8hh.html" target="_top" xlink:title="src/GManager/MenuList.hh">
<polygon fill="white" stroke="black" points="2208,-112.5 2208,-131.5 2342,-131.5 2342,-112.5 2208,-112.5"/>
<text text-anchor="middle" x="2275" y="-119.5" font-family="Helvetica,sans-Serif" font-size="10.00">src/GManager/MenuList.hh</text>
</a>
</g>
<!-- Node4&#45;&gt;Node21 -->
<g id="edge84" class="edge"><title>Node4&#45;&gt;Node21</title>
<path fill="none" stroke="midnightblue" d="M2069.9,-216.212C2081.2,-201.465 2099.47,-180.469 2120,-168 2150.66,-149.382 2189.41,-138.132 2220.49,-131.536"/>
<polygon fill="midnightblue" stroke="midnightblue" points="2066.94,-214.333 2063.81,-224.455 2072.57,-218.493 2066.94,-214.333"/>
</g>
<!-- Node23 -->
<g id="node50" class="node"><title>Node23</title>
<a xlink:href="PlaybackButtons_8hh.html" target="_top" xlink:title="src/GManager/PlaybackButtons.hh">
<polygon fill="white" stroke="black" points="2360.5,-112.5 2360.5,-131.5 2529.5,-131.5 2529.5,-112.5 2360.5,-112.5"/>
<text text-anchor="middle" x="2445" y="-119.5" font-family="Helvetica,sans-Serif" font-size="10.00">src/GManager/PlaybackButtons.hh</text>
</a>
</g>
<!-- Node4&#45;&gt;Node23 -->
<g id="edge86" class="edge"><title>Node4&#45;&gt;Node23</title>
<path fill="none" stroke="midnightblue" d="M2078.23,-218.397C2102.34,-201.252 2141.46,-174.34 2158,-168 2195.15,-153.765 2295.49,-139.986 2367.04,-131.507"/>
<polygon fill="midnightblue" stroke="midnightblue" points="2075.89,-215.762 2069.8,-224.427 2079.97,-221.456 2075.89,-215.762"/>
</g>
<!-- Node24 -->
<g id="node53" class="node"><title>Node24</title>
<a xlink:href="StatusIcons_8hh.html" target="_top" xlink:title="src/GManager/StatusIcons.hh">
<polygon fill="white" stroke="black" points="2547.5,-112.5 2547.5,-131.5 2694.5,-131.5 2694.5,-112.5 2547.5,-112.5"/>
<text text-anchor="middle" x="2621" y="-119.5" font-family="Helvetica,sans-Serif" font-size="10.00">src/GManager/StatusIcons.hh</text>
</a>
</g>
<!-- Node4&#45;&gt;Node24 -->
<g id="edge90" class="edge"><title>Node4&#45;&gt;Node24</title>
<path fill="none" stroke="midnightblue" d="M2085.84,-220.261C2105.26,-211.327 2131.77,-199.054 2155,-188 2173.31,-179.289 2176.51,-173.591 2196,-168 2342.91,-125.856 2386.03,-148.238 2538,-132 2541.03,-131.677 2544.12,-131.346 2547.24,-131.011"/>
<polygon fill="midnightblue" stroke="midnightblue" points="2084.27,-217.127 2076.65,-224.48 2087.19,-223.488 2084.27,-217.127"/>
</g>
<!-- Node25 -->
<g id="node56" class="node"><title>Node25</title>
<a xlink:href="TitleLabel_8hh.html" target="_top" xlink:title="src/GManager/TitleLabel.hh">
<polygon fill="white" stroke="black" points="2712.5,-112.5 2712.5,-131.5 2849.5,-131.5 2849.5,-112.5 2712.5,-112.5"/>
<text text-anchor="middle" x="2781" y="-119.5" font-family="Helvetica,sans-Serif" font-size="10.00">src/GManager/TitleLabel.hh</text>
</a>
</g>
<!-- Node4&#45;&gt;Node25 -->
<g id="edge92" class="edge"><title>Node4&#45;&gt;Node25</title>
<path fill="none" stroke="midnightblue" d="M2095.28,-221.371C2121.91,-212.801 2158.47,-200.506 2190,-188 2209.97,-180.08 2213.2,-173.348 2234,-168 2436.47,-115.951 2494.9,-151.985 2703,-132 2705.99,-131.713 2709.03,-131.409 2712.11,-131.093"/>
<polygon fill="midnightblue" stroke="midnightblue" points="2094.05,-218.09 2085.59,-224.466 2096.18,-224.758 2094.05,-218.09"/>
</g>
<!-- Node26 -->
<g id="node58" class="node"><title>Node26</title>
<a xlink:href="Volumebutton_8hh.html" target="_top" xlink:title="src/GManager/Volumebutton.hh">
<polygon fill="white" stroke="black" points="2867.5,-112.5 2867.5,-131.5 3022.5,-131.5 3022.5,-112.5 2867.5,-112.5"/>
<text text-anchor="middle" x="2945" y="-119.5" font-family="Helvetica,sans-Serif" font-size="10.00">src/GManager/Volumebutton.hh</text>
</a>
</g>
<!-- Node4&#45;&gt;Node26 -->
<g id="edge94" class="edge"><title>Node4&#45;&gt;Node26</title>
<path fill="none" stroke="midnightblue" d="M2108.49,-222.154C2142.27,-214.25 2187.42,-202.422 2226,-188 2244.99,-180.9 2247.39,-173.16 2267,-168 2521.49,-101.025 2595.73,-153.544 2858,-132 2861.03,-131.751 2864.11,-131.487 2867.23,-131.21"/>
<polygon fill="midnightblue" stroke="midnightblue" points="2107.35,-218.825 2098.39,-224.48 2108.92,-225.646 2107.35,-218.825"/>
</g>
<!-- Node27 -->
<g id="node67" class="node"><title>Node27</title>
<a xlink:href="StatBrowser_8hh.html" target="_top" xlink:title="src/Browser/Statistics/StatBrowser.hh">
<polygon fill="white" stroke="black" points="2276,-168.5 2276,-187.5 2460,-187.5 2460,-168.5 2276,-168.5"/>
<text text-anchor="middle" x="2368" y="-175.5" font-family="Helvetica,sans-Serif" font-size="10.00">src/Browser/Statistics/StatBrowser.hh</text>
</a>
</g>
<!-- Node4&#45;&gt;Node27 -->
<g id="edge80" class="edge"><title>Node4&#45;&gt;Node27</title>
<path fill="none" stroke="midnightblue" d="M2117.34,-222.664C2175.92,-212.459 2264.45,-197.039 2319.11,-187.516"/>
<polygon fill="midnightblue" stroke="midnightblue" points="2116.37,-219.279 2107.12,-224.444 2117.57,-226.175 2116.37,-219.279"/>
</g>
<!-- Node5&#45;&gt;Node6 -->
<g id="edge10" class="edge"><title>Node5&#45;&gt;Node6</title>
<path fill="none" stroke="midnightblue" d="M1990.89,-175.097C2180.86,-170.632 2643.84,-157.852 3031,-132 3034.09,-131.794 3037.23,-131.57 3040.41,-131.333"/>
<polygon fill="midnightblue" stroke="midnightblue" points="1990.6,-171.603 1980.69,-175.335 1990.76,-178.601 1990.6,-171.603"/>
</g>
<!-- Node7 -->
<g id="node13" class="node"><title>Node7</title>
<a xlink:href="DatabaseCache_8hh.html" target="_top" xlink:title="src/Browser/Database/DatabaseCache.hh">
<polygon fill="white" stroke="black" points="1386.5,-112.5 1386.5,-131.5 1587.5,-131.5 1587.5,-112.5 1386.5,-112.5"/>
<text text-anchor="middle" x="1487" y="-119.5" font-family="Helvetica,sans-Serif" font-size="10.00">src/Browser/Database/DatabaseCache.hh</text>
</a>
</g>
<!-- Node5&#45;&gt;Node7 -->
<g id="edge12" class="edge"><title>Node5&#45;&gt;Node7</title>
<path fill="none" stroke="midnightblue" d="M1826.77,-167.105C1748.21,-156.907 1627.03,-141.177 1552.61,-131.516"/>
<polygon fill="midnightblue" stroke="midnightblue" points="1826.72,-170.627 1837.08,-168.444 1827.62,-163.685 1826.72,-170.627"/>
</g>
<!-- Node5&#45;&gt;Node8 -->
<g id="edge14" class="edge"><title>Node5&#45;&gt;Node8</title>
<path fill="none" stroke="midnightblue" d="M1815.34,-175.288C1596.85,-170.772 1010.45,-157.121 522,-132 517.439,-131.765 512.788,-131.511 508.09,-131.241"/>
<polygon fill="midnightblue" stroke="midnightblue" points="1815.4,-178.79 1825.47,-175.496 1815.54,-171.791 1815.4,-178.79"/>
</g>
<!-- Node5&#45;&gt;Node9 -->
<g id="edge16" class="edge"><title>Node5&#45;&gt;Node9</title>
<path fill="none" stroke="midnightblue" d="M1815.37,-172.235C1678.58,-164.65 1406.01,-148.945 1175,-132 1172.05,-131.784 1169.06,-131.56 1166.04,-131.329"/>
<polygon fill="midnightblue" stroke="midnightblue" points="1815.21,-175.731 1825.39,-172.789 1815.59,-168.742 1815.21,-175.731"/>
</g>
<!-- Node5&#45;&gt;Node10 -->
<g id="edge20" class="edge"><title>Node5&#45;&gt;Node10</title>
<path fill="none" stroke="midnightblue" d="M1815.23,-173.71C1687.45,-168.204 1456.75,-155.357 1377,-132 1358.68,-126.636 1356.47,-119.673 1339,-112 1305.82,-97.4314 1266.29,-83.9081 1240.47,-75.566"/>
<polygon fill="midnightblue" stroke="midnightblue" points="1815.24,-177.214 1825.38,-174.141 1815.53,-170.22 1815.24,-177.214"/>
</g>
<!-- Node11 -->
<g id="node22" class="node"><title>Node11</title>
<a xlink:href="QueueMerger_8hh.html" target="_top" xlink:title="src/Browser/Queue/QueueMerger.hh">
<polygon fill="white" stroke="black" points="1606,-112.5 1606,-131.5 1782,-131.5 1782,-112.5 1606,-112.5"/>
<text text-anchor="middle" x="1694" y="-119.5" font-family="Helvetica,sans-Serif" font-size="10.00">src/Browser/Queue/QueueMerger.hh</text>
</a>
</g>
<!-- Node5&#45;&gt;Node11 -->
<g id="edge22" class="edge"><title>Node5&#45;&gt;Node11</title>
<path fill="none" stroke="midnightblue" d="M1860.02,-165.894C1820.55,-155.697 1762.9,-140.802 1726.96,-131.516"/>
<polygon fill="midnightblue" stroke="midnightblue" points="1859.33,-169.331 1869.88,-168.444 1861.08,-162.553 1859.33,-169.331"/>
</g>
<!-- Node5&#45;&gt;Node12 -->
<g id="edge26" class="edge"><title>Node5&#45;&gt;Node12</title>
<path fill="none" stroke="midnightblue" d="M1815.12,-173.172C1648.76,-165.841 1276.4,-149.03 963,-132 947.706,-131.169 931.527,-130.238 915.699,-129.299"/>
<polygon fill="midnightblue" stroke="midnightblue" points="1815.15,-176.677 1825.3,-173.62 1815.46,-169.683 1815.15,-176.677"/>
</g>
<!-- Node5&#45;&gt;Node14 -->
<g id="edge30" class="edge"><title>Node5&#45;&gt;Node14</title>
<path fill="none" stroke="midnightblue" d="M1815.38,-176.164C1617.26,-173.736 1119.78,-164.621 705,-132 702.124,-131.774 699.188,-131.52 696.224,-131.245"/>
<polygon fill="midnightblue" stroke="midnightblue" points="1815.39,-179.664 1825.44,-176.284 1815.48,-172.665 1815.39,-179.664"/>
</g>
<!-- Node5&#45;&gt;Node16 -->
<g id="edge38" class="edge"><title>Node5&#45;&gt;Node16</title>
<path fill="none" stroke="midnightblue" d="M1815.27,-176.349C1535.56,-173.957 676.018,-164.054 555,-132 536.551,-127.113 534.856,-118.74 517,-112 472.085,-95.0465 418.614,-82.8946 380.556,-75.5252"/>
<polygon fill="midnightblue" stroke="midnightblue" points="1815.35,-179.85 1825.38,-176.434 1815.41,-172.85 1815.35,-179.85"/>
</g>
<!-- Node17 -->
<g id="node38" class="node"><title>Node17</title>
<a xlink:href="BrowserList_8hh.html" target="_top" xlink:title="src/GManager/BrowserList.hh">
<polygon fill="white" stroke="black" points="1184,-112.5 1184,-131.5 1330,-131.5 1330,-112.5 1184,-112.5"/>
<text text-anchor="middle" x="1257" y="-119.5" font-family="Helvetica,sans-Serif" font-size="10.00">src/GManager/BrowserList.hh</text>
</a>
</g>
<!-- Node5&#45;&gt;Node17 -->
<g id="edge42" class="edge"><title>Node5&#45;&gt;Node17</title>
<path fill="none" stroke="midnightblue" d="M1815.11,-170.547C1704.97,-162.315 1510.41,-147.304 1344,-132 1339.46,-131.583 1334.8,-131.14 1330.09,-130.683"/>
<polygon fill="midnightblue" stroke="midnightblue" points="1814.95,-174.044 1825.18,-171.297 1815.47,-167.063 1814.95,-174.044"/>
</g>
<!-- Node5&#45;&gt;Node18 -->
<g id="edge44" class="edge"><title>Node5&#45;&gt;Node18</title>
<path fill="none" stroke="midnightblue" d="M1941.11,-165.568C1975.06,-155.381 2023.99,-140.703 2054.61,-131.516"/>
<polygon fill="midnightblue" stroke="midnightblue" points="1940.09,-162.218 1931.52,-168.444 1942.11,-168.922 1940.09,-162.218"/>
</g>
<!-- Node5&#45;&gt;Node19 -->
<g id="edge56" class="edge"><title>Node5&#45;&gt;Node19</title>
<path fill="none" stroke="midnightblue" d="M1990.91,-171.324C2055.16,-165.425 2135.21,-153.865 2160,-132 2176.47,-117.473 2179.56,-89.7425 2180.03,-75.6635"/>
<polygon fill="midnightblue" stroke="midnightblue" points="1990.4,-167.855 1980.75,-172.222 1991.02,-174.828 1990.4,-167.855"/>
</g>
<!-- Node20 -->
<g id="node44" class="node"><title>Node20</title>
<a xlink:href="Timeslide_8hh.html" target="_top" xlink:title="src/GManager/Timeslide.hh">
<polygon fill="white" stroke="black" points="1936.5,-56.5 1936.5,-75.5 2073.5,-75.5 2073.5,-56.5 1936.5,-56.5"/>
<text text-anchor="middle" x="2005" y="-63.5" font-family="Helvetica,sans-Serif" font-size="10.00">src/GManager/Timeslide.hh</text>
</a>
</g>
<!-- Node5&#45;&gt;Node20 -->
<g id="edge60" class="edge"><title>Node5&#45;&gt;Node20</title>
<path fill="none" stroke="midnightblue" d="M1927.23,-163.041C1939.78,-155.031 1954.77,-144.159 1966,-132 1982.25,-114.401 1995.1,-88.9727 2001.18,-75.7423"/>
<polygon fill="midnightblue" stroke="midnightblue" points="1925.29,-160.122 1918.61,-168.346 1928.96,-166.083 1925.29,-160.122"/>
</g>
<!-- Node5&#45;&gt;Node21 -->
<g id="edge50" class="edge"><title>Node5&#45;&gt;Node21</title>
<path fill="none" stroke="midnightblue" d="M1972.03,-166.979C2042.3,-156.779 2150.06,-141.137 2216.33,-131.516"/>
<polygon fill="midnightblue" stroke="midnightblue" points="1971.34,-163.543 1961.94,-168.444 1972.34,-170.471 1971.34,-163.543"/>
</g>
<!-- Node22 -->
<g id="node48" class="node"><title>Node22</title>
<a xlink:href="NotifyManager_8hh.html" target="_top" xlink:title="src/GManager/NotifyManager.hh">
<polygon fill="white" stroke="black" points="1800,-112.5 1800,-131.5 1958,-131.5 1958,-112.5 1800,-112.5"/>
<text text-anchor="middle" x="1879" y="-119.5" font-family="Helvetica,sans-Serif" font-size="10.00">src/GManager/NotifyManager.hh</text>
</a>
</g>
<!-- Node5&#45;&gt;Node22 -->
<g id="edge52" class="edge"><title>Node5&#45;&gt;Node22</title>
<path fill="none" stroke="midnightblue" d="M1894.86,-158.69C1890.82,-149.589 1886.12,-139.014 1882.89,-131.751"/>
<polygon fill="midnightblue" stroke="midnightblue" points="1891.78,-160.366 1899.04,-168.083 1898.17,-157.523 1891.78,-160.366"/>
</g>
<!-- Node5&#45;&gt;Node23 -->
<g id="edge54" class="edge"><title>Node5&#45;&gt;Node23</title>
<path fill="none" stroke="midnightblue" d="M1990.62,-168.271C2092.55,-158.115 2259.7,-141.462 2360.35,-131.434"/>
<polygon fill="midnightblue" stroke="midnightblue" points="1990.26,-164.789 1980.66,-169.263 1990.95,-171.754 1990.26,-164.789"/>
</g>
<!-- Node5&#45;&gt;Node24 -->
<g id="edge58" class="edge"><title>Node5&#45;&gt;Node24</title>
<path fill="none" stroke="midnightblue" d="M1990.87,-171.811C2113.5,-164.333 2342.87,-149.487 2538,-132 2541.03,-131.728 2544.12,-131.441 2547.25,-131.141"/>
<polygon fill="midnightblue" stroke="midnightblue" points="1990.56,-168.324 1980.79,-172.424 1990.98,-175.311 1990.56,-168.324"/>
</g>
<!-- Node5&#45;&gt;Node25 -->
<g id="edge62" class="edge"><title>Node5&#45;&gt;Node25</title>
<path fill="none" stroke="midnightblue" d="M1990.95,-173.742C2138.38,-167.903 2444.65,-154.152 2703,-132 2705.99,-131.744 2709.04,-131.465 2712.12,-131.17"/>
<polygon fill="midnightblue" stroke="midnightblue" points="1990.47,-170.258 1980.62,-174.149 1990.75,-177.253 1990.47,-170.258"/>
</g>
<!-- Node5&#45;&gt;Node26 -->
<g id="edge64" class="edge"><title>Node5&#45;&gt;Node26</title>
<path fill="none" stroke="midnightblue" d="M1990.82,-174.507C2159.2,-169.361 2539.07,-155.991 2858,-132 2861.03,-131.772 2864.11,-131.525 2867.23,-131.263"/>
<polygon fill="midnightblue" stroke="midnightblue" points="1990.66,-171.01 1980.77,-174.812 1990.87,-178.007 1990.66,-171.01"/>
</g>
<!-- Node9&#45;&gt;Node10 -->
<g id="edge18" class="edge"><title>Node9&#45;&gt;Node10</title>
<path fill="none" stroke="midnightblue" d="M1101.25,-108.906C1128.32,-98.7536 1166.32,-84.5063 1190.29,-75.5164"/>
<polygon fill="midnightblue" stroke="midnightblue" points="1099.95,-105.655 1091.82,-112.444 1102.41,-112.209 1099.95,-105.655"/>
</g>
<!-- Node11&#45;&gt;Node10 -->
<g id="edge24" class="edge"><title>Node11&#45;&gt;Node10</title>
<path fill="none" stroke="midnightblue" d="M1607.96,-111.341C1516.27,-101.046 1372.64,-84.9222 1286.19,-75.2165"/>
<polygon fill="midnightblue" stroke="midnightblue" points="1607.72,-114.836 1618.05,-112.473 1608.5,-107.879 1607.72,-114.836"/>
</g>
<!-- Node13 -->
<g id="node27" class="node"><title>Node13</title>
<a xlink:href="Settings_8hh.html" target="_top" xlink:title="src/Browser/Settings/Settings.hh">
<polygon fill="white" stroke="black" points="501.5,-0.5 501.5,-19.5 662.5,-19.5 662.5,-0.5 501.5,-0.5"/>
<text text-anchor="middle" x="582" y="-7.5" font-family="Helvetica,sans-Serif" font-size="10.00">src/Browser/Settings/Settings.hh</text>
</a>
</g>
<!-- Node12&#45;&gt;Node13 -->
<g id="edge28" class="edge"><title>Node12&#45;&gt;Node13</title>
<path fill="none" stroke="midnightblue" d="M802.41,-104.127C790.491,-89.3222 771.289,-68.29 750,-56 717.443,-37.2051 676.818,-26.048 643.673,-19.545"/>
<polygon fill="midnightblue" stroke="midnightblue" points="799.945,-106.658 808.844,-112.407 805.472,-102.363 799.945,-106.658"/>
</g>
<!-- Node14&#45;&gt;Node13 -->
<g id="edge36" class="edge"><title>Node14&#45;&gt;Node13</title>
<path fill="none" stroke="midnightblue" d="M582.316,-108.81C565.662,-102.015 548.717,-91.6446 539,-76 526.222,-55.4256 552.336,-31.8443 569.201,-19.52"/>
<polygon fill="midnightblue" stroke="midnightblue" points="581.439,-112.218 592.032,-112.411 583.871,-105.654 581.439,-112.218"/>
</g>
<!-- Node15 -->
<g id="node31" class="node"><title>Node15</title>
<a xlink:href="SettingsGeneral_8hh.html" target="_top" xlink:title="src/Browser/Settings/SettingsGeneral.hh">
<polygon fill="white" stroke="black" points="548,-56.5 548,-75.5 742,-75.5 742,-56.5 548,-56.5"/>
<text text-anchor="middle" x="645" y="-63.5" font-family="Helvetica,sans-Serif" font-size="10.00">src/Browser/Settings/SettingsGeneral.hh</text>
</a>
</g>
<!-- Node14&#45;&gt;Node15 -->
<g id="edge32" class="edge"><title>Node14&#45;&gt;Node15</title>
<path fill="none" stroke="midnightblue" d="M635.168,-102.396C637.677,-93.362 640.573,-82.936 642.569,-75.7511"/>
<polygon fill="midnightblue" stroke="midnightblue" points="631.781,-101.511 632.477,-112.083 638.526,-103.385 631.781,-101.511"/>
</g>
<!-- Node15&#45;&gt;Node13 -->
<g id="edge34" class="edge"><title>Node15&#45;&gt;Node13</title>
<path fill="none" stroke="midnightblue" d="M626.96,-49.5372C615.727,-39.9087 601.681,-27.8694 592.306,-19.8339"/>
<polygon fill="midnightblue" stroke="midnightblue" points="625.008,-52.4734 634.878,-56.324 629.563,-47.1586 625.008,-52.4734"/>
</g>
<!-- Node16&#45;&gt;Node13 -->
<g id="edge40" class="edge"><title>Node16&#45;&gt;Node13</title>
<path fill="none" stroke="midnightblue" d="M380.821,-54.2815C428.253,-44.0769 498.704,-28.9203 542.414,-19.5164"/>
<polygon fill="midnightblue" stroke="midnightblue" points="379.812,-50.9185 370.772,-56.4435 381.284,-57.7619 379.812,-50.9185"/>
</g>
<!-- Node18&#45;&gt;Node19 -->
<g id="edge46" class="edge"><title>Node18&#45;&gt;Node19</title>
<path fill="none" stroke="midnightblue" d="M2107.34,-107.453C2125.24,-97.4835 2149.05,-84.2279 2164.45,-75.6545"/>
<polygon fill="midnightblue" stroke="midnightblue" points="2105.62,-104.402 2098.58,-112.324 2109.02,-110.518 2105.62,-104.402"/>
</g>
<!-- Node18&#45;&gt;Node20 -->
<g id="edge48" class="edge"><title>Node18&#45;&gt;Node20</title>
<path fill="none" stroke="midnightblue" d="M2062.23,-106.622C2047.98,-96.7574 2029.54,-83.9919 2017.5,-75.6545"/>
<polygon fill="midnightblue" stroke="midnightblue" points="2060.25,-109.51 2070.47,-112.324 2064.24,-103.754 2060.25,-109.51"/>
</g>
<!-- Node29 -->
<g id="node78" class="node"><title>Node29</title>
<a xlink:href="Playlist_8hh.html" target="_top" xlink:title="src/MPD/Playlist.hh">
<polygon fill="white" stroke="black" points="342,-168.5 342,-187.5 446,-187.5 446,-168.5 342,-168.5"/>
<text text-anchor="middle" x="394" y="-175.5" font-family="Helvetica,sans-Serif" font-size="10.00">src/MPD/Playlist.hh</text>
</a>
</g>
<!-- Node28&#45;&gt;Node29 -->
<g id="edge98" class="edge"><title>Node28&#45;&gt;Node29</title>
<path fill="none" stroke="midnightblue" d="M394,-213.805C394,-204.91 394,-194.78 394,-187.751"/>
<polygon fill="midnightblue" stroke="midnightblue" points="390.5,-214.083 394,-224.083 397.5,-214.083 390.5,-214.083"/>
</g>
<!-- Node30 -->
<g id="node81" class="node"><title>Node30</title>
<a xlink:href="AudioOutput_8hh.html" target="_top" xlink:title="src/MPD/AudioOutput.hh">
<polygon fill="white" stroke="black" points="74,-168.5 74,-187.5 200,-187.5 200,-168.5 74,-168.5"/>
<text text-anchor="middle" x="137" y="-175.5" font-family="Helvetica,sans-Serif" font-size="10.00">src/MPD/AudioOutput.hh</text>
</a>
</g>
<!-- Node28&#45;&gt;Node30 -->
<g id="edge102" class="edge"><title>Node28&#45;&gt;Node30</title>
<path fill="none" stroke="midnightblue" d="M343.293,-222.346C294.724,-212.141 222.381,-196.94 177.532,-187.516"/>
<polygon fill="midnightblue" stroke="midnightblue" points="342.772,-225.812 353.278,-224.444 344.211,-218.962 342.772,-225.812"/>
</g>
<!-- Node29&#45;&gt;Node8 -->
<g id="edge100" class="edge"><title>Node29&#45;&gt;Node8</title>
<path fill="none" stroke="midnightblue" d="M394,-157.805C394,-148.91 394,-138.78 394,-131.751"/>
<polygon fill="midnightblue" stroke="midnightblue" points="390.5,-158.083 394,-168.083 397.5,-158.083 390.5,-158.083"/>
</g>
<!-- Node31 -->
<g id="node83" class="node"><title>Node31</title>
<a xlink:href="OutputsModelColumns_8hh.html" target="_top" xlink:title="src/Browser/Settings/OutputsModelColumns.hh">
<polygon fill="white" stroke="black" points="0,-112.5 0,-131.5 224,-131.5 224,-112.5 0,-112.5"/>
<text text-anchor="middle" x="112" y="-119.5" font-family="Helvetica,sans-Serif" font-size="10.00">src/Browser/Settings/OutputsModelColumns.hh</text>
</a>
</g>
<!-- Node30&#45;&gt;Node31 -->
<g id="edge104" class="edge"><title>Node30&#45;&gt;Node31</title>
<path fill="none" stroke="midnightblue" d="M128.659,-158.983C124.415,-149.817 119.45,-139.092 116.051,-131.751"/>
<polygon fill="midnightblue" stroke="midnightblue" points="125.494,-160.479 132.872,-168.083 131.847,-157.538 125.494,-160.479"/>
</g>
<!-- Node31&#45;&gt;Node16 -->
<g id="edge106" class="edge"><title>Node31&#45;&gt;Node16</title>
<path fill="none" stroke="midnightblue" d="M156.515,-110.024C197.884,-99.8232 258.643,-84.8414 296.461,-75.5164"/>
<polygon fill="midnightblue" stroke="midnightblue" points="155.572,-106.651 146.701,-112.444 157.248,-113.448 155.572,-106.651"/>
</g>
</g>
</svg>
