<?xml version="1.0" encoding="UTF-8" standalone="no"?>
<!DOCTYPE svg PUBLIC "-//W3C//DTD SVG 1.1//EN"
 "http://www.w3.org/Graphics/SVG/1.1/DTD/svg11.dtd">
<!-- Generated by graphviz version 2.28.0 (20120217.0315)
 -->
<!-- Title: G Pages: 1 -->
<svg width="1042pt" height="588pt"
 viewBox="0.00 0.00 1042.14 588.00" xmlns="http://www.w3.org/2000/svg" xmlns:xlink="http://www.w3.org/1999/xlink">
<g id="graph1" class="graph" transform="scale(1 1) rotate(0) translate(4 584)">
<title>G</title>
<polygon fill="white" stroke="white" points="-4,5 -4,-584 1039.14,-584 1039.14,5 -4,5"/>
<!-- Node1 -->
<g id="node1" class="node"><title>Node1</title>
<polygon fill="#bfbfbf" stroke="black" points="436.112,-560.5 436.112,-579.5 630.112,-579.5 630.112,-560.5 436.112,-560.5"/>
<text text-anchor="middle" x="533.112" y="-567.5" font-family="Helvetica,sans-Serif" font-size="10.00">src/Browser/NowPlaying/NowPlaying.hh</text>
</g>
<!-- Node2 -->
<g id="node3" class="node"><title>Node2</title>
<a xlink:href="Client_8hh.html" target="_top" xlink:title="../../MPD/Client.hh">
<polygon fill="white" stroke="black" points="165.612,-336.5 165.612,-355.5 264.612,-355.5 264.612,-336.5 165.612,-336.5"/>
<text text-anchor="middle" x="215.112" y="-343.5" font-family="Helvetica,sans-Serif" font-size="10.00">../../MPD/Client.hh</text>
</a>
</g>
<!-- Node1&#45;&gt;Node2 -->
<g id="edge2" class="edge"><title>Node1&#45;&gt;Node2</title>
<path fill="none" stroke="midnightblue" d="M435.936,-565.846C297.194,-558.936 53.6768,-537.033 5.11193,-468 -9.94118,-446.603 12.2182,-404.257 26.1119,-392 45.1805,-375.178 107.348,-362.562 155.233,-355.032"/>
<polygon fill="midnightblue" stroke="midnightblue" points="155.859,-358.477 165.213,-353.503 154.798,-351.558 155.859,-358.477"/>
</g>
<!-- Node20 -->
<g id="node51" class="node"><title>Node20</title>
<a xlink:href="AbstractBrowser_8hh.html" target="_top" xlink:title="../AbstractBrowser.hh">
<polygon fill="white" stroke="black" points="170.112,-504.5 170.112,-523.5 282.112,-523.5 282.112,-504.5 170.112,-504.5"/>
<text text-anchor="middle" x="226.112" y="-511.5" font-family="Helvetica,sans-Serif" font-size="10.00">../AbstractBrowser.hh</text>
</a>
</g>
<!-- Node1&#45;&gt;Node20 -->
<g id="edge62" class="edge"><title>Node1&#45;&gt;Node20</title>
<path fill="none" stroke="midnightblue" d="M484.467,-560.444C430.238,-550.905 342.564,-535.483 284.629,-525.293"/>
<polygon fill="midnightblue" stroke="midnightblue" points="284.985,-521.802 274.529,-523.516 283.772,-528.696 284.985,-521.802"/>
</g>
<!-- Node22 -->
<g id="node55" class="node"><title>Node22</title>
<polygon fill="white" stroke="#bfbfbf" points="519.612,-336.5 519.612,-355.5 574.612,-355.5 574.612,-336.5 519.612,-336.5"/>
<text text-anchor="middle" x="547.112" y="-343.5" font-family="Helvetica,sans-Serif" font-size="10.00">gtkmm.h</text>
</g>
<!-- Node1&#45;&gt;Node22 -->
<g id="edge78" class="edge"><title>Node1&#45;&gt;Node22</title>
<path fill="none" stroke="midnightblue" d="M630.129,-561.625C750.957,-550.183 946.921,-523.431 991.112,-468 1047.97,-396.679 1082.84,-454.464 858.112,-392 807.366,-377.895 656.245,-359.467 585.033,-351.262"/>
<polygon fill="midnightblue" stroke="midnightblue" points="585.056,-347.742 574.722,-350.081 584.259,-354.696 585.056,-347.742"/>
</g>
<!-- Node26 -->
<g id="node66" class="node"><title>Node26</title>
<a xlink:href="OtherAlbumsMgr_8hh.html" target="_top" xlink:title="OtherAlbumsMgr.hh">
<polygon fill="white" stroke="black" points="878.112,-448.5 878.112,-467.5 982.112,-467.5 982.112,-448.5 878.112,-448.5"/>
<text text-anchor="middle" x="930.112" y="-455.5" font-family="Helvetica,sans-Serif" font-size="10.00">OtherAlbumsMgr.hh</text>
</a>
</g>
<!-- Node1&#45;&gt;Node26 -->
<g id="edge80" class="edge"><title>Node1&#45;&gt;Node26</title>
<path fill="none" stroke="midnightblue" d="M563.934,-560.46C634.953,-540.782 810.101,-492.252 889.644,-470.213"/>
<polygon fill="midnightblue" stroke="midnightblue" points="890.608,-473.578 899.31,-467.535 888.738,-466.832 890.608,-473.578"/>
</g>
<!-- Node29 -->
<g id="node74" class="node"><title>Node29</title>
<a xlink:href="UpdateInterface_8hh.html" target="_top" xlink:title="../../Glyr/UpdateInterface.hh">
<polygon fill="white" stroke="black" points="523.612,-392.5 523.612,-411.5 662.612,-411.5 662.612,-392.5 523.612,-392.5"/>
<text text-anchor="middle" x="593.112" y="-399.5" font-family="Helvetica,sans-Serif" font-size="10.00">../../Glyr/UpdateInterface.hh</text>
</a>
</g>
<!-- Node1&#45;&gt;Node29 -->
<g id="edge138" class="edge"><title>Node1&#45;&gt;Node29</title>
<path fill="none" stroke="midnightblue" d="M529.624,-560.429C521.766,-539.673 504.882,-485.646 525.112,-448 532.734,-433.815 547.009,-423.352 560.518,-416.103"/>
<polygon fill="midnightblue" stroke="midnightblue" points="562.24,-419.156 569.658,-411.592 559.142,-412.879 562.24,-419.156"/>
</g>
<!-- Node30 -->
<g id="node78" class="node"><title>Node30</title>
<a xlink:href="TracklistMgr_8hh.html" target="_top" xlink:title="TracklistMgr.hh">
<polygon fill="white" stroke="black" points="534.112,-448.5 534.112,-467.5 618.112,-467.5 618.112,-448.5 534.112,-448.5"/>
<text text-anchor="middle" x="576.112" y="-455.5" font-family="Helvetica,sans-Serif" font-size="10.00">TracklistMgr.hh</text>
</a>
</g>
<!-- Node1&#45;&gt;Node30 -->
<g id="edge96" class="edge"><title>Node1&#45;&gt;Node30</title>
<path fill="none" stroke="midnightblue" d="M536.486,-560.368C543.488,-542.456 559.724,-500.923 569.096,-476.948"/>
<polygon fill="midnightblue" stroke="midnightblue" points="572.372,-478.179 572.753,-467.591 565.853,-475.631 572.372,-478.179"/>
</g>
<!-- Node31 -->
<g id="node83" class="node"><title>Node31</title>
<a xlink:href="TextItemsMgr_8hh.html" target="_top" xlink:title="TextItemsMgr.hh">
<polygon fill="white" stroke="black" points="386.612,-448.5 386.612,-467.5 477.612,-467.5 477.612,-448.5 386.612,-448.5"/>
<text text-anchor="middle" x="432.112" y="-455.5" font-family="Helvetica,sans-Serif" font-size="10.00">TextItemsMgr.hh</text>
</a>
</g>
<!-- Node1&#45;&gt;Node31 -->
<g id="edge104" class="edge"><title>Node1&#45;&gt;Node31</title>
<path fill="none" stroke="midnightblue" d="M525.187,-560.368C508.297,-541.974 468.537,-498.671 446.85,-475.052"/>
<polygon fill="midnightblue" stroke="midnightblue" points="449.342,-472.59 440,-467.591 444.186,-477.325 449.342,-472.59"/>
</g>
<!-- Node32 -->
<g id="node87" class="node"><title>Node32</title>
<a xlink:href="CoverArtMgr_8hh.html" target="_top" xlink:title="CoverArtMgr.hh">
<polygon fill="white" stroke="black" points="282.112,-448.5 282.112,-467.5 368.112,-467.5 368.112,-448.5 282.112,-448.5"/>
<text text-anchor="middle" x="325.112" y="-455.5" font-family="Helvetica,sans-Serif" font-size="10.00">CoverArtMgr.hh</text>
</a>
</g>
<!-- Node1&#45;&gt;Node32 -->
<g id="edge110" class="edge"><title>Node1&#45;&gt;Node32</title>
<path fill="none" stroke="midnightblue" d="M516.791,-560.368C480.642,-541.251 393.618,-495.229 350.376,-472.361"/>
<polygon fill="midnightblue" stroke="midnightblue" points="351.834,-469.172 341.358,-467.591 348.561,-475.36 351.834,-469.172"/>
</g>
<!-- Node34 -->
<g id="node95" class="node"><title>Node34</title>
<a xlink:href="ArtistPhotosMgr_8hh.html" target="_top" xlink:title="ArtistPhotosMgr.hh">
<polygon fill="white" stroke="black" points="636.612,-448.5 636.612,-467.5 737.612,-467.5 737.612,-448.5 636.612,-448.5"/>
<text text-anchor="middle" x="687.112" y="-455.5" font-family="Helvetica,sans-Serif" font-size="10.00">ArtistPhotosMgr.hh</text>
</a>
</g>
<!-- Node1&#45;&gt;Node34 -->
<g id="edge122" class="edge"><title>Node1&#45;&gt;Node34</title>
<path fill="none" stroke="midnightblue" d="M545.196,-560.368C571.51,-541.573 634.236,-496.768 666.765,-473.533"/>
<polygon fill="midnightblue" stroke="midnightblue" points="668.981,-476.252 675.084,-467.591 664.912,-470.556 668.981,-476.252"/>
</g>
<!-- Node35 -->
<g id="node100" class="node"><title>Node35</title>
<a xlink:href="RelatedLinksMgr_8hh.html" target="_top" xlink:title="RelatedLinksMgr.hh">
<polygon fill="white" stroke="black" points="756.112,-448.5 756.112,-467.5 860.112,-467.5 860.112,-448.5 756.112,-448.5"/>
<text text-anchor="middle" x="808.112" y="-455.5" font-family="Helvetica,sans-Serif" font-size="10.00">RelatedLinksMgr.hh</text>
</a>
</g>
<!-- Node1&#45;&gt;Node35 -->
<g id="edge130" class="edge"><title>Node1&#45;&gt;Node35</title>
<path fill="none" stroke="midnightblue" d="M554.691,-560.368C603.186,-540.97 720.938,-493.87 777.194,-471.367"/>
<polygon fill="midnightblue" stroke="midnightblue" points="778.648,-474.555 786.633,-467.591 776.049,-468.056 778.648,-474.555"/>
</g>
<!-- Node3 -->
<g id="node5" class="node"><title>Node3</title>
<a xlink:href="BaseClient_8hh.html" target="_top" xlink:title="BaseClient.hh">
<polygon fill="white" stroke="black" points="314.112,-280.5 314.112,-299.5 392.112,-299.5 392.112,-280.5 314.112,-280.5"/>
<text text-anchor="middle" x="353.112" y="-287.5" font-family="Helvetica,sans-Serif" font-size="10.00">BaseClient.hh</text>
</a>
</g>
<!-- Node2&#45;&gt;Node3 -->
<g id="edge4" class="edge"><title>Node2&#45;&gt;Node3</title>
<path fill="none" stroke="midnightblue" d="M236.978,-336.444C259.891,-327.478 296.087,-313.314 321.978,-303.183"/>
<polygon fill="midnightblue" stroke="midnightblue" points="323.311,-306.42 331.348,-299.516 320.76,-299.901 323.311,-306.42"/>
</g>
<!-- Node18 -->
<g id="node46" class="node"><title>Node18</title>
<a xlink:href="AbstractItemGenerator_8hh.html" target="_top" xlink:title="AbstractItemGenerator.hh">
<polygon fill="white" stroke="black" points="89.6119,-280.5 89.6119,-299.5 218.612,-299.5 218.612,-280.5 89.6119,-280.5"/>
<text text-anchor="middle" x="154.112" y="-287.5" font-family="Helvetica,sans-Serif" font-size="10.00">AbstractItemGenerator.hh</text>
</a>
</g>
<!-- Node2&#45;&gt;Node18 -->
<g id="edge56" class="edge"><title>Node2&#45;&gt;Node18</title>
<path fill="none" stroke="midnightblue" d="M205.311,-336.324C196.294,-328.341 182.706,-316.313 171.794,-306.653"/>
<polygon fill="midnightblue" stroke="midnightblue" points="173.899,-303.842 164.091,-299.834 169.259,-309.083 173.899,-303.842"/>
</g>
<!-- Node4 -->
<g id="node7" class="node"><title>Node4</title>
<a xlink:href="Listener_8hh.html" target="_top" xlink:title="Listener.hh">
<polygon fill="white" stroke="black" points="405.612,-224.5 405.612,-243.5 470.612,-243.5 470.612,-224.5 405.612,-224.5"/>
<text text-anchor="middle" x="438.112" y="-231.5" font-family="Helvetica,sans-Serif" font-size="10.00">Listener.hh</text>
</a>
</g>
<!-- Node3&#45;&gt;Node4 -->
<g id="edge6" class="edge"><title>Node3&#45;&gt;Node4</title>
<path fill="none" stroke="midnightblue" d="M366.769,-280.324C380.028,-271.9 400.38,-258.971 415.958,-249.074"/>
<polygon fill="midnightblue" stroke="midnightblue" points="417.925,-251.971 424.489,-243.655 414.172,-246.063 417.925,-251.971"/>
</g>
<!-- Node11 -->
<g id="node22" class="node"><title>Node11</title>
<a xlink:href="Connection_8hh.html" target="_top" xlink:title="Connection.hh">
<polygon fill="white" stroke="black" points="270.112,-112.5 270.112,-131.5 350.112,-131.5 350.112,-112.5 270.112,-112.5"/>
<text text-anchor="middle" x="310.112" y="-119.5" font-family="Helvetica,sans-Serif" font-size="10.00">Connection.hh</text>
</a>
</g>
<!-- Node3&#45;&gt;Node11 -->
<g id="edge46" class="edge"><title>Node3&#45;&gt;Node11</title>
<path fill="none" stroke="midnightblue" d="M330.035,-280.442C296.858,-266.726 236.95,-236.344 212.112,-188 198.768,-162.028 230.922,-144.788 261.901,-134.63"/>
<polygon fill="midnightblue" stroke="midnightblue" points="263.323,-137.855 271.859,-131.578 261.272,-131.162 263.323,-137.855"/>
</g>
<!-- Node16 -->
<g id="node40" class="node"><title>Node16</title>
<a xlink:href="Query_8hh.html" target="_top" xlink:title="Query.hh">
<polygon fill="white" stroke="black" points="653.112,-112.5 653.112,-131.5 709.112,-131.5 709.112,-112.5 653.112,-112.5"/>
<text text-anchor="middle" x="681.112" y="-119.5" font-family="Helvetica,sans-Serif" font-size="10.00">Query.hh</text>
</a>
</g>
<!-- Node3&#45;&gt;Node16 -->
<g id="edge48" class="edge"><title>Node3&#45;&gt;Node16</title>
<path fill="none" stroke="midnightblue" d="M382.03,-280.46C407.995,-272.375 446.873,-259.231 479.112,-244 548.33,-211.299 624.372,-161.693 660.215,-137.412"/>
<polygon fill="midnightblue" stroke="midnightblue" points="662.537,-140.065 668.828,-131.54 658.594,-134.281 662.537,-140.065"/>
</g>
<!-- Node5 -->
<g id="node9" class="node"><title>Node5</title>
<polygon fill="white" stroke="#bfbfbf" points="398.112,-56.5 398.112,-75.5 468.112,-75.5 468.112,-56.5 398.112,-56.5"/>
<text text-anchor="middle" x="433.112" y="-63.5" font-family="Helvetica,sans-Serif" font-size="10.00">mpd/client.h</text>
</g>
<!-- Node4&#45;&gt;Node5 -->
<g id="edge8" class="edge"><title>Node4&#45;&gt;Node5</title>
<path fill="none" stroke="midnightblue" d="M470.688,-229.226C496.237,-224.364 530.207,-213.269 547.112,-188 552.055,-180.612 548.766,-176.734 547.112,-168 542.136,-141.726 543.243,-131.655 525.112,-112 511.176,-96.8931 491.068,-86.254 473.202,-79.128"/>
<polygon fill="midnightblue" stroke="midnightblue" points="474.154,-75.7473 463.561,-75.5245 471.703,-82.3042 474.154,-75.7473"/>
</g>
<!-- Node6 -->
<g id="node11" class="node"><title>Node6</title>
<polygon fill="white" stroke="#bfbfbf" points="355.612,-168.5 355.612,-187.5 428.612,-187.5 428.612,-168.5 355.612,-168.5"/>
<text text-anchor="middle" x="392.112" y="-175.5" font-family="Helvetica,sans-Serif" font-size="10.00">mpd/async.h</text>
</g>
<!-- Node4&#45;&gt;Node6 -->
<g id="edge10" class="edge"><title>Node4&#45;&gt;Node6</title>
<path fill="none" stroke="midnightblue" d="M430.516,-224.083C423.884,-216.298 414.091,-204.801 406.054,-195.367"/>
<polygon fill="midnightblue" stroke="midnightblue" points="408.716,-193.094 399.567,-187.751 403.387,-197.633 408.716,-193.094"/>
</g>
<!-- Node7 -->
<g id="node13" class="node"><title>Node7</title>
<polygon fill="white" stroke="#bfbfbf" points="447.112,-168.5 447.112,-187.5 521.112,-187.5 521.112,-168.5 447.112,-168.5"/>
<text text-anchor="middle" x="484.112" y="-175.5" font-family="Helvetica,sans-Serif" font-size="10.00">mpd/parser.h</text>
</g>
<!-- Node4&#45;&gt;Node7 -->
<g id="edge12" class="edge"><title>Node4&#45;&gt;Node7</title>
<path fill="none" stroke="midnightblue" d="M445.708,-224.083C452.339,-216.298 462.133,-204.801 470.17,-195.367"/>
<polygon fill="midnightblue" stroke="midnightblue" points="472.837,-197.633 476.657,-187.751 467.508,-193.094 472.837,-197.633"/>
</g>
<!-- Node8 -->
<g id="node15" class="node"><title>Node8</title>
<polygon fill="white" stroke="#bfbfbf" points="291.112,-56.5 291.112,-75.5 347.112,-75.5 347.112,-56.5 291.112,-56.5"/>
<text text-anchor="middle" x="319.112" y="-63.5" font-family="Helvetica,sans-Serif" font-size="10.00">glibmm.h</text>
</g>
<!-- Node4&#45;&gt;Node8 -->
<g id="edge14" class="edge"><title>Node4&#45;&gt;Node8</title>
<path fill="none" stroke="midnightblue" d="M470.688,-229.226C496.237,-224.364 530.207,-213.269 547.112,-188 562.054,-165.666 537.479,-122.539 525.112,-112 512.39,-101.159 412.976,-82.8832 357.038,-73.2983"/>
<polygon fill="midnightblue" stroke="midnightblue" points="357.575,-69.8395 347.13,-71.6135 356.402,-76.7404 357.575,-69.8395"/>
</g>
<!-- Node9 -->
<g id="node17" class="node"><title>Node9</title>
<a xlink:href="Status_8hh.html" target="_top" xlink:title="Status.hh">
<polygon fill="white" stroke="black" points="457.612,-112.5 457.612,-131.5 516.612,-131.5 516.612,-112.5 457.612,-112.5"/>
<text text-anchor="middle" x="487.112" y="-119.5" font-family="Helvetica,sans-Serif" font-size="10.00">Status.hh</text>
</a>
</g>
<!-- Node4&#45;&gt;Node9 -->
<g id="edge16" class="edge"><title>Node4&#45;&gt;Node9</title>
<path fill="none" stroke="midnightblue" d="M405.499,-224.456C371.867,-213.997 326.846,-194.372 346.112,-168 352.3,-159.53 407.958,-143.557 447.461,-133.099"/>
<polygon fill="midnightblue" stroke="midnightblue" points="448.581,-136.424 457.366,-130.502 446.805,-129.652 448.581,-136.424"/>
</g>
<!-- Node10 -->
<g id="node20" class="node"><title>Node10</title>
<a xlink:href="NotifyData_8hh.html" target="_top" xlink:title="NotifyData.hh">
<polygon fill="white" stroke="black" points="221.612,-168.5 221.612,-187.5 298.612,-187.5 298.612,-168.5 221.612,-168.5"/>
<text text-anchor="middle" x="260.112" y="-175.5" font-family="Helvetica,sans-Serif" font-size="10.00">NotifyData.hh</text>
</a>
</g>
<!-- Node4&#45;&gt;Node10 -->
<g id="edge20" class="edge"><title>Node4&#45;&gt;Node10</title>
<path fill="none" stroke="midnightblue" d="M409.907,-224.444C379.702,-215.28 331.601,-200.688 298.083,-190.519"/>
<polygon fill="midnightblue" stroke="midnightblue" points="298.77,-187.07 288.185,-187.516 296.738,-193.769 298.77,-187.07"/>
</g>
<!-- Node4&#45;&gt;Node11 -->
<g id="edge44" class="edge"><title>Node4&#45;&gt;Node11</title>
<path fill="none" stroke="midnightblue" d="M470.007,-224.453C504.222,-213.731 551.01,-193.605 530.112,-168 527.399,-164.676 424.339,-144.636 360.255,-132.447"/>
<polygon fill="midnightblue" stroke="midnightblue" points="360.804,-128.989 350.326,-130.562 359.498,-135.866 360.804,-128.989"/>
</g>
<!-- Node9&#45;&gt;Node5 -->
<g id="edge18" class="edge"><title>Node9&#45;&gt;Node5</title>
<path fill="none" stroke="midnightblue" d="M478.195,-112.083C470.331,-104.22 458.681,-92.5688 449.193,-83.0813"/>
<polygon fill="midnightblue" stroke="midnightblue" points="451.409,-80.3473 441.863,-75.7511 446.459,-85.2971 451.409,-80.3473"/>
</g>
<!-- Node10&#45;&gt;Node9 -->
<g id="edge32" class="edge"><title>Node10&#45;&gt;Node9</title>
<path fill="none" stroke="midnightblue" d="M296.081,-168.444C337.399,-158.615 404.975,-142.539 447.692,-132.377"/>
<polygon fill="midnightblue" stroke="midnightblue" points="448.542,-135.773 457.46,-130.054 446.922,-128.963 448.542,-135.773"/>
</g>
<!-- Node10&#45;&gt;Node11 -->
<g id="edge22" class="edge"><title>Node10&#45;&gt;Node11</title>
<path fill="none" stroke="midnightblue" d="M268.368,-168.083C275.577,-160.298 286.222,-148.801 294.958,-139.367"/>
<polygon fill="midnightblue" stroke="midnightblue" points="297.783,-141.467 302.009,-131.751 292.647,-136.711 297.783,-141.467"/>
</g>
<!-- Node12 -->
<g id="node26" class="node"><title>Node12</title>
<a xlink:href="Statistics_8hh.html" target="_top" xlink:title="Statistics.hh">
<polygon fill="white" stroke="black" points="368.612,-112.5 368.612,-131.5 439.612,-131.5 439.612,-112.5 368.612,-112.5"/>
<text text-anchor="middle" x="404.112" y="-119.5" font-family="Helvetica,sans-Serif" font-size="10.00">Statistics.hh</text>
</a>
</g>
<!-- Node10&#45;&gt;Node12 -->
<g id="edge28" class="edge"><title>Node10&#45;&gt;Node12</title>
<path fill="none" stroke="midnightblue" d="M282.929,-168.444C306.944,-159.438 344.941,-145.189 371.981,-135.049"/>
<polygon fill="midnightblue" stroke="midnightblue" points="373.267,-138.305 381.401,-131.516 370.809,-131.751 373.267,-138.305"/>
</g>
<!-- Node13 -->
<g id="node30" class="node"><title>Node13</title>
<a xlink:href="Song_8hh.html" target="_top" xlink:title="Song.hh">
<polygon fill="white" stroke="black" points="198.612,-112.5 198.612,-131.5 251.612,-131.5 251.612,-112.5 198.612,-112.5"/>
<text text-anchor="middle" x="225.112" y="-119.5" font-family="Helvetica,sans-Serif" font-size="10.00">Song.hh</text>
</a>
</g>
<!-- Node10&#45;&gt;Node13 -->
<g id="edge34" class="edge"><title>Node10&#45;&gt;Node13</title>
<path fill="none" stroke="midnightblue" d="M254.332,-168.083C249.44,-160.534 242.284,-149.495 236.279,-140.23"/>
<polygon fill="midnightblue" stroke="midnightblue" points="239.16,-138.239 230.784,-131.751 233.286,-142.046 239.16,-138.239"/>
</g>
<!-- Node11&#45;&gt;Node5 -->
<g id="edge24" class="edge"><title>Node11&#45;&gt;Node5</title>
<path fill="none" stroke="midnightblue" d="M329.602,-112.444C349.754,-103.596 381.435,-89.6875 404.443,-79.5865"/>
<polygon fill="midnightblue" stroke="midnightblue" points="405.964,-82.7411 413.713,-75.5164 403.15,-76.3316 405.964,-82.7411"/>
</g>
<!-- Node11&#45;&gt;Node8 -->
<g id="edge26" class="edge"><title>Node11&#45;&gt;Node8</title>
<path fill="none" stroke="midnightblue" d="M311.598,-112.083C312.791,-104.927 314.506,-94.6353 315.997,-85.6911"/>
<polygon fill="midnightblue" stroke="midnightblue" points="319.462,-86.1904 317.653,-75.7511 312.557,-85.0396 319.462,-86.1904"/>
</g>
<!-- Node12&#45;&gt;Node5 -->
<g id="edge30" class="edge"><title>Node12&#45;&gt;Node5</title>
<path fill="none" stroke="midnightblue" d="M408.901,-112.083C412.87,-104.691 418.637,-93.9533 423.547,-84.8111"/>
<polygon fill="midnightblue" stroke="midnightblue" points="426.764,-86.217 428.412,-75.7511 420.597,-82.9051 426.764,-86.217"/>
</g>
<!-- Node13&#45;&gt;Node5 -->
<g id="edge36" class="edge"><title>Node13&#45;&gt;Node5</title>
<path fill="none" stroke="midnightblue" d="M251.878,-114.051C286.95,-104.946 348.868,-88.871 390.442,-78.0777"/>
<polygon fill="midnightblue" stroke="midnightblue" points="391.485,-81.4231 400.285,-75.5225 389.726,-74.6477 391.485,-81.4231"/>
</g>
<!-- Node13&#45;&gt;Node8 -->
<g id="edge42" class="edge"><title>Node13&#45;&gt;Node8</title>
<path fill="none" stroke="midnightblue" d="M240.215,-112.324C255.015,-103.822 277.806,-90.7288 295.094,-80.7975"/>
<polygon fill="midnightblue" stroke="midnightblue" points="297.119,-83.6707 304.047,-75.6545 293.632,-77.6009 297.119,-83.6707"/>
</g>
<!-- Node14 -->
<g id="node33" class="node"><title>Node14</title>
<a xlink:href="AbstractComposite_8hh.html" target="_top" xlink:title="AbstractComposite.hh">
<polygon fill="white" stroke="black" points="159.112,-56.5 159.112,-75.5 273.112,-75.5 273.112,-56.5 159.112,-56.5"/>
<text text-anchor="middle" x="216.112" y="-63.5" font-family="Helvetica,sans-Serif" font-size="10.00">AbstractComposite.hh</text>
</a>
</g>
<!-- Node13&#45;&gt;Node14 -->
<g id="edge38" class="edge"><title>Node13&#45;&gt;Node14</title>
<path fill="none" stroke="midnightblue" d="M223.626,-112.083C222.433,-104.927 220.718,-94.6353 219.227,-85.6911"/>
<polygon fill="midnightblue" stroke="midnightblue" points="222.667,-85.0396 217.57,-75.7511 215.762,-86.1904 222.667,-85.0396"/>
</g>
<!-- Node15 -->
<g id="node35" class="node"><title>Node15</title>
<polygon fill="white" stroke="#bfbfbf" points="349.112,-0.5 349.112,-19.5 393.112,-19.5 393.112,-0.5 349.112,-0.5"/>
<text text-anchor="middle" x="371.112" y="-7.5" font-family="Helvetica,sans-Serif" font-size="10.00">vector</text>
</g>
<!-- Node14&#45;&gt;Node15 -->
<g id="edge40" class="edge"><title>Node14&#45;&gt;Node15</title>
<path fill="none" stroke="midnightblue" d="M240.672,-56.4435C267.245,-47.1858 309.725,-32.3866 338.945,-22.2066"/>
<polygon fill="midnightblue" stroke="midnightblue" points="340.388,-25.4103 348.68,-18.8151 338.085,-18.7999 340.388,-25.4103"/>
</g>
<!-- Node16&#45;&gt;Node5 -->
<g id="edge50" class="edge"><title>Node16&#45;&gt;Node5</title>
<path fill="none" stroke="midnightblue" d="M652.663,-114.806C610.051,-105.527 529.239,-87.9309 478.439,-76.8696"/>
<polygon fill="midnightblue" stroke="midnightblue" points="478.905,-73.3891 468.389,-74.6813 477.416,-80.2288 478.905,-73.3891"/>
</g>
<!-- Node16&#45;&gt;Node15 -->
<g id="edge52" class="edge"><title>Node16&#45;&gt;Node15</title>
<path fill="none" stroke="midnightblue" d="M657.045,-112.46C601.66,-92.8074 465.175,-44.3772 402.951,-22.2979"/>
<polygon fill="midnightblue" stroke="midnightblue" points="403.871,-18.9106 393.277,-18.8649 401.53,-25.5076 403.871,-18.9106"/>
</g>
<!-- Node17 -->
<g id="node44" class="node"><title>Node17</title>
<a xlink:href="AbstractClientExtension_8hh.html" target="_top" xlink:title="AbstractClientExtension.hh">
<polygon fill="white" stroke="black" points="613.112,-56.5 613.112,-75.5 749.112,-75.5 749.112,-56.5 613.112,-56.5"/>
<text text-anchor="middle" x="681.112" y="-63.5" font-family="Helvetica,sans-Serif" font-size="10.00">AbstractClientExtension.hh</text>
</a>
</g>
<!-- Node16&#45;&gt;Node17 -->
<g id="edge54" class="edge"><title>Node16&#45;&gt;Node17</title>
<path fill="none" stroke="midnightblue" d="M681.112,-112.083C681.112,-105.006 681.112,-94.8611 681.112,-85.9865"/>
<polygon fill="midnightblue" stroke="midnightblue" points="684.612,-85.751 681.112,-75.7511 677.612,-85.7511 684.612,-85.751"/>
</g>
<!-- Node19 -->
<g id="node48" class="node"><title>Node19</title>
<a xlink:href="AbstractItemlist_8hh.html" target="_top" xlink:title="AbstractItemlist.hh">
<polygon fill="white" stroke="black" points="65.6119,-224.5 65.6119,-243.5 164.612,-243.5 164.612,-224.5 65.6119,-224.5"/>
<text text-anchor="middle" x="115.112" y="-231.5" font-family="Helvetica,sans-Serif" font-size="10.00">AbstractItemlist.hh</text>
</a>
</g>
<!-- Node18&#45;&gt;Node19 -->
<g id="edge58" class="edge"><title>Node18&#45;&gt;Node19</title>
<path fill="none" stroke="midnightblue" d="M147.672,-280.083C142.163,-272.455 134.081,-261.264 127.347,-251.941"/>
<polygon fill="midnightblue" stroke="midnightblue" points="130.124,-249.809 121.432,-243.751 124.45,-253.907 130.124,-249.809"/>
</g>
<!-- Node19&#45;&gt;Node14 -->
<g id="edge60" class="edge"><title>Node19&#45;&gt;Node14</title>
<path fill="none" stroke="midnightblue" d="M120.542,-224.075C136.647,-197.606 184.346,-119.209 205.641,-84.2097"/>
<polygon fill="midnightblue" stroke="midnightblue" points="208.691,-85.9304 210.899,-75.5681 202.711,-82.2918 208.691,-85.9304"/>
</g>
<!-- Node21 -->
<g id="node53" class="node"><title>Node21</title>
<a xlink:href="ui__includes_8hh.html" target="_top" xlink:title="../ui_includes.hh">
<polygon fill="white" stroke="black" points="35.1119,-392.5 35.1119,-411.5 123.112,-411.5 123.112,-392.5 35.1119,-392.5"/>
<text text-anchor="middle" x="79.1119" y="-399.5" font-family="Helvetica,sans-Serif" font-size="10.00">../ui_includes.hh</text>
</a>
</g>
<!-- Node20&#45;&gt;Node21 -->
<g id="edge64" class="edge"><title>Node20&#45;&gt;Node21</title>
<path fill="none" stroke="midnightblue" d="M230.838,-504.442C237.551,-491.002 247.714,-464.751 235.112,-448 228.43,-439.119 170.772,-424.101 127.484,-413.878"/>
<polygon fill="midnightblue" stroke="midnightblue" points="128.195,-410.45 117.661,-411.582 126.602,-417.267 128.195,-410.45"/>
</g>
<!-- Node23 -->
<g id="node57" class="node"><title>Node23</title>
<polygon fill="white" stroke="#bfbfbf" points="172.112,-448.5 172.112,-467.5 226.112,-467.5 226.112,-448.5 172.112,-448.5"/>
<text text-anchor="middle" x="199.112" y="-455.5" font-family="Helvetica,sans-Serif" font-size="10.00">iostream</text>
</g>
<!-- Node20&#45;&gt;Node23 -->
<g id="edge68" class="edge"><title>Node20&#45;&gt;Node23</title>
<path fill="none" stroke="midnightblue" d="M221.653,-504.083C217.958,-496.691 212.589,-485.953 208.017,-476.811"/>
<polygon fill="midnightblue" stroke="midnightblue" points="211.09,-475.13 203.487,-467.751 204.829,-478.261 211.09,-475.13"/>
</g>
<!-- Node24 -->
<g id="node59" class="node"><title>Node24</title>
<a xlink:href="BrowserList_8hh.html" target="_top" xlink:title="../GManager/BrowserList.hh">
<polygon fill="white" stroke="black" points="14.6119,-448.5 14.6119,-467.5 153.612,-467.5 153.612,-448.5 14.6119,-448.5"/>
<text text-anchor="middle" x="84.1119" y="-455.5" font-family="Helvetica,sans-Serif" font-size="10.00">../GManager/BrowserList.hh</text>
</a>
</g>
<!-- Node20&#45;&gt;Node24 -->
<g id="edge70" class="edge"><title>Node20&#45;&gt;Node24</title>
<path fill="none" stroke="midnightblue" d="M203.612,-504.444C180.034,-495.478 142.79,-481.314 116.148,-471.183"/>
<polygon fill="midnightblue" stroke="midnightblue" points="117.098,-467.8 106.507,-467.516 114.61,-474.342 117.098,-467.8"/>
</g>
<!-- Node21&#45;&gt;Node22 -->
<g id="edge66" class="edge"><title>Node21&#45;&gt;Node22</title>
<path fill="none" stroke="midnightblue" d="M123.328,-393.287C126.297,-392.832 129.246,-392.398 132.112,-392 270.655,-372.743 436.187,-356.944 509.262,-350.335"/>
<polygon fill="midnightblue" stroke="midnightblue" points="509.712,-353.809 519.358,-349.427 509.085,-346.837 509.712,-353.809"/>
</g>
<!-- Node24&#45;&gt;Node21 -->
<g id="edge72" class="edge"><title>Node24&#45;&gt;Node21</title>
<path fill="none" stroke="midnightblue" d="M83.2863,-448.083C82.631,-441.006 81.6917,-430.861 80.8699,-421.986"/>
<polygon fill="midnightblue" stroke="midnightblue" points="84.3294,-421.386 79.9222,-411.751 77.3592,-422.031 84.3294,-421.386"/>
</g>
<!-- Node25 -->
<g id="node62" class="node"><title>Node25</title>
<a xlink:href="AbstractClientUser_8hh.html" target="_top" xlink:title="../MPD/AbstractClientUser.hh">
<polygon fill="white" stroke="black" points="141.112,-392.5 141.112,-411.5 289.112,-411.5 289.112,-392.5 141.112,-392.5"/>
<text text-anchor="middle" x="215.112" y="-399.5" font-family="Helvetica,sans-Serif" font-size="10.00">../MPD/AbstractClientUser.hh</text>
</a>
</g>
<!-- Node24&#45;&gt;Node25 -->
<g id="edge74" class="edge"><title>Node24&#45;&gt;Node25</title>
<path fill="none" stroke="midnightblue" d="M104.869,-448.444C126.428,-439.557 160.375,-425.563 184.906,-415.451"/>
<polygon fill="midnightblue" stroke="midnightblue" points="186.54,-418.563 194.452,-411.516 183.872,-412.092 186.54,-418.563"/>
</g>
<!-- Node25&#45;&gt;Node2 -->
<g id="edge76" class="edge"><title>Node25&#45;&gt;Node2</title>
<path fill="none" stroke="midnightblue" d="M215.112,-392.083C215.112,-385.006 215.112,-374.861 215.112,-365.986"/>
<polygon fill="midnightblue" stroke="midnightblue" points="218.612,-365.751 215.112,-355.751 211.612,-365.751 218.612,-365.751"/>
</g>
<!-- Node26&#45;&gt;Node22 -->
<g id="edge82" class="edge"><title>Node26&#45;&gt;Node22</title>
<path fill="none" stroke="midnightblue" d="M919.409,-448.442C901.072,-434.258 861.955,-406.053 824.112,-392 780.955,-375.974 650.567,-359.087 585.253,-351.343"/>
<polygon fill="midnightblue" stroke="midnightblue" points="585.316,-347.826 574.977,-350.136 584.5,-354.778 585.316,-347.826"/>
</g>
<!-- Node27 -->
<g id="node69" class="node"><title>Node27</title>
<a xlink:href="ImageWall_8hh.html" target="_top" xlink:title="ImageWall.hh">
<polygon fill="white" stroke="black" points="719.612,-392.5 719.612,-411.5 796.612,-411.5 796.612,-392.5 719.612,-392.5"/>
<text text-anchor="middle" x="758.112" y="-399.5" font-family="Helvetica,sans-Serif" font-size="10.00">ImageWall.hh</text>
</a>
</g>
<!-- Node26&#45;&gt;Node27 -->
<g id="edge84" class="edge"><title>Node26&#45;&gt;Node27</title>
<path fill="none" stroke="midnightblue" d="M902.858,-448.444C873.671,-439.28 827.191,-424.688 794.803,-414.519"/>
<polygon fill="midnightblue" stroke="midnightblue" points="795.828,-411.173 785.238,-411.516 793.731,-417.851 795.828,-411.173"/>
</g>
<!-- Node26&#45;&gt;Node29 -->
<g id="edge90" class="edge"><title>Node26&#45;&gt;Node29</title>
<path fill="none" stroke="midnightblue" d="M877.825,-448.622C818.072,-439.047 720.301,-423.38 656.323,-413.129"/>
<polygon fill="midnightblue" stroke="midnightblue" points="656.784,-409.658 646.356,-411.532 655.676,-416.57 656.784,-409.658"/>
</g>
<!-- Node27&#45;&gt;Node22 -->
<g id="edge86" class="edge"><title>Node27&#45;&gt;Node22</title>
<path fill="none" stroke="midnightblue" d="M724.678,-392.444C686.516,-382.677 624.254,-366.742 584.51,-356.571"/>
<polygon fill="midnightblue" stroke="midnightblue" points="585.229,-353.142 574.674,-354.054 583.494,-359.924 585.229,-353.142"/>
</g>
<!-- Node28 -->
<g id="node72" class="node"><title>Node28</title>
<polygon fill="white" stroke="#bfbfbf" points="645.612,-336.5 645.612,-355.5 704.612,-355.5 704.612,-336.5 645.612,-336.5"/>
<text text-anchor="middle" x="675.112" y="-343.5" font-family="Helvetica,sans-Serif" font-size="10.00">glyr/glyr.h</text>
</g>
<!-- Node27&#45;&gt;Node28 -->
<g id="edge88" class="edge"><title>Node27&#45;&gt;Node28</title>
<path fill="none" stroke="midnightblue" d="M744.777,-392.324C731.95,-383.979 712.327,-371.212 697.172,-361.352"/>
<polygon fill="midnightblue" stroke="midnightblue" points="698.705,-358.174 688.414,-355.655 694.888,-364.042 698.705,-358.174"/>
</g>
<!-- Node29&#45;&gt;Node2 -->
<g id="edge92" class="edge"><title>Node29&#45;&gt;Node2</title>
<path fill="none" stroke="midnightblue" d="M533.217,-392.444C462.481,-382.338 345.529,-365.631 274.858,-355.535"/>
<polygon fill="midnightblue" stroke="midnightblue" points="275.173,-352.045 264.778,-354.095 274.183,-358.974 275.173,-352.045"/>
</g>
<!-- Node29&#45;&gt;Node28 -->
<g id="edge94" class="edge"><title>Node29&#45;&gt;Node28</title>
<path fill="none" stroke="midnightblue" d="M606.287,-392.324C618.959,-383.979 638.345,-371.212 653.318,-361.352"/>
<polygon fill="midnightblue" stroke="midnightblue" points="655.543,-364.078 661.97,-355.655 651.693,-358.231 655.543,-364.078"/>
</g>
<!-- Node30&#45;&gt;Node22 -->
<g id="edge98" class="edge"><title>Node30&#45;&gt;Node22</title>
<path fill="none" stroke="midnightblue" d="M555.889,-448.495C541.341,-441.168 522.811,-429.063 514.112,-412 505.639,-395.38 517.864,-376.349 529.761,-363.194"/>
<polygon fill="midnightblue" stroke="midnightblue" points="532.461,-365.438 536.939,-355.836 527.45,-360.551 532.461,-365.438"/>
</g>
<!-- Node30&#45;&gt;Node27 -->
<g id="edge100" class="edge"><title>Node30&#45;&gt;Node27</title>
<path fill="none" stroke="midnightblue" d="M604.95,-448.444C635.968,-439.241 685.441,-424.562 719.73,-414.388"/>
<polygon fill="midnightblue" stroke="midnightblue" points="720.817,-417.716 729.408,-411.516 718.826,-411.006 720.817,-417.716"/>
</g>
<!-- Node30&#45;&gt;Node29 -->
<g id="edge102" class="edge"><title>Node30&#45;&gt;Node29</title>
<path fill="none" stroke="midnightblue" d="M578.919,-448.083C581.197,-440.849 584.483,-430.409 587.32,-421.397"/>
<polygon fill="midnightblue" stroke="midnightblue" points="590.693,-422.341 590.357,-411.751 584.016,-420.239 590.693,-422.341"/>
</g>
<!-- Node31&#45;&gt;Node22 -->
<g id="edge106" class="edge"><title>Node31&#45;&gt;Node22</title>
<path fill="none" stroke="midnightblue" d="M441.136,-448.368C460.45,-429.894 506.033,-386.293 530.653,-362.744"/>
<polygon fill="midnightblue" stroke="midnightblue" points="533.323,-365.033 538.13,-355.591 528.484,-359.974 533.323,-365.033"/>
</g>
<!-- Node31&#45;&gt;Node29 -->
<g id="edge108" class="edge"><title>Node31&#45;&gt;Node29</title>
<path fill="none" stroke="midnightblue" d="M457.623,-448.444C484.708,-439.359 527.702,-424.939 557.981,-414.783"/>
<polygon fill="midnightblue" stroke="midnightblue" points="559.352,-418.015 567.72,-411.516 557.126,-411.378 559.352,-418.015"/>
</g>
<!-- Node32&#45;&gt;Node22 -->
<g id="edge112" class="edge"><title>Node32&#45;&gt;Node22</title>
<path fill="none" stroke="midnightblue" d="M323.775,-448.075C322.233,-434.131 321.541,-407.204 336.112,-392 359.558,-367.536 455.266,-355.174 509.376,-350.028"/>
<polygon fill="midnightblue" stroke="midnightblue" points="509.969,-353.488 519.609,-349.093 509.333,-346.517 509.969,-353.488"/>
</g>
<!-- Node32&#45;&gt;Node25 -->
<g id="edge114" class="edge"><title>Node32&#45;&gt;Node25</title>
<path fill="none" stroke="midnightblue" d="M307.439,-448.324C289.718,-439.625 262.209,-426.12 241.824,-416.113"/>
<polygon fill="midnightblue" stroke="midnightblue" points="243.261,-412.919 232.741,-411.655 240.176,-419.203 243.261,-412.919"/>
</g>
<!-- Node32&#45;&gt;Node29 -->
<g id="edge120" class="edge"><title>Node32&#45;&gt;Node29</title>
<path fill="none" stroke="midnightblue" d="M367.577,-448.444C414.525,-438.984 490.188,-423.738 540.766,-413.547"/>
<polygon fill="midnightblue" stroke="midnightblue" points="541.734,-416.923 550.845,-411.516 540.351,-410.061 541.734,-416.923"/>
</g>
<!-- Node33 -->
<g id="node91" class="node"><title>Node33</title>
<a xlink:href="EventImage_8hh.html" target="_top" xlink:title="EventImage.hh">
<polygon fill="white" stroke="black" points="345.612,-392.5 345.612,-411.5 428.612,-411.5 428.612,-392.5 345.612,-392.5"/>
<text text-anchor="middle" x="387.112" y="-399.5" font-family="Helvetica,sans-Serif" font-size="10.00">EventImage.hh</text>
</a>
</g>
<!-- Node32&#45;&gt;Node33 -->
<g id="edge116" class="edge"><title>Node32&#45;&gt;Node33</title>
<path fill="none" stroke="midnightblue" d="M335.073,-448.324C344.238,-440.341 358.049,-428.313 369.14,-418.653"/>
<polygon fill="midnightblue" stroke="midnightblue" points="371.727,-421.041 376.969,-411.834 367.13,-415.762 371.727,-421.041"/>
</g>
<!-- Node33&#45;&gt;Node22 -->
<g id="edge118" class="edge"><title>Node33&#45;&gt;Node22</title>
<path fill="none" stroke="midnightblue" d="M412.464,-392.444C439.381,-383.359 482.108,-368.939 512.199,-358.783"/>
<polygon fill="midnightblue" stroke="midnightblue" points="513.522,-362.031 521.878,-355.516 511.284,-355.398 513.522,-362.031"/>
</g>
<!-- Node34&#45;&gt;Node22 -->
<g id="edge124" class="edge"><title>Node34&#45;&gt;Node22</title>
<path fill="none" stroke="midnightblue" d="M687.419,-448.242C687.417,-434.526 685.404,-407.906 671.112,-392 649.056,-367.454 612.545,-356.284 584.838,-351.208"/>
<polygon fill="midnightblue" stroke="midnightblue" points="585.133,-347.71 574.698,-349.546 584.001,-354.617 585.133,-347.71"/>
</g>
<!-- Node34&#45;&gt;Node27 -->
<g id="edge126" class="edge"><title>Node34&#45;&gt;Node27</title>
<path fill="none" stroke="midnightblue" d="M698.519,-448.324C709.221,-440.185 725.453,-427.839 738.275,-418.087"/>
<polygon fill="midnightblue" stroke="midnightblue" points="740.656,-420.673 746.497,-411.834 736.419,-415.102 740.656,-420.673"/>
</g>
<!-- Node34&#45;&gt;Node29 -->
<g id="edge128" class="edge"><title>Node34&#45;&gt;Node29</title>
<path fill="none" stroke="midnightblue" d="M672.009,-448.324C657.209,-439.822 634.418,-426.729 617.13,-416.797"/>
<polygon fill="midnightblue" stroke="midnightblue" points="618.592,-413.601 608.177,-411.655 615.105,-419.671 618.592,-413.601"/>
</g>
<!-- Node35&#45;&gt;Node22 -->
<g id="edge132" class="edge"><title>Node35&#45;&gt;Node22</title>
<path fill="none" stroke="midnightblue" d="M810.794,-448.169C814.39,-434.353 818.851,-407.598 805.112,-392 790.706,-375.645 653.144,-358.545 584.994,-350.991"/>
<polygon fill="midnightblue" stroke="midnightblue" points="585.003,-347.471 574.682,-349.862 584.242,-354.43 585.003,-347.471"/>
</g>
<!-- Node35&#45;&gt;Node27 -->
<g id="edge134" class="edge"><title>Node35&#45;&gt;Node27</title>
<path fill="none" stroke="midnightblue" d="M799.855,-448.083C792.647,-440.298 782.002,-428.801 773.266,-419.367"/>
<polygon fill="midnightblue" stroke="midnightblue" points="775.577,-416.711 766.215,-411.751 770.441,-421.467 775.577,-416.711"/>
</g>
<!-- Node35&#45;&gt;Node29 -->
<g id="edge136" class="edge"><title>Node35&#45;&gt;Node29</title>
<path fill="none" stroke="midnightblue" d="M774.045,-448.444C736.931,-439.122 677.451,-424.183 636.897,-413.997"/>
<polygon fill="midnightblue" stroke="midnightblue" points="637.571,-410.558 627.02,-411.516 635.866,-417.347 637.571,-410.558"/>
</g>
</g>
</svg>
