<?xml version="1.0" encoding="UTF-8" standalone="no"?>
<!DOCTYPE svg PUBLIC "-//W3C//DTD SVG 1.1//EN"
 "http://www.w3.org/Graphics/SVG/1.1/DTD/svg11.dtd">
<!-- Generated by graphviz version 2.28.0 (20120217.0315)
 -->
<!-- Title: G Pages: 1 -->
<svg width="618pt" height="476pt"
 viewBox="0.00 0.00 617.82 476.00" xmlns="http://www.w3.org/2000/svg" xmlns:xlink="http://www.w3.org/1999/xlink">
<g id="graph1" class="graph" transform="scale(1 1) rotate(0) translate(4 472)">
<title>G</title>
<polygon fill="white" stroke="white" points="-4,5 -4,-472 614.818,-472 614.818,5 -4,5"/>
<!-- Node1 -->
<g id="node1" class="node"><title>Node1</title>
<polygon fill="#bfbfbf" stroke="black" points="136.318,-448.5 136.318,-467.5 351.318,-467.5 351.318,-448.5 136.318,-448.5"/>
<text text-anchor="middle" x="243.818" y="-455.5" font-family="Helvetica,sans-Serif" font-size="10.00">src/Browser/NowPlaying/OtherAlbumsMgr.hh</text>
</g>
<!-- Node2 -->
<g id="node3" class="node"><title>Node2</title>
<polygon fill="white" stroke="#bfbfbf" points="155.318,-336.5 155.318,-355.5 210.318,-355.5 210.318,-336.5 155.318,-336.5"/>
<text text-anchor="middle" x="182.818" y="-343.5" font-family="Helvetica,sans-Serif" font-size="10.00">gtkmm.h</text>
</g>
<!-- Node1&#45;&gt;Node2 -->
<g id="edge2" class="edge"><title>Node1&#45;&gt;Node2</title>
<path fill="none" stroke="midnightblue" d="M231.422,-448.494C220.589,-440.386 205.305,-427.186 196.818,-412 188.81,-397.672 185.379,-379.209 183.911,-365.623"/>
<polygon fill="midnightblue" stroke="midnightblue" points="187.391,-365.236 183.082,-355.557 180.414,-365.81 187.391,-365.236"/>
</g>
<!-- Node3 -->
<g id="node5" class="node"><title>Node3</title>
<a xlink:href="ImageWall_8hh.html" target="_top" xlink:title="ImageWall.hh">
<polygon fill="white" stroke="black" points="205.318,-392.5 205.318,-411.5 282.318,-411.5 282.318,-392.5 205.318,-392.5"/>
<text text-anchor="middle" x="243.818" y="-399.5" font-family="Helvetica,sans-Serif" font-size="10.00">ImageWall.hh</text>
</a>
</g>
<!-- Node1&#45;&gt;Node3 -->
<g id="edge4" class="edge"><title>Node1&#45;&gt;Node3</title>
<path fill="none" stroke="midnightblue" d="M243.818,-448.083C243.818,-441.006 243.818,-430.861 243.818,-421.986"/>
<polygon fill="midnightblue" stroke="midnightblue" points="247.318,-421.751 243.818,-411.751 240.318,-421.751 247.318,-421.751"/>
</g>
<!-- Node5 -->
<g id="node10" class="node"><title>Node5</title>
<a xlink:href="UpdateInterface_8hh.html" target="_top" xlink:title="../../Glyr/UpdateInterface.hh">
<polygon fill="white" stroke="black" points="300.318,-392.5 300.318,-411.5 439.318,-411.5 439.318,-392.5 300.318,-392.5"/>
<text text-anchor="middle" x="369.818" y="-399.5" font-family="Helvetica,sans-Serif" font-size="10.00">../../Glyr/UpdateInterface.hh</text>
</a>
</g>
<!-- Node1&#45;&gt;Node5 -->
<g id="edge10" class="edge"><title>Node1&#45;&gt;Node5</title>
<path fill="none" stroke="midnightblue" d="M263.783,-448.444C284.427,-439.596 316.88,-425.687 340.449,-415.586"/>
<polygon fill="midnightblue" stroke="midnightblue" points="342.133,-418.673 349.946,-411.516 339.376,-412.239 342.133,-418.673"/>
</g>
<!-- Node3&#45;&gt;Node2 -->
<g id="edge6" class="edge"><title>Node3&#45;&gt;Node2</title>
<path fill="none" stroke="midnightblue" d="M234.017,-392.324C225,-384.341 211.412,-372.313 200.5,-362.653"/>
<polygon fill="midnightblue" stroke="midnightblue" points="202.604,-359.842 192.797,-355.834 197.964,-365.083 202.604,-359.842"/>
</g>
<!-- Node4 -->
<g id="node8" class="node"><title>Node4</title>
<polygon fill="white" stroke="#bfbfbf" points="240.318,-336.5 240.318,-355.5 299.318,-355.5 299.318,-336.5 240.318,-336.5"/>
<text text-anchor="middle" x="269.818" y="-343.5" font-family="Helvetica,sans-Serif" font-size="10.00">glyr/glyr.h</text>
</g>
<!-- Node3&#45;&gt;Node4 -->
<g id="edge8" class="edge"><title>Node3&#45;&gt;Node4</title>
<path fill="none" stroke="midnightblue" d="M248.111,-392.083C251.67,-384.691 256.84,-373.953 261.242,-364.811"/>
<polygon fill="midnightblue" stroke="midnightblue" points="264.419,-366.279 265.604,-355.751 258.112,-363.243 264.419,-366.279"/>
</g>
<!-- Node5&#45;&gt;Node4 -->
<g id="edge72" class="edge"><title>Node5&#45;&gt;Node4</title>
<path fill="none" stroke="midnightblue" d="M353.751,-392.324C337.86,-383.743 313.31,-370.486 294.859,-360.522"/>
<polygon fill="midnightblue" stroke="midnightblue" points="296.307,-357.326 285.845,-355.655 292.981,-363.486 296.307,-357.326"/>
</g>
<!-- Node6 -->
<g id="node12" class="node"><title>Node6</title>
<a xlink:href="Client_8hh.html" target="_top" xlink:title="../MPD/Client.hh">
<polygon fill="white" stroke="black" points="324.818,-336.5 324.818,-355.5 414.818,-355.5 414.818,-336.5 324.818,-336.5"/>
<text text-anchor="middle" x="369.818" y="-343.5" font-family="Helvetica,sans-Serif" font-size="10.00">../MPD/Client.hh</text>
</a>
</g>
<!-- Node5&#45;&gt;Node6 -->
<g id="edge12" class="edge"><title>Node5&#45;&gt;Node6</title>
<path fill="none" stroke="midnightblue" d="M369.818,-392.083C369.818,-385.006 369.818,-374.861 369.818,-365.986"/>
<polygon fill="midnightblue" stroke="midnightblue" points="373.318,-365.751 369.818,-355.751 366.318,-365.751 373.318,-365.751"/>
</g>
<!-- Node7 -->
<g id="node14" class="node"><title>Node7</title>
<a xlink:href="BaseClient_8hh.html" target="_top" xlink:title="BaseClient.hh">
<polygon fill="white" stroke="black" points="230.818,-280.5 230.818,-299.5 308.818,-299.5 308.818,-280.5 230.818,-280.5"/>
<text text-anchor="middle" x="269.818" y="-287.5" font-family="Helvetica,sans-Serif" font-size="10.00">BaseClient.hh</text>
</a>
</g>
<!-- Node6&#45;&gt;Node7 -->
<g id="edge14" class="edge"><title>Node6&#45;&gt;Node7</title>
<path fill="none" stroke="midnightblue" d="M353.751,-336.324C337.86,-327.743 313.31,-314.486 294.859,-304.522"/>
<polygon fill="midnightblue" stroke="midnightblue" points="296.307,-301.326 285.845,-299.655 292.981,-307.486 296.307,-301.326"/>
</g>
<!-- Node22 -->
<g id="node55" class="node"><title>Node22</title>
<a xlink:href="AbstractItemGenerator_8hh.html" target="_top" xlink:title="AbstractItemGenerator.hh">
<polygon fill="white" stroke="black" points="404.318,-280.5 404.318,-299.5 533.318,-299.5 533.318,-280.5 404.318,-280.5"/>
<text text-anchor="middle" x="468.818" y="-287.5" font-family="Helvetica,sans-Serif" font-size="10.00">AbstractItemGenerator.hh</text>
</a>
</g>
<!-- Node6&#45;&gt;Node22 -->
<g id="edge66" class="edge"><title>Node6&#45;&gt;Node22</title>
<path fill="none" stroke="midnightblue" d="M385.724,-336.324C401.456,-327.743 425.76,-314.486 444.027,-304.522"/>
<polygon fill="midnightblue" stroke="midnightblue" points="445.848,-307.516 452.951,-299.655 442.496,-301.37 445.848,-307.516"/>
</g>
<!-- Node8 -->
<g id="node16" class="node"><title>Node8</title>
<a xlink:href="Listener_8hh.html" target="_top" xlink:title="Listener.hh">
<polygon fill="white" stroke="black" points="198.318,-224.5 198.318,-243.5 263.318,-243.5 263.318,-224.5 198.318,-224.5"/>
<text text-anchor="middle" x="230.818" y="-231.5" font-family="Helvetica,sans-Serif" font-size="10.00">Listener.hh</text>
</a>
</g>
<!-- Node7&#45;&gt;Node8 -->
<g id="edge16" class="edge"><title>Node7&#45;&gt;Node8</title>
<path fill="none" stroke="midnightblue" d="M263.378,-280.083C257.869,-272.455 249.786,-261.264 243.053,-251.941"/>
<polygon fill="midnightblue" stroke="midnightblue" points="245.83,-249.809 237.138,-243.751 240.155,-253.907 245.83,-249.809"/>
</g>
<!-- Node15 -->
<g id="node31" class="node"><title>Node15</title>
<a xlink:href="Connection_8hh.html" target="_top" xlink:title="Connection.hh">
<polygon fill="white" stroke="black" points="14.8177,-112.5 14.8177,-131.5 94.8177,-131.5 94.8177,-112.5 14.8177,-112.5"/>
<text text-anchor="middle" x="54.8177" y="-119.5" font-family="Helvetica,sans-Serif" font-size="10.00">Connection.hh</text>
</a>
</g>
<!-- Node7&#45;&gt;Node15 -->
<g id="edge56" class="edge"><title>Node7&#45;&gt;Node15</title>
<path fill="none" stroke="midnightblue" d="M230.693,-285.101C176.013,-277.313 78.5415,-254.383 34.8177,-188 25.2139,-173.419 33.3784,-153.995 41.9884,-140.188"/>
<polygon fill="midnightblue" stroke="midnightblue" points="45.0648,-141.889 47.8075,-131.655 39.2816,-137.945 45.0648,-141.889"/>
</g>
<!-- Node20 -->
<g id="node49" class="node"><title>Node20</title>
<a xlink:href="Query_8hh.html" target="_top" xlink:title="Query.hh">
<polygon fill="white" stroke="black" points="389.818,-112.5 389.818,-131.5 445.818,-131.5 445.818,-112.5 389.818,-112.5"/>
<text text-anchor="middle" x="417.818" y="-119.5" font-family="Helvetica,sans-Serif" font-size="10.00">Query.hh</text>
</a>
</g>
<!-- Node7&#45;&gt;Node20 -->
<g id="edge58" class="edge"><title>Node7&#45;&gt;Node20</title>
<path fill="none" stroke="midnightblue" d="M277.775,-280.075C301.576,-253.38 372.468,-173.865 403.266,-139.322"/>
<polygon fill="midnightblue" stroke="midnightblue" points="406.136,-141.361 410.179,-131.568 400.911,-136.703 406.136,-141.361"/>
</g>
<!-- Node9 -->
<g id="node18" class="node"><title>Node9</title>
<polygon fill="white" stroke="#bfbfbf" points="200.818,-56.5 200.818,-75.5 270.818,-75.5 270.818,-56.5 200.818,-56.5"/>
<text text-anchor="middle" x="235.818" y="-63.5" font-family="Helvetica,sans-Serif" font-size="10.00">mpd/client.h</text>
</g>
<!-- Node8&#45;&gt;Node9 -->
<g id="edge18" class="edge"><title>Node8&#45;&gt;Node9</title>
<path fill="none" stroke="midnightblue" d="M263.379,-228.874C288.502,-223.815 321.756,-212.628 338.818,-188 353,-167.528 340.373,-156.901 340.818,-132 340.976,-123.113 345.711,-119.421 340.818,-112 327.468,-91.755 302.917,-80.5833 280.91,-74.4361"/>
<polygon fill="midnightblue" stroke="midnightblue" points="281.579,-70.9954 271.028,-71.9508 279.872,-77.7841 281.579,-70.9954"/>
</g>
<!-- Node10 -->
<g id="node20" class="node"><title>Node10</title>
<polygon fill="white" stroke="#bfbfbf" points="148.318,-168.5 148.318,-187.5 221.318,-187.5 221.318,-168.5 148.318,-168.5"/>
<text text-anchor="middle" x="184.818" y="-175.5" font-family="Helvetica,sans-Serif" font-size="10.00">mpd/async.h</text>
</g>
<!-- Node8&#45;&gt;Node10 -->
<g id="edge20" class="edge"><title>Node8&#45;&gt;Node10</title>
<path fill="none" stroke="midnightblue" d="M223.222,-224.083C216.59,-216.298 206.797,-204.801 198.76,-195.367"/>
<polygon fill="midnightblue" stroke="midnightblue" points="201.421,-193.094 192.272,-187.751 196.093,-197.633 201.421,-193.094"/>
</g>
<!-- Node11 -->
<g id="node22" class="node"><title>Node11</title>
<polygon fill="white" stroke="#bfbfbf" points="239.818,-168.5 239.818,-187.5 313.818,-187.5 313.818,-168.5 239.818,-168.5"/>
<text text-anchor="middle" x="276.818" y="-175.5" font-family="Helvetica,sans-Serif" font-size="10.00">mpd/parser.h</text>
</g>
<!-- Node8&#45;&gt;Node11 -->
<g id="edge22" class="edge"><title>Node8&#45;&gt;Node11</title>
<path fill="none" stroke="midnightblue" d="M238.414,-224.083C245.045,-216.298 254.839,-204.801 262.876,-195.367"/>
<polygon fill="midnightblue" stroke="midnightblue" points="265.543,-197.633 269.363,-187.751 260.214,-193.094 265.543,-197.633"/>
</g>
<!-- Node12 -->
<g id="node24" class="node"><title>Node12</title>
<polygon fill="white" stroke="#bfbfbf" points="26.8177,-56.5 26.8177,-75.5 82.8177,-75.5 82.8177,-56.5 26.8177,-56.5"/>
<text text-anchor="middle" x="54.8177" y="-63.5" font-family="Helvetica,sans-Serif" font-size="10.00">glibmm.h</text>
</g>
<!-- Node8&#45;&gt;Node12 -->
<g id="edge24" class="edge"><title>Node8&#45;&gt;Node12</title>
<path fill="none" stroke="midnightblue" d="M198.151,-233.561C156.125,-232.629 82.834,-225.214 34.8177,-188 6.24185,-165.853 -8.72465,-145.1 5.81768,-112 11.2076,-99.732 21.7758,-89.3414 31.7218,-81.6461"/>
<polygon fill="midnightblue" stroke="midnightblue" points="34.0692,-84.2697 40.1563,-75.598 29.99,-78.5811 34.0692,-84.2697"/>
</g>
<!-- Node13 -->
<g id="node26" class="node"><title>Node13</title>
<a xlink:href="Status_8hh.html" target="_top" xlink:title="Status.hh">
<polygon fill="white" stroke="black" points="273.318,-112.5 273.318,-131.5 332.318,-131.5 332.318,-112.5 273.318,-112.5"/>
<text text-anchor="middle" x="302.818" y="-119.5" font-family="Helvetica,sans-Serif" font-size="10.00">Status.hh</text>
</a>
</g>
<!-- Node8&#45;&gt;Node13 -->
<g id="edge26" class="edge"><title>Node8&#45;&gt;Node13</title>
<path fill="none" stroke="midnightblue" d="M263.614,-226.265C284.48,-220.1 309.921,-208.665 322.818,-188 332.061,-173.188 323.953,-153.8 315.454,-140.065"/>
<polygon fill="midnightblue" stroke="midnightblue" points="318.219,-137.905 309.717,-131.584 312.422,-141.828 318.219,-137.905"/>
</g>
<!-- Node14 -->
<g id="node29" class="node"><title>Node14</title>
<a xlink:href="NotifyData_8hh.html" target="_top" xlink:title="NotifyData.hh">
<polygon fill="white" stroke="black" points="53.3177,-168.5 53.3177,-187.5 130.318,-187.5 130.318,-168.5 53.3177,-168.5"/>
<text text-anchor="middle" x="91.8177" y="-175.5" font-family="Helvetica,sans-Serif" font-size="10.00">NotifyData.hh</text>
</a>
</g>
<!-- Node8&#45;&gt;Node14 -->
<g id="edge30" class="edge"><title>Node8&#45;&gt;Node14</title>
<path fill="none" stroke="midnightblue" d="M208.793,-224.444C185.714,-215.478 149.256,-201.314 123.177,-191.183"/>
<polygon fill="midnightblue" stroke="midnightblue" points="124.328,-187.875 113.74,-187.516 121.793,-194.4 124.328,-187.875"/>
</g>
<!-- Node8&#45;&gt;Node15 -->
<g id="edge54" class="edge"><title>Node8&#45;&gt;Node15</title>
<path fill="none" stroke="midnightblue" d="M198.088,-229.92C149.682,-224.613 62.6753,-211.934 43.8177,-188 33.33,-174.689 38.6535,-155.032 45.0069,-140.823"/>
<polygon fill="midnightblue" stroke="midnightblue" points="48.272,-142.118 49.6039,-131.607 42.0081,-138.993 48.272,-142.118"/>
</g>
<!-- Node13&#45;&gt;Node9 -->
<g id="edge28" class="edge"><title>Node13&#45;&gt;Node9</title>
<path fill="none" stroke="midnightblue" d="M292.053,-112.324C282.052,-104.263 266.931,-92.0765 254.887,-82.3695"/>
<polygon fill="midnightblue" stroke="midnightblue" points="256.761,-79.3841 246.778,-75.8339 252.368,-84.8343 256.761,-79.3841"/>
</g>
<!-- Node14&#45;&gt;Node13 -->
<g id="edge42" class="edge"><title>Node14&#45;&gt;Node13</title>
<path fill="none" stroke="midnightblue" d="M125.251,-168.444C162.773,-158.841 223.59,-143.276 263.397,-133.089"/>
<polygon fill="midnightblue" stroke="midnightblue" points="264.466,-136.428 273.286,-130.558 262.73,-129.647 264.466,-136.428"/>
</g>
<!-- Node14&#45;&gt;Node15 -->
<g id="edge32" class="edge"><title>Node14&#45;&gt;Node15</title>
<path fill="none" stroke="midnightblue" d="M85.7079,-168.083C80.5355,-160.534 72.9715,-149.495 66.6233,-140.23"/>
<polygon fill="midnightblue" stroke="midnightblue" points="69.3534,-138.022 60.8138,-131.751 63.5789,-141.979 69.3534,-138.022"/>
</g>
<!-- Node16 -->
<g id="node35" class="node"><title>Node16</title>
<a xlink:href="Statistics_8hh.html" target="_top" xlink:title="Statistics.hh">
<polygon fill="white" stroke="black" points="113.318,-112.5 113.318,-131.5 184.318,-131.5 184.318,-112.5 113.318,-112.5"/>
<text text-anchor="middle" x="148.818" y="-119.5" font-family="Helvetica,sans-Serif" font-size="10.00">Statistics.hh</text>
</a>
</g>
<!-- Node14&#45;&gt;Node16 -->
<g id="edge38" class="edge"><title>Node14&#45;&gt;Node16</title>
<path fill="none" stroke="midnightblue" d="M100.976,-168.324C109.319,-160.42 121.85,-148.548 131.995,-138.938"/>
<polygon fill="midnightblue" stroke="midnightblue" points="134.641,-141.252 139.493,-131.834 129.826,-136.171 134.641,-141.252"/>
</g>
<!-- Node17 -->
<g id="node39" class="node"><title>Node17</title>
<a xlink:href="Song_8hh.html" target="_top" xlink:title="Song.hh">
<polygon fill="white" stroke="black" points="202.318,-112.5 202.318,-131.5 255.318,-131.5 255.318,-112.5 202.318,-112.5"/>
<text text-anchor="middle" x="228.818" y="-119.5" font-family="Helvetica,sans-Serif" font-size="10.00">Song.hh</text>
</a>
</g>
<!-- Node14&#45;&gt;Node17 -->
<g id="edge44" class="edge"><title>Node14&#45;&gt;Node17</title>
<path fill="none" stroke="midnightblue" d="M113.526,-168.444C136.172,-159.517 171.89,-145.439 197.569,-135.317"/>
<polygon fill="midnightblue" stroke="midnightblue" points="199.191,-138.44 207.211,-131.516 196.624,-131.927 199.191,-138.44"/>
</g>
<!-- Node15&#45;&gt;Node9 -->
<g id="edge34" class="edge"><title>Node15&#45;&gt;Node9</title>
<path fill="none" stroke="midnightblue" d="M83.4977,-112.444C114.345,-103.241 163.546,-88.5617 197.647,-78.3879"/>
<polygon fill="midnightblue" stroke="midnightblue" points="198.69,-81.7293 207.272,-75.5164 196.689,-75.0215 198.69,-81.7293"/>
</g>
<!-- Node15&#45;&gt;Node12 -->
<g id="edge36" class="edge"><title>Node15&#45;&gt;Node12</title>
<path fill="none" stroke="midnightblue" d="M54.8177,-112.083C54.8177,-105.006 54.8177,-94.8611 54.8177,-85.9865"/>
<polygon fill="midnightblue" stroke="midnightblue" points="58.3178,-85.751 54.8177,-75.7511 51.3178,-85.7511 58.3178,-85.751"/>
</g>
<!-- Node16&#45;&gt;Node9 -->
<g id="edge40" class="edge"><title>Node16&#45;&gt;Node9</title>
<path fill="none" stroke="midnightblue" d="M162.796,-112.324C176.367,-103.9 197.198,-90.9709 213.143,-81.0741"/>
<polygon fill="midnightblue" stroke="midnightblue" points="215.224,-83.9019 221.874,-75.6545 211.532,-77.9544 215.224,-83.9019"/>
</g>
<!-- Node17&#45;&gt;Node9 -->
<g id="edge46" class="edge"><title>Node17&#45;&gt;Node9</title>
<path fill="none" stroke="midnightblue" d="M229.974,-112.083C230.901,-104.927 232.235,-94.6353 233.395,-85.6911"/>
<polygon fill="midnightblue" stroke="midnightblue" points="236.869,-86.1181 234.683,-75.7511 229.927,-85.2181 236.869,-86.1181"/>
</g>
<!-- Node17&#45;&gt;Node12 -->
<g id="edge52" class="edge"><title>Node17&#45;&gt;Node12</title>
<path fill="none" stroke="midnightblue" d="M202.012,-112.681C172.552,-103.538 125.031,-88.7904 91.9841,-78.5344"/>
<polygon fill="midnightblue" stroke="midnightblue" points="92.8169,-75.1282 82.2288,-75.5069 90.742,-81.8137 92.8169,-75.1282"/>
</g>
<!-- Node18 -->
<g id="node42" class="node"><title>Node18</title>
<a xlink:href="AbstractComposite_8hh.html" target="_top" xlink:title="AbstractComposite.hh">
<polygon fill="white" stroke="black" points="495.818,-56.5 495.818,-75.5 609.818,-75.5 609.818,-56.5 495.818,-56.5"/>
<text text-anchor="middle" x="552.818" y="-63.5" font-family="Helvetica,sans-Serif" font-size="10.00">AbstractComposite.hh</text>
</a>
</g>
<!-- Node17&#45;&gt;Node18 -->
<g id="edge48" class="edge"><title>Node17&#45;&gt;Node18</title>
<path fill="none" stroke="midnightblue" d="M255.493,-114.047C258.627,-113.315 261.787,-112.614 264.818,-112 305.827,-103.688 414.029,-87.337 485.504,-76.8015"/>
<polygon fill="midnightblue" stroke="midnightblue" points="486.386,-80.2095 495.77,-75.291 485.367,-73.284 486.386,-80.2095"/>
</g>
<!-- Node19 -->
<g id="node44" class="node"><title>Node19</title>
<polygon fill="white" stroke="#bfbfbf" points="410.818,-0.5 410.818,-19.5 454.818,-19.5 454.818,-0.5 410.818,-0.5"/>
<text text-anchor="middle" x="432.818" y="-7.5" font-family="Helvetica,sans-Serif" font-size="10.00">vector</text>
</g>
<!-- Node18&#45;&gt;Node19 -->
<g id="edge50" class="edge"><title>Node18&#45;&gt;Node19</title>
<path fill="none" stroke="midnightblue" d="M533.803,-56.4435C514.23,-47.6356 483.51,-33.8116 461.089,-23.722"/>
<polygon fill="midnightblue" stroke="midnightblue" points="462.299,-20.4284 451.743,-19.5164 459.426,-26.8119 462.299,-20.4284"/>
</g>
<!-- Node20&#45;&gt;Node9 -->
<g id="edge60" class="edge"><title>Node20&#45;&gt;Node9</title>
<path fill="none" stroke="midnightblue" d="M389.779,-112.681C358.832,-103.499 308.83,-88.6631 274.247,-78.402"/>
<polygon fill="midnightblue" stroke="midnightblue" points="275.072,-74.996 264.489,-75.5069 273.08,-81.7069 275.072,-74.996"/>
</g>
<!-- Node20&#45;&gt;Node19 -->
<g id="edge62" class="edge"><title>Node20&#45;&gt;Node19</title>
<path fill="none" stroke="midnightblue" d="M389.679,-112.901C358.78,-102.482 315.67,-82.5204 332.818,-56 347.765,-32.8823 377.732,-21.5232 400.982,-16.0148"/>
<polygon fill="midnightblue" stroke="midnightblue" points="401.735,-19.4329 410.792,-13.9346 400.283,-12.5852 401.735,-19.4329"/>
</g>
<!-- Node21 -->
<g id="node53" class="node"><title>Node21</title>
<a xlink:href="AbstractClientExtension_8hh.html" target="_top" xlink:title="AbstractClientExtension.hh">
<polygon fill="white" stroke="black" points="341.818,-56.5 341.818,-75.5 477.818,-75.5 477.818,-56.5 341.818,-56.5"/>
<text text-anchor="middle" x="409.818" y="-63.5" font-family="Helvetica,sans-Serif" font-size="10.00">AbstractClientExtension.hh</text>
</a>
</g>
<!-- Node20&#45;&gt;Node21 -->
<g id="edge64" class="edge"><title>Node20&#45;&gt;Node21</title>
<path fill="none" stroke="midnightblue" d="M416.497,-112.083C415.437,-104.927 413.912,-94.6353 412.587,-85.6911"/>
<polygon fill="midnightblue" stroke="midnightblue" points="416.042,-85.1302 411.114,-75.7511 409.117,-86.1561 416.042,-85.1302"/>
</g>
<!-- Node23 -->
<g id="node57" class="node"><title>Node23</title>
<a xlink:href="AbstractItemlist_8hh.html" target="_top" xlink:title="AbstractItemlist.hh">
<polygon fill="white" stroke="black" points="458.318,-224.5 458.318,-243.5 557.318,-243.5 557.318,-224.5 458.318,-224.5"/>
<text text-anchor="middle" x="507.818" y="-231.5" font-family="Helvetica,sans-Serif" font-size="10.00">AbstractItemlist.hh</text>
</a>
</g>
<!-- Node22&#45;&gt;Node23 -->
<g id="edge68" class="edge"><title>Node22&#45;&gt;Node23</title>
<path fill="none" stroke="midnightblue" d="M475.258,-280.083C480.767,-272.455 488.849,-261.264 495.583,-251.941"/>
<polygon fill="midnightblue" stroke="midnightblue" points="498.48,-253.907 501.497,-243.751 492.805,-249.809 498.48,-253.907"/>
</g>
<!-- Node23&#45;&gt;Node18 -->
<g id="edge70" class="edge"><title>Node23&#45;&gt;Node18</title>
<path fill="none" stroke="midnightblue" d="M510.237,-224.075C517.32,-197.945 538.122,-121.211 547.782,-85.577"/>
<polygon fill="midnightblue" stroke="midnightblue" points="551.257,-86.1355 550.495,-75.5681 544.5,-84.304 551.257,-86.1355"/>
</g>
</g>
</svg>
