<?xml version="1.0" encoding="UTF-8" standalone="no"?>
<!DOCTYPE svg PUBLIC "-//W3C//DTD SVG 1.1//EN"
 "http://www.w3.org/Graphics/SVG/1.1/DTD/svg11.dtd">
<!-- Generated by graphviz version 2.28.0 (20120217.0315)
 -->
<!-- Title: G Pages: 1 -->
<svg width="437pt" height="196pt"
 viewBox="0.00 0.00 437.00 196.00" xmlns="http://www.w3.org/2000/svg" xmlns:xlink="http://www.w3.org/1999/xlink">
<g id="graph1" class="graph" transform="scale(1 1) rotate(0) translate(4 192)">
<title>G</title>
<polygon fill="white" stroke="white" points="-4,5 -4,-192 434,-192 434,5 -4,5"/>
<!-- Node1 -->
<g id="node1" class="node"><title>Node1</title>
<polygon fill="#bfbfbf" stroke="black" points="59,-168.5 59,-187.5 283,-187.5 283,-168.5 59,-168.5"/>
<text text-anchor="middle" x="171" y="-175.5" font-family="Helvetica,sans-Serif" font-size="10.00">src/Browser/Settings/OutputsModelColumns.hh</text>
</g>
<!-- Node2 -->
<g id="node3" class="node"><title>Node2</title>
<a xlink:href="ui__includes_8hh.html" target="_top" xlink:title="../../ui_includes.hh">
<polygon fill="white" stroke="black" points="41.5,-112.5 41.5,-131.5 138.5,-131.5 138.5,-112.5 41.5,-112.5"/>
<text text-anchor="middle" x="90" y="-119.5" font-family="Helvetica,sans-Serif" font-size="10.00">../../ui_includes.hh</text>
</a>
</g>
<!-- Node1&#45;&gt;Node2 -->
<g id="edge2" class="edge"><title>Node1&#45;&gt;Node2</title>
<path fill="none" stroke="midnightblue" d="M157.986,-168.324C145.468,-159.979 126.318,-147.212 111.529,-137.352"/>
<polygon fill="midnightblue" stroke="midnightblue" points="113.244,-134.289 102.982,-131.655 109.361,-140.114 113.244,-134.289"/>
</g>
<!-- Node4 -->
<g id="node7" class="node"><title>Node4</title>
<a xlink:href="AudioOutput_8hh.html" target="_top" xlink:title="../../MPD/AudioOutput.hh">
<polygon fill="white" stroke="black" points="188,-112.5 188,-131.5 316,-131.5 316,-112.5 188,-112.5"/>
<text text-anchor="middle" x="252" y="-119.5" font-family="Helvetica,sans-Serif" font-size="10.00">../../MPD/AudioOutput.hh</text>
</a>
</g>
<!-- Node1&#45;&gt;Node4 -->
<g id="edge6" class="edge"><title>Node1&#45;&gt;Node4</title>
<path fill="none" stroke="midnightblue" d="M184.014,-168.324C196.532,-159.979 215.682,-147.212 230.471,-137.352"/>
<polygon fill="midnightblue" stroke="midnightblue" points="232.639,-140.114 239.018,-131.655 228.756,-134.289 232.639,-140.114"/>
</g>
<!-- Node3 -->
<g id="node5" class="node"><title>Node3</title>
<polygon fill="white" stroke="#bfbfbf" points="-0.5,-56.5 -0.5,-75.5 54.5,-75.5 54.5,-56.5 -0.5,-56.5"/>
<text text-anchor="middle" x="27" y="-63.5" font-family="Helvetica,sans-Serif" font-size="10.00">gtkmm.h</text>
</g>
<!-- Node2&#45;&gt;Node3 -->
<g id="edge4" class="edge"><title>Node2&#45;&gt;Node3</title>
<path fill="none" stroke="midnightblue" d="M79.878,-112.324C70.4736,-104.263 56.2559,-92.0765 44.931,-82.3695"/>
<polygon fill="midnightblue" stroke="midnightblue" points="47.1766,-79.6844 37.3062,-75.8339 42.621,-84.9993 47.1766,-79.6844"/>
</g>
<!-- Node5 -->
<g id="node9" class="node"><title>Node5</title>
<a xlink:href="AbstractClientExtension_8hh.html" target="_top" xlink:title="AbstractClientExtension.hh">
<polygon fill="white" stroke="black" points="73,-56.5 73,-75.5 209,-75.5 209,-56.5 73,-56.5"/>
<text text-anchor="middle" x="141" y="-63.5" font-family="Helvetica,sans-Serif" font-size="10.00">AbstractClientExtension.hh</text>
</a>
</g>
<!-- Node4&#45;&gt;Node5 -->
<g id="edge8" class="edge"><title>Node4&#45;&gt;Node5</title>
<path fill="none" stroke="midnightblue" d="M234.166,-112.324C216.284,-103.625 188.525,-90.1202 167.954,-80.113"/>
<polygon fill="midnightblue" stroke="midnightblue" points="169.313,-76.8819 158.79,-75.6545 166.251,-83.1765 169.313,-76.8819"/>
</g>
<!-- Node6 -->
<g id="node11" class="node"><title>Node6</title>
<a xlink:href="AbstractComposite_8hh.html" target="_top" xlink:title="AbstractComposite.hh">
<polygon fill="white" stroke="black" points="227,-56.5 227,-75.5 341,-75.5 341,-56.5 227,-56.5"/>
<text text-anchor="middle" x="284" y="-63.5" font-family="Helvetica,sans-Serif" font-size="10.00">AbstractComposite.hh</text>
</a>
</g>
<!-- Node4&#45;&gt;Node6 -->
<g id="edge10" class="edge"><title>Node4&#45;&gt;Node6</title>
<path fill="none" stroke="midnightblue" d="M257.284,-112.083C261.711,-104.613 268.163,-93.7244 273.618,-84.5199"/>
<polygon fill="midnightblue" stroke="midnightblue" points="276.727,-86.1383 278.814,-75.7511 270.705,-82.5697 276.727,-86.1383"/>
</g>
<!-- Node8 -->
<g id="node15" class="node"><title>Node8</title>
<polygon fill="white" stroke="#bfbfbf" points="359,-56.5 359,-75.5 429,-75.5 429,-56.5 359,-56.5"/>
<text text-anchor="middle" x="394" y="-63.5" font-family="Helvetica,sans-Serif" font-size="10.00">mpd/client.h</text>
</g>
<!-- Node4&#45;&gt;Node8 -->
<g id="edge14" class="edge"><title>Node4&#45;&gt;Node8</title>
<path fill="none" stroke="midnightblue" d="M274.5,-112.444C298.077,-103.478 335.322,-89.314 361.964,-79.1827"/>
<polygon fill="midnightblue" stroke="midnightblue" points="363.502,-82.3424 371.605,-75.5164 361.014,-75.7995 363.502,-82.3424"/>
</g>
<!-- Node7 -->
<g id="node13" class="node"><title>Node7</title>
<polygon fill="white" stroke="#bfbfbf" points="262,-0.5 262,-19.5 306,-19.5 306,-0.5 262,-0.5"/>
<text text-anchor="middle" x="284" y="-7.5" font-family="Helvetica,sans-Serif" font-size="10.00">vector</text>
</g>
<!-- Node6&#45;&gt;Node7 -->
<g id="edge12" class="edge"><title>Node6&#45;&gt;Node7</title>
<path fill="none" stroke="midnightblue" d="M284,-56.083C284,-49.0059 284,-38.8611 284,-29.9865"/>
<polygon fill="midnightblue" stroke="midnightblue" points="287.5,-29.751 284,-19.7511 280.5,-29.7511 287.5,-29.751"/>
</g>
</g>
</svg>
