<?xml version="1.0" encoding="UTF-8" standalone="no"?>
<!DOCTYPE svg PUBLIC "-//W3C//DTD SVG 1.1//EN"
 "http://www.w3.org/Graphics/SVG/1.1/DTD/svg11.dtd">
<!-- Generated by graphviz version 2.28.0 (20111204.1018)
 -->
<!-- Title: G Pages: 1 -->
<svg width="675pt" height="252pt"
 viewBox="0.00 0.00 675.00 252.00" xmlns="http://www.w3.org/2000/svg" xmlns:xlink="http://www.w3.org/1999/xlink">
<g id="graph1" class="graph" transform="scale(1 1) rotate(0) translate(4 248)">
<title>G</title>
<polygon fill="white" stroke="white" points="-4,5 -4,-248 672,-248 672,5 -4,5"/>
<!-- Node1 -->
<g id="node1" class="node"><title>Node1</title>
<polygon fill="#bfbfbf" stroke="black" points="312.5,-224.5 312.5,-243.5 395.5,-243.5 395.5,-224.5 312.5,-224.5"/>
<text text-anchor="middle" x="354" y="-231.5" font-family="Helvetica,sans-Serif" font-size="10.00">src/Init/Path.hh</text>
</g>
<!-- Node2 -->
<g id="node3" class="node"><title>Node2</title>
<a xlink:href="Model_8hh.html" target="_top" xlink:title="src/Config/Model.hh">
<polygon fill="white" stroke="black" points="240,-168.5 240,-187.5 344,-187.5 344,-168.5 240,-168.5"/>
<text text-anchor="middle" x="292" y="-175.5" font-family="Helvetica,sans-Serif" font-size="10.00">src/Config/Model.hh</text>
</a>
</g>
<!-- Node1&#45;&gt;Node2 -->
<g id="edge2" class="edge"><title>Node1&#45;&gt;Node2</title>
<path fill="none" stroke="midnightblue" d="M336.246,-217.537C325.192,-207.909 311.369,-195.869 302.143,-187.834"/>
<polygon fill="midnightblue" stroke="midnightblue" points="334.199,-220.395 344.039,-224.324 338.797,-215.117 334.199,-220.395"/>
</g>
<!-- Node8 -->
<g id="node18" class="node"><title>Node8</title>
<a xlink:href="check__log_8hh.html" target="_top" xlink:title="src/Log/check_log.hh">
<polygon fill="white" stroke="black" points="362,-168.5 362,-187.5 472,-187.5 472,-168.5 362,-168.5"/>
<text text-anchor="middle" x="417" y="-175.5" font-family="Helvetica,sans-Serif" font-size="10.00">src/Log/check_log.hh</text>
</a>
</g>
<!-- Node1&#45;&gt;Node8 -->
<g id="edge20" class="edge"><title>Node1&#45;&gt;Node8</title>
<path fill="none" stroke="midnightblue" d="M372.04,-217.537C383.273,-207.909 397.319,-195.869 406.694,-187.834"/>
<polygon fill="midnightblue" stroke="midnightblue" points="369.437,-215.159 364.122,-224.324 373.992,-220.473 369.437,-215.159"/>
</g>
<!-- Node3 -->
<g id="node5" class="node"><title>Node3</title>
<a xlink:href="Handler_8hh.html" target="_top" xlink:title="src/Config/Handler.hh">
<polygon fill="white" stroke="black" points="236,-112.5 236,-131.5 348,-131.5 348,-112.5 236,-112.5"/>
<text text-anchor="middle" x="292" y="-119.5" font-family="Helvetica,sans-Serif" font-size="10.00">src/Config/Handler.hh</text>
</a>
</g>
<!-- Node2&#45;&gt;Node3 -->
<g id="edge4" class="edge"><title>Node2&#45;&gt;Node3</title>
<path fill="none" stroke="midnightblue" d="M292,-157.805C292,-148.91 292,-138.78 292,-131.751"/>
<polygon fill="midnightblue" stroke="midnightblue" points="288.5,-158.083 292,-168.083 295.5,-158.083 288.5,-158.083"/>
</g>
<!-- Node4 -->
<g id="node7" class="node"><title>Node4</title>
<a xlink:href="SettingsPlayback_8hh.html" target="_top" xlink:title="src/Browser/Settings/SettingsPlayback.hh">
<polygon fill="white" stroke="black" points="-0.5,-56.5 -0.5,-75.5 200.5,-75.5 200.5,-56.5 -0.5,-56.5"/>
<text text-anchor="middle" x="100" y="-63.5" font-family="Helvetica,sans-Serif" font-size="10.00">src/Browser/Settings/SettingsPlayback.hh</text>
</a>
</g>
<!-- Node3&#45;&gt;Node4 -->
<g id="edge6" class="edge"><title>Node3&#45;&gt;Node4</title>
<path fill="none" stroke="midnightblue" d="M251.817,-109.699C215.581,-99.507 163.086,-84.7429 130.281,-75.5164"/>
<polygon fill="midnightblue" stroke="midnightblue" points="251.003,-113.105 261.577,-112.444 252.898,-106.367 251.003,-113.105"/>
</g>
<!-- Node5 -->
<g id="node9" class="node"><title>Node5</title>
<a xlink:href="Settings_8hh.html" target="_top" xlink:title="src/Browser/Settings/Settings.hh">
<polygon fill="white" stroke="black" points="211.5,-0.5 211.5,-19.5 372.5,-19.5 372.5,-0.5 211.5,-0.5"/>
<text text-anchor="middle" x="292" y="-7.5" font-family="Helvetica,sans-Serif" font-size="10.00">src/Browser/Settings/Settings.hh</text>
</a>
</g>
<!-- Node3&#45;&gt;Node5 -->
<g id="edge18" class="edge"><title>Node3&#45;&gt;Node5</title>
<path fill="none" stroke="midnightblue" d="M271.295,-105.951C262.329,-98.1436 252.8,-87.7749 248,-76 238.946,-53.7908 263.138,-31.3966 279.143,-19.5691"/>
<polygon fill="midnightblue" stroke="midnightblue" points="269.245,-108.795 279.219,-112.369 273.65,-103.355 269.245,-108.795"/>
</g>
<!-- Node6 -->
<g id="node11" class="node"><title>Node6</title>
<a xlink:href="SettingsNetwork_8hh.html" target="_top" xlink:title="src/Browser/Settings/SettingsNetwork.hh">
<polygon fill="white" stroke="black" points="257.5,-56.5 257.5,-75.5 454.5,-75.5 454.5,-56.5 257.5,-56.5"/>
<text text-anchor="middle" x="356" y="-63.5" font-family="Helvetica,sans-Serif" font-size="10.00">src/Browser/Settings/SettingsNetwork.hh</text>
</a>
</g>
<!-- Node3&#45;&gt;Node6 -->
<g id="edge10" class="edge"><title>Node3&#45;&gt;Node6</title>
<path fill="none" stroke="midnightblue" d="M309.991,-105.82C321.458,-96.1452 335.913,-83.9481 345.53,-75.8339"/>
<polygon fill="midnightblue" stroke="midnightblue" points="307.669,-103.2 302.283,-112.324 312.183,-108.55 307.669,-103.2"/>
</g>
<!-- Node7 -->
<g id="node14" class="node"><title>Node7</title>
<a xlink:href="SettingsGeneral_8hh.html" target="_top" xlink:title="src/Browser/Settings/SettingsGeneral.hh">
<polygon fill="white" stroke="black" points="473,-56.5 473,-75.5 667,-75.5 667,-56.5 473,-56.5"/>
<text text-anchor="middle" x="570" y="-63.5" font-family="Helvetica,sans-Serif" font-size="10.00">src/Browser/Settings/SettingsGeneral.hh</text>
</a>
</g>
<!-- Node3&#45;&gt;Node7 -->
<g id="edge14" class="edge"><title>Node3&#45;&gt;Node7</title>
<path fill="none" stroke="midnightblue" d="M346.192,-110.473C398.732,-100.268 477.439,-84.9794 526.156,-75.5164"/>
<polygon fill="midnightblue" stroke="midnightblue" points="345.199,-107.101 336.05,-112.444 346.534,-113.972 345.199,-107.101"/>
</g>
<!-- Node4&#45;&gt;Node5 -->
<g id="edge8" class="edge"><title>Node4&#45;&gt;Node5</title>
<path fill="none" stroke="midnightblue" d="M140.183,-53.6986C176.419,-43.507 228.914,-28.7429 261.719,-19.5164"/>
<polygon fill="midnightblue" stroke="midnightblue" points="139.102,-50.3667 130.423,-56.4435 140.997,-57.1053 139.102,-50.3667"/>
</g>
<!-- Node6&#45;&gt;Node5 -->
<g id="edge12" class="edge"><title>Node6&#45;&gt;Node5</title>
<path fill="none" stroke="midnightblue" d="M338.009,-49.8197C326.542,-40.1452 312.087,-27.9481 302.47,-19.8339"/>
<polygon fill="midnightblue" stroke="midnightblue" points="335.817,-52.5502 345.717,-56.324 340.331,-47.2002 335.817,-52.5502"/>
</g>
<!-- Node7&#45;&gt;Node5 -->
<g id="edge16" class="edge"><title>Node7&#45;&gt;Node5</title>
<path fill="none" stroke="midnightblue" d="M515.808,-54.4734C463.268,-44.2678 384.561,-28.9794 335.844,-19.5164"/>
<polygon fill="midnightblue" stroke="midnightblue" points="515.466,-57.9724 525.95,-56.4435 516.801,-51.1009 515.466,-57.9724"/>
</g>
</g>
</svg>
