<?xml version="1.0" encoding="UTF-8" standalone="no"?>
<!DOCTYPE svg PUBLIC "-//W3C//DTD SVG 1.1//EN"
 "http://www.w3.org/Graphics/SVG/1.1/DTD/svg11.dtd">
<!-- Generated by graphviz version 2.28.0 (20111204.1018)
 -->
<!-- Title: G Pages: 1 -->
<svg width="641pt" height="420pt"
 viewBox="0.00 0.00 641.00 420.00" xmlns="http://www.w3.org/2000/svg" xmlns:xlink="http://www.w3.org/1999/xlink">
<g id="graph1" class="graph" transform="scale(1 1) rotate(0) translate(4 416)">
<title>G</title>
<polygon fill="white" stroke="white" points="-4,5 -4,-416 638,-416 638,5 -4,5"/>
<!-- Node1 -->
<g id="node1" class="node"><title>Node1</title>
<polygon fill="#bfbfbf" stroke="black" points="425,-392.5 425,-411.5 529,-411.5 529,-392.5 425,-392.5"/>
<text text-anchor="middle" x="477" y="-399.5" font-family="Helvetica,sans-Serif" font-size="10.00">src/MPD/Playlist.hh</text>
</g>
<!-- Node2 -->
<g id="node3" class="node"><title>Node2</title>
<polygon fill="white" stroke="#bfbfbf" points="231,-56.5 231,-75.5 301,-75.5 301,-56.5 231,-56.5"/>
<text text-anchor="middle" x="266" y="-63.5" font-family="Helvetica,sans-Serif" font-size="10.00">mpd/client.h</text>
</g>
<!-- Node1&#45;&gt;Node2 -->
<g id="edge2" class="edge"><title>Node1&#45;&gt;Node2</title>
<path fill="none" stroke="midnightblue" d="M424.588,-399.914C300.677,-395.931 0,-377.367 0,-291 0,-291 0,-291 0,-177 0,-82.6168 144.781,-67.626 220.716,-66.2544"/>
<polygon fill="midnightblue" stroke="midnightblue" points="220.99,-69.7517 230.952,-66.1444 220.915,-62.7521 220.99,-69.7517"/>
</g>
<!-- Node3 -->
<g id="node5" class="node"><title>Node3</title>
<a xlink:href="AbstractClientExtension_8hh.html" target="_top" xlink:title="AbstractClientExtension.hh">
<polygon fill="white" stroke="black" points="361,-336.5 361,-355.5 497,-355.5 497,-336.5 361,-336.5"/>
<text text-anchor="middle" x="429" y="-343.5" font-family="Helvetica,sans-Serif" font-size="10.00">AbstractClientExtension.hh</text>
</a>
</g>
<!-- Node1&#45;&gt;Node3 -->
<g id="edge4" class="edge"><title>Node1&#45;&gt;Node3</title>
<path fill="none" stroke="midnightblue" d="M469.074,-392.083C462.154,-384.298 451.935,-372.801 443.548,-363.367"/>
<polygon fill="midnightblue" stroke="midnightblue" points="446.038,-360.9 436.779,-355.751 440.806,-365.55 446.038,-360.9"/>
</g>
<!-- Node13 -->
<g id="node31" class="node"><title>Node13</title>
<a xlink:href="Song_8hh.html" target="_top" xlink:title="Song.hh">
<polygon fill="white" stroke="black" points="498.5,-112.5 498.5,-131.5 551.5,-131.5 551.5,-112.5 498.5,-112.5"/>
<text text-anchor="middle" x="525" y="-119.5" font-family="Helvetica,sans-Serif" font-size="10.00">Song.hh</text>
</a>
</g>
<!-- Node1&#45;&gt;Node13 -->
<g id="edge52" class="edge"><title>Node1&#45;&gt;Node13</title>
<path fill="none" stroke="midnightblue" d="M483.674,-392.435C496.863,-374.623 525,-331.839 525,-291 525,-291 525,-291 525,-233 525,-200.948 525,-163.643 525,-141.749"/>
<polygon fill="midnightblue" stroke="midnightblue" points="528.5,-141.558 525,-131.558 521.5,-141.558 528.5,-141.558"/>
</g>
<!-- Node14 -->
<g id="node34" class="node"><title>Node14</title>
<a xlink:href="AbstractComposite_8hh.html" target="_top" xlink:title="AbstractComposite.hh">
<polygon fill="white" stroke="black" points="519,-56.5 519,-75.5 633,-75.5 633,-56.5 519,-56.5"/>
<text text-anchor="middle" x="576" y="-63.5" font-family="Helvetica,sans-Serif" font-size="10.00">AbstractComposite.hh</text>
</a>
</g>
<!-- Node1&#45;&gt;Node14 -->
<g id="edge50" class="edge"><title>Node1&#45;&gt;Node14</title>
<path fill="none" stroke="midnightblue" d="M494.941,-392.25C524.451,-376.453 580,-340.185 580,-291 580,-291 580,-291 580,-177 580,-144.927 578.281,-107.628 577.096,-85.7413"/>
<polygon fill="midnightblue" stroke="midnightblue" points="580.58,-85.3413 576.523,-75.5539 573.591,-85.7349 580.58,-85.3413"/>
</g>
<!-- Node4 -->
<g id="node7" class="node"><title>Node4</title>
<a xlink:href="BaseClient_8hh.html" target="_top" xlink:title="BaseClient.hh">
<polygon fill="white" stroke="black" points="390,-280.5 390,-299.5 468,-299.5 468,-280.5 390,-280.5"/>
<text text-anchor="middle" x="429" y="-287.5" font-family="Helvetica,sans-Serif" font-size="10.00">BaseClient.hh</text>
</a>
</g>
<!-- Node3&#45;&gt;Node4 -->
<g id="edge6" class="edge"><title>Node3&#45;&gt;Node4</title>
<path fill="none" stroke="midnightblue" d="M429,-336.083C429,-329.006 429,-318.861 429,-309.986"/>
<polygon fill="midnightblue" stroke="midnightblue" points="432.5,-309.751 429,-299.751 425.5,-309.751 432.5,-309.751"/>
</g>
<!-- Node5 -->
<g id="node9" class="node"><title>Node5</title>
<a xlink:href="Listener_8hh.html" target="_top" xlink:title="Listener.hh">
<polygon fill="white" stroke="black" points="260.5,-224.5 260.5,-243.5 325.5,-243.5 325.5,-224.5 260.5,-224.5"/>
<text text-anchor="middle" x="293" y="-231.5" font-family="Helvetica,sans-Serif" font-size="10.00">Listener.hh</text>
</a>
</g>
<!-- Node4&#45;&gt;Node5 -->
<g id="edge8" class="edge"><title>Node4&#45;&gt;Node5</title>
<path fill="none" stroke="midnightblue" d="M407.45,-280.444C384.969,-271.517 349.512,-257.439 324.02,-247.317"/>
<polygon fill="midnightblue" stroke="midnightblue" points="325.035,-243.954 314.449,-243.516 322.451,-250.46 325.035,-243.954"/>
</g>
<!-- Node11 -->
<g id="node23" class="node"><title>Node11</title>
<a xlink:href="Connection_8hh.html" target="_top" xlink:title="Connection.hh">
<polygon fill="white" stroke="black" points="362,-112.5 362,-131.5 442,-131.5 442,-112.5 362,-112.5"/>
<text text-anchor="middle" x="402" y="-119.5" font-family="Helvetica,sans-Serif" font-size="10.00">Connection.hh</text>
</a>
</g>
<!-- Node4&#45;&gt;Node11 -->
<g id="edge48" class="edge"><title>Node4&#45;&gt;Node11</title>
<path fill="none" stroke="midnightblue" d="M427.548,-280.075C423.298,-253.945 410.817,-177.211 405.022,-141.577"/>
<polygon fill="midnightblue" stroke="midnightblue" points="408.454,-140.876 403.394,-131.568 401.544,-142 408.454,-140.876"/>
</g>
<!-- Node5&#45;&gt;Node2 -->
<g id="edge10" class="edge"><title>Node5&#45;&gt;Node2</title>
<path fill="none" stroke="midnightblue" d="M260.453,-231.73C201.888,-228.687 82.4585,-218.772 57,-188 6.39481,-126.834 144.98,-89.9552 220.579,-74.8975"/>
<polygon fill="midnightblue" stroke="midnightblue" points="221.65,-78.2551 230.802,-72.9173 220.319,-71.3828 221.65,-78.2551"/>
</g>
<!-- Node6 -->
<g id="node12" class="node"><title>Node6</title>
<polygon fill="white" stroke="#bfbfbf" points="66.5,-168.5 66.5,-187.5 139.5,-187.5 139.5,-168.5 66.5,-168.5"/>
<text text-anchor="middle" x="103" y="-175.5" font-family="Helvetica,sans-Serif" font-size="10.00">mpd/async.h</text>
</g>
<!-- Node5&#45;&gt;Node6 -->
<g id="edge12" class="edge"><title>Node5&#45;&gt;Node6</title>
<path fill="none" stroke="midnightblue" d="M262.894,-224.444C230.374,-215.201 178.421,-200.436 142.609,-190.257"/>
<polygon fill="midnightblue" stroke="midnightblue" points="143.541,-186.884 132.965,-187.516 141.627,-193.617 143.541,-186.884"/>
</g>
<!-- Node7 -->
<g id="node14" class="node"><title>Node7</title>
<polygon fill="white" stroke="#bfbfbf" points="158,-168.5 158,-187.5 232,-187.5 232,-168.5 158,-168.5"/>
<text text-anchor="middle" x="195" y="-175.5" font-family="Helvetica,sans-Serif" font-size="10.00">mpd/parser.h</text>
</g>
<!-- Node5&#45;&gt;Node7 -->
<g id="edge14" class="edge"><title>Node5&#45;&gt;Node7</title>
<path fill="none" stroke="midnightblue" d="M277.255,-224.324C261.681,-215.743 237.623,-202.486 219.541,-192.522"/>
<polygon fill="midnightblue" stroke="midnightblue" points="221.154,-189.415 210.706,-187.655 217.776,-195.546 221.154,-189.415"/>
</g>
<!-- Node8 -->
<g id="node16" class="node"><title>Node8</title>
<polygon fill="white" stroke="#bfbfbf" points="442,-56.5 442,-75.5 498,-75.5 498,-56.5 442,-56.5"/>
<text text-anchor="middle" x="470" y="-63.5" font-family="Helvetica,sans-Serif" font-size="10.00">glibmm.h</text>
</g>
<!-- Node5&#45;&gt;Node8 -->
<g id="edge16" class="edge"><title>Node5&#45;&gt;Node8</title>
<path fill="none" stroke="midnightblue" d="M319.525,-224.372C340.967,-216.696 371.365,-204.185 395,-188 424.041,-168.113 433.058,-162.282 451,-132 459.521,-117.618 464.438,-99.1602 467.126,-85.5908"/>
<polygon fill="midnightblue" stroke="midnightblue" points="470.609,-85.9935 468.889,-75.5391 463.714,-84.7839 470.609,-85.9935"/>
</g>
<!-- Node9 -->
<g id="node18" class="node"><title>Node9</title>
<a xlink:href="Status_8hh.html" target="_top" xlink:title="Status.hh">
<polygon fill="white" stroke="black" points="195.5,-112.5 195.5,-131.5 254.5,-131.5 254.5,-112.5 195.5,-112.5"/>
<text text-anchor="middle" x="225" y="-119.5" font-family="Helvetica,sans-Serif" font-size="10.00">Status.hh</text>
</a>
</g>
<!-- Node5&#45;&gt;Node9 -->
<g id="edge18" class="edge"><title>Node5&#45;&gt;Node9</title>
<path fill="none" stroke="midnightblue" d="M287.664,-224.368C276.492,-206.296 250.455,-164.176 235.699,-140.307"/>
<polygon fill="midnightblue" stroke="midnightblue" points="238.546,-138.257 230.311,-131.591 232.592,-141.938 238.546,-138.257"/>
</g>
<!-- Node10 -->
<g id="node21" class="node"><title>Node10</title>
<a xlink:href="NotifyData_8hh.html" target="_top" xlink:title="NotifyData.hh">
<polygon fill="white" stroke="black" points="288.5,-168.5 288.5,-187.5 365.5,-187.5 365.5,-168.5 288.5,-168.5"/>
<text text-anchor="middle" x="327" y="-175.5" font-family="Helvetica,sans-Serif" font-size="10.00">NotifyData.hh</text>
</a>
</g>
<!-- Node5&#45;&gt;Node10 -->
<g id="edge22" class="edge"><title>Node5&#45;&gt;Node10</title>
<path fill="none" stroke="midnightblue" d="M298.614,-224.083C303.367,-216.534 310.318,-205.495 316.152,-196.23"/>
<polygon fill="midnightblue" stroke="midnightblue" points="319.124,-198.078 321.49,-187.751 313.2,-194.349 319.124,-198.078"/>
</g>
<!-- Node5&#45;&gt;Node11 -->
<g id="edge46" class="edge"><title>Node5&#45;&gt;Node11</title>
<path fill="none" stroke="midnightblue" d="M317.394,-224.41C335.104,-217.104 358.57,-205.062 374,-188 385.966,-174.769 393.365,-155.638 397.529,-141.556"/>
<polygon fill="midnightblue" stroke="midnightblue" points="401.001,-142.118 400.2,-131.553 394.238,-140.312 401.001,-142.118"/>
</g>
<!-- Node9&#45;&gt;Node2 -->
<g id="edge20" class="edge"><title>Node9&#45;&gt;Node2</title>
<path fill="none" stroke="midnightblue" d="M231.77,-112.083C237.562,-104.455 246.058,-93.2645 253.138,-83.9408"/>
<polygon fill="midnightblue" stroke="midnightblue" points="256.096,-85.8321 259.356,-75.7511 250.521,-81.5991 256.096,-85.8321"/>
</g>
<!-- Node10&#45;&gt;Node9 -->
<g id="edge34" class="edge"><title>Node10&#45;&gt;Node9</title>
<path fill="none" stroke="midnightblue" d="M310.612,-168.324C294.329,-159.703 269.133,-146.364 250.284,-136.386"/>
<polygon fill="midnightblue" stroke="midnightblue" points="251.823,-133.24 241.347,-131.655 248.548,-139.427 251.823,-133.24"/>
</g>
<!-- Node10&#45;&gt;Node11 -->
<g id="edge24" class="edge"><title>Node10&#45;&gt;Node11</title>
<path fill="none" stroke="midnightblue" d="M339.05,-168.324C350.463,-160.107 367.831,-147.602 381.435,-137.807"/>
<polygon fill="midnightblue" stroke="midnightblue" points="383.66,-140.517 389.731,-131.834 379.57,-134.837 383.66,-140.517"/>
</g>
<!-- Node12 -->
<g id="node27" class="node"><title>Node12</title>
<a xlink:href="Statistics_8hh.html" target="_top" xlink:title="Statistics.hh">
<polygon fill="white" stroke="black" points="272.5,-112.5 272.5,-131.5 343.5,-131.5 343.5,-112.5 272.5,-112.5"/>
<text text-anchor="middle" x="308" y="-119.5" font-family="Helvetica,sans-Serif" font-size="10.00">Statistics.hh</text>
</a>
</g>
<!-- Node10&#45;&gt;Node12 -->
<g id="edge30" class="edge"><title>Node10&#45;&gt;Node12</title>
<path fill="none" stroke="midnightblue" d="M323.863,-168.083C321.317,-160.849 317.644,-150.409 314.473,-141.397"/>
<polygon fill="midnightblue" stroke="midnightblue" points="317.7,-140.023 311.079,-131.751 311.097,-142.346 317.7,-140.023"/>
</g>
<!-- Node10&#45;&gt;Node13 -->
<g id="edge36" class="edge"><title>Node10&#45;&gt;Node13</title>
<path fill="none" stroke="midnightblue" d="M358.374,-168.444C393.658,-158.821 450.896,-143.21 488.246,-133.024"/>
<polygon fill="midnightblue" stroke="midnightblue" points="489.491,-136.312 498.218,-130.304 487.649,-129.559 489.491,-136.312"/>
</g>
<!-- Node11&#45;&gt;Node2 -->
<g id="edge26" class="edge"><title>Node11&#45;&gt;Node2</title>
<path fill="none" stroke="midnightblue" d="M380.45,-112.444C357.969,-103.517 322.512,-89.4387 297.02,-79.3168"/>
<polygon fill="midnightblue" stroke="midnightblue" points="298.035,-75.9539 287.449,-75.5164 295.451,-82.4598 298.035,-75.9539"/>
</g>
<!-- Node11&#45;&gt;Node8 -->
<g id="edge28" class="edge"><title>Node11&#45;&gt;Node8</title>
<path fill="none" stroke="midnightblue" d="M412.925,-112.324C423.175,-104.185 438.721,-91.8395 451.001,-82.0874"/>
<polygon fill="midnightblue" stroke="midnightblue" points="453.221,-84.7937 458.876,-75.8339 448.868,-79.3119 453.221,-84.7937"/>
</g>
<!-- Node12&#45;&gt;Node2 -->
<g id="edge32" class="edge"><title>Node12&#45;&gt;Node2</title>
<path fill="none" stroke="midnightblue" d="M301.065,-112.083C295.071,-104.377 286.248,-93.0333 278.952,-83.6531"/>
<polygon fill="midnightblue" stroke="midnightblue" points="281.709,-81.4958 272.806,-75.7511 276.183,-85.7934 281.709,-81.4958"/>
</g>
<!-- Node13&#45;&gt;Node2 -->
<g id="edge38" class="edge"><title>Node13&#45;&gt;Node2</title>
<path fill="none" stroke="midnightblue" d="M498.258,-115.424C454.061,-106.21 365.296,-87.7026 311.212,-76.4263"/>
<polygon fill="midnightblue" stroke="midnightblue" points="311.712,-72.9554 301.208,-74.3406 310.283,-79.8081 311.712,-72.9554"/>
</g>
<!-- Node13&#45;&gt;Node8 -->
<g id="edge44" class="edge"><title>Node13&#45;&gt;Node8</title>
<path fill="none" stroke="midnightblue" d="M515.918,-112.083C507.829,-104.141 495.805,-92.3354 486.09,-82.7973"/>
<polygon fill="midnightblue" stroke="midnightblue" points="488.501,-80.2595 478.913,-75.7511 483.597,-85.2545 488.501,-80.2595"/>
</g>
<!-- Node13&#45;&gt;Node14 -->
<g id="edge40" class="edge"><title>Node13&#45;&gt;Node14</title>
<path fill="none" stroke="midnightblue" d="M533.422,-112.083C540.848,-104.22 551.852,-92.5688 560.812,-83.0813"/>
<polygon fill="midnightblue" stroke="midnightblue" points="563.413,-85.4244 567.735,-75.7511 558.324,-80.618 563.413,-85.4244"/>
</g>
<!-- Node15 -->
<g id="node36" class="node"><title>Node15</title>
<polygon fill="white" stroke="#bfbfbf" points="554,-0.5 554,-19.5 598,-19.5 598,-0.5 554,-0.5"/>
<text text-anchor="middle" x="576" y="-7.5" font-family="Helvetica,sans-Serif" font-size="10.00">vector</text>
</g>
<!-- Node14&#45;&gt;Node15 -->
<g id="edge42" class="edge"><title>Node14&#45;&gt;Node15</title>
<path fill="none" stroke="midnightblue" d="M576,-56.083C576,-49.0059 576,-38.8611 576,-29.9865"/>
<polygon fill="midnightblue" stroke="midnightblue" points="579.5,-29.751 576,-19.7511 572.5,-29.7511 579.5,-29.751"/>
</g>
</g>
</svg>
