<?xml version="1.0" encoding="UTF-8" standalone="no"?>
<!DOCTYPE svg PUBLIC "-//W3C//DTD SVG 1.1//EN"
 "http://www.w3.org/Graphics/SVG/1.1/DTD/svg11.dtd">
<!-- Generated by graphviz version 2.28.0 (20120217.0315)
 -->
<!-- Title: G Pages: 1 -->
<svg width="832pt" height="588pt"
 viewBox="0.00 0.00 831.54 588.00" xmlns="http://www.w3.org/2000/svg" xmlns:xlink="http://www.w3.org/1999/xlink">
<g id="graph1" class="graph" transform="scale(1 1) rotate(0) translate(4 584)">
<title>G</title>
<polygon fill="white" stroke="white" points="-4,5 -4,-584 828.544,-584 828.544,5 -4,5"/>
<!-- Node1 -->
<g id="node1" class="node"><title>Node1</title>
<polygon fill="#bfbfbf" stroke="black" points="392.544,-560.5 392.544,-579.5 620.544,-579.5 620.544,-560.5 392.544,-560.5"/>
<text text-anchor="middle" x="506.544" y="-567.5" font-family="Helvetica,sans-Serif" font-size="10.00">src/Browser/PlaylistManager/PlaylistManager.hh</text>
</g>
<!-- Node2 -->
<g id="node3" class="node"><title>Node2</title>
<polygon fill="white" stroke="#bfbfbf" points="334.044,-336.5 334.044,-355.5 389.044,-355.5 389.044,-336.5 334.044,-336.5"/>
<text text-anchor="middle" x="361.544" y="-343.5" font-family="Helvetica,sans-Serif" font-size="10.00">gtkmm.h</text>
</g>
<!-- Node1&#45;&gt;Node2 -->
<g id="edge2" class="edge"><title>Node1&#45;&gt;Node2</title>
<path fill="none" stroke="midnightblue" d="M500.86,-560.297C479.299,-527.286 402.303,-409.404 372.988,-364.522"/>
<polygon fill="midnightblue" stroke="midnightblue" points="375.745,-362.342 367.346,-355.884 369.885,-366.17 375.745,-362.342"/>
</g>
<!-- Node3 -->
<g id="node5" class="node"><title>Node3</title>
<a xlink:href="AbstractItemlist_8hh.html" target="_top" xlink:title="../../MPD/AbstractItemlist.hh">
<polygon fill="white" stroke="black" points="680.044,-224.5 680.044,-243.5 823.044,-243.5 823.044,-224.5 680.044,-224.5"/>
<text text-anchor="middle" x="751.544" y="-231.5" font-family="Helvetica,sans-Serif" font-size="10.00">../../MPD/AbstractItemlist.hh</text>
</a>
</g>
<!-- Node1&#45;&gt;Node3 -->
<g id="edge4" class="edge"><title>Node1&#45;&gt;Node3</title>
<path fill="none" stroke="midnightblue" d="M585.014,-560.499C646.09,-549.014 720.544,-522.078 720.544,-459 720.544,-459 720.544,-459 720.544,-345 720.544,-311.41 734.101,-274.14 743.285,-252.747"/>
<polygon fill="midnightblue" stroke="midnightblue" points="746.485,-254.165 747.363,-243.607 740.092,-251.313 746.485,-254.165"/>
</g>
<!-- Node6 -->
<g id="node11" class="node"><title>Node6</title>
<a xlink:href="AbstractClientUser_8hh.html" target="_top" xlink:title="../../MPD/AbstractClientUser.hh">
<polygon fill="white" stroke="black" points="428.044,-392.5 428.044,-411.5 585.044,-411.5 585.044,-392.5 428.044,-392.5"/>
<text text-anchor="middle" x="506.544" y="-399.5" font-family="Helvetica,sans-Serif" font-size="10.00">../../MPD/AbstractClientUser.hh</text>
</a>
</g>
<!-- Node1&#45;&gt;Node6 -->
<g id="edge10" class="edge"><title>Node1&#45;&gt;Node6</title>
<path fill="none" stroke="midnightblue" d="M506.544,-560.075C506.544,-533.945 506.544,-457.211 506.544,-421.577"/>
<polygon fill="midnightblue" stroke="midnightblue" points="510.044,-421.568 506.544,-411.568 503.044,-421.568 510.044,-421.568"/>
</g>
<!-- Node7 -->
<g id="node13" class="node"><title>Node7</title>
<a xlink:href="Client_8hh.html" target="_top" xlink:title="Client.hh">
<polygon fill="white" stroke="black" points="504.544,-336.5 504.544,-355.5 560.544,-355.5 560.544,-336.5 504.544,-336.5"/>
<text text-anchor="middle" x="532.544" y="-343.5" font-family="Helvetica,sans-Serif" font-size="10.00">Client.hh</text>
</a>
</g>
<!-- Node1&#45;&gt;Node7 -->
<g id="edge68" class="edge"><title>Node1&#45;&gt;Node7</title>
<path fill="none" stroke="midnightblue" d="M513.365,-560.485C530.933,-537.938 577.475,-474.15 593.544,-412 595.769,-403.394 597.551,-399.935 593.544,-392 586.737,-378.52 573.776,-368.083 561.546,-360.67"/>
<polygon fill="midnightblue" stroke="midnightblue" points="562.887,-357.41 552.45,-355.59 559.474,-363.521 562.887,-357.41"/>
</g>
<!-- Node22 -->
<g id="node57" class="node"><title>Node22</title>
<a xlink:href="Playlist_8hh.html" target="_top" xlink:title="../../MPD/Playlist.hh">
<polygon fill="white" stroke="black" points="598.544,-168.5 598.544,-187.5 704.544,-187.5 704.544,-168.5 598.544,-168.5"/>
<text text-anchor="middle" x="651.544" y="-175.5" font-family="Helvetica,sans-Serif" font-size="10.00">../../MPD/Playlist.hh</text>
</a>
</g>
<!-- Node1&#45;&gt;Node22 -->
<g id="edge70" class="edge"><title>Node1&#45;&gt;Node22</title>
<path fill="none" stroke="midnightblue" d="M538.007,-560.482C580.652,-546.804 651.544,-515.56 651.544,-459 651.544,-459 651.544,-459 651.544,-289 651.544,-256.948 651.544,-219.643 651.544,-197.749"/>
<polygon fill="midnightblue" stroke="midnightblue" points="655.044,-197.558 651.544,-187.558 648.044,-197.558 655.044,-197.558"/>
</g>
<!-- Node23 -->
<g id="node63" class="node"><title>Node23</title>
<a xlink:href="AbstractBrowser_8hh.html" target="_top" xlink:title="../AbstractBrowser.hh">
<polygon fill="white" stroke="black" points="49.5439,-504.5 49.5439,-523.5 161.544,-523.5 161.544,-504.5 49.5439,-504.5"/>
<text text-anchor="middle" x="105.544" y="-511.5" font-family="Helvetica,sans-Serif" font-size="10.00">../AbstractBrowser.hh</text>
</a>
</g>
<!-- Node1&#45;&gt;Node23 -->
<g id="edge80" class="edge"><title>Node1&#45;&gt;Node23</title>
<path fill="none" stroke="midnightblue" d="M443.004,-560.444C368.971,-550.474 247.216,-534.078 171.968,-523.945"/>
<polygon fill="midnightblue" stroke="midnightblue" points="172.047,-520.424 161.669,-522.558 171.112,-527.361 172.047,-520.424"/>
</g>
<!-- Node27 -->
<g id="node74" class="node"><title>Node27</title>
<a xlink:href="PlaylistManagerPopup_8hh.html" target="_top" xlink:title="PlaylistManagerPopup.hh">
<polygon fill="white" stroke="black" points="243.544,-504.5 243.544,-523.5 371.544,-523.5 371.544,-504.5 243.544,-504.5"/>
<text text-anchor="middle" x="307.544" y="-511.5" font-family="Helvetica,sans-Serif" font-size="10.00">PlaylistManagerPopup.hh</text>
</a>
</g>
<!-- Node1&#45;&gt;Node27 -->
<g id="edge94" class="edge"><title>Node1&#45;&gt;Node27</title>
<path fill="none" stroke="midnightblue" d="M475.012,-560.444C440.952,-551.201 386.538,-536.436 349.029,-526.257"/>
<polygon fill="midnightblue" stroke="midnightblue" points="349.496,-522.758 338.929,-523.516 347.663,-529.513 349.496,-522.758"/>
</g>
<!-- Node4 -->
<g id="node7" class="node"><title>Node4</title>
<a xlink:href="AbstractComposite_8hh.html" target="_top" xlink:title="AbstractComposite.hh">
<polygon fill="white" stroke="black" points="636.544,-56.5 636.544,-75.5 750.544,-75.5 750.544,-56.5 636.544,-56.5"/>
<text text-anchor="middle" x="693.544" y="-63.5" font-family="Helvetica,sans-Serif" font-size="10.00">AbstractComposite.hh</text>
</a>
</g>
<!-- Node3&#45;&gt;Node4 -->
<g id="edge6" class="edge"><title>Node3&#45;&gt;Node4</title>
<path fill="none" stroke="midnightblue" d="M754.869,-224.454C762.351,-203.751 778.368,-149.836 758.544,-112 751.265,-98.1082 737.534,-87.6523 724.561,-80.3328"/>
<polygon fill="midnightblue" stroke="midnightblue" points="725.84,-77.0532 715.352,-75.553 722.615,-83.2662 725.84,-77.0532"/>
</g>
<!-- Node5 -->
<g id="node9" class="node"><title>Node5</title>
<polygon fill="white" stroke="#bfbfbf" points="592.544,-0.5 592.544,-19.5 636.544,-19.5 636.544,-0.5 592.544,-0.5"/>
<text text-anchor="middle" x="614.544" y="-7.5" font-family="Helvetica,sans-Serif" font-size="10.00">vector</text>
</g>
<!-- Node4&#45;&gt;Node5 -->
<g id="edge8" class="edge"><title>Node4&#45;&gt;Node5</title>
<path fill="none" stroke="midnightblue" d="M680.851,-56.324C668.643,-47.979 649.965,-35.2122 635.541,-25.3524"/>
<polygon fill="midnightblue" stroke="midnightblue" points="637.436,-22.4082 627.205,-19.6545 633.486,-28.1871 637.436,-22.4082"/>
</g>
<!-- Node6&#45;&gt;Node7 -->
<g id="edge12" class="edge"><title>Node6&#45;&gt;Node7</title>
<path fill="none" stroke="midnightblue" d="M510.837,-392.083C514.396,-384.691 519.566,-373.953 523.968,-364.811"/>
<polygon fill="midnightblue" stroke="midnightblue" points="527.146,-366.279 528.33,-355.751 520.839,-363.243 527.146,-366.279"/>
</g>
<!-- Node8 -->
<g id="node15" class="node"><title>Node8</title>
<a xlink:href="BaseClient_8hh.html" target="_top" xlink:title="BaseClient.hh">
<polygon fill="white" stroke="black" points="279.544,-280.5 279.544,-299.5 357.544,-299.5 357.544,-280.5 279.544,-280.5"/>
<text text-anchor="middle" x="318.544" y="-287.5" font-family="Helvetica,sans-Serif" font-size="10.00">BaseClient.hh</text>
</a>
</g>
<!-- Node7&#45;&gt;Node8 -->
<g id="edge14" class="edge"><title>Node7&#45;&gt;Node8</title>
<path fill="none" stroke="midnightblue" d="M504.126,-337.829C467.813,-328.666 404.586,-312.712 362.156,-302.005"/>
<polygon fill="midnightblue" stroke="midnightblue" points="362.929,-298.59 352.376,-299.537 361.216,-305.378 362.929,-298.59"/>
</g>
<!-- Node21 -->
<g id="node53" class="node"><title>Node21</title>
<a xlink:href="AbstractItemGenerator_8hh.html" target="_top" xlink:title="AbstractItemGenerator.hh">
<polygon fill="white" stroke="black" points="481.044,-280.5 481.044,-299.5 610.044,-299.5 610.044,-280.5 481.044,-280.5"/>
<text text-anchor="middle" x="545.544" y="-287.5" font-family="Helvetica,sans-Serif" font-size="10.00">AbstractItemGenerator.hh</text>
</a>
</g>
<!-- Node7&#45;&gt;Node21 -->
<g id="edge64" class="edge"><title>Node7&#45;&gt;Node21</title>
<path fill="none" stroke="midnightblue" d="M534.691,-336.083C536.413,-328.927 538.891,-318.635 541.044,-309.691"/>
<polygon fill="midnightblue" stroke="midnightblue" points="544.499,-310.293 543.437,-299.751 537.694,-308.654 544.499,-310.293"/>
</g>
<!-- Node9 -->
<g id="node17" class="node"><title>Node9</title>
<a xlink:href="Listener_8hh.html" target="_top" xlink:title="Listener.hh">
<polygon fill="white" stroke="black" points="185.044,-224.5 185.044,-243.5 250.044,-243.5 250.044,-224.5 185.044,-224.5"/>
<text text-anchor="middle" x="217.544" y="-231.5" font-family="Helvetica,sans-Serif" font-size="10.00">Listener.hh</text>
</a>
</g>
<!-- Node8&#45;&gt;Node9 -->
<g id="edge16" class="edge"><title>Node8&#45;&gt;Node9</title>
<path fill="none" stroke="midnightblue" d="M302.317,-280.324C286.193,-271.703 261.244,-258.364 242.58,-248.386"/>
<polygon fill="midnightblue" stroke="midnightblue" points="244.2,-245.283 233.731,-243.655 240.9,-251.456 244.2,-245.283"/>
</g>
<!-- Node16 -->
<g id="node32" class="node"><title>Node16</title>
<a xlink:href="Connection_8hh.html" target="_top" xlink:title="Connection.hh">
<polygon fill="white" stroke="black" points="62.5439,-112.5 62.5439,-131.5 142.544,-131.5 142.544,-112.5 62.5439,-112.5"/>
<text text-anchor="middle" x="102.544" y="-119.5" font-family="Helvetica,sans-Serif" font-size="10.00">Connection.hh</text>
</a>
</g>
<!-- Node8&#45;&gt;Node16 -->
<g id="edge54" class="edge"><title>Node8&#45;&gt;Node16</title>
<path fill="none" stroke="midnightblue" d="M279.33,-288.332C215.983,-284.855 92.8594,-267.612 39.5439,-188 26.0939,-167.916 51.5475,-148.502 74.0121,-136.203"/>
<polygon fill="midnightblue" stroke="midnightblue" points="75.7459,-139.246 83.0177,-131.541 72.528,-133.03 75.7459,-139.246"/>
</g>
<!-- Node19 -->
<g id="node47" class="node"><title>Node19</title>
<a xlink:href="Query_8hh.html" target="_top" xlink:title="Query.hh">
<polygon fill="white" stroke="black" points="490.544,-168.5 490.544,-187.5 546.544,-187.5 546.544,-168.5 490.544,-168.5"/>
<text text-anchor="middle" x="518.544" y="-175.5" font-family="Helvetica,sans-Serif" font-size="10.00">Query.hh</text>
</a>
</g>
<!-- Node8&#45;&gt;Node19 -->
<g id="edge56" class="edge"><title>Node8&#45;&gt;Node19</title>
<path fill="none" stroke="midnightblue" d="M334.238,-280.368C368.923,-261.292 452.322,-215.422 493.989,-192.505"/>
<polygon fill="midnightblue" stroke="midnightblue" points="495.848,-195.477 502.923,-187.591 492.474,-189.344 495.848,-195.477"/>
</g>
<!-- Node10 -->
<g id="node19" class="node"><title>Node10</title>
<polygon fill="white" stroke="#bfbfbf" points="328.544,-56.5 328.544,-75.5 398.544,-75.5 398.544,-56.5 328.544,-56.5"/>
<text text-anchor="middle" x="363.544" y="-63.5" font-family="Helvetica,sans-Serif" font-size="10.00">mpd/client.h</text>
</g>
<!-- Node9&#45;&gt;Node10 -->
<g id="edge18" class="edge"><title>Node9&#45;&gt;Node10</title>
<path fill="none" stroke="midnightblue" d="M220.67,-224.49C223.849,-215.528 228.7,-200.946 231.544,-188 238.853,-154.724 220.278,-138.616 241.544,-112 260.162,-88.6976 292.059,-77.4618 318.568,-72.0442"/>
<polygon fill="midnightblue" stroke="midnightblue" points="319.219,-75.4833 328.425,-70.2397 317.959,-68.5977 319.219,-75.4833"/>
</g>
<!-- Node11 -->
<g id="node21" class="node"><title>Node11</title>
<polygon fill="white" stroke="#bfbfbf" points="57.0439,-168.5 57.0439,-187.5 130.044,-187.5 130.044,-168.5 57.0439,-168.5"/>
<text text-anchor="middle" x="93.5439" y="-175.5" font-family="Helvetica,sans-Serif" font-size="10.00">mpd/async.h</text>
</g>
<!-- Node9&#45;&gt;Node11 -->
<g id="edge20" class="edge"><title>Node9&#45;&gt;Node11</title>
<path fill="none" stroke="midnightblue" d="M197.896,-224.444C177.579,-215.596 145.641,-201.687 122.446,-191.586"/>
<polygon fill="midnightblue" stroke="midnightblue" points="123.666,-188.3 113.1,-187.516 120.871,-194.718 123.666,-188.3"/>
</g>
<!-- Node12 -->
<g id="node23" class="node"><title>Node12</title>
<polygon fill="white" stroke="#bfbfbf" points="148.544,-168.5 148.544,-187.5 222.544,-187.5 222.544,-168.5 148.544,-168.5"/>
<text text-anchor="middle" x="185.544" y="-175.5" font-family="Helvetica,sans-Serif" font-size="10.00">mpd/parser.h</text>
</g>
<!-- Node9&#45;&gt;Node12 -->
<g id="edge22" class="edge"><title>Node9&#45;&gt;Node12</title>
<path fill="none" stroke="midnightblue" d="M212.26,-224.083C207.833,-216.613 201.381,-205.724 195.926,-196.52"/>
<polygon fill="midnightblue" stroke="midnightblue" points="198.839,-194.57 190.73,-187.751 192.817,-198.138 198.839,-194.57"/>
</g>
<!-- Node13 -->
<g id="node25" class="node"><title>Node13</title>
<polygon fill="white" stroke="#bfbfbf" points="74.5439,-56.5 74.5439,-75.5 130.544,-75.5 130.544,-56.5 74.5439,-56.5"/>
<text text-anchor="middle" x="102.544" y="-63.5" font-family="Helvetica,sans-Serif" font-size="10.00">glibmm.h</text>
</g>
<!-- Node9&#45;&gt;Node13 -->
<g id="edge24" class="edge"><title>Node9&#45;&gt;Node13</title>
<path fill="none" stroke="midnightblue" d="M184.841,-229.489C138.459,-223.759 57.2177,-210.698 39.5439,-188 27.5426,-172.587 39.7284,-135.234 53.5439,-112 60.4838,-100.329 71.3833,-89.8871 81.1422,-82.0069"/>
<polygon fill="midnightblue" stroke="midnightblue" points="83.4765,-84.628 89.2964,-75.7748 79.2258,-79.0664 83.4765,-84.628"/>
</g>
<!-- Node14 -->
<g id="node27" class="node"><title>Node14</title>
<a xlink:href="Status_8hh.html" target="_top" xlink:title="Status.hh">
<polygon fill="white" stroke="black" points="251.044,-112.5 251.044,-131.5 310.044,-131.5 310.044,-112.5 251.044,-112.5"/>
<text text-anchor="middle" x="280.544" y="-119.5" font-family="Helvetica,sans-Serif" font-size="10.00">Status.hh</text>
</a>
</g>
<!-- Node9&#45;&gt;Node14 -->
<g id="edge26" class="edge"><title>Node9&#45;&gt;Node14</title>
<path fill="none" stroke="midnightblue" d="M229.835,-224.434C240.596,-216.286 255.836,-203.061 264.544,-188 272.815,-173.695 276.834,-155.228 278.773,-141.636"/>
<polygon fill="midnightblue" stroke="midnightblue" points="282.266,-141.905 279.96,-131.564 275.314,-141.085 282.266,-141.905"/>
</g>
<!-- Node15 -->
<g id="node30" class="node"><title>Node15</title>
<a xlink:href="NotifyData_8hh.html" target="_top" xlink:title="NotifyData.hh">
<polygon fill="white" stroke="black" points="317.044,-168.5 317.044,-187.5 394.044,-187.5 394.044,-168.5 317.044,-168.5"/>
<text text-anchor="middle" x="355.544" y="-175.5" font-family="Helvetica,sans-Serif" font-size="10.00">NotifyData.hh</text>
</a>
</g>
<!-- Node9&#45;&gt;Node15 -->
<g id="edge30" class="edge"><title>Node9&#45;&gt;Node15</title>
<path fill="none" stroke="midnightblue" d="M239.41,-224.444C262.323,-215.478 298.519,-201.314 324.41,-191.183"/>
<polygon fill="midnightblue" stroke="midnightblue" points="325.743,-194.42 333.78,-187.516 323.192,-187.901 325.743,-194.42"/>
</g>
<!-- Node9&#45;&gt;Node16 -->
<g id="edge52" class="edge"><title>Node9&#45;&gt;Node16</title>
<path fill="none" stroke="midnightblue" d="M184.806,-229.061C140.258,-222.952 64.1644,-209.592 47.5439,-188 33.5631,-169.837 56.6949,-149.831 77.1114,-136.877"/>
<polygon fill="midnightblue" stroke="midnightblue" points="79.0968,-139.767 85.8677,-131.619 75.4929,-133.766 79.0968,-139.767"/>
</g>
<!-- Node14&#45;&gt;Node10 -->
<g id="edge28" class="edge"><title>Node14&#45;&gt;Node10</title>
<path fill="none" stroke="midnightblue" d="M293.879,-112.324C306.706,-103.979 326.329,-91.2122 341.484,-81.3524"/>
<polygon fill="midnightblue" stroke="midnightblue" points="343.768,-84.0417 350.242,-75.6545 339.951,-78.1742 343.768,-84.0417"/>
</g>
<!-- Node15&#45;&gt;Node14 -->
<g id="edge42" class="edge"><title>Node15&#45;&gt;Node14</title>
<path fill="none" stroke="midnightblue" d="M343.494,-168.324C332.081,-160.107 314.713,-147.602 301.109,-137.807"/>
<polygon fill="midnightblue" stroke="midnightblue" points="302.974,-134.837 292.813,-131.834 298.884,-140.517 302.974,-134.837"/>
</g>
<!-- Node15&#45;&gt;Node16 -->
<g id="edge32" class="edge"><title>Node15&#45;&gt;Node16</title>
<path fill="none" stroke="midnightblue" d="M316.843,-168.74C272.775,-159.334 200.657,-143.941 152.408,-133.643"/>
<polygon fill="midnightblue" stroke="midnightblue" points="153.004,-130.191 142.493,-131.527 151.543,-137.037 153.004,-130.191"/>
</g>
<!-- Node17 -->
<g id="node36" class="node"><title>Node17</title>
<a xlink:href="Statistics_8hh.html" target="_top" xlink:title="Statistics.hh">
<polygon fill="white" stroke="black" points="328.044,-112.5 328.044,-131.5 399.044,-131.5 399.044,-112.5 328.044,-112.5"/>
<text text-anchor="middle" x="363.544" y="-119.5" font-family="Helvetica,sans-Serif" font-size="10.00">Statistics.hh</text>
</a>
</g>
<!-- Node15&#45;&gt;Node17 -->
<g id="edge38" class="edge"><title>Node15&#45;&gt;Node17</title>
<path fill="none" stroke="midnightblue" d="M356.865,-168.083C357.925,-160.927 359.45,-150.635 360.775,-141.691"/>
<polygon fill="midnightblue" stroke="midnightblue" points="364.244,-142.156 362.247,-131.751 357.32,-141.13 364.244,-142.156"/>
</g>
<!-- Node18 -->
<g id="node40" class="node"><title>Node18</title>
<a xlink:href="Song_8hh.html" target="_top" xlink:title="Song.hh">
<polygon fill="white" stroke="black" points="417.044,-112.5 417.044,-131.5 470.044,-131.5 470.044,-112.5 417.044,-112.5"/>
<text text-anchor="middle" x="443.544" y="-119.5" font-family="Helvetica,sans-Serif" font-size="10.00">Song.hh</text>
</a>
</g>
<!-- Node15&#45;&gt;Node18 -->
<g id="edge44" class="edge"><title>Node15&#45;&gt;Node18</title>
<path fill="none" stroke="midnightblue" d="M369.683,-168.324C383.41,-159.9 404.48,-146.971 420.608,-137.074"/>
<polygon fill="midnightblue" stroke="midnightblue" points="422.748,-139.868 429.44,-131.655 419.086,-133.902 422.748,-139.868"/>
</g>
<!-- Node16&#45;&gt;Node10 -->
<g id="edge34" class="edge"><title>Node16&#45;&gt;Node10</title>
<path fill="none" stroke="midnightblue" d="M142.753,-112.681C190.244,-102.855 269.026,-86.5555 318.521,-76.3151"/>
<polygon fill="midnightblue" stroke="midnightblue" points="319.23,-79.7426 328.314,-74.289 317.812,-72.8878 319.23,-79.7426"/>
</g>
<!-- Node16&#45;&gt;Node13 -->
<g id="edge36" class="edge"><title>Node16&#45;&gt;Node13</title>
<path fill="none" stroke="midnightblue" d="M102.544,-112.083C102.544,-105.006 102.544,-94.8611 102.544,-85.9865"/>
<polygon fill="midnightblue" stroke="midnightblue" points="106.044,-85.751 102.544,-75.7511 99.044,-85.7511 106.044,-85.751"/>
</g>
<!-- Node17&#45;&gt;Node10 -->
<g id="edge40" class="edge"><title>Node17&#45;&gt;Node10</title>
<path fill="none" stroke="midnightblue" d="M363.544,-112.083C363.544,-105.006 363.544,-94.8611 363.544,-85.9865"/>
<polygon fill="midnightblue" stroke="midnightblue" points="367.044,-85.751 363.544,-75.7511 360.044,-85.7511 367.044,-85.751"/>
</g>
<!-- Node18&#45;&gt;Node4 -->
<g id="edge48" class="edge"><title>Node18&#45;&gt;Node4</title>
<path fill="none" stroke="midnightblue" d="M470.298,-115.221C511.63,-106.293 591.675,-89.0036 643.838,-77.7365"/>
<polygon fill="midnightblue" stroke="midnightblue" points="644.843,-81.1001 653.879,-75.5676 643.365,-74.2579 644.843,-81.1001"/>
</g>
<!-- Node18&#45;&gt;Node10 -->
<g id="edge46" class="edge"><title>Node18&#45;&gt;Node10</title>
<path fill="none" stroke="midnightblue" d="M430.691,-112.324C418.328,-103.979 399.414,-91.2122 384.807,-81.3524"/>
<polygon fill="midnightblue" stroke="midnightblue" points="386.612,-78.3483 376.365,-75.6545 382.696,-84.1503 386.612,-78.3483"/>
</g>
<!-- Node18&#45;&gt;Node13 -->
<g id="edge50" class="edge"><title>Node18&#45;&gt;Node13</title>
<path fill="none" stroke="midnightblue" d="M416.874,-114.022C413.739,-113.294 410.577,-112.601 407.544,-112 312.398,-93.1355 199.119,-78.429 141.058,-71.4469"/>
<polygon fill="midnightblue" stroke="midnightblue" points="141.22,-67.9416 130.877,-70.2339 140.392,-74.8924 141.22,-67.9416"/>
</g>
<!-- Node19&#45;&gt;Node5 -->
<g id="edge60" class="edge"><title>Node19&#45;&gt;Node5</title>
<path fill="none" stroke="midnightblue" d="M523.54,-168.151C530.62,-155.626 543.998,-132.022 555.544,-112 572.544,-82.52 592.569,-48.3564 604.375,-28.2733"/>
<polygon fill="midnightblue" stroke="midnightblue" points="607.407,-30.0216 609.46,-19.6277 601.373,-26.4725 607.407,-30.0216"/>
</g>
<!-- Node19&#45;&gt;Node10 -->
<g id="edge58" class="edge"><title>Node19&#45;&gt;Node10</title>
<path fill="none" stroke="midnightblue" d="M515.271,-168.177C509.732,-154.373 497.253,-127.633 478.544,-112 458.48,-95.2351 431.435,-84.2309 408.612,-77.3035"/>
<polygon fill="midnightblue" stroke="midnightblue" points="409.372,-73.8802 398.794,-74.4904 407.443,-80.6095 409.372,-73.8802"/>
</g>
<!-- Node20 -->
<g id="node51" class="node"><title>Node20</title>
<a xlink:href="AbstractClientExtension_8hh.html" target="_top" xlink:title="AbstractClientExtension.hh">
<polygon fill="white" stroke="black" points="564.544,-112.5 564.544,-131.5 700.544,-131.5 700.544,-112.5 564.544,-112.5"/>
<text text-anchor="middle" x="632.544" y="-119.5" font-family="Helvetica,sans-Serif" font-size="10.00">AbstractClientExtension.hh</text>
</a>
</g>
<!-- Node19&#45;&gt;Node20 -->
<g id="edge62" class="edge"><title>Node19&#45;&gt;Node20</title>
<path fill="none" stroke="midnightblue" d="M536.608,-168.444C555.119,-159.675 584.125,-145.935 605.399,-135.858"/>
<polygon fill="midnightblue" stroke="midnightblue" points="607.026,-138.96 614.565,-131.516 604.029,-132.634 607.026,-138.96"/>
</g>
<!-- Node21&#45;&gt;Node3 -->
<g id="edge66" class="edge"><title>Node21&#45;&gt;Node3</title>
<path fill="none" stroke="midnightblue" d="M578.185,-280.444C613.594,-271.162 670.253,-256.309 709.097,-246.127"/>
<polygon fill="midnightblue" stroke="midnightblue" points="710.27,-249.438 719.055,-243.516 708.495,-242.667 710.27,-249.438"/>
</g>
<!-- Node22&#45;&gt;Node4 -->
<g id="edge76" class="edge"><title>Node22&#45;&gt;Node4</title>
<path fill="none" stroke="midnightblue" d="M689.512,-168.411C708.952,-161.883 730.92,-150.715 742.544,-132 753.885,-113.739 734.45,-94.2307 716.807,-81.4041"/>
<polygon fill="midnightblue" stroke="midnightblue" points="718.664,-78.4335 708.433,-75.6789 714.713,-84.2121 718.664,-78.4335"/>
</g>
<!-- Node22&#45;&gt;Node10 -->
<g id="edge72" class="edge"><title>Node22&#45;&gt;Node10</title>
<path fill="none" stroke="midnightblue" d="M668.978,-168.416C691.935,-156.015 727.41,-132.34 709.544,-112 689.981,-89.7278 498.035,-75.2055 408.768,-69.6035"/>
<polygon fill="midnightblue" stroke="midnightblue" points="408.861,-66.1027 398.665,-68.9801 408.43,-73.0894 408.861,-66.1027"/>
</g>
<!-- Node22&#45;&gt;Node18 -->
<g id="edge78" class="edge"><title>Node22&#45;&gt;Node18</title>
<path fill="none" stroke="midnightblue" d="M618.586,-168.444C580.835,-158.643 519.163,-142.632 480.004,-132.465"/>
<polygon fill="midnightblue" stroke="midnightblue" points="480.637,-129.014 470.078,-129.889 478.878,-135.789 480.637,-129.014"/>
</g>
<!-- Node22&#45;&gt;Node20 -->
<g id="edge74" class="edge"><title>Node22&#45;&gt;Node20</title>
<path fill="none" stroke="midnightblue" d="M648.406,-168.083C645.861,-160.849 642.188,-150.409 639.017,-141.397"/>
<polygon fill="midnightblue" stroke="midnightblue" points="642.244,-140.023 635.623,-131.751 635.641,-142.346 642.244,-140.023"/>
</g>
<!-- Node24 -->
<g id="node65" class="node"><title>Node24</title>
<a xlink:href="ui__includes_8hh.html" target="_top" xlink:title="../ui_includes.hh">
<polygon fill="white" stroke="black" points="153.544,-392.5 153.544,-411.5 241.544,-411.5 241.544,-392.5 153.544,-392.5"/>
<text text-anchor="middle" x="197.544" y="-399.5" font-family="Helvetica,sans-Serif" font-size="10.00">../ui_includes.hh</text>
</a>
</g>
<!-- Node23&#45;&gt;Node24 -->
<g id="edge82" class="edge"><title>Node23&#45;&gt;Node24</title>
<path fill="none" stroke="midnightblue" d="M68.9065,-504.442C32.2866,-494.153 -15.7444,-474.855 5.54394,-448 22.4567,-426.665 92.4605,-414.471 143.061,-408.294"/>
<polygon fill="midnightblue" stroke="midnightblue" points="143.695,-411.744 153.219,-407.102 142.879,-404.792 143.695,-411.744"/>
</g>
<!-- Node25 -->
<g id="node68" class="node"><title>Node25</title>
<polygon fill="white" stroke="#bfbfbf" points="14.5439,-448.5 14.5439,-467.5 68.5439,-467.5 68.5439,-448.5 14.5439,-448.5"/>
<text text-anchor="middle" x="41.5439" y="-455.5" font-family="Helvetica,sans-Serif" font-size="10.00">iostream</text>
</g>
<!-- Node23&#45;&gt;Node25 -->
<g id="edge86" class="edge"><title>Node23&#45;&gt;Node25</title>
<path fill="none" stroke="midnightblue" d="M95.2612,-504.324C85.7076,-496.263 71.2643,-484.077 59.7596,-474.369"/>
<polygon fill="midnightblue" stroke="midnightblue" points="61.9137,-471.608 52.0137,-467.834 57.3996,-476.958 61.9137,-471.608"/>
</g>
<!-- Node26 -->
<g id="node70" class="node"><title>Node26</title>
<a xlink:href="BrowserList_8hh.html" target="_top" xlink:title="../GManager/BrowserList.hh">
<polygon fill="white" stroke="black" points="194.044,-448.5 194.044,-467.5 333.044,-467.5 333.044,-448.5 194.044,-448.5"/>
<text text-anchor="middle" x="263.544" y="-455.5" font-family="Helvetica,sans-Serif" font-size="10.00">../GManager/BrowserList.hh</text>
</a>
</g>
<!-- Node23&#45;&gt;Node26 -->
<g id="edge88" class="edge"><title>Node23&#45;&gt;Node26</title>
<path fill="none" stroke="midnightblue" d="M130.58,-504.444C157.16,-495.359 199.353,-480.939 229.067,-470.783"/>
<polygon fill="midnightblue" stroke="midnightblue" points="230.295,-474.062 238.626,-467.516 228.031,-467.439 230.295,-474.062"/>
</g>
<!-- Node24&#45;&gt;Node2 -->
<g id="edge84" class="edge"><title>Node24&#45;&gt;Node2</title>
<path fill="none" stroke="midnightblue" d="M223.53,-392.444C251.24,-383.32 295.296,-368.813 326.16,-358.651"/>
<polygon fill="midnightblue" stroke="midnightblue" points="327.276,-361.968 335.679,-355.516 325.086,-355.32 327.276,-361.968"/>
</g>
<!-- Node26&#45;&gt;Node6 -->
<g id="edge92" class="edge"><title>Node26&#45;&gt;Node6</title>
<path fill="none" stroke="midnightblue" d="M302.048,-448.444C344.35,-439.043 412.363,-423.929 458.217,-413.739"/>
<polygon fill="midnightblue" stroke="midnightblue" points="459.217,-417.102 468.22,-411.516 457.699,-410.269 459.217,-417.102"/>
</g>
<!-- Node26&#45;&gt;Node24 -->
<g id="edge90" class="edge"><title>Node26&#45;&gt;Node24</title>
<path fill="none" stroke="midnightblue" d="M252.94,-448.324C243.088,-440.263 228.193,-428.077 216.329,-418.369"/>
<polygon fill="midnightblue" stroke="midnightblue" points="218.297,-415.457 208.341,-411.834 213.864,-420.875 218.297,-415.457"/>
</g>
<!-- Node27&#45;&gt;Node2 -->
<g id="edge96" class="edge"><title>Node27&#45;&gt;Node2</title>
<path fill="none" stroke="midnightblue" d="M316.297,-504.191C324.212,-495.676 335.519,-482.037 341.544,-468 356.188,-433.88 360.162,-390.099 361.207,-365.65"/>
<polygon fill="midnightblue" stroke="midnightblue" points="364.707,-365.707 361.514,-355.605 357.71,-365.493 364.707,-365.707"/>
</g>
<!-- Node28 -->
<g id="node77" class="node"><title>Node28</title>
<a xlink:href="BasePopup_8hh.html" target="_top" xlink:title="../BasePopup.hh">
<polygon fill="white" stroke="black" points="87.0439,-448.5 87.0439,-467.5 176.044,-467.5 176.044,-448.5 87.0439,-448.5"/>
<text text-anchor="middle" x="131.544" y="-455.5" font-family="Helvetica,sans-Serif" font-size="10.00">../BasePopup.hh</text>
</a>
</g>
<!-- Node27&#45;&gt;Node28 -->
<g id="edge98" class="edge"><title>Node27&#45;&gt;Node28</title>
<path fill="none" stroke="midnightblue" d="M279.656,-504.444C249.79,-495.28 202.229,-480.688 169.088,-470.519"/>
<polygon fill="midnightblue" stroke="midnightblue" points="169.888,-467.104 159.301,-467.516 167.835,-473.796 169.888,-467.104"/>
</g>
<!-- Node28&#45;&gt;Node24 -->
<g id="edge100" class="edge"><title>Node28&#45;&gt;Node24</title>
<path fill="none" stroke="midnightblue" d="M142.148,-448.324C152,-440.263 166.895,-428.077 178.759,-418.369"/>
<polygon fill="midnightblue" stroke="midnightblue" points="181.224,-420.875 186.747,-411.834 176.791,-415.457 181.224,-420.875"/>
</g>
</g>
</svg>
