<?xml version="1.0" encoding="UTF-8" standalone="no"?>
<!DOCTYPE svg PUBLIC "-//W3C//DTD SVG 1.1//EN"
 "http://www.w3.org/Graphics/SVG/1.1/DTD/svg11.dtd">
<!-- Generated by graphviz version 2.28.0 (20120217.0315)
 -->
<!-- Title: G Pages: 1 -->
<svg width="324pt" height="196pt"
 viewBox="0.00 0.00 324.00 196.00" xmlns="http://www.w3.org/2000/svg" xmlns:xlink="http://www.w3.org/1999/xlink">
<g id="graph1" class="graph" transform="scale(1 1) rotate(0) translate(4 192)">
<title>G</title>
<polygon fill="white" stroke="white" points="-4,5 -4,-192 321,-192 321,5 -4,5"/>
<!-- Node1 -->
<g id="node1" class="node"><title>Node1</title>
<polygon fill="#bfbfbf" stroke="black" points="95,-168.5 95,-187.5 199,-187.5 199,-168.5 95,-168.5"/>
<text text-anchor="middle" x="147" y="-175.5" font-family="Helvetica,sans-Serif" font-size="10.00">src/MPD/Playlist.hh</text>
</g>
<!-- Node2 -->
<g id="node3" class="node"><title>Node2</title>
<polygon fill="white" stroke="#bfbfbf" points="0,-56.5 0,-75.5 70,-75.5 70,-56.5 0,-56.5"/>
<text text-anchor="middle" x="35" y="-63.5" font-family="Helvetica,sans-Serif" font-size="10.00">mpd/client.h</text>
</g>
<!-- Node1&#45;&gt;Node2 -->
<g id="edge2" class="edge"><title>Node1&#45;&gt;Node2</title>
<path fill="none" stroke="midnightblue" d="M94.812,-173.629C65.9572,-168.778 32.3288,-157.551 14,-132 3.67997,-117.614 12.5394,-97.8999 21.7176,-83.9657"/>
<polygon fill="midnightblue" stroke="midnightblue" points="24.6192,-85.9253 27.5967,-75.7575 18.9283,-81.8492 24.6192,-85.9253"/>
</g>
<!-- Node3 -->
<g id="node5" class="node"><title>Node3</title>
<a xlink:href="AbstractClientExtension_8hh.html" target="_top" xlink:title="AbstractClientExtension.hh">
<polygon fill="white" stroke="black" points="23,-112.5 23,-131.5 159,-131.5 159,-112.5 23,-112.5"/>
<text text-anchor="middle" x="91" y="-119.5" font-family="Helvetica,sans-Serif" font-size="10.00">AbstractClientExtension.hh</text>
</a>
</g>
<!-- Node1&#45;&gt;Node3 -->
<g id="edge4" class="edge"><title>Node1&#45;&gt;Node3</title>
<path fill="none" stroke="midnightblue" d="M138.003,-168.324C129.806,-160.42 117.494,-148.548 107.528,-138.938"/>
<polygon fill="midnightblue" stroke="midnightblue" points="109.789,-136.256 100.161,-131.834 104.93,-141.295 109.789,-136.256"/>
</g>
<!-- Node4 -->
<g id="node7" class="node"><title>Node4</title>
<a xlink:href="AbstractComposite_8hh.html" target="_top" xlink:title="AbstractComposite.hh">
<polygon fill="white" stroke="black" points="202,-56.5 202,-75.5 316,-75.5 316,-56.5 202,-56.5"/>
<text text-anchor="middle" x="259" y="-63.5" font-family="Helvetica,sans-Serif" font-size="10.00">AbstractComposite.hh</text>
</a>
</g>
<!-- Node1&#45;&gt;Node4 -->
<g id="edge6" class="edge"><title>Node1&#45;&gt;Node4</title>
<path fill="none" stroke="midnightblue" d="M179.221,-168.421C199.039,-161.593 223.52,-150.112 239,-132 250.137,-118.969 255.075,-99.8116 257.262,-85.6684"/>
<polygon fill="midnightblue" stroke="midnightblue" points="260.752,-85.9648 258.493,-75.6136 253.804,-85.1142 260.752,-85.9648"/>
</g>
<!-- Node6 -->
<g id="node11" class="node"><title>Node6</title>
<a xlink:href="Song_8hh.html" target="_top" xlink:title="Song.hh">
<polygon fill="white" stroke="black" points="177.5,-112.5 177.5,-131.5 230.5,-131.5 230.5,-112.5 177.5,-112.5"/>
<text text-anchor="middle" x="204" y="-119.5" font-family="Helvetica,sans-Serif" font-size="10.00">Song.hh</text>
</a>
</g>
<!-- Node1&#45;&gt;Node6 -->
<g id="edge10" class="edge"><title>Node1&#45;&gt;Node6</title>
<path fill="none" stroke="midnightblue" d="M156.158,-168.324C164.501,-160.42 177.032,-148.548 187.177,-138.938"/>
<polygon fill="midnightblue" stroke="midnightblue" points="189.823,-141.252 194.675,-131.834 185.009,-136.171 189.823,-141.252"/>
</g>
<!-- Node5 -->
<g id="node9" class="node"><title>Node5</title>
<polygon fill="white" stroke="#bfbfbf" points="237,-0.5 237,-19.5 281,-19.5 281,-0.5 237,-0.5"/>
<text text-anchor="middle" x="259" y="-7.5" font-family="Helvetica,sans-Serif" font-size="10.00">vector</text>
</g>
<!-- Node4&#45;&gt;Node5 -->
<g id="edge8" class="edge"><title>Node4&#45;&gt;Node5</title>
<path fill="none" stroke="midnightblue" d="M259,-56.083C259,-49.0059 259,-38.8611 259,-29.9865"/>
<polygon fill="midnightblue" stroke="midnightblue" points="262.5,-29.751 259,-19.7511 255.5,-29.7511 262.5,-29.751"/>
</g>
<!-- Node6&#45;&gt;Node2 -->
<g id="edge12" class="edge"><title>Node6&#45;&gt;Node2</title>
<path fill="none" stroke="midnightblue" d="M177.221,-112.444C148.667,-103.32 103.267,-88.8133 71.4631,-78.6509"/>
<polygon fill="midnightblue" stroke="midnightblue" points="72.2441,-75.2262 61.6533,-75.5164 70.1135,-81.8941 72.2441,-75.2262"/>
</g>
<!-- Node6&#45;&gt;Node4 -->
<g id="edge14" class="edge"><title>Node6&#45;&gt;Node4</title>
<path fill="none" stroke="midnightblue" d="M213.082,-112.083C221.171,-104.141 233.195,-92.3354 242.91,-82.7973"/>
<polygon fill="midnightblue" stroke="midnightblue" points="245.403,-85.2545 250.087,-75.7511 240.499,-80.2595 245.403,-85.2545"/>
</g>
<!-- Node7 -->
<g id="node15" class="node"><title>Node7</title>
<polygon fill="white" stroke="#bfbfbf" points="128,-56.5 128,-75.5 184,-75.5 184,-56.5 128,-56.5"/>
<text text-anchor="middle" x="156" y="-63.5" font-family="Helvetica,sans-Serif" font-size="10.00">glibmm.h</text>
</g>
<!-- Node6&#45;&gt;Node7 -->
<g id="edge16" class="edge"><title>Node6&#45;&gt;Node7</title>
<path fill="none" stroke="midnightblue" d="M196.074,-112.083C189.154,-104.298 178.935,-92.8015 170.548,-83.3665"/>
<polygon fill="midnightblue" stroke="midnightblue" points="173.038,-80.8999 163.779,-75.7511 167.806,-85.5505 173.038,-80.8999"/>
</g>
</g>
</svg>
