<?xml version="1.0" encoding="UTF-8" standalone="no"?>
<!DOCTYPE svg PUBLIC "-//W3C//DTD SVG 1.1//EN"
 "http://www.w3.org/Graphics/SVG/1.1/DTD/svg11.dtd">
<!-- Generated by graphviz version 2.28.0 (20120217.0315)
 -->
<!-- Title: G Pages: 1 -->
<svg width="264pt" height="196pt"
 viewBox="0.00 0.00 264.00 196.00" xmlns="http://www.w3.org/2000/svg" xmlns:xlink="http://www.w3.org/1999/xlink">
<g id="graph1" class="graph" transform="scale(1 1) rotate(0) translate(4 192)">
<title>G</title>
<polygon fill="white" stroke="white" points="-4,5 -4,-192 261,-192 261,5 -4,5"/>
<!-- Node1 -->
<g id="node1" class="node"><title>Node1</title>
<polygon fill="#bfbfbf" stroke="black" points="0,-168.5 0,-187.5 256,-187.5 256,-168.5 0,-168.5"/>
<text text-anchor="middle" x="128" y="-175.5" font-family="Helvetica,sans-Serif" font-size="10.00">src/Browser/PlaylistManager/PlaylistManagerPopup.hh</text>
</g>
<!-- Node2 -->
<g id="node3" class="node"><title>Node2</title>
<polygon fill="white" stroke="#bfbfbf" points="100.5,-0.5 100.5,-19.5 155.5,-19.5 155.5,-0.5 100.5,-0.5"/>
<text text-anchor="middle" x="128" y="-7.5" font-family="Helvetica,sans-Serif" font-size="10.00">gtkmm.h</text>
</g>
<!-- Node1&#45;&gt;Node2 -->
<g id="edge2" class="edge"><title>Node1&#45;&gt;Node2</title>
<path fill="none" stroke="midnightblue" d="M123.938,-168.268C120.029,-159.368 114.372,-145.053 112,-132 105.961,-98.7635 104.932,-89.2313 111,-56 112.688,-46.7575 116.175,-36.9479 119.554,-28.8546"/>
<polygon fill="midnightblue" stroke="midnightblue" points="122.763,-30.2518 123.634,-19.6928 116.369,-27.4045 122.763,-30.2518"/>
</g>
<!-- Node3 -->
<g id="node5" class="node"><title>Node3</title>
<a xlink:href="BasePopup_8hh.html" target="_top" xlink:title="../BasePopup.hh">
<polygon fill="white" stroke="black" points="120.5,-112.5 120.5,-131.5 209.5,-131.5 209.5,-112.5 120.5,-112.5"/>
<text text-anchor="middle" x="165" y="-119.5" font-family="Helvetica,sans-Serif" font-size="10.00">../BasePopup.hh</text>
</a>
</g>
<!-- Node1&#45;&gt;Node3 -->
<g id="edge4" class="edge"><title>Node1&#45;&gt;Node3</title>
<path fill="none" stroke="midnightblue" d="M134.11,-168.083C139.282,-160.534 146.846,-149.495 153.194,-140.23"/>
<polygon fill="midnightblue" stroke="midnightblue" points="156.239,-141.979 159.004,-131.751 150.464,-138.022 156.239,-141.979"/>
</g>
<!-- Node4 -->
<g id="node7" class="node"><title>Node4</title>
<a xlink:href="ui__includes_8hh.html" target="_top" xlink:title="../ui_includes.hh">
<polygon fill="white" stroke="black" points="120,-56.5 120,-75.5 208,-75.5 208,-56.5 120,-56.5"/>
<text text-anchor="middle" x="164" y="-63.5" font-family="Helvetica,sans-Serif" font-size="10.00">../ui_includes.hh</text>
</a>
</g>
<!-- Node3&#45;&gt;Node4 -->
<g id="edge6" class="edge"><title>Node3&#45;&gt;Node4</title>
<path fill="none" stroke="midnightblue" d="M164.835,-112.083C164.704,-105.006 164.516,-94.8611 164.352,-85.9865"/>
<polygon fill="midnightblue" stroke="midnightblue" points="167.847,-85.6845 164.162,-75.7511 160.848,-85.8142 167.847,-85.6845"/>
</g>
<!-- Node4&#45;&gt;Node2 -->
<g id="edge8" class="edge"><title>Node4&#45;&gt;Node2</title>
<path fill="none" stroke="midnightblue" d="M158.055,-56.083C153.023,-48.5341 145.663,-37.4948 139.487,-28.2298"/>
<polygon fill="midnightblue" stroke="midnightblue" points="142.293,-26.1301 133.834,-19.7511 136.469,-30.0131 142.293,-26.1301"/>
</g>
</g>
</svg>
