<?xml version="1.0" encoding="UTF-8" standalone="no"?>
<!DOCTYPE svg PUBLIC "-//W3C//DTD SVG 1.1//EN"
 "http://www.w3.org/Graphics/SVG/1.1/DTD/svg11.dtd">
<!-- Generated by graphviz version 2.28.0 (20111204.1018)
 -->
<!-- Title: G Pages: 1 -->
<svg width="713pt" height="476pt"
 viewBox="0.00 0.00 712.97 476.00" xmlns="http://www.w3.org/2000/svg" xmlns:xlink="http://www.w3.org/1999/xlink">
<g id="graph1" class="graph" transform="scale(1 1) rotate(0) translate(4 472)">
<title>G</title>
<polygon fill="white" stroke="white" points="-4,5 -4,-472 709.97,-472 709.97,5 -4,5"/>
<!-- Node1 -->
<g id="node1" class="node"><title>Node1</title>
<polygon fill="#bfbfbf" stroke="black" points="202.211,-448.5 202.211,-467.5 430.211,-467.5 430.211,-448.5 202.211,-448.5"/>
<text text-anchor="middle" x="316.211" y="-455.5" font-family="Helvetica,sans-Serif" font-size="10.00">src/Browser/PlaylistManager/PlaylistManager.hh</text>
</g>
<!-- Node2 -->
<g id="node3" class="node"><title>Node2</title>
<polygon fill="white" stroke="#bfbfbf" points="578.711,-280.5 578.711,-299.5 633.711,-299.5 633.711,-280.5 578.711,-280.5"/>
<text text-anchor="middle" x="606.211" y="-287.5" font-family="Helvetica,sans-Serif" font-size="10.00">gtkmm.h</text>
</g>
<!-- Node1&#45;&gt;Node2 -->
<g id="edge2" class="edge"><title>Node1&#45;&gt;Node2</title>
<path fill="none" stroke="midnightblue" d="M430.496,-454.465C519.501,-450.339 633.984,-439.631 671.211,-412 699.764,-390.807 714.906,-366.248 696.211,-336 684.715,-317.398 662.942,-306.228 643.692,-299.67"/>
<polygon fill="midnightblue" stroke="midnightblue" points="644.511,-296.26 633.923,-296.646 642.441,-302.947 644.511,-296.26"/>
</g>
<!-- Node3 -->
<g id="node5" class="node"><title>Node3</title>
<a xlink:href="AbstractItemlist_8hh.html" target="_top" xlink:title="../../MPD/AbstractItemlist.hh">
<polygon fill="white" stroke="black" points="11.7115,-224.5 11.7115,-243.5 154.711,-243.5 154.711,-224.5 11.7115,-224.5"/>
<text text-anchor="middle" x="83.2115" y="-231.5" font-family="Helvetica,sans-Serif" font-size="10.00">../../MPD/AbstractItemlist.hh</text>
</a>
</g>
<!-- Node1&#45;&gt;Node3 -->
<g id="edge4" class="edge"><title>Node1&#45;&gt;Node3</title>
<path fill="none" stroke="midnightblue" d="M202.122,-451.2C136.904,-445.492 63.5544,-434.216 40.2115,-412 -2.98216,-370.892 -11.8343,-332.621 16.2115,-280 23.7617,-265.834 37.9721,-255.335 51.3696,-248.058"/>
<polygon fill="midnightblue" stroke="midnightblue" points="53.0454,-251.133 60.4231,-243.529 49.9138,-244.872 53.0454,-251.133"/>
</g>
<!-- Node6 -->
<g id="node11" class="node"><title>Node6</title>
<a xlink:href="AbstractClientUser_8hh.html" target="_top" xlink:title="../../MPD/AbstractClientUser.hh">
<polygon fill="white" stroke="black" points="49.7115,-392.5 49.7115,-411.5 206.711,-411.5 206.711,-392.5 49.7115,-392.5"/>
<text text-anchor="middle" x="128.211" y="-399.5" font-family="Helvetica,sans-Serif" font-size="10.00">../../MPD/AbstractClientUser.hh</text>
</a>
</g>
<!-- Node1&#45;&gt;Node6 -->
<g id="edge10" class="edge"><title>Node1&#45;&gt;Node6</title>
<path fill="none" stroke="midnightblue" d="M286.422,-448.444C254.383,-439.241 203.278,-424.562 167.858,-414.388"/>
<polygon fill="midnightblue" stroke="midnightblue" points="168.439,-410.913 157.861,-411.516 166.506,-417.641 168.439,-410.913"/>
</g>
<!-- Node7 -->
<g id="node13" class="node"><title>Node7</title>
<a xlink:href="Client_8hh.html" target="_top" xlink:title="Client.hh">
<polygon fill="white" stroke="black" points="99.2115,-336.5 99.2115,-355.5 155.211,-355.5 155.211,-336.5 99.2115,-336.5"/>
<text text-anchor="middle" x="127.211" y="-343.5" font-family="Helvetica,sans-Serif" font-size="10.00">Client.hh</text>
</a>
</g>
<!-- Node1&#45;&gt;Node7 -->
<g id="edge60" class="edge"><title>Node1&#45;&gt;Node7</title>
<path fill="none" stroke="midnightblue" d="M303.707,-448.38C284.867,-435.525 247.922,-410.828 215.211,-392 195.26,-380.516 172.052,-368.71 154.481,-360.074"/>
<polygon fill="midnightblue" stroke="midnightblue" points="155.877,-356.861 145.355,-355.624 152.809,-363.153 155.877,-356.861"/>
</g>
<!-- Node20 -->
<g id="node51" class="node"><title>Node20</title>
<a xlink:href="Playlist_8hh.html" target="_top" xlink:title="../../MPD/Playlist.hh">
<polygon fill="white" stroke="black" points="263.211,-392.5 263.211,-411.5 369.211,-411.5 369.211,-392.5 263.211,-392.5"/>
<text text-anchor="middle" x="316.211" y="-399.5" font-family="Helvetica,sans-Serif" font-size="10.00">../../MPD/Playlist.hh</text>
</a>
</g>
<!-- Node1&#45;&gt;Node20 -->
<g id="edge62" class="edge"><title>Node1&#45;&gt;Node20</title>
<path fill="none" stroke="midnightblue" d="M316.211,-448.083C316.211,-441.006 316.211,-430.861 316.211,-421.986"/>
<polygon fill="midnightblue" stroke="midnightblue" points="319.712,-421.751 316.211,-411.751 312.712,-421.751 319.712,-421.751"/>
</g>
<!-- Node22 -->
<g id="node59" class="node"><title>Node22</title>
<a xlink:href="AbstractBrowser_8hh.html" target="_top" xlink:title="../AbstractBrowser.hh">
<polygon fill="white" stroke="black" points="404.211,-392.5 404.211,-411.5 516.211,-411.5 516.211,-392.5 404.211,-392.5"/>
<text text-anchor="middle" x="460.211" y="-399.5" font-family="Helvetica,sans-Serif" font-size="10.00">../AbstractBrowser.hh</text>
</a>
</g>
<!-- Node1&#45;&gt;Node22 -->
<g id="edge74" class="edge"><title>Node1&#45;&gt;Node22</title>
<path fill="none" stroke="midnightblue" d="M339.029,-448.444C363.043,-439.438 401.04,-425.189 428.081,-415.049"/>
<polygon fill="midnightblue" stroke="midnightblue" points="429.367,-418.305 437.501,-411.516 426.909,-411.751 429.367,-418.305"/>
</g>
<!-- Node24 -->
<g id="node64" class="node"><title>Node24</title>
<a xlink:href="PlaylistManagerPopup_8hh.html" target="_top" xlink:title="PlaylistManagerPopup.hh">
<polygon fill="white" stroke="black" points="534.211,-392.5 534.211,-411.5 662.211,-411.5 662.211,-392.5 534.211,-392.5"/>
<text text-anchor="middle" x="598.211" y="-399.5" font-family="Helvetica,sans-Serif" font-size="10.00">PlaylistManagerPopup.hh</text>
</a>
</g>
<!-- Node1&#45;&gt;Node24 -->
<g id="edge80" class="edge"><title>Node1&#45;&gt;Node24</title>
<path fill="none" stroke="midnightblue" d="M360.895,-448.444C410.502,-438.944 490.576,-423.611 543.797,-413.42"/>
<polygon fill="midnightblue" stroke="midnightblue" points="544.574,-416.835 553.737,-411.516 543.257,-409.96 544.574,-416.835"/>
</g>
<!-- Node4 -->
<g id="node7" class="node"><title>Node4</title>
<a xlink:href="AbstractComposite_8hh.html" target="_top" xlink:title="AbstractComposite.hh">
<polygon fill="white" stroke="black" points="88.2115,-56.5 88.2115,-75.5 202.211,-75.5 202.211,-56.5 88.2115,-56.5"/>
<text text-anchor="middle" x="145.211" y="-63.5" font-family="Helvetica,sans-Serif" font-size="10.00">AbstractComposite.hh</text>
</a>
</g>
<!-- Node3&#45;&gt;Node4 -->
<g id="edge6" class="edge"><title>Node3&#45;&gt;Node4</title>
<path fill="none" stroke="midnightblue" d="M86.5449,-224.075C96.3465,-197.832 125.213,-120.545 138.445,-85.1165"/>
<polygon fill="midnightblue" stroke="midnightblue" points="141.791,-86.1607 142.011,-75.5681 135.234,-83.7114 141.791,-86.1607"/>
</g>
<!-- Node5 -->
<g id="node9" class="node"><title>Node5</title>
<polygon fill="white" stroke="#bfbfbf" points="123.211,-0.5 123.211,-19.5 167.211,-19.5 167.211,-0.5 123.211,-0.5"/>
<text text-anchor="middle" x="145.211" y="-7.5" font-family="Helvetica,sans-Serif" font-size="10.00">vector</text>
</g>
<!-- Node4&#45;&gt;Node5 -->
<g id="edge8" class="edge"><title>Node4&#45;&gt;Node5</title>
<path fill="none" stroke="midnightblue" d="M145.211,-56.083C145.211,-49.0059 145.211,-38.8611 145.211,-29.9865"/>
<polygon fill="midnightblue" stroke="midnightblue" points="148.712,-29.751 145.211,-19.7511 141.712,-29.7511 148.712,-29.751"/>
</g>
<!-- Node6&#45;&gt;Node7 -->
<g id="edge12" class="edge"><title>Node6&#45;&gt;Node7</title>
<path fill="none" stroke="midnightblue" d="M128.046,-392.083C127.915,-385.006 127.727,-374.861 127.563,-365.986"/>
<polygon fill="midnightblue" stroke="midnightblue" points="131.058,-365.685 127.374,-355.751 124.059,-365.814 131.058,-365.685"/>
</g>
<!-- Node8 -->
<g id="node15" class="node"><title>Node8</title>
<a xlink:href="BaseClient_8hh.html" target="_top" xlink:title="BaseClient.hh">
<polygon fill="white" stroke="black" points="264.211,-280.5 264.211,-299.5 342.211,-299.5 342.211,-280.5 264.211,-280.5"/>
<text text-anchor="middle" x="303.211" y="-287.5" font-family="Helvetica,sans-Serif" font-size="10.00">BaseClient.hh</text>
</a>
</g>
<!-- Node7&#45;&gt;Node8 -->
<g id="edge14" class="edge"><title>Node7&#45;&gt;Node8</title>
<path fill="none" stroke="midnightblue" d="M155.099,-336.444C184.965,-327.28 232.526,-312.688 265.667,-302.519"/>
<polygon fill="midnightblue" stroke="midnightblue" points="266.921,-305.796 275.454,-299.516 264.867,-299.104 266.921,-305.796"/>
</g>
<!-- Node19 -->
<g id="node47" class="node"><title>Node19</title>
<a xlink:href="AbstractItemGenerator_8hh.html" target="_top" xlink:title="AbstractItemGenerator.hh">
<polygon fill="white" stroke="black" points="25.7115,-280.5 25.7115,-299.5 154.711,-299.5 154.711,-280.5 25.7115,-280.5"/>
<text text-anchor="middle" x="90.2115" y="-287.5" font-family="Helvetica,sans-Serif" font-size="10.00">AbstractItemGenerator.hh</text>
</a>
</g>
<!-- Node7&#45;&gt;Node19 -->
<g id="edge56" class="edge"><title>Node7&#45;&gt;Node19</title>
<path fill="none" stroke="midnightblue" d="M121.102,-336.083C115.929,-328.534 108.365,-317.495 102.017,-308.23"/>
<polygon fill="midnightblue" stroke="midnightblue" points="104.747,-306.022 96.2076,-299.751 98.9727,-309.979 104.747,-306.022"/>
</g>
<!-- Node9 -->
<g id="node17" class="node"><title>Node9</title>
<a xlink:href="Listener_8hh.html" target="_top" xlink:title="Listener.hh">
<polygon fill="white" stroke="black" points="415.711,-224.5 415.711,-243.5 480.711,-243.5 480.711,-224.5 415.711,-224.5"/>
<text text-anchor="middle" x="448.211" y="-231.5" font-family="Helvetica,sans-Serif" font-size="10.00">Listener.hh</text>
</a>
</g>
<!-- Node8&#45;&gt;Node9 -->
<g id="edge16" class="edge"><title>Node8&#45;&gt;Node9</title>
<path fill="none" stroke="midnightblue" d="M326.187,-280.444C350.368,-271.438 388.63,-257.189 415.858,-247.049"/>
<polygon fill="midnightblue" stroke="midnightblue" points="417.194,-250.286 425.343,-243.516 414.751,-243.727 417.194,-250.286"/>
</g>
<!-- Node16 -->
<g id="node32" class="node"><title>Node16</title>
<a xlink:href="Connection_8hh.html" target="_top" xlink:title="Connection.hh">
<polygon fill="white" stroke="black" points="378.211,-112.5 378.211,-131.5 458.211,-131.5 458.211,-112.5 378.211,-112.5"/>
<text text-anchor="middle" x="418.211" y="-119.5" font-family="Helvetica,sans-Serif" font-size="10.00">Connection.hh</text>
</a>
</g>
<!-- Node8&#45;&gt;Node16 -->
<g id="edge54" class="edge"><title>Node8&#45;&gt;Node16</title>
<path fill="none" stroke="midnightblue" d="M297.345,-280.428C283.615,-259.202 252.435,-203.361 278.211,-168 298.546,-140.104 336.457,-129.123 367.704,-124.97"/>
<polygon fill="midnightblue" stroke="midnightblue" points="368.465,-128.406 378.01,-123.809 367.681,-121.45 368.465,-128.406"/>
</g>
<!-- Node10 -->
<g id="node19" class="node"><title>Node10</title>
<polygon fill="white" stroke="#bfbfbf" points="518.211,-56.5 518.211,-75.5 588.211,-75.5 588.211,-56.5 518.211,-56.5"/>
<text text-anchor="middle" x="553.211" y="-63.5" font-family="Helvetica,sans-Serif" font-size="10.00">mpd/client.h</text>
</g>
<!-- Node9&#45;&gt;Node10 -->
<g id="edge18" class="edge"><title>Node9&#45;&gt;Node10</title>
<path fill="none" stroke="midnightblue" d="M480.981,-232.681C517.698,-230.576 576.829,-221.691 613.211,-188 638.839,-164.268 650.845,-142.15 633.211,-112 624.351,-96.8495 608.306,-86.406 592.899,-79.4236"/>
<polygon fill="midnightblue" stroke="midnightblue" points="594.037,-76.1064 583.459,-75.5122 591.358,-82.5733 594.037,-76.1064"/>
</g>
<!-- Node11 -->
<g id="node21" class="node"><title>Node11</title>
<polygon fill="white" stroke="#bfbfbf" points="287.711,-168.5 287.711,-187.5 360.711,-187.5 360.711,-168.5 287.711,-168.5"/>
<text text-anchor="middle" x="324.211" y="-175.5" font-family="Helvetica,sans-Serif" font-size="10.00">mpd/async.h</text>
</g>
<!-- Node9&#45;&gt;Node11 -->
<g id="edge20" class="edge"><title>Node9&#45;&gt;Node11</title>
<path fill="none" stroke="midnightblue" d="M428.563,-224.444C408.247,-215.596 376.309,-201.687 353.114,-191.586"/>
<polygon fill="midnightblue" stroke="midnightblue" points="354.334,-188.3 343.768,-187.516 351.539,-194.718 354.334,-188.3"/>
</g>
<!-- Node12 -->
<g id="node23" class="node"><title>Node12</title>
<polygon fill="white" stroke="#bfbfbf" points="379.211,-168.5 379.211,-187.5 453.211,-187.5 453.211,-168.5 379.211,-168.5"/>
<text text-anchor="middle" x="416.211" y="-175.5" font-family="Helvetica,sans-Serif" font-size="10.00">mpd/parser.h</text>
</g>
<!-- Node9&#45;&gt;Node12 -->
<g id="edge22" class="edge"><title>Node9&#45;&gt;Node12</title>
<path fill="none" stroke="midnightblue" d="M442.927,-224.083C438.501,-216.613 432.048,-205.724 426.594,-196.52"/>
<polygon fill="midnightblue" stroke="midnightblue" points="429.506,-194.57 421.397,-187.751 423.484,-198.138 429.506,-194.57"/>
</g>
<!-- Node13 -->
<g id="node25" class="node"><title>Node13</title>
<polygon fill="white" stroke="#bfbfbf" points="263.211,-56.5 263.211,-75.5 319.211,-75.5 319.211,-56.5 263.211,-56.5"/>
<text text-anchor="middle" x="291.211" y="-63.5" font-family="Helvetica,sans-Serif" font-size="10.00">glibmm.h</text>
</g>
<!-- Node9&#45;&gt;Node13 -->
<g id="edge24" class="edge"><title>Node9&#45;&gt;Node13</title>
<path fill="none" stroke="midnightblue" d="M415.429,-232.692C377.937,-230.63 316.775,-221.818 278.211,-188 251.678,-164.732 243.53,-145.301 255.211,-112 258.997,-101.209 266.578,-91.084 273.811,-83.1808"/>
<polygon fill="midnightblue" stroke="midnightblue" points="276.537,-85.4005 281.049,-75.8145 271.544,-80.4943 276.537,-85.4005"/>
</g>
<!-- Node14 -->
<g id="node27" class="node"><title>Node14</title>
<a xlink:href="Status_8hh.html" target="_top" xlink:title="Status.hh">
<polygon fill="white" stroke="black" points="565.711,-112.5 565.711,-131.5 624.711,-131.5 624.711,-112.5 565.711,-112.5"/>
<text text-anchor="middle" x="595.211" y="-119.5" font-family="Helvetica,sans-Serif" font-size="10.00">Status.hh</text>
</a>
</g>
<!-- Node9&#45;&gt;Node14 -->
<g id="edge26" class="edge"><title>Node9&#45;&gt;Node14</title>
<path fill="none" stroke="midnightblue" d="M480.803,-233.405C515.526,-231.865 569.023,-223.405 595.211,-188 604.955,-174.828 603.646,-155.69 600.688,-141.589"/>
<polygon fill="midnightblue" stroke="midnightblue" points="603.998,-140.401 598.142,-131.571 597.213,-142.125 603.998,-140.401"/>
</g>
<!-- Node15 -->
<g id="node30" class="node"><title>Node15</title>
<a xlink:href="NotifyData_8hh.html" target="_top" xlink:title="NotifyData.hh">
<polygon fill="white" stroke="black" points="509.711,-168.5 509.711,-187.5 586.711,-187.5 586.711,-168.5 509.711,-168.5"/>
<text text-anchor="middle" x="548.211" y="-175.5" font-family="Helvetica,sans-Serif" font-size="10.00">NotifyData.hh</text>
</a>
</g>
<!-- Node9&#45;&gt;Node15 -->
<g id="edge30" class="edge"><title>Node9&#45;&gt;Node15</title>
<path fill="none" stroke="midnightblue" d="M464.278,-224.324C480.169,-215.743 504.719,-202.486 523.17,-192.522"/>
<polygon fill="midnightblue" stroke="midnightblue" points="525.049,-195.486 532.185,-187.655 521.723,-189.326 525.049,-195.486"/>
</g>
<!-- Node9&#45;&gt;Node16 -->
<g id="edge52" class="edge"><title>Node9&#45;&gt;Node16</title>
<path fill="none" stroke="midnightblue" d="M453.254,-224.303C459.947,-211.559 470.055,-187.241 462.211,-168 457.411,-156.225 447.883,-145.856 438.917,-138.049"/>
<polygon fill="midnightblue" stroke="midnightblue" points="440.966,-135.205 430.992,-131.631 436.561,-140.645 440.966,-135.205"/>
</g>
<!-- Node14&#45;&gt;Node10 -->
<g id="edge28" class="edge"><title>Node14&#45;&gt;Node10</title>
<path fill="none" stroke="midnightblue" d="M588.276,-112.083C582.282,-104.377 573.46,-93.0333 566.164,-83.6531"/>
<polygon fill="midnightblue" stroke="midnightblue" points="568.92,-81.4958 560.018,-75.7511 563.395,-85.7934 568.92,-81.4958"/>
</g>
<!-- Node15&#45;&gt;Node14 -->
<g id="edge42" class="edge"><title>Node15&#45;&gt;Node14</title>
<path fill="none" stroke="midnightblue" d="M555.973,-168.083C562.748,-160.298 572.755,-148.801 580.967,-139.367"/>
<polygon fill="midnightblue" stroke="midnightblue" points="583.67,-141.592 587.595,-131.751 578.389,-136.996 583.67,-141.592"/>
</g>
<!-- Node15&#45;&gt;Node16 -->
<g id="edge32" class="edge"><title>Node15&#45;&gt;Node16</title>
<path fill="none" stroke="midnightblue" d="M527.613,-168.444C506.218,-159.557 472.53,-145.563 448.187,-135.451"/>
<polygon fill="midnightblue" stroke="midnightblue" points="449.292,-132.12 438.714,-131.516 446.606,-138.585 449.292,-132.12"/>
</g>
<!-- Node17 -->
<g id="node36" class="node"><title>Node17</title>
<a xlink:href="Statistics_8hh.html" target="_top" xlink:title="Statistics.hh">
<polygon fill="white" stroke="black" points="476.711,-112.5 476.711,-131.5 547.711,-131.5 547.711,-112.5 476.711,-112.5"/>
<text text-anchor="middle" x="512.211" y="-119.5" font-family="Helvetica,sans-Serif" font-size="10.00">Statistics.hh</text>
</a>
</g>
<!-- Node15&#45;&gt;Node17 -->
<g id="edge38" class="edge"><title>Node15&#45;&gt;Node17</title>
<path fill="none" stroke="midnightblue" d="M542.267,-168.083C537.234,-160.534 529.875,-149.495 523.698,-140.23"/>
<polygon fill="midnightblue" stroke="midnightblue" points="526.505,-138.13 518.046,-131.751 520.68,-142.013 526.505,-138.13"/>
</g>
<!-- Node18 -->
<g id="node40" class="node"><title>Node18</title>
<a xlink:href="Song_8hh.html" target="_top" xlink:title="Song.hh">
<polygon fill="white" stroke="black" points="264.711,-112.5 264.711,-131.5 317.711,-131.5 317.711,-112.5 264.711,-112.5"/>
<text text-anchor="middle" x="291.211" y="-119.5" font-family="Helvetica,sans-Serif" font-size="10.00">Song.hh</text>
</a>
</g>
<!-- Node15&#45;&gt;Node18 -->
<g id="edge44" class="edge"><title>Node15&#45;&gt;Node18</title>
<path fill="none" stroke="midnightblue" d="M509.458,-168.857C460.337,-158.536 376.271,-140.872 328.07,-130.745"/>
<polygon fill="midnightblue" stroke="midnightblue" points="328.573,-127.274 318.067,-128.643 327.133,-134.124 328.573,-127.274"/>
</g>
<!-- Node16&#45;&gt;Node10 -->
<g id="edge34" class="edge"><title>Node16&#45;&gt;Node10</title>
<path fill="none" stroke="midnightblue" d="M439.603,-112.444C461.919,-103.517 497.115,-89.4387 522.419,-79.3168"/>
<polygon fill="midnightblue" stroke="midnightblue" points="523.936,-82.4801 531.92,-75.5164 521.336,-75.9807 523.936,-82.4801"/>
</g>
<!-- Node16&#45;&gt;Node13 -->
<g id="edge36" class="edge"><title>Node16&#45;&gt;Node13</title>
<path fill="none" stroke="midnightblue" d="M398.088,-112.444C377.187,-103.557 344.277,-89.5632 320.495,-79.4514"/>
<polygon fill="midnightblue" stroke="midnightblue" points="321.813,-76.2085 311.241,-75.5164 319.074,-82.6504 321.813,-76.2085"/>
</g>
<!-- Node17&#45;&gt;Node10 -->
<g id="edge40" class="edge"><title>Node17&#45;&gt;Node10</title>
<path fill="none" stroke="midnightblue" d="M518.982,-112.083C524.773,-104.455 533.27,-93.2645 540.349,-83.9408"/>
<polygon fill="midnightblue" stroke="midnightblue" points="543.308,-85.8321 546.567,-75.7511 537.732,-81.5991 543.308,-85.8321"/>
</g>
<!-- Node18&#45;&gt;Node4 -->
<g id="edge48" class="edge"><title>Node18&#45;&gt;Node4</title>
<path fill="none" stroke="midnightblue" d="M268.077,-112.444C243.729,-103.438 205.204,-89.1891 177.789,-79.049"/>
<polygon fill="midnightblue" stroke="midnightblue" points="178.831,-75.7028 168.237,-75.5164 176.402,-82.2681 178.831,-75.7028"/>
</g>
<!-- Node18&#45;&gt;Node10 -->
<g id="edge46" class="edge"><title>Node18&#45;&gt;Node10</title>
<path fill="none" stroke="midnightblue" d="M317.775,-115.525C362.477,-106.312 453.219,-87.6091 508.071,-76.3038"/>
<polygon fill="midnightblue" stroke="midnightblue" points="508.788,-79.7296 517.876,-74.2829 507.375,-72.8737 508.788,-79.7296"/>
</g>
<!-- Node18&#45;&gt;Node13 -->
<g id="edge50" class="edge"><title>Node18&#45;&gt;Node13</title>
<path fill="none" stroke="midnightblue" d="M291.211,-112.083C291.211,-105.006 291.211,-94.8611 291.211,-85.9865"/>
<polygon fill="midnightblue" stroke="midnightblue" points="294.712,-85.751 291.211,-75.7511 287.712,-85.7511 294.712,-85.751"/>
</g>
<!-- Node19&#45;&gt;Node3 -->
<g id="edge58" class="edge"><title>Node19&#45;&gt;Node3</title>
<path fill="none" stroke="midnightblue" d="M89.0556,-280.083C88.128,-272.927 86.7938,-262.635 85.6344,-253.691"/>
<polygon fill="midnightblue" stroke="midnightblue" points="89.1025,-253.218 84.3459,-243.751 82.1606,-254.118 89.1025,-253.218"/>
</g>
<!-- Node20&#45;&gt;Node4 -->
<g id="edge70" class="edge"><title>Node20&#45;&gt;Node4</title>
<path fill="none" stroke="midnightblue" d="M283.347,-392.435C263.532,-385.652 239.289,-374.218 224.211,-356 188.997,-313.451 157.842,-142.612 148.245,-85.6148"/>
<polygon fill="midnightblue" stroke="midnightblue" points="151.662,-84.8278 146.574,-75.5348 144.756,-85.9725 151.662,-84.8278"/>
</g>
<!-- Node20&#45;&gt;Node10 -->
<g id="edge64" class="edge"><title>Node20&#45;&gt;Node10</title>
<path fill="none" stroke="midnightblue" d="M332.1,-392.467C390.809,-360.641 594.274,-247.642 636.211,-188 656.015,-159.836 669.796,-140.983 651.211,-112 639.454,-93.6639 618.143,-82.6998 598.389,-76.1942"/>
<polygon fill="midnightblue" stroke="midnightblue" points="599.147,-72.768 588.564,-73.2645 597.147,-79.4762 599.147,-72.768"/>
</g>
<!-- Node20&#45;&gt;Node18 -->
<g id="edge72" class="edge"><title>Node20&#45;&gt;Node18</title>
<path fill="none" stroke="midnightblue" d="M292.366,-392.408C275.489,-385.162 253.567,-373.197 240.211,-356 221.751,-332.228 221.211,-321.098 221.211,-291 221.211,-291 221.211,-291 221.211,-233 221.211,-194.232 252.541,-158.104 273.281,-138.434"/>
<polygon fill="midnightblue" stroke="midnightblue" points="275.851,-140.827 280.883,-131.504 271.135,-135.655 275.851,-140.827"/>
</g>
<!-- Node21 -->
<g id="node54" class="node"><title>Node21</title>
<a xlink:href="AbstractClientExtension_8hh.html" target="_top" xlink:title="AbstractClientExtension.hh">
<polygon fill="white" stroke="black" points="249.211,-336.5 249.211,-355.5 385.211,-355.5 385.211,-336.5 249.211,-336.5"/>
<text text-anchor="middle" x="317.211" y="-343.5" font-family="Helvetica,sans-Serif" font-size="10.00">AbstractClientExtension.hh</text>
</a>
</g>
<!-- Node20&#45;&gt;Node21 -->
<g id="edge66" class="edge"><title>Node20&#45;&gt;Node21</title>
<path fill="none" stroke="midnightblue" d="M316.377,-392.083C316.508,-385.006 316.696,-374.861 316.86,-365.986"/>
<polygon fill="midnightblue" stroke="midnightblue" points="320.364,-365.814 317.049,-355.751 313.365,-365.685 320.364,-365.814"/>
</g>
<!-- Node21&#45;&gt;Node8 -->
<g id="edge68" class="edge"><title>Node21&#45;&gt;Node8</title>
<path fill="none" stroke="midnightblue" d="M314.9,-336.083C313.044,-328.927 310.376,-318.635 308.057,-309.691"/>
<polygon fill="midnightblue" stroke="midnightblue" points="311.378,-308.553 305.48,-299.751 304.602,-310.309 311.378,-308.553"/>
</g>
<!-- Node22&#45;&gt;Node2 -->
<g id="edge76" class="edge"><title>Node22&#45;&gt;Node2</title>
<path fill="none" stroke="midnightblue" d="M471.668,-392.368C496.508,-373.653 555.575,-329.151 586.525,-305.832"/>
<polygon fill="midnightblue" stroke="midnightblue" points="588.928,-308.404 594.808,-299.591 584.715,-302.814 588.928,-308.404"/>
</g>
<!-- Node23 -->
<g id="node62" class="node"><title>Node23</title>
<polygon fill="white" stroke="#bfbfbf" points="450.211,-336.5 450.211,-355.5 504.211,-355.5 504.211,-336.5 450.211,-336.5"/>
<text text-anchor="middle" x="477.211" y="-343.5" font-family="Helvetica,sans-Serif" font-size="10.00">iostream</text>
</g>
<!-- Node22&#45;&gt;Node23 -->
<g id="edge78" class="edge"><title>Node22&#45;&gt;Node23</title>
<path fill="none" stroke="midnightblue" d="M463.019,-392.083C465.296,-384.849 468.583,-374.409 471.42,-365.397"/>
<polygon fill="midnightblue" stroke="midnightblue" points="474.792,-366.341 474.457,-355.751 468.115,-364.239 474.792,-366.341"/>
</g>
<!-- Node24&#45;&gt;Node2 -->
<g id="edge82" class="edge"><title>Node24&#45;&gt;Node2</title>
<path fill="none" stroke="midnightblue" d="M595.2,-392.13C591.343,-379.581 585.569,-355.949 589.211,-336 590.899,-326.757 594.386,-316.948 597.766,-308.855"/>
<polygon fill="midnightblue" stroke="midnightblue" points="600.975,-310.252 601.845,-299.693 594.58,-307.405 600.975,-310.252"/>
</g>
<!-- Node25 -->
<g id="node67" class="node"><title>Node25</title>
<a xlink:href="BasePopup_8hh.html" target="_top" xlink:title="../BasePopup.hh">
<polygon fill="white" stroke="black" points="598.711,-336.5 598.711,-355.5 687.711,-355.5 687.711,-336.5 598.711,-336.5"/>
<text text-anchor="middle" x="643.211" y="-343.5" font-family="Helvetica,sans-Serif" font-size="10.00">../BasePopup.hh</text>
</a>
</g>
<!-- Node24&#45;&gt;Node25 -->
<g id="edge84" class="edge"><title>Node24&#45;&gt;Node25</title>
<path fill="none" stroke="midnightblue" d="M605.642,-392.083C612.064,-384.377 621.517,-373.033 629.334,-363.653"/>
<polygon fill="midnightblue" stroke="midnightblue" points="632.206,-365.674 635.919,-355.751 626.828,-361.193 632.206,-365.674"/>
</g>
<!-- Node25&#45;&gt;Node2 -->
<g id="edge86" class="edge"><title>Node25&#45;&gt;Node2</title>
<path fill="none" stroke="midnightblue" d="M637.102,-336.083C631.929,-328.534 624.365,-317.495 618.017,-308.23"/>
<polygon fill="midnightblue" stroke="midnightblue" points="620.747,-306.022 612.208,-299.751 614.973,-309.979 620.747,-306.022"/>
</g>
</g>
</svg>
