<?xml version="1.0" encoding="UTF-8" standalone="no"?>
<!DOCTYPE svg PUBLIC "-//W3C//DTD SVG 1.1//EN"
 "http://www.w3.org/Graphics/SVG/1.1/DTD/svg11.dtd">
<!-- Generated by graphviz version 2.28.0 (20111204.1018)
 -->
<!-- Title: G Pages: 1 -->
<svg width="819pt" height="532pt"
 viewBox="0.00 0.00 819.00 532.00" xmlns="http://www.w3.org/2000/svg" xmlns:xlink="http://www.w3.org/1999/xlink">
<g id="graph1" class="graph" transform="scale(1 1) rotate(0) translate(4 528)">
<title>G</title>
<polygon fill="white" stroke="white" points="-4,5 -4,-528 816,-528 816,5 -4,5"/>
<!-- Node1 -->
<g id="node1" class="node"><title>Node1</title>
<polygon fill="#bfbfbf" stroke="black" points="373,-504.5 373,-523.5 519,-523.5 519,-504.5 373,-504.5"/>
<text text-anchor="middle" x="446" y="-511.5" font-family="Helvetica,sans-Serif" font-size="10.00">src/Browser/Queue/Queue.hh</text>
</g>
<!-- Node2 -->
<g id="node3" class="node"><title>Node2</title>
<polygon fill="white" stroke="#bfbfbf" points="237.5,-336.5 237.5,-355.5 292.5,-355.5 292.5,-336.5 237.5,-336.5"/>
<text text-anchor="middle" x="265" y="-343.5" font-family="Helvetica,sans-Serif" font-size="10.00">gtkmm.h</text>
</g>
<!-- Node1&#45;&gt;Node2 -->
<g id="edge2" class="edge"><title>Node1&#45;&gt;Node2</title>
<path fill="none" stroke="midnightblue" d="M422.061,-504.495C386.587,-490.666 320.35,-459.931 284,-412 273.798,-398.547 269.063,-379.733 266.871,-365.806"/>
<polygon fill="midnightblue" stroke="midnightblue" points="270.343,-365.356 265.604,-355.88 263.399,-366.243 270.343,-365.356"/>
</g>
<!-- Node3 -->
<g id="node5" class="node"><title>Node3</title>
<a xlink:href="AbstractItemlist_8hh.html" target="_top" xlink:title="../../MPD/AbstractItemlist.hh">
<polygon fill="white" stroke="black" points="577.5,-224.5 577.5,-243.5 720.5,-243.5 720.5,-224.5 577.5,-224.5"/>
<text text-anchor="middle" x="649" y="-231.5" font-family="Helvetica,sans-Serif" font-size="10.00">../../MPD/AbstractItemlist.hh</text>
</a>
</g>
<!-- Node1&#45;&gt;Node3 -->
<g id="edge4" class="edge"><title>Node1&#45;&gt;Node3</title>
<path fill="none" stroke="midnightblue" d="M519.424,-505.888C626.01,-493.499 811,-463.309 811,-403 811,-403 811,-403 811,-345 811,-289.934 746.144,-260.514 698.505,-246.331"/>
<polygon fill="midnightblue" stroke="midnightblue" points="699.205,-242.892 688.63,-243.532 697.296,-249.626 699.205,-242.892"/>
</g>
<!-- Node6 -->
<g id="node11" class="node"><title>Node6</title>
<a xlink:href="AbstractClientUser_8hh.html" target="_top" xlink:title="../../MPD/AbstractClientUser.hh">
<polygon fill="white" stroke="black" points="587.5,-392.5 587.5,-411.5 744.5,-411.5 744.5,-392.5 587.5,-392.5"/>
<text text-anchor="middle" x="666" y="-399.5" font-family="Helvetica,sans-Serif" font-size="10.00">../../MPD/AbstractClientUser.hh</text>
</a>
</g>
<!-- Node1&#45;&gt;Node6 -->
<g id="edge10" class="edge"><title>Node1&#45;&gt;Node6</title>
<path fill="none" stroke="midnightblue" d="M519.127,-507.659C575.392,-501.86 646.554,-490.27 665,-468 675.556,-455.256 674.348,-435.787 671.389,-421.478"/>
<polygon fill="midnightblue" stroke="midnightblue" points="674.774,-420.588 668.951,-411.738 667.984,-422.288 674.774,-420.588"/>
</g>
<!-- Node7 -->
<g id="node13" class="node"><title>Node7</title>
<a xlink:href="Client_8hh.html" target="_top" xlink:title="Client.hh">
<polygon fill="white" stroke="black" points="621,-336.5 621,-355.5 677,-355.5 677,-336.5 621,-336.5"/>
<text text-anchor="middle" x="649" y="-343.5" font-family="Helvetica,sans-Serif" font-size="10.00">Client.hh</text>
</a>
</g>
<!-- Node1&#45;&gt;Node7 -->
<g id="edge60" class="edge"><title>Node1&#45;&gt;Node7</title>
<path fill="none" stroke="midnightblue" d="M456.725,-504.225C467.552,-495.291 484.673,-480.951 499,-468 535.143,-435.329 539.675,-422.082 578,-392 592.785,-380.395 610.663,-369.078 624.78,-360.695"/>
<polygon fill="midnightblue" stroke="midnightblue" points="626.573,-363.702 633.444,-355.637 623.044,-357.657 626.573,-363.702"/>
</g>
<!-- Node20 -->
<g id="node51" class="node"><title>Node20</title>
<a xlink:href="QueuePopup_8hh.html" target="_top" xlink:title="QueuePopup.hh">
<polygon fill="white" stroke="black" points="21,-448.5 21,-467.5 107,-467.5 107,-448.5 21,-448.5"/>
<text text-anchor="middle" x="64" y="-455.5" font-family="Helvetica,sans-Serif" font-size="10.00">QueuePopup.hh</text>
</a>
</g>
<!-- Node1&#45;&gt;Node20 -->
<g id="edge62" class="edge"><title>Node1&#45;&gt;Node20</title>
<path fill="none" stroke="midnightblue" d="M378.271,-504.486C313.707,-496.205 213.496,-482.926 117.034,-468.115"/>
<polygon fill="midnightblue" stroke="midnightblue" points="117.528,-464.65 107.111,-466.584 116.46,-471.568 117.528,-464.65"/>
</g>
<!-- Node22 -->
<g id="node57" class="node"><title>Node22</title>
<a xlink:href="QueueMerger_8hh.html" target="_top" xlink:title="QueueMerger.hh">
<polygon fill="white" stroke="black" points="401.5,-448.5 401.5,-467.5 490.5,-467.5 490.5,-448.5 401.5,-448.5"/>
<text text-anchor="middle" x="446" y="-455.5" font-family="Helvetica,sans-Serif" font-size="10.00">QueueMerger.hh</text>
</a>
</g>
<!-- Node1&#45;&gt;Node22 -->
<g id="edge70" class="edge"><title>Node1&#45;&gt;Node22</title>
<path fill="none" stroke="midnightblue" d="M446,-504.083C446,-497.006 446,-486.861 446,-477.986"/>
<polygon fill="midnightblue" stroke="midnightblue" points="449.5,-477.751 446,-467.751 442.5,-477.751 449.5,-477.751"/>
</g>
<!-- Node23 -->
<g id="node61" class="node"><title>Node23</title>
<a xlink:href="QueueModelColumns_8hh.html" target="_top" xlink:title="QueueModelColumns.hh">
<polygon fill="white" stroke="black" points="293,-392.5 293,-411.5 417,-411.5 417,-392.5 293,-392.5"/>
<text text-anchor="middle" x="355" y="-399.5" font-family="Helvetica,sans-Serif" font-size="10.00">QueueModelColumns.hh</text>
</a>
</g>
<!-- Node1&#45;&gt;Node23 -->
<g id="edge82" class="edge"><title>Node1&#45;&gt;Node23</title>
<path fill="none" stroke="midnightblue" d="M433.311,-504.448C421.597,-496.117 404.217,-482.6 392,-468 379.915,-453.557 369.647,-434.617 363.017,-420.911"/>
<polygon fill="midnightblue" stroke="midnightblue" points="366.08,-419.198 358.686,-411.611 359.735,-422.153 366.08,-419.198"/>
</g>
<!-- Node24 -->
<g id="node66" class="node"><title>Node24</title>
<a xlink:href="PlaylistAddDialog_8hh.html" target="_top" xlink:title="PlaylistAddDialog.hh">
<polygon fill="white" stroke="black" points="549.5,-448.5 549.5,-467.5 656.5,-467.5 656.5,-448.5 549.5,-448.5"/>
<text text-anchor="middle" x="603" y="-455.5" font-family="Helvetica,sans-Serif" font-size="10.00">PlaylistAddDialog.hh</text>
</a>
</g>
<!-- Node1&#45;&gt;Node24 -->
<g id="edge84" class="edge"><title>Node1&#45;&gt;Node24</title>
<path fill="none" stroke="midnightblue" d="M470.877,-504.444C497.289,-495.359 539.215,-480.939 568.742,-470.783"/>
<polygon fill="midnightblue" stroke="midnightblue" points="569.921,-474.079 578.239,-467.516 567.645,-467.459 569.921,-474.079"/>
</g>
<!-- Node25 -->
<g id="node71" class="node"><title>Node25</title>
<a xlink:href="AbstractBrowser_8hh.html" target="_top" xlink:title="../AbstractBrowser.hh">
<polygon fill="white" stroke="black" points="125,-448.5 125,-467.5 237,-467.5 237,-448.5 125,-448.5"/>
<text text-anchor="middle" x="181" y="-455.5" font-family="Helvetica,sans-Serif" font-size="10.00">../AbstractBrowser.hh</text>
</a>
</g>
<!-- Node1&#45;&gt;Node25 -->
<g id="edge92" class="edge"><title>Node1&#45;&gt;Node25</title>
<path fill="none" stroke="midnightblue" d="M404.01,-504.444C357.588,-494.984 282.772,-479.738 232.76,-469.547"/>
<polygon fill="midnightblue" stroke="midnightblue" points="233.291,-466.084 222.794,-467.516 231.893,-472.943 233.291,-466.084"/>
</g>
<!-- Node4 -->
<g id="node7" class="node"><title>Node4</title>
<a xlink:href="AbstractComposite_8hh.html" target="_top" xlink:title="AbstractComposite.hh">
<polygon fill="white" stroke="black" points="532,-56.5 532,-75.5 646,-75.5 646,-56.5 532,-56.5"/>
<text text-anchor="middle" x="589" y="-63.5" font-family="Helvetica,sans-Serif" font-size="10.00">AbstractComposite.hh</text>
</a>
</g>
<!-- Node3&#45;&gt;Node4 -->
<g id="edge6" class="edge"><title>Node3&#45;&gt;Node4</title>
<path fill="none" stroke="midnightblue" d="M645.774,-224.075C636.289,-197.832 608.354,-120.545 595.548,-85.1165"/>
<polygon fill="midnightblue" stroke="midnightblue" points="598.788,-83.7829 592.097,-75.5681 592.205,-86.1624 598.788,-83.7829"/>
</g>
<!-- Node5 -->
<g id="node9" class="node"><title>Node5</title>
<polygon fill="white" stroke="#bfbfbf" points="567,-0.5 567,-19.5 611,-19.5 611,-0.5 567,-0.5"/>
<text text-anchor="middle" x="589" y="-7.5" font-family="Helvetica,sans-Serif" font-size="10.00">vector</text>
</g>
<!-- Node4&#45;&gt;Node5 -->
<g id="edge8" class="edge"><title>Node4&#45;&gt;Node5</title>
<path fill="none" stroke="midnightblue" d="M589,-56.083C589,-49.0059 589,-38.8611 589,-29.9865"/>
<polygon fill="midnightblue" stroke="midnightblue" points="592.5,-29.751 589,-19.7511 585.5,-29.7511 592.5,-29.751"/>
</g>
<!-- Node6&#45;&gt;Node7 -->
<g id="edge12" class="edge"><title>Node6&#45;&gt;Node7</title>
<path fill="none" stroke="midnightblue" d="M663.193,-392.083C660.915,-384.849 657.629,-374.409 654.792,-365.397"/>
<polygon fill="midnightblue" stroke="midnightblue" points="658.096,-364.239 651.755,-355.751 651.419,-366.341 658.096,-364.239"/>
</g>
<!-- Node8 -->
<g id="node15" class="node"><title>Node8</title>
<a xlink:href="BaseClient_8hh.html" target="_top" xlink:title="BaseClient.hh">
<polygon fill="white" stroke="black" points="377,-280.5 377,-299.5 455,-299.5 455,-280.5 377,-280.5"/>
<text text-anchor="middle" x="416" y="-287.5" font-family="Helvetica,sans-Serif" font-size="10.00">BaseClient.hh</text>
</a>
</g>
<!-- Node7&#45;&gt;Node8 -->
<g id="edge14" class="edge"><title>Node7&#45;&gt;Node8</title>
<path fill="none" stroke="midnightblue" d="M620.895,-338.486C581.766,-329.418 510.364,-312.87 463.043,-301.903"/>
<polygon fill="midnightblue" stroke="midnightblue" points="463.569,-298.432 453.037,-299.584 461.989,-305.251 463.569,-298.432"/>
</g>
<!-- Node19 -->
<g id="node47" class="node"><title>Node19</title>
<a xlink:href="AbstractItemGenerator_8hh.html" target="_top" xlink:title="AbstractItemGenerator.hh">
<polygon fill="white" stroke="black" points="584.5,-280.5 584.5,-299.5 713.5,-299.5 713.5,-280.5 584.5,-280.5"/>
<text text-anchor="middle" x="649" y="-287.5" font-family="Helvetica,sans-Serif" font-size="10.00">AbstractItemGenerator.hh</text>
</a>
</g>
<!-- Node7&#45;&gt;Node19 -->
<g id="edge56" class="edge"><title>Node7&#45;&gt;Node19</title>
<path fill="none" stroke="midnightblue" d="M649,-336.083C649,-329.006 649,-318.861 649,-309.986"/>
<polygon fill="midnightblue" stroke="midnightblue" points="652.5,-309.751 649,-299.751 645.5,-309.751 652.5,-309.751"/>
</g>
<!-- Node9 -->
<g id="node17" class="node"><title>Node9</title>
<a xlink:href="Listener_8hh.html" target="_top" xlink:title="Listener.hh">
<polygon fill="white" stroke="black" points="342.5,-224.5 342.5,-243.5 407.5,-243.5 407.5,-224.5 342.5,-224.5"/>
<text text-anchor="middle" x="375" y="-231.5" font-family="Helvetica,sans-Serif" font-size="10.00">Listener.hh</text>
</a>
</g>
<!-- Node8&#45;&gt;Node9 -->
<g id="edge16" class="edge"><title>Node8&#45;&gt;Node9</title>
<path fill="none" stroke="midnightblue" d="M409.23,-280.083C403.438,-272.455 394.942,-261.264 387.862,-251.941"/>
<polygon fill="midnightblue" stroke="midnightblue" points="390.479,-249.599 381.644,-243.751 384.904,-253.832 390.479,-249.599"/>
</g>
<!-- Node16 -->
<g id="node32" class="node"><title>Node16</title>
<a xlink:href="Connection_8hh.html" target="_top" xlink:title="Connection.hh">
<polygon fill="white" stroke="black" points="418,-112.5 418,-131.5 498,-131.5 498,-112.5 418,-112.5"/>
<text text-anchor="middle" x="458" y="-119.5" font-family="Helvetica,sans-Serif" font-size="10.00">Connection.hh</text>
</a>
</g>
<!-- Node8&#45;&gt;Node16 -->
<g id="edge54" class="edge"><title>Node8&#45;&gt;Node16</title>
<path fill="none" stroke="midnightblue" d="M420.928,-280.454C430.387,-263.502 450.788,-224.128 458,-188 461.076,-172.594 460.806,-154.721 459.92,-141.62"/>
<polygon fill="midnightblue" stroke="midnightblue" points="463.395,-141.181 459.051,-131.518 456.421,-141.781 463.395,-141.181"/>
</g>
<!-- Node10 -->
<g id="node19" class="node"><title>Node10</title>
<polygon fill="white" stroke="#bfbfbf" points="258,-56.5 258,-75.5 328,-75.5 328,-56.5 258,-56.5"/>
<text text-anchor="middle" x="293" y="-63.5" font-family="Helvetica,sans-Serif" font-size="10.00">mpd/client.h</text>
</g>
<!-- Node9&#45;&gt;Node10 -->
<g id="edge18" class="edge"><title>Node9&#45;&gt;Node10</title>
<path fill="none" stroke="midnightblue" d="M342.432,-232.218C280.386,-229.967 148.909,-221.289 121,-188 78.0274,-136.745 184.643,-96.8825 248.756,-78.3555"/>
<polygon fill="midnightblue" stroke="midnightblue" points="249.976,-81.6481 258.652,-75.5667 248.077,-74.9106 249.976,-81.6481"/>
</g>
<!-- Node11 -->
<g id="node21" class="node"><title>Node11</title>
<polygon fill="white" stroke="#bfbfbf" points="130.5,-168.5 130.5,-187.5 203.5,-187.5 203.5,-168.5 130.5,-168.5"/>
<text text-anchor="middle" x="167" y="-175.5" font-family="Helvetica,sans-Serif" font-size="10.00">mpd/async.h</text>
</g>
<!-- Node9&#45;&gt;Node11 -->
<g id="edge20" class="edge"><title>Node9&#45;&gt;Node11</title>
<path fill="none" stroke="midnightblue" d="M342.042,-224.444C306.213,-215.142 248.837,-200.246 209.609,-190.062"/>
<polygon fill="midnightblue" stroke="midnightblue" points="210.363,-186.642 199.804,-187.516 208.604,-193.417 210.363,-186.642"/>
</g>
<!-- Node12 -->
<g id="node23" class="node"><title>Node12</title>
<polygon fill="white" stroke="#bfbfbf" points="222,-168.5 222,-187.5 296,-187.5 296,-168.5 222,-168.5"/>
<text text-anchor="middle" x="259" y="-175.5" font-family="Helvetica,sans-Serif" font-size="10.00">mpd/parser.h</text>
</g>
<!-- Node9&#45;&gt;Node12 -->
<g id="edge22" class="edge"><title>Node9&#45;&gt;Node12</title>
<path fill="none" stroke="midnightblue" d="M356.619,-224.444C337.784,-215.675 308.269,-201.935 286.621,-191.858"/>
<polygon fill="midnightblue" stroke="midnightblue" points="287.838,-188.564 277.295,-187.516 284.883,-194.91 287.838,-188.564"/>
</g>
<!-- Node13 -->
<g id="node25" class="node"><title>Node13</title>
<polygon fill="white" stroke="#bfbfbf" points="430,-56.5 430,-75.5 486,-75.5 486,-56.5 430,-56.5"/>
<text text-anchor="middle" x="458" y="-63.5" font-family="Helvetica,sans-Serif" font-size="10.00">glibmm.h</text>
</g>
<!-- Node9&#45;&gt;Node13 -->
<g id="edge24" class="edge"><title>Node9&#45;&gt;Node13</title>
<path fill="none" stroke="midnightblue" d="M398.163,-224.436C430.894,-210.802 488.731,-180.621 507,-132 510.126,-123.679 510.575,-120.138 507,-112 501.61,-99.732 491.042,-89.3414 481.096,-81.6461"/>
<polygon fill="midnightblue" stroke="midnightblue" points="482.828,-78.5811 472.661,-75.598 478.748,-84.2697 482.828,-78.5811"/>
</g>
<!-- Node14 -->
<g id="node27" class="node"><title>Node14</title>
<a xlink:href="Status_8hh.html" target="_top" xlink:title="Status.hh">
<polygon fill="white" stroke="black" points="180.5,-112.5 180.5,-131.5 239.5,-131.5 239.5,-112.5 180.5,-112.5"/>
<text text-anchor="middle" x="210" y="-119.5" font-family="Helvetica,sans-Serif" font-size="10.00">Status.hh</text>
</a>
</g>
<!-- Node9&#45;&gt;Node14 -->
<g id="edge26" class="edge"><title>Node9&#45;&gt;Node14</title>
<path fill="none" stroke="midnightblue" d="M367.099,-224.089C354.827,-210.639 329.99,-184.927 305,-168 285.442,-154.752 261.376,-143.397 242.359,-135.407"/>
<polygon fill="midnightblue" stroke="midnightblue" points="243.506,-132.095 232.926,-131.543 240.853,-138.573 243.506,-132.095"/>
</g>
<!-- Node15 -->
<g id="node30" class="node"><title>Node15</title>
<a xlink:href="NotifyData_8hh.html" target="_top" xlink:title="NotifyData.hh">
<polygon fill="white" stroke="black" points="352.5,-168.5 352.5,-187.5 429.5,-187.5 429.5,-168.5 352.5,-168.5"/>
<text text-anchor="middle" x="391" y="-175.5" font-family="Helvetica,sans-Serif" font-size="10.00">NotifyData.hh</text>
</a>
</g>
<!-- Node9&#45;&gt;Node15 -->
<g id="edge30" class="edge"><title>Node9&#45;&gt;Node15</title>
<path fill="none" stroke="midnightblue" d="M377.642,-224.083C379.786,-216.849 382.879,-206.409 385.549,-197.397"/>
<polygon fill="midnightblue" stroke="midnightblue" points="388.922,-198.333 388.407,-187.751 382.21,-196.345 388.922,-198.333"/>
</g>
<!-- Node9&#45;&gt;Node16 -->
<g id="edge52" class="edge"><title>Node9&#45;&gt;Node16</title>
<path fill="none" stroke="midnightblue" d="M392.967,-224.347C407.129,-216.657 426.368,-204.138 438,-188 447.816,-174.381 452.898,-155.839 455.476,-142.043"/>
<polygon fill="midnightblue" stroke="midnightblue" points="458.994,-142.209 457.102,-131.784 452.08,-141.113 458.994,-142.209"/>
</g>
<!-- Node14&#45;&gt;Node10 -->
<g id="edge28" class="edge"><title>Node14&#45;&gt;Node10</title>
<path fill="none" stroke="midnightblue" d="M223.335,-112.324C236.162,-103.979 255.785,-91.2122 270.94,-81.3524"/>
<polygon fill="midnightblue" stroke="midnightblue" points="273.224,-84.0417 279.698,-75.6545 269.407,-78.1742 273.224,-84.0417"/>
</g>
<!-- Node15&#45;&gt;Node14 -->
<g id="edge42" class="edge"><title>Node15&#45;&gt;Node14</title>
<path fill="none" stroke="midnightblue" d="M362.32,-168.444C331.473,-159.241 282.272,-144.562 248.171,-134.388"/>
<polygon fill="midnightblue" stroke="midnightblue" points="249.129,-131.021 238.546,-131.516 247.128,-137.729 249.129,-131.021"/>
</g>
<!-- Node15&#45;&gt;Node16 -->
<g id="edge32" class="edge"><title>Node15&#45;&gt;Node16</title>
<path fill="none" stroke="midnightblue" d="M401.765,-168.324C411.766,-160.263 426.887,-148.077 438.93,-138.369"/>
<polygon fill="midnightblue" stroke="midnightblue" points="441.45,-140.834 447.039,-131.834 437.057,-135.384 441.45,-140.834"/>
</g>
<!-- Node17 -->
<g id="node36" class="node"><title>Node17</title>
<a xlink:href="Statistics_8hh.html" target="_top" xlink:title="Statistics.hh">
<polygon fill="white" stroke="black" points="257.5,-112.5 257.5,-131.5 328.5,-131.5 328.5,-112.5 257.5,-112.5"/>
<text text-anchor="middle" x="293" y="-119.5" font-family="Helvetica,sans-Serif" font-size="10.00">Statistics.hh</text>
</a>
</g>
<!-- Node15&#45;&gt;Node17 -->
<g id="edge38" class="edge"><title>Node15&#45;&gt;Node17</title>
<path fill="none" stroke="midnightblue" d="M375.255,-168.324C359.681,-159.743 335.623,-146.486 317.541,-136.522"/>
<polygon fill="midnightblue" stroke="midnightblue" points="319.154,-133.415 308.706,-131.655 315.776,-139.546 319.154,-133.415"/>
</g>
<!-- Node18 -->
<g id="node40" class="node"><title>Node18</title>
<a xlink:href="Song_8hh.html" target="_top" xlink:title="Song.hh">
<polygon fill="white" stroke="black" points="346.5,-112.5 346.5,-131.5 399.5,-131.5 399.5,-112.5 346.5,-112.5"/>
<text text-anchor="middle" x="373" y="-119.5" font-family="Helvetica,sans-Serif" font-size="10.00">Song.hh</text>
</a>
</g>
<!-- Node15&#45;&gt;Node18 -->
<g id="edge44" class="edge"><title>Node15&#45;&gt;Node18</title>
<path fill="none" stroke="midnightblue" d="M388.028,-168.083C385.616,-160.849 382.136,-150.409 379.132,-141.397"/>
<polygon fill="midnightblue" stroke="midnightblue" points="382.4,-140.131 375.917,-131.751 375.759,-142.345 382.4,-140.131"/>
</g>
<!-- Node16&#45;&gt;Node10 -->
<g id="edge34" class="edge"><title>Node16&#45;&gt;Node10</title>
<path fill="none" stroke="midnightblue" d="M431.855,-112.444C403.977,-103.32 359.652,-88.8133 328.6,-78.6509"/>
<polygon fill="midnightblue" stroke="midnightblue" points="329.615,-75.3005 319.022,-75.5164 327.438,-81.9533 329.615,-75.3005"/>
</g>
<!-- Node16&#45;&gt;Node13 -->
<g id="edge36" class="edge"><title>Node16&#45;&gt;Node13</title>
<path fill="none" stroke="midnightblue" d="M458,-112.083C458,-105.006 458,-94.8611 458,-85.9865"/>
<polygon fill="midnightblue" stroke="midnightblue" points="461.5,-85.751 458,-75.7511 454.5,-85.7511 461.5,-85.751"/>
</g>
<!-- Node17&#45;&gt;Node10 -->
<g id="edge40" class="edge"><title>Node17&#45;&gt;Node10</title>
<path fill="none" stroke="midnightblue" d="M293,-112.083C293,-105.006 293,-94.8611 293,-85.9865"/>
<polygon fill="midnightblue" stroke="midnightblue" points="296.5,-85.751 293,-75.7511 289.5,-85.7511 296.5,-85.751"/>
</g>
<!-- Node18&#45;&gt;Node4 -->
<g id="edge48" class="edge"><title>Node18&#45;&gt;Node4</title>
<path fill="none" stroke="midnightblue" d="M399.92,-114.27C436.327,-105.168 501.701,-88.8246 545.224,-77.9441"/>
<polygon fill="midnightblue" stroke="midnightblue" points="546.12,-81.3278 554.972,-75.5069 544.422,-74.5368 546.12,-81.3278"/>
</g>
<!-- Node18&#45;&gt;Node10 -->
<g id="edge46" class="edge"><title>Node18&#45;&gt;Node10</title>
<path fill="none" stroke="midnightblue" d="M360.147,-112.324C347.784,-103.979 328.87,-91.2122 314.263,-81.3524"/>
<polygon fill="midnightblue" stroke="midnightblue" points="316.068,-78.3483 305.821,-75.6545 312.152,-84.1503 316.068,-78.3483"/>
</g>
<!-- Node18&#45;&gt;Node13 -->
<g id="edge50" class="edge"><title>Node18&#45;&gt;Node13</title>
<path fill="none" stroke="midnightblue" d="M386.657,-112.324C399.916,-103.9 420.268,-90.9709 435.846,-81.0741"/>
<polygon fill="midnightblue" stroke="midnightblue" points="437.813,-83.9711 444.377,-75.6545 434.06,-78.0626 437.813,-83.9711"/>
</g>
<!-- Node19&#45;&gt;Node3 -->
<g id="edge58" class="edge"><title>Node19&#45;&gt;Node3</title>
<path fill="none" stroke="midnightblue" d="M649,-280.083C649,-273.006 649,-262.861 649,-253.986"/>
<polygon fill="midnightblue" stroke="midnightblue" points="652.5,-253.751 649,-243.751 645.5,-253.751 652.5,-253.751"/>
</g>
<!-- Node20&#45;&gt;Node2 -->
<g id="edge68" class="edge"><title>Node20&#45;&gt;Node2</title>
<path fill="none" stroke="midnightblue" d="M76.0782,-448.385C94.669,-435.321 131.647,-410.106 165,-392 187.575,-379.745 214.131,-367.908 234.201,-359.453"/>
<polygon fill="midnightblue" stroke="midnightblue" points="235.6,-362.661 243.487,-355.586 232.91,-356.199 235.6,-362.661"/>
</g>
<!-- Node21 -->
<g id="node53" class="node"><title>Node21</title>
<a xlink:href="BasePopup_8hh.html" target="_top" xlink:title="../BasePopup.hh">
<polygon fill="white" stroke="black" points="-0.5,-392.5 -0.5,-411.5 88.5,-411.5 88.5,-392.5 -0.5,-392.5"/>
<text text-anchor="middle" x="44" y="-399.5" font-family="Helvetica,sans-Serif" font-size="10.00">../BasePopup.hh</text>
</a>
</g>
<!-- Node20&#45;&gt;Node21 -->
<g id="edge64" class="edge"><title>Node20&#45;&gt;Node21</title>
<path fill="none" stroke="midnightblue" d="M60.6974,-448.083C58.018,-440.849 54.1514,-430.409 50.8136,-421.397"/>
<polygon fill="midnightblue" stroke="midnightblue" points="53.9965,-419.913 47.2411,-411.751 47.4322,-422.344 53.9965,-419.913"/>
</g>
<!-- Node21&#45;&gt;Node2 -->
<g id="edge66" class="edge"><title>Node21&#45;&gt;Node2</title>
<path fill="none" stroke="midnightblue" d="M79.0181,-392.444C119.609,-382.525 186.23,-366.247 227.748,-356.102"/>
<polygon fill="midnightblue" stroke="midnightblue" points="228.594,-359.499 237.477,-353.725 226.932,-352.699 228.594,-359.499"/>
</g>
<!-- Node22&#45;&gt;Node2 -->
<g id="edge80" class="edge"><title>Node22&#45;&gt;Node2</title>
<path fill="none" stroke="midnightblue" d="M445.682,-448.058C444.692,-434.09 440.722,-407.131 425,-392 392.074,-360.312 338.654,-350.609 302.698,-347.816"/>
<polygon fill="midnightblue" stroke="midnightblue" points="302.798,-344.316 292.596,-347.177 302.355,-351.302 302.798,-344.316"/>
</g>
<!-- Node22&#45;&gt;Node3 -->
<g id="edge72" class="edge"><title>Node22&#45;&gt;Node3</title>
<path fill="none" stroke="midnightblue" d="M450.651,-448.337C465.672,-420.953 515.391,-334.831 575,-280 588.798,-267.307 606.71,-256.304 621.455,-248.355"/>
<polygon fill="midnightblue" stroke="midnightblue" points="623.36,-251.309 630.613,-243.585 620.127,-245.101 623.36,-251.309"/>
</g>
<!-- Node22&#45;&gt;Node6 -->
<g id="edge74" class="edge"><title>Node22&#45;&gt;Node6</title>
<path fill="none" stroke="midnightblue" d="M480.86,-448.444C518.916,-439.102 579.958,-424.119 621.46,-413.933"/>
<polygon fill="midnightblue" stroke="midnightblue" points="622.426,-417.299 631.303,-411.516 620.757,-410.501 622.426,-417.299"/>
</g>
<!-- Node22&#45;&gt;Node23 -->
<g id="edge76" class="edge"><title>Node22&#45;&gt;Node23</title>
<path fill="none" stroke="midnightblue" d="M431.379,-448.324C417.051,-439.822 394.987,-426.729 378.251,-416.797"/>
<polygon fill="midnightblue" stroke="midnightblue" points="379.97,-413.748 369.584,-411.655 376.398,-419.768 379.97,-413.748"/>
</g>
<!-- Node23&#45;&gt;Node2 -->
<g id="edge78" class="edge"><title>Node23&#45;&gt;Node2</title>
<path fill="none" stroke="midnightblue" d="M340.54,-392.324C326.5,-383.9 304.952,-370.971 288.457,-361.074"/>
<polygon fill="midnightblue" stroke="midnightblue" points="289.8,-357.798 279.424,-355.655 286.198,-363.801 289.8,-357.798"/>
</g>
<!-- Node24&#45;&gt;Node2 -->
<g id="edge90" class="edge"><title>Node24&#45;&gt;Node2</title>
<path fill="none" stroke="midnightblue" d="M584.964,-448.496C556.108,-435.129 497.558,-408.977 446,-392 397.225,-375.939 339.419,-362.508 302.49,-354.612"/>
<polygon fill="midnightblue" stroke="midnightblue" points="303.16,-351.176 292.652,-352.534 301.713,-358.025 303.16,-351.176"/>
</g>
<!-- Node24&#45;&gt;Node6 -->
<g id="edge88" class="edge"><title>Node24&#45;&gt;Node6</title>
<path fill="none" stroke="midnightblue" d="M613.122,-448.324C622.526,-440.263 636.744,-428.077 648.069,-418.369"/>
<polygon fill="midnightblue" stroke="midnightblue" points="650.379,-420.999 655.694,-411.834 645.823,-415.684 650.379,-420.999"/>
</g>
<!-- Node24&#45;&gt;Node7 -->
<g id="edge86" class="edge"><title>Node24&#45;&gt;Node7</title>
<path fill="none" stroke="midnightblue" d="M656.799,-456.121C690.274,-452.432 731.009,-441.557 753,-412 774.001,-383.774 724.565,-364.906 686.87,-355.074"/>
<polygon fill="midnightblue" stroke="midnightblue" points="687.653,-351.662 677.105,-352.655 685.97,-358.457 687.653,-351.662"/>
</g>
<!-- Node25&#45;&gt;Node2 -->
<g id="edge94" class="edge"><title>Node25&#45;&gt;Node2</title>
<path fill="none" stroke="midnightblue" d="M176.851,-448.245C171.237,-434.998 163.101,-409.548 174,-392 185.773,-373.044 208.16,-361.831 227.781,-355.339"/>
<polygon fill="midnightblue" stroke="midnightblue" points="228.857,-358.67 237.425,-352.438 226.841,-351.967 228.857,-358.67"/>
</g>
<!-- Node26 -->
<g id="node74" class="node"><title>Node26</title>
<polygon fill="white" stroke="#bfbfbf" points="183,-392.5 183,-411.5 237,-411.5 237,-392.5 183,-392.5"/>
<text text-anchor="middle" x="210" y="-399.5" font-family="Helvetica,sans-Serif" font-size="10.00">iostream</text>
</g>
<!-- Node25&#45;&gt;Node26 -->
<g id="edge96" class="edge"><title>Node25&#45;&gt;Node26</title>
<path fill="none" stroke="midnightblue" d="M185.789,-448.083C189.758,-440.691 195.525,-429.953 200.435,-420.811"/>
<polygon fill="midnightblue" stroke="midnightblue" points="203.653,-422.217 205.3,-411.751 197.486,-418.905 203.653,-422.217"/>
</g>
</g>
</svg>
