<?xml version="1.0" encoding="UTF-8" standalone="no"?>
<!DOCTYPE svg PUBLIC "-//W3C//DTD SVG 1.1//EN"
 "http://www.w3.org/Graphics/SVG/1.1/DTD/svg11.dtd">
<!-- Generated by graphviz version 2.28.0 (20111204.1018)
 -->
<!-- Title: G Pages: 1 -->
<svg width="259pt" height="140pt"
 viewBox="0.00 0.00 259.00 140.00" xmlns="http://www.w3.org/2000/svg" xmlns:xlink="http://www.w3.org/1999/xlink">
<g id="graph1" class="graph" transform="scale(1 1) rotate(0) translate(4 136)">
<title>G</title>
<polygon fill="white" stroke="white" points="-4,5 -4,-136 256,-136 256,5 -4,5"/>
<!-- Node1 -->
<g id="node1" class="node"><title>Node1</title>
<polygon fill="#bfbfbf" stroke="black" points="40.5,-112.5 40.5,-131.5 251.5,-131.5 251.5,-112.5 40.5,-112.5"/>
<text text-anchor="middle" x="146" y="-119.5" font-family="Helvetica,sans-Serif" font-size="10.00">src/Browser/Queue/QueueModelColumns.hh</text>
</g>
<!-- Node2 -->
<g id="node3" class="node"><title>Node2</title>
<a xlink:href="QueueMerger_8hh.html" target="_top" xlink:title="src/Browser/Queue/QueueMerger.hh">
<polygon fill="white" stroke="black" points="0,-56.5 0,-75.5 176,-75.5 176,-56.5 0,-56.5"/>
<text text-anchor="middle" x="88" y="-63.5" font-family="Helvetica,sans-Serif" font-size="10.00">src/Browser/Queue/QueueMerger.hh</text>
</a>
</g>
<!-- Node1&#45;&gt;Node2 -->
<g id="edge2" class="edge"><title>Node1&#45;&gt;Node2</title>
<path fill="none" stroke="midnightblue" d="M129.087,-105.253C118.797,-95.6731 106.034,-83.7906 97.4883,-75.8339"/>
<polygon fill="midnightblue" stroke="midnightblue" points="126.977,-108.071 136.681,-112.324 131.747,-102.948 126.977,-108.071"/>
</g>
<!-- Node3 -->
<g id="node5" class="node"><title>Node3</title>
<a xlink:href="Queue_8hh.html" target="_top" xlink:title="src/Browser/Queue/Queue.hh">
<polygon fill="white" stroke="black" points="73,-0.5 73,-19.5 219,-19.5 219,-0.5 73,-0.5"/>
<text text-anchor="middle" x="146" y="-7.5" font-family="Helvetica,sans-Serif" font-size="10.00">src/Browser/Queue/Queue.hh</text>
</a>
</g>
<!-- Node1&#45;&gt;Node3 -->
<g id="edge6" class="edge"><title>Node1&#45;&gt;Node3</title>
<path fill="none" stroke="midnightblue" d="M164.714,-105.173C177.319,-92.4809 190.544,-73.8928 184,-56 178.591,-41.211 165.938,-27.9305 156.714,-19.6955"/>
<polygon fill="midnightblue" stroke="midnightblue" points="162.05,-102.872 157.129,-112.254 166.827,-107.989 162.05,-102.872"/>
</g>
<!-- Node2&#45;&gt;Node3 -->
<g id="edge4" class="edge"><title>Node2&#45;&gt;Node3</title>
<path fill="none" stroke="midnightblue" d="M104.913,-49.2533C115.203,-39.6731 127.966,-27.7906 136.512,-19.8339"/>
<polygon fill="midnightblue" stroke="midnightblue" points="102.253,-46.9481 97.3187,-56.324 107.023,-52.0714 102.253,-46.9481"/>
</g>
</g>
</svg>
