<?xml version="1.0" encoding="UTF-8" standalone="no"?>
<!DOCTYPE svg PUBLIC "-//W3C//DTD SVG 1.1//EN"
 "http://www.w3.org/Graphics/SVG/1.1/DTD/svg11.dtd">
<!-- Generated by graphviz version 2.28.0 (20120217.0315)
 -->
<!-- Title: G Pages: 1 -->
<svg width="180pt" height="196pt"
 viewBox="0.00 0.00 180.00 196.00" xmlns="http://www.w3.org/2000/svg" xmlns:xlink="http://www.w3.org/1999/xlink">
<g id="graph1" class="graph" transform="scale(1 1) rotate(0) translate(4 192)">
<title>G</title>
<polygon fill="white" stroke="white" points="-4,5 -4,-192 177,-192 177,5 -4,5"/>
<!-- Node1 -->
<g id="node1" class="node"><title>Node1</title>
<polygon fill="#bfbfbf" stroke="black" points="-0.5,-168.5 -0.5,-187.5 172.5,-187.5 172.5,-168.5 -0.5,-168.5"/>
<text text-anchor="middle" x="86" y="-175.5" font-family="Helvetica,sans-Serif" font-size="10.00">src/Browser/Queue/QueuePopup.hh</text>
</g>
<!-- Node2 -->
<g id="node3" class="node"><title>Node2</title>
<a xlink:href="BasePopup_8hh.html" target="_top" xlink:title="../BasePopup.hh">
<polygon fill="white" stroke="black" points="5.5,-112.5 5.5,-131.5 94.5,-131.5 94.5,-112.5 5.5,-112.5"/>
<text text-anchor="middle" x="50" y="-119.5" font-family="Helvetica,sans-Serif" font-size="10.00">../BasePopup.hh</text>
</a>
</g>
<!-- Node1&#45;&gt;Node2 -->
<g id="edge2" class="edge"><title>Node1&#45;&gt;Node2</title>
<path fill="none" stroke="midnightblue" d="M80.0553,-168.083C75.0227,-160.534 67.6632,-149.495 61.4865,-140.23"/>
<polygon fill="midnightblue" stroke="midnightblue" points="64.2933,-138.13 55.8341,-131.751 58.4689,-142.013 64.2933,-138.13"/>
</g>
<!-- Node4 -->
<g id="node7" class="node"><title>Node4</title>
<polygon fill="white" stroke="#bfbfbf" points="58.5,-0.5 58.5,-19.5 113.5,-19.5 113.5,-0.5 58.5,-0.5"/>
<text text-anchor="middle" x="86" y="-7.5" font-family="Helvetica,sans-Serif" font-size="10.00">gtkmm.h</text>
</g>
<!-- Node1&#45;&gt;Node4 -->
<g id="edge8" class="edge"><title>Node1&#45;&gt;Node4</title>
<path fill="none" stroke="midnightblue" d="M90.3663,-168.307C94.5593,-159.437 100.6,-145.145 103,-132 105.245,-119.702 106.796,-82.3968 102,-56 100.351,-46.9242 97.1135,-37.2382 93.9797,-29.1864"/>
<polygon fill="midnightblue" stroke="midnightblue" points="97.1235,-27.6301 90.062,-19.7316 90.6567,-30.3097 97.1235,-27.6301"/>
</g>
<!-- Node3 -->
<g id="node5" class="node"><title>Node3</title>
<a xlink:href="ui__includes_8hh.html" target="_top" xlink:title="../ui_includes.hh">
<polygon fill="white" stroke="black" points="6,-56.5 6,-75.5 94,-75.5 94,-56.5 6,-56.5"/>
<text text-anchor="middle" x="50" y="-63.5" font-family="Helvetica,sans-Serif" font-size="10.00">../ui_includes.hh</text>
</a>
</g>
<!-- Node2&#45;&gt;Node3 -->
<g id="edge4" class="edge"><title>Node2&#45;&gt;Node3</title>
<path fill="none" stroke="midnightblue" d="M50,-112.083C50,-105.006 50,-94.8611 50,-85.9865"/>
<polygon fill="midnightblue" stroke="midnightblue" points="53.5001,-85.751 50,-75.7511 46.5001,-85.7511 53.5001,-85.751"/>
</g>
<!-- Node3&#45;&gt;Node4 -->
<g id="edge6" class="edge"><title>Node3&#45;&gt;Node4</title>
<path fill="none" stroke="midnightblue" d="M55.9447,-56.083C60.9773,-48.5341 68.3368,-37.4948 74.5135,-28.2298"/>
<polygon fill="midnightblue" stroke="midnightblue" points="77.5311,-30.0131 80.1659,-19.7511 71.7067,-26.1301 77.5311,-30.0131"/>
</g>
</g>
</svg>
