<?xml version="1.0" encoding="UTF-8" standalone="no"?>
<!DOCTYPE svg PUBLIC "-//W3C//DTD SVG 1.1//EN"
 "http://www.w3.org/Graphics/SVG/1.1/DTD/svg11.dtd">
<!-- Generated by graphviz version 2.28.0 (20111204.1018)
 -->
<!-- Title: G Pages: 1 -->
<svg width="648pt" height="476pt"
 viewBox="0.00 0.00 648.15 476.00" xmlns="http://www.w3.org/2000/svg" xmlns:xlink="http://www.w3.org/1999/xlink">
<g id="graph1" class="graph" transform="scale(1 1) rotate(0) translate(4 472)">
<title>G</title>
<polygon fill="white" stroke="white" points="-4,5 -4,-472 645.155,-472 645.155,5 -4,5"/>
<!-- Node1 -->
<g id="node1" class="node"><title>Node1</title>
<polygon fill="#bfbfbf" stroke="black" points="116,-448.5 116,-467.5 292,-467.5 292,-448.5 116,-448.5"/>
<text text-anchor="middle" x="204" y="-455.5" font-family="Helvetica,sans-Serif" font-size="10.00">src/Browser/Queue/QueueMerger.hh</text>
</g>
<!-- Node2 -->
<g id="node3" class="node"><title>Node2</title>
<a xlink:href="AbstractItemlist_8hh.html" target="_top" xlink:title="../../MPD/AbstractItemlist.hh">
<polygon fill="white" stroke="black" points="50.5,-224.5 50.5,-243.5 193.5,-243.5 193.5,-224.5 50.5,-224.5"/>
<text text-anchor="middle" x="122" y="-231.5" font-family="Helvetica,sans-Serif" font-size="10.00">../../MPD/AbstractItemlist.hh</text>
</a>
</g>
<!-- Node1&#45;&gt;Node2 -->
<g id="edge2" class="edge"><title>Node1&#45;&gt;Node2</title>
<path fill="none" stroke="midnightblue" d="M203.721,-448.328C202.533,-421.62 196.381,-338.866 165,-280 159.068,-268.872 149.608,-258.538 141.07,-250.587"/>
<polygon fill="midnightblue" stroke="midnightblue" points="143.126,-247.734 133.311,-243.745 138.497,-252.984 143.126,-247.734"/>
</g>
<!-- Node5 -->
<g id="node9" class="node"><title>Node5</title>
<a xlink:href="AbstractClientUser_8hh.html" target="_top" xlink:title="../../MPD/AbstractClientUser.hh">
<polygon fill="white" stroke="black" points="-0.5,-392.5 -0.5,-411.5 156.5,-411.5 156.5,-392.5 -0.5,-392.5"/>
<text text-anchor="middle" x="78" y="-399.5" font-family="Helvetica,sans-Serif" font-size="10.00">../../MPD/AbstractClientUser.hh</text>
</a>
</g>
<!-- Node1&#45;&gt;Node5 -->
<g id="edge8" class="edge"><title>Node1&#45;&gt;Node5</title>
<path fill="none" stroke="midnightblue" d="M184.035,-448.444C163.391,-439.596 130.937,-425.687 107.368,-415.586"/>
<polygon fill="midnightblue" stroke="midnightblue" points="108.442,-412.239 97.8717,-411.516 105.684,-418.673 108.442,-412.239"/>
</g>
<!-- Node19 -->
<g id="node48" class="node"><title>Node19</title>
<a xlink:href="QueueModelColumns_8hh.html" target="_top" xlink:title="QueueModelColumns.hh">
<polygon fill="white" stroke="black" points="251,-392.5 251,-411.5 375,-411.5 375,-392.5 251,-392.5"/>
<text text-anchor="middle" x="313" y="-399.5" font-family="Helvetica,sans-Serif" font-size="10.00">QueueModelColumns.hh</text>
</a>
</g>
<!-- Node1&#45;&gt;Node19 -->
<g id="edge58" class="edge"><title>Node1&#45;&gt;Node19</title>
<path fill="none" stroke="midnightblue" d="M221.513,-448.324C239.072,-439.625 266.331,-426.12 286.531,-416.113"/>
<polygon fill="midnightblue" stroke="midnightblue" points="288.124,-419.23 295.531,-411.655 285.016,-412.958 288.124,-419.23"/>
</g>
<!-- Node20 -->
<g id="node50" class="node"><title>Node20</title>
<polygon fill="white" stroke="#bfbfbf" points="249.5,-336.5 249.5,-355.5 304.5,-355.5 304.5,-336.5 249.5,-336.5"/>
<text text-anchor="middle" x="277" y="-343.5" font-family="Helvetica,sans-Serif" font-size="10.00">gtkmm.h</text>
</g>
<!-- Node1&#45;&gt;Node20 -->
<g id="edge62" class="edge"><title>Node1&#45;&gt;Node20</title>
<path fill="none" stroke="midnightblue" d="M208.572,-448.367C215.382,-435.704 228.811,-411.485 242,-392 248.588,-382.267 256.595,-371.881 263.287,-363.542"/>
<polygon fill="midnightblue" stroke="midnightblue" points="266.068,-365.669 269.671,-355.706 260.641,-361.248 266.068,-365.669"/>
</g>
<!-- Node3 -->
<g id="node5" class="node"><title>Node3</title>
<a xlink:href="AbstractComposite_8hh.html" target="_top" xlink:title="AbstractComposite.hh">
<polygon fill="white" stroke="black" points="126,-56.5 126,-75.5 240,-75.5 240,-56.5 126,-56.5"/>
<text text-anchor="middle" x="183" y="-63.5" font-family="Helvetica,sans-Serif" font-size="10.00">AbstractComposite.hh</text>
</a>
</g>
<!-- Node2&#45;&gt;Node3 -->
<g id="edge4" class="edge"><title>Node2&#45;&gt;Node3</title>
<path fill="none" stroke="midnightblue" d="M125.28,-224.075C134.923,-197.832 163.324,-120.545 176.343,-85.1165"/>
<polygon fill="midnightblue" stroke="midnightblue" points="179.687,-86.1617 179.851,-75.5681 173.117,-83.7472 179.687,-86.1617"/>
</g>
<!-- Node4 -->
<g id="node7" class="node"><title>Node4</title>
<polygon fill="white" stroke="#bfbfbf" points="161,-0.5 161,-19.5 205,-19.5 205,-0.5 161,-0.5"/>
<text text-anchor="middle" x="183" y="-7.5" font-family="Helvetica,sans-Serif" font-size="10.00">vector</text>
</g>
<!-- Node3&#45;&gt;Node4 -->
<g id="edge6" class="edge"><title>Node3&#45;&gt;Node4</title>
<path fill="none" stroke="midnightblue" d="M183,-56.083C183,-49.0059 183,-38.8611 183,-29.9865"/>
<polygon fill="midnightblue" stroke="midnightblue" points="186.5,-29.751 183,-19.7511 179.5,-29.7511 186.5,-29.751"/>
</g>
<!-- Node6 -->
<g id="node11" class="node"><title>Node6</title>
<a xlink:href="Client_8hh.html" target="_top" xlink:title="Client.hh">
<polygon fill="white" stroke="black" points="64,-336.5 64,-355.5 120,-355.5 120,-336.5 64,-336.5"/>
<text text-anchor="middle" x="92" y="-343.5" font-family="Helvetica,sans-Serif" font-size="10.00">Client.hh</text>
</a>
</g>
<!-- Node5&#45;&gt;Node6 -->
<g id="edge10" class="edge"><title>Node5&#45;&gt;Node6</title>
<path fill="none" stroke="midnightblue" d="M80.3118,-392.083C82.167,-384.927 84.8353,-374.635 87.1542,-365.691"/>
<polygon fill="midnightblue" stroke="midnightblue" points="90.6095,-366.309 89.7312,-355.751 83.8335,-364.553 90.6095,-366.309"/>
</g>
<!-- Node7 -->
<g id="node13" class="node"><title>Node7</title>
<a xlink:href="BaseClient_8hh.html" target="_top" xlink:title="BaseClient.hh">
<polygon fill="white" stroke="black" points="213,-280.5 213,-299.5 291,-299.5 291,-280.5 213,-280.5"/>
<text text-anchor="middle" x="252" y="-287.5" font-family="Helvetica,sans-Serif" font-size="10.00">BaseClient.hh</text>
</a>
</g>
<!-- Node6&#45;&gt;Node7 -->
<g id="edge12" class="edge"><title>Node6&#45;&gt;Node7</title>
<path fill="none" stroke="midnightblue" d="M117.352,-336.444C144.269,-327.359 186.996,-312.939 217.087,-302.783"/>
<polygon fill="midnightblue" stroke="midnightblue" points="218.41,-306.031 226.766,-299.516 216.172,-299.398 218.41,-306.031"/>
</g>
<!-- Node18 -->
<g id="node45" class="node"><title>Node18</title>
<a xlink:href="AbstractItemGenerator_8hh.html" target="_top" xlink:title="AbstractItemGenerator.hh">
<polygon fill="white" stroke="black" points="27.5,-280.5 27.5,-299.5 156.5,-299.5 156.5,-280.5 27.5,-280.5"/>
<text text-anchor="middle" x="92" y="-287.5" font-family="Helvetica,sans-Serif" font-size="10.00">AbstractItemGenerator.hh</text>
</a>
</g>
<!-- Node6&#45;&gt;Node18 -->
<g id="edge54" class="edge"><title>Node6&#45;&gt;Node18</title>
<path fill="none" stroke="midnightblue" d="M92,-336.083C92,-329.006 92,-318.861 92,-309.986"/>
<polygon fill="midnightblue" stroke="midnightblue" points="95.5001,-309.751 92,-299.751 88.5001,-309.751 95.5001,-309.751"/>
</g>
<!-- Node8 -->
<g id="node15" class="node"><title>Node8</title>
<a xlink:href="Listener_8hh.html" target="_top" xlink:title="Listener.hh">
<polygon fill="white" stroke="black" points="390.5,-224.5 390.5,-243.5 455.5,-243.5 455.5,-224.5 390.5,-224.5"/>
<text text-anchor="middle" x="423" y="-231.5" font-family="Helvetica,sans-Serif" font-size="10.00">Listener.hh</text>
</a>
</g>
<!-- Node7&#45;&gt;Node8 -->
<g id="edge14" class="edge"><title>Node7&#45;&gt;Node8</title>
<path fill="none" stroke="midnightblue" d="M279.095,-280.444C307.988,-271.32 353.925,-256.813 386.105,-246.651"/>
<polygon fill="midnightblue" stroke="midnightblue" points="387.549,-249.865 396.031,-243.516 385.441,-243.19 387.549,-249.865"/>
</g>
<!-- Node15 -->
<g id="node30" class="node"><title>Node15</title>
<a xlink:href="Connection_8hh.html" target="_top" xlink:title="Connection.hh">
<polygon fill="white" stroke="black" points="360,-112.5 360,-131.5 440,-131.5 440,-112.5 360,-112.5"/>
<text text-anchor="middle" x="400" y="-119.5" font-family="Helvetica,sans-Serif" font-size="10.00">Connection.hh</text>
</a>
</g>
<!-- Node7&#45;&gt;Node15 -->
<g id="edge52" class="edge"><title>Node7&#45;&gt;Node15</title>
<path fill="none" stroke="midnightblue" d="M251.335,-280.466C250.132,-258.841 250.001,-201.255 279,-168 289.587,-155.859 326.437,-143.164 356.717,-134.365"/>
<polygon fill="midnightblue" stroke="midnightblue" points="358.021,-137.633 366.686,-131.537 356.111,-130.899 358.021,-137.633"/>
</g>
<!-- Node9 -->
<g id="node17" class="node"><title>Node9</title>
<polygon fill="white" stroke="#bfbfbf" points="459,-56.5 459,-75.5 529,-75.5 529,-56.5 459,-56.5"/>
<text text-anchor="middle" x="494" y="-63.5" font-family="Helvetica,sans-Serif" font-size="10.00">mpd/client.h</text>
</g>
<!-- Node8&#45;&gt;Node9 -->
<g id="edge16" class="edge"><title>Node8&#45;&gt;Node9</title>
<path fill="none" stroke="midnightblue" d="M455.921,-230.888C509.538,-226.687 611.97,-215.224 634,-188 649.303,-169.089 632.058,-129.559 615,-112 594.871,-91.2797 564.339,-80.0168 538.981,-73.9404"/>
<polygon fill="midnightblue" stroke="midnightblue" points="539.712,-70.5175 529.193,-71.7849 538.206,-77.3537 539.712,-70.5175"/>
</g>
<!-- Node10 -->
<g id="node19" class="node"><title>Node10</title>
<polygon fill="white" stroke="#bfbfbf" points="552.5,-168.5 552.5,-187.5 625.5,-187.5 625.5,-168.5 552.5,-168.5"/>
<text text-anchor="middle" x="589" y="-175.5" font-family="Helvetica,sans-Serif" font-size="10.00">mpd/async.h</text>
</g>
<!-- Node8&#45;&gt;Node10 -->
<g id="edge18" class="edge"><title>Node8&#45;&gt;Node10</title>
<path fill="none" stroke="midnightblue" d="M449.303,-224.444C477.351,-215.32 521.944,-200.813 553.184,-190.651"/>
<polygon fill="midnightblue" stroke="midnightblue" points="554.393,-193.938 562.82,-187.516 552.228,-187.282 554.393,-193.938"/>
</g>
<!-- Node11 -->
<g id="node21" class="node"><title>Node11</title>
<polygon fill="white" stroke="#bfbfbf" points="288,-168.5 288,-187.5 362,-187.5 362,-168.5 288,-168.5"/>
<text text-anchor="middle" x="325" y="-175.5" font-family="Helvetica,sans-Serif" font-size="10.00">mpd/parser.h</text>
</g>
<!-- Node8&#45;&gt;Node11 -->
<g id="edge20" class="edge"><title>Node8&#45;&gt;Node11</title>
<path fill="none" stroke="midnightblue" d="M407.255,-224.324C391.681,-215.743 367.623,-202.486 349.541,-192.522"/>
<polygon fill="midnightblue" stroke="midnightblue" points="351.154,-189.415 340.706,-187.655 347.776,-195.546 351.154,-189.415"/>
</g>
<!-- Node12 -->
<g id="node23" class="node"><title>Node12</title>
<polygon fill="white" stroke="#bfbfbf" points="287,-56.5 287,-75.5 343,-75.5 343,-56.5 287,-56.5"/>
<text text-anchor="middle" x="315" y="-63.5" font-family="Helvetica,sans-Serif" font-size="10.00">glibmm.h</text>
</g>
<!-- Node8&#45;&gt;Node12 -->
<g id="edge22" class="edge"><title>Node8&#45;&gt;Node12</title>
<path fill="none" stroke="midnightblue" d="M390.432,-233.151C356.386,-231.343 304.444,-222.609 279,-188 258.992,-160.786 267.819,-143.874 279,-112 282.785,-101.209 290.367,-91.084 297.6,-83.1808"/>
<polygon fill="midnightblue" stroke="midnightblue" points="300.326,-85.4005 304.838,-75.8145 295.333,-80.4943 300.326,-85.4005"/>
</g>
<!-- Node13 -->
<g id="node25" class="node"><title>Node13</title>
<a xlink:href="Status_8hh.html" target="_top" xlink:title="Status.hh">
<polygon fill="white" stroke="black" points="547.5,-112.5 547.5,-131.5 606.5,-131.5 606.5,-112.5 547.5,-112.5"/>
<text text-anchor="middle" x="577" y="-119.5" font-family="Helvetica,sans-Serif" font-size="10.00">Status.hh</text>
</a>
</g>
<!-- Node8&#45;&gt;Node13 -->
<g id="edge24" class="edge"><title>Node8&#45;&gt;Node13</title>
<path fill="none" stroke="midnightblue" d="M441.055,-224.415C457.934,-216.059 483.536,-202.526 504,-188 525.053,-173.056 546.865,-152.917 561.099,-139.036"/>
<polygon fill="midnightblue" stroke="midnightblue" points="563.894,-141.194 568.54,-131.672 558.97,-136.218 563.894,-141.194"/>
</g>
<!-- Node14 -->
<g id="node28" class="node"><title>Node14</title>
<a xlink:href="NotifyData_8hh.html" target="_top" xlink:title="NotifyData.hh">
<polygon fill="white" stroke="black" points="418.5,-168.5 418.5,-187.5 495.5,-187.5 495.5,-168.5 418.5,-168.5"/>
<text text-anchor="middle" x="457" y="-175.5" font-family="Helvetica,sans-Serif" font-size="10.00">NotifyData.hh</text>
</a>
</g>
<!-- Node8&#45;&gt;Node14 -->
<g id="edge28" class="edge"><title>Node8&#45;&gt;Node14</title>
<path fill="none" stroke="midnightblue" d="M428.614,-224.083C433.367,-216.534 440.318,-205.495 446.152,-196.23"/>
<polygon fill="midnightblue" stroke="midnightblue" points="449.124,-198.078 451.49,-187.751 443.2,-194.349 449.124,-198.078"/>
</g>
<!-- Node8&#45;&gt;Node15 -->
<g id="edge50" class="edge"><title>Node8&#45;&gt;Node15</title>
<path fill="none" stroke="midnightblue" d="M419.891,-224.486C416.727,-215.52 411.887,-200.936 409,-188 405.583,-172.693 403.239,-155.051 401.801,-142.012"/>
<polygon fill="midnightblue" stroke="midnightblue" points="405.268,-141.505 400.767,-131.914 398.304,-142.218 405.268,-141.505"/>
</g>
<!-- Node13&#45;&gt;Node9 -->
<g id="edge26" class="edge"><title>Node13&#45;&gt;Node9</title>
<path fill="none" stroke="midnightblue" d="M563.665,-112.324C550.838,-103.979 531.215,-91.2122 516.06,-81.3524"/>
<polygon fill="midnightblue" stroke="midnightblue" points="517.593,-78.1742 507.302,-75.6545 513.776,-84.0417 517.593,-78.1742"/>
</g>
<!-- Node14&#45;&gt;Node13 -->
<g id="edge40" class="edge"><title>Node14&#45;&gt;Node13</title>
<path fill="none" stroke="midnightblue" d="M476.014,-168.444C495.588,-159.636 526.308,-145.812 548.729,-135.722"/>
<polygon fill="midnightblue" stroke="midnightblue" points="550.392,-138.812 558.075,-131.516 547.519,-132.428 550.392,-138.812"/>
</g>
<!-- Node14&#45;&gt;Node15 -->
<g id="edge30" class="edge"><title>Node14&#45;&gt;Node15</title>
<path fill="none" stroke="midnightblue" d="M447.842,-168.324C439.499,-160.42 426.968,-148.548 416.823,-138.938"/>
<polygon fill="midnightblue" stroke="midnightblue" points="418.991,-136.171 409.325,-131.834 414.177,-141.252 418.991,-136.171"/>
</g>
<!-- Node16 -->
<g id="node34" class="node"><title>Node16</title>
<a xlink:href="Statistics_8hh.html" target="_top" xlink:title="Statistics.hh">
<polygon fill="white" stroke="black" points="458.5,-112.5 458.5,-131.5 529.5,-131.5 529.5,-112.5 458.5,-112.5"/>
<text text-anchor="middle" x="494" y="-119.5" font-family="Helvetica,sans-Serif" font-size="10.00">Statistics.hh</text>
</a>
</g>
<!-- Node14&#45;&gt;Node16 -->
<g id="edge36" class="edge"><title>Node14&#45;&gt;Node16</title>
<path fill="none" stroke="midnightblue" d="M463.11,-168.083C468.282,-160.534 475.846,-149.495 482.194,-140.23"/>
<polygon fill="midnightblue" stroke="midnightblue" points="485.239,-141.979 488.004,-131.751 479.464,-138.022 485.239,-141.979"/>
</g>
<!-- Node17 -->
<g id="node38" class="node"><title>Node17</title>
<a xlink:href="Song_8hh.html" target="_top" xlink:title="Song.hh">
<polygon fill="white" stroke="black" points="288.5,-112.5 288.5,-131.5 341.5,-131.5 341.5,-112.5 288.5,-112.5"/>
<text text-anchor="middle" x="315" y="-119.5" font-family="Helvetica,sans-Serif" font-size="10.00">Song.hh</text>
</a>
</g>
<!-- Node14&#45;&gt;Node17 -->
<g id="edge42" class="edge"><title>Node14&#45;&gt;Node17</title>
<path fill="none" stroke="midnightblue" d="M434.5,-168.444C410.923,-159.478 373.678,-145.314 347.036,-135.183"/>
<polygon fill="midnightblue" stroke="midnightblue" points="347.986,-131.8 337.395,-131.516 345.498,-138.342 347.986,-131.8"/>
</g>
<!-- Node15&#45;&gt;Node9 -->
<g id="edge32" class="edge"><title>Node15&#45;&gt;Node9</title>
<path fill="none" stroke="midnightblue" d="M415.103,-112.324C429.903,-103.822 452.694,-90.7288 469.982,-80.7975"/>
<polygon fill="midnightblue" stroke="midnightblue" points="472.007,-83.6707 478.935,-75.6545 468.52,-77.6009 472.007,-83.6707"/>
</g>
<!-- Node15&#45;&gt;Node12 -->
<g id="edge34" class="edge"><title>Node15&#45;&gt;Node12</title>
<path fill="none" stroke="midnightblue" d="M386.343,-112.324C373.084,-103.9 352.732,-90.9709 337.154,-81.0741"/>
<polygon fill="midnightblue" stroke="midnightblue" points="338.94,-78.0626 328.623,-75.6545 335.187,-83.9711 338.94,-78.0626"/>
</g>
<!-- Node16&#45;&gt;Node9 -->
<g id="edge38" class="edge"><title>Node16&#45;&gt;Node9</title>
<path fill="none" stroke="midnightblue" d="M494,-112.083C494,-105.006 494,-94.8611 494,-85.9865"/>
<polygon fill="midnightblue" stroke="midnightblue" points="497.5,-85.751 494,-75.7511 490.5,-85.7511 497.5,-85.751"/>
</g>
<!-- Node17&#45;&gt;Node3 -->
<g id="edge46" class="edge"><title>Node17&#45;&gt;Node3</title>
<path fill="none" stroke="midnightblue" d="M294.084,-112.444C272.264,-103.517 237.85,-89.4387 213.108,-79.3168"/>
<polygon fill="midnightblue" stroke="midnightblue" points="214.399,-76.0634 203.818,-75.5164 211.748,-82.5422 214.399,-76.0634"/>
</g>
<!-- Node17&#45;&gt;Node9 -->
<g id="edge44" class="edge"><title>Node17&#45;&gt;Node9</title>
<path fill="none" stroke="midnightblue" d="M341.798,-112.916C372.068,-103.784 421.567,-88.8514 455.859,-78.5061"/>
<polygon fill="midnightblue" stroke="midnightblue" points="456.974,-81.8256 465.537,-75.5865 454.953,-75.124 456.974,-81.8256"/>
</g>
<!-- Node17&#45;&gt;Node12 -->
<g id="edge48" class="edge"><title>Node17&#45;&gt;Node12</title>
<path fill="none" stroke="midnightblue" d="M315,-112.083C315,-105.006 315,-94.8611 315,-85.9865"/>
<polygon fill="midnightblue" stroke="midnightblue" points="318.5,-85.751 315,-75.7511 311.5,-85.7511 318.5,-85.751"/>
</g>
<!-- Node18&#45;&gt;Node2 -->
<g id="edge56" class="edge"><title>Node18&#45;&gt;Node2</title>
<path fill="none" stroke="midnightblue" d="M96.9539,-280.083C101.104,-272.613 107.153,-261.724 112.267,-252.52"/>
<polygon fill="midnightblue" stroke="midnightblue" points="115.341,-254.192 117.138,-243.751 109.222,-250.793 115.341,-254.192"/>
</g>
<!-- Node19&#45;&gt;Node20 -->
<g id="edge60" class="edge"><title>Node19&#45;&gt;Node20</title>
<path fill="none" stroke="midnightblue" d="M307.055,-392.083C302.023,-384.534 294.663,-373.495 288.487,-364.23"/>
<polygon fill="midnightblue" stroke="midnightblue" points="291.293,-362.13 282.834,-355.751 285.469,-366.013 291.293,-362.13"/>
</g>
</g>
</svg>
