<?xml version="1.0" encoding="UTF-8" standalone="no"?>
<!DOCTYPE svg PUBLIC "-//W3C//DTD SVG 1.1//EN"
 "http://www.w3.org/Graphics/SVG/1.1/DTD/svg11.dtd">
<!-- Generated by graphviz version 2.28.0 (20120217.0315)
 -->
<!-- Title: G Pages: 1 -->
<svg width="634pt" height="476pt"
 viewBox="0.00 0.00 633.75 476.00" xmlns="http://www.w3.org/2000/svg" xmlns:xlink="http://www.w3.org/1999/xlink">
<g id="graph1" class="graph" transform="scale(1 1) rotate(0) translate(4 472)">
<title>G</title>
<polygon fill="white" stroke="white" points="-4,5 -4,-472 630.754,-472 630.754,5 -4,5"/>
<!-- Node1 -->
<g id="node1" class="node"><title>Node1</title>
<polygon fill="#bfbfbf" stroke="black" points="221,-448.5 221,-467.5 397,-467.5 397,-448.5 221,-448.5"/>
<text text-anchor="middle" x="309" y="-455.5" font-family="Helvetica,sans-Serif" font-size="10.00">src/Browser/Queue/QueueMerger.hh</text>
</g>
<!-- Node2 -->
<g id="node3" class="node"><title>Node2</title>
<a xlink:href="AbstractItemlist_8hh.html" target="_top" xlink:title="../../MPD/AbstractItemlist.hh">
<polygon fill="white" stroke="black" points="51.5,-224.5 51.5,-243.5 194.5,-243.5 194.5,-224.5 51.5,-224.5"/>
<text text-anchor="middle" x="123" y="-231.5" font-family="Helvetica,sans-Serif" font-size="10.00">../../MPD/AbstractItemlist.hh</text>
</a>
</g>
<!-- Node1&#45;&gt;Node2 -->
<g id="edge2" class="edge"><title>Node1&#45;&gt;Node2</title>
<path fill="none" stroke="midnightblue" d="M250.886,-448.444C208.557,-440.956 156.243,-428.662 142,-412 103.223,-366.635 112.135,-289 118.855,-253.589"/>
<polygon fill="midnightblue" stroke="midnightblue" points="122.308,-254.17 120.896,-243.67 115.452,-252.759 122.308,-254.17"/>
</g>
<!-- Node5 -->
<g id="node9" class="node"><title>Node5</title>
<a xlink:href="AbstractClientUser_8hh.html" target="_top" xlink:title="../../MPD/AbstractClientUser.hh">
<polygon fill="white" stroke="black" points="151.5,-392.5 151.5,-411.5 308.5,-411.5 308.5,-392.5 151.5,-392.5"/>
<text text-anchor="middle" x="230" y="-399.5" font-family="Helvetica,sans-Serif" font-size="10.00">../../MPD/AbstractClientUser.hh</text>
</a>
</g>
<!-- Node1&#45;&gt;Node5 -->
<g id="edge8" class="edge"><title>Node1&#45;&gt;Node5</title>
<path fill="none" stroke="midnightblue" d="M296.307,-448.324C284.099,-439.979 265.422,-427.212 250.997,-417.352"/>
<polygon fill="midnightblue" stroke="midnightblue" points="252.892,-414.408 242.661,-411.655 248.942,-420.187 252.892,-414.408"/>
</g>
<!-- Node21 -->
<g id="node54" class="node"><title>Node21</title>
<a xlink:href="QueueModelColumns_8hh.html" target="_top" xlink:title="QueueModelColumns.hh">
<polygon fill="white" stroke="black" points="327,-392.5 327,-411.5 451,-411.5 451,-392.5 327,-392.5"/>
<text text-anchor="middle" x="389" y="-399.5" font-family="Helvetica,sans-Serif" font-size="10.00">QueueModelColumns.hh</text>
</a>
</g>
<!-- Node1&#45;&gt;Node21 -->
<g id="edge66" class="edge"><title>Node1&#45;&gt;Node21</title>
<path fill="none" stroke="midnightblue" d="M321.853,-448.324C334.216,-439.979 353.13,-427.212 367.737,-417.352"/>
<polygon fill="midnightblue" stroke="midnightblue" points="369.848,-420.15 376.179,-411.655 365.932,-414.348 369.848,-420.15"/>
</g>
<!-- Node22 -->
<g id="node56" class="node"><title>Node22</title>
<polygon fill="white" stroke="#bfbfbf" points="406.5,-336.5 406.5,-355.5 461.5,-355.5 461.5,-336.5 406.5,-336.5"/>
<text text-anchor="middle" x="434" y="-343.5" font-family="Helvetica,sans-Serif" font-size="10.00">gtkmm.h</text>
</g>
<!-- Node1&#45;&gt;Node22 -->
<g id="edge70" class="edge"><title>Node1&#45;&gt;Node22</title>
<path fill="none" stroke="midnightblue" d="M397.208,-449.754C421.008,-443.274 444.231,-431.85 459,-412 469.878,-397.38 459.282,-377.445 448.726,-363.52"/>
<polygon fill="midnightblue" stroke="midnightblue" points="451.393,-361.252 442.352,-355.728 445.975,-365.684 451.393,-361.252"/>
</g>
<!-- Node3 -->
<g id="node5" class="node"><title>Node3</title>
<a xlink:href="AbstractComposite_8hh.html" target="_top" xlink:title="AbstractComposite.hh">
<polygon fill="white" stroke="black" points="0,-56.5 0,-75.5 114,-75.5 114,-56.5 0,-56.5"/>
<text text-anchor="middle" x="57" y="-63.5" font-family="Helvetica,sans-Serif" font-size="10.00">AbstractComposite.hh</text>
</a>
</g>
<!-- Node2&#45;&gt;Node3 -->
<g id="edge4" class="edge"><title>Node2&#45;&gt;Node3</title>
<path fill="none" stroke="midnightblue" d="M95.7181,-224.453C78.7059,-217.548 58.1749,-205.971 48,-188 29.6472,-155.585 40.943,-110.218 49.6846,-85.2585"/>
<polygon fill="midnightblue" stroke="midnightblue" points="53.0624,-86.2189 53.2933,-75.6266 46.5073,-83.763 53.0624,-86.2189"/>
</g>
<!-- Node4 -->
<g id="node7" class="node"><title>Node4</title>
<polygon fill="white" stroke="#bfbfbf" points="252,-0.5 252,-19.5 296,-19.5 296,-0.5 252,-0.5"/>
<text text-anchor="middle" x="274" y="-7.5" font-family="Helvetica,sans-Serif" font-size="10.00">vector</text>
</g>
<!-- Node3&#45;&gt;Node4 -->
<g id="edge6" class="edge"><title>Node3&#45;&gt;Node4</title>
<path fill="none" stroke="midnightblue" d="M91.3843,-56.4435C132.721,-46.157 201.551,-29.0289 241.861,-18.9978"/>
<polygon fill="midnightblue" stroke="midnightblue" points="242.843,-22.3601 251.702,-16.5488 241.153,-15.5673 242.843,-22.3601"/>
</g>
<!-- Node6 -->
<g id="node11" class="node"><title>Node6</title>
<a xlink:href="Client_8hh.html" target="_top" xlink:title="Client.hh">
<polygon fill="white" stroke="black" points="202,-336.5 202,-355.5 258,-355.5 258,-336.5 202,-336.5"/>
<text text-anchor="middle" x="230" y="-343.5" font-family="Helvetica,sans-Serif" font-size="10.00">Client.hh</text>
</a>
</g>
<!-- Node5&#45;&gt;Node6 -->
<g id="edge10" class="edge"><title>Node5&#45;&gt;Node6</title>
<path fill="none" stroke="midnightblue" d="M230,-392.083C230,-385.006 230,-374.861 230,-365.986"/>
<polygon fill="midnightblue" stroke="midnightblue" points="233.5,-365.751 230,-355.751 226.5,-365.751 233.5,-365.751"/>
</g>
<!-- Node7 -->
<g id="node13" class="node"><title>Node7</title>
<a xlink:href="BaseClient_8hh.html" target="_top" xlink:title="BaseClient.hh">
<polygon fill="white" stroke="black" points="428,-280.5 428,-299.5 506,-299.5 506,-280.5 428,-280.5"/>
<text text-anchor="middle" x="467" y="-287.5" font-family="Helvetica,sans-Serif" font-size="10.00">BaseClient.hh</text>
</a>
</g>
<!-- Node6&#45;&gt;Node7 -->
<g id="edge12" class="edge"><title>Node6&#45;&gt;Node7</title>
<path fill="none" stroke="midnightblue" d="M258.118,-338.593C297.954,-329.517 371.342,-312.796 419.66,-301.786"/>
<polygon fill="midnightblue" stroke="midnightblue" points="420.597,-305.163 429.569,-299.529 419.042,-298.338 420.597,-305.163"/>
</g>
<!-- Node20 -->
<g id="node51" class="node"><title>Node20</title>
<a xlink:href="AbstractItemGenerator_8hh.html" target="_top" xlink:title="AbstractItemGenerator.hh">
<polygon fill="white" stroke="black" points="158.5,-280.5 158.5,-299.5 287.5,-299.5 287.5,-280.5 158.5,-280.5"/>
<text text-anchor="middle" x="223" y="-287.5" font-family="Helvetica,sans-Serif" font-size="10.00">AbstractItemGenerator.hh</text>
</a>
</g>
<!-- Node6&#45;&gt;Node20 -->
<g id="edge62" class="edge"><title>Node6&#45;&gt;Node20</title>
<path fill="none" stroke="midnightblue" d="M228.844,-336.083C227.916,-328.927 226.582,-318.635 225.423,-309.691"/>
<polygon fill="midnightblue" stroke="midnightblue" points="228.891,-309.218 224.134,-299.751 221.949,-310.118 228.891,-309.218"/>
</g>
<!-- Node8 -->
<g id="node15" class="node"><title>Node8</title>
<a xlink:href="Listener_8hh.html" target="_top" xlink:title="Listener.hh">
<polygon fill="white" stroke="black" points="323.5,-224.5 323.5,-243.5 388.5,-243.5 388.5,-224.5 323.5,-224.5"/>
<text text-anchor="middle" x="356" y="-231.5" font-family="Helvetica,sans-Serif" font-size="10.00">Listener.hh</text>
</a>
</g>
<!-- Node7&#45;&gt;Node8 -->
<g id="edge14" class="edge"><title>Node7&#45;&gt;Node8</title>
<path fill="none" stroke="midnightblue" d="M449.166,-280.324C431.284,-271.625 403.525,-258.12 382.954,-248.113"/>
<polygon fill="midnightblue" stroke="midnightblue" points="384.313,-244.882 373.79,-243.655 381.251,-251.177 384.313,-244.882"/>
</g>
<!-- Node15 -->
<g id="node30" class="node"><title>Node15</title>
<a xlink:href="Connection_8hh.html" target="_top" xlink:title="Connection.hh">
<polygon fill="white" stroke="black" points="328,-112.5 328,-131.5 408,-131.5 408,-112.5 328,-112.5"/>
<text text-anchor="middle" x="368" y="-119.5" font-family="Helvetica,sans-Serif" font-size="10.00">Connection.hh</text>
</a>
</g>
<!-- Node7&#45;&gt;Node15 -->
<g id="edge52" class="edge"><title>Node7&#45;&gt;Node15</title>
<path fill="none" stroke="midnightblue" d="M486.059,-280.383C526.371,-261.006 613.754,-212.227 578,-168 567.966,-155.588 477.415,-139.649 418.539,-130.453"/>
<polygon fill="midnightblue" stroke="midnightblue" points="418.718,-126.94 408.301,-128.872 417.65,-133.858 418.718,-126.94"/>
</g>
<!-- Node18 -->
<g id="node45" class="node"><title>Node18</title>
<a xlink:href="Query_8hh.html" target="_top" xlink:title="Query.hh">
<polygon fill="white" stroke="black" points="464,-112.5 464,-131.5 520,-131.5 520,-112.5 464,-112.5"/>
<text text-anchor="middle" x="492" y="-119.5" font-family="Helvetica,sans-Serif" font-size="10.00">Query.hh</text>
</a>
</g>
<!-- Node7&#45;&gt;Node18 -->
<g id="edge54" class="edge"><title>Node7&#45;&gt;Node18</title>
<path fill="none" stroke="midnightblue" d="M506.315,-288.714C540.157,-286.119 587.185,-276.393 611,-244 631.008,-216.786 630.201,-195.789 611,-168 592.964,-141.897 557.7,-130.919 530.221,-126.311"/>
<polygon fill="midnightblue" stroke="midnightblue" points="530.524,-122.818 520.123,-124.839 529.514,-129.745 530.524,-122.818"/>
</g>
<!-- Node9 -->
<g id="node17" class="node"><title>Node9</title>
<polygon fill="white" stroke="#bfbfbf" points="239,-56.5 239,-75.5 309,-75.5 309,-56.5 239,-56.5"/>
<text text-anchor="middle" x="274" y="-63.5" font-family="Helvetica,sans-Serif" font-size="10.00">mpd/client.h</text>
</g>
<!-- Node8&#45;&gt;Node9 -->
<g id="edge16" class="edge"><title>Node8&#45;&gt;Node9</title>
<path fill="none" stroke="midnightblue" d="M361.053,-224.103C368.232,-211.522 381.863,-187.851 394,-168 403.904,-151.801 411.675,-150.225 417,-132 419.493,-123.468 422.258,-119.167 417,-112 410.915,-103.706 357.804,-88.4928 318.073,-78.0705"/>
<polygon fill="midnightblue" stroke="midnightblue" points="318.856,-74.6577 308.297,-75.5311 317.096,-81.4329 318.856,-74.6577"/>
</g>
<!-- Node10 -->
<g id="node19" class="node"><title>Node10</title>
<polygon fill="white" stroke="#bfbfbf" points="403.5,-168.5 403.5,-187.5 476.5,-187.5 476.5,-168.5 403.5,-168.5"/>
<text text-anchor="middle" x="440" y="-175.5" font-family="Helvetica,sans-Serif" font-size="10.00">mpd/async.h</text>
</g>
<!-- Node8&#45;&gt;Node10 -->
<g id="edge18" class="edge"><title>Node8&#45;&gt;Node10</title>
<path fill="none" stroke="midnightblue" d="M369.496,-224.324C382.6,-215.9 402.712,-202.971 418.107,-193.074"/>
<polygon fill="midnightblue" stroke="midnightblue" points="420.018,-196.006 426.537,-187.655 416.233,-190.118 420.018,-196.006"/>
</g>
<!-- Node11 -->
<g id="node21" class="node"><title>Node11</title>
<polygon fill="white" stroke="#bfbfbf" points="495,-168.5 495,-187.5 569,-187.5 569,-168.5 495,-168.5"/>
<text text-anchor="middle" x="532" y="-175.5" font-family="Helvetica,sans-Serif" font-size="10.00">mpd/parser.h</text>
</g>
<!-- Node8&#45;&gt;Node11 -->
<g id="edge20" class="edge"><title>Node8&#45;&gt;Node11</title>
<path fill="none" stroke="midnightblue" d="M383.888,-224.444C413.754,-215.28 461.315,-200.688 494.456,-190.519"/>
<polygon fill="midnightblue" stroke="midnightblue" points="495.709,-193.796 504.243,-187.516 493.656,-187.104 495.709,-193.796"/>
</g>
<!-- Node12 -->
<g id="node23" class="node"><title>Node12</title>
<polygon fill="white" stroke="#bfbfbf" points="132,-56.5 132,-75.5 188,-75.5 188,-56.5 132,-56.5"/>
<text text-anchor="middle" x="160" y="-63.5" font-family="Helvetica,sans-Serif" font-size="10.00">glibmm.h</text>
</g>
<!-- Node8&#45;&gt;Node12 -->
<g id="edge22" class="edge"><title>Node8&#45;&gt;Node12</title>
<path fill="none" stroke="midnightblue" d="M323.39,-232.653C262.715,-229.995 133.854,-214.416 81,-132 66.4625,-109.331 96.8581,-90.7133 124.061,-79.2999"/>
<polygon fill="midnightblue" stroke="midnightblue" points="125.465,-82.5082 133.471,-75.5684 122.885,-76.0012 125.465,-82.5082"/>
</g>
<!-- Node13 -->
<g id="node25" class="node"><title>Node13</title>
<a xlink:href="Status_8hh.html" target="_top" xlink:title="Status.hh">
<polygon fill="white" stroke="black" points="161.5,-112.5 161.5,-131.5 220.5,-131.5 220.5,-112.5 161.5,-112.5"/>
<text text-anchor="middle" x="191" y="-119.5" font-family="Helvetica,sans-Serif" font-size="10.00">Status.hh</text>
</a>
</g>
<!-- Node8&#45;&gt;Node13 -->
<g id="edge24" class="edge"><title>Node8&#45;&gt;Node13</title>
<path fill="none" stroke="midnightblue" d="M323.467,-229.338C293.87,-224.47 250.566,-213.302 222,-188 208.277,-175.845 200.105,-156.291 195.626,-141.8"/>
<polygon fill="midnightblue" stroke="midnightblue" points="198.93,-140.618 192.891,-131.913 192.184,-142.484 198.93,-140.618"/>
</g>
<!-- Node14 -->
<g id="node28" class="node"><title>Node14</title>
<a xlink:href="NotifyData_8hh.html" target="_top" xlink:title="NotifyData.hh">
<polygon fill="white" stroke="black" points="231.5,-168.5 231.5,-187.5 308.5,-187.5 308.5,-168.5 231.5,-168.5"/>
<text text-anchor="middle" x="270" y="-175.5" font-family="Helvetica,sans-Serif" font-size="10.00">NotifyData.hh</text>
</a>
</g>
<!-- Node8&#45;&gt;Node14 -->
<g id="edge28" class="edge"><title>Node8&#45;&gt;Node14</title>
<path fill="none" stroke="midnightblue" d="M342.183,-224.324C328.767,-215.9 308.176,-202.971 292.414,-193.074"/>
<polygon fill="midnightblue" stroke="midnightblue" points="294.113,-190.008 283.783,-187.655 290.391,-195.936 294.113,-190.008"/>
</g>
<!-- Node8&#45;&gt;Node15 -->
<g id="edge50" class="edge"><title>Node8&#45;&gt;Node15</title>
<path fill="none" stroke="midnightblue" d="M356.463,-224.148C357.167,-211.62 358.677,-188.012 361,-168 362.015,-159.253 363.472,-149.599 364.794,-141.484"/>
<polygon fill="midnightblue" stroke="midnightblue" points="368.249,-142.042 366.459,-131.6 361.346,-140.879 368.249,-142.042"/>
</g>
<!-- Node13&#45;&gt;Node9 -->
<g id="edge26" class="edge"><title>Node13&#45;&gt;Node9</title>
<path fill="none" stroke="midnightblue" d="M204.335,-112.324C217.162,-103.979 236.785,-91.2122 251.94,-81.3524"/>
<polygon fill="midnightblue" stroke="midnightblue" points="254.224,-84.0417 260.698,-75.6545 250.407,-78.1742 254.224,-84.0417"/>
</g>
<!-- Node14&#45;&gt;Node13 -->
<g id="edge40" class="edge"><title>Node14&#45;&gt;Node13</title>
<path fill="none" stroke="midnightblue" d="M257.307,-168.324C245.099,-159.979 226.422,-147.212 211.997,-137.352"/>
<polygon fill="midnightblue" stroke="midnightblue" points="213.892,-134.408 203.661,-131.655 209.942,-140.187 213.892,-134.408"/>
</g>
<!-- Node14&#45;&gt;Node15 -->
<g id="edge30" class="edge"><title>Node14&#45;&gt;Node15</title>
<path fill="none" stroke="midnightblue" d="M285.745,-168.324C301.319,-159.743 325.377,-146.486 343.459,-136.522"/>
<polygon fill="midnightblue" stroke="midnightblue" points="345.224,-139.546 352.294,-131.655 341.846,-133.415 345.224,-139.546"/>
</g>
<!-- Node16 -->
<g id="node34" class="node"><title>Node16</title>
<a xlink:href="Statistics_8hh.html" target="_top" xlink:title="Statistics.hh">
<polygon fill="white" stroke="black" points="238.5,-112.5 238.5,-131.5 309.5,-131.5 309.5,-112.5 238.5,-112.5"/>
<text text-anchor="middle" x="274" y="-119.5" font-family="Helvetica,sans-Serif" font-size="10.00">Statistics.hh</text>
</a>
</g>
<!-- Node14&#45;&gt;Node16 -->
<g id="edge36" class="edge"><title>Node14&#45;&gt;Node16</title>
<path fill="none" stroke="midnightblue" d="M270.661,-168.083C271.185,-161.006 271.936,-150.861 272.594,-141.986"/>
<polygon fill="midnightblue" stroke="midnightblue" points="276.103,-141.982 273.352,-131.751 269.123,-141.465 276.103,-141.982"/>
</g>
<!-- Node17 -->
<g id="node38" class="node"><title>Node17</title>
<a xlink:href="Song_8hh.html" target="_top" xlink:title="Song.hh">
<polygon fill="white" stroke="black" points="90.5,-112.5 90.5,-131.5 143.5,-131.5 143.5,-112.5 90.5,-112.5"/>
<text text-anchor="middle" x="117" y="-119.5" font-family="Helvetica,sans-Serif" font-size="10.00">Song.hh</text>
</a>
</g>
<!-- Node14&#45;&gt;Node17 -->
<g id="edge42" class="edge"><title>Node14&#45;&gt;Node17</title>
<path fill="none" stroke="midnightblue" d="M245.757,-168.444C220.129,-159.399 179.515,-145.064 150.762,-134.916"/>
<polygon fill="midnightblue" stroke="midnightblue" points="151.725,-131.544 141.13,-131.516 149.395,-138.145 151.725,-131.544"/>
</g>
<!-- Node15&#45;&gt;Node9 -->
<g id="edge32" class="edge"><title>Node15&#45;&gt;Node9</title>
<path fill="none" stroke="midnightblue" d="M352.897,-112.324C338.097,-103.822 315.306,-90.7288 298.018,-80.7975"/>
<polygon fill="midnightblue" stroke="midnightblue" points="299.48,-77.6009 289.065,-75.6545 295.993,-83.6707 299.48,-77.6009"/>
</g>
<!-- Node15&#45;&gt;Node12 -->
<g id="edge34" class="edge"><title>Node15&#45;&gt;Node12</title>
<path fill="none" stroke="midnightblue" d="M335.042,-112.444C297.738,-102.759 237.075,-87.0098 197.859,-76.8287"/>
<polygon fill="midnightblue" stroke="midnightblue" points="198.693,-73.4294 188.135,-74.3042 196.934,-80.2048 198.693,-73.4294"/>
</g>
<!-- Node16&#45;&gt;Node9 -->
<g id="edge38" class="edge"><title>Node16&#45;&gt;Node9</title>
<path fill="none" stroke="midnightblue" d="M274,-112.083C274,-105.006 274,-94.8611 274,-85.9865"/>
<polygon fill="midnightblue" stroke="midnightblue" points="277.5,-85.751 274,-75.7511 270.5,-85.7511 277.5,-85.751"/>
</g>
<!-- Node17&#45;&gt;Node3 -->
<g id="edge46" class="edge"><title>Node17&#45;&gt;Node3</title>
<path fill="none" stroke="midnightblue" d="M107.36,-112.324C98.4904,-104.341 85.1253,-92.3128 74.3921,-82.6529"/>
<polygon fill="midnightblue" stroke="midnightblue" points="76.5898,-79.922 66.8154,-75.8339 71.907,-85.1251 76.5898,-79.922"/>
</g>
<!-- Node17&#45;&gt;Node9 -->
<g id="edge44" class="edge"><title>Node17&#45;&gt;Node9</title>
<path fill="none" stroke="midnightblue" d="M141.877,-112.444C168.289,-103.359 210.215,-88.9388 239.742,-78.7831"/>
<polygon fill="midnightblue" stroke="midnightblue" points="240.921,-82.0787 249.239,-75.5164 238.645,-75.4593 240.921,-82.0787"/>
</g>
<!-- Node17&#45;&gt;Node12 -->
<g id="edge48" class="edge"><title>Node17&#45;&gt;Node12</title>
<path fill="none" stroke="midnightblue" d="M124.101,-112.083C130.237,-104.377 139.27,-93.0333 146.739,-83.6531"/>
<polygon fill="midnightblue" stroke="midnightblue" points="149.54,-85.7542 153.032,-75.7511 144.064,-81.3936 149.54,-85.7542"/>
</g>
<!-- Node18&#45;&gt;Node4 -->
<g id="edge58" class="edge"><title>Node18&#45;&gt;Node4</title>
<path fill="none" stroke="midnightblue" d="M492.089,-112.437C491.744,-98.5032 488.935,-70.9763 473,-56 449.144,-33.5793 355.982,-20.0748 306.041,-14.3001"/>
<polygon fill="midnightblue" stroke="midnightblue" points="306.408,-10.8194 296.081,-13.1848 305.629,-17.7759 306.408,-10.8194"/>
</g>
<!-- Node18&#45;&gt;Node9 -->
<g id="edge56" class="edge"><title>Node18&#45;&gt;Node9</title>
<path fill="none" stroke="midnightblue" d="M463.947,-114.051C427.033,-104.907 361.745,-88.7349 318.169,-77.9411"/>
<polygon fill="midnightblue" stroke="midnightblue" points="318.954,-74.5296 308.406,-75.5225 317.271,-81.3243 318.954,-74.5296"/>
</g>
<!-- Node19 -->
<g id="node49" class="node"><title>Node19</title>
<a xlink:href="AbstractClientExtension_8hh.html" target="_top" xlink:title="AbstractClientExtension.hh">
<polygon fill="white" stroke="black" points="328,-56.5 328,-75.5 464,-75.5 464,-56.5 328,-56.5"/>
<text text-anchor="middle" x="396" y="-63.5" font-family="Helvetica,sans-Serif" font-size="10.00">AbstractClientExtension.hh</text>
</a>
</g>
<!-- Node18&#45;&gt;Node19 -->
<g id="edge60" class="edge"><title>Node18&#45;&gt;Node19</title>
<path fill="none" stroke="midnightblue" d="M476.576,-112.324C461.46,-103.822 438.185,-90.7288 420.529,-80.7975"/>
<polygon fill="midnightblue" stroke="midnightblue" points="421.817,-77.5066 411.386,-75.6545 418.386,-83.6077 421.817,-77.5066"/>
</g>
<!-- Node20&#45;&gt;Node2 -->
<g id="edge64" class="edge"><title>Node20&#45;&gt;Node2</title>
<path fill="none" stroke="midnightblue" d="M206.933,-280.324C191.042,-271.743 166.493,-258.486 148.042,-248.522"/>
<polygon fill="midnightblue" stroke="midnightblue" points="149.489,-245.326 139.027,-243.655 146.163,-251.486 149.489,-245.326"/>
</g>
<!-- Node21&#45;&gt;Node22 -->
<g id="edge68" class="edge"><title>Node21&#45;&gt;Node22</title>
<path fill="none" stroke="midnightblue" d="M396.431,-392.083C402.853,-384.377 412.306,-373.033 420.122,-363.653"/>
<polygon fill="midnightblue" stroke="midnightblue" points="422.994,-365.674 426.707,-355.751 417.617,-361.193 422.994,-365.674"/>
</g>
</g>
</svg>
