<?xml version="1.0" encoding="UTF-8" standalone="no"?>
<!DOCTYPE svg PUBLIC "-//W3C//DTD SVG 1.1//EN"
 "http://www.w3.org/Graphics/SVG/1.1/DTD/svg11.dtd">
<!-- Generated by graphviz version 2.28.0 (20120217.0315)
 -->
<!-- Title: G Pages: 1 -->
<svg width="1099pt" height="588pt"
 viewBox="0.00 0.00 1099.00 588.00" xmlns="http://www.w3.org/2000/svg" xmlns:xlink="http://www.w3.org/1999/xlink">
<g id="graph1" class="graph" transform="scale(1 1) rotate(0) translate(4 584)">
<title>G</title>
<polygon fill="white" stroke="white" points="-4,5 -4,-584 1096,-584 1096,5 -4,5"/>
<!-- Node1 -->
<g id="node1" class="node"><title>Node1</title>
<polygon fill="#bfbfbf" stroke="black" points="660,-560.5 660,-579.5 806,-579.5 806,-560.5 660,-560.5"/>
<text text-anchor="middle" x="733" y="-567.5" font-family="Helvetica,sans-Serif" font-size="10.00">src/Browser/Queue/Queue.hh</text>
</g>
<!-- Node2 -->
<g id="node3" class="node"><title>Node2</title>
<polygon fill="white" stroke="#bfbfbf" points="779.5,-336.5 779.5,-355.5 834.5,-355.5 834.5,-336.5 779.5,-336.5"/>
<text text-anchor="middle" x="807" y="-343.5" font-family="Helvetica,sans-Serif" font-size="10.00">gtkmm.h</text>
</g>
<!-- Node1&#45;&gt;Node2 -->
<g id="edge2" class="edge"><title>Node1&#45;&gt;Node2</title>
<path fill="none" stroke="midnightblue" d="M806.172,-564.861C873.439,-559.587 966.729,-548.083 994,-524 1013.5,-506.783 1007.18,-493.729 1011,-468 1016.67,-429.826 1000.87,-413.763 969,-392 931.534,-366.417 879.849,-355.311 845.019,-350.533"/>
<polygon fill="midnightblue" stroke="midnightblue" points="845.145,-347.021 834.786,-349.245 844.27,-353.967 845.145,-347.021"/>
</g>
<!-- Node3 -->
<g id="node5" class="node"><title>Node3</title>
<a xlink:href="AbstractItemlist_8hh.html" target="_top" xlink:title="../../MPD/AbstractItemlist.hh">
<polygon fill="white" stroke="black" points="565.5,-224.5 565.5,-243.5 708.5,-243.5 708.5,-224.5 565.5,-224.5"/>
<text text-anchor="middle" x="637" y="-231.5" font-family="Helvetica,sans-Serif" font-size="10.00">../../MPD/AbstractItemlist.hh</text>
</a>
</g>
<!-- Node1&#45;&gt;Node3 -->
<g id="edge4" class="edge"><title>Node1&#45;&gt;Node3</title>
<path fill="none" stroke="midnightblue" d="M806.256,-568.133C865.114,-564.942 948.618,-554.677 1015,-524 1055.35,-505.355 1091,-503.447 1091,-459 1091,-459 1091,-459 1091,-345 1091,-269.345 849.859,-245.538 719.064,-238.19"/>
<polygon fill="midnightblue" stroke="midnightblue" points="718.862,-234.674 708.687,-237.628 718.483,-241.664 718.862,-234.674"/>
</g>
<!-- Node6 -->
<g id="node11" class="node"><title>Node6</title>
<a xlink:href="AbstractClientUser_8hh.html" target="_top" xlink:title="../../MPD/AbstractClientUser.hh">
<polygon fill="white" stroke="black" points="408.5,-392.5 408.5,-411.5 565.5,-411.5 565.5,-392.5 408.5,-392.5"/>
<text text-anchor="middle" x="487" y="-399.5" font-family="Helvetica,sans-Serif" font-size="10.00">../../MPD/AbstractClientUser.hh</text>
</a>
</g>
<!-- Node1&#45;&gt;Node6 -->
<g id="edge10" class="edge"><title>Node1&#45;&gt;Node6</title>
<path fill="none" stroke="midnightblue" d="M659.969,-562.789C598.685,-553.254 514.808,-529.108 474,-468 464.64,-453.984 470.244,-434.731 476.754,-420.821"/>
<polygon fill="midnightblue" stroke="midnightblue" points="479.943,-422.274 481.453,-411.788 473.733,-419.044 479.943,-422.274"/>
</g>
<!-- Node7 -->
<g id="node13" class="node"><title>Node7</title>
<a xlink:href="Client_8hh.html" target="_top" xlink:title="Client.hh">
<polygon fill="white" stroke="black" points="314,-336.5 314,-355.5 370,-355.5 370,-336.5 314,-336.5"/>
<text text-anchor="middle" x="342" y="-343.5" font-family="Helvetica,sans-Serif" font-size="10.00">Client.hh</text>
</a>
</g>
<!-- Node1&#45;&gt;Node7 -->
<g id="edge68" class="edge"><title>Node1&#45;&gt;Node7</title>
<path fill="none" stroke="midnightblue" d="M659.714,-566.519C593.067,-562.469 492.777,-551.841 410,-524 361.719,-507.761 335.758,-511.946 310,-468 290.309,-434.404 313.869,-388.548 329.775,-364.061"/>
<polygon fill="midnightblue" stroke="midnightblue" points="332.855,-365.755 335.585,-355.518 327.067,-361.819 332.855,-365.755"/>
</g>
<!-- Node22 -->
<g id="node57" class="node"><title>Node22</title>
<a xlink:href="QueuePopup_8hh.html" target="_top" xlink:title="QueuePopup.hh">
<polygon fill="white" stroke="black" points="899,-504.5 899,-523.5 985,-523.5 985,-504.5 899,-504.5"/>
<text text-anchor="middle" x="942" y="-511.5" font-family="Helvetica,sans-Serif" font-size="10.00">QueuePopup.hh</text>
</a>
</g>
<!-- Node1&#45;&gt;Node22 -->
<g id="edge70" class="edge"><title>Node1&#45;&gt;Node22</title>
<path fill="none" stroke="midnightblue" d="M766.117,-560.444C802.118,-551.142 859.77,-536.246 899.186,-526.062"/>
<polygon fill="midnightblue" stroke="midnightblue" points="900.232,-529.407 909.038,-523.516 898.481,-522.629 900.232,-529.407"/>
</g>
<!-- Node25 -->
<g id="node65" class="node"><title>Node25</title>
<a xlink:href="QueueMerger_8hh.html" target="_top" xlink:title="QueueMerger.hh">
<polygon fill="white" stroke="black" points="483.5,-448.5 483.5,-467.5 572.5,-467.5 572.5,-448.5 483.5,-448.5"/>
<text text-anchor="middle" x="528" y="-455.5" font-family="Helvetica,sans-Serif" font-size="10.00">QueueMerger.hh</text>
</a>
</g>
<!-- Node1&#45;&gt;Node25 -->
<g id="edge80" class="edge"><title>Node1&#45;&gt;Node25</title>
<path fill="none" stroke="midnightblue" d="M716.914,-560.368C681.287,-541.251 595.518,-495.229 552.9,-472.361"/>
<polygon fill="midnightblue" stroke="midnightblue" points="554.478,-469.236 544.011,-467.591 551.168,-475.404 554.478,-469.236"/>
</g>
<!-- Node26 -->
<g id="node69" class="node"><title>Node26</title>
<a xlink:href="QueueModelColumns_8hh.html" target="_top" xlink:title="QueueModelColumns.hh">
<polygon fill="white" stroke="black" points="683,-392.5 683,-411.5 807,-411.5 807,-392.5 683,-392.5"/>
<text text-anchor="middle" x="745" y="-399.5" font-family="Helvetica,sans-Serif" font-size="10.00">QueueModelColumns.hh</text>
</a>
</g>
<!-- Node1&#45;&gt;Node26 -->
<g id="edge92" class="edge"><title>Node1&#45;&gt;Node26</title>
<path fill="none" stroke="midnightblue" d="M751.782,-560.426C766.276,-552.857 785.702,-540.463 797,-524 811.517,-502.848 807.865,-493.463 811,-468 812.086,-459.178 815.153,-455.859 811,-448 803.576,-433.953 789.579,-423.467 776.379,-416.167"/>
<polygon fill="midnightblue" stroke="midnightblue" points="777.957,-413.043 767.459,-411.618 774.777,-419.279 777.957,-413.043"/>
</g>
<!-- Node27 -->
<g id="node74" class="node"><title>Node27</title>
<a xlink:href="PlaylistAddDialog_8hh.html" target="_top" xlink:title="PlaylistAddDialog.hh">
<polygon fill="white" stroke="black" points="319.5,-448.5 319.5,-467.5 426.5,-467.5 426.5,-448.5 319.5,-448.5"/>
<text text-anchor="middle" x="373" y="-455.5" font-family="Helvetica,sans-Serif" font-size="10.00">PlaylistAddDialog.hh</text>
</a>
</g>
<!-- Node1&#45;&gt;Node27 -->
<g id="edge94" class="edge"><title>Node1&#45;&gt;Node27</title>
<path fill="none" stroke="midnightblue" d="M659.897,-562.782C586.293,-555.629 478.44,-542.451 441,-524 418.223,-512.775 398.029,-491.208 385.683,-476.002"/>
<polygon fill="midnightblue" stroke="midnightblue" points="388.276,-473.635 379.361,-467.91 382.76,-477.945 388.276,-473.635"/>
</g>
<!-- Node28 -->
<g id="node79" class="node"><title>Node28</title>
<a xlink:href="AbstractBrowser_8hh.html" target="_top" xlink:title="../AbstractBrowser.hh">
<polygon fill="white" stroke="black" points="677,-504.5 677,-523.5 789,-523.5 789,-504.5 677,-504.5"/>
<text text-anchor="middle" x="733" y="-511.5" font-family="Helvetica,sans-Serif" font-size="10.00">../AbstractBrowser.hh</text>
</a>
</g>
<!-- Node1&#45;&gt;Node28 -->
<g id="edge102" class="edge"><title>Node1&#45;&gt;Node28</title>
<path fill="none" stroke="midnightblue" d="M733,-560.083C733,-553.006 733,-542.861 733,-533.986"/>
<polygon fill="midnightblue" stroke="midnightblue" points="736.5,-533.751 733,-523.751 729.5,-533.751 736.5,-533.751"/>
</g>
<!-- Node4 -->
<g id="node7" class="node"><title>Node4</title>
<a xlink:href="AbstractComposite_8hh.html" target="_top" xlink:title="AbstractComposite.hh">
<polygon fill="white" stroke="black" points="434,-56.5 434,-75.5 548,-75.5 548,-56.5 434,-56.5"/>
<text text-anchor="middle" x="491" y="-63.5" font-family="Helvetica,sans-Serif" font-size="10.00">AbstractComposite.hh</text>
</a>
</g>
<!-- Node3&#45;&gt;Node4 -->
<g id="edge6" class="edge"><title>Node3&#45;&gt;Node4</title>
<path fill="none" stroke="midnightblue" d="M629.15,-224.075C605.671,-197.38 535.737,-117.865 505.355,-83.3218"/>
<polygon fill="midnightblue" stroke="midnightblue" points="507.768,-80.7656 498.536,-75.5681 502.512,-85.3886 507.768,-80.7656"/>
</g>
<!-- Node5 -->
<g id="node9" class="node"><title>Node5</title>
<polygon fill="white" stroke="#bfbfbf" points="315,-0.5 315,-19.5 359,-19.5 359,-0.5 315,-0.5"/>
<text text-anchor="middle" x="337" y="-7.5" font-family="Helvetica,sans-Serif" font-size="10.00">vector</text>
</g>
<!-- Node4&#45;&gt;Node5 -->
<g id="edge8" class="edge"><title>Node4&#45;&gt;Node5</title>
<path fill="none" stroke="midnightblue" d="M466.598,-56.4435C440.196,-47.1858 397.991,-32.3866 368.96,-22.2066"/>
<polygon fill="midnightblue" stroke="midnightblue" points="369.882,-18.8213 359.288,-18.8151 367.566,-25.427 369.882,-18.8213"/>
</g>
<!-- Node6&#45;&gt;Node7 -->
<g id="edge12" class="edge"><title>Node6&#45;&gt;Node7</title>
<path fill="none" stroke="midnightblue" d="M464.024,-392.444C439.843,-383.438 401.582,-369.189 374.354,-359.049"/>
<polygon fill="midnightblue" stroke="midnightblue" points="375.461,-355.727 364.868,-355.516 373.018,-362.286 375.461,-355.727"/>
</g>
<!-- Node8 -->
<g id="node15" class="node"><title>Node8</title>
<a xlink:href="BaseClient_8hh.html" target="_top" xlink:title="BaseClient.hh">
<polygon fill="white" stroke="black" points="293,-280.5 293,-299.5 371,-299.5 371,-280.5 293,-280.5"/>
<text text-anchor="middle" x="332" y="-287.5" font-family="Helvetica,sans-Serif" font-size="10.00">BaseClient.hh</text>
</a>
</g>
<!-- Node7&#45;&gt;Node8 -->
<g id="edge14" class="edge"><title>Node7&#45;&gt;Node8</title>
<path fill="none" stroke="midnightblue" d="M340.349,-336.083C339.024,-328.927 337.118,-318.635 335.461,-309.691"/>
<polygon fill="midnightblue" stroke="midnightblue" points="338.883,-308.947 333.621,-299.751 332,-310.221 338.883,-308.947"/>
</g>
<!-- Node21 -->
<g id="node53" class="node"><title>Node21</title>
<a xlink:href="AbstractItemGenerator_8hh.html" target="_top" xlink:title="AbstractItemGenerator.hh">
<polygon fill="white" stroke="black" points="400.5,-280.5 400.5,-299.5 529.5,-299.5 529.5,-280.5 400.5,-280.5"/>
<text text-anchor="middle" x="465" y="-287.5" font-family="Helvetica,sans-Serif" font-size="10.00">AbstractItemGenerator.hh</text>
</a>
</g>
<!-- Node7&#45;&gt;Node21 -->
<g id="edge64" class="edge"><title>Node7&#45;&gt;Node21</title>
<path fill="none" stroke="midnightblue" d="M361.49,-336.444C381.642,-327.596 413.323,-313.687 436.331,-303.586"/>
<polygon fill="midnightblue" stroke="midnightblue" points="437.852,-306.741 445.601,-299.516 435.038,-300.332 437.852,-306.741"/>
</g>
<!-- Node9 -->
<g id="node17" class="node"><title>Node9</title>
<a xlink:href="Listener_8hh.html" target="_top" xlink:title="Listener.hh">
<polygon fill="white" stroke="black" points="279.5,-224.5 279.5,-243.5 344.5,-243.5 344.5,-224.5 279.5,-224.5"/>
<text text-anchor="middle" x="312" y="-231.5" font-family="Helvetica,sans-Serif" font-size="10.00">Listener.hh</text>
</a>
</g>
<!-- Node8&#45;&gt;Node9 -->
<g id="edge16" class="edge"><title>Node8&#45;&gt;Node9</title>
<path fill="none" stroke="midnightblue" d="M328.697,-280.083C326.018,-272.849 322.151,-262.409 318.814,-253.397"/>
<polygon fill="midnightblue" stroke="midnightblue" points="321.996,-251.913 315.241,-243.751 315.432,-254.344 321.996,-251.913"/>
</g>
<!-- Node16 -->
<g id="node32" class="node"><title>Node16</title>
<a xlink:href="Connection_8hh.html" target="_top" xlink:title="Connection.hh">
<polygon fill="white" stroke="black" points="391,-112.5 391,-131.5 471,-131.5 471,-112.5 391,-112.5"/>
<text text-anchor="middle" x="431" y="-119.5" font-family="Helvetica,sans-Serif" font-size="10.00">Connection.hh</text>
</a>
</g>
<!-- Node8&#45;&gt;Node16 -->
<g id="edge54" class="edge"><title>Node8&#45;&gt;Node16</title>
<path fill="none" stroke="midnightblue" d="M356.892,-280.397C391.604,-266.886 453.189,-237.049 479,-188 488.791,-169.394 470.665,-150.295 453.955,-137.657"/>
<polygon fill="midnightblue" stroke="midnightblue" points="455.686,-134.594 445.501,-131.675 451.642,-140.308 455.686,-134.594"/>
</g>
<!-- Node19 -->
<g id="node47" class="node"><title>Node19</title>
<a xlink:href="Query_8hh.html" target="_top" xlink:title="Query.hh">
<polygon fill="white" stroke="black" points="40,-112.5 40,-131.5 96,-131.5 96,-112.5 40,-112.5"/>
<text text-anchor="middle" x="68" y="-119.5" font-family="Helvetica,sans-Serif" font-size="10.00">Query.hh</text>
</a>
</g>
<!-- Node8&#45;&gt;Node19 -->
<g id="edge56" class="edge"><title>Node8&#45;&gt;Node19</title>
<path fill="none" stroke="midnightblue" d="M301.972,-280.403C257.461,-266.548 172.999,-235.887 115,-188 98.9459,-174.745 85.6137,-154.804 77.2994,-140.506"/>
<polygon fill="midnightblue" stroke="midnightblue" points="80.2967,-138.695 72.3732,-131.661 74.1811,-142.101 80.2967,-138.695"/>
</g>
<!-- Node10 -->
<g id="node19" class="node"><title>Node10</title>
<polygon fill="white" stroke="#bfbfbf" points="220,-56.5 220,-75.5 290,-75.5 290,-56.5 220,-56.5"/>
<text text-anchor="middle" x="255" y="-63.5" font-family="Helvetica,sans-Serif" font-size="10.00">mpd/client.h</text>
</g>
<!-- Node9&#45;&gt;Node10 -->
<g id="edge18" class="edge"><title>Node9&#45;&gt;Node10</title>
<path fill="none" stroke="midnightblue" d="M297.89,-224.278C285.322,-216.025 266.967,-202.733 254,-188 234.914,-166.314 228.601,-159.871 221,-132 218.661,-123.424 218.174,-120.428 221,-112 224.604,-101.251 231.903,-91.0204 238.817,-83.0378"/>
<polygon fill="midnightblue" stroke="midnightblue" points="241.477,-85.3168 245.712,-75.6053 236.345,-80.5561 241.477,-85.3168"/>
</g>
<!-- Node11 -->
<g id="node21" class="node"><title>Node11</title>
<polygon fill="white" stroke="#bfbfbf" points="397.5,-168.5 397.5,-187.5 470.5,-187.5 470.5,-168.5 397.5,-168.5"/>
<text text-anchor="middle" x="434" y="-175.5" font-family="Helvetica,sans-Serif" font-size="10.00">mpd/async.h</text>
</g>
<!-- Node9&#45;&gt;Node11 -->
<g id="edge20" class="edge"><title>Node9&#45;&gt;Node11</title>
<path fill="none" stroke="midnightblue" d="M331.331,-224.444C351.32,-215.596 382.743,-201.687 405.564,-191.586"/>
<polygon fill="midnightblue" stroke="midnightblue" points="407.032,-194.764 414.759,-187.516 404.198,-188.363 407.032,-194.764"/>
</g>
<!-- Node12 -->
<g id="node23" class="node"><title>Node12</title>
<polygon fill="white" stroke="#bfbfbf" points="133,-168.5 133,-187.5 207,-187.5 207,-168.5 133,-168.5"/>
<text text-anchor="middle" x="170" y="-175.5" font-family="Helvetica,sans-Serif" font-size="10.00">mpd/parser.h</text>
</g>
<!-- Node9&#45;&gt;Node12 -->
<g id="edge22" class="edge"><title>Node9&#45;&gt;Node12</title>
<path fill="none" stroke="midnightblue" d="M289.5,-224.444C265.923,-215.478 228.678,-201.314 202.036,-191.183"/>
<polygon fill="midnightblue" stroke="midnightblue" points="202.986,-187.8 192.395,-187.516 200.498,-194.342 202.986,-187.8"/>
</g>
<!-- Node13 -->
<g id="node25" class="node"><title>Node13</title>
<polygon fill="white" stroke="#bfbfbf" points="360,-56.5 360,-75.5 416,-75.5 416,-56.5 360,-56.5"/>
<text text-anchor="middle" x="388" y="-63.5" font-family="Helvetica,sans-Serif" font-size="10.00">glibmm.h</text>
</g>
<!-- Node9&#45;&gt;Node13 -->
<g id="edge24" class="edge"><title>Node9&#45;&gt;Node13</title>
<path fill="none" stroke="midnightblue" d="M344.853,-228.827C388.66,-222.517 462.604,-209.008 479,-188 499.784,-161.37 497.885,-140.658 480,-112 473.287,-101.243 445.498,-88.5046 422.2,-79.3312"/>
<polygon fill="midnightblue" stroke="midnightblue" points="423.156,-75.949 412.565,-75.6342 420.648,-82.4844 423.156,-75.949"/>
</g>
<!-- Node14 -->
<g id="node27" class="node"><title>Node14</title>
<a xlink:href="Status_8hh.html" target="_top" xlink:title="Status.hh">
<polygon fill="white" stroke="black" points="114.5,-112.5 114.5,-131.5 173.5,-131.5 173.5,-112.5 114.5,-112.5"/>
<text text-anchor="middle" x="144" y="-119.5" font-family="Helvetica,sans-Serif" font-size="10.00">Status.hh</text>
</a>
</g>
<!-- Node9&#45;&gt;Node14 -->
<g id="edge26" class="edge"><title>Node9&#45;&gt;Node14</title>
<path fill="none" stroke="midnightblue" d="M279.497,-229.991C230.915,-224.745 143.019,-212.109 124,-188 113.082,-174.161 121.701,-154.356 130.783,-140.251"/>
<polygon fill="midnightblue" stroke="midnightblue" points="133.745,-142.123 136.616,-131.925 128.012,-138.106 133.745,-142.123"/>
</g>
<!-- Node15 -->
<g id="node30" class="node"><title>Node15</title>
<a xlink:href="NotifyData_8hh.html" target="_top" xlink:title="NotifyData.hh">
<polygon fill="white" stroke="black" points="263.5,-168.5 263.5,-187.5 340.5,-187.5 340.5,-168.5 263.5,-168.5"/>
<text text-anchor="middle" x="302" y="-175.5" font-family="Helvetica,sans-Serif" font-size="10.00">NotifyData.hh</text>
</a>
</g>
<!-- Node9&#45;&gt;Node15 -->
<g id="edge30" class="edge"><title>Node9&#45;&gt;Node15</title>
<path fill="none" stroke="midnightblue" d="M310.349,-224.083C309.024,-216.927 307.118,-206.635 305.461,-197.691"/>
<polygon fill="midnightblue" stroke="midnightblue" points="308.883,-196.947 303.621,-187.751 302,-198.221 308.883,-196.947"/>
</g>
<!-- Node9&#45;&gt;Node16 -->
<g id="edge52" class="edge"><title>Node9&#45;&gt;Node16</title>
<path fill="none" stroke="midnightblue" d="M321.338,-224.368C341.411,-205.814 388.903,-161.913 414.299,-138.438"/>
<polygon fill="midnightblue" stroke="midnightblue" points="416.738,-140.95 421.706,-131.591 411.987,-135.809 416.738,-140.95"/>
</g>
<!-- Node14&#45;&gt;Node10 -->
<g id="edge28" class="edge"><title>Node14&#45;&gt;Node10</title>
<path fill="none" stroke="midnightblue" d="M161.834,-112.324C179.716,-103.625 207.475,-90.1202 228.046,-80.113"/>
<polygon fill="midnightblue" stroke="midnightblue" points="229.749,-83.1765 237.21,-75.6545 226.687,-76.8819 229.749,-83.1765"/>
</g>
<!-- Node15&#45;&gt;Node14 -->
<g id="edge42" class="edge"><title>Node15&#45;&gt;Node14</title>
<path fill="none" stroke="midnightblue" d="M276.964,-168.444C250.384,-159.359 208.191,-144.939 178.477,-134.783"/>
<polygon fill="midnightblue" stroke="midnightblue" points="179.513,-131.439 168.918,-131.516 177.249,-138.062 179.513,-131.439"/>
</g>
<!-- Node15&#45;&gt;Node16 -->
<g id="edge32" class="edge"><title>Node15&#45;&gt;Node16</title>
<path fill="none" stroke="midnightblue" d="M322.44,-168.444C343.67,-159.557 377.099,-145.563 401.255,-135.451"/>
<polygon fill="midnightblue" stroke="midnightblue" points="402.782,-138.606 410.655,-131.516 400.079,-132.149 402.782,-138.606"/>
</g>
<!-- Node17 -->
<g id="node36" class="node"><title>Node17</title>
<a xlink:href="Statistics_8hh.html" target="_top" xlink:title="Statistics.hh">
<polygon fill="white" stroke="black" points="230.5,-112.5 230.5,-131.5 301.5,-131.5 301.5,-112.5 230.5,-112.5"/>
<text text-anchor="middle" x="266" y="-119.5" font-family="Helvetica,sans-Serif" font-size="10.00">Statistics.hh</text>
</a>
</g>
<!-- Node15&#45;&gt;Node17 -->
<g id="edge38" class="edge"><title>Node15&#45;&gt;Node17</title>
<path fill="none" stroke="midnightblue" d="M296.055,-168.083C291.023,-160.534 283.663,-149.495 277.487,-140.23"/>
<polygon fill="midnightblue" stroke="midnightblue" points="280.293,-138.13 271.834,-131.751 274.469,-142.013 280.293,-138.13"/>
</g>
<!-- Node18 -->
<g id="node40" class="node"><title>Node18</title>
<a xlink:href="Song_8hh.html" target="_top" xlink:title="Song.hh">
<polygon fill="white" stroke="black" points="319.5,-112.5 319.5,-131.5 372.5,-131.5 372.5,-112.5 319.5,-112.5"/>
<text text-anchor="middle" x="346" y="-119.5" font-family="Helvetica,sans-Serif" font-size="10.00">Song.hh</text>
</a>
</g>
<!-- Node15&#45;&gt;Node18 -->
<g id="edge44" class="edge"><title>Node15&#45;&gt;Node18</title>
<path fill="none" stroke="midnightblue" d="M309.266,-168.083C315.545,-160.377 324.788,-149.033 332.431,-139.653"/>
<polygon fill="midnightblue" stroke="midnightblue" points="335.266,-141.714 338.869,-131.751 329.839,-137.293 335.266,-141.714"/>
</g>
<!-- Node16&#45;&gt;Node10 -->
<g id="edge34" class="edge"><title>Node16&#45;&gt;Node10</title>
<path fill="none" stroke="midnightblue" d="M403.112,-112.444C373.246,-103.28 325.685,-88.6876 292.544,-78.5192"/>
<polygon fill="midnightblue" stroke="midnightblue" points="293.344,-75.1037 282.757,-75.5164 291.291,-81.7958 293.344,-75.1037"/>
</g>
<!-- Node16&#45;&gt;Node13 -->
<g id="edge36" class="edge"><title>Node16&#45;&gt;Node13</title>
<path fill="none" stroke="midnightblue" d="M423.899,-112.083C417.763,-104.377 408.73,-93.0333 401.261,-83.6531"/>
<polygon fill="midnightblue" stroke="midnightblue" points="403.936,-81.3936 394.968,-75.7511 398.46,-85.7542 403.936,-81.3936"/>
</g>
<!-- Node17&#45;&gt;Node10 -->
<g id="edge40" class="edge"><title>Node17&#45;&gt;Node10</title>
<path fill="none" stroke="midnightblue" d="M264.184,-112.083C262.726,-104.927 260.629,-94.6353 258.807,-85.6911"/>
<polygon fill="midnightblue" stroke="midnightblue" points="262.208,-84.8512 256.783,-75.7511 255.349,-86.2485 262.208,-84.8512"/>
</g>
<!-- Node18&#45;&gt;Node4 -->
<g id="edge48" class="edge"><title>Node18&#45;&gt;Node4</title>
<path fill="none" stroke="midnightblue" d="M368.976,-112.444C393.157,-103.438 431.418,-89.1891 458.646,-79.049"/>
<polygon fill="midnightblue" stroke="midnightblue" points="459.982,-82.2864 468.132,-75.5164 457.539,-75.7265 459.982,-82.2864"/>
</g>
<!-- Node18&#45;&gt;Node10 -->
<g id="edge46" class="edge"><title>Node18&#45;&gt;Node10</title>
<path fill="none" stroke="midnightblue" d="M331.379,-112.324C317.051,-103.822 294.987,-90.7288 278.251,-80.7975"/>
<polygon fill="midnightblue" stroke="midnightblue" points="279.97,-77.7478 269.584,-75.6545 276.398,-83.7677 279.97,-77.7478"/>
</g>
<!-- Node18&#45;&gt;Node13 -->
<g id="edge50" class="edge"><title>Node18&#45;&gt;Node13</title>
<path fill="none" stroke="midnightblue" d="M352.935,-112.083C358.929,-104.377 367.752,-93.0333 375.048,-83.6531"/>
<polygon fill="midnightblue" stroke="midnightblue" points="377.817,-85.7934 381.194,-75.7511 372.291,-81.4958 377.817,-85.7934"/>
</g>
<!-- Node19&#45;&gt;Node5 -->
<g id="edge60" class="edge"><title>Node19&#45;&gt;Node5</title>
<path fill="none" stroke="midnightblue" d="M85.8494,-112.303C112.709,-99.3503 165.25,-74.5297 211,-56 242.741,-43.1444 279.712,-30.1712 305.361,-21.4795"/>
<polygon fill="midnightblue" stroke="midnightblue" points="306.578,-24.7629 314.939,-18.2549 304.345,-18.1289 306.578,-24.7629"/>
</g>
<!-- Node19&#45;&gt;Node10 -->
<g id="edge58" class="edge"><title>Node19&#45;&gt;Node10</title>
<path fill="none" stroke="midnightblue" d="M96.4013,-112.799C128.248,-103.602 180.098,-88.6294 215.794,-78.3216"/>
<polygon fill="midnightblue" stroke="midnightblue" points="216.767,-81.6837 225.403,-75.5467 214.825,-74.9585 216.767,-81.6837"/>
</g>
<!-- Node20 -->
<g id="node51" class="node"><title>Node20</title>
<a xlink:href="AbstractClientExtension_8hh.html" target="_top" xlink:title="AbstractClientExtension.hh">
<polygon fill="white" stroke="black" points="0,-56.5 0,-75.5 136,-75.5 136,-56.5 0,-56.5"/>
<text text-anchor="middle" x="68" y="-63.5" font-family="Helvetica,sans-Serif" font-size="10.00">AbstractClientExtension.hh</text>
</a>
</g>
<!-- Node19&#45;&gt;Node20 -->
<g id="edge62" class="edge"><title>Node19&#45;&gt;Node20</title>
<path fill="none" stroke="midnightblue" d="M68,-112.083C68,-105.006 68,-94.8611 68,-85.9865"/>
<polygon fill="midnightblue" stroke="midnightblue" points="71.5001,-85.751 68,-75.7511 64.5001,-85.7511 71.5001,-85.751"/>
</g>
<!-- Node21&#45;&gt;Node3 -->
<g id="edge66" class="edge"><title>Node21&#45;&gt;Node3</title>
<path fill="none" stroke="midnightblue" d="M492.254,-280.444C521.441,-271.28 567.921,-256.688 600.309,-246.519"/>
<polygon fill="midnightblue" stroke="midnightblue" points="601.381,-249.851 609.874,-243.516 599.284,-243.173 601.381,-249.851"/>
</g>
<!-- Node22&#45;&gt;Node2 -->
<g id="edge78" class="edge"><title>Node22&#45;&gt;Node2</title>
<path fill="none" stroke="midnightblue" d="M957.968,-504.448C977.413,-492.812 1006.35,-470.815 995,-448 966.471,-390.633 890.705,-364.683 844.534,-353.882"/>
<polygon fill="midnightblue" stroke="midnightblue" points="845.119,-350.427 834.599,-351.684 843.607,-357.262 845.119,-350.427"/>
</g>
<!-- Node23 -->
<g id="node59" class="node"><title>Node23</title>
<a xlink:href="BasePopup_8hh.html" target="_top" xlink:title="../BasePopup.hh">
<polygon fill="white" stroke="black" points="897.5,-448.5 897.5,-467.5 986.5,-467.5 986.5,-448.5 897.5,-448.5"/>
<text text-anchor="middle" x="942" y="-455.5" font-family="Helvetica,sans-Serif" font-size="10.00">../BasePopup.hh</text>
</a>
</g>
<!-- Node22&#45;&gt;Node23 -->
<g id="edge72" class="edge"><title>Node22&#45;&gt;Node23</title>
<path fill="none" stroke="midnightblue" d="M942,-504.083C942,-497.006 942,-486.861 942,-477.986"/>
<polygon fill="midnightblue" stroke="midnightblue" points="945.5,-477.751 942,-467.751 938.5,-477.751 945.5,-477.751"/>
</g>
<!-- Node24 -->
<g id="node61" class="node"><title>Node24</title>
<a xlink:href="ui__includes_8hh.html" target="_top" xlink:title="../ui_includes.hh">
<polygon fill="white" stroke="black" points="825,-392.5 825,-411.5 913,-411.5 913,-392.5 825,-392.5"/>
<text text-anchor="middle" x="869" y="-399.5" font-family="Helvetica,sans-Serif" font-size="10.00">../ui_includes.hh</text>
</a>
</g>
<!-- Node23&#45;&gt;Node24 -->
<g id="edge74" class="edge"><title>Node23&#45;&gt;Node24</title>
<path fill="none" stroke="midnightblue" d="M930.271,-448.324C919.163,-440.107 902.258,-427.602 889.017,-417.807"/>
<polygon fill="midnightblue" stroke="midnightblue" points="891.063,-414.967 880.942,-411.834 886.9,-420.595 891.063,-414.967"/>
</g>
<!-- Node24&#45;&gt;Node2 -->
<g id="edge76" class="edge"><title>Node24&#45;&gt;Node2</title>
<path fill="none" stroke="midnightblue" d="M859.039,-392.324C849.873,-384.341 836.063,-372.313 824.972,-362.653"/>
<polygon fill="midnightblue" stroke="midnightblue" points="826.982,-359.762 817.143,-355.834 822.385,-365.041 826.982,-359.762"/>
</g>
<!-- Node25&#45;&gt;Node2 -->
<g id="edge90" class="edge"><title>Node25&#45;&gt;Node2</title>
<path fill="none" stroke="midnightblue" d="M545.755,-448.454C573.016,-435.48 626.967,-410.381 674,-392 705.909,-379.53 742.869,-367.189 769.716,-358.594"/>
<polygon fill="midnightblue" stroke="midnightblue" points="771.008,-361.855 779.478,-355.49 768.888,-355.184 771.008,-361.855"/>
</g>
<!-- Node25&#45;&gt;Node3 -->
<g id="edge82" class="edge"><title>Node25&#45;&gt;Node3</title>
<path fill="none" stroke="midnightblue" d="M539.274,-448.485C549.58,-440.18 564.607,-426.681 574,-412 607.482,-359.668 626.016,-287.227 633.311,-253.569"/>
<polygon fill="midnightblue" stroke="midnightblue" points="636.748,-254.23 635.359,-243.727 629.895,-252.804 636.748,-254.23"/>
</g>
<!-- Node25&#45;&gt;Node6 -->
<g id="edge84" class="edge"><title>Node25&#45;&gt;Node6</title>
<path fill="none" stroke="midnightblue" d="M521.23,-448.083C515.438,-440.455 506.942,-429.264 499.862,-419.941"/>
<polygon fill="midnightblue" stroke="midnightblue" points="502.479,-417.599 493.644,-411.751 496.904,-421.832 502.479,-417.599"/>
</g>
<!-- Node25&#45;&gt;Node26 -->
<g id="edge86" class="edge"><title>Node25&#45;&gt;Node26</title>
<path fill="none" stroke="midnightblue" d="M562.384,-448.444C599.922,-439.102 660.131,-424.119 701.067,-413.933"/>
<polygon fill="midnightblue" stroke="midnightblue" points="701.918,-417.328 710.777,-411.516 700.227,-410.535 701.918,-417.328"/>
</g>
<!-- Node26&#45;&gt;Node2 -->
<g id="edge88" class="edge"><title>Node26&#45;&gt;Node2</title>
<path fill="none" stroke="midnightblue" d="M754.961,-392.324C764.127,-384.341 777.937,-372.313 789.028,-362.653"/>
<polygon fill="midnightblue" stroke="midnightblue" points="791.615,-365.041 796.857,-355.834 787.018,-359.762 791.615,-365.041"/>
</g>
<!-- Node27&#45;&gt;Node2 -->
<g id="edge100" class="edge"><title>Node27&#45;&gt;Node2</title>
<path fill="none" stroke="midnightblue" d="M373.732,-448.147C375.433,-433.796 381.004,-405.682 399,-392 456.579,-348.222 679.387,-345.577 769.179,-346.358"/>
<polygon fill="midnightblue" stroke="midnightblue" points="769.413,-349.861 779.45,-346.468 769.488,-342.861 769.413,-349.861"/>
</g>
<!-- Node27&#45;&gt;Node6 -->
<g id="edge98" class="edge"><title>Node27&#45;&gt;Node6</title>
<path fill="none" stroke="midnightblue" d="M391.064,-448.444C409.575,-439.675 438.581,-425.935 459.855,-415.858"/>
<polygon fill="midnightblue" stroke="midnightblue" points="461.482,-418.96 469.021,-411.516 458.485,-412.634 461.482,-418.96"/>
</g>
<!-- Node27&#45;&gt;Node7 -->
<g id="edge96" class="edge"><title>Node27&#45;&gt;Node7</title>
<path fill="none" stroke="midnightblue" d="M370.567,-448.368C365.542,-430.537 353.92,-389.295 347.149,-365.272"/>
<polygon fill="midnightblue" stroke="midnightblue" points="350.503,-364.267 344.421,-355.591 343.765,-366.166 350.503,-364.267"/>
</g>
<!-- Node28&#45;&gt;Node24 -->
<g id="edge104" class="edge"><title>Node28&#45;&gt;Node24</title>
<path fill="none" stroke="midnightblue" d="M751.385,-504.496C767.889,-496.389 792.321,-483.19 811,-468 828.518,-453.754 845.33,-434.017 856.301,-420.039"/>
<polygon fill="midnightblue" stroke="midnightblue" points="859.31,-421.866 862.616,-411.8 853.755,-417.608 859.31,-421.866"/>
</g>
<!-- Node29 -->
<g id="node82" class="node"><title>Node29</title>
<polygon fill="white" stroke="#bfbfbf" points="591,-448.5 591,-467.5 645,-467.5 645,-448.5 591,-448.5"/>
<text text-anchor="middle" x="618" y="-455.5" font-family="Helvetica,sans-Serif" font-size="10.00">iostream</text>
</g>
<!-- Node28&#45;&gt;Node29 -->
<g id="edge106" class="edge"><title>Node28&#45;&gt;Node29</title>
<path fill="none" stroke="midnightblue" d="M714.778,-504.444C696.104,-495.675 666.844,-481.935 645.383,-471.858"/>
<polygon fill="midnightblue" stroke="midnightblue" points="646.676,-468.599 636.137,-467.516 643.701,-474.935 646.676,-468.599"/>
</g>
<!-- Node30 -->
<g id="node84" class="node"><title>Node30</title>
<a xlink:href="BrowserList_8hh.html" target="_top" xlink:title="../GManager/BrowserList.hh">
<polygon fill="white" stroke="black" points="663.5,-448.5 663.5,-467.5 802.5,-467.5 802.5,-448.5 663.5,-448.5"/>
<text text-anchor="middle" x="733" y="-455.5" font-family="Helvetica,sans-Serif" font-size="10.00">../GManager/BrowserList.hh</text>
</a>
</g>
<!-- Node28&#45;&gt;Node30 -->
<g id="edge108" class="edge"><title>Node28&#45;&gt;Node30</title>
<path fill="none" stroke="midnightblue" d="M733,-504.083C733,-497.006 733,-486.861 733,-477.986"/>
<polygon fill="midnightblue" stroke="midnightblue" points="736.5,-477.751 733,-467.751 729.5,-477.751 736.5,-477.751"/>
</g>
<!-- Node30&#45;&gt;Node6 -->
<g id="edge112" class="edge"><title>Node30&#45;&gt;Node6</title>
<path fill="none" stroke="midnightblue" d="M694.021,-448.444C651.106,-439.023 582.054,-423.866 535.631,-413.675"/>
<polygon fill="midnightblue" stroke="midnightblue" points="536.315,-410.242 525.797,-411.516 534.814,-417.079 536.315,-410.242"/>
</g>
<!-- Node30&#45;&gt;Node24 -->
<g id="edge110" class="edge"><title>Node30&#45;&gt;Node24</title>
<path fill="none" stroke="midnightblue" d="M754.55,-448.444C777.031,-439.517 812.488,-425.439 837.98,-415.317"/>
<polygon fill="midnightblue" stroke="midnightblue" points="839.549,-418.46 847.551,-411.516 836.965,-411.954 839.549,-418.46"/>
</g>
</g>
</svg>
