<?xml version="1.0" encoding="UTF-8" standalone="no"?>
<!DOCTYPE svg PUBLIC "-//W3C//DTD SVG 1.1//EN"
 "http://www.w3.org/Graphics/SVG/1.1/DTD/svg11.dtd">
<!-- Generated by graphviz version 2.28.0 (20111204.1018)
 -->
<!-- Title: G Pages: 1 -->
<svg width="180pt" height="140pt"
 viewBox="0.00 0.00 180.00 140.00" xmlns="http://www.w3.org/2000/svg" xmlns:xlink="http://www.w3.org/1999/xlink">
<g id="graph1" class="graph" transform="scale(1 1) rotate(0) translate(4 136)">
<title>G</title>
<polygon fill="white" stroke="white" points="-4,5 -4,-136 177,-136 177,5 -4,5"/>
<!-- Node1 -->
<g id="node1" class="node"><title>Node1</title>
<polygon fill="#bfbfbf" stroke="black" points="-0.5,-112.5 -0.5,-131.5 172.5,-131.5 172.5,-112.5 -0.5,-112.5"/>
<text text-anchor="middle" x="86" y="-119.5" font-family="Helvetica,sans-Serif" font-size="10.00">src/Browser/Queue/QueuePopup.hh</text>
</g>
<!-- Node2 -->
<g id="node3" class="node"><title>Node2</title>
<a xlink:href="BasePopup_8hh.html" target="_top" xlink:title="../BasePopup.hh">
<polygon fill="white" stroke="black" points="5.5,-56.5 5.5,-75.5 94.5,-75.5 94.5,-56.5 5.5,-56.5"/>
<text text-anchor="middle" x="50" y="-63.5" font-family="Helvetica,sans-Serif" font-size="10.00">../BasePopup.hh</text>
</a>
</g>
<!-- Node1&#45;&gt;Node2 -->
<g id="edge2" class="edge"><title>Node1&#45;&gt;Node2</title>
<path fill="none" stroke="midnightblue" d="M80.0553,-112.083C75.0227,-104.534 67.6632,-93.4948 61.4865,-84.2298"/>
<polygon fill="midnightblue" stroke="midnightblue" points="64.2933,-82.1301 55.8341,-75.7511 58.4689,-86.0131 64.2933,-82.1301"/>
</g>
<!-- Node3 -->
<g id="node5" class="node"><title>Node3</title>
<polygon fill="white" stroke="#bfbfbf" points="58.5,-0.5 58.5,-19.5 113.5,-19.5 113.5,-0.5 58.5,-0.5"/>
<text text-anchor="middle" x="86" y="-7.5" font-family="Helvetica,sans-Serif" font-size="10.00">gtkmm.h</text>
</g>
<!-- Node1&#45;&gt;Node3 -->
<g id="edge6" class="edge"><title>Node1&#45;&gt;Node3</title>
<path fill="none" stroke="midnightblue" d="M90.3663,-112.307C94.5593,-103.437 100.6,-89.1449 103,-76 105.943,-59.8836 100.539,-41.8858 95.0619,-28.9223"/>
<polygon fill="midnightblue" stroke="midnightblue" points="98.1876,-27.3427 90.8115,-19.7372 91.8349,-30.2825 98.1876,-27.3427"/>
</g>
<!-- Node2&#45;&gt;Node3 -->
<g id="edge4" class="edge"><title>Node2&#45;&gt;Node3</title>
<path fill="none" stroke="midnightblue" d="M55.9447,-56.083C60.9773,-48.5341 68.3368,-37.4948 74.5135,-28.2298"/>
<polygon fill="midnightblue" stroke="midnightblue" points="77.5311,-30.0131 80.1659,-19.7511 71.7067,-26.1301 77.5311,-30.0131"/>
</g>
</g>
</svg>
