<?xml version="1.0" encoding="UTF-8" standalone="no"?>
<!DOCTYPE svg PUBLIC "-//W3C//DTD SVG 1.1//EN"
 "http://www.w3.org/Graphics/SVG/1.1/DTD/svg11.dtd">
<!-- Generated by graphviz version 2.28.0 (20120217.0315)
 -->
<!-- Title: G Pages: 1 -->
<svg width="775pt" height="476pt"
 viewBox="0.00 0.00 774.78 476.00" xmlns="http://www.w3.org/2000/svg" xmlns:xlink="http://www.w3.org/1999/xlink">
<g id="graph1" class="graph" transform="scale(1 1) rotate(0) translate(4 472)">
<title>G</title>
<polygon fill="white" stroke="white" points="-4,5 -4,-472 771.777,-472 771.777,5 -4,5"/>
<!-- Node1 -->
<g id="node1" class="node"><title>Node1</title>
<polygon fill="#bfbfbf" stroke="black" points="470.777,-448.5 470.777,-467.5 574.777,-467.5 574.777,-448.5 470.777,-448.5"/>
<text text-anchor="middle" x="522.777" y="-455.5" font-family="Helvetica,sans-Serif" font-size="10.00">src/Glyr/Request.hh</text>
</g>
<!-- Node2 -->
<g id="node3" class="node"><title>Node2</title>
<a xlink:href="Client_8hh.html" target="_top" xlink:title="../MPD/Client.hh">
<polygon fill="white" stroke="black" points="279.777,-336.5 279.777,-355.5 369.777,-355.5 369.777,-336.5 279.777,-336.5"/>
<text text-anchor="middle" x="324.777" y="-343.5" font-family="Helvetica,sans-Serif" font-size="10.00">../MPD/Client.hh</text>
</a>
</g>
<!-- Node1&#45;&gt;Node2 -->
<g id="edge2" class="edge"><title>Node1&#45;&gt;Node2</title>
<path fill="none" stroke="midnightblue" d="M470.419,-449.7C424.314,-442.252 361.784,-429.334 343.777,-412 331.346,-400.033 326.923,-380.424 325.413,-365.868"/>
<polygon fill="midnightblue" stroke="midnightblue" points="328.881,-365.267 324.728,-355.52 321.896,-365.73 328.881,-365.267"/>
</g>
<!-- Node20 -->
<g id="node51" class="node"><title>Node20</title>
<a xlink:href="Singleton_8hh.html" target="_top" xlink:title="../Utils/Singleton.hh">
<polygon fill="white" stroke="black" points="471.277,-392.5 471.277,-411.5 574.277,-411.5 574.277,-392.5 471.277,-392.5"/>
<text text-anchor="middle" x="522.777" y="-399.5" font-family="Helvetica,sans-Serif" font-size="10.00">../Utils/Singleton.hh</text>
</a>
</g>
<!-- Node1&#45;&gt;Node20 -->
<g id="edge62" class="edge"><title>Node1&#45;&gt;Node20</title>
<path fill="none" stroke="midnightblue" d="M522.777,-448.083C522.777,-441.006 522.777,-430.861 522.777,-421.986"/>
<polygon fill="midnightblue" stroke="midnightblue" points="526.277,-421.751 522.777,-411.751 519.277,-421.751 526.277,-421.751"/>
</g>
<!-- Node21 -->
<g id="node53" class="node"><title>Node21</title>
<a xlink:href="UpdateInterface_8hh.html" target="_top" xlink:title="UpdateInterface.hh">
<polygon fill="white" stroke="black" points="352.777,-392.5 352.777,-411.5 452.777,-411.5 452.777,-392.5 352.777,-392.5"/>
<text text-anchor="middle" x="402.777" y="-399.5" font-family="Helvetica,sans-Serif" font-size="10.00">UpdateInterface.hh</text>
</a>
</g>
<!-- Node1&#45;&gt;Node21 -->
<g id="edge64" class="edge"><title>Node1&#45;&gt;Node21</title>
<path fill="none" stroke="midnightblue" d="M503.763,-448.444C484.189,-439.636 453.469,-425.812 431.048,-415.722"/>
<polygon fill="midnightblue" stroke="midnightblue" points="432.258,-412.428 421.702,-411.516 429.385,-418.812 432.258,-412.428"/>
</g>
<!-- Node23 -->
<g id="node58" class="node"><title>Node23</title>
<polygon fill="white" stroke="#bfbfbf" points="592.777,-392.5 592.777,-411.5 678.777,-411.5 678.777,-392.5 592.777,-392.5"/>
<text text-anchor="middle" x="635.777" y="-399.5" font-family="Helvetica,sans-Serif" font-size="10.00">gdkmm/pixbuf.h</text>
</g>
<!-- Node1&#45;&gt;Node23 -->
<g id="edge70" class="edge"><title>Node1&#45;&gt;Node23</title>
<path fill="none" stroke="midnightblue" d="M540.682,-448.444C559.031,-439.675 587.782,-425.935 608.871,-415.858"/>
<polygon fill="midnightblue" stroke="midnightblue" points="610.442,-418.986 617.956,-411.516 607.424,-412.67 610.442,-418.986"/>
</g>
<!-- Node24 -->
<g id="node60" class="node"><title>Node24</title>
<polygon fill="white" stroke="#bfbfbf" points="696.777,-392.5 696.777,-411.5 766.777,-411.5 766.777,-392.5 696.777,-392.5"/>
<text text-anchor="middle" x="731.777" y="-399.5" font-family="Helvetica,sans-Serif" font-size="10.00">glyr/cache.h</text>
</g>
<!-- Node1&#45;&gt;Node24 -->
<g id="edge72" class="edge"><title>Node1&#45;&gt;Node24</title>
<path fill="none" stroke="midnightblue" d="M555.894,-448.444C591.895,-439.142 649.547,-424.246 688.963,-414.062"/>
<polygon fill="midnightblue" stroke="midnightblue" points="690.009,-417.407 698.815,-411.516 688.258,-410.629 690.009,-417.407"/>
</g>
<!-- Node3 -->
<g id="node5" class="node"><title>Node3</title>
<a xlink:href="BaseClient_8hh.html" target="_top" xlink:title="BaseClient.hh">
<polygon fill="white" stroke="black" points="224.777,-280.5 224.777,-299.5 302.777,-299.5 302.777,-280.5 224.777,-280.5"/>
<text text-anchor="middle" x="263.777" y="-287.5" font-family="Helvetica,sans-Serif" font-size="10.00">BaseClient.hh</text>
</a>
</g>
<!-- Node2&#45;&gt;Node3 -->
<g id="edge4" class="edge"><title>Node2&#45;&gt;Node3</title>
<path fill="none" stroke="midnightblue" d="M314.976,-336.324C305.959,-328.341 292.371,-316.313 281.459,-306.653"/>
<polygon fill="midnightblue" stroke="midnightblue" points="283.564,-303.842 273.756,-299.834 278.924,-309.083 283.564,-303.842"/>
</g>
<!-- Node18 -->
<g id="node46" class="node"><title>Node18</title>
<a xlink:href="AbstractItemGenerator_8hh.html" target="_top" xlink:title="AbstractItemGenerator.hh">
<polygon fill="white" stroke="black" points="415.277,-280.5 415.277,-299.5 544.277,-299.5 544.277,-280.5 415.277,-280.5"/>
<text text-anchor="middle" x="479.777" y="-287.5" font-family="Helvetica,sans-Serif" font-size="10.00">AbstractItemGenerator.hh</text>
</a>
</g>
<!-- Node2&#45;&gt;Node18 -->
<g id="edge56" class="edge"><title>Node2&#45;&gt;Node18</title>
<path fill="none" stroke="midnightblue" d="M349.337,-336.444C375.3,-327.399 416.445,-313.064 445.574,-302.916"/>
<polygon fill="midnightblue" stroke="midnightblue" points="447.04,-306.112 455.332,-299.516 444.737,-299.501 447.04,-306.112"/>
</g>
<!-- Node4 -->
<g id="node7" class="node"><title>Node4</title>
<a xlink:href="Listener_8hh.html" target="_top" xlink:title="Listener.hh">
<polygon fill="white" stroke="black" points="184.277,-224.5 184.277,-243.5 249.277,-243.5 249.277,-224.5 184.277,-224.5"/>
<text text-anchor="middle" x="216.777" y="-231.5" font-family="Helvetica,sans-Serif" font-size="10.00">Listener.hh</text>
</a>
</g>
<!-- Node3&#45;&gt;Node4 -->
<g id="edge6" class="edge"><title>Node3&#45;&gt;Node4</title>
<path fill="none" stroke="midnightblue" d="M256.016,-280.083C249.24,-272.298 239.234,-260.801 231.022,-251.367"/>
<polygon fill="midnightblue" stroke="midnightblue" points="233.599,-248.996 224.394,-243.751 228.319,-253.592 233.599,-248.996"/>
</g>
<!-- Node11 -->
<g id="node22" class="node"><title>Node11</title>
<a xlink:href="Connection_8hh.html" target="_top" xlink:title="Connection.hh">
<polygon fill="white" stroke="black" points="14.777,-112.5 14.777,-131.5 94.777,-131.5 94.777,-112.5 14.777,-112.5"/>
<text text-anchor="middle" x="54.777" y="-119.5" font-family="Helvetica,sans-Serif" font-size="10.00">Connection.hh</text>
</a>
</g>
<!-- Node3&#45;&gt;Node11 -->
<g id="edge46" class="edge"><title>Node3&#45;&gt;Node11</title>
<path fill="none" stroke="midnightblue" d="M224.718,-284.63C171.228,-276.313 77.0152,-252.793 34.777,-188 25.2424,-173.374 33.3961,-153.957 41.9847,-140.164"/>
<polygon fill="midnightblue" stroke="midnightblue" points="45.0526,-141.877 47.7881,-131.641 39.2666,-137.937 45.0526,-141.877"/>
</g>
<!-- Node16 -->
<g id="node40" class="node"><title>Node16</title>
<a xlink:href="Query_8hh.html" target="_top" xlink:title="Query.hh">
<polygon fill="white" stroke="black" points="389.777,-112.5 389.777,-131.5 445.777,-131.5 445.777,-112.5 389.777,-112.5"/>
<text text-anchor="middle" x="417.777" y="-119.5" font-family="Helvetica,sans-Serif" font-size="10.00">Query.hh</text>
</a>
</g>
<!-- Node3&#45;&gt;Node16 -->
<g id="edge48" class="edge"><title>Node3&#45;&gt;Node16</title>
<path fill="none" stroke="midnightblue" d="M272.088,-280.44C288.846,-263.138 327.819,-222.7 359.777,-188 374.737,-171.756 391.501,-152.896 403.143,-139.689"/>
<polygon fill="midnightblue" stroke="midnightblue" points="406.008,-141.731 409.984,-131.911 400.752,-137.108 406.008,-141.731"/>
</g>
<!-- Node5 -->
<g id="node9" class="node"><title>Node5</title>
<polygon fill="white" stroke="#bfbfbf" points="200.777,-56.5 200.777,-75.5 270.777,-75.5 270.777,-56.5 200.777,-56.5"/>
<text text-anchor="middle" x="235.777" y="-63.5" font-family="Helvetica,sans-Serif" font-size="10.00">mpd/client.h</text>
</g>
<!-- Node4&#45;&gt;Node5 -->
<g id="edge8" class="edge"><title>Node4&#45;&gt;Node5</title>
<path fill="none" stroke="midnightblue" d="M249.278,-230.955C278.288,-227.215 319.262,-216.799 339.777,-188 359.376,-160.486 359.373,-140.202 340.777,-112 327.427,-91.755 302.876,-80.5833 280.87,-74.4361"/>
<polygon fill="midnightblue" stroke="midnightblue" points="281.539,-70.9954 270.987,-71.9508 279.831,-77.7841 281.539,-70.9954"/>
</g>
<!-- Node6 -->
<g id="node11" class="node"><title>Node6</title>
<polygon fill="white" stroke="#bfbfbf" points="148.277,-168.5 148.277,-187.5 221.277,-187.5 221.277,-168.5 148.277,-168.5"/>
<text text-anchor="middle" x="184.777" y="-175.5" font-family="Helvetica,sans-Serif" font-size="10.00">mpd/async.h</text>
</g>
<!-- Node4&#45;&gt;Node6 -->
<g id="edge10" class="edge"><title>Node4&#45;&gt;Node6</title>
<path fill="none" stroke="midnightblue" d="M211.493,-224.083C207.066,-216.613 200.614,-205.724 195.159,-196.52"/>
<polygon fill="midnightblue" stroke="midnightblue" points="198.072,-194.57 189.963,-187.751 192.05,-198.138 198.072,-194.57"/>
</g>
<!-- Node7 -->
<g id="node13" class="node"><title>Node7</title>
<polygon fill="white" stroke="#bfbfbf" points="239.777,-168.5 239.777,-187.5 313.777,-187.5 313.777,-168.5 239.777,-168.5"/>
<text text-anchor="middle" x="276.777" y="-175.5" font-family="Helvetica,sans-Serif" font-size="10.00">mpd/parser.h</text>
</g>
<!-- Node4&#45;&gt;Node7 -->
<g id="edge12" class="edge"><title>Node4&#45;&gt;Node7</title>
<path fill="none" stroke="midnightblue" d="M226.417,-224.324C235.287,-216.341 248.652,-204.313 259.385,-194.653"/>
<polygon fill="midnightblue" stroke="midnightblue" points="261.87,-197.125 266.962,-187.834 257.187,-191.922 261.87,-197.125"/>
</g>
<!-- Node8 -->
<g id="node15" class="node"><title>Node8</title>
<polygon fill="white" stroke="#bfbfbf" points="26.777,-56.5 26.777,-75.5 82.777,-75.5 82.777,-56.5 26.777,-56.5"/>
<text text-anchor="middle" x="54.777" y="-63.5" font-family="Helvetica,sans-Serif" font-size="10.00">glibmm.h</text>
</g>
<!-- Node4&#45;&gt;Node8 -->
<g id="edge14" class="edge"><title>Node4&#45;&gt;Node8</title>
<path fill="none" stroke="midnightblue" d="M184.017,-232.793C144.617,-230.913 78.3555,-222.361 34.777,-188 6.38719,-165.615 -8.76534,-145.1 5.77698,-112 11.1669,-99.732 21.7351,-89.3414 31.6811,-81.6461"/>
<polygon fill="midnightblue" stroke="midnightblue" points="34.0285,-84.2697 40.1156,-75.598 29.9493,-78.5811 34.0285,-84.2697"/>
</g>
<!-- Node9 -->
<g id="node17" class="node"><title>Node9</title>
<a xlink:href="Status_8hh.html" target="_top" xlink:title="Status.hh">
<polygon fill="white" stroke="black" points="273.277,-112.5 273.277,-131.5 332.277,-131.5 332.277,-112.5 273.277,-112.5"/>
<text text-anchor="middle" x="302.777" y="-119.5" font-family="Helvetica,sans-Serif" font-size="10.00">Status.hh</text>
</a>
</g>
<!-- Node4&#45;&gt;Node9 -->
<g id="edge16" class="edge"><title>Node4&#45;&gt;Node9</title>
<path fill="none" stroke="midnightblue" d="M249.494,-228.75C274.235,-223.631 306.612,-212.424 322.777,-188 332.413,-173.441 324.244,-154.013 315.624,-140.2"/>
<polygon fill="midnightblue" stroke="midnightblue" points="318.325,-137.949 309.797,-131.662 312.543,-141.895 318.325,-137.949"/>
</g>
<!-- Node10 -->
<g id="node20" class="node"><title>Node10</title>
<a xlink:href="NotifyData_8hh.html" target="_top" xlink:title="NotifyData.hh">
<polygon fill="white" stroke="black" points="53.277,-168.5 53.277,-187.5 130.277,-187.5 130.277,-168.5 53.277,-168.5"/>
<text text-anchor="middle" x="91.777" y="-175.5" font-family="Helvetica,sans-Serif" font-size="10.00">NotifyData.hh</text>
</a>
</g>
<!-- Node4&#45;&gt;Node10 -->
<g id="edge20" class="edge"><title>Node4&#45;&gt;Node10</title>
<path fill="none" stroke="midnightblue" d="M196.97,-224.444C176.49,-215.596 144.294,-201.687 120.912,-191.586"/>
<polygon fill="midnightblue" stroke="midnightblue" points="122.059,-188.269 111.491,-187.516 119.283,-194.695 122.059,-188.269"/>
</g>
<!-- Node4&#45;&gt;Node11 -->
<g id="edge44" class="edge"><title>Node4&#45;&gt;Node11</title>
<path fill="none" stroke="midnightblue" d="M184.228,-229.249C139.013,-223.293 60.8137,-210.035 43.777,-188 33.4117,-174.594 38.716,-154.952 45.0315,-140.772"/>
<polygon fill="midnightblue" stroke="midnightblue" points="48.2838,-142.092 49.5993,-131.579 42.015,-138.977 48.2838,-142.092"/>
</g>
<!-- Node9&#45;&gt;Node5 -->
<g id="edge18" class="edge"><title>Node9&#45;&gt;Node5</title>
<path fill="none" stroke="midnightblue" d="M292.012,-112.324C282.011,-104.263 266.89,-92.0765 254.847,-82.3695"/>
<polygon fill="midnightblue" stroke="midnightblue" points="256.72,-79.3841 246.738,-75.8339 252.327,-84.8343 256.72,-79.3841"/>
</g>
<!-- Node10&#45;&gt;Node9 -->
<g id="edge32" class="edge"><title>Node10&#45;&gt;Node9</title>
<path fill="none" stroke="midnightblue" d="M125.211,-168.444C162.732,-158.841 223.549,-143.276 263.356,-133.089"/>
<polygon fill="midnightblue" stroke="midnightblue" points="264.425,-136.428 273.245,-130.558 262.689,-129.647 264.425,-136.428"/>
</g>
<!-- Node10&#45;&gt;Node11 -->
<g id="edge22" class="edge"><title>Node10&#45;&gt;Node11</title>
<path fill="none" stroke="midnightblue" d="M85.6672,-168.083C80.4948,-160.534 72.9308,-149.495 66.5826,-140.23"/>
<polygon fill="midnightblue" stroke="midnightblue" points="69.3127,-138.022 60.7731,-131.751 63.5382,-141.979 69.3127,-138.022"/>
</g>
<!-- Node12 -->
<g id="node26" class="node"><title>Node12</title>
<a xlink:href="Statistics_8hh.html" target="_top" xlink:title="Statistics.hh">
<polygon fill="white" stroke="black" points="113.277,-112.5 113.277,-131.5 184.277,-131.5 184.277,-112.5 113.277,-112.5"/>
<text text-anchor="middle" x="148.777" y="-119.5" font-family="Helvetica,sans-Serif" font-size="10.00">Statistics.hh</text>
</a>
</g>
<!-- Node10&#45;&gt;Node12 -->
<g id="edge28" class="edge"><title>Node10&#45;&gt;Node12</title>
<path fill="none" stroke="midnightblue" d="M100.935,-168.324C109.278,-160.42 121.809,-148.548 131.954,-138.938"/>
<polygon fill="midnightblue" stroke="midnightblue" points="134.6,-141.252 139.452,-131.834 129.786,-136.171 134.6,-141.252"/>
</g>
<!-- Node13 -->
<g id="node30" class="node"><title>Node13</title>
<a xlink:href="Song_8hh.html" target="_top" xlink:title="Song.hh">
<polygon fill="white" stroke="black" points="202.277,-112.5 202.277,-131.5 255.277,-131.5 255.277,-112.5 202.277,-112.5"/>
<text text-anchor="middle" x="228.777" y="-119.5" font-family="Helvetica,sans-Serif" font-size="10.00">Song.hh</text>
</a>
</g>
<!-- Node10&#45;&gt;Node13 -->
<g id="edge34" class="edge"><title>Node10&#45;&gt;Node13</title>
<path fill="none" stroke="midnightblue" d="M113.485,-168.444C136.132,-159.517 171.849,-145.439 197.529,-135.317"/>
<polygon fill="midnightblue" stroke="midnightblue" points="199.151,-138.44 207.17,-131.516 196.584,-131.927 199.151,-138.44"/>
</g>
<!-- Node11&#45;&gt;Node5 -->
<g id="edge24" class="edge"><title>Node11&#45;&gt;Node5</title>
<path fill="none" stroke="midnightblue" d="M83.457,-112.444C114.304,-103.241 163.505,-88.5617 197.606,-78.3879"/>
<polygon fill="midnightblue" stroke="midnightblue" points="198.649,-81.7293 207.231,-75.5164 196.648,-75.0215 198.649,-81.7293"/>
</g>
<!-- Node11&#45;&gt;Node8 -->
<g id="edge26" class="edge"><title>Node11&#45;&gt;Node8</title>
<path fill="none" stroke="midnightblue" d="M54.777,-112.083C54.777,-105.006 54.777,-94.8611 54.777,-85.9865"/>
<polygon fill="midnightblue" stroke="midnightblue" points="58.2771,-85.751 54.777,-75.7511 51.2771,-85.7511 58.2771,-85.751"/>
</g>
<!-- Node12&#45;&gt;Node5 -->
<g id="edge30" class="edge"><title>Node12&#45;&gt;Node5</title>
<path fill="none" stroke="midnightblue" d="M162.755,-112.324C176.327,-103.9 197.157,-90.9709 213.102,-81.0741"/>
<polygon fill="midnightblue" stroke="midnightblue" points="215.183,-83.9019 221.834,-75.6545 211.491,-77.9544 215.183,-83.9019"/>
</g>
<!-- Node13&#45;&gt;Node5 -->
<g id="edge36" class="edge"><title>Node13&#45;&gt;Node5</title>
<path fill="none" stroke="midnightblue" d="M229.933,-112.083C230.86,-104.927 232.195,-94.6353 233.354,-85.6911"/>
<polygon fill="midnightblue" stroke="midnightblue" points="236.828,-86.1181 234.643,-75.7511 229.886,-85.2181 236.828,-86.1181"/>
</g>
<!-- Node13&#45;&gt;Node8 -->
<g id="edge42" class="edge"><title>Node13&#45;&gt;Node8</title>
<path fill="none" stroke="midnightblue" d="M201.971,-112.681C172.511,-103.538 124.99,-88.7904 91.9434,-78.5344"/>
<polygon fill="midnightblue" stroke="midnightblue" points="92.7762,-75.1282 82.1881,-75.5069 90.7013,-81.8137 92.7762,-75.1282"/>
</g>
<!-- Node14 -->
<g id="node33" class="node"><title>Node14</title>
<a xlink:href="AbstractComposite_8hh.html" target="_top" xlink:title="AbstractComposite.hh">
<polygon fill="white" stroke="black" points="495.777,-56.5 495.777,-75.5 609.777,-75.5 609.777,-56.5 495.777,-56.5"/>
<text text-anchor="middle" x="552.777" y="-63.5" font-family="Helvetica,sans-Serif" font-size="10.00">AbstractComposite.hh</text>
</a>
</g>
<!-- Node13&#45;&gt;Node14 -->
<g id="edge38" class="edge"><title>Node13&#45;&gt;Node14</title>
<path fill="none" stroke="midnightblue" d="M255.468,-113.852C258.265,-113.188 261.073,-112.557 263.777,-112 304.899,-103.532 413.486,-87.227 485.218,-76.7431"/>
<polygon fill="midnightblue" stroke="midnightblue" points="486.132,-80.147 495.522,-75.2402 485.122,-73.2203 486.132,-80.147"/>
</g>
<!-- Node15 -->
<g id="node35" class="node"><title>Node15</title>
<polygon fill="white" stroke="#bfbfbf" points="410.777,-0.5 410.777,-19.5 454.777,-19.5 454.777,-0.5 410.777,-0.5"/>
<text text-anchor="middle" x="432.777" y="-7.5" font-family="Helvetica,sans-Serif" font-size="10.00">vector</text>
</g>
<!-- Node14&#45;&gt;Node15 -->
<g id="edge40" class="edge"><title>Node14&#45;&gt;Node15</title>
<path fill="none" stroke="midnightblue" d="M533.763,-56.4435C514.189,-47.6356 483.469,-33.8116 461.048,-23.722"/>
<polygon fill="midnightblue" stroke="midnightblue" points="462.258,-20.4284 451.702,-19.5164 459.385,-26.8119 462.258,-20.4284"/>
</g>
<!-- Node16&#45;&gt;Node5 -->
<g id="edge50" class="edge"><title>Node16&#45;&gt;Node5</title>
<path fill="none" stroke="midnightblue" d="M389.738,-112.681C358.791,-103.499 308.79,-88.6631 274.206,-78.402"/>
<polygon fill="midnightblue" stroke="midnightblue" points="275.031,-74.996 264.448,-75.5069 273.04,-81.7069 275.031,-74.996"/>
</g>
<!-- Node16&#45;&gt;Node15 -->
<g id="edge52" class="edge"><title>Node16&#45;&gt;Node15</title>
<path fill="none" stroke="midnightblue" d="M389.639,-112.901C358.739,-102.482 315.629,-82.5204 332.777,-56 347.725,-32.8823 377.691,-21.5232 400.941,-16.0148"/>
<polygon fill="midnightblue" stroke="midnightblue" points="401.695,-19.4329 410.751,-13.9346 400.242,-12.5852 401.695,-19.4329"/>
</g>
<!-- Node17 -->
<g id="node44" class="node"><title>Node17</title>
<a xlink:href="AbstractClientExtension_8hh.html" target="_top" xlink:title="AbstractClientExtension.hh">
<polygon fill="white" stroke="black" points="341.777,-56.5 341.777,-75.5 477.777,-75.5 477.777,-56.5 341.777,-56.5"/>
<text text-anchor="middle" x="409.777" y="-63.5" font-family="Helvetica,sans-Serif" font-size="10.00">AbstractClientExtension.hh</text>
</a>
</g>
<!-- Node16&#45;&gt;Node17 -->
<g id="edge54" class="edge"><title>Node16&#45;&gt;Node17</title>
<path fill="none" stroke="midnightblue" d="M416.456,-112.083C415.396,-104.927 413.871,-94.6353 412.546,-85.6911"/>
<polygon fill="midnightblue" stroke="midnightblue" points="416.001,-85.1302 411.073,-75.7511 409.077,-86.1561 416.001,-85.1302"/>
</g>
<!-- Node19 -->
<g id="node48" class="node"><title>Node19</title>
<a xlink:href="AbstractItemlist_8hh.html" target="_top" xlink:title="AbstractItemlist.hh">
<polygon fill="white" stroke="black" points="463.277,-224.5 463.277,-243.5 562.277,-243.5 562.277,-224.5 463.277,-224.5"/>
<text text-anchor="middle" x="512.777" y="-231.5" font-family="Helvetica,sans-Serif" font-size="10.00">AbstractItemlist.hh</text>
</a>
</g>
<!-- Node18&#45;&gt;Node19 -->
<g id="edge58" class="edge"><title>Node18&#45;&gt;Node19</title>
<path fill="none" stroke="midnightblue" d="M485.226,-280.083C489.791,-272.613 496.445,-261.724 502.07,-252.52"/>
<polygon fill="midnightblue" stroke="midnightblue" points="505.201,-254.109 507.429,-243.751 499.228,-250.459 505.201,-254.109"/>
</g>
<!-- Node19&#45;&gt;Node14 -->
<g id="edge60" class="edge"><title>Node19&#45;&gt;Node14</title>
<path fill="none" stroke="midnightblue" d="M514.928,-224.075C521.224,-197.945 539.714,-121.211 548.301,-85.577"/>
<polygon fill="midnightblue" stroke="midnightblue" points="551.772,-86.1098 550.712,-75.5681 544.967,-84.4699 551.772,-86.1098"/>
</g>
<!-- Node21&#45;&gt;Node2 -->
<g id="edge66" class="edge"><title>Node21&#45;&gt;Node2</title>
<path fill="none" stroke="midnightblue" d="M390.245,-392.324C378.191,-383.979 359.75,-371.212 345.508,-361.352"/>
<polygon fill="midnightblue" stroke="midnightblue" points="347.492,-358.469 337.278,-355.655 343.508,-364.224 347.492,-358.469"/>
</g>
<!-- Node22 -->
<g id="node56" class="node"><title>Node22</title>
<polygon fill="white" stroke="#bfbfbf" points="388.277,-336.5 388.277,-355.5 447.277,-355.5 447.277,-336.5 388.277,-336.5"/>
<text text-anchor="middle" x="417.777" y="-343.5" font-family="Helvetica,sans-Serif" font-size="10.00">glyr/glyr.h</text>
</g>
<!-- Node21&#45;&gt;Node22 -->
<g id="edge68" class="edge"><title>Node21&#45;&gt;Node22</title>
<path fill="none" stroke="midnightblue" d="M405.254,-392.083C407.263,-384.849 410.163,-374.409 412.667,-365.397"/>
<polygon fill="midnightblue" stroke="midnightblue" points="416.042,-366.323 415.346,-355.751 409.297,-364.449 416.042,-366.323"/>
</g>
</g>
</svg>
