<?xml version="1.0" encoding="UTF-8" standalone="no"?>
<!DOCTYPE svg PUBLIC "-//W3C//DTD SVG 1.1//EN"
 "http://www.w3.org/Graphics/SVG/1.1/DTD/svg11.dtd">
<!-- Generated by graphviz version 2.28.0 (20120217.0315)
 -->
<!-- Title: G Pages: 1 -->
<svg width="1014pt" height="252pt"
 viewBox="0.00 0.00 1014.28 252.00" xmlns="http://www.w3.org/2000/svg" xmlns:xlink="http://www.w3.org/1999/xlink">
<g id="graph1" class="graph" transform="scale(1 1) rotate(0) translate(4 248)">
<title>G</title>
<polygon fill="white" stroke="white" points="-4,5 -4,-248 1011.28,-248 1011.28,5 -4,5"/>
<!-- Node1 -->
<g id="node1" class="node"><title>Node1</title>
<polygon fill="#bfbfbf" stroke="black" points="460.779,-224.5 460.779,-243.5 657.779,-243.5 657.779,-224.5 460.779,-224.5"/>
<text text-anchor="middle" x="559.279" y="-231.5" font-family="Helvetica,sans-Serif" font-size="10.00">src/Browser/Settings/SettingsNetwork.hh</text>
</g>
<!-- Node2 -->
<g id="node3" class="node"><title>Node2</title>
<a xlink:href="Handler_8hh.html" target="_top" xlink:title="../../Config/Handler.hh">
<polygon fill="white" stroke="black" points="91.7786,-168.5 91.7786,-187.5 204.779,-187.5 204.779,-168.5 91.7786,-168.5"/>
<text text-anchor="middle" x="148.279" y="-175.5" font-family="Helvetica,sans-Serif" font-size="10.00">../../Config/Handler.hh</text>
</a>
</g>
<!-- Node1&#45;&gt;Node2 -->
<g id="edge2" class="edge"><title>Node1&#45;&gt;Node2</title>
<path fill="none" stroke="midnightblue" d="M494.154,-224.444C417.795,-214.411 291.902,-197.87 214.901,-187.753"/>
<polygon fill="midnightblue" stroke="midnightblue" points="215.205,-184.263 204.834,-186.431 214.293,-191.204 215.205,-184.263"/>
</g>
<!-- Node7 -->
<g id="node14" class="node"><title>Node7</title>
<a xlink:href="Browser_8hh.html" target="_top" xlink:title="../../Avahi/Browser.hh">
<polygon fill="white" stroke="black" points="503.279,-168.5 503.279,-187.5 615.279,-187.5 615.279,-168.5 503.279,-168.5"/>
<text text-anchor="middle" x="559.279" y="-175.5" font-family="Helvetica,sans-Serif" font-size="10.00">../../Avahi/Browser.hh</text>
</a>
</g>
<!-- Node1&#45;&gt;Node7 -->
<g id="edge14" class="edge"><title>Node1&#45;&gt;Node7</title>
<path fill="none" stroke="midnightblue" d="M559.279,-224.083C559.279,-217.006 559.279,-206.861 559.279,-197.986"/>
<polygon fill="midnightblue" stroke="midnightblue" points="562.779,-197.751 559.279,-187.751 555.779,-197.751 562.779,-197.751"/>
</g>
<!-- Node16 -->
<g id="node32" class="node"><title>Node16</title>
<a xlink:href="AbstractSettings_8hh.html" target="_top" xlink:title="AbstractSettings.hh">
<polygon fill="white" stroke="black" points="633.779,-168.5 633.779,-187.5 736.779,-187.5 736.779,-168.5 633.779,-168.5"/>
<text text-anchor="middle" x="685.279" y="-175.5" font-family="Helvetica,sans-Serif" font-size="10.00">AbstractSettings.hh</text>
</a>
</g>
<!-- Node1&#45;&gt;Node16 -->
<g id="edge32" class="edge"><title>Node1&#45;&gt;Node16</title>
<path fill="none" stroke="midnightblue" d="M579.244,-224.444C599.888,-215.596 632.341,-201.687 655.91,-191.586"/>
<polygon fill="midnightblue" stroke="midnightblue" points="657.594,-194.673 665.407,-187.516 654.837,-188.239 657.594,-194.673"/>
</g>
<!-- Node3 -->
<g id="node5" class="node"><title>Node3</title>
<polygon fill="white" stroke="#bfbfbf" points="26.2786,-56.5 26.2786,-75.5 106.279,-75.5 106.279,-56.5 26.2786,-56.5"/>
<text text-anchor="middle" x="66.2786" y="-63.5" font-family="Helvetica,sans-Serif" font-size="10.00">libxml/parser.h</text>
</g>
<!-- Node2&#45;&gt;Node3 -->
<g id="edge4" class="edge"><title>Node2&#45;&gt;Node3</title>
<path fill="none" stroke="midnightblue" d="M91.5361,-174.811C60.4188,-170.349 24.2149,-159.117 4.2786,-132 -10.0107,-112.564 15.6057,-92.8837 38.1192,-80.3508"/>
<polygon fill="midnightblue" stroke="midnightblue" points="39.9222,-83.357 47.1356,-75.597 36.6574,-77.1649 39.9222,-83.357"/>
</g>
<!-- Node4 -->
<g id="node7" class="node"><title>Node4</title>
<polygon fill="white" stroke="#bfbfbf" points="13.7786,-112.5 13.7786,-131.5 102.779,-131.5 102.779,-112.5 13.7786,-112.5"/>
<text text-anchor="middle" x="58.2786" y="-119.5" font-family="Helvetica,sans-Serif" font-size="10.00">glibmm/ustring.h</text>
</g>
<!-- Node2&#45;&gt;Node4 -->
<g id="edge6" class="edge"><title>Node2&#45;&gt;Node4</title>
<path fill="none" stroke="midnightblue" d="M133.819,-168.324C119.779,-159.9 98.2301,-146.971 81.7355,-137.074"/>
<polygon fill="midnightblue" stroke="midnightblue" points="83.0785,-133.798 72.7028,-131.655 79.477,-139.801 83.0785,-133.798"/>
</g>
<!-- Node5 -->
<g id="node9" class="node"><title>Node5</title>
<a xlink:href="Model_8hh.html" target="_top" xlink:title="Model.hh">
<polygon fill="white" stroke="black" points="120.279,-112.5 120.279,-131.5 176.279,-131.5 176.279,-112.5 120.279,-112.5"/>
<text text-anchor="middle" x="148.279" y="-119.5" font-family="Helvetica,sans-Serif" font-size="10.00">Model.hh</text>
</a>
</g>
<!-- Node2&#45;&gt;Node5 -->
<g id="edge8" class="edge"><title>Node2&#45;&gt;Node5</title>
<path fill="none" stroke="midnightblue" d="M148.279,-168.083C148.279,-161.006 148.279,-150.861 148.279,-141.986"/>
<polygon fill="midnightblue" stroke="midnightblue" points="151.779,-141.751 148.279,-131.751 144.779,-141.751 151.779,-141.751"/>
</g>
<!-- Node6 -->
<g id="node12" class="node"><title>Node6</title>
<a xlink:href="Singleton_8hh.html" target="_top" xlink:title="../Utils/Singleton.hh">
<polygon fill="white" stroke="black" points="194.779,-112.5 194.779,-131.5 297.779,-131.5 297.779,-112.5 194.779,-112.5"/>
<text text-anchor="middle" x="246.279" y="-119.5" font-family="Helvetica,sans-Serif" font-size="10.00">../Utils/Singleton.hh</text>
</a>
</g>
<!-- Node2&#45;&gt;Node6 -->
<g id="edge12" class="edge"><title>Node2&#45;&gt;Node6</title>
<path fill="none" stroke="midnightblue" d="M164.024,-168.324C179.597,-159.743 203.656,-146.486 221.738,-136.522"/>
<polygon fill="midnightblue" stroke="midnightblue" points="223.503,-139.546 230.572,-131.655 220.125,-133.415 223.503,-139.546"/>
</g>
<!-- Node5&#45;&gt;Node3 -->
<g id="edge10" class="edge"><title>Node5&#45;&gt;Node3</title>
<path fill="none" stroke="midnightblue" d="M135.104,-112.324C122.432,-103.979 103.045,-91.2122 88.073,-81.3524"/>
<polygon fill="midnightblue" stroke="midnightblue" points="89.6973,-78.2313 79.4206,-75.6545 85.8474,-84.0776 89.6973,-78.2313"/>
</g>
<!-- Node8 -->
<g id="node16" class="node"><title>Node8</title>
<a xlink:href="View_8hh.html" target="_top" xlink:title="View.hh">
<polygon fill="white" stroke="black" points="316.279,-112.5 316.279,-131.5 368.279,-131.5 368.279,-112.5 316.279,-112.5"/>
<text text-anchor="middle" x="342.279" y="-119.5" font-family="Helvetica,sans-Serif" font-size="10.00">View.hh</text>
</a>
</g>
<!-- Node7&#45;&gt;Node8 -->
<g id="edge16" class="edge"><title>Node7&#45;&gt;Node8</title>
<path fill="none" stroke="midnightblue" d="M524.913,-168.47C490.494,-159.924 435.737,-146.32 378.567,-132.069"/>
<polygon fill="midnightblue" stroke="midnightblue" points="379.173,-128.613 368.624,-129.59 377.48,-135.406 379.173,-128.613"/>
</g>
<!-- Node11 -->
<g id="node22" class="node"><title>Node11</title>
<polygon fill="white" stroke="#bfbfbf" points="386.779,-112.5 386.779,-131.5 487.779,-131.5 487.779,-112.5 386.779,-112.5"/>
<text text-anchor="middle" x="437.279" y="-119.5" font-family="Helvetica,sans-Serif" font-size="10.00">avahi&#45;client/client.h</text>
</g>
<!-- Node7&#45;&gt;Node11 -->
<g id="edge22" class="edge"><title>Node7&#45;&gt;Node11</title>
<path fill="none" stroke="midnightblue" d="M539.947,-168.444C519.959,-159.596 488.536,-145.687 465.715,-135.586"/>
<polygon fill="midnightblue" stroke="midnightblue" points="467.08,-132.363 456.519,-131.516 464.247,-138.764 467.08,-132.363"/>
</g>
<!-- Node12 -->
<g id="node24" class="node"><title>Node12</title>
<polygon fill="white" stroke="#bfbfbf" points="506.279,-112.5 506.279,-131.5 612.279,-131.5 612.279,-112.5 506.279,-112.5"/>
<text text-anchor="middle" x="559.279" y="-119.5" font-family="Helvetica,sans-Serif" font-size="10.00">avahi&#45;client/lookup.h</text>
</g>
<!-- Node7&#45;&gt;Node12 -->
<g id="edge24" class="edge"><title>Node7&#45;&gt;Node12</title>
<path fill="none" stroke="midnightblue" d="M559.279,-168.083C559.279,-161.006 559.279,-150.861 559.279,-141.986"/>
<polygon fill="midnightblue" stroke="midnightblue" points="562.779,-141.751 559.279,-131.751 555.779,-141.751 562.779,-141.751"/>
</g>
<!-- Node13 -->
<g id="node26" class="node"><title>Node13</title>
<polygon fill="white" stroke="#bfbfbf" points="629.779,-112.5 629.779,-131.5 740.779,-131.5 740.779,-112.5 629.779,-112.5"/>
<text text-anchor="middle" x="685.279" y="-119.5" font-family="Helvetica,sans-Serif" font-size="10.00">avahi&#45;common/error.h</text>
</g>
<!-- Node7&#45;&gt;Node13 -->
<g id="edge26" class="edge"><title>Node7&#45;&gt;Node13</title>
<path fill="none" stroke="midnightblue" d="M579.244,-168.444C599.888,-159.596 632.341,-145.687 655.91,-135.586"/>
<polygon fill="midnightblue" stroke="midnightblue" points="657.594,-138.673 665.407,-131.516 654.837,-132.239 657.594,-138.673"/>
</g>
<!-- Node14 -->
<g id="node28" class="node"><title>Node14</title>
<polygon fill="white" stroke="#bfbfbf" points="758.779,-112.5 758.779,-131.5 871.779,-131.5 871.779,-112.5 758.779,-112.5"/>
<text text-anchor="middle" x="815.279" y="-119.5" font-family="Helvetica,sans-Serif" font-size="10.00">avahi&#45;glib/glib&#45;watch.h</text>
</g>
<!-- Node7&#45;&gt;Node14 -->
<g id="edge28" class="edge"><title>Node7&#45;&gt;Node14</title>
<path fill="none" stroke="midnightblue" d="M599.843,-168.444C644.595,-159.004 716.662,-143.802 764.974,-133.611"/>
<polygon fill="midnightblue" stroke="midnightblue" points="765.842,-137.005 774.904,-131.516 764.397,-130.156 765.842,-137.005"/>
</g>
<!-- Node15 -->
<g id="node30" class="node"><title>Node15</title>
<polygon fill="white" stroke="#bfbfbf" points="890.279,-112.5 890.279,-131.5 1006.28,-131.5 1006.28,-112.5 890.279,-112.5"/>
<text text-anchor="middle" x="948.279" y="-119.5" font-family="Helvetica,sans-Serif" font-size="10.00">avahi&#45;glib/glib&#45;malloc.h</text>
</g>
<!-- Node7&#45;&gt;Node15 -->
<g id="edge30" class="edge"><title>Node7&#45;&gt;Node15</title>
<path fill="none" stroke="midnightblue" d="M615.427,-169.206C685.358,-159.498 804.761,-142.923 879.937,-132.487"/>
<polygon fill="midnightblue" stroke="midnightblue" points="880.818,-135.898 890.242,-131.057 879.855,-128.965 880.818,-135.898"/>
</g>
<!-- Node9 -->
<g id="node18" class="node"><title>Node9</title>
<a xlink:href="ui__includes_8hh.html" target="_top" xlink:title="../ui_includes.hh">
<polygon fill="white" stroke="black" points="298.279,-56.5 298.279,-75.5 386.279,-75.5 386.279,-56.5 298.279,-56.5"/>
<text text-anchor="middle" x="342.279" y="-63.5" font-family="Helvetica,sans-Serif" font-size="10.00">../ui_includes.hh</text>
</a>
</g>
<!-- Node8&#45;&gt;Node9 -->
<g id="edge18" class="edge"><title>Node8&#45;&gt;Node9</title>
<path fill="none" stroke="midnightblue" d="M342.279,-112.083C342.279,-105.006 342.279,-94.8611 342.279,-85.9865"/>
<polygon fill="midnightblue" stroke="midnightblue" points="345.779,-85.751 342.279,-75.7511 338.779,-85.7511 345.779,-85.751"/>
</g>
<!-- Node10 -->
<g id="node20" class="node"><title>Node10</title>
<polygon fill="white" stroke="#bfbfbf" points="314.779,-0.5 314.779,-19.5 369.779,-19.5 369.779,-0.5 314.779,-0.5"/>
<text text-anchor="middle" x="342.279" y="-7.5" font-family="Helvetica,sans-Serif" font-size="10.00">gtkmm.h</text>
</g>
<!-- Node9&#45;&gt;Node10 -->
<g id="edge20" class="edge"><title>Node9&#45;&gt;Node10</title>
<path fill="none" stroke="midnightblue" d="M342.279,-56.083C342.279,-49.0059 342.279,-38.8611 342.279,-29.9865"/>
<polygon fill="midnightblue" stroke="midnightblue" points="345.779,-29.751 342.279,-19.7511 338.779,-29.7511 345.779,-29.751"/>
</g>
</g>
</svg>
