<?xml version="1.0" encoding="UTF-8" standalone="no"?>
<!DOCTYPE svg PUBLIC "-//W3C//DTD SVG 1.1//EN"
 "http://www.w3.org/Graphics/SVG/1.1/DTD/svg11.dtd">
<!-- Generated by graphviz version 2.28.0 (20111204.1018)
 -->
<!-- Title: G Pages: 1 -->
<svg width="1095pt" height="252pt"
 viewBox="0.00 0.00 1095.00 252.00" xmlns="http://www.w3.org/2000/svg" xmlns:xlink="http://www.w3.org/1999/xlink">
<g id="graph1" class="graph" transform="scale(1 1) rotate(0) translate(4 248)">
<title>G</title>
<polygon fill="white" stroke="white" points="-4,5 -4,-248 1092,-248 1092,5 -4,5"/>
<!-- Node1 -->
<g id="node1" class="node"><title>Node1</title>
<polygon fill="#bfbfbf" stroke="black" points="380.5,-224.5 380.5,-243.5 577.5,-243.5 577.5,-224.5 380.5,-224.5"/>
<text text-anchor="middle" x="479" y="-231.5" font-family="Helvetica,sans-Serif" font-size="10.00">src/Browser/Settings/SettingsNetwork.hh</text>
</g>
<!-- Node2 -->
<g id="node3" class="node"><title>Node2</title>
<polygon fill="white" stroke="#bfbfbf" points="396.5,-56.5 396.5,-75.5 451.5,-75.5 451.5,-56.5 396.5,-56.5"/>
<text text-anchor="middle" x="424" y="-63.5" font-family="Helvetica,sans-Serif" font-size="10.00">gtkmm.h</text>
</g>
<!-- Node1&#45;&gt;Node2 -->
<g id="edge2" class="edge"><title>Node1&#45;&gt;Node2</title>
<path fill="none" stroke="midnightblue" d="M466.98,-224.391C446.326,-208.764 404.801,-173.482 389,-132 382.351,-114.543 394.618,-95.8946 406.417,-83.0698"/>
<polygon fill="midnightblue" stroke="midnightblue" points="408.972,-85.4642 413.53,-75.8999 404.002,-80.5342 408.972,-85.4642"/>
</g>
<!-- Node3 -->
<g id="node5" class="node"><title>Node3</title>
<a xlink:href="Handler_8hh.html" target="_top" xlink:title="../../Config/Handler.hh">
<polygon fill="white" stroke="black" points="132.5,-168.5 132.5,-187.5 245.5,-187.5 245.5,-168.5 132.5,-168.5"/>
<text text-anchor="middle" x="189" y="-175.5" font-family="Helvetica,sans-Serif" font-size="10.00">../../Config/Handler.hh</text>
</a>
</g>
<!-- Node1&#45;&gt;Node3 -->
<g id="edge4" class="edge"><title>Node1&#45;&gt;Node3</title>
<path fill="none" stroke="midnightblue" d="M433.049,-224.444C381.929,-214.925 299.346,-199.547 244.617,-189.356"/>
<polygon fill="midnightblue" stroke="midnightblue" points="245.208,-185.906 234.736,-187.516 243.927,-192.788 245.208,-185.906"/>
</g>
<!-- Node12 -->
<g id="node24" class="node"><title>Node12</title>
<a xlink:href="Browser_8hh.html" target="_top" xlink:title="../../Avahi/Browser.hh">
<polygon fill="white" stroke="black" points="533,-168.5 533,-187.5 645,-187.5 645,-168.5 533,-168.5"/>
<text text-anchor="middle" x="589" y="-175.5" font-family="Helvetica,sans-Serif" font-size="10.00">../../Avahi/Browser.hh</text>
</a>
</g>
<!-- Node1&#45;&gt;Node12 -->
<g id="edge24" class="edge"><title>Node1&#45;&gt;Node12</title>
<path fill="none" stroke="midnightblue" d="M496.673,-224.324C514.394,-215.625 541.903,-202.12 562.288,-192.113"/>
<polygon fill="midnightblue" stroke="midnightblue" points="563.936,-195.203 571.37,-187.655 560.851,-188.919 563.936,-195.203"/>
</g>
<!-- Node19 -->
<g id="node39" class="node"><title>Node19</title>
<a xlink:href="AbstractSettings_8hh.html" target="_top" xlink:title="AbstractSettings.hh">
<polygon fill="white" stroke="black" points="663.5,-168.5 663.5,-187.5 766.5,-187.5 766.5,-168.5 663.5,-168.5"/>
<text text-anchor="middle" x="715" y="-175.5" font-family="Helvetica,sans-Serif" font-size="10.00">AbstractSettings.hh</text>
</a>
</g>
<!-- Node1&#45;&gt;Node19 -->
<g id="edge40" class="edge"><title>Node1&#45;&gt;Node19</title>
<path fill="none" stroke="midnightblue" d="M516.395,-224.444C557.392,-215.063 623.254,-199.993 667.784,-189.804"/>
<polygon fill="midnightblue" stroke="midnightblue" points="668.813,-193.159 677.78,-187.516 667.251,-186.335 668.813,-193.159"/>
</g>
<!-- Node4 -->
<g id="node7" class="node"><title>Node4</title>
<polygon fill="white" stroke="#bfbfbf" points="121,-112.5 121,-131.5 161,-131.5 161,-112.5 121,-112.5"/>
<text text-anchor="middle" x="141" y="-119.5" font-family="Helvetica,sans-Serif" font-size="10.00">glib.h</text>
</g>
<!-- Node3&#45;&gt;Node4 -->
<g id="edge6" class="edge"><title>Node3&#45;&gt;Node4</title>
<path fill="none" stroke="midnightblue" d="M181.074,-168.083C174.154,-160.298 163.935,-148.801 155.548,-139.367"/>
<polygon fill="midnightblue" stroke="midnightblue" points="158.038,-136.9 148.779,-131.751 152.806,-141.55 158.038,-136.9"/>
</g>
<!-- Node5 -->
<g id="node9" class="node"><title>Node5</title>
<polygon fill="white" stroke="#bfbfbf" points="108,-56.5 108,-75.5 188,-75.5 188,-56.5 108,-56.5"/>
<text text-anchor="middle" x="148" y="-63.5" font-family="Helvetica,sans-Serif" font-size="10.00">libxml/parser.h</text>
</g>
<!-- Node3&#45;&gt;Node5 -->
<g id="edge8" class="edge"><title>Node3&#45;&gt;Node5</title>
<path fill="none" stroke="midnightblue" d="M186.992,-168.433C183.932,-155.852 177.644,-131.734 170,-112 166.427,-102.776 161.686,-92.8645 157.52,-84.6976"/>
<polygon fill="midnightblue" stroke="midnightblue" points="160.581,-82.999 152.841,-75.7647 154.38,-86.247 160.581,-82.999"/>
</g>
<!-- Node6 -->
<g id="node11" class="node"><title>Node6</title>
<a xlink:href="Model_8hh.html" target="_top" xlink:title="Model.hh">
<polygon fill="white" stroke="black" points="217,-112.5 217,-131.5 273,-131.5 273,-112.5 217,-112.5"/>
<text text-anchor="middle" x="245" y="-119.5" font-family="Helvetica,sans-Serif" font-size="10.00">Model.hh</text>
</a>
</g>
<!-- Node3&#45;&gt;Node6 -->
<g id="edge10" class="edge"><title>Node3&#45;&gt;Node6</title>
<path fill="none" stroke="midnightblue" d="M197.997,-168.324C206.194,-160.42 218.506,-148.548 228.472,-138.938"/>
<polygon fill="midnightblue" stroke="midnightblue" points="231.07,-141.295 235.839,-131.834 226.211,-136.256 231.07,-141.295"/>
</g>
<!-- Node11 -->
<g id="node22" class="node"><title>Node11</title>
<a xlink:href="Singleton_8hh.html" target="_top" xlink:title="../Utils/Singleton.hh">
<polygon fill="white" stroke="black" points="-0.5,-112.5 -0.5,-131.5 102.5,-131.5 102.5,-112.5 -0.5,-112.5"/>
<text text-anchor="middle" x="51" y="-119.5" font-family="Helvetica,sans-Serif" font-size="10.00">../Utils/Singleton.hh</text>
</a>
</g>
<!-- Node3&#45;&gt;Node11 -->
<g id="edge22" class="edge"><title>Node3&#45;&gt;Node11</title>
<path fill="none" stroke="midnightblue" d="M167.133,-168.444C144.221,-159.478 108.025,-145.314 82.1335,-135.183"/>
<polygon fill="midnightblue" stroke="midnightblue" points="83.3521,-131.901 72.7642,-131.516 80.8012,-138.42 83.3521,-131.901"/>
</g>
<!-- Node6&#45;&gt;Node5 -->
<g id="edge12" class="edge"><title>Node6&#45;&gt;Node5</title>
<path fill="none" stroke="midnightblue" d="M229.415,-112.324C214.001,-103.743 190.188,-90.486 172.29,-80.5224"/>
<polygon fill="midnightblue" stroke="midnightblue" points="173.986,-77.4606 163.546,-75.6545 170.581,-83.5767 173.986,-77.4606"/>
</g>
<!-- Node7 -->
<g id="node14" class="node"><title>Node7</title>
<polygon fill="white" stroke="#bfbfbf" points="206,-56.5 206,-75.5 284,-75.5 284,-56.5 206,-56.5"/>
<text text-anchor="middle" x="245" y="-63.5" font-family="Helvetica,sans-Serif" font-size="10.00">./defaultcfg.inl</text>
</g>
<!-- Node6&#45;&gt;Node7 -->
<g id="edge14" class="edge"><title>Node6&#45;&gt;Node7</title>
<path fill="none" stroke="midnightblue" d="M245,-112.083C245,-105.006 245,-94.8611 245,-85.9865"/>
<polygon fill="midnightblue" stroke="midnightblue" points="248.5,-85.751 245,-75.7511 241.5,-85.7511 248.5,-85.751"/>
</g>
<!-- Node8 -->
<g id="node16" class="node"><title>Node8</title>
<a xlink:href="Path_8hh.html" target="_top" xlink:title="../Init/Path.hh">
<polygon fill="white" stroke="black" points="302,-56.5 302,-75.5 378,-75.5 378,-56.5 302,-56.5"/>
<text text-anchor="middle" x="340" y="-63.5" font-family="Helvetica,sans-Serif" font-size="10.00">../Init/Path.hh</text>
</a>
</g>
<!-- Node6&#45;&gt;Node8 -->
<g id="edge16" class="edge"><title>Node6&#45;&gt;Node8</title>
<path fill="none" stroke="midnightblue" d="M260.263,-112.324C275.221,-103.822 298.255,-90.7288 315.727,-80.7975"/>
<polygon fill="midnightblue" stroke="midnightblue" points="317.81,-83.639 324.774,-75.6545 314.351,-77.5534 317.81,-83.639"/>
</g>
<!-- Node9 -->
<g id="node18" class="node"><title>Node9</title>
<polygon fill="white" stroke="#bfbfbf" points="271,-0.5 271,-19.5 327,-19.5 327,-0.5 271,-0.5"/>
<text text-anchor="middle" x="299" y="-7.5" font-family="Helvetica,sans-Serif" font-size="10.00">glibmm.h</text>
</g>
<!-- Node8&#45;&gt;Node9 -->
<g id="edge18" class="edge"><title>Node8&#45;&gt;Node9</title>
<path fill="none" stroke="midnightblue" d="M333.23,-56.083C327.438,-48.4554 318.942,-37.2645 311.862,-27.9408"/>
<polygon fill="midnightblue" stroke="midnightblue" points="314.479,-25.5991 305.644,-19.7511 308.904,-29.8321 314.479,-25.5991"/>
</g>
<!-- Node10 -->
<g id="node20" class="node"><title>Node10</title>
<polygon fill="white" stroke="#bfbfbf" points="345.5,-0.5 345.5,-19.5 414.5,-19.5 414.5,-0.5 345.5,-0.5"/>
<text text-anchor="middle" x="380" y="-7.5" font-family="Helvetica,sans-Serif" font-size="10.00">glib/gstdio.h</text>
</g>
<!-- Node8&#45;&gt;Node10 -->
<g id="edge20" class="edge"><title>Node8&#45;&gt;Node10</title>
<path fill="none" stroke="midnightblue" d="M346.605,-56.083C352.255,-48.4554 360.545,-37.2645 367.451,-27.9408"/>
<polygon fill="midnightblue" stroke="midnightblue" points="370.378,-29.87 373.518,-19.7511 364.753,-25.7034 370.378,-29.87"/>
</g>
<!-- Node13 -->
<g id="node26" class="node"><title>Node13</title>
<a xlink:href="View_8hh.html" target="_top" xlink:title="View.hh">
<polygon fill="white" stroke="black" points="398,-112.5 398,-131.5 450,-131.5 450,-112.5 398,-112.5"/>
<text text-anchor="middle" x="424" y="-119.5" font-family="Helvetica,sans-Serif" font-size="10.00">View.hh</text>
</a>
</g>
<!-- Node12&#45;&gt;Node13 -->
<g id="edge26" class="edge"><title>Node12&#45;&gt;Node13</title>
<path fill="none" stroke="midnightblue" d="M562.855,-168.444C534.977,-159.32 490.652,-144.813 459.6,-134.651"/>
<polygon fill="midnightblue" stroke="midnightblue" points="460.615,-131.3 450.022,-131.516 458.438,-137.953 460.615,-131.3"/>
</g>
<!-- Node14 -->
<g id="node29" class="node"><title>Node14</title>
<polygon fill="white" stroke="#bfbfbf" points="602.5,-112.5 602.5,-131.5 703.5,-131.5 703.5,-112.5 602.5,-112.5"/>
<text text-anchor="middle" x="653" y="-119.5" font-family="Helvetica,sans-Serif" font-size="10.00">avahi&#45;client/client.h</text>
</g>
<!-- Node12&#45;&gt;Node14 -->
<g id="edge30" class="edge"><title>Node12&#45;&gt;Node14</title>
<path fill="none" stroke="midnightblue" d="M599.283,-168.324C608.836,-160.263 623.28,-148.077 634.784,-138.369"/>
<polygon fill="midnightblue" stroke="midnightblue" points="637.144,-140.958 642.53,-131.834 632.63,-135.608 637.144,-140.958"/>
</g>
<!-- Node15 -->
<g id="node31" class="node"><title>Node15</title>
<polygon fill="white" stroke="#bfbfbf" points="722,-112.5 722,-131.5 828,-131.5 828,-112.5 722,-112.5"/>
<text text-anchor="middle" x="775" y="-119.5" font-family="Helvetica,sans-Serif" font-size="10.00">avahi&#45;client/lookup.h</text>
</g>
<!-- Node12&#45;&gt;Node15 -->
<g id="edge32" class="edge"><title>Node12&#45;&gt;Node15</title>
<path fill="none" stroke="midnightblue" d="M618.472,-168.444C650.171,-159.241 700.732,-144.562 735.775,-134.388"/>
<polygon fill="midnightblue" stroke="midnightblue" points="737.038,-137.666 745.666,-131.516 735.086,-130.943 737.038,-137.666"/>
</g>
<!-- Node16 -->
<g id="node33" class="node"><title>Node16</title>
<polygon fill="white" stroke="#bfbfbf" points="845.5,-112.5 845.5,-131.5 956.5,-131.5 956.5,-112.5 845.5,-112.5"/>
<text text-anchor="middle" x="901" y="-119.5" font-family="Helvetica,sans-Serif" font-size="10.00">avahi&#45;common/error.h</text>
</g>
<!-- Node12&#45;&gt;Node16 -->
<g id="edge34" class="edge"><title>Node12&#45;&gt;Node16</title>
<path fill="none" stroke="midnightblue" d="M638.437,-168.444C693.664,-158.885 783.021,-143.419 841.895,-133.23"/>
<polygon fill="midnightblue" stroke="midnightblue" points="842.537,-136.671 851.794,-131.516 841.344,-129.773 842.537,-136.671"/>
</g>
<!-- Node17 -->
<g id="node35" class="node"><title>Node17</title>
<polygon fill="white" stroke="#bfbfbf" points="974.5,-112.5 974.5,-131.5 1087.5,-131.5 1087.5,-112.5 974.5,-112.5"/>
<text text-anchor="middle" x="1031" y="-119.5" font-family="Helvetica,sans-Serif" font-size="10.00">avahi&#45;glib/glib&#45;watch.h</text>
</g>
<!-- Node12&#45;&gt;Node17 -->
<g id="edge36" class="edge"><title>Node12&#45;&gt;Node17</title>
<path fill="none" stroke="midnightblue" d="M645.159,-169.264C648.488,-168.83 651.787,-168.406 655,-168 789.386,-151.036 825.702,-149.439 964.324,-132.061"/>
<polygon fill="midnightblue" stroke="midnightblue" points="964.999,-135.504 974.484,-130.782 964.125,-128.558 964.999,-135.504"/>
</g>
<!-- Node18 -->
<g id="node37" class="node"><title>Node18</title>
<polygon fill="white" stroke="#bfbfbf" points="468,-112.5 468,-131.5 584,-131.5 584,-112.5 468,-112.5"/>
<text text-anchor="middle" x="526" y="-119.5" font-family="Helvetica,sans-Serif" font-size="10.00">avahi&#45;glib/glib&#45;malloc.h</text>
</g>
<!-- Node12&#45;&gt;Node18 -->
<g id="edge38" class="edge"><title>Node12&#45;&gt;Node18</title>
<path fill="none" stroke="midnightblue" d="M578.878,-168.324C569.474,-160.263 555.256,-148.077 543.931,-138.369"/>
<polygon fill="midnightblue" stroke="midnightblue" points="546.177,-135.684 536.306,-131.834 541.621,-140.999 546.177,-135.684"/>
</g>
<!-- Node13&#45;&gt;Node2 -->
<g id="edge28" class="edge"><title>Node13&#45;&gt;Node2</title>
<path fill="none" stroke="midnightblue" d="M424,-112.083C424,-105.006 424,-94.8611 424,-85.9865"/>
<polygon fill="midnightblue" stroke="midnightblue" points="427.5,-85.751 424,-75.7511 420.5,-85.7511 427.5,-85.751"/>
</g>
</g>
</svg>
