<?xml version="1.0" encoding="UTF-8" standalone="no"?>
<!DOCTYPE svg PUBLIC "-//W3C//DTD SVG 1.1//EN"
 "http://www.w3.org/Graphics/SVG/1.1/DTD/svg11.dtd">
<!-- Generated by graphviz version 2.28.0 (20120217.0315)
 -->
<!-- Title: G Pages: 1 -->
<svg width="766pt" height="476pt"
 viewBox="0.00 0.00 765.56 476.00" xmlns="http://www.w3.org/2000/svg" xmlns:xlink="http://www.w3.org/1999/xlink">
<g id="graph1" class="graph" transform="scale(1 1) rotate(0) translate(4 472)">
<title>G</title>
<polygon fill="white" stroke="white" points="-4,5 -4,-472 762.556,-472 762.556,5 -4,5"/>
<!-- Node1 -->
<g id="node1" class="node"><title>Node1</title>
<polygon fill="#bfbfbf" stroke="black" points="254.5,-448.5 254.5,-467.5 455.5,-467.5 455.5,-448.5 254.5,-448.5"/>
<text text-anchor="middle" x="355" y="-455.5" font-family="Helvetica,sans-Serif" font-size="10.00">src/Browser/Settings/SettingsPlayback.hh</text>
</g>
<!-- Node2 -->
<g id="node3" class="node"><title>Node2</title>
<a xlink:href="ui__includes_8hh.html" target="_top" xlink:title="../../ui_includes.hh">
<polygon fill="white" stroke="black" points="4.5,-392.5 4.5,-411.5 101.5,-411.5 101.5,-392.5 4.5,-392.5"/>
<text text-anchor="middle" x="53" y="-399.5" font-family="Helvetica,sans-Serif" font-size="10.00">../../ui_includes.hh</text>
</a>
</g>
<!-- Node1&#45;&gt;Node2 -->
<g id="edge2" class="edge"><title>Node1&#45;&gt;Node2</title>
<path fill="none" stroke="midnightblue" d="M307.147,-448.444C253.801,-438.905 167.555,-423.483 110.564,-413.293"/>
<polygon fill="midnightblue" stroke="midnightblue" points="111.089,-409.831 100.629,-411.516 109.857,-416.722 111.089,-409.831"/>
</g>
<!-- Node4 -->
<g id="node7" class="node"><title>Node4</title>
<a xlink:href="Handler_8hh.html" target="_top" xlink:title="../../Config/Handler.hh">
<polygon fill="white" stroke="black" points="145.5,-392.5 145.5,-411.5 258.5,-411.5 258.5,-392.5 145.5,-392.5"/>
<text text-anchor="middle" x="202" y="-399.5" font-family="Helvetica,sans-Serif" font-size="10.00">../../Config/Handler.hh</text>
</a>
</g>
<!-- Node1&#45;&gt;Node4 -->
<g id="edge6" class="edge"><title>Node1&#45;&gt;Node4</title>
<path fill="none" stroke="midnightblue" d="M330.757,-448.444C305.129,-439.399 264.515,-425.064 235.762,-414.916"/>
<polygon fill="midnightblue" stroke="midnightblue" points="236.725,-411.544 226.13,-411.516 234.395,-418.145 236.725,-411.544"/>
</g>
<!-- Node9 -->
<g id="node18" class="node"><title>Node9</title>
<a xlink:href="Client_8hh.html" target="_top" xlink:title="../../MPD/Client.hh">
<polygon fill="white" stroke="black" points="412.5,-336.5 412.5,-355.5 511.5,-355.5 511.5,-336.5 412.5,-336.5"/>
<text text-anchor="middle" x="462" y="-343.5" font-family="Helvetica,sans-Serif" font-size="10.00">../../MPD/Client.hh</text>
</a>
</g>
<!-- Node1&#45;&gt;Node9 -->
<g id="edge18" class="edge"><title>Node1&#45;&gt;Node9</title>
<path fill="none" stroke="midnightblue" d="M384.237,-448.459C403.198,-441.509 427.064,-429.879 442,-412 452.99,-398.845 457.948,-379.704 460.18,-365.599"/>
<polygon fill="midnightblue" stroke="midnightblue" points="463.665,-365.937 461.449,-355.576 456.72,-365.057 463.665,-365.937"/>
</g>
<!-- Node27 -->
<g id="node66" class="node"><title>Node27</title>
<a xlink:href="AbstractClientUser_8hh.html" target="_top" xlink:title="../../MPD/AbstractClientUser.hh">
<polygon fill="white" stroke="black" points="276.5,-392.5 276.5,-411.5 433.5,-411.5 433.5,-392.5 276.5,-392.5"/>
<text text-anchor="middle" x="355" y="-399.5" font-family="Helvetica,sans-Serif" font-size="10.00">../../MPD/AbstractClientUser.hh</text>
</a>
</g>
<!-- Node1&#45;&gt;Node27 -->
<g id="edge78" class="edge"><title>Node1&#45;&gt;Node27</title>
<path fill="none" stroke="midnightblue" d="M355,-448.083C355,-441.006 355,-430.861 355,-421.986"/>
<polygon fill="midnightblue" stroke="midnightblue" points="358.5,-421.751 355,-411.751 351.5,-421.751 358.5,-421.751"/>
</g>
<!-- Node28 -->
<g id="node69" class="node"><title>Node28</title>
<a xlink:href="AbstractSettings_8hh.html" target="_top" xlink:title="AbstractSettings.hh">
<polygon fill="white" stroke="black" points="490.5,-392.5 490.5,-411.5 593.5,-411.5 593.5,-392.5 490.5,-392.5"/>
<text text-anchor="middle" x="542" y="-399.5" font-family="Helvetica,sans-Serif" font-size="10.00">AbstractSettings.hh</text>
</a>
</g>
<!-- Node1&#45;&gt;Node28 -->
<g id="edge82" class="edge"><title>Node1&#45;&gt;Node28</title>
<path fill="none" stroke="midnightblue" d="M384.631,-448.444C416.5,-439.241 467.333,-424.562 502.564,-414.388"/>
<polygon fill="midnightblue" stroke="midnightblue" points="503.872,-417.653 512.508,-411.516 501.929,-410.928 503.872,-417.653"/>
</g>
<!-- Node3 -->
<g id="node5" class="node"><title>Node3</title>
<polygon fill="white" stroke="#bfbfbf" points="-0.5,-336.5 -0.5,-355.5 54.5,-355.5 54.5,-336.5 -0.5,-336.5"/>
<text text-anchor="middle" x="27" y="-343.5" font-family="Helvetica,sans-Serif" font-size="10.00">gtkmm.h</text>
</g>
<!-- Node2&#45;&gt;Node3 -->
<g id="edge4" class="edge"><title>Node2&#45;&gt;Node3</title>
<path fill="none" stroke="midnightblue" d="M48.7066,-392.083C45.1477,-384.691 39.9775,-373.953 35.5757,-364.811"/>
<polygon fill="midnightblue" stroke="midnightblue" points="38.7052,-363.243 31.2135,-355.751 32.3982,-366.279 38.7052,-363.243"/>
</g>
<!-- Node5 -->
<g id="node9" class="node"><title>Node5</title>
<polygon fill="white" stroke="#bfbfbf" points="71,-280.5 71,-299.5 151,-299.5 151,-280.5 71,-280.5"/>
<text text-anchor="middle" x="111" y="-287.5" font-family="Helvetica,sans-Serif" font-size="10.00">libxml/parser.h</text>
</g>
<!-- Node4&#45;&gt;Node5 -->
<g id="edge8" class="edge"><title>Node4&#45;&gt;Node5</title>
<path fill="none" stroke="midnightblue" d="M157.304,-392.476C136.774,-386.086 114.301,-375.025 102,-356 93.0288,-342.125 97.111,-323.109 102.336,-309.231"/>
<polygon fill="midnightblue" stroke="midnightblue" points="105.659,-310.361 106.357,-299.789 99.2183,-307.618 105.659,-310.361"/>
</g>
<!-- Node6 -->
<g id="node11" class="node"><title>Node6</title>
<polygon fill="white" stroke="#bfbfbf" points="184.5,-336.5 184.5,-355.5 273.5,-355.5 273.5,-336.5 184.5,-336.5"/>
<text text-anchor="middle" x="229" y="-343.5" font-family="Helvetica,sans-Serif" font-size="10.00">glibmm/ustring.h</text>
</g>
<!-- Node4&#45;&gt;Node6 -->
<g id="edge10" class="edge"><title>Node4&#45;&gt;Node6</title>
<path fill="none" stroke="midnightblue" d="M206.459,-392.083C210.154,-384.691 215.523,-373.953 220.094,-364.811"/>
<polygon fill="midnightblue" stroke="midnightblue" points="223.283,-366.261 224.624,-355.751 217.022,-363.13 223.283,-366.261"/>
</g>
<!-- Node7 -->
<g id="node13" class="node"><title>Node7</title>
<a xlink:href="Model_8hh.html" target="_top" xlink:title="Model.hh">
<polygon fill="white" stroke="black" points="111,-336.5 111,-355.5 167,-355.5 167,-336.5 111,-336.5"/>
<text text-anchor="middle" x="139" y="-343.5" font-family="Helvetica,sans-Serif" font-size="10.00">Model.hh</text>
</a>
</g>
<!-- Node4&#45;&gt;Node7 -->
<g id="edge12" class="edge"><title>Node4&#45;&gt;Node7</title>
<path fill="none" stroke="midnightblue" d="M191.878,-392.324C182.474,-384.263 168.256,-372.077 156.931,-362.369"/>
<polygon fill="midnightblue" stroke="midnightblue" points="159.177,-359.684 149.306,-355.834 154.621,-364.999 159.177,-359.684"/>
</g>
<!-- Node8 -->
<g id="node16" class="node"><title>Node8</title>
<a xlink:href="Singleton_8hh.html" target="_top" xlink:title="../Utils/Singleton.hh">
<polygon fill="white" stroke="black" points="291.5,-336.5 291.5,-355.5 394.5,-355.5 394.5,-336.5 291.5,-336.5"/>
<text text-anchor="middle" x="343" y="-343.5" font-family="Helvetica,sans-Serif" font-size="10.00">../Utils/Singleton.hh</text>
</a>
</g>
<!-- Node4&#45;&gt;Node8 -->
<g id="edge16" class="edge"><title>Node4&#45;&gt;Node8</title>
<path fill="none" stroke="midnightblue" d="M224.342,-392.444C247.753,-383.478 284.736,-369.314 311.19,-359.183"/>
<polygon fill="midnightblue" stroke="midnightblue" points="312.676,-362.361 320.763,-355.516 310.172,-355.824 312.676,-362.361"/>
</g>
<!-- Node7&#45;&gt;Node5 -->
<g id="edge14" class="edge"><title>Node7&#45;&gt;Node5</title>
<path fill="none" stroke="midnightblue" d="M134.376,-336.083C130.544,-328.691 124.976,-317.953 120.235,-308.811"/>
<polygon fill="midnightblue" stroke="midnightblue" points="123.248,-307.018 115.538,-299.751 117.034,-310.24 123.248,-307.018"/>
</g>
<!-- Node10 -->
<g id="node20" class="node"><title>Node10</title>
<a xlink:href="BaseClient_8hh.html" target="_top" xlink:title="BaseClient.hh">
<polygon fill="white" stroke="black" points="510,-280.5 510,-299.5 588,-299.5 588,-280.5 510,-280.5"/>
<text text-anchor="middle" x="549" y="-287.5" font-family="Helvetica,sans-Serif" font-size="10.00">BaseClient.hh</text>
</a>
</g>
<!-- Node9&#45;&gt;Node10 -->
<g id="edge20" class="edge"><title>Node9&#45;&gt;Node10</title>
<path fill="none" stroke="midnightblue" d="M475.978,-336.324C489.55,-327.9 510.38,-314.971 526.325,-305.074"/>
<polygon fill="midnightblue" stroke="midnightblue" points="528.406,-307.902 535.057,-299.655 524.714,-301.954 528.406,-307.902"/>
</g>
<!-- Node25 -->
<g id="node61" class="node"><title>Node25</title>
<a xlink:href="AbstractItemGenerator_8hh.html" target="_top" xlink:title="AbstractItemGenerator.hh">
<polygon fill="white" stroke="black" points="309.5,-280.5 309.5,-299.5 438.5,-299.5 438.5,-280.5 309.5,-280.5"/>
<text text-anchor="middle" x="374" y="-287.5" font-family="Helvetica,sans-Serif" font-size="10.00">AbstractItemGenerator.hh</text>
</a>
</g>
<!-- Node9&#45;&gt;Node25 -->
<g id="edge72" class="edge"><title>Node9&#45;&gt;Node25</title>
<path fill="none" stroke="midnightblue" d="M447.861,-336.324C434.134,-327.9 413.064,-314.971 396.936,-305.074"/>
<polygon fill="midnightblue" stroke="midnightblue" points="398.457,-301.902 388.104,-299.655 394.796,-307.868 398.457,-301.902"/>
</g>
<!-- Node11 -->
<g id="node22" class="node"><title>Node11</title>
<a xlink:href="Listener_8hh.html" target="_top" xlink:title="Listener.hh">
<polygon fill="white" stroke="black" points="421.5,-224.5 421.5,-243.5 486.5,-243.5 486.5,-224.5 421.5,-224.5"/>
<text text-anchor="middle" x="454" y="-231.5" font-family="Helvetica,sans-Serif" font-size="10.00">Listener.hh</text>
</a>
</g>
<!-- Node10&#45;&gt;Node11 -->
<g id="edge22" class="edge"><title>Node10&#45;&gt;Node11</title>
<path fill="none" stroke="midnightblue" d="M533.737,-280.324C518.779,-271.822 495.745,-258.729 478.273,-248.797"/>
<polygon fill="midnightblue" stroke="midnightblue" points="479.649,-245.553 469.226,-243.655 476.19,-251.639 479.649,-245.553"/>
</g>
<!-- Node18 -->
<g id="node37" class="node"><title>Node18</title>
<a xlink:href="Connection_8hh.html" target="_top" xlink:title="Connection.hh">
<polygon fill="white" stroke="black" points="590,-112.5 590,-131.5 670,-131.5 670,-112.5 590,-112.5"/>
<text text-anchor="middle" x="630" y="-119.5" font-family="Helvetica,sans-Serif" font-size="10.00">Connection.hh</text>
</a>
</g>
<!-- Node10&#45;&gt;Node18 -->
<g id="edge62" class="edge"><title>Node10&#45;&gt;Node18</title>
<path fill="none" stroke="midnightblue" d="M554.368,-280.299C564.871,-263.074 588.548,-223.246 605,-188 612.191,-172.593 619.026,-154.499 623.725,-141.319"/>
<polygon fill="midnightblue" stroke="midnightblue" points="627.137,-142.165 627.132,-131.571 620.529,-139.856 627.137,-142.165"/>
</g>
<!-- Node23 -->
<g id="node55" class="node"><title>Node23</title>
<a xlink:href="Query_8hh.html" target="_top" xlink:title="Query.hh">
<polygon fill="white" stroke="black" points="688,-112.5 688,-131.5 744,-131.5 744,-112.5 688,-112.5"/>
<text text-anchor="middle" x="716" y="-119.5" font-family="Helvetica,sans-Serif" font-size="10.00">Query.hh</text>
</a>
</g>
<!-- Node10&#45;&gt;Node23 -->
<g id="edge64" class="edge"><title>Node10&#45;&gt;Node23</title>
<path fill="none" stroke="midnightblue" d="M557.979,-280.075C584.949,-253.267 665.507,-173.19 700.019,-138.885"/>
<polygon fill="midnightblue" stroke="midnightblue" points="702.755,-141.1 707.38,-131.568 697.821,-136.136 702.755,-141.1"/>
</g>
<!-- Node12 -->
<g id="node24" class="node"><title>Node12</title>
<polygon fill="white" stroke="#bfbfbf" points="446,-56.5 446,-75.5 516,-75.5 516,-56.5 446,-56.5"/>
<text text-anchor="middle" x="481" y="-63.5" font-family="Helvetica,sans-Serif" font-size="10.00">mpd/client.h</text>
</g>
<!-- Node11&#45;&gt;Node12 -->
<g id="edge24" class="edge"><title>Node11&#45;&gt;Node12</title>
<path fill="none" stroke="midnightblue" d="M421.457,-230.207C371.773,-225.193 280.678,-212.793 261,-188 255.474,-181.037 258.095,-176.401 261,-168 271.346,-138.086 278.482,-129.282 305,-112 316.008,-104.826 387.265,-87.9231 435.666,-76.9977"/>
<polygon fill="midnightblue" stroke="midnightblue" points="436.628,-80.369 445.618,-74.7627 435.094,-73.5391 436.628,-80.369"/>
</g>
<!-- Node13 -->
<g id="node26" class="node"><title>Node13</title>
<polygon fill="white" stroke="#bfbfbf" points="278.5,-168.5 278.5,-187.5 351.5,-187.5 351.5,-168.5 278.5,-168.5"/>
<text text-anchor="middle" x="315" y="-175.5" font-family="Helvetica,sans-Serif" font-size="10.00">mpd/async.h</text>
</g>
<!-- Node11&#45;&gt;Node13 -->
<g id="edge26" class="edge"><title>Node11&#45;&gt;Node13</title>
<path fill="none" stroke="midnightblue" d="M431.975,-224.444C408.896,-215.478 372.438,-201.314 346.359,-191.183"/>
<polygon fill="midnightblue" stroke="midnightblue" points="347.511,-187.875 336.922,-187.516 344.976,-194.4 347.511,-187.875"/>
</g>
<!-- Node14 -->
<g id="node28" class="node"><title>Node14</title>
<polygon fill="white" stroke="#bfbfbf" points="370,-168.5 370,-187.5 444,-187.5 444,-168.5 370,-168.5"/>
<text text-anchor="middle" x="407" y="-175.5" font-family="Helvetica,sans-Serif" font-size="10.00">mpd/parser.h</text>
</g>
<!-- Node11&#45;&gt;Node14 -->
<g id="edge28" class="edge"><title>Node11&#45;&gt;Node14</title>
<path fill="none" stroke="midnightblue" d="M446.239,-224.083C439.463,-216.298 429.457,-204.801 421.245,-195.367"/>
<polygon fill="midnightblue" stroke="midnightblue" points="423.822,-192.996 414.617,-187.751 418.542,-197.592 423.822,-192.996"/>
</g>
<!-- Node15 -->
<g id="node30" class="node"><title>Node15</title>
<polygon fill="white" stroke="#bfbfbf" points="534,-56.5 534,-75.5 590,-75.5 590,-56.5 534,-56.5"/>
<text text-anchor="middle" x="562" y="-63.5" font-family="Helvetica,sans-Serif" font-size="10.00">glibmm.h</text>
</g>
<!-- Node11&#45;&gt;Node15 -->
<g id="edge30" class="edge"><title>Node11&#45;&gt;Node15</title>
<path fill="none" stroke="midnightblue" d="M486.718,-225.949C507.694,-219.647 533.603,-208.178 548,-188 569.729,-157.547 568.112,-111.401 565.039,-85.7927"/>
<polygon fill="midnightblue" stroke="midnightblue" points="568.464,-85.0162 563.603,-75.6024 561.533,-85.9929 568.464,-85.0162"/>
</g>
<!-- Node16 -->
<g id="node32" class="node"><title>Node16</title>
<a xlink:href="Status_8hh.html" target="_top" xlink:title="Status.hh">
<polygon fill="white" stroke="black" points="314.5,-112.5 314.5,-131.5 373.5,-131.5 373.5,-112.5 314.5,-112.5"/>
<text text-anchor="middle" x="344" y="-119.5" font-family="Helvetica,sans-Serif" font-size="10.00">Status.hh</text>
</a>
</g>
<!-- Node11&#45;&gt;Node16 -->
<g id="edge32" class="edge"><title>Node11&#45;&gt;Node16</title>
<path fill="none" stroke="midnightblue" d="M421.222,-229.822C373.25,-224.417 287.587,-211.65 269,-188 252.523,-167.035 283.374,-147.664 310.354,-135.621"/>
<polygon fill="midnightblue" stroke="midnightblue" points="311.813,-138.804 319.652,-131.677 309.079,-132.36 311.813,-138.804"/>
</g>
<!-- Node17 -->
<g id="node35" class="node"><title>Node17</title>
<a xlink:href="NotifyData_8hh.html" target="_top" xlink:title="NotifyData.hh">
<polygon fill="white" stroke="black" points="462.5,-168.5 462.5,-187.5 539.5,-187.5 539.5,-168.5 462.5,-168.5"/>
<text text-anchor="middle" x="501" y="-175.5" font-family="Helvetica,sans-Serif" font-size="10.00">NotifyData.hh</text>
</a>
</g>
<!-- Node11&#45;&gt;Node17 -->
<g id="edge36" class="edge"><title>Node11&#45;&gt;Node17</title>
<path fill="none" stroke="midnightblue" d="M461.761,-224.083C468.537,-216.298 478.543,-204.801 486.755,-195.367"/>
<polygon fill="midnightblue" stroke="midnightblue" points="489.458,-197.592 493.383,-187.751 484.178,-192.996 489.458,-197.592"/>
</g>
<!-- Node11&#45;&gt;Node18 -->
<g id="edge60" class="edge"><title>Node11&#45;&gt;Node18</title>
<path fill="none" stroke="midnightblue" d="M486.772,-227.106C514.262,-220.918 553.489,-209.069 582,-188 598.867,-175.536 612.403,-155.462 620.747,-140.917"/>
<polygon fill="midnightblue" stroke="midnightblue" points="623.954,-142.347 625.671,-131.892 617.809,-138.994 623.954,-142.347"/>
</g>
<!-- Node16&#45;&gt;Node12 -->
<g id="edge34" class="edge"><title>Node16&#45;&gt;Node12</title>
<path fill="none" stroke="midnightblue" d="M365.708,-112.444C388.355,-103.517 424.072,-89.4387 449.752,-79.3168"/>
<polygon fill="midnightblue" stroke="midnightblue" points="451.374,-82.4397 459.394,-75.5164 448.807,-75.9273 451.374,-82.4397"/>
</g>
<!-- Node17&#45;&gt;Node16 -->
<g id="edge48" class="edge"><title>Node17&#45;&gt;Node16</title>
<path fill="none" stroke="midnightblue" d="M476.123,-168.444C449.711,-159.359 407.785,-144.939 378.258,-134.783"/>
<polygon fill="midnightblue" stroke="midnightblue" points="379.355,-131.459 368.761,-131.516 377.079,-138.079 379.355,-131.459"/>
</g>
<!-- Node17&#45;&gt;Node18 -->
<g id="edge38" class="edge"><title>Node17&#45;&gt;Node18</title>
<path fill="none" stroke="midnightblue" d="M521.44,-168.444C542.67,-159.557 576.099,-145.563 600.255,-135.451"/>
<polygon fill="midnightblue" stroke="midnightblue" points="601.782,-138.606 609.655,-131.516 599.079,-132.149 601.782,-138.606"/>
</g>
<!-- Node19 -->
<g id="node41" class="node"><title>Node19</title>
<a xlink:href="Statistics_8hh.html" target="_top" xlink:title="Statistics.hh">
<polygon fill="white" stroke="black" points="391.5,-112.5 391.5,-131.5 462.5,-131.5 462.5,-112.5 391.5,-112.5"/>
<text text-anchor="middle" x="427" y="-119.5" font-family="Helvetica,sans-Serif" font-size="10.00">Statistics.hh</text>
</a>
</g>
<!-- Node17&#45;&gt;Node19 -->
<g id="edge44" class="edge"><title>Node17&#45;&gt;Node19</title>
<path fill="none" stroke="midnightblue" d="M489.111,-168.324C477.85,-160.107 460.713,-147.602 447.291,-137.807"/>
<polygon fill="midnightblue" stroke="midnightblue" points="449.247,-134.901 439.106,-131.834 445.12,-140.556 449.247,-134.901"/>
</g>
<!-- Node20 -->
<g id="node45" class="node"><title>Node20</title>
<a xlink:href="Song_8hh.html" target="_top" xlink:title="Song.hh">
<polygon fill="white" stroke="black" points="480.5,-112.5 480.5,-131.5 533.5,-131.5 533.5,-112.5 480.5,-112.5"/>
<text text-anchor="middle" x="507" y="-119.5" font-family="Helvetica,sans-Serif" font-size="10.00">Song.hh</text>
</a>
</g>
<!-- Node17&#45;&gt;Node20 -->
<g id="edge50" class="edge"><title>Node17&#45;&gt;Node20</title>
<path fill="none" stroke="midnightblue" d="M501.991,-168.083C502.786,-160.927 503.929,-150.635 504.923,-141.691"/>
<polygon fill="midnightblue" stroke="midnightblue" points="508.402,-142.076 506.028,-131.751 501.445,-141.303 508.402,-142.076"/>
</g>
<!-- Node18&#45;&gt;Node12 -->
<g id="edge40" class="edge"><title>Node18&#45;&gt;Node12</title>
<path fill="none" stroke="midnightblue" d="M606.391,-112.444C581.542,-103.438 542.226,-89.1891 514.246,-79.049"/>
<polygon fill="midnightblue" stroke="midnightblue" points="515.093,-75.6332 504.499,-75.5164 512.708,-82.2144 515.093,-75.6332"/>
</g>
<!-- Node18&#45;&gt;Node15 -->
<g id="edge42" class="edge"><title>Node18&#45;&gt;Node15</title>
<path fill="none" stroke="midnightblue" d="M619.075,-112.324C608.825,-104.185 593.279,-91.8395 580.999,-82.0874"/>
<polygon fill="midnightblue" stroke="midnightblue" points="583.132,-79.3119 573.124,-75.8339 578.779,-84.7937 583.132,-79.3119"/>
</g>
<!-- Node19&#45;&gt;Node12 -->
<g id="edge46" class="edge"><title>Node19&#45;&gt;Node12</title>
<path fill="none" stroke="midnightblue" d="M435.917,-112.083C443.78,-104.22 455.431,-92.5688 464.919,-83.0813"/>
<polygon fill="midnightblue" stroke="midnightblue" points="467.653,-85.2971 472.249,-75.7511 462.703,-80.3473 467.653,-85.2971"/>
</g>
<!-- Node20&#45;&gt;Node12 -->
<g id="edge52" class="edge"><title>Node20&#45;&gt;Node12</title>
<path fill="none" stroke="midnightblue" d="M502.707,-112.083C499.148,-104.691 493.978,-93.9533 489.576,-84.8111"/>
<polygon fill="midnightblue" stroke="midnightblue" points="492.705,-83.2427 485.213,-75.7511 486.398,-86.2795 492.705,-83.2427"/>
</g>
<!-- Node20&#45;&gt;Node15 -->
<g id="edge58" class="edge"><title>Node20&#45;&gt;Node15</title>
<path fill="none" stroke="midnightblue" d="M516.082,-112.083C524.171,-104.141 536.195,-92.3354 545.91,-82.7973"/>
<polygon fill="midnightblue" stroke="midnightblue" points="548.403,-85.2545 553.087,-75.7511 543.499,-80.2595 548.403,-85.2545"/>
</g>
<!-- Node21 -->
<g id="node48" class="node"><title>Node21</title>
<a xlink:href="AbstractComposite_8hh.html" target="_top" xlink:title="AbstractComposite.hh">
<polygon fill="white" stroke="black" points="314,-56.5 314,-75.5 428,-75.5 428,-56.5 314,-56.5"/>
<text text-anchor="middle" x="371" y="-63.5" font-family="Helvetica,sans-Serif" font-size="10.00">AbstractComposite.hh</text>
</a>
</g>
<!-- Node20&#45;&gt;Node21 -->
<g id="edge54" class="edge"><title>Node20&#45;&gt;Node21</title>
<path fill="none" stroke="midnightblue" d="M485.45,-112.444C462.969,-103.517 427.512,-89.4387 402.02,-79.3168"/>
<polygon fill="midnightblue" stroke="midnightblue" points="403.035,-75.9539 392.449,-75.5164 400.451,-82.4598 403.035,-75.9539"/>
</g>
<!-- Node22 -->
<g id="node50" class="node"><title>Node22</title>
<polygon fill="white" stroke="#bfbfbf" points="549,-0.5 549,-19.5 593,-19.5 593,-0.5 549,-0.5"/>
<text text-anchor="middle" x="571" y="-7.5" font-family="Helvetica,sans-Serif" font-size="10.00">vector</text>
</g>
<!-- Node21&#45;&gt;Node22 -->
<g id="edge56" class="edge"><title>Node21&#45;&gt;Node22</title>
<path fill="none" stroke="midnightblue" d="M402.691,-56.4435C439.942,-46.3856 501.419,-29.7869 538.863,-19.677"/>
<polygon fill="midnightblue" stroke="midnightblue" points="540.005,-22.9942 548.747,-17.0084 538.18,-16.2361 540.005,-22.9942"/>
</g>
<!-- Node23&#45;&gt;Node12 -->
<g id="edge66" class="edge"><title>Node23&#45;&gt;Node12</title>
<path fill="none" stroke="midnightblue" d="M687.729,-114.077C684.783,-113.369 681.832,-112.666 679,-112 626.599,-99.6729 566.26,-86.0402 526.099,-77.0457"/>
<polygon fill="midnightblue" stroke="midnightblue" points="526.611,-73.5739 516.088,-74.8062 525.083,-80.405 526.611,-73.5739"/>
</g>
<!-- Node23&#45;&gt;Node22 -->
<g id="edge68" class="edge"><title>Node23&#45;&gt;Node22</title>
<path fill="none" stroke="midnightblue" d="M727.397,-112.297C742.993,-99.3365 767.488,-74.5062 753,-56 734.72,-32.6494 650.253,-19.7412 603.084,-14.2403"/>
<polygon fill="midnightblue" stroke="midnightblue" points="603.394,-10.7532 593.066,-13.118 602.614,-17.7097 603.394,-10.7532"/>
</g>
<!-- Node24 -->
<g id="node59" class="node"><title>Node24</title>
<a xlink:href="AbstractClientExtension_8hh.html" target="_top" xlink:title="AbstractClientExtension.hh">
<polygon fill="white" stroke="black" points="608,-56.5 608,-75.5 744,-75.5 744,-56.5 608,-56.5"/>
<text text-anchor="middle" x="676" y="-63.5" font-family="Helvetica,sans-Serif" font-size="10.00">AbstractClientExtension.hh</text>
</a>
</g>
<!-- Node23&#45;&gt;Node24 -->
<g id="edge70" class="edge"><title>Node23&#45;&gt;Node24</title>
<path fill="none" stroke="midnightblue" d="M709.395,-112.083C703.745,-104.455 695.455,-93.2645 688.549,-83.9408"/>
<polygon fill="midnightblue" stroke="midnightblue" points="691.247,-81.7034 682.482,-75.7511 685.622,-85.87 691.247,-81.7034"/>
</g>
<!-- Node26 -->
<g id="node63" class="node"><title>Node26</title>
<a xlink:href="AbstractItemlist_8hh.html" target="_top" xlink:title="AbstractItemlist.hh">
<polygon fill="white" stroke="black" points="190.5,-224.5 190.5,-243.5 289.5,-243.5 289.5,-224.5 190.5,-224.5"/>
<text text-anchor="middle" x="240" y="-231.5" font-family="Helvetica,sans-Serif" font-size="10.00">AbstractItemlist.hh</text>
</a>
</g>
<!-- Node25&#45;&gt;Node26 -->
<g id="edge74" class="edge"><title>Node25&#45;&gt;Node26</title>
<path fill="none" stroke="midnightblue" d="M352.767,-280.444C330.616,-271.517 295.681,-257.439 270.564,-247.317"/>
<polygon fill="midnightblue" stroke="midnightblue" points="271.717,-244.008 261.133,-243.516 269.1,-250.501 271.717,-244.008"/>
</g>
<!-- Node26&#45;&gt;Node21 -->
<g id="edge76" class="edge"><title>Node26&#45;&gt;Node21</title>
<path fill="none" stroke="midnightblue" d="M240.065,-224.416C240.694,-202.673 245.329,-144.832 276,-112 290.256,-96.7391 310.75,-86.13 329.056,-79.0632"/>
<polygon fill="midnightblue" stroke="midnightblue" points="330.45,-82.2809 338.665,-75.5899 328.07,-75.6978 330.45,-82.2809"/>
</g>
<!-- Node27&#45;&gt;Node9 -->
<g id="edge80" class="edge"><title>Node27&#45;&gt;Node9</title>
<path fill="none" stroke="midnightblue" d="M372.191,-392.324C389.351,-383.664 415.946,-370.242 435.747,-360.249"/>
<polygon fill="midnightblue" stroke="midnightblue" points="437.501,-363.285 444.851,-355.655 434.347,-357.035 437.501,-363.285"/>
</g>
</g>
</svg>
