<?xml version="1.0" encoding="UTF-8" standalone="no"?>
<!DOCTYPE svg PUBLIC "-//W3C//DTD SVG 1.1//EN"
 "http://www.w3.org/Graphics/SVG/1.1/DTD/svg11.dtd">
<!-- Generated by graphviz version 2.28.0 (20111204.1018)
 -->
<!-- Title: G Pages: 1 -->
<svg width="684pt" height="476pt"
 viewBox="0.00 0.00 684.00 476.00" xmlns="http://www.w3.org/2000/svg" xmlns:xlink="http://www.w3.org/1999/xlink">
<g id="graph1" class="graph" transform="scale(1 1) rotate(0) translate(4 472)">
<title>G</title>
<polygon fill="white" stroke="white" points="-4,5 -4,-472 681,-472 681,5 -4,5"/>
<!-- Node1 -->
<g id="node1" class="node"><title>Node1</title>
<polygon fill="#bfbfbf" stroke="black" points="133.5,-448.5 133.5,-467.5 334.5,-467.5 334.5,-448.5 133.5,-448.5"/>
<text text-anchor="middle" x="234" y="-455.5" font-family="Helvetica,sans-Serif" font-size="10.00">src/Browser/Settings/SettingsPlayback.hh</text>
</g>
<!-- Node2 -->
<g id="node3" class="node"><title>Node2</title>
<polygon fill="white" stroke="#bfbfbf" points="13.5,-392.5 13.5,-411.5 68.5,-411.5 68.5,-392.5 13.5,-392.5"/>
<text text-anchor="middle" x="41" y="-399.5" font-family="Helvetica,sans-Serif" font-size="10.00">gtkmm.h</text>
</g>
<!-- Node1&#45;&gt;Node2 -->
<g id="edge2" class="edge"><title>Node1&#45;&gt;Node2</title>
<path fill="none" stroke="midnightblue" d="M203.419,-448.444C169.511,-438.956 114.805,-423.65 78.3804,-413.459"/>
<polygon fill="midnightblue" stroke="midnightblue" points="79.1974,-410.053 68.6241,-410.729 77.3112,-416.794 79.1974,-410.053"/>
</g>
<!-- Node3 -->
<g id="node5" class="node"><title>Node3</title>
<a xlink:href="Handler_8hh.html" target="_top" xlink:title="../../Config/Handler.hh">
<polygon fill="white" stroke="black" points="86.5,-392.5 86.5,-411.5 199.5,-411.5 199.5,-392.5 86.5,-392.5"/>
<text text-anchor="middle" x="143" y="-399.5" font-family="Helvetica,sans-Serif" font-size="10.00">../../Config/Handler.hh</text>
</a>
</g>
<!-- Node1&#45;&gt;Node3 -->
<g id="edge4" class="edge"><title>Node1&#45;&gt;Node3</title>
<path fill="none" stroke="midnightblue" d="M219.379,-448.324C205.051,-439.822 182.987,-426.729 166.251,-416.797"/>
<polygon fill="midnightblue" stroke="midnightblue" points="167.97,-413.748 157.584,-411.655 164.398,-419.768 167.97,-413.748"/>
</g>
<!-- Node12 -->
<g id="node24" class="node"><title>Node12</title>
<a xlink:href="Client_8hh.html" target="_top" xlink:title="../../MPD/Client.hh">
<polygon fill="white" stroke="black" points="303.5,-336.5 303.5,-355.5 402.5,-355.5 402.5,-336.5 303.5,-336.5"/>
<text text-anchor="middle" x="353" y="-343.5" font-family="Helvetica,sans-Serif" font-size="10.00">../../MPD/Client.hh</text>
</a>
</g>
<!-- Node1&#45;&gt;Node12 -->
<g id="edge24" class="edge"><title>Node1&#45;&gt;Node12</title>
<path fill="none" stroke="midnightblue" d="M234.293,-448.34C235.196,-434.758 238.798,-408.318 253,-392 266.73,-376.224 287.09,-365.702 305.862,-358.828"/>
<polygon fill="midnightblue" stroke="midnightblue" points="307.147,-362.088 315.49,-355.558 304.895,-355.46 307.147,-362.088"/>
</g>
<!-- Node27 -->
<g id="node65" class="node"><title>Node27</title>
<a xlink:href="AbstractClientUser_8hh.html" target="_top" xlink:title="../../MPD/AbstractClientUser.hh">
<polygon fill="white" stroke="black" points="262.5,-392.5 262.5,-411.5 419.5,-411.5 419.5,-392.5 262.5,-392.5"/>
<text text-anchor="middle" x="341" y="-399.5" font-family="Helvetica,sans-Serif" font-size="10.00">../../MPD/AbstractClientUser.hh</text>
</a>
</g>
<!-- Node1&#45;&gt;Node27 -->
<g id="edge76" class="edge"><title>Node1&#45;&gt;Node27</title>
<path fill="none" stroke="midnightblue" d="M251.191,-448.324C268.351,-439.664 294.946,-426.242 314.747,-416.249"/>
<polygon fill="midnightblue" stroke="midnightblue" points="316.501,-419.285 323.851,-411.655 313.347,-413.035 316.501,-419.285"/>
</g>
<!-- Node28 -->
<g id="node68" class="node"><title>Node28</title>
<a xlink:href="AbstractSettings_8hh.html" target="_top" xlink:title="AbstractSettings.hh">
<polygon fill="white" stroke="black" points="437.5,-392.5 437.5,-411.5 540.5,-411.5 540.5,-392.5 437.5,-392.5"/>
<text text-anchor="middle" x="489" y="-399.5" font-family="Helvetica,sans-Serif" font-size="10.00">AbstractSettings.hh</text>
</a>
</g>
<!-- Node1&#45;&gt;Node28 -->
<g id="edge80" class="edge"><title>Node1&#45;&gt;Node28</title>
<path fill="none" stroke="midnightblue" d="M274.406,-448.444C318.983,-439.004 390.768,-423.802 438.892,-413.611"/>
<polygon fill="midnightblue" stroke="midnightblue" points="439.726,-417.012 448.784,-411.516 438.275,-410.164 439.726,-417.012"/>
</g>
<!-- Node4 -->
<g id="node7" class="node"><title>Node4</title>
<polygon fill="white" stroke="#bfbfbf" points="12,-336.5 12,-355.5 52,-355.5 52,-336.5 12,-336.5"/>
<text text-anchor="middle" x="32" y="-343.5" font-family="Helvetica,sans-Serif" font-size="10.00">glib.h</text>
</g>
<!-- Node3&#45;&gt;Node4 -->
<g id="edge6" class="edge"><title>Node3&#45;&gt;Node4</title>
<path fill="none" stroke="midnightblue" d="M125.166,-392.324C107.284,-383.625 79.5249,-370.12 58.9544,-360.113"/>
<polygon fill="midnightblue" stroke="midnightblue" points="60.3133,-356.882 49.7898,-355.655 57.251,-363.177 60.3133,-356.882"/>
</g>
<!-- Node5 -->
<g id="node9" class="node"><title>Node5</title>
<polygon fill="white" stroke="#bfbfbf" points="0,-280.5 0,-299.5 80,-299.5 80,-280.5 0,-280.5"/>
<text text-anchor="middle" x="40" y="-287.5" font-family="Helvetica,sans-Serif" font-size="10.00">libxml/parser.h</text>
</g>
<!-- Node3&#45;&gt;Node5 -->
<g id="edge8" class="edge"><title>Node3&#45;&gt;Node5</title>
<path fill="none" stroke="midnightblue" d="M134.469,-392.465C125.534,-383.482 111.138,-368.884 99,-356 83.5689,-339.621 66.3106,-320.512 54.4664,-307.271"/>
<polygon fill="midnightblue" stroke="midnightblue" points="56.8074,-304.638 47.5386,-299.505 51.5838,-309.298 56.8074,-304.638"/>
</g>
<!-- Node6 -->
<g id="node11" class="node"><title>Node6</title>
<a xlink:href="Model_8hh.html" target="_top" xlink:title="Model.hh">
<polygon fill="white" stroke="black" points="108,-336.5 108,-355.5 164,-355.5 164,-336.5 108,-336.5"/>
<text text-anchor="middle" x="136" y="-343.5" font-family="Helvetica,sans-Serif" font-size="10.00">Model.hh</text>
</a>
</g>
<!-- Node3&#45;&gt;Node6 -->
<g id="edge10" class="edge"><title>Node3&#45;&gt;Node6</title>
<path fill="none" stroke="midnightblue" d="M141.844,-392.083C140.916,-384.927 139.582,-374.635 138.423,-365.691"/>
<polygon fill="midnightblue" stroke="midnightblue" points="141.891,-365.218 137.134,-355.751 134.949,-366.118 141.891,-365.218"/>
</g>
<!-- Node11 -->
<g id="node22" class="node"><title>Node11</title>
<a xlink:href="Singleton_8hh.html" target="_top" xlink:title="../Utils/Singleton.hh">
<polygon fill="white" stroke="black" points="182.5,-336.5 182.5,-355.5 285.5,-355.5 285.5,-336.5 182.5,-336.5"/>
<text text-anchor="middle" x="234" y="-343.5" font-family="Helvetica,sans-Serif" font-size="10.00">../Utils/Singleton.hh</text>
</a>
</g>
<!-- Node3&#45;&gt;Node11 -->
<g id="edge22" class="edge"><title>Node3&#45;&gt;Node11</title>
<path fill="none" stroke="midnightblue" d="M157.621,-392.324C171.949,-383.822 194.013,-370.729 210.749,-360.797"/>
<polygon fill="midnightblue" stroke="midnightblue" points="212.602,-363.768 219.416,-355.655 209.03,-357.748 212.602,-363.768"/>
</g>
<!-- Node6&#45;&gt;Node5 -->
<g id="edge12" class="edge"><title>Node6&#45;&gt;Node5</title>
<path fill="none" stroke="midnightblue" d="M120.576,-336.324C105.46,-327.822 82.1846,-314.729 64.5288,-304.797"/>
<polygon fill="midnightblue" stroke="midnightblue" points="65.8175,-301.507 55.3858,-299.655 62.3856,-307.608 65.8175,-301.507"/>
</g>
<!-- Node7 -->
<g id="node14" class="node"><title>Node7</title>
<polygon fill="white" stroke="#bfbfbf" points="192,-280.5 192,-299.5 270,-299.5 270,-280.5 192,-280.5"/>
<text text-anchor="middle" x="231" y="-287.5" font-family="Helvetica,sans-Serif" font-size="10.00">./defaultcfg.inl</text>
</g>
<!-- Node6&#45;&gt;Node7 -->
<g id="edge14" class="edge"><title>Node6&#45;&gt;Node7</title>
<path fill="none" stroke="midnightblue" d="M151.263,-336.324C166.221,-327.822 189.255,-314.729 206.727,-304.797"/>
<polygon fill="midnightblue" stroke="midnightblue" points="208.81,-307.639 215.774,-299.655 205.351,-301.553 208.81,-307.639"/>
</g>
<!-- Node8 -->
<g id="node16" class="node"><title>Node8</title>
<a xlink:href="Path_8hh.html" target="_top" xlink:title="../Init/Path.hh">
<polygon fill="white" stroke="black" points="98,-280.5 98,-299.5 174,-299.5 174,-280.5 98,-280.5"/>
<text text-anchor="middle" x="136" y="-287.5" font-family="Helvetica,sans-Serif" font-size="10.00">../Init/Path.hh</text>
</a>
</g>
<!-- Node6&#45;&gt;Node8 -->
<g id="edge16" class="edge"><title>Node6&#45;&gt;Node8</title>
<path fill="none" stroke="midnightblue" d="M136,-336.083C136,-329.006 136,-318.861 136,-309.986"/>
<polygon fill="midnightblue" stroke="midnightblue" points="139.5,-309.751 136,-299.751 132.5,-309.751 139.5,-309.751"/>
</g>
<!-- Node9 -->
<g id="node18" class="node"><title>Node9</title>
<polygon fill="white" stroke="#bfbfbf" points="190,-56.5 190,-75.5 246,-75.5 246,-56.5 190,-56.5"/>
<text text-anchor="middle" x="218" y="-63.5" font-family="Helvetica,sans-Serif" font-size="10.00">glibmm.h</text>
</g>
<!-- Node8&#45;&gt;Node9 -->
<g id="edge18" class="edge"><title>Node8&#45;&gt;Node9</title>
<path fill="none" stroke="midnightblue" d="M123.219,-280.369C112.606,-272.36 98.2694,-259.379 92,-244 88.6446,-235.769 89.0512,-232.386 92,-224 113.421,-163.084 169.554,-108.318 199.136,-82.5549"/>
<polygon fill="midnightblue" stroke="midnightblue" points="201.724,-84.9478 207.061,-75.7954 197.181,-79.6219 201.724,-84.9478"/>
</g>
<!-- Node10 -->
<g id="node20" class="node"><title>Node10</title>
<polygon fill="white" stroke="#bfbfbf" points="101.5,-224.5 101.5,-243.5 170.5,-243.5 170.5,-224.5 101.5,-224.5"/>
<text text-anchor="middle" x="136" y="-231.5" font-family="Helvetica,sans-Serif" font-size="10.00">glib/gstdio.h</text>
</g>
<!-- Node8&#45;&gt;Node10 -->
<g id="edge20" class="edge"><title>Node8&#45;&gt;Node10</title>
<path fill="none" stroke="midnightblue" d="M136,-280.083C136,-273.006 136,-262.861 136,-253.986"/>
<polygon fill="midnightblue" stroke="midnightblue" points="139.5,-253.751 136,-243.751 132.5,-253.751 139.5,-253.751"/>
</g>
<!-- Node13 -->
<g id="node26" class="node"><title>Node13</title>
<a xlink:href="BaseClient_8hh.html" target="_top" xlink:title="BaseClient.hh">
<polygon fill="white" stroke="black" points="314,-280.5 314,-299.5 392,-299.5 392,-280.5 314,-280.5"/>
<text text-anchor="middle" x="353" y="-287.5" font-family="Helvetica,sans-Serif" font-size="10.00">BaseClient.hh</text>
</a>
</g>
<!-- Node12&#45;&gt;Node13 -->
<g id="edge26" class="edge"><title>Node12&#45;&gt;Node13</title>
<path fill="none" stroke="midnightblue" d="M353,-336.083C353,-329.006 353,-318.861 353,-309.986"/>
<polygon fill="midnightblue" stroke="midnightblue" points="356.5,-309.751 353,-299.751 349.5,-309.751 356.5,-309.751"/>
</g>
<!-- Node25 -->
<g id="node60" class="node"><title>Node25</title>
<a xlink:href="AbstractItemGenerator_8hh.html" target="_top" xlink:title="AbstractItemGenerator.hh">
<polygon fill="white" stroke="black" points="461.5,-280.5 461.5,-299.5 590.5,-299.5 590.5,-280.5 461.5,-280.5"/>
<text text-anchor="middle" x="526" y="-287.5" font-family="Helvetica,sans-Serif" font-size="10.00">AbstractItemGenerator.hh</text>
</a>
</g>
<!-- Node12&#45;&gt;Node25 -->
<g id="edge70" class="edge"><title>Node12&#45;&gt;Node25</title>
<path fill="none" stroke="midnightblue" d="M380.412,-336.444C409.769,-327.28 456.519,-312.688 489.096,-302.519"/>
<polygon fill="midnightblue" stroke="midnightblue" points="490.213,-305.837 498.716,-299.516 488.127,-299.155 490.213,-305.837"/>
</g>
<!-- Node14 -->
<g id="node28" class="node"><title>Node14</title>
<a xlink:href="Listener_8hh.html" target="_top" xlink:title="Listener.hh">
<polygon fill="white" stroke="black" points="361.5,-224.5 361.5,-243.5 426.5,-243.5 426.5,-224.5 361.5,-224.5"/>
<text text-anchor="middle" x="394" y="-231.5" font-family="Helvetica,sans-Serif" font-size="10.00">Listener.hh</text>
</a>
</g>
<!-- Node13&#45;&gt;Node14 -->
<g id="edge28" class="edge"><title>Node13&#45;&gt;Node14</title>
<path fill="none" stroke="midnightblue" d="M359.77,-280.083C365.562,-272.455 374.058,-261.264 381.138,-251.941"/>
<polygon fill="midnightblue" stroke="midnightblue" points="384.096,-253.832 387.356,-243.751 378.521,-249.599 384.096,-253.832"/>
</g>
<!-- Node20 -->
<g id="node42" class="node"><title>Node20</title>
<a xlink:href="Connection_8hh.html" target="_top" xlink:title="Connection.hh">
<polygon fill="white" stroke="black" points="212,-112.5 212,-131.5 292,-131.5 292,-112.5 212,-112.5"/>
<text text-anchor="middle" x="252" y="-119.5" font-family="Helvetica,sans-Serif" font-size="10.00">Connection.hh</text>
</a>
</g>
<!-- Node13&#45;&gt;Node20 -->
<g id="edge68" class="edge"><title>Node13&#45;&gt;Node20</title>
<path fill="none" stroke="midnightblue" d="M344.464,-280.271C328.591,-263.618 294.306,-225.61 274,-188 266.041,-173.258 260.187,-155.098 256.528,-141.724"/>
<polygon fill="midnightblue" stroke="midnightblue" points="259.854,-140.607 253.972,-131.796 253.075,-142.352 259.854,-140.607"/>
</g>
<!-- Node14&#45;&gt;Node9 -->
<g id="edge36" class="edge"><title>Node14&#45;&gt;Node9</title>
<path fill="none" stroke="midnightblue" d="M361.283,-227.644C314.918,-218.005 232.458,-192.754 203,-132 195.752,-117.053 201.335,-98.4493 207.647,-84.9795"/>
<polygon fill="midnightblue" stroke="midnightblue" points="210.899,-86.3112 212.414,-75.8252 204.691,-83.0778 210.899,-86.3112"/>
</g>
<!-- Node15 -->
<g id="node30" class="node"><title>Node15</title>
<polygon fill="white" stroke="#bfbfbf" points="382,-56.5 382,-75.5 452,-75.5 452,-56.5 382,-56.5"/>
<text text-anchor="middle" x="417" y="-63.5" font-family="Helvetica,sans-Serif" font-size="10.00">mpd/client.h</text>
</g>
<!-- Node14&#45;&gt;Node15 -->
<g id="edge30" class="edge"><title>Node14&#45;&gt;Node15</title>
<path fill="none" stroke="midnightblue" d="M426.733,-224.451C449.127,-217.397 478.533,-205.647 500,-188 523.235,-168.9 529.166,-160.752 538,-132 540.611,-123.503 543.073,-119.299 538,-112 520.987,-87.521 488.989,-76.3312 462.17,-71.2295"/>
<polygon fill="midnightblue" stroke="midnightblue" points="462.628,-67.7575 452.187,-69.5573 461.472,-74.6613 462.628,-67.7575"/>
</g>
<!-- Node16 -->
<g id="node32" class="node"><title>Node16</title>
<polygon fill="white" stroke="#bfbfbf" points="398.5,-168.5 398.5,-187.5 471.5,-187.5 471.5,-168.5 398.5,-168.5"/>
<text text-anchor="middle" x="435" y="-175.5" font-family="Helvetica,sans-Serif" font-size="10.00">mpd/async.h</text>
</g>
<!-- Node14&#45;&gt;Node16 -->
<g id="edge32" class="edge"><title>Node14&#45;&gt;Node16</title>
<path fill="none" stroke="midnightblue" d="M400.77,-224.083C406.562,-216.455 415.058,-205.264 422.138,-195.941"/>
<polygon fill="midnightblue" stroke="midnightblue" points="425.096,-197.832 428.356,-187.751 419.521,-193.599 425.096,-197.832"/>
</g>
<!-- Node17 -->
<g id="node34" class="node"><title>Node17</title>
<polygon fill="white" stroke="#bfbfbf" points="576,-168.5 576,-187.5 650,-187.5 650,-168.5 576,-168.5"/>
<text text-anchor="middle" x="613" y="-175.5" font-family="Helvetica,sans-Serif" font-size="10.00">mpd/parser.h</text>
</g>
<!-- Node14&#45;&gt;Node17 -->
<g id="edge34" class="edge"><title>Node14&#45;&gt;Node17</title>
<path fill="none" stroke="midnightblue" d="M426.787,-224.916C464.376,-215.647 526.205,-200.401 568.214,-190.043"/>
<polygon fill="midnightblue" stroke="midnightblue" points="569.306,-193.379 578.177,-187.587 567.63,-186.582 569.306,-193.379"/>
</g>
<!-- Node18 -->
<g id="node37" class="node"><title>Node18</title>
<a xlink:href="Status_8hh.html" target="_top" xlink:title="Status.hh">
<polygon fill="white" stroke="black" points="470.5,-112.5 470.5,-131.5 529.5,-131.5 529.5,-112.5 470.5,-112.5"/>
<text text-anchor="middle" x="500" y="-119.5" font-family="Helvetica,sans-Serif" font-size="10.00">Status.hh</text>
</a>
</g>
<!-- Node14&#45;&gt;Node18 -->
<g id="edge38" class="edge"><title>Node14&#45;&gt;Node18</title>
<path fill="none" stroke="midnightblue" d="M422.905,-224.377C441.649,-217.391 465.241,-205.752 480,-188 490.959,-174.819 495.921,-155.682 498.162,-141.584"/>
<polygon fill="midnightblue" stroke="midnightblue" points="501.646,-141.931 499.44,-131.568 494.703,-141.045 501.646,-141.931"/>
</g>
<!-- Node19 -->
<g id="node40" class="node"><title>Node19</title>
<a xlink:href="NotifyData_8hh.html" target="_top" xlink:title="NotifyData.hh">
<polygon fill="white" stroke="black" points="303.5,-168.5 303.5,-187.5 380.5,-187.5 380.5,-168.5 303.5,-168.5"/>
<text text-anchor="middle" x="342" y="-175.5" font-family="Helvetica,sans-Serif" font-size="10.00">NotifyData.hh</text>
</a>
</g>
<!-- Node14&#45;&gt;Node19 -->
<g id="edge42" class="edge"><title>Node14&#45;&gt;Node19</title>
<path fill="none" stroke="midnightblue" d="M385.413,-224.083C377.841,-216.22 366.622,-204.569 357.486,-195.081"/>
<polygon fill="midnightblue" stroke="midnightblue" points="359.885,-192.527 350.427,-187.751 354.842,-197.382 359.885,-192.527"/>
</g>
<!-- Node14&#45;&gt;Node20 -->
<g id="edge66" class="edge"><title>Node14&#45;&gt;Node20</title>
<path fill="none" stroke="midnightblue" d="M363.461,-224.356C342.225,-217.203 314.213,-205.373 294,-188 278.914,-175.033 267.229,-155.322 260.057,-141.006"/>
<polygon fill="midnightblue" stroke="midnightblue" points="263.096,-139.245 255.649,-131.709 256.771,-142.244 263.096,-139.245"/>
</g>
<!-- Node18&#45;&gt;Node15 -->
<g id="edge40" class="edge"><title>Node18&#45;&gt;Node15</title>
<path fill="none" stroke="midnightblue" d="M486.665,-112.324C473.838,-103.979 454.215,-91.2122 439.06,-81.3524"/>
<polygon fill="midnightblue" stroke="midnightblue" points="440.593,-78.1742 430.302,-75.6545 436.776,-84.0417 440.593,-78.1742"/>
</g>
<!-- Node19&#45;&gt;Node18 -->
<g id="edge54" class="edge"><title>Node19&#45;&gt;Node18</title>
<path fill="none" stroke="midnightblue" d="M367.036,-168.444C393.616,-159.359 435.809,-144.939 465.523,-134.783"/>
<polygon fill="midnightblue" stroke="midnightblue" points="466.751,-138.062 475.082,-131.516 464.487,-131.439 466.751,-138.062"/>
</g>
<!-- Node19&#45;&gt;Node20 -->
<g id="edge44" class="edge"><title>Node19&#45;&gt;Node20</title>
<path fill="none" stroke="midnightblue" d="M327.54,-168.324C313.5,-159.9 291.952,-146.971 275.457,-137.074"/>
<polygon fill="midnightblue" stroke="midnightblue" points="276.8,-133.798 266.424,-131.655 273.198,-139.801 276.8,-133.798"/>
</g>
<!-- Node21 -->
<g id="node46" class="node"><title>Node21</title>
<a xlink:href="Statistics_8hh.html" target="_top" xlink:title="Statistics.hh">
<polygon fill="white" stroke="black" points="381.5,-112.5 381.5,-131.5 452.5,-131.5 452.5,-112.5 381.5,-112.5"/>
<text text-anchor="middle" x="417" y="-119.5" font-family="Helvetica,sans-Serif" font-size="10.00">Statistics.hh</text>
</a>
</g>
<!-- Node19&#45;&gt;Node21 -->
<g id="edge50" class="edge"><title>Node19&#45;&gt;Node21</title>
<path fill="none" stroke="midnightblue" d="M354.05,-168.324C365.463,-160.107 382.831,-147.602 396.435,-137.807"/>
<polygon fill="midnightblue" stroke="midnightblue" points="398.66,-140.517 404.731,-131.834 394.57,-134.837 398.66,-140.517"/>
</g>
<!-- Node22 -->
<g id="node50" class="node"><title>Node22</title>
<a xlink:href="Song_8hh.html" target="_top" xlink:title="Song.hh">
<polygon fill="white" stroke="black" points="310.5,-112.5 310.5,-131.5 363.5,-131.5 363.5,-112.5 310.5,-112.5"/>
<text text-anchor="middle" x="337" y="-119.5" font-family="Helvetica,sans-Serif" font-size="10.00">Song.hh</text>
</a>
</g>
<!-- Node19&#45;&gt;Node22 -->
<g id="edge56" class="edge"><title>Node19&#45;&gt;Node22</title>
<path fill="none" stroke="midnightblue" d="M341.174,-168.083C340.519,-161.006 339.58,-150.861 338.758,-141.986"/>
<polygon fill="midnightblue" stroke="midnightblue" points="342.217,-141.386 337.81,-131.751 335.247,-142.031 342.217,-141.386"/>
</g>
<!-- Node20&#45;&gt;Node9 -->
<g id="edge48" class="edge"><title>Node20&#45;&gt;Node9</title>
<path fill="none" stroke="midnightblue" d="M246.386,-112.083C241.633,-104.534 234.682,-93.4948 228.848,-84.2298"/>
<polygon fill="midnightblue" stroke="midnightblue" points="231.8,-82.3486 223.51,-75.7511 225.876,-86.0783 231.8,-82.3486"/>
</g>
<!-- Node20&#45;&gt;Node15 -->
<g id="edge46" class="edge"><title>Node20&#45;&gt;Node15</title>
<path fill="none" stroke="midnightblue" d="M278.145,-112.444C306.023,-103.32 350.348,-88.8133 381.4,-78.6509"/>
<polygon fill="midnightblue" stroke="midnightblue" points="382.562,-81.9533 390.978,-75.5164 380.385,-75.3005 382.562,-81.9533"/>
</g>
<!-- Node21&#45;&gt;Node15 -->
<g id="edge52" class="edge"><title>Node21&#45;&gt;Node15</title>
<path fill="none" stroke="midnightblue" d="M417,-112.083C417,-105.006 417,-94.8611 417,-85.9865"/>
<polygon fill="midnightblue" stroke="midnightblue" points="420.5,-85.751 417,-75.7511 413.5,-85.7511 420.5,-85.751"/>
</g>
<!-- Node22&#45;&gt;Node9 -->
<g id="edge64" class="edge"><title>Node22&#45;&gt;Node9</title>
<path fill="none" stroke="midnightblue" d="M318.144,-112.444C298.734,-103.636 268.27,-89.8116 246.035,-79.722"/>
<polygon fill="midnightblue" stroke="midnightblue" points="247.32,-76.4615 236.768,-75.5164 244.428,-82.836 247.32,-76.4615"/>
</g>
<!-- Node22&#45;&gt;Node15 -->
<g id="edge58" class="edge"><title>Node22&#45;&gt;Node15</title>
<path fill="none" stroke="midnightblue" d="M349.853,-112.324C362.216,-103.979 381.13,-91.2122 395.737,-81.3524"/>
<polygon fill="midnightblue" stroke="midnightblue" points="397.848,-84.1503 404.179,-75.6545 393.932,-78.3483 397.848,-84.1503"/>
</g>
<!-- Node23 -->
<g id="node53" class="node"><title>Node23</title>
<a xlink:href="AbstractComposite_8hh.html" target="_top" xlink:title="AbstractComposite.hh">
<polygon fill="white" stroke="black" points="540,-56.5 540,-75.5 654,-75.5 654,-56.5 540,-56.5"/>
<text text-anchor="middle" x="597" y="-63.5" font-family="Helvetica,sans-Serif" font-size="10.00">AbstractComposite.hh</text>
</a>
</g>
<!-- Node22&#45;&gt;Node23 -->
<g id="edge60" class="edge"><title>Node22&#45;&gt;Node23</title>
<path fill="none" stroke="midnightblue" d="M363.717,-113.971C366.509,-113.284 369.309,-112.615 372,-112 429.047,-98.9709 494.706,-86.0781 540.312,-77.4549"/>
<polygon fill="midnightblue" stroke="midnightblue" points="541.124,-80.8637 550.303,-75.5734 539.828,-73.9846 541.124,-80.8637"/>
</g>
<!-- Node24 -->
<g id="node55" class="node"><title>Node24</title>
<polygon fill="white" stroke="#bfbfbf" points="575,-0.5 575,-19.5 619,-19.5 619,-0.5 575,-0.5"/>
<text text-anchor="middle" x="597" y="-7.5" font-family="Helvetica,sans-Serif" font-size="10.00">vector</text>
</g>
<!-- Node23&#45;&gt;Node24 -->
<g id="edge62" class="edge"><title>Node23&#45;&gt;Node24</title>
<path fill="none" stroke="midnightblue" d="M597,-56.083C597,-49.0059 597,-38.8611 597,-29.9865"/>
<polygon fill="midnightblue" stroke="midnightblue" points="600.5,-29.751 597,-19.7511 593.5,-29.7511 600.5,-29.751"/>
</g>
<!-- Node26 -->
<g id="node62" class="node"><title>Node26</title>
<a xlink:href="AbstractItemlist_8hh.html" target="_top" xlink:title="AbstractItemlist.hh">
<polygon fill="white" stroke="black" points="577.5,-224.5 577.5,-243.5 676.5,-243.5 676.5,-224.5 577.5,-224.5"/>
<text text-anchor="middle" x="627" y="-231.5" font-family="Helvetica,sans-Serif" font-size="10.00">AbstractItemlist.hh</text>
</a>
</g>
<!-- Node25&#45;&gt;Node26 -->
<g id="edge72" class="edge"><title>Node25&#45;&gt;Node26</title>
<path fill="none" stroke="midnightblue" d="M542.227,-280.324C558.351,-271.703 583.3,-258.364 601.964,-248.386"/>
<polygon fill="midnightblue" stroke="midnightblue" points="603.644,-251.456 610.813,-243.655 600.344,-245.283 603.644,-251.456"/>
</g>
<!-- Node26&#45;&gt;Node23 -->
<g id="edge74" class="edge"><title>Node26&#45;&gt;Node23</title>
<path fill="none" stroke="midnightblue" d="M635.751,-224.286C643.563,-215.84 654.451,-202.246 659,-188 661.704,-179.532 661.416,-176.554 659,-168 649.73,-135.181 626.473,-102.52 611.228,-83.5708"/>
<polygon fill="midnightblue" stroke="midnightblue" points="613.747,-81.125 604.674,-75.6531 608.354,-85.5884 613.747,-81.125"/>
</g>
<!-- Node27&#45;&gt;Node12 -->
<g id="edge78" class="edge"><title>Node27&#45;&gt;Node12</title>
<path fill="none" stroke="midnightblue" d="M342.982,-392.083C344.572,-384.927 346.859,-374.635 348.846,-365.691"/>
<polygon fill="midnightblue" stroke="midnightblue" points="352.303,-366.272 351.055,-355.751 345.469,-364.754 352.303,-366.272"/>
</g>
</g>
</svg>
