<?xml version="1.0" encoding="UTF-8" standalone="no"?>
<!DOCTYPE svg PUBLIC "-//W3C//DTD SVG 1.1//EN"
 "http://www.w3.org/Graphics/SVG/1.1/DTD/svg11.dtd">
<!-- Generated by graphviz version 2.28.0 (20111204.1018)
 -->
<!-- Title: G Pages: 1 -->
<svg width="941pt" height="532pt"
 viewBox="0.00 0.00 941.00 532.00" xmlns="http://www.w3.org/2000/svg" xmlns:xlink="http://www.w3.org/1999/xlink">
<g id="graph1" class="graph" transform="scale(1 1) rotate(0) translate(4 528)">
<title>G</title>
<polygon fill="white" stroke="white" points="-4,5 -4,-528 938,-528 938,5 -4,5"/>
<!-- Node1 -->
<g id="node1" class="node"><title>Node1</title>
<polygon fill="#bfbfbf" stroke="black" points="640,-504.5 640,-523.5 834,-523.5 834,-504.5 640,-504.5"/>
<text text-anchor="middle" x="737" y="-511.5" font-family="Helvetica,sans-Serif" font-size="10.00">src/Browser/Settings/SettingsGeneral.hh</text>
</g>
<!-- Node2 -->
<g id="node3" class="node"><title>Node2</title>
<polygon fill="white" stroke="#bfbfbf" points="736.5,-336.5 736.5,-355.5 791.5,-355.5 791.5,-336.5 736.5,-336.5"/>
<text text-anchor="middle" x="764" y="-343.5" font-family="Helvetica,sans-Serif" font-size="10.00">gtkmm.h</text>
</g>
<!-- Node1&#45;&gt;Node2 -->
<g id="edge2" class="edge"><title>Node1&#45;&gt;Node2</title>
<path fill="none" stroke="midnightblue" d="M740.177,-504.24C746.273,-486.913 759.414,-446.912 764,-412 766.023,-396.596 765.87,-378.962 765.297,-365.951"/>
<polygon fill="midnightblue" stroke="midnightblue" points="768.786,-365.666 764.729,-355.879 761.798,-366.06 768.786,-365.666"/>
</g>
<!-- Node3 -->
<g id="node5" class="node"><title>Node3</title>
<a xlink:href="Handler_8hh.html" target="_top" xlink:title="../../Config/Handler.hh">
<polygon fill="white" stroke="black" points="219.5,-448.5 219.5,-467.5 332.5,-467.5 332.5,-448.5 219.5,-448.5"/>
<text text-anchor="middle" x="276" y="-455.5" font-family="Helvetica,sans-Serif" font-size="10.00">../../Config/Handler.hh</text>
</a>
</g>
<!-- Node1&#45;&gt;Node3 -->
<g id="edge4" class="edge"><title>Node1&#45;&gt;Node3</title>
<path fill="none" stroke="midnightblue" d="M664.208,-504.473C575.947,-494.135 428.42,-476.854 342.9,-466.836"/>
<polygon fill="midnightblue" stroke="midnightblue" points="343.126,-463.339 332.787,-465.652 342.312,-470.292 343.126,-463.339"/>
</g>
<!-- Node12 -->
<g id="node24" class="node"><title>Node12</title>
<a xlink:href="Trayicon_8hh.html" target="_top" xlink:title="../../GManager/Trayicon.hh">
<polygon fill="white" stroke="black" points="605,-448.5 605,-467.5 739,-467.5 739,-448.5 605,-448.5"/>
<text text-anchor="middle" x="672" y="-455.5" font-family="Helvetica,sans-Serif" font-size="10.00">../../GManager/Trayicon.hh</text>
</a>
</g>
<!-- Node1&#45;&gt;Node12 -->
<g id="edge24" class="edge"><title>Node1&#45;&gt;Node12</title>
<path fill="none" stroke="midnightblue" d="M726.557,-504.324C716.854,-496.263 702.185,-484.077 690.5,-474.369"/>
<polygon fill="midnightblue" stroke="midnightblue" points="692.562,-471.532 682.633,-467.834 688.089,-476.916 692.562,-471.532"/>
</g>
<!-- Node30 -->
<g id="node74" class="node"><title>Node30</title>
<a xlink:href="AbstractSettings_8hh.html" target="_top" xlink:title="AbstractSettings.hh">
<polygon fill="white" stroke="black" points="830.5,-448.5 830.5,-467.5 933.5,-467.5 933.5,-448.5 830.5,-448.5"/>
<text text-anchor="middle" x="882" y="-455.5" font-family="Helvetica,sans-Serif" font-size="10.00">AbstractSettings.hh</text>
</a>
</g>
<!-- Node1&#45;&gt;Node30 -->
<g id="edge88" class="edge"><title>Node1&#45;&gt;Node30</title>
<path fill="none" stroke="midnightblue" d="M759.976,-504.444C784.157,-495.438 822.418,-481.189 849.646,-471.049"/>
<polygon fill="midnightblue" stroke="midnightblue" points="850.982,-474.286 859.132,-467.516 848.539,-467.727 850.982,-474.286"/>
</g>
<!-- Node4 -->
<g id="node7" class="node"><title>Node4</title>
<polygon fill="white" stroke="#bfbfbf" points="346,-392.5 346,-411.5 386,-411.5 386,-392.5 346,-392.5"/>
<text text-anchor="middle" x="366" y="-399.5" font-family="Helvetica,sans-Serif" font-size="10.00">glib.h</text>
</g>
<!-- Node3&#45;&gt;Node4 -->
<g id="edge6" class="edge"><title>Node3&#45;&gt;Node4</title>
<path fill="none" stroke="midnightblue" d="M290.46,-448.324C304.5,-439.9 326.048,-426.971 342.543,-417.074"/>
<polygon fill="midnightblue" stroke="midnightblue" points="344.802,-419.801 351.576,-411.655 341.2,-413.798 344.802,-419.801"/>
</g>
<!-- Node5 -->
<g id="node9" class="node"><title>Node5</title>
<polygon fill="white" stroke="#bfbfbf" points="190,-336.5 190,-355.5 270,-355.5 270,-336.5 190,-336.5"/>
<text text-anchor="middle" x="230" y="-343.5" font-family="Helvetica,sans-Serif" font-size="10.00">libxml/parser.h</text>
</g>
<!-- Node3&#45;&gt;Node5 -->
<g id="edge8" class="edge"><title>Node3&#45;&gt;Node5</title>
<path fill="none" stroke="midnightblue" d="M256.094,-448.41C241.775,-441.04 223.542,-428.916 215,-412 207.512,-397.171 213.124,-378.554 219.507,-365.048"/>
<polygon fill="midnightblue" stroke="midnightblue" points="222.78,-366.345 224.334,-355.865 216.584,-363.088 222.78,-366.345"/>
</g>
<!-- Node6 -->
<g id="node11" class="node"><title>Node6</title>
<a xlink:href="Model_8hh.html" target="_top" xlink:title="Model.hh">
<polygon fill="white" stroke="black" points="108,-392.5 108,-411.5 164,-411.5 164,-392.5 108,-392.5"/>
<text text-anchor="middle" x="136" y="-399.5" font-family="Helvetica,sans-Serif" font-size="10.00">Model.hh</text>
</a>
</g>
<!-- Node3&#45;&gt;Node6 -->
<g id="edge10" class="edge"><title>Node3&#45;&gt;Node6</title>
<path fill="none" stroke="midnightblue" d="M253.817,-448.444C230.572,-439.478 193.851,-425.314 167.585,-415.183"/>
<polygon fill="midnightblue" stroke="midnightblue" points="168.669,-411.85 158.08,-411.516 166.15,-418.381 168.669,-411.85"/>
</g>
<!-- Node11 -->
<g id="node22" class="node"><title>Node11</title>
<a xlink:href="Singleton_8hh.html" target="_top" xlink:title="../Utils/Singleton.hh">
<polygon fill="white" stroke="black" points="224.5,-392.5 224.5,-411.5 327.5,-411.5 327.5,-392.5 224.5,-392.5"/>
<text text-anchor="middle" x="276" y="-399.5" font-family="Helvetica,sans-Serif" font-size="10.00">../Utils/Singleton.hh</text>
</a>
</g>
<!-- Node3&#45;&gt;Node11 -->
<g id="edge22" class="edge"><title>Node3&#45;&gt;Node11</title>
<path fill="none" stroke="midnightblue" d="M276,-448.083C276,-441.006 276,-430.861 276,-421.986"/>
<polygon fill="midnightblue" stroke="midnightblue" points="279.5,-421.751 276,-411.751 272.5,-421.751 279.5,-421.751"/>
</g>
<!-- Node6&#45;&gt;Node5 -->
<g id="edge12" class="edge"><title>Node6&#45;&gt;Node5</title>
<path fill="none" stroke="midnightblue" d="M151.103,-392.324C165.903,-383.822 188.694,-370.729 205.982,-360.797"/>
<polygon fill="midnightblue" stroke="midnightblue" points="208.007,-363.671 214.935,-355.655 204.52,-357.601 208.007,-363.671"/>
</g>
<!-- Node7 -->
<g id="node14" class="node"><title>Node7</title>
<polygon fill="white" stroke="#bfbfbf" points="0,-336.5 0,-355.5 78,-355.5 78,-336.5 0,-336.5"/>
<text text-anchor="middle" x="39" y="-343.5" font-family="Helvetica,sans-Serif" font-size="10.00">./defaultcfg.inl</text>
</g>
<!-- Node6&#45;&gt;Node7 -->
<g id="edge14" class="edge"><title>Node6&#45;&gt;Node7</title>
<path fill="none" stroke="midnightblue" d="M120.415,-392.324C105.001,-383.743 81.1878,-370.486 63.2903,-360.522"/>
<polygon fill="midnightblue" stroke="midnightblue" points="64.9858,-357.461 54.5461,-355.655 61.5809,-363.577 64.9858,-357.461"/>
</g>
<!-- Node8 -->
<g id="node16" class="node"><title>Node8</title>
<a xlink:href="Path_8hh.html" target="_top" xlink:title="../Init/Path.hh">
<polygon fill="white" stroke="black" points="96,-336.5 96,-355.5 172,-355.5 172,-336.5 96,-336.5"/>
<text text-anchor="middle" x="134" y="-343.5" font-family="Helvetica,sans-Serif" font-size="10.00">../Init/Path.hh</text>
</a>
</g>
<!-- Node6&#45;&gt;Node8 -->
<g id="edge16" class="edge"><title>Node6&#45;&gt;Node8</title>
<path fill="none" stroke="midnightblue" d="M135.67,-392.083C135.408,-385.006 135.032,-374.861 134.703,-365.986"/>
<polygon fill="midnightblue" stroke="midnightblue" points="138.192,-365.615 134.324,-355.751 131.197,-365.874 138.192,-365.615"/>
</g>
<!-- Node9 -->
<g id="node18" class="node"><title>Node9</title>
<polygon fill="white" stroke="#bfbfbf" points="140,-56.5 140,-75.5 196,-75.5 196,-56.5 140,-56.5"/>
<text text-anchor="middle" x="168" y="-63.5" font-family="Helvetica,sans-Serif" font-size="10.00">glibmm.h</text>
</g>
<!-- Node8&#45;&gt;Node9 -->
<g id="edge18" class="edge"><title>Node8&#45;&gt;Node9</title>
<path fill="none" stroke="midnightblue" d="M128.716,-336.231C118.275,-318.043 96,-274.601 96,-235 96,-235 96,-235 96,-177 96,-137.939 128.177,-101.944 149.509,-82.3723"/>
<polygon fill="midnightblue" stroke="midnightblue" points="151.884,-84.9449 157.065,-75.7031 147.251,-79.6969 151.884,-84.9449"/>
</g>
<!-- Node10 -->
<g id="node20" class="node"><title>Node10</title>
<polygon fill="white" stroke="#bfbfbf" points="124.5,-280.5 124.5,-299.5 193.5,-299.5 193.5,-280.5 124.5,-280.5"/>
<text text-anchor="middle" x="159" y="-287.5" font-family="Helvetica,sans-Serif" font-size="10.00">glib/gstdio.h</text>
</g>
<!-- Node8&#45;&gt;Node10 -->
<g id="edge20" class="edge"><title>Node8&#45;&gt;Node10</title>
<path fill="none" stroke="midnightblue" d="M138.128,-336.083C141.514,-328.77 146.416,-318.181 150.619,-309.103"/>
<polygon fill="midnightblue" stroke="midnightblue" points="153.923,-310.296 154.949,-299.751 147.571,-307.355 153.923,-310.296"/>
</g>
<!-- Node12&#45;&gt;Node2 -->
<g id="edge26" class="edge"><title>Node12&#45;&gt;Node2</title>
<path fill="none" stroke="midnightblue" d="M694.228,-448.487C710.529,-441.156 732.002,-429.049 745,-412 755.237,-398.573 759.967,-379.755 762.148,-365.821"/>
<polygon fill="midnightblue" stroke="midnightblue" points="765.622,-366.249 763.407,-355.888 758.677,-365.369 765.622,-366.249"/>
</g>
<!-- Node13 -->
<g id="node27" class="node"><title>Node13</title>
<a xlink:href="Client_8hh.html" target="_top" xlink:title="../MPD/Client.hh">
<polygon fill="white" stroke="black" points="509,-336.5 509,-355.5 599,-355.5 599,-336.5 509,-336.5"/>
<text text-anchor="middle" x="554" y="-343.5" font-family="Helvetica,sans-Serif" font-size="10.00">../MPD/Client.hh</text>
</a>
</g>
<!-- Node12&#45;&gt;Node13 -->
<g id="edge28" class="edge"><title>Node12&#45;&gt;Node13</title>
<path fill="none" stroke="midnightblue" d="M653.776,-448.463C638.078,-440.516 615.421,-427.571 599,-412 584.414,-398.169 571.789,-378.89 563.655,-364.923"/>
<polygon fill="midnightblue" stroke="midnightblue" points="566.508,-362.854 558.563,-355.845 560.403,-366.279 566.508,-362.854"/>
</g>
<!-- Node28 -->
<g id="node68" class="node"><title>Node28</title>
<a xlink:href="BasePopup_8hh.html" target="_top" xlink:title="../Browser/BasePopup.hh">
<polygon fill="white" stroke="black" points="608,-392.5 608,-411.5 736,-411.5 736,-392.5 608,-392.5"/>
<text text-anchor="middle" x="672" y="-399.5" font-family="Helvetica,sans-Serif" font-size="10.00">../Browser/BasePopup.hh</text>
</a>
</g>
<!-- Node12&#45;&gt;Node28 -->
<g id="edge80" class="edge"><title>Node12&#45;&gt;Node28</title>
<path fill="none" stroke="midnightblue" d="M672,-448.083C672,-441.006 672,-430.861 672,-421.986"/>
<polygon fill="midnightblue" stroke="midnightblue" points="675.5,-421.751 672,-411.751 668.5,-421.751 675.5,-421.751"/>
</g>
<!-- Node29 -->
<g id="node71" class="node"><title>Node29</title>
<a xlink:href="AbstractClientUser_8hh.html" target="_top" xlink:title="../MPD/AbstractClientUser.hh">
<polygon fill="white" stroke="black" points="404,-392.5 404,-411.5 552,-411.5 552,-392.5 404,-392.5"/>
<text text-anchor="middle" x="478" y="-399.5" font-family="Helvetica,sans-Serif" font-size="10.00">../MPD/AbstractClientUser.hh</text>
</a>
</g>
<!-- Node12&#45;&gt;Node29 -->
<g id="edge84" class="edge"><title>Node12&#45;&gt;Node29</title>
<path fill="none" stroke="midnightblue" d="M641.26,-448.444C608.056,-439.201 555.009,-424.436 518.443,-414.257"/>
<polygon fill="midnightblue" stroke="midnightblue" points="519.168,-410.826 508.596,-411.516 517.291,-417.57 519.168,-410.826"/>
</g>
<!-- Node14 -->
<g id="node29" class="node"><title>Node14</title>
<a xlink:href="BaseClient_8hh.html" target="_top" xlink:title="BaseClient.hh">
<polygon fill="white" stroke="black" points="344,-280.5 344,-299.5 422,-299.5 422,-280.5 344,-280.5"/>
<text text-anchor="middle" x="383" y="-287.5" font-family="Helvetica,sans-Serif" font-size="10.00">BaseClient.hh</text>
</a>
</g>
<!-- Node13&#45;&gt;Node14 -->
<g id="edge30" class="edge"><title>Node13&#45;&gt;Node14</title>
<path fill="none" stroke="midnightblue" d="M526.905,-336.444C498.012,-327.32 452.075,-312.813 419.895,-302.651"/>
<polygon fill="midnightblue" stroke="midnightblue" points="420.559,-299.19 409.969,-299.516 418.451,-305.865 420.559,-299.19"/>
</g>
<!-- Node26 -->
<g id="node63" class="node"><title>Node26</title>
<a xlink:href="AbstractItemGenerator_8hh.html" target="_top" xlink:title="AbstractItemGenerator.hh">
<polygon fill="white" stroke="black" points="490.5,-280.5 490.5,-299.5 619.5,-299.5 619.5,-280.5 490.5,-280.5"/>
<text text-anchor="middle" x="555" y="-287.5" font-family="Helvetica,sans-Serif" font-size="10.00">AbstractItemGenerator.hh</text>
</a>
</g>
<!-- Node13&#45;&gt;Node26 -->
<g id="edge74" class="edge"><title>Node13&#45;&gt;Node26</title>
<path fill="none" stroke="midnightblue" d="M554.165,-336.083C554.296,-329.006 554.484,-318.861 554.648,-309.986"/>
<polygon fill="midnightblue" stroke="midnightblue" points="558.152,-309.814 554.838,-299.751 551.153,-309.685 558.152,-309.814"/>
</g>
<!-- Node15 -->
<g id="node31" class="node"><title>Node15</title>
<a xlink:href="Listener_8hh.html" target="_top" xlink:title="Listener.hh">
<polygon fill="white" stroke="black" points="350.5,-224.5 350.5,-243.5 415.5,-243.5 415.5,-224.5 350.5,-224.5"/>
<text text-anchor="middle" x="383" y="-231.5" font-family="Helvetica,sans-Serif" font-size="10.00">Listener.hh</text>
</a>
</g>
<!-- Node14&#45;&gt;Node15 -->
<g id="edge32" class="edge"><title>Node14&#45;&gt;Node15</title>
<path fill="none" stroke="midnightblue" d="M383,-280.083C383,-273.006 383,-262.861 383,-253.986"/>
<polygon fill="midnightblue" stroke="midnightblue" points="386.5,-253.751 383,-243.751 379.5,-253.751 386.5,-253.751"/>
</g>
<!-- Node21 -->
<g id="node45" class="node"><title>Node21</title>
<a xlink:href="Connection_8hh.html" target="_top" xlink:title="Connection.hh">
<polygon fill="white" stroke="black" points="162,-112.5 162,-131.5 242,-131.5 242,-112.5 162,-112.5"/>
<text text-anchor="middle" x="202" y="-119.5" font-family="Helvetica,sans-Serif" font-size="10.00">Connection.hh</text>
</a>
</g>
<!-- Node14&#45;&gt;Node21 -->
<g id="edge72" class="edge"><title>Node14&#45;&gt;Node21</title>
<path fill="none" stroke="midnightblue" d="M359.294,-280.389C324.148,-266.422 258.458,-235.512 222,-188 211.678,-174.548 206.643,-155.734 204.211,-141.806"/>
<polygon fill="midnightblue" stroke="midnightblue" points="207.671,-141.273 202.768,-131.88 200.743,-142.28 207.671,-141.273"/>
</g>
<!-- Node15&#45;&gt;Node9 -->
<g id="edge40" class="edge"><title>Node15&#45;&gt;Node9</title>
<path fill="none" stroke="midnightblue" d="M350.402,-227.931C316.815,-221.802 263.636,-209.526 222,-188 186.916,-169.861 169.984,-167.657 153,-132 145.857,-117.002 151.427,-98.4052 157.707,-84.9504"/>
<polygon fill="midnightblue" stroke="midnightblue" points="160.951,-86.2971 162.449,-75.8086 154.737,-83.0741 160.951,-86.2971"/>
</g>
<!-- Node16 -->
<g id="node33" class="node"><title>Node16</title>
<polygon fill="white" stroke="#bfbfbf" points="341,-56.5 341,-75.5 411,-75.5 411,-56.5 341,-56.5"/>
<text text-anchor="middle" x="376" y="-63.5" font-family="Helvetica,sans-Serif" font-size="10.00">mpd/client.h</text>
</g>
<!-- Node15&#45;&gt;Node16 -->
<g id="edge34" class="edge"><title>Node15&#45;&gt;Node16</title>
<path fill="none" stroke="midnightblue" d="M400.908,-224.495C438.355,-205.536 518.995,-157.857 488,-112 473.06,-89.8968 445.28,-78.6486 421.126,-72.9253"/>
<polygon fill="midnightblue" stroke="midnightblue" points="421.551,-69.4381 411.044,-70.7952 420.104,-76.2869 421.551,-69.4381"/>
</g>
<!-- Node17 -->
<g id="node35" class="node"><title>Node17</title>
<polygon fill="white" stroke="#bfbfbf" points="253.5,-168.5 253.5,-187.5 326.5,-187.5 326.5,-168.5 253.5,-168.5"/>
<text text-anchor="middle" x="290" y="-175.5" font-family="Helvetica,sans-Serif" font-size="10.00">mpd/async.h</text>
</g>
<!-- Node15&#45;&gt;Node17 -->
<g id="edge36" class="edge"><title>Node15&#45;&gt;Node17</title>
<path fill="none" stroke="midnightblue" d="M368.058,-224.324C353.415,-215.822 330.866,-202.729 313.762,-192.797"/>
<polygon fill="midnightblue" stroke="midnightblue" points="315.31,-189.649 304.905,-187.655 311.795,-195.703 315.31,-189.649"/>
</g>
<!-- Node18 -->
<g id="node37" class="node"><title>Node18</title>
<polygon fill="white" stroke="#bfbfbf" points="526,-168.5 526,-187.5 600,-187.5 600,-168.5 526,-168.5"/>
<text text-anchor="middle" x="563" y="-175.5" font-family="Helvetica,sans-Serif" font-size="10.00">mpd/parser.h</text>
</g>
<!-- Node15&#45;&gt;Node18 -->
<g id="edge38" class="edge"><title>Node15&#45;&gt;Node18</title>
<path fill="none" stroke="midnightblue" d="M411.522,-224.444C442.066,-215.28 490.708,-200.688 524.603,-190.519"/>
<polygon fill="midnightblue" stroke="midnightblue" points="526.039,-193.742 534.612,-187.516 524.028,-187.038 526.039,-193.742"/>
</g>
<!-- Node19 -->
<g id="node40" class="node"><title>Node19</title>
<a xlink:href="Status_8hh.html" target="_top" xlink:title="Status.hh">
<polygon fill="white" stroke="black" points="420.5,-112.5 420.5,-131.5 479.5,-131.5 479.5,-112.5 420.5,-112.5"/>
<text text-anchor="middle" x="450" y="-119.5" font-family="Helvetica,sans-Serif" font-size="10.00">Status.hh</text>
</a>
</g>
<!-- Node15&#45;&gt;Node19 -->
<g id="edge42" class="edge"><title>Node15&#45;&gt;Node19</title>
<path fill="none" stroke="midnightblue" d="M395.088,-224.312C405.712,-216.083 420.865,-202.806 430,-188 438.815,-173.713 444.008,-155.244 446.883,-141.647"/>
<polygon fill="midnightblue" stroke="midnightblue" points="450.369,-142.045 448.781,-131.57 443.49,-140.749 450.369,-142.045"/>
</g>
<!-- Node20 -->
<g id="node43" class="node"><title>Node20</title>
<a xlink:href="NotifyData_8hh.html" target="_top" xlink:title="NotifyData.hh">
<polygon fill="white" stroke="black" points="344.5,-168.5 344.5,-187.5 421.5,-187.5 421.5,-168.5 344.5,-168.5"/>
<text text-anchor="middle" x="383" y="-175.5" font-family="Helvetica,sans-Serif" font-size="10.00">NotifyData.hh</text>
</a>
</g>
<!-- Node15&#45;&gt;Node20 -->
<g id="edge46" class="edge"><title>Node15&#45;&gt;Node20</title>
<path fill="none" stroke="midnightblue" d="M383,-224.083C383,-217.006 383,-206.861 383,-197.986"/>
<polygon fill="midnightblue" stroke="midnightblue" points="386.5,-197.751 383,-187.751 379.5,-197.751 386.5,-197.751"/>
</g>
<!-- Node15&#45;&gt;Node21 -->
<g id="edge70" class="edge"><title>Node15&#45;&gt;Node21</title>
<path fill="none" stroke="midnightblue" d="M350.305,-228.801C320.13,-223.544 275.378,-212.108 244,-188 228.054,-175.749 216.397,-155.604 209.465,-140.984"/>
<polygon fill="midnightblue" stroke="midnightblue" points="212.514,-139.227 205.258,-131.507 206.116,-142.067 212.514,-139.227"/>
</g>
<!-- Node19&#45;&gt;Node16 -->
<g id="edge44" class="edge"><title>Node19&#45;&gt;Node16</title>
<path fill="none" stroke="midnightblue" d="M438.111,-112.324C426.85,-104.107 409.713,-91.6017 396.291,-81.8069"/>
<polygon fill="midnightblue" stroke="midnightblue" points="398.247,-78.9014 388.106,-75.8339 394.12,-84.5559 398.247,-78.9014"/>
</g>
<!-- Node20&#45;&gt;Node19 -->
<g id="edge58" class="edge"><title>Node20&#45;&gt;Node19</title>
<path fill="none" stroke="midnightblue" d="M393.765,-168.324C403.766,-160.263 418.887,-148.077 430.93,-138.369"/>
<polygon fill="midnightblue" stroke="midnightblue" points="433.45,-140.834 439.039,-131.834 429.057,-135.384 433.45,-140.834"/>
</g>
<!-- Node20&#45;&gt;Node21 -->
<g id="edge48" class="edge"><title>Node20&#45;&gt;Node21</title>
<path fill="none" stroke="midnightblue" d="M354.32,-168.444C323.473,-159.241 274.272,-144.562 240.171,-134.388"/>
<polygon fill="midnightblue" stroke="midnightblue" points="241.129,-131.021 230.546,-131.516 239.128,-137.729 241.129,-131.021"/>
</g>
<!-- Node22 -->
<g id="node49" class="node"><title>Node22</title>
<a xlink:href="Statistics_8hh.html" target="_top" xlink:title="Statistics.hh">
<polygon fill="white" stroke="black" points="260.5,-112.5 260.5,-131.5 331.5,-131.5 331.5,-112.5 260.5,-112.5"/>
<text text-anchor="middle" x="296" y="-119.5" font-family="Helvetica,sans-Serif" font-size="10.00">Statistics.hh</text>
</a>
</g>
<!-- Node20&#45;&gt;Node22 -->
<g id="edge54" class="edge"><title>Node20&#45;&gt;Node22</title>
<path fill="none" stroke="midnightblue" d="M369.022,-168.324C355.45,-159.9 334.62,-146.971 318.675,-137.074"/>
<polygon fill="midnightblue" stroke="midnightblue" points="320.286,-133.954 309.943,-131.655 316.594,-139.902 320.286,-133.954"/>
</g>
<!-- Node23 -->
<g id="node53" class="node"><title>Node23</title>
<a xlink:href="Song_8hh.html" target="_top" xlink:title="Song.hh">
<polygon fill="white" stroke="black" points="349.5,-112.5 349.5,-131.5 402.5,-131.5 402.5,-112.5 349.5,-112.5"/>
<text text-anchor="middle" x="376" y="-119.5" font-family="Helvetica,sans-Serif" font-size="10.00">Song.hh</text>
</a>
</g>
<!-- Node20&#45;&gt;Node23 -->
<g id="edge60" class="edge"><title>Node20&#45;&gt;Node23</title>
<path fill="none" stroke="midnightblue" d="M381.844,-168.083C380.916,-160.927 379.582,-150.635 378.423,-141.691"/>
<polygon fill="midnightblue" stroke="midnightblue" points="381.891,-141.218 377.134,-131.751 374.949,-142.118 381.891,-141.218"/>
</g>
<!-- Node21&#45;&gt;Node9 -->
<g id="edge52" class="edge"><title>Node21&#45;&gt;Node9</title>
<path fill="none" stroke="midnightblue" d="M196.386,-112.083C191.633,-104.534 184.682,-93.4948 178.848,-84.2298"/>
<polygon fill="midnightblue" stroke="midnightblue" points="181.8,-82.3486 173.51,-75.7511 175.876,-86.0783 181.8,-82.3486"/>
</g>
<!-- Node21&#45;&gt;Node16 -->
<g id="edge50" class="edge"><title>Node21&#45;&gt;Node16</title>
<path fill="none" stroke="midnightblue" d="M229.571,-112.444C259.097,-103.28 306.118,-88.6876 338.883,-78.5192"/>
<polygon fill="midnightblue" stroke="midnightblue" points="340.045,-81.8232 348.558,-75.5164 337.97,-75.1378 340.045,-81.8232"/>
</g>
<!-- Node22&#45;&gt;Node16 -->
<g id="edge56" class="edge"><title>Node22&#45;&gt;Node16</title>
<path fill="none" stroke="midnightblue" d="M308.853,-112.324C321.216,-103.979 340.13,-91.2122 354.737,-81.3524"/>
<polygon fill="midnightblue" stroke="midnightblue" points="356.848,-84.1503 363.179,-75.6545 352.932,-78.3483 356.848,-84.1503"/>
</g>
<!-- Node23&#45;&gt;Node9 -->
<g id="edge68" class="edge"><title>Node23&#45;&gt;Node9</title>
<path fill="none" stroke="midnightblue" d="M349.233,-114.051C312.844,-104.604 247.553,-87.6532 206.072,-76.8841"/>
<polygon fill="midnightblue" stroke="midnightblue" points="206.885,-73.4793 196.327,-74.3541 205.126,-80.2547 206.885,-73.4793"/>
</g>
<!-- Node23&#45;&gt;Node16 -->
<g id="edge62" class="edge"><title>Node23&#45;&gt;Node16</title>
<path fill="none" stroke="midnightblue" d="M376,-112.083C376,-105.006 376,-94.8611 376,-85.9865"/>
<polygon fill="midnightblue" stroke="midnightblue" points="379.5,-85.751 376,-75.7511 372.5,-85.7511 379.5,-85.751"/>
</g>
<!-- Node24 -->
<g id="node56" class="node"><title>Node24</title>
<a xlink:href="AbstractComposite_8hh.html" target="_top" xlink:title="AbstractComposite.hh">
<polygon fill="white" stroke="black" points="500,-56.5 500,-75.5 614,-75.5 614,-56.5 500,-56.5"/>
<text text-anchor="middle" x="557" y="-63.5" font-family="Helvetica,sans-Serif" font-size="10.00">AbstractComposite.hh</text>
</a>
</g>
<!-- Node23&#45;&gt;Node24 -->
<g id="edge64" class="edge"><title>Node23&#45;&gt;Node24</title>
<path fill="none" stroke="midnightblue" d="M402.707,-113.032C433.317,-103.9 483.736,-88.8578 518.564,-78.467"/>
<polygon fill="midnightblue" stroke="midnightblue" points="519.807,-81.7489 528.389,-75.536 517.805,-75.041 519.807,-81.7489"/>
</g>
<!-- Node25 -->
<g id="node58" class="node"><title>Node25</title>
<polygon fill="white" stroke="#bfbfbf" points="535,-0.5 535,-19.5 579,-19.5 579,-0.5 535,-0.5"/>
<text text-anchor="middle" x="557" y="-7.5" font-family="Helvetica,sans-Serif" font-size="10.00">vector</text>
</g>
<!-- Node24&#45;&gt;Node25 -->
<g id="edge66" class="edge"><title>Node24&#45;&gt;Node25</title>
<path fill="none" stroke="midnightblue" d="M557,-56.083C557,-49.0059 557,-38.8611 557,-29.9865"/>
<polygon fill="midnightblue" stroke="midnightblue" points="560.5,-29.751 557,-19.7511 553.5,-29.7511 560.5,-29.751"/>
</g>
<!-- Node27 -->
<g id="node65" class="node"><title>Node27</title>
<a xlink:href="AbstractItemlist_8hh.html" target="_top" xlink:title="AbstractItemlist.hh">
<polygon fill="white" stroke="black" points="536.5,-224.5 536.5,-243.5 635.5,-243.5 635.5,-224.5 536.5,-224.5"/>
<text text-anchor="middle" x="586" y="-231.5" font-family="Helvetica,sans-Serif" font-size="10.00">AbstractItemlist.hh</text>
</a>
</g>
<!-- Node26&#45;&gt;Node27 -->
<g id="edge76" class="edge"><title>Node26&#45;&gt;Node27</title>
<path fill="none" stroke="midnightblue" d="M560.119,-280.083C564.408,-272.613 570.658,-261.724 575.942,-252.52"/>
<polygon fill="midnightblue" stroke="midnightblue" points="579.033,-254.166 580.976,-243.751 572.962,-250.681 579.033,-254.166"/>
</g>
<!-- Node27&#45;&gt;Node24 -->
<g id="edge78" class="edge"><title>Node27&#45;&gt;Node24</title>
<path fill="none" stroke="midnightblue" d="M592.502,-224.342C600.938,-212.044 614.018,-188.708 609,-168 601.297,-136.209 581.748,-103.216 568.936,-83.9236"/>
<polygon fill="midnightblue" stroke="midnightblue" points="571.796,-81.9062 563.269,-75.6185 566.014,-85.8516 571.796,-81.9062"/>
</g>
<!-- Node28&#45;&gt;Node2 -->
<g id="edge82" class="edge"><title>Node28&#45;&gt;Node2</title>
<path fill="none" stroke="midnightblue" d="M686.781,-392.324C701.267,-383.822 723.573,-370.729 740.493,-360.797"/>
<polygon fill="midnightblue" stroke="midnightblue" points="742.403,-363.735 749.255,-355.655 738.859,-357.698 742.403,-363.735"/>
</g>
<!-- Node29&#45;&gt;Node13 -->
<g id="edge86" class="edge"><title>Node29&#45;&gt;Node13</title>
<path fill="none" stroke="midnightblue" d="M490.211,-392.324C501.776,-384.107 519.375,-371.602 533.161,-361.807"/>
<polygon fill="midnightblue" stroke="midnightblue" points="535.443,-364.479 541.567,-355.834 531.388,-358.773 535.443,-364.479"/>
</g>
</g>
</svg>
