<?xml version="1.0" encoding="UTF-8" standalone="no"?>
<!DOCTYPE svg PUBLIC "-//W3C//DTD SVG 1.1//EN"
 "http://www.w3.org/Graphics/SVG/1.1/DTD/svg11.dtd">
<!-- Generated by graphviz version 2.28.0 (20120217.0315)
 -->
<!-- Title: G Pages: 1 -->
<svg width="1003pt" height="532pt"
 viewBox="0.00 0.00 1002.56 532.00" xmlns="http://www.w3.org/2000/svg" xmlns:xlink="http://www.w3.org/1999/xlink">
<g id="graph1" class="graph" transform="scale(1 1) rotate(0) translate(4 528)">
<title>G</title>
<polygon fill="white" stroke="white" points="-4,5 -4,-528 999.556,-528 999.556,5 -4,5"/>
<!-- Node1 -->
<g id="node1" class="node"><title>Node1</title>
<polygon fill="#bfbfbf" stroke="black" points="347,-504.5 347,-523.5 541,-523.5 541,-504.5 347,-504.5"/>
<text text-anchor="middle" x="444" y="-511.5" font-family="Helvetica,sans-Serif" font-size="10.00">src/Browser/Settings/SettingsGeneral.hh</text>
</g>
<!-- Node2 -->
<g id="node3" class="node"><title>Node2</title>
<a xlink:href="Handler_8hh.html" target="_top" xlink:title="../../Config/Handler.hh">
<polygon fill="white" stroke="black" points="101.5,-448.5 101.5,-467.5 214.5,-467.5 214.5,-448.5 101.5,-448.5"/>
<text text-anchor="middle" x="158" y="-455.5" font-family="Helvetica,sans-Serif" font-size="10.00">../../Config/Handler.hh</text>
</a>
</g>
<!-- Node1&#45;&gt;Node2 -->
<g id="edge2" class="edge"><title>Node1&#45;&gt;Node2</title>
<path fill="none" stroke="midnightblue" d="M398.682,-504.444C348.372,-494.944 267.162,-479.611 213.187,-469.42"/>
<polygon fill="midnightblue" stroke="midnightblue" points="213.581,-465.933 203.106,-467.516 212.283,-472.811 213.581,-465.933"/>
</g>
<!-- Node7 -->
<g id="node14" class="node"><title>Node7</title>
<a xlink:href="Trayicon_8hh.html" target="_top" xlink:title="../../GManager/Trayicon.hh">
<polygon fill="white" stroke="black" points="377,-448.5 377,-467.5 511,-467.5 511,-448.5 377,-448.5"/>
<text text-anchor="middle" x="444" y="-455.5" font-family="Helvetica,sans-Serif" font-size="10.00">../../GManager/Trayicon.hh</text>
</a>
</g>
<!-- Node1&#45;&gt;Node7 -->
<g id="edge14" class="edge"><title>Node1&#45;&gt;Node7</title>
<path fill="none" stroke="midnightblue" d="M444,-504.083C444,-497.006 444,-486.861 444,-477.986"/>
<polygon fill="midnightblue" stroke="midnightblue" points="447.5,-477.751 444,-467.751 440.5,-477.751 447.5,-477.751"/>
</g>
<!-- Node30 -->
<g id="node74" class="node"><title>Node30</title>
<a xlink:href="AbstractSettings_8hh.html" target="_top" xlink:title="AbstractSettings.hh">
<polygon fill="white" stroke="black" points="529.5,-448.5 529.5,-467.5 632.5,-467.5 632.5,-448.5 529.5,-448.5"/>
<text text-anchor="middle" x="581" y="-455.5" font-family="Helvetica,sans-Serif" font-size="10.00">AbstractSettings.hh</text>
</a>
</g>
<!-- Node1&#45;&gt;Node30 -->
<g id="edge88" class="edge"><title>Node1&#45;&gt;Node30</title>
<path fill="none" stroke="midnightblue" d="M465.708,-504.444C488.355,-495.517 524.072,-481.439 549.752,-471.317"/>
<polygon fill="midnightblue" stroke="midnightblue" points="551.374,-474.44 559.394,-467.516 548.807,-467.927 551.374,-474.44"/>
</g>
<!-- Node3 -->
<g id="node5" class="node"><title>Node3</title>
<polygon fill="white" stroke="#bfbfbf" points="0,-336.5 0,-355.5 80,-355.5 80,-336.5 0,-336.5"/>
<text text-anchor="middle" x="40" y="-343.5" font-family="Helvetica,sans-Serif" font-size="10.00">libxml/parser.h</text>
</g>
<!-- Node2&#45;&gt;Node3 -->
<g id="edge4" class="edge"><title>Node2&#45;&gt;Node3</title>
<path fill="none" stroke="midnightblue" d="M101.287,-451.592C75.3951,-445.96 46.9959,-434.638 31,-412 21.4654,-398.506 25.6226,-379.44 31.0182,-365.445"/>
<polygon fill="midnightblue" stroke="midnightblue" points="34.3879,-366.474 35.1794,-355.909 27.9721,-363.675 34.3879,-366.474"/>
</g>
<!-- Node4 -->
<g id="node7" class="node"><title>Node4</title>
<polygon fill="white" stroke="#bfbfbf" points="113.5,-392.5 113.5,-411.5 202.5,-411.5 202.5,-392.5 113.5,-392.5"/>
<text text-anchor="middle" x="158" y="-399.5" font-family="Helvetica,sans-Serif" font-size="10.00">glibmm/ustring.h</text>
</g>
<!-- Node2&#45;&gt;Node4 -->
<g id="edge6" class="edge"><title>Node2&#45;&gt;Node4</title>
<path fill="none" stroke="midnightblue" d="M158,-448.083C158,-441.006 158,-430.861 158,-421.986"/>
<polygon fill="midnightblue" stroke="midnightblue" points="161.5,-421.751 158,-411.751 154.5,-421.751 161.5,-421.751"/>
</g>
<!-- Node5 -->
<g id="node9" class="node"><title>Node5</title>
<a xlink:href="Model_8hh.html" target="_top" xlink:title="Model.hh">
<polygon fill="white" stroke="black" points="40,-392.5 40,-411.5 96,-411.5 96,-392.5 40,-392.5"/>
<text text-anchor="middle" x="68" y="-399.5" font-family="Helvetica,sans-Serif" font-size="10.00">Model.hh</text>
</a>
</g>
<!-- Node2&#45;&gt;Node5 -->
<g id="edge8" class="edge"><title>Node2&#45;&gt;Node5</title>
<path fill="none" stroke="midnightblue" d="M143.54,-448.324C129.5,-439.9 107.952,-426.971 91.4569,-417.074"/>
<polygon fill="midnightblue" stroke="midnightblue" points="92.7999,-413.798 82.4242,-411.655 89.1984,-419.801 92.7999,-413.798"/>
</g>
<!-- Node6 -->
<g id="node12" class="node"><title>Node6</title>
<a xlink:href="Singleton_8hh.html" target="_top" xlink:title="../Utils/Singleton.hh">
<polygon fill="white" stroke="black" points="220.5,-392.5 220.5,-411.5 323.5,-411.5 323.5,-392.5 220.5,-392.5"/>
<text text-anchor="middle" x="272" y="-399.5" font-family="Helvetica,sans-Serif" font-size="10.00">../Utils/Singleton.hh</text>
</a>
</g>
<!-- Node2&#45;&gt;Node6 -->
<g id="edge12" class="edge"><title>Node2&#45;&gt;Node6</title>
<path fill="none" stroke="midnightblue" d="M176.064,-448.444C194.575,-439.675 223.581,-425.935 244.855,-415.858"/>
<polygon fill="midnightblue" stroke="midnightblue" points="246.482,-418.96 254.021,-411.516 243.485,-412.634 246.482,-418.96"/>
</g>
<!-- Node5&#45;&gt;Node3 -->
<g id="edge10" class="edge"><title>Node5&#45;&gt;Node3</title>
<path fill="none" stroke="midnightblue" d="M63.3764,-392.083C59.5437,-384.691 53.9758,-373.953 49.2354,-364.811"/>
<polygon fill="midnightblue" stroke="midnightblue" points="52.248,-363.018 44.5376,-355.751 46.0337,-366.24 52.248,-363.018"/>
</g>
<!-- Node8 -->
<g id="node16" class="node"><title>Node8</title>
<a xlink:href="ui__includes_8hh.html" target="_top" xlink:title="../ui_includes.hh">
<polygon fill="white" stroke="black" points="340,-336.5 340,-355.5 428,-355.5 428,-336.5 340,-336.5"/>
<text text-anchor="middle" x="384" y="-343.5" font-family="Helvetica,sans-Serif" font-size="10.00">../ui_includes.hh</text>
</a>
</g>
<!-- Node7&#45;&gt;Node8 -->
<g id="edge16" class="edge"><title>Node7&#45;&gt;Node8</title>
<path fill="none" stroke="midnightblue" d="M417.789,-448.414C401.15,-441.445 380.943,-429.809 371,-412 362.864,-397.427 368.119,-378.504 374.203,-364.837"/>
<polygon fill="midnightblue" stroke="midnightblue" points="377.493,-366.082 378.81,-355.569 371.225,-362.966 377.493,-366.082"/>
</g>
<!-- Node10 -->
<g id="node20" class="node"><title>Node10</title>
<a xlink:href="Client_8hh.html" target="_top" xlink:title="../MPD/Client.hh">
<polygon fill="white" stroke="black" points="518,-336.5 518,-355.5 608,-355.5 608,-336.5 518,-336.5"/>
<text text-anchor="middle" x="563" y="-343.5" font-family="Helvetica,sans-Serif" font-size="10.00">../MPD/Client.hh</text>
</a>
</g>
<!-- Node7&#45;&gt;Node10 -->
<g id="edge20" class="edge"><title>Node7&#45;&gt;Node10</title>
<path fill="none" stroke="midnightblue" d="M462.185,-448.421C477.857,-440.447 500.499,-427.486 517,-412 531.907,-398.01 544.941,-378.494 553.292,-364.504"/>
<polygon fill="midnightblue" stroke="midnightblue" points="556.326,-366.249 558.29,-355.838 550.262,-362.751 556.326,-366.249"/>
</g>
<!-- Node28 -->
<g id="node68" class="node"><title>Node28</title>
<a xlink:href="BasePopup_8hh.html" target="_top" xlink:title="../Browser/BasePopup.hh">
<polygon fill="white" stroke="black" points="380,-392.5 380,-411.5 508,-411.5 508,-392.5 380,-392.5"/>
<text text-anchor="middle" x="444" y="-399.5" font-family="Helvetica,sans-Serif" font-size="10.00">../Browser/BasePopup.hh</text>
</a>
</g>
<!-- Node7&#45;&gt;Node28 -->
<g id="edge80" class="edge"><title>Node7&#45;&gt;Node28</title>
<path fill="none" stroke="midnightblue" d="M444,-448.083C444,-441.006 444,-430.861 444,-421.986"/>
<polygon fill="midnightblue" stroke="midnightblue" points="447.5,-421.751 444,-411.751 440.5,-421.751 447.5,-421.751"/>
</g>
<!-- Node29 -->
<g id="node71" class="node"><title>Node29</title>
<a xlink:href="AbstractClientUser_8hh.html" target="_top" xlink:title="../MPD/AbstractClientUser.hh">
<polygon fill="white" stroke="black" points="564,-392.5 564,-411.5 712,-411.5 712,-392.5 564,-392.5"/>
<text text-anchor="middle" x="638" y="-399.5" font-family="Helvetica,sans-Serif" font-size="10.00">../MPD/AbstractClientUser.hh</text>
</a>
</g>
<!-- Node7&#45;&gt;Node29 -->
<g id="edge84" class="edge"><title>Node7&#45;&gt;Node29</title>
<path fill="none" stroke="midnightblue" d="M474.74,-448.444C507.944,-439.201 560.991,-424.436 597.557,-414.257"/>
<polygon fill="midnightblue" stroke="midnightblue" points="598.709,-417.57 607.404,-411.516 596.832,-410.826 598.709,-417.57"/>
</g>
<!-- Node9 -->
<g id="node18" class="node"><title>Node9</title>
<polygon fill="white" stroke="#bfbfbf" points="356.5,-280.5 356.5,-299.5 411.5,-299.5 411.5,-280.5 356.5,-280.5"/>
<text text-anchor="middle" x="384" y="-287.5" font-family="Helvetica,sans-Serif" font-size="10.00">gtkmm.h</text>
</g>
<!-- Node8&#45;&gt;Node9 -->
<g id="edge18" class="edge"><title>Node8&#45;&gt;Node9</title>
<path fill="none" stroke="midnightblue" d="M384,-336.083C384,-329.006 384,-318.861 384,-309.986"/>
<polygon fill="midnightblue" stroke="midnightblue" points="387.5,-309.751 384,-299.751 380.5,-309.751 387.5,-309.751"/>
</g>
<!-- Node11 -->
<g id="node22" class="node"><title>Node11</title>
<a xlink:href="BaseClient_8hh.html" target="_top" xlink:title="BaseClient.hh">
<polygon fill="white" stroke="black" points="788,-280.5 788,-299.5 866,-299.5 866,-280.5 788,-280.5"/>
<text text-anchor="middle" x="827" y="-287.5" font-family="Helvetica,sans-Serif" font-size="10.00">BaseClient.hh</text>
</a>
</g>
<!-- Node10&#45;&gt;Node11 -->
<g id="edge22" class="edge"><title>Node10&#45;&gt;Node11</title>
<path fill="none" stroke="midnightblue" d="M604.832,-336.444C651.895,-326.817 728.252,-311.199 778.05,-301.012"/>
<polygon fill="midnightblue" stroke="midnightblue" points="778.85,-304.421 787.946,-298.988 777.447,-297.563 778.85,-304.421"/>
</g>
<!-- Node26 -->
<g id="node63" class="node"><title>Node26</title>
<a xlink:href="AbstractItemGenerator_8hh.html" target="_top" xlink:title="AbstractItemGenerator.hh">
<polygon fill="white" stroke="black" points="466.5,-280.5 466.5,-299.5 595.5,-299.5 595.5,-280.5 466.5,-280.5"/>
<text text-anchor="middle" x="531" y="-287.5" font-family="Helvetica,sans-Serif" font-size="10.00">AbstractItemGenerator.hh</text>
</a>
</g>
<!-- Node10&#45;&gt;Node26 -->
<g id="edge74" class="edge"><title>Node10&#45;&gt;Node26</title>
<path fill="none" stroke="midnightblue" d="M557.716,-336.083C553.289,-328.613 546.837,-317.724 541.382,-308.52"/>
<polygon fill="midnightblue" stroke="midnightblue" points="544.295,-306.57 536.186,-299.751 538.273,-310.138 544.295,-306.57"/>
</g>
<!-- Node12 -->
<g id="node24" class="node"><title>Node12</title>
<a xlink:href="Listener_8hh.html" target="_top" xlink:title="Listener.hh">
<polygon fill="white" stroke="black" points="658.5,-224.5 658.5,-243.5 723.5,-243.5 723.5,-224.5 658.5,-224.5"/>
<text text-anchor="middle" x="691" y="-231.5" font-family="Helvetica,sans-Serif" font-size="10.00">Listener.hh</text>
</a>
</g>
<!-- Node11&#45;&gt;Node12 -->
<g id="edge24" class="edge"><title>Node11&#45;&gt;Node12</title>
<path fill="none" stroke="midnightblue" d="M805.45,-280.444C782.969,-271.517 747.512,-257.439 722.02,-247.317"/>
<polygon fill="midnightblue" stroke="midnightblue" points="723.035,-243.954 712.449,-243.516 720.451,-250.46 723.035,-243.954"/>
</g>
<!-- Node19 -->
<g id="node39" class="node"><title>Node19</title>
<a xlink:href="Connection_8hh.html" target="_top" xlink:title="Connection.hh">
<polygon fill="white" stroke="black" points="827,-112.5 827,-131.5 907,-131.5 907,-112.5 827,-112.5"/>
<text text-anchor="middle" x="867" y="-119.5" font-family="Helvetica,sans-Serif" font-size="10.00">Connection.hh</text>
</a>
</g>
<!-- Node11&#45;&gt;Node19 -->
<g id="edge64" class="edge"><title>Node11&#45;&gt;Node19</title>
<path fill="none" stroke="midnightblue" d="M829.151,-280.075C835.447,-253.945 853.937,-177.211 862.524,-141.577"/>
<polygon fill="midnightblue" stroke="midnightblue" points="865.995,-142.11 864.935,-131.568 859.19,-140.47 865.995,-142.11"/>
</g>
<!-- Node24 -->
<g id="node57" class="node"><title>Node24</title>
<a xlink:href="Query_8hh.html" target="_top" xlink:title="Query.hh">
<polygon fill="white" stroke="black" points="925,-112.5 925,-131.5 981,-131.5 981,-112.5 925,-112.5"/>
<text text-anchor="middle" x="953" y="-119.5" font-family="Helvetica,sans-Serif" font-size="10.00">Query.hh</text>
</a>
</g>
<!-- Node11&#45;&gt;Node24 -->
<g id="edge66" class="edge"><title>Node11&#45;&gt;Node24</title>
<path fill="none" stroke="midnightblue" d="M833.774,-280.075C853.951,-253.493 913.881,-174.538 940.276,-139.763"/>
<polygon fill="midnightblue" stroke="midnightblue" points="943.238,-141.65 946.496,-131.568 937.663,-137.417 943.238,-141.65"/>
</g>
<!-- Node13 -->
<g id="node26" class="node"><title>Node13</title>
<polygon fill="white" stroke="#bfbfbf" points="683,-56.5 683,-75.5 753,-75.5 753,-56.5 683,-56.5"/>
<text text-anchor="middle" x="718" y="-63.5" font-family="Helvetica,sans-Serif" font-size="10.00">mpd/client.h</text>
</g>
<!-- Node12&#45;&gt;Node13 -->
<g id="edge26" class="edge"><title>Node12&#45;&gt;Node13</title>
<path fill="none" stroke="midnightblue" d="M658.457,-230.207C608.773,-225.193 517.678,-212.793 498,-188 492.474,-181.037 495.095,-176.401 498,-168 508.346,-138.086 515.482,-129.282 542,-112 553.008,-104.826 624.265,-87.9231 672.666,-76.9977"/>
<polygon fill="midnightblue" stroke="midnightblue" points="673.628,-80.369 682.618,-74.7627 672.094,-73.5391 673.628,-80.369"/>
</g>
<!-- Node14 -->
<g id="node28" class="node"><title>Node14</title>
<polygon fill="white" stroke="#bfbfbf" points="515.5,-168.5 515.5,-187.5 588.5,-187.5 588.5,-168.5 515.5,-168.5"/>
<text text-anchor="middle" x="552" y="-175.5" font-family="Helvetica,sans-Serif" font-size="10.00">mpd/async.h</text>
</g>
<!-- Node12&#45;&gt;Node14 -->
<g id="edge28" class="edge"><title>Node12&#45;&gt;Node14</title>
<path fill="none" stroke="midnightblue" d="M668.975,-224.444C645.896,-215.478 609.438,-201.314 583.359,-191.183"/>
<polygon fill="midnightblue" stroke="midnightblue" points="584.511,-187.875 573.922,-187.516 581.976,-194.4 584.511,-187.875"/>
</g>
<!-- Node15 -->
<g id="node30" class="node"><title>Node15</title>
<polygon fill="white" stroke="#bfbfbf" points="607,-168.5 607,-187.5 681,-187.5 681,-168.5 607,-168.5"/>
<text text-anchor="middle" x="644" y="-175.5" font-family="Helvetica,sans-Serif" font-size="10.00">mpd/parser.h</text>
</g>
<!-- Node12&#45;&gt;Node15 -->
<g id="edge30" class="edge"><title>Node12&#45;&gt;Node15</title>
<path fill="none" stroke="midnightblue" d="M683.239,-224.083C676.463,-216.298 666.457,-204.801 658.245,-195.367"/>
<polygon fill="midnightblue" stroke="midnightblue" points="660.822,-192.996 651.617,-187.751 655.542,-197.592 660.822,-192.996"/>
</g>
<!-- Node16 -->
<g id="node32" class="node"><title>Node16</title>
<polygon fill="white" stroke="#bfbfbf" points="771,-56.5 771,-75.5 827,-75.5 827,-56.5 771,-56.5"/>
<text text-anchor="middle" x="799" y="-63.5" font-family="Helvetica,sans-Serif" font-size="10.00">glibmm.h</text>
</g>
<!-- Node12&#45;&gt;Node16 -->
<g id="edge32" class="edge"><title>Node12&#45;&gt;Node16</title>
<path fill="none" stroke="midnightblue" d="M723.718,-225.949C744.694,-219.647 770.603,-208.178 785,-188 806.729,-157.547 805.112,-111.401 802.039,-85.7927"/>
<polygon fill="midnightblue" stroke="midnightblue" points="805.464,-85.0162 800.603,-75.6024 798.533,-85.9929 805.464,-85.0162"/>
</g>
<!-- Node17 -->
<g id="node34" class="node"><title>Node17</title>
<a xlink:href="Status_8hh.html" target="_top" xlink:title="Status.hh">
<polygon fill="white" stroke="black" points="551.5,-112.5 551.5,-131.5 610.5,-131.5 610.5,-112.5 551.5,-112.5"/>
<text text-anchor="middle" x="581" y="-119.5" font-family="Helvetica,sans-Serif" font-size="10.00">Status.hh</text>
</a>
</g>
<!-- Node12&#45;&gt;Node17 -->
<g id="edge34" class="edge"><title>Node12&#45;&gt;Node17</title>
<path fill="none" stroke="midnightblue" d="M658.222,-229.822C610.25,-224.417 524.587,-211.65 506,-188 489.523,-167.035 520.374,-147.664 547.354,-135.621"/>
<polygon fill="midnightblue" stroke="midnightblue" points="548.813,-138.804 556.652,-131.677 546.079,-132.36 548.813,-138.804"/>
</g>
<!-- Node18 -->
<g id="node37" class="node"><title>Node18</title>
<a xlink:href="NotifyData_8hh.html" target="_top" xlink:title="NotifyData.hh">
<polygon fill="white" stroke="black" points="699.5,-168.5 699.5,-187.5 776.5,-187.5 776.5,-168.5 699.5,-168.5"/>
<text text-anchor="middle" x="738" y="-175.5" font-family="Helvetica,sans-Serif" font-size="10.00">NotifyData.hh</text>
</a>
</g>
<!-- Node12&#45;&gt;Node18 -->
<g id="edge38" class="edge"><title>Node12&#45;&gt;Node18</title>
<path fill="none" stroke="midnightblue" d="M698.761,-224.083C705.537,-216.298 715.543,-204.801 723.755,-195.367"/>
<polygon fill="midnightblue" stroke="midnightblue" points="726.458,-197.592 730.383,-187.751 721.178,-192.996 726.458,-197.592"/>
</g>
<!-- Node12&#45;&gt;Node19 -->
<g id="edge62" class="edge"><title>Node12&#45;&gt;Node19</title>
<path fill="none" stroke="midnightblue" d="M723.772,-227.106C751.262,-220.918 790.489,-209.069 819,-188 835.867,-175.536 849.403,-155.462 857.747,-140.917"/>
<polygon fill="midnightblue" stroke="midnightblue" points="860.954,-142.347 862.671,-131.892 854.809,-138.994 860.954,-142.347"/>
</g>
<!-- Node17&#45;&gt;Node13 -->
<g id="edge36" class="edge"><title>Node17&#45;&gt;Node13</title>
<path fill="none" stroke="midnightblue" d="M602.708,-112.444C625.355,-103.517 661.072,-89.4387 686.752,-79.3168"/>
<polygon fill="midnightblue" stroke="midnightblue" points="688.374,-82.4397 696.394,-75.5164 685.807,-75.9273 688.374,-82.4397"/>
</g>
<!-- Node18&#45;&gt;Node17 -->
<g id="edge50" class="edge"><title>Node18&#45;&gt;Node17</title>
<path fill="none" stroke="midnightblue" d="M713.123,-168.444C686.711,-159.359 644.785,-144.939 615.258,-134.783"/>
<polygon fill="midnightblue" stroke="midnightblue" points="616.355,-131.459 605.761,-131.516 614.079,-138.079 616.355,-131.459"/>
</g>
<!-- Node18&#45;&gt;Node19 -->
<g id="edge40" class="edge"><title>Node18&#45;&gt;Node19</title>
<path fill="none" stroke="midnightblue" d="M758.44,-168.444C779.67,-159.557 813.099,-145.563 837.255,-135.451"/>
<polygon fill="midnightblue" stroke="midnightblue" points="838.782,-138.606 846.655,-131.516 836.079,-132.149 838.782,-138.606"/>
</g>
<!-- Node20 -->
<g id="node43" class="node"><title>Node20</title>
<a xlink:href="Statistics_8hh.html" target="_top" xlink:title="Statistics.hh">
<polygon fill="white" stroke="black" points="628.5,-112.5 628.5,-131.5 699.5,-131.5 699.5,-112.5 628.5,-112.5"/>
<text text-anchor="middle" x="664" y="-119.5" font-family="Helvetica,sans-Serif" font-size="10.00">Statistics.hh</text>
</a>
</g>
<!-- Node18&#45;&gt;Node20 -->
<g id="edge46" class="edge"><title>Node18&#45;&gt;Node20</title>
<path fill="none" stroke="midnightblue" d="M726.111,-168.324C714.85,-160.107 697.713,-147.602 684.291,-137.807"/>
<polygon fill="midnightblue" stroke="midnightblue" points="686.247,-134.901 676.106,-131.834 682.12,-140.556 686.247,-134.901"/>
</g>
<!-- Node21 -->
<g id="node47" class="node"><title>Node21</title>
<a xlink:href="Song_8hh.html" target="_top" xlink:title="Song.hh">
<polygon fill="white" stroke="black" points="717.5,-112.5 717.5,-131.5 770.5,-131.5 770.5,-112.5 717.5,-112.5"/>
<text text-anchor="middle" x="744" y="-119.5" font-family="Helvetica,sans-Serif" font-size="10.00">Song.hh</text>
</a>
</g>
<!-- Node18&#45;&gt;Node21 -->
<g id="edge52" class="edge"><title>Node18&#45;&gt;Node21</title>
<path fill="none" stroke="midnightblue" d="M738.991,-168.083C739.786,-160.927 740.929,-150.635 741.923,-141.691"/>
<polygon fill="midnightblue" stroke="midnightblue" points="745.402,-142.076 743.028,-131.751 738.445,-141.303 745.402,-142.076"/>
</g>
<!-- Node19&#45;&gt;Node13 -->
<g id="edge42" class="edge"><title>Node19&#45;&gt;Node13</title>
<path fill="none" stroke="midnightblue" d="M843.391,-112.444C818.542,-103.438 779.226,-89.1891 751.246,-79.049"/>
<polygon fill="midnightblue" stroke="midnightblue" points="752.093,-75.6332 741.499,-75.5164 749.708,-82.2144 752.093,-75.6332"/>
</g>
<!-- Node19&#45;&gt;Node16 -->
<g id="edge44" class="edge"><title>Node19&#45;&gt;Node16</title>
<path fill="none" stroke="midnightblue" d="M856.075,-112.324C845.825,-104.185 830.279,-91.8395 817.999,-82.0874"/>
<polygon fill="midnightblue" stroke="midnightblue" points="820.132,-79.3119 810.124,-75.8339 815.779,-84.7937 820.132,-79.3119"/>
</g>
<!-- Node20&#45;&gt;Node13 -->
<g id="edge48" class="edge"><title>Node20&#45;&gt;Node13</title>
<path fill="none" stroke="midnightblue" d="M672.917,-112.083C680.78,-104.22 692.431,-92.5688 701.919,-83.0813"/>
<polygon fill="midnightblue" stroke="midnightblue" points="704.653,-85.2971 709.249,-75.7511 699.703,-80.3473 704.653,-85.2971"/>
</g>
<!-- Node21&#45;&gt;Node13 -->
<g id="edge54" class="edge"><title>Node21&#45;&gt;Node13</title>
<path fill="none" stroke="midnightblue" d="M739.707,-112.083C736.148,-104.691 730.978,-93.9533 726.576,-84.8111"/>
<polygon fill="midnightblue" stroke="midnightblue" points="729.705,-83.2427 722.213,-75.7511 723.398,-86.2795 729.705,-83.2427"/>
</g>
<!-- Node21&#45;&gt;Node16 -->
<g id="edge60" class="edge"><title>Node21&#45;&gt;Node16</title>
<path fill="none" stroke="midnightblue" d="M753.082,-112.083C761.171,-104.141 773.195,-92.3354 782.91,-82.7973"/>
<polygon fill="midnightblue" stroke="midnightblue" points="785.403,-85.2545 790.087,-75.7511 780.499,-80.2595 785.403,-85.2545"/>
</g>
<!-- Node22 -->
<g id="node50" class="node"><title>Node22</title>
<a xlink:href="AbstractComposite_8hh.html" target="_top" xlink:title="AbstractComposite.hh">
<polygon fill="white" stroke="black" points="551,-56.5 551,-75.5 665,-75.5 665,-56.5 551,-56.5"/>
<text text-anchor="middle" x="608" y="-63.5" font-family="Helvetica,sans-Serif" font-size="10.00">AbstractComposite.hh</text>
</a>
</g>
<!-- Node21&#45;&gt;Node22 -->
<g id="edge56" class="edge"><title>Node21&#45;&gt;Node22</title>
<path fill="none" stroke="midnightblue" d="M722.45,-112.444C699.969,-103.517 664.512,-89.4387 639.02,-79.3168"/>
<polygon fill="midnightblue" stroke="midnightblue" points="640.035,-75.9539 629.449,-75.5164 637.451,-82.4598 640.035,-75.9539"/>
</g>
<!-- Node23 -->
<g id="node52" class="node"><title>Node23</title>
<polygon fill="white" stroke="#bfbfbf" points="786,-0.5 786,-19.5 830,-19.5 830,-0.5 786,-0.5"/>
<text text-anchor="middle" x="808" y="-7.5" font-family="Helvetica,sans-Serif" font-size="10.00">vector</text>
</g>
<!-- Node22&#45;&gt;Node23 -->
<g id="edge58" class="edge"><title>Node22&#45;&gt;Node23</title>
<path fill="none" stroke="midnightblue" d="M639.691,-56.4435C676.942,-46.3856 738.419,-29.7869 775.863,-19.677"/>
<polygon fill="midnightblue" stroke="midnightblue" points="777.005,-22.9942 785.747,-17.0084 775.18,-16.2361 777.005,-22.9942"/>
</g>
<!-- Node24&#45;&gt;Node13 -->
<g id="edge68" class="edge"><title>Node24&#45;&gt;Node13</title>
<path fill="none" stroke="midnightblue" d="M924.729,-114.077C921.783,-113.369 918.832,-112.666 916,-112 863.599,-99.6729 803.26,-86.0402 763.099,-77.0457"/>
<polygon fill="midnightblue" stroke="midnightblue" points="763.611,-73.5739 753.088,-74.8062 762.083,-80.405 763.611,-73.5739"/>
</g>
<!-- Node24&#45;&gt;Node23 -->
<g id="edge70" class="edge"><title>Node24&#45;&gt;Node23</title>
<path fill="none" stroke="midnightblue" d="M964.397,-112.297C979.993,-99.3365 1004.49,-74.5062 990,-56 971.72,-32.6494 887.253,-19.7412 840.084,-14.2403"/>
<polygon fill="midnightblue" stroke="midnightblue" points="840.394,-10.7532 830.066,-13.118 839.614,-17.7097 840.394,-10.7532"/>
</g>
<!-- Node25 -->
<g id="node61" class="node"><title>Node25</title>
<a xlink:href="AbstractClientExtension_8hh.html" target="_top" xlink:title="AbstractClientExtension.hh">
<polygon fill="white" stroke="black" points="845,-56.5 845,-75.5 981,-75.5 981,-56.5 845,-56.5"/>
<text text-anchor="middle" x="913" y="-63.5" font-family="Helvetica,sans-Serif" font-size="10.00">AbstractClientExtension.hh</text>
</a>
</g>
<!-- Node24&#45;&gt;Node25 -->
<g id="edge72" class="edge"><title>Node24&#45;&gt;Node25</title>
<path fill="none" stroke="midnightblue" d="M946.395,-112.083C940.745,-104.455 932.455,-93.2645 925.549,-83.9408"/>
<polygon fill="midnightblue" stroke="midnightblue" points="928.247,-81.7034 919.482,-75.7511 922.622,-85.87 928.247,-81.7034"/>
</g>
<!-- Node27 -->
<g id="node65" class="node"><title>Node27</title>
<a xlink:href="AbstractItemlist_8hh.html" target="_top" xlink:title="AbstractItemlist.hh">
<polygon fill="white" stroke="black" points="427.5,-224.5 427.5,-243.5 526.5,-243.5 526.5,-224.5 427.5,-224.5"/>
<text text-anchor="middle" x="477" y="-231.5" font-family="Helvetica,sans-Serif" font-size="10.00">AbstractItemlist.hh</text>
</a>
</g>
<!-- Node26&#45;&gt;Node27 -->
<g id="edge76" class="edge"><title>Node26&#45;&gt;Node27</title>
<path fill="none" stroke="midnightblue" d="M522.083,-280.083C514.22,-272.22 502.569,-260.569 493.081,-251.081"/>
<polygon fill="midnightblue" stroke="midnightblue" points="495.297,-248.347 485.751,-243.751 490.347,-253.297 495.297,-248.347"/>
</g>
<!-- Node27&#45;&gt;Node22 -->
<g id="edge78" class="edge"><title>Node27&#45;&gt;Node22</title>
<path fill="none" stroke="midnightblue" d="M477.065,-224.416C477.694,-202.673 482.329,-144.832 513,-112 527.256,-96.7391 547.75,-86.13 566.056,-79.0632"/>
<polygon fill="midnightblue" stroke="midnightblue" points="567.45,-82.2809 575.665,-75.5899 565.07,-75.6978 567.45,-82.2809"/>
</g>
<!-- Node28&#45;&gt;Node8 -->
<g id="edge82" class="edge"><title>Node28&#45;&gt;Node8</title>
<path fill="none" stroke="midnightblue" d="M434.36,-392.324C425.49,-384.341 412.125,-372.313 401.392,-362.653"/>
<polygon fill="midnightblue" stroke="midnightblue" points="403.59,-359.922 393.815,-355.834 398.907,-365.125 403.59,-359.922"/>
</g>
<!-- Node29&#45;&gt;Node10 -->
<g id="edge86" class="edge"><title>Node29&#45;&gt;Node10</title>
<path fill="none" stroke="midnightblue" d="M625.95,-392.324C614.537,-384.107 597.169,-371.602 583.565,-361.807"/>
<polygon fill="midnightblue" stroke="midnightblue" points="585.43,-358.837 575.269,-355.834 581.34,-364.517 585.43,-358.837"/>
</g>
</g>
</svg>
