<?xml version="1.0" encoding="UTF-8" standalone="no"?>
<!DOCTYPE svg PUBLIC "-//W3C//DTD SVG 1.1//EN"
 "http://www.w3.org/Graphics/SVG/1.1/DTD/svg11.dtd">
<!-- Generated by graphviz version 2.28.0 (20120217.0315)
 -->
<!-- Title: G Pages: 1 -->
<svg width="943pt" height="476pt"
 viewBox="0.00 0.00 943.00 476.00" xmlns="http://www.w3.org/2000/svg" xmlns:xlink="http://www.w3.org/1999/xlink">
<g id="graph1" class="graph" transform="scale(1 1) rotate(0) translate(4 472)">
<title>G</title>
<polygon fill="white" stroke="white" points="-4,5 -4,-472 940,-472 940,5 -4,5"/>
<!-- Node1 -->
<g id="node1" class="node"><title>Node1</title>
<polygon fill="#bfbfbf" stroke="black" points="219.5,-448.5 219.5,-467.5 414.5,-467.5 414.5,-448.5 219.5,-448.5"/>
<text text-anchor="middle" x="317" y="-455.5" font-family="Helvetica,sans-Serif" font-size="10.00">src/Browser/Settings/SettingsOutputs.hh</text>
</g>
<!-- Node2 -->
<g id="node3" class="node"><title>Node2</title>
<a xlink:href="AbstractSettings_8hh.html" target="_top" xlink:title="AbstractSettings.hh">
<polygon fill="white" stroke="black" points="-0.5,-392.5 -0.5,-411.5 102.5,-411.5 102.5,-392.5 -0.5,-392.5"/>
<text text-anchor="middle" x="51" y="-399.5" font-family="Helvetica,sans-Serif" font-size="10.00">AbstractSettings.hh</text>
</a>
</g>
<!-- Node1&#45;&gt;Node2 -->
<g id="edge2" class="edge"><title>Node1&#45;&gt;Node2</title>
<path fill="none" stroke="midnightblue" d="M274.852,-448.444C228.254,-438.984 153.156,-423.738 102.955,-413.547"/>
<polygon fill="midnightblue" stroke="midnightblue" points="103.448,-410.076 92.9513,-411.516 102.055,-416.936 103.448,-410.076"/>
</g>
<!-- Node3 -->
<g id="node5" class="node"><title>Node3</title>
<a xlink:href="OutputsModelColumns_8hh.html" target="_top" xlink:title="OutputsModelColumns.hh">
<polygon fill="white" stroke="black" points="159,-392.5 159,-411.5 289,-411.5 289,-392.5 159,-392.5"/>
<text text-anchor="middle" x="224" y="-399.5" font-family="Helvetica,sans-Serif" font-size="10.00">OutputsModelColumns.hh</text>
</a>
</g>
<!-- Node1&#45;&gt;Node3 -->
<g id="edge4" class="edge"><title>Node1&#45;&gt;Node3</title>
<path fill="none" stroke="midnightblue" d="M302.058,-448.324C287.415,-439.822 264.866,-426.729 247.762,-416.797"/>
<polygon fill="midnightblue" stroke="midnightblue" points="249.31,-413.649 238.905,-411.655 245.795,-419.703 249.31,-413.649"/>
</g>
<!-- Node4 -->
<g id="node7" class="node"><title>Node4</title>
<a xlink:href="ui__includes_8hh.html" target="_top" xlink:title="../../ui_includes.hh">
<polygon fill="white" stroke="black" points="87.5,-336.5 87.5,-355.5 184.5,-355.5 184.5,-336.5 87.5,-336.5"/>
<text text-anchor="middle" x="136" y="-343.5" font-family="Helvetica,sans-Serif" font-size="10.00">../../ui_includes.hh</text>
</a>
</g>
<!-- Node1&#45;&gt;Node4 -->
<g id="edge20" class="edge"><title>Node1&#45;&gt;Node4</title>
<path fill="none" stroke="midnightblue" d="M219.15,-449.045C193.623,-442.459 168.201,-431.155 150,-412 138.455,-399.85 135.503,-380.575 135.109,-366.164"/>
<polygon fill="midnightblue" stroke="midnightblue" points="138.612,-365.918 135.227,-355.879 131.613,-365.838 138.612,-365.918"/>
</g>
<!-- Node11 -->
<g id="node22" class="node"><title>Node11</title>
<a xlink:href="AbstractItemlist_8hh.html" target="_top" xlink:title="../../MPD/AbstractItemlist.hh">
<polygon fill="white" stroke="black" points="249.5,-224.5 249.5,-243.5 392.5,-243.5 392.5,-224.5 249.5,-224.5"/>
<text text-anchor="middle" x="321" y="-231.5" font-family="Helvetica,sans-Serif" font-size="10.00">../../MPD/AbstractItemlist.hh</text>
</a>
</g>
<!-- Node1&#45;&gt;Node11 -->
<g id="edge22" class="edge"><title>Node1&#45;&gt;Node11</title>
<path fill="none" stroke="midnightblue" d="M317.157,-448.297C317.745,-415.633 319.831,-299.866 320.658,-253.957"/>
<polygon fill="midnightblue" stroke="midnightblue" points="324.159,-253.945 320.84,-243.884 317.16,-253.819 324.159,-253.945"/>
</g>
<!-- Node12 -->
<g id="node25" class="node"><title>Node12</title>
<a xlink:href="AbstractClientUser_8hh.html" target="_top" xlink:title="../../MPD/AbstractClientUser.hh">
<polygon fill="white" stroke="black" points="383.5,-392.5 383.5,-411.5 540.5,-411.5 540.5,-392.5 383.5,-392.5"/>
<text text-anchor="middle" x="462" y="-399.5" font-family="Helvetica,sans-Serif" font-size="10.00">../../MPD/AbstractClientUser.hh</text>
</a>
</g>
<!-- Node1&#45;&gt;Node12 -->
<g id="edge26" class="edge"><title>Node1&#45;&gt;Node12</title>
<path fill="none" stroke="midnightblue" d="M339.976,-448.444C364.157,-439.438 402.418,-425.189 429.646,-415.049"/>
<polygon fill="midnightblue" stroke="midnightblue" points="430.982,-418.286 439.132,-411.516 428.539,-411.727 430.982,-418.286"/>
</g>
<!-- Node13 -->
<g id="node27" class="node"><title>Node13</title>
<a xlink:href="Client_8hh.html" target="_top" xlink:title="Client.hh">
<polygon fill="white" stroke="black" points="407,-336.5 407,-355.5 463,-355.5 463,-336.5 407,-336.5"/>
<text text-anchor="middle" x="435" y="-343.5" font-family="Helvetica,sans-Serif" font-size="10.00">Client.hh</text>
</a>
</g>
<!-- Node1&#45;&gt;Node13 -->
<g id="edge84" class="edge"><title>Node1&#45;&gt;Node13</title>
<path fill="none" stroke="midnightblue" d="M323.999,-448.084C334.421,-435.068 354.949,-410.414 375,-392 387.075,-380.911 401.785,-369.845 413.619,-361.461"/>
<polygon fill="midnightblue" stroke="midnightblue" points="415.807,-364.202 422.015,-355.617 411.808,-358.457 415.807,-364.202"/>
</g>
<!-- Node26 -->
<g id="node69" class="node"><title>Node26</title>
<a xlink:href="Utils_8hh.html" target="_top" xlink:title="../../Utils/Utils.hh">
<polygon fill="white" stroke="black" points="559,-392.5 559,-411.5 651,-411.5 651,-392.5 559,-392.5"/>
<text text-anchor="middle" x="605" y="-399.5" font-family="Helvetica,sans-Serif" font-size="10.00">../../Utils/Utils.hh</text>
</a>
</g>
<!-- Node1&#45;&gt;Node26 -->
<g id="edge86" class="edge"><title>Node1&#45;&gt;Node26</title>
<path fill="none" stroke="midnightblue" d="M362.634,-448.444C413.297,-438.944 495.075,-423.611 549.428,-413.42"/>
<polygon fill="midnightblue" stroke="midnightblue" points="550.395,-416.799 559.579,-411.516 549.105,-409.919 550.395,-416.799"/>
</g>
<!-- Node3&#45;&gt;Node4 -->
<g id="edge6" class="edge"><title>Node3&#45;&gt;Node4</title>
<path fill="none" stroke="midnightblue" d="M209.861,-392.324C196.134,-383.9 175.064,-370.971 158.936,-361.074"/>
<polygon fill="midnightblue" stroke="midnightblue" points="160.457,-357.902 150.104,-355.655 156.796,-363.868 160.457,-357.902"/>
</g>
<!-- Node6 -->
<g id="node11" class="node"><title>Node6</title>
<a xlink:href="AudioOutput_8hh.html" target="_top" xlink:title="../../MPD/AudioOutput.hh">
<polygon fill="white" stroke="black" points="157,-112.5 157,-131.5 285,-131.5 285,-112.5 157,-112.5"/>
<text text-anchor="middle" x="221" y="-119.5" font-family="Helvetica,sans-Serif" font-size="10.00">../../MPD/AudioOutput.hh</text>
</a>
</g>
<!-- Node3&#45;&gt;Node6 -->
<g id="edge10" class="edge"><title>Node3&#45;&gt;Node6</title>
<path fill="none" stroke="midnightblue" d="M223.608,-392.444C222.795,-373.943 221,-328.827 221,-291 221,-291 221,-291 221,-233 221,-200.948 221,-163.643 221,-141.749"/>
<polygon fill="midnightblue" stroke="midnightblue" points="224.5,-141.558 221,-131.558 217.5,-141.558 224.5,-141.558"/>
</g>
<!-- Node5 -->
<g id="node9" class="node"><title>Node5</title>
<polygon fill="white" stroke="#bfbfbf" points="108.5,-280.5 108.5,-299.5 163.5,-299.5 163.5,-280.5 108.5,-280.5"/>
<text text-anchor="middle" x="136" y="-287.5" font-family="Helvetica,sans-Serif" font-size="10.00">gtkmm.h</text>
</g>
<!-- Node4&#45;&gt;Node5 -->
<g id="edge8" class="edge"><title>Node4&#45;&gt;Node5</title>
<path fill="none" stroke="midnightblue" d="M136,-336.083C136,-329.006 136,-318.861 136,-309.986"/>
<polygon fill="midnightblue" stroke="midnightblue" points="139.5,-309.751 136,-299.751 132.5,-309.751 139.5,-309.751"/>
</g>
<!-- Node7 -->
<g id="node13" class="node"><title>Node7</title>
<a xlink:href="AbstractClientExtension_8hh.html" target="_top" xlink:title="AbstractClientExtension.hh">
<polygon fill="white" stroke="black" points="231,-56.5 231,-75.5 367,-75.5 367,-56.5 231,-56.5"/>
<text text-anchor="middle" x="299" y="-63.5" font-family="Helvetica,sans-Serif" font-size="10.00">AbstractClientExtension.hh</text>
</a>
</g>
<!-- Node6&#45;&gt;Node7 -->
<g id="edge12" class="edge"><title>Node6&#45;&gt;Node7</title>
<path fill="none" stroke="midnightblue" d="M233.532,-112.324C245.586,-103.979 264.027,-91.2122 278.269,-81.3524"/>
<polygon fill="midnightblue" stroke="midnightblue" points="280.269,-84.2243 286.499,-75.6545 276.285,-78.469 280.269,-84.2243"/>
</g>
<!-- Node8 -->
<g id="node15" class="node"><title>Node8</title>
<a xlink:href="AbstractComposite_8hh.html" target="_top" xlink:title="AbstractComposite.hh">
<polygon fill="white" stroke="black" points="99,-56.5 99,-75.5 213,-75.5 213,-56.5 99,-56.5"/>
<text text-anchor="middle" x="156" y="-63.5" font-family="Helvetica,sans-Serif" font-size="10.00">AbstractComposite.hh</text>
</a>
</g>
<!-- Node6&#45;&gt;Node8 -->
<g id="edge14" class="edge"><title>Node6&#45;&gt;Node8</title>
<path fill="none" stroke="midnightblue" d="M210.557,-112.324C200.854,-104.263 186.185,-92.0765 174.5,-82.3695"/>
<polygon fill="midnightblue" stroke="midnightblue" points="176.562,-79.532 166.633,-75.8339 172.089,-84.9163 176.562,-79.532"/>
</g>
<!-- Node10 -->
<g id="node19" class="node"><title>Node10</title>
<polygon fill="white" stroke="#bfbfbf" points="449,-56.5 449,-75.5 519,-75.5 519,-56.5 449,-56.5"/>
<text text-anchor="middle" x="484" y="-63.5" font-family="Helvetica,sans-Serif" font-size="10.00">mpd/client.h</text>
</g>
<!-- Node6&#45;&gt;Node10 -->
<g id="edge18" class="edge"><title>Node6&#45;&gt;Node10</title>
<path fill="none" stroke="midnightblue" d="M262.673,-112.444C310.677,-102.587 389.274,-86.4495 438.742,-76.2925"/>
<polygon fill="midnightblue" stroke="midnightblue" points="439.743,-79.6601 448.834,-74.2203 438.335,-72.8032 439.743,-79.6601"/>
</g>
<!-- Node9 -->
<g id="node17" class="node"><title>Node9</title>
<polygon fill="white" stroke="#bfbfbf" points="253,-0.5 253,-19.5 297,-19.5 297,-0.5 253,-0.5"/>
<text text-anchor="middle" x="275" y="-7.5" font-family="Helvetica,sans-Serif" font-size="10.00">vector</text>
</g>
<!-- Node8&#45;&gt;Node9 -->
<g id="edge16" class="edge"><title>Node8&#45;&gt;Node9</title>
<path fill="none" stroke="midnightblue" d="M174.856,-56.4435C194.266,-47.6356 224.73,-33.8116 246.965,-23.722"/>
<polygon fill="midnightblue" stroke="midnightblue" points="248.572,-26.836 256.232,-19.5164 245.68,-20.4615 248.572,-26.836"/>
</g>
<!-- Node11&#45;&gt;Node8 -->
<g id="edge24" class="edge"><title>Node11&#45;&gt;Node8</title>
<path fill="none" stroke="midnightblue" d="M287.683,-224.488C246.431,-211.959 177.957,-184.179 148,-132 139.79,-117.699 143.45,-98.7402 148.165,-84.9907"/>
<polygon fill="midnightblue" stroke="midnightblue" points="151.433,-86.2438 151.798,-75.6552 144.91,-83.7051 151.433,-86.2438"/>
</g>
<!-- Node12&#45;&gt;Node13 -->
<g id="edge28" class="edge"><title>Node12&#45;&gt;Node13</title>
<path fill="none" stroke="midnightblue" d="M457.541,-392.083C453.846,-384.691 448.477,-373.953 443.906,-364.811"/>
<polygon fill="midnightblue" stroke="midnightblue" points="446.978,-363.13 439.376,-355.751 440.717,-366.261 446.978,-363.13"/>
</g>
<!-- Node14 -->
<g id="node29" class="node"><title>Node14</title>
<a xlink:href="BaseClient_8hh.html" target="_top" xlink:title="BaseClient.hh">
<polygon fill="white" stroke="black" points="521,-280.5 521,-299.5 599,-299.5 599,-280.5 521,-280.5"/>
<text text-anchor="middle" x="560" y="-287.5" font-family="Helvetica,sans-Serif" font-size="10.00">BaseClient.hh</text>
</a>
</g>
<!-- Node13&#45;&gt;Node14 -->
<g id="edge30" class="edge"><title>Node13&#45;&gt;Node14</title>
<path fill="none" stroke="midnightblue" d="M454.807,-336.444C475.287,-327.596 507.483,-313.687 530.865,-303.586"/>
<polygon fill="midnightblue" stroke="midnightblue" points="532.494,-306.695 540.286,-299.516 529.718,-300.269 532.494,-306.695"/>
</g>
<!-- Node25 -->
<g id="node65" class="node"><title>Node25</title>
<a xlink:href="AbstractItemGenerator_8hh.html" target="_top" xlink:title="AbstractItemGenerator.hh">
<polygon fill="white" stroke="black" points="362.5,-280.5 362.5,-299.5 491.5,-299.5 491.5,-280.5 362.5,-280.5"/>
<text text-anchor="middle" x="427" y="-287.5" font-family="Helvetica,sans-Serif" font-size="10.00">AbstractItemGenerator.hh</text>
</a>
</g>
<!-- Node13&#45;&gt;Node25 -->
<g id="edge80" class="edge"><title>Node13&#45;&gt;Node25</title>
<path fill="none" stroke="midnightblue" d="M433.679,-336.083C432.619,-328.927 431.094,-318.635 429.769,-309.691"/>
<polygon fill="midnightblue" stroke="midnightblue" points="433.224,-309.13 428.296,-299.751 426.3,-310.156 433.224,-309.13"/>
</g>
<!-- Node15 -->
<g id="node31" class="node"><title>Node15</title>
<a xlink:href="Listener_8hh.html" target="_top" xlink:title="Listener.hh">
<polygon fill="white" stroke="black" points="601.5,-224.5 601.5,-243.5 666.5,-243.5 666.5,-224.5 601.5,-224.5"/>
<text text-anchor="middle" x="634" y="-231.5" font-family="Helvetica,sans-Serif" font-size="10.00">Listener.hh</text>
</a>
</g>
<!-- Node14&#45;&gt;Node15 -->
<g id="edge32" class="edge"><title>Node14&#45;&gt;Node15</title>
<path fill="none" stroke="midnightblue" d="M571.889,-280.324C583.15,-272.107 600.287,-259.602 613.709,-249.807"/>
<polygon fill="midnightblue" stroke="midnightblue" points="615.88,-252.556 621.894,-243.834 611.753,-246.901 615.88,-252.556"/>
</g>
<!-- Node21 -->
<g id="node45" class="node"><title>Node21</title>
<a xlink:href="Connection_8hh.html" target="_top" xlink:title="Connection.hh">
<polygon fill="white" stroke="black" points="653,-112.5 653,-131.5 733,-131.5 733,-112.5 653,-112.5"/>
<text text-anchor="middle" x="693" y="-119.5" font-family="Helvetica,sans-Serif" font-size="10.00">Connection.hh</text>
</a>
</g>
<!-- Node14&#45;&gt;Node21 -->
<g id="edge70" class="edge"><title>Node14&#45;&gt;Node21</title>
<path fill="none" stroke="midnightblue" d="M599.132,-281.461C672.36,-266.473 825.474,-230.671 856,-188 886.601,-145.225 801.805,-130.582 743.334,-125.581"/>
<polygon fill="midnightblue" stroke="midnightblue" points="743.36,-122.073 733.117,-124.781 742.813,-129.051 743.36,-122.073"/>
</g>
<!-- Node24 -->
<g id="node60" class="node"><title>Node24</title>
<a xlink:href="Query_8hh.html" target="_top" xlink:title="Query.hh">
<polygon fill="white" stroke="black" points="303,-112.5 303,-131.5 359,-131.5 359,-112.5 303,-112.5"/>
<text text-anchor="middle" x="331" y="-119.5" font-family="Helvetica,sans-Serif" font-size="10.00">Query.hh</text>
</a>
</g>
<!-- Node14&#45;&gt;Node24 -->
<g id="edge72" class="edge"><title>Node14&#45;&gt;Node24</title>
<path fill="none" stroke="midnightblue" d="M548.01,-280.309C510.912,-253.416 397.702,-171.352 351.233,-137.666"/>
<polygon fill="midnightblue" stroke="midnightblue" points="353.022,-134.64 342.871,-131.605 348.913,-140.308 353.022,-134.64"/>
</g>
<!-- Node15&#45;&gt;Node10 -->
<g id="edge34" class="edge"><title>Node15&#45;&gt;Node10</title>
<path fill="none" stroke="midnightblue" d="M634.502,-224.453C635.297,-202.798 634.366,-145.147 605,-112 585.713,-90.2292 554.886,-78.9669 529.175,-73.1536"/>
<polygon fill="midnightblue" stroke="midnightblue" points="529.746,-69.6978 519.246,-71.1148 528.338,-76.5547 529.746,-69.6978"/>
</g>
<!-- Node16 -->
<g id="node34" class="node"><title>Node16</title>
<polygon fill="white" stroke="#bfbfbf" points="681.5,-168.5 681.5,-187.5 754.5,-187.5 754.5,-168.5 681.5,-168.5"/>
<text text-anchor="middle" x="718" y="-175.5" font-family="Helvetica,sans-Serif" font-size="10.00">mpd/async.h</text>
</g>
<!-- Node15&#45;&gt;Node16 -->
<g id="edge36" class="edge"><title>Node15&#45;&gt;Node16</title>
<path fill="none" stroke="midnightblue" d="M647.496,-224.324C660.6,-215.9 680.712,-202.971 696.107,-193.074"/>
<polygon fill="midnightblue" stroke="midnightblue" points="698.018,-196.006 704.537,-187.655 694.233,-190.118 698.018,-196.006"/>
</g>
<!-- Node17 -->
<g id="node36" class="node"><title>Node17</title>
<polygon fill="white" stroke="#bfbfbf" points="773,-168.5 773,-187.5 847,-187.5 847,-168.5 773,-168.5"/>
<text text-anchor="middle" x="810" y="-175.5" font-family="Helvetica,sans-Serif" font-size="10.00">mpd/parser.h</text>
</g>
<!-- Node15&#45;&gt;Node17 -->
<g id="edge38" class="edge"><title>Node15&#45;&gt;Node17</title>
<path fill="none" stroke="midnightblue" d="M661.888,-224.444C691.754,-215.28 739.315,-200.688 772.456,-190.519"/>
<polygon fill="midnightblue" stroke="midnightblue" points="773.709,-193.796 782.243,-187.516 771.656,-187.104 773.709,-193.796"/>
</g>
<!-- Node18 -->
<g id="node38" class="node"><title>Node18</title>
<polygon fill="white" stroke="#bfbfbf" points="665,-56.5 665,-75.5 721,-75.5 721,-56.5 665,-56.5"/>
<text text-anchor="middle" x="693" y="-63.5" font-family="Helvetica,sans-Serif" font-size="10.00">glibmm.h</text>
</g>
<!-- Node15&#45;&gt;Node18 -->
<g id="edge40" class="edge"><title>Node15&#45;&gt;Node18</title>
<path fill="none" stroke="midnightblue" d="M666.825,-231.278C722.684,-227.587 832.477,-216.77 856,-188 897.755,-136.932 791.318,-95.857 731.067,-77.4619"/>
<polygon fill="midnightblue" stroke="midnightblue" points="731.694,-73.997 721.111,-74.4996 729.698,-80.7063 731.694,-73.997"/>
</g>
<!-- Node19 -->
<g id="node40" class="node"><title>Node19</title>
<a xlink:href="Status_8hh.html" target="_top" xlink:title="Status.hh">
<polygon fill="white" stroke="black" points="537.5,-112.5 537.5,-131.5 596.5,-131.5 596.5,-112.5 537.5,-112.5"/>
<text text-anchor="middle" x="567" y="-119.5" font-family="Helvetica,sans-Serif" font-size="10.00">Status.hh</text>
</a>
</g>
<!-- Node15&#45;&gt;Node19 -->
<g id="edge42" class="edge"><title>Node15&#45;&gt;Node19</title>
<path fill="none" stroke="midnightblue" d="M627.018,-224.312C620.04,-215.444 609.199,-201.155 601,-188 591.338,-172.497 581.829,-153.961 575.335,-140.657"/>
<polygon fill="midnightblue" stroke="midnightblue" points="578.489,-139.14 571.005,-131.641 572.179,-142.171 578.489,-139.14"/>
</g>
<!-- Node20 -->
<g id="node43" class="node"><title>Node20</title>
<a xlink:href="NotifyData_8hh.html" target="_top" xlink:title="NotifyData.hh">
<polygon fill="white" stroke="black" points="471.5,-168.5 471.5,-187.5 548.5,-187.5 548.5,-168.5 471.5,-168.5"/>
<text text-anchor="middle" x="510" y="-175.5" font-family="Helvetica,sans-Serif" font-size="10.00">NotifyData.hh</text>
</a>
</g>
<!-- Node15&#45;&gt;Node20 -->
<g id="edge46" class="edge"><title>Node15&#45;&gt;Node20</title>
<path fill="none" stroke="midnightblue" d="M614.352,-224.444C594.035,-215.596 562.097,-201.687 538.902,-191.586"/>
<polygon fill="midnightblue" stroke="midnightblue" points="540.122,-188.3 529.556,-187.516 537.327,-194.718 540.122,-188.3"/>
</g>
<!-- Node15&#45;&gt;Node21 -->
<g id="edge68" class="edge"><title>Node15&#45;&gt;Node21</title>
<path fill="none" stroke="midnightblue" d="M638.63,-224.368C648.28,-206.376 670.714,-164.55 683.546,-140.627"/>
<polygon fill="midnightblue" stroke="midnightblue" points="686.75,-142.058 688.392,-131.591 680.581,-138.749 686.75,-142.058"/>
</g>
<!-- Node19&#45;&gt;Node10 -->
<g id="edge44" class="edge"><title>Node19&#45;&gt;Node10</title>
<path fill="none" stroke="midnightblue" d="M553.665,-112.324C540.838,-103.979 521.215,-91.2122 506.06,-81.3524"/>
<polygon fill="midnightblue" stroke="midnightblue" points="507.593,-78.1742 497.302,-75.6545 503.776,-84.0417 507.593,-78.1742"/>
</g>
<!-- Node20&#45;&gt;Node19 -->
<g id="edge58" class="edge"><title>Node20&#45;&gt;Node19</title>
<path fill="none" stroke="midnightblue" d="M519.158,-168.324C527.501,-160.42 540.032,-148.548 550.177,-138.938"/>
<polygon fill="midnightblue" stroke="midnightblue" points="552.823,-141.252 557.675,-131.834 548.009,-136.171 552.823,-141.252"/>
</g>
<!-- Node20&#45;&gt;Node21 -->
<g id="edge48" class="edge"><title>Node20&#45;&gt;Node21</title>
<path fill="none" stroke="midnightblue" d="M538.997,-168.444C570.185,-159.241 619.93,-144.562 654.408,-134.388"/>
<polygon fill="midnightblue" stroke="midnightblue" points="655.538,-137.704 664.139,-131.516 653.557,-130.99 655.538,-137.704"/>
</g>
<!-- Node22 -->
<g id="node49" class="node"><title>Node22</title>
<a xlink:href="Statistics_8hh.html" target="_top" xlink:title="Statistics.hh">
<polygon fill="white" stroke="black" points="448.5,-112.5 448.5,-131.5 519.5,-131.5 519.5,-112.5 448.5,-112.5"/>
<text text-anchor="middle" x="484" y="-119.5" font-family="Helvetica,sans-Serif" font-size="10.00">Statistics.hh</text>
</a>
</g>
<!-- Node20&#45;&gt;Node22 -->
<g id="edge54" class="edge"><title>Node20&#45;&gt;Node22</title>
<path fill="none" stroke="midnightblue" d="M505.707,-168.083C502.148,-160.691 496.978,-149.953 492.576,-140.811"/>
<polygon fill="midnightblue" stroke="midnightblue" points="495.705,-139.243 488.213,-131.751 489.398,-142.279 495.705,-139.243"/>
</g>
<!-- Node23 -->
<g id="node53" class="node"><title>Node23</title>
<a xlink:href="Song_8hh.html" target="_top" xlink:title="Song.hh">
<polygon fill="white" stroke="black" points="377.5,-112.5 377.5,-131.5 430.5,-131.5 430.5,-112.5 377.5,-112.5"/>
<text text-anchor="middle" x="404" y="-119.5" font-family="Helvetica,sans-Serif" font-size="10.00">Song.hh</text>
</a>
</g>
<!-- Node20&#45;&gt;Node23 -->
<g id="edge60" class="edge"><title>Node20&#45;&gt;Node23</title>
<path fill="none" stroke="midnightblue" d="M492.969,-168.324C475.97,-159.664 449.624,-146.242 430.007,-136.249"/>
<polygon fill="midnightblue" stroke="midnightblue" points="431.488,-133.075 420.988,-131.655 428.31,-139.312 431.488,-133.075"/>
</g>
<!-- Node21&#45;&gt;Node10 -->
<g id="edge50" class="edge"><title>Node21&#45;&gt;Node10</title>
<path fill="none" stroke="midnightblue" d="M659.883,-112.444C623.882,-103.142 566.23,-88.246 526.814,-78.062"/>
<polygon fill="midnightblue" stroke="midnightblue" points="527.519,-74.6294 516.962,-75.5164 525.768,-81.4068 527.519,-74.6294"/>
</g>
<!-- Node21&#45;&gt;Node18 -->
<g id="edge52" class="edge"><title>Node21&#45;&gt;Node18</title>
<path fill="none" stroke="midnightblue" d="M693,-112.083C693,-105.006 693,-94.8611 693,-85.9865"/>
<polygon fill="midnightblue" stroke="midnightblue" points="696.5,-85.751 693,-75.7511 689.5,-85.7511 696.5,-85.751"/>
</g>
<!-- Node22&#45;&gt;Node10 -->
<g id="edge56" class="edge"><title>Node22&#45;&gt;Node10</title>
<path fill="none" stroke="midnightblue" d="M484,-112.083C484,-105.006 484,-94.8611 484,-85.9865"/>
<polygon fill="midnightblue" stroke="midnightblue" points="487.5,-85.751 484,-75.7511 480.5,-85.7511 487.5,-85.751"/>
</g>
<!-- Node23&#45;&gt;Node8 -->
<g id="edge64" class="edge"><title>Node23&#45;&gt;Node8</title>
<path fill="none" stroke="midnightblue" d="M377.344,-114.42C373.868,-113.59 370.352,-112.765 367,-112 312.74,-99.6175 250.384,-86.4491 207.609,-77.5787"/>
<polygon fill="midnightblue" stroke="midnightblue" points="208.216,-74.13 197.714,-75.5308 206.797,-80.9848 208.216,-74.13"/>
</g>
<!-- Node23&#45;&gt;Node10 -->
<g id="edge62" class="edge"><title>Node23&#45;&gt;Node10</title>
<path fill="none" stroke="midnightblue" d="M416.853,-112.324C429.216,-103.979 448.13,-91.2122 462.737,-81.3524"/>
<polygon fill="midnightblue" stroke="midnightblue" points="464.848,-84.1503 471.179,-75.6545 460.932,-78.3483 464.848,-84.1503"/>
</g>
<!-- Node23&#45;&gt;Node18 -->
<g id="edge66" class="edge"><title>Node23&#45;&gt;Node18</title>
<path fill="none" stroke="midnightblue" d="M430.689,-114.11C433.82,-113.366 436.976,-112.646 440,-112 515.76,-95.8127 605.15,-80.8806 654.821,-72.9488"/>
<polygon fill="midnightblue" stroke="midnightblue" points="655.47,-76.3895 664.798,-71.3645 654.373,-69.4761 655.47,-76.3895"/>
</g>
<!-- Node24&#45;&gt;Node7 -->
<g id="edge78" class="edge"><title>Node24&#45;&gt;Node7</title>
<path fill="none" stroke="midnightblue" d="M325.716,-112.083C321.289,-104.613 314.837,-93.7244 309.382,-84.5199"/>
<polygon fill="midnightblue" stroke="midnightblue" points="312.295,-82.5697 304.186,-75.7511 306.273,-86.1383 312.295,-82.5697"/>
</g>
<!-- Node24&#45;&gt;Node9 -->
<g id="edge76" class="edge"><title>Node24&#45;&gt;Node9</title>
<path fill="none" stroke="midnightblue" d="M344.395,-112.489C362.047,-100.175 389.378,-76.6063 376,-56 360.885,-32.7179 330.621,-21.3801 307.144,-15.9214"/>
<polygon fill="midnightblue" stroke="midnightblue" points="307.741,-12.4709 297.238,-13.8646 306.318,-19.3247 307.741,-12.4709"/>
</g>
<!-- Node24&#45;&gt;Node10 -->
<g id="edge74" class="edge"><title>Node24&#45;&gt;Node10</title>
<path fill="none" stroke="midnightblue" d="M355.243,-112.444C380.871,-103.399 421.485,-89.064 450.238,-78.9158"/>
<polygon fill="midnightblue" stroke="midnightblue" points="451.605,-82.1452 459.87,-75.5164 449.275,-75.5442 451.605,-82.1452"/>
</g>
<!-- Node25&#45;&gt;Node11 -->
<g id="edge82" class="edge"><title>Node25&#45;&gt;Node11</title>
<path fill="none" stroke="midnightblue" d="M409.969,-280.324C392.97,-271.664 366.624,-258.242 347.007,-248.249"/>
<polygon fill="midnightblue" stroke="midnightblue" points="348.488,-245.075 337.988,-243.655 345.31,-251.312 348.488,-245.075"/>
</g>
<!-- Node27 -->
<g id="node71" class="node"><title>Node27</title>
<polygon fill="white" stroke="#bfbfbf" points="646.5,-280.5 646.5,-299.5 735.5,-299.5 735.5,-280.5 646.5,-280.5"/>
<text text-anchor="middle" x="691" y="-287.5" font-family="Helvetica,sans-Serif" font-size="10.00">glibmm/ustring.h</text>
</g>
<!-- Node26&#45;&gt;Node27 -->
<g id="edge88" class="edge"><title>Node26&#45;&gt;Node27</title>
<path fill="none" stroke="midnightblue" d="M586.107,-392.34C562.709,-380.409 527.803,-357.898 544,-336 555.244,-320.799 599.067,-308.641 635.964,-300.813"/>
<polygon fill="midnightblue" stroke="midnightblue" points="637.063,-304.16 646.155,-298.721 635.655,-297.303 637.063,-304.16"/>
</g>
<!-- Node28 -->
<g id="node73" class="node"><title>Node28</title>
<polygon fill="white" stroke="#bfbfbf" points="553,-336.5 553,-355.5 639,-355.5 639,-336.5 553,-336.5"/>
<text text-anchor="middle" x="596" y="-343.5" font-family="Helvetica,sans-Serif" font-size="10.00">gtkmm/builder.h</text>
</g>
<!-- Node26&#45;&gt;Node28 -->
<g id="edge90" class="edge"><title>Node26&#45;&gt;Node28</title>
<path fill="none" stroke="midnightblue" d="M603.514,-392.083C602.321,-384.927 600.606,-374.635 599.115,-365.691"/>
<polygon fill="midnightblue" stroke="midnightblue" points="602.555,-365.04 597.459,-355.751 595.65,-366.19 602.555,-365.04"/>
</g>
<!-- Node29 -->
<g id="node75" class="node"><title>Node29</title>
<polygon fill="white" stroke="#bfbfbf" points="657,-336.5 657,-355.5 743,-355.5 743,-336.5 657,-336.5"/>
<text text-anchor="middle" x="700" y="-343.5" font-family="Helvetica,sans-Serif" font-size="10.00">gdkmm/pixbuf.h</text>
</g>
<!-- Node26&#45;&gt;Node29 -->
<g id="edge92" class="edge"><title>Node26&#45;&gt;Node29</title>
<path fill="none" stroke="midnightblue" d="M620.263,-392.324C635.221,-383.822 658.255,-370.729 675.727,-360.797"/>
<polygon fill="midnightblue" stroke="midnightblue" points="677.81,-363.639 684.774,-355.655 674.351,-357.553 677.81,-363.639"/>
</g>
<!-- Node30 -->
<g id="node77" class="node"><title>Node30</title>
<a xlink:href="Writer_8hh.html" target="_top" xlink:title="../Log/Writer.hh">
<polygon fill="white" stroke="black" points="761,-336.5 761,-355.5 845,-355.5 845,-336.5 761,-336.5"/>
<text text-anchor="middle" x="803" y="-343.5" font-family="Helvetica,sans-Serif" font-size="10.00">../Log/Writer.hh</text>
</a>
</g>
<!-- Node26&#45;&gt;Node30 -->
<g id="edge94" class="edge"><title>Node26&#45;&gt;Node30</title>
<path fill="none" stroke="midnightblue" d="M636.374,-392.444C670.263,-383.201 724.403,-368.436 761.724,-358.257"/>
<polygon fill="midnightblue" stroke="midnightblue" points="763.046,-361.524 771.773,-355.516 761.205,-354.771 763.046,-361.524"/>
</g>
<!-- Node30&#45;&gt;Node27 -->
<g id="edge98" class="edge"><title>Node30&#45;&gt;Node27</title>
<path fill="none" stroke="midnightblue" d="M785.005,-336.324C766.962,-327.625 738.953,-314.12 718.197,-304.113"/>
<polygon fill="midnightblue" stroke="midnightblue" points="719.478,-300.845 708.95,-299.655 716.438,-307.15 719.478,-300.845"/>
</g>
<!-- Node31 -->
<g id="node79" class="node"><title>Node31</title>
<polygon fill="white" stroke="#bfbfbf" points="768,-280.5 768,-299.5 814,-299.5 814,-280.5 768,-280.5"/>
<text text-anchor="middle" x="791" y="-287.5" font-family="Helvetica,sans-Serif" font-size="10.00">stdio.h</text>
</g>
<!-- Node30&#45;&gt;Node31 -->
<g id="edge96" class="edge"><title>Node30&#45;&gt;Node31</title>
<path fill="none" stroke="midnightblue" d="M801.018,-336.083C799.428,-328.927 797.141,-318.635 795.154,-309.691"/>
<polygon fill="midnightblue" stroke="midnightblue" points="798.531,-308.754 792.945,-299.751 791.697,-310.272 798.531,-308.754"/>
</g>
<!-- Node32 -->
<g id="node82" class="node"><title>Node32</title>
<a xlink:href="Singleton_8hh.html" target="_top" xlink:title="../Utils/Singleton.hh">
<polygon fill="white" stroke="black" points="832.5,-280.5 832.5,-299.5 935.5,-299.5 935.5,-280.5 832.5,-280.5"/>
<text text-anchor="middle" x="884" y="-287.5" font-family="Helvetica,sans-Serif" font-size="10.00">../Utils/Singleton.hh</text>
</a>
</g>
<!-- Node30&#45;&gt;Node32 -->
<g id="edge100" class="edge"><title>Node30&#45;&gt;Node32</title>
<path fill="none" stroke="midnightblue" d="M816.014,-336.324C828.532,-327.979 847.682,-315.212 862.471,-305.352"/>
<polygon fill="midnightblue" stroke="midnightblue" points="864.639,-308.114 871.018,-299.655 860.756,-302.289 864.639,-308.114"/>
</g>
</g>
</svg>
