<?xml version="1.0" encoding="UTF-8" standalone="no"?>
<!DOCTYPE svg PUBLIC "-//W3C//DTD SVG 1.1//EN"
 "http://www.w3.org/Graphics/SVG/1.1/DTD/svg11.dtd">
<!-- Generated by graphviz version 2.28.0 (20111204.1018)
 -->
<!-- Title: G Pages: 1 -->
<svg width="939pt" height="532pt"
 viewBox="0.00 0.00 939.00 532.00" xmlns="http://www.w3.org/2000/svg" xmlns:xlink="http://www.w3.org/1999/xlink">
<g id="graph1" class="graph" transform="scale(1 1) rotate(0) translate(4 528)">
<title>G</title>
<polygon fill="white" stroke="white" points="-4,5 -4,-528 936,-528 936,5 -4,5"/>
<!-- Node1 -->
<g id="node1" class="node"><title>Node1</title>
<polygon fill="#bfbfbf" stroke="black" points="199.5,-504.5 199.5,-523.5 394.5,-523.5 394.5,-504.5 199.5,-504.5"/>
<text text-anchor="middle" x="297" y="-511.5" font-family="Helvetica,sans-Serif" font-size="10.00">src/Browser/Settings/SettingsOutputs.hh</text>
</g>
<!-- Node2 -->
<g id="node3" class="node"><title>Node2</title>
<polygon fill="white" stroke="#bfbfbf" points="-0.5,-448.5 -0.5,-467.5 54.5,-467.5 54.5,-448.5 -0.5,-448.5"/>
<text text-anchor="middle" x="27" y="-455.5" font-family="Helvetica,sans-Serif" font-size="10.00">gtkmm.h</text>
</g>
<!-- Node1&#45;&gt;Node2 -->
<g id="edge2" class="edge"><title>Node1&#45;&gt;Node2</title>
<path fill="none" stroke="midnightblue" d="M248.439,-504.466C203.224,-496.339 133.719,-483.389 65.0021,-468.361"/>
<polygon fill="midnightblue" stroke="midnightblue" points="65.3911,-464.863 54.8722,-466.129 63.8848,-471.699 65.3911,-464.863"/>
</g>
<!-- Node3 -->
<g id="node5" class="node"><title>Node3</title>
<a xlink:href="AbstractSettings_8hh.html" target="_top" xlink:title="AbstractSettings.hh">
<polygon fill="white" stroke="black" points="72.5,-448.5 72.5,-467.5 175.5,-467.5 175.5,-448.5 72.5,-448.5"/>
<text text-anchor="middle" x="124" y="-455.5" font-family="Helvetica,sans-Serif" font-size="10.00">AbstractSettings.hh</text>
</a>
</g>
<!-- Node1&#45;&gt;Node3 -->
<g id="edge4" class="edge"><title>Node1&#45;&gt;Node3</title>
<path fill="none" stroke="midnightblue" d="M269.588,-504.444C240.231,-495.28 193.481,-480.688 160.904,-470.519"/>
<polygon fill="midnightblue" stroke="midnightblue" points="161.873,-467.155 151.284,-467.516 159.787,-473.837 161.873,-467.155"/>
</g>
<!-- Node4 -->
<g id="node7" class="node"><title>Node4</title>
<a xlink:href="OutputsModelColumns_8hh.html" target="_top" xlink:title="OutputsModelColumns.hh">
<polygon fill="white" stroke="black" points="232,-448.5 232,-467.5 362,-467.5 362,-448.5 232,-448.5"/>
<text text-anchor="middle" x="297" y="-455.5" font-family="Helvetica,sans-Serif" font-size="10.00">OutputsModelColumns.hh</text>
</a>
</g>
<!-- Node1&#45;&gt;Node4 -->
<g id="edge6" class="edge"><title>Node1&#45;&gt;Node4</title>
<path fill="none" stroke="midnightblue" d="M297,-504.083C297,-497.006 297,-486.861 297,-477.986"/>
<polygon fill="midnightblue" stroke="midnightblue" points="300.5,-477.751 297,-467.751 293.5,-477.751 300.5,-477.751"/>
</g>
<!-- Node20 -->
<g id="node49" class="node"><title>Node20</title>
<a xlink:href="AbstractItemlist_8hh.html" target="_top" xlink:title="../../MPD/AbstractItemlist.hh">
<polygon fill="white" stroke="black" points="270.5,-280.5 270.5,-299.5 413.5,-299.5 413.5,-280.5 270.5,-280.5"/>
<text text-anchor="middle" x="342" y="-287.5" font-family="Helvetica,sans-Serif" font-size="10.00">../../MPD/AbstractItemlist.hh</text>
</a>
</g>
<!-- Node1&#45;&gt;Node20 -->
<g id="edge58" class="edge"><title>Node1&#45;&gt;Node20</title>
<path fill="none" stroke="midnightblue" d="M270.071,-504.356C253.281,-497.411 233.022,-485.825 223,-468 218.313,-459.664 212.367,-429.492 224,-392 232.84,-363.509 239.112,-356.269 261,-336 275.466,-322.604 294.647,-311.72 310.712,-304.014"/>
<polygon fill="midnightblue" stroke="midnightblue" points="312.619,-306.99 320.242,-299.632 309.694,-300.63 312.619,-306.99"/>
</g>
<!-- Node21 -->
<g id="node52" class="node"><title>Node21</title>
<a xlink:href="AbstractClientUser_8hh.html" target="_top" xlink:title="../../MPD/AbstractClientUser.hh">
<polygon fill="white" stroke="black" points="418.5,-448.5 418.5,-467.5 575.5,-467.5 575.5,-448.5 418.5,-448.5"/>
<text text-anchor="middle" x="497" y="-455.5" font-family="Helvetica,sans-Serif" font-size="10.00">../../MPD/AbstractClientUser.hh</text>
</a>
</g>
<!-- Node1&#45;&gt;Node21 -->
<g id="edge62" class="edge"><title>Node1&#45;&gt;Node21</title>
<path fill="none" stroke="midnightblue" d="M328.691,-504.444C363.068,-495.162 418.077,-480.309 455.789,-470.127"/>
<polygon fill="midnightblue" stroke="midnightblue" points="456.716,-473.502 465.458,-467.516 454.891,-466.744 456.716,-473.502"/>
</g>
<!-- Node22 -->
<g id="node54" class="node"><title>Node22</title>
<a xlink:href="Client_8hh.html" target="_top" xlink:title="Client.hh">
<polygon fill="white" stroke="black" points="465,-392.5 465,-411.5 521,-411.5 521,-392.5 465,-392.5"/>
<text text-anchor="middle" x="493" y="-399.5" font-family="Helvetica,sans-Serif" font-size="10.00">Client.hh</text>
</a>
</g>
<!-- Node1&#45;&gt;Node22 -->
<g id="edge72" class="edge"><title>Node1&#45;&gt;Node22</title>
<path fill="none" stroke="midnightblue" d="M311.561,-504.468C333.017,-491.931 374.434,-467.866 410,-448 429.379,-437.175 451.482,-425.21 468.003,-416.341"/>
<polygon fill="midnightblue" stroke="midnightblue" points="469.861,-419.316 477.023,-411.508 466.556,-413.146 469.861,-419.316"/>
</g>
<!-- Node24 -->
<g id="node61" class="node"><title>Node24</title>
<a xlink:href="Utils_8hh.html" target="_top" xlink:title="../../Utils/Utils.hh">
<polygon fill="white" stroke="black" points="778,-168.5 778,-187.5 870,-187.5 870,-168.5 778,-168.5"/>
<text text-anchor="middle" x="824" y="-175.5" font-family="Helvetica,sans-Serif" font-size="10.00">../../Utils/Utils.hh</text>
</a>
</g>
<!-- Node1&#45;&gt;Node24 -->
<g id="edge74" class="edge"><title>Node1&#45;&gt;Node24</title>
<path fill="none" stroke="midnightblue" d="M394.538,-511.549C542.335,-506.668 806,-486.288 806,-403 806,-403 806,-403 806,-289 806,-256.537 813.73,-219.384 819.058,-197.628"/>
<polygon fill="midnightblue" stroke="midnightblue" points="822.495,-198.315 821.572,-187.76 815.712,-196.587 822.495,-198.315"/>
</g>
<!-- Node5 -->
<g id="node9" class="node"><title>Node5</title>
<a xlink:href="AudioOutput_8hh.html" target="_top" xlink:title="../../MPD/AudioOutput.hh">
<polygon fill="white" stroke="black" points="233,-392.5 233,-411.5 361,-411.5 361,-392.5 233,-392.5"/>
<text text-anchor="middle" x="297" y="-399.5" font-family="Helvetica,sans-Serif" font-size="10.00">../../MPD/AudioOutput.hh</text>
</a>
</g>
<!-- Node4&#45;&gt;Node5 -->
<g id="edge8" class="edge"><title>Node4&#45;&gt;Node5</title>
<path fill="none" stroke="midnightblue" d="M297,-448.083C297,-441.006 297,-430.861 297,-421.986"/>
<polygon fill="midnightblue" stroke="midnightblue" points="300.5,-421.751 297,-411.751 293.5,-421.751 300.5,-421.751"/>
</g>
<!-- Node6 -->
<g id="node11" class="node"><title>Node6</title>
<a xlink:href="AbstractClientExtension_8hh.html" target="_top" xlink:title="AbstractClientExtension.hh">
<polygon fill="white" stroke="black" points="270,-336.5 270,-355.5 406,-355.5 406,-336.5 270,-336.5"/>
<text text-anchor="middle" x="338" y="-343.5" font-family="Helvetica,sans-Serif" font-size="10.00">AbstractClientExtension.hh</text>
</a>
</g>
<!-- Node5&#45;&gt;Node6 -->
<g id="edge10" class="edge"><title>Node5&#45;&gt;Node6</title>
<path fill="none" stroke="midnightblue" d="M303.77,-392.083C309.562,-384.455 318.058,-373.264 325.138,-363.941"/>
<polygon fill="midnightblue" stroke="midnightblue" points="328.096,-365.832 331.356,-355.751 322.521,-361.599 328.096,-365.832"/>
</g>
<!-- Node18 -->
<g id="node41" class="node"><title>Node18</title>
<a xlink:href="AbstractComposite_8hh.html" target="_top" xlink:title="AbstractComposite.hh">
<polygon fill="white" stroke="black" points="223,-56.5 223,-75.5 337,-75.5 337,-56.5 223,-56.5"/>
<text text-anchor="middle" x="280" y="-63.5" font-family="Helvetica,sans-Serif" font-size="10.00">AbstractComposite.hh</text>
</a>
</g>
<!-- Node5&#45;&gt;Node18 -->
<g id="edge56" class="edge"><title>Node5&#45;&gt;Node18</title>
<path fill="none" stroke="midnightblue" d="M288.419,-392.431C280.297,-383.879 268.294,-370.025 261,-356 247.113,-329.297 242,-321.098 242,-291 242,-291 242,-291 242,-177 242,-142.813 258.6,-105.764 269.857,-84.5707"/>
<polygon fill="midnightblue" stroke="midnightblue" points="272.947,-86.2151 274.716,-75.769 266.819,-82.832 272.947,-86.2151"/>
</g>
<!-- Node7 -->
<g id="node13" class="node"><title>Node7</title>
<a xlink:href="BaseClient_8hh.html" target="_top" xlink:title="BaseClient.hh">
<polygon fill="white" stroke="black" points="513,-280.5 513,-299.5 591,-299.5 591,-280.5 513,-280.5"/>
<text text-anchor="middle" x="552" y="-287.5" font-family="Helvetica,sans-Serif" font-size="10.00">BaseClient.hh</text>
</a>
</g>
<!-- Node6&#45;&gt;Node7 -->
<g id="edge12" class="edge"><title>Node6&#45;&gt;Node7</title>
<path fill="none" stroke="midnightblue" d="M371.909,-336.444C408.849,-327.122 468.054,-312.183 508.418,-301.997"/>
<polygon fill="midnightblue" stroke="midnightblue" points="509.41,-305.357 518.25,-299.516 507.697,-298.57 509.41,-305.357"/>
</g>
<!-- Node8 -->
<g id="node15" class="node"><title>Node8</title>
<a xlink:href="Listener_8hh.html" target="_top" xlink:title="Listener.hh">
<polygon fill="white" stroke="black" points="489.5,-224.5 489.5,-243.5 554.5,-243.5 554.5,-224.5 489.5,-224.5"/>
<text text-anchor="middle" x="522" y="-231.5" font-family="Helvetica,sans-Serif" font-size="10.00">Listener.hh</text>
</a>
</g>
<!-- Node7&#45;&gt;Node8 -->
<g id="edge14" class="edge"><title>Node7&#45;&gt;Node8</title>
<path fill="none" stroke="midnightblue" d="M547.046,-280.083C542.896,-272.613 536.847,-261.724 531.733,-252.52"/>
<polygon fill="midnightblue" stroke="midnightblue" points="534.778,-250.793 526.862,-243.751 528.659,-254.192 534.778,-250.793"/>
</g>
<!-- Node15 -->
<g id="node30" class="node"><title>Node15</title>
<a xlink:href="Connection_8hh.html" target="_top" xlink:title="Connection.hh">
<polygon fill="white" stroke="black" points="584,-112.5 584,-131.5 664,-131.5 664,-112.5 584,-112.5"/>
<text text-anchor="middle" x="624" y="-119.5" font-family="Helvetica,sans-Serif" font-size="10.00">Connection.hh</text>
</a>
</g>
<!-- Node7&#45;&gt;Node15 -->
<g id="edge54" class="edge"><title>Node7&#45;&gt;Node15</title>
<path fill="none" stroke="midnightblue" d="M575.077,-280.442C608.254,-266.726 668.162,-236.344 693,-188 704.237,-166.128 678.853,-147.645 655.767,-136.046"/>
<polygon fill="midnightblue" stroke="midnightblue" points="656.995,-132.755 646.458,-131.653 654.007,-139.086 656.995,-132.755"/>
</g>
<!-- Node9 -->
<g id="node17" class="node"><title>Node9</title>
<polygon fill="white" stroke="#bfbfbf" points="415,-56.5 415,-75.5 485,-75.5 485,-56.5 415,-56.5"/>
<text text-anchor="middle" x="450" y="-63.5" font-family="Helvetica,sans-Serif" font-size="10.00">mpd/client.h</text>
</g>
<!-- Node8&#45;&gt;Node9 -->
<g id="edge16" class="edge"><title>Node8&#45;&gt;Node9</title>
<path fill="none" stroke="midnightblue" d="M489.231,-231.511C454.409,-228.301 399.57,-218.376 364,-188 343.133,-170.18 343.917,-158.795 338,-132 336.083,-123.32 333.022,-119.364 338,-112 352.94,-89.8968 380.72,-78.6486 404.874,-72.9253"/>
<polygon fill="midnightblue" stroke="midnightblue" points="405.896,-76.2869 414.956,-70.7952 404.449,-69.4381 405.896,-76.2869"/>
</g>
<!-- Node10 -->
<g id="node19" class="node"><title>Node10</title>
<polygon fill="white" stroke="#bfbfbf" points="518.5,-168.5 518.5,-187.5 591.5,-187.5 591.5,-168.5 518.5,-168.5"/>
<text text-anchor="middle" x="555" y="-175.5" font-family="Helvetica,sans-Serif" font-size="10.00">mpd/async.h</text>
</g>
<!-- Node8&#45;&gt;Node10 -->
<g id="edge18" class="edge"><title>Node8&#45;&gt;Node10</title>
<path fill="none" stroke="midnightblue" d="M527.449,-224.083C532.014,-216.613 538.668,-205.724 544.293,-196.52"/>
<polygon fill="midnightblue" stroke="midnightblue" points="547.424,-198.109 549.652,-187.751 541.451,-194.459 547.424,-198.109"/>
</g>
<!-- Node11 -->
<g id="node21" class="node"><title>Node11</title>
<polygon fill="white" stroke="#bfbfbf" points="610,-168.5 610,-187.5 684,-187.5 684,-168.5 610,-168.5"/>
<text text-anchor="middle" x="647" y="-175.5" font-family="Helvetica,sans-Serif" font-size="10.00">mpd/parser.h</text>
</g>
<!-- Node8&#45;&gt;Node11 -->
<g id="edge20" class="edge"><title>Node8&#45;&gt;Node11</title>
<path fill="none" stroke="midnightblue" d="M541.807,-224.444C562.287,-215.596 594.483,-201.687 617.865,-191.586"/>
<polygon fill="midnightblue" stroke="midnightblue" points="619.494,-194.695 627.286,-187.516 616.718,-188.269 619.494,-194.695"/>
</g>
<!-- Node12 -->
<g id="node23" class="node"><title>Node12</title>
<polygon fill="white" stroke="#bfbfbf" points="684,-56.5 684,-75.5 740,-75.5 740,-56.5 684,-56.5"/>
<text text-anchor="middle" x="712" y="-63.5" font-family="Helvetica,sans-Serif" font-size="10.00">glibmm.h</text>
</g>
<!-- Node8&#45;&gt;Node12 -->
<g id="edge22" class="edge"><title>Node8&#45;&gt;Node12</title>
<path fill="none" stroke="midnightblue" d="M554.85,-228.66C599.169,-222.111 674.686,-208.275 693,-188 718.453,-159.821 717.641,-112.078 714.822,-85.7767"/>
<polygon fill="midnightblue" stroke="midnightblue" points="718.266,-85.1129 713.517,-75.6418 711.323,-86.0069 718.266,-85.1129"/>
</g>
<!-- Node13 -->
<g id="node25" class="node"><title>Node13</title>
<a xlink:href="Status_8hh.html" target="_top" xlink:title="Status.hh">
<polygon fill="white" stroke="black" points="346.5,-112.5 346.5,-131.5 405.5,-131.5 405.5,-112.5 346.5,-112.5"/>
<text text-anchor="middle" x="376" y="-119.5" font-family="Helvetica,sans-Serif" font-size="10.00">Status.hh</text>
</a>
</g>
<!-- Node8&#45;&gt;Node13 -->
<g id="edge24" class="edge"><title>Node8&#45;&gt;Node13</title>
<path fill="none" stroke="midnightblue" d="M489.31,-233.317C454.808,-231.674 401.913,-223.103 376,-188 366.269,-174.819 367.576,-155.681 370.53,-141.584"/>
<polygon fill="midnightblue" stroke="midnightblue" points="374.005,-142.122 373.074,-131.568 367.22,-140.399 374.005,-142.122"/>
</g>
<!-- Node14 -->
<g id="node28" class="node"><title>Node14</title>
<a xlink:href="NotifyData_8hh.html" target="_top" xlink:title="NotifyData.hh">
<polygon fill="white" stroke="black" points="384.5,-168.5 384.5,-187.5 461.5,-187.5 461.5,-168.5 384.5,-168.5"/>
<text text-anchor="middle" x="423" y="-175.5" font-family="Helvetica,sans-Serif" font-size="10.00">NotifyData.hh</text>
</a>
</g>
<!-- Node8&#45;&gt;Node14 -->
<g id="edge28" class="edge"><title>Node8&#45;&gt;Node14</title>
<path fill="none" stroke="midnightblue" d="M506.094,-224.324C490.362,-215.743 466.058,-202.486 447.791,-192.522"/>
<polygon fill="midnightblue" stroke="midnightblue" points="449.322,-189.37 438.867,-187.655 445.97,-195.516 449.322,-189.37"/>
</g>
<!-- Node8&#45;&gt;Node15 -->
<g id="edge52" class="edge"><title>Node8&#45;&gt;Node15</title>
<path fill="none" stroke="midnightblue" d="M516.627,-224.175C509.273,-210.836 498.252,-185.268 510,-168 518.485,-155.529 552.54,-143.068 581.238,-134.432"/>
<polygon fill="midnightblue" stroke="midnightblue" points="582.5,-137.71 591.115,-131.543 580.535,-130.991 582.5,-137.71"/>
</g>
<!-- Node13&#45;&gt;Node9 -->
<g id="edge26" class="edge"><title>Node13&#45;&gt;Node9</title>
<path fill="none" stroke="midnightblue" d="M387.889,-112.324C399.15,-104.107 416.287,-91.6017 429.709,-81.8069"/>
<polygon fill="midnightblue" stroke="midnightblue" points="431.88,-84.5559 437.894,-75.8339 427.753,-78.9014 431.88,-84.5559"/>
</g>
<!-- Node14&#45;&gt;Node13 -->
<g id="edge40" class="edge"><title>Node14&#45;&gt;Node13</title>
<path fill="none" stroke="midnightblue" d="M415.239,-168.083C408.463,-160.298 398.457,-148.801 390.245,-139.367"/>
<polygon fill="midnightblue" stroke="midnightblue" points="392.822,-136.996 383.617,-131.751 387.542,-141.592 392.822,-136.996"/>
</g>
<!-- Node14&#45;&gt;Node15 -->
<g id="edge30" class="edge"><title>Node14&#45;&gt;Node15</title>
<path fill="none" stroke="midnightblue" d="M454.849,-168.444C489.398,-159.162 544.682,-144.309 582.583,-134.127"/>
<polygon fill="midnightblue" stroke="midnightblue" points="583.551,-137.491 592.3,-131.516 581.734,-130.731 583.551,-137.491"/>
</g>
<!-- Node16 -->
<g id="node34" class="node"><title>Node16</title>
<a xlink:href="Statistics_8hh.html" target="_top" xlink:title="Statistics.hh">
<polygon fill="white" stroke="black" points="494.5,-112.5 494.5,-131.5 565.5,-131.5 565.5,-112.5 494.5,-112.5"/>
<text text-anchor="middle" x="530" y="-119.5" font-family="Helvetica,sans-Serif" font-size="10.00">Statistics.hh</text>
</a>
</g>
<!-- Node14&#45;&gt;Node16 -->
<g id="edge36" class="edge"><title>Node14&#45;&gt;Node16</title>
<path fill="none" stroke="midnightblue" d="M440.191,-168.324C457.351,-159.664 483.946,-146.242 503.747,-136.249"/>
<polygon fill="midnightblue" stroke="midnightblue" points="505.501,-139.285 512.851,-131.655 502.347,-133.035 505.501,-139.285"/>
</g>
<!-- Node17 -->
<g id="node38" class="node"><title>Node17</title>
<a xlink:href="Song_8hh.html" target="_top" xlink:title="Song.hh">
<polygon fill="white" stroke="black" points="423.5,-112.5 423.5,-131.5 476.5,-131.5 476.5,-112.5 423.5,-112.5"/>
<text text-anchor="middle" x="450" y="-119.5" font-family="Helvetica,sans-Serif" font-size="10.00">Song.hh</text>
</a>
</g>
<!-- Node14&#45;&gt;Node17 -->
<g id="edge42" class="edge"><title>Node14&#45;&gt;Node17</title>
<path fill="none" stroke="midnightblue" d="M427.459,-168.083C431.154,-160.691 436.523,-149.953 441.094,-140.811"/>
<polygon fill="midnightblue" stroke="midnightblue" points="444.283,-142.261 445.624,-131.751 438.022,-139.13 444.283,-142.261"/>
</g>
<!-- Node15&#45;&gt;Node9 -->
<g id="edge32" class="edge"><title>Node15&#45;&gt;Node9</title>
<path fill="none" stroke="midnightblue" d="M596.429,-112.444C566.903,-103.28 519.882,-88.6876 487.117,-78.5192"/>
<polygon fill="midnightblue" stroke="midnightblue" points="488.03,-75.1378 477.442,-75.5164 485.955,-81.8232 488.03,-75.1378"/>
</g>
<!-- Node15&#45;&gt;Node12 -->
<g id="edge34" class="edge"><title>Node15&#45;&gt;Node12</title>
<path fill="none" stroke="midnightblue" d="M638.139,-112.324C651.866,-103.9 672.936,-90.9709 689.064,-81.0741"/>
<polygon fill="midnightblue" stroke="midnightblue" points="691.204,-83.8678 697.896,-75.6545 687.543,-77.9016 691.204,-83.8678"/>
</g>
<!-- Node16&#45;&gt;Node9 -->
<g id="edge38" class="edge"><title>Node16&#45;&gt;Node9</title>
<path fill="none" stroke="midnightblue" d="M517.147,-112.324C504.784,-103.979 485.87,-91.2122 471.263,-81.3524"/>
<polygon fill="midnightblue" stroke="midnightblue" points="473.068,-78.3483 462.821,-75.6545 469.152,-84.1503 473.068,-78.3483"/>
</g>
<!-- Node17&#45;&gt;Node9 -->
<g id="edge44" class="edge"><title>Node17&#45;&gt;Node9</title>
<path fill="none" stroke="midnightblue" d="M450,-112.083C450,-105.006 450,-94.8611 450,-85.9865"/>
<polygon fill="midnightblue" stroke="midnightblue" points="453.5,-85.751 450,-75.7511 446.5,-85.7511 453.5,-85.751"/>
</g>
<!-- Node17&#45;&gt;Node12 -->
<g id="edge50" class="edge"><title>Node17&#45;&gt;Node12</title>
<path fill="none" stroke="midnightblue" d="M476.702,-114.172C479.831,-113.417 482.983,-112.677 486,-112 551.729,-97.2491 628.767,-82.4344 673.8,-74.0217"/>
<polygon fill="midnightblue" stroke="midnightblue" points="674.53,-77.446 683.721,-72.1753 673.249,-70.5642 674.53,-77.446"/>
</g>
<!-- Node17&#45;&gt;Node18 -->
<g id="edge46" class="edge"><title>Node17&#45;&gt;Node18</title>
<path fill="none" stroke="midnightblue" d="M423.438,-112.562C394.788,-103.462 348.97,-88.9083 316.847,-78.7042"/>
<polygon fill="midnightblue" stroke="midnightblue" points="317.527,-75.2482 306.937,-75.5565 315.408,-81.9197 317.527,-75.2482"/>
</g>
<!-- Node19 -->
<g id="node43" class="node"><title>Node19</title>
<polygon fill="white" stroke="#bfbfbf" points="258,-0.5 258,-19.5 302,-19.5 302,-0.5 258,-0.5"/>
<text text-anchor="middle" x="280" y="-7.5" font-family="Helvetica,sans-Serif" font-size="10.00">vector</text>
</g>
<!-- Node18&#45;&gt;Node19 -->
<g id="edge48" class="edge"><title>Node18&#45;&gt;Node19</title>
<path fill="none" stroke="midnightblue" d="M280,-56.083C280,-49.0059 280,-38.8611 280,-29.9865"/>
<polygon fill="midnightblue" stroke="midnightblue" points="283.5,-29.751 280,-19.7511 276.5,-29.7511 283.5,-29.751"/>
</g>
<!-- Node20&#45;&gt;Node18 -->
<g id="edge60" class="edge"><title>Node20&#45;&gt;Node18</title>
<path fill="none" stroke="midnightblue" d="M339.57,-280.297C330.428,-247.563 297.979,-131.375 285.213,-85.6664"/>
<polygon fill="midnightblue" stroke="midnightblue" points="288.542,-84.5737 282.481,-75.8837 281.8,-86.4567 288.542,-84.5737"/>
</g>
<!-- Node21&#45;&gt;Node22 -->
<g id="edge64" class="edge"><title>Node21&#45;&gt;Node22</title>
<path fill="none" stroke="midnightblue" d="M496.339,-448.083C495.815,-441.006 495.064,-430.861 494.406,-421.986"/>
<polygon fill="midnightblue" stroke="midnightblue" points="497.877,-421.465 493.648,-411.751 490.897,-421.982 497.877,-421.465"/>
</g>
<!-- Node22&#45;&gt;Node7 -->
<g id="edge66" class="edge"><title>Node22&#45;&gt;Node7</title>
<path fill="none" stroke="midnightblue" d="M516.788,-392.499C532.721,-385.413 552.463,-373.605 562,-356 569.887,-341.44 565.628,-322.515 560.454,-308.844"/>
<polygon fill="midnightblue" stroke="midnightblue" points="563.644,-307.402 556.505,-299.574 557.204,-310.145 563.644,-307.402"/>
</g>
<!-- Node23 -->
<g id="node57" class="node"><title>Node23</title>
<a xlink:href="AbstractItemGenerator_8hh.html" target="_top" xlink:title="AbstractItemGenerator.hh">
<polygon fill="white" stroke="black" points="424.5,-336.5 424.5,-355.5 553.5,-355.5 553.5,-336.5 424.5,-336.5"/>
<text text-anchor="middle" x="489" y="-343.5" font-family="Helvetica,sans-Serif" font-size="10.00">AbstractItemGenerator.hh</text>
</a>
</g>
<!-- Node22&#45;&gt;Node23 -->
<g id="edge68" class="edge"><title>Node22&#45;&gt;Node23</title>
<path fill="none" stroke="midnightblue" d="M492.339,-392.083C491.815,-385.006 491.064,-374.861 490.406,-365.986"/>
<polygon fill="midnightblue" stroke="midnightblue" points="493.877,-365.465 489.648,-355.751 486.897,-365.982 493.877,-365.465"/>
</g>
<!-- Node23&#45;&gt;Node20 -->
<g id="edge70" class="edge"><title>Node23&#45;&gt;Node20</title>
<path fill="none" stroke="midnightblue" d="M465.707,-336.444C441.193,-327.438 402.404,-313.189 374.8,-303.049"/>
<polygon fill="midnightblue" stroke="midnightblue" points="375.777,-299.679 365.184,-299.516 373.363,-306.25 375.777,-299.679"/>
</g>
<!-- Node24&#45;&gt;Node12 -->
<g id="edge76" class="edge"><title>Node24&#45;&gt;Node12</title>
<path fill="none" stroke="midnightblue" d="M813.336,-168.368C802.604,-159.545 785.722,-145.289 772,-132 755.71,-116.225 738.251,-97.023 726.391,-83.5958"/>
<polygon fill="midnightblue" stroke="midnightblue" points="728.696,-80.9157 719.474,-75.7001 723.431,-85.5283 728.696,-80.9157"/>
</g>
<!-- Node25 -->
<g id="node64" class="node"><title>Node25</title>
<a xlink:href="Writer_8hh.html" target="_top" xlink:title="../Log/Writer.hh">
<polygon fill="white" stroke="black" points="781,-112.5 781,-131.5 865,-131.5 865,-112.5 781,-112.5"/>
<text text-anchor="middle" x="823" y="-119.5" font-family="Helvetica,sans-Serif" font-size="10.00">../Log/Writer.hh</text>
</a>
</g>
<!-- Node24&#45;&gt;Node25 -->
<g id="edge78" class="edge"><title>Node24&#45;&gt;Node25</title>
<path fill="none" stroke="midnightblue" d="M823.835,-168.083C823.704,-161.006 823.516,-150.861 823.352,-141.986"/>
<polygon fill="midnightblue" stroke="midnightblue" points="826.847,-141.685 823.162,-131.751 819.848,-141.814 826.847,-141.685"/>
</g>
<!-- Node25&#45;&gt;Node12 -->
<g id="edge80" class="edge"><title>Node25&#45;&gt;Node12</title>
<path fill="none" stroke="midnightblue" d="M805.166,-112.324C787.284,-103.625 759.525,-90.1202 738.954,-80.113"/>
<polygon fill="midnightblue" stroke="midnightblue" points="740.313,-76.8819 729.79,-75.6545 737.251,-83.1765 740.313,-76.8819"/>
</g>
<!-- Node26 -->
<g id="node67" class="node"><title>Node26</title>
<polygon fill="white" stroke="#bfbfbf" points="885,-56.5 885,-75.5 931,-75.5 931,-56.5 885,-56.5"/>
<text text-anchor="middle" x="908" y="-63.5" font-family="Helvetica,sans-Serif" font-size="10.00">stdio.h</text>
</g>
<!-- Node25&#45;&gt;Node26 -->
<g id="edge82" class="edge"><title>Node25&#45;&gt;Node26</title>
<path fill="none" stroke="midnightblue" d="M836.657,-112.324C849.916,-103.9 870.268,-90.9709 885.846,-81.0741"/>
<polygon fill="midnightblue" stroke="midnightblue" points="887.813,-83.9711 894.377,-75.6545 884.06,-78.0626 887.813,-83.9711"/>
</g>
<!-- Node27 -->
<g id="node69" class="node"><title>Node27</title>
<a xlink:href="Singleton_8hh.html" target="_top" xlink:title="../Utils/Singleton.hh">
<polygon fill="white" stroke="black" points="763.5,-56.5 763.5,-75.5 866.5,-75.5 866.5,-56.5 763.5,-56.5"/>
<text text-anchor="middle" x="815" y="-63.5" font-family="Helvetica,sans-Serif" font-size="10.00">../Utils/Singleton.hh</text>
</a>
</g>
<!-- Node25&#45;&gt;Node27 -->
<g id="edge84" class="edge"><title>Node25&#45;&gt;Node27</title>
<path fill="none" stroke="midnightblue" d="M821.679,-112.083C820.619,-104.927 819.094,-94.6353 817.769,-85.6911"/>
<polygon fill="midnightblue" stroke="midnightblue" points="821.224,-85.1302 816.296,-75.7511 814.3,-86.1561 821.224,-85.1302"/>
</g>
</g>
</svg>
