<?xml version="1.0" encoding="UTF-8" standalone="no"?>
<!DOCTYPE svg PUBLIC "-//W3C//DTD SVG 1.1//EN"
 "http://www.w3.org/Graphics/SVG/1.1/DTD/svg11.dtd">
<!-- Generated by graphviz version 2.28.0 (20120217.0315)
 -->
<!-- Title: G Pages: 1 -->
<svg width="1684pt" height="252pt"
 viewBox="0.00 0.00 1684.00 252.00" xmlns="http://www.w3.org/2000/svg" xmlns:xlink="http://www.w3.org/1999/xlink">
<g id="graph1" class="graph" transform="scale(1 1) rotate(0) translate(4 248)">
<title>G</title>
<polygon fill="white" stroke="white" points="-4,5 -4,-248 1681,-248 1681,5 -4,5"/>
<!-- Node1 -->
<g id="node1" class="node"><title>Node1</title>
<polygon fill="#bfbfbf" stroke="black" points="1097,-224.5 1097,-243.5 1207,-243.5 1207,-224.5 1097,-224.5"/>
<text text-anchor="middle" x="1152" y="-231.5" font-family="Helvetica,sans-Serif" font-size="10.00">src/Utils/Singleton.hh</text>
</g>
<!-- Node2 -->
<g id="node3" class="node"><title>Node2</title>
<a xlink:href="Handler_8hh.html" target="_top" xlink:title="src/Config/Handler.hh">
<polygon fill="white" stroke="black" points="300,-112.5 300,-131.5 412,-131.5 412,-112.5 300,-112.5"/>
<text text-anchor="middle" x="356" y="-119.5" font-family="Helvetica,sans-Serif" font-size="10.00">src/Config/Handler.hh</text>
</a>
</g>
<!-- Node1&#45;&gt;Node2 -->
<g id="edge2" class="edge"><title>Node1&#45;&gt;Node2</title>
<path fill="none" stroke="midnightblue" d="M1086.81,-223.991C934.105,-202.889 555.348,-150.548 412.095,-130.752"/>
<polygon fill="midnightblue" stroke="midnightblue" points="1086.59,-227.494 1096.97,-225.396 1087.55,-220.56 1086.59,-227.494"/>
</g>
<!-- Node7 -->
<g id="node16" class="node"><title>Node7</title>
<a xlink:href="Writer_8hh.html" target="_top" xlink:title="src/Log/Writer.hh">
<polygon fill="white" stroke="black" points="969,-168.5 969,-187.5 1061,-187.5 1061,-168.5 969,-168.5"/>
<text text-anchor="middle" x="1015" y="-175.5" font-family="Helvetica,sans-Serif" font-size="10.00">src/Log/Writer.hh</text>
</a>
</g>
<!-- Node1&#45;&gt;Node7 -->
<g id="edge18" class="edge"><title>Node1&#45;&gt;Node7</title>
<path fill="none" stroke="midnightblue" d="M1120.98,-220.772C1095.24,-210.629 1059.31,-196.467 1036.61,-187.516"/>
<polygon fill="midnightblue" stroke="midnightblue" points="1119.71,-224.033 1130.29,-224.444 1122.27,-217.52 1119.71,-224.033"/>
</g>
<!-- Node14 -->
<g id="node31" class="node"><title>Node14</title>
<a xlink:href="Request_8hh.html" target="_top" xlink:title="src/Glyr/Request.hh">
<polygon fill="white" stroke="black" points="1100,-168.5 1100,-187.5 1204,-187.5 1204,-168.5 1100,-168.5"/>
<text text-anchor="middle" x="1152" y="-175.5" font-family="Helvetica,sans-Serif" font-size="10.00">src/Glyr/Request.hh</text>
</a>
</g>
<!-- Node1&#45;&gt;Node14 -->
<g id="edge34" class="edge"><title>Node1&#45;&gt;Node14</title>
<path fill="none" stroke="midnightblue" d="M1152,-213.805C1152,-204.91 1152,-194.78 1152,-187.751"/>
<polygon fill="midnightblue" stroke="midnightblue" points="1148.5,-214.083 1152,-224.083 1155.5,-214.083 1148.5,-214.083"/>
</g>
<!-- Node15 -->
<g id="node33" class="node"><title>Node15</title>
<a xlink:href="Notify_8hh.html" target="_top" xlink:title="src/Notify/Notify.hh">
<polygon fill="white" stroke="black" points="1233,-168.5 1233,-187.5 1335,-187.5 1335,-168.5 1233,-168.5"/>
<text text-anchor="middle" x="1284" y="-175.5" font-family="Helvetica,sans-Serif" font-size="10.00">src/Notify/Notify.hh</text>
</a>
</g>
<!-- Node1&#45;&gt;Node15 -->
<g id="edge36" class="edge"><title>Node1&#45;&gt;Node15</title>
<path fill="none" stroke="midnightblue" d="M1182.22,-220.638C1206.99,-210.504 1241.4,-196.427 1263.18,-187.516"/>
<polygon fill="midnightblue" stroke="midnightblue" points="1180.85,-217.418 1172.92,-224.444 1183.5,-223.897 1180.85,-217.418"/>
</g>
<!-- Node19 -->
<g id="node41" class="node"><title>Node19</title>
<a xlink:href="CompileSymbols_8hh.html" target="_top" xlink:title="src/Utils/CompileSymbols.hh">
<polygon fill="white" stroke="black" points="1353,-168.5 1353,-187.5 1497,-187.5 1497,-168.5 1353,-168.5"/>
<text text-anchor="middle" x="1425" y="-175.5" font-family="Helvetica,sans-Serif" font-size="10.00">src/Utils/CompileSymbols.hh</text>
</a>
</g>
<!-- Node1&#45;&gt;Node19 -->
<g id="edge44" class="edge"><title>Node1&#45;&gt;Node19</title>
<path fill="none" stroke="midnightblue" d="M1205.22,-222.473C1256.81,-212.268 1334.1,-196.979 1381.94,-187.516"/>
<polygon fill="midnightblue" stroke="midnightblue" points="1204.39,-219.07 1195.26,-224.444 1205.75,-225.937 1204.39,-219.07"/>
</g>
<!-- Node3 -->
<g id="node5" class="node"><title>Node3</title>
<a xlink:href="SettingsPlayback_8hh.html" target="_top" xlink:title="src/Browser/Settings/SettingsPlayback.hh">
<polygon fill="white" stroke="black" points="-0.5,-56.5 -0.5,-75.5 200.5,-75.5 200.5,-56.5 -0.5,-56.5"/>
<text text-anchor="middle" x="100" y="-63.5" font-family="Helvetica,sans-Serif" font-size="10.00">src/Browser/Settings/SettingsPlayback.hh</text>
</a>
</g>
<!-- Node2&#45;&gt;Node3 -->
<g id="edge4" class="edge"><title>Node2&#45;&gt;Node3</title>
<path fill="none" stroke="midnightblue" d="M305.49,-110.346C257.111,-100.141 185.049,-84.94 140.374,-75.5164"/>
<polygon fill="midnightblue" stroke="midnightblue" points="304.929,-113.804 315.436,-112.444 306.374,-106.955 304.929,-113.804"/>
</g>
<!-- Node4 -->
<g id="node7" class="node"><title>Node4</title>
<a xlink:href="Settings_8hh.html" target="_top" xlink:title="src/Browser/Settings/Settings.hh">
<polygon fill="white" stroke="black" points="275.5,-0.5 275.5,-19.5 436.5,-19.5 436.5,-0.5 275.5,-0.5"/>
<text text-anchor="middle" x="356" y="-7.5" font-family="Helvetica,sans-Serif" font-size="10.00">src/Browser/Settings/Settings.hh</text>
</a>
</g>
<!-- Node2&#45;&gt;Node4 -->
<g id="edge16" class="edge"><title>Node2&#45;&gt;Node4</title>
<path fill="none" stroke="midnightblue" d="M294.726,-109.207C276.628,-102.563 258.792,-92.1887 248,-76 228.76,-47.1394 274.744,-29.0996 312.563,-19.5446"/>
<polygon fill="midnightblue" stroke="midnightblue" points="293.876,-112.613 304.47,-112.44 296.081,-105.969 293.876,-112.613"/>
</g>
<!-- Node5 -->
<g id="node9" class="node"><title>Node5</title>
<a xlink:href="SettingsNetwork_8hh.html" target="_top" xlink:title="src/Browser/Settings/SettingsNetwork.hh">
<polygon fill="white" stroke="black" points="257.5,-56.5 257.5,-75.5 454.5,-75.5 454.5,-56.5 257.5,-56.5"/>
<text text-anchor="middle" x="356" y="-63.5" font-family="Helvetica,sans-Serif" font-size="10.00">src/Browser/Settings/SettingsNetwork.hh</text>
</a>
</g>
<!-- Node2&#45;&gt;Node5 -->
<g id="edge8" class="edge"><title>Node2&#45;&gt;Node5</title>
<path fill="none" stroke="midnightblue" d="M356,-101.805C356,-92.9102 356,-82.7798 356,-75.7511"/>
<polygon fill="midnightblue" stroke="midnightblue" points="352.5,-102.083 356,-112.083 359.5,-102.083 352.5,-102.083"/>
</g>
<!-- Node6 -->
<g id="node12" class="node"><title>Node6</title>
<a xlink:href="SettingsGeneral_8hh.html" target="_top" xlink:title="src/Browser/Settings/SettingsGeneral.hh">
<polygon fill="white" stroke="black" points="473,-56.5 473,-75.5 667,-75.5 667,-56.5 473,-56.5"/>
<text text-anchor="middle" x="570" y="-63.5" font-family="Helvetica,sans-Serif" font-size="10.00">src/Browser/Settings/SettingsGeneral.hh</text>
</a>
</g>
<!-- Node2&#45;&gt;Node6 -->
<g id="edge12" class="edge"><title>Node2&#45;&gt;Node6</title>
<path fill="none" stroke="midnightblue" d="M399.755,-109.959C440.174,-99.7598 499.373,-84.8217 536.25,-75.5164"/>
<polygon fill="midnightblue" stroke="midnightblue" points="398.749,-106.603 389.909,-112.444 400.461,-113.39 398.749,-106.603"/>
</g>
<!-- Node3&#45;&gt;Node4 -->
<g id="edge6" class="edge"><title>Node3&#45;&gt;Node4</title>
<path fill="none" stroke="midnightblue" d="M150.51,-54.3456C198.889,-44.1405 270.951,-28.94 315.626,-19.5164"/>
<polygon fill="midnightblue" stroke="midnightblue" points="149.626,-50.9549 140.564,-56.4435 151.071,-57.8041 149.626,-50.9549"/>
</g>
<!-- Node5&#45;&gt;Node4 -->
<g id="edge10" class="edge"><title>Node5&#45;&gt;Node4</title>
<path fill="none" stroke="midnightblue" d="M356,-45.8045C356,-36.9102 356,-26.7798 356,-19.7511"/>
<polygon fill="midnightblue" stroke="midnightblue" points="352.5,-46.083 356,-56.083 359.5,-46.083 352.5,-46.083"/>
</g>
<!-- Node6&#45;&gt;Node4 -->
<g id="edge14" class="edge"><title>Node6&#45;&gt;Node4</title>
<path fill="none" stroke="midnightblue" d="M526.245,-53.959C485.826,-43.7598 426.627,-28.8217 389.75,-19.5164"/>
<polygon fill="midnightblue" stroke="midnightblue" points="525.539,-57.3904 536.091,-56.4435 527.251,-50.6032 525.539,-57.3904"/>
</g>
<!-- Node8 -->
<g id="node18" class="node"><title>Node8</title>
<a xlink:href="Utils_8hh.html" target="_top" xlink:title="src/Utils/Utils.hh">
<polygon fill="white" stroke="black" points="841,-112.5 841,-131.5 931,-131.5 931,-112.5 841,-112.5"/>
<text text-anchor="middle" x="886" y="-119.5" font-family="Helvetica,sans-Serif" font-size="10.00">src/Utils/Utils.hh</text>
</a>
</g>
<!-- Node7&#45;&gt;Node8 -->
<g id="edge20" class="edge"><title>Node7&#45;&gt;Node8</title>
<path fill="none" stroke="midnightblue" d="M985.146,-164.503C960.962,-154.38 927.538,-140.388 906.345,-131.516"/>
<polygon fill="midnightblue" stroke="midnightblue" points="983.984,-167.811 994.56,-168.444 986.687,-161.354 983.984,-167.811"/>
</g>
<!-- Node12 -->
<g id="node27" class="node"><title>Node12</title>
<a xlink:href="check__log_8hh.html" target="_top" xlink:title="src/Log/check_log.hh">
<polygon fill="white" stroke="black" points="949,-112.5 949,-131.5 1059,-131.5 1059,-112.5 949,-112.5"/>
<text text-anchor="middle" x="1004" y="-119.5" font-family="Helvetica,sans-Serif" font-size="10.00">src/Log/check_log.hh</text>
</a>
</g>
<!-- Node7&#45;&gt;Node12 -->
<g id="edge30" class="edge"><title>Node7&#45;&gt;Node12</title>
<path fill="none" stroke="midnightblue" d="M1011.15,-158.101C1009.32,-149.136 1007.23,-138.858 1005.78,-131.751"/>
<polygon fill="midnightblue" stroke="midnightblue" points="1007.76,-158.983 1013.18,-168.083 1014.62,-157.586 1007.76,-158.983"/>
</g>
<!-- Node13 -->
<g id="node29" class="node"><title>Node13</title>
<a xlink:href="check__mpd_8hh.html" target="_top" xlink:title="src/MPD/check_mpd.hh">
<polygon fill="white" stroke="black" points="1077,-112.5 1077,-131.5 1199,-131.5 1199,-112.5 1077,-112.5"/>
<text text-anchor="middle" x="1138" y="-119.5" font-family="Helvetica,sans-Serif" font-size="10.00">src/MPD/check_mpd.hh</text>
</a>
</g>
<!-- Node7&#45;&gt;Node13 -->
<g id="edge32" class="edge"><title>Node7&#45;&gt;Node13</title>
<path fill="none" stroke="midnightblue" d="M1043.77,-164.368C1066.81,-154.255 1098.48,-140.349 1118.6,-131.516"/>
<polygon fill="midnightblue" stroke="midnightblue" points="1042.24,-161.219 1034.49,-168.444 1045.05,-167.628 1042.24,-161.219"/>
</g>
<!-- Node9 -->
<g id="node20" class="node"><title>Node9</title>
<a xlink:href="SettingsOutputs_8hh.html" target="_top" xlink:title="src/Browser/Settings/SettingsOutputs.hh">
<polygon fill="white" stroke="black" points="684.5,-56.5 684.5,-75.5 879.5,-75.5 879.5,-56.5 684.5,-56.5"/>
<text text-anchor="middle" x="782" y="-63.5" font-family="Helvetica,sans-Serif" font-size="10.00">src/Browser/Settings/SettingsOutputs.hh</text>
</a>
</g>
<!-- Node8&#45;&gt;Node9 -->
<g id="edge22" class="edge"><title>Node8&#45;&gt;Node9</title>
<path fill="none" stroke="midnightblue" d="M860.172,-107.59C840.943,-97.6052 815.255,-84.2672 798.668,-75.6545"/>
<polygon fill="midnightblue" stroke="midnightblue" points="858.803,-110.822 869.291,-112.324 862.029,-104.61 858.803,-110.822"/>
</g>
<!-- Node10 -->
<g id="node23" class="node"><title>Node10</title>
<a xlink:href="StatBrowser_8hh.html" target="_top" xlink:title="src/Browser/Statistics/StatBrowser.hh">
<polygon fill="white" stroke="black" points="898,-56.5 898,-75.5 1082,-75.5 1082,-56.5 898,-56.5"/>
<text text-anchor="middle" x="990" y="-63.5" font-family="Helvetica,sans-Serif" font-size="10.00">src/Browser/Statistics/StatBrowser.hh</text>
</a>
</g>
<!-- Node8&#45;&gt;Node10 -->
<g id="edge26" class="edge"><title>Node8&#45;&gt;Node10</title>
<path fill="none" stroke="midnightblue" d="M911.828,-107.59C931.057,-97.6052 956.745,-84.2672 973.332,-75.6545"/>
<polygon fill="midnightblue" stroke="midnightblue" points="909.971,-104.61 902.709,-112.324 913.197,-110.822 909.971,-104.61"/>
</g>
<!-- Node11 -->
<g id="node25" class="node"><title>Node11</title>
<a xlink:href="check__utils_8hh.html" target="_top" xlink:title="src/Utils/check_utils.hh">
<polygon fill="white" stroke="black" points="1100.5,-56.5 1100.5,-75.5 1219.5,-75.5 1219.5,-56.5 1100.5,-56.5"/>
<text text-anchor="middle" x="1160" y="-63.5" font-family="Helvetica,sans-Serif" font-size="10.00">src/Utils/check_utils.hh</text>
</a>
</g>
<!-- Node8&#45;&gt;Node11 -->
<g id="edge28" class="edge"><title>Node8&#45;&gt;Node11</title>
<path fill="none" stroke="midnightblue" d="M939.413,-110.473C991.197,-100.268 1068.77,-84.9794 1116.79,-75.5164"/>
<polygon fill="midnightblue" stroke="midnightblue" points="938.551,-107.076 929.416,-112.444 939.904,-113.944 938.551,-107.076"/>
</g>
<!-- Node9&#45;&gt;Node4 -->
<g id="edge24" class="edge"><title>Node9&#45;&gt;Node4</title>
<path fill="none" stroke="midnightblue" d="M704.428,-55.1669C623.998,-44.9716 499.549,-29.1963 423.185,-19.5164"/>
<polygon fill="midnightblue" stroke="midnightblue" points="704.138,-58.6581 714.499,-56.4435 705.019,-51.7137 704.138,-58.6581"/>
</g>
<!-- Node16 -->
<g id="node35" class="node"><title>Node16</title>
<a xlink:href="MenuList_8hh.html" target="_top" xlink:title="src/GManager/MenuList.hh">
<polygon fill="white" stroke="black" points="1217,-112.5 1217,-131.5 1351,-131.5 1351,-112.5 1217,-112.5"/>
<text text-anchor="middle" x="1284" y="-119.5" font-family="Helvetica,sans-Serif" font-size="10.00">src/GManager/MenuList.hh</text>
</a>
</g>
<!-- Node15&#45;&gt;Node16 -->
<g id="edge38" class="edge"><title>Node15&#45;&gt;Node16</title>
<path fill="none" stroke="midnightblue" d="M1284,-157.805C1284,-148.91 1284,-138.78 1284,-131.751"/>
<polygon fill="midnightblue" stroke="midnightblue" points="1280.5,-158.083 1284,-168.083 1287.5,-158.083 1280.5,-158.083"/>
</g>
<!-- Node17 -->
<g id="node37" class="node"><title>Node17</title>
<a xlink:href="NotifyManager_8hh.html" target="_top" xlink:title="src/GManager/NotifyManager.hh">
<polygon fill="white" stroke="black" points="1369,-112.5 1369,-131.5 1527,-131.5 1527,-112.5 1369,-112.5"/>
<text text-anchor="middle" x="1448" y="-119.5" font-family="Helvetica,sans-Serif" font-size="10.00">src/GManager/NotifyManager.hh</text>
</a>
</g>
<!-- Node15&#45;&gt;Node17 -->
<g id="edge40" class="edge"><title>Node15&#45;&gt;Node17</title>
<path fill="none" stroke="midnightblue" d="M1319.52,-165.304C1350.42,-155.129 1394.47,-140.625 1422.14,-131.516"/>
<polygon fill="midnightblue" stroke="midnightblue" points="1318.39,-161.992 1309.99,-168.444 1320.58,-168.64 1318.39,-161.992"/>
</g>
<!-- Node18 -->
<g id="node39" class="node"><title>Node18</title>
<a xlink:href="check__notify_8hh.html" target="_top" xlink:title="src/Notify/check_notify.hh">
<polygon fill="white" stroke="black" points="1545.5,-112.5 1545.5,-131.5 1676.5,-131.5 1676.5,-112.5 1545.5,-112.5"/>
<text text-anchor="middle" x="1611" y="-119.5" font-family="Helvetica,sans-Serif" font-size="10.00">src/Notify/check_notify.hh</text>
</a>
</g>
<!-- Node15&#45;&gt;Node18 -->
<g id="edge42" class="edge"><title>Node15&#45;&gt;Node18</title>
<path fill="none" stroke="midnightblue" d="M1345.1,-166.911C1406.88,-156.707 1501.33,-141.11 1559.46,-131.512"/>
<polygon fill="midnightblue" stroke="midnightblue" points="1344.39,-163.48 1335.09,-168.562 1345.53,-170.386 1344.39,-163.48"/>
</g>
</g>
</svg>
