<?xml version="1.0" encoding="UTF-8" standalone="no"?>
<!DOCTYPE svg PUBLIC "-//W3C//DTD SVG 1.1//EN"
 "http://www.w3.org/Graphics/SVG/1.1/DTD/svg11.dtd">
<!-- Generated by graphviz version 2.28.0 (20111204.1018)
 -->
<!-- Title: G Pages: 1 -->
<svg width="1684pt" height="252pt"
 viewBox="0.00 0.00 1684.00 252.00" xmlns="http://www.w3.org/2000/svg" xmlns:xlink="http://www.w3.org/1999/xlink">
<g id="graph1" class="graph" transform="scale(1 1) rotate(0) translate(4 248)">
<title>G</title>
<polygon fill="white" stroke="white" points="-4,5 -4,-248 1681,-248 1681,5 -4,5"/>
<!-- Node1 -->
<g id="node1" class="node"><title>Node1</title>
<polygon fill="#bfbfbf" stroke="black" points="949,-224.5 949,-243.5 1059,-243.5 1059,-224.5 949,-224.5"/>
<text text-anchor="middle" x="1004" y="-231.5" font-family="Helvetica,sans-Serif" font-size="10.00">src/Utils/Singleton.hh</text>
</g>
<!-- Node2 -->
<g id="node3" class="node"><title>Node2</title>
<a xlink:href="Handler_8hh.html" target="_top" xlink:title="src/Config/Handler.hh">
<polygon fill="white" stroke="black" points="300,-112.5 300,-131.5 412,-131.5 412,-112.5 300,-112.5"/>
<text text-anchor="middle" x="356" y="-119.5" font-family="Helvetica,sans-Serif" font-size="10.00">src/Config/Handler.hh</text>
</a>
</g>
<!-- Node1&#45;&gt;Node2 -->
<g id="edge2" class="edge"><title>Node1&#45;&gt;Node2</title>
<path fill="none" stroke="midnightblue" d="M943.751,-222.773C816.821,-201.226 523.936,-151.508 406.276,-131.535"/>
<polygon fill="midnightblue" stroke="midnightblue" points="943.247,-226.237 953.692,-224.46 944.419,-219.336 943.247,-226.237"/>
</g>
<!-- Node7 -->
<g id="node16" class="node"><title>Node7</title>
<a xlink:href="Writer_8hh.html" target="_top" xlink:title="src/Log/Writer.hh">
<polygon fill="white" stroke="black" points="958,-168.5 958,-187.5 1050,-187.5 1050,-168.5 958,-168.5"/>
<text text-anchor="middle" x="1004" y="-175.5" font-family="Helvetica,sans-Serif" font-size="10.00">src/Log/Writer.hh</text>
</a>
</g>
<!-- Node1&#45;&gt;Node7 -->
<g id="edge18" class="edge"><title>Node1&#45;&gt;Node7</title>
<path fill="none" stroke="midnightblue" d="M1004,-213.805C1004,-204.91 1004,-194.78 1004,-187.751"/>
<polygon fill="midnightblue" stroke="midnightblue" points="1000.5,-214.083 1004,-224.083 1007.5,-214.083 1000.5,-214.083"/>
</g>
<!-- Node14 -->
<g id="node31" class="node"><title>Node14</title>
<a xlink:href="Notify_8hh.html" target="_top" xlink:title="src/Notify/Notify.hh">
<polygon fill="white" stroke="black" points="1315,-168.5 1315,-187.5 1417,-187.5 1417,-168.5 1315,-168.5"/>
<text text-anchor="middle" x="1366" y="-175.5" font-family="Helvetica,sans-Serif" font-size="10.00">src/Notify/Notify.hh</text>
</a>
</g>
<!-- Node1&#45;&gt;Node14 -->
<g id="edge34" class="edge"><title>Node1&#45;&gt;Node14</title>
<path fill="none" stroke="midnightblue" d="M1069.46,-223.235C1139.87,-212.732 1250.37,-196.249 1314.73,-186.648"/>
<polygon fill="midnightblue" stroke="midnightblue" points="1068.75,-219.803 1059.37,-224.74 1069.78,-226.726 1068.75,-219.803"/>
</g>
<!-- Node3 -->
<g id="node5" class="node"><title>Node3</title>
<a xlink:href="SettingsPlayback_8hh.html" target="_top" xlink:title="src/Browser/Settings/SettingsPlayback.hh">
<polygon fill="white" stroke="black" points="-0.5,-56.5 -0.5,-75.5 200.5,-75.5 200.5,-56.5 -0.5,-56.5"/>
<text text-anchor="middle" x="100" y="-63.5" font-family="Helvetica,sans-Serif" font-size="10.00">src/Browser/Settings/SettingsPlayback.hh</text>
</a>
</g>
<!-- Node2&#45;&gt;Node3 -->
<g id="edge4" class="edge"><title>Node2&#45;&gt;Node3</title>
<path fill="none" stroke="midnightblue" d="M305.49,-110.346C257.111,-100.141 185.049,-84.94 140.374,-75.5164"/>
<polygon fill="midnightblue" stroke="midnightblue" points="304.929,-113.804 315.436,-112.444 306.374,-106.955 304.929,-113.804"/>
</g>
<!-- Node4 -->
<g id="node7" class="node"><title>Node4</title>
<a xlink:href="Settings_8hh.html" target="_top" xlink:title="src/Browser/Settings/Settings.hh">
<polygon fill="white" stroke="black" points="275.5,-0.5 275.5,-19.5 436.5,-19.5 436.5,-0.5 275.5,-0.5"/>
<text text-anchor="middle" x="356" y="-7.5" font-family="Helvetica,sans-Serif" font-size="10.00">src/Browser/Settings/Settings.hh</text>
</a>
</g>
<!-- Node2&#45;&gt;Node4 -->
<g id="edge16" class="edge"><title>Node2&#45;&gt;Node4</title>
<path fill="none" stroke="midnightblue" d="M294.726,-109.207C276.628,-102.563 258.792,-92.1887 248,-76 228.76,-47.1394 274.744,-29.0996 312.563,-19.5446"/>
<polygon fill="midnightblue" stroke="midnightblue" points="293.876,-112.613 304.47,-112.44 296.081,-105.969 293.876,-112.613"/>
</g>
<!-- Node5 -->
<g id="node9" class="node"><title>Node5</title>
<a xlink:href="SettingsNetwork_8hh.html" target="_top" xlink:title="src/Browser/Settings/SettingsNetwork.hh">
<polygon fill="white" stroke="black" points="257.5,-56.5 257.5,-75.5 454.5,-75.5 454.5,-56.5 257.5,-56.5"/>
<text text-anchor="middle" x="356" y="-63.5" font-family="Helvetica,sans-Serif" font-size="10.00">src/Browser/Settings/SettingsNetwork.hh</text>
</a>
</g>
<!-- Node2&#45;&gt;Node5 -->
<g id="edge8" class="edge"><title>Node2&#45;&gt;Node5</title>
<path fill="none" stroke="midnightblue" d="M356,-101.805C356,-92.9102 356,-82.7798 356,-75.7511"/>
<polygon fill="midnightblue" stroke="midnightblue" points="352.5,-102.083 356,-112.083 359.5,-102.083 352.5,-102.083"/>
</g>
<!-- Node6 -->
<g id="node12" class="node"><title>Node6</title>
<a xlink:href="SettingsGeneral_8hh.html" target="_top" xlink:title="src/Browser/Settings/SettingsGeneral.hh">
<polygon fill="white" stroke="black" points="473,-56.5 473,-75.5 667,-75.5 667,-56.5 473,-56.5"/>
<text text-anchor="middle" x="570" y="-63.5" font-family="Helvetica,sans-Serif" font-size="10.00">src/Browser/Settings/SettingsGeneral.hh</text>
</a>
</g>
<!-- Node2&#45;&gt;Node6 -->
<g id="edge12" class="edge"><title>Node2&#45;&gt;Node6</title>
<path fill="none" stroke="midnightblue" d="M399.755,-109.959C440.174,-99.7598 499.373,-84.8217 536.25,-75.5164"/>
<polygon fill="midnightblue" stroke="midnightblue" points="398.749,-106.603 389.909,-112.444 400.461,-113.39 398.749,-106.603"/>
</g>
<!-- Node3&#45;&gt;Node4 -->
<g id="edge6" class="edge"><title>Node3&#45;&gt;Node4</title>
<path fill="none" stroke="midnightblue" d="M150.51,-54.3456C198.889,-44.1405 270.951,-28.94 315.626,-19.5164"/>
<polygon fill="midnightblue" stroke="midnightblue" points="149.626,-50.9549 140.564,-56.4435 151.071,-57.8041 149.626,-50.9549"/>
</g>
<!-- Node5&#45;&gt;Node4 -->
<g id="edge10" class="edge"><title>Node5&#45;&gt;Node4</title>
<path fill="none" stroke="midnightblue" d="M356,-45.8045C356,-36.9102 356,-26.7798 356,-19.7511"/>
<polygon fill="midnightblue" stroke="midnightblue" points="352.5,-46.083 356,-56.083 359.5,-46.083 352.5,-46.083"/>
</g>
<!-- Node6&#45;&gt;Node4 -->
<g id="edge14" class="edge"><title>Node6&#45;&gt;Node4</title>
<path fill="none" stroke="midnightblue" d="M526.245,-53.959C485.826,-43.7598 426.627,-28.8217 389.75,-19.5164"/>
<polygon fill="midnightblue" stroke="midnightblue" points="525.539,-57.3904 536.091,-56.4435 527.251,-50.6032 525.539,-57.3904"/>
</g>
<!-- Node8 -->
<g id="node18" class="node"><title>Node8</title>
<a xlink:href="Utils_8hh.html" target="_top" xlink:title="src/Utils/Utils.hh">
<polygon fill="white" stroke="black" points="841,-112.5 841,-131.5 931,-131.5 931,-112.5 841,-112.5"/>
<text text-anchor="middle" x="886" y="-119.5" font-family="Helvetica,sans-Serif" font-size="10.00">src/Utils/Utils.hh</text>
</a>
</g>
<!-- Node7&#45;&gt;Node8 -->
<g id="edge20" class="edge"><title>Node7&#45;&gt;Node8</title>
<path fill="none" stroke="midnightblue" d="M976.1,-164.232C954.027,-154.131 923.824,-140.309 904.61,-131.516"/>
<polygon fill="midnightblue" stroke="midnightblue" points="974.753,-167.465 985.303,-168.444 977.666,-161.1 974.753,-167.465"/>
</g>
<!-- Node12 -->
<g id="node27" class="node"><title>Node12</title>
<a xlink:href="check__log_8hh.html" target="_top" xlink:title="src/Log/check_log.hh">
<polygon fill="white" stroke="black" points="949,-112.5 949,-131.5 1059,-131.5 1059,-112.5 949,-112.5"/>
<text text-anchor="middle" x="1004" y="-119.5" font-family="Helvetica,sans-Serif" font-size="10.00">src/Log/check_log.hh</text>
</a>
</g>
<!-- Node7&#45;&gt;Node12 -->
<g id="edge30" class="edge"><title>Node7&#45;&gt;Node12</title>
<path fill="none" stroke="midnightblue" d="M1004,-157.805C1004,-148.91 1004,-138.78 1004,-131.751"/>
<polygon fill="midnightblue" stroke="midnightblue" points="1000.5,-158.083 1004,-168.083 1007.5,-158.083 1000.5,-158.083"/>
</g>
<!-- Node13 -->
<g id="node29" class="node"><title>Node13</title>
<a xlink:href="check__mpd_8hh.html" target="_top" xlink:title="src/MPD/check_mpd.hh">
<polygon fill="white" stroke="black" points="1077,-112.5 1077,-131.5 1199,-131.5 1199,-112.5 1077,-112.5"/>
<text text-anchor="middle" x="1138" y="-119.5" font-family="Helvetica,sans-Serif" font-size="10.00">src/MPD/check_mpd.hh</text>
</a>
</g>
<!-- Node7&#45;&gt;Node13 -->
<g id="edge32" class="edge"><title>Node7&#45;&gt;Node13</title>
<path fill="none" stroke="midnightblue" d="M1034.68,-164.638C1059.82,-154.504 1094.75,-140.427 1116.87,-131.516"/>
<polygon fill="midnightblue" stroke="midnightblue" points="1033.2,-161.459 1025.23,-168.444 1035.82,-167.952 1033.2,-161.459"/>
</g>
<!-- Node9 -->
<g id="node20" class="node"><title>Node9</title>
<a xlink:href="SettingsOutputs_8hh.html" target="_top" xlink:title="src/Browser/Settings/SettingsOutputs.hh">
<polygon fill="white" stroke="black" points="684.5,-56.5 684.5,-75.5 879.5,-75.5 879.5,-56.5 684.5,-56.5"/>
<text text-anchor="middle" x="782" y="-63.5" font-family="Helvetica,sans-Serif" font-size="10.00">src/Browser/Settings/SettingsOutputs.hh</text>
</a>
</g>
<!-- Node8&#45;&gt;Node9 -->
<g id="edge22" class="edge"><title>Node8&#45;&gt;Node9</title>
<path fill="none" stroke="midnightblue" d="M860.172,-107.59C840.943,-97.6052 815.255,-84.2672 798.668,-75.6545"/>
<polygon fill="midnightblue" stroke="midnightblue" points="858.803,-110.822 869.291,-112.324 862.029,-104.61 858.803,-110.822"/>
</g>
<!-- Node10 -->
<g id="node23" class="node"><title>Node10</title>
<a xlink:href="StatBrowser_8hh.html" target="_top" xlink:title="src/Browser/Statistics/StatBrowser.hh">
<polygon fill="white" stroke="black" points="898,-56.5 898,-75.5 1082,-75.5 1082,-56.5 898,-56.5"/>
<text text-anchor="middle" x="990" y="-63.5" font-family="Helvetica,sans-Serif" font-size="10.00">src/Browser/Statistics/StatBrowser.hh</text>
</a>
</g>
<!-- Node8&#45;&gt;Node10 -->
<g id="edge26" class="edge"><title>Node8&#45;&gt;Node10</title>
<path fill="none" stroke="midnightblue" d="M911.828,-107.59C931.057,-97.6052 956.745,-84.2672 973.332,-75.6545"/>
<polygon fill="midnightblue" stroke="midnightblue" points="909.971,-104.61 902.709,-112.324 913.197,-110.822 909.971,-104.61"/>
</g>
<!-- Node11 -->
<g id="node25" class="node"><title>Node11</title>
<a xlink:href="check__utils_8hh.html" target="_top" xlink:title="src/Utils/check_utils.hh">
<polygon fill="white" stroke="black" points="1100.5,-56.5 1100.5,-75.5 1219.5,-75.5 1219.5,-56.5 1100.5,-56.5"/>
<text text-anchor="middle" x="1160" y="-63.5" font-family="Helvetica,sans-Serif" font-size="10.00">src/Utils/check_utils.hh</text>
</a>
</g>
<!-- Node8&#45;&gt;Node11 -->
<g id="edge28" class="edge"><title>Node8&#45;&gt;Node11</title>
<path fill="none" stroke="midnightblue" d="M939.413,-110.473C991.197,-100.268 1068.77,-84.9794 1116.79,-75.5164"/>
<polygon fill="midnightblue" stroke="midnightblue" points="938.551,-107.076 929.416,-112.444 939.904,-113.944 938.551,-107.076"/>
</g>
<!-- Node9&#45;&gt;Node4 -->
<g id="edge24" class="edge"><title>Node9&#45;&gt;Node4</title>
<path fill="none" stroke="midnightblue" d="M704.428,-55.1669C623.998,-44.9716 499.549,-29.1963 423.185,-19.5164"/>
<polygon fill="midnightblue" stroke="midnightblue" points="704.138,-58.6581 714.499,-56.4435 705.019,-51.7137 704.138,-58.6581"/>
</g>
<!-- Node15 -->
<g id="node33" class="node"><title>Node15</title>
<a xlink:href="MenuList_8hh.html" target="_top" xlink:title="src/GManager/MenuList.hh">
<polygon fill="white" stroke="black" points="1217,-112.5 1217,-131.5 1351,-131.5 1351,-112.5 1217,-112.5"/>
<text text-anchor="middle" x="1284" y="-119.5" font-family="Helvetica,sans-Serif" font-size="10.00">src/GManager/MenuList.hh</text>
</a>
</g>
<!-- Node14&#45;&gt;Node15 -->
<g id="edge36" class="edge"><title>Node14&#45;&gt;Node15</title>
<path fill="none" stroke="midnightblue" d="M1344.17,-162.622C1329.19,-152.757 1309.8,-139.992 1297.14,-131.655"/>
<polygon fill="midnightblue" stroke="midnightblue" points="1342.55,-165.747 1352.83,-168.324 1346.4,-159.901 1342.55,-165.747"/>
</g>
<!-- Node16 -->
<g id="node35" class="node"><title>Node16</title>
<a xlink:href="NotifyManager_8hh.html" target="_top" xlink:title="src/GManager/NotifyManager.hh">
<polygon fill="white" stroke="black" points="1369,-112.5 1369,-131.5 1527,-131.5 1527,-112.5 1369,-112.5"/>
<text text-anchor="middle" x="1448" y="-119.5" font-family="Helvetica,sans-Serif" font-size="10.00">src/GManager/NotifyManager.hh</text>
</a>
</g>
<!-- Node14&#45;&gt;Node16 -->
<g id="edge38" class="edge"><title>Node14&#45;&gt;Node16</title>
<path fill="none" stroke="midnightblue" d="M1387.83,-162.622C1402.81,-152.757 1422.2,-139.992 1434.86,-131.655"/>
<polygon fill="midnightblue" stroke="midnightblue" points="1385.6,-159.901 1379.17,-168.324 1389.45,-165.747 1385.6,-159.901"/>
</g>
<!-- Node17 -->
<g id="node37" class="node"><title>Node17</title>
<a xlink:href="check__notify_8hh.html" target="_top" xlink:title="src/Notify/check_notify.hh">
<polygon fill="white" stroke="black" points="1545.5,-112.5 1545.5,-131.5 1676.5,-131.5 1676.5,-112.5 1545.5,-112.5"/>
<text text-anchor="middle" x="1611" y="-119.5" font-family="Helvetica,sans-Serif" font-size="10.00">src/Notify/check_notify.hh</text>
</a>
</g>
<!-- Node14&#45;&gt;Node17 -->
<g id="edge40" class="edge"><title>Node14&#45;&gt;Node17</title>
<path fill="none" stroke="midnightblue" d="M1414.63,-166.281C1460.93,-156.077 1529.69,-140.92 1572.36,-131.516"/>
<polygon fill="midnightblue" stroke="midnightblue" points="1413.83,-162.873 1404.82,-168.444 1415.34,-169.709 1413.83,-162.873"/>
</g>
</g>
</svg>
