<?xml version="1.0" encoding="UTF-8" standalone="no"?>
<!DOCTYPE svg PUBLIC "-//W3C//DTD SVG 1.1//EN"
 "http://www.w3.org/Graphics/SVG/1.1/DTD/svg11.dtd">
<!-- Generated by graphviz version 2.28.0 (20111204.1018)
 -->
<!-- Title: G Pages: 1 -->
<svg width="1544pt" height="252pt"
 viewBox="0.00 0.00 1544.00 252.00" xmlns="http://www.w3.org/2000/svg" xmlns:xlink="http://www.w3.org/1999/xlink">
<g id="graph1" class="graph" transform="scale(1 1) rotate(0) translate(4 248)">
<title>G</title>
<polygon fill="white" stroke="white" points="-4,5 -4,-248 1541,-248 1541,5 -4,5"/>
<!-- Node1 -->
<g id="node1" class="node"><title>Node1</title>
<polygon fill="#bfbfbf" stroke="black" points="890,-224.5 890,-243.5 1000,-243.5 1000,-224.5 890,-224.5"/>
<text text-anchor="middle" x="945" y="-231.5" font-family="Helvetica,sans-Serif" font-size="10.00">src/Utils/Singleton.hh</text>
</g>
<!-- Node2 -->
<g id="node3" class="node"><title>Node2</title>
<a xlink:href="Handler_8hh.html" target="_top" xlink:title="src/Config/Handler.hh">
<polygon fill="white" stroke="black" points="300,-112.5 300,-131.5 412,-131.5 412,-112.5 300,-112.5"/>
<text text-anchor="middle" x="356" y="-119.5" font-family="Helvetica,sans-Serif" font-size="10.00">src/Config/Handler.hh</text>
</a>
</g>
<!-- Node1&#45;&gt;Node2 -->
<g id="edge2" class="edge"><title>Node1&#45;&gt;Node2</title>
<path fill="none" stroke="midnightblue" d="M889.191,-222.577C773.263,-200.927 508.323,-151.448 401.699,-131.535"/>
<polygon fill="midnightblue" stroke="midnightblue" points="888.8,-226.065 899.272,-224.46 890.085,-219.184 888.8,-226.065"/>
</g>
<!-- Node7 -->
<g id="node16" class="node"><title>Node7</title>
<a xlink:href="Writer_8hh.html" target="_top" xlink:title="src/Log/Writer.hh">
<polygon fill="white" stroke="black" points="899,-168.5 899,-187.5 991,-187.5 991,-168.5 899,-168.5"/>
<text text-anchor="middle" x="945" y="-175.5" font-family="Helvetica,sans-Serif" font-size="10.00">src/Log/Writer.hh</text>
</a>
</g>
<!-- Node1&#45;&gt;Node7 -->
<g id="edge18" class="edge"><title>Node1&#45;&gt;Node7</title>
<path fill="none" stroke="midnightblue" d="M945,-213.805C945,-204.91 945,-194.78 945,-187.751"/>
<polygon fill="midnightblue" stroke="midnightblue" points="941.5,-214.083 945,-224.083 948.5,-214.083 941.5,-214.083"/>
</g>
<!-- Node13 -->
<g id="node29" class="node"><title>Node13</title>
<a xlink:href="Notify_8hh.html" target="_top" xlink:title="src/Notify/Notify.hh">
<polygon fill="white" stroke="black" points="1175,-168.5 1175,-187.5 1277,-187.5 1277,-168.5 1175,-168.5"/>
<text text-anchor="middle" x="1226" y="-175.5" font-family="Helvetica,sans-Serif" font-size="10.00">src/Notify/Notify.hh</text>
</a>
</g>
<!-- Node1&#45;&gt;Node13 -->
<g id="edge32" class="edge"><title>Node1&#45;&gt;Node13</title>
<path fill="none" stroke="midnightblue" d="M999.446,-222.537C1052.55,-212.332 1132.34,-196.999 1181.68,-187.516"/>
<polygon fill="midnightblue" stroke="midnightblue" points="998.685,-219.119 989.525,-224.444 1000.01,-225.993 998.685,-219.119"/>
</g>
<!-- Node3 -->
<g id="node5" class="node"><title>Node3</title>
<a xlink:href="SettingsPlayback_8hh.html" target="_top" xlink:title="src/Browser/Settings/SettingsPlayback.hh">
<polygon fill="white" stroke="black" points="-0.5,-56.5 -0.5,-75.5 200.5,-75.5 200.5,-56.5 -0.5,-56.5"/>
<text text-anchor="middle" x="100" y="-63.5" font-family="Helvetica,sans-Serif" font-size="10.00">src/Browser/Settings/SettingsPlayback.hh</text>
</a>
</g>
<!-- Node2&#45;&gt;Node3 -->
<g id="edge4" class="edge"><title>Node2&#45;&gt;Node3</title>
<path fill="none" stroke="midnightblue" d="M305.49,-110.346C257.111,-100.141 185.049,-84.94 140.374,-75.5164"/>
<polygon fill="midnightblue" stroke="midnightblue" points="304.929,-113.804 315.436,-112.444 306.374,-106.955 304.929,-113.804"/>
</g>
<!-- Node4 -->
<g id="node7" class="node"><title>Node4</title>
<a xlink:href="Settings_8hh.html" target="_top" xlink:title="src/Browser/Settings/Settings.hh">
<polygon fill="white" stroke="black" points="275.5,-0.5 275.5,-19.5 436.5,-19.5 436.5,-0.5 275.5,-0.5"/>
<text text-anchor="middle" x="356" y="-7.5" font-family="Helvetica,sans-Serif" font-size="10.00">src/Browser/Settings/Settings.hh</text>
</a>
</g>
<!-- Node2&#45;&gt;Node4 -->
<g id="edge16" class="edge"><title>Node2&#45;&gt;Node4</title>
<path fill="none" stroke="midnightblue" d="M294.726,-109.207C276.628,-102.563 258.792,-92.1887 248,-76 228.76,-47.1394 274.744,-29.0996 312.563,-19.5446"/>
<polygon fill="midnightblue" stroke="midnightblue" points="293.876,-112.613 304.47,-112.44 296.081,-105.969 293.876,-112.613"/>
</g>
<!-- Node5 -->
<g id="node9" class="node"><title>Node5</title>
<a xlink:href="SettingsNetwork_8hh.html" target="_top" xlink:title="src/Browser/Settings/SettingsNetwork.hh">
<polygon fill="white" stroke="black" points="257.5,-56.5 257.5,-75.5 454.5,-75.5 454.5,-56.5 257.5,-56.5"/>
<text text-anchor="middle" x="356" y="-63.5" font-family="Helvetica,sans-Serif" font-size="10.00">src/Browser/Settings/SettingsNetwork.hh</text>
</a>
</g>
<!-- Node2&#45;&gt;Node5 -->
<g id="edge8" class="edge"><title>Node2&#45;&gt;Node5</title>
<path fill="none" stroke="midnightblue" d="M356,-101.805C356,-92.9102 356,-82.7798 356,-75.7511"/>
<polygon fill="midnightblue" stroke="midnightblue" points="352.5,-102.083 356,-112.083 359.5,-102.083 352.5,-102.083"/>
</g>
<!-- Node6 -->
<g id="node12" class="node"><title>Node6</title>
<a xlink:href="SettingsGeneral_8hh.html" target="_top" xlink:title="src/Browser/Settings/SettingsGeneral.hh">
<polygon fill="white" stroke="black" points="473,-56.5 473,-75.5 667,-75.5 667,-56.5 473,-56.5"/>
<text text-anchor="middle" x="570" y="-63.5" font-family="Helvetica,sans-Serif" font-size="10.00">src/Browser/Settings/SettingsGeneral.hh</text>
</a>
</g>
<!-- Node2&#45;&gt;Node6 -->
<g id="edge12" class="edge"><title>Node2&#45;&gt;Node6</title>
<path fill="none" stroke="midnightblue" d="M399.755,-109.959C440.174,-99.7598 499.373,-84.8217 536.25,-75.5164"/>
<polygon fill="midnightblue" stroke="midnightblue" points="398.749,-106.603 389.909,-112.444 400.461,-113.39 398.749,-106.603"/>
</g>
<!-- Node3&#45;&gt;Node4 -->
<g id="edge6" class="edge"><title>Node3&#45;&gt;Node4</title>
<path fill="none" stroke="midnightblue" d="M150.51,-54.3456C198.889,-44.1405 270.951,-28.94 315.626,-19.5164"/>
<polygon fill="midnightblue" stroke="midnightblue" points="149.626,-50.9549 140.564,-56.4435 151.071,-57.8041 149.626,-50.9549"/>
</g>
<!-- Node5&#45;&gt;Node4 -->
<g id="edge10" class="edge"><title>Node5&#45;&gt;Node4</title>
<path fill="none" stroke="midnightblue" d="M356,-45.8045C356,-36.9102 356,-26.7798 356,-19.7511"/>
<polygon fill="midnightblue" stroke="midnightblue" points="352.5,-46.083 356,-56.083 359.5,-46.083 352.5,-46.083"/>
</g>
<!-- Node6&#45;&gt;Node4 -->
<g id="edge14" class="edge"><title>Node6&#45;&gt;Node4</title>
<path fill="none" stroke="midnightblue" d="M526.245,-53.959C485.826,-43.7598 426.627,-28.8217 389.75,-19.5164"/>
<polygon fill="midnightblue" stroke="midnightblue" points="525.539,-57.3904 536.091,-56.4435 527.251,-50.6032 525.539,-57.3904"/>
</g>
<!-- Node8 -->
<g id="node18" class="node"><title>Node8</title>
<a xlink:href="Utils_8hh.html" target="_top" xlink:title="src/Utils/Utils.hh">
<polygon fill="white" stroke="black" points="841,-112.5 841,-131.5 931,-131.5 931,-112.5 841,-112.5"/>
<text text-anchor="middle" x="886" y="-119.5" font-family="Helvetica,sans-Serif" font-size="10.00">src/Utils/Utils.hh</text>
</a>
</g>
<!-- Node7&#45;&gt;Node8 -->
<g id="edge20" class="edge"><title>Node7&#45;&gt;Node8</title>
<path fill="none" stroke="midnightblue" d="M928.105,-161.537C917.585,-151.909 904.431,-139.869 895.652,-131.834"/>
<polygon fill="midnightblue" stroke="midnightblue" points="925.781,-164.154 935.521,-168.324 930.507,-158.99 925.781,-164.154"/>
</g>
<!-- Node12 -->
<g id="node27" class="node"><title>Node12</title>
<a xlink:href="check__log_8hh.html" target="_top" xlink:title="src/Log/check_log.hh">
<polygon fill="white" stroke="black" points="949,-112.5 949,-131.5 1059,-131.5 1059,-112.5 949,-112.5"/>
<text text-anchor="middle" x="1004" y="-119.5" font-family="Helvetica,sans-Serif" font-size="10.00">src/Log/check_log.hh</text>
</a>
</g>
<!-- Node7&#45;&gt;Node12 -->
<g id="edge30" class="edge"><title>Node7&#45;&gt;Node12</title>
<path fill="none" stroke="midnightblue" d="M961.895,-161.537C972.415,-151.909 985.569,-139.869 994.348,-131.834"/>
<polygon fill="midnightblue" stroke="midnightblue" points="959.493,-158.99 954.479,-168.324 964.219,-164.154 959.493,-158.99"/>
</g>
<!-- Node9 -->
<g id="node20" class="node"><title>Node9</title>
<a xlink:href="SettingsOutputs_8hh.html" target="_top" xlink:title="src/Browser/Settings/SettingsOutputs.hh">
<polygon fill="white" stroke="black" points="684.5,-56.5 684.5,-75.5 879.5,-75.5 879.5,-56.5 684.5,-56.5"/>
<text text-anchor="middle" x="782" y="-63.5" font-family="Helvetica,sans-Serif" font-size="10.00">src/Browser/Settings/SettingsOutputs.hh</text>
</a>
</g>
<!-- Node8&#45;&gt;Node9 -->
<g id="edge22" class="edge"><title>Node8&#45;&gt;Node9</title>
<path fill="none" stroke="midnightblue" d="M860.172,-107.59C840.943,-97.6052 815.255,-84.2672 798.668,-75.6545"/>
<polygon fill="midnightblue" stroke="midnightblue" points="858.803,-110.822 869.291,-112.324 862.029,-104.61 858.803,-110.822"/>
</g>
<!-- Node10 -->
<g id="node23" class="node"><title>Node10</title>
<a xlink:href="StatBrowser_8hh.html" target="_top" xlink:title="src/Browser/Statistics/StatBrowser.hh">
<polygon fill="white" stroke="black" points="898,-56.5 898,-75.5 1082,-75.5 1082,-56.5 898,-56.5"/>
<text text-anchor="middle" x="990" y="-63.5" font-family="Helvetica,sans-Serif" font-size="10.00">src/Browser/Statistics/StatBrowser.hh</text>
</a>
</g>
<!-- Node8&#45;&gt;Node10 -->
<g id="edge26" class="edge"><title>Node8&#45;&gt;Node10</title>
<path fill="none" stroke="midnightblue" d="M911.828,-107.59C931.057,-97.6052 956.745,-84.2672 973.332,-75.6545"/>
<polygon fill="midnightblue" stroke="midnightblue" points="909.971,-104.61 902.709,-112.324 913.197,-110.822 909.971,-104.61"/>
</g>
<!-- Node11 -->
<g id="node25" class="node"><title>Node11</title>
<a xlink:href="check__utils_8hh.html" target="_top" xlink:title="src/Utils/check_utils.hh">
<polygon fill="white" stroke="black" points="1100.5,-56.5 1100.5,-75.5 1219.5,-75.5 1219.5,-56.5 1100.5,-56.5"/>
<text text-anchor="middle" x="1160" y="-63.5" font-family="Helvetica,sans-Serif" font-size="10.00">src/Utils/check_utils.hh</text>
</a>
</g>
<!-- Node8&#45;&gt;Node11 -->
<g id="edge28" class="edge"><title>Node8&#45;&gt;Node11</title>
<path fill="none" stroke="midnightblue" d="M939.413,-110.473C991.197,-100.268 1068.77,-84.9794 1116.79,-75.5164"/>
<polygon fill="midnightblue" stroke="midnightblue" points="938.551,-107.076 929.416,-112.444 939.904,-113.944 938.551,-107.076"/>
</g>
<!-- Node9&#45;&gt;Node4 -->
<g id="edge24" class="edge"><title>Node9&#45;&gt;Node4</title>
<path fill="none" stroke="midnightblue" d="M704.428,-55.1669C623.998,-44.9716 499.549,-29.1963 423.185,-19.5164"/>
<polygon fill="midnightblue" stroke="midnightblue" points="704.138,-58.6581 714.499,-56.4435 705.019,-51.7137 704.138,-58.6581"/>
</g>
<!-- Node14 -->
<g id="node31" class="node"><title>Node14</title>
<a xlink:href="MenuList_8hh.html" target="_top" xlink:title="src/GManager/MenuList.hh">
<polygon fill="white" stroke="black" points="1077,-112.5 1077,-131.5 1211,-131.5 1211,-112.5 1077,-112.5"/>
<text text-anchor="middle" x="1144" y="-119.5" font-family="Helvetica,sans-Serif" font-size="10.00">src/GManager/MenuList.hh</text>
</a>
</g>
<!-- Node13&#45;&gt;Node14 -->
<g id="edge34" class="edge"><title>Node13&#45;&gt;Node14</title>
<path fill="none" stroke="midnightblue" d="M1204.17,-162.622C1189.19,-152.757 1169.8,-139.992 1157.14,-131.655"/>
<polygon fill="midnightblue" stroke="midnightblue" points="1202.55,-165.747 1212.83,-168.324 1206.4,-159.901 1202.55,-165.747"/>
</g>
<!-- Node15 -->
<g id="node33" class="node"><title>Node15</title>
<a xlink:href="NotifyManager_8hh.html" target="_top" xlink:title="src/GManager/NotifyManager.hh">
<polygon fill="white" stroke="black" points="1229,-112.5 1229,-131.5 1387,-131.5 1387,-112.5 1229,-112.5"/>
<text text-anchor="middle" x="1308" y="-119.5" font-family="Helvetica,sans-Serif" font-size="10.00">src/GManager/NotifyManager.hh</text>
</a>
</g>
<!-- Node13&#45;&gt;Node15 -->
<g id="edge36" class="edge"><title>Node13&#45;&gt;Node15</title>
<path fill="none" stroke="midnightblue" d="M1247.83,-162.622C1262.81,-152.757 1282.2,-139.992 1294.86,-131.655"/>
<polygon fill="midnightblue" stroke="midnightblue" points="1245.6,-159.901 1239.17,-168.324 1249.45,-165.747 1245.6,-159.901"/>
</g>
<!-- Node16 -->
<g id="node35" class="node"><title>Node16</title>
<a xlink:href="check__notify_8hh.html" target="_top" xlink:title="src/Notify/check_notify.hh">
<polygon fill="white" stroke="black" points="1405.5,-112.5 1405.5,-131.5 1536.5,-131.5 1536.5,-112.5 1405.5,-112.5"/>
<text text-anchor="middle" x="1471" y="-119.5" font-family="Helvetica,sans-Serif" font-size="10.00">src/Notify/check_notify.hh</text>
</a>
</g>
<!-- Node13&#45;&gt;Node16 -->
<g id="edge38" class="edge"><title>Node13&#45;&gt;Node16</title>
<path fill="none" stroke="midnightblue" d="M1274.63,-166.281C1320.93,-156.077 1389.69,-140.92 1432.36,-131.516"/>
<polygon fill="midnightblue" stroke="midnightblue" points="1273.83,-162.873 1264.82,-168.444 1275.34,-169.709 1273.83,-162.873"/>
</g>
</g>
</svg>
