<?xml version="1.0" encoding="UTF-8" standalone="no"?>
<!DOCTYPE svg PUBLIC "-//W3C//DTD SVG 1.1//EN"
 "http://www.w3.org/Graphics/SVG/1.1/DTD/svg11.dtd">
<!-- Generated by graphviz version 2.28.0 (20120217.0315)
 -->
<!-- Title: G Pages: 1 -->
<svg width="4490pt" height="476pt"
 viewBox="0.00 0.00 4490.00 476.00" xmlns="http://www.w3.org/2000/svg" xmlns:xlink="http://www.w3.org/1999/xlink">
<g id="graph1" class="graph" transform="scale(1 1) rotate(0) translate(4 472)">
<title>G</title>
<polygon fill="white" stroke="white" points="-4,5 -4,-472 4487,-472 4487,5 -4,5"/>
<!-- Node1 -->
<g id="node1" class="node"><title>Node1</title>
<polygon fill="#bfbfbf" stroke="black" points="3777.5,-448.5 3777.5,-467.5 3872.5,-467.5 3872.5,-448.5 3777.5,-448.5"/>
<text text-anchor="middle" x="3825" y="-455.5" font-family="Helvetica,sans-Serif" font-size="10.00">src/MPD/Song.hh</text>
</g>
<!-- Node2 -->
<g id="node3" class="node"><title>Node2</title>
<a xlink:href="NotifyData_8hh.html" target="_top" xlink:title="src/MPD/NotifyData.hh">
<polygon fill="white" stroke="black" points="3700.5,-392.5 3700.5,-411.5 3819.5,-411.5 3819.5,-392.5 3700.5,-392.5"/>
<text text-anchor="middle" x="3760" y="-399.5" font-family="Helvetica,sans-Serif" font-size="10.00">src/MPD/NotifyData.hh</text>
</a>
</g>
<!-- Node1&#45;&gt;Node2 -->
<g id="edge2" class="edge"><title>Node1&#45;&gt;Node2</title>
<path fill="none" stroke="midnightblue" d="M3806.73,-441.82C3795.08,-432.145 3780.4,-419.948 3770.63,-411.834"/>
<polygon fill="midnightblue" stroke="midnightblue" points="3804.63,-444.626 3814.56,-448.324 3809.1,-439.242 3804.63,-444.626"/>
</g>
<!-- Node42 -->
<g id="node119" class="node"><title>Node42</title>
<a xlink:href="Playlist_8hh.html" target="_top" xlink:title="src/MPD/Playlist.hh">
<polygon fill="white" stroke="black" points="3883,-336.5 3883,-355.5 3987,-355.5 3987,-336.5 3883,-336.5"/>
<text text-anchor="middle" x="3935" y="-343.5" font-family="Helvetica,sans-Serif" font-size="10.00">src/MPD/Playlist.hh</text>
</a>
</g>
<!-- Node1&#45;&gt;Node42 -->
<g id="edge154" class="edge"><title>Node1&#45;&gt;Node42</title>
<path fill="none" stroke="midnightblue" d="M3840.79,-441.205C3864.37,-417.627 3907.97,-374.029 3926.41,-355.591"/>
<polygon fill="midnightblue" stroke="midnightblue" points="3838.23,-438.823 3833.63,-448.368 3843.18,-443.772 3838.23,-438.823"/>
</g>
<!-- Node3 -->
<g id="node5" class="node"><title>Node3</title>
<a xlink:href="Listener_8hh.html" target="_top" xlink:title="src/MPD/Listener.hh">
<polygon fill="white" stroke="black" points="3620.5,-336.5 3620.5,-355.5 3727.5,-355.5 3727.5,-336.5 3620.5,-336.5"/>
<text text-anchor="middle" x="3674" y="-343.5" font-family="Helvetica,sans-Serif" font-size="10.00">src/MPD/Listener.hh</text>
</a>
</g>
<!-- Node2&#45;&gt;Node3 -->
<g id="edge4" class="edge"><title>Node2&#45;&gt;Node3</title>
<path fill="none" stroke="midnightblue" d="M3737.55,-386.901C3721.78,-376.999 3701.19,-364.071 3687.78,-355.655"/>
<polygon fill="midnightblue" stroke="midnightblue" points="3735.85,-389.97 3746.18,-392.324 3739.57,-384.042 3735.85,-389.97"/>
</g>
<!-- Node4 -->
<g id="node7" class="node"><title>Node4</title>
<a xlink:href="BaseClient_8hh.html" target="_top" xlink:title="src/MPD/BaseClient.hh">
<polygon fill="white" stroke="black" points="3340,-280.5 3340,-299.5 3460,-299.5 3460,-280.5 3340,-280.5"/>
<text text-anchor="middle" x="3400" y="-287.5" font-family="Helvetica,sans-Serif" font-size="10.00">src/MPD/BaseClient.hh</text>
</a>
</g>
<!-- Node3&#45;&gt;Node4 -->
<g id="edge6" class="edge"><title>Node3&#45;&gt;Node4</title>
<path fill="none" stroke="midnightblue" d="M3620.59,-334.473C3568.8,-324.268 3491.23,-308.979 3443.21,-299.516"/>
<polygon fill="midnightblue" stroke="midnightblue" points="3620.1,-337.944 3630.58,-336.444 3621.45,-331.076 3620.1,-337.944"/>
</g>
<!-- Node5 -->
<g id="node9" class="node"><title>Node5</title>
<a xlink:href="Client_8hh.html" target="_top" xlink:title="src/MPD/Client.hh">
<polygon fill="white" stroke="black" points="3214,-224.5 3214,-243.5 3312,-243.5 3312,-224.5 3214,-224.5"/>
<text text-anchor="middle" x="3263" y="-231.5" font-family="Helvetica,sans-Serif" font-size="10.00">src/MPD/Client.hh</text>
</a>
</g>
<!-- Node4&#45;&gt;Node5 -->
<g id="edge8" class="edge"><title>Node4&#45;&gt;Node5</title>
<path fill="none" stroke="midnightblue" d="M3368.98,-276.772C3343.24,-266.629 3307.31,-252.467 3284.61,-243.516"/>
<polygon fill="midnightblue" stroke="midnightblue" points="3367.71,-280.033 3378.29,-280.444 3370.27,-273.52 3367.71,-280.033"/>
</g>
<!-- Node6 -->
<g id="node11" class="node"><title>Node6</title>
<a xlink:href="AbstractClientUser_8hh.html" target="_top" xlink:title="src/MPD/AbstractClientUser.hh">
<polygon fill="white" stroke="black" points="2830.5,-168.5 2830.5,-187.5 2985.5,-187.5 2985.5,-168.5 2830.5,-168.5"/>
<text text-anchor="middle" x="2908" y="-175.5" font-family="Helvetica,sans-Serif" font-size="10.00">src/MPD/AbstractClientUser.hh</text>
</a>
</g>
<!-- Node5&#45;&gt;Node6 -->
<g id="edge10" class="edge"><title>Node5&#45;&gt;Node6</title>
<path fill="none" stroke="midnightblue" d="M3203.69,-223.979C3136.94,-213.825 3029.3,-197.452 2963.96,-187.512"/>
<polygon fill="midnightblue" stroke="midnightblue" points="3203.23,-227.448 3213.64,-225.492 3204.28,-220.527 3203.23,-227.448"/>
</g>
<!-- Node9 -->
<g id="node17" class="node"><title>Node9</title>
<a xlink:href="Database_8hh.html" target="_top" xlink:title="src/Browser/Database/Database.hh">
<polygon fill="white" stroke="black" points="2117.5,-0.5 2117.5,-19.5 2290.5,-19.5 2290.5,-0.5 2117.5,-0.5"/>
<text text-anchor="middle" x="2204" y="-7.5" font-family="Helvetica,sans-Serif" font-size="10.00">src/Browser/Database/Database.hh</text>
</a>
</g>
<!-- Node5&#45;&gt;Node9 -->
<g id="edge88" class="edge"><title>Node5&#45;&gt;Node9</title>
<path fill="none" stroke="midnightblue" d="M3203.75,-231.811C3033.95,-228.109 2547.77,-215.354 2391,-188 2306.37,-173.234 2263.63,-195.705 2206,-132 2177.1,-100.061 2193.2,-41.683 2200.77,-19.6906"/>
<polygon fill="midnightblue" stroke="midnightblue" points="3203.68,-235.311 3213.75,-232.027 3203.83,-228.312 3203.68,-235.311"/>
</g>
<!-- Node11 -->
<g id="node21" class="node"><title>Node11</title>
<a xlink:href="NowPlaying_8hh.html" target="_top" xlink:title="src/Browser/NowPlaying/NowPlaying.hh">
<polygon fill="white" stroke="black" points="951,-0.5 951,-19.5 1145,-19.5 1145,-0.5 951,-0.5"/>
<text text-anchor="middle" x="1048" y="-7.5" font-family="Helvetica,sans-Serif" font-size="10.00">src/Browser/NowPlaying/NowPlaying.hh</text>
</a>
</g>
<!-- Node5&#45;&gt;Node11 -->
<g id="edge120" class="edge"><title>Node5&#45;&gt;Node11</title>
<path fill="none" stroke="midnightblue" d="M3203.8,-232.107C2973.23,-228.47 2134.91,-213.733 1870,-188 1715.82,-173.024 1644.35,-231.941 1526,-132 1498.72,-108.967 1527.98,-78.1746 1500,-56 1472.83,-34.4626 1269.65,-21.2787 1145.13,-15.1358"/>
<polygon fill="midnightblue" stroke="midnightblue" points="3203.95,-235.61 3214,-232.267 3204.06,-228.61 3203.95,-235.61"/>
</g>
<!-- Node12 -->
<g id="node23" class="node"><title>Node12</title>
<a xlink:href="PlaylistManager_8hh.html" target="_top" xlink:title="src/Browser/PlaylistManager/PlaylistManager.hh">
<polygon fill="white" stroke="black" points="3788,-0.5 3788,-19.5 4016,-19.5 4016,-0.5 3788,-0.5"/>
<text text-anchor="middle" x="3902" y="-7.5" font-family="Helvetica,sans-Serif" font-size="10.00">src/Browser/PlaylistManager/PlaylistManager.hh</text>
</a>
</g>
<!-- Node5&#45;&gt;Node12 -->
<g id="edge122" class="edge"><title>Node5&#45;&gt;Node12</title>
<path fill="none" stroke="midnightblue" d="M3322.43,-232.956C3554.19,-232.496 4386.47,-228.054 4425,-188 4550.69,-57.3514 4205.22,-23.1381 4016.16,-14.1786"/>
<polygon fill="midnightblue" stroke="midnightblue" points="3322.17,-229.456 3312.18,-232.974 3322.18,-236.456 3322.17,-229.456"/>
</g>
<!-- Node13 -->
<g id="node25" class="node"><title>Node13</title>
<a xlink:href="Queue_8hh.html" target="_top" xlink:title="src/Browser/Queue/Queue.hh">
<polygon fill="white" stroke="black" points="2419,-0.5 2419,-19.5 2565,-19.5 2565,-0.5 2419,-0.5"/>
<text text-anchor="middle" x="2492" y="-7.5" font-family="Helvetica,sans-Serif" font-size="10.00">src/Browser/Queue/Queue.hh</text>
</a>
</g>
<!-- Node5&#45;&gt;Node13 -->
<g id="edge126" class="edge"><title>Node5&#45;&gt;Node13</title>
<path fill="none" stroke="midnightblue" d="M3203.36,-232.677C3045.72,-230.646 2622.94,-217.194 2518,-132 2483.47,-103.967 2487.78,-42.1559 2490.7,-19.5209"/>
<polygon fill="midnightblue" stroke="midnightblue" points="3203.76,-236.182 3213.8,-232.8 3203.84,-229.183 3203.76,-236.182"/>
</g>
<!-- Node15 -->
<g id="node29" class="node"><title>Node15</title>
<a xlink:href="StatBrowser_8hh.html" target="_top" xlink:title="src/Browser/Statistics/StatBrowser.hh">
<polygon fill="white" stroke="black" points="3509,-0.5 3509,-19.5 3693,-19.5 3693,-0.5 3509,-0.5"/>
<text text-anchor="middle" x="3601" y="-7.5" font-family="Helvetica,sans-Serif" font-size="10.00">src/Browser/Statistics/StatBrowser.hh</text>
</a>
</g>
<!-- Node5&#45;&gt;Node15 -->
<g id="edge134" class="edge"><title>Node5&#45;&gt;Node15</title>
<path fill="none" stroke="midnightblue" d="M3322.44,-231.615C3524.46,-226.269 4175.26,-203.571 4232,-132 4237.52,-125.034 4237.77,-118.764 4232,-112 4197.45,-71.478 3859.79,-34.9265 3693.12,-19.1834"/>
<polygon fill="midnightblue" stroke="midnightblue" points="3322.22,-228.119 3312.31,-231.878 3322.4,-235.117 3322.22,-228.119"/>
</g>
<!-- Node18 -->
<g id="node38" class="node"><title>Node18</title>
<a xlink:href="PlaylistAddDialog_8hh.html" target="_top" xlink:title="src/Browser/Queue/PlaylistAddDialog.hh">
<polygon fill="white" stroke="black" points="2232,-112.5 2232,-131.5 2426,-131.5 2426,-112.5 2232,-112.5"/>
<text text-anchor="middle" x="2329" y="-119.5" font-family="Helvetica,sans-Serif" font-size="10.00">src/Browser/Queue/PlaylistAddDialog.hh</text>
</a>
</g>
<!-- Node5&#45;&gt;Node18 -->
<g id="edge124" class="edge"><title>Node5&#45;&gt;Node18</title>
<path fill="none" stroke="midnightblue" d="M3203.38,-233.365C3039.14,-233.797 2582.89,-230.98 2440,-188 2399.58,-175.842 2358.34,-146.207 2339.52,-131.528"/>
<polygon fill="midnightblue" stroke="midnightblue" points="3203.78,-236.864 3213.77,-233.332 3203.75,-229.864 3203.78,-236.864"/>
</g>
<!-- Node20 -->
<g id="node45" class="node"><title>Node20</title>
<a xlink:href="SettingsPlayback_8hh.html" target="_top" xlink:title="src/Browser/Settings/SettingsPlayback.hh">
<polygon fill="white" stroke="black" points="1748.5,-112.5 1748.5,-131.5 1949.5,-131.5 1949.5,-112.5 1748.5,-112.5"/>
<text text-anchor="middle" x="1849" y="-119.5" font-family="Helvetica,sans-Serif" font-size="10.00">src/Browser/Settings/SettingsPlayback.hh</text>
</a>
</g>
<!-- Node5&#45;&gt;Node20 -->
<g id="edge128" class="edge"><title>Node5&#45;&gt;Node20</title>
<path fill="none" stroke="midnightblue" d="M3203.63,-232.245C2999.67,-229.404 2328.44,-217.953 2115,-188 2026.26,-175.547 1923.98,-146.191 1876.22,-131.577"/>
<polygon fill="midnightblue" stroke="midnightblue" points="3203.8,-235.747 3213.84,-232.385 3203.89,-228.748 3203.8,-235.747"/>
</g>
<!-- Node21 -->
<g id="node48" class="node"><title>Node21</title>
<a xlink:href="Trayicon_8hh.html" target="_top" xlink:title="src/GManager/Trayicon.hh">
<polygon fill="white" stroke="black" points="2006,-112.5 2006,-131.5 2138,-131.5 2138,-112.5 2006,-112.5"/>
<text text-anchor="middle" x="2072" y="-119.5" font-family="Helvetica,sans-Serif" font-size="10.00">src/GManager/Trayicon.hh</text>
</a>
</g>
<!-- Node5&#45;&gt;Node21 -->
<g id="edge130" class="edge"><title>Node5&#45;&gt;Node21</title>
<path fill="none" stroke="midnightblue" d="M3203.49,-232.78C2987.23,-231.679 2250.44,-225.209 2152,-188 2120.53,-176.104 2092.14,-146.625 2079.27,-131.804"/>
<polygon fill="midnightblue" stroke="midnightblue" points="3203.68,-236.28 3213.7,-232.829 3203.71,-229.28 3203.68,-236.28"/>
</g>
<!-- Node23 -->
<g id="node54" class="node"><title>Node23</title>
<a xlink:href="SettingsOutputs_8hh.html" target="_top" xlink:title="src/Browser/Settings/SettingsOutputs.hh">
<polygon fill="white" stroke="black" points="1535.5,-112.5 1535.5,-131.5 1730.5,-131.5 1730.5,-112.5 1535.5,-112.5"/>
<text text-anchor="middle" x="1633" y="-119.5" font-family="Helvetica,sans-Serif" font-size="10.00">src/Browser/Settings/SettingsOutputs.hh</text>
</a>
</g>
<!-- Node5&#45;&gt;Node23 -->
<g id="edge132" class="edge"><title>Node5&#45;&gt;Node23</title>
<path fill="none" stroke="midnightblue" d="M3203.67,-231.943C2987.77,-227.928 2244.29,-212.6 2008,-188 1884.28,-175.12 1739.74,-146.034 1671.9,-131.542"/>
<polygon fill="midnightblue" stroke="midnightblue" points="3203.79,-235.445 3213.85,-232.131 3203.92,-228.446 3203.79,-235.445"/>
</g>
<!-- Node24 -->
<g id="node57" class="node"><title>Node24</title>
<a xlink:href="Heartbeat_8hh.html" target="_top" xlink:title="src/GManager/Heartbeat.hh">
<polygon fill="white" stroke="black" points="3194.5,-112.5 3194.5,-131.5 3331.5,-131.5 3331.5,-112.5 3194.5,-112.5"/>
<text text-anchor="middle" x="3263" y="-119.5" font-family="Helvetica,sans-Serif" font-size="10.00">src/GManager/Heartbeat.hh</text>
</a>
</g>
<!-- Node5&#45;&gt;Node24 -->
<g id="edge138" class="edge"><title>Node5&#45;&gt;Node24</title>
<path fill="none" stroke="midnightblue" d="M3263,-214.348C3263,-190.254 3263,-149.308 3263,-131.591"/>
<polygon fill="midnightblue" stroke="midnightblue" points="3259.5,-214.368 3263,-224.368 3266.5,-214.369 3259.5,-214.368"/>
</g>
<!-- Node25 -->
<g id="node59" class="node"><title>Node25</title>
<a xlink:href="Statusbar_8hh.html" target="_top" xlink:title="src/GManager/Statusbar.hh">
<polygon fill="white" stroke="black" points="3194.5,-56.5 3194.5,-75.5 3331.5,-75.5 3331.5,-56.5 3194.5,-56.5"/>
<text text-anchor="middle" x="3263" y="-63.5" font-family="Helvetica,sans-Serif" font-size="10.00">src/GManager/Statusbar.hh</text>
</a>
</g>
<!-- Node5&#45;&gt;Node25 -->
<g id="edge144" class="edge"><title>Node5&#45;&gt;Node25</title>
<path fill="none" stroke="midnightblue" d="M3322.45,-227.363C3409.06,-219.091 3574.97,-203.014 3716,-188 3936.45,-164.531 4362,-272.446 4209,-112 4178.79,-80.3179 3543.96,-70.2044 3331.55,-67.7007"/>
<polygon fill="midnightblue" stroke="midnightblue" points="3321.91,-223.899 3312.29,-228.333 3322.58,-230.867 3321.91,-223.899"/>
</g>
<!-- Node27 -->
<g id="node63" class="node"><title>Node27</title>
<a xlink:href="MenuList_8hh.html" target="_top" xlink:title="src/GManager/MenuList.hh">
<polygon fill="white" stroke="black" points="3388,-112.5 3388,-131.5 3522,-131.5 3522,-112.5 3388,-112.5"/>
<text text-anchor="middle" x="3455" y="-119.5" font-family="Helvetica,sans-Serif" font-size="10.00">src/GManager/MenuList.hh</text>
</a>
</g>
<!-- Node5&#45;&gt;Node27 -->
<g id="edge140" class="edge"><title>Node5&#45;&gt;Node27</title>
<path fill="none" stroke="midnightblue" d="M3286.91,-219.301C3327.05,-196.304 3406.84,-150.591 3440,-131.591"/>
<polygon fill="midnightblue" stroke="midnightblue" points="3285,-216.36 3278.07,-224.368 3288.48,-222.434 3285,-216.36"/>
</g>
<!-- Node29 -->
<g id="node67" class="node"><title>Node29</title>
<a xlink:href="PlaybackButtons_8hh.html" target="_top" xlink:title="src/GManager/PlaybackButtons.hh">
<polygon fill="white" stroke="black" points="3540.5,-112.5 3540.5,-131.5 3709.5,-131.5 3709.5,-112.5 3540.5,-112.5"/>
<text text-anchor="middle" x="3625" y="-119.5" font-family="Helvetica,sans-Serif" font-size="10.00">src/GManager/PlaybackButtons.hh</text>
</a>
</g>
<!-- Node5&#45;&gt;Node29 -->
<g id="edge142" class="edge"><title>Node5&#45;&gt;Node29</title>
<path fill="none" stroke="midnightblue" d="M3300.8,-221.514C3373.65,-199.376 3532.02,-151.252 3596.66,-131.61"/>
<polygon fill="midnightblue" stroke="midnightblue" points="3299.65,-218.204 3291.1,-224.46 3301.69,-224.901 3299.65,-218.204"/>
</g>
<!-- Node30 -->
<g id="node70" class="node"><title>Node30</title>
<a xlink:href="StatusIcons_8hh.html" target="_top" xlink:title="src/GManager/StatusIcons.hh">
<polygon fill="white" stroke="black" points="3727.5,-112.5 3727.5,-131.5 3874.5,-131.5 3874.5,-112.5 3727.5,-112.5"/>
<text text-anchor="middle" x="3801" y="-119.5" font-family="Helvetica,sans-Serif" font-size="10.00">src/GManager/StatusIcons.hh</text>
</a>
</g>
<!-- Node5&#45;&gt;Node30 -->
<g id="edge146" class="edge"><title>Node5&#45;&gt;Node30</title>
<path fill="none" stroke="midnightblue" d="M3314.62,-222.446C3420.84,-200.728 3662.06,-151.407 3759.26,-131.535"/>
<polygon fill="midnightblue" stroke="midnightblue" points="3313.86,-219.028 3304.77,-224.46 3315.27,-225.886 3313.86,-219.028"/>
</g>
<!-- Node31 -->
<g id="node73" class="node"><title>Node31</title>
<a xlink:href="TitleLabel_8hh.html" target="_top" xlink:title="src/GManager/TitleLabel.hh">
<polygon fill="white" stroke="black" points="3892.5,-112.5 3892.5,-131.5 4029.5,-131.5 4029.5,-112.5 3892.5,-112.5"/>
<text text-anchor="middle" x="3961" y="-119.5" font-family="Helvetica,sans-Serif" font-size="10.00">src/GManager/TitleLabel.hh</text>
</a>
</g>
<!-- Node5&#45;&gt;Node31 -->
<g id="edge148" class="edge"><title>Node5&#45;&gt;Node31</title>
<path fill="none" stroke="midnightblue" d="M3322.11,-223.684C3455.48,-202.667 3778.11,-151.822 3906.74,-131.551"/>
<polygon fill="midnightblue" stroke="midnightblue" points="3321.42,-220.251 3312.08,-225.265 3322.5,-227.166 3321.42,-220.251"/>
</g>
<!-- Node32 -->
<g id="node75" class="node"><title>Node32</title>
<a xlink:href="VolumeSlider_8hh.html" target="_top" xlink:title="src/GManager/VolumeSlider.hh">
<polygon fill="white" stroke="black" points="4048,-112.5 4048,-131.5 4200,-131.5 4200,-112.5 4048,-112.5"/>
<text text-anchor="middle" x="4124" y="-119.5" font-family="Helvetica,sans-Serif" font-size="10.00">src/GManager/VolumeSlider.hh</text>
</a>
</g>
<!-- Node5&#45;&gt;Node32 -->
<g id="edge150" class="edge"><title>Node5&#45;&gt;Node32</title>
<path fill="none" stroke="midnightblue" d="M3322.25,-225.774C3394.13,-216.98 3518.97,-201.618 3626,-188 3781.69,-168.19 3964.64,-144.103 4059.55,-131.547"/>
<polygon fill="midnightblue" stroke="midnightblue" points="3321.54,-222.335 3312.04,-227.023 3322.39,-229.283 3321.54,-222.335"/>
</g>
<!-- Node33 -->
<g id="node78" class="node"><title>Node33</title>
<a xlink:href="UpdateInterface_8hh.html" target="_top" xlink:title="src/Glyr/UpdateInterface.hh">
<polygon fill="white" stroke="black" points="866.5,-112.5 866.5,-131.5 1003.5,-131.5 1003.5,-112.5 866.5,-112.5"/>
<text text-anchor="middle" x="935" y="-119.5" font-family="Helvetica,sans-Serif" font-size="10.00">src/Glyr/UpdateInterface.hh</text>
</a>
</g>
<!-- Node5&#45;&gt;Node33 -->
<g id="edge90" class="edge"><title>Node5&#45;&gt;Node33</title>
<path fill="none" stroke="midnightblue" d="M3203.78,-232.377C2930.64,-229.377 1790.66,-215.42 1435,-188 1270.48,-175.316 1077.15,-146.07 986.64,-131.529"/>
<polygon fill="midnightblue" stroke="midnightblue" points="3203.84,-235.878 3213.88,-232.488 3203.92,-228.879 3203.84,-235.878"/>
</g>
<!-- Node40 -->
<g id="node99" class="node"><title>Node40</title>
<a xlink:href="Request_8hh.html" target="_top" xlink:title="src/Glyr/Request.hh">
<polygon fill="white" stroke="black" points="1387,-56.5 1387,-75.5 1491,-75.5 1491,-56.5 1387,-56.5"/>
<text text-anchor="middle" x="1439" y="-63.5" font-family="Helvetica,sans-Serif" font-size="10.00">src/Glyr/Request.hh</text>
</a>
</g>
<!-- Node5&#45;&gt;Node40 -->
<g id="edge136" class="edge"><title>Node5&#45;&gt;Node40</title>
<path fill="none" stroke="midnightblue" d="M3203.56,-233.249C2903.51,-234.282 1566.74,-236.161 1494,-188 1454.17,-161.632 1442.79,-98.7932 1439.9,-75.7039"/>
<polygon fill="midnightblue" stroke="midnightblue" points="3203.8,-236.748 3213.79,-233.212 3203.78,-229.748 3203.8,-236.748"/>
</g>
<!-- Node41 -->
<g id="node117" class="node"><title>Node41</title>
<a xlink:href="check__mpd_8hh.html" target="_top" xlink:title="src/MPD/check_mpd.hh">
<polygon fill="white" stroke="black" points="4294,-168.5 4294,-187.5 4416,-187.5 4416,-168.5 4294,-168.5"/>
<text text-anchor="middle" x="4355" y="-175.5" font-family="Helvetica,sans-Serif" font-size="10.00">src/MPD/check_mpd.hh</text>
</a>
</g>
<!-- Node5&#45;&gt;Node41 -->
<g id="edge152" class="edge"><title>Node5&#45;&gt;Node41</title>
<path fill="none" stroke="midnightblue" d="M3322.39,-231.932C3479.14,-228.777 3916.9,-217.777 4280,-188 4284.44,-187.636 4289.03,-187.209 4293.64,-186.744"/>
<polygon fill="midnightblue" stroke="midnightblue" points="3321.96,-228.44 3312.03,-232.138 3322.1,-235.439 3321.96,-228.44"/>
</g>
<!-- Node7 -->
<g id="node13" class="node"><title>Node7</title>
<a xlink:href="BrowserList_8hh.html" target="_top" xlink:title="src/GManager/BrowserList.hh">
<polygon fill="white" stroke="black" points="2558,-112.5 2558,-131.5 2704,-131.5 2704,-112.5 2558,-112.5"/>
<text text-anchor="middle" x="2631" y="-119.5" font-family="Helvetica,sans-Serif" font-size="10.00">src/GManager/BrowserList.hh</text>
</a>
</g>
<!-- Node6&#45;&gt;Node7 -->
<g id="edge12" class="edge"><title>Node6&#45;&gt;Node7</title>
<path fill="none" stroke="midnightblue" d="M2854,-166.473C2801.65,-156.268 2723.23,-140.979 2674.69,-131.516"/>
<polygon fill="midnightblue" stroke="midnightblue" points="2853.62,-169.965 2864.11,-168.444 2854.96,-163.095 2853.62,-169.965"/>
</g>
<!-- Node6&#45;&gt;Node9 -->
<g id="edge30" class="edge"><title>Node6&#45;&gt;Node9</title>
<path fill="none" stroke="midnightblue" d="M2820.11,-177.235C2645.11,-176.848 2266.13,-171.41 2223,-132 2190.66,-102.453 2198.06,-42.1079 2202.19,-19.6629"/>
<polygon fill="midnightblue" stroke="midnightblue" points="2820.31,-180.735 2830.32,-177.252 2820.33,-173.735 2820.31,-180.735"/>
</g>
<!-- Node6&#45;&gt;Node12 -->
<g id="edge38" class="edge"><title>Node6&#45;&gt;Node12</title>
<path fill="none" stroke="midnightblue" d="M2995.76,-177.262C3084.37,-175.36 3224.29,-166.381 3340,-132 3358.67,-126.452 3360.59,-118.355 3379,-112 3530.23,-59.8089 3715.91,-32.0326 3820.41,-19.5077"/>
<polygon fill="midnightblue" stroke="midnightblue" points="2995.68,-173.763 2985.75,-177.451 2995.82,-180.761 2995.68,-173.763"/>
</g>
<!-- Node6&#45;&gt;Node13 -->
<g id="edge44" class="edge"><title>Node6&#45;&gt;Node13</title>
<path fill="none" stroke="midnightblue" d="M2820.03,-175.385C2726.14,-172.084 2584.95,-162.097 2541,-132 2502.29,-105.491 2494.15,-42.7393 2492.44,-19.6884"/>
<polygon fill="midnightblue" stroke="midnightblue" points="2819.99,-178.886 2830.1,-175.72 2820.22,-171.89 2819.99,-178.886"/>
</g>
<!-- Node16 -->
<g id="node32" class="node"><title>Node16</title>
<a xlink:href="DatabaseCache_8hh.html" target="_top" xlink:title="src/Browser/Database/DatabaseCache.hh">
<polygon fill="white" stroke="black" points="2936.5,-112.5 2936.5,-131.5 3137.5,-131.5 3137.5,-112.5 2936.5,-112.5"/>
<text text-anchor="middle" x="3037" y="-119.5" font-family="Helvetica,sans-Serif" font-size="10.00">src/Browser/Database/DatabaseCache.hh</text>
</a>
</g>
<!-- Node6&#45;&gt;Node16 -->
<g id="edge32" class="edge"><title>Node6&#45;&gt;Node16</title>
<path fill="none" stroke="midnightblue" d="M2937.85,-164.503C2962.04,-154.38 2995.46,-140.388 3016.66,-131.516"/>
<polygon fill="midnightblue" stroke="midnightblue" points="2936.31,-161.354 2928.44,-168.444 2939.02,-167.811 2936.31,-161.354"/>
</g>
<!-- Node17 -->
<g id="node34" class="node"><title>Node17</title>
<a xlink:href="CoverArtMgr_8hh.html" target="_top" xlink:title="src/Browser/NowPlaying/CoverArtMgr.hh">
<polygon fill="white" stroke="black" points="1547.5,-56.5 1547.5,-75.5 1744.5,-75.5 1744.5,-56.5 1547.5,-56.5"/>
<text text-anchor="middle" x="1646" y="-63.5" font-family="Helvetica,sans-Serif" font-size="10.00">src/Browser/NowPlaying/CoverArtMgr.hh</text>
</a>
</g>
<!-- Node6&#45;&gt;Node17 -->
<g id="edge34" class="edge"><title>Node6&#45;&gt;Node17</title>
<path fill="none" stroke="midnightblue" d="M2820.14,-177.361C2622.95,-177.411 2150.45,-173.085 1997,-132 1978.18,-126.962 1976.56,-117.915 1958,-112 1888.65,-89.8964 1807.15,-78.6137 1744.84,-72.8744"/>
<polygon fill="midnightblue" stroke="midnightblue" points="2820.17,-180.861 2830.17,-177.355 2820.17,-173.861 2820.17,-180.861"/>
</g>
<!-- Node6&#45;&gt;Node18 -->
<g id="edge40" class="edge"><title>Node6&#45;&gt;Node18</title>
<path fill="none" stroke="midnightblue" d="M2820,-168.792C2711.98,-158.718 2529.7,-141.718 2420.22,-131.508"/>
<polygon fill="midnightblue" stroke="midnightblue" points="2819.93,-172.302 2830.21,-169.745 2820.58,-165.332 2819.93,-172.302"/>
</g>
<!-- Node19 -->
<g id="node42" class="node"><title>Node19</title>
<a xlink:href="QueueMerger_8hh.html" target="_top" xlink:title="src/Browser/Queue/QueueMerger.hh">
<polygon fill="white" stroke="black" points="2520,-56.5 2520,-75.5 2696,-75.5 2696,-56.5 2520,-56.5"/>
<text text-anchor="middle" x="2608" y="-63.5" font-family="Helvetica,sans-Serif" font-size="10.00">src/Browser/Queue/QueueMerger.hh</text>
</a>
</g>
<!-- Node6&#45;&gt;Node19 -->
<g id="edge46" class="edge"><title>Node6&#45;&gt;Node19</title>
<path fill="none" stroke="midnightblue" d="M2819.93,-171.972C2719.46,-165.317 2566.68,-152.035 2549,-132 2530.95,-111.546 2566.99,-87.9165 2590.3,-75.5526"/>
<polygon fill="midnightblue" stroke="midnightblue" points="2819.89,-175.476 2830.09,-172.634 2820.34,-168.491 2819.89,-175.476"/>
</g>
<!-- Node6&#45;&gt;Node20 -->
<g id="edge50" class="edge"><title>Node6&#45;&gt;Node20</title>
<path fill="none" stroke="midnightblue" d="M2820.04,-173.702C2653.08,-167.245 2278.77,-151.815 1964,-132 1959.3,-131.704 1954.5,-131.387 1949.65,-131.055"/>
<polygon fill="midnightblue" stroke="midnightblue" points="2820.12,-177.208 2830.25,-174.096 2820.39,-170.213 2820.12,-177.208"/>
</g>
<!-- Node6&#45;&gt;Node21 -->
<g id="edge54" class="edge"><title>Node6&#45;&gt;Node21</title>
<path fill="none" stroke="midnightblue" d="M2820.11,-171.876C2684.74,-163.896 2417.08,-147.775 2190,-132 2173.19,-130.832 2155.05,-129.489 2138.14,-128.203"/>
<polygon fill="midnightblue" stroke="midnightblue" points="2820.23,-175.389 2830.42,-172.483 2820.64,-168.401 2820.23,-175.389"/>
</g>
<!-- Node6&#45;&gt;Node23 -->
<g id="edge62" class="edge"><title>Node6&#45;&gt;Node23</title>
<path fill="none" stroke="midnightblue" d="M2820.13,-175.005C2625.33,-170.278 2142.53,-156.885 1739,-132 1736.23,-131.829 1733.43,-131.648 1730.6,-131.458"/>
<polygon fill="midnightblue" stroke="midnightblue" points="2820.22,-178.508 2830.31,-175.251 2820.39,-171.51 2820.22,-178.508"/>
</g>
<!-- Node6&#45;&gt;Node24 -->
<g id="edge66" class="edge"><title>Node6&#45;&gt;Node24</title>
<path fill="none" stroke="midnightblue" d="M2974.29,-166.917C3041.36,-156.715 3143.89,-141.117 3207.01,-131.516"/>
<polygon fill="midnightblue" stroke="midnightblue" points="2973.61,-163.479 2964.25,-168.444 2974.66,-170.4 2973.61,-163.479"/>
</g>
<!-- Node6&#45;&gt;Node25 -->
<g id="edge78" class="edge"><title>Node6&#45;&gt;Node25</title>
<path fill="none" stroke="midnightblue" d="M2995.94,-167.224C3041.64,-160.446 3097.84,-149.416 3146,-132 3156.65,-128.148 3218.96,-92.4502 3248.05,-75.6568"/>
<polygon fill="midnightblue" stroke="midnightblue" points="2995.16,-163.8 2985.76,-168.69 2996.16,-170.729 2995.16,-163.8"/>
</g>
<!-- Node26 -->
<g id="node61" class="node"><title>Node26</title>
<a xlink:href="Timeslide_8hh.html" target="_top" xlink:title="src/GManager/Timeslide.hh">
<polygon fill="white" stroke="black" points="2965.5,-56.5 2965.5,-75.5 3102.5,-75.5 3102.5,-56.5 2965.5,-56.5"/>
<text text-anchor="middle" x="3034" y="-63.5" font-family="Helvetica,sans-Serif" font-size="10.00">src/GManager/Timeslide.hh</text>
</a>
</g>
<!-- Node6&#45;&gt;Node26 -->
<g id="edge82" class="edge"><title>Node6&#45;&gt;Node26</title>
<path fill="none" stroke="midnightblue" d="M2909.21,-158.166C2911.05,-143.933 2915.64,-124.736 2927,-112 2943.77,-93.2042 2969.68,-82.0348 2991.79,-75.5255"/>
<polygon fill="midnightblue" stroke="midnightblue" points="2905.71,-158.011 2908.25,-168.298 2912.68,-158.674 2905.71,-158.011"/>
</g>
<!-- Node6&#45;&gt;Node27 -->
<g id="edge72" class="edge"><title>Node6&#45;&gt;Node27</title>
<path fill="none" stroke="midnightblue" d="M2995.54,-168.925C3089.22,-160.195 3242.18,-145.688 3374,-132 3378.5,-131.532 3383.15,-131.041 3387.82,-130.539"/>
<polygon fill="midnightblue" stroke="midnightblue" points="2995.17,-165.444 2985.54,-169.856 2995.82,-172.414 2995.17,-165.444"/>
</g>
<!-- Node28 -->
<g id="node65" class="node"><title>Node28</title>
<a xlink:href="NotifyManager_8hh.html" target="_top" xlink:title="src/GManager/NotifyManager.hh">
<polygon fill="white" stroke="black" points="2722,-112.5 2722,-131.5 2880,-131.5 2880,-112.5 2722,-112.5"/>
<text text-anchor="middle" x="2801" y="-119.5" font-family="Helvetica,sans-Serif" font-size="10.00">src/GManager/NotifyManager.hh</text>
</a>
</g>
<!-- Node6&#45;&gt;Node28 -->
<g id="edge74" class="edge"><title>Node6&#45;&gt;Node28</title>
<path fill="none" stroke="midnightblue" d="M2881.7,-163.726C2861.89,-153.727 2835.29,-140.307 2818.15,-131.655"/>
<polygon fill="midnightblue" stroke="midnightblue" points="2880.3,-166.943 2890.81,-168.324 2883.46,-160.694 2880.3,-166.943"/>
</g>
<!-- Node6&#45;&gt;Node29 -->
<g id="edge76" class="edge"><title>Node6&#45;&gt;Node29</title>
<path fill="none" stroke="midnightblue" d="M2996.04,-171.291C3116.76,-163.314 3340.42,-148.004 3531,-132 3534.1,-131.739 3537.26,-131.468 3540.46,-131.188"/>
<polygon fill="midnightblue" stroke="midnightblue" points="2995.49,-167.819 2985.75,-171.97 2995.95,-174.804 2995.49,-167.819"/>
</g>
<!-- Node6&#45;&gt;Node30 -->
<g id="edge80" class="edge"><title>Node6&#45;&gt;Node30</title>
<path fill="none" stroke="midnightblue" d="M2995.71,-173.638C3144.45,-167.599 3455.57,-153.503 3718,-132 3721.03,-131.751 3724.13,-131.483 3727.25,-131.2"/>
<polygon fill="midnightblue" stroke="midnightblue" points="2995.57,-170.141 2985.72,-174.042 2995.85,-177.135 2995.57,-170.141"/>
</g>
<!-- Node6&#45;&gt;Node31 -->
<g id="edge84" class="edge"><title>Node6&#45;&gt;Node31</title>
<path fill="none" stroke="midnightblue" d="M2995.73,-174.972C3166.68,-170.574 3556.3,-158.356 3883,-132 3885.99,-131.759 3889.04,-131.493 3892.12,-131.208"/>
<polygon fill="midnightblue" stroke="midnightblue" points="2995.44,-171.479 2985.53,-175.232 2995.61,-178.476 2995.44,-171.479"/>
</g>
<!-- Node6&#45;&gt;Node32 -->
<g id="edge86" class="edge"><title>Node6&#45;&gt;Node32</title>
<path fill="none" stroke="midnightblue" d="M2995.72,-175.432C3185.84,-171.61 3650.06,-159.995 4038,-132 4041.14,-131.773 4044.35,-131.523 4047.59,-131.255"/>
<polygon fill="midnightblue" stroke="midnightblue" points="2995.43,-171.937 2985.5,-175.635 2995.57,-178.935 2995.43,-171.937"/>
</g>
<!-- Node8 -->
<g id="node15" class="node"><title>Node8</title>
<a xlink:href="AbstractBrowser_8hh.html" target="_top" xlink:title="src/Browser/AbstractBrowser.hh">
<polygon fill="white" stroke="black" points="2714,-56.5 2714,-75.5 2872,-75.5 2872,-56.5 2714,-56.5"/>
<text text-anchor="middle" x="2793" y="-63.5" font-family="Helvetica,sans-Serif" font-size="10.00">src/Browser/AbstractBrowser.hh</text>
</a>
</g>
<!-- Node7&#45;&gt;Node8 -->
<g id="edge14" class="edge"><title>Node7&#45;&gt;Node8</title>
<path fill="none" stroke="midnightblue" d="M2666.48,-109.172C2696.99,-99.0039 2740.24,-84.5852 2767.45,-75.5164"/>
<polygon fill="midnightblue" stroke="midnightblue" points="2665.05,-105.961 2656.67,-112.444 2667.26,-112.602 2665.05,-105.961"/>
</g>
<!-- Node8&#45;&gt;Node9 -->
<g id="edge16" class="edge"><title>Node8&#45;&gt;Node9</title>
<path fill="none" stroke="midnightblue" d="M2703.91,-56.0019C2551.89,-41.5157 2388.34,-27.036 2290.74,-18.5147"/>
<polygon fill="midnightblue" stroke="midnightblue" points="2703.62,-59.4899 2713.91,-56.956 2704.28,-52.5215 2703.62,-59.4899"/>
</g>
<!-- Node10 -->
<g id="node19" class="node"><title>Node10</title>
<a xlink:href="Fortuna_8hh.html" target="_top" xlink:title="src/Browser/Fortuna/Fortuna.hh">
<polygon fill="white" stroke="black" points="2715.5,-0.5 2715.5,-19.5 2870.5,-19.5 2870.5,-0.5 2715.5,-0.5"/>
<text text-anchor="middle" x="2793" y="-7.5" font-family="Helvetica,sans-Serif" font-size="10.00">src/Browser/Fortuna/Fortuna.hh</text>
</a>
</g>
<!-- Node8&#45;&gt;Node10 -->
<g id="edge18" class="edge"><title>Node8&#45;&gt;Node10</title>
<path fill="none" stroke="midnightblue" d="M2793,-45.8045C2793,-36.9102 2793,-26.7798 2793,-19.7511"/>
<polygon fill="midnightblue" stroke="midnightblue" points="2789.5,-46.083 2793,-56.083 2796.5,-46.083 2789.5,-46.083"/>
</g>
<!-- Node8&#45;&gt;Node11 -->
<g id="edge20" class="edge"><title>Node8&#45;&gt;Node11</title>
<path fill="none" stroke="midnightblue" d="M2703.79,-56.0521C2104.76,-18.0553 1399.31,-12.0607 1145.17,-11.1446"/>
<polygon fill="midnightblue" stroke="midnightblue" points="2703.72,-59.555 2713.93,-56.6988 2704.17,-52.5692 2703.72,-59.555"/>
</g>
<!-- Node8&#45;&gt;Node12 -->
<g id="edge22" class="edge"><title>Node8&#45;&gt;Node12</title>
<path fill="none" stroke="midnightblue" d="M2882.3,-59.9463C2906.23,-58.6253 2932.1,-57.2282 2956,-56 3256.08,-40.5783 3609.82,-24.2424 3787.68,-16.1566"/>
<polygon fill="midnightblue" stroke="midnightblue" points="2881.96,-56.4595 2872.17,-60.5071 2882.35,-63.4488 2881.96,-56.4595"/>
</g>
<!-- Node8&#45;&gt;Node13 -->
<g id="edge24" class="edge"><title>Node8&#45;&gt;Node13</title>
<path fill="none" stroke="midnightblue" d="M2735.39,-54.6642C2678.5,-44.4592 2592.55,-29.0386 2539.47,-19.5164"/>
<polygon fill="midnightblue" stroke="midnightblue" points="2734.84,-58.1226 2745.31,-56.4435 2736.08,-51.2326 2734.84,-58.1226"/>
</g>
<!-- Node14 -->
<g id="node27" class="node"><title>Node14</title>
<a xlink:href="Settings_8hh.html" target="_top" xlink:title="src/Browser/Settings/Settings.hh">
<polygon fill="white" stroke="black" points="1893.5,-0.5 1893.5,-19.5 2054.5,-19.5 2054.5,-0.5 1893.5,-0.5"/>
<text text-anchor="middle" x="1974" y="-7.5" font-family="Helvetica,sans-Serif" font-size="10.00">src/Browser/Settings/Settings.hh</text>
</a>
</g>
<!-- Node8&#45;&gt;Node14 -->
<g id="edge26" class="edge"><title>Node8&#45;&gt;Node14</title>
<path fill="none" stroke="midnightblue" d="M2703.56,-56.0018C2437.76,-34.7 2369.47,-36.6774 2108,-20 2090.78,-18.9017 2072.32,-17.6864 2054.77,-16.5134"/>
<polygon fill="midnightblue" stroke="midnightblue" points="2703.67,-59.5214 2713.92,-56.8352 2704.23,-52.544 2703.67,-59.5214"/>
</g>
<!-- Node8&#45;&gt;Node15 -->
<g id="edge28" class="edge"><title>Node8&#45;&gt;Node15</title>
<path fill="none" stroke="midnightblue" d="M2882.72,-59.004C3037.38,-48.6674 3352.62,-27.5999 3508.91,-17.1547"/>
<polygon fill="midnightblue" stroke="midnightblue" points="2882.06,-55.5401 2872.32,-59.6992 2882.53,-62.5245 2882.06,-55.5401"/>
</g>
<!-- Node17&#45;&gt;Node11 -->
<g id="edge36" class="edge"><title>Node17&#45;&gt;Node11</title>
<path fill="none" stroke="midnightblue" d="M1541.55,-55.5685C1428.87,-45.3934 1251.05,-29.3352 1142.42,-19.5264"/>
<polygon fill="midnightblue" stroke="midnightblue" points="1541.3,-59.0597 1551.58,-56.4733 1541.93,-52.0881 1541.3,-59.0597"/>
</g>
<!-- Node18&#45;&gt;Node13 -->
<g id="edge42" class="edge"><title>Node18&#45;&gt;Node13</title>
<path fill="none" stroke="midnightblue" d="M2350.17,-106.714C2384.52,-83.5347 2451.35,-38.4303 2479.27,-19.5914"/>
<polygon fill="midnightblue" stroke="midnightblue" points="2348.12,-103.873 2341.79,-112.368 2352.04,-109.676 2348.12,-103.873"/>
</g>
<!-- Node19&#45;&gt;Node13 -->
<g id="edge48" class="edge"><title>Node19&#45;&gt;Node13</title>
<path fill="none" stroke="midnightblue" d="M2580.28,-52.096C2558.61,-42.0073 2529.1,-28.2697 2510.29,-19.5164"/>
<polygon fill="midnightblue" stroke="midnightblue" points="2579.08,-55.3962 2589.62,-56.4435 2582.03,-49.0501 2579.08,-55.3962"/>
</g>
<!-- Node20&#45;&gt;Node14 -->
<g id="edge52" class="edge"><title>Node20&#45;&gt;Node14</title>
<path fill="none" stroke="midnightblue" d="M1850.22,-102.177C1852.07,-87.9498 1856.66,-68.7556 1868,-56 1884.67,-37.2507 1910.47,-26.0696 1932.45,-19.5424"/>
<polygon fill="midnightblue" stroke="midnightblue" points="1846.72,-102.015 1849.25,-112.303 1853.69,-102.683 1846.72,-102.015"/>
</g>
<!-- Node21&#45;&gt;Node14 -->
<g id="edge60" class="edge"><title>Node21&#45;&gt;Node14</title>
<path fill="none" stroke="midnightblue" d="M2079.91,-102.695C2084.61,-88.7758 2088.06,-69.7423 2079,-56 2066.39,-36.8764 2043.79,-25.8489 2022.77,-19.5047"/>
<polygon fill="midnightblue" stroke="midnightblue" points="2076.59,-101.579 2076.27,-112.169 2083.13,-104.094 2076.59,-101.579"/>
</g>
<!-- Node22 -->
<g id="node50" class="node"><title>Node22</title>
<a xlink:href="SettingsGeneral_8hh.html" target="_top" xlink:title="src/Browser/Settings/SettingsGeneral.hh">
<polygon fill="white" stroke="black" points="1877,-56.5 1877,-75.5 2071,-75.5 2071,-56.5 1877,-56.5"/>
<text text-anchor="middle" x="1974" y="-63.5" font-family="Helvetica,sans-Serif" font-size="10.00">src/Browser/Settings/SettingsGeneral.hh</text>
</a>
</g>
<!-- Node21&#45;&gt;Node22 -->
<g id="edge56" class="edge"><title>Node21&#45;&gt;Node22</title>
<path fill="none" stroke="midnightblue" d="M2047.41,-107.453C2029.32,-97.4835 2005.27,-84.2279 1989.71,-75.6545"/>
<polygon fill="midnightblue" stroke="midnightblue" points="2045.81,-110.563 2056.25,-112.324 2049.19,-104.432 2045.81,-110.563"/>
</g>
<!-- Node22&#45;&gt;Node14 -->
<g id="edge58" class="edge"><title>Node22&#45;&gt;Node14</title>
<path fill="none" stroke="midnightblue" d="M1974,-45.8045C1974,-36.9102 1974,-26.7798 1974,-19.7511"/>
<polygon fill="midnightblue" stroke="midnightblue" points="1970.5,-46.083 1974,-56.083 1977.5,-46.083 1970.5,-46.083"/>
</g>
<!-- Node23&#45;&gt;Node14 -->
<g id="edge64" class="edge"><title>Node23&#45;&gt;Node14</title>
<path fill="none" stroke="midnightblue" d="M1669.03,-109.378C1737.84,-87.1791 1886.54,-39.2121 1947.31,-19.6104"/>
<polygon fill="midnightblue" stroke="midnightblue" points="1667.92,-106.059 1659.47,-112.46 1670.07,-112.721 1667.92,-106.059"/>
</g>
<!-- Node24&#45;&gt;Node25 -->
<g id="edge68" class="edge"><title>Node24&#45;&gt;Node25</title>
<path fill="none" stroke="midnightblue" d="M3263,-101.805C3263,-92.9102 3263,-82.7798 3263,-75.7511"/>
<polygon fill="midnightblue" stroke="midnightblue" points="3259.5,-102.083 3263,-112.083 3266.5,-102.083 3259.5,-102.083"/>
</g>
<!-- Node24&#45;&gt;Node26 -->
<g id="edge70" class="edge"><title>Node24&#45;&gt;Node26</title>
<path fill="none" stroke="midnightblue" d="M3216.73,-110.088C3173.46,-99.8865 3109.74,-84.8612 3070.12,-75.5164"/>
<polygon fill="midnightblue" stroke="midnightblue" points="3216.18,-113.555 3226.71,-112.444 3217.78,-106.742 3216.18,-113.555"/>
</g>
<!-- Node33&#45;&gt;Node11 -->
<g id="edge114" class="edge"><title>Node33&#45;&gt;Node11</title>
<path fill="none" stroke="midnightblue" d="M856.364,-121.336C713.622,-120.585 431.162,-112.13 483,-56 514.002,-22.4306 797.473,-13.8848 950.715,-11.7225"/>
<polygon fill="midnightblue" stroke="midnightblue" points="856.379,-124.836 866.393,-121.378 856.408,-117.836 856.379,-124.836"/>
</g>
<!-- Node33&#45;&gt;Node17 -->
<g id="edge96" class="edge"><title>Node33&#45;&gt;Node17</title>
<path fill="none" stroke="midnightblue" d="M1014.14,-114.99C1144.68,-105.075 1404.85,-85.3153 1547.24,-74.5007"/>
<polygon fill="midnightblue" stroke="midnightblue" points="1013.53,-111.526 1003.82,-115.773 1014.06,-118.506 1013.53,-111.526"/>
</g>
<!-- Node34 -->
<g id="node80" class="node"><title>Node34</title>
<a xlink:href="ArtistPhotosMgr_8hh.html" target="_top" xlink:title="src/Browser/NowPlaying/ArtistPhotosMgr.hh">
<polygon fill="white" stroke="black" points="492,-56.5 492,-75.5 704,-75.5 704,-56.5 492,-56.5"/>
<text text-anchor="middle" x="598" y="-63.5" font-family="Helvetica,sans-Serif" font-size="10.00">src/Browser/NowPlaying/ArtistPhotosMgr.hh</text>
</a>
</g>
<!-- Node33&#45;&gt;Node34 -->
<g id="edge92" class="edge"><title>Node33&#45;&gt;Node34</title>
<path fill="none" stroke="midnightblue" d="M871.68,-110.854C808.007,-100.651 710.943,-85.0977 651.149,-75.5164"/>
<polygon fill="midnightblue" stroke="midnightblue" points="871.174,-114.317 881.601,-112.444 872.281,-107.405 871.174,-114.317"/>
</g>
<!-- Node35 -->
<g id="node84" class="node"><title>Node35</title>
<a xlink:href="OtherAlbumsMgr_8hh.html" target="_top" xlink:title="src/Browser/NowPlaying/OtherAlbumsMgr.hh">
<polygon fill="white" stroke="black" points="940.5,-56.5 940.5,-75.5 1155.5,-75.5 1155.5,-56.5 940.5,-56.5"/>
<text text-anchor="middle" x="1048" y="-63.5" font-family="Helvetica,sans-Serif" font-size="10.00">src/Browser/NowPlaying/OtherAlbumsMgr.hh</text>
</a>
</g>
<!-- Node33&#45;&gt;Node35 -->
<g id="edge98" class="edge"><title>Node33&#45;&gt;Node35</title>
<path fill="none" stroke="midnightblue" d="M962.003,-108.096C983.114,-98.0073 1011.86,-84.2697 1030.18,-75.5164"/>
<polygon fill="midnightblue" stroke="midnightblue" points="960.419,-104.974 952.905,-112.444 963.437,-111.29 960.419,-104.974"/>
</g>
<!-- Node36 -->
<g id="node87" class="node"><title>Node36</title>
<a xlink:href="TracklistMgr_8hh.html" target="_top" xlink:title="src/Browser/NowPlaying/TracklistMgr.hh">
<polygon fill="white" stroke="black" points="1173.5,-56.5 1173.5,-75.5 1368.5,-75.5 1368.5,-56.5 1173.5,-56.5"/>
<text text-anchor="middle" x="1271" y="-63.5" font-family="Helvetica,sans-Serif" font-size="10.00">src/Browser/NowPlaying/TracklistMgr.hh</text>
</a>
</g>
<!-- Node33&#45;&gt;Node36 -->
<g id="edge102" class="edge"><title>Node33&#45;&gt;Node36</title>
<path fill="none" stroke="midnightblue" d="M998.132,-110.854C1061.62,-100.651 1158.39,-85.0977 1218.01,-75.5164"/>
<polygon fill="midnightblue" stroke="midnightblue" points="997.558,-107.401 988.24,-112.444 998.669,-114.312 997.558,-107.401"/>
</g>
<!-- Node37 -->
<g id="node90" class="node"><title>Node37</title>
<a xlink:href="TextItemsMgr_8hh.html" target="_top" xlink:title="src/Browser/NowPlaying/TextItemsMgr.hh">
<polygon fill="white" stroke="black" points="0,-56.5 0,-75.5 202,-75.5 202,-56.5 0,-56.5"/>
<text text-anchor="middle" x="101" y="-63.5" font-family="Helvetica,sans-Serif" font-size="10.00">src/Browser/NowPlaying/TextItemsMgr.hh</text>
</a>
</g>
<!-- Node33&#45;&gt;Node37 -->
<g id="edge106" class="edge"><title>Node33&#45;&gt;Node37</title>
<path fill="none" stroke="midnightblue" d="M856.243,-116.611C723.223,-109.084 445.592,-92.8858 211,-76 208.133,-75.7937 205.225,-75.5806 202.289,-75.3623"/>
<polygon fill="midnightblue" stroke="midnightblue" points="856.16,-120.112 866.342,-117.181 856.555,-113.123 856.16,-120.112"/>
</g>
<!-- Node38 -->
<g id="node93" class="node"><title>Node38</title>
<a xlink:href="RelatedLinksMgr_8hh.html" target="_top" xlink:title="src/Browser/NowPlaying/RelatedLinksMgr.hh">
<polygon fill="white" stroke="black" points="220.5,-56.5 220.5,-75.5 435.5,-75.5 435.5,-56.5 220.5,-56.5"/>
<text text-anchor="middle" x="328" y="-63.5" font-family="Helvetica,sans-Serif" font-size="10.00">src/Browser/NowPlaying/RelatedLinksMgr.hh</text>
</a>
</g>
<!-- Node33&#45;&gt;Node38 -->
<g id="edge110" class="edge"><title>Node33&#45;&gt;Node38</title>
<path fill="none" stroke="midnightblue" d="M856.133,-113.984C745.158,-104.111 543.159,-86.141 423.723,-75.5157"/>
<polygon fill="midnightblue" stroke="midnightblue" points="855.984,-117.484 866.255,-114.884 856.605,-110.512 855.984,-117.484"/>
</g>
<!-- Node39 -->
<g id="node97" class="node"><title>Node39</title>
<a xlink:href="TextPageMgr_8hh.html" target="_top" xlink:title="src/Browser/NowPlaying/TextPageMgr.hh">
<polygon fill="white" stroke="black" points="722,-56.5 722,-75.5 922,-75.5 922,-56.5 722,-56.5"/>
<text text-anchor="middle" x="822" y="-63.5" font-family="Helvetica,sans-Serif" font-size="10.00">src/Browser/NowPlaying/TextPageMgr.hh</text>
</a>
</g>
<!-- Node33&#45;&gt;Node39 -->
<g id="edge116" class="edge"><title>Node33&#45;&gt;Node39</title>
<path fill="none" stroke="midnightblue" d="M907.997,-108.096C886.886,-98.0073 858.138,-84.2697 839.821,-75.5164"/>
<polygon fill="midnightblue" stroke="midnightblue" points="906.563,-111.29 917.095,-112.444 909.581,-104.974 906.563,-111.29"/>
</g>
<!-- Node33&#45;&gt;Node40 -->
<g id="edge118" class="edge"><title>Node33&#45;&gt;Node40</title>
<path fill="none" stroke="midnightblue" d="M1013.59,-114.02C1102.05,-105.925 1250.03,-91.6714 1377,-76 1380.24,-75.6003 1383.57,-75.1707 1386.93,-74.7236"/>
<polygon fill="midnightblue" stroke="midnightblue" points="1013.27,-110.535 1003.63,-114.928 1013.9,-117.506 1013.27,-110.535"/>
</g>
<!-- Node34&#45;&gt;Node11 -->
<g id="edge94" class="edge"><title>Node34&#45;&gt;Node11</title>
<path fill="none" stroke="midnightblue" d="M679.424,-55.2291C764.368,-45.0359 896.2,-29.216 977.03,-19.5164"/>
<polygon fill="midnightblue" stroke="midnightblue" points="678.816,-51.7769 669.304,-56.4435 679.65,-58.7271 678.816,-51.7769"/>
</g>
<!-- Node35&#45;&gt;Node11 -->
<g id="edge100" class="edge"><title>Node35&#45;&gt;Node11</title>
<path fill="none" stroke="midnightblue" d="M1048,-45.8045C1048,-36.9102 1048,-26.7798 1048,-19.7511"/>
<polygon fill="midnightblue" stroke="midnightblue" points="1044.5,-46.083 1048,-56.083 1051.5,-46.083 1044.5,-46.083"/>
</g>
<!-- Node36&#45;&gt;Node11 -->
<g id="edge104" class="edge"><title>Node36&#45;&gt;Node11</title>
<path fill="none" stroke="midnightblue" d="M1225.94,-54.0884C1183.81,-43.8865 1121.76,-28.8612 1083.17,-19.5164"/>
<polygon fill="midnightblue" stroke="midnightblue" points="1225.12,-57.4916 1235.66,-56.4435 1226.77,-50.6883 1225.12,-57.4916"/>
</g>
<!-- Node37&#45;&gt;Node11 -->
<g id="edge108" class="edge"><title>Node37&#45;&gt;Node11</title>
<path fill="none" stroke="midnightblue" d="M212.427,-55.9207C486.39,-37.4829 796.857,-22.418 950.967,-15.3358"/>
<polygon fill="midnightblue" stroke="midnightblue" points="212.028,-52.4396 202.287,-56.6058 212.5,-59.4237 212.028,-52.4396"/>
</g>
<!-- Node38&#45;&gt;Node11 -->
<g id="edge112" class="edge"><title>Node38&#45;&gt;Node11</title>
<path fill="none" stroke="midnightblue" d="M445.769,-56.1673C586.598,-45.6052 819.68,-28.124 950.743,-18.2942"/>
<polygon fill="midnightblue" stroke="midnightblue" points="445.501,-52.6775 435.791,-56.9157 446.025,-59.6579 445.501,-52.6775"/>
</g>
<!-- Node42&#45;&gt;Node12 -->
<g id="edge156" class="edge"><title>Node42&#45;&gt;Node12</title>
<path fill="none" stroke="midnightblue" d="M3997.86,-345.44C4141.61,-344.756 4482,-332.809 4482,-235 4482,-235 4482,-235 4482,-121 4482,-67.9917 4432.06,-73.4238 4382,-56 4316.79,-33.3028 4136.23,-21.1698 4016.11,-15.412"/>
<polygon fill="midnightblue" stroke="midnightblue" points="3997.44,-341.942 3987.45,-345.472 3997.46,-348.942 3997.44,-341.942"/>
</g>
</g>
</svg>
