<?xml version="1.0" encoding="UTF-8" standalone="no"?>
<!DOCTYPE svg PUBLIC "-//W3C//DTD SVG 1.1//EN"
 "http://www.w3.org/Graphics/SVG/1.1/DTD/svg11.dtd">
<!-- Generated by graphviz version 2.28.0 (20111204.1018)
 -->
<!-- Title: G Pages: 1 -->
<svg width="3253pt" height="476pt"
 viewBox="0.00 0.00 3252.56 476.00" xmlns="http://www.w3.org/2000/svg" xmlns:xlink="http://www.w3.org/1999/xlink">
<g id="graph1" class="graph" transform="scale(1 1) rotate(0) translate(4 472)">
<title>G</title>
<polygon fill="white" stroke="white" points="-4,5 -4,-472 3249.56,-472 3249.56,5 -4,5"/>
<!-- Node1 -->
<g id="node1" class="node"><title>Node1</title>
<polygon fill="#bfbfbf" stroke="black" points="175.5,-448.5 175.5,-467.5 270.5,-467.5 270.5,-448.5 175.5,-448.5"/>
<text text-anchor="middle" x="223" y="-455.5" font-family="Helvetica,sans-Serif" font-size="10.00">src/MPD/Song.hh</text>
</g>
<!-- Node2 -->
<g id="node3" class="node"><title>Node2</title>
<a xlink:href="NotifyData_8hh.html" target="_top" xlink:title="src/MPD/NotifyData.hh">
<polygon fill="white" stroke="black" points="119.5,-392.5 119.5,-411.5 238.5,-411.5 238.5,-392.5 119.5,-392.5"/>
<text text-anchor="middle" x="179" y="-399.5" font-family="Helvetica,sans-Serif" font-size="10.00">src/MPD/NotifyData.hh</text>
</a>
</g>
<!-- Node1&#45;&gt;Node2 -->
<g id="edge2" class="edge"><title>Node1&#45;&gt;Node2</title>
<path fill="none" stroke="midnightblue" d="M209.265,-440.144C201.599,-430.736 192.367,-419.405 186.131,-411.751"/>
<polygon fill="midnightblue" stroke="midnightblue" points="206.704,-442.541 215.734,-448.083 212.131,-438.12 206.704,-442.541"/>
</g>
<!-- Node31 -->
<g id="node82" class="node"><title>Node31</title>
<a xlink:href="Playlist_8hh.html" target="_top" xlink:title="src/MPD/Playlist.hh">
<polygon fill="white" stroke="black" points="157,-168.5 157,-187.5 261,-187.5 261,-168.5 157,-168.5"/>
<text text-anchor="middle" x="209" y="-175.5" font-family="Helvetica,sans-Serif" font-size="10.00">src/MPD/Playlist.hh</text>
</a>
</g>
<!-- Node1&#45;&gt;Node31 -->
<g id="edge112" class="edge"><title>Node1&#45;&gt;Node31</title>
<path fill="none" stroke="midnightblue" d="M234.568,-439.925C247.604,-418.987 267,-381.96 267,-347 267,-347 267,-347 267,-289 267,-258.775 261.488,-250.527 247,-224 239.256,-209.821 226.596,-196.003 218.038,-187.501"/>
<polygon fill="midnightblue" stroke="midnightblue" points="231.612,-438.051 229.118,-448.349 237.489,-441.854 231.612,-438.051"/>
</g>
<!-- Node3 -->
<g id="node5" class="node"><title>Node3</title>
<a xlink:href="Listener_8hh.html" target="_top" xlink:title="src/MPD/Listener.hh">
<polygon fill="white" stroke="black" points="125.5,-336.5 125.5,-355.5 232.5,-355.5 232.5,-336.5 125.5,-336.5"/>
<text text-anchor="middle" x="179" y="-343.5" font-family="Helvetica,sans-Serif" font-size="10.00">src/MPD/Listener.hh</text>
</a>
</g>
<!-- Node2&#45;&gt;Node3 -->
<g id="edge4" class="edge"><title>Node2&#45;&gt;Node3</title>
<path fill="none" stroke="midnightblue" d="M179,-381.805C179,-372.91 179,-362.78 179,-355.751"/>
<polygon fill="midnightblue" stroke="midnightblue" points="175.5,-382.083 179,-392.083 182.5,-382.083 175.5,-382.083"/>
</g>
<!-- Node4 -->
<g id="node7" class="node"><title>Node4</title>
<a xlink:href="BaseClient_8hh.html" target="_top" xlink:title="src/MPD/BaseClient.hh">
<polygon fill="white" stroke="black" points="119,-280.5 119,-299.5 239,-299.5 239,-280.5 119,-280.5"/>
<text text-anchor="middle" x="179" y="-287.5" font-family="Helvetica,sans-Serif" font-size="10.00">src/MPD/BaseClient.hh</text>
</a>
</g>
<!-- Node3&#45;&gt;Node4 -->
<g id="edge6" class="edge"><title>Node3&#45;&gt;Node4</title>
<path fill="none" stroke="midnightblue" d="M179,-325.805C179,-316.91 179,-306.78 179,-299.751"/>
<polygon fill="midnightblue" stroke="midnightblue" points="175.5,-326.083 179,-336.083 182.5,-326.083 175.5,-326.083"/>
</g>
<!-- Node5 -->
<g id="node9" class="node"><title>Node5</title>
<a xlink:href="Client_8hh.html" target="_top" xlink:title="src/MPD/Client.hh">
<polygon fill="white" stroke="black" points="1796,-224.5 1796,-243.5 1894,-243.5 1894,-224.5 1796,-224.5"/>
<text text-anchor="middle" x="1845" y="-231.5" font-family="Helvetica,sans-Serif" font-size="10.00">src/MPD/Client.hh</text>
</a>
</g>
<!-- Node4&#45;&gt;Node5 -->
<g id="edge8" class="edge"><title>Node4&#45;&gt;Node5</title>
<path fill="none" stroke="midnightblue" d="M249.294,-286.722C528.8,-277.662 1557.77,-244.31 1795.68,-236.599"/>
<polygon fill="midnightblue" stroke="midnightblue" points="249.159,-283.224 239.278,-287.046 249.386,-290.22 249.159,-283.224"/>
</g>
<!-- Node30 -->
<g id="node80" class="node"><title>Node30</title>
<a xlink:href="AbstractClientExtension_8hh.html" target="_top" xlink:title="src/MPD/AbstractClientExtension.hh">
<polygon fill="white" stroke="black" points="61,-224.5 61,-243.5 239,-243.5 239,-224.5 61,-224.5"/>
<text text-anchor="middle" x="150" y="-231.5" font-family="Helvetica,sans-Serif" font-size="10.00">src/MPD/AbstractClientExtension.hh</text>
</a>
</g>
<!-- Node4&#45;&gt;Node30 -->
<g id="edge100" class="edge"><title>Node4&#45;&gt;Node30</title>
<path fill="none" stroke="midnightblue" d="M169.324,-270.983C164.402,-261.817 158.642,-251.092 154.7,-243.751"/>
<polygon fill="midnightblue" stroke="midnightblue" points="166.396,-272.929 174.211,-280.083 172.563,-269.617 166.396,-272.929"/>
</g>
<!-- Node6 -->
<g id="node11" class="node"><title>Node6</title>
<a xlink:href="AbstractClientUser_8hh.html" target="_top" xlink:title="src/MPD/AbstractClientUser.hh">
<polygon fill="white" stroke="black" points="1714.5,-168.5 1714.5,-187.5 1869.5,-187.5 1869.5,-168.5 1714.5,-168.5"/>
<text text-anchor="middle" x="1792" y="-175.5" font-family="Helvetica,sans-Serif" font-size="10.00">src/MPD/AbstractClientUser.hh</text>
</a>
</g>
<!-- Node5&#45;&gt;Node6 -->
<g id="edge10" class="edge"><title>Node5&#45;&gt;Node6</title>
<path fill="none" stroke="midnightblue" d="M1829.02,-216.718C1819.68,-207.2 1808.25,-195.561 1800.59,-187.751"/>
<polygon fill="midnightblue" stroke="midnightblue" points="1826.75,-219.398 1836.25,-224.083 1831.74,-214.494 1826.75,-219.398"/>
</g>
<!-- Node7 -->
<g id="node13" class="node"><title>Node7</title>
<a xlink:href="Database_8hh.html" target="_top" xlink:title="src/Browser/Database/Database.hh">
<polygon fill="white" stroke="black" points="544.5,-112.5 544.5,-131.5 717.5,-131.5 717.5,-112.5 544.5,-112.5"/>
<text text-anchor="middle" x="631" y="-119.5" font-family="Helvetica,sans-Serif" font-size="10.00">src/Browser/Database/Database.hh</text>
</a>
</g>
<!-- Node5&#45;&gt;Node7 -->
<g id="edge68" class="edge"><title>Node5&#45;&gt;Node7</title>
<path fill="none" stroke="midnightblue" d="M1785.62,-232.264C1647.74,-230.023 1295.38,-221.236 1003,-188 881.021,-174.134 738.459,-145.777 670.686,-131.546"/>
<polygon fill="midnightblue" stroke="midnightblue" points="1785.9,-235.768 1795.95,-232.426 1786.01,-228.769 1785.9,-235.768"/>
</g>
<!-- Node9 -->
<g id="node17" class="node"><title>Node9</title>
<a xlink:href="PlaylistManager_8hh.html" target="_top" xlink:title="src/Browser/PlaylistManager/PlaylistManager.hh">
<polygon fill="white" stroke="black" points="298,-112.5 298,-131.5 526,-131.5 526,-112.5 298,-112.5"/>
<text text-anchor="middle" x="412" y="-119.5" font-family="Helvetica,sans-Serif" font-size="10.00">src/Browser/PlaylistManager/PlaylistManager.hh</text>
</a>
</g>
<!-- Node5&#45;&gt;Node9 -->
<g id="edge70" class="edge"><title>Node5&#45;&gt;Node9</title>
<path fill="none" stroke="midnightblue" d="M1785.9,-232.264C1633.3,-229.935 1213.73,-220.808 866,-188 717.565,-173.995 543.378,-145.702 460.527,-131.516"/>
<polygon fill="midnightblue" stroke="midnightblue" points="1785.94,-235.765 1795.99,-232.414 1786.04,-228.766 1785.94,-235.765"/>
</g>
<!-- Node10 -->
<g id="node19" class="node"><title>Node10</title>
<a xlink:href="PlaylistAddDialog_8hh.html" target="_top" xlink:title="src/Browser/Queue/PlaylistAddDialog.hh">
<polygon fill="white" stroke="black" points="1181,-112.5 1181,-131.5 1375,-131.5 1375,-112.5 1181,-112.5"/>
<text text-anchor="middle" x="1278" y="-119.5" font-family="Helvetica,sans-Serif" font-size="10.00">src/Browser/Queue/PlaylistAddDialog.hh</text>
</a>
</g>
<!-- Node5&#45;&gt;Node10 -->
<g id="edge72" class="edge"><title>Node5&#45;&gt;Node10</title>
<path fill="none" stroke="midnightblue" d="M1790.94,-222.512C1679.16,-200.827 1424.53,-151.427 1321.99,-131.535"/>
<polygon fill="midnightblue" stroke="midnightblue" points="1790.5,-225.991 1800.98,-224.46 1791.83,-219.119 1790.5,-225.991"/>
</g>
<!-- Node11 -->
<g id="node21" class="node"><title>Node11</title>
<a xlink:href="Queue_8hh.html" target="_top" xlink:title="src/Browser/Queue/Queue.hh">
<polygon fill="white" stroke="black" points="1306,-56.5 1306,-75.5 1452,-75.5 1452,-56.5 1306,-56.5"/>
<text text-anchor="middle" x="1379" y="-63.5" font-family="Helvetica,sans-Serif" font-size="10.00">src/Browser/Queue/Queue.hh</text>
</a>
</g>
<!-- Node5&#45;&gt;Node11 -->
<g id="edge74" class="edge"><title>Node5&#45;&gt;Node11</title>
<path fill="none" stroke="midnightblue" d="M1785.54,-233.576C1635.95,-233.62 1250.38,-224.568 1172,-132 1131.47,-84.1362 1231.23,-71.0372 1305.93,-67.7284"/>
<polygon fill="midnightblue" stroke="midnightblue" points="1785.9,-237.075 1795.89,-233.558 1785.88,-230.075 1785.9,-237.075"/>
</g>
<!-- Node13 -->
<g id="node27" class="node"><title>Node13</title>
<a xlink:href="SettingsPlayback_8hh.html" target="_top" xlink:title="src/Browser/Settings/SettingsPlayback.hh">
<polygon fill="white" stroke="black" points="735.5,-112.5 735.5,-131.5 936.5,-131.5 936.5,-112.5 735.5,-112.5"/>
<text text-anchor="middle" x="836" y="-119.5" font-family="Helvetica,sans-Serif" font-size="10.00">src/Browser/Settings/SettingsPlayback.hh</text>
</a>
</g>
<!-- Node5&#45;&gt;Node13 -->
<g id="edge76" class="edge"><title>Node5&#45;&gt;Node13</title>
<path fill="none" stroke="midnightblue" d="M1785.3,-232.999C1658.65,-232.206 1353.98,-226.104 1102,-188 1013.87,-174.673 912.141,-145.999 864.012,-131.608"/>
<polygon fill="midnightblue" stroke="midnightblue" points="1785.54,-236.5 1795.56,-233.054 1785.58,-229.5 1785.54,-236.5"/>
</g>
<!-- Node15 -->
<g id="node31" class="node"><title>Node15</title>
<a xlink:href="Trayicon_8hh.html" target="_top" xlink:title="src/GManager/Trayicon.hh">
<polygon fill="white" stroke="black" points="993,-112.5 993,-131.5 1125,-131.5 1125,-112.5 993,-112.5"/>
<text text-anchor="middle" x="1059" y="-119.5" font-family="Helvetica,sans-Serif" font-size="10.00">src/GManager/Trayicon.hh</text>
</a>
</g>
<!-- Node5&#45;&gt;Node15 -->
<g id="edge78" class="edge"><title>Node5&#45;&gt;Node15</title>
<path fill="none" stroke="midnightblue" d="M1785.69,-231.288C1626.6,-226.407 1198.42,-211.251 1139,-188 1107.67,-175.74 1079.21,-146.432 1066.3,-131.727"/>
<polygon fill="midnightblue" stroke="midnightblue" points="1785.67,-234.789 1795.77,-231.595 1785.88,-227.793 1785.67,-234.789"/>
</g>
<!-- Node17 -->
<g id="node37" class="node"><title>Node17</title>
<a xlink:href="SettingsOutputs_8hh.html" target="_top" xlink:title="src/Browser/Settings/SettingsOutputs.hh">
<polygon fill="white" stroke="black" points="400.5,-56.5 400.5,-75.5 595.5,-75.5 595.5,-56.5 400.5,-56.5"/>
<text text-anchor="middle" x="498" y="-63.5" font-family="Helvetica,sans-Serif" font-size="10.00">src/Browser/Settings/SettingsOutputs.hh</text>
</a>
</g>
<!-- Node5&#45;&gt;Node17 -->
<g id="edge80" class="edge"><title>Node5&#45;&gt;Node17</title>
<path fill="none" stroke="midnightblue" d="M1785.57,-232.677C1615.83,-231.32 1114.44,-224.293 700,-188 516.348,-171.917 410.24,-270.879 289,-132 251.64,-89.2045 329.192,-74.2254 400.184,-69.1688"/>
<polygon fill="midnightblue" stroke="midnightblue" points="1785.76,-236.178 1795.79,-232.755 1785.82,-229.178 1785.76,-236.178"/>
</g>
<!-- Node19 -->
<g id="node42" class="node"><title>Node19</title>
<a xlink:href="Heartbeat_8hh.html" target="_top" xlink:title="src/GManager/Heartbeat.hh">
<polygon fill="white" stroke="black" points="2261.5,-112.5 2261.5,-131.5 2398.5,-131.5 2398.5,-112.5 2261.5,-112.5"/>
<text text-anchor="middle" x="2330" y="-119.5" font-family="Helvetica,sans-Serif" font-size="10.00">src/GManager/Heartbeat.hh</text>
</a>
</g>
<!-- Node5&#45;&gt;Node19 -->
<g id="edge84" class="edge"><title>Node5&#45;&gt;Node19</title>
<path fill="none" stroke="midnightblue" d="M1858.88,-216.692C1873.04,-201.283 1896.5,-178.946 1922,-168 1923.93,-167.17 2145.4,-143.038 2261.19,-130.463"/>
<polygon fill="midnightblue" stroke="midnightblue" points="1856.04,-214.622 1852.02,-224.424 1861.27,-219.269 1856.04,-214.622"/>
</g>
<!-- Node20 -->
<g id="node44" class="node"><title>Node20</title>
<a xlink:href="Statusbar_8hh.html" target="_top" xlink:title="src/GManager/Statusbar.hh">
<polygon fill="white" stroke="black" points="2261.5,-56.5 2261.5,-75.5 2398.5,-75.5 2398.5,-56.5 2261.5,-56.5"/>
<text text-anchor="middle" x="2330" y="-63.5" font-family="Helvetica,sans-Serif" font-size="10.00">src/GManager/Statusbar.hh</text>
</a>
</g>
<!-- Node5&#45;&gt;Node20 -->
<g id="edge90" class="edge"><title>Node5&#45;&gt;Node20</title>
<path fill="none" stroke="midnightblue" d="M1904.33,-233.393C2158.79,-234.463 3148.98,-232.132 3240,-132 3245.98,-125.422 3246.13,-118.439 3240,-112 3211.1,-81.6367 2606,-70.702 2398.85,-67.8402"/>
<polygon fill="midnightblue" stroke="midnightblue" points="1904.2,-229.892 1894.18,-233.347 1904.16,-236.892 1904.2,-229.892"/>
</g>
<!-- Node22 -->
<g id="node48" class="node"><title>Node22</title>
<a xlink:href="MenuList_8hh.html" target="_top" xlink:title="src/GManager/MenuList.hh">
<polygon fill="white" stroke="black" points="2417,-112.5 2417,-131.5 2551,-131.5 2551,-112.5 2417,-112.5"/>
<text text-anchor="middle" x="2484" y="-119.5" font-family="Helvetica,sans-Serif" font-size="10.00">src/GManager/MenuList.hh</text>
</a>
</g>
<!-- Node5&#45;&gt;Node22 -->
<g id="edge86" class="edge"><title>Node5&#45;&gt;Node22</title>
<path fill="none" stroke="midnightblue" d="M1868.47,-219.013C1899.2,-200.813 1950.31,-170.969 1960,-168 2150.56,-109.594 2208.65,-151.572 2407,-132 2410.21,-131.683 2413.5,-131.346 2416.82,-130.996"/>
<polygon fill="midnightblue" stroke="midnightblue" points="1866.47,-216.131 1859.66,-224.245 1870.04,-222.15 1866.47,-216.131"/>
</g>
<!-- Node24 -->
<g id="node52" class="node"><title>Node24</title>
<a xlink:href="PlaybackButtons_8hh.html" target="_top" xlink:title="src/GManager/PlaybackButtons.hh">
<polygon fill="white" stroke="black" points="2569.5,-112.5 2569.5,-131.5 2738.5,-131.5 2738.5,-112.5 2569.5,-112.5"/>
<text text-anchor="middle" x="2654" y="-119.5" font-family="Helvetica,sans-Serif" font-size="10.00">src/GManager/PlaybackButtons.hh</text>
</a>
</g>
<!-- Node5&#45;&gt;Node24 -->
<g id="edge88" class="edge"><title>Node5&#45;&gt;Node24</title>
<path fill="none" stroke="midnightblue" d="M1877.64,-220.859C1899.98,-212.288 1930.11,-200.199 1956,-188 1972.91,-180.032 1975.03,-173.157 1993,-168 2114.35,-133.172 2434.14,-142.018 2560,-132 2563.11,-131.753 2566.27,-131.493 2569.46,-131.223"/>
<polygon fill="midnightblue" stroke="midnightblue" points="1876.38,-217.595 1868.28,-224.422 1878.87,-224.137 1876.38,-217.595"/>
</g>
<!-- Node25 -->
<g id="node55" class="node"><title>Node25</title>
<a xlink:href="StatusIcons_8hh.html" target="_top" xlink:title="src/GManager/StatusIcons.hh">
<polygon fill="white" stroke="black" points="2756.5,-112.5 2756.5,-131.5 2903.5,-131.5 2903.5,-112.5 2756.5,-112.5"/>
<text text-anchor="middle" x="2830" y="-119.5" font-family="Helvetica,sans-Serif" font-size="10.00">src/GManager/StatusIcons.hh</text>
</a>
</g>
<!-- Node5&#45;&gt;Node25 -->
<g id="edge92" class="edge"><title>Node5&#45;&gt;Node25</title>
<path fill="none" stroke="midnightblue" d="M1904.07,-228.324C1996.21,-220.86 2179.72,-205.319 2335,-188 2492.64,-170.418 2677.85,-144.758 2770.66,-131.553"/>
<polygon fill="midnightblue" stroke="midnightblue" points="1903.78,-224.835 1894.1,-229.129 1904.35,-231.813 1903.78,-224.835"/>
</g>
<!-- Node26 -->
<g id="node58" class="node"><title>Node26</title>
<a xlink:href="TitleLabel_8hh.html" target="_top" xlink:title="src/GManager/TitleLabel.hh">
<polygon fill="white" stroke="black" points="2921.5,-112.5 2921.5,-131.5 3058.5,-131.5 3058.5,-112.5 2921.5,-112.5"/>
<text text-anchor="middle" x="2990" y="-119.5" font-family="Helvetica,sans-Serif" font-size="10.00">src/GManager/TitleLabel.hh</text>
</a>
</g>
<!-- Node5&#45;&gt;Node26 -->
<g id="edge94" class="edge"><title>Node5&#45;&gt;Node26</title>
<path fill="none" stroke="midnightblue" d="M1904.22,-229.221C2010.05,-222.297 2238.6,-206.567 2431,-188 2609.46,-170.779 2819.29,-144.849 2923.83,-131.543"/>
<polygon fill="midnightblue" stroke="midnightblue" points="1903.81,-225.74 1894.06,-229.884 1904.27,-232.726 1903.81,-225.74"/>
</g>
<!-- Node27 -->
<g id="node60" class="node"><title>Node27</title>
<a xlink:href="Volumebutton_8hh.html" target="_top" xlink:title="src/GManager/Volumebutton.hh">
<polygon fill="white" stroke="black" points="3076.5,-112.5 3076.5,-131.5 3231.5,-131.5 3231.5,-112.5 3076.5,-112.5"/>
<text text-anchor="middle" x="3154" y="-119.5" font-family="Helvetica,sans-Serif" font-size="10.00">src/GManager/Volumebutton.hh</text>
</a>
</g>
<!-- Node5&#45;&gt;Node27 -->
<g id="edge96" class="edge"><title>Node5&#45;&gt;Node27</title>
<path fill="none" stroke="midnightblue" d="M1904.27,-229.958C2024.09,-223.631 2303.67,-207.963 2538,-188 2735.16,-171.204 2967.13,-144.973 3082.02,-131.547"/>
<polygon fill="midnightblue" stroke="midnightblue" points="1904.01,-226.467 1894.2,-230.488 1904.37,-233.457 1904.01,-226.467"/>
</g>
<!-- Node28 -->
<g id="node69" class="node"><title>Node28</title>
<a xlink:href="StatBrowser_8hh.html" target="_top" xlink:title="src/Browser/Statistics/StatBrowser.hh">
<polygon fill="white" stroke="black" points="2002,-168.5 2002,-187.5 2186,-187.5 2186,-168.5 2002,-168.5"/>
<text text-anchor="middle" x="2094" y="-175.5" font-family="Helvetica,sans-Serif" font-size="10.00">src/Browser/Statistics/StatBrowser.hh</text>
</a>
</g>
<!-- Node5&#45;&gt;Node28 -->
<g id="edge82" class="edge"><title>Node5&#45;&gt;Node28</title>
<path fill="none" stroke="midnightblue" d="M1894.42,-222.281C1941.48,-212.077 2011.37,-196.92 2054.73,-187.516"/>
<polygon fill="midnightblue" stroke="midnightblue" points="1893.49,-218.904 1884.45,-224.444 1894.97,-225.745 1893.49,-218.904"/>
</g>
<!-- Node29 -->
<g id="node78" class="node"><title>Node29</title>
<a xlink:href="check__mpd_8hh.html" target="_top" xlink:title="src/MPD/check_mpd.hh">
<polygon fill="white" stroke="black" points="2204,-168.5 2204,-187.5 2326,-187.5 2326,-168.5 2204,-168.5"/>
<text text-anchor="middle" x="2265" y="-175.5" font-family="Helvetica,sans-Serif" font-size="10.00">src/MPD/check_mpd.hh</text>
</a>
</g>
<!-- Node5&#45;&gt;Node29 -->
<g id="edge98" class="edge"><title>Node5&#45;&gt;Node29</title>
<path fill="none" stroke="midnightblue" d="M1904.31,-225.375C1983.61,-215.179 2123.49,-197.194 2203.76,-186.873"/>
<polygon fill="midnightblue" stroke="midnightblue" points="1903.47,-221.953 1894,-226.7 1904.37,-228.896 1903.47,-221.953"/>
</g>
<!-- Node6&#45;&gt;Node7 -->
<g id="edge12" class="edge"><title>Node6&#45;&gt;Node7</title>
<path fill="none" stroke="midnightblue" d="M1704.28,-174.849C1521.93,-170.035 1088.75,-156.822 726,-132 723.273,-131.813 720.503,-131.613 717.706,-131.403"/>
<polygon fill="midnightblue" stroke="midnightblue" points="1704.26,-178.349 1714.35,-175.113 1704.44,-171.352 1704.26,-178.349"/>
</g>
<!-- Node8 -->
<g id="node15" class="node"><title>Node8</title>
<a xlink:href="DatabaseCache_8hh.html" target="_top" xlink:title="src/Browser/Database/DatabaseCache.hh">
<polygon fill="white" stroke="black" points="2003.5,-112.5 2003.5,-131.5 2204.5,-131.5 2204.5,-112.5 2003.5,-112.5"/>
<text text-anchor="middle" x="2104" y="-119.5" font-family="Helvetica,sans-Serif" font-size="10.00">src/Browser/Database/DatabaseCache.hh</text>
</a>
</g>
<!-- Node6&#45;&gt;Node8 -->
<g id="edge14" class="edge"><title>Node6&#45;&gt;Node8</title>
<path fill="none" stroke="midnightblue" d="M1851.35,-166.727C1910.31,-156.523 1999.66,-141.058 2054.79,-131.516"/>
<polygon fill="midnightblue" stroke="midnightblue" points="1850.69,-163.289 1841.44,-168.444 1851.89,-170.187 1850.69,-163.289"/>
</g>
<!-- Node6&#45;&gt;Node9 -->
<g id="edge16" class="edge"><title>Node6&#45;&gt;Node9</title>
<path fill="none" stroke="midnightblue" d="M1704.26,-174.984C1499.41,-170.03 973.769,-155.898 535,-132 532.114,-131.843 529.19,-131.677 526.24,-131.504"/>
<polygon fill="midnightblue" stroke="midnightblue" points="1704.27,-178.485 1714.35,-175.227 1704.44,-171.487 1704.27,-178.485"/>
</g>
<!-- Node6&#45;&gt;Node10 -->
<g id="edge18" class="edge"><title>Node6&#45;&gt;Node10</title>
<path fill="none" stroke="midnightblue" d="M1704.44,-167.802C1607.71,-157.638 1453.19,-141.405 1359.11,-131.522"/>
<polygon fill="midnightblue" stroke="midnightblue" points="1704.18,-171.293 1714.49,-168.857 1704.91,-164.331 1704.18,-171.293"/>
</g>
<!-- Node6&#45;&gt;Node11 -->
<g id="edge22" class="edge"><title>Node6&#45;&gt;Node11</title>
<path fill="none" stroke="midnightblue" d="M1785.96,-158.219C1780.06,-143.118 1769.53,-122.713 1753,-112 1704.84,-80.7877 1546.94,-71.2216 1452.4,-68.2916"/>
<polygon fill="midnightblue" stroke="midnightblue" points="1782.81,-159.811 1789.45,-168.064 1789.41,-157.469 1782.81,-159.811"/>
</g>
<!-- Node12 -->
<g id="node24" class="node"><title>Node12</title>
<a xlink:href="QueueMerger_8hh.html" target="_top" xlink:title="src/Browser/Queue/QueueMerger.hh">
<polygon fill="white" stroke="black" points="1393,-112.5 1393,-131.5 1569,-131.5 1569,-112.5 1393,-112.5"/>
<text text-anchor="middle" x="1481" y="-119.5" font-family="Helvetica,sans-Serif" font-size="10.00">src/Browser/Queue/QueueMerger.hh</text>
</a>
</g>
<!-- Node6&#45;&gt;Node12 -->
<g id="edge24" class="edge"><title>Node6&#45;&gt;Node12</title>
<path fill="none" stroke="midnightblue" d="M1732.84,-166.727C1674.07,-156.523 1585,-141.058 1530.05,-131.516"/>
<polygon fill="midnightblue" stroke="midnightblue" points="1732.27,-170.181 1742.72,-168.444 1733.47,-163.284 1732.27,-170.181"/>
</g>
<!-- Node6&#45;&gt;Node13 -->
<g id="edge28" class="edge"><title>Node6&#45;&gt;Node13</title>
<path fill="none" stroke="midnightblue" d="M1704,-173.006C1550.88,-165.897 1225.55,-150.086 951,-132 946.304,-131.691 941.501,-131.362 936.65,-131.021"/>
<polygon fill="midnightblue" stroke="midnightblue" points="1704.13,-176.516 1714.28,-173.482 1704.45,-169.523 1704.13,-176.516"/>
</g>
<!-- Node6&#45;&gt;Node15 -->
<g id="edge32" class="edge"><title>Node6&#45;&gt;Node15</title>
<path fill="none" stroke="midnightblue" d="M1703.93,-170.803C1583.71,-162.3 1361.52,-146.425 1172,-132 1156.79,-130.842 1140.44,-129.561 1125.02,-128.337"/>
<polygon fill="midnightblue" stroke="midnightblue" points="1703.95,-174.314 1714.18,-171.528 1704.45,-167.331 1703.95,-174.314"/>
</g>
<!-- Node6&#45;&gt;Node17 -->
<g id="edge40" class="edge"><title>Node6&#45;&gt;Node17</title>
<path fill="none" stroke="midnightblue" d="M1704.11,-176.7C1523.75,-175.334 1117.52,-168.197 984,-132 965.199,-126.903 963.682,-117.516 945,-112 828.306,-77.5461 687.844,-68.3727 595.915,-66.4632"/>
<polygon fill="midnightblue" stroke="midnightblue" points="1704.33,-180.201 1714.36,-176.773 1704.38,-173.201 1704.33,-180.201"/>
</g>
<!-- Node18 -->
<g id="node40" class="node"><title>Node18</title>
<a xlink:href="BrowserList_8hh.html" target="_top" xlink:title="src/GManager/BrowserList.hh">
<polygon fill="white" stroke="black" points="1839,-112.5 1839,-131.5 1985,-131.5 1985,-112.5 1839,-112.5"/>
<text text-anchor="middle" x="1912" y="-119.5" font-family="Helvetica,sans-Serif" font-size="10.00">src/GManager/BrowserList.hh</text>
</a>
</g>
<!-- Node6&#45;&gt;Node18 -->
<g id="edge44" class="edge"><title>Node6&#45;&gt;Node18</title>
<path fill="none" stroke="midnightblue" d="M1820.37,-164.232C1842.82,-154.131 1873.54,-140.309 1893.07,-131.516"/>
<polygon fill="midnightblue" stroke="midnightblue" points="1818.7,-161.148 1811.01,-168.444 1821.57,-167.532 1818.7,-161.148"/>
</g>
<!-- Node6&#45;&gt;Node19 -->
<g id="edge46" class="edge"><title>Node6&#45;&gt;Node19</title>
<path fill="none" stroke="midnightblue" d="M1879.71,-168.37C2001.66,-156.365 2211.53,-135.677 2247,-132 2251.61,-131.522 2256.37,-131.022 2261.16,-130.515"/>
<polygon fill="midnightblue" stroke="midnightblue" points="1879.25,-164.899 1869.64,-169.361 1879.94,-171.865 1879.25,-164.899"/>
</g>
<!-- Node6&#45;&gt;Node20 -->
<g id="edge58" class="edge"><title>Node6&#45;&gt;Node20</title>
<path fill="none" stroke="midnightblue" d="M1880,-168.495C1998.75,-156.887 2197.36,-136.954 2213,-132 2223.8,-128.579 2286.03,-92.6557 2315.08,-75.7302"/>
<polygon fill="midnightblue" stroke="midnightblue" points="1879.44,-165.033 1869.83,-169.489 1880.12,-172 1879.44,-165.033"/>
</g>
<!-- Node21 -->
<g id="node46" class="node"><title>Node21</title>
<a xlink:href="Timeslide_8hh.html" target="_top" xlink:title="src/GManager/Timeslide.hh">
<polygon fill="white" stroke="black" points="1924.5,-56.5 1924.5,-75.5 2061.5,-75.5 2061.5,-56.5 1924.5,-56.5"/>
<text text-anchor="middle" x="1993" y="-63.5" font-family="Helvetica,sans-Serif" font-size="10.00">src/GManager/Timeslide.hh</text>
</a>
</g>
<!-- Node6&#45;&gt;Node21 -->
<g id="edge62" class="edge"><title>Node6&#45;&gt;Node21</title>
<path fill="none" stroke="midnightblue" d="M1798.19,-158.848C1804.13,-144.126 1814.49,-123.927 1830,-112 1857,-91.2402 1892.99,-80.0545 1924.29,-74.0288"/>
<polygon fill="midnightblue" stroke="midnightblue" points="1794.85,-157.81 1794.65,-168.403 1801.41,-160.246 1794.85,-157.81"/>
</g>
<!-- Node6&#45;&gt;Node22 -->
<g id="edge52" class="edge"><title>Node6&#45;&gt;Node22</title>
<path fill="none" stroke="midnightblue" d="M1879.92,-170.779C2037.41,-159.604 2356,-136.844 2407,-132 2410.22,-131.695 2413.51,-131.367 2416.83,-131.025"/>
<polygon fill="midnightblue" stroke="midnightblue" points="1879.52,-167.299 1869.79,-171.498 1880.01,-174.281 1879.52,-167.299"/>
</g>
<!-- Node23 -->
<g id="node50" class="node"><title>Node23</title>
<a xlink:href="NotifyManager_8hh.html" target="_top" xlink:title="src/GManager/NotifyManager.hh">
<polygon fill="white" stroke="black" points="1587,-112.5 1587,-131.5 1745,-131.5 1745,-112.5 1587,-112.5"/>
<text text-anchor="middle" x="1666" y="-119.5" font-family="Helvetica,sans-Serif" font-size="10.00">src/GManager/NotifyManager.hh</text>
</a>
</g>
<!-- Node6&#45;&gt;Node23 -->
<g id="edge54" class="edge"><title>Node6&#45;&gt;Node23</title>
<path fill="none" stroke="midnightblue" d="M1762.84,-164.503C1739.22,-154.38 1706.57,-140.388 1685.87,-131.516"/>
<polygon fill="midnightblue" stroke="midnightblue" points="1761.46,-167.721 1772.03,-168.444 1764.22,-161.287 1761.46,-167.721"/>
</g>
<!-- Node6&#45;&gt;Node24 -->
<g id="edge56" class="edge"><title>Node6&#45;&gt;Node24</title>
<path fill="none" stroke="midnightblue" d="M1879.62,-172.275C2052.08,-162.907 2430.09,-142.022 2560,-132 2563.11,-131.76 2566.27,-131.507 2569.46,-131.243"/>
<polygon fill="midnightblue" stroke="midnightblue" points="1879.36,-168.784 1869.56,-172.821 1879.74,-175.774 1879.36,-168.784"/>
</g>
<!-- Node6&#45;&gt;Node25 -->
<g id="edge60" class="edge"><title>Node6&#45;&gt;Node25</title>
<path fill="none" stroke="midnightblue" d="M1879.86,-173.005C2107.95,-162.616 2704.24,-135.322 2747,-132 2750.03,-131.764 2753.13,-131.507 2756.26,-131.232"/>
<polygon fill="midnightblue" stroke="midnightblue" points="1879.44,-169.521 1869.61,-173.472 1879.76,-176.514 1879.44,-169.521"/>
</g>
<!-- Node6&#45;&gt;Node26 -->
<g id="edge64" class="edge"><title>Node6&#45;&gt;Node26</title>
<path fill="none" stroke="midnightblue" d="M1880.02,-172.952C1915.16,-171.364 1955.99,-169.553 1993,-168 2401.4,-150.858 2504.45,-163.449 2912,-132 2914.99,-131.769 2918.04,-131.512 2921.12,-131.234"/>
<polygon fill="midnightblue" stroke="midnightblue" points="1879.62,-169.467 1869.79,-173.415 1879.94,-176.459 1879.62,-169.467"/>
</g>
<!-- Node6&#45;&gt;Node27 -->
<g id="edge66" class="edge"><title>Node6&#45;&gt;Node27</title>
<path fill="none" stroke="midnightblue" d="M1880.01,-172.845C1915.16,-171.241 1955.99,-169.449 1993,-168 2470.24,-149.318 2590.51,-164.592 3067,-132 3070.03,-131.793 3073.12,-131.563 3076.23,-131.315"/>
<polygon fill="midnightblue" stroke="midnightblue" points="1879.61,-169.359 1869.78,-173.313 1879.93,-176.352 1879.61,-169.359"/>
</g>
<!-- Node10&#45;&gt;Node11 -->
<g id="edge20" class="edge"><title>Node10&#45;&gt;Node11</title>
<path fill="none" stroke="midnightblue" d="M1303.08,-107.59C1321.76,-97.6052 1346.7,-84.2672 1362.81,-75.6545"/>
<polygon fill="midnightblue" stroke="midnightblue" points="1301.4,-104.522 1294.23,-112.324 1304.7,-110.696 1301.4,-104.522"/>
</g>
<!-- Node12&#45;&gt;Node11 -->
<g id="edge26" class="edge"><title>Node12&#45;&gt;Node11</title>
<path fill="none" stroke="midnightblue" d="M1455.67,-107.59C1436.81,-97.6052 1411.62,-84.2672 1395.35,-75.6545"/>
<polygon fill="midnightblue" stroke="midnightblue" points="1454.14,-110.738 1464.61,-112.324 1457.41,-104.552 1454.14,-110.738"/>
</g>
<!-- Node14 -->
<g id="node29" class="node"><title>Node14</title>
<a xlink:href="Settings_8hh.html" target="_top" xlink:title="src/Browser/Settings/Settings.hh">
<polygon fill="white" stroke="black" points="785.5,-0.5 785.5,-19.5 946.5,-19.5 946.5,-0.5 785.5,-0.5"/>
<text text-anchor="middle" x="866" y="-7.5" font-family="Helvetica,sans-Serif" font-size="10.00">src/Browser/Settings/Settings.hh</text>
</a>
</g>
<!-- Node13&#45;&gt;Node14 -->
<g id="edge30" class="edge"><title>Node13&#45;&gt;Node14</title>
<path fill="none" stroke="midnightblue" d="M840.998,-102.674C847.557,-78.6248 858.803,-37.3881 863.657,-19.5914"/>
<polygon fill="midnightblue" stroke="midnightblue" points="837.609,-101.8 838.354,-112.368 844.362,-103.642 837.609,-101.8"/>
</g>
<!-- Node15&#45;&gt;Node14 -->
<g id="edge38" class="edge"><title>Node15&#45;&gt;Node14</title>
<path fill="none" stroke="midnightblue" d="M1004.33,-109.989C978.235,-103.025 947.449,-92.2012 923,-76 899.979,-60.7452 880.604,-33.8401 871.527,-19.9126"/>
<polygon fill="midnightblue" stroke="midnightblue" points="1003.52,-113.395 1014.08,-112.471 1005.25,-106.611 1003.52,-113.395"/>
</g>
<!-- Node16 -->
<g id="node33" class="node"><title>Node16</title>
<a xlink:href="SettingsGeneral_8hh.html" target="_top" xlink:title="src/Browser/Settings/SettingsGeneral.hh">
<polygon fill="white" stroke="black" points="932,-56.5 932,-75.5 1126,-75.5 1126,-56.5 932,-56.5"/>
<text text-anchor="middle" x="1029" y="-63.5" font-family="Helvetica,sans-Serif" font-size="10.00">src/Browser/Settings/SettingsGeneral.hh</text>
</a>
</g>
<!-- Node15&#45;&gt;Node16 -->
<g id="edge34" class="edge"><title>Node15&#45;&gt;Node16</title>
<path fill="none" stroke="midnightblue" d="M1049.15,-103.275C1044.03,-94.0454 1037.98,-83.1703 1033.86,-75.7511"/>
<polygon fill="midnightblue" stroke="midnightblue" points="1046.13,-105.041 1054.05,-112.083 1052.25,-101.642 1046.13,-105.041"/>
</g>
<!-- Node16&#45;&gt;Node14 -->
<g id="edge36" class="edge"><title>Node16&#45;&gt;Node14</title>
<path fill="none" stroke="midnightblue" d="M993.297,-53.172C962.604,-43.0039 919.081,-28.5852 891.707,-19.5164"/>
<polygon fill="midnightblue" stroke="midnightblue" points="992.579,-56.6211 1003.17,-56.4435 994.78,-49.9762 992.579,-56.6211"/>
</g>
<!-- Node17&#45;&gt;Node14 -->
<g id="edge42" class="edge"><title>Node17&#45;&gt;Node14</title>
<path fill="none" stroke="midnightblue" d="M566.288,-54.9794C635.802,-44.7791 742.399,-29.1372 807.962,-19.5164"/>
<polygon fill="midnightblue" stroke="midnightblue" points="565.697,-51.5287 556.311,-56.4435 566.713,-58.4545 565.697,-51.5287"/>
</g>
<!-- Node19&#45;&gt;Node20 -->
<g id="edge48" class="edge"><title>Node19&#45;&gt;Node20</title>
<path fill="none" stroke="midnightblue" d="M2330,-101.805C2330,-92.9102 2330,-82.7798 2330,-75.7511"/>
<polygon fill="midnightblue" stroke="midnightblue" points="2326.5,-102.083 2330,-112.083 2333.5,-102.083 2326.5,-102.083"/>
</g>
<!-- Node19&#45;&gt;Node21 -->
<g id="edge50" class="edge"><title>Node19&#45;&gt;Node21</title>
<path fill="none" stroke="midnightblue" d="M2266.68,-110.854C2203.01,-100.651 2105.94,-85.0977 2046.15,-75.5164"/>
<polygon fill="midnightblue" stroke="midnightblue" points="2266.17,-114.317 2276.6,-112.444 2267.28,-107.405 2266.17,-114.317"/>
</g>
<!-- Node30&#45;&gt;Node31 -->
<g id="edge102" class="edge"><title>Node30&#45;&gt;Node31</title>
<path fill="none" stroke="midnightblue" d="M166.895,-217.537C177.415,-207.909 190.569,-195.869 199.348,-187.834"/>
<polygon fill="midnightblue" stroke="midnightblue" points="164.493,-214.99 159.479,-224.324 169.219,-220.154 164.493,-214.99"/>
</g>
<!-- Node32 -->
<g id="node85" class="node"><title>Node32</title>
<a xlink:href="AudioOutput_8hh.html" target="_top" xlink:title="src/MPD/AudioOutput.hh">
<polygon fill="white" stroke="black" points="13,-168.5 13,-187.5 139,-187.5 139,-168.5 13,-168.5"/>
<text text-anchor="middle" x="76" y="-175.5" font-family="Helvetica,sans-Serif" font-size="10.00">src/MPD/AudioOutput.hh</text>
</a>
</g>
<!-- Node30&#45;&gt;Node32 -->
<g id="edge106" class="edge"><title>Node30&#45;&gt;Node32</title>
<path fill="none" stroke="midnightblue" d="M129.966,-218.38C116.591,-208.62 99.4412,-196.106 88.1057,-187.834"/>
<polygon fill="midnightblue" stroke="midnightblue" points="127.97,-221.257 138.111,-224.324 132.096,-215.602 127.97,-221.257"/>
</g>
<!-- Node31&#45;&gt;Node9 -->
<g id="edge104" class="edge"><title>Node31&#45;&gt;Node9</title>
<path fill="none" stroke="midnightblue" d="M250.994,-165.829C289.323,-155.633 345.152,-140.782 379.985,-131.516"/>
<polygon fill="midnightblue" stroke="midnightblue" points="249.93,-162.49 241.166,-168.444 251.73,-169.255 249.93,-162.49"/>
</g>
<!-- Node33 -->
<g id="node87" class="node"><title>Node33</title>
<a xlink:href="OutputsModelColumns_8hh.html" target="_top" xlink:title="src/Browser/Settings/OutputsModelColumns.hh">
<polygon fill="white" stroke="black" points="0,-112.5 0,-131.5 224,-131.5 224,-112.5 0,-112.5"/>
<text text-anchor="middle" x="112" y="-119.5" font-family="Helvetica,sans-Serif" font-size="10.00">src/Browser/Settings/OutputsModelColumns.hh</text>
</a>
</g>
<!-- Node32&#45;&gt;Node33 -->
<g id="edge108" class="edge"><title>Node32&#45;&gt;Node33</title>
<path fill="none" stroke="midnightblue" d="M87.6229,-159.566C93.8168,-150.275 101.168,-139.248 106.166,-131.751"/>
<polygon fill="midnightblue" stroke="midnightblue" points="84.5795,-157.821 81.9447,-168.083 90.4039,-161.704 84.5795,-157.821"/>
</g>
<!-- Node33&#45;&gt;Node17 -->
<g id="edge110" class="edge"><title>Node33&#45;&gt;Node17</title>
<path fill="none" stroke="midnightblue" d="M183.181,-111.042C256.084,-100.843 368.212,-85.1569 437.123,-75.5164"/>
<polygon fill="midnightblue" stroke="midnightblue" points="182.581,-107.592 173.163,-112.444 183.551,-114.524 182.581,-107.592"/>
</g>
</g>
</svg>
