<?xml version="1.0" encoding="UTF-8" standalone="no"?>
<!DOCTYPE svg PUBLIC "-//W3C//DTD SVG 1.1//EN"
 "http://www.w3.org/Graphics/SVG/1.1/DTD/svg11.dtd">
<!-- Generated by graphviz version 2.28.0 (20111204.1018)
 -->
<!-- Title: G Pages: 1 -->
<svg width="284pt" height="140pt"
 viewBox="0.00 0.00 284.00 140.00" xmlns="http://www.w3.org/2000/svg" xmlns:xlink="http://www.w3.org/1999/xlink">
<g id="graph1" class="graph" transform="scale(1 1) rotate(0) translate(4 136)">
<title>G</title>
<polygon fill="white" stroke="white" points="-4,5 -4,-136 281,-136 281,5 -4,5"/>
<!-- Node1 -->
<g id="node1" class="node"><title>Node1</title>
<polygon fill="#bfbfbf" stroke="black" points="97.5,-112.5 97.5,-131.5 192.5,-131.5 192.5,-112.5 97.5,-112.5"/>
<text text-anchor="middle" x="145" y="-119.5" font-family="Helvetica,sans-Serif" font-size="10.00">src/MPD/Song.hh</text>
</g>
<!-- Node2 -->
<g id="node3" class="node"><title>Node2</title>
<polygon fill="white" stroke="#bfbfbf" points="0,-56.5 0,-75.5 70,-75.5 70,-56.5 0,-56.5"/>
<text text-anchor="middle" x="35" y="-63.5" font-family="Helvetica,sans-Serif" font-size="10.00">mpd/client.h</text>
</g>
<!-- Node1&#45;&gt;Node2 -->
<g id="edge2" class="edge"><title>Node1&#45;&gt;Node2</title>
<path fill="none" stroke="midnightblue" d="M127.327,-112.324C109.606,-103.625 82.0968,-90.1202 61.7116,-80.113"/>
<polygon fill="midnightblue" stroke="midnightblue" points="63.1486,-76.9195 52.6295,-75.6545 60.0639,-83.2031 63.1486,-76.9195"/>
</g>
<!-- Node3 -->
<g id="node5" class="node"><title>Node3</title>
<a xlink:href="AbstractComposite_8hh.html" target="_top" xlink:title="AbstractComposite.hh">
<polygon fill="white" stroke="black" points="88,-56.5 88,-75.5 202,-75.5 202,-56.5 88,-56.5"/>
<text text-anchor="middle" x="145" y="-63.5" font-family="Helvetica,sans-Serif" font-size="10.00">AbstractComposite.hh</text>
</a>
</g>
<!-- Node1&#45;&gt;Node3 -->
<g id="edge4" class="edge"><title>Node1&#45;&gt;Node3</title>
<path fill="none" stroke="midnightblue" d="M145,-112.083C145,-105.006 145,-94.8611 145,-85.9865"/>
<polygon fill="midnightblue" stroke="midnightblue" points="148.5,-85.751 145,-75.7511 141.5,-85.7511 148.5,-85.751"/>
</g>
<!-- Node5 -->
<g id="node9" class="node"><title>Node5</title>
<polygon fill="white" stroke="#bfbfbf" points="220,-56.5 220,-75.5 276,-75.5 276,-56.5 220,-56.5"/>
<text text-anchor="middle" x="248" y="-63.5" font-family="Helvetica,sans-Serif" font-size="10.00">glibmm.h</text>
</g>
<!-- Node1&#45;&gt;Node5 -->
<g id="edge8" class="edge"><title>Node1&#45;&gt;Node5</title>
<path fill="none" stroke="midnightblue" d="M161.549,-112.324C177.992,-103.703 203.435,-90.3643 222.468,-80.3855"/>
<polygon fill="midnightblue" stroke="midnightblue" points="224.261,-83.3977 231.492,-75.6545 221.011,-77.198 224.261,-83.3977"/>
</g>
<!-- Node4 -->
<g id="node7" class="node"><title>Node4</title>
<polygon fill="white" stroke="#bfbfbf" points="123,-0.5 123,-19.5 167,-19.5 167,-0.5 123,-0.5"/>
<text text-anchor="middle" x="145" y="-7.5" font-family="Helvetica,sans-Serif" font-size="10.00">vector</text>
</g>
<!-- Node3&#45;&gt;Node4 -->
<g id="edge6" class="edge"><title>Node3&#45;&gt;Node4</title>
<path fill="none" stroke="midnightblue" d="M145,-56.083C145,-49.0059 145,-38.8611 145,-29.9865"/>
<polygon fill="midnightblue" stroke="midnightblue" points="148.5,-29.751 145,-19.7511 141.5,-29.7511 148.5,-29.751"/>
</g>
</g>
</svg>
