<?xml version="1.0" encoding="UTF-8" standalone="no"?>
<!DOCTYPE svg PUBLIC "-//W3C//DTD SVG 1.1//EN"
 "http://www.w3.org/Graphics/SVG/1.1/DTD/svg11.dtd">
<!-- Generated by graphviz version 2.28.0 (20111204.1018)
 -->
<!-- Title: G Pages: 1 -->
<svg width="3253pt" height="476pt"
 viewBox="0.00 0.00 3252.58 476.00" xmlns="http://www.w3.org/2000/svg" xmlns:xlink="http://www.w3.org/1999/xlink">
<g id="graph1" class="graph" transform="scale(1 1) rotate(0) translate(4 472)">
<title>G</title>
<polygon fill="white" stroke="white" points="-4,5 -4,-472 3249.58,-472 3249.58,5 -4,5"/>
<!-- Node1 -->
<g id="node1" class="node"><title>Node1</title>
<polygon fill="#bfbfbf" stroke="black" points="175.5,-448.5 175.5,-467.5 270.5,-467.5 270.5,-448.5 175.5,-448.5"/>
<text text-anchor="middle" x="223" y="-455.5" font-family="Helvetica,sans-Serif" font-size="10.00">src/MPD/Song.hh</text>
</g>
<!-- Node2 -->
<g id="node3" class="node"><title>Node2</title>
<a xlink:href="NotifyData_8hh.html" target="_top" xlink:title="src/MPD/NotifyData.hh">
<polygon fill="white" stroke="black" points="119.5,-392.5 119.5,-411.5 238.5,-411.5 238.5,-392.5 119.5,-392.5"/>
<text text-anchor="middle" x="179" y="-399.5" font-family="Helvetica,sans-Serif" font-size="10.00">src/MPD/NotifyData.hh</text>
</a>
</g>
<!-- Node1&#45;&gt;Node2 -->
<g id="edge2" class="edge"><title>Node1&#45;&gt;Node2</title>
<path fill="none" stroke="midnightblue" d="M209.265,-440.144C201.599,-430.736 192.367,-419.405 186.131,-411.751"/>
<polygon fill="midnightblue" stroke="midnightblue" points="206.704,-442.541 215.734,-448.083 212.131,-438.12 206.704,-442.541"/>
</g>
<!-- Node30 -->
<g id="node80" class="node"><title>Node30</title>
<a xlink:href="Playlist_8hh.html" target="_top" xlink:title="src/MPD/Playlist.hh">
<polygon fill="white" stroke="black" points="157,-168.5 157,-187.5 261,-187.5 261,-168.5 157,-168.5"/>
<text text-anchor="middle" x="209" y="-175.5" font-family="Helvetica,sans-Serif" font-size="10.00">src/MPD/Playlist.hh</text>
</a>
</g>
<!-- Node1&#45;&gt;Node30 -->
<g id="edge110" class="edge"><title>Node1&#45;&gt;Node30</title>
<path fill="none" stroke="midnightblue" d="M234.568,-439.925C247.604,-418.987 267,-381.96 267,-347 267,-347 267,-347 267,-289 267,-258.775 261.488,-250.527 247,-224 239.256,-209.821 226.596,-196.003 218.038,-187.501"/>
<polygon fill="midnightblue" stroke="midnightblue" points="231.612,-438.051 229.118,-448.349 237.489,-441.854 231.612,-438.051"/>
</g>
<!-- Node3 -->
<g id="node5" class="node"><title>Node3</title>
<a xlink:href="Listener_8hh.html" target="_top" xlink:title="src/MPD/Listener.hh">
<polygon fill="white" stroke="black" points="125.5,-336.5 125.5,-355.5 232.5,-355.5 232.5,-336.5 125.5,-336.5"/>
<text text-anchor="middle" x="179" y="-343.5" font-family="Helvetica,sans-Serif" font-size="10.00">src/MPD/Listener.hh</text>
</a>
</g>
<!-- Node2&#45;&gt;Node3 -->
<g id="edge4" class="edge"><title>Node2&#45;&gt;Node3</title>
<path fill="none" stroke="midnightblue" d="M179,-381.805C179,-372.91 179,-362.78 179,-355.751"/>
<polygon fill="midnightblue" stroke="midnightblue" points="175.5,-382.083 179,-392.083 182.5,-382.083 175.5,-382.083"/>
</g>
<!-- Node4 -->
<g id="node7" class="node"><title>Node4</title>
<a xlink:href="BaseClient_8hh.html" target="_top" xlink:title="src/MPD/BaseClient.hh">
<polygon fill="white" stroke="black" points="119,-280.5 119,-299.5 239,-299.5 239,-280.5 119,-280.5"/>
<text text-anchor="middle" x="179" y="-287.5" font-family="Helvetica,sans-Serif" font-size="10.00">src/MPD/BaseClient.hh</text>
</a>
</g>
<!-- Node3&#45;&gt;Node4 -->
<g id="edge6" class="edge"><title>Node3&#45;&gt;Node4</title>
<path fill="none" stroke="midnightblue" d="M179,-325.805C179,-316.91 179,-306.78 179,-299.751"/>
<polygon fill="midnightblue" stroke="midnightblue" points="175.5,-326.083 179,-336.083 182.5,-326.083 175.5,-326.083"/>
</g>
<!-- Node5 -->
<g id="node9" class="node"><title>Node5</title>
<a xlink:href="Client_8hh.html" target="_top" xlink:title="src/MPD/Client.hh">
<polygon fill="white" stroke="black" points="1890,-224.5 1890,-243.5 1988,-243.5 1988,-224.5 1890,-224.5"/>
<text text-anchor="middle" x="1939" y="-231.5" font-family="Helvetica,sans-Serif" font-size="10.00">src/MPD/Client.hh</text>
</a>
</g>
<!-- Node4&#45;&gt;Node5 -->
<g id="edge8" class="edge"><title>Node4&#45;&gt;Node5</title>
<path fill="none" stroke="midnightblue" d="M249.48,-286.838C540.282,-277.915 1643.17,-244.077 1889.86,-236.508"/>
<polygon fill="midnightblue" stroke="midnightblue" points="248.962,-283.352 239.074,-287.157 249.177,-290.348 248.962,-283.352"/>
</g>
<!-- Node29 -->
<g id="node78" class="node"><title>Node29</title>
<a xlink:href="AbstractClientExtension_8hh.html" target="_top" xlink:title="src/MPD/AbstractClientExtension.hh">
<polygon fill="white" stroke="black" points="61,-224.5 61,-243.5 239,-243.5 239,-224.5 61,-224.5"/>
<text text-anchor="middle" x="150" y="-231.5" font-family="Helvetica,sans-Serif" font-size="10.00">src/MPD/AbstractClientExtension.hh</text>
</a>
</g>
<!-- Node4&#45;&gt;Node29 -->
<g id="edge98" class="edge"><title>Node4&#45;&gt;Node29</title>
<path fill="none" stroke="midnightblue" d="M169.324,-270.983C164.402,-261.817 158.642,-251.092 154.7,-243.751"/>
<polygon fill="midnightblue" stroke="midnightblue" points="166.396,-272.929 174.211,-280.083 172.563,-269.617 166.396,-272.929"/>
</g>
<!-- Node6 -->
<g id="node11" class="node"><title>Node6</title>
<a xlink:href="AbstractClientUser_8hh.html" target="_top" xlink:title="src/MPD/AbstractClientUser.hh">
<polygon fill="white" stroke="black" points="1709.5,-168.5 1709.5,-187.5 1864.5,-187.5 1864.5,-168.5 1709.5,-168.5"/>
<text text-anchor="middle" x="1787" y="-175.5" font-family="Helvetica,sans-Serif" font-size="10.00">src/MPD/AbstractClientUser.hh</text>
</a>
</g>
<!-- Node5&#45;&gt;Node6 -->
<g id="edge10" class="edge"><title>Node5&#45;&gt;Node6</title>
<path fill="none" stroke="midnightblue" d="M1905.33,-221.039C1876.73,-210.879 1836.39,-196.546 1810.97,-187.516"/>
<polygon fill="midnightblue" stroke="midnightblue" points="1904.32,-224.394 1914.92,-224.444 1906.66,-217.798 1904.32,-224.394"/>
</g>
<!-- Node7 -->
<g id="node13" class="node"><title>Node7</title>
<a xlink:href="Database_8hh.html" target="_top" xlink:title="src/Browser/Database/Database.hh">
<polygon fill="white" stroke="black" points="3058.5,-112.5 3058.5,-131.5 3231.5,-131.5 3231.5,-112.5 3058.5,-112.5"/>
<text text-anchor="middle" x="3145" y="-119.5" font-family="Helvetica,sans-Serif" font-size="10.00">src/Browser/Database/Database.hh</text>
</a>
</g>
<!-- Node5&#45;&gt;Node7 -->
<g id="edge68" class="edge"><title>Node5&#45;&gt;Node7</title>
<path fill="none" stroke="midnightblue" d="M1998.58,-228.402C2098.97,-220.585 2308.2,-203.991 2485,-188 2693.27,-169.163 2938.23,-144.337 3062.98,-131.501"/>
<polygon fill="midnightblue" stroke="midnightblue" points="1998.04,-224.934 1988.34,-229.199 1998.58,-231.913 1998.04,-224.934"/>
</g>
<!-- Node9 -->
<g id="node17" class="node"><title>Node9</title>
<a xlink:href="PlaylistManager_8hh.html" target="_top" xlink:title="src/Browser/PlaylistManager/PlaylistManager.hh">
<polygon fill="white" stroke="black" points="298,-112.5 298,-131.5 526,-131.5 526,-112.5 298,-112.5"/>
<text text-anchor="middle" x="412" y="-119.5" font-family="Helvetica,sans-Serif" font-size="10.00">src/Browser/PlaylistManager/PlaylistManager.hh</text>
</a>
</g>
<!-- Node5&#45;&gt;Node9 -->
<g id="edge70" class="edge"><title>Node5&#45;&gt;Node9</title>
<path fill="none" stroke="midnightblue" d="M1879.65,-233.081C1712.38,-232.777 1223,-228.234 819,-188 685.138,-174.669 528.388,-145.863 454.56,-131.5"/>
<polygon fill="midnightblue" stroke="midnightblue" points="1879.72,-236.581 1889.73,-233.094 1879.73,-229.581 1879.72,-236.581"/>
</g>
<!-- Node10 -->
<g id="node19" class="node"><title>Node10</title>
<a xlink:href="PlaylistAddDialog_8hh.html" target="_top" xlink:title="src/Browser/Queue/PlaylistAddDialog.hh">
<polygon fill="white" stroke="black" points="2014,-112.5 2014,-131.5 2208,-131.5 2208,-112.5 2014,-112.5"/>
<text text-anchor="middle" x="2111" y="-119.5" font-family="Helvetica,sans-Serif" font-size="10.00">src/Browser/Queue/PlaylistAddDialog.hh</text>
</a>
</g>
<!-- Node5&#45;&gt;Node10 -->
<g id="edge72" class="edge"><title>Node5&#45;&gt;Node10</title>
<path fill="none" stroke="midnightblue" d="M1941.37,-214.171C1944.16,-199.664 1950.17,-180.102 1963,-168 1983.22,-148.929 2011.28,-137.923 2037.54,-131.578"/>
<polygon fill="midnightblue" stroke="midnightblue" points="1937.91,-213.647 1939.81,-224.071 1944.83,-214.741 1937.91,-213.647"/>
</g>
<!-- Node11 -->
<g id="node21" class="node"><title>Node11</title>
<a xlink:href="Queue_8hh.html" target="_top" xlink:title="src/Browser/Queue/Queue.hh">
<polygon fill="white" stroke="black" points="1975,-56.5 1975,-75.5 2121,-75.5 2121,-56.5 1975,-56.5"/>
<text text-anchor="middle" x="2048" y="-63.5" font-family="Helvetica,sans-Serif" font-size="10.00">src/Browser/Queue/Queue.hh</text>
</a>
</g>
<!-- Node5&#45;&gt;Node11 -->
<g id="edge74" class="edge"><title>Node5&#45;&gt;Node11</title>
<path fill="none" stroke="midnightblue" d="M1998.27,-233.032C2241.62,-232.554 3155.17,-224.566 3240,-132 3246.01,-125.447 3246.17,-118.403 3240,-112 3201.1,-71.6069 2374.52,-67.3526 2121.16,-66.9995"/>
<polygon fill="midnightblue" stroke="midnightblue" points="1998.2,-229.532 1988.2,-233.048 1998.21,-236.532 1998.2,-229.532"/>
</g>
<!-- Node13 -->
<g id="node27" class="node"><title>Node13</title>
<a xlink:href="SettingsPlayback_8hh.html" target="_top" xlink:title="src/Browser/Settings/SettingsPlayback.hh">
<polygon fill="white" stroke="black" points="582.5,-112.5 582.5,-131.5 783.5,-131.5 783.5,-112.5 582.5,-112.5"/>
<text text-anchor="middle" x="683" y="-119.5" font-family="Helvetica,sans-Serif" font-size="10.00">src/Browser/Settings/SettingsPlayback.hh</text>
</a>
</g>
<!-- Node5&#45;&gt;Node13 -->
<g id="edge76" class="edge"><title>Node5&#45;&gt;Node13</title>
<path fill="none" stroke="midnightblue" d="M1879.82,-232.227C1690.25,-229.465 1099.52,-218.565 911,-188 834.413,-175.583 746.995,-146.21 706.221,-131.584"/>
<polygon fill="midnightblue" stroke="midnightblue" points="1879.82,-235.727 1889.87,-232.371 1879.92,-228.728 1879.82,-235.727"/>
</g>
<!-- Node15 -->
<g id="node31" class="node"><title>Node15</title>
<a xlink:href="Trayicon_8hh.html" target="_top" xlink:title="src/GManager/Trayicon.hh">
<polygon fill="white" stroke="black" points="802,-112.5 802,-131.5 934,-131.5 934,-112.5 802,-112.5"/>
<text text-anchor="middle" x="868" y="-119.5" font-family="Helvetica,sans-Serif" font-size="10.00">src/GManager/Trayicon.hh</text>
</a>
</g>
<!-- Node5&#45;&gt;Node15 -->
<g id="edge78" class="edge"><title>Node5&#45;&gt;Node15</title>
<path fill="none" stroke="midnightblue" d="M1879.64,-232.464C1679.17,-230.357 1034.81,-221.058 948,-188 916.559,-176.027 888.152,-146.585 875.28,-131.788"/>
<polygon fill="midnightblue" stroke="midnightblue" points="1879.66,-235.964 1889.69,-232.568 1879.73,-228.965 1879.66,-235.964"/>
</g>
<!-- Node17 -->
<g id="node37" class="node"><title>Node17</title>
<a xlink:href="SettingsOutputs_8hh.html" target="_top" xlink:title="src/Browser/Settings/SettingsOutputs.hh">
<polygon fill="white" stroke="black" points="301.5,-56.5 301.5,-75.5 496.5,-75.5 496.5,-56.5 301.5,-56.5"/>
<text text-anchor="middle" x="399" y="-63.5" font-family="Helvetica,sans-Serif" font-size="10.00">src/Browser/Settings/SettingsOutputs.hh</text>
</a>
</g>
<!-- Node5&#45;&gt;Node17 -->
<g id="edge80" class="edge"><title>Node5&#45;&gt;Node17</title>
<path fill="none" stroke="midnightblue" d="M1879.71,-233.231C1698.16,-233.44 1134.01,-230.37 669,-188 498.991,-172.509 400.566,-261.213 289,-132 265.298,-104.549 316.741,-85.6487 357.011,-75.5743"/>
<polygon fill="midnightblue" stroke="midnightblue" points="1879.85,-236.731 1889.84,-233.216 1879.84,-229.731 1879.85,-236.731"/>
</g>
<!-- Node19 -->
<g id="node42" class="node"><title>Node19</title>
<a xlink:href="Heartbeat_8hh.html" target="_top" xlink:title="src/GManager/Heartbeat.hh">
<polygon fill="white" stroke="black" points="1028.5,-112.5 1028.5,-131.5 1165.5,-131.5 1165.5,-112.5 1028.5,-112.5"/>
<text text-anchor="middle" x="1097" y="-119.5" font-family="Helvetica,sans-Serif" font-size="10.00">src/GManager/Heartbeat.hh</text>
</a>
</g>
<!-- Node5&#45;&gt;Node19 -->
<g id="edge84" class="edge"><title>Node5&#45;&gt;Node19</title>
<path fill="none" stroke="midnightblue" d="M1879.66,-225.248C1726.97,-205.3 1321.32,-152.306 1162.28,-131.528"/>
<polygon fill="midnightblue" stroke="midnightblue" points="1879.41,-228.745 1889.78,-226.57 1880.32,-221.804 1879.41,-228.745"/>
</g>
<!-- Node20 -->
<g id="node44" class="node"><title>Node20</title>
<a xlink:href="Statusbar_8hh.html" target="_top" xlink:title="src/GManager/Statusbar.hh">
<polygon fill="white" stroke="black" points="931.5,-56.5 931.5,-75.5 1068.5,-75.5 1068.5,-56.5 931.5,-56.5"/>
<text text-anchor="middle" x="1000" y="-63.5" font-family="Helvetica,sans-Serif" font-size="10.00">src/GManager/Statusbar.hh</text>
</a>
</g>
<!-- Node5&#45;&gt;Node20 -->
<g id="edge90" class="edge"><title>Node5&#45;&gt;Node20</title>
<path fill="none" stroke="midnightblue" d="M1879.56,-231.083C1682.7,-224.135 1061.15,-197.164 1002,-132 988.038,-116.618 993.113,-89.7685 997.072,-75.8824"/>
<polygon fill="midnightblue" stroke="midnightblue" points="1879.6,-234.587 1889.71,-231.437 1879.84,-227.591 1879.6,-234.587"/>
</g>
<!-- Node22 -->
<g id="node48" class="node"><title>Node22</title>
<a xlink:href="MenuList_8hh.html" target="_top" xlink:title="src/GManager/MenuList.hh">
<polygon fill="white" stroke="black" points="2226,-112.5 2226,-131.5 2360,-131.5 2360,-112.5 2226,-112.5"/>
<text text-anchor="middle" x="2293" y="-119.5" font-family="Helvetica,sans-Serif" font-size="10.00">src/GManager/MenuList.hh</text>
</a>
</g>
<!-- Node5&#45;&gt;Node22 -->
<g id="edge86" class="edge"><title>Node5&#45;&gt;Node22</title>
<path fill="none" stroke="midnightblue" d="M1950.54,-215.567C1961.59,-200.385 1979.7,-179.113 2001,-168 2020.58,-157.781 2146.01,-140.941 2225.98,-131.016"/>
<polygon fill="midnightblue" stroke="midnightblue" points="1947.45,-213.882 1944.6,-224.088 1953.19,-217.882 1947.45,-213.882"/>
</g>
<!-- Node24 -->
<g id="node52" class="node"><title>Node24</title>
<a xlink:href="PlaybackButtons_8hh.html" target="_top" xlink:title="src/GManager/PlaybackButtons.hh">
<polygon fill="white" stroke="black" points="2378.5,-112.5 2378.5,-131.5 2547.5,-131.5 2547.5,-112.5 2378.5,-112.5"/>
<text text-anchor="middle" x="2463" y="-119.5" font-family="Helvetica,sans-Serif" font-size="10.00">src/GManager/PlaybackButtons.hh</text>
</a>
</g>
<!-- Node5&#45;&gt;Node24 -->
<g id="edge88" class="edge"><title>Node5&#45;&gt;Node24</title>
<path fill="none" stroke="midnightblue" d="M1959.18,-218.261C1983.24,-200.977 2022.3,-173.926 2039,-168 2046.92,-165.189 2257.02,-143.716 2378.44,-131.476"/>
<polygon fill="midnightblue" stroke="midnightblue" points="1956.82,-215.646 1950.77,-224.342 1960.92,-221.319 1956.82,-215.646"/>
</g>
<!-- Node25 -->
<g id="node55" class="node"><title>Node25</title>
<a xlink:href="StatusIcons_8hh.html" target="_top" xlink:title="src/GManager/StatusIcons.hh">
<polygon fill="white" stroke="black" points="2565.5,-112.5 2565.5,-131.5 2712.5,-131.5 2712.5,-112.5 2565.5,-112.5"/>
<text text-anchor="middle" x="2639" y="-119.5" font-family="Helvetica,sans-Serif" font-size="10.00">src/GManager/StatusIcons.hh</text>
</a>
</g>
<!-- Node5&#45;&gt;Node25 -->
<g id="edge92" class="edge"><title>Node5&#45;&gt;Node25</title>
<path fill="none" stroke="midnightblue" d="M1967.75,-220.323C1987.19,-211.589 2013.35,-199.524 2036,-188 2052.31,-179.699 2054.46,-173.246 2072,-168 2278.66,-106.18 2341.19,-151.63 2556,-132 2559.03,-131.723 2562.12,-131.431 2565.25,-131.128"/>
<polygon fill="midnightblue" stroke="midnightblue" points="1966.23,-217.171 1958.52,-224.445 1969.08,-223.562 1966.23,-217.171"/>
</g>
<!-- Node26 -->
<g id="node58" class="node"><title>Node26</title>
<a xlink:href="TitleLabel_8hh.html" target="_top" xlink:title="src/GManager/TitleLabel.hh">
<polygon fill="white" stroke="black" points="2730.5,-112.5 2730.5,-131.5 2867.5,-131.5 2867.5,-112.5 2730.5,-112.5"/>
<text text-anchor="middle" x="2799" y="-119.5" font-family="Helvetica,sans-Serif" font-size="10.00">src/GManager/TitleLabel.hh</text>
</a>
</g>
<!-- Node5&#45;&gt;Node26 -->
<g id="edge94" class="edge"><title>Node5&#45;&gt;Node26</title>
<path fill="none" stroke="midnightblue" d="M1998.27,-225.419C2153.2,-205.603 2569.45,-152.361 2732.34,-131.526"/>
<polygon fill="midnightblue" stroke="midnightblue" points="1997.49,-221.99 1988.01,-226.731 1998.38,-228.934 1997.49,-221.99"/>
</g>
<!-- Node27 -->
<g id="node60" class="node"><title>Node27</title>
<a xlink:href="Volumebutton_8hh.html" target="_top" xlink:title="src/GManager/Volumebutton.hh">
<polygon fill="white" stroke="black" points="2885.5,-112.5 2885.5,-131.5 3040.5,-131.5 3040.5,-112.5 2885.5,-112.5"/>
<text text-anchor="middle" x="2963" y="-119.5" font-family="Helvetica,sans-Serif" font-size="10.00">src/GManager/Volumebutton.hh</text>
</a>
</g>
<!-- Node5&#45;&gt;Node27 -->
<g id="edge96" class="edge"><title>Node5&#45;&gt;Node27</title>
<path fill="none" stroke="midnightblue" d="M1998.29,-227.192C2083.45,-218.805 2245.3,-202.693 2383,-188 2565.11,-168.567 2779.2,-144.172 2889.32,-131.51"/>
<polygon fill="midnightblue" stroke="midnightblue" points="1997.9,-223.713 1988.29,-228.176 1998.59,-230.68 1997.9,-223.713"/>
</g>
<!-- Node28 -->
<g id="node69" class="node"><title>Node28</title>
<a xlink:href="StatBrowser_8hh.html" target="_top" xlink:title="src/Browser/Statistics/StatBrowser.hh">
<polygon fill="white" stroke="black" points="2081,-168.5 2081,-187.5 2265,-187.5 2265,-168.5 2081,-168.5"/>
<text text-anchor="middle" x="2173" y="-175.5" font-family="Helvetica,sans-Serif" font-size="10.00">src/Browser/Statistics/StatBrowser.hh</text>
</a>
</g>
<!-- Node5&#45;&gt;Node28 -->
<g id="edge82" class="edge"><title>Node5&#45;&gt;Node28</title>
<path fill="none" stroke="midnightblue" d="M1986,-222.153C2030.22,-211.95 2095.52,-196.881 2136.1,-187.516"/>
<polygon fill="midnightblue" stroke="midnightblue" points="1985.03,-218.784 1976.08,-224.444 1986.61,-225.605 1985.03,-218.784"/>
</g>
<!-- Node6&#45;&gt;Node7 -->
<g id="edge12" class="edge"><title>Node6&#45;&gt;Node7</title>
<path fill="none" stroke="midnightblue" d="M1874.73,-174.166C2141.66,-165.504 2932.9,-139.506 3049,-132 3052.09,-131.8 3055.24,-131.582 3058.41,-131.35"/>
<polygon fill="midnightblue" stroke="midnightblue" points="1874.57,-170.67 1864.69,-174.492 1874.8,-177.666 1874.57,-170.67"/>
</g>
<!-- Node8 -->
<g id="node15" class="node"><title>Node8</title>
<a xlink:href="DatabaseCache_8hh.html" target="_top" xlink:title="src/Browser/Database/DatabaseCache.hh">
<polygon fill="white" stroke="black" points="1386.5,-112.5 1386.5,-131.5 1587.5,-131.5 1587.5,-112.5 1386.5,-112.5"/>
<text text-anchor="middle" x="1487" y="-119.5" font-family="Helvetica,sans-Serif" font-size="10.00">src/Browser/Database/DatabaseCache.hh</text>
</a>
</g>
<!-- Node6&#45;&gt;Node8 -->
<g id="edge14" class="edge"><title>Node6&#45;&gt;Node8</title>
<path fill="none" stroke="midnightblue" d="M1729.58,-166.664C1672.88,-156.459 1587.21,-141.039 1534.31,-131.516"/>
<polygon fill="midnightblue" stroke="midnightblue" points="1729,-170.117 1739.46,-168.444 1730.24,-163.227 1729,-170.117"/>
</g>
<!-- Node6&#45;&gt;Node9 -->
<g id="edge16" class="edge"><title>Node6&#45;&gt;Node9</title>
<path fill="none" stroke="midnightblue" d="M1699.21,-174.862C1495.48,-169.675 974.781,-155.123 540,-132 535.44,-131.757 530.789,-131.496 526.091,-131.22"/>
<polygon fill="midnightblue" stroke="midnightblue" points="1699.17,-178.362 1709.26,-175.117 1699.35,-171.364 1699.17,-178.362"/>
</g>
<!-- Node6&#45;&gt;Node10 -->
<g id="edge18" class="edge"><title>Node6&#45;&gt;Node10</title>
<path fill="none" stroke="midnightblue" d="M1848.26,-166.791C1909.48,-156.587 2002.53,-141.078 2059.9,-131.516"/>
<polygon fill="midnightblue" stroke="midnightblue" points="1847.63,-163.347 1838.34,-168.444 1848.78,-170.252 1847.63,-163.347"/>
</g>
<!-- Node6&#45;&gt;Node11 -->
<g id="edge22" class="edge"><title>Node6&#45;&gt;Node11</title>
<path fill="none" stroke="midnightblue" d="M1856.74,-166.586C1890.88,-159.738 1931.87,-148.838 1966,-132 1996.3,-117.052 2025.86,-89.512 2039.76,-75.569"/>
<polygon fill="midnightblue" stroke="midnightblue" points="1855.99,-163.164 1846.84,-168.497 1857.32,-170.037 1855.99,-163.164"/>
</g>
<!-- Node12 -->
<g id="node24" class="node"><title>Node12</title>
<a xlink:href="QueueMerger_8hh.html" target="_top" xlink:title="src/Browser/Queue/QueueMerger.hh">
<polygon fill="white" stroke="black" points="1606,-112.5 1606,-131.5 1782,-131.5 1782,-112.5 1606,-112.5"/>
<text text-anchor="middle" x="1694" y="-119.5" font-family="Helvetica,sans-Serif" font-size="10.00">src/Browser/Queue/QueueMerger.hh</text>
</a>
</g>
<!-- Node6&#45;&gt;Node12 -->
<g id="edge24" class="edge"><title>Node6&#45;&gt;Node12</title>
<path fill="none" stroke="midnightblue" d="M1763.19,-163.177C1746.08,-153.241 1723.53,-140.149 1708.9,-131.655"/>
<polygon fill="midnightblue" stroke="midnightblue" points="1761.65,-166.329 1772.06,-168.324 1765.17,-160.276 1761.65,-166.329"/>
</g>
<!-- Node6&#45;&gt;Node13 -->
<g id="edge28" class="edge"><title>Node6&#45;&gt;Node13</title>
<path fill="none" stroke="midnightblue" d="M1699.21,-174.1C1525.88,-168.135 1127.47,-153.247 793,-132 789.94,-131.806 786.834,-131.6 783.697,-131.386"/>
<polygon fill="midnightblue" stroke="midnightblue" points="1699.19,-177.601 1709.3,-174.445 1699.43,-170.605 1699.19,-177.601"/>
</g>
<!-- Node6&#45;&gt;Node15 -->
<g id="edge32" class="edge"><title>Node6&#45;&gt;Node15</title>
<path fill="none" stroke="midnightblue" d="M1699.02,-172.634C1551.53,-165.185 1245.06,-149.154 986,-132 969.189,-130.887 951.041,-129.563 934.137,-128.279"/>
<polygon fill="midnightblue" stroke="midnightblue" points="1699.2,-176.147 1709.36,-173.155 1699.55,-169.156 1699.2,-176.147"/>
</g>
<!-- Node6&#45;&gt;Node17 -->
<g id="edge40" class="edge"><title>Node6&#45;&gt;Node17</title>
<path fill="none" stroke="midnightblue" d="M1699.2,-175.996C1438.55,-172.702 680.71,-160.741 573,-132 554.56,-127.079 552.564,-119.467 535,-112 499.639,-96.9658 457.424,-83.6879 429.508,-75.5224"/>
<polygon fill="midnightblue" stroke="midnightblue" points="1699.33,-179.498 1709.37,-176.124 1699.42,-172.499 1699.33,-179.498"/>
</g>
<!-- Node18 -->
<g id="node40" class="node"><title>Node18</title>
<a xlink:href="BrowserList_8hh.html" target="_top" xlink:title="src/GManager/BrowserList.hh">
<polygon fill="white" stroke="black" points="1222,-112.5 1222,-131.5 1368,-131.5 1368,-112.5 1222,-112.5"/>
<text text-anchor="middle" x="1295" y="-119.5" font-family="Helvetica,sans-Serif" font-size="10.00">src/GManager/BrowserList.hh</text>
</a>
</g>
<!-- Node6&#45;&gt;Node18 -->
<g id="edge44" class="edge"><title>Node6&#45;&gt;Node18</title>
<path fill="none" stroke="midnightblue" d="M1699.22,-167.366C1604.87,-157.01 1456.58,-140.735 1368.27,-131.041"/>
<polygon fill="midnightblue" stroke="midnightblue" points="1698.99,-170.861 1709.31,-168.473 1699.75,-163.903 1698.99,-170.861"/>
</g>
<!-- Node6&#45;&gt;Node19 -->
<g id="edge46" class="edge"><title>Node6&#45;&gt;Node19</title>
<path fill="none" stroke="midnightblue" d="M1699.25,-171.434C1581.15,-163.729 1364.57,-148.843 1180,-132 1175.38,-131.578 1170.62,-131.122 1165.82,-130.645"/>
<polygon fill="midnightblue" stroke="midnightblue" points="1699.11,-174.933 1709.32,-172.09 1699.57,-167.948 1699.11,-174.933"/>
</g>
<!-- Node6&#45;&gt;Node20 -->
<g id="edge58" class="edge"><title>Node6&#45;&gt;Node20</title>
<path fill="none" stroke="midnightblue" d="M1699.12,-177.455C1508.75,-177.648 1071.13,-173.511 1019,-132 1001.89,-118.378 999.615,-90.2374 999.648,-75.8665"/>
<polygon fill="midnightblue" stroke="midnightblue" points="1699.38,-180.955 1709.38,-177.44 1699.37,-173.955 1699.38,-180.955"/>
</g>
<!-- Node21 -->
<g id="node46" class="node"><title>Node21</title>
<a xlink:href="Timeslide_8hh.html" target="_top" xlink:title="src/GManager/Timeslide.hh">
<polygon fill="white" stroke="black" points="1106.5,-56.5 1106.5,-75.5 1243.5,-75.5 1243.5,-56.5 1106.5,-56.5"/>
<text text-anchor="middle" x="1175" y="-63.5" font-family="Helvetica,sans-Serif" font-size="10.00">src/GManager/Timeslide.hh</text>
</a>
</g>
<!-- Node6&#45;&gt;Node21 -->
<g id="edge62" class="edge"><title>Node6&#45;&gt;Node21</title>
<path fill="none" stroke="midnightblue" d="M1699.1,-174.562C1548.43,-169.729 1253.13,-157.157 1213,-132 1192.18,-118.946 1181.45,-90.0102 1177.21,-75.559"/>
<polygon fill="midnightblue" stroke="midnightblue" points="1699.14,-178.065 1709.25,-174.883 1699.36,-171.068 1699.14,-178.065"/>
</g>
<!-- Node6&#45;&gt;Node22 -->
<g id="edge52" class="edge"><title>Node6&#45;&gt;Node22</title>
<path fill="none" stroke="midnightblue" d="M1874.59,-168.119C1961.31,-159.253 2097.87,-145.099 2216,-132 2219.21,-131.644 2222.5,-131.276 2225.81,-130.9"/>
<polygon fill="midnightblue" stroke="midnightblue" points="1874.12,-164.648 1864.53,-169.146 1874.83,-171.612 1874.12,-164.648"/>
</g>
<!-- Node23 -->
<g id="node50" class="node"><title>Node23</title>
<a xlink:href="NotifyManager_8hh.html" target="_top" xlink:title="src/GManager/NotifyManager.hh">
<polygon fill="white" stroke="black" points="1800,-112.5 1800,-131.5 1958,-131.5 1958,-112.5 1800,-112.5"/>
<text text-anchor="middle" x="1879" y="-119.5" font-family="Helvetica,sans-Serif" font-size="10.00">src/GManager/NotifyManager.hh</text>
</a>
</g>
<!-- Node6&#45;&gt;Node23 -->
<g id="edge54" class="edge"><title>Node6&#45;&gt;Node23</title>
<path fill="none" stroke="midnightblue" d="M1810.55,-163.177C1827.48,-153.241 1849.78,-140.149 1864.26,-131.655"/>
<polygon fill="midnightblue" stroke="midnightblue" points="1808.63,-160.243 1801.78,-168.324 1812.18,-166.28 1808.63,-160.243"/>
</g>
<!-- Node6&#45;&gt;Node24 -->
<g id="edge56" class="edge"><title>Node6&#45;&gt;Node24</title>
<path fill="none" stroke="midnightblue" d="M1874.77,-170.716C1988.74,-162.441 2193.81,-147.158 2369,-132 2372.1,-131.731 2375.26,-131.453 2378.46,-131.168"/>
<polygon fill="midnightblue" stroke="midnightblue" points="1874.42,-167.232 1864.7,-171.446 1874.93,-174.214 1874.42,-167.232"/>
</g>
<!-- Node6&#45;&gt;Node25 -->
<g id="edge60" class="edge"><title>Node6&#45;&gt;Node25</title>
<path fill="none" stroke="midnightblue" d="M1874.61,-173.288C2017.46,-166.919 2309.37,-152.575 2556,-132 2559.03,-131.747 2562.13,-131.475 2565.25,-131.189"/>
<polygon fill="midnightblue" stroke="midnightblue" points="1874.42,-169.793 1864.59,-173.733 1874.73,-176.786 1874.42,-169.793"/>
</g>
<!-- Node6&#45;&gt;Node26 -->
<g id="edge64" class="edge"><title>Node6&#45;&gt;Node26</title>
<path fill="none" stroke="midnightblue" d="M1874.91,-173.516C2074.73,-165.475 2558.29,-145.292 2721,-132 2723.99,-131.756 2727.04,-131.487 2730.12,-131.2"/>
<polygon fill="midnightblue" stroke="midnightblue" points="1874.6,-170.026 1864.75,-173.924 1874.88,-177.02 1874.6,-170.026"/>
</g>
<!-- Node6&#45;&gt;Node27 -->
<g id="edge66" class="edge"><title>Node6&#45;&gt;Node27</title>
<path fill="none" stroke="midnightblue" d="M1874.88,-174.071C2097.95,-166.523 2682.11,-146.021 2876,-132 2879.03,-131.781 2882.12,-131.541 2885.23,-131.285"/>
<polygon fill="midnightblue" stroke="midnightblue" points="1874.73,-170.574 1864.85,-174.41 1874.97,-177.57 1874.73,-170.574"/>
</g>
<!-- Node10&#45;&gt;Node11 -->
<g id="edge20" class="edge"><title>Node10&#45;&gt;Node11</title>
<path fill="none" stroke="midnightblue" d="M2092.96,-105.537C2081.73,-95.9087 2067.68,-83.8694 2058.31,-75.8339"/>
<polygon fill="midnightblue" stroke="midnightblue" points="2091.01,-108.473 2100.88,-112.324 2095.56,-103.159 2091.01,-108.473"/>
</g>
<!-- Node12&#45;&gt;Node11 -->
<g id="edge26" class="edge"><title>Node12&#45;&gt;Node11</title>
<path fill="none" stroke="midnightblue" d="M1760.1,-110.917C1826.98,-100.715 1929.23,-85.1174 1992.17,-75.5164"/>
<polygon fill="midnightblue" stroke="midnightblue" points="1759.45,-107.475 1750.09,-112.444 1760.51,-114.395 1759.45,-107.475"/>
</g>
<!-- Node14 -->
<g id="node29" class="node"><title>Node14</title>
<a xlink:href="Settings_8hh.html" target="_top" xlink:title="src/Browser/Settings/Settings.hh">
<polygon fill="white" stroke="black" points="616.5,-0.5 616.5,-19.5 777.5,-19.5 777.5,-0.5 616.5,-0.5"/>
<text text-anchor="middle" x="697" y="-7.5" font-family="Helvetica,sans-Serif" font-size="10.00">src/Browser/Settings/Settings.hh</text>
</a>
</g>
<!-- Node13&#45;&gt;Node14 -->
<g id="edge30" class="edge"><title>Node13&#45;&gt;Node14</title>
<path fill="none" stroke="midnightblue" d="M667.823,-104.59C657.665,-91.5361 647.285,-72.747 654,-56 660.113,-40.755 674.126,-27.7492 684.503,-19.698"/>
<polygon fill="midnightblue" stroke="midnightblue" points="665.165,-106.867 674.284,-112.26 670.518,-102.357 665.165,-106.867"/>
</g>
<!-- Node15&#45;&gt;Node14 -->
<g id="edge38" class="edge"><title>Node15&#45;&gt;Node14</title>
<path fill="none" stroke="midnightblue" d="M872.58,-102.189C874.867,-87.9692 875.283,-68.778 865,-56 851.323,-39.0038 799.56,-26.8574 757.064,-19.5009"/>
<polygon fill="midnightblue" stroke="midnightblue" points="869.085,-101.812 870.514,-112.31 875.944,-103.212 869.085,-101.812"/>
</g>
<!-- Node16 -->
<g id="node33" class="node"><title>Node16</title>
<a xlink:href="SettingsGeneral_8hh.html" target="_top" xlink:title="src/Browser/Settings/SettingsGeneral.hh">
<polygon fill="white" stroke="black" points="663,-56.5 663,-75.5 857,-75.5 857,-56.5 663,-56.5"/>
<text text-anchor="middle" x="760" y="-63.5" font-family="Helvetica,sans-Serif" font-size="10.00">src/Browser/Settings/SettingsGeneral.hh</text>
</a>
</g>
<!-- Node15&#45;&gt;Node16 -->
<g id="edge34" class="edge"><title>Node15&#45;&gt;Node16</title>
<path fill="none" stroke="midnightblue" d="M841.452,-107.726C821.454,-97.7271 794.613,-84.3065 777.309,-75.6545"/>
<polygon fill="midnightblue" stroke="midnightblue" points="840.138,-110.982 850.648,-112.324 843.269,-104.721 840.138,-110.982"/>
</g>
<!-- Node16&#45;&gt;Node14 -->
<g id="edge36" class="edge"><title>Node16&#45;&gt;Node14</title>
<path fill="none" stroke="midnightblue" d="M741.96,-49.5372C730.727,-39.9087 716.681,-27.8694 707.306,-19.8339"/>
<polygon fill="midnightblue" stroke="midnightblue" points="740.008,-52.4734 749.878,-56.324 744.563,-47.1586 740.008,-52.4734"/>
</g>
<!-- Node17&#45;&gt;Node14 -->
<g id="edge42" class="edge"><title>Node17&#45;&gt;Node14</title>
<path fill="none" stroke="midnightblue" d="M456.389,-54.6007C512.707,-44.3953 597.562,-29.0189 650.002,-19.5164"/>
<polygon fill="midnightblue" stroke="midnightblue" points="455.435,-51.2165 446.219,-56.4435 456.683,-58.1043 455.435,-51.2165"/>
</g>
<!-- Node19&#45;&gt;Node20 -->
<g id="edge48" class="edge"><title>Node19&#45;&gt;Node20</title>
<path fill="none" stroke="midnightblue" d="M1072.66,-107.453C1054.76,-97.4835 1030.95,-84.2279 1015.55,-75.6545"/>
<polygon fill="midnightblue" stroke="midnightblue" points="1070.98,-110.518 1081.42,-112.324 1074.38,-104.402 1070.98,-110.518"/>
</g>
<!-- Node19&#45;&gt;Node21 -->
<g id="edge50" class="edge"><title>Node19&#45;&gt;Node21</title>
<path fill="none" stroke="midnightblue" d="M1117.77,-106.622C1132.02,-96.7574 1150.46,-83.9919 1162.5,-75.6545"/>
<polygon fill="midnightblue" stroke="midnightblue" points="1115.76,-103.754 1109.53,-112.324 1119.75,-109.51 1115.76,-103.754"/>
</g>
<!-- Node29&#45;&gt;Node30 -->
<g id="edge100" class="edge"><title>Node29&#45;&gt;Node30</title>
<path fill="none" stroke="midnightblue" d="M166.895,-217.537C177.415,-207.909 190.569,-195.869 199.348,-187.834"/>
<polygon fill="midnightblue" stroke="midnightblue" points="164.493,-214.99 159.479,-224.324 169.219,-220.154 164.493,-214.99"/>
</g>
<!-- Node31 -->
<g id="node83" class="node"><title>Node31</title>
<a xlink:href="AudioOutput_8hh.html" target="_top" xlink:title="src/MPD/AudioOutput.hh">
<polygon fill="white" stroke="black" points="13,-168.5 13,-187.5 139,-187.5 139,-168.5 13,-168.5"/>
<text text-anchor="middle" x="76" y="-175.5" font-family="Helvetica,sans-Serif" font-size="10.00">src/MPD/AudioOutput.hh</text>
</a>
</g>
<!-- Node29&#45;&gt;Node31 -->
<g id="edge104" class="edge"><title>Node29&#45;&gt;Node31</title>
<path fill="none" stroke="midnightblue" d="M129.966,-218.38C116.591,-208.62 99.4412,-196.106 88.1057,-187.834"/>
<polygon fill="midnightblue" stroke="midnightblue" points="127.97,-221.257 138.111,-224.324 132.096,-215.602 127.97,-221.257"/>
</g>
<!-- Node30&#45;&gt;Node9 -->
<g id="edge102" class="edge"><title>Node30&#45;&gt;Node9</title>
<path fill="none" stroke="midnightblue" d="M250.994,-165.829C289.323,-155.633 345.152,-140.782 379.985,-131.516"/>
<polygon fill="midnightblue" stroke="midnightblue" points="249.93,-162.49 241.166,-168.444 251.73,-169.255 249.93,-162.49"/>
</g>
<!-- Node32 -->
<g id="node85" class="node"><title>Node32</title>
<a xlink:href="OutputsModelColumns_8hh.html" target="_top" xlink:title="src/Browser/Settings/OutputsModelColumns.hh">
<polygon fill="white" stroke="black" points="0,-112.5 0,-131.5 224,-131.5 224,-112.5 0,-112.5"/>
<text text-anchor="middle" x="112" y="-119.5" font-family="Helvetica,sans-Serif" font-size="10.00">src/Browser/Settings/OutputsModelColumns.hh</text>
</a>
</g>
<!-- Node31&#45;&gt;Node32 -->
<g id="edge106" class="edge"><title>Node31&#45;&gt;Node32</title>
<path fill="none" stroke="midnightblue" d="M87.6229,-159.566C93.8168,-150.275 101.168,-139.248 106.166,-131.751"/>
<polygon fill="midnightblue" stroke="midnightblue" points="84.5795,-157.821 81.9447,-168.083 90.4039,-161.704 84.5795,-157.821"/>
</g>
<!-- Node32&#45;&gt;Node17 -->
<g id="edge108" class="edge"><title>Node32&#45;&gt;Node17</title>
<path fill="none" stroke="midnightblue" d="M167.608,-110.537C221.849,-100.332 303.338,-84.9992 353.737,-75.5164"/>
<polygon fill="midnightblue" stroke="midnightblue" points="166.656,-107.155 157.476,-112.444 167.951,-114.034 166.656,-107.155"/>
</g>
</g>
</svg>
