<?xml version="1.0" encoding="UTF-8" standalone="no"?>
<!DOCTYPE svg PUBLIC "-//W3C//DTD SVG 1.1//EN"
 "http://www.w3.org/Graphics/SVG/1.1/DTD/svg11.dtd">
<!-- Generated by graphviz version 2.28.0 (20120217.0315)
 -->
<!-- Title: G Pages: 1 -->
<svg width="4339pt" height="476pt"
 viewBox="0.00 0.00 4339.00 476.00" xmlns="http://www.w3.org/2000/svg" xmlns:xlink="http://www.w3.org/1999/xlink">
<g id="graph1" class="graph" transform="scale(1 1) rotate(0) translate(4 472)">
<title>G</title>
<polygon fill="white" stroke="white" points="-4,5 -4,-472 4336,-472 4336,5 -4,5"/>
<!-- Node1 -->
<g id="node1" class="node"><title>Node1</title>
<polygon fill="#bfbfbf" stroke="black" points="1973.5,-448.5 1973.5,-467.5 2074.5,-467.5 2074.5,-448.5 1973.5,-448.5"/>
<text text-anchor="middle" x="2024" y="-455.5" font-family="Helvetica,sans-Serif" font-size="10.00">src/MPD/Status.hh</text>
</g>
<!-- Node2 -->
<g id="node3" class="node"><title>Node2</title>
<a xlink:href="Listener_8hh.html" target="_top" xlink:title="src/MPD/Listener.hh">
<polygon fill="white" stroke="black" points="1970.5,-336.5 1970.5,-355.5 2077.5,-355.5 2077.5,-336.5 1970.5,-336.5"/>
<text text-anchor="middle" x="2024" y="-343.5" font-family="Helvetica,sans-Serif" font-size="10.00">src/MPD/Listener.hh</text>
</a>
</g>
<!-- Node1&#45;&gt;Node2 -->
<g id="edge2" class="edge"><title>Node1&#45;&gt;Node2</title>
<path fill="none" stroke="midnightblue" d="M2011.76,-439.834C2006.75,-431.788 2001.55,-421.825 1999,-412 1993.6,-391.167 2007.8,-367.88 2016.95,-355.623"/>
<polygon fill="midnightblue" stroke="midnightblue" points="2008.92,-441.886 2017.37,-448.275 2014.75,-438.01 2008.92,-441.886"/>
</g>
<!-- Node41 -->
<g id="node117" class="node"><title>Node41</title>
<a xlink:href="NotifyData_8hh.html" target="_top" xlink:title="src/MPD/NotifyData.hh">
<polygon fill="white" stroke="black" points="2008.5,-392.5 2008.5,-411.5 2127.5,-411.5 2127.5,-392.5 2008.5,-392.5"/>
<text text-anchor="middle" x="2068" y="-399.5" font-family="Helvetica,sans-Serif" font-size="10.00">src/MPD/NotifyData.hh</text>
</a>
</g>
<!-- Node1&#45;&gt;Node41 -->
<g id="edge152" class="edge"><title>Node1&#45;&gt;Node41</title>
<path fill="none" stroke="midnightblue" d="M2037.73,-440.144C2045.4,-430.736 2054.63,-419.405 2060.87,-411.751"/>
<polygon fill="midnightblue" stroke="midnightblue" points="2034.87,-438.12 2031.27,-448.083 2040.3,-442.541 2034.87,-438.12"/>
</g>
<!-- Node3 -->
<g id="node5" class="node"><title>Node3</title>
<a xlink:href="BaseClient_8hh.html" target="_top" xlink:title="src/MPD/BaseClient.hh">
<polygon fill="white" stroke="black" points="1964,-280.5 1964,-299.5 2084,-299.5 2084,-280.5 1964,-280.5"/>
<text text-anchor="middle" x="2024" y="-287.5" font-family="Helvetica,sans-Serif" font-size="10.00">src/MPD/BaseClient.hh</text>
</a>
</g>
<!-- Node2&#45;&gt;Node3 -->
<g id="edge4" class="edge"><title>Node2&#45;&gt;Node3</title>
<path fill="none" stroke="midnightblue" d="M2024,-325.805C2024,-316.91 2024,-306.78 2024,-299.751"/>
<polygon fill="midnightblue" stroke="midnightblue" points="2020.5,-326.083 2024,-336.083 2027.5,-326.083 2020.5,-326.083"/>
</g>
<!-- Node4 -->
<g id="node7" class="node"><title>Node4</title>
<a xlink:href="Client_8hh.html" target="_top" xlink:title="src/MPD/Client.hh">
<polygon fill="white" stroke="black" points="1975,-224.5 1975,-243.5 2073,-243.5 2073,-224.5 1975,-224.5"/>
<text text-anchor="middle" x="2024" y="-231.5" font-family="Helvetica,sans-Serif" font-size="10.00">src/MPD/Client.hh</text>
</a>
</g>
<!-- Node3&#45;&gt;Node4 -->
<g id="edge6" class="edge"><title>Node3&#45;&gt;Node4</title>
<path fill="none" stroke="midnightblue" d="M2024,-269.805C2024,-260.91 2024,-250.78 2024,-243.751"/>
<polygon fill="midnightblue" stroke="midnightblue" points="2020.5,-270.083 2024,-280.083 2027.5,-270.083 2020.5,-270.083"/>
</g>
<!-- Node5 -->
<g id="node9" class="node"><title>Node5</title>
<a xlink:href="AbstractClientUser_8hh.html" target="_top" xlink:title="src/MPD/AbstractClientUser.hh">
<polygon fill="white" stroke="black" points="1248.5,-168.5 1248.5,-187.5 1403.5,-187.5 1403.5,-168.5 1248.5,-168.5"/>
<text text-anchor="middle" x="1326" y="-175.5" font-family="Helvetica,sans-Serif" font-size="10.00">src/MPD/AbstractClientUser.hh</text>
</a>
</g>
<!-- Node4&#45;&gt;Node5 -->
<g id="edge8" class="edge"><title>Node4&#45;&gt;Node5</title>
<path fill="none" stroke="midnightblue" d="M1964.7,-228.412C1838.7,-218.665 1544.37,-195.894 1403.64,-185.006"/>
<polygon fill="midnightblue" stroke="midnightblue" points="1964.68,-231.921 1974.92,-229.203 1965.22,-224.942 1964.68,-231.921"/>
</g>
<!-- Node8 -->
<g id="node15" class="node"><title>Node8</title>
<a xlink:href="Database_8hh.html" target="_top" xlink:title="src/Browser/Database/Database.hh">
<polygon fill="white" stroke="black" points="1545.5,-0.5 1545.5,-19.5 1718.5,-19.5 1718.5,-0.5 1545.5,-0.5"/>
<text text-anchor="middle" x="1632" y="-7.5" font-family="Helvetica,sans-Serif" font-size="10.00">src/Browser/Database/Database.hh</text>
</a>
</g>
<!-- Node4&#45;&gt;Node8 -->
<g id="edge86" class="edge"><title>Node4&#45;&gt;Node8</title>
<path fill="none" stroke="midnightblue" d="M2083.24,-231.957C2264.89,-227.73 2796.67,-207.167 2710,-112 2701.64,-102.825 1973.02,-40.0168 1718.54,-18.3387"/>
<polygon fill="midnightblue" stroke="midnightblue" points="2082.98,-228.462 2073.06,-232.186 2083.14,-235.46 2082.98,-228.462"/>
</g>
<!-- Node10 -->
<g id="node19" class="node"><title>Node10</title>
<a xlink:href="NowPlaying_8hh.html" target="_top" xlink:title="src/Browser/NowPlaying/NowPlaying.hh">
<polygon fill="white" stroke="black" points="3113,-0.5 3113,-19.5 3307,-19.5 3307,-0.5 3113,-0.5"/>
<text text-anchor="middle" x="3210" y="-7.5" font-family="Helvetica,sans-Serif" font-size="10.00">src/Browser/NowPlaying/NowPlaying.hh</text>
</a>
</g>
<!-- Node4&#45;&gt;Node10 -->
<g id="edge118" class="edge"><title>Node4&#45;&gt;Node10</title>
<path fill="none" stroke="midnightblue" d="M2083.37,-233.415C2414.12,-235.113 4019.55,-235.088 4162,-76 4167.93,-69.3779 4168.14,-62.4321 4162,-56 4132.84,-25.4315 3544.2,-14.9957 3307.4,-12.0257"/>
<polygon fill="midnightblue" stroke="midnightblue" points="2083.07,-229.913 2073.05,-233.359 2083.03,-236.913 2083.07,-229.913"/>
</g>
<!-- Node11 -->
<g id="node21" class="node"><title>Node11</title>
<a xlink:href="PlaylistManager_8hh.html" target="_top" xlink:title="src/Browser/PlaylistManager/PlaylistManager.hh">
<polygon fill="white" stroke="black" points="934,-0.5 934,-19.5 1162,-19.5 1162,-0.5 934,-0.5"/>
<text text-anchor="middle" x="1048" y="-7.5" font-family="Helvetica,sans-Serif" font-size="10.00">src/Browser/PlaylistManager/PlaylistManager.hh</text>
</a>
</g>
<!-- Node4&#45;&gt;Node11 -->
<g id="edge120" class="edge"><title>Node4&#45;&gt;Node11</title>
<path fill="none" stroke="midnightblue" d="M1964.57,-233.112C1688.2,-233.398 539.468,-231.935 478,-188 430.266,-153.882 429.688,-92.0248 476,-56 511.21,-28.6114 777.192,-17.5192 933.762,-13.3272"/>
<polygon fill="midnightblue" stroke="midnightblue" points="1964.8,-236.611 1974.8,-233.1 1964.79,-229.611 1964.8,-236.611"/>
</g>
<!-- Node12 -->
<g id="node23" class="node"><title>Node12</title>
<a xlink:href="Queue_8hh.html" target="_top" xlink:title="src/Browser/Queue/Queue.hh">
<polygon fill="white" stroke="black" points="1180,-0.5 1180,-19.5 1326,-19.5 1326,-0.5 1180,-0.5"/>
<text text-anchor="middle" x="1253" y="-7.5" font-family="Helvetica,sans-Serif" font-size="10.00">src/Browser/Queue/Queue.hh</text>
</a>
</g>
<!-- Node4&#45;&gt;Node12 -->
<g id="edge124" class="edge"><title>Node4&#45;&gt;Node12</title>
<path fill="none" stroke="midnightblue" d="M1964.64,-232.658C1692.4,-230.908 573.854,-221.685 508,-188 480.063,-173.71 475.092,-161.713 465,-132 433.508,-39.2771 581.502,-65.1969 627,-56 864.503,-7.99169 929.625,-41.2229 1171,-20 1173.85,-19.7491 1176.76,-19.4825 1179.7,-19.2042"/>
<polygon fill="midnightblue" stroke="midnightblue" points="1964.69,-236.158 1974.71,-232.721 1964.74,-229.158 1964.69,-236.158"/>
</g>
<!-- Node14 -->
<g id="node27" class="node"><title>Node14</title>
<a xlink:href="StatBrowser_8hh.html" target="_top" xlink:title="src/Browser/Statistics/StatBrowser.hh">
<polygon fill="white" stroke="black" points="2014,-0.5 2014,-19.5 2198,-19.5 2198,-0.5 2014,-0.5"/>
<text text-anchor="middle" x="2106" y="-7.5" font-family="Helvetica,sans-Serif" font-size="10.00">src/Browser/Statistics/StatBrowser.hh</text>
</a>
</g>
<!-- Node4&#45;&gt;Node14 -->
<g id="edge132" class="edge"><title>Node4&#45;&gt;Node14</title>
<path fill="none" stroke="midnightblue" d="M2083.18,-231.48C2251.19,-226.878 2720.52,-211.927 2743,-188 2766.13,-163.381 2765.44,-137.246 2743,-112 2697.66,-60.9911 2503.66,-94.6259 2438,-76 2417.72,-70.2477 2415.17,-62.1262 2395,-56 2330.75,-36.4813 2255.75,-25.1199 2198.26,-18.6968"/>
<polygon fill="midnightblue" stroke="midnightblue" points="2082.93,-227.985 2073.03,-231.755 2083.12,-234.983 2082.93,-227.985"/>
</g>
<!-- Node17 -->
<g id="node36" class="node"><title>Node17</title>
<a xlink:href="PlaylistAddDialog_8hh.html" target="_top" xlink:title="src/Browser/Queue/PlaylistAddDialog.hh">
<polygon fill="white" stroke="black" points="889,-112.5 889,-131.5 1083,-131.5 1083,-112.5 889,-112.5"/>
<text text-anchor="middle" x="986" y="-119.5" font-family="Helvetica,sans-Serif" font-size="10.00">src/Browser/Queue/PlaylistAddDialog.hh</text>
</a>
</g>
<!-- Node4&#45;&gt;Node17 -->
<g id="edge122" class="edge"><title>Node4&#45;&gt;Node17</title>
<path fill="none" stroke="midnightblue" d="M1964.71,-233.512C1833.23,-233.796 1507.57,-229.791 1239,-188 1154.76,-174.891 1057.8,-145.981 1012.24,-131.547"/>
<polygon fill="midnightblue" stroke="midnightblue" points="1964.98,-237.012 1974.96,-233.481 1964.95,-230.012 1964.98,-237.012"/>
</g>
<!-- Node19 -->
<g id="node43" class="node"><title>Node19</title>
<a xlink:href="SettingsPlayback_8hh.html" target="_top" xlink:title="src/Browser/Settings/SettingsPlayback.hh">
<polygon fill="white" stroke="black" points="-0.5,-112.5 -0.5,-131.5 200.5,-131.5 200.5,-112.5 -0.5,-112.5"/>
<text text-anchor="middle" x="100" y="-119.5" font-family="Helvetica,sans-Serif" font-size="10.00">src/Browser/Settings/SettingsPlayback.hh</text>
</a>
</g>
<!-- Node4&#45;&gt;Node19 -->
<g id="edge126" class="edge"><title>Node4&#45;&gt;Node19</title>
<path fill="none" stroke="midnightblue" d="M1964.38,-232.311C1682.6,-228.935 491.198,-213.269 327,-188 250.424,-176.215 163.189,-146.403 122.772,-131.605"/>
<polygon fill="midnightblue" stroke="midnightblue" points="1964.75,-235.816 1974.79,-232.435 1964.83,-228.816 1964.75,-235.816"/>
</g>
<!-- Node20 -->
<g id="node46" class="node"><title>Node20</title>
<a xlink:href="Trayicon_8hh.html" target="_top" xlink:title="src/GManager/Trayicon.hh">
<polygon fill="white" stroke="black" points="219,-112.5 219,-131.5 351,-131.5 351,-112.5 219,-112.5"/>
<text text-anchor="middle" x="285" y="-119.5" font-family="Helvetica,sans-Serif" font-size="10.00">src/GManager/Trayicon.hh</text>
</a>
</g>
<!-- Node4&#45;&gt;Node20 -->
<g id="edge128" class="edge"><title>Node4&#45;&gt;Node20</title>
<path fill="none" stroke="midnightblue" d="M1964.45,-232.459C1676.73,-229.707 441.356,-216.281 365,-188 333.451,-176.315 305.095,-146.737 292.257,-131.849"/>
<polygon fill="midnightblue" stroke="midnightblue" points="1964.64,-235.961 1974.67,-232.556 1964.71,-228.961 1964.64,-235.961"/>
</g>
<!-- Node22 -->
<g id="node52" class="node"><title>Node22</title>
<a xlink:href="SettingsOutputs_8hh.html" target="_top" xlink:title="src/Browser/Settings/SettingsOutputs.hh">
<polygon fill="white" stroke="black" points="482.5,-112.5 482.5,-131.5 677.5,-131.5 677.5,-112.5 482.5,-112.5"/>
<text text-anchor="middle" x="580" y="-119.5" font-family="Helvetica,sans-Serif" font-size="10.00">src/Browser/Settings/SettingsOutputs.hh</text>
</a>
</g>
<!-- Node4&#45;&gt;Node22 -->
<g id="edge130" class="edge"><title>Node4&#45;&gt;Node22</title>
<path fill="none" stroke="midnightblue" d="M1964.65,-232.469C1809,-230.617 1376.3,-222.508 1018,-188 874.524,-174.182 706.257,-145.736 626.48,-131.503"/>
<polygon fill="midnightblue" stroke="midnightblue" points="1964.9,-235.972 1974.93,-232.587 1964.98,-228.972 1964.9,-235.972"/>
</g>
<!-- Node23 -->
<g id="node55" class="node"><title>Node23</title>
<a xlink:href="Heartbeat_8hh.html" target="_top" xlink:title="src/GManager/Heartbeat.hh">
<polygon fill="white" stroke="black" points="733.5,-112.5 733.5,-131.5 870.5,-131.5 870.5,-112.5 733.5,-112.5"/>
<text text-anchor="middle" x="802" y="-119.5" font-family="Helvetica,sans-Serif" font-size="10.00">src/GManager/Heartbeat.hh</text>
</a>
</g>
<!-- Node4&#45;&gt;Node23 -->
<g id="edge136" class="edge"><title>Node4&#45;&gt;Node23</title>
<path fill="none" stroke="midnightblue" d="M1964.41,-232.757C1822.04,-231.566 1451.1,-224.86 1144,-188 1031.49,-174.495 900.325,-145.904 838.188,-131.57"/>
<polygon fill="midnightblue" stroke="midnightblue" points="1964.64,-236.259 1974.66,-232.836 1964.69,-229.259 1964.64,-236.259"/>
</g>
<!-- Node24 -->
<g id="node57" class="node"><title>Node24</title>
<a xlink:href="Statusbar_8hh.html" target="_top" xlink:title="src/GManager/Statusbar.hh">
<polygon fill="white" stroke="black" points="636.5,-56.5 636.5,-75.5 773.5,-75.5 773.5,-56.5 636.5,-56.5"/>
<text text-anchor="middle" x="705" y="-63.5" font-family="Helvetica,sans-Serif" font-size="10.00">src/GManager/Statusbar.hh</text>
</a>
</g>
<!-- Node4&#45;&gt;Node24 -->
<g id="edge142" class="edge"><title>Node4&#45;&gt;Node24</title>
<path fill="none" stroke="midnightblue" d="M1964.88,-232.936C1793.27,-232.275 1280.42,-226.927 857,-188 685.252,-172.21 585.814,-262.459 473,-132 467.186,-125.276 467.345,-118.858 473,-112 493.426,-87.2313 575.582,-75.9287 636.359,-70.8844"/>
<polygon fill="midnightblue" stroke="midnightblue" points="1964.95,-236.437 1974.96,-232.971 1964.97,-229.437 1964.95,-236.437"/>
</g>
<!-- Node26 -->
<g id="node61" class="node"><title>Node26</title>
<a xlink:href="MenuList_8hh.html" target="_top" xlink:title="src/GManager/MenuList.hh">
<polygon fill="white" stroke="black" points="1889,-112.5 1889,-131.5 2023,-131.5 2023,-112.5 1889,-112.5"/>
<text text-anchor="middle" x="1956" y="-119.5" font-family="Helvetica,sans-Serif" font-size="10.00">src/GManager/MenuList.hh</text>
</a>
</g>
<!-- Node4&#45;&gt;Node26 -->
<g id="edge138" class="edge"><title>Node4&#45;&gt;Node26</title>
<path fill="none" stroke="midnightblue" d="M2013.27,-215.64C1998.5,-191.744 1972.46,-149.629 1961.31,-131.591"/>
<polygon fill="midnightblue" stroke="midnightblue" points="2010.43,-217.703 2018.66,-224.368 2016.38,-214.022 2010.43,-217.703"/>
</g>
<!-- Node28 -->
<g id="node65" class="node"><title>Node28</title>
<a xlink:href="PlaybackButtons_8hh.html" target="_top" xlink:title="src/GManager/PlaybackButtons.hh">
<polygon fill="white" stroke="black" points="2041.5,-112.5 2041.5,-131.5 2210.5,-131.5 2210.5,-112.5 2041.5,-112.5"/>
<text text-anchor="middle" x="2126" y="-119.5" font-family="Helvetica,sans-Serif" font-size="10.00">src/GManager/PlaybackButtons.hh</text>
</a>
</g>
<!-- Node4&#45;&gt;Node28 -->
<g id="edge140" class="edge"><title>Node4&#45;&gt;Node28</title>
<path fill="none" stroke="midnightblue" d="M2038.93,-216.897C2060.86,-193.249 2101.01,-149.949 2118.03,-131.591"/>
<polygon fill="midnightblue" stroke="midnightblue" points="2036.24,-214.656 2032,-224.368 2041.37,-219.416 2036.24,-214.656"/>
</g>
<!-- Node29 -->
<g id="node68" class="node"><title>Node29</title>
<a xlink:href="StatusIcons_8hh.html" target="_top" xlink:title="src/GManager/StatusIcons.hh">
<polygon fill="white" stroke="black" points="2228.5,-112.5 2228.5,-131.5 2375.5,-131.5 2375.5,-112.5 2228.5,-112.5"/>
<text text-anchor="middle" x="2302" y="-119.5" font-family="Helvetica,sans-Serif" font-size="10.00">src/GManager/StatusIcons.hh</text>
</a>
</g>
<!-- Node4&#45;&gt;Node29 -->
<g id="edge144" class="edge"><title>Node4&#45;&gt;Node29</title>
<path fill="none" stroke="midnightblue" d="M2055.37,-220.586C2112.33,-198.05 2231.36,-150.951 2280.29,-131.591"/>
<polygon fill="midnightblue" stroke="midnightblue" points="2053.82,-217.435 2045.81,-224.368 2056.4,-223.944 2053.82,-217.435"/>
</g>
<!-- Node30 -->
<g id="node71" class="node"><title>Node30</title>
<a xlink:href="TitleLabel_8hh.html" target="_top" xlink:title="src/GManager/TitleLabel.hh">
<polygon fill="white" stroke="black" points="2393.5,-112.5 2393.5,-131.5 2530.5,-131.5 2530.5,-112.5 2393.5,-112.5"/>
<text text-anchor="middle" x="2462" y="-119.5" font-family="Helvetica,sans-Serif" font-size="10.00">src/GManager/TitleLabel.hh</text>
</a>
</g>
<!-- Node4&#45;&gt;Node30 -->
<g id="edge146" class="edge"><title>Node4&#45;&gt;Node30</title>
<path fill="none" stroke="midnightblue" d="M2067.87,-221.982C2155.27,-200.033 2349.45,-151.267 2428.02,-131.535"/>
<polygon fill="midnightblue" stroke="midnightblue" points="2066.85,-218.63 2058,-224.46 2068.56,-225.419 2066.85,-218.63"/>
</g>
<!-- Node31 -->
<g id="node73" class="node"><title>Node31</title>
<a xlink:href="VolumeSlider_8hh.html" target="_top" xlink:title="src/GManager/VolumeSlider.hh">
<polygon fill="white" stroke="black" points="2549,-112.5 2549,-131.5 2701,-131.5 2701,-112.5 2549,-112.5"/>
<text text-anchor="middle" x="2625" y="-119.5" font-family="Helvetica,sans-Serif" font-size="10.00">src/GManager/VolumeSlider.hh</text>
</a>
</g>
<!-- Node4&#45;&gt;Node31 -->
<g id="edge148" class="edge"><title>Node4&#45;&gt;Node31</title>
<path fill="none" stroke="midnightblue" d="M2080.59,-222.643C2198.69,-201.026 2469.46,-151.468 2578.37,-131.535"/>
<polygon fill="midnightblue" stroke="midnightblue" points="2079.87,-219.217 2070.66,-224.46 2081.13,-226.102 2079.87,-219.217"/>
</g>
<!-- Node32 -->
<g id="node76" class="node"><title>Node32</title>
<a xlink:href="UpdateInterface_8hh.html" target="_top" xlink:title="src/Glyr/UpdateInterface.hh">
<polygon fill="white" stroke="black" points="3255.5,-112.5 3255.5,-131.5 3392.5,-131.5 3392.5,-112.5 3255.5,-112.5"/>
<text text-anchor="middle" x="3324" y="-119.5" font-family="Helvetica,sans-Serif" font-size="10.00">src/Glyr/UpdateInterface.hh</text>
</a>
</g>
<!-- Node4&#45;&gt;Node32 -->
<g id="edge88" class="edge"><title>Node4&#45;&gt;Node32</title>
<path fill="none" stroke="midnightblue" d="M2083.58,-230.671C2211.47,-225.404 2521.76,-211.2 2781,-188 2956.42,-172.301 3162.72,-145.224 3263.05,-131.502"/>
<polygon fill="midnightblue" stroke="midnightblue" points="2083.08,-227.188 2073.23,-231.094 2083.36,-234.182 2083.08,-227.188"/>
</g>
<!-- Node39 -->
<g id="node97" class="node"><title>Node39</title>
<a xlink:href="Request_8hh.html" target="_top" xlink:title="src/Glyr/Request.hh">
<polygon fill="white" stroke="black" points="4049,-56.5 4049,-75.5 4153,-75.5 4153,-56.5 4049,-56.5"/>
<text text-anchor="middle" x="4101" y="-63.5" font-family="Helvetica,sans-Serif" font-size="10.00">src/Glyr/Request.hh</text>
</a>
</g>
<!-- Node4&#45;&gt;Node39 -->
<g id="edge134" class="edge"><title>Node4&#45;&gt;Node39</title>
<path fill="none" stroke="midnightblue" d="M2083.14,-230.818C2222.79,-225.466 2583.92,-210.467 2885,-188 3398.87,-149.654 3527.43,-137.919 4039,-76 4042.24,-75.6079 4045.57,-75.1841 4048.93,-74.7414"/>
<polygon fill="midnightblue" stroke="midnightblue" points="2082.93,-227.323 2073.07,-231.201 2083.2,-234.318 2082.93,-227.323"/>
</g>
<!-- Node40 -->
<g id="node115" class="node"><title>Node40</title>
<a xlink:href="check__mpd_8hh.html" target="_top" xlink:title="src/MPD/check_mpd.hh">
<polygon fill="white" stroke="black" points="4209,-168.5 4209,-187.5 4331,-187.5 4331,-168.5 4209,-168.5"/>
<text text-anchor="middle" x="4270" y="-175.5" font-family="Helvetica,sans-Serif" font-size="10.00">src/MPD/check_mpd.hh</text>
</a>
</g>
<!-- Node4&#45;&gt;Node40 -->
<g id="edge150" class="edge"><title>Node4&#45;&gt;Node40</title>
<path fill="none" stroke="midnightblue" d="M2083.61,-232.561C2387.61,-230.203 3767.59,-218 4195,-188 4199.45,-187.688 4204.04,-187.3 4208.65,-186.862"/>
<polygon fill="midnightblue" stroke="midnightblue" points="2083.22,-229.064 2073.25,-232.641 2083.28,-236.064 2083.22,-229.064"/>
</g>
<!-- Node6 -->
<g id="node11" class="node"><title>Node6</title>
<a xlink:href="BrowserList_8hh.html" target="_top" xlink:title="src/GManager/BrowserList.hh">
<polygon fill="white" stroke="black" points="1253,-112.5 1253,-131.5 1399,-131.5 1399,-112.5 1253,-112.5"/>
<text text-anchor="middle" x="1326" y="-119.5" font-family="Helvetica,sans-Serif" font-size="10.00">src/GManager/BrowserList.hh</text>
</a>
</g>
<!-- Node5&#45;&gt;Node6 -->
<g id="edge10" class="edge"><title>Node5&#45;&gt;Node6</title>
<path fill="none" stroke="midnightblue" d="M1326,-157.805C1326,-148.91 1326,-138.78 1326,-131.751"/>
<polygon fill="midnightblue" stroke="midnightblue" points="1322.5,-158.083 1326,-168.083 1329.5,-158.083 1322.5,-158.083"/>
</g>
<!-- Node5&#45;&gt;Node8 -->
<g id="edge28" class="edge"><title>Node5&#45;&gt;Node8</title>
<path fill="none" stroke="midnightblue" d="M1350.62,-163.484C1384.28,-145.029 1441.08,-113.989 1446,-112 1501.18,-89.6847 1524.62,-107.695 1575,-76 1598.63,-61.1352 1618.01,-33.5578 1626.85,-19.5878"/>
<polygon fill="midnightblue" stroke="midnightblue" points="1348.88,-160.442 1341.8,-168.321 1352.25,-166.58 1348.88,-160.442"/>
</g>
<!-- Node5&#45;&gt;Node11 -->
<g id="edge36" class="edge"><title>Node5&#45;&gt;Node11</title>
<path fill="none" stroke="midnightblue" d="M1290.68,-164.975C1268.61,-156.877 1239.94,-145.275 1216,-132 1151.87,-96.4441 1083.27,-40.7192 1058.04,-19.548"/>
<polygon fill="midnightblue" stroke="midnightblue" points="1289.72,-168.349 1300.32,-168.442 1292.09,-161.762 1289.72,-168.349"/>
</g>
<!-- Node5&#45;&gt;Node12 -->
<g id="edge42" class="edge"><title>Node5&#45;&gt;Node12</title>
<path fill="none" stroke="midnightblue" d="M1290.29,-164.718C1272.68,-157.32 1252.05,-146.493 1237,-132 1216.51,-112.264 1213.12,-103.544 1206,-76 1203.78,-67.3936 1202.51,-64.1748 1206,-56 1212.65,-40.4162 1227.65,-27.6451 1238.92,-19.7409"/>
<polygon fill="midnightblue" stroke="midnightblue" points="1289.12,-168.021 1299.71,-168.477 1291.72,-161.52 1289.12,-168.021"/>
</g>
<!-- Node15 -->
<g id="node30" class="node"><title>Node15</title>
<a xlink:href="DatabaseCache_8hh.html" target="_top" xlink:title="src/Browser/Database/DatabaseCache.hh">
<polygon fill="white" stroke="black" points="1631.5,-112.5 1631.5,-131.5 1832.5,-131.5 1832.5,-112.5 1631.5,-112.5"/>
<text text-anchor="middle" x="1732" y="-119.5" font-family="Helvetica,sans-Serif" font-size="10.00">src/Browser/Database/DatabaseCache.hh</text>
</a>
</g>
<!-- Node5&#45;&gt;Node15 -->
<g id="edge30" class="edge"><title>Node5&#45;&gt;Node15</title>
<path fill="none" stroke="midnightblue" d="M1400.4,-167.105C1477.07,-156.907 1595.34,-141.177 1667.97,-131.516"/>
<polygon fill="midnightblue" stroke="midnightblue" points="1399.78,-163.656 1390.33,-168.444 1400.71,-170.594 1399.78,-163.656"/>
</g>
<!-- Node16 -->
<g id="node32" class="node"><title>Node16</title>
<a xlink:href="CoverArtMgr_8hh.html" target="_top" xlink:title="src/Browser/NowPlaying/CoverArtMgr.hh">
<polygon fill="white" stroke="black" points="2447.5,-56.5 2447.5,-75.5 2644.5,-75.5 2644.5,-56.5 2447.5,-56.5"/>
<text text-anchor="middle" x="2546" y="-63.5" font-family="Helvetica,sans-Serif" font-size="10.00">src/Browser/NowPlaying/CoverArtMgr.hh</text>
</a>
</g>
<!-- Node5&#45;&gt;Node16 -->
<g id="edge32" class="edge"><title>Node5&#45;&gt;Node16</title>
<path fill="none" stroke="midnightblue" d="M1414.31,-173.387C1539.85,-167.552 1763.3,-154.385 1841,-132 1859.72,-126.607 1861.23,-117.208 1880,-112 1983.92,-83.1649 2288.78,-72.4718 2447.46,-68.7828"/>
<polygon fill="midnightblue" stroke="midnightblue" points="1413.79,-169.907 1403.96,-173.862 1414.11,-176.9 1413.79,-169.907"/>
</g>
<!-- Node5&#45;&gt;Node17 -->
<g id="edge38" class="edge"><title>Node5&#45;&gt;Node17</title>
<path fill="none" stroke="midnightblue" d="M1262.12,-166.854C1197.88,-156.651 1099.95,-141.098 1039.62,-131.516"/>
<polygon fill="midnightblue" stroke="midnightblue" points="1261.7,-170.332 1272.13,-168.444 1262.8,-163.418 1261.7,-170.332"/>
</g>
<!-- Node18 -->
<g id="node40" class="node"><title>Node18</title>
<a xlink:href="QueueMerger_8hh.html" target="_top" xlink:title="src/Browser/Queue/QueueMerger.hh">
<polygon fill="white" stroke="black" points="1215,-56.5 1215,-75.5 1391,-75.5 1391,-56.5 1215,-56.5"/>
<text text-anchor="middle" x="1303" y="-63.5" font-family="Helvetica,sans-Serif" font-size="10.00">src/Browser/Queue/QueueMerger.hh</text>
</a>
</g>
<!-- Node5&#45;&gt;Node18 -->
<g id="edge44" class="edge"><title>Node5&#45;&gt;Node18</title>
<path fill="none" stroke="midnightblue" d="M1284.63,-164.496C1269.07,-157.552 1252.97,-147.16 1244,-132 1230.42,-109.049 1262.97,-87.1016 1284.94,-75.5109"/>
<polygon fill="midnightblue" stroke="midnightblue" points="1283.61,-167.857 1294.19,-168.385 1286.25,-161.373 1283.61,-167.857"/>
</g>
<!-- Node5&#45;&gt;Node19 -->
<g id="edge48" class="edge"><title>Node5&#45;&gt;Node19</title>
<path fill="none" stroke="midnightblue" d="M1238.37,-174.699C1050.03,-169.482 592.714,-155.362 210,-132 206.94,-131.813 203.833,-131.615 200.696,-131.406"/>
<polygon fill="midnightblue" stroke="midnightblue" points="1238.39,-178.201 1248.49,-174.978 1238.59,-171.203 1238.39,-178.201"/>
</g>
<!-- Node5&#45;&gt;Node20 -->
<g id="edge52" class="edge"><title>Node5&#45;&gt;Node20</title>
<path fill="none" stroke="midnightblue" d="M1238.11,-172.441C1034.07,-161.856 531.94,-135.81 351.183,-126.433"/>
<polygon fill="midnightblue" stroke="midnightblue" points="1238.01,-175.94 1248.18,-172.963 1238.38,-168.95 1238.01,-175.94"/>
</g>
<!-- Node5&#45;&gt;Node22 -->
<g id="edge60" class="edge"><title>Node5&#45;&gt;Node22</title>
<path fill="none" stroke="midnightblue" d="M1238.19,-171.06C1115.63,-162.706 886.351,-146.841 691,-132 686.662,-131.67 682.23,-131.329 677.752,-130.981"/>
<polygon fill="midnightblue" stroke="midnightblue" points="1238.05,-174.559 1248.27,-171.747 1238.53,-167.575 1238.05,-174.559"/>
</g>
<!-- Node5&#45;&gt;Node23 -->
<g id="edge64" class="edge"><title>Node5&#45;&gt;Node23</title>
<path fill="none" stroke="midnightblue" d="M1238.06,-168.502C1148.07,-159.718 1004.23,-145.434 880,-132 877.018,-131.678 873.973,-131.344 870.898,-131.004"/>
<polygon fill="midnightblue" stroke="midnightblue" points="1237.92,-172.005 1248.22,-169.492 1238.6,-165.038 1237.92,-172.005"/>
</g>
<!-- Node5&#45;&gt;Node24 -->
<g id="edge76" class="edge"><title>Node5&#45;&gt;Node24</title>
<path fill="none" stroke="midnightblue" d="M1238.15,-175.884C1080.66,-173.094 763.008,-163.577 724,-132 707.003,-118.241 704.675,-90.1624 704.672,-75.8358"/>
<polygon fill="midnightblue" stroke="midnightblue" points="1238.23,-179.386 1248.28,-176.058 1238.35,-172.387 1238.23,-179.386"/>
</g>
<!-- Node25 -->
<g id="node59" class="node"><title>Node25</title>
<a xlink:href="Timeslide_8hh.html" target="_top" xlink:title="src/GManager/Timeslide.hh">
<polygon fill="white" stroke="black" points="868.5,-56.5 868.5,-75.5 1005.5,-75.5 1005.5,-56.5 868.5,-56.5"/>
<text text-anchor="middle" x="937" y="-63.5" font-family="Helvetica,sans-Serif" font-size="10.00">src/GManager/Timeslide.hh</text>
</a>
</g>
<!-- Node5&#45;&gt;Node25 -->
<g id="edge80" class="edge"><title>Node5&#45;&gt;Node25</title>
<path fill="none" stroke="midnightblue" d="M1268.23,-166.45C1229.91,-158.71 1178.8,-146.954 1135,-132 1114.67,-125.059 1111.14,-119.476 1091,-112 1050.66,-97.023 1002.92,-83.7333 971.403,-75.5494"/>
<polygon fill="midnightblue" stroke="midnightblue" points="1267.69,-169.912 1278.18,-168.429 1269.05,-163.046 1267.69,-169.912"/>
</g>
<!-- Node5&#45;&gt;Node26 -->
<g id="edge70" class="edge"><title>Node5&#45;&gt;Node26</title>
<path fill="none" stroke="midnightblue" d="M1414.04,-170.571C1522.53,-162.467 1712.47,-147.687 1875,-132 1879.51,-131.565 1884.15,-131.098 1888.83,-130.614"/>
<polygon fill="midnightblue" stroke="midnightblue" points="1413.51,-167.1 1403.8,-171.334 1414.03,-174.081 1413.51,-167.1"/>
</g>
<!-- Node27 -->
<g id="node63" class="node"><title>Node27</title>
<a xlink:href="NotifyManager_8hh.html" target="_top" xlink:title="src/GManager/NotifyManager.hh">
<polygon fill="white" stroke="black" points="1455,-112.5 1455,-131.5 1613,-131.5 1613,-112.5 1455,-112.5"/>
<text text-anchor="middle" x="1534" y="-119.5" font-family="Helvetica,sans-Serif" font-size="10.00">src/GManager/NotifyManager.hh</text>
</a>
</g>
<!-- Node5&#45;&gt;Node27 -->
<g id="edge72" class="edge"><title>Node5&#45;&gt;Node27</title>
<path fill="none" stroke="midnightblue" d="M1368.78,-165.894C1408.06,-155.697 1465.43,-140.802 1501.2,-131.516"/>
<polygon fill="midnightblue" stroke="midnightblue" points="1367.76,-162.543 1358.96,-168.444 1369.52,-169.318 1367.76,-162.543"/>
</g>
<!-- Node5&#45;&gt;Node28 -->
<g id="edge74" class="edge"><title>Node5&#45;&gt;Node28</title>
<path fill="none" stroke="midnightblue" d="M1413.8,-172.303C1547.38,-164.954 1809.62,-149.729 2032,-132 2035.11,-131.752 2038.27,-131.492 2041.46,-131.222"/>
<polygon fill="midnightblue" stroke="midnightblue" points="1413.42,-168.819 1403.63,-172.861 1413.8,-175.808 1413.42,-168.819"/>
</g>
<!-- Node5&#45;&gt;Node29 -->
<g id="edge78" class="edge"><title>Node5&#45;&gt;Node29</title>
<path fill="none" stroke="midnightblue" d="M1414.02,-174.248C1574.31,-168.863 1924.49,-155.369 2219,-132 2222.03,-131.759 2225.13,-131.497 2228.25,-131.22"/>
<polygon fill="midnightblue" stroke="midnightblue" points="1413.62,-170.76 1403.74,-174.591 1413.85,-177.756 1413.62,-170.76"/>
</g>
<!-- Node5&#45;&gt;Node30 -->
<g id="edge82" class="edge"><title>Node5&#45;&gt;Node30</title>
<path fill="none" stroke="midnightblue" d="M1413.79,-175.414C1595.24,-171.661 2024.7,-160.333 2384,-132 2386.99,-131.764 2390.04,-131.503 2393.12,-131.221"/>
<polygon fill="midnightblue" stroke="midnightblue" points="1413.69,-171.915 1403.77,-175.618 1413.84,-178.913 1413.69,-171.915"/>
</g>
<!-- Node5&#45;&gt;Node31 -->
<g id="edge84" class="edge"><title>Node5&#45;&gt;Node31</title>
<path fill="none" stroke="midnightblue" d="M1413.95,-175.762C1613.98,-172.503 2118.28,-161.785 2539,-132 2542.14,-131.777 2545.35,-131.531 2548.59,-131.265"/>
<polygon fill="midnightblue" stroke="midnightblue" points="1413.74,-172.265 1403.79,-175.925 1413.85,-179.264 1413.74,-172.265"/>
</g>
<!-- Node7 -->
<g id="node13" class="node"><title>Node7</title>
<a xlink:href="AbstractBrowser_8hh.html" target="_top" xlink:title="src/Browser/AbstractBrowser.hh">
<polygon fill="white" stroke="black" points="1409,-56.5 1409,-75.5 1567,-75.5 1567,-56.5 1409,-56.5"/>
<text text-anchor="middle" x="1488" y="-63.5" font-family="Helvetica,sans-Serif" font-size="10.00">src/Browser/AbstractBrowser.hh</text>
</a>
</g>
<!-- Node6&#45;&gt;Node7 -->
<g id="edge12" class="edge"><title>Node6&#45;&gt;Node7</title>
<path fill="none" stroke="midnightblue" d="M1361.48,-109.172C1391.99,-99.0039 1435.24,-84.5852 1462.45,-75.5164"/>
<polygon fill="midnightblue" stroke="midnightblue" points="1360.05,-105.961 1351.67,-112.444 1362.26,-112.602 1360.05,-105.961"/>
</g>
<!-- Node7&#45;&gt;Node8 -->
<g id="edge14" class="edge"><title>Node7&#45;&gt;Node8</title>
<path fill="none" stroke="midnightblue" d="M1520.25,-52.9058C1547.32,-42.7536 1585.32,-28.5063 1609.29,-19.5164"/>
<polygon fill="midnightblue" stroke="midnightblue" points="1518.95,-49.6551 1510.82,-56.4435 1521.41,-56.2094 1518.95,-49.6551"/>
</g>
<!-- Node9 -->
<g id="node17" class="node"><title>Node9</title>
<a xlink:href="Fortuna_8hh.html" target="_top" xlink:title="src/Browser/Fortuna/Fortuna.hh">
<polygon fill="white" stroke="black" points="1372.5,-0.5 1372.5,-19.5 1527.5,-19.5 1527.5,-0.5 1372.5,-0.5"/>
<text text-anchor="middle" x="1450" y="-7.5" font-family="Helvetica,sans-Serif" font-size="10.00">src/Browser/Fortuna/Fortuna.hh</text>
</a>
</g>
<!-- Node7&#45;&gt;Node9 -->
<g id="edge16" class="edge"><title>Node7&#45;&gt;Node9</title>
<path fill="none" stroke="midnightblue" d="M1475.94,-47.8554C1469.36,-38.5048 1461.49,-27.3265 1456.16,-19.7511"/>
<polygon fill="midnightblue" stroke="midnightblue" points="1473.11,-49.9192 1481.73,-56.083 1478.83,-45.8907 1473.11,-49.9192"/>
</g>
<!-- Node7&#45;&gt;Node10 -->
<g id="edge18" class="edge"><title>Node7&#45;&gt;Node10</title>
<path fill="none" stroke="midnightblue" d="M1577.21,-62.2023C1871.11,-52.9862 2807.48,-23.6227 3112.75,-14.0496"/>
<polygon fill="midnightblue" stroke="midnightblue" points="1576.92,-58.7098 1567.03,-62.5216 1577.14,-65.7064 1576.92,-58.7098"/>
</g>
<!-- Node7&#45;&gt;Node11 -->
<g id="edge20" class="edge"><title>Node7&#45;&gt;Node11</title>
<path fill="none" stroke="midnightblue" d="M1408.13,-55.198C1325.07,-45.0037 1196.35,-29.2062 1117.39,-19.5164"/>
<polygon fill="midnightblue" stroke="midnightblue" points="1407.93,-58.6993 1418.28,-56.4435 1408.78,-51.7514 1407.93,-58.6993"/>
</g>
<!-- Node7&#45;&gt;Node12 -->
<g id="edge22" class="edge"><title>Node7&#45;&gt;Node12</title>
<path fill="none" stroke="midnightblue" d="M1440.79,-54.1529C1396.39,-43.95 1330.81,-28.8809 1290.06,-19.5164"/>
<polygon fill="midnightblue" stroke="midnightblue" points="1440.23,-57.6151 1450.76,-56.4435 1441.8,-50.7929 1440.23,-57.6151"/>
</g>
<!-- Node13 -->
<g id="node25" class="node"><title>Node13</title>
<a xlink:href="Settings_8hh.html" target="_top" xlink:title="src/Browser/Settings/Settings.hh">
<polygon fill="white" stroke="black" points="173.5,-0.5 173.5,-19.5 334.5,-19.5 334.5,-0.5 173.5,-0.5"/>
<text text-anchor="middle" x="254" y="-7.5" font-family="Helvetica,sans-Serif" font-size="10.00">src/Browser/Settings/Settings.hh</text>
</a>
</g>
<!-- Node7&#45;&gt;Node13 -->
<g id="edge24" class="edge"><title>Node7&#45;&gt;Node13</title>
<path fill="none" stroke="midnightblue" d="M1398.73,-56.0367C992.193,-27.8248 520.192,-16.2048 334.608,-12.4643"/>
<polygon fill="midnightblue" stroke="midnightblue" points="1398.7,-59.5434 1408.92,-56.7487 1399.19,-52.5604 1398.7,-59.5434"/>
</g>
<!-- Node7&#45;&gt;Node14 -->
<g id="edge26" class="edge"><title>Node7&#45;&gt;Node14</title>
<path fill="none" stroke="midnightblue" d="M1577.51,-57.1786C1693.9,-47.0086 1896.18,-29.334 2013.85,-19.052"/>
<polygon fill="midnightblue" stroke="midnightblue" points="1576.87,-53.7213 1567.21,-58.0785 1577.48,-60.6947 1576.87,-53.7213"/>
</g>
<!-- Node16&#45;&gt;Node10 -->
<g id="edge34" class="edge"><title>Node16&#45;&gt;Node10</title>
<path fill="none" stroke="midnightblue" d="M2654.99,-55.8378C2821.89,-42.0912 3004.02,-27.4561 3112.89,-18.7476"/>
<polygon fill="midnightblue" stroke="midnightblue" points="2654.21,-52.3904 2644.53,-56.7 2654.79,-59.3667 2654.21,-52.3904"/>
</g>
<!-- Node17&#45;&gt;Node12 -->
<g id="edge40" class="edge"><title>Node17&#45;&gt;Node12</title>
<path fill="none" stroke="midnightblue" d="M1016.47,-108.446C1071.31,-85.855 1185.25,-38.9113 1232.15,-19.5914"/>
<polygon fill="midnightblue" stroke="midnightblue" points="1014.86,-105.323 1006.95,-112.368 1017.53,-111.795 1014.86,-105.323"/>
</g>
<!-- Node18&#45;&gt;Node12 -->
<g id="edge46" class="edge"><title>Node18&#45;&gt;Node12</title>
<path fill="none" stroke="midnightblue" d="M1287.92,-48.7175C1279.11,-39.1997 1268.33,-27.5608 1261.1,-19.7511"/>
<polygon fill="midnightblue" stroke="midnightblue" points="1285.38,-51.1233 1294.74,-56.083 1290.52,-46.3674 1285.38,-51.1233"/>
</g>
<!-- Node19&#45;&gt;Node13 -->
<g id="edge50" class="edge"><title>Node19&#45;&gt;Node13</title>
<path fill="none" stroke="midnightblue" d="M107.317,-102.799C113.94,-88.3699 124.964,-68.6019 140,-56 161.771,-37.7537 191.837,-26.3001 215.627,-19.5167"/>
<polygon fill="midnightblue" stroke="midnightblue" points="104.017,-101.615 103.278,-112.184 110.447,-104.382 104.017,-101.615"/>
</g>
<!-- Node20&#45;&gt;Node13 -->
<g id="edge58" class="edge"><title>Node20&#45;&gt;Node13</title>
<path fill="none" stroke="midnightblue" d="M231.555,-110.189C197.603,-102.113 158.19,-90.0723 148,-76 127.616,-47.8496 174.797,-29.3981 212.621,-19.5803"/>
<polygon fill="midnightblue" stroke="midnightblue" points="230.886,-113.627 241.417,-112.463 232.459,-106.806 230.886,-113.627"/>
</g>
<!-- Node21 -->
<g id="node48" class="node"><title>Node21</title>
<a xlink:href="SettingsGeneral_8hh.html" target="_top" xlink:title="src/Browser/Settings/SettingsGeneral.hh">
<polygon fill="white" stroke="black" points="157,-56.5 157,-75.5 351,-75.5 351,-56.5 157,-56.5"/>
<text text-anchor="middle" x="254" y="-63.5" font-family="Helvetica,sans-Serif" font-size="10.00">src/Browser/Settings/SettingsGeneral.hh</text>
</a>
</g>
<!-- Node20&#45;&gt;Node21 -->
<g id="edge54" class="edge"><title>Node20&#45;&gt;Node21</title>
<path fill="none" stroke="midnightblue" d="M274.824,-103.275C269.526,-94.0454 263.283,-83.1703 259.024,-75.7511"/>
<polygon fill="midnightblue" stroke="midnightblue" points="271.867,-105.153 279.881,-112.083 277.938,-101.668 271.867,-105.153"/>
</g>
<!-- Node21&#45;&gt;Node13 -->
<g id="edge56" class="edge"><title>Node21&#45;&gt;Node13</title>
<path fill="none" stroke="midnightblue" d="M254,-45.8045C254,-36.9102 254,-26.7798 254,-19.7511"/>
<polygon fill="midnightblue" stroke="midnightblue" points="250.5,-46.083 254,-56.083 257.5,-46.083 250.5,-46.083"/>
</g>
<!-- Node22&#45;&gt;Node13 -->
<g id="edge62" class="edge"><title>Node22&#45;&gt;Node13</title>
<path fill="none" stroke="midnightblue" d="M545.152,-109.241C479.185,-86.9826 337.491,-39.1719 279.518,-19.6104"/>
<polygon fill="midnightblue" stroke="midnightblue" points="544.096,-112.579 554.691,-112.46 546.334,-105.947 544.096,-112.579"/>
</g>
<!-- Node23&#45;&gt;Node24 -->
<g id="edge66" class="edge"><title>Node23&#45;&gt;Node24</title>
<path fill="none" stroke="midnightblue" d="M777.665,-107.453C759.757,-97.4835 735.946,-84.2279 720.546,-75.6545"/>
<polygon fill="midnightblue" stroke="midnightblue" points="775.975,-110.518 786.415,-112.324 779.38,-104.402 775.975,-110.518"/>
</g>
<!-- Node23&#45;&gt;Node25 -->
<g id="edge68" class="edge"><title>Node23&#45;&gt;Node25</title>
<path fill="none" stroke="midnightblue" d="M832.906,-108.638C858.24,-98.504 893.431,-84.4274 915.709,-75.5164"/>
<polygon fill="midnightblue" stroke="midnightblue" points="831.376,-105.48 823.391,-112.444 833.976,-111.979 831.376,-105.48"/>
</g>
<!-- Node32&#45;&gt;Node10 -->
<g id="edge112" class="edge"><title>Node32&#45;&gt;Node10</title>
<path fill="none" stroke="midnightblue" d="M3402.63,-116.007C3461.15,-110.458 3534.05,-99.0349 3553,-76 3558.65,-69.1353 3558.86,-62.6817 3553,-56 3536.91,-37.6595 3403.04,-24.4711 3307.4,-17.284"/>
<polygon fill="midnightblue" stroke="midnightblue" points="3402.27,-112.525 3392.63,-116.913 3402.9,-119.497 3402.27,-112.525"/>
</g>
<!-- Node32&#45;&gt;Node16 -->
<g id="edge94" class="edge"><title>Node32&#45;&gt;Node16</title>
<path fill="none" stroke="midnightblue" d="M3245.12,-116.144C3119.68,-108.325 2867.02,-92.1764 2653,-76 2650.21,-75.7892 2647.38,-75.5723 2644.53,-75.3506"/>
<polygon fill="midnightblue" stroke="midnightblue" points="3245.19,-119.656 3255.39,-116.784 3245.63,-112.669 3245.19,-119.656"/>
</g>
<!-- Node33 -->
<g id="node78" class="node"><title>Node33</title>
<a xlink:href="ArtistPhotosMgr_8hh.html" target="_top" xlink:title="src/Browser/NowPlaying/ArtistPhotosMgr.hh">
<polygon fill="white" stroke="black" points="3819,-56.5 3819,-75.5 4031,-75.5 4031,-56.5 3819,-56.5"/>
<text text-anchor="middle" x="3925" y="-63.5" font-family="Helvetica,sans-Serif" font-size="10.00">src/Browser/NowPlaying/ArtistPhotosMgr.hh</text>
</a>
</g>
<!-- Node32&#45;&gt;Node33 -->
<g id="edge90" class="edge"><title>Node32&#45;&gt;Node33</title>
<path fill="none" stroke="midnightblue" d="M3402.68,-113.93C3512.67,-104.048 3712.12,-86.127 3830.17,-75.5203"/>
<polygon fill="midnightblue" stroke="midnightblue" points="3402.3,-110.451 3392.65,-114.832 3402.92,-117.423 3402.3,-110.451"/>
</g>
<!-- Node34 -->
<g id="node82" class="node"><title>Node34</title>
<a xlink:href="OtherAlbumsMgr_8hh.html" target="_top" xlink:title="src/Browser/NowPlaying/OtherAlbumsMgr.hh">
<polygon fill="white" stroke="black" points="2662.5,-56.5 2662.5,-75.5 2877.5,-75.5 2877.5,-56.5 2662.5,-56.5"/>
<text text-anchor="middle" x="2770" y="-63.5" font-family="Helvetica,sans-Serif" font-size="10.00">src/Browser/NowPlaying/OtherAlbumsMgr.hh</text>
</a>
</g>
<!-- Node32&#45;&gt;Node34 -->
<g id="edge96" class="edge"><title>Node32&#45;&gt;Node34</title>
<path fill="none" stroke="midnightblue" d="M3245.25,-113.324C3142.7,-103.328 2963.99,-85.9092 2857.37,-75.5165"/>
<polygon fill="midnightblue" stroke="midnightblue" points="3244.94,-116.811 3255.23,-114.297 3245.62,-109.844 3244.94,-116.811"/>
</g>
<!-- Node35 -->
<g id="node85" class="node"><title>Node35</title>
<a xlink:href="TracklistMgr_8hh.html" target="_top" xlink:title="src/Browser/NowPlaying/TracklistMgr.hh">
<polygon fill="white" stroke="black" points="2895.5,-56.5 2895.5,-75.5 3090.5,-75.5 3090.5,-56.5 2895.5,-56.5"/>
<text text-anchor="middle" x="2993" y="-63.5" font-family="Helvetica,sans-Serif" font-size="10.00">src/Browser/NowPlaying/TracklistMgr.hh</text>
</a>
</g>
<!-- Node32&#45;&gt;Node35 -->
<g id="edge100" class="edge"><title>Node32&#45;&gt;Node35</title>
<path fill="none" stroke="midnightblue" d="M3261.42,-110.791C3198.88,-100.587 3103.81,-85.078 3045.2,-75.5164"/>
<polygon fill="midnightblue" stroke="midnightblue" points="3261.12,-114.288 3271.55,-112.444 3262.25,-107.379 3261.12,-114.288"/>
</g>
<!-- Node36 -->
<g id="node88" class="node"><title>Node36</title>
<a xlink:href="TextItemsMgr_8hh.html" target="_top" xlink:title="src/Browser/NowPlaying/TextItemsMgr.hh">
<polygon fill="white" stroke="black" points="3109,-56.5 3109,-75.5 3311,-75.5 3311,-56.5 3109,-56.5"/>
<text text-anchor="middle" x="3210" y="-63.5" font-family="Helvetica,sans-Serif" font-size="10.00">src/Browser/NowPlaying/TextItemsMgr.hh</text>
</a>
</g>
<!-- Node32&#45;&gt;Node36 -->
<g id="edge104" class="edge"><title>Node32&#45;&gt;Node36</title>
<path fill="none" stroke="midnightblue" d="M3296.76,-108.096C3275.46,-98.0073 3246.46,-84.2697 3227.98,-75.5164"/>
<polygon fill="midnightblue" stroke="midnightblue" points="3295.4,-111.326 3305.94,-112.444 3298.4,-105 3295.4,-111.326"/>
</g>
<!-- Node37 -->
<g id="node91" class="node"><title>Node37</title>
<a xlink:href="RelatedLinksMgr_8hh.html" target="_top" xlink:title="src/Browser/NowPlaying/RelatedLinksMgr.hh">
<polygon fill="white" stroke="black" points="3329.5,-56.5 3329.5,-75.5 3544.5,-75.5 3544.5,-56.5 3329.5,-56.5"/>
<text text-anchor="middle" x="3437" y="-63.5" font-family="Helvetica,sans-Serif" font-size="10.00">src/Browser/NowPlaying/RelatedLinksMgr.hh</text>
</a>
</g>
<!-- Node32&#45;&gt;Node37 -->
<g id="edge108" class="edge"><title>Node32&#45;&gt;Node37</title>
<path fill="none" stroke="midnightblue" d="M3351,-108.096C3372.11,-98.0073 3400.86,-84.2697 3419.18,-75.5164"/>
<polygon fill="midnightblue" stroke="midnightblue" points="3349.42,-104.974 3341.91,-112.444 3352.44,-111.29 3349.42,-104.974"/>
</g>
<!-- Node38 -->
<g id="node95" class="node"><title>Node38</title>
<a xlink:href="TextPageMgr_8hh.html" target="_top" xlink:title="src/Browser/NowPlaying/TextPageMgr.hh">
<polygon fill="white" stroke="black" points="3601,-56.5 3601,-75.5 3801,-75.5 3801,-56.5 3601,-56.5"/>
<text text-anchor="middle" x="3701" y="-63.5" font-family="Helvetica,sans-Serif" font-size="10.00">src/Browser/NowPlaying/TextPageMgr.hh</text>
</a>
</g>
<!-- Node32&#45;&gt;Node38 -->
<g id="edge114" class="edge"><title>Node32&#45;&gt;Node38</title>
<path fill="none" stroke="midnightblue" d="M3393.96,-110.979C3465.17,-100.779 3574.38,-85.1372 3641.54,-75.5164"/>
<polygon fill="midnightblue" stroke="midnightblue" points="3393.14,-107.561 3383.74,-112.444 3394.13,-114.49 3393.14,-107.561"/>
</g>
<!-- Node32&#45;&gt;Node39 -->
<g id="edge116" class="edge"><title>Node32&#45;&gt;Node39</title>
<path fill="none" stroke="midnightblue" d="M3402.69,-118.141C3534.56,-112.881 3808.41,-99.9528 4039,-76 4042.25,-75.6629 4045.58,-75.2812 4048.94,-74.8699"/>
<polygon fill="midnightblue" stroke="midnightblue" points="3402.53,-114.645 3392.68,-118.537 3402.81,-121.639 3402.53,-114.645"/>
</g>
<!-- Node33&#45;&gt;Node10 -->
<g id="edge92" class="edge"><title>Node33&#45;&gt;Node10</title>
<path fill="none" stroke="midnightblue" d="M3808.69,-55.9015C3625.23,-41.8569 3423.7,-26.8354 3307.17,-18.1907"/>
<polygon fill="midnightblue" stroke="midnightblue" points="3808.56,-59.4016 3818.79,-56.6757 3809.09,-52.4221 3808.56,-59.4016"/>
</g>
<!-- Node34&#45;&gt;Node10 -->
<g id="edge98" class="edge"><title>Node34&#45;&gt;Node10</title>
<path fill="none" stroke="midnightblue" d="M2849.87,-55.198C2932.93,-45.0037 3061.65,-29.2062 3140.61,-19.5164"/>
<polygon fill="midnightblue" stroke="midnightblue" points="2849.22,-51.7514 2839.72,-56.4435 2850.07,-58.6993 2849.22,-51.7514"/>
</g>
<!-- Node35&#45;&gt;Node10 -->
<g id="edge102" class="edge"><title>Node35&#45;&gt;Node10</title>
<path fill="none" stroke="midnightblue" d="M3037.11,-54.0237C3078.1,-43.8232 3138.3,-28.8414 3175.78,-19.5164"/>
<polygon fill="midnightblue" stroke="midnightblue" points="3036.24,-50.6322 3027.38,-56.4435 3037.93,-57.425 3036.24,-50.6322"/>
</g>
<!-- Node36&#45;&gt;Node10 -->
<g id="edge106" class="edge"><title>Node36&#45;&gt;Node10</title>
<path fill="none" stroke="midnightblue" d="M3210,-45.8045C3210,-36.9102 3210,-26.7798 3210,-19.7511"/>
<polygon fill="midnightblue" stroke="midnightblue" points="3206.5,-46.083 3210,-56.083 3213.5,-46.083 3206.5,-46.083"/>
</g>
<!-- Node37&#45;&gt;Node10 -->
<g id="edge110" class="edge"><title>Node37&#45;&gt;Node10</title>
<path fill="none" stroke="midnightblue" d="M3391.13,-54.0884C3348.25,-43.8865 3285.08,-28.8612 3245.8,-19.5164"/>
<polygon fill="midnightblue" stroke="midnightblue" points="3390.49,-57.5342 3401.03,-56.4435 3392.11,-50.7242 3390.49,-57.5342"/>
</g>
<!-- Node41&#45;&gt;Node2 -->
<g id="edge154" class="edge"><title>Node41&#45;&gt;Node2</title>
<path fill="none" stroke="midnightblue" d="M2054.27,-384.144C2046.6,-374.736 2037.37,-363.405 2031.13,-355.751"/>
<polygon fill="midnightblue" stroke="midnightblue" points="2051.7,-386.541 2060.73,-392.083 2057.13,-382.12 2051.7,-386.541"/>
</g>
</g>
</svg>
