<?xml version="1.0" encoding="UTF-8" standalone="no"?>
<!DOCTYPE svg PUBLIC "-//W3C//DTD SVG 1.1//EN"
 "http://www.w3.org/Graphics/SVG/1.1/DTD/svg11.dtd">
<!-- Generated by graphviz version 2.28.0 (20120217.0315)
 -->
<!-- Title: G Pages: 1 -->
<svg width="4339pt" height="476pt"
 viewBox="0.00 0.00 4339.00 476.00" xmlns="http://www.w3.org/2000/svg" xmlns:xlink="http://www.w3.org/1999/xlink">
<g id="graph1" class="graph" transform="scale(1 1) rotate(0) translate(4 472)">
<title>G</title>
<polygon fill="white" stroke="white" points="-4,5 -4,-472 4336,-472 4336,5 -4,5"/>
<!-- Node1 -->
<g id="node1" class="node"><title>Node1</title>
<polygon fill="#bfbfbf" stroke="black" points="1966.5,-448.5 1966.5,-467.5 2079.5,-467.5 2079.5,-448.5 1966.5,-448.5"/>
<text text-anchor="middle" x="2023" y="-455.5" font-family="Helvetica,sans-Serif" font-size="10.00">src/MPD/Statistics.hh</text>
</g>
<!-- Node2 -->
<g id="node3" class="node"><title>Node2</title>
<a xlink:href="NotifyData_8hh.html" target="_top" xlink:title="src/MPD/NotifyData.hh">
<polygon fill="white" stroke="black" points="1963.5,-392.5 1963.5,-411.5 2082.5,-411.5 2082.5,-392.5 1963.5,-392.5"/>
<text text-anchor="middle" x="2023" y="-399.5" font-family="Helvetica,sans-Serif" font-size="10.00">src/MPD/NotifyData.hh</text>
</a>
</g>
<!-- Node1&#45;&gt;Node2 -->
<g id="edge2" class="edge"><title>Node1&#45;&gt;Node2</title>
<path fill="none" stroke="midnightblue" d="M2023,-437.805C2023,-428.91 2023,-418.78 2023,-411.751"/>
<polygon fill="midnightblue" stroke="midnightblue" points="2019.5,-438.083 2023,-448.083 2026.5,-438.083 2019.5,-438.083"/>
</g>
<!-- Node3 -->
<g id="node5" class="node"><title>Node3</title>
<a xlink:href="Listener_8hh.html" target="_top" xlink:title="src/MPD/Listener.hh">
<polygon fill="white" stroke="black" points="1969.5,-336.5 1969.5,-355.5 2076.5,-355.5 2076.5,-336.5 1969.5,-336.5"/>
<text text-anchor="middle" x="2023" y="-343.5" font-family="Helvetica,sans-Serif" font-size="10.00">src/MPD/Listener.hh</text>
</a>
</g>
<!-- Node2&#45;&gt;Node3 -->
<g id="edge4" class="edge"><title>Node2&#45;&gt;Node3</title>
<path fill="none" stroke="midnightblue" d="M2023,-381.805C2023,-372.91 2023,-362.78 2023,-355.751"/>
<polygon fill="midnightblue" stroke="midnightblue" points="2019.5,-382.083 2023,-392.083 2026.5,-382.083 2019.5,-382.083"/>
</g>
<!-- Node4 -->
<g id="node7" class="node"><title>Node4</title>
<a xlink:href="BaseClient_8hh.html" target="_top" xlink:title="src/MPD/BaseClient.hh">
<polygon fill="white" stroke="black" points="1963,-280.5 1963,-299.5 2083,-299.5 2083,-280.5 1963,-280.5"/>
<text text-anchor="middle" x="2023" y="-287.5" font-family="Helvetica,sans-Serif" font-size="10.00">src/MPD/BaseClient.hh</text>
</a>
</g>
<!-- Node3&#45;&gt;Node4 -->
<g id="edge6" class="edge"><title>Node3&#45;&gt;Node4</title>
<path fill="none" stroke="midnightblue" d="M2023,-325.805C2023,-316.91 2023,-306.78 2023,-299.751"/>
<polygon fill="midnightblue" stroke="midnightblue" points="2019.5,-326.083 2023,-336.083 2026.5,-326.083 2019.5,-326.083"/>
</g>
<!-- Node5 -->
<g id="node9" class="node"><title>Node5</title>
<a xlink:href="Client_8hh.html" target="_top" xlink:title="src/MPD/Client.hh">
<polygon fill="white" stroke="black" points="1974,-224.5 1974,-243.5 2072,-243.5 2072,-224.5 1974,-224.5"/>
<text text-anchor="middle" x="2023" y="-231.5" font-family="Helvetica,sans-Serif" font-size="10.00">src/MPD/Client.hh</text>
</a>
</g>
<!-- Node4&#45;&gt;Node5 -->
<g id="edge8" class="edge"><title>Node4&#45;&gt;Node5</title>
<path fill="none" stroke="midnightblue" d="M2023,-269.805C2023,-260.91 2023,-250.78 2023,-243.751"/>
<polygon fill="midnightblue" stroke="midnightblue" points="2019.5,-270.083 2023,-280.083 2026.5,-270.083 2019.5,-270.083"/>
</g>
<!-- Node6 -->
<g id="node11" class="node"><title>Node6</title>
<a xlink:href="AbstractClientUser_8hh.html" target="_top" xlink:title="src/MPD/AbstractClientUser.hh">
<polygon fill="white" stroke="black" points="1248.5,-168.5 1248.5,-187.5 1403.5,-187.5 1403.5,-168.5 1248.5,-168.5"/>
<text text-anchor="middle" x="1326" y="-175.5" font-family="Helvetica,sans-Serif" font-size="10.00">src/MPD/AbstractClientUser.hh</text>
</a>
</g>
<!-- Node5&#45;&gt;Node6 -->
<g id="edge10" class="edge"><title>Node5&#45;&gt;Node6</title>
<path fill="none" stroke="midnightblue" d="M1963.78,-228.412C1837.97,-218.665 1544.06,-195.894 1403.53,-185.006"/>
<polygon fill="midnightblue" stroke="midnightblue" points="1963.75,-231.92 1973.99,-229.203 1964.29,-224.941 1963.75,-231.92"/>
</g>
<!-- Node9 -->
<g id="node17" class="node"><title>Node9</title>
<a xlink:href="Database_8hh.html" target="_top" xlink:title="src/Browser/Database/Database.hh">
<polygon fill="white" stroke="black" points="1545.5,-0.5 1545.5,-19.5 1718.5,-19.5 1718.5,-0.5 1545.5,-0.5"/>
<text text-anchor="middle" x="1632" y="-7.5" font-family="Helvetica,sans-Serif" font-size="10.00">src/Browser/Database/Database.hh</text>
</a>
</g>
<!-- Node5&#45;&gt;Node9 -->
<g id="edge88" class="edge"><title>Node5&#45;&gt;Node9</title>
<path fill="none" stroke="midnightblue" d="M2082.33,-231.969C2264.24,-227.775 2796.79,-207.301 2710,-112 2701.64,-102.825 1973.02,-40.0168 1718.54,-18.3387"/>
<polygon fill="midnightblue" stroke="midnightblue" points="2082.05,-228.474 2072.14,-232.195 2082.21,-235.472 2082.05,-228.474"/>
</g>
<!-- Node11 -->
<g id="node21" class="node"><title>Node11</title>
<a xlink:href="NowPlaying_8hh.html" target="_top" xlink:title="src/Browser/NowPlaying/NowPlaying.hh">
<polygon fill="white" stroke="black" points="3113,-0.5 3113,-19.5 3307,-19.5 3307,-0.5 3113,-0.5"/>
<text text-anchor="middle" x="3210" y="-7.5" font-family="Helvetica,sans-Serif" font-size="10.00">src/Browser/NowPlaying/NowPlaying.hh</text>
</a>
</g>
<!-- Node5&#45;&gt;Node11 -->
<g id="edge120" class="edge"><title>Node5&#45;&gt;Node11</title>
<path fill="none" stroke="midnightblue" d="M2082.4,-233.417C2413.31,-235.129 4019.48,-235.162 4162,-76 4167.93,-69.3779 4168.14,-62.4321 4162,-56 4132.84,-25.4315 3544.2,-14.9957 3307.4,-12.0257"/>
<polygon fill="midnightblue" stroke="midnightblue" points="2082.09,-229.916 2072.08,-233.361 2082.06,-236.916 2082.09,-229.916"/>
</g>
<!-- Node12 -->
<g id="node23" class="node"><title>Node12</title>
<a xlink:href="PlaylistManager_8hh.html" target="_top" xlink:title="src/Browser/PlaylistManager/PlaylistManager.hh">
<polygon fill="white" stroke="black" points="915,-0.5 915,-19.5 1143,-19.5 1143,-0.5 915,-0.5"/>
<text text-anchor="middle" x="1029" y="-7.5" font-family="Helvetica,sans-Serif" font-size="10.00">src/Browser/PlaylistManager/PlaylistManager.hh</text>
</a>
</g>
<!-- Node5&#45;&gt;Node12 -->
<g id="edge122" class="edge"><title>Node5&#45;&gt;Node12</title>
<path fill="none" stroke="midnightblue" d="M1963.61,-233.11C1687.42,-233.392 539.428,-231.907 478,-188 430.266,-153.881 429.737,-92.087 476,-56 509.727,-29.6919 762.879,-18.2273 914.724,-13.6734"/>
<polygon fill="midnightblue" stroke="midnightblue" points="1963.83,-236.61 1973.83,-233.099 1963.82,-229.61 1963.83,-236.61"/>
</g>
<!-- Node13 -->
<g id="node25" class="node"><title>Node13</title>
<a xlink:href="Queue_8hh.html" target="_top" xlink:title="src/Browser/Queue/Queue.hh">
<polygon fill="white" stroke="black" points="1161,-0.5 1161,-19.5 1307,-19.5 1307,-0.5 1161,-0.5"/>
<text text-anchor="middle" x="1234" y="-7.5" font-family="Helvetica,sans-Serif" font-size="10.00">src/Browser/Queue/Queue.hh</text>
</a>
</g>
<!-- Node5&#45;&gt;Node13 -->
<g id="edge126" class="edge"><title>Node5&#45;&gt;Node13</title>
<path fill="none" stroke="midnightblue" d="M1963.67,-232.657C1691.62,-230.902 573.81,-221.664 508,-188 480.063,-173.709 475.092,-161.713 465,-132 433.51,-39.2833 581.52,-65.2497 627,-56 856.189,-9.38776 919.042,-40.7627 1152,-20 1154.85,-19.7457 1157.76,-19.4762 1160.7,-19.1955"/>
<polygon fill="midnightblue" stroke="midnightblue" points="1963.72,-236.157 1973.75,-232.721 1963.77,-229.157 1963.72,-236.157"/>
</g>
<!-- Node15 -->
<g id="node29" class="node"><title>Node15</title>
<a xlink:href="StatBrowser_8hh.html" target="_top" xlink:title="src/Browser/Statistics/StatBrowser.hh">
<polygon fill="white" stroke="black" points="2050,-0.5 2050,-19.5 2234,-19.5 2234,-0.5 2050,-0.5"/>
<text text-anchor="middle" x="2142" y="-7.5" font-family="Helvetica,sans-Serif" font-size="10.00">src/Browser/Statistics/StatBrowser.hh</text>
</a>
</g>
<!-- Node5&#45;&gt;Node15 -->
<g id="edge134" class="edge"><title>Node5&#45;&gt;Node15</title>
<path fill="none" stroke="midnightblue" d="M2082.26,-231.483C2250.51,-226.889 2720.49,-211.959 2743,-188 2766.13,-163.382 2765.44,-137.246 2743,-112 2697.66,-60.9911 2503.66,-94.6259 2438,-76 2417.72,-70.2477 2415.1,-62.3432 2395,-56 2337.56,-37.8745 2270.35,-26.3516 2219.64,-19.5082"/>
<polygon fill="midnightblue" stroke="midnightblue" points="2081.99,-227.989 2072.09,-231.758 2082.18,-234.986 2081.99,-227.989"/>
</g>
<!-- Node18 -->
<g id="node38" class="node"><title>Node18</title>
<a xlink:href="PlaylistAddDialog_8hh.html" target="_top" xlink:title="src/Browser/Queue/PlaylistAddDialog.hh">
<polygon fill="white" stroke="black" points="889,-112.5 889,-131.5 1083,-131.5 1083,-112.5 889,-112.5"/>
<text text-anchor="middle" x="986" y="-119.5" font-family="Helvetica,sans-Serif" font-size="10.00">src/Browser/Queue/PlaylistAddDialog.hh</text>
</a>
</g>
<!-- Node5&#45;&gt;Node18 -->
<g id="edge124" class="edge"><title>Node5&#45;&gt;Node18</title>
<path fill="none" stroke="midnightblue" d="M1963.31,-233.507C1831.68,-233.767 1506.9,-229.697 1239,-188 1154.76,-174.888 1057.8,-145.979 1012.24,-131.547"/>
<polygon fill="midnightblue" stroke="midnightblue" points="1963.58,-237.006 1973.57,-233.477 1963.56,-230.006 1963.58,-237.006"/>
</g>
<!-- Node20 -->
<g id="node45" class="node"><title>Node20</title>
<a xlink:href="SettingsPlayback_8hh.html" target="_top" xlink:title="src/Browser/Settings/SettingsPlayback.hh">
<polygon fill="white" stroke="black" points="-0.5,-112.5 -0.5,-131.5 200.5,-131.5 200.5,-112.5 -0.5,-112.5"/>
<text text-anchor="middle" x="100" y="-119.5" font-family="Helvetica,sans-Serif" font-size="10.00">src/Browser/Settings/SettingsPlayback.hh</text>
</a>
</g>
<!-- Node5&#45;&gt;Node20 -->
<g id="edge128" class="edge"><title>Node5&#45;&gt;Node20</title>
<path fill="none" stroke="midnightblue" d="M1963.41,-232.31C1681.8,-228.931 491.102,-213.256 327,-188 250.424,-176.215 163.189,-146.402 122.772,-131.605"/>
<polygon fill="midnightblue" stroke="midnightblue" points="1963.78,-235.815 1973.82,-232.435 1963.86,-228.815 1963.78,-235.815"/>
</g>
<!-- Node21 -->
<g id="node48" class="node"><title>Node21</title>
<a xlink:href="Trayicon_8hh.html" target="_top" xlink:title="src/GManager/Trayicon.hh">
<polygon fill="white" stroke="black" points="219,-112.5 219,-131.5 351,-131.5 351,-112.5 219,-112.5"/>
<text text-anchor="middle" x="285" y="-119.5" font-family="Helvetica,sans-Serif" font-size="10.00">src/GManager/Trayicon.hh</text>
</a>
</g>
<!-- Node5&#45;&gt;Node21 -->
<g id="edge130" class="edge"><title>Node5&#45;&gt;Node21</title>
<path fill="none" stroke="midnightblue" d="M1963.48,-232.458C1675.94,-229.703 441.31,-216.265 365,-188 333.451,-176.315 305.095,-146.737 292.257,-131.849"/>
<polygon fill="midnightblue" stroke="midnightblue" points="1963.67,-235.96 1973.7,-232.555 1963.74,-228.96 1963.67,-235.96"/>
</g>
<!-- Node23 -->
<g id="node54" class="node"><title>Node23</title>
<a xlink:href="SettingsOutputs_8hh.html" target="_top" xlink:title="src/Browser/Settings/SettingsOutputs.hh">
<polygon fill="white" stroke="black" points="482.5,-112.5 482.5,-131.5 677.5,-131.5 677.5,-112.5 482.5,-112.5"/>
<text text-anchor="middle" x="580" y="-119.5" font-family="Helvetica,sans-Serif" font-size="10.00">src/Browser/Settings/SettingsOutputs.hh</text>
</a>
</g>
<!-- Node5&#45;&gt;Node23 -->
<g id="edge132" class="edge"><title>Node5&#45;&gt;Node23</title>
<path fill="none" stroke="midnightblue" d="M1963.71,-232.466C1808.21,-230.607 1375.95,-222.482 1018,-188 874.525,-174.179 706.257,-145.735 626.48,-131.502"/>
<polygon fill="midnightblue" stroke="midnightblue" points="1963.94,-235.969 1973.98,-232.585 1964.02,-228.969 1963.94,-235.969"/>
</g>
<!-- Node24 -->
<g id="node57" class="node"><title>Node24</title>
<a xlink:href="Heartbeat_8hh.html" target="_top" xlink:title="src/GManager/Heartbeat.hh">
<polygon fill="white" stroke="black" points="733.5,-112.5 733.5,-131.5 870.5,-131.5 870.5,-112.5 733.5,-112.5"/>
<text text-anchor="middle" x="802" y="-119.5" font-family="Helvetica,sans-Serif" font-size="10.00">src/GManager/Heartbeat.hh</text>
</a>
</g>
<!-- Node5&#45;&gt;Node24 -->
<g id="edge138" class="edge"><title>Node5&#45;&gt;Node24</title>
<path fill="none" stroke="midnightblue" d="M1963.48,-232.753C1821.27,-231.553 1450.75,-224.827 1144,-188 1031.49,-174.492 900.325,-145.902 838.188,-131.57"/>
<polygon fill="midnightblue" stroke="midnightblue" points="1963.69,-236.254 1973.72,-232.833 1963.75,-229.254 1963.69,-236.254"/>
</g>
<!-- Node25 -->
<g id="node59" class="node"><title>Node25</title>
<a xlink:href="Statusbar_8hh.html" target="_top" xlink:title="src/GManager/Statusbar.hh">
<polygon fill="white" stroke="black" points="636.5,-56.5 636.5,-75.5 773.5,-75.5 773.5,-56.5 636.5,-56.5"/>
<text text-anchor="middle" x="705" y="-63.5" font-family="Helvetica,sans-Serif" font-size="10.00">src/GManager/Statusbar.hh</text>
</a>
</g>
<!-- Node5&#45;&gt;Node25 -->
<g id="edge144" class="edge"><title>Node5&#45;&gt;Node25</title>
<path fill="none" stroke="midnightblue" d="M1963.63,-232.933C1791.87,-232.259 1279.81,-226.878 857,-188 685.253,-172.208 585.814,-262.459 473,-132 467.186,-125.276 467.345,-118.858 473,-112 493.426,-87.2313 575.582,-75.9287 636.359,-70.8844"/>
<polygon fill="midnightblue" stroke="midnightblue" points="1963.71,-236.433 1973.72,-232.968 1963.73,-229.433 1963.71,-236.433"/>
</g>
<!-- Node27 -->
<g id="node63" class="node"><title>Node27</title>
<a xlink:href="MenuList_8hh.html" target="_top" xlink:title="src/GManager/MenuList.hh">
<polygon fill="white" stroke="black" points="1889,-112.5 1889,-131.5 2023,-131.5 2023,-112.5 1889,-112.5"/>
<text text-anchor="middle" x="1956" y="-119.5" font-family="Helvetica,sans-Serif" font-size="10.00">src/GManager/MenuList.hh</text>
</a>
</g>
<!-- Node5&#45;&gt;Node27 -->
<g id="edge140" class="edge"><title>Node5&#45;&gt;Node27</title>
<path fill="none" stroke="midnightblue" d="M2012.43,-215.64C1997.87,-191.744 1972.22,-149.629 1961.23,-131.591"/>
<polygon fill="midnightblue" stroke="midnightblue" points="2009.55,-217.649 2017.74,-224.368 2015.53,-214.007 2009.55,-217.649"/>
</g>
<!-- Node29 -->
<g id="node67" class="node"><title>Node29</title>
<a xlink:href="PlaybackButtons_8hh.html" target="_top" xlink:title="src/GManager/PlaybackButtons.hh">
<polygon fill="white" stroke="black" points="2041.5,-112.5 2041.5,-131.5 2210.5,-131.5 2210.5,-112.5 2041.5,-112.5"/>
<text text-anchor="middle" x="2126" y="-119.5" font-family="Helvetica,sans-Serif" font-size="10.00">src/GManager/PlaybackButtons.hh</text>
</a>
</g>
<!-- Node5&#45;&gt;Node29 -->
<g id="edge142" class="edge"><title>Node5&#45;&gt;Node29</title>
<path fill="none" stroke="midnightblue" d="M2038.08,-216.897C2060.22,-193.249 2100.77,-149.949 2117.96,-131.591"/>
<polygon fill="midnightblue" stroke="midnightblue" points="2035.36,-214.677 2031.08,-224.368 2040.47,-219.461 2035.36,-214.677"/>
</g>
<!-- Node30 -->
<g id="node70" class="node"><title>Node30</title>
<a xlink:href="StatusIcons_8hh.html" target="_top" xlink:title="src/GManager/StatusIcons.hh">
<polygon fill="white" stroke="black" points="2228.5,-112.5 2228.5,-131.5 2375.5,-131.5 2375.5,-112.5 2228.5,-112.5"/>
<text text-anchor="middle" x="2302" y="-119.5" font-family="Helvetica,sans-Serif" font-size="10.00">src/GManager/StatusIcons.hh</text>
</a>
</g>
<!-- Node5&#45;&gt;Node30 -->
<g id="edge146" class="edge"><title>Node5&#45;&gt;Node30</title>
<path fill="none" stroke="midnightblue" d="M2054.49,-220.586C2111.65,-198.05 2231.11,-150.951 2280.21,-131.591"/>
<polygon fill="midnightblue" stroke="midnightblue" points="2052.91,-217.444 2044.89,-224.368 2055.48,-223.957 2052.91,-217.444"/>
</g>
<!-- Node31 -->
<g id="node73" class="node"><title>Node31</title>
<a xlink:href="TitleLabel_8hh.html" target="_top" xlink:title="src/GManager/TitleLabel.hh">
<polygon fill="white" stroke="black" points="2393.5,-112.5 2393.5,-131.5 2530.5,-131.5 2530.5,-112.5 2393.5,-112.5"/>
<text text-anchor="middle" x="2462" y="-119.5" font-family="Helvetica,sans-Serif" font-size="10.00">src/GManager/TitleLabel.hh</text>
</a>
</g>
<!-- Node5&#45;&gt;Node31 -->
<g id="edge148" class="edge"><title>Node5&#45;&gt;Node31</title>
<path fill="none" stroke="midnightblue" d="M2066.97,-221.982C2154.57,-200.033 2349.19,-151.267 2427.94,-131.535"/>
<polygon fill="midnightblue" stroke="midnightblue" points="2065.93,-218.634 2057.08,-224.46 2067.63,-225.424 2065.93,-218.634"/>
</g>
<!-- Node32 -->
<g id="node75" class="node"><title>Node32</title>
<a xlink:href="VolumeSlider_8hh.html" target="_top" xlink:title="src/GManager/VolumeSlider.hh">
<polygon fill="white" stroke="black" points="2549,-112.5 2549,-131.5 2701,-131.5 2701,-112.5 2549,-112.5"/>
<text text-anchor="middle" x="2625" y="-119.5" font-family="Helvetica,sans-Serif" font-size="10.00">src/GManager/VolumeSlider.hh</text>
</a>
</g>
<!-- Node5&#45;&gt;Node32 -->
<g id="edge150" class="edge"><title>Node5&#45;&gt;Node32</title>
<path fill="none" stroke="midnightblue" d="M2079.68,-222.643C2197.98,-201.026 2469.2,-151.468 2578.29,-131.535"/>
<polygon fill="midnightblue" stroke="midnightblue" points="2078.94,-219.219 2069.74,-224.46 2080.2,-226.105 2078.94,-219.219"/>
</g>
<!-- Node33 -->
<g id="node78" class="node"><title>Node33</title>
<a xlink:href="UpdateInterface_8hh.html" target="_top" xlink:title="src/Glyr/UpdateInterface.hh">
<polygon fill="white" stroke="black" points="3255.5,-112.5 3255.5,-131.5 3392.5,-131.5 3392.5,-112.5 3255.5,-112.5"/>
<text text-anchor="middle" x="3324" y="-119.5" font-family="Helvetica,sans-Serif" font-size="10.00">src/Glyr/UpdateInterface.hh</text>
</a>
</g>
<!-- Node5&#45;&gt;Node33 -->
<g id="edge90" class="edge"><title>Node5&#45;&gt;Node33</title>
<path fill="none" stroke="midnightblue" d="M2082.66,-230.674C2210.72,-225.413 2521.42,-211.221 2781,-188 2956.42,-172.308 3162.73,-145.228 3263.05,-131.503"/>
<polygon fill="midnightblue" stroke="midnightblue" points="2082.14,-227.192 2072.29,-231.096 2082.43,-234.186 2082.14,-227.192"/>
</g>
<!-- Node40 -->
<g id="node99" class="node"><title>Node40</title>
<a xlink:href="Request_8hh.html" target="_top" xlink:title="src/Glyr/Request.hh">
<polygon fill="white" stroke="black" points="4049,-56.5 4049,-75.5 4153,-75.5 4153,-56.5 4049,-56.5"/>
<text text-anchor="middle" x="4101" y="-63.5" font-family="Helvetica,sans-Serif" font-size="10.00">src/Glyr/Request.hh</text>
</a>
</g>
<!-- Node5&#45;&gt;Node40 -->
<g id="edge136" class="edge"><title>Node5&#45;&gt;Node40</title>
<path fill="none" stroke="midnightblue" d="M2082.2,-230.82C2222.02,-225.473 2583.57,-210.484 2885,-188 3398.87,-149.669 3527.43,-137.919 4039,-76 4042.24,-75.6079 4045.57,-75.1841 4048.93,-74.7414"/>
<polygon fill="midnightblue" stroke="midnightblue" points="2081.99,-227.326 2072.13,-231.203 2082.26,-234.321 2081.99,-227.326"/>
</g>
<!-- Node41 -->
<g id="node117" class="node"><title>Node41</title>
<a xlink:href="check__mpd_8hh.html" target="_top" xlink:title="src/MPD/check_mpd.hh">
<polygon fill="white" stroke="black" points="4209,-168.5 4209,-187.5 4331,-187.5 4331,-168.5 4209,-168.5"/>
<text text-anchor="middle" x="4270" y="-175.5" font-family="Helvetica,sans-Serif" font-size="10.00">src/MPD/check_mpd.hh</text>
</a>
</g>
<!-- Node5&#45;&gt;Node41 -->
<g id="edge152" class="edge"><title>Node5&#45;&gt;Node41</title>
<path fill="none" stroke="midnightblue" d="M2082.63,-232.562C2386.77,-230.205 3767.4,-218.012 4195,-188 4199.45,-187.688 4204.04,-187.3 4208.65,-186.862"/>
<polygon fill="midnightblue" stroke="midnightblue" points="2082.25,-229.065 2072.27,-232.642 2082.3,-236.064 2082.25,-229.065"/>
</g>
<!-- Node7 -->
<g id="node13" class="node"><title>Node7</title>
<a xlink:href="BrowserList_8hh.html" target="_top" xlink:title="src/GManager/BrowserList.hh">
<polygon fill="white" stroke="black" points="1253,-112.5 1253,-131.5 1399,-131.5 1399,-112.5 1253,-112.5"/>
<text text-anchor="middle" x="1326" y="-119.5" font-family="Helvetica,sans-Serif" font-size="10.00">src/GManager/BrowserList.hh</text>
</a>
</g>
<!-- Node6&#45;&gt;Node7 -->
<g id="edge12" class="edge"><title>Node6&#45;&gt;Node7</title>
<path fill="none" stroke="midnightblue" d="M1326,-157.805C1326,-148.91 1326,-138.78 1326,-131.751"/>
<polygon fill="midnightblue" stroke="midnightblue" points="1322.5,-158.083 1326,-168.083 1329.5,-158.083 1322.5,-158.083"/>
</g>
<!-- Node6&#45;&gt;Node9 -->
<g id="edge30" class="edge"><title>Node6&#45;&gt;Node9</title>
<path fill="none" stroke="midnightblue" d="M1350.62,-163.484C1384.28,-145.029 1441.08,-113.989 1446,-112 1501.18,-89.6847 1524.62,-107.695 1575,-76 1598.63,-61.1352 1618.01,-33.5578 1626.85,-19.5878"/>
<polygon fill="midnightblue" stroke="midnightblue" points="1348.88,-160.442 1341.8,-168.321 1352.25,-166.58 1348.88,-160.442"/>
</g>
<!-- Node6&#45;&gt;Node12 -->
<g id="edge38" class="edge"><title>Node6&#45;&gt;Node12</title>
<path fill="none" stroke="midnightblue" d="M1290.97,-164.954C1268.48,-156.729 1238.93,-144.997 1214,-132 1144.92,-95.9804 1069.07,-41.0009 1040.62,-19.7798"/>
<polygon fill="midnightblue" stroke="midnightblue" points="1289.86,-168.273 1300.46,-168.367 1292.23,-161.687 1289.86,-168.273"/>
</g>
<!-- Node6&#45;&gt;Node13 -->
<g id="edge44" class="edge"><title>Node6&#45;&gt;Node13</title>
<path fill="none" stroke="midnightblue" d="M1290.29,-164.718C1272.68,-157.32 1252.05,-146.493 1237,-132 1210.73,-106.692 1195.98,-91.0761 1206,-56 1209.99,-42.0212 1219.72,-28.156 1226.59,-19.5891"/>
<polygon fill="midnightblue" stroke="midnightblue" points="1289.12,-168.021 1299.71,-168.477 1291.72,-161.52 1289.12,-168.021"/>
</g>
<!-- Node16 -->
<g id="node32" class="node"><title>Node16</title>
<a xlink:href="DatabaseCache_8hh.html" target="_top" xlink:title="src/Browser/Database/DatabaseCache.hh">
<polygon fill="white" stroke="black" points="1631.5,-112.5 1631.5,-131.5 1832.5,-131.5 1832.5,-112.5 1631.5,-112.5"/>
<text text-anchor="middle" x="1732" y="-119.5" font-family="Helvetica,sans-Serif" font-size="10.00">src/Browser/Database/DatabaseCache.hh</text>
</a>
</g>
<!-- Node6&#45;&gt;Node16 -->
<g id="edge32" class="edge"><title>Node6&#45;&gt;Node16</title>
<path fill="none" stroke="midnightblue" d="M1400.4,-167.105C1477.07,-156.907 1595.34,-141.177 1667.97,-131.516"/>
<polygon fill="midnightblue" stroke="midnightblue" points="1399.78,-163.656 1390.33,-168.444 1400.71,-170.594 1399.78,-163.656"/>
</g>
<!-- Node17 -->
<g id="node34" class="node"><title>Node17</title>
<a xlink:href="CoverArtMgr_8hh.html" target="_top" xlink:title="src/Browser/NowPlaying/CoverArtMgr.hh">
<polygon fill="white" stroke="black" points="2447.5,-56.5 2447.5,-75.5 2644.5,-75.5 2644.5,-56.5 2447.5,-56.5"/>
<text text-anchor="middle" x="2546" y="-63.5" font-family="Helvetica,sans-Serif" font-size="10.00">src/Browser/NowPlaying/CoverArtMgr.hh</text>
</a>
</g>
<!-- Node6&#45;&gt;Node17 -->
<g id="edge34" class="edge"><title>Node6&#45;&gt;Node17</title>
<path fill="none" stroke="midnightblue" d="M1414.31,-173.387C1539.85,-167.552 1763.3,-154.385 1841,-132 1859.72,-126.607 1861.23,-117.208 1880,-112 1983.92,-83.1649 2288.78,-72.4718 2447.46,-68.7828"/>
<polygon fill="midnightblue" stroke="midnightblue" points="1413.79,-169.907 1403.96,-173.862 1414.11,-176.9 1413.79,-169.907"/>
</g>
<!-- Node6&#45;&gt;Node18 -->
<g id="edge40" class="edge"><title>Node6&#45;&gt;Node18</title>
<path fill="none" stroke="midnightblue" d="M1262.12,-166.854C1197.88,-156.651 1099.95,-141.098 1039.62,-131.516"/>
<polygon fill="midnightblue" stroke="midnightblue" points="1261.7,-170.332 1272.13,-168.444 1262.8,-163.418 1261.7,-170.332"/>
</g>
<!-- Node19 -->
<g id="node42" class="node"><title>Node19</title>
<a xlink:href="QueueMerger_8hh.html" target="_top" xlink:title="src/Browser/Queue/QueueMerger.hh">
<polygon fill="white" stroke="black" points="1215,-56.5 1215,-75.5 1391,-75.5 1391,-56.5 1215,-56.5"/>
<text text-anchor="middle" x="1303" y="-63.5" font-family="Helvetica,sans-Serif" font-size="10.00">src/Browser/Queue/QueueMerger.hh</text>
</a>
</g>
<!-- Node6&#45;&gt;Node19 -->
<g id="edge46" class="edge"><title>Node6&#45;&gt;Node19</title>
<path fill="none" stroke="midnightblue" d="M1284.63,-164.496C1269.07,-157.552 1252.97,-147.16 1244,-132 1230.42,-109.049 1262.97,-87.1016 1284.94,-75.5109"/>
<polygon fill="midnightblue" stroke="midnightblue" points="1283.61,-167.857 1294.19,-168.385 1286.25,-161.373 1283.61,-167.857"/>
</g>
<!-- Node6&#45;&gt;Node20 -->
<g id="edge50" class="edge"><title>Node6&#45;&gt;Node20</title>
<path fill="none" stroke="midnightblue" d="M1238.37,-174.699C1050.03,-169.482 592.714,-155.362 210,-132 206.94,-131.813 203.833,-131.615 200.696,-131.406"/>
<polygon fill="midnightblue" stroke="midnightblue" points="1238.39,-178.201 1248.49,-174.978 1238.59,-171.203 1238.39,-178.201"/>
</g>
<!-- Node6&#45;&gt;Node21 -->
<g id="edge54" class="edge"><title>Node6&#45;&gt;Node21</title>
<path fill="none" stroke="midnightblue" d="M1238.11,-172.441C1034.07,-161.856 531.94,-135.81 351.183,-126.433"/>
<polygon fill="midnightblue" stroke="midnightblue" points="1238.01,-175.94 1248.18,-172.963 1238.38,-168.95 1238.01,-175.94"/>
</g>
<!-- Node6&#45;&gt;Node23 -->
<g id="edge62" class="edge"><title>Node6&#45;&gt;Node23</title>
<path fill="none" stroke="midnightblue" d="M1238.19,-171.06C1115.63,-162.706 886.351,-146.841 691,-132 686.662,-131.67 682.23,-131.329 677.752,-130.981"/>
<polygon fill="midnightblue" stroke="midnightblue" points="1238.05,-174.559 1248.27,-171.747 1238.53,-167.575 1238.05,-174.559"/>
</g>
<!-- Node6&#45;&gt;Node24 -->
<g id="edge66" class="edge"><title>Node6&#45;&gt;Node24</title>
<path fill="none" stroke="midnightblue" d="M1238.06,-168.502C1148.07,-159.718 1004.23,-145.434 880,-132 877.018,-131.678 873.973,-131.344 870.898,-131.004"/>
<polygon fill="midnightblue" stroke="midnightblue" points="1237.92,-172.005 1248.22,-169.492 1238.6,-165.038 1237.92,-172.005"/>
</g>
<!-- Node6&#45;&gt;Node25 -->
<g id="edge78" class="edge"><title>Node6&#45;&gt;Node25</title>
<path fill="none" stroke="midnightblue" d="M1238.15,-175.884C1080.66,-173.094 763.008,-163.577 724,-132 707.003,-118.241 704.675,-90.1624 704.672,-75.8358"/>
<polygon fill="midnightblue" stroke="midnightblue" points="1238.23,-179.386 1248.28,-176.058 1238.35,-172.387 1238.23,-179.386"/>
</g>
<!-- Node26 -->
<g id="node61" class="node"><title>Node26</title>
<a xlink:href="Timeslide_8hh.html" target="_top" xlink:title="src/GManager/Timeslide.hh">
<polygon fill="white" stroke="black" points="868.5,-56.5 868.5,-75.5 1005.5,-75.5 1005.5,-56.5 868.5,-56.5"/>
<text text-anchor="middle" x="937" y="-63.5" font-family="Helvetica,sans-Serif" font-size="10.00">src/GManager/Timeslide.hh</text>
</a>
</g>
<!-- Node6&#45;&gt;Node26 -->
<g id="edge82" class="edge"><title>Node6&#45;&gt;Node26</title>
<path fill="none" stroke="midnightblue" d="M1268.23,-166.45C1229.91,-158.71 1178.8,-146.954 1135,-132 1114.67,-125.059 1111.14,-119.476 1091,-112 1050.66,-97.023 1002.92,-83.7333 971.403,-75.5494"/>
<polygon fill="midnightblue" stroke="midnightblue" points="1267.69,-169.912 1278.18,-168.429 1269.05,-163.046 1267.69,-169.912"/>
</g>
<!-- Node6&#45;&gt;Node27 -->
<g id="edge72" class="edge"><title>Node6&#45;&gt;Node27</title>
<path fill="none" stroke="midnightblue" d="M1414.04,-170.571C1522.53,-162.467 1712.47,-147.687 1875,-132 1879.51,-131.565 1884.15,-131.098 1888.83,-130.614"/>
<polygon fill="midnightblue" stroke="midnightblue" points="1413.51,-167.1 1403.8,-171.334 1414.03,-174.081 1413.51,-167.1"/>
</g>
<!-- Node28 -->
<g id="node65" class="node"><title>Node28</title>
<a xlink:href="NotifyManager_8hh.html" target="_top" xlink:title="src/GManager/NotifyManager.hh">
<polygon fill="white" stroke="black" points="1455,-112.5 1455,-131.5 1613,-131.5 1613,-112.5 1455,-112.5"/>
<text text-anchor="middle" x="1534" y="-119.5" font-family="Helvetica,sans-Serif" font-size="10.00">src/GManager/NotifyManager.hh</text>
</a>
</g>
<!-- Node6&#45;&gt;Node28 -->
<g id="edge74" class="edge"><title>Node6&#45;&gt;Node28</title>
<path fill="none" stroke="midnightblue" d="M1368.78,-165.894C1408.06,-155.697 1465.43,-140.802 1501.2,-131.516"/>
<polygon fill="midnightblue" stroke="midnightblue" points="1367.76,-162.543 1358.96,-168.444 1369.52,-169.318 1367.76,-162.543"/>
</g>
<!-- Node6&#45;&gt;Node29 -->
<g id="edge76" class="edge"><title>Node6&#45;&gt;Node29</title>
<path fill="none" stroke="midnightblue" d="M1413.8,-172.303C1547.38,-164.954 1809.62,-149.729 2032,-132 2035.11,-131.752 2038.27,-131.492 2041.46,-131.222"/>
<polygon fill="midnightblue" stroke="midnightblue" points="1413.42,-168.819 1403.63,-172.861 1413.8,-175.808 1413.42,-168.819"/>
</g>
<!-- Node6&#45;&gt;Node30 -->
<g id="edge80" class="edge"><title>Node6&#45;&gt;Node30</title>
<path fill="none" stroke="midnightblue" d="M1414.02,-174.248C1574.31,-168.863 1924.49,-155.369 2219,-132 2222.03,-131.759 2225.13,-131.497 2228.25,-131.22"/>
<polygon fill="midnightblue" stroke="midnightblue" points="1413.62,-170.76 1403.74,-174.591 1413.85,-177.756 1413.62,-170.76"/>
</g>
<!-- Node6&#45;&gt;Node31 -->
<g id="edge84" class="edge"><title>Node6&#45;&gt;Node31</title>
<path fill="none" stroke="midnightblue" d="M1413.79,-175.414C1595.24,-171.661 2024.7,-160.333 2384,-132 2386.99,-131.764 2390.04,-131.503 2393.12,-131.221"/>
<polygon fill="midnightblue" stroke="midnightblue" points="1413.69,-171.915 1403.77,-175.618 1413.84,-178.913 1413.69,-171.915"/>
</g>
<!-- Node6&#45;&gt;Node32 -->
<g id="edge86" class="edge"><title>Node6&#45;&gt;Node32</title>
<path fill="none" stroke="midnightblue" d="M1413.95,-175.762C1613.98,-172.503 2118.28,-161.785 2539,-132 2542.14,-131.777 2545.35,-131.531 2548.59,-131.265"/>
<polygon fill="midnightblue" stroke="midnightblue" points="1413.74,-172.265 1403.79,-175.925 1413.85,-179.264 1413.74,-172.265"/>
</g>
<!-- Node8 -->
<g id="node15" class="node"><title>Node8</title>
<a xlink:href="AbstractBrowser_8hh.html" target="_top" xlink:title="src/Browser/AbstractBrowser.hh">
<polygon fill="white" stroke="black" points="1409,-56.5 1409,-75.5 1567,-75.5 1567,-56.5 1409,-56.5"/>
<text text-anchor="middle" x="1488" y="-63.5" font-family="Helvetica,sans-Serif" font-size="10.00">src/Browser/AbstractBrowser.hh</text>
</a>
</g>
<!-- Node7&#45;&gt;Node8 -->
<g id="edge14" class="edge"><title>Node7&#45;&gt;Node8</title>
<path fill="none" stroke="midnightblue" d="M1361.48,-109.172C1391.99,-99.0039 1435.24,-84.5852 1462.45,-75.5164"/>
<polygon fill="midnightblue" stroke="midnightblue" points="1360.05,-105.961 1351.67,-112.444 1362.26,-112.602 1360.05,-105.961"/>
</g>
<!-- Node8&#45;&gt;Node9 -->
<g id="edge16" class="edge"><title>Node8&#45;&gt;Node9</title>
<path fill="none" stroke="midnightblue" d="M1520.25,-52.9058C1547.32,-42.7536 1585.32,-28.5063 1609.29,-19.5164"/>
<polygon fill="midnightblue" stroke="midnightblue" points="1518.95,-49.6551 1510.82,-56.4435 1521.41,-56.2094 1518.95,-49.6551"/>
</g>
<!-- Node10 -->
<g id="node19" class="node"><title>Node10</title>
<a xlink:href="Fortuna_8hh.html" target="_top" xlink:title="src/Browser/Fortuna/Fortuna.hh">
<polygon fill="white" stroke="black" points="1372.5,-0.5 1372.5,-19.5 1527.5,-19.5 1527.5,-0.5 1372.5,-0.5"/>
<text text-anchor="middle" x="1450" y="-7.5" font-family="Helvetica,sans-Serif" font-size="10.00">src/Browser/Fortuna/Fortuna.hh</text>
</a>
</g>
<!-- Node8&#45;&gt;Node10 -->
<g id="edge18" class="edge"><title>Node8&#45;&gt;Node10</title>
<path fill="none" stroke="midnightblue" d="M1475.94,-47.8554C1469.36,-38.5048 1461.49,-27.3265 1456.16,-19.7511"/>
<polygon fill="midnightblue" stroke="midnightblue" points="1473.11,-49.9192 1481.73,-56.083 1478.83,-45.8907 1473.11,-49.9192"/>
</g>
<!-- Node8&#45;&gt;Node11 -->
<g id="edge20" class="edge"><title>Node8&#45;&gt;Node11</title>
<path fill="none" stroke="midnightblue" d="M1577.21,-62.2023C1871.11,-52.9862 2807.48,-23.6227 3112.75,-14.0496"/>
<polygon fill="midnightblue" stroke="midnightblue" points="1576.92,-58.7098 1567.03,-62.5216 1577.14,-65.7064 1576.92,-58.7098"/>
</g>
<!-- Node8&#45;&gt;Node12 -->
<g id="edge22" class="edge"><title>Node8&#45;&gt;Node12</title>
<path fill="none" stroke="midnightblue" d="M1405.47,-55.2906C1318.88,-45.1031 1184.09,-29.2464 1101.47,-19.5264"/>
<polygon fill="midnightblue" stroke="midnightblue" points="1405.18,-58.7809 1415.52,-56.4733 1406,-51.8288 1405.18,-58.7809"/>
</g>
<!-- Node8&#45;&gt;Node13 -->
<g id="edge24" class="edge"><title>Node8&#45;&gt;Node13</title>
<path fill="none" stroke="midnightblue" d="M1437.88,-54.3456C1389.88,-44.1405 1318.38,-28.94 1274.06,-19.5164"/>
<polygon fill="midnightblue" stroke="midnightblue" points="1437.24,-57.7874 1447.75,-56.4435 1438.7,-50.9405 1437.24,-57.7874"/>
</g>
<!-- Node14 -->
<g id="node27" class="node"><title>Node14</title>
<a xlink:href="Settings_8hh.html" target="_top" xlink:title="src/Browser/Settings/Settings.hh">
<polygon fill="white" stroke="black" points="173.5,-0.5 173.5,-19.5 334.5,-19.5 334.5,-0.5 173.5,-0.5"/>
<text text-anchor="middle" x="254" y="-7.5" font-family="Helvetica,sans-Serif" font-size="10.00">src/Browser/Settings/Settings.hh</text>
</a>
</g>
<!-- Node8&#45;&gt;Node14 -->
<g id="edge26" class="edge"><title>Node8&#45;&gt;Node14</title>
<path fill="none" stroke="midnightblue" d="M1398.73,-56.0367C992.193,-27.8248 520.192,-16.2048 334.608,-12.4643"/>
<polygon fill="midnightblue" stroke="midnightblue" points="1398.7,-59.5434 1408.92,-56.7487 1399.19,-52.5604 1398.7,-59.5434"/>
</g>
<!-- Node8&#45;&gt;Node15 -->
<g id="edge28" class="edge"><title>Node8&#45;&gt;Node15</title>
<path fill="none" stroke="midnightblue" d="M1577.43,-57.6159C1701.4,-47.3796 1924.35,-28.9714 2049.78,-18.6143"/>
<polygon fill="midnightblue" stroke="midnightblue" points="1576.89,-54.1483 1567.21,-58.4595 1577.47,-61.1246 1576.89,-54.1483"/>
</g>
<!-- Node17&#45;&gt;Node11 -->
<g id="edge36" class="edge"><title>Node17&#45;&gt;Node11</title>
<path fill="none" stroke="midnightblue" d="M2654.99,-55.8378C2821.89,-42.0912 3004.02,-27.4561 3112.89,-18.7476"/>
<polygon fill="midnightblue" stroke="midnightblue" points="2654.21,-52.3904 2644.53,-56.7 2654.79,-59.3667 2654.21,-52.3904"/>
</g>
<!-- Node18&#45;&gt;Node13 -->
<g id="edge42" class="edge"><title>Node18&#45;&gt;Node13</title>
<path fill="none" stroke="midnightblue" d="M1014.62,-108.305C1065.67,-85.6603 1171.16,-38.8712 1214.63,-19.5914"/>
<polygon fill="midnightblue" stroke="midnightblue" points="1013.18,-105.114 1005.46,-112.368 1016.02,-111.513 1013.18,-105.114"/>
</g>
<!-- Node19&#45;&gt;Node13 -->
<g id="edge48" class="edge"><title>Node19&#45;&gt;Node13</title>
<path fill="none" stroke="midnightblue" d="M1283.96,-50.1008C1271.54,-40.3824 1255.76,-28.0269 1245.29,-19.8339"/>
<polygon fill="midnightblue" stroke="midnightblue" points="1281.88,-52.9171 1291.91,-56.324 1286.2,-47.4046 1281.88,-52.9171"/>
</g>
<!-- Node20&#45;&gt;Node14 -->
<g id="edge52" class="edge"><title>Node20&#45;&gt;Node14</title>
<path fill="none" stroke="midnightblue" d="M107.317,-102.799C113.94,-88.3699 124.964,-68.6019 140,-56 161.771,-37.7537 191.837,-26.3001 215.627,-19.5167"/>
<polygon fill="midnightblue" stroke="midnightblue" points="104.017,-101.615 103.278,-112.184 110.447,-104.382 104.017,-101.615"/>
</g>
<!-- Node21&#45;&gt;Node14 -->
<g id="edge60" class="edge"><title>Node21&#45;&gt;Node14</title>
<path fill="none" stroke="midnightblue" d="M231.555,-110.189C197.603,-102.113 158.19,-90.0723 148,-76 127.616,-47.8496 174.797,-29.3981 212.621,-19.5803"/>
<polygon fill="midnightblue" stroke="midnightblue" points="230.886,-113.627 241.417,-112.463 232.459,-106.806 230.886,-113.627"/>
</g>
<!-- Node22 -->
<g id="node50" class="node"><title>Node22</title>
<a xlink:href="SettingsGeneral_8hh.html" target="_top" xlink:title="src/Browser/Settings/SettingsGeneral.hh">
<polygon fill="white" stroke="black" points="157,-56.5 157,-75.5 351,-75.5 351,-56.5 157,-56.5"/>
<text text-anchor="middle" x="254" y="-63.5" font-family="Helvetica,sans-Serif" font-size="10.00">src/Browser/Settings/SettingsGeneral.hh</text>
</a>
</g>
<!-- Node21&#45;&gt;Node22 -->
<g id="edge56" class="edge"><title>Node21&#45;&gt;Node22</title>
<path fill="none" stroke="midnightblue" d="M274.824,-103.275C269.526,-94.0454 263.283,-83.1703 259.024,-75.7511"/>
<polygon fill="midnightblue" stroke="midnightblue" points="271.867,-105.153 279.881,-112.083 277.938,-101.668 271.867,-105.153"/>
</g>
<!-- Node22&#45;&gt;Node14 -->
<g id="edge58" class="edge"><title>Node22&#45;&gt;Node14</title>
<path fill="none" stroke="midnightblue" d="M254,-45.8045C254,-36.9102 254,-26.7798 254,-19.7511"/>
<polygon fill="midnightblue" stroke="midnightblue" points="250.5,-46.083 254,-56.083 257.5,-46.083 250.5,-46.083"/>
</g>
<!-- Node23&#45;&gt;Node14 -->
<g id="edge64" class="edge"><title>Node23&#45;&gt;Node14</title>
<path fill="none" stroke="midnightblue" d="M545.152,-109.241C479.185,-86.9826 337.491,-39.1719 279.518,-19.6104"/>
<polygon fill="midnightblue" stroke="midnightblue" points="544.096,-112.579 554.691,-112.46 546.334,-105.947 544.096,-112.579"/>
</g>
<!-- Node24&#45;&gt;Node25 -->
<g id="edge68" class="edge"><title>Node24&#45;&gt;Node25</title>
<path fill="none" stroke="midnightblue" d="M777.665,-107.453C759.757,-97.4835 735.946,-84.2279 720.546,-75.6545"/>
<polygon fill="midnightblue" stroke="midnightblue" points="775.975,-110.518 786.415,-112.324 779.38,-104.402 775.975,-110.518"/>
</g>
<!-- Node24&#45;&gt;Node26 -->
<g id="edge70" class="edge"><title>Node24&#45;&gt;Node26</title>
<path fill="none" stroke="midnightblue" d="M832.906,-108.638C858.24,-98.504 893.431,-84.4274 915.709,-75.5164"/>
<polygon fill="midnightblue" stroke="midnightblue" points="831.376,-105.48 823.391,-112.444 833.976,-111.979 831.376,-105.48"/>
</g>
<!-- Node33&#45;&gt;Node11 -->
<g id="edge114" class="edge"><title>Node33&#45;&gt;Node11</title>
<path fill="none" stroke="midnightblue" d="M3402.63,-116.007C3461.15,-110.458 3534.05,-99.0349 3553,-76 3558.65,-69.1353 3558.86,-62.6817 3553,-56 3536.91,-37.6595 3403.04,-24.4711 3307.4,-17.284"/>
<polygon fill="midnightblue" stroke="midnightblue" points="3402.27,-112.525 3392.63,-116.913 3402.9,-119.497 3402.27,-112.525"/>
</g>
<!-- Node33&#45;&gt;Node17 -->
<g id="edge96" class="edge"><title>Node33&#45;&gt;Node17</title>
<path fill="none" stroke="midnightblue" d="M3245.12,-116.144C3119.68,-108.325 2867.02,-92.1764 2653,-76 2650.21,-75.7892 2647.38,-75.5723 2644.53,-75.3506"/>
<polygon fill="midnightblue" stroke="midnightblue" points="3245.19,-119.656 3255.39,-116.784 3245.63,-112.669 3245.19,-119.656"/>
</g>
<!-- Node34 -->
<g id="node80" class="node"><title>Node34</title>
<a xlink:href="ArtistPhotosMgr_8hh.html" target="_top" xlink:title="src/Browser/NowPlaying/ArtistPhotosMgr.hh">
<polygon fill="white" stroke="black" points="3819,-56.5 3819,-75.5 4031,-75.5 4031,-56.5 3819,-56.5"/>
<text text-anchor="middle" x="3925" y="-63.5" font-family="Helvetica,sans-Serif" font-size="10.00">src/Browser/NowPlaying/ArtistPhotosMgr.hh</text>
</a>
</g>
<!-- Node33&#45;&gt;Node34 -->
<g id="edge92" class="edge"><title>Node33&#45;&gt;Node34</title>
<path fill="none" stroke="midnightblue" d="M3402.68,-113.93C3512.67,-104.048 3712.12,-86.127 3830.17,-75.5203"/>
<polygon fill="midnightblue" stroke="midnightblue" points="3402.3,-110.451 3392.65,-114.832 3402.92,-117.423 3402.3,-110.451"/>
</g>
<!-- Node35 -->
<g id="node84" class="node"><title>Node35</title>
<a xlink:href="OtherAlbumsMgr_8hh.html" target="_top" xlink:title="src/Browser/NowPlaying/OtherAlbumsMgr.hh">
<polygon fill="white" stroke="black" points="2662.5,-56.5 2662.5,-75.5 2877.5,-75.5 2877.5,-56.5 2662.5,-56.5"/>
<text text-anchor="middle" x="2770" y="-63.5" font-family="Helvetica,sans-Serif" font-size="10.00">src/Browser/NowPlaying/OtherAlbumsMgr.hh</text>
</a>
</g>
<!-- Node33&#45;&gt;Node35 -->
<g id="edge98" class="edge"><title>Node33&#45;&gt;Node35</title>
<path fill="none" stroke="midnightblue" d="M3245.25,-113.324C3142.7,-103.328 2963.99,-85.9092 2857.37,-75.5165"/>
<polygon fill="midnightblue" stroke="midnightblue" points="3244.94,-116.811 3255.23,-114.297 3245.62,-109.844 3244.94,-116.811"/>
</g>
<!-- Node36 -->
<g id="node87" class="node"><title>Node36</title>
<a xlink:href="TracklistMgr_8hh.html" target="_top" xlink:title="src/Browser/NowPlaying/TracklistMgr.hh">
<polygon fill="white" stroke="black" points="2895.5,-56.5 2895.5,-75.5 3090.5,-75.5 3090.5,-56.5 2895.5,-56.5"/>
<text text-anchor="middle" x="2993" y="-63.5" font-family="Helvetica,sans-Serif" font-size="10.00">src/Browser/NowPlaying/TracklistMgr.hh</text>
</a>
</g>
<!-- Node33&#45;&gt;Node36 -->
<g id="edge102" class="edge"><title>Node33&#45;&gt;Node36</title>
<path fill="none" stroke="midnightblue" d="M3261.42,-110.791C3198.88,-100.587 3103.81,-85.078 3045.2,-75.5164"/>
<polygon fill="midnightblue" stroke="midnightblue" points="3261.12,-114.288 3271.55,-112.444 3262.25,-107.379 3261.12,-114.288"/>
</g>
<!-- Node37 -->
<g id="node90" class="node"><title>Node37</title>
<a xlink:href="TextItemsMgr_8hh.html" target="_top" xlink:title="src/Browser/NowPlaying/TextItemsMgr.hh">
<polygon fill="white" stroke="black" points="3109,-56.5 3109,-75.5 3311,-75.5 3311,-56.5 3109,-56.5"/>
<text text-anchor="middle" x="3210" y="-63.5" font-family="Helvetica,sans-Serif" font-size="10.00">src/Browser/NowPlaying/TextItemsMgr.hh</text>
</a>
</g>
<!-- Node33&#45;&gt;Node37 -->
<g id="edge106" class="edge"><title>Node33&#45;&gt;Node37</title>
<path fill="none" stroke="midnightblue" d="M3296.76,-108.096C3275.46,-98.0073 3246.46,-84.2697 3227.98,-75.5164"/>
<polygon fill="midnightblue" stroke="midnightblue" points="3295.4,-111.326 3305.94,-112.444 3298.4,-105 3295.4,-111.326"/>
</g>
<!-- Node38 -->
<g id="node93" class="node"><title>Node38</title>
<a xlink:href="RelatedLinksMgr_8hh.html" target="_top" xlink:title="src/Browser/NowPlaying/RelatedLinksMgr.hh">
<polygon fill="white" stroke="black" points="3329.5,-56.5 3329.5,-75.5 3544.5,-75.5 3544.5,-56.5 3329.5,-56.5"/>
<text text-anchor="middle" x="3437" y="-63.5" font-family="Helvetica,sans-Serif" font-size="10.00">src/Browser/NowPlaying/RelatedLinksMgr.hh</text>
</a>
</g>
<!-- Node33&#45;&gt;Node38 -->
<g id="edge110" class="edge"><title>Node33&#45;&gt;Node38</title>
<path fill="none" stroke="midnightblue" d="M3351,-108.096C3372.11,-98.0073 3400.86,-84.2697 3419.18,-75.5164"/>
<polygon fill="midnightblue" stroke="midnightblue" points="3349.42,-104.974 3341.91,-112.444 3352.44,-111.29 3349.42,-104.974"/>
</g>
<!-- Node39 -->
<g id="node97" class="node"><title>Node39</title>
<a xlink:href="TextPageMgr_8hh.html" target="_top" xlink:title="src/Browser/NowPlaying/TextPageMgr.hh">
<polygon fill="white" stroke="black" points="3601,-56.5 3601,-75.5 3801,-75.5 3801,-56.5 3601,-56.5"/>
<text text-anchor="middle" x="3701" y="-63.5" font-family="Helvetica,sans-Serif" font-size="10.00">src/Browser/NowPlaying/TextPageMgr.hh</text>
</a>
</g>
<!-- Node33&#45;&gt;Node39 -->
<g id="edge116" class="edge"><title>Node33&#45;&gt;Node39</title>
<path fill="none" stroke="midnightblue" d="M3393.96,-110.979C3465.17,-100.779 3574.38,-85.1372 3641.54,-75.5164"/>
<polygon fill="midnightblue" stroke="midnightblue" points="3393.14,-107.561 3383.74,-112.444 3394.13,-114.49 3393.14,-107.561"/>
</g>
<!-- Node33&#45;&gt;Node40 -->
<g id="edge118" class="edge"><title>Node33&#45;&gt;Node40</title>
<path fill="none" stroke="midnightblue" d="M3402.69,-118.141C3534.56,-112.881 3808.41,-99.9528 4039,-76 4042.25,-75.6629 4045.58,-75.2812 4048.94,-74.8699"/>
<polygon fill="midnightblue" stroke="midnightblue" points="3402.53,-114.645 3392.68,-118.537 3402.81,-121.639 3402.53,-114.645"/>
</g>
<!-- Node34&#45;&gt;Node11 -->
<g id="edge94" class="edge"><title>Node34&#45;&gt;Node11</title>
<path fill="none" stroke="midnightblue" d="M3808.69,-55.9015C3625.23,-41.8569 3423.7,-26.8354 3307.17,-18.1907"/>
<polygon fill="midnightblue" stroke="midnightblue" points="3808.56,-59.4016 3818.79,-56.6757 3809.09,-52.4221 3808.56,-59.4016"/>
</g>
<!-- Node35&#45;&gt;Node11 -->
<g id="edge100" class="edge"><title>Node35&#45;&gt;Node11</title>
<path fill="none" stroke="midnightblue" d="M2849.87,-55.198C2932.93,-45.0037 3061.65,-29.2062 3140.61,-19.5164"/>
<polygon fill="midnightblue" stroke="midnightblue" points="2849.22,-51.7514 2839.72,-56.4435 2850.07,-58.6993 2849.22,-51.7514"/>
</g>
<!-- Node36&#45;&gt;Node11 -->
<g id="edge104" class="edge"><title>Node36&#45;&gt;Node11</title>
<path fill="none" stroke="midnightblue" d="M3037.11,-54.0237C3078.1,-43.8232 3138.3,-28.8414 3175.78,-19.5164"/>
<polygon fill="midnightblue" stroke="midnightblue" points="3036.24,-50.6322 3027.38,-56.4435 3037.93,-57.425 3036.24,-50.6322"/>
</g>
<!-- Node37&#45;&gt;Node11 -->
<g id="edge108" class="edge"><title>Node37&#45;&gt;Node11</title>
<path fill="none" stroke="midnightblue" d="M3210,-45.8045C3210,-36.9102 3210,-26.7798 3210,-19.7511"/>
<polygon fill="midnightblue" stroke="midnightblue" points="3206.5,-46.083 3210,-56.083 3213.5,-46.083 3206.5,-46.083"/>
</g>
<!-- Node38&#45;&gt;Node11 -->
<g id="edge112" class="edge"><title>Node38&#45;&gt;Node11</title>
<path fill="none" stroke="midnightblue" d="M3391.13,-54.0884C3348.25,-43.8865 3285.08,-28.8612 3245.8,-19.5164"/>
<polygon fill="midnightblue" stroke="midnightblue" points="3390.49,-57.5342 3401.03,-56.4435 3392.11,-50.7242 3390.49,-57.5342"/>
</g>
</g>
</svg>
