<?xml version="1.0" encoding="UTF-8" standalone="no"?>
<!DOCTYPE svg PUBLIC "-//W3C//DTD SVG 1.1//EN"
 "http://www.w3.org/Graphics/SVG/1.1/DTD/svg11.dtd">
<!-- Generated by graphviz version 2.28.0 (20120217.0315)
 -->
<!-- Title: G Pages: 1 -->
<svg width="837pt" height="588pt"
 viewBox="0.00 0.00 836.78 588.00" xmlns="http://www.w3.org/2000/svg" xmlns:xlink="http://www.w3.org/1999/xlink">
<g id="graph1" class="graph" transform="scale(1 1) rotate(0) translate(4 584)">
<title>G</title>
<polygon fill="white" stroke="white" points="-4,5 -4,-584 833.777,-584 833.777,5 -4,5"/>
<!-- Node1 -->
<g id="node1" class="node"><title>Node1</title>
<polygon fill="#bfbfbf" stroke="black" points="320.777,-560.5 320.777,-579.5 504.777,-579.5 504.777,-560.5 320.777,-560.5"/>
<text text-anchor="middle" x="412.777" y="-567.5" font-family="Helvetica,sans-Serif" font-size="10.00">src/Browser/Statistics/StatBrowser.hh</text>
</g>
<!-- Node2 -->
<g id="node3" class="node"><title>Node2</title>
<a xlink:href="ui__includes_8hh.html" target="_top" xlink:title="../../ui_includes.hh">
<polygon fill="white" stroke="black" points="160.277,-392.5 160.277,-411.5 257.277,-411.5 257.277,-392.5 160.277,-392.5"/>
<text text-anchor="middle" x="208.777" y="-399.5" font-family="Helvetica,sans-Serif" font-size="10.00">../../ui_includes.hh</text>
</a>
</g>
<!-- Node1&#45;&gt;Node2 -->
<g id="edge2" class="edge"><title>Node1&#45;&gt;Node2</title>
<path fill="none" stroke="midnightblue" d="M362.668,-560.479C313.576,-549.055 242.008,-523.387 212.777,-468 205.274,-453.783 204.871,-435.307 205.997,-421.688"/>
<polygon fill="midnightblue" stroke="midnightblue" points="209.492,-421.931 207.179,-411.592 202.54,-421.117 209.492,-421.931"/>
</g>
<!-- Node4 -->
<g id="node7" class="node"><title>Node4</title>
<a xlink:href="Client_8hh.html" target="_top" xlink:title="../../MPD/Client.hh">
<polygon fill="white" stroke="black" points="369.277,-336.5 369.277,-355.5 468.277,-355.5 468.277,-336.5 369.277,-336.5"/>
<text text-anchor="middle" x="418.777" y="-343.5" font-family="Helvetica,sans-Serif" font-size="10.00">../../MPD/Client.hh</text>
</a>
</g>
<!-- Node1&#45;&gt;Node4 -->
<g id="edge6" class="edge"><title>Node1&#45;&gt;Node4</title>
<path fill="none" stroke="midnightblue" d="M418.211,-560.244C428.406,-543.242 450.069,-504.238 457.777,-468 465.812,-430.221 444.637,-387.549 430.433,-364.329"/>
<polygon fill="midnightblue" stroke="midnightblue" points="433.213,-362.179 424.877,-355.639 427.315,-365.949 433.213,-362.179"/>
</g>
<!-- Node22 -->
<g id="node55" class="node"><title>Node22</title>
<a xlink:href="Utils_8hh.html" target="_top" xlink:title="../../Utils/Utils.hh">
<polygon fill="white" stroke="black" points="613.777,-504.5 613.777,-523.5 705.777,-523.5 705.777,-504.5 613.777,-504.5"/>
<text text-anchor="middle" x="659.777" y="-511.5" font-family="Helvetica,sans-Serif" font-size="10.00">../../Utils/Utils.hh</text>
</a>
</g>
<!-- Node1&#45;&gt;Node22 -->
<g id="edge66" class="edge"><title>Node1&#45;&gt;Node22</title>
<path fill="none" stroke="midnightblue" d="M451.915,-560.444C495.003,-551.023 564.336,-535.866 610.948,-525.675"/>
<polygon fill="midnightblue" stroke="midnightblue" points="611.801,-529.072 620.822,-523.516 610.305,-522.233 611.801,-529.072"/>
</g>
<!-- Node29 -->
<g id="node70" class="node"><title>Node29</title>
<a xlink:href="AbstractBrowser_8hh.html" target="_top" xlink:title="../AbstractBrowser.hh">
<polygon fill="white" stroke="black" points="293.777,-504.5 293.777,-523.5 405.777,-523.5 405.777,-504.5 293.777,-504.5"/>
<text text-anchor="middle" x="349.777" y="-511.5" font-family="Helvetica,sans-Serif" font-size="10.00">../AbstractBrowser.hh</text>
</a>
</g>
<!-- Node1&#45;&gt;Node29 -->
<g id="edge82" class="edge"><title>Node1&#45;&gt;Node29</title>
<path fill="none" stroke="midnightblue" d="M402.655,-560.324C393.251,-552.263 379.033,-540.077 367.708,-530.369"/>
<polygon fill="midnightblue" stroke="midnightblue" points="369.954,-527.684 360.083,-523.834 365.398,-532.999 369.954,-527.684"/>
</g>
<!-- Node3 -->
<g id="node5" class="node"><title>Node3</title>
<polygon fill="white" stroke="#bfbfbf" points="181.277,-336.5 181.277,-355.5 236.277,-355.5 236.277,-336.5 181.277,-336.5"/>
<text text-anchor="middle" x="208.777" y="-343.5" font-family="Helvetica,sans-Serif" font-size="10.00">gtkmm.h</text>
</g>
<!-- Node2&#45;&gt;Node3 -->
<g id="edge4" class="edge"><title>Node2&#45;&gt;Node3</title>
<path fill="none" stroke="midnightblue" d="M208.777,-392.083C208.777,-385.006 208.777,-374.861 208.777,-365.986"/>
<polygon fill="midnightblue" stroke="midnightblue" points="212.277,-365.751 208.777,-355.751 205.277,-365.751 212.277,-365.751"/>
</g>
<!-- Node5 -->
<g id="node9" class="node"><title>Node5</title>
<a xlink:href="BaseClient_8hh.html" target="_top" xlink:title="BaseClient.hh">
<polygon fill="white" stroke="black" points="224.777,-280.5 224.777,-299.5 302.777,-299.5 302.777,-280.5 224.777,-280.5"/>
<text text-anchor="middle" x="263.777" y="-287.5" font-family="Helvetica,sans-Serif" font-size="10.00">BaseClient.hh</text>
</a>
</g>
<!-- Node4&#45;&gt;Node5 -->
<g id="edge8" class="edge"><title>Node4&#45;&gt;Node5</title>
<path fill="none" stroke="midnightblue" d="M394.217,-336.444C368.254,-327.399 327.109,-313.064 297.98,-302.916"/>
<polygon fill="midnightblue" stroke="midnightblue" points="298.817,-299.501 288.222,-299.516 296.514,-306.112 298.817,-299.501"/>
</g>
<!-- Node20 -->
<g id="node50" class="node"><title>Node20</title>
<a xlink:href="AbstractItemGenerator_8hh.html" target="_top" xlink:title="AbstractItemGenerator.hh">
<polygon fill="white" stroke="black" points="415.277,-280.5 415.277,-299.5 544.277,-299.5 544.277,-280.5 415.277,-280.5"/>
<text text-anchor="middle" x="479.777" y="-287.5" font-family="Helvetica,sans-Serif" font-size="10.00">AbstractItemGenerator.hh</text>
</a>
</g>
<!-- Node4&#45;&gt;Node20 -->
<g id="edge60" class="edge"><title>Node4&#45;&gt;Node20</title>
<path fill="none" stroke="midnightblue" d="M428.578,-336.324C437.595,-328.341 451.183,-316.313 462.095,-306.653"/>
<polygon fill="midnightblue" stroke="midnightblue" points="464.63,-309.083 469.798,-299.834 459.99,-303.842 464.63,-309.083"/>
</g>
<!-- Node6 -->
<g id="node11" class="node"><title>Node6</title>
<a xlink:href="Listener_8hh.html" target="_top" xlink:title="Listener.hh">
<polygon fill="white" stroke="black" points="184.277,-224.5 184.277,-243.5 249.277,-243.5 249.277,-224.5 184.277,-224.5"/>
<text text-anchor="middle" x="216.777" y="-231.5" font-family="Helvetica,sans-Serif" font-size="10.00">Listener.hh</text>
</a>
</g>
<!-- Node5&#45;&gt;Node6 -->
<g id="edge10" class="edge"><title>Node5&#45;&gt;Node6</title>
<path fill="none" stroke="midnightblue" d="M256.016,-280.083C249.24,-272.298 239.234,-260.801 231.022,-251.367"/>
<polygon fill="midnightblue" stroke="midnightblue" points="233.599,-248.996 224.394,-243.751 228.319,-253.592 233.599,-248.996"/>
</g>
<!-- Node13 -->
<g id="node26" class="node"><title>Node13</title>
<a xlink:href="Connection_8hh.html" target="_top" xlink:title="Connection.hh">
<polygon fill="white" stroke="black" points="14.777,-112.5 14.777,-131.5 94.777,-131.5 94.777,-112.5 14.777,-112.5"/>
<text text-anchor="middle" x="54.777" y="-119.5" font-family="Helvetica,sans-Serif" font-size="10.00">Connection.hh</text>
</a>
</g>
<!-- Node5&#45;&gt;Node13 -->
<g id="edge50" class="edge"><title>Node5&#45;&gt;Node13</title>
<path fill="none" stroke="midnightblue" d="M224.718,-284.63C171.228,-276.313 77.0152,-252.793 34.777,-188 25.2424,-173.374 33.3961,-153.957 41.9847,-140.164"/>
<polygon fill="midnightblue" stroke="midnightblue" points="45.0526,-141.877 47.7881,-131.641 39.2666,-137.937 45.0526,-141.877"/>
</g>
<!-- Node18 -->
<g id="node44" class="node"><title>Node18</title>
<a xlink:href="Query_8hh.html" target="_top" xlink:title="Query.hh">
<polygon fill="white" stroke="black" points="389.777,-112.5 389.777,-131.5 445.777,-131.5 445.777,-112.5 389.777,-112.5"/>
<text text-anchor="middle" x="417.777" y="-119.5" font-family="Helvetica,sans-Serif" font-size="10.00">Query.hh</text>
</a>
</g>
<!-- Node5&#45;&gt;Node18 -->
<g id="edge52" class="edge"><title>Node5&#45;&gt;Node18</title>
<path fill="none" stroke="midnightblue" d="M272.088,-280.44C288.846,-263.138 327.819,-222.7 359.777,-188 374.737,-171.756 391.501,-152.896 403.143,-139.689"/>
<polygon fill="midnightblue" stroke="midnightblue" points="406.008,-141.731 409.984,-131.911 400.752,-137.108 406.008,-141.731"/>
</g>
<!-- Node7 -->
<g id="node13" class="node"><title>Node7</title>
<polygon fill="white" stroke="#bfbfbf" points="200.777,-56.5 200.777,-75.5 270.777,-75.5 270.777,-56.5 200.777,-56.5"/>
<text text-anchor="middle" x="235.777" y="-63.5" font-family="Helvetica,sans-Serif" font-size="10.00">mpd/client.h</text>
</g>
<!-- Node6&#45;&gt;Node7 -->
<g id="edge12" class="edge"><title>Node6&#45;&gt;Node7</title>
<path fill="none" stroke="midnightblue" d="M249.278,-230.955C278.288,-227.215 319.262,-216.799 339.777,-188 359.376,-160.486 359.373,-140.202 340.777,-112 327.427,-91.755 302.876,-80.5833 280.87,-74.4361"/>
<polygon fill="midnightblue" stroke="midnightblue" points="281.539,-70.9954 270.987,-71.9508 279.831,-77.7841 281.539,-70.9954"/>
</g>
<!-- Node8 -->
<g id="node15" class="node"><title>Node8</title>
<polygon fill="white" stroke="#bfbfbf" points="148.277,-168.5 148.277,-187.5 221.277,-187.5 221.277,-168.5 148.277,-168.5"/>
<text text-anchor="middle" x="184.777" y="-175.5" font-family="Helvetica,sans-Serif" font-size="10.00">mpd/async.h</text>
</g>
<!-- Node6&#45;&gt;Node8 -->
<g id="edge14" class="edge"><title>Node6&#45;&gt;Node8</title>
<path fill="none" stroke="midnightblue" d="M211.493,-224.083C207.066,-216.613 200.614,-205.724 195.159,-196.52"/>
<polygon fill="midnightblue" stroke="midnightblue" points="198.072,-194.57 189.963,-187.751 192.05,-198.138 198.072,-194.57"/>
</g>
<!-- Node9 -->
<g id="node17" class="node"><title>Node9</title>
<polygon fill="white" stroke="#bfbfbf" points="239.777,-168.5 239.777,-187.5 313.777,-187.5 313.777,-168.5 239.777,-168.5"/>
<text text-anchor="middle" x="276.777" y="-175.5" font-family="Helvetica,sans-Serif" font-size="10.00">mpd/parser.h</text>
</g>
<!-- Node6&#45;&gt;Node9 -->
<g id="edge16" class="edge"><title>Node6&#45;&gt;Node9</title>
<path fill="none" stroke="midnightblue" d="M226.417,-224.324C235.287,-216.341 248.652,-204.313 259.385,-194.653"/>
<polygon fill="midnightblue" stroke="midnightblue" points="261.87,-197.125 266.962,-187.834 257.187,-191.922 261.87,-197.125"/>
</g>
<!-- Node10 -->
<g id="node19" class="node"><title>Node10</title>
<polygon fill="white" stroke="#bfbfbf" points="26.777,-56.5 26.777,-75.5 82.777,-75.5 82.777,-56.5 26.777,-56.5"/>
<text text-anchor="middle" x="54.777" y="-63.5" font-family="Helvetica,sans-Serif" font-size="10.00">glibmm.h</text>
</g>
<!-- Node6&#45;&gt;Node10 -->
<g id="edge18" class="edge"><title>Node6&#45;&gt;Node10</title>
<path fill="none" stroke="midnightblue" d="M184.017,-232.793C144.617,-230.913 78.3555,-222.361 34.777,-188 6.38719,-165.615 -8.76534,-145.1 5.77698,-112 11.1669,-99.732 21.7351,-89.3414 31.6811,-81.6461"/>
<polygon fill="midnightblue" stroke="midnightblue" points="34.0285,-84.2697 40.1156,-75.598 29.9493,-78.5811 34.0285,-84.2697"/>
</g>
<!-- Node11 -->
<g id="node21" class="node"><title>Node11</title>
<a xlink:href="Status_8hh.html" target="_top" xlink:title="Status.hh">
<polygon fill="white" stroke="black" points="273.277,-112.5 273.277,-131.5 332.277,-131.5 332.277,-112.5 273.277,-112.5"/>
<text text-anchor="middle" x="302.777" y="-119.5" font-family="Helvetica,sans-Serif" font-size="10.00">Status.hh</text>
</a>
</g>
<!-- Node6&#45;&gt;Node11 -->
<g id="edge20" class="edge"><title>Node6&#45;&gt;Node11</title>
<path fill="none" stroke="midnightblue" d="M249.494,-228.75C274.235,-223.631 306.612,-212.424 322.777,-188 332.413,-173.441 324.244,-154.013 315.624,-140.2"/>
<polygon fill="midnightblue" stroke="midnightblue" points="318.325,-137.949 309.797,-131.662 312.543,-141.895 318.325,-137.949"/>
</g>
<!-- Node12 -->
<g id="node24" class="node"><title>Node12</title>
<a xlink:href="NotifyData_8hh.html" target="_top" xlink:title="NotifyData.hh">
<polygon fill="white" stroke="black" points="53.277,-168.5 53.277,-187.5 130.277,-187.5 130.277,-168.5 53.277,-168.5"/>
<text text-anchor="middle" x="91.777" y="-175.5" font-family="Helvetica,sans-Serif" font-size="10.00">NotifyData.hh</text>
</a>
</g>
<!-- Node6&#45;&gt;Node12 -->
<g id="edge24" class="edge"><title>Node6&#45;&gt;Node12</title>
<path fill="none" stroke="midnightblue" d="M196.97,-224.444C176.49,-215.596 144.294,-201.687 120.912,-191.586"/>
<polygon fill="midnightblue" stroke="midnightblue" points="122.059,-188.269 111.491,-187.516 119.283,-194.695 122.059,-188.269"/>
</g>
<!-- Node6&#45;&gt;Node13 -->
<g id="edge48" class="edge"><title>Node6&#45;&gt;Node13</title>
<path fill="none" stroke="midnightblue" d="M184.228,-229.249C139.013,-223.293 60.8137,-210.035 43.777,-188 33.4117,-174.594 38.716,-154.952 45.0315,-140.772"/>
<polygon fill="midnightblue" stroke="midnightblue" points="48.2838,-142.092 49.5993,-131.579 42.015,-138.977 48.2838,-142.092"/>
</g>
<!-- Node11&#45;&gt;Node7 -->
<g id="edge22" class="edge"><title>Node11&#45;&gt;Node7</title>
<path fill="none" stroke="midnightblue" d="M292.012,-112.324C282.011,-104.263 266.89,-92.0765 254.847,-82.3695"/>
<polygon fill="midnightblue" stroke="midnightblue" points="256.72,-79.3841 246.738,-75.8339 252.327,-84.8343 256.72,-79.3841"/>
</g>
<!-- Node12&#45;&gt;Node11 -->
<g id="edge36" class="edge"><title>Node12&#45;&gt;Node11</title>
<path fill="none" stroke="midnightblue" d="M125.211,-168.444C162.732,-158.841 223.549,-143.276 263.356,-133.089"/>
<polygon fill="midnightblue" stroke="midnightblue" points="264.425,-136.428 273.245,-130.558 262.689,-129.647 264.425,-136.428"/>
</g>
<!-- Node12&#45;&gt;Node13 -->
<g id="edge26" class="edge"><title>Node12&#45;&gt;Node13</title>
<path fill="none" stroke="midnightblue" d="M85.6672,-168.083C80.4948,-160.534 72.9308,-149.495 66.5826,-140.23"/>
<polygon fill="midnightblue" stroke="midnightblue" points="69.3127,-138.022 60.7731,-131.751 63.5382,-141.979 69.3127,-138.022"/>
</g>
<!-- Node14 -->
<g id="node30" class="node"><title>Node14</title>
<a xlink:href="Statistics_8hh.html" target="_top" xlink:title="Statistics.hh">
<polygon fill="white" stroke="black" points="113.277,-112.5 113.277,-131.5 184.277,-131.5 184.277,-112.5 113.277,-112.5"/>
<text text-anchor="middle" x="148.777" y="-119.5" font-family="Helvetica,sans-Serif" font-size="10.00">Statistics.hh</text>
</a>
</g>
<!-- Node12&#45;&gt;Node14 -->
<g id="edge32" class="edge"><title>Node12&#45;&gt;Node14</title>
<path fill="none" stroke="midnightblue" d="M100.935,-168.324C109.278,-160.42 121.809,-148.548 131.954,-138.938"/>
<polygon fill="midnightblue" stroke="midnightblue" points="134.6,-141.252 139.452,-131.834 129.786,-136.171 134.6,-141.252"/>
</g>
<!-- Node15 -->
<g id="node34" class="node"><title>Node15</title>
<a xlink:href="Song_8hh.html" target="_top" xlink:title="Song.hh">
<polygon fill="white" stroke="black" points="202.277,-112.5 202.277,-131.5 255.277,-131.5 255.277,-112.5 202.277,-112.5"/>
<text text-anchor="middle" x="228.777" y="-119.5" font-family="Helvetica,sans-Serif" font-size="10.00">Song.hh</text>
</a>
</g>
<!-- Node12&#45;&gt;Node15 -->
<g id="edge38" class="edge"><title>Node12&#45;&gt;Node15</title>
<path fill="none" stroke="midnightblue" d="M113.485,-168.444C136.132,-159.517 171.849,-145.439 197.529,-135.317"/>
<polygon fill="midnightblue" stroke="midnightblue" points="199.151,-138.44 207.17,-131.516 196.584,-131.927 199.151,-138.44"/>
</g>
<!-- Node13&#45;&gt;Node7 -->
<g id="edge28" class="edge"><title>Node13&#45;&gt;Node7</title>
<path fill="none" stroke="midnightblue" d="M83.457,-112.444C114.304,-103.241 163.505,-88.5617 197.606,-78.3879"/>
<polygon fill="midnightblue" stroke="midnightblue" points="198.649,-81.7293 207.231,-75.5164 196.648,-75.0215 198.649,-81.7293"/>
</g>
<!-- Node13&#45;&gt;Node10 -->
<g id="edge30" class="edge"><title>Node13&#45;&gt;Node10</title>
<path fill="none" stroke="midnightblue" d="M54.777,-112.083C54.777,-105.006 54.777,-94.8611 54.777,-85.9865"/>
<polygon fill="midnightblue" stroke="midnightblue" points="58.2771,-85.751 54.777,-75.7511 51.2771,-85.7511 58.2771,-85.751"/>
</g>
<!-- Node14&#45;&gt;Node7 -->
<g id="edge34" class="edge"><title>Node14&#45;&gt;Node7</title>
<path fill="none" stroke="midnightblue" d="M162.755,-112.324C176.327,-103.9 197.157,-90.9709 213.102,-81.0741"/>
<polygon fill="midnightblue" stroke="midnightblue" points="215.183,-83.9019 221.834,-75.6545 211.491,-77.9544 215.183,-83.9019"/>
</g>
<!-- Node15&#45;&gt;Node7 -->
<g id="edge40" class="edge"><title>Node15&#45;&gt;Node7</title>
<path fill="none" stroke="midnightblue" d="M229.933,-112.083C230.86,-104.927 232.195,-94.6353 233.354,-85.6911"/>
<polygon fill="midnightblue" stroke="midnightblue" points="236.828,-86.1181 234.643,-75.7511 229.886,-85.2181 236.828,-86.1181"/>
</g>
<!-- Node15&#45;&gt;Node10 -->
<g id="edge46" class="edge"><title>Node15&#45;&gt;Node10</title>
<path fill="none" stroke="midnightblue" d="M201.971,-112.681C172.511,-103.538 124.99,-88.7904 91.9434,-78.5344"/>
<polygon fill="midnightblue" stroke="midnightblue" points="92.7762,-75.1282 82.1881,-75.5069 90.7013,-81.8137 92.7762,-75.1282"/>
</g>
<!-- Node16 -->
<g id="node37" class="node"><title>Node16</title>
<a xlink:href="AbstractComposite_8hh.html" target="_top" xlink:title="AbstractComposite.hh">
<polygon fill="white" stroke="black" points="495.777,-56.5 495.777,-75.5 609.777,-75.5 609.777,-56.5 495.777,-56.5"/>
<text text-anchor="middle" x="552.777" y="-63.5" font-family="Helvetica,sans-Serif" font-size="10.00">AbstractComposite.hh</text>
</a>
</g>
<!-- Node15&#45;&gt;Node16 -->
<g id="edge42" class="edge"><title>Node15&#45;&gt;Node16</title>
<path fill="none" stroke="midnightblue" d="M255.468,-113.852C258.265,-113.188 261.073,-112.557 263.777,-112 304.899,-103.532 413.486,-87.227 485.218,-76.7431"/>
<polygon fill="midnightblue" stroke="midnightblue" points="486.132,-80.147 495.522,-75.2402 485.122,-73.2203 486.132,-80.147"/>
</g>
<!-- Node17 -->
<g id="node39" class="node"><title>Node17</title>
<polygon fill="white" stroke="#bfbfbf" points="410.777,-0.5 410.777,-19.5 454.777,-19.5 454.777,-0.5 410.777,-0.5"/>
<text text-anchor="middle" x="432.777" y="-7.5" font-family="Helvetica,sans-Serif" font-size="10.00">vector</text>
</g>
<!-- Node16&#45;&gt;Node17 -->
<g id="edge44" class="edge"><title>Node16&#45;&gt;Node17</title>
<path fill="none" stroke="midnightblue" d="M533.763,-56.4435C514.189,-47.6356 483.469,-33.8116 461.048,-23.722"/>
<polygon fill="midnightblue" stroke="midnightblue" points="462.258,-20.4284 451.702,-19.5164 459.385,-26.8119 462.258,-20.4284"/>
</g>
<!-- Node18&#45;&gt;Node7 -->
<g id="edge54" class="edge"><title>Node18&#45;&gt;Node7</title>
<path fill="none" stroke="midnightblue" d="M389.738,-112.681C358.791,-103.499 308.79,-88.6631 274.206,-78.402"/>
<polygon fill="midnightblue" stroke="midnightblue" points="275.031,-74.996 264.448,-75.5069 273.04,-81.7069 275.031,-74.996"/>
</g>
<!-- Node18&#45;&gt;Node17 -->
<g id="edge56" class="edge"><title>Node18&#45;&gt;Node17</title>
<path fill="none" stroke="midnightblue" d="M389.639,-112.901C358.739,-102.482 315.629,-82.5204 332.777,-56 347.725,-32.8823 377.691,-21.5232 400.941,-16.0148"/>
<polygon fill="midnightblue" stroke="midnightblue" points="401.695,-19.4329 410.751,-13.9346 400.242,-12.5852 401.695,-19.4329"/>
</g>
<!-- Node19 -->
<g id="node48" class="node"><title>Node19</title>
<a xlink:href="AbstractClientExtension_8hh.html" target="_top" xlink:title="AbstractClientExtension.hh">
<polygon fill="white" stroke="black" points="341.777,-56.5 341.777,-75.5 477.777,-75.5 477.777,-56.5 341.777,-56.5"/>
<text text-anchor="middle" x="409.777" y="-63.5" font-family="Helvetica,sans-Serif" font-size="10.00">AbstractClientExtension.hh</text>
</a>
</g>
<!-- Node18&#45;&gt;Node19 -->
<g id="edge58" class="edge"><title>Node18&#45;&gt;Node19</title>
<path fill="none" stroke="midnightblue" d="M416.456,-112.083C415.396,-104.927 413.871,-94.6353 412.546,-85.6911"/>
<polygon fill="midnightblue" stroke="midnightblue" points="416.001,-85.1302 411.073,-75.7511 409.077,-86.1561 416.001,-85.1302"/>
</g>
<!-- Node21 -->
<g id="node52" class="node"><title>Node21</title>
<a xlink:href="AbstractItemlist_8hh.html" target="_top" xlink:title="AbstractItemlist.hh">
<polygon fill="white" stroke="black" points="463.277,-224.5 463.277,-243.5 562.277,-243.5 562.277,-224.5 463.277,-224.5"/>
<text text-anchor="middle" x="512.777" y="-231.5" font-family="Helvetica,sans-Serif" font-size="10.00">AbstractItemlist.hh</text>
</a>
</g>
<!-- Node20&#45;&gt;Node21 -->
<g id="edge62" class="edge"><title>Node20&#45;&gt;Node21</title>
<path fill="none" stroke="midnightblue" d="M485.226,-280.083C489.791,-272.613 496.445,-261.724 502.07,-252.52"/>
<polygon fill="midnightblue" stroke="midnightblue" points="505.201,-254.109 507.429,-243.751 499.228,-250.459 505.201,-254.109"/>
</g>
<!-- Node21&#45;&gt;Node16 -->
<g id="edge64" class="edge"><title>Node21&#45;&gt;Node16</title>
<path fill="none" stroke="midnightblue" d="M514.928,-224.075C521.224,-197.945 539.714,-121.211 548.301,-85.577"/>
<polygon fill="midnightblue" stroke="midnightblue" points="551.772,-86.1098 550.712,-75.5681 544.967,-84.4699 551.772,-86.1098"/>
</g>
<!-- Node23 -->
<g id="node57" class="node"><title>Node23</title>
<polygon fill="white" stroke="#bfbfbf" points="740.277,-392.5 740.277,-411.5 829.277,-411.5 829.277,-392.5 740.277,-392.5"/>
<text text-anchor="middle" x="784.777" y="-399.5" font-family="Helvetica,sans-Serif" font-size="10.00">glibmm/ustring.h</text>
</g>
<!-- Node22&#45;&gt;Node23 -->
<g id="edge68" class="edge"><title>Node22&#45;&gt;Node23</title>
<path fill="none" stroke="midnightblue" d="M706.147,-505.878C747.169,-498.519 802.517,-485.626 815.777,-468 827.212,-452.8 814.107,-432.709 801.591,-418.909"/>
<polygon fill="midnightblue" stroke="midnightblue" points="803.96,-416.325 794.479,-411.596 798.941,-421.205 803.96,-416.325"/>
</g>
<!-- Node24 -->
<g id="node59" class="node"><title>Node24</title>
<polygon fill="white" stroke="#bfbfbf" points="616.777,-448.5 616.777,-467.5 702.777,-467.5 702.777,-448.5 616.777,-448.5"/>
<text text-anchor="middle" x="659.777" y="-455.5" font-family="Helvetica,sans-Serif" font-size="10.00">gtkmm/builder.h</text>
</g>
<!-- Node22&#45;&gt;Node24 -->
<g id="edge70" class="edge"><title>Node22&#45;&gt;Node24</title>
<path fill="none" stroke="midnightblue" d="M659.777,-504.083C659.777,-497.006 659.777,-486.861 659.777,-477.986"/>
<polygon fill="midnightblue" stroke="midnightblue" points="663.277,-477.751 659.777,-467.751 656.277,-477.751 663.277,-477.751"/>
</g>
<!-- Node25 -->
<g id="node61" class="node"><title>Node25</title>
<polygon fill="white" stroke="#bfbfbf" points="720.777,-448.5 720.777,-467.5 806.777,-467.5 806.777,-448.5 720.777,-448.5"/>
<text text-anchor="middle" x="763.777" y="-455.5" font-family="Helvetica,sans-Serif" font-size="10.00">gdkmm/pixbuf.h</text>
</g>
<!-- Node22&#45;&gt;Node25 -->
<g id="edge72" class="edge"><title>Node22&#45;&gt;Node25</title>
<path fill="none" stroke="midnightblue" d="M676.486,-504.324C693.089,-495.703 718.779,-482.364 737.997,-472.386"/>
<polygon fill="midnightblue" stroke="midnightblue" points="739.847,-475.369 747.109,-467.655 736.621,-469.156 739.847,-475.369"/>
</g>
<!-- Node26 -->
<g id="node63" class="node"><title>Node26</title>
<a xlink:href="Writer_8hh.html" target="_top" xlink:title="../Log/Writer.hh">
<polygon fill="white" stroke="black" points="514.777,-448.5 514.777,-467.5 598.777,-467.5 598.777,-448.5 514.777,-448.5"/>
<text text-anchor="middle" x="556.777" y="-455.5" font-family="Helvetica,sans-Serif" font-size="10.00">../Log/Writer.hh</text>
</a>
</g>
<!-- Node22&#45;&gt;Node26 -->
<g id="edge74" class="edge"><title>Node22&#45;&gt;Node26</title>
<path fill="none" stroke="midnightblue" d="M643.228,-504.324C626.785,-495.703 601.342,-482.364 582.309,-472.386"/>
<polygon fill="midnightblue" stroke="midnightblue" points="583.766,-469.198 573.285,-467.655 580.516,-475.398 583.766,-469.198"/>
</g>
<!-- Node26&#45;&gt;Node23 -->
<g id="edge78" class="edge"><title>Node26&#45;&gt;Node23</title>
<path fill="none" stroke="midnightblue" d="M592.904,-448.444C632.428,-439.083 695.874,-424.056 738.89,-413.868"/>
<polygon fill="midnightblue" stroke="midnightblue" points="739.895,-417.227 748.819,-411.516 738.281,-410.415 739.895,-417.227"/>
</g>
<!-- Node27 -->
<g id="node65" class="node"><title>Node27</title>
<polygon fill="white" stroke="#bfbfbf" points="626.777,-392.5 626.777,-411.5 672.777,-411.5 672.777,-392.5 626.777,-392.5"/>
<text text-anchor="middle" x="649.777" y="-399.5" font-family="Helvetica,sans-Serif" font-size="10.00">stdio.h</text>
</g>
<!-- Node26&#45;&gt;Node27 -->
<g id="edge76" class="edge"><title>Node26&#45;&gt;Node27</title>
<path fill="none" stroke="midnightblue" d="M571.719,-448.324C586.362,-439.822 608.911,-426.729 626.015,-416.797"/>
<polygon fill="midnightblue" stroke="midnightblue" points="627.982,-419.703 634.872,-411.655 624.467,-413.649 627.982,-419.703"/>
</g>
<!-- Node28 -->
<g id="node68" class="node"><title>Node28</title>
<a xlink:href="Singleton_8hh.html" target="_top" xlink:title="../Utils/Singleton.hh">
<polygon fill="white" stroke="black" points="505.277,-392.5 505.277,-411.5 608.277,-411.5 608.277,-392.5 505.277,-392.5"/>
<text text-anchor="middle" x="556.777" y="-399.5" font-family="Helvetica,sans-Serif" font-size="10.00">../Utils/Singleton.hh</text>
</a>
</g>
<!-- Node26&#45;&gt;Node28 -->
<g id="edge80" class="edge"><title>Node26&#45;&gt;Node28</title>
<path fill="none" stroke="midnightblue" d="M556.777,-448.083C556.777,-441.006 556.777,-430.861 556.777,-421.986"/>
<polygon fill="midnightblue" stroke="midnightblue" points="560.277,-421.751 556.777,-411.751 553.277,-421.751 560.277,-421.751"/>
</g>
<!-- Node29&#45;&gt;Node2 -->
<g id="edge84" class="edge"><title>Node29&#45;&gt;Node2</title>
<path fill="none" stroke="midnightblue" d="M295.946,-504.44C272.139,-498.084 245.568,-487.062 227.777,-468 216.13,-455.521 211.583,-436.29 209.828,-421.979"/>
<polygon fill="midnightblue" stroke="midnightblue" points="213.295,-421.437 208.938,-411.78 206.321,-422.046 213.295,-421.437"/>
</g>
<!-- Node30 -->
<g id="node73" class="node"><title>Node30</title>
<polygon fill="white" stroke="#bfbfbf" points="394.777,-448.5 394.777,-467.5 448.777,-467.5 448.777,-448.5 394.777,-448.5"/>
<text text-anchor="middle" x="421.777" y="-455.5" font-family="Helvetica,sans-Serif" font-size="10.00">iostream</text>
</g>
<!-- Node29&#45;&gt;Node30 -->
<g id="edge86" class="edge"><title>Node29&#45;&gt;Node30</title>
<path fill="none" stroke="midnightblue" d="M361.345,-504.324C372.197,-496.185 388.658,-483.839 401.66,-474.087"/>
<polygon fill="midnightblue" stroke="midnightblue" points="404.098,-476.634 409.998,-467.834 399.898,-471.034 404.098,-476.634"/>
</g>
<!-- Node31 -->
<g id="node75" class="node"><title>Node31</title>
<a xlink:href="BrowserList_8hh.html" target="_top" xlink:title="../GManager/BrowserList.hh">
<polygon fill="white" stroke="black" points="237.277,-448.5 237.277,-467.5 376.277,-467.5 376.277,-448.5 237.277,-448.5"/>
<text text-anchor="middle" x="306.777" y="-455.5" font-family="Helvetica,sans-Serif" font-size="10.00">../GManager/BrowserList.hh</text>
</a>
</g>
<!-- Node29&#45;&gt;Node31 -->
<g id="edge88" class="edge"><title>Node29&#45;&gt;Node31</title>
<path fill="none" stroke="midnightblue" d="M342.676,-504.083C336.54,-496.377 327.507,-485.033 320.038,-475.653"/>
<polygon fill="midnightblue" stroke="midnightblue" points="322.713,-473.394 313.745,-467.751 317.237,-477.754 322.713,-473.394"/>
</g>
<!-- Node31&#45;&gt;Node2 -->
<g id="edge90" class="edge"><title>Node31&#45;&gt;Node2</title>
<path fill="none" stroke="midnightblue" d="M291.032,-448.324C275.458,-439.743 251.4,-426.486 233.318,-416.522"/>
<polygon fill="midnightblue" stroke="midnightblue" points="234.931,-413.415 224.483,-411.655 231.553,-419.546 234.931,-413.415"/>
</g>
<!-- Node32 -->
<g id="node78" class="node"><title>Node32</title>
<a xlink:href="AbstractClientUser_8hh.html" target="_top" xlink:title="../MPD/AbstractClientUser.hh">
<polygon fill="white" stroke="black" points="287.777,-392.5 287.777,-411.5 435.777,-411.5 435.777,-392.5 287.777,-392.5"/>
<text text-anchor="middle" x="361.777" y="-399.5" font-family="Helvetica,sans-Serif" font-size="10.00">../MPD/AbstractClientUser.hh</text>
</a>
</g>
<!-- Node31&#45;&gt;Node32 -->
<g id="edge92" class="edge"><title>Node31&#45;&gt;Node32</title>
<path fill="none" stroke="midnightblue" d="M315.859,-448.083C323.948,-440.141 335.972,-428.335 345.687,-418.797"/>
<polygon fill="midnightblue" stroke="midnightblue" points="348.18,-421.254 352.864,-411.751 343.276,-416.26 348.18,-421.254"/>
</g>
<!-- Node32&#45;&gt;Node4 -->
<g id="edge94" class="edge"><title>Node32&#45;&gt;Node4</title>
<path fill="none" stroke="midnightblue" d="M370.935,-392.324C379.278,-384.42 391.809,-372.548 401.954,-362.938"/>
<polygon fill="midnightblue" stroke="midnightblue" points="404.6,-365.252 409.452,-355.834 399.786,-360.171 404.6,-365.252"/>
</g>
</g>
</svg>
