<?xml version="1.0" encoding="UTF-8" standalone="no"?>
<!DOCTYPE svg PUBLIC "-//W3C//DTD SVG 1.1//EN"
 "http://www.w3.org/Graphics/SVG/1.1/DTD/svg11.dtd">
<!-- Generated by graphviz version 2.28.0 (20111204.1018)
 -->
<!-- Title: G Pages: 1 -->
<svg width="674pt" height="420pt"
 viewBox="0.00 0.00 674.00 420.00" xmlns="http://www.w3.org/2000/svg" xmlns:xlink="http://www.w3.org/1999/xlink">
<g id="graph1" class="graph" transform="scale(1 1) rotate(0) translate(4 416)">
<title>G</title>
<polygon fill="white" stroke="white" points="-4,5 -4,-416 671,-416 671,5 -4,5"/>
<!-- Node1 -->
<g id="node1" class="node"><title>Node1</title>
<polygon fill="#bfbfbf" stroke="black" points="208,-392.5 208,-411.5 392,-411.5 392,-392.5 208,-392.5"/>
<text text-anchor="middle" x="300" y="-399.5" font-family="Helvetica,sans-Serif" font-size="10.00">src/Browser/Statistics/StatBrowser.hh</text>
</g>
<!-- Node2 -->
<g id="node3" class="node"><title>Node2</title>
<polygon fill="white" stroke="#bfbfbf" points="129.5,-280.5 129.5,-299.5 184.5,-299.5 184.5,-280.5 129.5,-280.5"/>
<text text-anchor="middle" x="157" y="-287.5" font-family="Helvetica,sans-Serif" font-size="10.00">gtkmm.h</text>
</g>
<!-- Node1&#45;&gt;Node2 -->
<g id="edge2" class="edge"><title>Node1&#45;&gt;Node2</title>
<path fill="none" stroke="midnightblue" d="M240.371,-392.483C216.383,-386.164 190.349,-375.161 173,-356 161.675,-343.492 158.049,-324.265 157.032,-309.963"/>
<polygon fill="midnightblue" stroke="midnightblue" points="160.524,-309.644 156.679,-299.771 153.528,-309.886 160.524,-309.644"/>
</g>
<!-- Node3 -->
<g id="node5" class="node"><title>Node3</title>
<a xlink:href="Client_8hh.html" target="_top" xlink:title="../../MPD/Client.hh">
<polygon fill="white" stroke="black" points="312.5,-336.5 312.5,-355.5 411.5,-355.5 411.5,-336.5 312.5,-336.5"/>
<text text-anchor="middle" x="362" y="-343.5" font-family="Helvetica,sans-Serif" font-size="10.00">../../MPD/Client.hh</text>
</a>
</g>
<!-- Node1&#45;&gt;Node3 -->
<g id="edge4" class="edge"><title>Node1&#45;&gt;Node3</title>
<path fill="none" stroke="midnightblue" d="M309.961,-392.324C319.127,-384.341 332.937,-372.313 344.028,-362.653"/>
<polygon fill="midnightblue" stroke="midnightblue" points="346.615,-365.041 351.857,-355.834 342.018,-359.762 346.615,-365.041"/>
</g>
<!-- Node19 -->
<g id="node47" class="node"><title>Node19</title>
<a xlink:href="Utils_8hh.html" target="_top" xlink:title="../../Utils/Utils.hh">
<polygon fill="white" stroke="black" points="509,-168.5 509,-187.5 601,-187.5 601,-168.5 509,-168.5"/>
<text text-anchor="middle" x="555" y="-175.5" font-family="Helvetica,sans-Serif" font-size="10.00">../../Utils/Utils.hh</text>
</a>
</g>
<!-- Node1&#45;&gt;Node19 -->
<g id="edge56" class="edge"><title>Node1&#45;&gt;Node19</title>
<path fill="none" stroke="midnightblue" d="M343.771,-392.412C392.974,-380.414 471.634,-353.768 515,-300 539.572,-269.534 549.285,-223.392 552.941,-197.789"/>
<polygon fill="midnightblue" stroke="midnightblue" points="556.447,-197.96 554.227,-187.6 549.502,-197.084 556.447,-197.96"/>
</g>
<!-- Node23 -->
<g id="node57" class="node"><title>Node23</title>
<a xlink:href="AbstractBrowser_8hh.html" target="_top" xlink:title="../AbstractBrowser.hh">
<polygon fill="white" stroke="black" points="182,-336.5 182,-355.5 294,-355.5 294,-336.5 182,-336.5"/>
<text text-anchor="middle" x="238" y="-343.5" font-family="Helvetica,sans-Serif" font-size="10.00">../AbstractBrowser.hh</text>
</a>
</g>
<!-- Node1&#45;&gt;Node23 -->
<g id="edge68" class="edge"><title>Node1&#45;&gt;Node23</title>
<path fill="none" stroke="midnightblue" d="M290.039,-392.324C280.873,-384.341 267.063,-372.313 255.972,-362.653"/>
<polygon fill="midnightblue" stroke="midnightblue" points="257.982,-359.762 248.143,-355.834 253.385,-365.041 257.982,-359.762"/>
</g>
<!-- Node4 -->
<g id="node7" class="node"><title>Node4</title>
<a xlink:href="BaseClient_8hh.html" target="_top" xlink:title="BaseClient.hh">
<polygon fill="white" stroke="black" points="428,-280.5 428,-299.5 506,-299.5 506,-280.5 428,-280.5"/>
<text text-anchor="middle" x="467" y="-287.5" font-family="Helvetica,sans-Serif" font-size="10.00">BaseClient.hh</text>
</a>
</g>
<!-- Node3&#45;&gt;Node4 -->
<g id="edge6" class="edge"><title>Node3&#45;&gt;Node4</title>
<path fill="none" stroke="midnightblue" d="M378.87,-336.324C395.709,-327.664 421.807,-314.242 441.238,-304.249"/>
<polygon fill="midnightblue" stroke="midnightblue" points="442.88,-307.341 450.172,-299.655 439.678,-301.116 442.88,-307.341"/>
</g>
<!-- Node17 -->
<g id="node42" class="node"><title>Node17</title>
<a xlink:href="AbstractItemGenerator_8hh.html" target="_top" xlink:title="AbstractItemGenerator.hh">
<polygon fill="white" stroke="black" points="280.5,-280.5 280.5,-299.5 409.5,-299.5 409.5,-280.5 280.5,-280.5"/>
<text text-anchor="middle" x="345" y="-287.5" font-family="Helvetica,sans-Serif" font-size="10.00">AbstractItemGenerator.hh</text>
</a>
</g>
<!-- Node3&#45;&gt;Node17 -->
<g id="edge50" class="edge"><title>Node3&#45;&gt;Node17</title>
<path fill="none" stroke="midnightblue" d="M359.193,-336.083C356.915,-328.849 353.629,-318.409 350.792,-309.397"/>
<polygon fill="midnightblue" stroke="midnightblue" points="354.096,-308.239 347.755,-299.751 347.419,-310.341 354.096,-308.239"/>
</g>
<!-- Node5 -->
<g id="node9" class="node"><title>Node5</title>
<a xlink:href="Listener_8hh.html" target="_top" xlink:title="Listener.hh">
<polygon fill="white" stroke="black" points="271.5,-224.5 271.5,-243.5 336.5,-243.5 336.5,-224.5 271.5,-224.5"/>
<text text-anchor="middle" x="304" y="-231.5" font-family="Helvetica,sans-Serif" font-size="10.00">Listener.hh</text>
</a>
</g>
<!-- Node4&#45;&gt;Node5 -->
<g id="edge8" class="edge"><title>Node4&#45;&gt;Node5</title>
<path fill="none" stroke="midnightblue" d="M441.172,-280.444C413.751,-271.359 370.223,-256.939 339.568,-246.783"/>
<polygon fill="midnightblue" stroke="midnightblue" points="340.3,-243.339 329.707,-243.516 338.099,-249.984 340.3,-243.339"/>
</g>
<!-- Node12 -->
<g id="node24" class="node"><title>Node12</title>
<a xlink:href="Connection_8hh.html" target="_top" xlink:title="Connection.hh">
<polygon fill="white" stroke="black" points="339,-112.5 339,-131.5 419,-131.5 419,-112.5 339,-112.5"/>
<text text-anchor="middle" x="379" y="-119.5" font-family="Helvetica,sans-Serif" font-size="10.00">Connection.hh</text>
</a>
</g>
<!-- Node4&#45;&gt;Node12 -->
<g id="edge48" class="edge"><title>Node4&#45;&gt;Node12</title>
<path fill="none" stroke="midnightblue" d="M462.269,-280.075C448.297,-253.719 407.032,-175.878 388.362,-140.661"/>
<polygon fill="midnightblue" stroke="midnightblue" points="391.318,-138.764 383.542,-131.568 385.134,-142.043 391.318,-138.764"/>
</g>
<!-- Node6 -->
<g id="node11" class="node"><title>Node6</title>
<polygon fill="white" stroke="#bfbfbf" points="179,-56.5 179,-75.5 249,-75.5 249,-56.5 179,-56.5"/>
<text text-anchor="middle" x="214" y="-63.5" font-family="Helvetica,sans-Serif" font-size="10.00">mpd/client.h</text>
</g>
<!-- Node5&#45;&gt;Node6 -->
<g id="edge10" class="edge"><title>Node5&#45;&gt;Node6</title>
<path fill="none" stroke="midnightblue" d="M271.453,-231.73C212.888,-228.687 93.4585,-218.772 68,-188 50.5705,-166.933 74.4057,-128.71 92,-112 113.026,-92.0303 143.667,-80.7713 168.98,-74.5092"/>
<polygon fill="midnightblue" stroke="midnightblue" points="169.779,-77.9169 178.744,-72.2709 168.215,-71.0939 169.779,-77.9169"/>
</g>
<!-- Node7 -->
<g id="node13" class="node"><title>Node7</title>
<polygon fill="white" stroke="#bfbfbf" points="77.5,-168.5 77.5,-187.5 150.5,-187.5 150.5,-168.5 77.5,-168.5"/>
<text text-anchor="middle" x="114" y="-175.5" font-family="Helvetica,sans-Serif" font-size="10.00">mpd/async.h</text>
</g>
<!-- Node5&#45;&gt;Node7 -->
<g id="edge12" class="edge"><title>Node5&#45;&gt;Node7</title>
<path fill="none" stroke="midnightblue" d="M273.894,-224.444C241.374,-215.201 189.421,-200.436 153.609,-190.257"/>
<polygon fill="midnightblue" stroke="midnightblue" points="154.541,-186.884 143.965,-187.516 152.627,-193.617 154.541,-186.884"/>
</g>
<!-- Node8 -->
<g id="node15" class="node"><title>Node8</title>
<polygon fill="white" stroke="#bfbfbf" points="169,-168.5 169,-187.5 243,-187.5 243,-168.5 169,-168.5"/>
<text text-anchor="middle" x="206" y="-175.5" font-family="Helvetica,sans-Serif" font-size="10.00">mpd/parser.h</text>
</g>
<!-- Node5&#45;&gt;Node8 -->
<g id="edge14" class="edge"><title>Node5&#45;&gt;Node8</title>
<path fill="none" stroke="midnightblue" d="M288.255,-224.324C272.681,-215.743 248.623,-202.486 230.541,-192.522"/>
<polygon fill="midnightblue" stroke="midnightblue" points="232.154,-189.415 221.706,-187.655 228.776,-195.546 232.154,-189.415"/>
</g>
<!-- Node9 -->
<g id="node17" class="node"><title>Node9</title>
<polygon fill="white" stroke="#bfbfbf" points="419,-56.5 419,-75.5 475,-75.5 475,-56.5 419,-56.5"/>
<text text-anchor="middle" x="447" y="-63.5" font-family="Helvetica,sans-Serif" font-size="10.00">glibmm.h</text>
</g>
<!-- Node5&#45;&gt;Node9 -->
<g id="edge16" class="edge"><title>Node5&#45;&gt;Node9</title>
<path fill="none" stroke="midnightblue" d="M335.649,-224.44C356.377,-217.482 382.883,-205.849 401,-188 429.588,-159.834 440.676,-112.086 444.767,-85.7804"/>
<polygon fill="midnightblue" stroke="midnightblue" points="448.266,-86.0266 446.158,-75.6436 441.331,-85.075 448.266,-86.0266"/>
</g>
<!-- Node10 -->
<g id="node19" class="node"><title>Node10</title>
<a xlink:href="Status_8hh.html" target="_top" xlink:title="Status.hh">
<polygon fill="white" stroke="black" points="101.5,-112.5 101.5,-131.5 160.5,-131.5 160.5,-112.5 101.5,-112.5"/>
<text text-anchor="middle" x="131" y="-119.5" font-family="Helvetica,sans-Serif" font-size="10.00">Status.hh</text>
</a>
</g>
<!-- Node5&#45;&gt;Node10 -->
<g id="edge18" class="edge"><title>Node5&#45;&gt;Node10</title>
<path fill="none" stroke="midnightblue" d="M299.087,-224.165C290.984,-210.343 273.548,-183.581 252,-168 238.375,-158.148 199.157,-144.387 169.026,-134.683"/>
<polygon fill="midnightblue" stroke="midnightblue" points="169.797,-131.255 159.206,-131.559 167.675,-137.926 169.797,-131.255"/>
</g>
<!-- Node11 -->
<g id="node22" class="node"><title>Node11</title>
<a xlink:href="NotifyData_8hh.html" target="_top" xlink:title="NotifyData.hh">
<polygon fill="white" stroke="black" points="299.5,-168.5 299.5,-187.5 376.5,-187.5 376.5,-168.5 299.5,-168.5"/>
<text text-anchor="middle" x="338" y="-175.5" font-family="Helvetica,sans-Serif" font-size="10.00">NotifyData.hh</text>
</a>
</g>
<!-- Node5&#45;&gt;Node11 -->
<g id="edge22" class="edge"><title>Node5&#45;&gt;Node11</title>
<path fill="none" stroke="midnightblue" d="M309.614,-224.083C314.367,-216.534 321.318,-205.495 327.152,-196.23"/>
<polygon fill="midnightblue" stroke="midnightblue" points="330.124,-198.078 332.49,-187.751 324.2,-194.349 330.124,-198.078"/>
</g>
<!-- Node5&#45;&gt;Node12 -->
<g id="edge46" class="edge"><title>Node5&#45;&gt;Node12</title>
<path fill="none" stroke="midnightblue" d="M335.023,-224.436C353.032,-217.694 374.231,-206.302 385,-188 393.253,-173.973 390.359,-155.229 386.226,-141.474"/>
<polygon fill="midnightblue" stroke="midnightblue" points="389.419,-139.999 382.836,-131.698 382.806,-142.292 389.419,-139.999"/>
</g>
<!-- Node10&#45;&gt;Node6 -->
<g id="edge20" class="edge"><title>Node10&#45;&gt;Node6</title>
<path fill="none" stroke="midnightblue" d="M144.335,-112.324C157.162,-103.979 176.785,-91.2122 191.94,-81.3524"/>
<polygon fill="midnightblue" stroke="midnightblue" points="194.224,-84.0417 200.698,-75.6545 190.407,-78.1742 194.224,-84.0417"/>
</g>
<!-- Node11&#45;&gt;Node10 -->
<g id="edge34" class="edge"><title>Node11&#45;&gt;Node10</title>
<path fill="none" stroke="midnightblue" d="M305.2,-168.444C268.678,-158.916 209.656,-143.519 170.592,-133.328"/>
<polygon fill="midnightblue" stroke="midnightblue" points="171.188,-129.867 160.628,-130.729 169.421,-136.64 171.188,-129.867"/>
</g>
<!-- Node11&#45;&gt;Node12 -->
<g id="edge24" class="edge"><title>Node11&#45;&gt;Node12</title>
<path fill="none" stroke="midnightblue" d="M344.77,-168.083C350.562,-160.455 359.058,-149.264 366.138,-139.941"/>
<polygon fill="midnightblue" stroke="midnightblue" points="369.096,-141.832 372.356,-131.751 363.521,-137.599 369.096,-141.832"/>
</g>
<!-- Node13 -->
<g id="node28" class="node"><title>Node13</title>
<a xlink:href="Statistics_8hh.html" target="_top" xlink:title="Statistics.hh">
<polygon fill="white" stroke="black" points="178.5,-112.5 178.5,-131.5 249.5,-131.5 249.5,-112.5 178.5,-112.5"/>
<text text-anchor="middle" x="214" y="-119.5" font-family="Helvetica,sans-Serif" font-size="10.00">Statistics.hh</text>
</a>
</g>
<!-- Node11&#45;&gt;Node13 -->
<g id="edge30" class="edge"><title>Node11&#45;&gt;Node13</title>
<path fill="none" stroke="midnightblue" d="M318.352,-168.444C298.035,-159.596 266.097,-145.687 242.902,-135.586"/>
<polygon fill="midnightblue" stroke="midnightblue" points="244.122,-132.3 233.556,-131.516 241.327,-138.718 244.122,-132.3"/>
</g>
<!-- Node14 -->
<g id="node32" class="node"><title>Node14</title>
<a xlink:href="Song_8hh.html" target="_top" xlink:title="Song.hh">
<polygon fill="white" stroke="black" points="267.5,-112.5 267.5,-131.5 320.5,-131.5 320.5,-112.5 267.5,-112.5"/>
<text text-anchor="middle" x="294" y="-119.5" font-family="Helvetica,sans-Serif" font-size="10.00">Song.hh</text>
</a>
</g>
<!-- Node11&#45;&gt;Node14 -->
<g id="edge36" class="edge"><title>Node11&#45;&gt;Node14</title>
<path fill="none" stroke="midnightblue" d="M330.734,-168.083C324.455,-160.377 315.212,-149.033 307.569,-139.653"/>
<polygon fill="midnightblue" stroke="midnightblue" points="310.161,-137.293 301.131,-131.751 304.734,-141.714 310.161,-137.293"/>
</g>
<!-- Node12&#45;&gt;Node6 -->
<g id="edge26" class="edge"><title>Node12&#45;&gt;Node6</title>
<path fill="none" stroke="midnightblue" d="M352.855,-112.444C324.977,-103.32 280.652,-88.8133 249.6,-78.6509"/>
<polygon fill="midnightblue" stroke="midnightblue" points="250.615,-75.3005 240.022,-75.5164 248.438,-81.9533 250.615,-75.3005"/>
</g>
<!-- Node12&#45;&gt;Node9 -->
<g id="edge28" class="edge"><title>Node12&#45;&gt;Node9</title>
<path fill="none" stroke="midnightblue" d="M389.925,-112.324C400.175,-104.185 415.721,-91.8395 428.001,-82.0874"/>
<polygon fill="midnightblue" stroke="midnightblue" points="430.221,-84.7937 435.876,-75.8339 425.868,-79.3119 430.221,-84.7937"/>
</g>
<!-- Node13&#45;&gt;Node6 -->
<g id="edge32" class="edge"><title>Node13&#45;&gt;Node6</title>
<path fill="none" stroke="midnightblue" d="M214,-112.083C214,-105.006 214,-94.8611 214,-85.9865"/>
<polygon fill="midnightblue" stroke="midnightblue" points="217.5,-85.751 214,-75.7511 210.5,-85.7511 217.5,-85.751"/>
</g>
<!-- Node14&#45;&gt;Node6 -->
<g id="edge38" class="edge"><title>Node14&#45;&gt;Node6</title>
<path fill="none" stroke="midnightblue" d="M281.147,-112.324C268.784,-103.979 249.87,-91.2122 235.263,-81.3524"/>
<polygon fill="midnightblue" stroke="midnightblue" points="237.068,-78.3483 226.821,-75.6545 233.152,-84.1503 237.068,-78.3483"/>
</g>
<!-- Node14&#45;&gt;Node9 -->
<g id="edge44" class="edge"><title>Node14&#45;&gt;Node9</title>
<path fill="none" stroke="midnightblue" d="M318.243,-112.444C343.871,-103.399 384.485,-89.064 413.238,-78.9158"/>
<polygon fill="midnightblue" stroke="midnightblue" points="414.605,-82.1452 422.87,-75.5164 412.275,-75.5442 414.605,-82.1452"/>
</g>
<!-- Node15 -->
<g id="node35" class="node"><title>Node15</title>
<a xlink:href="AbstractComposite_8hh.html" target="_top" xlink:title="AbstractComposite.hh">
<polygon fill="white" stroke="black" points="0,-56.5 0,-75.5 114,-75.5 114,-56.5 0,-56.5"/>
<text text-anchor="middle" x="57" y="-63.5" font-family="Helvetica,sans-Serif" font-size="10.00">AbstractComposite.hh</text>
</a>
</g>
<!-- Node14&#45;&gt;Node15 -->
<g id="edge40" class="edge"><title>Node14&#45;&gt;Node15</title>
<path fill="none" stroke="midnightblue" d="M267.282,-114.242C264.155,-113.475 261.009,-112.713 258,-112 206.354,-99.765 147.031,-86.5909 106.292,-77.6793"/>
<polygon fill="midnightblue" stroke="midnightblue" points="106.868,-74.2226 96.3512,-75.5086 105.374,-81.0614 106.868,-74.2226"/>
</g>
<!-- Node16 -->
<g id="node37" class="node"><title>Node16</title>
<polygon fill="white" stroke="#bfbfbf" points="35,-0.5 35,-19.5 79,-19.5 79,-0.5 35,-0.5"/>
<text text-anchor="middle" x="57" y="-7.5" font-family="Helvetica,sans-Serif" font-size="10.00">vector</text>
</g>
<!-- Node15&#45;&gt;Node16 -->
<g id="edge42" class="edge"><title>Node15&#45;&gt;Node16</title>
<path fill="none" stroke="midnightblue" d="M57,-56.083C57,-49.0059 57,-38.8611 57,-29.9865"/>
<polygon fill="midnightblue" stroke="midnightblue" points="60.5001,-29.751 57,-19.7511 53.5001,-29.7511 60.5001,-29.751"/>
</g>
<!-- Node18 -->
<g id="node44" class="node"><title>Node18</title>
<a xlink:href="AbstractItemlist_8hh.html" target="_top" xlink:title="AbstractItemlist.hh">
<polygon fill="white" stroke="black" points="74.5,-224.5 74.5,-243.5 173.5,-243.5 173.5,-224.5 74.5,-224.5"/>
<text text-anchor="middle" x="124" y="-231.5" font-family="Helvetica,sans-Serif" font-size="10.00">AbstractItemlist.hh</text>
</a>
</g>
<!-- Node17&#45;&gt;Node18 -->
<g id="edge52" class="edge"><title>Node17&#45;&gt;Node18</title>
<path fill="none" stroke="midnightblue" d="M309.982,-280.444C271.752,-271.102 210.433,-256.119 168.743,-245.933"/>
<polygon fill="midnightblue" stroke="midnightblue" points="169.399,-242.49 158.854,-243.516 167.738,-249.29 169.399,-242.49"/>
</g>
<!-- Node18&#45;&gt;Node15 -->
<g id="edge54" class="edge"><title>Node18&#45;&gt;Node15</title>
<path fill="none" stroke="midnightblue" d="M87.2978,-224.349C68.1663,-217.775 46.4276,-206.583 35,-188 15.0452,-155.55 33.5913,-109.558 46.665,-84.6622"/>
<polygon fill="midnightblue" stroke="midnightblue" points="49.8647,-86.1086 51.6421,-75.6639 43.7392,-82.7205 49.8647,-86.1086"/>
</g>
<!-- Node19&#45;&gt;Node9 -->
<g id="edge58" class="edge"><title>Node19&#45;&gt;Node9</title>
<path fill="none" stroke="midnightblue" d="M544.491,-168.406C533.926,-159.613 517.339,-145.38 504,-132 488.353,-116.305 471.793,-97.0913 460.579,-83.6392"/>
<polygon fill="midnightblue" stroke="midnightblue" points="463.111,-81.2085 454.045,-75.7261 457.713,-85.6656 463.111,-81.2085"/>
</g>
<!-- Node20 -->
<g id="node50" class="node"><title>Node20</title>
<a xlink:href="Writer_8hh.html" target="_top" xlink:title="../Log/Writer.hh">
<polygon fill="white" stroke="black" points="513,-112.5 513,-131.5 597,-131.5 597,-112.5 513,-112.5"/>
<text text-anchor="middle" x="555" y="-119.5" font-family="Helvetica,sans-Serif" font-size="10.00">../Log/Writer.hh</text>
</a>
</g>
<!-- Node19&#45;&gt;Node20 -->
<g id="edge60" class="edge"><title>Node19&#45;&gt;Node20</title>
<path fill="none" stroke="midnightblue" d="M555,-168.083C555,-161.006 555,-150.861 555,-141.986"/>
<polygon fill="midnightblue" stroke="midnightblue" points="558.5,-141.751 555,-131.751 551.5,-141.751 558.5,-141.751"/>
</g>
<!-- Node20&#45;&gt;Node9 -->
<g id="edge62" class="edge"><title>Node20&#45;&gt;Node9</title>
<path fill="none" stroke="midnightblue" d="M537.648,-112.324C520.328,-103.664 493.485,-90.2424 473.498,-80.249"/>
<polygon fill="midnightblue" stroke="midnightblue" points="474.819,-76.9962 464.309,-75.6545 471.688,-83.2572 474.819,-76.9962"/>
</g>
<!-- Node21 -->
<g id="node53" class="node"><title>Node21</title>
<polygon fill="white" stroke="#bfbfbf" points="620,-56.5 620,-75.5 666,-75.5 666,-56.5 620,-56.5"/>
<text text-anchor="middle" x="643" y="-63.5" font-family="Helvetica,sans-Serif" font-size="10.00">stdio.h</text>
</g>
<!-- Node20&#45;&gt;Node21 -->
<g id="edge64" class="edge"><title>Node20&#45;&gt;Node21</title>
<path fill="none" stroke="midnightblue" d="M569.139,-112.324C582.866,-103.9 603.936,-90.9709 620.064,-81.0741"/>
<polygon fill="midnightblue" stroke="midnightblue" points="622.204,-83.8678 628.896,-75.6545 618.543,-77.9016 622.204,-83.8678"/>
</g>
<!-- Node22 -->
<g id="node55" class="node"><title>Node22</title>
<a xlink:href="Singleton_8hh.html" target="_top" xlink:title="../Utils/Singleton.hh">
<polygon fill="white" stroke="black" points="498.5,-56.5 498.5,-75.5 601.5,-75.5 601.5,-56.5 498.5,-56.5"/>
<text text-anchor="middle" x="550" y="-63.5" font-family="Helvetica,sans-Serif" font-size="10.00">../Utils/Singleton.hh</text>
</a>
</g>
<!-- Node20&#45;&gt;Node22 -->
<g id="edge66" class="edge"><title>Node20&#45;&gt;Node22</title>
<path fill="none" stroke="midnightblue" d="M554.174,-112.083C553.519,-105.006 552.58,-94.8611 551.758,-85.9865"/>
<polygon fill="midnightblue" stroke="midnightblue" points="555.217,-85.3858 550.81,-75.7511 548.247,-86.0312 555.217,-85.3858"/>
</g>
<!-- Node23&#45;&gt;Node2 -->
<g id="edge70" class="edge"><title>Node23&#45;&gt;Node2</title>
<path fill="none" stroke="midnightblue" d="M224.986,-336.324C212.468,-327.979 193.318,-315.212 178.529,-305.352"/>
<polygon fill="midnightblue" stroke="midnightblue" points="180.244,-302.289 169.982,-299.655 176.361,-308.114 180.244,-302.289"/>
</g>
<!-- Node24 -->
<g id="node60" class="node"><title>Node24</title>
<polygon fill="white" stroke="#bfbfbf" points="208,-280.5 208,-299.5 262,-299.5 262,-280.5 208,-280.5"/>
<text text-anchor="middle" x="235" y="-287.5" font-family="Helvetica,sans-Serif" font-size="10.00">iostream</text>
</g>
<!-- Node23&#45;&gt;Node24 -->
<g id="edge72" class="edge"><title>Node23&#45;&gt;Node24</title>
<path fill="none" stroke="midnightblue" d="M237.505,-336.083C237.111,-329.006 236.548,-318.861 236.055,-309.986"/>
<polygon fill="midnightblue" stroke="midnightblue" points="239.536,-309.542 235.486,-299.751 232.546,-309.93 239.536,-309.542"/>
</g>
</g>
</svg>
