<?xml version="1.0" encoding="UTF-8" standalone="no"?>
<!DOCTYPE svg PUBLIC "-//W3C//DTD SVG 1.1//EN"
 "http://www.w3.org/Graphics/SVG/1.1/DTD/svg11.dtd">
<!-- Generated by graphviz version 2.28.0 (20120217.0315)
 -->
<!-- Title: G Pages: 1 -->
<svg width="618pt" height="476pt"
 viewBox="0.00 0.00 617.98 476.00" xmlns="http://www.w3.org/2000/svg" xmlns:xlink="http://www.w3.org/1999/xlink">
<g id="graph1" class="graph" transform="scale(1 1) rotate(0) translate(4 472)">
<title>G</title>
<polygon fill="white" stroke="white" points="-4,5 -4,-472 614.98,-472 614.98,5 -4,5"/>
<!-- Node1 -->
<g id="node1" class="node"><title>Node1</title>
<polygon fill="#bfbfbf" stroke="black" points="256.98,-448.5 256.98,-467.5 458.98,-467.5 458.98,-448.5 256.98,-448.5"/>
<text text-anchor="middle" x="357.98" y="-455.5" font-family="Helvetica,sans-Serif" font-size="10.00">src/Browser/NowPlaying/TextItemsMgr.hh</text>
</g>
<!-- Node2 -->
<g id="node3" class="node"><title>Node2</title>
<polygon fill="white" stroke="#bfbfbf" points="273.48,-392.5 273.48,-411.5 328.48,-411.5 328.48,-392.5 273.48,-392.5"/>
<text text-anchor="middle" x="300.98" y="-399.5" font-family="Helvetica,sans-Serif" font-size="10.00">gtkmm.h</text>
</g>
<!-- Node1&#45;&gt;Node2 -->
<g id="edge2" class="edge"><title>Node1&#45;&gt;Node2</title>
<path fill="none" stroke="midnightblue" d="M348.822,-448.324C340.478,-440.42 327.947,-428.548 317.803,-418.938"/>
<polygon fill="midnightblue" stroke="midnightblue" points="319.971,-416.171 310.304,-411.834 315.157,-421.252 319.971,-416.171"/>
</g>
<!-- Node3 -->
<g id="node5" class="node"><title>Node3</title>
<a xlink:href="UpdateInterface_8hh.html" target="_top" xlink:title="../../Glyr/UpdateInterface.hh">
<polygon fill="white" stroke="black" points="346.48,-392.5 346.48,-411.5 485.48,-411.5 485.48,-392.5 346.48,-392.5"/>
<text text-anchor="middle" x="415.98" y="-399.5" font-family="Helvetica,sans-Serif" font-size="10.00">../../Glyr/UpdateInterface.hh</text>
</a>
</g>
<!-- Node1&#45;&gt;Node3 -->
<g id="edge4" class="edge"><title>Node1&#45;&gt;Node3</title>
<path fill="none" stroke="midnightblue" d="M367.298,-448.324C375.872,-440.341 388.792,-428.313 399.167,-418.653"/>
<polygon fill="midnightblue" stroke="midnightblue" points="401.557,-421.21 406.491,-411.834 396.787,-416.086 401.557,-421.21"/>
</g>
<!-- Node4 -->
<g id="node7" class="node"><title>Node4</title>
<a xlink:href="Client_8hh.html" target="_top" xlink:title="../MPD/Client.hh">
<polygon fill="white" stroke="black" points="323.98,-336.5 323.98,-355.5 413.98,-355.5 413.98,-336.5 323.98,-336.5"/>
<text text-anchor="middle" x="368.98" y="-343.5" font-family="Helvetica,sans-Serif" font-size="10.00">../MPD/Client.hh</text>
</a>
</g>
<!-- Node3&#45;&gt;Node4 -->
<g id="edge6" class="edge"><title>Node3&#45;&gt;Node4</title>
<path fill="none" stroke="midnightblue" d="M408.219,-392.083C401.443,-384.298 391.436,-372.801 383.225,-363.367"/>
<polygon fill="midnightblue" stroke="midnightblue" points="385.802,-360.996 376.596,-355.751 380.521,-365.592 385.802,-360.996"/>
</g>
<!-- Node22 -->
<g id="node55" class="node"><title>Node22</title>
<polygon fill="white" stroke="#bfbfbf" points="432.48,-336.5 432.48,-355.5 491.48,-355.5 491.48,-336.5 432.48,-336.5"/>
<text text-anchor="middle" x="461.98" y="-343.5" font-family="Helvetica,sans-Serif" font-size="10.00">glyr/glyr.h</text>
</g>
<!-- Node3&#45;&gt;Node22 -->
<g id="edge66" class="edge"><title>Node3&#45;&gt;Node22</title>
<path fill="none" stroke="midnightblue" d="M423.576,-392.083C430.207,-384.298 440.001,-372.801 448.038,-363.367"/>
<polygon fill="midnightblue" stroke="midnightblue" points="450.705,-365.633 454.525,-355.751 445.376,-361.094 450.705,-365.633"/>
</g>
<!-- Node5 -->
<g id="node9" class="node"><title>Node5</title>
<a xlink:href="BaseClient_8hh.html" target="_top" xlink:title="BaseClient.hh">
<polygon fill="white" stroke="black" points="230.98,-280.5 230.98,-299.5 308.98,-299.5 308.98,-280.5 230.98,-280.5"/>
<text text-anchor="middle" x="269.98" y="-287.5" font-family="Helvetica,sans-Serif" font-size="10.00">BaseClient.hh</text>
</a>
</g>
<!-- Node4&#45;&gt;Node5 -->
<g id="edge8" class="edge"><title>Node4&#45;&gt;Node5</title>
<path fill="none" stroke="midnightblue" d="M353.074,-336.324C337.341,-327.743 313.037,-314.486 294.771,-304.522"/>
<polygon fill="midnightblue" stroke="midnightblue" points="296.301,-301.37 285.846,-299.655 292.949,-307.516 296.301,-301.37"/>
</g>
<!-- Node20 -->
<g id="node50" class="node"><title>Node20</title>
<a xlink:href="AbstractItemGenerator_8hh.html" target="_top" xlink:title="AbstractItemGenerator.hh">
<polygon fill="white" stroke="black" points="404.48,-280.5 404.48,-299.5 533.48,-299.5 533.48,-280.5 404.48,-280.5"/>
<text text-anchor="middle" x="468.98" y="-287.5" font-family="Helvetica,sans-Serif" font-size="10.00">AbstractItemGenerator.hh</text>
</a>
</g>
<!-- Node4&#45;&gt;Node20 -->
<g id="edge60" class="edge"><title>Node4&#45;&gt;Node20</title>
<path fill="none" stroke="midnightblue" d="M385.046,-336.324C400.937,-327.743 425.487,-314.486 443.938,-304.522"/>
<polygon fill="midnightblue" stroke="midnightblue" points="445.817,-307.486 452.953,-299.655 442.491,-301.326 445.817,-307.486"/>
</g>
<!-- Node6 -->
<g id="node11" class="node"><title>Node6</title>
<a xlink:href="Listener_8hh.html" target="_top" xlink:title="Listener.hh">
<polygon fill="white" stroke="black" points="198.48,-224.5 198.48,-243.5 263.48,-243.5 263.48,-224.5 198.48,-224.5"/>
<text text-anchor="middle" x="230.98" y="-231.5" font-family="Helvetica,sans-Serif" font-size="10.00">Listener.hh</text>
</a>
</g>
<!-- Node5&#45;&gt;Node6 -->
<g id="edge10" class="edge"><title>Node5&#45;&gt;Node6</title>
<path fill="none" stroke="midnightblue" d="M263.54,-280.083C258.031,-272.455 249.948,-261.264 243.215,-251.941"/>
<polygon fill="midnightblue" stroke="midnightblue" points="245.992,-249.809 237.3,-243.751 240.317,-253.907 245.992,-249.809"/>
</g>
<!-- Node13 -->
<g id="node26" class="node"><title>Node13</title>
<a xlink:href="Connection_8hh.html" target="_top" xlink:title="Connection.hh">
<polygon fill="white" stroke="black" points="14.9796,-112.5 14.9796,-131.5 94.9796,-131.5 94.9796,-112.5 14.9796,-112.5"/>
<text text-anchor="middle" x="54.9796" y="-119.5" font-family="Helvetica,sans-Serif" font-size="10.00">Connection.hh</text>
</a>
</g>
<!-- Node5&#45;&gt;Node13 -->
<g id="edge50" class="edge"><title>Node5&#45;&gt;Node13</title>
<path fill="none" stroke="midnightblue" d="M230.695,-285.157C175.79,-277.436 77.9117,-254.588 33.9796,-188 24.3221,-173.362 32.8286,-153.947 41.7371,-140.158"/>
<polygon fill="midnightblue" stroke="midnightblue" points="44.8435,-141.826 47.7504,-131.638 39.1245,-137.789 44.8435,-141.826"/>
</g>
<!-- Node18 -->
<g id="node44" class="node"><title>Node18</title>
<a xlink:href="Query_8hh.html" target="_top" xlink:title="Query.hh">
<polygon fill="white" stroke="black" points="389.98,-112.5 389.98,-131.5 445.98,-131.5 445.98,-112.5 389.98,-112.5"/>
<text text-anchor="middle" x="417.98" y="-119.5" font-family="Helvetica,sans-Serif" font-size="10.00">Query.hh</text>
</a>
</g>
<!-- Node5&#45;&gt;Node18 -->
<g id="edge52" class="edge"><title>Node5&#45;&gt;Node18</title>
<path fill="none" stroke="midnightblue" d="M277.937,-280.075C301.737,-253.38 372.63,-173.865 403.428,-139.322"/>
<polygon fill="midnightblue" stroke="midnightblue" points="406.298,-141.361 410.341,-131.568 401.073,-136.703 406.298,-141.361"/>
</g>
<!-- Node7 -->
<g id="node13" class="node"><title>Node7</title>
<polygon fill="white" stroke="#bfbfbf" points="200.98,-56.5 200.98,-75.5 270.98,-75.5 270.98,-56.5 200.98,-56.5"/>
<text text-anchor="middle" x="235.98" y="-63.5" font-family="Helvetica,sans-Serif" font-size="10.00">mpd/client.h</text>
</g>
<!-- Node6&#45;&gt;Node7 -->
<g id="edge12" class="edge"><title>Node6&#45;&gt;Node7</title>
<path fill="none" stroke="midnightblue" d="M263.541,-228.874C288.664,-223.815 321.918,-212.628 338.98,-188 353.162,-167.528 340.535,-156.901 340.98,-132 341.138,-123.113 345.873,-119.421 340.98,-112 327.63,-91.755 303.079,-80.5833 281.072,-74.4361"/>
<polygon fill="midnightblue" stroke="midnightblue" points="281.741,-70.9954 271.19,-71.9508 280.034,-77.7841 281.741,-70.9954"/>
</g>
<!-- Node8 -->
<g id="node15" class="node"><title>Node8</title>
<polygon fill="white" stroke="#bfbfbf" points="148.48,-168.5 148.48,-187.5 221.48,-187.5 221.48,-168.5 148.48,-168.5"/>
<text text-anchor="middle" x="184.98" y="-175.5" font-family="Helvetica,sans-Serif" font-size="10.00">mpd/async.h</text>
</g>
<!-- Node6&#45;&gt;Node8 -->
<g id="edge14" class="edge"><title>Node6&#45;&gt;Node8</title>
<path fill="none" stroke="midnightblue" d="M223.384,-224.083C216.752,-216.298 206.959,-204.801 198.921,-195.367"/>
<polygon fill="midnightblue" stroke="midnightblue" points="201.583,-193.094 192.434,-187.751 196.255,-197.633 201.583,-193.094"/>
</g>
<!-- Node9 -->
<g id="node17" class="node"><title>Node9</title>
<polygon fill="white" stroke="#bfbfbf" points="239.98,-168.5 239.98,-187.5 313.98,-187.5 313.98,-168.5 239.98,-168.5"/>
<text text-anchor="middle" x="276.98" y="-175.5" font-family="Helvetica,sans-Serif" font-size="10.00">mpd/parser.h</text>
</g>
<!-- Node6&#45;&gt;Node9 -->
<g id="edge16" class="edge"><title>Node6&#45;&gt;Node9</title>
<path fill="none" stroke="midnightblue" d="M238.576,-224.083C245.207,-216.298 255.001,-204.801 263.038,-195.367"/>
<polygon fill="midnightblue" stroke="midnightblue" points="265.705,-197.633 269.525,-187.751 260.376,-193.094 265.705,-197.633"/>
</g>
<!-- Node10 -->
<g id="node19" class="node"><title>Node10</title>
<polygon fill="white" stroke="#bfbfbf" points="26.9796,-56.5 26.9796,-75.5 82.9796,-75.5 82.9796,-56.5 26.9796,-56.5"/>
<text text-anchor="middle" x="54.9796" y="-63.5" font-family="Helvetica,sans-Serif" font-size="10.00">glibmm.h</text>
</g>
<!-- Node6&#45;&gt;Node10 -->
<g id="edge18" class="edge"><title>Node6&#45;&gt;Node10</title>
<path fill="none" stroke="midnightblue" d="M198.431,-233.72C156.165,-232.987 82.1211,-225.817 33.9796,-188 5.67189,-165.763 -8.49995,-144.957 5.9796,-112 11.3696,-99.732 21.9377,-89.3414 31.8837,-81.6461"/>
<polygon fill="midnightblue" stroke="midnightblue" points="34.2311,-84.2697 40.3182,-75.598 30.152,-78.5811 34.2311,-84.2697"/>
</g>
<!-- Node11 -->
<g id="node21" class="node"><title>Node11</title>
<a xlink:href="Status_8hh.html" target="_top" xlink:title="Status.hh">
<polygon fill="white" stroke="black" points="273.48,-112.5 273.48,-131.5 332.48,-131.5 332.48,-112.5 273.48,-112.5"/>
<text text-anchor="middle" x="302.98" y="-119.5" font-family="Helvetica,sans-Serif" font-size="10.00">Status.hh</text>
</a>
</g>
<!-- Node6&#45;&gt;Node11 -->
<g id="edge20" class="edge"><title>Node6&#45;&gt;Node11</title>
<path fill="none" stroke="midnightblue" d="M263.776,-226.265C284.642,-220.1 310.083,-208.665 322.98,-188 332.223,-173.188 324.115,-153.8 315.616,-140.065"/>
<polygon fill="midnightblue" stroke="midnightblue" points="318.381,-137.905 309.879,-131.584 312.583,-141.828 318.381,-137.905"/>
</g>
<!-- Node12 -->
<g id="node24" class="node"><title>Node12</title>
<a xlink:href="NotifyData_8hh.html" target="_top" xlink:title="NotifyData.hh">
<polygon fill="white" stroke="black" points="53.4796,-168.5 53.4796,-187.5 130.48,-187.5 130.48,-168.5 53.4796,-168.5"/>
<text text-anchor="middle" x="91.9796" y="-175.5" font-family="Helvetica,sans-Serif" font-size="10.00">NotifyData.hh</text>
</a>
</g>
<!-- Node6&#45;&gt;Node12 -->
<g id="edge24" class="edge"><title>Node6&#45;&gt;Node12</title>
<path fill="none" stroke="midnightblue" d="M208.955,-224.444C185.876,-215.478 149.418,-201.314 123.339,-191.183"/>
<polygon fill="midnightblue" stroke="midnightblue" points="124.49,-187.875 113.902,-187.516 121.955,-194.4 124.49,-187.875"/>
</g>
<!-- Node6&#45;&gt;Node13 -->
<g id="edge48" class="edge"><title>Node6&#45;&gt;Node13</title>
<path fill="none" stroke="midnightblue" d="M198.423,-229.893C150.273,-224.55 63.7273,-211.824 44.9796,-188 34.5255,-174.715 39.5091,-155.054 45.5701,-140.836"/>
<polygon fill="midnightblue" stroke="midnightblue" points="48.8225,-142.148 49.9685,-131.615 42.5044,-139.134 48.8225,-142.148"/>
</g>
<!-- Node11&#45;&gt;Node7 -->
<g id="edge22" class="edge"><title>Node11&#45;&gt;Node7</title>
<path fill="none" stroke="midnightblue" d="M292.215,-112.324C282.213,-104.263 267.093,-92.0765 255.049,-82.3695"/>
<polygon fill="midnightblue" stroke="midnightblue" points="256.923,-79.3841 246.94,-75.8339 252.53,-84.8343 256.923,-79.3841"/>
</g>
<!-- Node12&#45;&gt;Node11 -->
<g id="edge36" class="edge"><title>Node12&#45;&gt;Node11</title>
<path fill="none" stroke="midnightblue" d="M125.413,-168.444C162.934,-158.841 223.752,-143.276 263.559,-133.089"/>
<polygon fill="midnightblue" stroke="midnightblue" points="264.627,-136.428 273.447,-130.558 262.892,-129.647 264.627,-136.428"/>
</g>
<!-- Node12&#45;&gt;Node13 -->
<g id="edge26" class="edge"><title>Node12&#45;&gt;Node13</title>
<path fill="none" stroke="midnightblue" d="M85.8698,-168.083C80.6974,-160.534 73.1335,-149.495 66.7852,-140.23"/>
<polygon fill="midnightblue" stroke="midnightblue" points="69.5153,-138.022 60.9757,-131.751 63.7408,-141.979 69.5153,-138.022"/>
</g>
<!-- Node14 -->
<g id="node30" class="node"><title>Node14</title>
<a xlink:href="Statistics_8hh.html" target="_top" xlink:title="Statistics.hh">
<polygon fill="white" stroke="black" points="113.48,-112.5 113.48,-131.5 184.48,-131.5 184.48,-112.5 113.48,-112.5"/>
<text text-anchor="middle" x="148.98" y="-119.5" font-family="Helvetica,sans-Serif" font-size="10.00">Statistics.hh</text>
</a>
</g>
<!-- Node12&#45;&gt;Node14 -->
<g id="edge32" class="edge"><title>Node12&#45;&gt;Node14</title>
<path fill="none" stroke="midnightblue" d="M101.138,-168.324C109.481,-160.42 122.012,-148.548 132.157,-138.938"/>
<polygon fill="midnightblue" stroke="midnightblue" points="134.802,-141.252 139.655,-131.834 129.988,-136.171 134.802,-141.252"/>
</g>
<!-- Node15 -->
<g id="node34" class="node"><title>Node15</title>
<a xlink:href="Song_8hh.html" target="_top" xlink:title="Song.hh">
<polygon fill="white" stroke="black" points="202.48,-112.5 202.48,-131.5 255.48,-131.5 255.48,-112.5 202.48,-112.5"/>
<text text-anchor="middle" x="228.98" y="-119.5" font-family="Helvetica,sans-Serif" font-size="10.00">Song.hh</text>
</a>
</g>
<!-- Node12&#45;&gt;Node15 -->
<g id="edge38" class="edge"><title>Node12&#45;&gt;Node15</title>
<path fill="none" stroke="midnightblue" d="M113.688,-168.444C136.334,-159.517 172.052,-145.439 197.731,-135.317"/>
<polygon fill="midnightblue" stroke="midnightblue" points="199.353,-138.44 207.373,-131.516 196.786,-131.927 199.353,-138.44"/>
</g>
<!-- Node13&#45;&gt;Node7 -->
<g id="edge28" class="edge"><title>Node13&#45;&gt;Node7</title>
<path fill="none" stroke="midnightblue" d="M83.6596,-112.444C114.506,-103.241 163.708,-88.5617 197.809,-78.3879"/>
<polygon fill="midnightblue" stroke="midnightblue" points="198.852,-81.7293 207.434,-75.5164 196.851,-75.0215 198.852,-81.7293"/>
</g>
<!-- Node13&#45;&gt;Node10 -->
<g id="edge30" class="edge"><title>Node13&#45;&gt;Node10</title>
<path fill="none" stroke="midnightblue" d="M54.9796,-112.083C54.9796,-105.006 54.9796,-94.8611 54.9796,-85.9865"/>
<polygon fill="midnightblue" stroke="midnightblue" points="58.4797,-85.751 54.9796,-75.7511 51.4797,-85.7511 58.4797,-85.751"/>
</g>
<!-- Node14&#45;&gt;Node7 -->
<g id="edge34" class="edge"><title>Node14&#45;&gt;Node7</title>
<path fill="none" stroke="midnightblue" d="M162.958,-112.324C176.529,-103.9 197.36,-90.9709 213.305,-81.0741"/>
<polygon fill="midnightblue" stroke="midnightblue" points="215.386,-83.9019 222.036,-75.6545 211.694,-77.9544 215.386,-83.9019"/>
</g>
<!-- Node15&#45;&gt;Node7 -->
<g id="edge40" class="edge"><title>Node15&#45;&gt;Node7</title>
<path fill="none" stroke="midnightblue" d="M230.136,-112.083C231.063,-104.927 232.397,-94.6353 233.557,-85.6911"/>
<polygon fill="midnightblue" stroke="midnightblue" points="237.031,-86.1181 234.845,-75.7511 230.089,-85.2181 237.031,-86.1181"/>
</g>
<!-- Node15&#45;&gt;Node10 -->
<g id="edge46" class="edge"><title>Node15&#45;&gt;Node10</title>
<path fill="none" stroke="midnightblue" d="M202.173,-112.681C172.714,-103.538 125.193,-88.7904 92.146,-78.5344"/>
<polygon fill="midnightblue" stroke="midnightblue" points="92.9788,-75.1282 82.3907,-75.5069 90.9039,-81.8137 92.9788,-75.1282"/>
</g>
<!-- Node16 -->
<g id="node37" class="node"><title>Node16</title>
<a xlink:href="AbstractComposite_8hh.html" target="_top" xlink:title="AbstractComposite.hh">
<polygon fill="white" stroke="black" points="495.98,-56.5 495.98,-75.5 609.98,-75.5 609.98,-56.5 495.98,-56.5"/>
<text text-anchor="middle" x="552.98" y="-63.5" font-family="Helvetica,sans-Serif" font-size="10.00">AbstractComposite.hh</text>
</a>
</g>
<!-- Node15&#45;&gt;Node16 -->
<g id="edge42" class="edge"><title>Node15&#45;&gt;Node16</title>
<path fill="none" stroke="midnightblue" d="M255.655,-114.047C258.789,-113.315 261.949,-112.614 264.98,-112 305.989,-103.688 414.191,-87.337 485.666,-76.8015"/>
<polygon fill="midnightblue" stroke="midnightblue" points="486.548,-80.2095 495.932,-75.291 485.529,-73.284 486.548,-80.2095"/>
</g>
<!-- Node17 -->
<g id="node39" class="node"><title>Node17</title>
<polygon fill="white" stroke="#bfbfbf" points="410.98,-0.5 410.98,-19.5 454.98,-19.5 454.98,-0.5 410.98,-0.5"/>
<text text-anchor="middle" x="432.98" y="-7.5" font-family="Helvetica,sans-Serif" font-size="10.00">vector</text>
</g>
<!-- Node16&#45;&gt;Node17 -->
<g id="edge44" class="edge"><title>Node16&#45;&gt;Node17</title>
<path fill="none" stroke="midnightblue" d="M533.965,-56.4435C514.392,-47.6356 483.672,-33.8116 461.251,-23.722"/>
<polygon fill="midnightblue" stroke="midnightblue" points="462.461,-20.4284 451.905,-19.5164 459.588,-26.8119 462.461,-20.4284"/>
</g>
<!-- Node18&#45;&gt;Node7 -->
<g id="edge54" class="edge"><title>Node18&#45;&gt;Node7</title>
<path fill="none" stroke="midnightblue" d="M389.941,-112.681C358.994,-103.499 308.992,-88.6631 274.409,-78.402"/>
<polygon fill="midnightblue" stroke="midnightblue" points="275.234,-74.996 264.651,-75.5069 273.242,-81.7069 275.234,-74.996"/>
</g>
<!-- Node18&#45;&gt;Node17 -->
<g id="edge56" class="edge"><title>Node18&#45;&gt;Node17</title>
<path fill="none" stroke="midnightblue" d="M389.841,-112.901C358.942,-102.482 315.832,-82.5204 332.98,-56 347.927,-32.8823 377.894,-21.5232 401.144,-16.0148"/>
<polygon fill="midnightblue" stroke="midnightblue" points="401.897,-19.4329 410.954,-13.9346 400.445,-12.5852 401.897,-19.4329"/>
</g>
<!-- Node19 -->
<g id="node48" class="node"><title>Node19</title>
<a xlink:href="AbstractClientExtension_8hh.html" target="_top" xlink:title="AbstractClientExtension.hh">
<polygon fill="white" stroke="black" points="341.98,-56.5 341.98,-75.5 477.98,-75.5 477.98,-56.5 341.98,-56.5"/>
<text text-anchor="middle" x="409.98" y="-63.5" font-family="Helvetica,sans-Serif" font-size="10.00">AbstractClientExtension.hh</text>
</a>
</g>
<!-- Node18&#45;&gt;Node19 -->
<g id="edge58" class="edge"><title>Node18&#45;&gt;Node19</title>
<path fill="none" stroke="midnightblue" d="M416.659,-112.083C415.598,-104.927 414.074,-94.6353 412.749,-85.6911"/>
<polygon fill="midnightblue" stroke="midnightblue" points="416.204,-85.1302 411.276,-75.7511 409.279,-86.1561 416.204,-85.1302"/>
</g>
<!-- Node21 -->
<g id="node52" class="node"><title>Node21</title>
<a xlink:href="AbstractItemlist_8hh.html" target="_top" xlink:title="AbstractItemlist.hh">
<polygon fill="white" stroke="black" points="458.48,-224.5 458.48,-243.5 557.48,-243.5 557.48,-224.5 458.48,-224.5"/>
<text text-anchor="middle" x="507.98" y="-231.5" font-family="Helvetica,sans-Serif" font-size="10.00">AbstractItemlist.hh</text>
</a>
</g>
<!-- Node20&#45;&gt;Node21 -->
<g id="edge62" class="edge"><title>Node20&#45;&gt;Node21</title>
<path fill="none" stroke="midnightblue" d="M475.42,-280.083C480.928,-272.455 489.011,-261.264 495.745,-251.941"/>
<polygon fill="midnightblue" stroke="midnightblue" points="498.642,-253.907 501.659,-243.751 492.967,-249.809 498.642,-253.907"/>
</g>
<!-- Node21&#45;&gt;Node16 -->
<g id="edge64" class="edge"><title>Node21&#45;&gt;Node16</title>
<path fill="none" stroke="midnightblue" d="M510.399,-224.075C517.482,-197.945 538.284,-121.211 547.944,-85.577"/>
<polygon fill="midnightblue" stroke="midnightblue" points="551.419,-86.1355 550.657,-75.5681 544.662,-84.304 551.419,-86.1355"/>
</g>
</g>
</svg>
