<?xml version="1.0" encoding="UTF-8" standalone="no"?>
<!DOCTYPE svg PUBLIC "-//W3C//DTD SVG 1.1//EN"
 "http://www.w3.org/Graphics/SVG/1.1/DTD/svg11.dtd">
<!-- Generated by graphviz version 2.28.0 (20120217.0315)
 -->
<!-- Title: G Pages: 1 -->
<svg width="663pt" height="476pt"
 viewBox="0.00 0.00 662.56 476.00" xmlns="http://www.w3.org/2000/svg" xmlns:xlink="http://www.w3.org/1999/xlink">
<g id="graph1" class="graph" transform="scale(1 1) rotate(0) translate(4 472)">
<title>G</title>
<polygon fill="white" stroke="white" points="-4,5 -4,-472 659.556,-472 659.556,5 -4,5"/>
<!-- Node1 -->
<g id="node1" class="node"><title>Node1</title>
<polygon fill="#bfbfbf" stroke="black" points="84,-448.5 84,-467.5 216,-467.5 216,-448.5 84,-448.5"/>
<text text-anchor="middle" x="150" y="-455.5" font-family="Helvetica,sans-Serif" font-size="10.00">src/GManager/Trayicon.hh</text>
</g>
<!-- Node2 -->
<g id="node3" class="node"><title>Node2</title>
<a xlink:href="ui__includes_8hh.html" target="_top" xlink:title="../ui_includes.hh">
<polygon fill="white" stroke="black" points="0,-336.5 0,-355.5 88,-355.5 88,-336.5 0,-336.5"/>
<text text-anchor="middle" x="44" y="-343.5" font-family="Helvetica,sans-Serif" font-size="10.00">../ui_includes.hh</text>
</a>
</g>
<!-- Node1&#45;&gt;Node2 -->
<g id="edge2" class="edge"><title>Node1&#45;&gt;Node2</title>
<path fill="none" stroke="midnightblue" d="M88.3959,-448.416C66.5718,-442.079 44.1837,-431.08 31,-412 21.4191,-398.134 27.055,-378.86 33.6327,-364.903"/>
<polygon fill="midnightblue" stroke="midnightblue" points="36.8437,-366.316 38.3847,-355.834 30.6432,-363.068 36.8437,-366.316"/>
</g>
<!-- Node4 -->
<g id="node7" class="node"><title>Node4</title>
<a xlink:href="Client_8hh.html" target="_top" xlink:title="../MPD/Client.hh">
<polygon fill="white" stroke="black" points="178,-336.5 178,-355.5 268,-355.5 268,-336.5 178,-336.5"/>
<text text-anchor="middle" x="223" y="-343.5" font-family="Helvetica,sans-Serif" font-size="10.00">../MPD/Client.hh</text>
</a>
</g>
<!-- Node1&#45;&gt;Node4 -->
<g id="edge6" class="edge"><title>Node1&#45;&gt;Node4</title>
<path fill="none" stroke="midnightblue" d="M155.728,-448.368C167.775,-430.215 195.923,-387.802 211.725,-363.99"/>
<polygon fill="midnightblue" stroke="midnightblue" points="214.685,-365.859 217.298,-355.591 208.853,-361.988 214.685,-365.859"/>
</g>
<!-- Node22 -->
<g id="node55" class="node"><title>Node22</title>
<a xlink:href="BasePopup_8hh.html" target="_top" xlink:title="../Browser/BasePopup.hh">
<polygon fill="white" stroke="black" points="40,-392.5 40,-411.5 168,-411.5 168,-392.5 40,-392.5"/>
<text text-anchor="middle" x="104" y="-399.5" font-family="Helvetica,sans-Serif" font-size="10.00">../Browser/BasePopup.hh</text>
</a>
</g>
<!-- Node1&#45;&gt;Node22 -->
<g id="edge66" class="edge"><title>Node1&#45;&gt;Node22</title>
<path fill="none" stroke="midnightblue" d="M142.404,-448.083C135.773,-440.298 125.979,-428.801 117.942,-419.367"/>
<polygon fill="midnightblue" stroke="midnightblue" points="120.604,-417.094 111.455,-411.751 115.275,-421.633 120.604,-417.094"/>
</g>
<!-- Node23 -->
<g id="node58" class="node"><title>Node23</title>
<a xlink:href="AbstractClientUser_8hh.html" target="_top" xlink:title="../MPD/AbstractClientUser.hh">
<polygon fill="white" stroke="black" points="224,-392.5 224,-411.5 372,-411.5 372,-392.5 224,-392.5"/>
<text text-anchor="middle" x="298" y="-399.5" font-family="Helvetica,sans-Serif" font-size="10.00">../MPD/AbstractClientUser.hh</text>
</a>
</g>
<!-- Node1&#45;&gt;Node23 -->
<g id="edge70" class="edge"><title>Node1&#45;&gt;Node23</title>
<path fill="none" stroke="midnightblue" d="M173.451,-448.444C198.133,-439.438 237.185,-425.189 264.977,-415.049"/>
<polygon fill="midnightblue" stroke="midnightblue" points="266.464,-418.232 274.659,-411.516 264.065,-411.656 266.464,-418.232"/>
</g>
<!-- Node3 -->
<g id="node5" class="node"><title>Node3</title>
<polygon fill="white" stroke="#bfbfbf" points="16.5,-280.5 16.5,-299.5 71.5,-299.5 71.5,-280.5 16.5,-280.5"/>
<text text-anchor="middle" x="44" y="-287.5" font-family="Helvetica,sans-Serif" font-size="10.00">gtkmm.h</text>
</g>
<!-- Node2&#45;&gt;Node3 -->
<g id="edge4" class="edge"><title>Node2&#45;&gt;Node3</title>
<path fill="none" stroke="midnightblue" d="M44,-336.083C44,-329.006 44,-318.861 44,-309.986"/>
<polygon fill="midnightblue" stroke="midnightblue" points="47.5001,-309.751 44,-299.751 40.5001,-309.751 47.5001,-309.751"/>
</g>
<!-- Node5 -->
<g id="node9" class="node"><title>Node5</title>
<a xlink:href="BaseClient_8hh.html" target="_top" xlink:title="BaseClient.hh">
<polygon fill="white" stroke="black" points="448,-280.5 448,-299.5 526,-299.5 526,-280.5 448,-280.5"/>
<text text-anchor="middle" x="487" y="-287.5" font-family="Helvetica,sans-Serif" font-size="10.00">BaseClient.hh</text>
</a>
</g>
<!-- Node4&#45;&gt;Node5 -->
<g id="edge8" class="edge"><title>Node4&#45;&gt;Node5</title>
<path fill="none" stroke="midnightblue" d="M264.832,-336.444C311.895,-326.817 388.252,-311.199 438.05,-301.012"/>
<polygon fill="midnightblue" stroke="midnightblue" points="438.85,-304.421 447.946,-298.988 437.447,-297.563 438.85,-304.421"/>
</g>
<!-- Node20 -->
<g id="node50" class="node"><title>Node20</title>
<a xlink:href="AbstractItemGenerator_8hh.html" target="_top" xlink:title="AbstractItemGenerator.hh">
<polygon fill="white" stroke="black" points="126.5,-280.5 126.5,-299.5 255.5,-299.5 255.5,-280.5 126.5,-280.5"/>
<text text-anchor="middle" x="191" y="-287.5" font-family="Helvetica,sans-Serif" font-size="10.00">AbstractItemGenerator.hh</text>
</a>
</g>
<!-- Node4&#45;&gt;Node20 -->
<g id="edge60" class="edge"><title>Node4&#45;&gt;Node20</title>
<path fill="none" stroke="midnightblue" d="M217.716,-336.083C213.289,-328.613 206.837,-317.724 201.382,-308.52"/>
<polygon fill="midnightblue" stroke="midnightblue" points="204.295,-306.57 196.186,-299.751 198.273,-310.138 204.295,-306.57"/>
</g>
<!-- Node6 -->
<g id="node11" class="node"><title>Node6</title>
<a xlink:href="Listener_8hh.html" target="_top" xlink:title="Listener.hh">
<polygon fill="white" stroke="black" points="318.5,-224.5 318.5,-243.5 383.5,-243.5 383.5,-224.5 318.5,-224.5"/>
<text text-anchor="middle" x="351" y="-231.5" font-family="Helvetica,sans-Serif" font-size="10.00">Listener.hh</text>
</a>
</g>
<!-- Node5&#45;&gt;Node6 -->
<g id="edge10" class="edge"><title>Node5&#45;&gt;Node6</title>
<path fill="none" stroke="midnightblue" d="M465.45,-280.444C442.969,-271.517 407.512,-257.439 382.02,-247.317"/>
<polygon fill="midnightblue" stroke="midnightblue" points="383.035,-243.954 372.449,-243.516 380.451,-250.46 383.035,-243.954"/>
</g>
<!-- Node13 -->
<g id="node26" class="node"><title>Node13</title>
<a xlink:href="Connection_8hh.html" target="_top" xlink:title="Connection.hh">
<polygon fill="white" stroke="black" points="487,-112.5 487,-131.5 567,-131.5 567,-112.5 487,-112.5"/>
<text text-anchor="middle" x="527" y="-119.5" font-family="Helvetica,sans-Serif" font-size="10.00">Connection.hh</text>
</a>
</g>
<!-- Node5&#45;&gt;Node13 -->
<g id="edge50" class="edge"><title>Node5&#45;&gt;Node13</title>
<path fill="none" stroke="midnightblue" d="M489.151,-280.075C495.447,-253.945 513.937,-177.211 522.524,-141.577"/>
<polygon fill="midnightblue" stroke="midnightblue" points="525.995,-142.11 524.935,-131.568 519.19,-140.47 525.995,-142.11"/>
</g>
<!-- Node18 -->
<g id="node44" class="node"><title>Node18</title>
<a xlink:href="Query_8hh.html" target="_top" xlink:title="Query.hh">
<polygon fill="white" stroke="black" points="585,-112.5 585,-131.5 641,-131.5 641,-112.5 585,-112.5"/>
<text text-anchor="middle" x="613" y="-119.5" font-family="Helvetica,sans-Serif" font-size="10.00">Query.hh</text>
</a>
</g>
<!-- Node5&#45;&gt;Node18 -->
<g id="edge52" class="edge"><title>Node5&#45;&gt;Node18</title>
<path fill="none" stroke="midnightblue" d="M493.774,-280.075C513.951,-253.493 573.881,-174.538 600.276,-139.763"/>
<polygon fill="midnightblue" stroke="midnightblue" points="603.238,-141.65 606.496,-131.568 597.663,-137.417 603.238,-141.65"/>
</g>
<!-- Node7 -->
<g id="node13" class="node"><title>Node7</title>
<polygon fill="white" stroke="#bfbfbf" points="343,-56.5 343,-75.5 413,-75.5 413,-56.5 343,-56.5"/>
<text text-anchor="middle" x="378" y="-63.5" font-family="Helvetica,sans-Serif" font-size="10.00">mpd/client.h</text>
</g>
<!-- Node6&#45;&gt;Node7 -->
<g id="edge12" class="edge"><title>Node6&#45;&gt;Node7</title>
<path fill="none" stroke="midnightblue" d="M318.457,-230.207C268.773,-225.193 177.678,-212.793 158,-188 152.474,-181.037 155.095,-176.401 158,-168 168.346,-138.086 175.482,-129.282 202,-112 213.008,-104.826 284.265,-87.9231 332.666,-76.9977"/>
<polygon fill="midnightblue" stroke="midnightblue" points="333.628,-80.369 342.618,-74.7627 332.094,-73.5391 333.628,-80.369"/>
</g>
<!-- Node8 -->
<g id="node15" class="node"><title>Node8</title>
<polygon fill="white" stroke="#bfbfbf" points="175.5,-168.5 175.5,-187.5 248.5,-187.5 248.5,-168.5 175.5,-168.5"/>
<text text-anchor="middle" x="212" y="-175.5" font-family="Helvetica,sans-Serif" font-size="10.00">mpd/async.h</text>
</g>
<!-- Node6&#45;&gt;Node8 -->
<g id="edge14" class="edge"><title>Node6&#45;&gt;Node8</title>
<path fill="none" stroke="midnightblue" d="M328.975,-224.444C305.896,-215.478 269.438,-201.314 243.359,-191.183"/>
<polygon fill="midnightblue" stroke="midnightblue" points="244.511,-187.875 233.922,-187.516 241.976,-194.4 244.511,-187.875"/>
</g>
<!-- Node9 -->
<g id="node17" class="node"><title>Node9</title>
<polygon fill="white" stroke="#bfbfbf" points="267,-168.5 267,-187.5 341,-187.5 341,-168.5 267,-168.5"/>
<text text-anchor="middle" x="304" y="-175.5" font-family="Helvetica,sans-Serif" font-size="10.00">mpd/parser.h</text>
</g>
<!-- Node6&#45;&gt;Node9 -->
<g id="edge16" class="edge"><title>Node6&#45;&gt;Node9</title>
<path fill="none" stroke="midnightblue" d="M343.239,-224.083C336.463,-216.298 326.457,-204.801 318.245,-195.367"/>
<polygon fill="midnightblue" stroke="midnightblue" points="320.822,-192.996 311.617,-187.751 315.542,-197.592 320.822,-192.996"/>
</g>
<!-- Node10 -->
<g id="node19" class="node"><title>Node10</title>
<polygon fill="white" stroke="#bfbfbf" points="431,-56.5 431,-75.5 487,-75.5 487,-56.5 431,-56.5"/>
<text text-anchor="middle" x="459" y="-63.5" font-family="Helvetica,sans-Serif" font-size="10.00">glibmm.h</text>
</g>
<!-- Node6&#45;&gt;Node10 -->
<g id="edge18" class="edge"><title>Node6&#45;&gt;Node10</title>
<path fill="none" stroke="midnightblue" d="M383.718,-225.949C404.694,-219.647 430.603,-208.178 445,-188 466.729,-157.547 465.112,-111.401 462.039,-85.7927"/>
<polygon fill="midnightblue" stroke="midnightblue" points="465.464,-85.0162 460.603,-75.6024 458.533,-85.9929 465.464,-85.0162"/>
</g>
<!-- Node11 -->
<g id="node21" class="node"><title>Node11</title>
<a xlink:href="Status_8hh.html" target="_top" xlink:title="Status.hh">
<polygon fill="white" stroke="black" points="211.5,-112.5 211.5,-131.5 270.5,-131.5 270.5,-112.5 211.5,-112.5"/>
<text text-anchor="middle" x="241" y="-119.5" font-family="Helvetica,sans-Serif" font-size="10.00">Status.hh</text>
</a>
</g>
<!-- Node6&#45;&gt;Node11 -->
<g id="edge20" class="edge"><title>Node6&#45;&gt;Node11</title>
<path fill="none" stroke="midnightblue" d="M318.222,-229.822C270.25,-224.417 184.587,-211.65 166,-188 149.523,-167.035 180.374,-147.664 207.354,-135.621"/>
<polygon fill="midnightblue" stroke="midnightblue" points="208.813,-138.804 216.652,-131.677 206.079,-132.36 208.813,-138.804"/>
</g>
<!-- Node12 -->
<g id="node24" class="node"><title>Node12</title>
<a xlink:href="NotifyData_8hh.html" target="_top" xlink:title="NotifyData.hh">
<polygon fill="white" stroke="black" points="359.5,-168.5 359.5,-187.5 436.5,-187.5 436.5,-168.5 359.5,-168.5"/>
<text text-anchor="middle" x="398" y="-175.5" font-family="Helvetica,sans-Serif" font-size="10.00">NotifyData.hh</text>
</a>
</g>
<!-- Node6&#45;&gt;Node12 -->
<g id="edge24" class="edge"><title>Node6&#45;&gt;Node12</title>
<path fill="none" stroke="midnightblue" d="M358.761,-224.083C365.537,-216.298 375.543,-204.801 383.755,-195.367"/>
<polygon fill="midnightblue" stroke="midnightblue" points="386.458,-197.592 390.383,-187.751 381.178,-192.996 386.458,-197.592"/>
</g>
<!-- Node6&#45;&gt;Node13 -->
<g id="edge48" class="edge"><title>Node6&#45;&gt;Node13</title>
<path fill="none" stroke="midnightblue" d="M383.772,-227.106C411.262,-220.918 450.489,-209.069 479,-188 495.867,-175.536 509.403,-155.462 517.747,-140.917"/>
<polygon fill="midnightblue" stroke="midnightblue" points="520.954,-142.347 522.671,-131.892 514.809,-138.994 520.954,-142.347"/>
</g>
<!-- Node11&#45;&gt;Node7 -->
<g id="edge22" class="edge"><title>Node11&#45;&gt;Node7</title>
<path fill="none" stroke="midnightblue" d="M262.708,-112.444C285.355,-103.517 321.072,-89.4387 346.752,-79.3168"/>
<polygon fill="midnightblue" stroke="midnightblue" points="348.374,-82.4397 356.394,-75.5164 345.807,-75.9273 348.374,-82.4397"/>
</g>
<!-- Node12&#45;&gt;Node11 -->
<g id="edge36" class="edge"><title>Node12&#45;&gt;Node11</title>
<path fill="none" stroke="midnightblue" d="M373.123,-168.444C346.711,-159.359 304.785,-144.939 275.258,-134.783"/>
<polygon fill="midnightblue" stroke="midnightblue" points="276.355,-131.459 265.761,-131.516 274.079,-138.079 276.355,-131.459"/>
</g>
<!-- Node12&#45;&gt;Node13 -->
<g id="edge26" class="edge"><title>Node12&#45;&gt;Node13</title>
<path fill="none" stroke="midnightblue" d="M418.44,-168.444C439.67,-159.557 473.099,-145.563 497.255,-135.451"/>
<polygon fill="midnightblue" stroke="midnightblue" points="498.782,-138.606 506.655,-131.516 496.079,-132.149 498.782,-138.606"/>
</g>
<!-- Node14 -->
<g id="node30" class="node"><title>Node14</title>
<a xlink:href="Statistics_8hh.html" target="_top" xlink:title="Statistics.hh">
<polygon fill="white" stroke="black" points="288.5,-112.5 288.5,-131.5 359.5,-131.5 359.5,-112.5 288.5,-112.5"/>
<text text-anchor="middle" x="324" y="-119.5" font-family="Helvetica,sans-Serif" font-size="10.00">Statistics.hh</text>
</a>
</g>
<!-- Node12&#45;&gt;Node14 -->
<g id="edge32" class="edge"><title>Node12&#45;&gt;Node14</title>
<path fill="none" stroke="midnightblue" d="M386.111,-168.324C374.85,-160.107 357.713,-147.602 344.291,-137.807"/>
<polygon fill="midnightblue" stroke="midnightblue" points="346.247,-134.901 336.106,-131.834 342.12,-140.556 346.247,-134.901"/>
</g>
<!-- Node15 -->
<g id="node34" class="node"><title>Node15</title>
<a xlink:href="Song_8hh.html" target="_top" xlink:title="Song.hh">
<polygon fill="white" stroke="black" points="377.5,-112.5 377.5,-131.5 430.5,-131.5 430.5,-112.5 377.5,-112.5"/>
<text text-anchor="middle" x="404" y="-119.5" font-family="Helvetica,sans-Serif" font-size="10.00">Song.hh</text>
</a>
</g>
<!-- Node12&#45;&gt;Node15 -->
<g id="edge38" class="edge"><title>Node12&#45;&gt;Node15</title>
<path fill="none" stroke="midnightblue" d="M398.991,-168.083C399.786,-160.927 400.929,-150.635 401.923,-141.691"/>
<polygon fill="midnightblue" stroke="midnightblue" points="405.402,-142.076 403.028,-131.751 398.445,-141.303 405.402,-142.076"/>
</g>
<!-- Node13&#45;&gt;Node7 -->
<g id="edge28" class="edge"><title>Node13&#45;&gt;Node7</title>
<path fill="none" stroke="midnightblue" d="M503.391,-112.444C478.542,-103.438 439.226,-89.1891 411.246,-79.049"/>
<polygon fill="midnightblue" stroke="midnightblue" points="412.093,-75.6332 401.499,-75.5164 409.708,-82.2144 412.093,-75.6332"/>
</g>
<!-- Node13&#45;&gt;Node10 -->
<g id="edge30" class="edge"><title>Node13&#45;&gt;Node10</title>
<path fill="none" stroke="midnightblue" d="M516.075,-112.324C505.825,-104.185 490.279,-91.8395 477.999,-82.0874"/>
<polygon fill="midnightblue" stroke="midnightblue" points="480.132,-79.3119 470.124,-75.8339 475.779,-84.7937 480.132,-79.3119"/>
</g>
<!-- Node14&#45;&gt;Node7 -->
<g id="edge34" class="edge"><title>Node14&#45;&gt;Node7</title>
<path fill="none" stroke="midnightblue" d="M332.917,-112.083C340.78,-104.22 352.431,-92.5688 361.919,-83.0813"/>
<polygon fill="midnightblue" stroke="midnightblue" points="364.653,-85.2971 369.249,-75.7511 359.703,-80.3473 364.653,-85.2971"/>
</g>
<!-- Node15&#45;&gt;Node7 -->
<g id="edge40" class="edge"><title>Node15&#45;&gt;Node7</title>
<path fill="none" stroke="midnightblue" d="M399.707,-112.083C396.148,-104.691 390.978,-93.9533 386.576,-84.8111"/>
<polygon fill="midnightblue" stroke="midnightblue" points="389.705,-83.2427 382.213,-75.7511 383.398,-86.2795 389.705,-83.2427"/>
</g>
<!-- Node15&#45;&gt;Node10 -->
<g id="edge46" class="edge"><title>Node15&#45;&gt;Node10</title>
<path fill="none" stroke="midnightblue" d="M413.082,-112.083C421.171,-104.141 433.195,-92.3354 442.91,-82.7973"/>
<polygon fill="midnightblue" stroke="midnightblue" points="445.403,-85.2545 450.087,-75.7511 440.499,-80.2595 445.403,-85.2545"/>
</g>
<!-- Node16 -->
<g id="node37" class="node"><title>Node16</title>
<a xlink:href="AbstractComposite_8hh.html" target="_top" xlink:title="AbstractComposite.hh">
<polygon fill="white" stroke="black" points="211,-56.5 211,-75.5 325,-75.5 325,-56.5 211,-56.5"/>
<text text-anchor="middle" x="268" y="-63.5" font-family="Helvetica,sans-Serif" font-size="10.00">AbstractComposite.hh</text>
</a>
</g>
<!-- Node15&#45;&gt;Node16 -->
<g id="edge42" class="edge"><title>Node15&#45;&gt;Node16</title>
<path fill="none" stroke="midnightblue" d="M382.45,-112.444C359.969,-103.517 324.512,-89.4387 299.02,-79.3168"/>
<polygon fill="midnightblue" stroke="midnightblue" points="300.035,-75.9539 289.449,-75.5164 297.451,-82.4598 300.035,-75.9539"/>
</g>
<!-- Node17 -->
<g id="node39" class="node"><title>Node17</title>
<polygon fill="white" stroke="#bfbfbf" points="446,-0.5 446,-19.5 490,-19.5 490,-0.5 446,-0.5"/>
<text text-anchor="middle" x="468" y="-7.5" font-family="Helvetica,sans-Serif" font-size="10.00">vector</text>
</g>
<!-- Node16&#45;&gt;Node17 -->
<g id="edge44" class="edge"><title>Node16&#45;&gt;Node17</title>
<path fill="none" stroke="midnightblue" d="M299.691,-56.4435C336.942,-46.3856 398.419,-29.7869 435.863,-19.677"/>
<polygon fill="midnightblue" stroke="midnightblue" points="437.005,-22.9942 445.747,-17.0084 435.18,-16.2361 437.005,-22.9942"/>
</g>
<!-- Node18&#45;&gt;Node7 -->
<g id="edge54" class="edge"><title>Node18&#45;&gt;Node7</title>
<path fill="none" stroke="midnightblue" d="M584.729,-114.077C581.783,-113.369 578.832,-112.666 576,-112 523.599,-99.6729 463.26,-86.0402 423.099,-77.0457"/>
<polygon fill="midnightblue" stroke="midnightblue" points="423.611,-73.5739 413.088,-74.8062 422.083,-80.405 423.611,-73.5739"/>
</g>
<!-- Node18&#45;&gt;Node17 -->
<g id="edge56" class="edge"><title>Node18&#45;&gt;Node17</title>
<path fill="none" stroke="midnightblue" d="M624.397,-112.297C639.993,-99.3365 664.488,-74.5062 650,-56 631.72,-32.6494 547.253,-19.7412 500.084,-14.2403"/>
<polygon fill="midnightblue" stroke="midnightblue" points="500.394,-10.7532 490.066,-13.118 499.614,-17.7097 500.394,-10.7532"/>
</g>
<!-- Node19 -->
<g id="node48" class="node"><title>Node19</title>
<a xlink:href="AbstractClientExtension_8hh.html" target="_top" xlink:title="AbstractClientExtension.hh">
<polygon fill="white" stroke="black" points="505,-56.5 505,-75.5 641,-75.5 641,-56.5 505,-56.5"/>
<text text-anchor="middle" x="573" y="-63.5" font-family="Helvetica,sans-Serif" font-size="10.00">AbstractClientExtension.hh</text>
</a>
</g>
<!-- Node18&#45;&gt;Node19 -->
<g id="edge58" class="edge"><title>Node18&#45;&gt;Node19</title>
<path fill="none" stroke="midnightblue" d="M606.395,-112.083C600.745,-104.455 592.455,-93.2645 585.549,-83.9408"/>
<polygon fill="midnightblue" stroke="midnightblue" points="588.247,-81.7034 579.482,-75.7511 582.622,-85.87 588.247,-81.7034"/>
</g>
<!-- Node21 -->
<g id="node52" class="node"><title>Node21</title>
<a xlink:href="AbstractItemlist_8hh.html" target="_top" xlink:title="AbstractItemlist.hh">
<polygon fill="white" stroke="black" points="87.5,-224.5 87.5,-243.5 186.5,-243.5 186.5,-224.5 87.5,-224.5"/>
<text text-anchor="middle" x="137" y="-231.5" font-family="Helvetica,sans-Serif" font-size="10.00">AbstractItemlist.hh</text>
</a>
</g>
<!-- Node20&#45;&gt;Node21 -->
<g id="edge62" class="edge"><title>Node20&#45;&gt;Node21</title>
<path fill="none" stroke="midnightblue" d="M182.083,-280.083C174.22,-272.22 162.569,-260.569 153.081,-251.081"/>
<polygon fill="midnightblue" stroke="midnightblue" points="155.297,-248.347 145.751,-243.751 150.347,-253.297 155.297,-248.347"/>
</g>
<!-- Node21&#45;&gt;Node16 -->
<g id="edge64" class="edge"><title>Node21&#45;&gt;Node16</title>
<path fill="none" stroke="midnightblue" d="M137.065,-224.416C137.694,-202.673 142.329,-144.832 173,-112 187.256,-96.7391 207.75,-86.13 226.056,-79.0632"/>
<polygon fill="midnightblue" stroke="midnightblue" points="227.45,-82.2809 235.665,-75.5899 225.07,-75.6978 227.45,-82.2809"/>
</g>
<!-- Node22&#45;&gt;Node2 -->
<g id="edge68" class="edge"><title>Node22&#45;&gt;Node2</title>
<path fill="none" stroke="midnightblue" d="M94.36,-392.324C85.4904,-384.341 72.1253,-372.313 61.3921,-362.653"/>
<polygon fill="midnightblue" stroke="midnightblue" points="63.5898,-359.922 53.8154,-355.834 58.907,-365.125 63.5898,-359.922"/>
</g>
<!-- Node23&#45;&gt;Node4 -->
<g id="edge72" class="edge"><title>Node23&#45;&gt;Node4</title>
<path fill="none" stroke="midnightblue" d="M285.95,-392.324C274.537,-384.107 257.169,-371.602 243.565,-361.807"/>
<polygon fill="midnightblue" stroke="midnightblue" points="245.43,-358.837 235.269,-355.834 241.34,-364.517 245.43,-358.837"/>
</g>
</g>
</svg>
