<?xml version="1.0" encoding="UTF-8" standalone="no"?>
<!DOCTYPE svg PUBLIC "-//W3C//DTD SVG 1.1//EN"
 "http://www.w3.org/Graphics/SVG/1.1/DTD/svg11.dtd">
<!-- Generated by graphviz version 2.28.0 (20120217.0315)
 -->
<!-- Title: G Pages: 1 -->
<svg width="2502pt" height="252pt"
 viewBox="0.00 0.00 2502.00 252.00" xmlns="http://www.w3.org/2000/svg" xmlns:xlink="http://www.w3.org/1999/xlink">
<g id="graph1" class="graph" transform="scale(1 1) rotate(0) translate(4 248)">
<title>G</title>
<polygon fill="white" stroke="white" points="-4,5 -4,-248 2499,-248 2499,5 -4,5"/>
<!-- Node1 -->
<g id="node1" class="node"><title>Node1</title>
<polygon fill="#bfbfbf" stroke="black" points="1100.5,-224.5 1100.5,-243.5 1195.5,-243.5 1195.5,-224.5 1100.5,-224.5"/>
<text text-anchor="middle" x="1148" y="-231.5" font-family="Helvetica,sans-Serif" font-size="10.00">src/ui_includes.hh</text>
</g>
<!-- Node2 -->
<g id="node3" class="node"><title>Node2</title>
<a xlink:href="View_8hh.html" target="_top" xlink:title="src/Avahi/View.hh">
<polygon fill="white" stroke="black" points="443,-168.5 443,-187.5 539,-187.5 539,-168.5 443,-168.5"/>
<text text-anchor="middle" x="491" y="-175.5" font-family="Helvetica,sans-Serif" font-size="10.00">src/Avahi/View.hh</text>
</a>
</g>
<!-- Node1&#45;&gt;Node2 -->
<g id="edge2" class="edge"><title>Node1&#45;&gt;Node2</title>
<path fill="none" stroke="midnightblue" d="M1090.16,-229.792C984.094,-223.645 751.394,-208.933 556,-188 550.563,-187.417 544.879,-186.737 539.233,-186.016"/>
<polygon fill="midnightblue" stroke="midnightblue" points="1090.15,-233.297 1100.33,-230.378 1090.55,-226.309 1090.15,-233.297"/>
</g>
<!-- Node5 -->
<g id="node9" class="node"><title>Node5</title>
<a xlink:href="Settings_8hh.html" target="_top" xlink:title="src/Browser/Settings/Settings.hh">
<polygon fill="white" stroke="black" points="441.5,-0.5 441.5,-19.5 602.5,-19.5 602.5,-0.5 441.5,-0.5"/>
<text text-anchor="middle" x="522" y="-7.5" font-family="Helvetica,sans-Serif" font-size="10.00">src/Browser/Settings/Settings.hh</text>
</a>
</g>
<!-- Node1&#45;&gt;Node5 -->
<g id="edge58" class="edge"><title>Node1&#45;&gt;Node5</title>
<path fill="none" stroke="midnightblue" d="M1089.94,-230.502C1019.87,-226.354 898.997,-215.556 799,-188 678.487,-154.79 623.69,-169.748 541,-76 526.69,-59.7765 523.135,-33.2952 522.268,-19.6827"/>
<polygon fill="midnightblue" stroke="midnightblue" points="1090.13,-234.019 1100.32,-231.09 1090.53,-227.03 1090.13,-234.019"/>
</g>
<!-- Node6 -->
<g id="node11" class="node"><title>Node6</title>
<a xlink:href="AbstractBrowser_8hh.html" target="_top" xlink:title="src/Browser/AbstractBrowser.hh">
<polygon fill="white" stroke="black" points="862,-112.5 862,-131.5 1020,-131.5 1020,-112.5 862,-112.5"/>
<text text-anchor="middle" x="941" y="-119.5" font-family="Helvetica,sans-Serif" font-size="10.00">src/Browser/AbstractBrowser.hh</text>
</a>
</g>
<!-- Node1&#45;&gt;Node6 -->
<g id="edge10" class="edge"><title>Node1&#45;&gt;Node6</title>
<path fill="none" stroke="midnightblue" d="M1090.07,-232.522C1014.41,-230.526 888.139,-222.028 859,-188 838.558,-164.129 883.193,-142.837 914.284,-131.54"/>
<polygon fill="midnightblue" stroke="midnightblue" points="1090.31,-236.029 1100.39,-232.762 1090.48,-229.03 1090.31,-236.029"/>
</g>
<!-- Node12 -->
<g id="node24" class="node"><title>Node12</title>
<a xlink:href="StatBrowser_8hh.html" target="_top" xlink:title="src/Browser/Statistics/StatBrowser.hh">
<polygon fill="white" stroke="black" points="550,-56.5 550,-75.5 734,-75.5 734,-56.5 550,-56.5"/>
<text text-anchor="middle" x="642" y="-63.5" font-family="Helvetica,sans-Serif" font-size="10.00">src/Browser/Statistics/StatBrowser.hh</text>
</a>
</g>
<!-- Node1&#45;&gt;Node12 -->
<g id="edge68" class="edge"><title>Node1&#45;&gt;Node12</title>
<path fill="none" stroke="midnightblue" d="M1090.25,-230.695C1029.06,-226.791 930.366,-216.282 850,-188 768.82,-159.432 683.604,-98.4904 653.414,-75.7749"/>
<polygon fill="midnightblue" stroke="midnightblue" points="1090.29,-234.204 1100.48,-231.309 1090.71,-227.216 1090.29,-234.204"/>
</g>
<!-- Node13 -->
<g id="node26" class="node"><title>Node13</title>
<a xlink:href="BrowserList_8hh.html" target="_top" xlink:title="src/GManager/BrowserList.hh">
<polygon fill="white" stroke="black" points="868,-168.5 868,-187.5 1014,-187.5 1014,-168.5 868,-168.5"/>
<text text-anchor="middle" x="941" y="-175.5" font-family="Helvetica,sans-Serif" font-size="10.00">src/GManager/BrowserList.hh</text>
</a>
</g>
<!-- Node1&#45;&gt;Node13 -->
<g id="edge26" class="edge"><title>Node1&#45;&gt;Node13</title>
<path fill="none" stroke="midnightblue" d="M1105.18,-221.829C1066.09,-211.633 1009.17,-196.782 973.646,-187.516"/>
<polygon fill="midnightblue" stroke="midnightblue" points="1104.64,-225.306 1115.2,-224.444 1106.41,-218.533 1104.64,-225.306"/>
</g>
<!-- Node14 -->
<g id="node29" class="node"><title>Node14</title>
<a xlink:href="BasePopup_8hh.html" target="_top" xlink:title="src/Browser/BasePopup.hh">
<polygon fill="white" stroke="black" points="1032,-168.5 1032,-187.5 1168,-187.5 1168,-168.5 1032,-168.5"/>
<text text-anchor="middle" x="1100" y="-175.5" font-family="Helvetica,sans-Serif" font-size="10.00">src/Browser/BasePopup.hh</text>
</a>
</g>
<!-- Node1&#45;&gt;Node14 -->
<g id="edge30" class="edge"><title>Node1&#45;&gt;Node14</title>
<path fill="none" stroke="midnightblue" d="M1133.27,-216.431C1124.86,-206.967 1114.65,-195.483 1107.78,-187.751"/>
<polygon fill="midnightblue" stroke="midnightblue" points="1130.81,-218.934 1140.07,-224.083 1136.05,-214.284 1130.81,-218.934"/>
</g>
<!-- Node18 -->
<g id="node40" class="node"><title>Node18</title>
<a xlink:href="Trayicon_8hh.html" target="_top" xlink:title="src/GManager/Trayicon.hh">
<polygon fill="white" stroke="black" points="1800,-112.5 1800,-131.5 1932,-131.5 1932,-112.5 1800,-112.5"/>
<text text-anchor="middle" x="1866" y="-119.5" font-family="Helvetica,sans-Serif" font-size="10.00">src/GManager/Trayicon.hh</text>
</a>
</g>
<!-- Node1&#45;&gt;Node18 -->
<g id="edge64" class="edge"><title>Node1&#45;&gt;Node18</title>
<path fill="none" stroke="midnightblue" d="M1159.84,-216.027C1171.77,-200.464 1191.71,-178.318 1215,-168 1329.42,-117.301 1652.28,-142.297 1777,-132 1784.43,-131.387 1792.2,-130.687 1799.93,-129.955"/>
<polygon fill="midnightblue" stroke="midnightblue" points="1156.87,-214.158 1153.77,-224.291 1162.51,-218.299 1156.87,-214.158"/>
</g>
<!-- Node20 -->
<g id="node46" class="node"><title>Node20</title>
<a xlink:href="OutputsModelColumns_8hh.html" target="_top" xlink:title="src/Browser/Settings/OutputsModelColumns.hh">
<polygon fill="white" stroke="black" points="7,-168.5 7,-187.5 231,-187.5 231,-168.5 7,-168.5"/>
<text text-anchor="middle" x="119" y="-175.5" font-family="Helvetica,sans-Serif" font-size="10.00">src/Browser/Settings/OutputsModelColumns.hh</text>
</a>
</g>
<!-- Node1&#45;&gt;Node20 -->
<g id="edge52" class="edge"><title>Node1&#45;&gt;Node20</title>
<path fill="none" stroke="midnightblue" d="M1090.1,-230.237C949.215,-223.472 577.291,-205.359 267,-188 255.434,-187.353 243.361,-186.655 231.317,-185.945"/>
<polygon fill="midnightblue" stroke="midnightblue" points="1090.09,-233.74 1100.24,-230.724 1090.42,-226.749 1090.09,-233.74"/>
</g>
<!-- Node21 -->
<g id="node48" class="node"><title>Node21</title>
<a xlink:href="SettingsOutputs_8hh.html" target="_top" xlink:title="src/Browser/Settings/SettingsOutputs.hh">
<polygon fill="white" stroke="black" points="-0.5,-112.5 -0.5,-131.5 194.5,-131.5 194.5,-112.5 -0.5,-112.5"/>
<text text-anchor="middle" x="97" y="-119.5" font-family="Helvetica,sans-Serif" font-size="10.00">src/Browser/Settings/SettingsOutputs.hh</text>
</a>
</g>
<!-- Node1&#45;&gt;Node21 -->
<g id="edge66" class="edge"><title>Node1&#45;&gt;Node21</title>
<path fill="none" stroke="midnightblue" d="M1089.84,-232.858C961.446,-231.829 644.33,-225.358 382,-188 287.795,-174.584 178.7,-145.952 127.061,-131.589"/>
<polygon fill="midnightblue" stroke="midnightblue" points="1090.19,-236.361 1100.22,-232.932 1090.24,-229.361 1090.19,-236.361"/>
</g>
<!-- Node22 -->
<g id="node52" class="node"><title>Node22</title>
<a xlink:href="SettingsPlayback_8hh.html" target="_top" xlink:title="src/Browser/Settings/SettingsPlayback.hh">
<polygon fill="white" stroke="black" points="212.5,-112.5 212.5,-131.5 413.5,-131.5 413.5,-112.5 212.5,-112.5"/>
<text text-anchor="middle" x="313" y="-119.5" font-family="Helvetica,sans-Serif" font-size="10.00">src/Browser/Settings/SettingsPlayback.hh</text>
</a>
</g>
<!-- Node1&#45;&gt;Node22 -->
<g id="edge60" class="edge"><title>Node1&#45;&gt;Node22</title>
<path fill="none" stroke="midnightblue" d="M1090.08,-232.527C942.756,-230.817 556.762,-223.028 434,-188 390.89,-175.699 345.842,-146.41 324.951,-131.718"/>
<polygon fill="midnightblue" stroke="midnightblue" points="1090.23,-236.029 1100.27,-232.64 1090.31,-229.029 1090.23,-236.029"/>
</g>
<!-- Node23 -->
<g id="node58" class="node"><title>Node23</title>
<a xlink:href="MenuList_8hh.html" target="_top" xlink:title="src/GManager/MenuList.hh">
<polygon fill="white" stroke="black" points="1224,-168.5 1224,-187.5 1358,-187.5 1358,-168.5 1224,-168.5"/>
<text text-anchor="middle" x="1291" y="-175.5" font-family="Helvetica,sans-Serif" font-size="10.00">src/GManager/MenuList.hh</text>
</a>
</g>
<!-- Node1&#45;&gt;Node23 -->
<g id="edge70" class="edge"><title>Node1&#45;&gt;Node23</title>
<path fill="none" stroke="midnightblue" d="M1180.03,-220.906C1206.91,-210.754 1244.64,-196.506 1268.45,-187.516"/>
<polygon fill="midnightblue" stroke="midnightblue" points="1178.78,-217.636 1170.66,-224.444 1181.25,-224.185 1178.78,-217.636"/>
</g>
<!-- Node24 -->
<g id="node60" class="node"><title>Node24</title>
<a xlink:href="PlaybackButtons_8hh.html" target="_top" xlink:title="src/GManager/PlaybackButtons.hh">
<polygon fill="white" stroke="black" points="1376.5,-168.5 1376.5,-187.5 1545.5,-187.5 1545.5,-168.5 1376.5,-168.5"/>
<text text-anchor="middle" x="1461" y="-175.5" font-family="Helvetica,sans-Serif" font-size="10.00">src/GManager/PlaybackButtons.hh</text>
</a>
</g>
<!-- Node1&#45;&gt;Node24 -->
<g id="edge72" class="edge"><title>Node1&#45;&gt;Node24</title>
<path fill="none" stroke="midnightblue" d="M1205.47,-223.086C1264.61,-212.883 1355.77,-197.155 1411.72,-187.502"/>
<polygon fill="midnightblue" stroke="midnightblue" points="1204.8,-219.649 1195.54,-224.799 1205.99,-226.547 1204.8,-219.649"/>
</g>
<!-- Node25 -->
<g id="node62" class="node"><title>Node25</title>
<a xlink:href="Statusbar_8hh.html" target="_top" xlink:title="src/GManager/Statusbar.hh">
<polygon fill="white" stroke="black" points="1563.5,-168.5 1563.5,-187.5 1700.5,-187.5 1700.5,-168.5 1563.5,-168.5"/>
<text text-anchor="middle" x="1632" y="-175.5" font-family="Helvetica,sans-Serif" font-size="10.00">src/GManager/Statusbar.hh</text>
</a>
</g>
<!-- Node1&#45;&gt;Node25 -->
<g id="edge74" class="edge"><title>Node1&#45;&gt;Node25</title>
<path fill="none" stroke="midnightblue" d="M1205.7,-226.687C1284.43,-218.054 1429.91,-202.036 1554,-188 1556.98,-187.663 1560.02,-187.317 1563.1,-186.967"/>
<polygon fill="midnightblue" stroke="midnightblue" points="1205.07,-223.235 1195.51,-227.804 1205.83,-230.193 1205.07,-223.235"/>
</g>
<!-- Node26 -->
<g id="node64" class="node"><title>Node26</title>
<a xlink:href="StatusIcons_8hh.html" target="_top" xlink:title="src/GManager/StatusIcons.hh">
<polygon fill="white" stroke="black" points="1718.5,-168.5 1718.5,-187.5 1865.5,-187.5 1865.5,-168.5 1718.5,-168.5"/>
<text text-anchor="middle" x="1792" y="-175.5" font-family="Helvetica,sans-Serif" font-size="10.00">src/GManager/StatusIcons.hh</text>
</a>
</g>
<!-- Node1&#45;&gt;Node26 -->
<g id="edge76" class="edge"><title>Node1&#45;&gt;Node26</title>
<path fill="none" stroke="midnightblue" d="M1205.76,-228.902C1307.52,-221.563 1525.37,-205.317 1709,-188 1712.03,-187.714 1715.12,-187.415 1718.24,-187.106"/>
<polygon fill="midnightblue" stroke="midnightblue" points="1205.42,-225.418 1195.69,-229.626 1205.92,-232.4 1205.42,-225.418"/>
</g>
<!-- Node27 -->
<g id="node66" class="node"><title>Node27</title>
<a xlink:href="Timeslide_8hh.html" target="_top" xlink:title="src/GManager/Timeslide.hh">
<polygon fill="white" stroke="black" points="1883.5,-168.5 1883.5,-187.5 2020.5,-187.5 2020.5,-168.5 1883.5,-168.5"/>
<text text-anchor="middle" x="1952" y="-175.5" font-family="Helvetica,sans-Serif" font-size="10.00">src/GManager/Timeslide.hh</text>
</a>
</g>
<!-- Node1&#45;&gt;Node27 -->
<g id="edge78" class="edge"><title>Node1&#45;&gt;Node27</title>
<path fill="none" stroke="midnightblue" d="M1205.95,-230.452C1329.1,-224.808 1625.88,-209.989 1874,-188 1876.99,-187.735 1880.04,-187.45 1883.12,-187.148"/>
<polygon fill="midnightblue" stroke="midnightblue" points="1205.46,-226.971 1195.63,-230.922 1205.78,-233.963 1205.46,-226.971"/>
</g>
<!-- Node28 -->
<g id="node68" class="node"><title>Node28</title>
<a xlink:href="TitleLabel_8hh.html" target="_top" xlink:title="src/GManager/TitleLabel.hh">
<polygon fill="white" stroke="black" points="2038.5,-168.5 2038.5,-187.5 2175.5,-187.5 2175.5,-168.5 2038.5,-168.5"/>
<text text-anchor="middle" x="2107" y="-175.5" font-family="Helvetica,sans-Serif" font-size="10.00">src/GManager/TitleLabel.hh</text>
</a>
</g>
<!-- Node1&#45;&gt;Node28 -->
<g id="edge80" class="edge"><title>Node1&#45;&gt;Node28</title>
<path fill="none" stroke="midnightblue" d="M1205.97,-231.32C1347.03,-226.952 1719.29,-213.751 2029,-188 2031.99,-187.752 2035.04,-187.479 2038.12,-187.189"/>
<polygon fill="midnightblue" stroke="midnightblue" points="1205.71,-227.826 1195.82,-231.631 1205.92,-234.823 1205.71,-227.826"/>
</g>
<!-- Node29 -->
<g id="node70" class="node"><title>Node29</title>
<a xlink:href="VolumeSlider_8hh.html" target="_top" xlink:title="src/GManager/VolumeSlider.hh">
<polygon fill="white" stroke="black" points="2194,-168.5 2194,-187.5 2346,-187.5 2346,-168.5 2194,-168.5"/>
<text text-anchor="middle" x="2270" y="-175.5" font-family="Helvetica,sans-Serif" font-size="10.00">src/GManager/VolumeSlider.hh</text>
</a>
</g>
<!-- Node1&#45;&gt;Node29 -->
<g id="edge82" class="edge"><title>Node1&#45;&gt;Node29</title>
<path fill="none" stroke="midnightblue" d="M1205.94,-231.72C1363.34,-227.975 1811.92,-215.524 2184,-188 2187.14,-187.767 2190.35,-187.512 2193.59,-187.24"/>
<polygon fill="midnightblue" stroke="midnightblue" points="1205.48,-228.23 1195.56,-231.964 1205.64,-235.228 1205.48,-228.23"/>
</g>
<!-- Node30 -->
<g id="node72" class="node"><title>Node30</title>
<a xlink:href="Window_8hh.html" target="_top" xlink:title="src/GManager/Window.hh">
<polygon fill="white" stroke="black" points="2364,-168.5 2364,-187.5 2494,-187.5 2494,-168.5 2364,-168.5"/>
<text text-anchor="middle" x="2429" y="-175.5" font-family="Helvetica,sans-Serif" font-size="10.00">src/GManager/Window.hh</text>
</a>
</g>
<!-- Node1&#45;&gt;Node30 -->
<g id="edge84" class="edge"><title>Node1&#45;&gt;Node30</title>
<path fill="none" stroke="midnightblue" d="M1205.73,-232.562C1379.66,-230.873 1913.8,-222.993 2355,-188 2357.84,-187.775 2360.74,-187.522 2363.66,-187.248"/>
<polygon fill="midnightblue" stroke="midnightblue" points="1205.49,-229.064 1195.53,-232.658 1205.56,-236.063 1205.49,-229.064"/>
</g>
<!-- Node3 -->
<g id="node5" class="node"><title>Node3</title>
<a xlink:href="Browser_8hh.html" target="_top" xlink:title="src/Avahi/Browser.hh">
<polygon fill="white" stroke="black" points="432,-112.5 432,-131.5 542,-131.5 542,-112.5 432,-112.5"/>
<text text-anchor="middle" x="487" y="-119.5" font-family="Helvetica,sans-Serif" font-size="10.00">src/Avahi/Browser.hh</text>
</a>
</g>
<!-- Node2&#45;&gt;Node3 -->
<g id="edge4" class="edge"><title>Node2&#45;&gt;Node3</title>
<path fill="none" stroke="midnightblue" d="M489.6,-158.101C488.936,-149.136 488.175,-138.858 487.648,-131.751"/>
<polygon fill="midnightblue" stroke="midnightblue" points="486.11,-158.369 490.339,-168.083 493.091,-157.852 486.11,-158.369"/>
</g>
<!-- Node4 -->
<g id="node7" class="node"><title>Node4</title>
<a xlink:href="SettingsNetwork_8hh.html" target="_top" xlink:title="src/Browser/Settings/SettingsNetwork.hh">
<polygon fill="white" stroke="black" points="296.5,-56.5 296.5,-75.5 493.5,-75.5 493.5,-56.5 296.5,-56.5"/>
<text text-anchor="middle" x="395" y="-63.5" font-family="Helvetica,sans-Serif" font-size="10.00">src/Browser/Settings/SettingsNetwork.hh</text>
</a>
</g>
<!-- Node3&#45;&gt;Node4 -->
<g id="edge6" class="edge"><title>Node3&#45;&gt;Node4</title>
<path fill="none" stroke="midnightblue" d="M463.45,-107.177C446.521,-97.2407 424.217,-84.1492 409.745,-75.6545"/>
<polygon fill="midnightblue" stroke="midnightblue" points="461.823,-110.28 472.219,-112.324 465.366,-104.243 461.823,-110.28"/>
</g>
<!-- Node4&#45;&gt;Node5 -->
<g id="edge8" class="edge"><title>Node4&#45;&gt;Node5</title>
<path fill="none" stroke="midnightblue" d="M424.391,-52.503C448.2,-42.3795 481.106,-28.388 501.971,-19.5164"/>
<polygon fill="midnightblue" stroke="midnightblue" points="422.957,-49.3096 415.124,-56.4435 425.696,-55.7515 422.957,-49.3096"/>
</g>
<!-- Node6&#45;&gt;Node5 -->
<g id="edge22" class="edge"><title>Node6&#45;&gt;Node5</title>
<path fill="none" stroke="midnightblue" d="M938.973,-101.969C936.314,-87.0251 930.172,-66.9686 916,-56 868.633,-19.3388 703.637,-11.7251 602.797,-10.6089"/>
<polygon fill="midnightblue" stroke="midnightblue" points="935.548,-102.749 940.404,-112.165 942.48,-101.776 935.548,-102.749"/>
</g>
<!-- Node7 -->
<g id="node13" class="node"><title>Node7</title>
<a xlink:href="Database_8hh.html" target="_top" xlink:title="src/Browser/Database/Database.hh">
<polygon fill="white" stroke="black" points="1176.5,-56.5 1176.5,-75.5 1349.5,-75.5 1349.5,-56.5 1176.5,-56.5"/>
<text text-anchor="middle" x="1263" y="-63.5" font-family="Helvetica,sans-Serif" font-size="10.00">src/Browser/Database/Database.hh</text>
</a>
</g>
<!-- Node6&#45;&gt;Node7 -->
<g id="edge12" class="edge"><title>Node6&#45;&gt;Node7</title>
<path fill="none" stroke="midnightblue" d="M1002.25,-110.727C1063.1,-100.523 1155.32,-85.0583 1212.22,-75.5164"/>
<polygon fill="midnightblue" stroke="midnightblue" points="1001.31,-107.338 992.022,-112.444 1002.46,-114.241 1001.31,-107.338"/>
</g>
<!-- Node8 -->
<g id="node15" class="node"><title>Node8</title>
<a xlink:href="Fortuna_8hh.html" target="_top" xlink:title="src/Browser/Fortuna/Fortuna.hh">
<polygon fill="white" stroke="black" points="752.5,-56.5 752.5,-75.5 907.5,-75.5 907.5,-56.5 752.5,-56.5"/>
<text text-anchor="middle" x="830" y="-63.5" font-family="Helvetica,sans-Serif" font-size="10.00">src/Browser/Fortuna/Fortuna.hh</text>
</a>
</g>
<!-- Node6&#45;&gt;Node8 -->
<g id="edge14" class="edge"><title>Node6&#45;&gt;Node8</title>
<path fill="none" stroke="midnightblue" d="M913.995,-107.862C893.412,-97.8492 865.655,-84.3458 847.79,-75.6545"/>
<polygon fill="midnightblue" stroke="midnightblue" points="912.642,-111.097 923.166,-112.324 915.705,-104.802 912.642,-111.097"/>
</g>
<!-- Node9 -->
<g id="node17" class="node"><title>Node9</title>
<a xlink:href="NowPlaying_8hh.html" target="_top" xlink:title="src/Browser/NowPlaying/NowPlaying.hh">
<polygon fill="white" stroke="black" points="964,-56.5 964,-75.5 1158,-75.5 1158,-56.5 964,-56.5"/>
<text text-anchor="middle" x="1061" y="-63.5" font-family="Helvetica,sans-Serif" font-size="10.00">src/Browser/NowPlaying/NowPlaying.hh</text>
</a>
</g>
<!-- Node6&#45;&gt;Node9 -->
<g id="edge16" class="edge"><title>Node6&#45;&gt;Node9</title>
<path fill="none" stroke="midnightblue" d="M969.373,-108.232C991.82,-98.1312 1022.54,-84.3091 1042.07,-75.5164"/>
<polygon fill="midnightblue" stroke="midnightblue" points="967.697,-105.148 960.014,-112.444 970.57,-111.532 967.697,-105.148"/>
</g>
<!-- Node10 -->
<g id="node19" class="node"><title>Node10</title>
<a xlink:href="PlaylistManager_8hh.html" target="_top" xlink:title="src/Browser/PlaylistManager/PlaylistManager.hh">
<polygon fill="white" stroke="black" points="1368,-56.5 1368,-75.5 1596,-75.5 1596,-56.5 1368,-56.5"/>
<text text-anchor="middle" x="1482" y="-63.5" font-family="Helvetica,sans-Serif" font-size="10.00">src/Browser/PlaylistManager/PlaylistManager.hh</text>
</a>
</g>
<!-- Node6&#45;&gt;Node10 -->
<g id="edge18" class="edge"><title>Node6&#45;&gt;Node10</title>
<path fill="none" stroke="midnightblue" d="M1030.49,-112.067C1132.16,-101.92 1296.86,-85.4797 1396.74,-75.5106"/>
<polygon fill="midnightblue" stroke="midnightblue" points="1029.85,-108.614 1020.25,-113.09 1030.54,-115.579 1029.85,-108.614"/>
</g>
<!-- Node11 -->
<g id="node21" class="node"><title>Node11</title>
<a xlink:href="Queue_8hh.html" target="_top" xlink:title="src/Browser/Queue/Queue.hh">
<polygon fill="white" stroke="black" points="1614,-56.5 1614,-75.5 1760,-75.5 1760,-56.5 1614,-56.5"/>
<text text-anchor="middle" x="1687" y="-63.5" font-family="Helvetica,sans-Serif" font-size="10.00">src/Browser/Queue/Queue.hh</text>
</a>
</g>
<!-- Node6&#45;&gt;Node11 -->
<g id="edge20" class="edge"><title>Node6&#45;&gt;Node11</title>
<path fill="none" stroke="midnightblue" d="M1030.1,-114.528C1042.16,-113.668 1054.38,-112.806 1066,-112 1305.51,-95.379 1365.84,-97.1018 1605,-76 1607.85,-75.7483 1610.76,-75.4809 1613.7,-75.2019"/>
<polygon fill="midnightblue" stroke="midnightblue" points="1029.74,-111.045 1020.01,-115.249 1030.24,-118.027 1029.74,-111.045"/>
</g>
<!-- Node6&#45;&gt;Node12 -->
<g id="edge24" class="edge"><title>Node6&#45;&gt;Node12</title>
<path fill="none" stroke="midnightblue" d="M883.77,-110.664C827.265,-100.459 741.88,-85.0386 689.156,-75.5164"/>
<polygon fill="midnightblue" stroke="midnightblue" points="883.16,-114.11 893.623,-112.444 884.404,-107.222 883.16,-114.11"/>
</g>
<!-- Node13&#45;&gt;Node6 -->
<g id="edge28" class="edge"><title>Node13&#45;&gt;Node6</title>
<path fill="none" stroke="midnightblue" d="M941,-157.805C941,-148.91 941,-138.78 941,-131.751"/>
<polygon fill="midnightblue" stroke="midnightblue" points="937.5,-158.083 941,-168.083 944.5,-158.083 937.5,-158.083"/>
</g>
<!-- Node15 -->
<g id="node31" class="node"><title>Node15</title>
<a xlink:href="DatabasePopup_8hh.html" target="_top" xlink:title="src/Browser/Database/DatabasePopup.hh">
<polygon fill="white" stroke="black" points="1075,-112.5 1075,-131.5 1275,-131.5 1275,-112.5 1075,-112.5"/>
<text text-anchor="middle" x="1175" y="-119.5" font-family="Helvetica,sans-Serif" font-size="10.00">src/Browser/Database/DatabasePopup.hh</text>
</a>
</g>
<!-- Node14&#45;&gt;Node15 -->
<g id="edge32" class="edge"><title>Node14&#45;&gt;Node15</title>
<path fill="none" stroke="midnightblue" d="M1120.31,-162.38C1133.86,-152.62 1151.24,-140.106 1162.73,-131.834"/>
<polygon fill="midnightblue" stroke="midnightblue" points="1118.12,-159.641 1112.05,-168.324 1122.21,-165.321 1118.12,-159.641"/>
</g>
<!-- Node16 -->
<g id="node34" class="node"><title>Node16</title>
<a xlink:href="PlaylistManagerPopup_8hh.html" target="_top" xlink:title="src/Browser/PlaylistManager/PlaylistManagerPopup.hh">
<polygon fill="white" stroke="black" points="1312,-112.5 1312,-131.5 1568,-131.5 1568,-112.5 1312,-112.5"/>
<text text-anchor="middle" x="1440" y="-119.5" font-family="Helvetica,sans-Serif" font-size="10.00">src/Browser/PlaylistManager/PlaylistManagerPopup.hh</text>
</a>
</g>
<!-- Node14&#45;&gt;Node16 -->
<g id="edge36" class="edge"><title>Node14&#45;&gt;Node16</title>
<path fill="none" stroke="midnightblue" d="M1163.88,-166.854C1228.12,-156.651 1326.05,-141.098 1386.38,-131.516"/>
<polygon fill="midnightblue" stroke="midnightblue" points="1163.2,-163.418 1153.87,-168.444 1164.3,-170.332 1163.2,-163.418"/>
</g>
<!-- Node17 -->
<g id="node37" class="node"><title>Node17</title>
<a xlink:href="QueuePopup_8hh.html" target="_top" xlink:title="src/Browser/Queue/QueuePopup.hh">
<polygon fill="white" stroke="black" points="1595.5,-112.5 1595.5,-131.5 1768.5,-131.5 1768.5,-112.5 1595.5,-112.5"/>
<text text-anchor="middle" x="1682" y="-119.5" font-family="Helvetica,sans-Serif" font-size="10.00">src/Browser/Queue/QueuePopup.hh</text>
</a>
</g>
<!-- Node14&#45;&gt;Node17 -->
<g id="edge40" class="edge"><title>Node14&#45;&gt;Node17</title>
<path fill="none" stroke="midnightblue" d="M1178.12,-168.39C1179.42,-168.258 1180.72,-168.128 1182,-168 1259.78,-160.232 1474.04,-141.257 1595.34,-130.593"/>
<polygon fill="midnightblue" stroke="midnightblue" points="1177.59,-164.926 1168,-169.433 1178.31,-171.889 1177.59,-164.926"/>
</g>
<!-- Node14&#45;&gt;Node18 -->
<g id="edge44" class="edge"><title>Node14&#45;&gt;Node18</title>
<path fill="none" stroke="midnightblue" d="M1178.66,-168.29C1179.78,-168.191 1180.89,-168.094 1182,-168 1445.97,-145.541 1512.93,-153.332 1777,-132 1784.43,-131.4 1792.2,-130.708 1799.93,-129.981"/>
<polygon fill="midnightblue" stroke="midnightblue" points="1178.07,-164.829 1168.43,-169.236 1178.71,-171.8 1178.07,-164.829"/>
</g>
<!-- Node15&#45;&gt;Node7 -->
<g id="edge34" class="edge"><title>Node15&#45;&gt;Node7</title>
<path fill="none" stroke="midnightblue" d="M1197.98,-106.901C1214.11,-96.9986 1235.18,-84.0705 1248.9,-75.6545"/>
<polygon fill="midnightblue" stroke="midnightblue" points="1195.83,-104.111 1189.14,-112.324 1199.49,-110.077 1195.83,-104.111"/>
</g>
<!-- Node16&#45;&gt;Node10 -->
<g id="edge38" class="edge"><title>Node16&#45;&gt;Node10</title>
<path fill="none" stroke="midnightblue" d="M1453.11,-104.144C1460.43,-94.7357 1469.24,-83.4046 1475.19,-75.7511"/>
<polygon fill="midnightblue" stroke="midnightblue" points="1450.31,-102.041 1446.94,-112.083 1455.84,-106.338 1450.31,-102.041"/>
</g>
<!-- Node17&#45;&gt;Node11 -->
<g id="edge42" class="edge"><title>Node17&#45;&gt;Node11</title>
<path fill="none" stroke="midnightblue" d="M1683.75,-102.101C1684.58,-93.1357 1685.53,-82.8579 1686.19,-75.7511"/>
<polygon fill="midnightblue" stroke="midnightblue" points="1680.26,-101.803 1682.83,-112.083 1687.23,-102.448 1680.26,-101.803"/>
</g>
<!-- Node18&#45;&gt;Node5 -->
<g id="edge50" class="edge"><title>Node18&#45;&gt;Node5</title>
<path fill="none" stroke="midnightblue" d="M1918.75,-109.934C1959.14,-99.2189 2004.17,-80.9324 1980,-56 1955.86,-31.1002 904.823,-15.8569 602.536,-11.9822"/>
<polygon fill="midnightblue" stroke="midnightblue" points="1917.73,-106.582 1908.89,-112.43 1919.45,-113.368 1917.73,-106.582"/>
</g>
<!-- Node19 -->
<g id="node42" class="node"><title>Node19</title>
<a xlink:href="SettingsGeneral_8hh.html" target="_top" xlink:title="src/Browser/Settings/SettingsGeneral.hh">
<polygon fill="white" stroke="black" points="1778,-56.5 1778,-75.5 1972,-75.5 1972,-56.5 1778,-56.5"/>
<text text-anchor="middle" x="1875" y="-63.5" font-family="Helvetica,sans-Serif" font-size="10.00">src/Browser/Settings/SettingsGeneral.hh</text>
</a>
</g>
<!-- Node18&#45;&gt;Node19 -->
<g id="edge46" class="edge"><title>Node18&#45;&gt;Node19</title>
<path fill="none" stroke="midnightblue" d="M1869.15,-102.101C1870.64,-93.1357 1872.36,-82.8579 1873.54,-75.7511"/>
<polygon fill="midnightblue" stroke="midnightblue" points="1865.68,-101.644 1867.49,-112.083 1872.58,-102.794 1865.68,-101.644"/>
</g>
<!-- Node19&#45;&gt;Node5 -->
<g id="edge48" class="edge"><title>Node19&#45;&gt;Node5</title>
<path fill="none" stroke="midnightblue" d="M1767.77,-55.9571C1321.25,-29.2186 799.679,-16.6366 602.669,-12.5522"/>
<polygon fill="midnightblue" stroke="midnightblue" points="1767.78,-59.4639 1777.97,-56.5713 1768.2,-52.4766 1767.78,-59.4639"/>
</g>
<!-- Node20&#45;&gt;Node21 -->
<g id="edge54" class="edge"><title>Node20&#45;&gt;Node21</title>
<path fill="none" stroke="midnightblue" d="M111.54,-158.69C107.833,-149.589 103.524,-139.014 100.565,-131.751"/>
<polygon fill="midnightblue" stroke="midnightblue" points="108.353,-160.143 115.367,-168.083 114.835,-157.502 108.353,-160.143"/>
</g>
<!-- Node21&#45;&gt;Node5 -->
<g id="edge56" class="edge"><title>Node21&#45;&gt;Node5</title>
<path fill="none" stroke="midnightblue" d="M126.738,-108.716C162.395,-94.3779 224.215,-70.754 279,-56 340.107,-39.5433 411.468,-27.1115 460.98,-19.5298"/>
<polygon fill="midnightblue" stroke="midnightblue" points="125.356,-105.499 117.402,-112.499 127.985,-111.987 125.356,-105.499"/>
</g>
<!-- Node22&#45;&gt;Node5 -->
<g id="edge62" class="edge"><title>Node22&#45;&gt;Node5</title>
<path fill="none" stroke="midnightblue" d="M297.503,-104.225C286.412,-90.1431 275.328,-70.1187 287,-56 306.487,-32.428 381.306,-21.0847 441.356,-15.7012"/>
<polygon fill="midnightblue" stroke="midnightblue" points="295.065,-106.762 304.206,-112.12 300.401,-102.232 295.065,-106.762"/>
</g>
</g>
</svg>
