<?xml version="1.0" encoding="UTF-8" standalone="no"?>
<!DOCTYPE svg PUBLIC "-//W3C//DTD SVG 1.1//EN"
 "http://www.w3.org/Graphics/SVG/1.1/DTD/svg11.dtd">
<!-- Generated by graphviz version 2.28.0 (20120217.0315)
 -->
<!-- Title: G Pages: 1 -->
<svg width="1714pt" height="140pt"
 viewBox="0.00 0.00 1714.00 140.00" xmlns="http://www.w3.org/2000/svg" xmlns:xlink="http://www.w3.org/1999/xlink">
<g id="graph1" class="graph" transform="scale(1 1) rotate(0) translate(4 136)">
<title>G</title>
<polygon fill="white" stroke="white" points="-4,5 -4,-136 1711,-136 1711,5 -4,5"/>
<!-- Node1 -->
<g id="node1" class="node"><title>Node1</title>
<polygon fill="#bfbfbf" stroke="black" points="745.5,-112.5 745.5,-131.5 882.5,-131.5 882.5,-112.5 745.5,-112.5"/>
<text text-anchor="middle" x="814" y="-119.5" font-family="Helvetica,sans-Serif" font-size="10.00">src/Glyr/UpdateInterface.hh</text>
</g>
<!-- Node2 -->
<g id="node3" class="node"><title>Node2</title>
<a xlink:href="ArtistPhotosMgr_8hh.html" target="_top" xlink:title="src/Browser/NowPlaying/ArtistPhotosMgr.hh">
<polygon fill="white" stroke="black" points="0,-56.5 0,-75.5 212,-75.5 212,-56.5 0,-56.5"/>
<text text-anchor="middle" x="106" y="-63.5" font-family="Helvetica,sans-Serif" font-size="10.00">src/Browser/NowPlaying/ArtistPhotosMgr.hh</text>
</a>
</g>
<!-- Node1&#45;&gt;Node2 -->
<g id="edge2" class="edge"><title>Node1&#45;&gt;Node2</title>
<path fill="none" stroke="midnightblue" d="M735.387,-115.004C607.842,-105.276 355.678,-86.0432 212.271,-75.1055"/>
<polygon fill="midnightblue" stroke="midnightblue" points="735.233,-118.502 745.471,-115.773 735.766,-111.523 735.233,-118.502"/>
</g>
<!-- Node3 -->
<g id="node5" class="node"><title>Node3</title>
<a xlink:href="NowPlaying_8hh.html" target="_top" xlink:title="src/Browser/NowPlaying/NowPlaying.hh">
<polygon fill="white" stroke="black" points="494,-0.5 494,-19.5 688,-19.5 688,-0.5 494,-0.5"/>
<text text-anchor="middle" x="591" y="-7.5" font-family="Helvetica,sans-Serif" font-size="10.00">src/Browser/NowPlaying/NowPlaying.hh</text>
</a>
</g>
<!-- Node1&#45;&gt;Node3 -->
<g id="edge26" class="edge"><title>Node1&#45;&gt;Node3</title>
<path fill="none" stroke="midnightblue" d="M735.161,-120.391C589.612,-118.442 290.6,-110.266 259,-76 252.974,-69.4656 253.152,-62.6942 259,-56 289.04,-21.6133 407.104,-12.4789 493.926,-10.5566"/>
<polygon fill="midnightblue" stroke="midnightblue" points="735.326,-123.894 745.369,-120.521 735.415,-116.894 735.326,-123.894"/>
</g>
<!-- Node4 -->
<g id="node7" class="node"><title>Node4</title>
<a xlink:href="CoverArtMgr_8hh.html" target="_top" xlink:title="src/Browser/NowPlaying/CoverArtMgr.hh">
<polygon fill="white" stroke="black" points="268.5,-56.5 268.5,-75.5 465.5,-75.5 465.5,-56.5 268.5,-56.5"/>
<text text-anchor="middle" x="367" y="-63.5" font-family="Helvetica,sans-Serif" font-size="10.00">src/Browser/NowPlaying/CoverArtMgr.hh</text>
</a>
</g>
<!-- Node1&#45;&gt;Node4 -->
<g id="edge6" class="edge"><title>Node1&#45;&gt;Node4</title>
<path fill="none" stroke="midnightblue" d="M735.098,-111.468C650.773,-101.281 518.332,-85.2818 437.418,-75.5069"/>
<polygon fill="midnightblue" stroke="midnightblue" points="734.788,-114.956 745.136,-112.681 735.628,-108.007 734.788,-114.956"/>
</g>
<!-- Node5 -->
<g id="node10" class="node"><title>Node5</title>
<a xlink:href="OtherAlbumsMgr_8hh.html" target="_top" xlink:title="src/Browser/NowPlaying/OtherAlbumsMgr.hh">
<polygon fill="white" stroke="black" points="483.5,-56.5 483.5,-75.5 698.5,-75.5 698.5,-56.5 483.5,-56.5"/>
<text text-anchor="middle" x="591" y="-63.5" font-family="Helvetica,sans-Serif" font-size="10.00">src/Browser/NowPlaying/OtherAlbumsMgr.hh</text>
</a>
</g>
<!-- Node1&#45;&gt;Node5 -->
<g id="edge10" class="edge"><title>Node1&#45;&gt;Node5</title>
<path fill="none" stroke="midnightblue" d="M768.939,-110.088C726.809,-99.8865 664.76,-84.8612 626.17,-75.5164"/>
<polygon fill="midnightblue" stroke="midnightblue" points="768.122,-113.492 778.665,-112.444 769.77,-106.688 768.122,-113.492"/>
</g>
<!-- Node6 -->
<g id="node13" class="node"><title>Node6</title>
<a xlink:href="TracklistMgr_8hh.html" target="_top" xlink:title="src/Browser/NowPlaying/TracklistMgr.hh">
<polygon fill="white" stroke="black" points="716.5,-56.5 716.5,-75.5 911.5,-75.5 911.5,-56.5 716.5,-56.5"/>
<text text-anchor="middle" x="814" y="-63.5" font-family="Helvetica,sans-Serif" font-size="10.00">src/Browser/NowPlaying/TracklistMgr.hh</text>
</a>
</g>
<!-- Node1&#45;&gt;Node6 -->
<g id="edge14" class="edge"><title>Node1&#45;&gt;Node6</title>
<path fill="none" stroke="midnightblue" d="M814,-101.805C814,-92.9102 814,-82.7798 814,-75.7511"/>
<polygon fill="midnightblue" stroke="midnightblue" points="810.5,-102.083 814,-112.083 817.5,-102.083 810.5,-102.083"/>
</g>
<!-- Node7 -->
<g id="node16" class="node"><title>Node7</title>
<a xlink:href="TextItemsMgr_8hh.html" target="_top" xlink:title="src/Browser/NowPlaying/TextItemsMgr.hh">
<polygon fill="white" stroke="black" points="930,-56.5 930,-75.5 1132,-75.5 1132,-56.5 930,-56.5"/>
<text text-anchor="middle" x="1031" y="-63.5" font-family="Helvetica,sans-Serif" font-size="10.00">src/Browser/NowPlaying/TextItemsMgr.hh</text>
</a>
</g>
<!-- Node1&#45;&gt;Node7 -->
<g id="edge18" class="edge"><title>Node1&#45;&gt;Node7</title>
<path fill="none" stroke="midnightblue" d="M858.108,-110.024C899.1,-99.8232 959.304,-84.8414 996.777,-75.5164"/>
<polygon fill="midnightblue" stroke="midnightblue" points="857.243,-106.632 848.384,-112.444 858.934,-113.425 857.243,-106.632"/>
</g>
<!-- Node8 -->
<g id="node19" class="node"><title>Node8</title>
<a xlink:href="RelatedLinksMgr_8hh.html" target="_top" xlink:title="src/Browser/NowPlaying/RelatedLinksMgr.hh">
<polygon fill="white" stroke="black" points="1150.5,-56.5 1150.5,-75.5 1365.5,-75.5 1365.5,-56.5 1150.5,-56.5"/>
<text text-anchor="middle" x="1258" y="-63.5" font-family="Helvetica,sans-Serif" font-size="10.00">src/Browser/NowPlaying/RelatedLinksMgr.hh</text>
</a>
</g>
<!-- Node1&#45;&gt;Node8 -->
<g id="edge22" class="edge"><title>Node1&#45;&gt;Node8</title>
<path fill="none" stroke="midnightblue" d="M892.855,-111.41C976.564,-101.229 1107.61,-85.2901 1187.85,-75.5317"/>
<polygon fill="midnightblue" stroke="midnightblue" points="892.392,-107.94 882.888,-112.622 893.237,-114.889 892.392,-107.94"/>
</g>
<!-- Node9 -->
<g id="node23" class="node"><title>Node9</title>
<a xlink:href="TextPageMgr_8hh.html" target="_top" xlink:title="src/Browser/NowPlaying/TextPageMgr.hh">
<polygon fill="white" stroke="black" points="1384,-56.5 1384,-75.5 1584,-75.5 1584,-56.5 1384,-56.5"/>
<text text-anchor="middle" x="1484" y="-63.5" font-family="Helvetica,sans-Serif" font-size="10.00">src/Browser/NowPlaying/TextPageMgr.hh</text>
</a>
</g>
<!-- Node1&#45;&gt;Node9 -->
<g id="edge28" class="edge"><title>Node1&#45;&gt;Node9</title>
<path fill="none" stroke="midnightblue" d="M892.731,-114.71C1001.11,-106.042 1202.36,-89.9179 1374,-76 1377.25,-75.7367 1380.55,-75.4687 1383.88,-75.1978"/>
<polygon fill="midnightblue" stroke="midnightblue" points="892.226,-111.239 882.537,-115.525 892.784,-118.216 892.226,-111.239"/>
</g>
<!-- Node10 -->
<g id="node25" class="node"><title>Node10</title>
<a xlink:href="Request_8hh.html" target="_top" xlink:title="src/Glyr/Request.hh">
<polygon fill="white" stroke="black" points="1602,-56.5 1602,-75.5 1706,-75.5 1706,-56.5 1602,-56.5"/>
<text text-anchor="middle" x="1654" y="-63.5" font-family="Helvetica,sans-Serif" font-size="10.00">src/Glyr/Request.hh</text>
</a>
</g>
<!-- Node1&#45;&gt;Node10 -->
<g id="edge30" class="edge"><title>Node1&#45;&gt;Node10</title>
<path fill="none" stroke="midnightblue" d="M892.945,-118.756C1033.84,-114.236 1337.78,-102.147 1593,-76 1595.88,-75.7054 1598.82,-75.3729 1601.79,-75.0136"/>
<polygon fill="midnightblue" stroke="midnightblue" points="892.561,-115.266 882.677,-119.081 892.783,-122.263 892.561,-115.266"/>
</g>
<!-- Node2&#45;&gt;Node3 -->
<g id="edge4" class="edge"><title>Node2&#45;&gt;Node3</title>
<path fill="none" stroke="midnightblue" d="M192.648,-55.3526C284.125,-45.1675 426.943,-29.2662 514.42,-19.5264"/>
<polygon fill="midnightblue" stroke="midnightblue" points="192.133,-51.8882 182.582,-56.4733 192.908,-58.8452 192.133,-51.8882"/>
</g>
<!-- Node4&#45;&gt;Node3 -->
<g id="edge8" class="edge"><title>Node4&#45;&gt;Node3</title>
<path fill="none" stroke="midnightblue" d="M412.263,-54.0884C454.582,-43.8865 516.909,-28.8612 555.673,-19.5164"/>
<polygon fill="midnightblue" stroke="midnightblue" points="411.395,-50.6974 402.493,-56.4435 413.035,-57.5024 411.395,-50.6974"/>
</g>
<!-- Node5&#45;&gt;Node3 -->
<g id="edge12" class="edge"><title>Node5&#45;&gt;Node3</title>
<path fill="none" stroke="midnightblue" d="M591,-45.8045C591,-36.9102 591,-26.7798 591,-19.7511"/>
<polygon fill="midnightblue" stroke="midnightblue" points="587.5,-46.083 591,-56.083 594.5,-46.083 587.5,-46.083"/>
</g>
<!-- Node6&#45;&gt;Node3 -->
<g id="edge16" class="edge"><title>Node6&#45;&gt;Node3</title>
<path fill="none" stroke="midnightblue" d="M768.939,-54.0884C726.809,-43.8865 664.76,-28.8612 626.17,-19.5164"/>
<polygon fill="midnightblue" stroke="midnightblue" points="768.122,-57.4916 778.665,-56.4435 769.77,-50.6883 768.122,-57.4916"/>
</g>
<!-- Node7&#45;&gt;Node3 -->
<g id="edge20" class="edge"><title>Node7&#45;&gt;Node3</title>
<path fill="none" stroke="midnightblue" d="M951.132,-55.198C868.067,-45.0037 739.347,-29.2062 660.393,-19.5164"/>
<polygon fill="midnightblue" stroke="midnightblue" points="950.929,-58.6993 961.281,-56.4435 951.782,-51.7514 950.929,-58.6993"/>
</g>
<!-- Node8&#45;&gt;Node3 -->
<g id="edge24" class="edge"><title>Node8&#45;&gt;Node3</title>
<path fill="none" stroke="midnightblue" d="M1142.41,-55.6422C1013.93,-45.2405 808.706,-28.6254 688.179,-18.8676"/>
<polygon fill="midnightblue" stroke="midnightblue" points="1142.43,-59.1549 1152.68,-56.4733 1143,-52.1777 1142.43,-59.1549"/>
</g>
</g>
</svg>
