<?xml version="1.0" encoding="UTF-8" standalone="no"?>
<!DOCTYPE svg PUBLIC "-//W3C//DTD SVG 1.1//EN"
 "http://www.w3.org/Graphics/SVG/1.1/DTD/svg11.dtd">
<!-- Generated by graphviz version 2.28.0 (20120217.0315)
 -->
<!-- Title: G Pages: 1 -->
<svg width="368pt" height="140pt"
 viewBox="0.00 0.00 368.02 140.00" xmlns="http://www.w3.org/2000/svg" xmlns:xlink="http://www.w3.org/1999/xlink">
<g id="graph1" class="graph" transform="scale(1 1) rotate(0) translate(4 136)">
<title>G</title>
<polygon fill="white" stroke="white" points="-4,5 -4,-136 365.025,-136 365.025,5 -4,5"/>
<!-- Node1 -->
<g id="node1" class="node"><title>Node1</title>
<polygon fill="#bfbfbf" stroke="black" points="63.0249,-112.5 63.0249,-131.5 153.025,-131.5 153.025,-112.5 63.0249,-112.5"/>
<text text-anchor="middle" x="108.025" y="-119.5" font-family="Helvetica,sans-Serif" font-size="10.00">src/Utils/Utils.hh</text>
</g>
<!-- Node2 -->
<g id="node3" class="node"><title>Node2</title>
<polygon fill="white" stroke="#bfbfbf" points="12.5249,-0.5 12.5249,-19.5 101.525,-19.5 101.525,-0.5 12.5249,-0.5"/>
<text text-anchor="middle" x="57.0249" y="-7.5" font-family="Helvetica,sans-Serif" font-size="10.00">glibmm/ustring.h</text>
</g>
<!-- Node1&#45;&gt;Node2 -->
<g id="edge2" class="edge"><title>Node1&#45;&gt;Node2</title>
<path fill="none" stroke="midnightblue" d="M62.9351,-113.332C41.2414,-107.129 17.1486,-95.9781 4.02485,-76 -8.24582,-57.3205 13.2512,-37.6735 32.4344,-24.9344"/>
<polygon fill="midnightblue" stroke="midnightblue" points="34.3398,-27.8708 40.9558,-19.5956 30.6233,-21.9389 34.3398,-27.8708"/>
</g>
<!-- Node3 -->
<g id="node5" class="node"><title>Node3</title>
<polygon fill="white" stroke="#bfbfbf" points="13.0249,-56.5 13.0249,-75.5 99.0249,-75.5 99.0249,-56.5 13.0249,-56.5"/>
<text text-anchor="middle" x="56.0249" y="-63.5" font-family="Helvetica,sans-Serif" font-size="10.00">gtkmm/builder.h</text>
</g>
<!-- Node1&#45;&gt;Node3 -->
<g id="edge4" class="edge"><title>Node1&#45;&gt;Node3</title>
<path fill="none" stroke="midnightblue" d="M99.4381,-112.083C91.8659,-104.22 80.6467,-92.5688 71.5105,-83.0813"/>
<polygon fill="midnightblue" stroke="midnightblue" points="73.9094,-80.5266 64.4518,-75.7511 68.8671,-85.3821 73.9094,-80.5266"/>
</g>
<!-- Node4 -->
<g id="node7" class="node"><title>Node4</title>
<polygon fill="white" stroke="#bfbfbf" points="117.025,-56.5 117.025,-75.5 203.025,-75.5 203.025,-56.5 117.025,-56.5"/>
<text text-anchor="middle" x="160.025" y="-63.5" font-family="Helvetica,sans-Serif" font-size="10.00">gdkmm/pixbuf.h</text>
</g>
<!-- Node1&#45;&gt;Node4 -->
<g id="edge6" class="edge"><title>Node1&#45;&gt;Node4</title>
<path fill="none" stroke="midnightblue" d="M116.612,-112.083C124.184,-104.22 135.403,-92.5688 144.539,-83.0813"/>
<polygon fill="midnightblue" stroke="midnightblue" points="147.183,-85.3821 151.598,-75.7511 142.14,-80.5266 147.183,-85.3821"/>
</g>
<!-- Node5 -->
<g id="node9" class="node"><title>Node5</title>
<a xlink:href="Writer_8hh.html" target="_top" xlink:title="../Log/Writer.hh">
<polygon fill="white" stroke="black" points="221.025,-56.5 221.025,-75.5 305.025,-75.5 305.025,-56.5 221.025,-56.5"/>
<text text-anchor="middle" x="263.025" y="-63.5" font-family="Helvetica,sans-Serif" font-size="10.00">../Log/Writer.hh</text>
</a>
</g>
<!-- Node1&#45;&gt;Node5 -->
<g id="edge8" class="edge"><title>Node1&#45;&gt;Node5</title>
<path fill="none" stroke="midnightblue" d="M132.585,-112.444C158.547,-103.399 199.693,-89.064 228.822,-78.9158"/>
<polygon fill="midnightblue" stroke="midnightblue" points="230.288,-82.1116 238.58,-75.5164 227.985,-75.5013 230.288,-82.1116"/>
</g>
<!-- Node5&#45;&gt;Node2 -->
<g id="edge12" class="edge"><title>Node5&#45;&gt;Node2</title>
<path fill="none" stroke="midnightblue" d="M230.384,-56.4435C194.975,-47.1616 138.316,-32.3093 99.4722,-22.127"/>
<polygon fill="midnightblue" stroke="midnightblue" points="100.074,-18.6666 89.5135,-19.5164 98.2991,-25.4378 100.074,-18.6666"/>
</g>
<!-- Node6 -->
<g id="node11" class="node"><title>Node6</title>
<polygon fill="white" stroke="#bfbfbf" points="193.025,-0.5 193.025,-19.5 239.025,-19.5 239.025,-0.5 193.025,-0.5"/>
<text text-anchor="middle" x="216.025" y="-7.5" font-family="Helvetica,sans-Serif" font-size="10.00">stdio.h</text>
</g>
<!-- Node5&#45;&gt;Node6 -->
<g id="edge10" class="edge"><title>Node5&#45;&gt;Node6</title>
<path fill="none" stroke="midnightblue" d="M255.264,-56.083C248.488,-48.2982 238.482,-36.8015 230.27,-27.3665"/>
<polygon fill="midnightblue" stroke="midnightblue" points="232.847,-24.9963 223.642,-19.7511 227.567,-29.592 232.847,-24.9963"/>
</g>
<!-- Node7 -->
<g id="node14" class="node"><title>Node7</title>
<a xlink:href="Singleton_8hh.html" target="_top" xlink:title="../Utils/Singleton.hh">
<polygon fill="white" stroke="black" points="257.525,-0.5 257.525,-19.5 360.525,-19.5 360.525,-0.5 257.525,-0.5"/>
<text text-anchor="middle" x="309.025" y="-7.5" font-family="Helvetica,sans-Serif" font-size="10.00">../Utils/Singleton.hh</text>
</a>
</g>
<!-- Node5&#45;&gt;Node7 -->
<g id="edge14" class="edge"><title>Node5&#45;&gt;Node7</title>
<path fill="none" stroke="midnightblue" d="M270.621,-56.083C277.252,-48.2982 287.046,-36.8015 295.083,-27.3665"/>
<polygon fill="midnightblue" stroke="midnightblue" points="297.75,-29.6332 301.57,-19.7511 292.421,-25.0939 297.75,-29.6332"/>
</g>
</g>
</svg>
