<?xml version="1.0" encoding="UTF-8" standalone="no"?>
<!DOCTYPE svg PUBLIC "-//W3C//DTD SVG 1.1//EN"
 "http://www.w3.org/Graphics/SVG/1.1/DTD/svg11.dtd">
<!-- Generated by graphviz version 2.28.0 (20111204.1018)
 -->
<!-- Title: G Pages: 1 -->
<svg width="542pt" height="140pt"
 viewBox="0.00 0.00 542.00 140.00" xmlns="http://www.w3.org/2000/svg" xmlns:xlink="http://www.w3.org/1999/xlink">
<g id="graph1" class="graph" transform="scale(1 1) rotate(0) translate(4 136)">
<title>G</title>
<polygon fill="white" stroke="white" points="-4,5 -4,-136 539,-136 539,5 -4,5"/>
<!-- Node1 -->
<g id="node1" class="node"><title>Node1</title>
<polygon fill="#bfbfbf" stroke="black" points="260,-112.5 260,-131.5 350,-131.5 350,-112.5 260,-112.5"/>
<text text-anchor="middle" x="305" y="-119.5" font-family="Helvetica,sans-Serif" font-size="10.00">src/Utils/Utils.hh</text>
</g>
<!-- Node2 -->
<g id="node3" class="node"><title>Node2</title>
<a xlink:href="SettingsOutputs_8hh.html" target="_top" xlink:title="src/Browser/Settings/SettingsOutputs.hh">
<polygon fill="white" stroke="black" points="-0.5,-56.5 -0.5,-75.5 194.5,-75.5 194.5,-56.5 -0.5,-56.5"/>
<text text-anchor="middle" x="97" y="-63.5" font-family="Helvetica,sans-Serif" font-size="10.00">src/Browser/Settings/SettingsOutputs.hh</text>
</a>
</g>
<!-- Node1&#45;&gt;Node2 -->
<g id="edge2" class="edge"><title>Node1&#45;&gt;Node2</title>
<path fill="none" stroke="midnightblue" d="M262.222,-109.894C222.942,-99.6966 165.571,-84.802 129.804,-75.5164"/>
<polygon fill="midnightblue" stroke="midnightblue" points="261.483,-113.318 272.042,-112.444 263.242,-106.543 261.483,-113.318"/>
</g>
<!-- Node4 -->
<g id="node7" class="node"><title>Node4</title>
<a xlink:href="StatBrowser_8hh.html" target="_top" xlink:title="src/Browser/Statistics/StatBrowser.hh">
<polygon fill="white" stroke="black" points="213,-56.5 213,-75.5 397,-75.5 397,-56.5 213,-56.5"/>
<text text-anchor="middle" x="305" y="-63.5" font-family="Helvetica,sans-Serif" font-size="10.00">src/Browser/Statistics/StatBrowser.hh</text>
</a>
</g>
<!-- Node1&#45;&gt;Node4 -->
<g id="edge6" class="edge"><title>Node1&#45;&gt;Node4</title>
<path fill="none" stroke="midnightblue" d="M305,-101.805C305,-92.9102 305,-82.7798 305,-75.7511"/>
<polygon fill="midnightblue" stroke="midnightblue" points="301.5,-102.083 305,-112.083 308.5,-102.083 301.5,-102.083"/>
</g>
<!-- Node5 -->
<g id="node9" class="node"><title>Node5</title>
<a xlink:href="check__utils_8hh.html" target="_top" xlink:title="src/Utils/check_utils.hh">
<polygon fill="white" stroke="black" points="415.5,-56.5 415.5,-75.5 534.5,-75.5 534.5,-56.5 415.5,-56.5"/>
<text text-anchor="middle" x="475" y="-63.5" font-family="Helvetica,sans-Serif" font-size="10.00">src/Utils/check_utils.hh</text>
</a>
</g>
<!-- Node1&#45;&gt;Node5 -->
<g id="edge8" class="edge"><title>Node1&#45;&gt;Node5</title>
<path fill="none" stroke="midnightblue" d="M341.819,-109.304C373.852,-99.1294 419.515,-84.6246 448.189,-75.5164"/>
<polygon fill="midnightblue" stroke="midnightblue" points="340.408,-106.08 331.937,-112.444 342.527,-112.752 340.408,-106.08"/>
</g>
<!-- Node3 -->
<g id="node5" class="node"><title>Node3</title>
<a xlink:href="Settings_8hh.html" target="_top" xlink:title="src/Browser/Settings/Settings.hh">
<polygon fill="white" stroke="black" points="16.5,-0.5 16.5,-19.5 177.5,-19.5 177.5,-0.5 16.5,-0.5"/>
<text text-anchor="middle" x="97" y="-7.5" font-family="Helvetica,sans-Serif" font-size="10.00">src/Browser/Settings/Settings.hh</text>
</a>
</g>
<!-- Node2&#45;&gt;Node3 -->
<g id="edge4" class="edge"><title>Node2&#45;&gt;Node3</title>
<path fill="none" stroke="midnightblue" d="M97,-45.8045C97,-36.9102 97,-26.7798 97,-19.7511"/>
<polygon fill="midnightblue" stroke="midnightblue" points="93.5001,-46.083 97,-56.083 100.5,-46.083 93.5001,-46.083"/>
</g>
</g>
</svg>
