<?xml version="1.0" encoding="UTF-8" standalone="no"?>
<!DOCTYPE svg PUBLIC "-//W3C//DTD SVG 1.1//EN"
 "http://www.w3.org/Graphics/SVG/1.1/DTD/svg11.dtd">
<!-- Generated by graphviz version 2.28.0 (20120217.0315)
 -->
<!-- Title: G Pages: 1 -->
<svg width="104pt" height="140pt"
 viewBox="0.00 0.00 104.00 140.00" xmlns="http://www.w3.org/2000/svg" xmlns:xlink="http://www.w3.org/1999/xlink">
<g id="graph1" class="graph" transform="scale(1 1) rotate(0) translate(4 136)">
<title>G</title>
<polygon fill="white" stroke="white" points="-4,5 -4,-136 101,-136 101,5 -4,5"/>
<!-- Node1 -->
<g id="node1" class="node"><title>Node1</title>
<polygon fill="#bfbfbf" stroke="black" points="0,-112.5 0,-131.5 96,-131.5 96,-112.5 0,-112.5"/>
<text text-anchor="middle" x="48" y="-119.5" font-family="Helvetica,sans-Serif" font-size="10.00">src/Avahi/View.hh</text>
</g>
<!-- Node2 -->
<g id="node3" class="node"><title>Node2</title>
<a xlink:href="ui__includes_8hh.html" target="_top" xlink:title="../ui_includes.hh">
<polygon fill="white" stroke="black" points="4,-56.5 4,-75.5 92,-75.5 92,-56.5 4,-56.5"/>
<text text-anchor="middle" x="48" y="-63.5" font-family="Helvetica,sans-Serif" font-size="10.00">../ui_includes.hh</text>
</a>
</g>
<!-- Node1&#45;&gt;Node2 -->
<g id="edge2" class="edge"><title>Node1&#45;&gt;Node2</title>
<path fill="none" stroke="midnightblue" d="M48,-112.083C48,-105.006 48,-94.8611 48,-85.9865"/>
<polygon fill="midnightblue" stroke="midnightblue" points="51.5001,-85.751 48,-75.7511 44.5001,-85.7511 51.5001,-85.751"/>
</g>
<!-- Node3 -->
<g id="node5" class="node"><title>Node3</title>
<polygon fill="white" stroke="#bfbfbf" points="20.5,-0.5 20.5,-19.5 75.5,-19.5 75.5,-0.5 20.5,-0.5"/>
<text text-anchor="middle" x="48" y="-7.5" font-family="Helvetica,sans-Serif" font-size="10.00">gtkmm.h</text>
</g>
<!-- Node2&#45;&gt;Node3 -->
<g id="edge4" class="edge"><title>Node2&#45;&gt;Node3</title>
<path fill="none" stroke="midnightblue" d="M48,-56.083C48,-49.0059 48,-38.8611 48,-29.9865"/>
<polygon fill="midnightblue" stroke="midnightblue" points="51.5001,-29.751 48,-19.7511 44.5001,-29.7511 51.5001,-29.751"/>
</g>
</g>
</svg>
