<?xml version="1.0" encoding="UTF-8" standalone="no"?>
<!DOCTYPE svg PUBLIC "-//W3C//DTD SVG 1.1//EN"
 "http://www.w3.org/Graphics/SVG/1.1/DTD/svg11.dtd">
<!-- Generated by graphviz version 2.28.0 (20111204.1018)
 -->
<!-- Title: G Pages: 1 -->
<svg width="626pt" height="196pt"
 viewBox="0.00 0.00 626.00 196.00" xmlns="http://www.w3.org/2000/svg" xmlns:xlink="http://www.w3.org/1999/xlink">
<g id="graph1" class="graph" transform="scale(1 1) rotate(0) translate(4 192)">
<title>G</title>
<polygon fill="white" stroke="white" points="-4,5 -4,-192 623,-192 623,5 -4,5"/>
<!-- Node1 -->
<g id="node1" class="node"><title>Node1</title>
<polygon fill="#bfbfbf" stroke="black" points="377,-168.5 377,-187.5 469,-187.5 469,-168.5 377,-168.5"/>
<text text-anchor="middle" x="423" y="-175.5" font-family="Helvetica,sans-Serif" font-size="10.00">src/Log/Writer.hh</text>
</g>
<!-- Node2 -->
<g id="node3" class="node"><title>Node2</title>
<a xlink:href="Utils_8hh.html" target="_top" xlink:title="src/Utils/Utils.hh">
<polygon fill="white" stroke="black" points="260,-112.5 260,-131.5 350,-131.5 350,-112.5 260,-112.5"/>
<text text-anchor="middle" x="305" y="-119.5" font-family="Helvetica,sans-Serif" font-size="10.00">src/Utils/Utils.hh</text>
</a>
</g>
<!-- Node1&#45;&gt;Node2 -->
<g id="edge2" class="edge"><title>Node1&#45;&gt;Node2</title>
<path fill="none" stroke="midnightblue" d="M395.1,-164.232C373.027,-154.131 342.824,-140.309 323.61,-131.516"/>
<polygon fill="midnightblue" stroke="midnightblue" points="393.753,-167.465 404.303,-168.444 396.666,-161.1 393.753,-167.465"/>
</g>
<!-- Node7 -->
<g id="node13" class="node"><title>Node7</title>
<a xlink:href="check__log_8hh.html" target="_top" xlink:title="src/Log/check_log.hh">
<polygon fill="white" stroke="black" points="368,-112.5 368,-131.5 478,-131.5 478,-112.5 368,-112.5"/>
<text text-anchor="middle" x="423" y="-119.5" font-family="Helvetica,sans-Serif" font-size="10.00">src/Log/check_log.hh</text>
</a>
</g>
<!-- Node1&#45;&gt;Node7 -->
<g id="edge12" class="edge"><title>Node1&#45;&gt;Node7</title>
<path fill="none" stroke="midnightblue" d="M423,-157.805C423,-148.91 423,-138.78 423,-131.751"/>
<polygon fill="midnightblue" stroke="midnightblue" points="419.5,-158.083 423,-168.083 426.5,-158.083 419.5,-158.083"/>
</g>
<!-- Node8 -->
<g id="node15" class="node"><title>Node8</title>
<a xlink:href="check__mpd_8hh.html" target="_top" xlink:title="src/MPD/check_mpd.hh">
<polygon fill="white" stroke="black" points="496,-112.5 496,-131.5 618,-131.5 618,-112.5 496,-112.5"/>
<text text-anchor="middle" x="557" y="-119.5" font-family="Helvetica,sans-Serif" font-size="10.00">src/MPD/check_mpd.hh</text>
</a>
</g>
<!-- Node1&#45;&gt;Node8 -->
<g id="edge14" class="edge"><title>Node1&#45;&gt;Node8</title>
<path fill="none" stroke="midnightblue" d="M453.677,-164.638C478.823,-154.504 513.754,-140.427 535.867,-131.516"/>
<polygon fill="midnightblue" stroke="midnightblue" points="452.2,-161.459 444.233,-168.444 454.816,-167.952 452.2,-161.459"/>
</g>
<!-- Node3 -->
<g id="node5" class="node"><title>Node3</title>
<a xlink:href="SettingsOutputs_8hh.html" target="_top" xlink:title="src/Browser/Settings/SettingsOutputs.hh">
<polygon fill="white" stroke="black" points="-0.5,-56.5 -0.5,-75.5 194.5,-75.5 194.5,-56.5 -0.5,-56.5"/>
<text text-anchor="middle" x="97" y="-63.5" font-family="Helvetica,sans-Serif" font-size="10.00">src/Browser/Settings/SettingsOutputs.hh</text>
</a>
</g>
<!-- Node2&#45;&gt;Node3 -->
<g id="edge4" class="edge"><title>Node2&#45;&gt;Node3</title>
<path fill="none" stroke="midnightblue" d="M262.222,-109.894C222.942,-99.6966 165.571,-84.802 129.804,-75.5164"/>
<polygon fill="midnightblue" stroke="midnightblue" points="261.483,-113.318 272.042,-112.444 263.242,-106.543 261.483,-113.318"/>
</g>
<!-- Node5 -->
<g id="node9" class="node"><title>Node5</title>
<a xlink:href="StatBrowser_8hh.html" target="_top" xlink:title="src/Browser/Statistics/StatBrowser.hh">
<polygon fill="white" stroke="black" points="213,-56.5 213,-75.5 397,-75.5 397,-56.5 213,-56.5"/>
<text text-anchor="middle" x="305" y="-63.5" font-family="Helvetica,sans-Serif" font-size="10.00">src/Browser/Statistics/StatBrowser.hh</text>
</a>
</g>
<!-- Node2&#45;&gt;Node5 -->
<g id="edge8" class="edge"><title>Node2&#45;&gt;Node5</title>
<path fill="none" stroke="midnightblue" d="M305,-101.805C305,-92.9102 305,-82.7798 305,-75.7511"/>
<polygon fill="midnightblue" stroke="midnightblue" points="301.5,-102.083 305,-112.083 308.5,-102.083 301.5,-102.083"/>
</g>
<!-- Node6 -->
<g id="node11" class="node"><title>Node6</title>
<a xlink:href="check__utils_8hh.html" target="_top" xlink:title="src/Utils/check_utils.hh">
<polygon fill="white" stroke="black" points="415.5,-56.5 415.5,-75.5 534.5,-75.5 534.5,-56.5 415.5,-56.5"/>
<text text-anchor="middle" x="475" y="-63.5" font-family="Helvetica,sans-Serif" font-size="10.00">src/Utils/check_utils.hh</text>
</a>
</g>
<!-- Node2&#45;&gt;Node6 -->
<g id="edge10" class="edge"><title>Node2&#45;&gt;Node6</title>
<path fill="none" stroke="midnightblue" d="M341.819,-109.304C373.852,-99.1294 419.515,-84.6246 448.189,-75.5164"/>
<polygon fill="midnightblue" stroke="midnightblue" points="340.408,-106.08 331.937,-112.444 342.527,-112.752 340.408,-106.08"/>
</g>
<!-- Node4 -->
<g id="node7" class="node"><title>Node4</title>
<a xlink:href="Settings_8hh.html" target="_top" xlink:title="src/Browser/Settings/Settings.hh">
<polygon fill="white" stroke="black" points="16.5,-0.5 16.5,-19.5 177.5,-19.5 177.5,-0.5 16.5,-0.5"/>
<text text-anchor="middle" x="97" y="-7.5" font-family="Helvetica,sans-Serif" font-size="10.00">src/Browser/Settings/Settings.hh</text>
</a>
</g>
<!-- Node3&#45;&gt;Node4 -->
<g id="edge6" class="edge"><title>Node3&#45;&gt;Node4</title>
<path fill="none" stroke="midnightblue" d="M97,-45.8045C97,-36.9102 97,-26.7798 97,-19.7511"/>
<polygon fill="midnightblue" stroke="midnightblue" points="93.5001,-46.083 97,-56.083 100.5,-46.083 93.5001,-46.083"/>
</g>
</g>
</svg>
