<?xml version="1.0" encoding="UTF-8" standalone="no"?>
<!DOCTYPE svg PUBLIC "-//W3C//DTD SVG 1.1//EN"
 "http://www.w3.org/Graphics/SVG/1.1/DTD/svg11.dtd">
<!-- Generated by graphviz version 2.28.0 (20111204.1018)
 -->
<!-- Title: G Pages: 1 -->
<svg width="233pt" height="282pt"
 viewBox="0.00 0.00 233.00 282.00" xmlns="http://www.w3.org/2000/svg" xmlns:xlink="http://www.w3.org/1999/xlink">
<g id="graph1" class="graph" transform="scale(1 1) rotate(0) translate(4 278)">
<title>G</title>
<polygon fill="white" stroke="white" points="-4,5 -4,-278 230,-278 230,5 -4,5"/>
<!-- Node1 -->
<g id="node1" class="node"><title>Node1</title>
<polygon fill="#bfbfbf" stroke="black" points="34.5,-194.5 34.5,-273.5 185.5,-273.5 185.5,-194.5 34.5,-194.5"/>
<text text-anchor="middle" x="110" y="-261.5" font-family="Helvetica,sans-Serif" font-size="10.00">MPD::AbstractClientExtension</text>
<polyline fill="none" stroke="black" points="34.5,-254.5 185.5,-254.5 "/>
<text text-anchor="start" x="42.5" y="-242.5" font-family="Helvetica,sans-Serif" font-size="10.00"># mp_BaseClient</text>
<polyline fill="none" stroke="black" points="34.5,-235.5 185.5,-235.5 "/>
<text text-anchor="start" x="42.5" y="-223.5" font-family="Helvetica,sans-Serif" font-size="10.00">+ AbstractClientExtension()</text>
<text text-anchor="start" x="42.5" y="-212.5" font-family="Helvetica,sans-Serif" font-size="10.00">+ ~AbstractClientExtension()</text>
<text text-anchor="start" x="42.5" y="-201.5" font-family="Helvetica,sans-Serif" font-size="10.00"># get_c_connection()</text>
</g>
<!-- Node2 -->
<g id="node3" class="node"><title>Node2</title>
<a xlink:href="classMPD_1_1AudioOutput.html" target="_top" xlink:title="Wrapper for mpd_output, implements also two client commands: enable() and disable()">
<polygon fill="white" stroke="black" points="-0.5,-17.5 -0.5,-140.5 98.5,-140.5 98.5,-17.5 -0.5,-17.5"/>
<text text-anchor="middle" x="49" y="-128.5" font-family="Helvetica,sans-Serif" font-size="10.00">MPD::AudioOutput</text>
<polyline fill="none" stroke="black" points="-0.5,-121.5 98.5,-121.5 "/>
<text text-anchor="middle" x="49" y="-109.5" font-family="Helvetica,sans-Serif" font-size="10.00"> </text>
<polyline fill="none" stroke="black" points="-0.5,-102.5 98.5,-102.5 "/>
<text text-anchor="start" x="7.5" y="-90.5" font-family="Helvetica,sans-Serif" font-size="10.00">+ AudioOutput()</text>
<text text-anchor="start" x="7.5" y="-79.5" font-family="Helvetica,sans-Serif" font-size="10.00">+ get_id()</text>
<text text-anchor="start" x="7.5" y="-68.5" font-family="Helvetica,sans-Serif" font-size="10.00">+ get_name()</text>
<text text-anchor="start" x="7.5" y="-57.5" font-family="Helvetica,sans-Serif" font-size="10.00">+ get_enabled()</text>
<text text-anchor="start" x="7.5" y="-46.5" font-family="Helvetica,sans-Serif" font-size="10.00">+ enable()</text>
<text text-anchor="start" x="7.5" y="-35.5" font-family="Helvetica,sans-Serif" font-size="10.00">+ disable()</text>
<text text-anchor="start" x="7.5" y="-24.5" font-family="Helvetica,sans-Serif" font-size="10.00">+ get_path()</text>
</a>
</g>
<!-- Node1&#45;&gt;Node2 -->
<g id="edge2" class="edge"><title>Node1&#45;&gt;Node2</title>
<path fill="none" stroke="midnightblue" d="M90.8365,-184.934C85.2366,-170.889 79.0422,-155.352 73.1745,-140.634"/>
<polygon fill="none" stroke="midnightblue" points="87.6525,-186.399 94.6071,-194.392 94.1548,-183.806 87.6525,-186.399"/>
</g>
<!-- Node3 -->
<g id="node5" class="node"><title>Node3</title>
<a xlink:href="classMPD_1_1Playlist.html" target="_top" xlink:title="A Wrapper for mpd_playlist, also implements own client commands.">
<polygon fill="white" stroke="black" points="117,-1 117,-157 225,-157 225,-1 117,-1"/>
<text text-anchor="middle" x="171" y="-145" font-family="Helvetica,sans-Serif" font-size="10.00">MPD::Playlist</text>
<polyline fill="none" stroke="black" points="117,-138 225,-138 "/>
<text text-anchor="middle" x="171" y="-126" font-family="Helvetica,sans-Serif" font-size="10.00"> </text>
<polyline fill="none" stroke="black" points="117,-119 225,-119 "/>
<text text-anchor="start" x="125" y="-107" font-family="Helvetica,sans-Serif" font-size="10.00">+ Playlist()</text>
<text text-anchor="start" x="125" y="-96" font-family="Helvetica,sans-Serif" font-size="10.00">+ Playlist()</text>
<text text-anchor="start" x="125" y="-85" font-family="Helvetica,sans-Serif" font-size="10.00">+ ~Playlist()</text>
<text text-anchor="start" x="125" y="-74" font-family="Helvetica,sans-Serif" font-size="10.00">+ get_path()</text>
<text text-anchor="start" x="125" y="-63" font-family="Helvetica,sans-Serif" font-size="10.00">+ get_last_modified()</text>
<text text-anchor="start" x="125" y="-52" font-family="Helvetica,sans-Serif" font-size="10.00">+ remove()</text>
<text text-anchor="start" x="125" y="-41" font-family="Helvetica,sans-Serif" font-size="10.00">+ load()</text>
<text text-anchor="start" x="125" y="-30" font-family="Helvetica,sans-Serif" font-size="10.00">+ rename()</text>
<text text-anchor="start" x="125" y="-19" font-family="Helvetica,sans-Serif" font-size="10.00">+ add_song()</text>
<text text-anchor="start" x="125" y="-8" font-family="Helvetica,sans-Serif" font-size="10.00">+ add_song()</text>
</a>
</g>
<!-- Node1&#45;&gt;Node3 -->
<g id="edge4" class="edge"><title>Node1&#45;&gt;Node3</title>
<path fill="none" stroke="midnightblue" d="M129.137,-185C132.684,-176.103 136.471,-166.605 140.263,-157.095"/>
<polygon fill="none" stroke="midnightblue" points="125.845,-183.806 125.393,-194.392 132.348,-186.399 125.845,-183.806"/>
</g>
</g>
</svg>
