<?xml version="1.0" encoding="UTF-8" standalone="no"?>
<!-- Created with Inkscape (http://www.inkscape.org/) -->

<svg
   xmlns:osb="http://www.openswatchbook.org/uri/2009/osb"
   xmlns:dc="http://purl.org/dc/elements/1.1/"
   xmlns:cc="http://creativecommons.org/ns#"
   xmlns:rdf="http://www.w3.org/1999/02/22-rdf-syntax-ns#"
   xmlns:svg="http://www.w3.org/2000/svg"
   xmlns="http://www.w3.org/2000/svg"
   xmlns:sodipodi="http://sodipodi.sourceforge.net/DTD/sodipodi-0.dtd"
   xmlns:inkscape="http://www.inkscape.org/namespaces/inkscape"
   id="svg3143"
   version="1.1"
   inkscape:version="0.48.2 r9819"
   width="902.5"
   height="698"
   sodipodi:docname="Freya_emblem.svg">
  <metadata
     id="metadata3149">
    <rdf:RDF>
      <cc:Work
         rdf:about="">
        <dc:format>image/svg+xml</dc:format>
        <dc:type
           rdf:resource="http://purl.org/dc/dcmitype/StillImage" />
        <dc:title />
      </cc:Work>
    </rdf:RDF>
  </metadata>
  <defs
     id="defs3147">
    <linearGradient
       id="linearGradient5331"
       osb:paint="solid">
      <stop
         style="stop-color:#ffffff;stop-opacity:1;"
         offset="0"
         id="stop5333" />
    </linearGradient>
  </defs>
  <sodipodi:namedview
     pagecolor="#ffffff"
     bordercolor="#666666"
     borderopacity="1"
     objecttolerance="10"
     gridtolerance="10"
     guidetolerance="10"
     inkscape:pageopacity="0"
     inkscape:pageshadow="2"
     inkscape:window-width="952"
     inkscape:window-height="1150"
     id="namedview3145"
     showgrid="false"
     inkscape:zoom="1.7806322"
     inkscape:cx="152.49502"
     inkscape:cy="248.56255"
     inkscape:window-x="964"
     inkscape:window-y="25"
     inkscape:window-maximized="0"
     inkscape:current-layer="svg3143"
     width="684.5px"
     showguides="true"
     inkscape:guide-bbox="true">
    <sodipodi:guide
       orientation="0,1"
       position="491.96009,758.15768"
       id="guide3003" />
  </sodipodi:namedview>
  <path
     style="fill:#c0c0c0"
     d="m 607.23453,689.81636 c -69.04412,-5.34416 -119.01815,-32.91747 -140.42382,-77.47924 -7.26667,-15.12753 -10.32143,-29.68016 -10.41601,-49.6211 -0.12252,-25.84667 4.57841,-46.22047 16.07582,-69.6717 l 4.77453,-9.73852 -1.62192,-3.9866 c -0.89206,-2.19265 -2.61648,-8.31003 -3.8321,-13.59423 -2.65073,-11.52254 -3.71563,-34.32677 -2.16637,-46.3907 1.96185,-15.27656 7.58323,-28.01987 15.18753,-34.42916 5.66704,-4.77649 14.72008,-4.2627 32.52132,1.84572 13.28633,4.55911 45.86634,20.54465 47.66737,23.38819 0.30537,0.48209 3.48811,-0.13305 7.41903,-1.43386 9.70217,-3.21071 26.87976,-6.72765 39.14187,-8.01395 12.79567,-1.34228 43.8412,-0.60626 55.02485,1.30453 8.34379,1.42559 27.14506,5.74952 28.32552,6.51436 0.38717,0.25084 4.77715,-1.87011 9.75547,-4.71321 11.42406,-6.52424 29.03986,-14.95661 38.75507,-18.55139 9.21755,-3.41063 22.01516,-5.94897 26.02109,-5.16113 3.712,0.73004 9.9604,6.38766 13.57333,12.29001 6.41012,10.47213 10.33411,31.18342 9.30308,49.10282 -0.6089,10.58255 -3.26284,25.99354 -5.47653,31.80156 -1.29441,3.39603 -1.26903,3.50845 2.16961,9.6076 9.87823,17.52108 16.0109,35.44544 19.48645,56.95443 1.44991,8.97298 1.46842,33.29397 0.0323,42.41637 -6.59497,41.89173 -33.96622,74.44863 -77.09683,91.70339 -33.29482,13.31986 -79.97394,19.27907 -124.20063,15.85581 z m 66.77111,-14.93157 c 29.13479,-4.21716 48.84921,-10.29025 69.05352,-21.27225 14.25024,-7.74564 24.92152,-16.60744 33.42926,-27.7608 14.37821,-18.84934 20.5817,-38.2373 20.58435,-64.33296 0.002,-26.12724 -6.3069,-49.40926 -19.88536,-73.37606 -1.71073,-3.01956 -4.2358,-7.01078 -5.61126,-8.86944 l -2.5008,-3.37937 3.08104,-4.4959 c 6.82617,-9.96074 10.61864,-26.88842 9.77846,-43.64597 -0.81093,-16.17413 -4.196,-24.74765 -12.52621,-31.72581 -3.09064,-2.58899 -3.67159,-2.74319 -8.41068,-2.23272 -11.08978,1.1946 -29.22343,9.51596 -52.94025,24.29372 l -9.15278,5.70303 -7.43089,-2.35077 c -37.35275,-11.81656 -82.8071,-11.28825 -119.39611,1.38783 l -8.09902,2.80586 -8.92107,-5.44168 c -24.59275,-15.00108 -39.46308,-22.07673 -51.68951,-24.59512 -8.46642,-1.74391 -9.50675,-1.45718 -14.99818,4.13377 -6.98123,7.10776 -10.48595,20.70459 -9.60707,37.27115 0.7988,15.05727 4.42977,27.38039 10.58759,35.93327 1.94905,2.70714 3.90557,5.43839 4.3478,6.06947 0.54897,0.78334 -0.59106,3.43113 -3.59324,8.34554 -10.78618,17.6565 -17.495,36.67619 -20.38718,57.79813 -1.49232,10.89862 -0.64384,32.59317 1.62108,41.45006 7.00961,27.41064 21.92461,47.71505 46.57434,63.40355 21.52511,13.69982 53.98085,23.38588 88.88463,26.52661 10.06294,0.90551 57.6352,-0.25759 67.20754,-1.64314 z"
     id="path3157"
     inkscape:connector-curvature="0" />
  <path
     style="font-size:medium;font-style:normal;font-variant:normal;font-weight:normal;font-stretch:normal;text-indent:0;text-align:start;text-decoration:none;line-height:normal;letter-spacing:normal;word-spacing:normal;text-transform:none;direction:ltr;block-progression:tb;writing-mode:lr-tb;text-anchor:start;baseline-shift:baseline;color:#000000;fill:#c0c0c0;fill-opacity:1;fill-rule:nonzero;stroke:none;stroke-width:0.95976382000000005px;marker:none;visibility:visible;display:inline;overflow:visible;enable-background:accumulate;font-family:Sans;-inkscape-font-specification:Sans"
     d="m 60.25,93.9375 c -15.144426,0 -27.375,11.23871 -27.375,25.25 l 0,312.65625 c 0,14.01129 12.230574,25.25 27.375,25.25 l 103.9375,0 c 1.57709,1.0359 2.60175,1.29101 3.40625,1.25 0.84116,-0.0429 1.34454,-0.25646 2.375,0.0312 2.06092,0.57541 6.38007,3.40068 17.90625,14.59375 14.40196,13.98574 30.47864,19.76394 56.59375,29.375 26.25543,9.6627 87.05839,18.30004 117.65625,19.65625 30.40481,1.34766 65.78125,15.40625 65.78125,15.40625 l 0.53125,-0.75 c 0,0 -7.11525,-8.07856 -22,-17.53125 -14.88475,-9.45269 -37.57364,-20.3182 -68.8125,-26 -9.82082,-1.78623 -24.51765,-7.75816 -37.90625,-14.90625 -12.89394,-6.884 -24.45015,-14.85459 -29.5,-21.125 l 67.40625,0 c 15.14442,0 27.40625,-11.23798 27.40625,-25.25 l 0,-312.65625 c 0,-14.01202 -12.26183,-25.25 -27.40625,-25.25 l -277.375,0 z m 0,0.9375 277.375,0 c 14.67002,0 26.46875,10.86104 26.46875,24.3125 l 0,312.65625 c 0,13.45146 -11.79873,24.28125 -26.46875,24.28125 l -68.5,0 -0.9375,0 0.5625,0.78125 c 4.92911,6.67244 17.08176,14.97565 30.53125,22.15625 13.44949,7.1806 28.16324,13.17676 38.1875,15 31.10741,5.65789 53.67561,16.48048 68.46875,25.875 12.57008,7.98274 18.38708,13.87638 20.1875,15.78125 -5.43952,-2.08973 -36.02428,-13.41765 -63.96875,-14.65625 -30.47322,-1.35069 -91.39777,-10.06468 -117.375,-19.625 -26.11755,-9.61196 -41.97763,-15.32671 -56.21875,-29.15625 -11.55343,-11.21953 -15.86433,-14.15149 -18.34375,-14.84375 -1.23971,-0.34613 -1.99337,-0.065 -2.65625,-0.0312 -0.66288,0.0338 -1.38901,-0.0883 -3,-1.1875 l -0.125,-0.0937 -0.15625,0 -104.03125,0 c -14.67002,0 -26.4375,-10.82906 -26.4375,-24.28125 l 0,-312.65625 c 0,-13.45219 11.76748,-24.3125 26.4375,-24.3125 z"
     id="path3849"
     inkscape:connector-curvature="0" />
  <path
     style="fill:#f5f5f5;fill-opacity:1;stroke:#ffffff;stroke-opacity:1;stroke-width:0;stroke-miterlimit:0;stroke-dasharray:0,0;stroke-dashoffset:0;opacity:1"
     d="m 421.89007,533.93338 c -1.03287,-0.6054 -17.66695,-5.68312 -23.86428,-7.2848 -13.00148,-3.3602 -22.14419,-4.79872 -37.62708,-5.92024 -41.86723,-3.03269 -85.687,-10.16592 -110.35407,-17.96406 -11.30337,-3.5734 -28.98545,-10.54417 -37.90788,-14.94434 -10.74605,-5.29951 -16.04279,-9.04342 -26.7545,-18.91097 -10.30252,-9.49061 -13.10984,-11.46756 -16.78575,-11.82077 -1.54826,-0.14877 -2.95103,-0.49055 -3.11726,-0.75951 -0.16817,-0.27209 -24.04462,-0.48902 -53.82507,-0.48902 -33.854978,0 -54.634444,-0.2095 -56.547885,-0.57013 -10.930969,-2.06016 -19.304658,-10.59658 -20.767254,-21.17082 -0.321233,-2.32244 -0.468957,-65.36116 -0.378083,-161.34009 0.14526,-153.42151 0.17707,-157.60152 1.220168,-160.33631 3.232156,-8.47404 9.373067,-13.972079 18.144483,-16.244981 3.058923,-0.792647 18.071872,-0.883764 145.613591,-0.883764 127.54172,0 142.55467,0.09112 145.6136,0.883764 8.92951,2.313872 15.22158,8.043051 18.1494,16.525781 1.03733,3.00544 1.0661,7.40038 1.0661,162.8635 0,155.67481 -0.0275,159.85397 -1.07006,162.8635 -2.97586,8.59002 -10.67403,15.09567 -19.92613,16.83942 -1.84775,0.34824 -16.98334,0.57013 -38.89068,0.57013 -19.7261,0 -35.8581,0.18954 -35.84888,0.4212 0.0315,0.79149 4.19073,5.05519 7.7664,7.96146 15.42797,12.5397 43.2288,26.06823 61.85503,30.10008 28.18066,6.10001 47.06044,13.1033 65.42117,24.26739 9.12076,5.5458 22.422,15.81696 20.50336,15.8326 -0.46332,0.004 -1.22311,-0.21628 -1.68844,-0.48902 l 0,0 z"
     id="path3887"
     inkscape:connector-curvature="0" />
</svg>
