<?xml version="1.0" encoding="UTF-8" standalone="no"?>
<!DOCTYPE svg PUBLIC "-//W3C//DTD SVG 1.1//EN"
 "http://www.w3.org/Graphics/SVG/1.1/DTD/svg11.dtd">
<!-- Generated by graphviz version 2.28.0 (20111204.1018)
 -->
<!-- Title: G Pages: 1 -->
<svg width="730pt" height="250pt"
 viewBox="0.00 0.00 730.00 250.00" xmlns="http://www.w3.org/2000/svg" xmlns:xlink="http://www.w3.org/1999/xlink">
<g id="graph1" class="graph" transform="scale(1 1) rotate(0) translate(4 246)">
<title>G</title>
<polygon fill="white" stroke="white" points="-4,5 -4,-246 727,-246 727,5 -4,5"/>
<!-- Node1 -->
<g id="node1" class="node"><title>Node1</title>
<polygon fill="#bfbfbf" stroke="black" points="301,-129 301,-241 411,-241 411,-129 301,-129"/>
<text text-anchor="middle" x="356" y="-229" font-family="Helvetica,sans-Serif" font-size="10.00">AbstractBrowser</text>
<polyline fill="none" stroke="black" points="301,-222 411,-222 "/>
<text text-anchor="middle" x="356" y="-210" font-family="Helvetica,sans-Serif" font-size="10.00"> </text>
<polyline fill="none" stroke="black" points="301,-203 411,-203 "/>
<text text-anchor="start" x="309" y="-191" font-family="Helvetica,sans-Serif" font-size="10.00">+ AbstractBrowser()</text>
<text text-anchor="start" x="309" y="-180" font-family="Helvetica,sans-Serif" font-size="10.00">+ get_container()</text>
<text text-anchor="start" x="309" y="-169" font-family="Helvetica,sans-Serif" font-size="10.00">+ get_name()</text>
<text text-anchor="start" x="309" y="-158" font-family="Helvetica,sans-Serif" font-size="10.00">+ get_icon_stock_id()</text>
<text text-anchor="start" x="309" y="-147" font-family="Helvetica,sans-Serif" font-size="10.00">+ is_visible()</text>
<text text-anchor="start" x="309" y="-136" font-family="Helvetica,sans-Serif" font-size="10.00">+ needs_connection()</text>
</g>
<!-- Node2 -->
<g id="node3" class="node"><title>Node2</title>
<a xlink:href="classBrowser_1_1Database.html" target="_top" xlink:title="The Database Browser.">
<polygon fill="white" stroke="black" points="-0.5,-1 -0.5,-91 100.5,-91 100.5,-1 -0.5,-1"/>
<text text-anchor="middle" x="50" y="-79" font-family="Helvetica,sans-Serif" font-size="10.00">Browser::Database</text>
<polyline fill="none" stroke="black" points="-0.5,-72 100.5,-72 "/>
<text text-anchor="middle" x="50" y="-60" font-family="Helvetica,sans-Serif" font-size="10.00"> </text>
<polyline fill="none" stroke="black" points="-0.5,-53 100.5,-53 "/>
<text text-anchor="start" x="7.5" y="-41" font-family="Helvetica,sans-Serif" font-size="10.00">+ Database()</text>
<text text-anchor="start" x="7.5" y="-30" font-family="Helvetica,sans-Serif" font-size="10.00">+ ~Database()</text>
<text text-anchor="start" x="7.5" y="-19" font-family="Helvetica,sans-Serif" font-size="10.00">+ get_container()</text>
<text text-anchor="start" x="7.5" y="-8" font-family="Helvetica,sans-Serif" font-size="10.00">+ add_item()</text>
</a>
</g>
<!-- Node1&#45;&gt;Node2 -->
<g id="edge2" class="edge"><title>Node1&#45;&gt;Node2</title>
<path fill="none" stroke="midnightblue" d="M291.211,-165.368C240.285,-149.416 168.434,-123.975 110,-92 106.916,-90.3124 103.815,-88.4802 100.735,-86.5527"/>
<polygon fill="none" stroke="midnightblue" points="290.2,-168.718 300.787,-168.333 292.27,-162.032 290.2,-168.718"/>
</g>
<!-- Node3 -->
<g id="node5" class="node"><title>Node3</title>
<a xlink:href="classBrowser_1_1Fortuna.html" target="_top" xlink:title="A little easteregg browser.">
<polygon fill="white" stroke="black" points="119,-12 119,-80 211,-80 211,-12 119,-12"/>
<text text-anchor="middle" x="165" y="-68" font-family="Helvetica,sans-Serif" font-size="10.00">Browser::Fortuna</text>
<polyline fill="none" stroke="black" points="119,-61 211,-61 "/>
<text text-anchor="middle" x="165" y="-49" font-family="Helvetica,sans-Serif" font-size="10.00"> </text>
<polyline fill="none" stroke="black" points="119,-42 211,-42 "/>
<text text-anchor="start" x="127" y="-30" font-family="Helvetica,sans-Serif" font-size="10.00">+ Fortuna()</text>
<text text-anchor="start" x="127" y="-19" font-family="Helvetica,sans-Serif" font-size="10.00">+ get_container()</text>
</a>
</g>
<!-- Node1&#45;&gt;Node3 -->
<g id="edge4" class="edge"><title>Node1&#45;&gt;Node3</title>
<path fill="none" stroke="midnightblue" d="M292.56,-142.82C269.402,-127.337 243.21,-109.29 220,-92 214.954,-88.2412 209.736,-84.194 204.614,-80.1226"/>
<polygon fill="none" stroke="midnightblue" points="290.68,-145.773 300.943,-148.402 294.56,-139.947 290.68,-145.773"/>
</g>
<!-- Node4 -->
<g id="node7" class="node"><title>Node4</title>
<a xlink:href="classBrowser_1_1PlaylistManager.html" target="_top" xlink:title="Shows a list of stored playlists.">
<polygon fill="white" stroke="black" points="229,-6.5 229,-85.5 357,-85.5 357,-6.5 229,-6.5"/>
<text text-anchor="middle" x="293" y="-73.5" font-family="Helvetica,sans-Serif" font-size="10.00">Browser::PlaylistManager</text>
<polyline fill="none" stroke="black" points="229,-66.5 357,-66.5 "/>
<text text-anchor="middle" x="293" y="-54.5" font-family="Helvetica,sans-Serif" font-size="10.00"> </text>
<polyline fill="none" stroke="black" points="229,-47.5 357,-47.5 "/>
<text text-anchor="start" x="237" y="-35.5" font-family="Helvetica,sans-Serif" font-size="10.00">+ PlaylistManager()</text>
<text text-anchor="start" x="237" y="-24.5" font-family="Helvetica,sans-Serif" font-size="10.00">+ ~PlaylistManager()</text>
<text text-anchor="start" x="237" y="-13.5" font-family="Helvetica,sans-Serif" font-size="10.00">+ get_container()</text>
</a>
</g>
<!-- Node1&#45;&gt;Node4 -->
<g id="edge6" class="edge"><title>Node1&#45;&gt;Node4</title>
<path fill="none" stroke="midnightblue" d="M326.327,-119.472C321.019,-107.929 315.641,-96.2356 310.8,-85.7079"/>
<polygon fill="none" stroke="midnightblue" points="323.199,-121.049 330.557,-128.672 329.559,-118.124 323.199,-121.049"/>
</g>
<!-- Node5 -->
<g id="node9" class="node"><title>Node5</title>
<a xlink:href="classBrowser_1_1Queue.html" target="_top" xlink:title="Shows a list of songs in the current playlist.">
<polygon fill="white" stroke="black" points="375,-6.5 375,-85.5 465,-85.5 465,-6.5 375,-6.5"/>
<text text-anchor="middle" x="420" y="-73.5" font-family="Helvetica,sans-Serif" font-size="10.00">Browser::Queue</text>
<polyline fill="none" stroke="black" points="375,-66.5 465,-66.5 "/>
<text text-anchor="middle" x="420" y="-54.5" font-family="Helvetica,sans-Serif" font-size="10.00"> </text>
<polyline fill="none" stroke="black" points="375,-47.5 465,-47.5 "/>
<text text-anchor="start" x="383" y="-35.5" font-family="Helvetica,sans-Serif" font-size="10.00">+ Queue()</text>
<text text-anchor="start" x="383" y="-24.5" font-family="Helvetica,sans-Serif" font-size="10.00">+ ~Queue()</text>
<text text-anchor="start" x="383" y="-13.5" font-family="Helvetica,sans-Serif" font-size="10.00">+ get_container()</text>
</a>
</g>
<!-- Node1&#45;&gt;Node5 -->
<g id="edge8" class="edge"><title>Node1&#45;&gt;Node5</title>
<path fill="none" stroke="midnightblue" d="M386.144,-119.472C391.537,-107.929 396.999,-96.2356 401.917,-85.7079"/>
<polygon fill="none" stroke="midnightblue" points="382.908,-118.13 381.847,-128.672 389.25,-121.093 382.908,-118.13"/>
</g>
<!-- Node6 -->
<g id="node11" class="node"><title>Node6</title>
<a xlink:href="classBrowser_1_1Settings.html" target="_top" xlink:title="The Settingsbrowser shown in the sidebar.">
<polygon fill="white" stroke="black" points="483,-1 483,-91 591,-91 591,-1 483,-1"/>
<text text-anchor="middle" x="537" y="-79" font-family="Helvetica,sans-Serif" font-size="10.00">Browser::Settings</text>
<polyline fill="none" stroke="black" points="483,-72 591,-72 "/>
<text text-anchor="middle" x="537" y="-60" font-family="Helvetica,sans-Serif" font-size="10.00"> </text>
<polyline fill="none" stroke="black" points="483,-53 591,-53 "/>
<text text-anchor="start" x="491" y="-41" font-family="Helvetica,sans-Serif" font-size="10.00">+ Settings()</text>
<text text-anchor="start" x="491" y="-30" font-family="Helvetica,sans-Serif" font-size="10.00">+ ~Settings()</text>
<text text-anchor="start" x="491" y="-19" font-family="Helvetica,sans-Serif" font-size="10.00">+ get_container()</text>
<text text-anchor="start" x="491" y="-8" font-family="Helvetica,sans-Serif" font-size="10.00">+ settings_changed()</text>
</a>
</g>
<!-- Node1&#45;&gt;Node6 -->
<g id="edge10" class="edge"><title>Node1&#45;&gt;Node6</title>
<path fill="none" stroke="midnightblue" d="M419.427,-135.991C440.169,-120.292 463,-103.011 482.981,-87.8871"/>
<polygon fill="none" stroke="midnightblue" points="417.151,-133.325 411.289,-142.151 421.375,-138.907 417.151,-133.325"/>
</g>
<!-- Node7 -->
<g id="node13" class="node"><title>Node7</title>
<a xlink:href="classBrowser_1_1StatBrowser.html" target="_top" xlink:title="A simple representation of the current MPD::Statistics.">
<polygon fill="white" stroke="black" points="609.5,-6.5 609.5,-85.5 722.5,-85.5 722.5,-6.5 609.5,-6.5"/>
<text text-anchor="middle" x="666" y="-73.5" font-family="Helvetica,sans-Serif" font-size="10.00">Browser::StatBrowser</text>
<polyline fill="none" stroke="black" points="609.5,-66.5 722.5,-66.5 "/>
<text text-anchor="middle" x="666" y="-54.5" font-family="Helvetica,sans-Serif" font-size="10.00"> </text>
<polyline fill="none" stroke="black" points="609.5,-47.5 722.5,-47.5 "/>
<text text-anchor="start" x="617.5" y="-35.5" font-family="Helvetica,sans-Serif" font-size="10.00">+ StatBrowser()</text>
<text text-anchor="start" x="617.5" y="-24.5" font-family="Helvetica,sans-Serif" font-size="10.00">+ ~StatBrowser()</text>
<text text-anchor="start" x="617.5" y="-13.5" font-family="Helvetica,sans-Serif" font-size="10.00">+ get_container()</text>
</a>
</g>
<!-- Node1&#45;&gt;Node7 -->
<g id="edge12" class="edge"><title>Node1&#45;&gt;Node7</title>
<path fill="none" stroke="midnightblue" d="M421.152,-164.137C471.366,-147.722 541.821,-122.251 600,-92 603.814,-90.0167 607.673,-87.8538 611.508,-85.584"/>
<polygon fill="none" stroke="midnightblue" points="419.824,-160.888 411.388,-167.299 421.98,-167.548 419.824,-160.888"/>
</g>
</g>
</svg>
