<?xml version="1.0" encoding="UTF-8" standalone="no"?>
<!DOCTYPE svg PUBLIC "-//W3C//DTD SVG 1.1//EN"
 "http://www.w3.org/Graphics/SVG/1.1/DTD/svg11.dtd">
<!-- Generated by graphviz version 2.28.0 (20111204.1018)
 -->
<!-- Title: G Pages: 1 -->
<svg width="587pt" height="314pt"
 viewBox="0.00 0.00 587.00 314.00" xmlns="http://www.w3.org/2000/svg" xmlns:xlink="http://www.w3.org/1999/xlink">
<g id="graph1" class="graph" transform="scale(1 1) rotate(0) translate(4 310)">
<title>G</title>
<polygon fill="white" stroke="white" points="-4,5 -4,-310 584,-310 584,5 -4,5"/>
<!-- Node1 -->
<g id="node1" class="node"><title>Node1</title>
<polygon fill="#bfbfbf" stroke="black" points="220.5,-204.5 220.5,-305.5 351.5,-305.5 351.5,-204.5 220.5,-204.5"/>
<text text-anchor="middle" x="286" y="-293.5" font-family="Helvetica,sans-Serif" font-size="10.00">Browser::AbstractSettings</text>
<polyline fill="none" stroke="black" points="220.5,-286.5 351.5,-286.5 "/>
<text text-anchor="middle" x="286" y="-274.5" font-family="Helvetica,sans-Serif" font-size="10.00"> </text>
<polyline fill="none" stroke="black" points="220.5,-267.5 351.5,-267.5 "/>
<text text-anchor="start" x="228.5" y="-255.5" font-family="Helvetica,sans-Serif" font-size="10.00">+ AbstractSettings()</text>
<text text-anchor="start" x="228.5" y="-244.5" font-family="Helvetica,sans-Serif" font-size="10.00">+ ~AbstractSettings()</text>
<text text-anchor="start" x="228.5" y="-233.5" font-family="Helvetica,sans-Serif" font-size="10.00">+ accept_new_settings()</text>
<text text-anchor="start" x="228.5" y="-222.5" font-family="Helvetica,sans-Serif" font-size="10.00">+ decline_new_settings()</text>
<text text-anchor="start" x="228.5" y="-211.5" font-family="Helvetica,sans-Serif" font-size="10.00">+ reset_settings()</text>
</g>
<!-- Node2 -->
<g id="node3" class="node"><title>Node2</title>
<a xlink:href="classBrowser_1_1SettingsGeneral.html" target="_top" xlink:title="General Settings Tab.">
<polygon fill="white" stroke="black" points="0,-33.5 0,-134.5 128,-134.5 128,-33.5 0,-33.5"/>
<text text-anchor="middle" x="64" y="-122.5" font-family="Helvetica,sans-Serif" font-size="10.00">Browser::SettingsGeneral</text>
<polyline fill="none" stroke="black" points="0,-115.5 128,-115.5 "/>
<text text-anchor="middle" x="64" y="-103.5" font-family="Helvetica,sans-Serif" font-size="10.00"> </text>
<polyline fill="none" stroke="black" points="0,-96.5 128,-96.5 "/>
<text text-anchor="start" x="8" y="-84.5" font-family="Helvetica,sans-Serif" font-size="10.00">+ SettingsGeneral()</text>
<text text-anchor="start" x="8" y="-73.5" font-family="Helvetica,sans-Serif" font-size="10.00">+ ~SettingsGeneral()</text>
<text text-anchor="start" x="8" y="-62.5" font-family="Helvetica,sans-Serif" font-size="10.00">+ accept_new_settings()</text>
<text text-anchor="start" x="8" y="-51.5" font-family="Helvetica,sans-Serif" font-size="10.00">+ decline_new_settings()</text>
<text text-anchor="start" x="8" y="-40.5" font-family="Helvetica,sans-Serif" font-size="10.00">+ reset_settings()</text>
</a>
</g>
<!-- Node1&#45;&gt;Node2 -->
<g id="edge2" class="edge"><title>Node1&#45;&gt;Node2</title>
<path fill="none" stroke="midnightblue" d="M211.298,-217.157C186.519,-203.337 159.531,-186.461 137,-168 124.977,-158.148 113.254,-146.222 102.844,-134.519"/>
<polygon fill="none" stroke="midnightblue" points="209.865,-220.363 220.315,-222.107 213.234,-214.227 209.865,-220.363"/>
</g>
<!-- Node3 -->
<g id="node5" class="node"><title>Node3</title>
<a xlink:href="classBrowser_1_1SettingsNetwork.html" target="_top" xlink:title="Network Settings Tab.">
<polygon fill="white" stroke="black" points="146.5,-33.5 146.5,-134.5 277.5,-134.5 277.5,-33.5 146.5,-33.5"/>
<text text-anchor="middle" x="212" y="-122.5" font-family="Helvetica,sans-Serif" font-size="10.00">Browser::SettingsNetwork</text>
<polyline fill="none" stroke="black" points="146.5,-115.5 277.5,-115.5 "/>
<text text-anchor="middle" x="212" y="-103.5" font-family="Helvetica,sans-Serif" font-size="10.00"> </text>
<polyline fill="none" stroke="black" points="146.5,-96.5 277.5,-96.5 "/>
<text text-anchor="start" x="154.5" y="-84.5" font-family="Helvetica,sans-Serif" font-size="10.00">+ SettingsNetwork()</text>
<text text-anchor="start" x="154.5" y="-73.5" font-family="Helvetica,sans-Serif" font-size="10.00">+ ~SettingsNetwork()</text>
<text text-anchor="start" x="154.5" y="-62.5" font-family="Helvetica,sans-Serif" font-size="10.00">+ accept_new_settings()</text>
<text text-anchor="start" x="154.5" y="-51.5" font-family="Helvetica,sans-Serif" font-size="10.00">+ decline_new_settings()</text>
<text text-anchor="start" x="154.5" y="-40.5" font-family="Helvetica,sans-Serif" font-size="10.00">+ reset_settings()</text>
</a>
</g>
<!-- Node1&#45;&gt;Node3 -->
<g id="edge4" class="edge"><title>Node1&#45;&gt;Node3</title>
<path fill="none" stroke="midnightblue" d="M260.179,-195.031C251.562,-175.352 242.052,-153.633 233.774,-134.727"/>
<polygon fill="none" stroke="midnightblue" points="256.981,-196.452 264.198,-204.208 263.393,-193.644 256.981,-196.452"/>
</g>
<!-- Node4 -->
<g id="node7" class="node"><title>Node4</title>
<a xlink:href="classBrowser_1_1SettingsOutputs.html" target="_top" xlink:title="Outputlist Tab.">
<polygon fill="white" stroke="black" points="295.5,-0.5 295.5,-167.5 426.5,-167.5 426.5,-0.5 295.5,-0.5"/>
<text text-anchor="middle" x="361" y="-155.5" font-family="Helvetica,sans-Serif" font-size="10.00">Browser::SettingsOutputs</text>
<polyline fill="none" stroke="black" points="295.5,-148.5 426.5,-148.5 "/>
<text text-anchor="middle" x="361" y="-136.5" font-family="Helvetica,sans-Serif" font-size="10.00"> </text>
<polyline fill="none" stroke="black" points="295.5,-129.5 426.5,-129.5 "/>
<text text-anchor="start" x="303.5" y="-117.5" font-family="Helvetica,sans-Serif" font-size="10.00">+ SettingsOutputs()</text>
<text text-anchor="start" x="303.5" y="-106.5" font-family="Helvetica,sans-Serif" font-size="10.00">+ ~SettingsOutputs()</text>
<text text-anchor="start" x="303.5" y="-95.5" font-family="Helvetica,sans-Serif" font-size="10.00">+ accept_new_settings()</text>
<text text-anchor="start" x="303.5" y="-84.5" font-family="Helvetica,sans-Serif" font-size="10.00">+ decline_new_settings()</text>
<text text-anchor="start" x="303.5" y="-73.5" font-family="Helvetica,sans-Serif" font-size="10.00">+ reset_settings()</text>
<text text-anchor="start" x="303.5" y="-62.5" font-family="Helvetica,sans-Serif" font-size="10.00">+ add_item()</text>
<text text-anchor="start" x="303.5" y="-51.5" font-family="Helvetica,sans-Serif" font-size="10.00"># on_client_update()</text>
<text text-anchor="start" x="303.5" y="-40.5" font-family="Helvetica,sans-Serif" font-size="10.00"># on_connection_change()</text>
<text text-anchor="start" x="303.5" y="-29.5" font-family="Helvetica,sans-Serif" font-size="10.00"># on_toggle()</text>
<text text-anchor="start" x="303.5" y="-18.5" font-family="Helvetica,sans-Serif" font-size="10.00"># on_select()</text>
<text text-anchor="start" x="303.5" y="-7.5" font-family="Helvetica,sans-Serif" font-size="10.00"># clear()</text>
</a>
</g>
<!-- Node1&#45;&gt;Node4 -->
<g id="edge6" class="edge"><title>Node1&#45;&gt;Node4</title>
<path fill="none" stroke="midnightblue" d="M312.248,-194.854C316.147,-186.069 320.224,-176.881 324.29,-167.721"/>
<polygon fill="none" stroke="midnightblue" points="308.954,-193.648 308.097,-204.208 315.352,-196.488 308.954,-193.648"/>
</g>
<!-- Node5 -->
<g id="node9" class="node"><title>Node5</title>
<a xlink:href="classBrowser_1_1SettingsPlayback.html" target="_top" xlink:title="Playback Settings Tab.">
<polygon fill="white" stroke="black" points="444.5,-33.5 444.5,-134.5 579.5,-134.5 579.5,-33.5 444.5,-33.5"/>
<text text-anchor="middle" x="512" y="-122.5" font-family="Helvetica,sans-Serif" font-size="10.00">Browser::SettingsPlayback</text>
<polyline fill="none" stroke="black" points="444.5,-115.5 579.5,-115.5 "/>
<text text-anchor="middle" x="512" y="-103.5" font-family="Helvetica,sans-Serif" font-size="10.00"> </text>
<polyline fill="none" stroke="black" points="444.5,-96.5 579.5,-96.5 "/>
<text text-anchor="start" x="452.5" y="-84.5" font-family="Helvetica,sans-Serif" font-size="10.00">+ SettingsPlayback()</text>
<text text-anchor="start" x="452.5" y="-73.5" font-family="Helvetica,sans-Serif" font-size="10.00">+ ~SettingsPlayback()</text>
<text text-anchor="start" x="452.5" y="-62.5" font-family="Helvetica,sans-Serif" font-size="10.00">+ accept_new_settings()</text>
<text text-anchor="start" x="452.5" y="-51.5" font-family="Helvetica,sans-Serif" font-size="10.00">+ decline_new_settings()</text>
<text text-anchor="start" x="452.5" y="-40.5" font-family="Helvetica,sans-Serif" font-size="10.00">+ reset_settings()</text>
</a>
</g>
<!-- Node1&#45;&gt;Node5 -->
<g id="edge8" class="edge"><title>Node1&#45;&gt;Node5</title>
<path fill="none" stroke="midnightblue" d="M360.762,-216.622C385.428,-202.812 412.33,-186.078 435,-168 447.294,-158.196 459.424,-146.414 470.292,-134.848"/>
<polygon fill="none" stroke="midnightblue" points="358.852,-213.678 351.788,-221.574 362.234,-219.807 358.852,-213.678"/>
</g>
</g>
</svg>
