<?xml version="1.0" encoding="UTF-8" standalone="no"?>
<!-- Created with Inkscape (http://www.inkscape.org/) -->

<svg
   xmlns:dc="http://purl.org/dc/elements/1.1/"
   xmlns:cc="http://creativecommons.org/ns#"
   xmlns:rdf="http://www.w3.org/1999/02/22-rdf-syntax-ns#"
   xmlns:svg="http://www.w3.org/2000/svg"
   xmlns="http://www.w3.org/2000/svg"
   xmlns:sodipodi="http://sodipodi.sourceforge.net/DTD/sodipodi-0.dtd"
   xmlns:inkscape="http://www.inkscape.org/namespaces/inkscape"
   id="svg3143"
   version="1.1"
   inkscape:version="0.48.2 r9819"
   width="406"
   height="340"
   sodipodi:docname="freya3.svg">
  <metadata
     id="metadata3149">
    <rdf:RDF>
      <cc:Work
         rdf:about="">
        <dc:format>image/svg+xml</dc:format>
        <dc:type
           rdf:resource="http://purl.org/dc/dcmitype/StillImage" />
        <dc:title></dc:title>
      </cc:Work>
    </rdf:RDF>
  </metadata>
  <defs
     id="defs3147" />
  <sodipodi:namedview
     pagecolor="#ffffff"
     bordercolor="#666666"
     borderopacity="1"
     objecttolerance="10"
     gridtolerance="10"
     guidetolerance="10"
     inkscape:pageopacity="0"
     inkscape:pageshadow="2"
     inkscape:window-width="952"
     inkscape:window-height="1150"
     id="namedview3145"
     showgrid="false"
     inkscape:zoom="0.98163059"
     inkscape:cx="458.89357"
     inkscape:cy="133.84616"
     inkscape:window-x="964"
     inkscape:window-y="25"
     inkscape:window-maximized="0"
     inkscape:current-layer="svg3143" />
  <path
     style="fill:#cccccc"
     d="M 176.43588,331.96274 C 100.29955,326.3413 45.192224,297.33746 21.587748,250.46379 13.574652,234.5514 10.206119,219.24379 10.101821,198.26831 9.9666321,171.08069 15.150508,149.64986 27.82895,124.98198 l 5.26495,-10.24377 -1.788508,-4.19345 C 30.321713,108.23836 28.420131,101.80359 27.079655,96.245257 24.156651,84.124915 22.982349,60.137589 24.69077,47.447758 26.854141,31.378644 33.05294,17.974212 41.438356,11.232378 47.687514,6.2080849 57.670464,6.7485381 77.300267,13.173857 91.951342,17.969517 127.87797,34.784376 129.864,37.77544 c 0.33674,0.507133 3.84642,-0.139892 8.1811,-1.508215 10.69881,-3.377286 29.64086,-7.076718 43.16253,-8.429752 14.11004,-1.411909 48.34458,-0.637682 60.67701,1.372232 9.20087,1.499541 29.93342,6.047816 31.23513,6.852315 0.42693,0.263855 5.26783,-1.96713 10.75755,-4.957746 12.59754,-6.862707 32.02283,-15.732561 42.73597,-19.51383 10.16439,-3.5875838 24.27658,-6.2576116 28.69399,-5.4289023 4.09331,0.7679098 10.98353,6.7190603 14.96756,12.9276263 7.06859,11.015452 11.39564,32.801249 10.25869,51.650324 -0.67143,11.131592 -3.59797,27.342114 -6.03908,33.451458 -1.42735,3.57223 -1.39937,3.69046 2.3925,10.10606 10.89293,18.43008 17.65553,37.28436 21.48809,59.90926 1.59884,9.4385 1.61925,35.02131 0.0356,44.617 -7.27243,44.06508 -37.45523,78.31106 -85.01621,96.46102 -36.71488,14.01093 -88.18886,20.27929 -136.95853,16.67845 z m 73.62985,-15.70627 c 32.12751,-4.43593 53.86699,-10.82411 76.14671,-22.37585 15.71401,-8.1475 27.48144,-17.46906 36.86311,-29.20107 15.85514,-19.82725 22.69585,-40.22108 22.69877,-67.6706 0.003,-27.48275 -6.95475,-51.97266 -21.92799,-77.18289 -1.88646,-3.1762 -4.67089,-7.37451 -6.18764,-9.3296 l -2.75771,-3.55469 3.39754,-4.72916 c 7.52734,-10.477502 11.7094,-28.283408 10.7829,-45.910343 -0.89423,-17.013255 -4.62701,-26.03161 -13.8129,-33.37178 -3.40811,-2.723319 -4.04871,-2.885534 -9.27461,-2.34855 -12.22893,1.256577 -32.22527,10.009634 -58.37828,25.554101 l -10.09295,5.998902 -8.1942,-2.472734 C 228.13887,37.232577 178.01544,37.788332 137.66801,51.122025 l -8.93095,2.951426 -9.83744,-5.723993 C 91.780714,32.570122 75.382904,25.127365 61.900585,22.47832 c -9.336103,-1.834385 -10.483321,-1.532769 -16.5388,4.348238 -7.698329,7.476521 -11.563082,21.778775 -10.59392,39.204812 0.880868,15.838457 4.884802,28.800929 11.675151,37.79752 2.14927,2.84759 4.306756,5.72055 4.794414,6.38434 0.605343,0.82399 -0.651787,3.60916 -3.962349,8.77855 -11.894134,18.57253 -19.292089,38.57898 -22.481332,60.79676 -1.6456,11.46404 -0.709999,34.28412 1.787579,43.60051 7.729616,28.83272 24.176705,50.19056 51.358461,66.693 23.736181,14.41057 59.525761,24.59914 98.014851,27.90284 11.0966,0.95247 63.55548,-0.27097 74.11109,-1.72842 z"
     id="path3157"
     inkscape:connector-curvature="0" />
  <text
     xml:space="preserve"
     style="font-size:26.92030716000000012px;font-style:normal;font-variant:normal;font-weight:normal;font-stretch:normal;line-height:125%;letter-spacing:0px;word-spacing:0px;fill:#0cc800;fill-opacity:0.47827616000000001;stroke:none;font-family:Calibri;-inkscape-font-specification:Calibri"
     x="67.83754"
     y="181.94853"
     id="text3153"
     sodipodi:linespacing="125%"><tspan
       sodipodi:role="line"
       id="tspan3155"
       x="67.83754"
       y="181.94853"
       style="font-size:96.91310119999999984px;font-style:italic;font-variant:normal;font-weight:normal;font-stretch:normal;fill:#0cc800;font-family:Sans;-inkscape-font-specification:Newspaper Italic;fill-opacity:0.47827616000000001">Freya</tspan></text>
  <text
     xml:space="preserve"
     style="font-size:27.71154213000000155px;font-style:oblique;font-variant:normal;font-weight:bold;font-stretch:normal;line-height:125%;letter-spacing:0px;word-spacing:0px;fill:#364e59;fill-opacity:1;stroke:none;font-family:Nimbus Mono L;-inkscape-font-specification:Nimbus Mono L Bold Oblique"
     x="53.022221"
     y="238.9351"
     id="text3398"
     sodipodi:linespacing="125%"><tspan
       sodipodi:role="line"
       id="tspan3400"
       x="53.022221"
       y="238.9351">Erwin wasn't right!</tspan></text>
</svg>
