<?xml version="1.0" encoding="UTF-8" standalone="no"?>
<!-- Created with Inkscape (http://www.inkscape.org/) -->

<svg
   xmlns:osb="http://www.openswatchbook.org/uri/2009/osb"
   xmlns:dc="http://purl.org/dc/elements/1.1/"
   xmlns:cc="http://creativecommons.org/ns#"
   xmlns:rdf="http://www.w3.org/1999/02/22-rdf-syntax-ns#"
   xmlns:svg="http://www.w3.org/2000/svg"
   xmlns="http://www.w3.org/2000/svg"
   xmlns:sodipodi="http://sodipodi.sourceforge.net/DTD/sodipodi-0.dtd"
   xmlns:inkscape="http://www.inkscape.org/namespaces/inkscape"
   id="svg3143"
   version="1.1"
   inkscape:version="0.48.2 r9819"
   width="902.5"
   height="698"
   sodipodi:docname="Freya_emblem.svg">
  <metadata
     id="metadata3149">
    <rdf:RDF>
      <cc:Work
         rdf:about="">
        <dc:format>image/svg+xml</dc:format>
        <dc:type
           rdf:resource="http://purl.org/dc/dcmitype/StillImage" />
        <dc:title></dc:title>
      </cc:Work>
    </rdf:RDF>
  </metadata>
  <defs
     id="defs3147">
    <linearGradient
       id="linearGradient5331"
       osb:paint="solid">
      <stop
         style="stop-color:#ffffff;stop-opacity:1;"
         offset="0"
         id="stop5333" />
    </linearGradient>
  </defs>
  <sodipodi:namedview
     pagecolor="#ffffff"
     bordercolor="#666666"
     borderopacity="1"
     objecttolerance="10"
     gridtolerance="10"
     guidetolerance="10"
     inkscape:pageopacity="0"
     inkscape:pageshadow="2"
     inkscape:window-width="1914"
     inkscape:window-height="1147"
     id="namedview3145"
     showgrid="false"
     inkscape:zoom="0.8903161"
     inkscape:cx="173.0704"
     inkscape:cy="323.09645"
     inkscape:window-x="0"
     inkscape:window-y="24"
     inkscape:window-maximized="0"
     inkscape:current-layer="svg3143"
     width="684.5px"
     showguides="true"
     inkscape:guide-bbox="true">
    <sodipodi:guide
       orientation="0,1"
       position="491.96009,758.15768"
       id="guide3003" />
  </sodipodi:namedview>
  <path
     style="fill:#c0c0c0"
     d="m 695.54657,676.44091 c -61.13994,-4.76481 -105.39293,-29.34896 -124.34808,-69.07989 -6.43478,-13.48759 -9.13983,-26.4626 -9.22358,-44.24179 -0.10849,-23.04469 4.05427,-41.20982 14.23546,-62.11875 l 4.22794,-8.68279 -1.43624,-3.55443 c -0.78994,-1.95495 -2.31695,-7.40915 -3.3934,-12.12051 -2.34728,-10.2734 -3.29027,-30.60548 -1.91837,-41.36159 1.73726,-13.62046 6.7151,-24.9823 13.44886,-30.69677 5.01828,-4.25868 13.03492,-3.80059 28.79827,1.64563 11.76531,4.06486 40.61556,18.31745 42.2104,20.85273 0.27042,0.42983 3.08879,-0.11863 6.5697,-1.27842 8.59147,-2.86265 23.80256,-5.99832 34.6609,-7.14518 11.33082,-1.19676 38.82225,-0.54053 48.7256,1.16311 7.38859,1.27105 24.03748,5.12623 25.08281,5.80816 0.34284,0.22364 4.23026,-1.66738 8.63866,-4.20227 10.11623,-5.81696 25.71537,-13.3352 34.31838,-16.54027 8.16232,-3.04089 19.49486,-5.30406 23.04219,-4.60163 3.28705,0.6509 8.82013,5.69519 12.01945,10.95768 5.67629,9.33687 9.15106,27.8029 8.23806,43.7797 -0.53919,9.43532 -2.88931,23.17564 -4.84957,28.35402 -1.14623,3.02788 -1.12375,3.12811 1.92123,8.56607 8.74737,15.62166 14.17797,31.60288 17.25564,50.78013 1.28392,8.00024 1.30031,29.68465 0.0286,37.81811 -5.83998,37.35034 -30.07776,66.37782 -68.27077,81.76204 -29.48322,11.87588 -70.81851,17.18907 -109.98212,14.13691 z m 59.12714,-13.31287 c 25.79943,-3.75999 43.25694,-9.17471 61.14826,-18.96617 12.61887,-6.90596 22.0685,-14.80707 29.60227,-24.75132 12.73219,-16.80593 18.2255,-34.09208 18.22785,-57.35877 0.002,-23.29485 -5.58489,-44.05292 -17.60888,-65.42153 -1.51489,-2.69222 -3.75089,-6.25076 -4.96888,-7.90793 l -2.21451,-3.01302 2.72832,-4.00851 c 6.04471,-8.88092 9.40302,-23.97351 8.65902,-38.91441 -0.7181,-14.42073 -3.71564,-22.06481 -11.09221,-28.28649 -2.73682,-2.30832 -3.25126,-2.4458 -7.44782,-1.99067 -9.82022,1.06509 -25.87793,8.48435 -46.87964,21.66009 l -8.10497,5.08478 -6.5802,-2.09593 c -33.0766,-10.53555 -73.32733,-10.06452 -105.72762,1.23738 l -7.17184,2.50168 -7.89978,-4.85176 c -21.77737,-13.37485 -34.94534,-19.68344 -45.77209,-21.92882 -7.49718,-1.55486 -8.41841,-1.29921 -13.28118,3.68564 -6.18202,6.33722 -9.28552,18.46005 -8.50725,33.23067 0.70735,13.42495 3.92264,24.41215 9.37552,32.03783 1.72592,2.41366 3.45846,4.84882 3.85006,5.41149 0.48612,0.69842 -0.5234,3.05917 -3.18189,7.44082 -9.55137,15.7424 -15.49217,32.70021 -18.05325,51.53237 -1.32148,9.71712 -0.57013,29.05982 1.4355,36.95655 6.20715,24.43912 19.41468,42.54237 41.2425,56.53012 19.06091,12.21465 47.80111,20.85067 78.7091,23.65092 8.91093,0.80735 51.03711,-0.22966 59.51361,-1.46501 z"
     id="path3157"
     inkscape:connector-curvature="0" />
  <path
     style="font-size:medium;font-style:normal;font-variant:normal;font-weight:normal;font-stretch:normal;text-indent:0;text-align:start;text-decoration:none;line-height:normal;letter-spacing:normal;word-spacing:normal;text-transform:none;direction:ltr;block-progression:tb;writing-mode:lr-tb;text-anchor:start;baseline-shift:baseline;color:#000000;fill:#c0c0c0;fill-opacity:1;fill-rule:nonzero;stroke:none;stroke-width:0.95976382px;marker:none;visibility:visible;display:inline;overflow:visible;enable-background:accumulate;font-family:Sans;-inkscape-font-specification:Sans"
     d="m 69.033613,90.56791 c -20.003705,0 -36.158613,11.3241 -36.158613,25.44186 l 0,315.03189 c 0,14.11776 16.154908,25.44186 36.158613,25.44186 l 137.287157,0 c 2.08312,1.04376 3.43656,1.30082 4.49919,1.25949 1.11105,-0.0433 1.77595,-0.25841 3.13704,0.0314 2.7222,0.57979 8.4272,3.42652 23.6517,14.70464 19.02302,14.09201 40.2581,19.91411 74.75257,29.5982 34.67981,9.73612 114.99218,18.43908 155.40774,19.8056 40.16059,1.3579 86.888,15.52331 86.888,15.52331 l 0.7017,-0.7557 c 0,0 -9.39827,-8.13994 -29.05897,-17.66445 -19.66071,-9.52452 -49.62961,-20.47259 -90.89186,-26.19756 -12.97195,-1.7998 -32.38444,-7.81711 -50.06895,-15.01951 -17.03112,-6.93631 -32.29528,-14.96746 -38.96545,-21.28551 l 89.0344,0 c 20.0037,0 36.19989,-11.32337 36.19989,-25.44187 l 0,-315.03188 c 0,-14.11849 -16.19619,-25.44186 -36.19989,-25.44186 l -366.374267,0 z m 0,0.944623 366.374267,0 c 19.37708,0 34.96158,10.943567 34.96158,24.497237 l 0,315.03189 c 0,13.55367 -15.5845,24.46574 -34.96158,24.46574 l -90.47909,0 -1.23831,0 0.74299,0.78719 c 6.51068,6.72314 22.56266,15.08944 40.32759,22.3246 17.76492,7.23516 37.19977,13.27688 50.44043,15.11397 41.08862,5.70088 70.89811,16.6057 90.43781,26.07161 16.60335,8.04339 24.28681,13.98181 26.66491,15.90116 -7.18485,-2.10561 -47.58312,-13.5196 -84.49393,-14.76761 -40.25093,-1.36096 -120.72389,-10.14116 -155.03623,-19.77412 -34.4977,-9.68499 -55.4467,-15.44317 -74.25725,-29.37779 -15.26049,-11.30477 -20.95461,-14.25901 -24.22958,-14.95654 -1.63747,-0.34875 -2.63295,-0.0654 -3.50854,-0.0314 -0.87557,0.0341 -1.83469,-0.089 -3.96259,-1.19652 l -0.16511,-0.0944 -0.20637,0 -137.410997,0 c -19.377081,0 -34.920305,-10.91135 -34.920305,-24.46575 l 0,-315.03189 c 0,-13.55441 15.543224,-24.497236 34.920305,-24.497236 z"
     id="path3849"
     inkscape:connector-curvature="0" />
  <path
     style="fill:#f5f5f5;fill-opacity:1;stroke:#ffffff;stroke-width:0;stroke-miterlimit:0;stroke-opacity:1;stroke-dasharray:none;stroke-dashoffset:0"
     d="m 546.71046,533.90699 c -1.36428,-0.60999 -23.33562,-5.7263 -31.52144,-7.34014 -17.17316,-3.38574 -29.24943,-4.83519 -49.70021,-5.96524 -55.30084,-3.05572 -113.18074,-10.24316 -145.76256,-18.10055 -14.9302,-3.60055 -38.28578,-10.62429 -50.07109,-15.05789 -14.19405,-5.33977 -21.19032,-9.11213 -35.33902,-19.05466 -13.60822,-9.56272 -17.3163,-11.5547 -22.17167,-11.91059 -2.04505,-0.1499 -3.89791,-0.49428 -4.11747,-0.76527 -0.22213,-0.27417 -31.75965,-0.49274 -71.09553,-0.49274 -44.717771,0 -72.164591,-0.2111 -74.691984,-0.57446 -14.438308,-2.07582 -25.498802,-10.6771 -27.430688,-21.33169 -0.424305,-2.34008 -0.619429,-65.85779 -0.499397,-162.56599 0.191868,-154.58725 0.233885,-158.79902 1.611674,-161.55458 4.269235,-8.53843 12.380535,-14.07825 23.96637,-16.368422 4.040416,-0.79867 23.87046,-0.890479 192.335545,-0.890479 168.46509,0 188.29513,0.09182 192.33556,0.890479 11.79467,2.331454 20.10561,8.104162 23.97287,16.651352 1.37017,3.02827 1.40816,7.45661 1.40816,164.10098 0,156.85767 -0.0363,161.06858 -1.41339,164.10098 -3.9307,8.65528 -14.09894,15.21036 -26.31968,16.96737 -2.44062,0.35088 -22.43265,0.57446 -51.36925,0.57446 -26.05546,0 -47.36362,0.19098 -47.35145,0.42439 0.0416,0.79752 5.53539,5.09361 10.25835,8.02196 20.37823,12.63498 57.09931,26.2663 81.70198,30.32879 37.22279,6.14635 62.16039,13.20286 86.4124,24.45178 12.04727,5.58793 29.61636,15.93714 27.08211,15.9529 -0.61197,0.004 -1.61555,-0.21793 -2.23019,-0.49274 l 0,0 z"
     id="path3887"
     inkscape:connector-curvature="0" />
</svg>
