<?xml version="1.0" encoding="UTF-8" standalone="no"?>
<!-- Created with Inkscape (http://www.inkscape.org/) -->

<svg
   xmlns:dc="http://purl.org/dc/elements/1.1/"
   xmlns:cc="http://creativecommons.org/ns#"
   xmlns:rdf="http://www.w3.org/1999/02/22-rdf-syntax-ns#"
   xmlns:svg="http://www.w3.org/2000/svg"
   xmlns="http://www.w3.org/2000/svg"
   xmlns:sodipodi="http://sodipodi.sourceforge.net/DTD/sodipodi-0.dtd"
   xmlns:inkscape="http://www.inkscape.org/namespaces/inkscape"
   id="svg3143"
   version="1.1"
   inkscape:version="0.48.2 r9819"
   width="902.5"
   height="698"
   sodipodi:docname="Freya_emblem.svg">
  <metadata
     id="metadata3149">
    <rdf:RDF>
      <cc:Work
         rdf:about="">
        <dc:format>image/svg+xml</dc:format>
        <dc:type
           rdf:resource="http://purl.org/dc/dcmitype/StillImage" />
        <dc:title />
      </cc:Work>
    </rdf:RDF>
  </metadata>
  <defs
     id="defs3147" />
  <sodipodi:namedview
     pagecolor="#ffffff"
     bordercolor="#666666"
     borderopacity="1"
     objecttolerance="10"
     gridtolerance="10"
     guidetolerance="10"
     inkscape:pageopacity="0"
     inkscape:pageshadow="2"
     inkscape:window-width="1912"
     inkscape:window-height="1150"
     id="namedview3145"
     showgrid="false"
     inkscape:zoom="0.89031612"
     inkscape:cx="35.67866"
     inkscape:cy="312.93138"
     inkscape:window-x="4"
     inkscape:window-y="25"
     inkscape:window-maximized="0"
     inkscape:current-layer="svg3143"
     width="684.5px"
     showguides="true"
     inkscape:guide-bbox="true">
    <sodipodi:guide
       orientation="0,1"
       position="491.96009,758.15768"
       id="guide3003" />
  </sodipodi:namedview>
  <path
     style="fill:#c0c0c0"
     d="m 603.271,669.75223 c -84.21634,-6.51852 -145.17199,-40.15097 -171.28149,-94.50504 -8.8635,-18.45176 -12.58953,-36.20228 -12.70489,-60.52517 -0.14945,-31.52639 5.5845,-56.37726 19.60843,-84.98183 l 5.82371,-11.87852 -1.97833,-4.86264 c -1.08808,-2.67448 -3.19144,-10.13614 -4.67419,-16.58152 -3.23322,-14.05458 -4.53213,-41.86996 -2.64242,-56.5849 2.39296,-18.63353 9.24962,-34.17715 18.52494,-41.99485 6.91235,-5.82611 17.95477,-5.19942 39.66777,2.25131 16.20595,5.56095 55.94531,25.05926 58.14211,28.52766 0.37248,0.58803 4.25462,-0.16229 9.04934,-1.74894 11.83419,-3.91625 32.7865,-8.20603 47.74316,-9.77499 15.60748,-1.63724 53.47516,-0.73948 67.11638,1.5912 10.17731,1.73885 33.1101,7.01295 34.54996,7.94586 0.47225,0.30596 5.82691,-2.28106 11.8992,-5.74892 13.93446,-7.95792 35.42128,-18.24328 47.27137,-22.62799 11.24308,-4.16011 26.85292,-7.25624 31.73914,-6.29528 4.5277,0.89047 12.14916,7.79133 16.55602,14.9907 7.81872,12.77335 12.605,38.03587 11.3474,59.893 -0.7427,12.90803 -3.97984,31.70554 -6.67998,38.78985 -1.57885,4.14229 -1.54789,4.27942 2.64638,11.71884 12.04894,21.37128 19.52924,43.23445 23.76853,69.46997 1.76852,10.94476 1.7911,40.61021 0.0394,51.73723 -8.0442,51.09729 -41.43019,90.80847 -94.0386,111.8549 -40.61125,16.24685 -97.54795,23.51558 -151.49331,19.34007 z m 81.44383,-18.21273 c 35.53707,-5.14387 59.58367,-12.5515 84.22781,-25.94675 17.38168,-9.44773 30.39793,-20.25688 40.77522,-33.86115 17.53778,-22.99142 25.10446,-46.63982 25.1077,-78.46991 0.003,-31.86862 -7.69283,-60.26678 -24.2551,-89.50021 -2.08666,-3.68309 -5.16661,-8.55137 -6.84432,-10.81847 l -3.05035,-4.12197 3.7581,-5.48386 c 8.32619,-12.14958 12.95205,-32.79706 11.92724,-53.23702 -0.98913,-19.72834 -5.11806,-30.18587 -15.27881,-38.69745 -3.76979,-3.15792 -4.4784,-3.346 -10.25889,-2.72336 -13.52673,1.45711 -35.64519,11.60706 -64.5737,29.63219 l -11.16407,6.95625 -9.0638,-2.86735 c -45.56089,-14.41321 -101.00369,-13.7688 -145.63301,1.6928 l -9.87875,3.42244 -10.88145,-6.63747 c -29.99692,-18.29751 -48.13495,-26.92802 -63.0481,-29.99981 -10.32689,-2.12713 -11.59583,-1.7774 -18.29398,5.04215 -8.51533,8.66967 -12.7902,25.25435 -11.7182,45.46136 0.97434,18.36605 5.4032,33.39714 12.91418,43.82948 2.37735,3.30203 4.76381,6.63346 5.30322,7.40322 0.6696,0.95548 -0.72095,4.18511 -4.38284,10.17944 -13.15641,21.53646 -21.33947,44.73566 -24.8672,70.49908 -1.82025,13.29355 -0.78532,39.75541 1.97731,50.55857 8.54994,33.43404 26.74247,58.20027 56.80889,77.33627 26.25518,16.71031 65.84297,28.52485 108.41673,32.35575 12.27424,1.10449 70.30034,-0.3142 81.97617,-2.00422 z"
     id="path3157"
     inkscape:connector-curvature="0" />
  <path
     style="font-size:medium;font-style:normal;font-variant:normal;font-weight:normal;font-stretch:normal;text-indent:0;text-align:start;text-decoration:none;line-height:normal;letter-spacing:normal;word-spacing:normal;text-transform:none;direction:ltr;block-progression:tb;writing-mode:lr-tb;text-anchor:start;baseline-shift:baseline;color:#000000;fill:#c0c0c0;fill-opacity:1;stroke:none;stroke-width:5.89900016999999988;marker:none;visibility:visible;display:inline;overflow:visible;enable-background:accumulate;font-family:Sans;-inkscape-font-specification:Sans"
     d="m 416.09375,91.9375 c -8.88675,-0.351591 -15.78307,2.353807 -18.34375,3.5 -0.51046,-0.201264 -1.01263,-0.38247 -1.5625,-0.5 -1.45089,-0.310115 -3.24156,-0.513439 -5.5,-0.65625 C 386.17062,93.995628 379.85276,93.930991 371.96875,94 c -15.76802,0.138018 -37.71602,0.811914 -63.09375,1.4375 -50.75546,1.251173 -115.16531,2.288899 -170.40625,-1.625 -29.86767,-2.116167 -51.57172,3.184923 -67.1875,12.53125 -15.61578,9.34633 -25.021238,22.68575 -30.5,36.15625 -10.795225,26.54197 -6.777796,53.57213 -6.65625,54.375 -1.021706,46.80999 12.055784,163.71878 18.3125,264.5 1.605824,25.8661 10.964773,44.96554 25.5625,58.375 14.597727,13.40946 34.23932,21.14454 56.3125,25.125 44.14637,7.96092 98.33628,1.09246 143.8125,-6.75 45.79035,-7.89662 67.48519,-19.84855 77.875,-30.40625 5.19491,-5.27885 7.5063,-10.21728 8.4375,-13.9375 0.89202,-3.56371 0.44408,-6.12213 0.40625,-6.34375 l 0.0312,0 -0.0312,-0.15625 L 351.90625,397.1875 416.875,395 l 6.28125,-0.21875 -4.1875,-4.6875 -37.21875,-41.6875 c 9.21372,-9.97546 64.19224,-73.28763 70.96875,-172.40625 1.84727,-27.01963 -0.47523,-45.615 -5.25,-58.4375 -4.77477,-12.8225 -12.18858,-19.899249 -19.9375,-23.15625 -3.87446,-1.628501 -7.77227,-2.323741 -11.4375,-2.46875 z m -0.25,5.9375 c 3.06001,0.101152 6.29004,0.658956 9.40625,1.96875 6.23241,2.61959 12.34827,8.12839 16.6875,19.78125 4.33923,11.65286 6.71764,29.47393 4.90625,55.96875 -7.24221,105.93036 -71.1875,170.6875 -71.1875,170.6875 l -1.9375,2 1.84375,2.0625 34.78125,38.96875 -61.90625,2.125 -3.28125,0.0937 0.46875,3.25 13.40625,93.5 0.0312,0.0937 0,0.0937 c 0,0 0.33415,1.16673 -0.34375,3.875 -0.6779,2.70827 -2.41181,6.65118 -6.9375,11.25 -9.05138,9.19764 -29.545,20.93925 -74.65625,28.71875 -45.2639,7.80584 -99.0578,14.45432 -141.78125,6.75 C 113.98203,535.21034 95.483195,527.7919 82,515.40625 68.516805,503.0206 59.873924,485.64755 58.34375,461 52.064783,359.86038 38.969957,242.12062 40,196.78125 l 0.03125,-0.25 -0.0625,-0.25 c 0,0 -3.937093,-26.4389 6.28125,-51.5625 5.109172,-12.5618 13.669664,-24.69813 28.0625,-33.3125 14.392836,-8.61437 34.77056,-13.740736 63.75,-11.6875 55.6357,3.94187 120.13952,2.87722 170.9375,1.625 25.39899,-0.62611 47.38505,-1.30055 63.03125,-1.4375 7.8231,-0.06848 14.0606,0.01436 18.28125,0.28125 2.08232,0.13167 3.67792,0.30824 4.59375,0.5 l 0.5625,2.40625 3.375,-1.6875 c 0,0 7.81996,-3.834705 17,-3.53125 z"
     id="path3064"
     inkscape:connector-curvature="0" />
</svg>
