<?xml version="1.0" encoding="UTF-8" standalone="no"?>
<!-- Created with Inkscape (http://www.inkscape.org/) -->

<svg
   xmlns:dc="http://purl.org/dc/elements/1.1/"
   xmlns:cc="http://creativecommons.org/ns#"
   xmlns:rdf="http://www.w3.org/1999/02/22-rdf-syntax-ns#"
   xmlns:svg="http://www.w3.org/2000/svg"
   xmlns="http://www.w3.org/2000/svg"
   xmlns:sodipodi="http://sodipodi.sourceforge.net/DTD/sodipodi-0.dtd"
   xmlns:inkscape="http://www.inkscape.org/namespaces/inkscape"
   id="svg3143"
   version="1.1"
   inkscape:version="0.48.2 r9819"
   width="902.5"
   height="698"
   sodipodi:docname="Freya_emblem.svg">
  <metadata
     id="metadata3149">
    <rdf:RDF>
      <cc:Work
         rdf:about="">
        <dc:format>image/svg+xml</dc:format>
        <dc:type
           rdf:resource="http://purl.org/dc/dcmitype/StillImage" />
        <dc:title />
      </cc:Work>
    </rdf:RDF>
  </metadata>
  <defs
     id="defs3147" />
  <sodipodi:namedview
     pagecolor="#ffffff"
     bordercolor="#666666"
     borderopacity="1"
     objecttolerance="10"
     gridtolerance="10"
     guidetolerance="10"
     inkscape:pageopacity="0"
     inkscape:pageshadow="2"
     inkscape:window-width="952"
     inkscape:window-height="1150"
     id="namedview3145"
     showgrid="false"
     inkscape:zoom="2.5181943"
     inkscape:cx="317.30792"
     inkscape:cy="232.48213"
     inkscape:window-x="964"
     inkscape:window-y="25"
     inkscape:window-maximized="0"
     inkscape:current-layer="svg3143"
     width="684.5px"
     showguides="true"
     inkscape:guide-bbox="true">
    <sodipodi:guide
       orientation="0,1"
       position="491.96009,758.15768"
       id="guide3003" />
  </sodipodi:namedview>
  <path
     style="fill:#c0c0c0"
     d="m 613.59586,668.95801 c -84.21634,-6.51852 -145.17199,-40.15097 -171.28149,-94.50504 -8.8635,-18.45176 -12.58953,-36.20228 -12.70489,-60.52517 -0.14945,-31.52639 5.5845,-56.37726 19.60843,-84.98183 l 5.82371,-11.87852 -1.97833,-4.86264 c -1.08808,-2.67448 -3.19144,-10.13614 -4.67419,-16.58152 -3.23322,-14.05458 -4.53213,-41.86996 -2.64242,-56.5849 2.39296,-18.63353 9.24962,-34.17715 18.52494,-41.99485 6.91235,-5.82611 17.95477,-5.19942 39.66777,2.25131 16.20595,5.56095 55.94531,25.05926 58.14211,28.52766 0.37248,0.58803 4.25462,-0.16229 9.04934,-1.74894 11.83419,-3.91625 32.7865,-8.20603 47.74316,-9.77499 15.60748,-1.63724 53.47516,-0.73948 67.11638,1.5912 10.17731,1.73885 33.1101,7.01295 34.54996,7.94586 0.47225,0.30596 5.82691,-2.28106 11.8992,-5.74892 13.93446,-7.95792 35.42128,-18.24328 47.27137,-22.62799 11.24308,-4.16011 26.85292,-7.25624 31.73914,-6.29528 4.5277,0.89047 12.14916,7.79133 16.55602,14.9907 7.81872,12.77335 12.605,38.03587 11.3474,59.893 -0.7427,12.90803 -3.97984,31.70554 -6.67998,38.78985 -1.57885,4.14229 -1.54789,4.27942 2.64638,11.71884 12.04894,21.37128 19.52924,43.23445 23.76853,69.46997 1.76852,10.94476 1.7911,40.61021 0.0394,51.73723 -8.0442,51.09729 -41.43019,90.80847 -94.0386,111.8549 -40.61125,16.24685 -97.54795,23.51558 -151.49331,19.34007 z m 81.44383,-18.21273 c 35.53707,-5.14387 59.58367,-12.5515 84.22781,-25.94675 17.38168,-9.44773 30.39793,-20.25688 40.77522,-33.86115 17.53778,-22.99142 25.10446,-46.63982 25.1077,-78.46991 0.003,-31.86862 -7.69283,-60.26678 -24.2551,-89.50021 -2.08666,-3.68309 -5.16661,-8.55137 -6.84432,-10.81847 l -3.05035,-4.12197 3.7581,-5.48386 c 8.32619,-12.14958 12.95205,-32.79706 11.92724,-53.23702 -0.98913,-19.72834 -5.11806,-30.18587 -15.27881,-38.69745 -3.76979,-3.15792 -4.4784,-3.346 -10.25889,-2.72336 -13.52673,1.45711 -35.64519,11.60706 -64.5737,29.63219 l -11.16407,6.95625 -9.0638,-2.86735 c -45.56089,-14.41321 -101.00369,-13.7688 -145.63301,1.6928 l -9.87875,3.42244 -10.88145,-6.63747 c -29.99692,-18.29751 -48.13495,-26.92802 -63.0481,-29.99981 -10.32689,-2.12713 -11.59583,-1.7774 -18.29398,5.04215 -8.51533,8.66967 -12.7902,25.25435 -11.7182,45.46136 0.97434,18.36605 5.4032,33.39714 12.91418,43.82948 2.37735,3.30203 4.76381,6.63346 5.30322,7.40322 0.6696,0.95548 -0.72095,4.18511 -4.38284,10.17944 -13.15641,21.53646 -21.33947,44.73566 -24.8672,70.49908 -1.82025,13.29355 -0.78532,39.75541 1.97731,50.55857 8.54994,33.43404 26.74247,58.20027 56.80889,77.33627 26.25518,16.71031 65.84297,28.52485 108.41673,32.35575 12.27424,1.10449 70.30034,-0.3142 81.97617,-2.00422 z"
     id="path3157"
     inkscape:connector-curvature="0" />
  <path
     style="fill:#dcdcdc;stroke:#000000;stroke-width:1px;stroke-linecap:butt;stroke-linejoin:miter;stroke-opacity:1;fill-opacity:1"
     d="M 60.25 94.40625 C 45.342777 94.40625 33.34375 106.40527 33.34375 121.3125 L 33.34375 460.71875 C 33.34375 475.62597 45.342777 487.625 60.25 487.625 L 164.28125 487.625 C 170.92956 492.55457 178.42224 498.8893 188.21875 505 C 228.32685 530.01793 196.30426 513.0402 244.625 536.78125 C 291.42479 559.77502 331.96875 549.46875 331.96875 549.46875 L 406.625 535.1875 C 406.625 535.1875 374.47127 533.18541 312.125 520.875 C 292.27992 516.95655 278.75765 501.78077 269.125 487.625 L 337.625 487.625 C 352.53222 487.625 364.5625 475.62597 364.5625 460.71875 L 364.5625 121.3125 C 364.5625 106.40527 352.53222 94.40625 337.625 94.40625 L 60.25 94.40625 z "
     id="path3849" />
</svg>
